<svg width="148" height="148" viewBox="0 0 148 148" fill="none" xmlns="http://www.w3.org/2000/svg">
<path d="M70.3953 52.9169C71.3311 53.7759 72.3169 55.2769 73.1773 56.2333C74.0286 57.1797 74.7825 58.224 75.6294 59.1584C75.8643 59.4172 77.6074 60.1175 77.9637 60.0909C78.0222 59.9008 72.2413 53.1321 71.6533 52.1719C71.3765 51.7282 70.2277 50.7754 70.7633 50.1696C71.0578 49.8365 72.0133 47.7617 72.4483 48.0226C72.5222 48.396 70.6461 50.343 71.0739 50.9344C71.9662 52.1682 73.0631 53.3036 74.028 54.4768L77.5464 58.7478C77.7812 59.0364 78.8766 60.4997 79.1114 60.6264C79.6779 60.9321 83.1278 62.5389 83.5223 62.2474C83.5143 61.9721 82.6082 61.0079 82.3949 60.7515L80.4453 58.3828L75.6146 52.4221C74.886 51.5387 74.1377 50.6694 73.4551 49.7494C73.201 49.4069 72.5475 48.8399 72.6542 48.3889L72.7469 48.4033C73.0527 48.6298 73.3774 49.0857 73.644 49.3982C74.8429 50.8045 76.0042 52.2644 77.1772 53.6949L81.1375 58.5542C81.9961 59.589 82.9657 60.6527 83.7689 61.7359C83.9137 61.9312 84.0308 62.1452 84.1177 62.3722C83.4231 63.3517 82.9139 64.6912 82.0386 65.4998C81.7311 65.7839 80.8601 65.0075 80.5075 65.2254C80.7097 65.5037 81.4666 66.3228 81.3711 66.623C81.0222 67.7189 80.2375 68.9779 79.5022 69.8572C79.361 70.0259 78.2139 69.5807 77.8965 69.5189C78.3311 70.0709 78.6362 70.2271 78.8088 70.942C78.6152 71.6745 77.5217 73.5247 76.9861 74.1536C76.7469 74.434 75.7336 73.8017 75.4544 73.8741C75.4285 74.1157 76.1558 74.9683 76.3568 75.2651C76.0523 75.8601 74.8996 77.9334 74.3979 78.1617C74.2327 78.0805 74.3153 77.9265 74.2364 77.8319C72.3707 75.5911 70.5632 73.2763 68.6412 71.0836C68.4027 70.8115 66.5579 69.9672 66.2551 70.107C66.2464 70.2603 66.2885 70.3627 66.3973 70.4794C67.6429 71.8159 68.7545 73.2897 69.903 74.7115C71.1542 76.2604 72.7372 77.9121 73.7488 79.6136C73.5355 80.2249 72.4318 81.852 72.0424 82.5918C70.99 81.1465 69.7126 79.7904 68.571 78.4148C65.9378 75.2421 63.3771 72.0085 60.7407 68.8383C60.6392 68.7162 60.3631 68.3461 60.3464 68.1614C60.4948 67.0222 61.3947 65.8771 61.9827 64.901C62.2438 64.4696 63.2258 65.0168 63.61 64.9869C63.6393 64.7084 63.0182 64.1343 62.7886 63.7144C62.9723 63.054 64.1469 61.0078 64.7097 60.4979C65.0974 60.1467 65.7138 60.712 66.2806 60.7898C66.262 60.5194 65.4919 59.5643 65.2957 59.2877C65.5173 58.8371 66.8815 56.4545 67.3274 56.1055C67.5912 55.8988 68.6388 56.3223 69.0306 56.4697C67.869 55.0088 67.7802 54.8893 68.947 53.2227C69.0917 53.016 69.4502 52.144 69.7116 52.1063L69.7645 52.2311C69.8623 52.4812 69.8878 52.4378 69.8466 52.6676C69.6902 52.8144 69.7472 52.8013 69.5572 52.8387C69.2222 53.4499 68.5634 54.4371 68.4459 55.0374C69.9031 57.1676 70.0338 56.9422 72.4066 57.8895C73.046 58.1447 73.8647 58.5951 74.5464 58.8112L74.6019 58.7768C74.3535 58.1915 72.8039 56.465 72.2951 55.8402C71.5877 54.9542 70.8872 54.0627 70.1936 53.1659C70.2501 52.9824 70.2191 53.0424 70.3953 52.9169ZM72.4252 81.0872C72.7402 80.599 73.0483 80.1065 73.3495 79.6096C70.9506 76.4902 67.6264 72.5292 64.9709 69.5115C64.6022 69.0925 61.5845 68.2018 60.8174 67.7518C60.8047 67.9443 60.7566 68.1299 60.8577 68.2711C61.336 68.9387 61.8942 69.5847 62.4173 70.21L64.8336 73.1553L69.2636 78.5411C70.0999 79.5624 71.2117 81.1007 72.1591 81.956C72.203 81.6665 72.2286 81.3072 72.4252 81.0872ZM74.5501 77.6147C74.748 77.1859 74.8244 77.0172 75.103 76.6415C75.4396 76.2728 75.6337 75.6807 75.9321 75.2211C75.5702 74.8809 74.6524 73.6645 74.4724 73.5229C73.9313 73.0964 70.1298 71.4928 69.5971 71.3724C69.5945 71.54 74.1864 77.2221 74.5501 77.6147ZM68.6487 65.6115C68.9504 66.2155 69.2002 66.3476 69.6534 66.8056C69.7829 66.9364 69.8685 67.2985 70.0354 67.4553C70.817 68.19 71.9798 68.5386 72.9493 68.9767C72.9704 68.9824 72.9914 68.988 73.0125 68.9937C72.7051 67.6507 69.9878 65.7499 68.6487 65.6115ZM71.2169 61.2766C71.5782 61.8687 72.0646 62.3245 72.4711 62.8496C73.0906 63.6499 73.7371 63.9625 74.6722 64.3089C74.9243 64.4022 75.307 64.6195 75.5758 64.637C75.4975 64.0774 74.0946 62.6958 73.6687 62.3072C73.3271 61.996 71.6569 61.3574 71.2169 61.2766ZM72.1703 67.081C72.2789 67.3866 73.652 69.003 73.8998 69.1949C74.404 69.5856 77.8903 71.1286 78.3446 71.0883C78.4611 70.3681 76.9392 69.0322 76.3142 68.7523C75.2331 68.268 74.1137 67.8266 73.0202 67.3669C72.7456 67.25 72.4626 67.1191 72.1703 67.081ZM63.2824 63.443C63.2258 63.8841 64.612 65.5206 64.9152 65.6141C65.966 65.9382 68.4477 67.2941 69.4142 67.4491C69.4116 67.3976 69.4088 67.3398 69.4056 67.2754C69.3672 67.1358 67.807 65.3607 67.8528 65.4006C67.3018 64.9206 63.7905 63.497 63.2824 63.443ZM74.703 62.7021C74.825 63.0806 76.5861 65.0892 76.9935 65.2161C77.7991 65.4672 80.2881 66.8635 80.9729 66.6407L81.021 66.6246C81.0111 66.1681 79.4498 64.6325 79.0313 64.4731C78.2928 64.1918 75.3114 62.7392 74.703 62.7021ZM65.85 59.0709C66.0766 59.8357 67.0268 61.0422 67.7595 61.3857C69.2011 62.0615 70.6292 62.5357 72.0594 63.2725C71.9501 62.5302 70.7328 61.3318 70.2423 60.9238C69.7635 60.5255 66.322 59.1447 65.85 59.0709Z" fill="white"/>
<path d="M37.262 94.2393C37.6206 92.8535 39.5395 90.4156 40.2608 89.0107C40.5209 88.504 42.2909 85.4129 42.7845 85.341C43.8975 85.1788 45.6216 85.2793 46.8429 85.2137L46.8467 99.6082C45.4872 99.579 44.1272 99.5826 42.7678 99.619C42.6833 97.9235 42.7519 95.6467 42.7562 93.9054C42.7528 92.8589 42.6721 91.0069 43.0312 90.1125C42.4001 90.6922 42.2417 91.1281 41.8059 91.8469L40.0129 94.803C39.4666 95.6958 37.5542 98.6317 37.2748 99.4058C36.6943 98.9021 35.7191 97.2672 35.2436 96.5279L32.3519 91.9961C32.1035 91.6102 31.4791 90.561 31.1318 90.3217L31.0462 90.3461C31.0759 90.5305 31.1804 90.8086 31.1844 90.9584C31.263 93.829 31.0745 96.7715 31.2165 99.6366C29.9795 99.552 28.4144 99.589 27.1633 99.6124C27.1333 99.0025 27.1321 98.3388 27.141 97.726C27.2009 93.5858 27.0281 89.3712 27.1623 85.2386C28.2319 85.2811 30.4006 85.1858 31.3059 85.3215C31.8565 85.9271 32.7441 87.3749 33.2087 88.1016C34.0952 89.5094 34.9976 90.9071 35.9157 92.2944C36.3646 92.9808 36.715 93.6252 37.262 94.2393Z" fill="white"/>
<path d="M65.9234 85.155C67.139 85.1297 68.2952 85.1378 69.6157 85.1433C72.7043 85.1545 78.7508 84.7114 79.2828 88.9209C79.5737 91.2268 77.3405 92.6868 75.3841 93.153C76.3352 94.0187 77.4946 95.371 78.3748 96.3457C79.3715 97.4348 80.3953 98.499 81.4444 99.5376C80.486 99.6305 79.1287 99.5917 78.1381 99.5901C77.7233 99.5922 76.7075 99.6371 76.3685 99.5609L76.3315 99.5522C75.9093 99.457 75.1123 98.3414 74.7967 97.9726C73.6114 96.5656 72.4404 95.1466 71.284 93.7158L69.6914 93.6376L69.6995 97.3555C69.7008 97.9518 69.7389 98.9266 69.6586 99.4822C69.4434 99.67 65.5045 99.593 64.873 99.5922C64.8698 99.5559 64.8673 99.5197 64.8653 99.4833C64.8145 98.5761 64.8244 85.4843 64.9472 85.3578C65.1715 85.1269 65.6242 85.1676 65.9234 85.155ZM69.5552 91.3683C70.2381 91.3561 72.4833 91.3933 73.0366 91.1387C74.682 90.6722 75.1634 88.6394 73.6321 87.7673C72.9133 87.3579 71.3779 87.3555 70.5258 87.3798C70.2541 87.3829 69.9139 87.3628 69.6701 87.464C69.5793 87.7389 69.8495 90.2927 69.5552 91.3683Z" fill="white"/>
<path d="M116.872 85.1495C117.577 85.1337 120.278 84.9675 120.659 85.4095C122.209 87.2066 123.835 89.0834 125.349 90.9138C126.311 92.076 127.61 93.2785 128.355 94.5681C128.487 92.1016 128.232 87.9619 128.407 85.3544C128.412 85.2878 128.529 85.1814 128.587 85.1829C129.295 85.2016 131.815 84.9985 132.313 85.2532C132.47 85.599 132.408 87.159 132.405 87.6328L132.395 90.984C132.395 93.6497 132.399 96.3255 132.429 98.9918C132.432 99.1743 132.44 99.4287 132.332 99.5564C132.025 99.6344 131.461 99.5998 131.124 99.5926C130.353 99.5962 129.613 99.6046 128.843 99.5609C128.42 99.2242 127.866 98.5591 127.501 98.1395L125.271 95.5335C123.762 93.7777 121.623 91.4718 120.294 89.6843C120.323 92.9789 120.17 96.2641 120.275 99.6164C119.081 99.5503 117.493 99.5995 116.277 99.6095C116.23 99.1433 116.251 98.282 116.248 97.7824L116.236 94.2665C116.234 93.3411 116.139 85.7723 116.362 85.3805C116.536 85.2177 116.637 85.2081 116.872 85.1495Z" fill="white"/>
<path d="M50.4842 85.1512C50.9194 85.1446 51.3721 85.1424 51.8075 85.1506C55.4132 85.219 59.0878 85.0466 62.6873 85.1618C62.5504 85.6268 62.0218 86.9764 61.7471 87.2937C61.4967 87.5827 59.0278 87.4781 58.5498 87.4768C57.1946 87.4711 55.8395 87.4824 54.4847 87.5106C54.5713 88.0853 54.5496 90.3187 54.4516 90.8761C55.6388 90.8491 56.8991 90.8776 58.0903 90.8798C58.7242 90.881 60.2889 90.804 60.8074 90.9183C61.1107 91.1998 61.0825 92.8185 60.9202 93.1362C60.659 93.2737 55.1641 93.255 54.4894 93.2621L54.5339 93.8311C54.5315 94.7424 54.4729 96.2509 54.5312 97.1191C55.0452 97.3469 59.1079 97.1274 59.8804 97.2161C60.5551 97.2936 61.7394 97.0397 62.4754 97.2707C62.5624 97.5876 62.6287 99.2414 62.6149 99.6007C58.3995 99.7095 53.9739 99.5095 49.7107 99.6132C49.6337 97.581 49.7583 95.0102 49.7083 92.9771C49.6879 92.1418 49.6397 85.6476 49.8311 85.3138C50.0258 85.1989 50.2588 85.1837 50.4842 85.1512Z" fill="white"/>
<path d="M135.536 98.13C135.448 98.488 135.555 98.6564 135.551 99.011C135.549 99.1611 135.393 99.2654 135.464 99.4786C135.504 99.5983 135.435 99.7095 135.358 99.805L135.24 99.8002L135.144 98.1331L135.231 98.0864C135.332 98.1161 135.428 98.0983 135.535 98.0895L135.536 98.13Z" fill="white"/>
<path d="M69.7645 52.2311C70.0659 52.5001 70.1649 52.5876 70.3953 52.9169C70.2191 53.0424 70.2501 52.9824 70.1936 53.1659C69.8825 53.0595 69.8234 53.0243 69.5572 52.8387C69.7472 52.8013 69.6902 52.8144 69.8466 52.6676C69.8878 52.4378 69.8623 52.4812 69.7645 52.2311Z" fill="white"/>
<path d="M135.535 98.0895C135.798 98.0917 135.726 98.0534 135.909 98.1964C136.025 98.4773 136.017 98.8048 135.958 99.0993L135.896 99.1482C135.613 98.7949 136.067 98.1592 135.536 98.13L135.535 98.0895Z" fill="white"/>
<path d="M103.247 100C103.234 99.9916 103.221 99.9832 103.207 99.9748C100.969 99.2607 99.2594 98.7398 97.997 96.5805C96.6107 94.2099 96.3007 90.6691 97.7708 88.2684C100.282 84.1689 106.985 83.9652 110.874 86.0029C112.152 86.6728 113.441 88.3187 113.789 89.7106C114.28 91.8136 114.209 94.6589 113.054 96.5379C112.083 98.1161 110.656 99.0768 108.874 99.5075C108.481 99.6027 107.524 99.7988 107.227 100H103.247ZM105.917 97.6465C108.979 97.3689 109.227 93.5384 109.048 91.1601C108.869 88.7718 107.703 86.8941 105.091 87.061C104.182 87.2046 103.342 87.543 102.809 88.3666C101.367 90.5896 101.246 95.4282 103.556 97.1706C104.244 97.6886 105.101 97.6645 105.917 97.6465Z" fill="white"/>
<path d="M12 85.2735C13.1313 85.0988 14.3716 85.1498 15.5228 85.1493L20.5575 85.1478C21.2393 85.1457 24.2587 85.0783 24.7417 85.1661C24.8338 85.2992 24.8386 85.365 24.8063 85.5259C24.756 85.776 24.1187 87.308 23.9468 87.4248C23.8374 87.4993 17.4131 87.5331 16.6825 87.5106C16.7464 88.0716 16.7353 90.3438 16.6334 90.869C18.0623 90.8884 19.4916 90.8853 20.9204 90.8595C21.385 90.8542 22.7969 90.7389 23.0736 90.9717C23.2016 91.2935 23.5401 93.0409 23.0714 93.1796C22.2682 93.4172 17.1334 93.0169 16.7541 93.3394C16.6305 94.4429 16.8133 96.2859 16.6666 97.2331C18.3077 97.1585 19.9671 97.2305 21.6122 97.2491C22.3415 97.2573 24.054 97.0882 24.6668 97.2501C24.8801 97.6238 24.8079 99.0668 24.8079 99.6016L12 99.5806V85.2735Z" fill="white"/>
<path d="M90.9868 95.7547C90.7217 95.0158 90.3852 94.5942 89.6665 94.2599C87.4432 93.226 82.9614 93.2245 81.9918 90.5564C81.6479 89.5806 81.7002 88.5085 82.1379 87.5711C83.9223 83.7875 91.9003 84.5305 95.063 85.7978C95.1394 85.8283 95.2048 85.8933 95.2442 85.9629C95.2947 86.3513 94.0595 87.9072 93.6558 88.0256C92.9851 87.9817 92.1807 87.5438 91.4818 87.4012C90.4265 87.1756 89.3688 87.1858 88.3073 87.2313C87.3378 87.2728 86.436 87.5212 86.3417 88.6638C86.2554 89.7125 88.2864 90.2085 89.0106 90.4279C91.8701 91.2943 95.4618 91.9118 95.6208 95.6212C95.6701 96.8117 95.1709 97.3433 94.4916 98.2174C93.5171 99.4722 91.5496 99.3655 90.6576 100H85.9256C85.1403 99.4683 82.0319 99.4304 81.6737 98.6919C81.6651 98.4305 81.998 97.8888 82.1262 97.6357C82.6076 96.6833 82.663 96.6912 83.6524 96.9119C85.5656 97.3387 87.7267 97.935 89.6726 97.3994C89.9303 97.3282 90.3254 97.0686 90.5498 96.9229C90.7766 96.4842 90.8863 96.2456 90.9868 95.7547Z" fill="white"/>
</svg>
