<svg width="148" height="148" viewBox="0 0 148 148" fill="none" xmlns="http://www.w3.org/2000/svg">
<path d="M46.0124 108.119V103.55C46.0124 101.828 44.9247 100.671 43.1724 100.656C42.251 100.64 41.2993 100.93 40.6346 101.95C40.1361 101.143 39.3506 100.656 38.2479 100.656C37.4775 100.656 36.7222 100.884 36.133 101.737V100.838H34.562V108.119H36.1481V104.083C36.1481 102.819 36.843 102.148 37.9155 102.148C38.9881 102.148 39.4866 102.834 39.4866 104.068V108.119H41.0727V104.083C41.0727 102.819 41.7978 102.148 42.8401 102.148C43.8824 102.148 44.4262 102.834 44.4262 104.068V108.119H46.0124ZM69.4795 100.838H66.9115V98.6298H65.3254V100.838H63.8601V102.285H65.3254V105.606C65.3254 107.297 65.9749 108.302 67.833 108.302C68.5127 108.302 69.2983 108.089 69.7968 107.738L69.3436 106.383C68.8753 106.657 68.3617 106.794 67.9538 106.794C67.1683 106.794 66.9115 106.307 66.9115 105.575V102.285H69.4795V100.838ZM82.8786 100.656C81.9722 100.656 81.3831 101.082 80.9752 101.722V100.838H79.4193V108.119H80.9903V104.037C80.9903 102.834 81.5039 102.164 82.5311 102.164C82.8483 102.164 83.1807 102.209 83.513 102.346L83.9964 100.854C83.649 100.717 83.1958 100.656 82.8786 100.656ZM62.6214 101.417C61.8661 100.915 60.8238 100.656 59.6757 100.656C57.8479 100.656 56.6696 101.539 56.6696 102.986C56.6696 104.174 57.5458 104.905 59.1621 105.134L59.9023 105.24C60.7634 105.362 61.1712 105.591 61.1712 106.002C61.1712 106.566 60.5972 106.885 59.5247 106.885C58.4522 106.885 57.6515 106.535 57.1228 106.124L56.3826 107.358C57.2437 107.997 58.3313 108.302 59.5096 108.302C61.5942 108.302 62.8027 107.312 62.8027 105.926C62.8027 104.646 61.851 103.976 60.28 103.748L59.5398 103.641C58.86 103.55 58.3162 103.413 58.3162 102.925C58.3162 102.392 58.8298 102.072 59.6908 102.072C60.6123 102.072 61.5036 102.423 61.9416 102.697L62.6214 101.417ZM104.699 100.656C103.793 100.656 103.204 101.082 102.796 101.722V100.838H101.24V108.119H102.811V104.037C102.811 102.834 103.325 102.164 104.352 102.164C104.669 102.164 105.001 102.209 105.334 102.346L105.817 100.854C105.47 100.717 105.016 100.656 104.699 100.656ZM84.4647 104.479C84.4647 106.687 85.9904 108.302 88.3167 108.302C89.4043 108.302 90.1294 108.058 90.9149 107.434L90.1596 106.154C89.5705 106.581 88.9512 106.809 88.2714 106.809C87.0176 106.794 86.0961 105.88 86.0961 104.479C86.0961 103.077 87.0176 102.164 88.2714 102.148C88.9512 102.148 89.5705 102.377 90.1596 102.803L90.9149 101.524C90.1294 100.899 89.4043 100.656 88.3167 100.656C85.9904 100.656 84.4647 102.27 84.4647 104.479ZM99.1779 104.479V100.838H97.6069V101.722C97.1084 101.067 96.3531 100.656 95.3259 100.656C93.3017 100.656 91.7156 102.255 91.7156 104.479C91.7156 106.703 93.3017 108.302 95.3259 108.302C96.3531 108.302 97.1084 107.891 97.6069 107.236V108.119H99.1779V104.479ZM93.3319 104.479C93.3319 103.199 94.1627 102.148 95.5223 102.148C96.8818 102.148 97.6975 103.154 97.6975 104.479C97.6975 105.804 96.8214 106.809 95.5223 106.809C94.2232 106.809 93.3319 105.758 93.3319 104.479ZM74.3739 100.656C72.259 100.656 70.7786 102.209 70.7786 104.479C70.7786 106.748 72.3195 108.302 74.4796 108.302C75.5672 108.302 76.5642 108.028 77.4404 107.281L76.67 106.109C76.0657 106.596 75.2953 106.87 74.5703 106.87C73.5582 106.87 72.6367 106.398 72.4101 105.088H77.7727C77.7878 104.89 77.8029 104.692 77.8029 104.479C77.7878 102.209 76.3981 100.656 74.3739 100.656ZM74.3437 102.072C75.3558 102.072 76.0053 102.712 76.1715 103.839H72.4252C72.5914 102.788 73.2258 102.072 74.3437 102.072ZM113.748 104.479V97.9139H112.177V101.722C111.678 101.067 110.923 100.656 109.896 100.656C107.871 100.656 106.285 102.255 106.285 104.479C106.285 106.703 107.871 108.302 109.896 108.302C110.923 108.302 111.678 107.891 112.177 107.236V108.119H113.748V104.479ZM107.902 104.479C107.902 103.199 108.732 102.148 110.092 102.148C111.452 102.148 112.267 103.154 112.267 104.479C112.267 105.804 111.391 106.809 110.092 106.809C108.793 106.809 107.902 105.758 107.902 104.479ZM54.8569 104.479V100.838H53.2859V101.722C52.7874 101.067 52.0321 100.656 51.0049 100.656C48.9807 100.656 47.3946 102.255 47.3946 104.479C47.3946 106.703 48.9807 108.302 51.0049 108.302C52.0321 108.302 52.7874 107.891 53.2859 107.236V108.119H54.8569V104.479ZM49.0109 104.479C49.0109 103.199 49.8417 102.148 51.2013 102.148C52.5608 102.148 53.3765 103.154 53.3765 104.479C53.3765 105.804 52.5004 106.809 51.2013 106.809C49.9022 106.809 49.0109 105.758 49.0109 104.479ZM116.369 107.061C116.467 107.061 116.565 107.076 116.656 107.114C116.746 107.152 116.822 107.205 116.89 107.266C116.958 107.335 117.011 107.411 117.048 107.495C117.086 107.578 117.109 107.677 117.109 107.776C117.109 107.875 117.086 107.967 117.048 108.058C117.011 108.142 116.958 108.226 116.89 108.287C116.822 108.355 116.746 108.401 116.656 108.439C116.565 108.477 116.474 108.5 116.369 108.5C116.263 108.5 116.172 108.477 116.082 108.439C115.991 108.401 115.915 108.348 115.847 108.287C115.779 108.218 115.727 108.142 115.689 108.058C115.651 107.975 115.628 107.875 115.628 107.776C115.628 107.677 115.651 107.586 115.689 107.495C115.727 107.403 115.779 107.327 115.847 107.266C115.915 107.198 115.991 107.152 116.082 107.114C116.172 107.076 116.27 107.061 116.369 107.061ZM116.369 108.348C116.444 108.348 116.52 108.332 116.588 108.302C116.656 108.272 116.716 108.233 116.761 108.18C116.814 108.127 116.852 108.066 116.882 107.997C116.912 107.929 116.927 107.853 116.927 107.776C116.927 107.7 116.912 107.624 116.882 107.556C116.852 107.487 116.814 107.426 116.761 107.373C116.708 107.32 116.656 107.281 116.588 107.251C116.52 107.221 116.452 107.205 116.369 107.205C116.285 107.205 116.217 107.221 116.15 107.251C116.082 107.281 116.021 107.32 115.968 107.373C115.915 107.426 115.878 107.487 115.847 107.556C115.817 107.624 115.802 107.7 115.802 107.776C115.802 107.853 115.817 107.929 115.847 107.997C115.878 108.066 115.915 108.127 115.968 108.18C116.021 108.233 116.082 108.272 116.15 108.302C116.217 108.332 116.293 108.348 116.369 108.348ZM116.414 107.449C116.497 107.449 116.565 107.472 116.61 107.51C116.656 107.548 116.678 107.601 116.678 107.67C116.678 107.723 116.663 107.769 116.625 107.807C116.588 107.845 116.535 107.868 116.467 107.875L116.686 108.127H116.512L116.308 107.875H116.24V108.127H116.097V107.457H116.406L116.414 107.449ZM116.248 107.571V107.754H116.414C116.414 107.754 116.482 107.754 116.505 107.731C116.527 107.716 116.535 107.693 116.535 107.662C116.535 107.632 116.527 107.609 116.505 107.594C116.482 107.578 116.452 107.571 116.414 107.571H116.248ZM115.394 83.9007V83.0172H115.749V82.8344H114.85V83.0172H115.205V83.9007H115.402H115.394ZM117.139 83.9007V82.8344H116.867L116.55 83.5656L116.233 82.8344H115.961V83.9007H116.157V83.101L116.452 83.794H116.656L116.95 83.101V83.9083H117.147L117.139 83.9007ZM71.5868 89.2013C71.7983 89.3841 72.0249 89.5669 72.2439 89.7497C67.9312 92.6437 62.7574 94.3344 57.1908 94.3344C42.1754 94.3344 30 82.0576 30 66.9172C30 51.7768 42.1754 39.5 57.1908 39.5C62.7574 39.5 67.9312 41.1907 72.2439 44.0848C72.0249 44.2675 71.7983 44.4427 71.5868 44.6331C65.1819 50.2536 61.5036 58.3798 61.5036 66.9172C61.5036 75.4546 65.1743 83.5808 71.5868 89.2013ZM90.8016 39.5C85.2351 39.5 80.0613 41.1907 75.7485 44.0848C75.9676 44.2675 76.1941 44.4427 76.4056 44.6331C82.8106 50.2536 86.4889 58.3722 86.4889 66.9172C86.4889 75.4622 82.8181 83.5808 76.4132 89.2013C76.2017 89.3841 75.9751 89.5669 75.7561 89.7497C80.0688 92.6437 85.2426 94.3344 90.8092 94.3344C105.825 94.3344 118 82.0576 118 66.9172C118 51.7768 105.817 39.5 90.8016 39.5ZM73.9962 45.3719C73.6488 45.646 73.3013 45.9354 72.969 46.2325C67.2363 51.2589 63.6108 58.6616 63.6108 66.9172C63.6108 75.1728 67.2363 82.5755 72.969 87.602C73.3013 87.899 73.6488 88.1808 73.9962 88.4626C74.3437 88.1808 74.6911 87.899 75.0234 87.602C80.7562 82.5755 84.3816 75.1728 84.3816 66.9172C84.3816 58.6616 80.7562 51.2589 75.0234 46.2325C74.6911 45.9354 74.3437 45.6536 73.9962 45.3719Z" fill="white"/>
</svg>
