<svg width="148" height="148" viewBox="0 0 148 148" fill="none" xmlns="http://www.w3.org/2000/svg">
<path d="M88.72 58.0789C90.2797 58.0613 92.9123 58.2363 94.5694 58.3977C101.842 59.1641 110.319 60.2079 115.972 65.0157C117.471 66.2913 118.555 68.245 118.554 70.1552C118.554 73.5555 115.765 75.9343 113.117 77.7951L113.079 77.7882C114.794 75.995 116.754 74.5307 116.644 71.7264C116.562 69.6336 114.983 67.4843 113.357 66.1484C106.91 60.8521 96.9409 58.7974 88.6813 58.232L88.72 58.0789Z" fill="white"/>
<path d="M33.2307 63.2597L33.3645 63.3374C33.2227 63.4415 33.0832 63.5482 32.9458 63.6575C31.1169 65.1169 29.7883 66.7336 29.5519 69.0783C29.1455 73.1104 32.9739 75.7206 36.1973 77.4818C41.6299 80.4501 47.7928 82.202 53.9769 83.0138C55.1849 83.1724 56.3484 83.2175 57.5551 83.311L57.5213 83.3507C57.1517 83.4068 55.8558 83.2824 55.4161 83.2513C51.8704 83.0005 47.96 82.4902 44.5103 81.6186C39.2519 80.2113 32.3575 78.0463 29.3121 73.4573C26.6181 69.3978 29.4202 65.3747 33.2307 63.2597Z" fill="white"/>
<path d="M62.8013 61.5379C65.5756 61.4586 68.8346 61.5296 71.6312 61.5334C71.6473 62.221 71.7676 63.1654 71.7449 63.8007L71.6501 63.8492C71.5822 63.8435 71.4577 63.8499 71.3979 63.8281C71.3496 63.8105 71.0013 62.7781 70.7929 62.5747C70.1803 61.9768 67.0418 62.1954 66.0817 62.1968L66.0828 66.2238C66.6826 66.2273 67.5378 66.2642 68.106 66.1659C69.4434 65.9347 69.0033 64.8352 69.2406 64.5072C69.4452 64.5058 69.3963 64.4761 69.518 64.5841C69.5944 64.7825 69.5514 67.8991 69.552 68.3542L69.5367 68.5347L69.4142 68.6153C68.9577 68.536 69.3023 67.6684 68.8223 67.2341C68.2664 66.7312 66.8583 66.8754 66.0821 66.8845C66.0772 67.9025 65.9469 70.3522 66.3036 71.2995C66.4484 71.6839 67.4094 71.7574 67.8271 71.8378C67.8489 71.9935 67.865 71.9312 67.7554 72.0696C67.6473 72.1166 67.4061 72.1848 67.2888 72.1726C65.974 72.0358 64.1154 72.3133 62.8636 72.1118L62.8246 72.0165L62.8884 71.8956C63.5982 71.4757 64.5912 71.9486 64.5735 70.4774C64.5425 67.9193 64.7537 65.2104 64.4714 62.6714C64.3489 61.5692 62.9313 62.406 62.8013 61.5379Z" fill="white"/>
<path d="M39.592 61.5374C40.1097 61.5206 44.4868 61.4974 44.6124 61.5862C44.6278 61.8044 44.6607 61.7655 44.5554 61.9182C43.5939 62.0018 42.943 61.9848 42.8996 63.1669C42.8172 65.4118 42.892 67.6699 42.8772 69.9173C42.8708 70.8926 43.1428 71.5357 44.3133 71.4667C45.3831 71.4475 46.5138 71.5376 47.5884 71.4445C47.9767 71.3876 48.1921 71.3915 48.4747 71.1339C48.7795 70.8563 49.0182 69.8525 49.3214 69.7276L49.4015 69.7893C49.4942 69.9593 49.4558 70.1437 49.4386 70.3361L49.3304 72.1633C48.14 72.151 40.1032 72.2612 39.6575 72.1142C39.5945 72.0016 39.62 71.9359 39.643 71.8123C40.1165 71.6805 40.7138 71.8252 41.0686 71.3831C41.2129 71.2033 41.2933 70.9517 41.3088 70.7266C41.402 69.3784 41.3322 68.015 41.3536 66.6633C41.3374 65.4181 41.386 64.1664 41.3125 62.9235C41.3006 62.721 41.2196 62.4845 41.0911 62.3122C40.7578 61.8657 40.0982 62.0769 39.6595 61.852C39.5968 61.8199 39.5985 61.6021 39.592 61.5374Z" fill="white"/>
<path d="M79.275 66.2401C79.8827 66.2321 80.4423 66.2236 81.0494 66.2543C81.4201 66.5799 82.141 67.3707 82.5088 67.7492C83.3758 68.6413 84.2855 69.5551 85.132 70.4618C85.1378 69.6988 85.2446 67.677 84.9865 66.9657C84.8991 66.7246 84.2439 66.6091 83.9559 66.5632C83.9201 66.4194 83.9119 66.4807 84.0063 66.3314C84.3512 66.1515 86.3145 66.2255 86.8489 66.2434C86.9527 66.3645 86.9175 66.3465 86.9093 66.5476C86.7087 66.7302 86.0517 66.545 85.8564 66.9551C85.4974 67.7102 85.918 71.9886 85.6646 72.4171C85.1279 72.3425 84.3554 71.3627 83.9641 70.9681C82.9617 69.9565 82.0079 68.8982 80.9837 67.9035C81.0224 68.847 80.9544 69.839 81.0101 70.7906C81.0823 72.0283 81.7656 71.5774 82.1698 71.9069C82.2149 72.0461 82.2302 72.0143 82.1803 72.1219C81.9146 72.1975 79.6569 72.1732 79.2874 72.1342C79.2017 72.014 79.2258 72.0538 79.2211 71.8941C79.6129 71.609 80.3097 72.0195 80.3825 70.9256C80.4587 69.7778 80.4617 68.6508 80.3971 67.5026C80.3344 66.3879 79.5601 66.7945 79.2211 66.534C79.1865 66.4097 79.2234 66.3564 79.275 66.2401Z" fill="white"/>
<path d="M53.5965 65.9676C53.7011 65.9901 53.8507 66.0038 53.9154 66.1105C54.9537 67.8259 55.5508 69.8701 56.7251 71.4952C56.9656 71.8281 57.3989 71.7394 57.599 71.8635L57.6186 72.0967C57.5161 72.1755 54.1745 72.3025 54.0452 71.962C54.3275 71.5299 54.7261 71.8639 55.0149 71.5536C55.0756 71.1555 54.7688 70.6168 54.591 70.2437L53.799 70.2426L52.1779 70.2421C52.0197 70.6034 51.6613 71.2139 51.7921 71.6132C51.9074 71.9648 52.3363 71.6547 52.6481 71.7878C52.8231 72.2186 52.5289 72.1764 52.1771 72.1648C51.4028 72.139 50.5374 72.2202 49.7759 72.1081L49.7349 72.0289C49.9185 71.7855 50.6884 71.6808 50.952 71.257C51.2654 70.7533 51.5398 70.1362 51.7991 69.6087L53.5965 65.9676ZM52.4779 69.6858L53.5497 69.6853L54.2966 69.6929C54.1754 69.4433 53.494 68.0068 53.3747 67.8736L52.4779 69.6858Z" fill="white"/>
<path d="M102.024 66.2384C103.604 66.1802 105.897 66.2076 107.493 66.2453C107.513 66.6221 107.683 67.6762 107.5 67.9247L107.398 67.9265C107.174 67.7758 107.165 67.2726 106.983 67.1136C106.506 66.6967 105.166 66.7922 104.515 66.7943L104.506 68.7602C104.891 68.7587 105.365 68.7781 105.728 68.6478C106.115 68.5087 105.899 67.8219 106.296 67.6802L106.415 67.7565C106.468 67.9921 106.493 70.1358 106.342 70.3882L106.236 70.4098C105.936 70.2412 105.975 69.9518 105.976 69.6953C105.98 69.3236 104.823 69.3137 104.576 69.3435C104.464 69.5187 104.506 69.6625 104.506 69.8966C104.502 70.2683 104.504 71.0994 104.743 71.3459C105.177 71.7935 107.045 71.684 107.439 71.1732C107.568 71.0059 107.507 70.6746 107.814 70.4526L107.926 70.4979C107.996 70.7093 107.868 71.8754 107.841 72.1573C107.322 72.163 102.232 72.217 102.055 72.0881L102.038 71.9289C102.141 71.7656 102.906 71.7421 103.014 71.5155C103.442 70.6204 103.137 68.4667 103.227 67.4853C103.296 66.7266 102.398 66.6824 102.052 66.513C102.026 66.5004 102.026 66.2846 102.024 66.2384Z" fill="white"/>
<path d="M71.6096 66.2478C73.0398 66.165 75.5937 66.2187 77.076 66.2457C77.1024 66.5427 77.2344 67.7792 77.1698 67.9718C76.8314 67.8821 76.815 67.406 76.5451 67.1308C76.1005 66.6775 74.8048 66.7884 74.1267 66.7869L74.1255 68.7574C76.4173 68.7466 75.1784 68.0884 75.8489 67.6955L75.9691 67.7322C76.0436 67.828 76.0354 70.2685 75.9679 70.3619L75.7709 70.3571C75.4488 70.0761 75.8882 69.5276 75.1456 69.4099C74.7801 69.3521 74.5731 69.287 74.1801 69.3474C74.0974 69.4783 74.1267 69.7169 74.1238 69.8957C74.1202 70.2593 74.0903 71.1056 74.3115 71.3116C74.8734 71.8357 76.754 71.7505 77.1241 70.9908C77.242 70.749 77.2215 70.6158 77.4185 70.4676L77.54 70.4958C77.5681 70.8661 77.4813 71.7476 77.4514 72.1562C76.9188 72.1688 71.8002 72.2027 71.6403 72.0867L71.6238 71.9297C71.7234 71.7391 72.4916 71.7877 72.6236 71.5147C73.0304 70.6737 72.7576 68.4836 72.8368 67.5801C72.906 66.7878 72.0585 66.6361 71.6481 66.5338C71.5975 66.5212 71.6115 66.3215 71.6096 66.2478Z" fill="white"/>
<path d="M97.5186 66.0244C98.4061 66.0888 98.8771 66.2838 99.5318 66.851C99.6391 66.5607 99.6866 66.3644 99.9793 66.2112L100.074 66.2597C100.171 66.5357 100.179 68.4558 100.047 68.7285L99.8737 68.7321C99.2924 68.0677 99.3341 66.8495 97.965 66.6057C94.8433 66.0498 94.5676 71.3757 97.213 71.8108C97.8272 71.9118 98.4202 71.655 98.8977 71.312C99.4491 70.7398 99.5951 69.8833 99.994 69.7082C100.213 69.9301 100.219 71.9313 99.967 72.1562L99.852 72.1374C99.6655 71.9868 99.6262 71.7591 99.5558 71.5318C97.4559 73.3555 94.2532 71.9529 94.0256 69.4612C93.9517 68.65 94.2192 67.8441 94.7694 67.2204C95.4967 66.401 96.4341 66.109 97.5186 66.0244Z" fill="white"/>
<path d="M88.5488 66.2386C89.1617 66.2353 91.694 66.1833 92.1327 66.2597C92.2131 66.3983 92.1832 66.3827 92.165 66.57C91.9309 66.6077 91.6494 66.6456 91.4341 66.7447C91.2863 66.8127 91.1872 66.8981 91.132 67.0467C90.9455 67.5498 90.9156 70.9498 91.1502 71.3988C91.3432 71.7682 91.6336 71.7038 91.9732 71.8159C92.1368 71.8698 92.1685 71.8893 92.2401 72.0336L92.2055 72.1149L92.0289 72.1578C91.1197 72.1647 90.2111 72.167 89.3019 72.1648C89.0567 72.1639 88.6538 72.1977 88.4977 72.0486C88.5265 71.7081 89.3764 71.795 89.5858 71.4254C89.8146 71.0201 89.7917 67.5911 89.6322 67.0908C89.4632 66.5623 88.9259 66.7466 88.5229 66.5425C88.4772 66.3715 88.4889 66.4242 88.5488 66.2386Z" fill="white"/>
<path d="M86.3544 75.1063C86.9609 75.0632 87.6671 75.3275 87.8126 75.9449C87.8736 76.2069 87.8208 76.4811 87.6671 76.7059C87.3551 77.1621 86.9679 77.2287 86.4611 77.329C87.0882 77.5906 87.6759 77.91 88.2883 77.4378L88.3534 77.4536C88.3517 77.5962 88.2373 77.7254 88.1511 77.8469C88.093 77.89 88.0308 77.928 87.9651 77.9604C87.358 78.264 86.9943 77.7577 86.4389 77.601C86.196 77.5325 86.0904 77.6681 85.8834 77.7828L85.7555 77.7493L85.6898 77.6379C85.7397 77.4402 85.9491 77.4324 86.0939 77.2306C85.0328 76.3633 84.8733 75.5983 86.3544 75.1063ZM85.7672 76.2262C85.9456 76.8122 86.0406 77.0799 86.7662 77.0832C87.6742 76.6321 87.6044 75.3087 86.3726 75.3145C86.0464 75.4988 85.9291 75.597 85.83 75.9661C85.8071 76.0524 85.7866 76.1391 85.7672 76.2262Z" fill="white"/>
<path d="M72.1705 75.231C72.559 75.1724 73.326 75.1512 73.7044 75.2121C74.8306 75.3931 75.0611 76.4648 74.0909 77.0825C73.5108 77.2516 72.9049 77.2229 72.3062 77.1972L72.2535 77.1332C72.4067 77.0751 72.5038 77.0493 72.6221 76.9392C72.7025 76.5349 72.6784 75.8924 72.6362 75.4833C72.5326 75.3299 72.3751 75.3104 72.1705 75.231ZM73.9654 76.826C74.4663 75.9897 74.1525 75.3671 73.1131 75.3704C73.0943 75.8133 72.9887 76.5798 73.2204 76.9308C73.4838 77.0693 73.7255 76.9927 73.9654 76.826Z" fill="white"/>
<path d="M76.6648 75.2303C77.1657 75.15 78.1523 75.0698 78.5483 75.4274C78.7741 75.632 78.5143 76.0397 78.5553 76.1121C78.8445 76.6221 79.0375 76.7211 78.4744 77.1329C78.1588 77.194 77.0613 77.2774 76.7698 77.1773C77.3593 76.7579 77.2484 76.1703 77.103 75.5228C77.0642 75.349 76.8302 75.2956 76.6648 75.2303ZM78.3037 76.9196C78.3465 76.7163 78.3893 76.6011 78.306 76.4069C78.113 76.1992 77.8608 76.2376 77.591 76.2465C77.5875 76.4585 77.5593 76.7172 77.6567 76.9C77.8878 77.0705 78.0421 76.9937 78.3037 76.9196ZM78.1342 75.9718C78.1676 75.789 78.2075 75.6758 78.1171 75.5108C77.9887 75.3828 77.7728 75.3733 77.5851 75.3552C77.5828 75.5517 77.5476 75.8574 77.662 76.0024C77.8092 76.0751 77.9699 76.0125 78.1342 75.9718Z" fill="white"/>
<path d="M54.2264 75.2337C54.5724 75.1816 55.6044 75.121 55.8726 75.259C56.6296 75.6483 56.3224 76.1179 55.7208 76.361C56.1735 76.8382 56.2835 76.946 56.8976 77.2036C56.4586 77.2214 56.1466 77.3183 55.8241 77.0125C55.6857 76.8454 55.3935 76.4558 55.2145 76.3765C55.153 76.4834 55.1454 76.4655 55.1547 76.5703C55.2061 77.1476 55.503 77.0528 55.6184 77.1552C55.4629 77.261 54.6022 77.2086 54.385 77.1958L54.3595 77.1421C54.5209 77.0578 54.5927 77.0316 54.6987 76.8901C54.7522 76.4596 54.8677 75.8678 54.6624 75.4769C54.5744 75.3094 54.4252 75.2948 54.2264 75.2337ZM55.7624 76.0861C55.8212 75.8762 55.8563 75.795 55.7921 75.5819C55.5889 75.3666 55.483 75.3677 55.1734 75.3692C55.1663 75.5872 55.1262 75.932 55.2271 76.1089C55.3889 76.1801 55.4903 76.1814 55.6874 76.1154C55.7129 76.1069 55.738 76.0972 55.7624 76.0861Z" fill="white"/>
<path d="M71.135 76.6223C71.1277 76.2763 71.1576 75.704 71.0142 75.3853C71.0194 75.3968 70.7844 75.3128 70.7146 75.2419C70.8758 75.1648 71.5022 75.1863 71.7058 75.2162L71.6899 75.2782C70.966 75.5341 71.4671 76.6031 71.2684 77.3327C70.9242 77.0603 70.0694 76.1342 69.726 75.7795C69.7036 76.3663 69.5222 76.8715 70.1267 77.135C69.9827 77.2572 69.2384 77.2526 69.089 77.1354C69.2574 77.0658 69.3297 77.0438 69.4648 76.9266C69.5451 76.6076 69.5586 75.7824 69.4553 75.4454C69.4285 75.3581 69.133 75.2692 69.0263 75.2316C69.7698 75.1145 69.9215 75.3525 70.4048 75.8539C70.6478 76.106 70.892 76.3693 71.135 76.6223Z" fill="white"/>
<path d="M62.9724 75.0965C63.2178 75.1274 63.7558 75.1942 63.9183 75.3579C64.0392 75.5718 63.9813 76.0185 63.9684 76.2817C63.7977 75.8549 63.5267 75.2321 62.9353 75.2649C62.4318 75.4508 62.0427 76.6313 62.6202 76.9109C63.02 77.1045 63.4441 77.11 63.6896 76.7221C63.6646 76.5701 63.6945 76.6255 63.5707 76.5157C63.4391 76.4679 63.4235 76.4597 63.3131 76.3765L63.3471 76.3059C63.6202 76.2457 64.1654 76.238 64.435 76.3027C64.397 76.5651 64.0771 76.2141 64.0485 77.0743C63.2876 77.2632 62.2116 77.4414 61.8987 76.4705C61.8222 76.23 61.851 75.9703 61.9786 75.7504C62.2037 75.354 62.5479 75.2112 62.9724 75.0965Z" fill="white"/>
<path d="M47.6841 75.0593C47.991 75.2512 48.4412 76.6563 48.7372 76.9736C48.7948 77.0353 48.9562 77.081 49.0415 77.1144L49.0448 77.1624C48.8063 77.244 48.0828 77.2168 47.8215 77.1896L47.8264 77.1213L48.1129 77.0246L48.1519 76.9396C48.1365 76.7289 48.0803 76.5943 47.8599 76.5475C47.5108 76.535 47.2072 76.4838 47.0328 76.8175C47.0749 77.1134 47.0513 76.945 47.3307 77.1631L47.2486 77.1145L47.1692 77.2092C46.8682 77.2201 46.4937 77.2092 46.1866 77.2087C46.3727 77.1258 46.5576 77.0402 46.7411 76.952L47.6841 75.0593Z" fill="white"/>
<path d="M80.5192 75.066C80.8471 75.3691 81.253 76.5943 81.555 76.9702C81.5914 77.0148 81.8384 77.1117 81.9088 77.1385C81.7181 77.2414 80.8429 77.2605 80.6652 77.1469C80.7849 77.0844 80.8694 77.0369 80.9826 76.9644C80.9943 76.7588 80.9133 76.6091 80.708 76.5491C80.4024 76.5471 80.2493 76.5111 79.9819 76.643C79.8552 76.8157 79.8845 76.7393 79.8792 76.9596C79.9402 77.0628 80.0628 77.1043 80.1795 77.1621L80.1291 77.2043C79.878 77.2088 79.4498 77.2397 79.2346 77.157L79.2551 77.1363L79.278 77.1977L79.2287 77.1708C79.5883 76.9109 79.59 76.934 79.7824 76.5367C80.0206 76.0457 80.274 75.5541 80.5192 75.066Z" fill="white"/>
<path d="M67.4066 75.0666C67.7065 75.2727 68.1182 76.4748 68.3514 76.8255C68.5749 77.1615 68.6371 76.9783 68.772 77.1552C68.4819 77.2471 67.8962 77.2231 67.5859 77.1961L67.5515 77.1475L67.8725 76.987C67.8863 76.7828 67.8497 76.7891 67.7448 76.5888L67.6238 76.5512C67.3352 76.5452 67.1127 76.503 66.8796 76.6438C66.5451 77.0577 66.9877 77.033 67.0816 77.1604C66.9477 77.2449 66.1183 77.2095 65.8988 77.2082C65.998 77.1665 66.3169 77.0466 66.3625 76.9951C66.7685 76.5366 67.1397 75.6186 67.4066 75.0666Z" fill="white"/>
<path d="M53.6288 75.1954C53.6285 75.3263 53.667 75.6037 53.6104 75.6975C53.1475 75.3351 53.2236 75.3652 52.6061 75.3751C52.6021 75.6286 52.5384 75.9302 52.7749 76.0754C52.9591 76.0358 53.1052 75.9393 53.1995 75.7798L53.2342 75.8094L53.1648 75.8422L53.2329 75.8655C53.2358 76.1118 53.2434 76.3608 53.2253 76.6063L53.1619 76.5945L53.1037 76.3413C52.9841 76.2372 52.7937 76.2396 52.6274 76.2234C52.4516 76.9204 53.1748 77.5392 53.714 76.6013L53.7544 76.6181C53.7689 76.7944 53.807 76.9915 53.7247 77.1451C53.5715 77.2493 52.0067 77.2848 51.8804 77.1336L52.046 76.9934C52.1669 76.6641 52.1973 75.7489 52.0954 75.4077C51.9329 75.3173 51.8521 75.2907 51.6738 75.2301C52.1972 75.1656 53.0734 75.1922 53.6288 75.1954Z" fill="white"/>
<path d="M91.3819 75.2295C91.9198 75.1607 92.778 75.1927 93.3487 75.201C93.3645 75.3859 93.3833 75.519 93.3499 75.7053C92.8659 75.3399 92.9516 75.3634 92.3304 75.3748C92.3369 75.6343 92.2899 75.8605 92.4254 76.0365L92.568 76.055C92.9029 75.9234 92.7134 75.9976 92.9223 75.644L92.9721 75.7022C92.9739 75.8678 93.0073 76.3934 92.9357 76.494C92.6472 76.2362 92.7703 76.2905 92.3867 76.2035C92.148 76.5472 92.4477 77.1653 92.9774 77.0148C93.3246 76.9163 93.273 76.8796 93.4572 76.6147C93.52 76.7328 93.4695 77.0574 93.4566 77.2093C92.9357 77.211 91.9955 77.24 91.508 77.198C91.511 76.9843 91.6353 77.1779 91.8471 76.893C91.9456 76.4779 92.0002 75.9095 91.8301 75.5013C91.7567 75.3256 91.5661 75.2963 91.3819 75.2295Z" fill="white"/>
<path d="M88.2455 75.232C88.5482 75.1841 89.2697 75.1659 89.5653 75.2099L89.5964 75.2635C89.3535 75.3613 89.2738 75.3547 89.1823 75.5912C88.8473 76.4599 89.7765 77.8241 90.363 76.4706C90.4598 76.2464 90.4182 75.5631 90.2662 75.3795C90.2416 75.3499 90.0598 75.3499 89.9759 75.2247L90.3196 75.1913C90.5613 75.1872 90.8071 75.1687 91.0388 75.2293L91.0223 75.2739L90.7807 75.3486C90.3724 75.6411 90.9009 77.0038 90.1677 77.1796C88.5329 77.5717 88.8749 76.5054 88.6825 75.5C88.652 75.3415 88.3974 75.2865 88.2455 75.232Z" fill="white"/>
<path d="M103.662 77.0822C103.145 77.2084 102.661 77.3561 102.144 77.1375C101.889 77.0296 101.69 76.8289 101.592 76.5804C101.231 75.675 102.182 74.7884 103.231 75.2623L103.042 75.3649C102.687 75.2717 102.378 75.288 102.157 75.5911C101.997 75.8089 101.938 76.0794 101.994 76.3397C102.218 77.42 103.469 77.2628 103.243 76.5134L102.885 76.3623L102.917 76.3051C103.094 76.2696 103.837 76.2403 103.972 76.3245C103.701 76.7958 103.722 76.5003 103.662 77.0822Z" fill="white"/>
<path d="M44.9091 75.0993C45.1372 75.095 45.715 75.2003 45.8766 75.3599C45.9953 75.5623 45.9362 75.9544 45.9204 76.2035C44.7161 73.2933 43.3705 77.9654 45.5085 76.9319C45.6703 76.7369 45.8378 76.3367 45.9501 76.0955C45.9483 76.3068 45.9705 77.0569 45.8869 77.1964L45.7348 77.0753C45.355 77.081 45.1485 77.4775 44.4912 77.1581C44.2123 77.0193 44.0045 76.7789 43.9151 76.4917C43.8288 76.2243 43.8594 75.9352 43.9999 75.6896C44.211 75.3179 44.5181 75.2079 44.9091 75.0993Z" fill="white"/>
<path d="M59.3646 75.7502C59.3583 76.0778 59.3365 76.4979 59.4014 76.819C59.4412 77.0164 59.5949 77.044 59.7947 77.1454L59.7456 77.1905C59.5013 77.2097 58.9824 77.2749 58.7888 77.1426C59.3912 76.7589 59.2266 76.1222 59.1636 75.5293C59.1512 75.4133 58.8825 75.3219 58.7738 75.2682C58.8496 75.1585 58.8597 75.1801 59.0047 75.1145C59.692 75.1116 60.2169 76.2732 60.7116 76.473L60.7914 76.429L60.8084 76.1085L60.902 76.155L60.9751 76.3978C60.988 76.7045 60.9803 77.0682 60.9824 77.3799C60.4632 76.911 59.8604 76.2591 59.3646 75.7502Z" fill="white"/>
<path d="M99.6397 77.2075C99.4109 77.208 98.6595 77.2453 98.5217 77.1592C98.5475 77.1176 98.5727 77.0756 98.5974 77.0333C99.0789 76.2017 98.7739 75.9374 98.5528 75.2089C98.6754 75.2007 98.8554 75.1856 98.9792 75.218C99.3939 75.3263 100.052 76.4697 100.402 76.5055L100.583 76.556L100.593 77.3773C100.108 76.9376 99.4731 76.2461 99.0027 75.7648C98.9739 76.5812 98.751 76.912 99.6397 77.2075Z" fill="white"/>
<path d="M83.4274 77.2083C83.0696 77.2125 82.7417 77.2132 82.3845 77.2C82.3211 77.125 82.3798 77.0689 82.4678 76.9323C82.7129 76.5506 82.632 75.9779 82.5997 75.5473C82.5862 75.3677 82.3892 75.3504 82.1885 75.2424C82.249 75.195 82.3727 75.2088 82.456 75.1959C83.001 75.1171 83.1992 75.6095 83.5242 75.9013C83.6802 76.0412 84.0187 76.4816 84.2052 76.5149L84.3923 76.5202L84.4117 77.3926C83.8873 76.8954 83.3236 76.2918 82.8138 75.7707C82.7833 76.5654 82.5657 76.9085 83.4274 77.2083Z" fill="white"/>
<path d="M56.8946 75.2321C57.166 75.1882 57.9732 75.1422 58.2217 75.2271L58.211 75.2931L57.9451 75.3743C57.7005 75.6277 57.7558 76.6386 57.915 76.9414C57.9798 77.0647 58.1826 77.1165 58.3103 77.1581C58.0452 77.2334 57.3036 77.2301 57.0249 77.1971L57.0063 77.139C57.0829 77.0967 57.3123 76.9773 57.3252 76.9191C57.3929 76.6125 57.3943 75.6881 57.3183 75.4087C57.1572 75.3229 57.069 75.2923 56.8946 75.2321Z" fill="white"/>
<path d="M96.4757 75.228C96.9121 75.1875 97.2107 75.1884 97.6442 75.1933L97.7251 75.2874L97.8283 75.2266L97.6911 75.1964L97.8307 75.2249C97.6929 75.3024 97.6348 75.3437 97.5098 75.4401C97.3931 75.8178 97.3151 76.4951 97.4963 76.8743C97.5908 77.0722 97.7316 77.0763 97.9433 77.1491C97.6846 77.243 96.9057 77.2344 96.6288 77.1915L96.593 77.1427C96.7555 77.0679 96.7913 77.0488 96.9309 76.9398C97.0406 76.6391 97.1931 75.5186 96.7508 75.327C96.6793 75.296 96.5537 75.2561 96.4757 75.228Z" fill="white"/>
<path d="M94.9096 75.1904L95.2844 75.1904L95.4029 75.2486L95.414 75.3186C95.3559 75.3584 95.3507 75.3766 95.3084 75.432C95.2885 75.8106 95.2574 76.556 95.3254 76.9221C95.458 77.0344 95.539 77.0777 95.692 77.1647C95.5648 77.2329 94.5541 77.2464 94.452 77.1514L94.7025 77.0162C94.9365 76.6813 94.8462 75.7959 94.8351 75.369L94.9096 75.1904Z" fill="white"/>
<path d="M50.0311 75.2006C50.2096 75.2016 50.4199 75.1974 50.5951 75.2057C50.5635 75.2664 50.5345 75.3301 50.4928 75.3838C50.3773 75.5908 50.4119 76.6661 50.499 76.9348C50.5315 77.035 50.7602 77.0844 50.8617 77.1187L50.8574 77.1656C50.6774 77.237 49.7917 77.2438 49.6203 77.1777C49.7661 77.0682 49.8487 77.0009 49.9793 76.8757C50.0561 76.5267 50.0222 75.7282 49.9873 75.3595L50.0311 75.2006Z" fill="white"/>
<path d="M100.402 76.5055C100.412 76.1868 100.482 75.6274 100.295 75.3937L100.017 75.2791L100.003 75.2219C100.17 75.1951 100.9 75.154 101.022 75.2383C100.837 75.3412 100.639 75.4001 100.609 75.5811C100.558 75.8897 100.576 76.2441 100.583 76.556L100.402 76.5055Z" fill="white"/>
<path d="M84.2052 76.5149C84.2275 76.2086 84.2703 75.7188 84.1583 75.4342C83.95 75.2589 83.8433 75.3593 83.8151 75.2265C83.9823 75.1827 84.7149 75.1517 84.8457 75.2381C84.5947 75.4327 84.424 75.2919 84.3929 75.7151C84.3735 75.9743 84.3859 76.2597 84.3923 76.5202L84.2052 76.5149Z" fill="white"/>
<path d="M60.8084 76.1085C60.787 75.575 60.8143 75.6448 60.4855 75.2326C60.643 75.1475 61.1927 75.1929 61.3806 75.2245L61.3506 75.2897C61.2278 75.3294 61.0829 75.3468 61.0424 75.4366C60.9391 75.6656 60.9717 76.146 60.9751 76.3978L60.902 76.155L60.8084 76.1085Z" fill="white"/>
<path d="M87.0178 58.0213C87.4853 58.0273 88.2707 58.0288 88.72 58.0789L88.6813 58.232C88.0461 58.2036 87.4108 58.1683 86.7756 58.1261L87.0178 58.0213Z" fill="white"/>
<path d="M94.8351 75.369C94.2954 75.3631 94.3541 75.3451 93.9183 75.6626L93.8696 75.6304L93.8971 75.1966L94.9096 75.1904L94.8351 75.369Z" fill="white"/>
<path d="M84.2615 58.0742L83.9471 58.0423C84.0486 57.9644 86.6987 58.0175 87.0178 58.0213L86.7756 58.1261L86.2083 58.1173C85.7367 58.0582 84.7472 58.0606 84.2615 58.0742Z" fill="white"/>
<path d="M49.0773 75.2025L50.0311 75.2006L49.9873 75.3595C49.4544 75.3673 49.5116 75.3512 49.08 75.6638C49.0116 75.5566 49.0624 75.3512 49.0773 75.2025Z" fill="white"/>
<path d="M50.5951 75.2057C50.9295 75.1869 51.4447 75.1054 51.5223 75.5124C51.46 75.6434 51.4675 75.6865 51.3574 75.7563C51.0805 75.3298 51.0534 75.3497 50.4928 75.3838C50.5345 75.3301 50.5635 75.2664 50.5951 75.2057Z" fill="white"/>
<path d="M103.231 75.2623L103.354 75.3377L103.51 75.268C103.625 75.3964 103.572 76.0465 103.566 76.2478C103.426 75.9082 103.336 75.606 103.042 75.3649L103.231 75.2623Z" fill="white"/>
<path d="M95.2844 75.1904C95.5343 75.1833 95.9689 75.1429 96.1719 75.2444C96.2423 75.3588 96.2863 75.6651 96.2106 75.7709C95.9584 75.3392 95.9249 75.4048 95.414 75.3186L95.4029 75.2486L95.2844 75.1904Z" fill="white"/>
<path d="M33.2307 63.2597C33.6743 62.9881 34.0996 62.7508 34.5961 62.5768C34.4611 62.7201 33.6131 63.191 33.3645 63.3374L33.2307 63.2597Z" fill="white"/>
<path d="M86.2083 58.1173C85.7367 58.0582 84.7472 58.0606 84.2615 58.0742C84.7272 58.1578 85.7074 58.1303 86.2083 58.1173Z" fill="white"/>
<path d="M22.1573 61.321L22.3346 61.4895C19.2049 63.3768 15.8791 66.1082 15.0078 69.7017C14.5059 71.7717 15.0992 73.9988 16.3101 75.7325C21.1198 82.6187 34.455 86.5918 42.6573 88.2593C64.4708 92.5842 87.9639 92.477 109.612 87.3356C115.277 85.9899 121.057 83.8942 126.017 80.9965C131.074 78.0417 135.963 72.7438 132.082 67.0181C131.157 65.6533 129.365 63.9484 127.905 63.0903L128.164 63.0142C130.717 64.7581 133.359 66.9906 133.9 70.1043C134.299 72.4058 133.471 74.5693 132.069 76.4189C125.419 85.1867 107.529 89.663 96.7972 91.3042C91.9474 92.0408 87.0589 92.5269 82.1534 92.7606C64.6644 93.6048 35.7527 92.019 21.1467 81.9718C17.8432 79.6994 14.8083 76.6465 14.142 72.6786C14.0917 72.3789 14.0642 72.067 14 71.7707V70.9257C14.1545 70.2867 14.1681 69.7596 14.3898 69.0657C15.3989 65.9066 19.2207 62.8189 22.1573 61.321Z" fill="white"/>
<path d="M127.905 63.0903C125.835 61.7387 123.616 60.6053 121.288 59.71C120.451 59.3833 118.648 58.7935 117.987 58.4842C118.334 58.4962 119.392 58.9133 119.76 59.0471C122.625 60.0866 125.637 61.3573 128.164 63.0142L127.905 63.0903Z" fill="white"/>
<path d="M22.1573 61.321C23.1963 60.5479 28.3207 58.3103 29.7359 57.8822L29.7283 57.9675C27.1541 58.9204 24.6789 60.0995 22.3346 61.4895L22.1573 61.321Z" fill="white"/>
<path d="M29.7359 57.8822C30.4517 57.5615 31.5239 57.2237 32.2857 56.9733C34.1357 56.3541 36.0117 55.8075 37.9089 55.3351C38.1902 55.2645 38.7822 55.0644 38.9947 55.0439L39.0381 55.0762C38.766 55.22 35.5922 56.0381 35.0096 56.206C33.2234 56.7207 31.4613 57.3084 29.7283 57.9675L29.7359 57.8822Z" fill="white"/>
</svg>
