<svg width="148" height="148" viewBox="0 0 148 148" fill="none" xmlns="http://www.w3.org/2000/svg">
<path d="M116.544 60.6522C114.733 60.126 112.43 59.6344 109.549 59.6344C94.4975 59.6344 90.6851 68.6479 90.064 74.7633C89.374 81.6292 93.8506 88.3656 104.9 88.3656C109.549 88.3656 112.585 87.5031 113.672 87.1408C113.939 87.0459 114.146 86.813 114.198 86.5111L114.819 83.0437C114.914 82.5262 114.448 82.0863 113.974 82.2416C112.775 82.647 110.627 83.199 107.927 83.199C102.648 83.199 98.8361 79.8351 99.3191 74.0561C99.7849 68.4496 103.347 64.1886 108.255 64.1886C111.205 64.1886 112.507 65.8188 112.412 68.0097C112.412 68.0097 112.412 68.0442 112.412 68.1304C112.395 68.5272 112.688 68.8636 113.068 68.8636H115.069C115.38 68.8636 115.647 68.6393 115.716 68.3202L117.122 61.6096C117.208 61.187 116.975 60.7557 116.578 60.6436" fill="white"/>
<path d="M54.2859 60.6694L53.9236 62.4204C53.846 62.8085 54.0616 63.2053 54.4153 63.3174C55.0535 63.5762 55.1915 64.2231 54.6395 64.7061L45.3931 72.8485L46.9802 65.1719C47.2476 63.9902 48.136 63.5072 48.688 63.3174C48.7225 63.3088 48.7484 63.3002 48.7829 63.2916C49.0244 63.2139 49.2141 62.9983 49.2659 62.7309L49.6454 60.911C49.7317 60.4797 49.4298 60.0743 49.0071 60.0743H37.0955C36.7591 60.0743 36.4658 60.3244 36.3968 60.6694L36.0087 62.5153C35.931 62.8862 36.1294 63.2657 36.4744 63.3951C36.5434 63.4209 36.5866 63.4382 36.5952 63.4382C37.3456 63.7487 38.2081 64.4474 37.8459 66.2846L35.0081 80.0766C34.2663 83.8459 33.0588 84.6136 31.9116 84.7516C31.903 84.7516 31.8857 84.7516 31.8771 84.7516C31.5666 84.7861 31.3164 85.0276 31.2474 85.3467L30.8766 87.1149C30.7817 87.5721 31.1094 88.0033 31.5493 88.0033H44.0734C44.3839 88.0033 44.6427 87.7791 44.7117 87.4599L45.143 85.3898C45.212 85.0534 45.0395 84.7084 44.7376 84.5877C44.7117 84.5791 44.6858 84.5618 44.6599 84.5532C44.0217 84.2772 43.1591 83.6993 43.3834 82.6038L44.8411 75.5569C49.8265 85.226 51.4826 88.0033 57.4687 88.0033H62.8768C63.1787 88.0033 63.4461 87.7791 63.5151 87.4599L63.8946 85.6658C63.9895 85.2087 63.6703 84.7688 63.2304 84.7602C61.8762 84.7343 61.2121 84.4065 59.8665 82.5693L52.9231 72.607L61.9452 64.6544C63.1528 63.6538 64.6277 63.3692 65.4471 63.2571C65.4471 63.2571 65.4816 63.2571 65.5248 63.2484C65.8094 63.2139 66.0509 62.9983 66.1113 62.705L66.4822 60.9368C66.5771 60.4969 66.2579 60.0829 65.8353 60.0829H54.9845C54.6481 60.0829 54.3635 60.3331 54.2859 60.6781" fill="white"/>
<path d="M87.6662 68.3288H89.7794C90.0899 68.3288 90.3573 68.1045 90.4177 67.7854L91.8495 60.9282C91.9444 60.4883 91.6252 60.0743 91.2026 60.0743H69.0094C68.673 60.0743 68.3798 60.3244 68.3108 60.6694L67.9226 62.5067C67.845 62.8689 68.0348 63.2312 68.3625 63.3519C68.3884 63.3606 68.4143 63.3692 68.4402 63.3778C69.1733 63.6711 70.1911 64.4215 69.7426 66.2673L65.3954 87.1494C65.3091 87.5807 65.6196 87.9947 66.0337 87.9947H76.0132C76.3238 87.9947 76.5912 87.7704 76.6515 87.4513L77.0914 85.364C77.1518 85.0534 77.0052 84.7429 76.7378 84.6136C76.7033 84.5963 76.6774 84.5791 76.6429 84.5618C76.0133 84.234 75.0645 83.475 75.3836 82.0173C75.4181 81.8189 76.3583 77.2906 76.3583 77.2906H84.8457C85.1562 77.2906 85.4236 77.0663 85.4839 76.7472L86.2861 72.9348C86.381 72.4949 86.0618 72.0808 85.6392 72.0808H77.4451L78.9718 64.6803H84.699C86.5535 64.6803 87.1141 65.6981 87.002 67.449C87.002 67.449 87.002 67.4749 87.002 67.5439C86.9589 67.9579 87.2694 68.3202 87.6575 68.3202" fill="white"/>
</svg>
