<svg width="148" height="148" viewBox="0 0 148 148" fill="none" xmlns="http://www.w3.org/2000/svg">
<path d="M135.105 92.0688H12.8948V55.9313H135.105V92.0688ZM13.3197 91.6426H134.68V56.3575H13.3197V91.6426Z" fill="white"/>
<path d="M45.2672 76.0903C46.355 76.0903 47.2967 76.5046 48.0938 77.3332C48.891 78.1617 49.2887 79.1948 49.2887 80.4343C49.2887 81.6737 48.8876 82.7699 48.0836 83.6138C47.2797 84.456 46.3091 84.8771 45.1669 84.8771C44.0247 84.8771 43.044 84.4662 42.2604 83.6445C41.4752 82.8227 41.0842 81.7589 41.0842 80.453C41.0842 79.1471 41.538 78.0304 42.444 77.1865C43.231 76.4552 44.1726 76.0903 45.2672 76.0903ZM45.1499 76.5421C44.4004 76.5421 43.7987 76.8217 43.3465 77.3792C42.7822 78.0731 42.5001 79.0891 42.5001 80.4274C42.5001 81.7657 42.7924 82.8551 43.3771 83.5933C43.8259 84.1559 44.4191 84.4355 45.1567 84.4355C45.9437 84.4355 46.593 84.1287 47.1063 83.5115C47.6196 82.8961 47.8763 81.9243 47.8763 80.5996C47.8763 79.1625 47.5941 78.0901 47.0298 77.3843C46.576 76.8217 45.9505 76.5421 45.1516 76.5421H45.1499Z" fill="white"/>
<path d="M45.1687 84.9622C43.9959 84.9622 42.9981 84.5377 42.201 83.7023C41.4038 82.8669 41.001 81.7741 41.001 80.4512C41.001 79.1282 41.4667 77.9791 42.3879 77.1233C43.1868 76.38 44.1573 76.0032 45.2689 76.0032C46.3805 76.0032 47.346 76.4294 48.1567 77.2716C48.9658 78.1121 49.3754 79.1759 49.3754 80.4324C49.3754 81.6889 48.9624 82.8158 48.1465 83.6699C47.3307 84.5257 46.3279 84.9605 45.1687 84.9605V84.9622ZM45.2672 76.1754C44.1998 76.1754 43.2684 76.5368 42.5018 77.2495C41.618 78.0712 41.1692 79.1487 41.1692 80.4529C41.1692 81.7571 41.5568 82.7834 42.3233 83.5847C43.0882 84.3859 44.0452 84.7917 45.1687 84.7917C46.2922 84.7917 47.2406 84.3757 48.0242 83.554C48.8077 82.7305 49.2055 81.6821 49.2055 80.4341C49.2055 79.1862 48.8111 78.1991 48.0344 77.3927C47.2576 76.5846 46.3279 76.1754 45.2689 76.1754H45.2672ZM45.1568 84.5223C44.3953 84.5223 43.7749 84.2274 43.3109 83.6477C42.716 82.8959 42.4151 81.8133 42.4151 80.4273C42.4151 79.0413 42.7058 78.0303 43.2803 77.3245C43.7477 76.7483 44.3766 76.4567 45.15 76.4567C45.9726 76.4567 46.627 76.7517 47.0944 77.3313C47.6689 78.0507 47.9596 79.1504 47.9596 80.6012C47.9596 81.9412 47.6944 82.9402 47.1709 83.5676C46.644 84.2001 45.9658 84.5223 45.1568 84.5223ZM45.15 76.6272C44.431 76.6272 43.8463 76.8983 43.4112 77.4319C42.8622 78.107 42.5834 79.1146 42.5834 80.4273C42.5834 81.74 42.8724 82.8209 43.4418 83.5403C43.8718 84.0774 44.448 84.3501 45.1551 84.3501C45.9114 84.3501 46.5454 84.0501 47.0383 83.4568C47.5363 82.8601 47.7879 81.8986 47.7879 80.5995C47.7879 79.1879 47.5091 78.1241 46.9601 77.437C46.5267 76.8983 45.9165 76.6255 45.1483 76.6255L45.15 76.6272Z" fill="white"/>
<path d="M52.3683 76.7416V80.0438H53.8947C54.2448 80.0438 54.5015 79.9671 54.6646 79.812C54.8278 79.6568 54.9349 79.35 54.9893 78.8914H55.217V81.735H54.9893C54.9859 81.4094 54.9434 81.169 54.8618 81.0156C54.7819 80.8622 54.6697 80.7479 54.5286 80.6712C54.3859 80.5945 54.1751 80.557 53.8947 80.557H52.3683V83.1961C52.3683 83.6223 52.3955 83.9019 52.4482 84.0383C52.489 84.1423 52.5757 84.2309 52.7083 84.3042C52.8901 84.4031 53.0788 84.4525 53.276 84.4525H53.5785V84.6827H49.9819V84.4525H50.2777C50.6244 84.4525 50.8743 84.352 51.0307 84.1491C51.1292 84.0161 51.1785 83.699 51.1785 83.1944V77.7662C51.1785 77.3417 51.1513 77.0604 51.0986 76.924C51.0578 76.82 50.9729 76.7313 50.8454 76.658C50.6686 76.5591 50.4782 76.5097 50.2777 76.5097H49.9819V76.2795H56.2165L56.2963 78.1259H56.0805C55.9734 77.7338 55.8493 77.4457 55.7065 77.2615C55.5638 77.0774 55.3887 76.9444 55.1813 76.8609C54.974 76.7791 54.651 76.7364 54.2142 76.7364H52.3666L52.3683 76.7416Z" fill="white"/>
<path d="M53.6633 84.7711H49.8984V84.3722H50.2792C50.6004 84.3722 50.8248 84.2835 50.9659 84.1011C51.0253 84.0227 51.0967 83.801 51.0967 83.1992V77.771C51.0967 77.2562 51.0559 77.0465 51.0219 76.9595C50.9879 76.876 50.9149 76.7993 50.8044 76.7345C50.6429 76.6441 50.4644 76.5981 50.2792 76.5981H49.8984V76.1992H56.2978L56.3862 78.216H56.0157L55.9987 78.1529C55.895 77.7727 55.7743 77.4914 55.64 77.3175C55.5075 77.1471 55.3426 77.0209 55.1505 76.9442C54.9534 76.8658 54.6389 76.8265 54.2157 76.8265H52.4531V79.9583H53.8944C54.2208 79.9583 54.4587 79.8884 54.6049 79.7486C54.7528 79.6088 54.8531 79.3156 54.9041 78.8809L54.9126 78.8059H55.3018V81.82H54.9041V81.7365C54.899 81.4245 54.8599 81.196 54.7868 81.0562C54.7154 80.9199 54.6151 80.8159 54.4876 80.7477C54.3585 80.6778 54.1596 80.6437 53.8944 80.6437H52.4531V83.1975C52.4531 83.7107 52.4939 83.9221 52.5279 84.009C52.5619 84.0926 52.6367 84.1676 52.7505 84.2324C52.9171 84.3244 53.0956 84.3705 53.2775 84.3705H53.665V84.7694L53.6633 84.7711ZM50.0684 84.6006H53.4933V84.5427H53.2758C53.065 84.5427 52.8593 84.4898 52.6673 84.3841C52.5177 84.3006 52.4174 84.1966 52.3698 84.0738C52.312 83.9255 52.2831 83.6391 52.2831 83.1992V80.4749H53.8944C54.1919 80.4749 54.4112 80.5158 54.5675 80.5994C54.7239 80.6846 54.848 80.8108 54.9364 80.9778C55.0163 81.1296 55.0604 81.3512 55.0706 81.6512H55.1318V78.978H55.0638C55.0044 79.4196 54.8922 79.7128 54.7222 79.8748C54.5437 80.0453 54.265 80.1305 53.8944 80.1305H52.2831V76.6578H54.2157C54.6661 76.6578 54.9925 76.7004 55.2134 76.7873C55.4344 76.876 55.623 77.0192 55.7743 77.2135C55.9171 77.3977 56.0378 77.6704 56.1449 78.0455H56.2077L56.1347 76.3696H50.0667V76.4276H50.2775C50.4933 76.4276 50.6973 76.4805 50.8877 76.5879C51.0338 76.6731 51.1307 76.7771 51.1783 76.8964C51.2361 77.0448 51.265 77.3312 51.265 77.771V83.1992C51.265 83.7277 51.2106 84.0551 51.1001 84.2051C50.9268 84.4301 50.6497 84.5427 50.2792 84.5427H50.0684V84.6006Z" fill="white"/>
<path d="M68.7331 76.2829V76.5131C68.4373 76.5659 68.2113 76.6614 68.06 76.7978C67.8407 77.0006 67.6486 77.3092 67.4787 77.7269L64.5569 84.8787H64.3291L61.1898 77.6348C61.0283 77.2632 60.9161 77.0364 60.8498 76.9529C60.7461 76.825 60.6204 76.7245 60.4691 76.6528C60.3195 76.5812 60.1156 76.5335 59.8606 76.5131V76.2829H63.2838V76.5131C62.8963 76.5506 62.6447 76.617 62.5308 76.7108C62.4153 76.8063 62.3575 76.9273 62.3575 77.0774C62.3575 77.2836 62.4526 77.6059 62.6413 78.044L64.7727 82.971L66.7495 78.1071C66.9433 77.628 67.0402 77.2956 67.0402 77.1097C67.0402 76.9904 66.9807 76.8745 66.8617 76.7654C66.7427 76.6563 66.5404 76.5778 66.2566 76.5335C66.2362 76.5301 66.2005 76.5233 66.1512 76.5148V76.2846H68.7331V76.2829Z" fill="white"/>
<path d="M64.6135 84.9617H64.2718L61.1104 77.6667C60.9149 77.2149 60.8248 77.0564 60.7824 77.0035C60.6889 76.8859 60.5699 76.7938 60.4322 76.7273C60.2928 76.6592 60.0974 76.6165 59.8543 76.5961L59.7761 76.5893V76.1954H63.3693V76.5875L63.2928 76.5944C62.8339 76.6387 62.6537 76.7154 62.5857 76.7734C62.4906 76.8518 62.443 76.9507 62.443 77.0734C62.443 77.2678 62.5364 77.5815 62.72 78.006L64.7716 82.7471L66.6718 78.0708C66.8605 77.6036 66.9557 77.2797 66.9557 77.1058C66.9557 77.0103 66.9064 76.9183 66.8044 76.8245C66.6973 76.7273 66.5087 76.6557 66.2435 76.6131C66.2197 76.608 66.1857 76.6029 66.1381 76.5944L66.0667 76.5824V76.1954H68.8186V76.5807L68.7489 76.5927C68.4684 76.6438 68.256 76.7325 68.1166 76.8569C67.9092 77.0479 67.7205 77.3513 67.5574 77.7554L64.6135 84.96V84.9617ZM64.384 84.7912H64.4996L67.401 77.6923C67.5744 77.2661 67.7766 76.9422 68.0027 76.7325C68.154 76.5961 68.3715 76.4989 68.6486 76.4392V76.3659H66.2367V76.4375C66.252 76.4409 66.2639 76.4426 66.2741 76.4443C66.5749 76.4921 66.7874 76.5756 66.92 76.6967C67.0577 76.8228 67.1273 76.9592 67.1273 77.1041C67.1273 77.3036 67.0305 77.6394 66.8299 78.1338L64.7767 83.187L62.5653 78.0742C62.3699 77.6224 62.2747 77.2951 62.2747 77.0734C62.2747 76.8978 62.3427 76.7529 62.4787 76.6421C62.5993 76.5415 62.8373 76.4733 63.201 76.4324V76.3659H59.9478V76.4324C60.1773 76.4563 60.3642 76.504 60.5087 76.5722C60.6702 76.6506 60.8078 76.758 60.9183 76.8961C60.9897 76.9865 61.1053 77.2149 61.2702 77.5968L64.3857 84.7895L64.384 84.7912Z" fill="white"/>
<path d="M71.5321 76.7411V80.0621H73.3729C73.8505 80.0621 74.1701 79.9905 74.3299 79.8456C74.544 79.6564 74.663 79.3205 74.6885 78.8414H74.9179V81.7669H74.6885C74.6307 81.3578 74.5729 81.0952 74.5151 80.9793C74.4403 80.8344 74.3197 80.7219 74.1497 80.6383C73.9814 80.5548 73.7214 80.5139 73.3712 80.5139H71.5304V83.2843C71.5304 83.6559 71.5474 83.8827 71.5797 83.9628C71.612 84.0429 71.6698 84.1077 71.7531 84.1554C71.8364 84.2032 71.9928 84.227 72.2222 84.227H73.6432C74.1174 84.227 74.4607 84.1946 74.6749 84.1281C74.8891 84.0617 75.0947 83.9321 75.2919 83.7377C75.5468 83.482 75.8086 83.095 76.0771 82.5784H76.3236L75.6012 84.6856H69.1458V84.4555H69.4415C69.6387 84.4555 69.8273 84.4077 70.0041 84.3123C70.1367 84.2458 70.2251 84.1469 70.2727 84.0156C70.3202 83.8827 70.344 83.6133 70.344 83.2041V77.7452C70.344 77.2116 70.2896 76.8843 70.1826 76.7598C70.0347 76.5945 69.7865 76.5126 69.4415 76.5126H69.1458V76.2825H75.6012L75.6947 78.1237H75.4534C75.3667 77.6821 75.2715 77.3787 75.1661 77.2133C75.0607 77.0479 74.9061 76.9218 74.7004 76.8348C74.5355 76.7735 74.2449 76.7411 73.8284 76.7411H71.5304H71.5321Z" fill="white"/>
<path d="M75.6651 84.7705H69.0635V84.3716H69.4442C69.6278 84.3716 69.8028 84.3272 69.966 84.2386C70.0799 84.1806 70.1547 84.0988 70.1955 83.988C70.2261 83.9044 70.2618 83.6999 70.2618 83.2054V77.7465C70.2618 77.0782 70.1734 76.8771 70.1224 76.8174C69.9932 76.6725 69.7638 76.5992 69.4459 76.5992H69.0652V76.2003H75.6872L75.7892 78.212H75.3881L75.3745 78.1438C75.2912 77.7142 75.1977 77.4175 75.0991 77.2624C75.0039 77.1123 74.8612 76.9964 74.6708 76.9163C74.5195 76.86 74.2357 76.8293 73.8328 76.8293H71.6198V79.9799H73.3756C73.8294 79.9799 74.132 79.9151 74.2765 79.7855C74.4719 79.6116 74.5824 79.2945 74.6062 78.8411L74.6096 78.7609H75.0039V81.8569H74.6164L74.6062 81.7836C74.5365 81.2875 74.4787 81.0966 74.4413 81.0233C74.3751 80.8954 74.2697 80.7965 74.115 80.7215C73.9586 80.6448 73.7088 80.6056 73.3739 80.6056H71.6181V83.2907C71.6181 83.7612 71.6453 83.8976 71.6606 83.9368C71.6861 83.9999 71.7303 84.0493 71.7966 84.0868C71.8442 84.1141 71.9564 84.1465 72.2232 84.1465H73.6442C74.1082 84.1465 74.4464 84.1141 74.6504 84.051C74.851 83.9897 75.0464 83.8652 75.2334 83.6811C75.4799 83.4339 75.7382 83.052 76.0017 82.544L76.0255 82.4979H76.4436L75.6617 84.7756L75.6651 84.7705ZM69.2334 84.6H75.5445L76.209 82.6633H76.1325C75.8691 83.1645 75.609 83.5447 75.3558 83.797C75.1484 83.9999 74.9292 84.138 74.7031 84.2079C74.4787 84.2778 74.1337 84.3102 73.6459 84.3102H72.2249C71.9768 84.3102 71.8085 84.2829 71.7133 84.2284C71.6147 84.1721 71.545 84.0937 71.5043 83.9948C71.4805 83.9368 71.4482 83.7987 71.4482 83.2839V80.4283H73.3739C73.7411 80.4283 74.0079 80.4709 74.1898 80.5612C74.3751 80.6516 74.511 80.7795 74.5926 80.9397C74.6521 81.0591 74.7082 81.3011 74.7643 81.6796H74.834V78.9246H74.7694C74.7337 79.3832 74.6062 79.7139 74.3887 79.9066C74.2102 80.0668 73.8787 80.1453 73.3739 80.1453H71.4482V76.6537H73.8311C74.2612 76.6537 74.5569 76.6861 74.732 76.7526C74.9564 76.8481 75.1263 76.9862 75.2402 77.1652C75.3456 77.3323 75.4391 77.6187 75.5258 78.0364H75.6073L75.5224 76.3656H69.2317V76.4236H69.4425C69.8113 76.4236 70.0833 76.5157 70.2465 76.6998C70.3705 76.8447 70.4283 77.1754 70.4283 77.7414V83.2003C70.4283 83.6231 70.4028 83.8976 70.3519 84.0408C70.2975 84.1943 70.1921 84.3102 70.0408 84.3852C69.8538 84.4858 69.6516 84.5369 69.4408 84.5369H69.23V84.5949L69.2334 84.6Z" fill="white"/>
<path d="M76.4519 76.283H78.7261L83.8473 82.5858V77.7389C83.8473 77.2223 83.7895 76.9001 83.674 76.7722C83.521 76.5983 83.2796 76.5114 82.9516 76.5114H82.6609V76.2812H85.5776V76.5114H85.2819C84.9266 76.5114 84.6768 76.6188 84.5289 76.8336C84.4388 76.9666 84.3929 77.2666 84.3929 77.7389V84.8225H84.1703L78.6462 78.056V83.2302C78.6462 83.7467 78.7023 84.069 78.8128 84.1968C78.9692 84.3707 79.2105 84.4577 79.5352 84.4577H79.8309V84.6878H76.9142V84.4577H77.2049C77.5635 84.4577 77.8168 84.3503 77.9646 84.1355C78.0547 84.0025 78.1006 83.7024 78.1006 83.2302V77.386C77.8576 77.1013 77.674 76.9137 77.5482 76.8217C77.4224 76.7313 77.2389 76.6461 76.9958 76.5677C76.8768 76.5302 76.695 76.5114 76.4519 76.5114V76.2812V76.283Z" fill="white"/>
<path d="M84.476 84.9075H84.1293L84.1038 84.8768L78.731 78.2944V83.2299C78.731 83.8437 78.8109 84.0636 78.8772 84.1403C79.0149 84.2937 79.2375 84.3705 79.5367 84.3705H79.9174V84.7694H76.8307V84.3705H77.2064C77.5378 84.3705 77.7639 84.2767 77.8964 84.0858C77.9508 84.0056 78.0171 83.7908 78.0171 83.2299V77.4181C77.7894 77.1522 77.616 76.9749 77.4987 76.8913C77.3797 76.8061 77.203 76.7242 76.9701 76.6492C76.8596 76.6151 76.6863 76.5981 76.4534 76.5981H76.3684V76.1992H78.7667L78.7922 76.2298L83.7638 82.3468V77.7403C83.7638 77.1283 83.6822 76.9067 83.6126 76.8299C83.4766 76.6748 83.2556 76.5981 82.9531 76.5981H82.5774V76.1992H85.6641V76.5981H85.2834C84.9553 76.5981 84.731 76.6919 84.6001 76.8828C84.5457 76.9629 84.4794 77.1777 84.4794 77.7386V84.9075H84.476ZM84.2091 84.737H84.306V77.7386C84.306 77.2459 84.3553 76.9339 84.4573 76.7856C84.6222 76.5469 84.8992 76.4259 85.2817 76.4259H85.4924V76.3679H82.7457V76.4259H82.9514C83.3049 76.4259 83.5701 76.5231 83.7383 76.7157C83.8692 76.8606 83.9321 77.1965 83.9321 77.7386V82.8242L78.6851 76.3679H76.5367V76.4276C76.7474 76.431 76.9055 76.4515 77.0211 76.4856C77.2727 76.5657 77.4664 76.6561 77.599 76.7515C77.7316 76.847 77.9168 77.0362 78.1667 77.3295L78.1871 77.3533V83.2282C78.1871 83.7209 78.1378 84.0329 78.0358 84.1812C77.8709 84.4199 77.5922 84.5409 77.2064 84.5409H77.0007V84.5989H79.7474V84.5409H79.5367C79.1882 84.5409 78.9231 84.4438 78.7514 84.2528C78.6222 84.1045 78.5627 83.7789 78.5627 83.2282V77.8153L84.2108 84.7353L84.2091 84.737Z" fill="white"/>
<path d="M89.6594 84.4555V84.6856H86.0696V84.4555H86.3653C86.7104 84.4555 86.9619 84.3549 87.1183 84.152C87.2169 84.019 87.2662 83.7019 87.2662 83.1973V77.7691C87.2662 77.3446 87.239 77.0633 87.1863 76.9269C87.1455 76.8229 87.0605 76.7343 86.933 76.6609C86.7512 76.5621 86.5625 76.5126 86.3653 76.5126H86.0696V76.2825H89.6594V76.5126H89.3568C89.0152 76.5126 88.7653 76.6132 88.6089 76.8161C88.5053 76.9491 88.4543 77.2662 88.4543 77.7708V83.199C88.4543 83.6252 88.4815 83.9048 88.5342 84.0412C88.5749 84.1452 88.6616 84.2338 88.7942 84.3072C88.971 84.406 89.1596 84.4555 89.3568 84.4555H89.6594Z" fill="white"/>
<path d="M89.7446 84.7705H85.9849V84.3716H86.3656C86.6868 84.3716 86.9112 84.2829 87.0523 84.1005C87.1118 84.0221 87.1832 83.8004 87.1832 83.1986V77.7704C87.1832 77.2573 87.1424 77.0459 87.1084 76.9589C87.0744 76.8754 87.0013 76.7987 86.8908 76.7356C86.7242 76.6452 86.5475 76.5992 86.3656 76.5992H85.9849V76.2003H89.7446V76.5992H89.3571C89.0392 76.5992 88.8183 76.6878 88.6772 76.8703C88.6143 76.9504 88.5412 77.172 88.5412 77.7721V83.2003C88.5412 83.7135 88.582 83.9249 88.616 84.0118C88.65 84.0954 88.7248 84.1704 88.8387 84.2352C89.0018 84.3272 89.1769 84.3733 89.3588 84.3733H89.7463V84.7722L89.7446 84.7705ZM86.1548 84.6H89.5746V84.542H89.3571C89.1463 84.542 88.9424 84.4892 88.7537 84.3818C88.6058 84.2983 88.5055 84.1943 88.4562 84.0732C88.3984 83.9249 88.3695 83.6385 88.3695 83.1986V77.7704C88.3695 77.2419 88.4256 76.9129 88.5429 76.7629C88.7146 76.5395 88.9899 76.427 89.3571 76.427H89.5746V76.369H86.1548V76.427H86.3656C86.5764 76.427 86.782 76.4799 86.9741 76.5856C87.1203 76.6708 87.2171 76.7748 87.2647 76.8958C87.3225 77.0442 87.3514 77.3306 87.3514 77.7704V83.1986C87.3514 83.7339 87.2987 84.0528 87.1866 84.2045C87.0132 84.4295 86.7361 84.542 86.3656 84.542H86.1548V84.6Z" fill="white"/>
<path d="M97.5867 76.0903L97.7787 78.9476H97.5867C97.3317 78.0918 96.9663 77.4763 96.4937 77.1012C96.0195 76.7262 95.4518 76.5369 94.7889 76.5369C94.2331 76.5369 93.73 76.6784 93.2813 76.9614C92.8326 77.2444 92.479 77.6962 92.2224 78.3151C91.964 78.9339 91.8366 79.7045 91.8366 80.6269C91.8366 81.3872 91.9589 82.0453 92.202 82.6045C92.445 83.162 92.8105 83.5899 93.2983 83.8865C93.7861 84.1832 94.3436 84.3332 94.9691 84.3332C95.513 84.3332 95.9923 84.2172 96.4088 83.9837C96.8252 83.7501 97.2824 83.2864 97.7804 82.5925L97.9725 82.717C97.5527 83.4654 97.0614 84.0127 96.5022 84.3588C95.9413 84.7048 95.2768 84.8787 94.5068 84.8787C93.1181 84.8787 92.0439 84.3622 91.2824 83.329C90.7147 82.5601 90.4292 81.6566 90.4292 80.6149C90.4292 79.7761 90.6162 79.0055 90.9918 78.3032C91.3657 77.6008 91.8824 77.0569 92.5402 76.6699C93.1963 76.2829 93.9153 76.0903 94.6938 76.0903C95.2989 76.0903 95.8971 76.2386 96.4852 76.5369C96.6586 76.6273 96.781 76.6733 96.8558 76.6733C96.9663 76.6733 97.0631 76.6341 97.1464 76.5557C97.2535 76.4449 97.33 76.2897 97.3742 76.0903H97.5901H97.5867Z" fill="white"/>
<path d="M94.5034 84.9625C93.0926 84.9625 91.9844 84.4306 91.2094 83.3787C90.6332 82.5996 90.3408 81.6688 90.3408 80.6135C90.3408 79.7645 90.5329 78.9734 90.9136 78.2625C91.2944 77.5499 91.8264 76.989 92.4926 76.5969C93.1589 76.2048 93.8983 76.0053 94.6887 76.0053C95.304 76.0053 95.921 76.1587 96.5193 76.4605C96.73 76.5713 96.8184 76.5884 96.8524 76.5884C96.9425 76.5884 97.0173 76.5577 97.0836 76.4946C97.1753 76.3974 97.245 76.2559 97.2875 76.0718L97.3028 76.0053H97.6666L97.8705 79.0331H97.5238L97.5051 78.9717C97.2569 78.1381 96.8983 77.5311 96.4411 77.168C95.9855 76.8066 95.428 76.6225 94.789 76.6225C94.2518 76.6225 93.7606 76.7606 93.3272 77.0333C92.8955 77.3061 92.5504 77.7477 92.3006 78.3478C92.049 78.9547 91.9198 79.7202 91.9198 80.6271C91.9198 81.3722 92.0405 82.0251 92.2768 82.5707C92.5113 83.1094 92.8683 83.5271 93.3391 83.8152C93.8116 84.1033 94.3589 84.2482 94.9657 84.2482C95.4926 84.2482 95.9617 84.134 96.3629 83.909C96.7657 83.6822 97.2178 83.2236 97.7073 82.5434L97.7549 82.4769L98.0813 82.6883L98.0422 82.7582C97.6173 83.5151 97.1125 84.0777 96.543 84.4306C95.9719 84.7852 95.2853 84.9642 94.5034 84.9642V84.9625ZM94.6887 76.1758C93.9289 76.1758 93.2184 76.3667 92.5776 76.7435C91.9368 77.1203 91.4269 77.6573 91.0615 78.3426C90.6961 79.0297 90.5091 79.7935 90.5091 80.6135C90.5091 81.6313 90.7895 82.528 91.3453 83.2765C92.0864 84.2823 93.1487 84.7904 94.5017 84.7904C95.253 84.7904 95.9091 84.6199 96.453 84.2823C96.9816 83.955 97.4524 83.4367 97.8552 82.7411L97.7991 82.7053C97.313 83.3702 96.8592 83.8237 96.4479 84.0556C96.0212 84.296 95.5232 84.417 94.9674 84.417C94.3283 84.417 93.7521 84.2636 93.2524 83.9584C92.751 83.6532 92.3703 83.2083 92.1221 82.6371C91.8757 82.0711 91.7499 81.3943 91.7499 80.6254C91.7499 79.698 91.8825 78.9087 92.1425 78.2813C92.406 77.6488 92.7731 77.1799 93.2354 76.8884C93.696 76.5986 94.2178 76.4503 94.7873 76.4503C95.4671 76.4503 96.0586 76.6463 96.5447 77.0333C97.019 77.4101 97.3895 78.0255 97.6479 78.8609H97.6852L97.5051 76.1741H97.4337C97.3827 76.3565 97.3045 76.5048 97.2008 76.6122C97.1006 76.7077 96.9816 76.7554 96.849 76.7554C96.7589 76.7554 96.628 76.7094 96.4394 76.6088C95.8666 76.319 95.2768 76.1724 94.687 76.1724L94.6887 76.1758Z" fill="white"/>
<path d="M101.053 76.7411V80.0621H102.894C103.372 80.0621 103.691 79.9905 103.851 79.8456C104.065 79.6564 104.184 79.3205 104.21 78.8414H104.439V81.7669H104.21C104.152 81.3578 104.094 81.0952 104.036 80.9793C103.962 80.8344 103.841 80.7219 103.673 80.6383C103.503 80.5548 103.244 80.5139 102.894 80.5139H101.053V83.2843C101.053 83.6559 101.07 83.8827 101.103 83.9628C101.135 84.0429 101.193 84.1077 101.276 84.1554C101.359 84.2032 101.516 84.227 101.745 84.227H103.166C103.64 84.227 103.984 84.1946 104.198 84.1281C104.412 84.0617 104.618 83.9321 104.815 83.7377C105.07 83.482 105.332 83.095 105.598 82.5784H105.845L105.122 84.6856H98.667V84.4555H98.9627C99.1599 84.4555 99.3486 84.4077 99.5253 84.3123C99.6579 84.2458 99.7463 84.1469 99.7939 84.0156C99.8415 83.8827 99.8653 83.6133 99.8653 83.2041V77.7452C99.8653 77.2116 99.8126 76.8843 99.7055 76.7598C99.5576 76.5945 99.3095 76.5126 98.9644 76.5126H98.6687V76.2825H105.124L105.218 78.1237H104.976C104.89 77.6821 104.794 77.3787 104.689 77.2133C104.584 77.0479 104.429 76.9218 104.223 76.8348C104.058 76.7735 103.768 76.7411 103.353 76.7411H101.055H101.053Z" fill="white"/>
<path d="M105.185 84.7705H98.5837V84.3716H98.9662C99.1497 84.3716 99.3248 84.3272 99.488 84.2386C99.6019 84.1806 99.6766 84.0988 99.7174 83.988C99.748 83.9044 99.7837 83.6999 99.7837 83.2054V77.7465C99.7837 77.1123 99.7072 76.8907 99.6444 76.8174C99.5152 76.6725 99.2857 76.5992 98.9679 76.5992H98.5854V76.2003H105.207L105.308 78.212H104.908L104.895 78.1438C104.81 77.7142 104.718 77.4175 104.619 77.2624C104.524 77.1123 104.38 76.9964 104.191 76.9163C104.04 76.86 103.758 76.8293 103.353 76.8293H101.14V79.9799H102.896C103.35 79.9799 103.654 79.9151 103.797 79.7855C103.992 79.6116 104.104 79.2945 104.126 78.8411L104.13 78.7609H104.524V81.8569H104.137L104.126 81.7836C104.07 81.3847 104.014 81.129 103.962 81.0233C103.895 80.8954 103.79 80.7965 103.635 80.7215C103.479 80.6448 103.229 80.6056 102.894 80.6056H101.138V83.2907C101.138 83.7612 101.166 83.8976 101.181 83.9368C101.206 83.9999 101.252 84.0493 101.317 84.0868C101.364 84.1141 101.477 84.1465 101.743 84.1465H103.164C103.627 84.1465 103.967 84.1141 104.171 84.051C104.371 83.9897 104.567 83.8652 104.754 83.6811C105.002 83.4322 105.26 83.0503 105.522 82.544L105.546 82.4979H105.964L105.182 84.7756L105.185 84.7705ZM98.7537 84.6H105.065L105.729 82.6633H105.653C105.391 83.1628 105.129 83.543 104.878 83.797C104.67 83.9999 104.451 84.138 104.225 84.2079C104.001 84.2778 103.656 84.3102 103.168 84.3102H101.747C101.499 84.3102 101.33 84.2829 101.235 84.2284C101.137 84.1721 101.067 84.0937 101.026 83.9948C101.002 83.9368 100.97 83.7987 100.97 83.2839V80.4283H102.896C103.263 80.4283 103.53 80.4709 103.712 80.5612C103.897 80.6516 104.031 80.7795 104.115 80.9397C104.174 81.0573 104.228 81.2994 104.285 81.6813H104.354V78.9263H104.29C104.254 79.3849 104.126 79.7156 103.907 79.9083C103.729 80.0685 103.397 80.147 102.894 80.147H100.968V76.6554H103.351C103.781 76.6554 104.075 76.6878 104.252 76.7543C104.477 76.8481 104.647 76.9879 104.76 77.1669C104.866 77.334 104.959 77.6187 105.046 78.0381H105.128L105.043 76.3673H98.752V76.4253H98.9645C99.3333 76.4253 99.6036 76.5174 99.7684 76.7015C99.8925 76.8464 99.9503 77.1771 99.9503 77.7431V83.202C99.9503 83.6248 99.9248 83.8993 99.8738 84.0425C99.8194 84.196 99.714 84.3119 99.5628 84.3869C99.3775 84.4875 99.1735 84.5386 98.9628 84.5386H98.7503V84.5966L98.7537 84.6Z" fill="white"/>
<path d="M34.588 68.0066H38.4804V65.6028C38.4804 65.1732 38.4532 64.8902 38.4005 64.7538C38.3597 64.6498 38.273 64.5612 38.1404 64.4878C37.9637 64.389 37.7767 64.3395 37.5778 64.3395H37.2821V64.1094H40.8651V64.3395H40.5693C40.3721 64.3395 40.1835 64.3873 40.0067 64.4827C39.8741 64.5492 39.7857 64.6498 39.7382 64.7828C39.6906 64.9175 39.6668 65.1902 39.6668 65.6045V71.0276C39.6668 71.4538 39.694 71.7334 39.7467 71.8698C39.7874 71.9738 39.8724 72.0625 39.9999 72.1358C40.1818 72.2346 40.3704 72.2841 40.5676 72.2841H40.8634V72.5142H37.2804V72.2841H37.5761C37.9178 72.2841 38.1676 72.1835 38.324 71.9806C38.4277 71.8476 38.4787 71.5305 38.4787 71.0259V68.4669H34.5863V71.0259C34.5863 71.4521 34.6135 71.7317 34.6662 71.8681C34.707 71.9721 34.7937 72.0608 34.9263 72.1341C35.1031 72.2329 35.29 72.2824 35.4889 72.2824H35.7914V72.5125H32.2017V72.2824H32.4974C32.8441 72.2824 33.094 72.1818 33.2504 71.9789C33.349 71.8459 33.3983 71.5288 33.3983 71.0242V65.6011C33.3983 65.1715 33.3711 64.8885 33.3184 64.7521C33.2776 64.6481 33.1926 64.5594 33.0651 64.4861C32.8832 64.3873 32.6946 64.3378 32.4974 64.3378H32.2017V64.1077H35.7914V64.3378H35.4889C35.2917 64.3378 35.1031 64.3856 34.9263 64.481C34.7988 64.5475 34.7104 64.6481 34.6611 64.7811C34.6118 64.9158 34.5863 65.1885 34.5863 65.6028V68.0066H34.588Z" fill="white"/>
<path d="M40.9498 72.5974H37.1969V72.1968H37.5793C37.8955 72.1968 38.1181 72.1082 38.2592 71.9257C38.3221 71.8456 38.3952 71.624 38.3952 71.0239V68.5502H34.6728V71.0239C34.6728 71.5387 34.7136 71.7484 34.7476 71.8354C34.7816 71.9189 34.8564 71.9939 34.9703 72.0587C35.1334 72.1508 35.3085 72.1968 35.4904 72.1968H35.8779V72.5974H32.1182V72.1968H32.5006C32.8218 72.1968 33.0462 72.1082 33.1873 71.9257C33.2468 71.8473 33.3182 71.6257 33.3182 71.0239V65.6008C33.3182 65.0825 33.2774 64.8694 33.2434 64.7825C33.2094 64.6989 33.1363 64.6239 33.0258 64.5591C32.8609 64.4688 32.6825 64.4227 32.5006 64.4227H32.1182V64.0221H35.8779V64.4227H35.4904C35.3085 64.4227 35.1317 64.4671 34.9686 64.5557C34.8581 64.612 34.785 64.6955 34.7425 64.8114C34.7119 64.8967 34.6745 65.103 34.6745 65.6025V67.9211H38.3969V65.6025C38.3969 65.0842 38.3561 64.8711 38.3221 64.7842C38.2881 64.7006 38.2133 64.6256 38.0994 64.5608C37.9363 64.4688 37.7612 64.4227 37.5793 64.4227H37.1969V64.0221H40.9498V64.4227H40.5691C40.3872 64.4227 40.2105 64.4671 40.0473 64.5557C39.9334 64.6137 39.8586 64.6955 39.8178 64.8097C39.7872 64.895 39.7515 65.103 39.7515 65.6025V71.0256C39.7515 71.4382 39.777 71.7109 39.8263 71.8371C39.8603 71.9223 39.9334 71.9973 40.0439 72.0604C40.2105 72.1508 40.3872 72.1968 40.5691 72.1968H40.9498V72.5974ZM37.3669 72.427H40.7799V72.3673H40.5691C40.3583 72.3673 40.1527 72.3144 39.9606 72.2087C39.8144 72.1235 39.7175 72.0195 39.67 71.8985C39.6122 71.7501 39.5833 71.4654 39.5833 71.0239V65.6008C39.5833 65.1746 39.6088 64.8967 39.6598 64.7518C39.7141 64.5966 39.8195 64.479 39.9708 64.404C40.1578 64.3034 40.36 64.2522 40.5708 64.2522H40.7816V64.1926H37.3686V64.2522H37.581C37.7918 64.2522 37.9957 64.3051 38.1844 64.4125C38.3323 64.496 38.4326 64.6 38.4819 64.7211C38.5397 64.8694 38.5685 65.1575 38.5685 65.6025V68.0916H34.5063V65.6025C34.5063 65.1746 34.5317 64.8967 34.5861 64.7518C34.6422 64.5983 34.7459 64.4807 34.8921 64.4057C35.079 64.3051 35.283 64.254 35.4938 64.254H35.7113V64.1943H32.2915V64.254H32.504C32.7148 64.254 32.9204 64.3068 33.1125 64.4125C33.2587 64.4977 33.3555 64.6017 33.4048 64.7228C33.4626 64.8711 33.4915 65.1592 33.4915 65.6042V71.0273C33.4915 71.5558 33.4371 71.8848 33.3267 72.0331C33.1533 72.2582 32.8762 72.3707 32.5057 72.3707H32.2932V72.4304H35.713V72.3707H35.4955C35.2847 72.3707 35.0807 72.3179 34.8921 72.2104C34.7425 72.1269 34.6439 72.0229 34.5946 71.9019C34.5368 71.7535 34.5079 71.4688 34.5079 71.0273V68.3831H38.5702V71.0273C38.5702 71.5558 38.5142 71.8848 38.3986 72.0348C38.2252 72.2582 37.9516 72.3707 37.5844 72.3707H37.372V72.4304L37.3669 72.427Z" fill="white"/>
<path d="M43.7719 64.568V67.889H45.6127C46.0903 67.889 46.4098 67.8174 46.5696 67.6725C46.7838 67.4833 46.9028 67.1474 46.9283 66.6683H47.1577V69.5938H46.9283C46.8705 69.1847 46.8127 68.9221 46.7549 68.8062C46.6801 68.6613 46.5594 68.5488 46.3912 68.4652C46.2229 68.3817 45.9628 68.3408 45.6127 68.3408H43.7719V71.1112C43.7719 71.4828 43.7889 71.7096 43.8212 71.7897C43.8535 71.8698 43.9113 71.9346 43.9946 71.9823C44.0762 72.0301 44.2342 72.0539 44.4637 72.0539H45.8846C46.3589 72.0539 46.7022 72.0215 46.9164 71.9551C47.1305 71.8886 47.3362 71.759 47.5351 71.5646C47.79 71.3089 48.0518 70.9219 48.3203 70.4054H48.5668L47.8444 72.5125H41.3889V72.2824H41.6847C41.8818 72.2824 42.0705 72.2346 42.2473 72.1392C42.3781 72.0727 42.4682 71.9738 42.5158 71.8425C42.5634 71.7113 42.5872 71.4402 42.5872 71.031V65.5721C42.5872 65.0385 42.5328 64.7112 42.4257 64.5867C42.2779 64.4214 42.0297 64.3395 41.6847 64.3395H41.3889V64.1094H47.8444L47.9379 65.9506H47.6965C47.6098 65.509 47.5147 65.2056 47.4093 65.0402C47.3039 64.8748 47.1492 64.7487 46.9436 64.6617C46.7787 64.6004 46.488 64.568 46.0716 64.568H43.7736H43.7719Z" fill="white"/>
<path d="M47.9034 72.5976H41.3018V72.197H41.6842C41.8678 72.197 42.0428 72.1527 42.206 72.064C42.3199 72.0061 42.3947 71.9242 42.4355 71.8134C42.4661 71.7299 42.5017 71.5253 42.5017 71.0309V65.572C42.5017 64.9037 42.4134 64.7025 42.3624 64.6428C42.2332 64.4979 42.0037 64.4246 41.6859 64.4246H41.3035V64.024H47.9255L48.0275 66.0357H47.6281L47.6145 65.9675C47.5312 65.5379 47.4377 65.2412 47.3391 65.0861C47.2439 64.9361 47.0995 64.8201 46.9108 64.7417C46.7595 64.6855 46.4757 64.6548 46.0728 64.6548H43.8598V67.8053H45.6156C46.0694 67.8053 46.372 67.7405 46.5165 67.611C46.7119 67.4371 46.8241 67.12 46.8462 66.6665L46.8496 66.5864H47.2439V69.6824H46.8564L46.8462 69.609C46.7765 69.1129 46.7187 68.922 46.6813 68.8487C46.615 68.7208 46.5097 68.6219 46.355 68.5469C46.1986 68.4702 45.9488 68.431 45.6139 68.431H43.8581V71.1161C43.8581 71.5867 43.8853 71.723 43.9006 71.7623C43.9261 71.8253 43.972 71.8748 44.0366 71.9123C44.0842 71.9396 44.1964 71.972 44.4632 71.972H45.8842C46.3465 71.972 46.6864 71.9396 46.8904 71.8765C47.091 71.8151 47.2864 71.6907 47.4734 71.5065C47.7198 71.2593 47.9799 70.8757 48.2417 70.3694L48.2655 70.3234H48.6836L47.9017 72.601L47.9034 72.5976ZM41.4717 72.4271H47.7827L48.4473 70.4904H48.3708C48.1074 70.99 47.8473 71.3719 47.5941 71.6242C47.3867 71.827 47.1674 71.9651 46.9414 72.035C46.717 72.1049 46.372 72.1373 45.8842 72.1373H44.4632C44.2151 72.1373 44.0468 72.11 43.9516 72.0555C43.853 71.9992 43.7833 71.9208 43.7425 71.8219C43.7187 71.764 43.6864 71.6259 43.6864 71.111V68.2554H45.6122C45.9793 68.2554 46.2462 68.298 46.4281 68.3884C46.6133 68.4787 46.7493 68.6066 46.8309 68.7669C46.8904 68.8862 46.9465 69.1283 47.0026 69.5068H47.0723V66.7517H47.0077C46.972 67.2103 46.8445 67.5411 46.6269 67.7337C46.4485 67.894 46.117 67.9724 45.6122 67.9724H43.6864V64.4809H46.0694C46.4995 64.4809 46.7952 64.5133 46.9703 64.5798C47.1946 64.6752 47.3646 64.8133 47.4785 64.9923C47.5839 65.1594 47.6774 65.4441 47.764 65.8635H47.8456L47.7606 64.1928H41.47V64.2524H41.6825C42.0513 64.2524 42.3233 64.3445 42.4865 64.5286C42.6105 64.6735 42.6683 65.0043 42.6683 65.5703V71.0292C42.6683 71.452 42.6428 71.7265 42.5918 71.8697C42.5374 72.0231 42.4321 72.139 42.2808 72.214C42.0938 72.3146 41.8916 72.3658 41.6808 72.3658H41.4683V72.4254L41.4717 72.4271Z" fill="white"/>
<path d="M57.1943 72.5125L53.9564 65.4426V71.0566C53.9564 71.5732 54.0124 71.8954 54.1229 72.0232C54.2759 72.1971 54.5156 72.2841 54.8453 72.2841H55.141V72.5142H52.2244V72.2841H52.5201C52.8736 72.2841 53.1252 72.1767 53.2731 71.9619C53.3632 71.8289 53.409 71.5288 53.409 71.0566V65.5653C53.409 65.1936 53.3683 64.9243 53.285 64.7589C53.2272 64.6396 53.1218 64.539 52.9671 64.4589C52.8125 64.3787 52.5643 64.3378 52.2227 64.3378V64.1077H54.5954L57.6345 70.6832L60.6243 64.1077H62.9971V64.3378H62.7064C62.3478 64.3378 62.0945 64.4452 61.9467 64.66C61.8566 64.793 61.8107 65.0931 61.8107 65.5653V71.0566C61.8107 71.5732 61.8685 71.8954 61.9841 72.0232C62.137 72.1971 62.3767 72.2841 62.7064 72.2841H62.9971V72.5142H59.4379V72.2841H59.7337C60.0923 72.2841 60.3438 72.1767 60.4866 71.9619C60.5767 71.8289 60.6226 71.5288 60.6226 71.0566V65.4426L57.3915 72.5125H57.1875H57.1943Z" fill="white"/>
<path d="M63.0874 72.5974H59.3583V72.1968H59.739C60.0705 72.1968 60.2931 72.103 60.4223 71.9121C60.4784 71.8303 60.543 71.6172 60.543 71.0546V65.8309L57.4512 72.5957H57.1385L54.0399 65.8292V71.0546C54.0399 71.6683 54.1198 71.8882 54.1861 71.9649C54.3204 72.1184 54.543 72.1951 54.8456 72.1951H55.2263V72.5957H52.1396V72.1951H52.5204C52.8484 72.1951 53.0711 72.1013 53.2037 71.9104C53.258 71.8303 53.3243 71.6155 53.3243 71.0546V65.5633C53.3243 65.207 53.2852 64.9478 53.2105 64.7961C53.1612 64.6921 53.066 64.6052 52.9283 64.5335C52.7872 64.4602 52.5493 64.4227 52.2229 64.4227H52.1379V64.0221H54.6501L57.6348 70.4783L60.5719 64.0221H63.084V64.4227H62.7084C62.377 64.4227 62.1509 64.5165 62.0183 64.7074C61.9639 64.7876 61.8976 65.0024 61.8976 65.5633V71.0546C61.8976 71.6683 61.9792 71.8882 62.0489 71.9649C62.1849 72.1184 62.4059 72.1968 62.7084 72.1968H63.084V72.5974H63.0874ZM59.5283 72.427H62.9175V72.3673H62.7118C62.3583 72.3673 62.0931 72.2701 61.9248 72.0775C61.7923 71.9309 61.7311 71.6052 61.7311 71.0546V65.5633C61.7311 65.0706 61.7804 64.7586 61.8823 64.6103C62.0472 64.3716 62.326 64.2505 62.7118 64.2505H62.9175V64.1909H60.6841L57.6399 70.8841L54.5447 64.1909H52.3113V64.2505C52.6258 64.2574 52.8552 64.3 53.0099 64.3801C53.1799 64.4688 53.3005 64.583 53.3651 64.7194C53.4535 64.8967 53.4977 65.1729 53.4977 65.5616V71.0529C53.4977 71.5456 53.4484 71.8575 53.3464 72.0059C53.1816 72.2445 52.9045 72.3656 52.5221 72.3656H52.3113V72.4253H55.058V72.3656H54.8473C54.4937 72.3656 54.2286 72.2684 54.0603 72.0758C53.9311 71.9274 53.8716 71.6035 53.8716 71.0529V65.4388L54.0331 65.403L57.2473 72.4236H57.3424L60.5515 65.403L60.713 65.4388V71.0529C60.713 71.5456 60.6637 71.8575 60.5617 72.0059C60.4019 72.2445 60.1249 72.3656 59.7373 72.3656H59.5266V72.4253L59.5283 72.427Z" fill="white"/>
<path d="M65.9123 64.568V67.889H67.753C68.2307 67.889 68.5502 67.8174 68.71 67.6725C68.9241 67.4833 69.0431 67.1474 69.0686 66.6683H69.2981V69.5938H69.0686C69.0108 69.1847 68.953 68.9221 68.8952 68.8062C68.8205 68.6613 68.6998 68.5488 68.5315 68.4652C68.3615 68.3817 68.1032 68.3408 67.753 68.3408H65.9123V71.1112C65.9123 71.4828 65.9293 71.7096 65.9615 71.7897C65.9938 71.8698 66.0516 71.9346 66.1349 71.9823C66.2165 72.0301 66.3746 72.0539 66.604 72.0539H68.025C68.4992 72.0539 68.8425 72.0215 69.0567 71.9551C69.2709 71.8886 69.4765 71.759 69.6737 71.5646C69.9287 71.3089 70.1904 70.9219 70.4573 70.4054H70.7037L69.9813 72.5125H63.5242V72.2824H63.8199C64.0171 72.2824 64.2057 72.2346 64.3825 72.1392C64.5134 72.0727 64.6035 71.9738 64.6511 71.8425C64.6987 71.7096 64.7225 71.4402 64.7225 71.031V65.5721C64.7225 65.0385 64.6681 64.7112 64.561 64.5867C64.4131 64.4214 64.165 64.3395 63.8199 64.3395H63.5242V64.1094H69.9813L70.0748 65.9506H69.8335C69.7468 65.509 69.6516 65.2056 69.5462 65.0402C69.4408 64.8748 69.2862 64.7487 69.0805 64.6617C68.9156 64.6004 68.625 64.568 68.2103 64.568H65.9123Z" fill="white"/>
<path d="M70.0465 72.5976H63.4448V72.197H63.8273C64.0108 72.197 64.1859 72.1527 64.3491 72.064C64.4629 72.0061 64.5377 71.9242 64.5785 71.8134C64.6091 71.7299 64.6448 71.5253 64.6448 71.0309V65.572C64.6448 64.9037 64.5564 64.7025 64.5054 64.6428C64.3763 64.4979 64.1468 64.4246 63.829 64.4246H63.4465V64.024H70.0686L70.1706 66.0357H69.7694L69.7558 65.9675C69.6708 65.5379 69.5791 65.2412 69.4805 65.0861C69.3853 64.9361 69.2408 64.8201 69.0522 64.7417C68.9009 64.6855 68.617 64.6548 68.2142 64.6548H66.0012V67.8053H67.757C68.2108 67.8053 68.515 67.7405 68.6578 67.611C68.8533 67.4371 68.9655 67.12 68.9876 66.6665L68.991 66.5864H69.3853V69.6824H68.9978L68.9876 69.609C68.9315 69.2101 68.8754 68.9544 68.8227 68.8487C68.7564 68.7208 68.651 68.6219 68.4963 68.5469C68.34 68.4702 68.0901 68.431 67.7553 68.431H65.9995V71.1161C65.9995 71.5867 66.0267 71.723 66.042 71.7623C66.0675 71.8253 66.1134 71.8748 66.1779 71.9123C66.2255 71.9396 66.3377 71.972 66.6046 71.972H68.0255C68.4878 71.972 68.8278 71.9396 69.0318 71.8765C69.2323 71.8151 69.4278 71.6907 69.6148 71.5065C69.8629 71.2576 70.1213 70.8757 70.383 70.3694L70.4068 70.3234H70.8249L70.0448 72.601L70.0465 72.5976ZM63.6148 72.4271H69.9258L70.5904 70.4904H70.5139C70.2521 70.99 69.9904 71.3701 69.7388 71.6242C69.5315 71.827 69.3122 71.9651 69.0861 72.035C68.8618 72.1049 68.5167 72.1373 68.0289 72.1373H66.608C66.3598 72.1373 66.1915 72.11 66.0964 72.0555C65.9978 71.9992 65.9281 71.9208 65.8873 71.8219C65.8635 71.764 65.8312 71.6259 65.8312 71.111V68.2554H67.757C68.1241 68.2554 68.391 68.298 68.5728 68.3884C68.7581 68.4787 68.8924 68.6066 68.9757 68.7669C69.0352 68.8845 69.0912 69.1266 69.1473 69.5068H69.217V66.7517H69.1524C69.1167 67.2103 68.9893 67.5411 68.77 67.7337C68.5915 67.894 68.2601 67.9724 67.757 67.9724H65.8312V64.4809H68.2142C68.6442 64.4809 68.9383 64.5133 69.115 64.5798C69.3394 64.6752 69.5094 64.8133 69.6233 64.9923C69.7286 65.1594 69.8221 65.4441 69.9088 65.8635H69.9904L69.9071 64.1928H63.6165V64.2524H63.829C64.1978 64.2524 64.4697 64.3445 64.6329 64.5286C64.757 64.6735 64.8148 65.0043 64.8148 65.5703V71.0292C64.8148 71.452 64.7893 71.7265 64.7383 71.8697C64.6839 72.0231 64.5785 72.139 64.4273 72.214C64.2403 72.3146 64.038 72.3658 63.8273 72.3658H63.6148V72.4254V72.4271Z" fill="white"/>
<path d="M79.5492 72.5127H77.3124L74.4756 68.5831C74.2665 68.5916 74.0948 68.595 73.9623 68.595C73.9096 68.595 73.8518 68.595 73.7889 68.5916C73.7277 68.5899 73.6631 68.5865 73.5968 68.5831V71.0244C73.5968 71.5529 73.6546 71.8819 73.7702 72.0098C73.9266 72.1922 74.1611 72.2826 74.4739 72.2826H74.8019V72.5127H71.2121V72.2826H71.5266C71.8801 72.2826 72.1334 72.1666 72.2864 71.9365C72.373 71.8086 72.4155 71.5052 72.4155 71.0261V65.5979C72.4155 65.0694 72.3578 64.7403 72.2422 64.6125C72.0807 64.4301 71.8427 64.3397 71.5249 64.3397H71.2104V64.1096H74.2631C75.1521 64.1096 75.8082 64.1743 76.2314 64.3039C76.6529 64.4335 77.0115 64.6739 77.3056 65.0234C77.5996 65.3728 77.7475 65.7888 77.7475 66.2713C77.7475 66.7879 77.5792 67.2362 77.2444 67.6164C76.9079 67.9966 76.3895 68.2643 75.6841 68.4228L77.4144 70.8335C77.8087 71.3875 78.1486 71.7541 78.4342 71.9365C78.718 72.1189 79.0886 72.2331 79.5458 72.2826V72.5127H79.5492ZM73.6002 68.1927C73.6784 68.1927 73.7464 68.1927 73.8042 68.1961C73.862 68.1978 73.9096 68.1995 73.947 68.1995C74.7458 68.1995 75.3475 68.0256 75.7538 67.6795C76.16 67.3317 76.3623 66.8902 76.3623 66.3531C76.3623 65.8161 76.1991 65.4018 75.871 65.0728C75.543 64.7438 75.1096 64.5801 74.5708 64.5801C74.3328 64.5801 74.0082 64.6193 73.6019 64.6977V68.1927H73.6002Z" fill="white"/>
<path d="M79.634 72.5974H77.2697L77.2442 72.5616L74.4346 68.6695C74.2442 68.6763 74.0878 68.6797 73.9638 68.6797C73.9094 68.6797 73.8499 68.6797 73.787 68.6763C73.753 68.6763 73.719 68.6746 73.6833 68.6729V71.0239C73.6833 71.653 73.7649 71.8763 73.8346 71.9513C73.9774 72.1167 74.1864 72.1951 74.4754 72.1951H74.8884V72.5957H71.1287V72.1951H71.5281C71.8544 72.1951 72.0805 72.0945 72.2165 71.8865C72.2692 71.8081 72.332 71.595 72.332 71.0222V65.594C72.332 64.9666 72.2505 64.7432 72.1808 64.6665C72.038 64.5046 71.817 64.4227 71.5264 64.4227H71.127V64.0221H74.2646C75.1587 64.0221 75.8283 64.0886 76.2567 64.2216C76.6918 64.3562 77.0674 64.6069 77.3717 64.9666C77.6776 65.3297 77.834 65.7679 77.834 66.2708C77.834 66.8061 77.6572 67.2783 77.3088 67.6722C76.9824 68.0404 76.4844 68.3115 75.8283 68.4751L77.4839 70.7818C77.8714 71.3239 78.2062 71.6871 78.4799 71.8627C78.7518 72.0366 79.1139 72.1491 79.5558 72.1968L79.6323 72.2053V72.5957L79.634 72.5974ZM77.3564 72.427H79.464V72.3588C79.0306 72.3042 78.6685 72.1849 78.3915 72.0076C78.0957 71.8183 77.7541 71.4501 77.3496 70.8824L75.5445 68.3677L75.6703 68.3405C76.3535 68.1887 76.8635 67.9262 77.1847 67.5613C77.5042 67.1999 77.6674 66.7652 77.6674 66.2725C77.6674 65.8122 77.5263 65.4115 77.2459 65.0791C76.9637 64.7449 76.6153 64.5114 76.2108 64.3869C75.7977 64.2591 75.1451 64.196 74.268 64.196H71.3003V64.2557H71.5298C71.8714 64.2557 72.1332 64.3562 72.31 64.5574C72.4425 64.7057 72.5037 65.0365 72.5037 65.5991V71.0273C72.5037 71.5285 72.4561 71.8422 72.3592 71.9854C72.191 72.2394 71.9122 72.369 71.5298 72.369H71.3003V72.4287H74.7201V72.369H74.4771C74.1388 72.369 73.8805 72.2667 73.7088 72.0672C73.5779 71.9223 73.515 71.5899 73.515 71.0256V68.4939L73.6051 68.499C73.6697 68.5024 73.7326 68.5058 73.7938 68.5075C73.855 68.5092 73.9111 68.5109 73.9638 68.5109C74.0946 68.5109 74.2646 68.5075 74.4737 68.499H74.5196L77.3564 72.427ZM73.9468 68.2842C73.9094 68.2842 73.8601 68.2842 73.8023 68.2808C73.7462 68.2791 73.6782 68.2774 73.6017 68.2774H73.5167V64.6273L73.5864 64.6137C73.9978 64.5353 74.3292 64.4943 74.5723 64.4943C75.1332 64.4943 75.5904 64.6682 75.9337 65.0126C76.2754 65.3553 76.4504 65.8071 76.4504 66.3526C76.4504 66.8982 76.2363 67.3806 75.813 67.7438C75.3932 68.1018 74.766 68.2842 73.9502 68.2842H73.9468ZM73.6867 68.1086C73.7309 68.1086 73.7717 68.1086 73.8091 68.112C73.8652 68.1137 73.9128 68.1154 73.9485 68.1154C74.7235 68.1154 75.3116 67.9466 75.7009 67.6159C76.0901 67.2835 76.2788 66.8709 76.2788 66.3543C76.2788 65.8378 76.1224 65.4456 75.813 65.1354C75.5037 64.8251 75.0873 64.6682 74.5723 64.6682C74.353 64.6682 74.0555 64.7023 73.6884 64.7705V68.1103L73.6867 68.1086Z" fill="white"/>
<path d="M87.0552 63.917L87.2472 66.7743H87.0552C86.8002 65.9185 86.4348 65.303 85.9622 64.928C85.488 64.5529 84.9203 64.3637 84.2574 64.3637C83.7016 64.3637 83.1985 64.5052 82.7498 64.7882C82.3011 65.0712 81.9475 65.523 81.6909 66.1418C81.4325 66.7607 81.305 67.5313 81.305 68.4536C81.305 69.2139 81.4257 69.872 81.6688 70.4312C81.9118 70.9887 82.2773 71.4166 82.7651 71.7132C83.2529 72.0099 83.8104 72.1599 84.4359 72.1599C84.9798 72.1599 85.4591 72.044 85.8756 71.8104C86.292 71.5768 86.7492 71.1131 87.2472 70.4193L87.4393 70.5437C87.0195 71.2921 86.5282 71.8394 85.969 72.1855C85.4081 72.5316 84.7436 72.7054 83.9736 72.7054C82.5849 72.7054 81.5107 72.1889 80.7492 71.1557C80.1815 70.3869 79.896 69.4833 79.896 68.4416C79.896 67.6029 80.083 66.8323 80.4586 66.1299C80.8325 65.4275 81.3492 64.8836 82.0053 64.4966C82.6631 64.1096 83.3804 63.917 84.1589 63.917C84.7639 63.917 85.3622 64.0653 85.9503 64.3637C86.1237 64.454 86.2478 64.5 86.3209 64.5C86.4331 64.5 86.5282 64.4608 86.6115 64.3824C86.7186 64.2716 86.7951 64.1165 86.841 63.917H87.0568H87.0552Z" fill="white"/>
<path d="M83.9714 72.789C82.5624 72.789 81.4542 72.2554 80.6791 71.2052C80.1029 70.4261 79.8088 69.4953 79.8088 68.44C79.8088 67.591 80.0009 66.7999 80.3816 66.089C80.7624 65.3764 81.2927 64.8155 81.9607 64.4234C82.6286 64.0313 83.3663 63.8318 84.1567 63.8318C84.772 63.8318 85.389 63.9852 85.9873 64.287C86.198 64.3978 86.2864 64.4148 86.3204 64.4148C86.4105 64.4148 86.4853 64.3842 86.5516 64.3211C86.645 64.2239 86.7147 64.0807 86.7555 63.8983L86.7708 63.8318H87.1346L87.3368 66.8596H86.9918L86.9731 66.7982C86.7232 65.9645 86.3646 65.3576 85.9074 64.9945C85.4519 64.6331 84.8944 64.4489 84.2553 64.4489C83.7182 64.4489 83.2269 64.587 82.7935 64.8598C82.3618 65.1309 82.0168 65.5741 81.7669 66.1742C81.5153 66.7795 81.3879 67.5466 81.3879 68.4536C81.3879 69.1986 81.5085 69.8533 81.7448 70.3954C81.9794 70.9342 82.338 71.3535 82.8071 71.64C83.2796 71.9281 83.8269 72.073 84.4337 72.073C84.9606 72.073 85.4298 71.9588 85.8326 71.7337C86.2354 71.507 86.6875 71.0484 87.1771 70.3681L87.2247 70.3017L87.551 70.5131L87.5119 70.583C87.087 71.3399 86.5822 71.9025 86.0128 72.2554C85.4417 72.61 84.755 72.789 83.9731 72.789H83.9714ZM84.1567 64.0023C83.3969 64.0023 82.6881 64.1932 82.0473 64.57C81.4066 64.9468 80.8966 65.4855 80.5312 66.1691C80.1641 66.8562 79.9788 67.6199 79.9788 68.44C79.9788 69.4578 80.261 70.3545 80.8151 71.1029C81.5561 72.1088 82.6184 72.6168 83.9714 72.6168C84.721 72.6168 85.3788 72.4463 85.9227 72.1088C86.4513 71.7815 86.9221 71.2632 87.3232 70.5676L87.2671 70.5318C86.781 71.1967 86.3272 71.6502 85.9159 71.882C85.4893 72.1207 84.9895 72.2435 84.4337 72.2435C83.7946 72.2435 83.2184 72.09 82.7187 71.7849C82.2173 71.4797 81.8366 71.0347 81.5884 70.4636C81.342 69.8976 81.2162 69.2225 81.2162 68.4519C81.2162 67.5228 81.3488 66.7351 81.6088 66.1077C81.8723 65.4735 82.2394 65.0047 82.7017 64.7149C83.1624 64.4251 83.6859 64.2768 84.2553 64.2768C84.9351 64.2768 85.5266 64.4728 86.0128 64.8598C86.487 65.2349 86.8575 65.8503 87.1159 66.6874H87.1533L86.9731 64.0006H86.9034C86.8524 64.183 86.7742 64.3296 86.6705 64.4387C86.5703 64.5359 86.453 64.5819 86.3187 64.5819C86.2286 64.5819 86.0994 64.5359 85.9091 64.4353C85.3363 64.1455 84.7465 63.9989 84.1567 63.9989V64.0023Z" fill="white"/>
<path d="M90.4777 68.0066H94.37V65.6028C94.37 65.1732 94.3428 64.8902 94.2901 64.7538C94.2494 64.6498 94.1627 64.5612 94.0318 64.4878C93.855 64.389 93.6664 64.3395 93.4692 64.3395H93.1734V64.1094H96.7564V64.3395H96.4607C96.2635 64.3395 96.0748 64.3873 95.8981 64.4827C95.7672 64.5492 95.6771 64.6498 95.6295 64.7828C95.5819 64.9175 95.5581 65.1902 95.5581 65.6045V71.0276C95.5581 71.4538 95.5853 71.7334 95.638 71.8698C95.6788 71.9738 95.7638 72.0625 95.8913 72.1358C96.0731 72.2346 96.2618 72.2841 96.459 72.2841H96.7547V72.5142H93.1717V72.2841H93.4675C93.8091 72.2841 94.059 72.1835 94.2154 71.9806C94.3173 71.8476 94.37 71.5305 94.37 71.0259V68.4669H90.4777V71.0259C90.4777 71.4521 90.5049 71.7317 90.5576 71.8681C90.5984 71.9721 90.6851 72.0608 90.8176 72.1341C90.9944 72.2329 91.1814 72.2824 91.3802 72.2824H91.6828V72.5125H88.093V72.2824H88.3888C88.7355 72.2824 88.9854 72.1818 89.1434 71.9789C89.242 71.8459 89.2913 71.5288 89.2913 71.0242V65.6011C89.2913 65.1715 89.2641 64.8885 89.2114 64.7521C89.1706 64.6481 89.0856 64.5594 88.9582 64.4861C88.7763 64.3873 88.5876 64.3378 88.3905 64.3378H88.0947V64.1077H91.6845V64.3378H91.3819C91.1848 64.3378 90.9961 64.3856 90.8193 64.481C90.6919 64.5475 90.6035 64.6481 90.5542 64.7811C90.5049 64.9158 90.4811 65.1885 90.4811 65.6028V68.0066H90.4777Z" fill="white"/>
<path d="M96.8392 72.5974H93.0863V72.1968H93.467C93.7832 72.1968 94.0058 72.1082 94.1469 71.9257C94.2098 71.8456 94.2829 71.624 94.2829 71.0239V68.5502H90.5605V71.0239C90.5605 71.4364 90.586 71.7092 90.6353 71.8354C90.6693 71.9189 90.7441 71.9939 90.858 72.0587C91.0211 72.1508 91.1962 72.1968 91.3781 72.1968H91.7656V72.5974H88.0059V72.1968H88.3866C88.7078 72.1968 88.9322 72.1082 89.0733 71.9257C89.1328 71.8473 89.2041 71.6257 89.2041 71.0239V65.6008C89.2041 65.0825 89.1634 64.8694 89.1294 64.7825C89.0954 64.6989 89.0223 64.6239 88.9118 64.5591C88.7469 64.4688 88.5685 64.4227 88.3866 64.4227H88.0059V64.0221H91.7656V64.4227H91.3781C91.1962 64.4227 91.0194 64.4671 90.8563 64.5557C90.7458 64.612 90.6727 64.6955 90.6302 64.8114C90.5996 64.8967 90.5622 65.103 90.5622 65.6025V67.9211H94.2846V65.6025C94.2846 65.0825 94.2438 64.8711 94.2098 64.7842C94.1758 64.7006 94.101 64.6256 93.9871 64.5608C93.8239 64.4688 93.6489 64.4227 93.467 64.4227H93.0863V64.0221H96.8392V64.4227H96.4585C96.2766 64.4227 96.0998 64.4671 95.9367 64.5557C95.8228 64.6137 95.748 64.6955 95.7089 64.8097C95.6647 64.9342 95.6426 65.2001 95.6426 65.6025V71.0256C95.6426 71.5404 95.6834 71.7501 95.7174 71.8371C95.7514 71.9206 95.8245 71.9973 95.935 72.0604C96.1016 72.1508 96.2783 72.1968 96.4602 72.1968H96.8409V72.5974H96.8392ZM93.2562 72.427H96.6693V72.3673H96.4585C96.2477 72.3673 96.0421 72.3144 95.85 72.2087C95.7038 72.1235 95.6069 72.0195 95.5593 71.8985C95.5016 71.7501 95.4727 71.4637 95.4727 71.0239V65.6008C95.4727 65.1729 95.4982 64.895 95.5491 64.7518C95.6035 64.5966 95.7072 64.4807 95.8602 64.404C96.0472 64.3034 96.2494 64.2522 96.4602 64.2522H96.671V64.1926H93.2579V64.2522H93.4687C93.6795 64.2522 93.8834 64.3051 94.0721 64.4125C94.2217 64.496 94.3203 64.6 94.3696 64.7211C94.4273 64.8694 94.4562 65.1575 94.4562 65.6025V68.0916H90.3939V65.6025C90.3939 65.1746 90.4194 64.8967 90.4738 64.7518C90.5316 64.5966 90.6336 64.4807 90.7798 64.4057C90.9667 64.3051 91.1707 64.254 91.3815 64.254H91.599V64.1943H88.1792V64.254H88.39C88.6008 64.254 88.8064 64.3068 88.9985 64.4125C89.1447 64.4977 89.2415 64.6017 89.2908 64.7228C89.3486 64.8711 89.3775 65.1592 89.3775 65.6042V71.0273C89.3775 71.5626 89.3248 71.8831 89.2126 72.0331C89.0393 72.2582 88.7622 72.3707 88.3917 72.3707H88.1809V72.4304H91.6007V72.3707H91.3832C91.1707 72.3707 90.9684 72.3179 90.7798 72.2104C90.6302 72.1269 90.5316 72.0229 90.4823 71.9019C90.4245 71.7535 90.3956 71.4688 90.3956 71.0273V68.3831H94.4579V71.0273C94.4579 71.5558 94.4018 71.8848 94.2863 72.0348C94.1129 72.2582 93.8392 72.3707 93.4721 72.3707H93.2613V72.4304L93.2562 72.427Z" fill="white"/>
<path d="M102.806 69.6989H99.5628L98.9951 71.0253C98.8557 71.3509 98.7844 71.5947 98.7844 71.7566C98.7844 71.8845 98.8455 71.997 98.9662 72.0942C99.0886 72.1914 99.3504 72.2545 99.7549 72.2834V72.5136H97.1169V72.2834C97.4671 72.2221 97.6931 72.1402 97.7968 72.0413C98.0076 71.8436 98.2404 71.4412 98.4954 70.8326L101.443 63.9161H101.659L104.575 70.9059C104.81 71.4685 105.022 71.8317 105.214 72.0004C105.406 72.1675 105.673 72.2613 106.015 72.2817V72.5119H102.709V72.2817C103.042 72.2647 103.268 72.2101 103.385 72.1147C103.503 72.0192 103.562 71.9033 103.562 71.7669C103.562 71.5845 103.481 71.298 103.316 70.9059L102.809 69.6972L102.806 69.6989ZM102.632 69.2403L101.212 65.8443L99.7532 69.2403H102.632Z" fill="white"/>
<path d="M106.096 72.597H102.62V72.2015L102.702 72.1981C103.093 72.1793 103.258 72.106 103.329 72.0497C103.426 71.9713 103.474 71.8792 103.474 71.7684C103.474 71.5979 103.392 71.3201 103.232 70.9399L102.748 69.784H99.617L99.0714 71.0592C98.9371 71.3729 98.8674 71.6082 98.8674 71.7565C98.8674 71.8588 98.9167 71.9474 99.017 72.0276C99.0901 72.0872 99.2787 72.164 99.758 72.1981L99.8362 72.2032V72.597H97.0283V72.2117L97.098 72.1998C97.511 72.1264 97.6708 72.0395 97.7337 71.9798C97.9343 71.7906 98.1637 71.3934 98.4119 70.8001L101.381 63.8324H101.711L101.733 63.8852L104.65 70.8751C104.878 71.4224 105.085 71.7787 105.267 71.9372C105.444 72.0906 105.695 72.1793 106.016 72.1981L106.096 72.2032V72.5987V72.597ZM102.79 72.4265H105.926V72.3617C105.603 72.331 105.345 72.2304 105.155 72.0651C104.951 71.8878 104.735 71.5195 104.493 70.9399L101.599 64.0012H101.495L98.57 70.8649C98.3082 71.4888 98.0719 71.8946 97.8527 72.1026C97.7439 72.2066 97.5297 72.2884 97.2 72.3532V72.4265H99.668V72.3617C99.2872 72.3293 99.0391 72.2628 98.9116 72.1605C98.7688 72.0463 98.6974 71.9099 98.6974 71.7565C98.6974 71.5826 98.7688 71.332 98.915 70.991L99.5048 69.6135H102.86L103.389 70.8734C103.559 71.2791 103.642 71.5724 103.642 71.7684C103.642 71.9321 103.572 72.0702 103.435 72.181C103.312 72.2799 103.101 72.3396 102.79 72.3617V72.4248V72.4265ZM102.76 69.3254H99.6238L101.211 65.6259L102.76 69.3254ZM99.8821 69.1549H102.505L101.211 66.0623L99.8838 69.1549H99.8821Z" fill="white"/>
<path d="M105.986 64.1094H108.26L113.381 70.4122V65.5653C113.381 65.0487 113.324 64.7265 113.208 64.5987C113.055 64.4248 112.815 64.3378 112.486 64.3378H112.195V64.1077H115.112V64.3378H114.816C114.463 64.3378 114.211 64.4452 114.061 64.66C113.971 64.793 113.925 65.0931 113.925 65.5653V72.6489H113.703L108.179 65.8824V71.0566C108.179 71.5732 108.235 71.8954 108.345 72.0232C108.502 72.1971 108.743 72.2841 109.068 72.2841H109.363V72.5142H106.447V72.2841H106.737C107.096 72.2841 107.349 72.1767 107.497 71.9619C107.587 71.8289 107.633 71.5288 107.633 71.0566V65.2124C107.39 64.9277 107.206 64.7402 107.081 64.6481C106.955 64.5577 106.771 64.4725 106.528 64.3941C106.409 64.3566 106.227 64.3378 105.984 64.3378V64.1077L105.986 64.1094Z" fill="white"/>
<path d="M114.01 72.7338H113.663L113.638 72.7031L108.265 66.1208V71.0563C108.265 71.67 108.345 71.8899 108.411 71.9667C108.549 72.1201 108.771 72.1968 109.071 72.1968H109.453V72.5974H106.366V72.1968H106.742C107.073 72.1968 107.3 72.103 107.432 71.9121C107.486 71.832 107.553 71.6172 107.553 71.0563V65.2445C107.325 64.9785 107.152 64.8029 107.034 64.7177C106.917 64.6324 106.739 64.5506 106.506 64.4756C106.395 64.4415 106.222 64.4244 105.987 64.4244H105.902V64.0238H108.302L108.328 64.0545L113.299 70.1715V65.565C113.299 64.9512 113.218 64.7313 113.148 64.6546C113.012 64.5012 112.791 64.4227 112.489 64.4227H112.113V64.0221H115.2V64.4227H114.819C114.491 64.4227 114.268 64.5165 114.136 64.7074C114.081 64.7876 114.015 65.0024 114.015 65.5633V72.7321L114.01 72.7338ZM113.743 72.5633H113.84V65.565C113.84 65.0723 113.889 64.7603 113.991 64.612C114.156 64.3733 114.433 64.2522 114.816 64.2522H115.026V64.1926H112.28V64.2522H112.485C112.839 64.2522 113.104 64.3494 113.272 64.5404C113.403 64.6853 113.466 65.0211 113.466 65.5633V70.6488L108.219 64.1926H106.071V64.2522C106.281 64.2557 106.441 64.2761 106.555 64.3119C106.807 64.3938 107 64.4824 107.133 64.5779C107.266 64.6733 107.451 64.8626 107.701 65.1558L107.721 65.1797V71.0546C107.721 71.5473 107.672 71.8593 107.57 72.0076C107.405 72.2462 107.126 72.3673 106.74 72.3673H106.535V72.427H109.281V72.3673H109.069C108.72 72.3673 108.455 72.2701 108.284 72.0792C108.154 71.9309 108.095 71.6052 108.095 71.0546V65.6417L113.743 72.5616V72.5633Z" fill="white"/>
<path d="M31.2321 63.8405L31.3341 65.8113H31.0757C31.0264 65.4635 30.9585 65.2163 30.8718 65.068C30.7307 64.8293 30.5454 64.652 30.3126 64.5378C30.0797 64.4236 29.7738 64.3673 29.3947 64.3673H28.0996V83.0285C28.0996 83.5451 28.1607 83.8673 28.2831 83.9951C28.4548 84.169 28.7182 84.2543 29.0769 84.2543H29.3947V84.4844H25.4956V84.2543H25.8202C26.2095 84.2543 26.4848 84.1469 26.648 83.9321C26.7466 83.8008 26.7976 83.499 26.7976 83.0268V64.3673H25.6928C25.2627 64.3673 24.9568 64.3963 24.7766 64.4543C24.5404 64.5327 24.3398 64.6844 24.1732 64.906C24.0067 65.1294 23.9064 65.4311 23.8758 65.8113H23.6174L23.7262 63.8405H31.2321Z" fill="white"/>
<path d="M29.4795 84.5698H25.4104V84.1691H25.82C26.1786 84.1691 26.4353 84.072 26.5798 83.881C26.6393 83.8009 26.7124 83.5878 26.7124 83.0269V64.4527H25.6925C25.2727 64.4527 24.9736 64.4799 24.8036 64.5362C24.586 64.6078 24.3974 64.751 24.2427 64.959C24.0846 65.1687 23.9911 65.4585 23.9622 65.8199L23.9554 65.8984H23.5288L23.6461 63.7571H31.3118L31.4222 65.8984H31.0007L30.9905 65.8251C30.9429 65.4909 30.8766 65.2505 30.7984 65.1124C30.6659 64.8857 30.4942 64.7237 30.2749 64.6163C30.054 64.5089 29.7582 64.4544 29.3945 64.4544H28.1843V83.0303C28.1843 83.6423 28.271 83.8623 28.3441 83.939C28.497 84.0941 28.7435 84.1726 29.0749 84.1726H29.4778V84.5732L29.4795 84.5698ZM25.5804 84.3993H29.3095V84.3396H29.0766C28.6976 84.3396 28.4104 84.2442 28.2234 84.0549C28.0806 83.9066 28.016 83.581 28.016 83.0286V64.2822H29.3962C29.7871 64.2822 30.1084 64.3418 30.3514 64.4612C30.5979 64.5822 30.7984 64.7715 30.9463 65.0255C31.0313 65.1738 31.0993 65.404 31.1503 65.7279H31.2455L31.152 63.9276H23.8076L23.709 65.7279H23.8008C23.8399 65.3699 23.9435 65.0783 24.1084 64.8567C24.2852 64.6214 24.5027 64.4578 24.7526 64.3742C24.943 64.3129 25.2523 64.2822 25.6942 64.2822H26.884V83.0286C26.884 83.523 26.8296 83.835 26.7175 83.985C26.539 84.222 26.2381 84.3413 25.8217 84.3413H25.5821V84.401L25.5804 84.3993Z" fill="white"/>
<path d="M123.706 63.8405L123.808 65.8113H123.549C123.498 65.4635 123.432 65.2163 123.345 65.068C123.204 64.8293 123.019 64.652 122.786 64.5378C122.553 64.4236 122.247 64.3673 121.868 64.3673H120.573V83.0285C120.573 83.5451 120.634 83.8673 120.757 83.9951C120.928 84.169 121.192 84.2543 121.551 84.2543H121.868V84.4844H117.969V84.2543H118.294C118.683 84.2543 118.958 84.1469 119.122 83.9321C119.22 83.8008 119.271 83.499 119.271 83.0268V64.3673H118.166C117.736 64.3673 117.43 64.3963 117.25 64.4543C117.014 64.5327 116.813 64.6844 116.647 64.906C116.48 65.1294 116.38 65.4311 116.349 65.8113H116.091L116.2 63.8405H123.706Z" fill="white"/>
<path d="M121.952 84.5698H117.883V84.1691H118.292C118.651 84.1691 118.908 84.072 119.052 83.881C119.112 83.8009 119.185 83.5878 119.185 83.0269V64.4527H118.165C117.745 64.4527 117.446 64.4799 117.276 64.5362C117.06 64.6078 116.87 64.751 116.715 64.959C116.557 65.1687 116.464 65.4585 116.435 65.8199L116.428 65.8984H116.001L116.12 63.7571H123.786L123.896 65.8984H123.475L123.465 65.8251C123.417 65.4892 123.351 65.2505 123.273 65.1124C123.14 64.8857 122.968 64.7237 122.749 64.6163C122.53 64.5089 122.232 64.4544 121.869 64.4544H120.658V83.0303C120.658 83.6423 120.745 83.8623 120.818 83.939C120.971 84.0941 121.218 84.1726 121.551 84.1726H121.954V84.5732L121.952 84.5698ZM118.053 84.3993H121.782V84.3396H121.549C121.17 84.3396 120.883 84.2442 120.696 84.0549C120.553 83.9066 120.488 83.581 120.488 83.0286V64.2822H121.869C122.26 64.2822 122.581 64.3418 122.824 64.4612C123.07 64.5822 123.271 64.7715 123.419 65.0255C123.504 65.1738 123.572 65.404 123.623 65.7279H123.718L123.626 63.9276H116.282L116.183 65.7279H116.273C116.312 65.3699 116.416 65.0783 116.581 64.8567C116.758 64.6197 116.975 64.4578 117.225 64.3742C117.415 64.3129 117.725 64.2822 118.167 64.2822H119.356V83.0286C119.356 83.523 119.302 83.835 119.19 83.985C119.011 84.222 118.711 84.3413 118.294 84.3413H118.054V84.401L118.053 84.3993Z" fill="white"/>
<path d="M126 64.3301C124.981 64.3301 124.151 63.4981 124.151 62.4752C124.151 61.4523 124.981 60.6204 126 60.6204C127.02 60.6204 127.848 61.4523 127.848 62.4752C127.848 63.4981 127.019 64.3301 126 64.3301ZM126 60.8266C125.093 60.8266 124.355 61.5665 124.355 62.4769C124.355 63.3873 125.093 64.1272 126 64.1272C126.908 64.1272 127.646 63.3873 127.646 62.4769C127.646 61.5665 126.908 60.8266 126 60.8266Z" fill="white"/>
<path d="M127.098 63.1908H126.551L125.858 62.4254C125.807 62.4254 125.764 62.4271 125.732 62.4271C125.718 62.4271 125.705 62.4271 125.689 62.4271C125.674 62.4271 125.659 62.4271 125.642 62.4254V62.901C125.642 63.0033 125.655 63.0681 125.684 63.0937C125.722 63.1295 125.78 63.1465 125.856 63.1465H125.936V63.1908H125.057V63.1465H125.134C125.22 63.1465 125.283 63.1244 125.321 63.0783C125.343 63.0528 125.353 62.9948 125.353 62.901V61.844C125.353 61.7417 125.339 61.6769 125.31 61.6514C125.271 61.6156 125.212 61.5985 125.135 61.5985H125.059V61.5542H125.807C126.024 61.5542 126.186 61.5661 126.288 61.5917C126.391 61.6173 126.478 61.6633 126.551 61.7315C126.623 61.7997 126.658 61.8798 126.658 61.9753C126.658 62.0759 126.617 62.1628 126.536 62.2378C126.454 62.3111 126.327 62.364 126.153 62.3947L126.577 62.8635C126.674 62.9709 126.757 63.0425 126.827 63.0783C126.896 63.1141 126.986 63.1363 127.098 63.1465V63.1908ZM125.642 62.3487C125.661 62.3487 125.678 62.3487 125.693 62.3487C125.706 62.3487 125.718 62.3487 125.727 62.3487C125.922 62.3487 126.07 62.3146 126.169 62.2481C126.267 62.1799 126.318 62.0946 126.318 61.9889C126.318 61.8832 126.278 61.8031 126.198 61.74C126.118 61.6752 126.011 61.6446 125.88 61.6446C125.822 61.6446 125.742 61.6514 125.642 61.6667V62.347V62.3487Z" fill="white"/>
<path d="M127.183 63.2759H126.514L125.82 62.5122C125.784 62.5122 125.755 62.5122 125.732 62.5122H125.727V62.9009C125.727 63.0066 125.742 63.0304 125.744 63.0322C125.764 63.0509 125.803 63.0611 125.857 63.0611H126.022V63.2759H124.974V63.0611H125.135C125.176 63.0611 125.23 63.0543 125.256 63.0236C125.256 63.0236 125.268 62.9981 125.268 62.9009V61.8439C125.268 61.7382 125.252 61.7143 125.251 61.7126C125.223 61.6887 125.172 61.6836 125.135 61.6836H124.974V61.4688H125.806C126.034 61.4688 126.197 61.4825 126.308 61.5097C126.425 61.5387 126.527 61.5933 126.609 61.67C126.699 61.7535 126.743 61.8575 126.743 61.9751C126.743 62.1013 126.692 62.2104 126.592 62.3008C126.522 62.3621 126.43 62.4099 126.313 62.444L126.639 62.8054C126.729 62.9043 126.804 62.9708 126.864 63.0015C126.923 63.0322 127.005 63.0509 127.105 63.0594L127.183 63.0662V63.2742V63.2759ZM126.588 63.1055H126.709C126.65 63.0611 126.585 63.0015 126.514 62.9213L126.043 62.3997C126.017 62.4065 125.992 62.4133 125.965 62.4184L126.59 63.1072L126.588 63.1055ZM125.405 63.1055H125.591C125.569 63.0594 125.558 62.9929 125.558 62.9009V61.6393H125.407C125.429 61.6853 125.439 61.7518 125.439 61.8439V62.9009C125.439 62.9981 125.429 63.0611 125.407 63.1055H125.405ZM126.245 61.67C126.245 61.67 126.25 61.6734 126.252 61.6751C126.354 61.7552 126.405 61.8626 126.405 61.9905C126.405 62.103 126.359 62.2019 126.271 62.2803C126.362 62.253 126.432 62.2172 126.481 62.1746C126.546 62.1167 126.576 62.0519 126.576 61.9769C126.576 61.907 126.549 61.8473 126.495 61.7961C126.434 61.7382 126.359 61.699 126.269 61.6768C126.262 61.6751 126.254 61.6734 126.245 61.6717V61.67ZM125.728 61.7433V62.2667C125.905 62.2667 126.039 62.2377 126.123 62.1797C126.199 62.1286 126.235 62.0689 126.235 61.9922C126.235 61.9155 126.208 61.8575 126.146 61.8098C126.082 61.7586 125.992 61.7331 125.881 61.7331C125.842 61.7331 125.791 61.7365 125.728 61.745V61.7433Z" fill="white"/>
</svg>
