<svg width="148" height="148" viewBox="0 0 148 148" fill="none" xmlns="http://www.w3.org/2000/svg">
<path d="M22.1321 86.7999H21.0955V88.9662H19.4544V89.8774H21.0955V93.9425C21.0955 94.3249 21.0955 94.6625 21.0955 94.9588C21.11 95.2637 21.1868 95.5619 21.321 95.8349C21.4784 96.1692 21.7421 96.4398 22.0695 96.6027C22.4209 96.771 22.8024 96.8643 23.1907 96.8767C23.6183 96.8942 24.0464 96.8578 24.4653 96.7685V95.8349C24.0102 95.924 23.544 95.9391 23.0842 95.8795C22.7367 95.8334 22.4335 95.6166 22.273 95.2997C22.1799 95.1208 22.1295 94.9222 22.1258 94.7199C22.1258 94.5001 22.1258 94.2261 22.1258 93.9011V89.8806H24.4747V88.9694H22.1258L22.1321 86.7999Z" fill="white"/>
<path d="M27.3649 88.9701H26.322V96.7723H27.3649V88.9701Z" fill="white"/>
<path d="M27.3649 86.2969H26.322V87.4884H27.3649V86.2969Z" fill="white"/>
<path fill-rule="evenodd" clip-rule="evenodd" d="M37.4812 89.1456C37.9529 89.3932 38.3218 89.8047 38.521 90.3053C38.6225 90.5499 38.6869 90.8088 38.712 91.0731C38.7398 91.3557 38.7535 91.6396 38.7527 91.9237V96.7758H37.8132V95.4823C37.5794 95.8793 37.2576 96.2153 36.8736 96.4636C36.2794 96.8286 35.5945 97.0122 34.9006 96.9924C34.3979 97.0085 33.899 96.8991 33.4473 96.6738C33.0809 96.4847 32.7763 96.1914 32.5705 95.8296C32.3768 95.4784 32.2764 95.082 32.2792 94.6795C32.2688 94.3013 32.355 93.927 32.5298 93.5931C32.6964 93.293 32.933 93.0392 33.2187 92.8539C33.5301 92.6515 33.8718 92.502 34.2303 92.4111C34.6186 92.3155 35.0509 92.2327 35.5206 92.1563C35.9905 92.0797 36.454 92.0161 36.905 91.9619L37.7224 91.8535C37.7549 91.3056 37.6 90.7629 37.2839 90.318C36.9769 89.9463 36.4425 89.7605 35.6803 89.7605C35.2116 89.7451 34.7487 89.8702 34.3493 90.1205C33.965 90.3931 33.6929 90.8003 33.5851 91.2642L32.5705 90.9457C32.7166 90.2909 33.0932 89.713 33.629 89.3208C34.24 88.912 34.9624 88.7102 35.693 88.7442C36.3124 88.7259 36.9267 88.8639 37.4812 89.1456ZM37.19 95.0841C37.4098 94.7639 37.5545 94.3965 37.6128 94.0105V94.02C37.6754 93.7526 37.71 93.4792 37.7161 93.2045V92.7903C37.475 92.8221 37.2275 92.8539 36.9613 92.8827C36.5479 92.9305 36.1408 92.9877 35.7399 93.0483C35.3751 93.105 35.0135 93.1806 34.6563 93.2745C34.4381 93.3374 34.2278 93.4262 34.0299 93.5389C33.8311 93.6461 33.6604 93.8002 33.5319 93.9881C33.3952 94.1947 33.3262 94.4401 33.3347 94.689C33.3362 94.9193 33.3932 95.1458 33.5007 95.3485C33.6272 95.5735 33.8155 95.7561 34.0425 95.8742C34.3497 96.0277 34.6901 96.1 35.0321 96.0844C35.4725 96.0948 35.9093 96.0033 36.3098 95.8168C36.6589 95.6515 36.9616 95.3996 37.19 95.0841Z" fill="white"/>
<path d="M45.5525 92.8784C45.0186 92.6294 44.4615 92.4351 43.8895 92.2985C43.4187 92.186 42.9554 92.0434 42.5021 91.8717C42.2491 91.7889 42.0185 91.647 41.8288 91.4575C41.7057 91.3089 41.64 91.1197 41.644 90.9255C41.6446 90.5556 41.8409 90.2148 42.1577 90.0333C42.5582 89.7926 43.0214 89.6814 43.4855 89.7148C43.9926 89.7034 44.4914 89.8478 44.9168 90.1289C45.2799 90.3795 45.5232 90.7737 45.587 91.2153L46.6519 91.0211C46.6053 90.5825 46.432 90.1678 46.1538 89.8295C45.8576 89.4744 45.4787 89.2005 45.0514 89.0331C44.5533 88.8331 44.021 88.7357 43.4855 88.7463C42.9662 88.7355 42.4499 88.8298 41.9666 89.0235C41.5627 89.1842 41.2096 89.4541 40.9456 89.804C40.6983 90.1401 40.5682 90.5504 40.5761 90.9701C40.5653 91.2982 40.6514 91.6223 40.8235 91.9003C41.04 92.1942 41.3298 92.4241 41.6628 92.5661C42.1889 92.8079 42.7349 93.002 43.2945 93.146C43.7895 93.2746 44.2775 93.4288 44.7571 93.6079C45.0081 93.6863 45.2332 93.8328 45.4085 94.0316C45.5214 94.2049 45.5774 94.4102 45.5682 94.6178C45.5803 95.0217 45.3905 95.4043 45.0639 95.6342C44.6549 95.9034 44.1724 96.0339 43.6859 96.0068C43.1579 96.0248 42.6361 95.8877 42.1827 95.6118C41.7974 95.3765 41.5185 94.9967 41.406 94.5542L40.3412 94.7358C40.4566 95.4118 40.8436 96.0086 41.4092 96.3828C42.0764 96.8099 42.8543 97.0231 43.6422 96.9946C44.4302 97.0384 45.2104 96.8142 45.8595 96.3574C46.3924 95.9483 46.6943 95.2996 46.6674 94.621C46.6787 94.2633 46.5897 93.9097 46.4106 93.6016C46.1952 93.2851 45.8983 93.0348 45.5525 92.8784Z" fill="white"/>
<path d="M53.1907 92.8784C52.6579 92.6289 52.1018 92.4346 51.5307 92.2986C51.0591 92.1855 50.5947 92.0429 50.1403 91.8717C49.8879 91.7891 49.6583 91.6471 49.47 91.4575C49.3469 91.3089 49.2813 91.1197 49.2852 90.9255C49.2859 90.5566 49.4807 90.2162 49.7957 90.0335C50.1964 89.793 50.6594 89.6819 51.1236 89.7149C51.631 89.7022 52.13 89.8467 52.5548 90.1291C52.9192 90.379 53.1635 90.7732 53.2282 91.2155L54.2931 91.0211C54.2466 90.5825 54.0732 90.1679 53.7951 89.8295C53.4977 89.4744 53.1176 89.2007 52.6895 89.0331C52.1963 88.8352 51.6695 88.7377 51.1393 88.7463C50.6199 88.7354 50.1036 88.8295 49.6204 89.0235C49.216 89.1851 48.8621 89.4547 48.5962 89.8041C48.3506 90.141 48.2207 90.5507 48.2267 90.9701C48.2138 91.2964 48.2966 91.619 48.4647 91.8972C48.6807 92.1904 48.9692 92.4202 49.3009 92.563C49.8282 92.8042 50.3752 92.9982 50.9357 93.1429C51.4306 93.2714 51.9187 93.4257 52.3983 93.6048C52.6484 93.683 52.8726 93.8296 53.0466 94.0285C53.1595 94.2018 53.2155 94.407 53.2062 94.6148C53.2203 95.0189 53.03 95.4024 52.702 95.631C52.2931 95.9007 51.8106 96.0313 51.3241 96.0038C50.7971 96.0213 50.2763 95.8842 49.8239 95.6088C49.4387 95.3734 49.1598 94.9936 49.0472 94.551L47.9792 94.7326C48.0969 95.4088 48.4847 96.0051 49.0504 96.3798C49.7171 96.8081 50.4952 97.0223 51.2834 96.9946C52.0725 97.0385 52.8536 96.8144 53.5039 96.3574C54.0352 95.9474 54.3357 95.299 54.3086 94.621C54.3209 94.2637 54.2329 93.9101 54.055 93.6016C53.8382 93.2838 53.539 93.0335 53.1907 92.8784Z" fill="white"/>
<path d="M57.2454 88.9701H56.2025V96.7723H57.2454V88.9701Z" fill="white"/>
<path d="M57.2454 86.2969H56.2025V87.4884H57.2454V86.2969Z" fill="white"/>
<path d="M61.342 90.1646C62.1831 89.6458 63.238 89.6458 64.0792 90.1646C64.4708 90.4246 64.7704 90.8053 64.9341 91.2509L65.9583 90.9323C65.7602 90.2763 65.3409 89.7123 64.7745 89.3394C63.5581 88.5931 62.0411 88.5699 60.8033 89.2788C60.2628 89.6281 59.8348 90.131 59.5725 90.7252C59.2774 91.4033 59.1279 92.1374 59.134 92.8789C59.1293 93.6131 59.2755 94.3401 59.5631 95.0135C59.8202 95.6096 60.2438 96.1159 60.7813 96.4694C61.9988 97.1801 63.4969 97.1739 64.7087 96.4534C65.2767 96.0653 65.7139 95.5093 65.9614 94.8605L64.9091 94.5419C64.7463 94.9765 64.4553 95.3493 64.076 95.6092C63.677 95.8604 63.2141 95.9867 62.745 95.9724C62.0257 96.0182 61.3302 95.7012 60.8848 95.1249C60.444 94.4618 60.2244 93.6723 60.2584 92.8725C60.2521 92.3235 60.3455 91.7781 60.5339 91.2637C60.6888 90.8231 60.9704 90.4402 61.342 90.1646Z" fill="white"/>
<path d="M73.0092 93.1308C73.0137 93.5298 72.9642 93.9276 72.862 94.3128C72.7746 94.6355 72.6257 94.9376 72.4235 95.2016C72.2339 95.4414 71.9913 95.6324 71.7157 95.7592C71.4078 95.8958 71.0746 95.9632 70.7386 95.9568C70.3832 95.9672 70.0307 95.8895 69.7113 95.7306C69.432 95.5814 69.1948 95.3621 69.0224 95.0934C68.8365 94.802 68.7059 94.4778 68.6371 94.1376C68.5528 93.7463 68.5118 93.3467 68.515 92.9461V88.9701H67.4658V93.2615C67.4657 93.6163 67.4982 93.9705 67.5629 94.3192C67.6246 94.666 67.7299 95.0033 67.8761 95.3228C68.0212 95.6343 68.2171 95.9187 68.4555 96.1638C68.7046 96.4176 69.0019 96.6171 69.3292 96.75C69.7125 96.9012 70.121 96.9746 70.5319 96.9667C71.113 96.9783 71.6868 96.8332 72.1949 96.5462C72.5606 96.3346 72.8735 96.0402 73.1094 95.686V96.7723H74.049V88.9701H73.003L73.0092 93.1308Z" fill="white"/>
<path d="M79.2598 88.9092C78.9851 88.9252 78.7141 88.9811 78.4549 89.0749C78.1993 89.1634 77.9631 89.3019 77.7596 89.4827C77.5882 89.62 77.4372 89.7821 77.3118 89.9638C77.2583 90.0428 77.2093 90.1246 77.1646 90.209V88.9697H76.2251V96.7719H77.2773V92.8788C77.2782 92.5656 77.299 92.2526 77.34 91.9422C77.3815 91.6324 77.4681 91.3307 77.5968 91.047C77.727 90.7611 77.9238 90.5118 78.1699 90.3206C78.4304 90.0975 78.7494 89.9568 79.0875 89.916C79.3928 89.8756 79.7029 89.8929 80.002 89.9669V88.9697C79.7595 88.9091 79.5088 88.8887 79.2598 88.9092Z" fill="white"/>
<path fill-rule="evenodd" clip-rule="evenodd" d="M87.0609 90.3142C87.1608 90.5556 87.2232 90.8114 87.2457 91.0724C87.2715 91.3552 87.283 91.639 87.2802 91.923V96.7782H86.3406V95.4848C86.1065 95.8816 85.7848 96.2175 85.4011 96.466C84.8071 96.8318 84.1219 97.0154 83.4279 96.9949C82.9253 97.0107 82.4264 96.9013 81.9748 96.6763C81.6144 96.486 81.3146 96.1954 81.1104 95.8384C80.9167 95.4873 80.8164 95.091 80.8191 94.6883C80.8081 94.3098 80.8958 93.9351 81.0728 93.6019C81.2394 93.3019 81.4761 93.0481 81.7618 92.8628C82.0729 92.6598 82.4146 92.5102 82.7733 92.4199C83.1618 92.3244 83.5877 92.2415 84.0606 92.1651C84.5335 92.0887 84.9938 92.0249 85.448 91.9707L86.2654 91.8625C86.2965 91.3147 86.1416 90.7725 85.8269 90.3268C85.5201 89.9552 84.9845 89.7694 84.2203 89.7694C83.7516 89.7547 83.289 89.8798 82.8893 90.1294C82.5057 90.4021 82.2346 90.8094 82.1283 91.2731L81.1104 90.9545C81.258 90.3002 81.6341 89.7228 82.169 89.3298C82.7809 88.9204 83.5044 88.7185 84.236 88.753C84.8546 88.7337 85.4682 88.8717 86.0211 89.1544C86.4944 89.4 86.864 89.8122 87.0609 90.3142ZM85.733 95.0833C85.9525 94.7668 86.0962 94.4024 86.1526 94.0193C86.2138 93.7516 86.2485 93.4783 86.2561 93.2037V92.7895C86.0148 92.8213 85.7675 92.8533 85.5012 92.8819C85.0879 92.9297 84.6806 92.9871 84.2798 93.0475C83.9161 93.1043 83.5555 93.1798 83.1993 93.2737C82.981 93.3361 82.7706 93.4249 82.5729 93.5383C82.3738 93.6463 82.2022 93.8001 82.0719 93.9875C81.9362 94.1945 81.8683 94.4397 81.8777 94.6883C81.8778 94.9188 81.9348 95.1457 82.0437 95.3478C82.169 95.5728 82.3562 95.7554 82.5824 95.8735C82.8908 96.0269 83.2322 96.0993 83.5752 96.0837C84.0155 96.0934 84.4522 96.0019 84.853 95.8161C85.2016 95.6499 85.5039 95.3981 85.733 95.0833Z" fill="white"/>
<path d="M35.4875 71.7625C35.5114 70.8546 35.2945 69.9569 34.8597 69.1635C34.3702 68.375 33.6777 67.738 32.8573 67.3214C31.6883 66.7108 30.4496 66.2496 29.1693 65.9483C27.6691 65.561 26.5412 65.2342 25.7858 64.9682C25.2321 64.8138 24.7173 64.5406 24.2761 64.1668C24.0318 63.9104 23.8975 63.566 23.9026 63.2089C23.8972 62.5498 24.2631 61.9456 24.8442 61.654C25.5962 61.2568 26.4472 61.0957 27.2893 61.1911C28.1986 61.2011 29.0845 61.4856 29.8347 62.0084C30.464 62.4793 30.8695 63.1978 30.9521 63.988L35.3463 63.1898C35.1973 62.0597 34.7382 60.9951 34.0217 60.1183C33.263 59.2144 32.2909 58.5212 31.1969 58.1036C29.9229 57.6101 28.5676 57.3695 27.2045 57.3948C25.8367 57.3636 24.4766 57.6134 23.2058 58.1292C22.1483 58.5613 21.2322 59.2884 20.5631 60.2268C19.9266 61.1637 19.5971 62.2811 19.6215 63.4197C19.5958 64.2984 19.8133 65.1669 20.2492 65.926C20.7623 66.7016 21.4729 67.3206 22.305 67.7173C23.5386 68.3234 24.8315 68.7953 26.1625 69.1253C27.6147 69.5105 28.6923 69.8298 29.3953 70.0831C30.0953 70.3386 30.5535 70.6003 30.7607 70.8749C30.9817 71.1884 31.0923 71.5687 31.0745 71.9542C31.0959 72.6365 30.7756 73.2832 30.2239 73.6718C29.659 74.0975 28.8586 74.3104 27.8228 74.3104C26.7849 74.3521 25.7604 74.0606 24.8945 73.4771C24.1292 72.9331 23.5936 72.1157 23.3942 71.1878L19 71.8775C19.2462 73.7241 20.2279 75.3867 21.715 76.4751C23.2027 77.5628 25.1372 78.1077 27.5184 78.1099C30.0084 78.1099 31.9586 77.5468 33.3689 76.4208C34.7792 75.2948 35.4855 73.7421 35.4875 71.7625Z" fill="white"/>
<path fill-rule="evenodd" clip-rule="evenodd" d="M50.891 58.2446C52.1616 58.7856 53.1941 59.7803 53.7944 61.0415C54.1239 61.7031 54.3313 62.4206 54.4064 63.1583C54.4754 63.8799 54.5131 64.6653 54.5131 65.5114V77.5516H50.7467V74.9079C50.0961 75.8015 49.2725 76.5502 48.3268 77.1077C47.1633 77.7677 45.7143 78.0976 43.9796 78.0976C42.7521 78.1363 41.535 77.8574 40.4424 77.2866C39.5222 76.7986 38.7596 76.0515 38.2453 75.1346C37.7487 74.2307 37.4933 73.2103 37.5045 72.1749C37.4909 71.3005 37.6488 70.4321 37.9691 69.6206C38.2809 68.8585 38.7711 68.1854 39.3972 67.6602C40.143 67.0524 40.995 66.5931 41.9081 66.3064C42.802 66.0209 43.7117 65.7896 44.6325 65.6137C45.6745 65.4071 46.8055 65.2166 48.0255 65.042C48.763 64.9367 49.5226 64.8249 50.2978 64.7068C50.2194 63.6819 49.9338 62.8965 49.4284 62.3633C48.8195 61.7247 47.7952 61.4055 46.3556 61.4055C45.4825 61.4085 44.6223 61.6208 43.8447 62.0249C43.0134 62.4635 42.3984 63.2336 42.1467 64.1513L38.2202 62.8965C38.659 61.2904 39.6178 59.8819 40.9415 58.8991C42.2827 57.8944 44.0895 57.3921 46.362 57.3921C47.913 57.3603 49.454 57.6504 50.891 58.2446ZM48.9984 72.7975C49.3604 72.3765 49.6415 71.8903 49.8271 71.3639C50.0548 70.7523 50.1769 70.1052 50.1881 69.4513C50.1915 69.3571 50.195 69.2647 50.1985 69.1743C50.2111 68.8541 50.2226 68.5605 50.2226 68.3115L48.2137 68.6309C47.2847 68.7873 46.4875 68.9373 45.8189 69.0746C45.2217 69.1959 44.6318 69.3514 44.0518 69.5408C43.6077 69.6968 43.1856 69.9115 42.7964 70.1794C42.476 70.3961 42.2053 70.6803 42.0023 71.0127C41.8121 71.3505 41.7167 71.7347 41.7261 72.1237C41.7174 72.5758 41.8408 73.0204 42.0808 73.4009C42.3411 73.7884 42.7034 74.0937 43.1259 74.2821C43.6656 74.5134 44.2482 74.6224 44.8335 74.6014C45.6994 74.6281 46.5594 74.4477 47.3444 74.0745C47.9774 73.7713 48.541 73.3361 48.9984 72.7975Z" fill="white"/>
<path d="M69.2059 62.0248V57.9348C68.6219 57.839 68.0289 57.8122 67.4388 57.855C66.8351 57.8957 66.2384 58.0115 65.6624 58.1998C65.1058 58.3801 64.5773 58.6403 64.0929 58.9725C63.5356 59.3215 63.0479 59.7743 62.6554 60.3071C62.4746 60.5533 62.31 60.8114 62.1627 61.0797V57.9348H58.346V77.5579H62.668V67.5835C62.663 66.875 62.7539 66.1692 62.9379 65.4859C63.1064 64.8598 63.3874 64.2709 63.7666 63.7489C64.1561 63.2284 64.6533 62.8011 65.2229 62.4974C65.8342 62.1278 66.5223 61.9091 67.2317 61.8588C67.8942 61.792 68.5631 61.8482 69.2059 62.0248Z" fill="white"/>
<path fill-rule="evenodd" clip-rule="evenodd" d="M76.7423 78.12C75.5148 78.1587 74.2976 77.8797 73.205 77.309C72.2772 76.8169 71.5096 76.0616 70.9954 75.1347C70.4988 74.2307 70.2435 73.2104 70.2547 72.1749C70.241 71.3005 70.3989 70.4321 70.7193 69.6206C71.0309 68.8585 71.5212 68.1854 72.1474 67.6603C72.893 67.0521 73.7449 66.5928 74.6583 66.3064C75.5509 66.0207 76.4596 65.7892 77.3794 65.6137C78.4237 65.4071 79.5547 65.2166 80.7724 65.0422C81.51 64.9367 82.2695 64.825 83.0448 64.7068C82.9695 63.682 82.6807 62.8965 82.1754 62.3633C81.5686 61.7248 80.5443 61.4055 79.1027 61.4055C78.2295 61.4086 77.3693 61.6208 76.5917 62.0249C75.7603 62.4635 75.1453 63.2337 74.8937 64.1513L70.9672 62.8965C71.4061 61.2904 72.3648 59.882 73.6884 58.8991C75.0296 57.8944 76.8365 57.3921 79.109 57.3921C80.6598 57.3601 82.201 57.6502 83.6381 58.2446C84.9086 58.7857 85.9411 59.7803 86.5413 61.0415C86.8775 61.7015 87.0904 62.4193 87.1691 63.1583C87.2381 63.8799 87.2758 64.6654 87.2758 65.5114V77.5739H83.5094V74.9304C82.8588 75.8239 82.0352 76.5727 81.0895 77.1302C79.926 77.79 78.477 78.12 76.7423 78.12ZM75.5685 70.1985C75.2482 70.4153 74.9774 70.6995 74.7743 71.0319L74.7525 71.0159C74.5578 71.3589 74.461 71.7503 74.473 72.1461C74.4643 72.5983 74.5878 73.0427 74.8277 73.4233C75.0882 73.8108 75.4503 74.1162 75.873 74.3046C76.4126 74.5357 76.9952 74.6447 77.5804 74.6238C78.4463 74.6506 79.3065 74.4702 80.0914 74.097C80.7245 73.7936 81.288 73.3585 81.7454 72.8198C82.1073 72.3989 82.3884 71.9126 82.574 71.3863C82.8108 70.7753 82.9414 70.1271 82.9601 69.4706C82.9635 69.3764 82.9672 69.2839 82.9707 69.1936C82.9831 68.8734 82.9946 68.5798 82.9946 68.3307L80.9858 68.65C80.0567 68.8065 79.2596 68.9565 78.5911 69.0939C77.9938 69.215 77.4039 69.3707 76.824 69.5599C76.3797 69.716 75.9577 69.9307 75.5685 70.1985Z" fill="white"/>
<path fill-rule="evenodd" clip-rule="evenodd" d="M110.441 80.1748C109.992 80.1715 109.544 80.121 109.105 80.0241C107.206 79.6283 104.17 77.8253 101.662 74.6589C99.521 71.9671 97.0506 67.3495 97.4296 60.6463C97.526 58.8998 98.0045 57.0748 99.2942 56.8267C100.093 56.6727 100.848 57.2633 101.6 57.8884L101.715 57.9858C101.755 58.0198 101.81 58.0304 101.86 58.0138C101.91 57.9972 101.948 57.9557 101.96 57.9041C102.445 56.0194 103.657 54.4111 105.5 53.23C109.21 50.8522 114.863 50.5161 118.182 51.5621C118.816 51.7372 119.316 52.2297 119.506 52.8657C119.615 53.2672 119.506 53.6971 119.22 53.9965C118.66 54.4759 118.048 54.89 117.396 55.231L117.357 55.2542C114.866 56.7426 110.707 59.2283 110.419 63.778V64.444C110.494 66.9569 111.662 68.7223 112.815 70.4467C112.869 70.5293 112.924 70.6113 112.979 70.6931C113.077 70.8384 113.174 70.9824 113.26 71.1252L113.279 71.1555C113.37 71.2976 113.466 71.4485 113.57 71.5776L113.578 71.5888C114.45 72.8809 115.532 74.4841 114.59 76.9898C113.791 79.1037 112.405 80.1717 110.457 80.1717L110.441 80.1748ZM123.03 55.3535C123.423 55.2951 123.82 55.2647 124.217 55.2624V55.2655C126.221 55.2655 127.607 56.1105 128.303 57.4957C129.767 60.4076 129.037 69.2939 125.031 75.5762C121.417 81.246 115.904 82.9548 113.648 82.9548C113.499 82.9551 113.351 82.9446 113.204 82.9234C112.635 82.8355 112.436 82.5496 112.371 82.3234C112.206 81.7611 112.647 81.5129 113.042 81.381C115.033 80.6642 116.479 78.9094 116.818 76.8013C117.29 74.1125 116.445 72.278 114.984 70.1389C114.92 70.0448 114.832 69.9261 114.726 69.7845C113.919 68.7018 112.116 66.2848 112.542 63.3571C113.166 59.0757 119.671 55.8466 123.03 55.3535ZM126.964 58.1836C126.501 57.2633 125.581 56.7953 124.233 56.7953L124.217 56.789C123.892 56.7904 123.568 56.8156 123.248 56.8644C121.899 57.0623 119.668 57.8381 117.592 59.2108C115.516 60.5835 114.254 62.1321 114.046 63.5707C113.71 65.8638 115.214 67.8835 115.938 68.8509C116.069 69.0049 116.165 69.1368 116.249 69.2562C117.896 71.6686 118.881 73.9177 118.328 77.0588C118.127 78.2553 117.644 79.3853 116.92 80.354C116.886 80.3979 116.886 80.4599 116.919 80.5044C116.953 80.5488 117.012 80.5644 117.063 80.5423C117.408 80.3915 117.766 80.2189 118.132 80.0209C120.427 78.7751 122.368 76.9562 123.77 74.7375C125.469 72.0675 126.697 68.6217 127.231 65.0345C127.732 61.664 127.458 59.1668 126.964 58.1836ZM99.3905 58.303C99.5094 58.197 99.6818 58.1793 99.8194 58.259L99.835 58.2559C100.146 58.4748 100.442 58.7151 100.721 58.9752C101.414 59.5563 101.96 60.0149 102.563 59.7762C102.9 59.64 103.128 59.319 103.148 58.9532C103.406 57.0905 104.443 55.5639 106.23 54.4206C109.562 52.2751 114.813 51.961 117.772 52.9034H117.819C117.903 52.934 117.962 53.0101 117.973 53.0999C117.984 53.1897 117.943 53.2777 117.868 53.3274C117.579 53.5234 117.187 53.757 116.754 54.0143L116.7 54.0468C113.965 55.6707 109.388 58.391 109.052 63.6964V64.4849C109.139 67.3768 110.487 69.415 111.677 71.2145L111.678 71.2163C111.827 71.4393 111.973 71.6623 112.113 71.8822C112.182 72.0027 112.259 72.1165 112.339 72.2335C112.367 72.2751 112.395 72.3169 112.424 72.3597L112.425 72.3618C113.226 73.5452 113.983 74.6633 113.294 76.4997C112.56 78.4473 111.392 79.0943 109.381 78.6733C107.079 78.1896 104.329 75.8055 102.728 73.792C100.736 71.2917 98.4396 66.9914 98.7939 60.7248C98.8809 59.148 99.1294 58.5449 99.3905 58.303Z" fill="white"/>
</svg>
