<svg width="148" height="148" viewBox="0 0 148 148" fill="none" xmlns="http://www.w3.org/2000/svg">
<path d="M70.2177 41.5H78.5533C79.3426 41.7669 81.1213 41.6504 81.9138 41.783C83.0219 41.9685 84.049 42.0885 85.1408 42.245C91.2796 43.122 97.4419 44.9131 102.967 47.7515C107.921 50.2967 113.305 54.4895 115.048 59.991C118.843 71.9766 104.787 80.1439 95.3618 83.0867C86.6363 85.7631 77.4809 86.7554 68.3844 86.0108C67.347 85.9232 66.3086 85.7187 65.2632 85.6087C58.3037 84.872 51.3937 82.9075 45.1559 79.7163C40.5663 77.3681 34.7039 72.6931 33.3367 67.5083C29.6119 53.3828 47.4525 45.6472 58.3375 43.2592C61.1959 42.6321 63.9475 42.1644 66.8541 41.785C67.8088 41.6575 69.3477 41.7945 70.2177 41.5ZM77.4754 83.6641C79.6531 83.6349 82.7839 83.3846 84.9415 83.0256C93.3324 81.6294 102.236 78.8574 108.428 72.7453C110.801 70.3078 112.569 67.2312 112.553 63.7614C112.537 60.2833 110.636 56.9263 108.138 54.5864C100.87 47.777 90.2132 45.0071 80.5063 44.1888C78.1749 43.9922 76.0344 43.7659 73.6802 43.8883C72.9312 43.9354 71.4872 43.809 70.8344 43.9376C67.3766 44.3061 63.9165 44.4782 60.5413 45.2997C59.6573 45.4817 58.7559 45.6183 57.8833 45.8523C51.0123 47.6943 43.5632 50.5483 38.9055 56.1611C33.6104 62.542 35.8397 69.856 41.9304 74.5783C47.2009 78.7661 53.8179 81.1399 60.3704 82.392C61.5577 82.6188 62.9082 82.9713 64.1105 83.0913C68.5044 83.5299 73.0656 83.9803 77.4754 83.6641Z" fill="white"/>
<path d="M62.7325 45.7658C63.0567 45.9085 63.2132 46.8573 63.3448 47.2452C64.2223 49.8323 64.5285 53.2315 66.4687 55.2852C67.0505 55.7287 68.1874 56.1756 68.8827 56.2945C71.345 56.7158 73.8848 56.9459 76.3486 57.3229C78.4909 57.6507 80.6637 57.6781 82.808 58.0235C83.5278 58.1395 84.207 58.2518 84.9224 58.3738C86.1977 58.4872 87.8925 58.6506 89.1646 58.4729C91.1691 58.148 93.3128 57.8474 95.3231 57.6059C97.1144 57.3907 97.1499 53.3457 97.8837 53.3133C98.4042 53.6538 98.6581 55.634 98.9291 56.2309C99.0955 56.5975 99.4795 57.0539 99.7353 57.3743C101.311 57.9334 105.092 58.0793 106.852 58.6954C106.921 58.7194 106.913 58.8053 106.918 58.8719C106.245 59.5348 101.133 59.5993 99.941 60.2716C98.5178 61.0741 98.5661 64.7125 97.8996 65.0926C97.7764 65.0478 97.6564 65.0107 97.6088 64.8745C97.1112 63.4423 97.0871 61.684 96.0778 60.4719C95.7052 60.1377 94.9574 59.9622 94.4852 59.9028C92.4476 59.6468 90.422 59.3732 88.3895 59.103C87.8011 59.0247 86.9486 59.1354 86.3411 59.1349C85.6435 59.1344 84.8399 59.3687 84.1423 59.4435C82.8937 59.5664 81.5842 59.763 80.3327 59.7931C78.3487 60.0557 76.309 60.255 74.3246 60.5822C71.4201 61.0612 69.2443 60.7985 66.6015 62.2634C64.5053 63.4252 63.5278 73.6188 62.7454 73.8602C62.1108 73.4276 61.4616 68.0081 60.9993 67.0205C60.9748 66.9681 60.5569 65.3361 60.5267 65.2032C59.5112 60.7355 55.2356 61.0958 51.626 60.5321C51.0244 60.4379 49.379 60.2073 48.7989 60.1029C47.4647 59.8629 39.7053 59.4258 39.1212 58.8627L39.1356 58.7529C39.9816 58.1507 48.2321 57.6769 49.7655 57.3877C51.7051 57.0219 54.1145 56.7843 56.0917 56.4183C59.153 55.8516 60.0548 54.5323 60.8726 51.6644C61.3194 50.2925 62.0842 46.7104 62.7325 45.7658Z" fill="white"/>
<path d="M73.174 69.7767C73.9481 70.0812 74.0255 71.9604 74.4016 72.7088C74.6174 73.1382 74.8586 73.492 75.1106 73.8918C75.3272 73.9853 75.6866 74.1066 75.9122 74.143C79.3226 74.6934 82.6792 75.5801 86.1329 74.6981C87.0698 74.4588 89.0585 74.2773 89.7917 73.8089C90.4785 72.7994 90.5598 71.6806 91.065 70.5923C91.1329 70.4463 91.1977 70.3358 91.3399 70.2901C91.7379 70.7886 92.1949 72.831 92.7668 73.8228C93.7272 74.3176 97.3867 74.7282 98.6651 74.9483C99.1951 75.0396 99.8451 75.0227 100.52 75.1749C100.526 75.3049 100.514 75.3856 100.43 75.4931C100.067 75.9595 95.1218 76.2645 94.1843 76.422C91.6357 76.8502 92.5275 78.8384 91.4834 80.2394C91.3964 80.3559 91.3615 80.3927 91.2142 80.4123C91.0181 80.2277 90.8099 79.4173 90.7235 79.1267C89.6717 75.8222 89.1804 76.6268 86.079 76.0628C82.6284 75.4354 79.1438 76.0379 75.7521 76.7035C73.9712 77.053 74.0727 81.267 73.3157 81.7878C72.7015 81.6806 72.601 77.7598 71.1403 76.8872C69.5557 75.9407 63.9492 76.1762 63.283 75.5765C63.2099 75.5107 63.2248 75.4683 63.2185 75.3753C63.3261 75.2183 63.6279 75.074 63.8093 75.0634C66.099 74.9292 68.358 74.5374 70.6159 74.1482C72.4315 73.8353 72.3414 71.1014 73.174 69.7767Z" fill="white"/>
<path d="M85.5661 61.469C86.0123 61.5453 86.1132 62.0814 86.1996 62.4433C86.9917 65.7699 87.5034 65.7884 90.7407 66.1514C92.4463 66.3428 94.7042 67.1279 96.5932 66.6596C97.7853 66.3264 98.985 66.1675 100.194 65.9276C101.871 65.5951 101.831 63.4067 102.621 62.083C103.049 63.0384 103.505 64.4515 103.946 65.3245C104.284 65.9943 106.553 66.1284 107.329 66.2545C108.112 66.3895 108.894 66.5323 109.674 66.6827C109.923 66.7319 110.315 66.7772 110.461 66.9954C110.213 67.515 105.298 67.9314 104.426 68.3136C103.262 68.8234 103.388 72.3822 102.508 72.2495C102.325 72.0463 101.786 70.158 101.684 69.7987C101.52 69.2229 101.419 68.9638 101.102 68.4694C100.468 68.0389 95.6144 67.0701 94.6788 67.2776C92.7592 67.7034 89.0617 67.7145 87.3161 68.7919C86.6236 69.2193 86.2491 73.3108 85.606 73.3541C85.0049 72.6691 84.845 69.4602 83.9277 68.6717C83.227 68.0695 80.9582 67.9495 79.985 67.8368C78.9161 67.7128 77.8521 67.5481 76.7957 67.343C76.5283 67.2934 75.9578 67.2306 75.7933 67.0629C76.0698 66.3651 82.1942 66.1499 83.3241 65.6985C85.0392 65.0131 84.7713 62.4028 85.5661 61.469Z" fill="white"/>
<path d="M56.5461 106.5C56.3938 105.332 56.4177 92.5485 56.6215 92.0807C57.1271 91.9557 61.3397 92.0146 62.1958 92.0148L66.9203 92.0133C68.3407 92.0137 70.1233 91.8579 71.3707 92.6153C72.1587 93.0885 72.7227 93.8595 72.9349 94.7539C73.2842 96.2313 73.055 97.6653 71.9097 98.7315C72.3939 99.1594 72.9027 99.5414 73.1038 100.2C73.5567 101.683 73.5299 103.854 72.5197 105.107C71.8992 105.877 71.0011 106.099 70.1844 106.5H56.5461ZM68.5528 103.257C68.8316 103.077 68.965 102.999 69.1967 102.752C69.4167 102.489 69.5307 102.3 69.6335 101.967C69.4786 101.503 69.284 100.947 68.8144 100.713C68.0392 100.328 61.7872 100.635 60.368 100.556C60.399 101.316 60.4711 102.556 60.348 103.269C62.9885 103.196 65.994 103.379 68.5528 103.257ZM60.348 97.4852C62.9933 97.4136 65.7023 97.5723 68.3516 97.4584C68.5639 97.4493 68.7705 97.3407 68.951 97.2343C69.1843 96.8223 69.3098 96.2784 69.1712 95.8107C69.1244 95.6529 69.0341 95.4975 68.8821 95.4225C67.9277 94.9504 61.9125 95.3239 60.3475 95.2081C60.4325 96.1741 60.4303 96.5535 60.348 97.4852Z" fill="white"/>
<path d="M94.1767 106.5C94.0338 105.273 94.0427 92.9026 94.2731 92.0941C94.6508 91.9269 105.975 92.0382 107.193 92.0372C107.57 92.0369 108.268 92.2327 108.654 92.3732C109.563 92.7041 110.071 93.1844 110.467 94.0803C110.973 95.2251 111.017 96.9373 110.59 98.1145C110.407 98.6186 109.952 99.2093 109.512 99.5264C109.902 99.9438 110.324 100.368 110.584 100.906C111.278 102.343 111.024 104.459 111.079 106.029C111.082 106.125 111.058 106.417 111.041 106.5H107.269C107.216 105.403 107.337 102.719 106.777 101.707C106.595 101.508 106.079 101.368 105.853 101.354C103.23 101.195 100.495 101.449 97.8824 101.315C97.9872 102.484 97.951 105.272 97.9078 106.5H94.1767ZM97.8526 97.8537L103.14 97.8517C103.846 97.8521 106.254 97.9519 106.749 97.5598C106.989 97.0257 107.149 96.4612 106.94 95.8814C106.862 95.6672 106.715 95.484 106.503 95.3921C105.503 94.9583 99.482 95.3246 97.8786 95.2128C97.9288 95.8511 97.9872 97.236 97.8526 97.8537Z" fill="white"/>
<path d="M18.5215 94.6485C19.2448 93.3971 19.6217 92.528 21.432 92.199C25.0352 91.5899 28.8953 91.7046 32.5276 92.0483C32.99 92.092 33.8168 92.3906 34.2188 92.6255C35.8057 93.5528 35.4216 95.2174 35.8129 96.605C34.5634 96.6095 33.1406 96.6454 31.9032 96.6045C31.8673 96.2082 31.8766 95.6333 31.5403 95.3574C31.0199 94.9304 23.777 95.0962 22.8106 95.2626C22.6411 95.2918 22.4147 95.3226 22.3056 95.4682C22.1217 95.7132 22.1478 96.155 22.1997 96.4401C22.2349 96.6334 22.3203 96.782 22.4878 96.8936C23.0092 97.241 24.0768 97.1992 24.7011 97.2238C26.4018 97.2909 28.1045 97.3422 29.8039 97.4386C32.4881 97.5909 35.186 97.378 36.014 100.632C36.3423 101.973 36.1331 103.388 35.4309 104.576C34.8204 105.588 33.9026 106.026 32.7942 106.345C32.5886 106.404 32.3317 106.428 32.1314 106.5H22.1664C20.9579 106.082 19.5271 105.863 18.9076 104.551C18.7428 104.202 18.7196 103.79 18.5215 103.451V101.268C19.7699 101.32 21.0202 101.31 22.2676 101.237C22.2705 101.835 22.2655 102.083 22.3428 102.688C23.5025 103.066 30.9427 103.192 31.8535 102.727C32.0572 102.625 32.2111 102.445 32.2803 102.228C32.4133 101.814 32.2008 101.066 31.7552 100.929C31.2006 100.758 30.5402 100.809 29.9621 100.765C28.1443 100.629 26.3202 100.58 24.5009 100.471C23.4227 100.405 22.1523 100.425 21.1319 100.123C20.4478 99.9201 19.407 99.4382 19.0363 98.8179C18.8607 98.524 18.6949 98.1139 18.5215 97.7913V94.6485Z" fill="white"/>
<path d="M81.1216 92.0245C82.4157 92.0073 83.9576 91.9628 85.2334 92.0365C86.1139 92.9162 88.7228 98.1807 89.5327 99.6424L92.2844 104.674C92.4603 104.999 93.1915 106.278 93.2569 106.5H88.745C88.2499 105.61 87.9039 104.781 87.3536 103.841C86.4363 103.922 85.1478 103.879 84.1848 103.877L78.9598 103.875C78.297 104.816 78.0814 105.629 77.5328 106.5H73.1668C73.4104 105.91 73.9711 104.922 74.2924 104.329L76.5854 100.152C77.5423 98.3551 78.5122 96.5651 79.495 94.782C79.8962 94.0489 80.6315 92.5849 81.1216 92.0245ZM83.1882 100.73C83.8922 100.729 85.269 100.696 85.898 100.792C85.2728 99.9855 83.5837 96.0673 83.1482 95.7324C82.7706 96.6972 81.8512 98.1489 81.37 99.1561C81.2062 99.499 80.6859 100.539 80.5214 100.804C81.2846 100.691 82.3859 100.723 83.1882 100.73Z" fill="white"/>
<path d="M40.8865 106.5C39.417 105.943 38.4601 105.562 37.7768 104.043C37.5679 103.578 37.4997 103.156 37.4559 102.651C37.3574 101.517 37.2661 92.7653 37.5088 92.1584C37.5223 92.1247 37.5264 92.1177 37.5411 92.0885C37.9367 91.9495 40.8009 92.0071 41.3742 92.0329C41.29 93.9965 41.3233 95.9689 41.3226 97.934C41.3221 99.1695 41.2414 100.472 41.3709 101.7C41.397 101.948 41.4295 102.271 41.5978 102.469C42.0466 102.995 43.8581 102.906 44.5556 102.918C45.4792 102.935 49.8658 103.078 50.3351 102.572C50.5163 102.376 50.5897 102.027 50.6198 101.772C50.7176 100.945 50.638 100.05 50.6345 99.2138L50.6279 94.2765C50.628 93.8002 50.5873 92.475 50.7521 92.16C50.883 91.9097 54.1812 92.0153 54.5892 92.0174L54.5929 98.9672C54.5939 101.107 54.9654 103.684 53.3551 105.316C52.6982 105.981 51.9623 106.117 51.2069 106.5H40.8865Z" fill="white"/>
<path d="M116.098 106.5C114.055 105.616 112.814 105.267 112.664 102.595C112.503 99.7246 112.648 96.8384 112.606 93.9645C112.599 93.4639 112.592 92.5538 112.768 92.1096C113.063 91.9257 115.988 92.0165 116.538 92.0211C116.514 93.6319 116.373 101.304 116.71 102.284C116.772 102.467 116.865 102.591 117.045 102.673C117.981 103.099 124.381 103.035 125.368 102.639C125.482 102.594 125.643 102.518 125.693 102.398C125.966 101.735 125.848 100.676 125.846 99.9659C125.843 98.7137 125.698 92.8067 126.01 92.1019C126.358 91.9428 128.929 92.0172 129.479 92.0218V103.825C128.882 105.246 128.312 105.674 126.901 106.31C126.741 106.382 126.559 106.408 126.419 106.5H116.098Z" fill="white"/>
</svg>
