<svg width="148" height="148" viewBox="0 0 148 148" fill="none" xmlns="http://www.w3.org/2000/svg">
<path d="M12 61H24.3971C26.9607 61.6509 28.783 62.5243 30.2397 65.0132C31.3401 66.9305 31.6822 69.2186 31.1936 71.394C30.6849 73.5745 29.365 75.4546 27.5248 76.6197C26.6564 77.1786 25.6907 77.5534 24.6831 77.7227C23.6685 77.8966 20.877 77.8451 19.7514 77.8331C17.2042 77.806 14.5353 77.883 12 77.8264V61ZM15.2357 74.4469L20.4267 74.4539C22.873 74.4556 24.795 74.8541 26.7311 72.9803C29.3616 70.054 28.2003 65.6112 24.5432 64.5253C23.5744 64.2377 21.9064 64.379 20.8662 64.3601C18.992 64.3262 17.0999 64.388 15.224 64.3563C15.2469 67.7198 15.2509 71.0834 15.2357 74.4469Z" fill="white"/>
<path d="M121.925 61H128.969C129.38 61.1015 129.814 61.2038 130.211 61.3225C133.024 62.1641 135.311 64.7131 135.829 67.7279C135.88 68.0226 135.922 68.5184 136 68.7831V70.0148C135.96 70.1578 135.869 70.8539 135.837 71.0529C135.682 72.011 135.356 72.8474 134.883 73.6864C133.791 75.6187 132.007 77.0202 129.924 77.5833C129.508 77.697 129.083 77.772 128.655 77.8075C127.9 77.8693 126.526 77.8301 125.732 77.8285C124.557 77.8262 122.659 77.9142 121.543 77.699C120.612 77.5147 119.72 77.1625 118.905 76.6582C117.063 75.5118 115.733 73.6521 115.205 71.4859C114.684 69.3105 115.003 67.009 116.094 65.0767C117.511 62.5804 119.387 61.6759 121.925 61ZM128.32 74.4421C129.815 74.1949 130.907 73.6766 131.833 72.3457C132.578 71.2743 132.887 69.939 132.691 68.6314C132.488 67.2951 131.782 66.0983 130.729 65.3064C128.952 63.9684 126.957 64.4346 124.898 64.3567C124.334 64.3354 123.39 64.3173 122.839 64.3717C120.103 64.5926 117.998 66.8774 118.216 69.7795C118.321 71.1182 118.928 72.3597 119.905 73.2351C120.47 73.7418 121.141 74.1053 121.863 74.2969C122.812 74.5406 127.089 74.4671 128.32 74.4421Z" fill="white"/>
<path d="M34.6476 61H52.4328L52.4426 64.3595L37.8795 64.3694C37.8822 65.4801 37.8762 66.5907 37.8617 67.7012L49.2177 67.6911C49.2117 68.83 49.2133 69.9691 49.2225 71.1081C45.4845 71.0568 41.6154 71.1003 37.871 71.1103C37.8795 72.2211 37.8788 73.3319 37.8689 74.4426C42.6162 74.5363 47.6669 74.4594 52.4372 74.4436L52.4397 77.8357C46.6127 77.7396 40.4877 77.8199 34.6442 77.8354L34.6476 61Z" fill="white"/>
<path d="M99.8226 61H112.276L112.281 64.3574C109.582 64.395 106.867 64.3128 104.169 64.3597C101.763 64.4014 99.4236 63.8815 97.5558 65.8097C96.633 66.7615 96.1141 68.0584 96.1154 69.4113C96.1129 70.7455 96.6209 72.0256 97.5267 72.9681C99.3013 74.8134 101.397 74.4573 103.693 74.4547L109.02 74.4433C109.048 73.6101 109.034 72.4295 109.004 71.6051L108.564 71.1176C106.806 71.0306 104.39 71.106 102.581 71.1084L102.583 67.6934L108.204 67.694C109.391 67.6956 110.462 67.7774 111.353 68.6961C112.519 69.8986 112.283 71.822 112.281 73.3816L112.275 77.8263L104.215 77.8323C103.108 77.8323 100.635 77.8982 99.624 77.7287C98.6311 77.5645 97.6775 77.2034 96.8153 76.6649C94.9759 75.5293 93.6444 73.6797 93.1128 71.522C92.5782 69.3473 92.8906 67.0408 93.9805 65.1047C95.4318 62.5546 97.2331 61.6916 99.8226 61Z" fill="white"/>
<path d="M63.7428 61H77.6601C79.1356 61.4201 80.1049 61.7373 81.2444 62.9061C82.4723 64.1711 83.1662 65.8942 83.1716 67.6938C83.185 69.798 82.3682 71.3394 80.9932 72.789C81.021 72.8156 81.0483 72.8424 81.0755 72.8696C82.4663 74.2607 83.1305 75.8209 83.171 77.8308L79.9342 77.8325C79.8434 76.8572 79.6091 76.0765 78.8995 75.3889C78.4756 74.9787 77.9537 74.6951 77.3882 74.5676C76.6719 74.4013 75.0862 74.458 74.267 74.4626C72.9598 74.4698 71.535 74.4316 70.2376 74.483L70.24 71.0931L74.5122 71.1023C76.0786 71.1048 77.6619 71.3648 78.9085 70.1534C80.6529 68.4584 80.0111 65.3985 77.8181 64.5649C76.9529 64.2359 74.7677 64.3566 73.7602 64.3578L66.9912 64.3591L66.9875 77.8328L63.7274 77.8309C63.7868 72.2347 63.6835 66.5989 63.7428 61Z" fill="white"/>
<path d="M86.4091 61H89.6229V77.8354C88.5512 77.8273 87.479 77.8275 86.4067 77.8361L86.4091 61Z" fill="white"/>
<path d="M125.542 87C124.394 86.3806 123.975 85.7054 124.199 84.3486C124.534 82.3241 127.847 82.2999 128.295 84.2533C128.582 85.5033 128.082 86.5271 126.941 87H125.542ZM126.572 85.7459C127.374 84.9713 127.031 83.9354 125.902 84.1055C125.645 84.3864 125.484 84.5814 125.495 85.0039C125.5 85.2102 125.585 85.4054 125.73 85.5458C125.987 85.7971 126.24 85.784 126.572 85.7459Z" fill="white"/>
<path d="M132.117 82.8874L133.355 82.8817C133.779 83.4559 134.209 84.0243 134.647 84.587L134.65 82.8883L136 82.8868V87H134.854L133.45 85.248C133.449 85.832 133.444 86.4161 133.436 87H132.121L132.117 82.8874Z" fill="white"/>
<path d="M80.6596 82.8825C81.0852 82.8808 81.5617 82.8904 81.9825 82.8752L81.9831 84.4028L83.0978 84.4026L83.102 82.8832L84.4207 82.8819L84.4159 87H83.1057C83.0826 86.5832 83.1008 86.0313 83.1032 85.6046L81.9843 85.6036L81.9758 87H80.662L80.6596 82.8825Z" fill="white"/>
<path d="M112.075 85.5239C112.608 85.6933 113.349 85.983 113.887 85.7668L113.865 85.6872C113.322 85.4073 112.143 85.3125 111.994 84.6529C111.497 82.4503 114.126 82.664 115.395 83.0732C115.311 83.4576 115.229 83.8659 115.137 84.2461C114.6 84.1198 114.02 83.9115 113.504 84.0272L113.41 84.1089C113.731 84.5727 115.723 84.3718 115.413 85.9371C115.292 86.5502 114.937 86.7224 114.468 87H112.837L111.753 86.6544L112.075 85.5239Z" fill="white"/>
<path d="M88.277 82.8857L91.3836 82.8818L91.3873 84.0365C90.9695 84.0366 89.9747 84.003 89.6302 84.0783L89.6096 84.2098C89.8693 84.5256 90.6631 84.3897 91.0748 84.3713L91.0779 85.4421C90.7412 85.437 89.8609 85.4024 89.5939 85.5653V85.6413C90.0025 85.8636 90.9059 85.8063 91.3842 85.7962L91.3824 87H88.2788L88.277 82.8857Z" fill="white"/>
<path d="M101.692 82.8825L103.188 82.8818C102.785 83.814 102.433 84.7749 102.05 85.7148C101.951 85.9568 101.626 86.8061 101.504 87H100.142C99.5877 85.6323 99.0416 84.2608 98.5039 82.8857L99.9764 82.8774C100.271 83.5594 100.579 84.3887 100.832 85.0941C101.081 84.4769 101.436 83.4094 101.692 82.8825Z" fill="white"/>
<path d="M55.6432 82.885C56.3266 82.8694 57.7417 82.7179 58.1873 83.2627C58.8775 84.1065 58.4684 84.9451 57.7306 85.4451C58.0666 85.9932 58.4649 86.4817 58.793 87H58.1267C57.8683 86.6787 57.3556 85.9082 57.1536 85.5594L56.1877 85.5583C56.1925 86.0388 56.1912 86.5194 56.1837 87H55.6468L55.6432 82.885ZM56.1901 85.0844C56.8017 85.0683 57.2473 85.1469 57.7416 84.7858C58.6776 83.4334 57.0383 83.3689 56.1912 83.4027L56.1901 85.0844Z" fill="white"/>
<path d="M17.1123 82.871L17.7119 82.8584C17.3917 84.0926 16.783 85.7488 16.3849 87H15.8724C15.6035 86.055 15.1789 84.8546 14.8606 83.9256C14.515 84.7848 14.1326 86.0901 13.8369 87H13.327C12.8557 85.7015 12.4799 84.1993 12 82.9448V82.8796C12.1693 82.878 12.4506 82.8491 12.5772 82.9436C12.8785 83.5626 13.3516 85.3411 13.5924 86.0775C13.747 85.5222 14.4045 83.2101 14.7146 82.8987C15.2707 82.708 15.9261 85.4692 16.1324 86.0251C16.451 85.006 16.8215 83.8905 17.1123 82.871Z" fill="white"/>
<path d="M73.354 82.8821C74.5746 82.8833 75.8128 82.895 77.0322 82.8813L77.0292 84.1086L75.8594 84.1093C75.8612 85.0361 75.886 86.0827 75.8552 87H74.5328C74.528 86.0442 74.5116 85.0592 74.5364 84.106L73.3467 84.1105L73.354 82.8821Z" fill="white"/>
<path d="M47.4733 87C47.7612 86.3042 48.9593 83.2502 49.3758 82.9394C49.4956 82.9124 49.6569 82.8797 49.7422 82.9805C50.1124 83.418 51.4202 86.5438 51.5481 87H50.933C50.853 86.7451 50.6472 86.3071 50.5331 86.0476L48.5005 86.044C48.399 86.3261 48.2095 86.7176 48.0818 87H47.4733ZM48.7145 85.522L49.6753 85.5139L50.3144 85.5206C50.2245 85.3039 49.5684 83.6837 49.5144 83.6391C49.2627 84.2377 48.9857 84.9416 48.7145 85.522Z" fill="white"/>
<path d="M62.7943 82.883C63.3508 82.8828 65.0434 82.8317 65.5115 82.9153C65.6104 83.0794 65.5755 83.1242 65.5793 83.3503C65.2951 83.5 63.7268 83.4425 63.3511 83.4223L63.3528 84.6669C63.8302 84.6594 64.8888 84.607 65.3054 84.7006C65.3738 84.8334 65.3492 84.825 65.3296 84.9926C65.0959 85.3314 63.7719 85.1729 63.3485 85.1748L63.3525 86.4173C63.891 86.4079 65.0231 86.36 65.5101 86.4248C65.6082 86.5846 65.585 86.7901 65.5786 87H62.7982L62.7943 82.883Z" fill="white"/>
<path d="M21.7522 82.8825C22.137 82.8818 24.2988 82.8055 24.5213 82.9762C24.5301 83.2162 24.556 83.1405 24.4331 83.3343C24.0399 83.5604 22.8189 83.4326 22.2923 83.4261L22.2899 84.6656C22.7459 84.6599 23.8655 84.6097 24.2483 84.697C24.316 84.8169 24.2935 84.9155 24.2806 85.053C24.0389 85.271 22.7192 85.1793 22.2891 85.1757L22.2898 86.416C22.8231 86.4125 24.01 86.375 24.4891 86.4373C24.5554 86.6075 24.5325 86.8146 24.5242 87H21.7533L21.7522 82.8825Z" fill="white"/>
<path d="M42.8795 84.6964C42.8731 84.223 42.7631 83.2174 43.0246 82.9275C43.1704 82.8654 43.1993 82.8659 43.352 82.907C43.5051 83.3299 43.4194 86.3215 43.4207 87H42.8808L42.8829 85.2174C42.2594 85.1772 41.3439 85.2075 40.699 85.2086L40.6961 87H40.1557C40.1534 86.257 40.0987 83.5144 40.1793 82.9284C40.3704 82.8698 40.4424 82.8801 40.6419 82.8919C40.7383 83.0135 40.7002 84.4216 40.7002 84.692C41.4266 84.6758 42.1532 84.6773 42.8795 84.6964Z" fill="white"/>
<path d="M119.141 82.8825C119.507 82.8818 120.151 82.8998 120.495 82.8624L120.493 87H119.141C119.131 85.7109 119.092 84.1588 119.141 82.8825Z" fill="white"/>
<path d="M106.752 82.8812L108.111 82.8842C108.112 84.2217 108.138 85.6715 108.102 87H106.754L106.752 82.8812Z" fill="white"/>
<path d="M33.5204 87C33.3196 86.9254 32.9067 86.8015 32.7753 86.654C32.7784 86.4562 32.768 86.5202 32.8843 86.3474C33.2564 86.1428 33.988 86.539 34.4254 86.513C35.4991 86.446 35.7438 85.5412 34.5182 85.2117C33.829 85.0265 32.7128 84.8867 32.8321 83.8616C32.9757 82.6266 35.3251 82.5601 35.7295 83.2596C35.5752 83.8469 33.1877 82.738 33.4931 84.1204C33.9546 84.9095 36.1995 84.396 35.8633 86.1144C35.7921 86.4782 35.4982 86.7175 35.2041 86.8974C35.1469 86.9323 35.0892 86.9666 35.0311 87H33.5204Z" fill="white"/>
</svg>
