<svg width="148" height="148" viewBox="0 0 148 148" fill="none" xmlns="http://www.w3.org/2000/svg">
<path d="M24.0017 49C27.4666 49.0013 30.9316 49 34.3965 49.0013C36.1757 49.0159 37.9708 49.6519 39.2728 50.8761C40.3536 51.8745 41.0413 53.3204 40.9946 54.8021C41.0373 56.1458 40.6135 57.5186 39.7419 58.5556C39.0476 59.4067 38.0747 59.9895 37.0459 60.3507C38.1214 60.656 39.1569 61.2482 39.7926 62.1882C40.2936 62.8946 40.4829 63.7695 40.4909 64.6233C40.4922 66.1979 40.4935 67.7726 40.4895 69.3473C39.0249 69.3446 37.5603 69.3473 36.0957 69.346C36.093 68.082 36.0984 66.818 36.0944 65.554C36.0637 64.6511 35.8572 63.6885 35.2015 63.0247C34.5072 62.3329 33.485 62.1245 32.5388 62.082C31.5473 62.0701 30.5571 62.0807 29.5656 62.078C29.5696 60.903 29.5549 59.7293 29.5736 58.5543C31.0022 58.5675 32.4309 58.5556 33.8595 58.5609C34.8577 58.5596 35.8212 57.9448 36.245 57.0433C36.8247 55.8563 36.6501 54.2272 35.5986 53.3509C35.0029 52.865 34.2153 52.6791 33.4583 52.6831C31.6925 52.6871 29.9281 52.6818 28.1636 52.6857C28.1649 57.0221 28.1636 61.3584 28.1636 65.6961C26.7763 65.6961 25.3877 65.6961 24.0003 65.6961C24.0003 60.1303 23.999 54.5658 24.0017 49Z" fill="white"/>
<path d="M76.6425 49C78.0738 49.0013 79.5051 49.0013 80.9377 49C80.9377 53.3815 80.939 57.7629 80.9377 62.1444C82.0372 62.1457 83.1366 62.1444 84.2374 62.1457C85.6434 62.1657 86.9094 60.968 87.044 59.5885C87.2759 58.1347 86.2724 56.5481 84.7851 56.2878C83.9975 56.1763 83.1979 56.2613 82.4063 56.2361C82.405 55.0517 82.4063 53.8687 82.405 52.6857C83.3272 52.6818 84.2494 52.6871 85.1716 52.6831C87.1053 52.6433 88.9951 53.651 90.1278 55.1978C91.2659 56.7326 91.6458 58.7627 91.2739 60.6215C90.7489 62.9437 88.7512 64.7096 86.5163 65.384C85.3928 65.7492 84.1974 65.7346 83.03 65.7279C80.9004 65.7279 78.7708 65.7279 76.6411 65.7279C76.6411 60.1515 76.6398 54.5764 76.6425 49Z" fill="white"/>
<path d="M110.391 49.001C111.834 48.9997 113.278 48.9997 114.722 49.001C114.722 51.6551 114.721 54.3105 114.722 56.966C115.626 56.9341 116.543 57.0456 117.438 56.881C118.278 56.7084 118.957 56.0645 119.248 55.2718C119.594 54.442 119.569 53.5259 119.598 52.6456C121.016 52.6602 122.434 52.6469 123.854 52.6522C123.818 54.0277 123.83 55.4962 123.109 56.7217C122.492 57.7918 121.327 58.384 120.189 58.7491C121.536 59.1262 122.847 59.9361 123.45 61.2412C124.151 62.6247 123.91 64.206 123.951 65.6957C122.518 65.6957 121.086 65.6957 119.654 65.6957C119.572 64.4623 119.909 63.1133 119.243 61.9901C118.728 61.062 117.653 60.5946 116.628 60.5282C115.993 60.5017 115.356 60.5256 114.722 60.5176C114.721 62.2437 114.721 63.9697 114.722 65.6944C113.278 65.6957 111.834 65.6957 110.391 65.6944C110.392 60.1299 110.391 54.5655 110.391 49.001Z" fill="white"/>
<path d="M98.8404 52.6402C100.963 52.2684 103.252 52.4543 105.176 53.4753C106.645 54.2534 107.793 55.6129 108.265 57.2062C108.846 59.1752 108.61 61.4337 107.408 63.1318C106.395 64.591 104.761 65.5363 103.044 65.92C101.041 66.3621 98.8764 66.2227 97.0066 65.3478C95.2128 64.5179 93.7495 62.9194 93.2605 60.9902C92.758 59.0026 93.1352 56.7588 94.4292 55.1389C95.5127 53.7833 97.1465 52.9469 98.8404 52.6402ZM99.8985 55.9502C98.3526 56.3352 97.2038 57.8847 97.3145 59.4726C97.3771 60.6038 98.0301 61.6899 99.0136 62.2635C99.9891 62.8702 101.267 62.926 102.299 62.4215C103.886 61.6912 104.716 59.6851 104.05 58.0626C103.466 56.4414 101.56 55.4629 99.8985 55.9502Z" fill="white"/>
<path d="M43.4495 55.7174C44.5769 53.9091 46.6385 52.7234 48.7788 52.6889C51.5588 52.6796 54.3374 52.6876 57.1161 52.6849C57.0961 53.9555 57.1574 55.2355 57.0867 56.4981C56.1819 57.9321 55.2556 59.354 54.3441 60.784C52.9634 60.78 51.5841 60.7906 50.2048 60.7787C51.1177 59.2664 52.0346 57.7555 52.9355 56.2366C51.8213 56.2339 50.7072 56.2392 49.5918 56.2339C48.5843 56.2007 47.6074 56.7823 47.0877 57.6307C46.464 58.6158 46.5013 59.9741 47.1943 60.9168C47.7527 61.7267 48.7349 62.1967 49.7144 62.1794C52.1812 62.1794 54.6493 62.1781 57.1161 62.1794C57.1161 63.3624 57.1174 64.5454 57.1161 65.7284C54.7399 65.7297 52.3637 65.7284 49.9876 65.7297C49.0121 65.7311 48.0139 65.7404 47.073 65.4456C45.2113 64.9039 43.6467 63.4673 42.9297 61.6749C42.1408 59.7577 42.33 57.4687 43.4495 55.7174Z" fill="white"/>
<path d="M61.7825 53.9448C62.87 53.1296 64.224 52.6994 65.5807 52.6848C68.3126 52.6835 71.0446 52.6848 73.7753 52.6848C73.778 53.9541 73.7713 55.2234 73.7793 56.4927C72.8611 57.9227 71.9455 59.3553 71.0246 60.7839C69.6467 60.7826 68.27 60.7839 66.892 60.7839C67.7916 59.2624 68.7151 57.7554 69.6213 56.2365C68.4046 56.2391 67.1879 56.2272 65.9711 56.2405C64.3546 56.3706 63.0819 58.0183 63.3511 59.6089C63.5283 60.9857 64.7731 62.1342 66.1724 62.1714C68.7178 62.1886 71.2632 62.1754 73.8073 62.178C73.8113 63.361 73.8073 64.544 73.8099 65.7283C71.0726 65.7217 68.3353 65.7443 65.598 65.7177C63.9135 65.7164 62.2343 65.0353 61.0562 63.831C59.6542 62.4754 58.9519 60.4573 59.1651 58.5281C59.3371 56.7238 60.3126 55.0123 61.7825 53.9448Z" fill="white"/>
<path d="M95.8259 74.5939C105.195 73.5623 114.595 72.8267 124 72.2253C118.915 73.5158 113.812 74.7585 108.774 76.2363C101.7 78.2478 94.8024 80.8129 87.9897 83.5613C84.4248 81.4648 80.8466 79.3923 77.2843 77.2918C83.416 76.0942 89.6196 75.2989 95.8259 74.5939Z" fill="white"/>
<path d="M28.0792 72.7975C39.8027 72.8121 51.5276 72.7802 63.2485 72.8134C65.8099 74.0973 68.2794 75.5618 70.7781 76.9625C80.4587 82.5031 90.0873 88.1353 99.6679 93.8445C101.971 95.22 104.275 96.5915 106.554 98.0069C107.054 98.3335 107.581 98.6216 108.045 99C97.6929 94.6663 87.4326 90.103 76.9364 86.1225C67.9875 82.7102 58.8507 79.7866 49.5632 77.4392C44.4364 76.1287 39.267 74.9896 34.0762 73.9592C32.0825 73.549 30.0662 73.233 28.0792 72.7975Z" fill="white"/>
<path d="M40.9395 89.877C45.8091 86.6957 51.1864 84.3656 56.6584 82.4285C59.9195 83.3048 63.1246 84.3868 66.3376 85.4238C62.0651 87.1113 57.9591 89.2569 54.2609 91.9867C51.8968 93.7579 49.6192 95.703 47.8201 98.057C42.5134 98.0597 37.2067 98.0623 31.9013 98.0557C34.4214 94.844 37.5252 92.1128 40.9395 89.877Z" fill="white"/>
<path d="M57.1418 94.4795C60.808 91.1588 65.0779 88.5392 69.5944 86.5331C72.1451 87.4213 74.6772 88.3653 77.1986 89.3345C75.017 90.8813 72.8448 92.4786 71.031 94.4556C69.9862 95.5708 69.0626 96.7923 68.2084 98.0563C63.4081 98.0616 58.6078 98.055 53.8075 98.0603C54.775 96.7419 55.9437 95.5868 57.1418 94.4795Z" fill="white"/>
</svg>
