<svg width="148" height="148" viewBox="0 0 148 148" fill="none" xmlns="http://www.w3.org/2000/svg">
<path d="M113.335 68.4747C115.462 68.1658 117.686 69.1108 118.448 71.2667C118.726 70.4619 118.892 69.6746 119.127 68.8585C120.02 68.8277 120.975 68.8488 121.873 68.8548C121.771 69.4092 121.597 69.9314 121.451 70.4748L120.699 73.2933L118.053 83.3256C117.13 83.3321 116.206 83.3259 115.283 83.3069C115.357 82.9933 115.904 81.2107 115.842 81.053L115.713 81.1342C114.322 82.554 112.822 83.4594 110.84 83.6666C103.527 84.4277 102.752 76.8543 106.607 72.1798C108.403 70.001 110.524 68.7538 113.335 68.4747ZM111.376 81.1225C113.183 80.9459 114.713 80.0446 115.877 78.6287C117.432 76.7384 118.294 73.7638 116.231 71.8751C115.644 71.3384 114.254 70.972 113.453 71.0504C113.432 71.0523 113.412 71.055 113.392 71.0586C106.691 71.6981 104.564 81.3122 111.376 81.1225Z" fill="white"/>
<path d="M70.2045 68.4752C71.9249 68.3206 73.9273 68.7653 74.8945 70.3795C75.0639 70.662 75.2409 70.8294 75.3095 71.1789L75.3135 71.2011C75.3579 71.1718 75.9239 69.1381 76.0328 68.8611C76.8997 68.821 77.8582 68.8473 78.7269 68.8599C78.2542 70.8634 77.6928 72.7993 77.1735 74.7812C76.4467 77.6387 75.687 80.4875 74.8945 83.327C73.9855 83.3296 73.0766 83.3235 72.1681 83.3086C72.3225 82.8451 72.6225 81.5624 72.7284 81.0529L72.6794 81.0376L72.4513 81.2644C71.066 82.6251 69.6377 83.4642 67.6953 83.6686C60.3933 84.4332 59.6461 76.8234 63.4795 72.1692C65.2711 69.9941 67.4062 68.7516 70.2045 68.4752ZM68.194 81.1261C70.0826 80.9392 71.502 80.0961 72.7584 78.6101C74.2916 76.7962 75.0881 73.6812 73.0892 71.8743C72.5102 71.351 71.0843 70.9578 70.2828 71.0567C69.2375 71.1716 68.2572 71.4079 67.3615 71.9748C65.6396 73.0646 64.2737 74.919 64.1076 77.0263C63.8907 79.778 65.6366 81.2064 68.194 81.1261Z" fill="white"/>
<path d="M96.7844 68.4752C97.6456 68.3661 98.8133 68.499 99.6364 68.7861C103.187 70.0251 103.737 73.7 102.593 76.9699C98.5597 77.0055 94.4316 76.8975 90.4096 76.9926C90.3289 77.4531 90.2759 77.8863 90.3214 78.356C90.4033 79.1684 90.7958 79.9152 91.4143 80.435C93.7135 82.3412 97.0317 81.0326 98.7286 78.9133L100.225 78.9083L101.582 78.9187C100.228 81.307 97.0934 83.3448 94.4115 83.652C87.2677 84.4698 85.7974 77.1332 89.8044 72.3473C91.684 70.102 93.8558 68.7703 96.7844 68.4752ZM91.0477 74.7646L95.4345 74.7669C97.0755 74.7674 98.826 74.7349 100.457 74.7703C100.475 74.3718 100.518 73.9462 100.425 73.5588C99.875 71.2561 98.1487 70.793 96.166 70.8746C93.9872 71.2068 91.8477 72.6018 91.0477 74.7646Z" fill="white"/>
<path d="M128.698 68.4733C128.788 68.4541 128.906 68.4582 129.001 68.4521C130.678 68.3455 132.566 69.0479 132.933 70.917C133.059 71.5559 132.988 72.0625 132.88 72.6968C131.974 72.7029 131.041 72.7205 130.139 72.6825C130.15 72.6282 130.159 72.5736 130.167 72.5189C130.282 71.7946 130.207 71.57 129.804 71.0015C127.302 69.7655 124.49 73.029 127.165 74.2897C128.926 75.0531 131.782 75.2283 131.746 77.8289C131.697 81.3037 128.519 83.6615 125.304 83.7101C124.989 83.7147 124.674 83.6931 124.363 83.6456C123.356 83.5021 122.368 83.0527 121.748 82.2045C121.036 81.2319 121.107 80.2226 121.27 79.1092C122.047 79.0574 123.223 79.0753 124.003 79.1118C123.949 79.7207 123.939 80.6128 124.514 81.0125C126.111 82.208 129.047 80.6347 128.801 78.615C128.605 77.0007 125.193 76.6892 124.054 75.677C122.48 74.2786 123.225 72.1778 124.283 70.7883C125.362 69.3721 127.018 68.6638 128.698 68.4733Z" fill="white"/>
<path d="M88.7035 68.475C88.7606 68.4609 89.1606 68.4586 89.2459 68.4572C88.9577 69.3182 88.722 70.3625 88.5023 71.2533C84.1334 71.2946 83.674 74.1422 82.7172 77.6773C82.1932 79.5522 81.6935 81.4341 81.2191 83.3227L78.4456 83.3197C78.5378 82.9228 78.6393 82.4341 78.7724 82.0598C78.9534 81.5201 79.1119 80.7838 79.2571 80.2193L80.0272 77.3046L82.278 68.858C83.1397 68.8304 84.0417 68.8498 84.9069 68.8571C84.6959 69.5532 84.5299 70.1222 84.3679 70.8336C85.6844 69.3692 86.7277 68.6737 88.7035 68.475Z" fill="white"/>
<path d="M52.6748 58.2308C54.0605 58.2144 55.8255 58.8209 55.7449 60.5355C55.6926 61.6512 55.2405 62.8315 54.9575 63.9142L49.8317 82.9998C49.356 84.7678 48.9246 86.552 48.399 88.3057C48.0707 89.4015 47.5172 89.6934 46.4985 90H46.1377C45.642 89.8505 45.0912 89.6592 44.7196 89.284C43.9683 88.5254 43.2214 87.7563 42.4715 86.9965L37.1759 81.6158L34.3857 78.7886C33.9213 78.3171 33.3156 77.7604 32.9251 77.2456C32.3479 76.4844 32.5149 75.1575 33.1438 74.4856C33.5495 74.0515 34.111 73.804 34.6995 73.8C35.0537 73.795 35.5435 73.8825 35.8217 74.1058C36.8963 74.9681 38.0025 76.1865 38.9821 77.1849L45.1947 83.4978C45.7696 81.1179 46.541 78.4766 47.1887 76.0954L49.7642 66.4434C50.0606 65.3402 50.4842 63.7432 50.8189 62.6003C50.8017 62.5651 50.7869 62.5349 50.7746 62.5098L50.4377 62.4715C50.5686 62.455 50.7025 62.4324 50.8332 62.4122C51.6605 61.1147 52.4017 59.7348 53.1585 58.3921C52.9256 58.3803 52.8756 58.3472 52.6748 58.2308Z" fill="white"/>
<path d="M48.093 58H49.5706C50.2012 58.1216 52.3729 58.0869 52.6748 58.2308C52.8756 58.3472 52.9256 58.3803 53.1585 58.3921C52.4017 59.7348 51.6605 61.1147 50.8332 62.4122C50.7025 62.4324 50.5686 62.455 50.4377 62.4715C48.9201 62.4531 47.4041 62.4428 45.8915 62.5923C40.226 63.1524 34.8242 65.4064 30.2861 68.8867C29.5515 69.4501 28.8515 70.1099 28.1565 70.7262C28.137 70.7066 28.0852 70.6884 28.0567 70.6761C27.0715 71.6884 26.4366 72.3738 25.5228 73.4699C25.4907 73.0897 25.5433 73.3043 25.3771 73.0363C25.123 72.6264 21.7405 71.7899 21.6901 71.7115C22.0563 71.2058 22.42 70.704 22.8134 70.2192C23.1686 69.7814 23.6021 69.3659 23.9474 68.9304L23.9118 68.8015C23.9189 68.7884 23.9261 68.7752 23.9332 68.7622C29.5173 62.6582 37.4708 58.9944 45.5737 58.1585C46.5316 58.0596 47.3149 58.1508 48.093 58Z" fill="white"/>
<path d="M15.8454 83.4903C15.9196 83.0868 16.2992 82.016 16.4456 81.59C17.7139 77.888 19.5303 74.4051 21.832 71.2624C22.4176 70.4639 23.1947 69.4606 23.9118 68.8015L23.9474 68.9304C23.6021 69.3659 23.1686 69.7814 22.8134 70.2192C22.42 70.704 22.0563 71.2058 21.6901 71.7115C21.7405 71.7899 25.123 72.6264 25.3771 73.0363C25.5433 73.3043 25.4907 73.0897 25.5228 73.4699C26.4366 72.3738 27.0715 71.6884 28.0567 70.6761C28.0852 70.6884 28.137 70.7066 28.1565 70.7262C27.5156 71.4531 26.7666 72.1468 26.1547 72.8971C23.851 75.7224 22.0381 78.9835 20.7756 82.4206C20.6175 82.8511 19.8764 85.0001 19.8144 85.4422C19.3256 86.8184 19.463 89.0853 18.003 89.7325C16.7402 90.2923 15.6013 89.6196 15 88.4889V86.8436C15.0311 86.7395 15.0521 86.6313 15.0742 86.5248C15.2871 85.5009 15.5597 84.496 15.8454 83.4903Z" fill="white"/>
<path d="M15.8454 83.4903C16.2556 84.2763 16.7139 84.445 17.5178 84.7369C17.8464 84.8562 19.4953 85.2112 19.7625 85.1661C19.7751 85.2376 19.7964 85.3789 19.8144 85.4422C19.3256 86.8184 19.463 89.0853 18.003 89.7325C16.7402 90.2923 15.6013 89.6196 15 88.4889V86.8436C15.0311 86.7395 15.0521 86.6313 15.0742 86.5248C15.2871 85.5009 15.5597 84.496 15.8454 83.4903Z" fill="white"/>
</svg>
