<svg width="148" height="148" viewBox="0 0 148 148" fill="none" xmlns="http://www.w3.org/2000/svg">
<path fill-rule="evenodd" clip-rule="evenodd" d="M28.5173 85C22.184 85 17 80.0661 17 73.9507C17 67.9339 22.184 63 28.5173 63C34.9311 63 40.1151 67.9339 40.1151 73.9507C40.1151 80.0661 34.9311 85 28.5173 85ZM28.5173 80.3943C32.2875 80.3943 35.276 77.55 35.276 73.9507C35.276 70.4391 32.2875 67.5947 28.5173 67.5947C24.8161 67.5947 21.8276 70.4391 21.8276 73.9507C21.8276 77.55 24.8161 80.3943 28.5173 80.3943Z" fill="white"/>
<path fill-rule="evenodd" clip-rule="evenodd" d="M99.5407 85C93.2074 85 88.0234 80.0661 88.0234 73.9507C88.0234 67.9339 93.2074 63 99.5407 63C105.955 63 111.138 67.9339 111.138 73.9507C111.138 80.0661 105.955 85 99.5407 85ZM99.5407 80.3943C103.311 80.3943 106.299 77.55 106.299 73.9507C106.299 70.4391 103.311 67.5947 99.5407 67.5947C95.8395 67.5947 92.851 70.4391 92.851 73.9507C92.851 77.55 95.8395 80.3943 99.5407 80.3943Z" fill="white"/>
<path fill-rule="evenodd" clip-rule="evenodd" d="M41.4387 63.6689V84.4984H46.2663V67.5197H51.6342V84.4984H56.4617V67.5197H58.3123C60.2434 67.5197 61.7376 68.9419 61.7376 70.6923V84.4984H66.5767V70.8564C66.5767 66.7649 63.1515 63.4939 58.8411 63.4939H46.3583C44.6916 63.4939 43.0134 63.4939 41.4387 63.6689Z" fill="white"/>
<path fill-rule="evenodd" clip-rule="evenodd" d="M112.46 63.6689V84.4984H117.287V67.5197H122.747C124.586 67.5197 126.172 68.9419 126.172 70.6923V84.4984H131V70.8564C131 66.7649 127.575 63.4939 123.264 63.4939H117.287C115.713 63.4939 114.034 63.4939 112.46 63.6689Z" fill="white"/>
<path fill-rule="evenodd" clip-rule="evenodd" d="M68.5967 63.6689V84.4984H73.4244V67.5197H79.137C81.0796 67.5197 82.5738 68.9419 82.5738 70.6923C82.5738 72.5302 81.0796 73.9524 79.137 73.9524H75.0106L82.4818 84.4984H88.4589L83.0105 76.8842C85.6428 75.9653 87.4014 73.5367 87.4014 70.6923C87.4014 66.7649 84.068 63.4939 79.8382 63.4939H73.4244C71.7577 63.4939 70.1715 63.4939 68.5967 63.6689Z" fill="white"/>
</svg>
