<svg width="148" height="148" viewBox="0 0 148 148" fill="none" xmlns="http://www.w3.org/2000/svg">
<path d="M73.9068 41.2626C75.1413 41.1913 76.5457 41.5233 77.6685 42.0165C78.0593 42.1883 78.3752 42.4904 78.8013 42.5292C79.7326 42.614 80.666 42.6784 81.5982 42.7606C83.0985 42.9007 84.5967 43.0658 86.0914 43.2567C94.6132 44.3429 106.239 46.7767 112.696 52.7685C113.352 53.3771 114.722 54.9118 115.126 55.6903C117.457 60.1818 117.811 66.3452 117.976 71.3144C118.098 75.5811 117.735 79.8498 117.288 84.0907C116.995 87.0018 116.694 89.7797 115.824 92.5663C114.259 97.7893 110.1 99.7985 105.476 101.668C95.5364 105.687 84.7809 106.474 74.1265 106.745C73.2764 106.758 72.3438 106.708 71.4869 106.667C63.7334 106.294 55.8947 105.524 48.3863 103.48C46.1592 102.874 43.9905 102.001 41.856 101.134C39.5498 100.196 37.1906 99.0839 35.2994 97.4394C31.6631 94.243 31.1272 89.5615 30.6744 85.0468C30.461 82.9271 30.2845 80.804 30.1461 78.6786C29.7728 72.7328 29.9353 60.652 32.817 55.5917C37.7636 46.9055 53.5295 44.0891 62.6685 43.0507C64.0873 42.8911 65.5087 42.7562 66.9322 42.6474C67.8042 42.5828 68.6823 42.5413 69.5533 42.4618C70.0918 42.4126 70.5918 42.0021 71.1129 41.8095C72.072 41.455 72.9007 41.3223 73.9068 41.2626ZM68.2242 43.6981C65.8452 43.9429 63.4681 44.1027 61.0933 44.4081C52.8691 45.4658 40.3167 47.9374 34.8433 54.6493C34.4572 55.1228 34.1144 55.6107 33.8355 56.1552C31.5889 60.5411 31.0279 69.0442 31.0924 73.9618C31.1449 77.9665 31.5127 82.0022 31.9322 85.9833C32.3619 90.061 33.0854 94.1715 36.4742 96.912C38.5001 98.55 41.0195 99.575 43.4205 100.524C45.293 101.264 47.1619 101.954 49.105 102.49C54.6942 104.032 60.5719 104.755 66.3433 105.21C68.7444 105.399 71.1792 105.573 73.5884 105.585C78.0413 105.607 82.5565 105.299 86.982 104.813C90.5025 104.451 93.9975 103.872 97.4468 103.08C99.9459 102.487 101.955 101.759 104.32 100.882C110.784 98.4825 114.206 96.3214 115.481 89.1288L115.473 89.1278C115.671 88.1352 115.797 86.9515 115.916 85.9364C116.107 84.2976 116.277 82.6561 116.426 81.0126C116.606 78.9933 116.872 75.974 116.854 74.0399C116.809 69.053 116.637 58.752 113.134 54.914C105.797 46.8728 90.5269 44.6995 80.1578 43.7977C81.4535 45.1491 82.2617 46.6904 82.5172 48.5614C82.829 50.7806 82.2444 53.0331 80.8922 54.8202C79.5281 56.6285 77.4945 57.8129 75.2486 58.1073C73.3438 58.3598 71.4099 57.9529 69.7681 56.955C69.5093 56.7951 69.2705 56.6239 69.0367 56.4462L68.3336 55.8993L67.9029 55.4325C67.7515 55.2649 67.6053 55.0955 67.5054 54.954C59.2136 55.3337 50.0983 56.2577 42.4752 59.7519C41.1132 60.3762 39.0631 61.5815 38.0738 62.702C34.9474 66.2435 35.067 72.1789 35.2467 76.5985C35.3441 78.9964 35.7026 81.3318 36.4205 83.5868C38.2464 80.6677 40.2154 77.7431 42.0914 74.8476L51.3599 60.6083L63.7886 60.6718L63.7779 62.2294C63.7084 63.1769 63.7474 64.5802 63.7427 65.5692L63.5933 88.7616C60.8126 88.7578 57.6443 88.6351 54.9175 88.7274C54.0098 88.7147 53.1018 88.7105 52.1939 88.7138C53.1936 87.107 53.6481 87.4183 54.0084 85.1913C54.0297 84.8024 54.058 84.3942 54.0709 84.0067C51.7592 83.953 49.1549 83.9375 46.8316 83.9403C45.9106 85.3751 45.3401 86.1253 45.7174 87.8456C45.778 88.1138 45.8421 88.3815 45.9088 88.6483L32.2847 88.5595C33.0005 87.8724 33.8601 87.1765 34.4996 86.4423C34.9717 85.9003 35.4847 85.0291 35.8883 84.4003C34.7516 81.4048 34.4616 78.2838 34.3863 75.0946C34.3018 71.5181 34.4119 68.0619 35.8365 64.7147C37.382 61.0836 41.0325 59.3538 44.5093 58.0058C51.1896 55.5559 58.4782 54.6897 65.5533 54.2626C66.0221 54.2343 66.5005 54.2059 66.9683 54.1981C64.9472 50.626 65.3137 46.6722 68.2242 43.6981ZM41.192 89.788C41.7462 89.8129 42.5318 89.7669 43.0386 89.831C45.5005 91.0852 50.029 92.3159 52.7242 92.8642C55.9735 93.5255 59.2669 94.0313 62.5826 94.3856C63.3192 94.4643 64.0569 94.5357 64.7955 94.5995C71.0751 95.1424 77.4177 95.1504 83.6783 94.6561C84.4149 94.598 85.1503 94.5328 85.8843 94.4608C86.6184 94.3888 87.3515 94.3093 88.0826 94.2235C92.5783 93.6961 97.1456 92.8871 101.454 91.5009C102.125 91.2846 104.051 90.6099 104.638 90.2724C104.995 90.1847 106.055 90.2545 106.492 90.2616C101.133 93.044 94.0802 94.3104 88.0826 95.0165C77.4782 96.2703 66.7501 96.036 56.2105 94.3202C51.2799 93.5005 45.6004 92.173 41.192 89.788ZM115.473 89.1327C115.472 89.1312 115.47 89.1294 115.468 89.1278H115.473C115.473 89.1294 115.474 89.1311 115.473 89.1327ZM84.3384 60.8075C88.4553 60.8889 92.6646 60.8081 96.7574 60.9159C97.0128 61.2434 97.4774 62.0324 97.7154 62.414C97.9497 62.8578 98.3703 63.4837 98.6451 63.9188L110.712 83.0272C111.491 84.2523 112.331 85.6443 113.149 86.8251C113.552 87.4067 114.875 88.5499 115.468 89.1278L104.019 89.0429C103.31 89.0259 102.54 89.0414 101.827 89.0429C102.216 87.5252 102.399 87.1174 101.821 85.8134L101.695 85.5399C101.484 85.1228 101.249 84.7179 100.991 84.329C98.5827 84.2838 96.1742 84.2637 93.7662 84.2675C93.7577 86.8065 94.0414 87.0304 95.5465 88.994C93.5881 88.9691 91.6298 88.9554 89.6715 88.955C88.5491 88.9479 87.4018 88.9064 86.2828 88.9403C85.5725 88.9318 84.8617 88.9324 84.1519 88.9442L84.2994 66.7431C84.3074 64.7671 84.3545 62.78 84.3384 60.8075ZM80.7984 60.7519C80.641 60.9929 80.4508 61.2582 80.2564 61.5224L79.69 62.287C79.1086 63.109 79.0364 64.0119 79.0142 64.994C78.9911 66.0091 79.0009 67.0303 78.9967 68.0458L78.9595 74.9921L78.9127 81.4872C78.891 82.9794 78.7912 84.7439 78.984 86.2216C79.0966 87.0861 79.9803 88.1621 80.5045 88.8856L72.6812 88.8368C71.7763 88.8321 70.9246 88.7978 70.0123 88.8134C69.0933 88.8044 68.1735 88.8044 67.2545 88.8134C67.7786 87.9952 68.7429 86.9812 68.8931 85.9999C69.0775 84.7941 69.0252 83.2367 69.0308 81.9852L69.1334 67.7235C69.1423 66.4107 69.208 64.6895 69.0367 63.4071C68.9259 62.5793 67.9426 61.3966 67.4615 60.6552L80.7984 60.7519ZM85.065 79.5311C85.0452 82.3221 84.9675 85.3121 84.9996 88.0907C87.962 88.1435 90.9249 88.1646 93.8873 88.1552C92.8459 86.6361 92.9145 85.266 92.9244 83.4608L101.43 83.494C102.395 84.9929 103.317 86.2497 102.92 88.078C102.912 88.12 102.902 88.162 102.892 88.204C104.421 88.2101 105.932 88.2434 107.463 88.2392C109.44 88.2406 111.408 88.2911 113.378 88.2831C112.156 87.0906 111.05 85.0956 110.107 83.6005L99.7134 67.1415C98.6166 65.4041 97.3414 63.4849 96.3082 61.7382L87.5406 61.6874C86.7629 61.6848 85.955 61.6435 85.19 61.6542L85.065 79.5311ZM69.0797 61.5009C70.1499 63.2736 70.002 64.2214 69.9908 66.245C69.989 67.2941 69.9776 68.3435 69.9566 69.3925C69.9187 71.4091 69.9355 73.499 69.9175 75.5282L69.8677 81.5858C69.866 82.2759 69.8647 82.988 69.8687 83.6767C69.8789 85.4226 69.8744 86.5406 68.8746 88.0009L78.9019 88.0477C78.4585 87.3743 78.172 86.7477 78.1158 85.9325C78.0177 84.5033 78.0758 82.9863 78.0777 81.5458L78.1597 71.8622C78.1824 69.8886 78.1431 67.9212 78.1968 65.9452C78.2454 64.155 78.0771 63.113 79.1695 61.5712L71.3189 61.5204C70.5969 61.5192 69.7841 61.487 69.0797 61.5009ZM37.3756 83.6395C36.4429 85.073 35.6272 86.5394 34.4019 87.7226C36.2191 87.781 37.9964 87.7613 39.814 87.7675L44.8658 87.8075C44.5348 85.9362 45.1488 85.059 46.1324 83.495C46.216 83.3621 46.3027 83.2474 46.4263 83.1503L46.5748 83.1386L54.9029 83.1825C54.8648 85.0694 54.9648 86.297 53.8873 87.8808L59.5299 87.9188C60.2293 87.9188 62.1355 87.8785 62.7554 87.9647L62.8814 70.0517C62.9022 67.2543 62.976 64.2875 62.9459 61.4999L51.8199 61.4472L37.3756 83.6395ZM82.7369 54.3788C90.5987 54.9802 99.3865 56.1572 106.519 59.7011C107.903 60.3883 109.741 61.6055 110.728 62.7958C114.011 66.7544 113.723 73.1095 113.399 77.9433C113.291 79.5478 112.89 82.0632 112.396 83.5517C112.234 83.2896 112.007 82.8926 111.835 82.6513C112.228 81.3606 112.575 78.6998 112.65 77.3202C112.889 72.8695 113.147 66.8788 110.072 63.2499C109.068 62.0658 106.992 60.8158 105.583 60.1474C102.704 58.7825 99.6054 57.7915 96.4215 57.0585C95.9314 56.9457 95.4395 56.8382 94.9459 56.7372C90.752 55.879 86.4477 55.4326 82.3345 55.1386C82.4609 54.9056 82.6275 54.6143 82.7369 54.3788ZM92.689 66.4931C92.8147 66.6038 93.2049 67.2927 93.3101 67.4667L94.7379 69.8251C95.1382 70.4867 100.144 78.6933 100.158 78.8602C99.794 78.864 99.4352 78.8588 99.0718 78.8466C96.9182 78.7754 94.7461 78.8791 92.5953 78.7792L92.689 66.4931ZM55.3306 66.2606C55.4578 66.3943 55.3534 69.4994 55.3521 69.8583L55.3062 78.5429L47.8072 78.4931C47.7546 78.4733 47.7795 78.4912 47.7457 78.4227C47.9141 78.09 48.0973 77.8695 48.2847 77.5575C48.9094 76.5328 49.5423 75.5128 50.1832 74.4979L55.3306 66.2606ZM93.441 74.4384C93.4396 75.4815 93.4826 76.9699 93.4175 77.9843L94.7066 77.9755L98.7203 78.0145C97.4038 76.0075 96.0496 73.5727 94.7652 71.495C94.3825 70.789 93.9054 70.0364 93.4859 69.3446L93.441 74.4384ZM54.5484 69.0712C53.2814 71.0329 52.0782 73.0564 50.8238 75.0243C50.389 75.7063 49.6079 77.072 49.1549 77.6688C49.6066 77.7009 50.06 77.705 50.5123 77.6796C51.8304 77.6834 53.1484 77.6934 54.4664 77.7108C54.4157 75.7245 54.4879 73.3058 54.5152 71.2929C54.5821 70.7611 54.5512 69.646 54.5484 69.0712ZM81.8521 48.7636C81.3204 44.5049 77.4355 41.4848 73.1773 42.0204C68.9249 42.5555 65.9101 46.4344 66.441 50.6874C66.9721 54.9405 70.8485 57.9596 75.1021 57.4325C79.3611 56.9045 82.3837 53.022 81.8521 48.7636Z" fill="white"/>
</svg>
