<svg width="148" height="148" viewBox="0 0 148 148" fill="none" xmlns="http://www.w3.org/2000/svg">
<g style="mix-blend-mode:hard-light">
<path d="M32.9849 77.8344V70.1895C35.4613 70.1895 37.9108 70.1626 40.3603 70.1985C41.6449 70.2165 42.4564 71.6329 41.9234 72.8157C41.8276 73.0313 41.6748 73.2319 41.6389 73.4565C41.612 73.6302 41.6748 73.9416 41.7856 73.9925C42.5402 74.3339 42.5013 75.1244 42.5822 75.6904C42.654 76.1965 42.3187 76.8553 41.9773 77.3044C41.6419 77.7446 41.019 77.8404 40.4381 77.8374C38.9109 77.8315 37.3867 77.8374 35.8596 77.8374H32.9879L32.9849 77.8344ZM34 77.0709H40.7316C41.022 76.7744 41.3185 76.472 41.6209 76.1665C41.6209 75.9659 41.6329 75.7503 41.6209 75.5407C41.564 74.7651 41.1119 74.28 40.3603 74.274C38.2492 74.256 36.1381 74.268 34.003 74.268V77.0709H34ZM34 73.5014C35.8446 73.5014 37.5844 73.4954 39.3272 73.5014C40.0009 73.5014 40.5759 73.2559 41.07 72.9355V71.4083C40.6687 71.2556 40.2644 70.9801 39.8572 70.9711C37.9138 70.9232 35.9704 70.9501 34.003 70.9501V73.4984L34 73.5014Z" fill="white"/>
<path d="M20.7224 77.7955H19.7611V75.2712C19.1712 74.4627 18.4615 74.2261 17.5632 74.25C15.7485 74.3009 13.9309 74.265 12.0743 74.265V77.7835H11.1221C10.9993 77.6757 10.9424 73.5673 11.0801 70.1985C11.2658 70.1207 11.4814 69.95 11.7 69.947C13.4398 69.926 15.1796 69.923 16.9194 69.947C17.2248 69.95 17.5243 70.1356 17.8327 70.1805C18.1232 70.2225 18.4795 70.0877 18.7131 70.2105C19.2491 70.489 19.7252 70.8783 20.2313 71.2256C20.1564 72.1 20.4169 72.9594 19.6923 73.6392C20.5337 74.259 20.7523 75.1394 20.7254 76.1246C20.7104 76.6696 20.7254 77.2146 20.7254 77.7955H20.7224ZM11.9905 70.9531C12.242 71.8694 11.697 72.7678 12.4307 73.5314C14.5717 73.3637 16.7547 73.7859 18.9826 73.1451C19.0694 72.642 19.1592 72.1 19.2431 71.6089C18.3268 70.9681 18.3268 70.9561 17.7309 70.9561C15.8683 70.9501 14.0087 70.9561 11.9935 70.9561L11.9905 70.9531Z" fill="white"/>
<path d="M72.377 71.2526C72.4818 71.6149 72.5567 71.8754 72.6405 72.1719H71.826C71.4368 71.3214 70.739 70.9262 69.7329 70.9441C67.9931 70.9771 66.2533 70.9531 64.4027 70.9531C64.1542 71.2795 63.8637 71.6598 63.6062 71.9922C63.699 72.3336 63.7799 72.627 63.8607 72.9235C64.7381 73.3607 65.6664 73.5853 66.6665 73.5104C67.1726 73.4715 67.6847 73.4865 68.1937 73.5104C69.3047 73.5583 70.4156 73.6242 71.4008 73.6781C73.0747 74.813 73.2005 76.5438 71.5475 77.8404C69.2807 77.8404 66.9151 77.8584 64.5495 77.8314C63.5762 77.8225 62.9085 77.0379 62.8037 75.8491H63.6661C63.8008 76.1216 63.8787 76.5558 64.1332 76.7205C64.4387 76.9211 64.801 77.1068 65.2532 77.0918C66.8642 77.0439 68.4782 77.0589 70.0892 77.0798C70.6941 77.0858 71.2152 76.9541 71.6673 76.463V75.1634C71.2212 74.3459 70.2809 74.3549 69.4873 74.298C67.9662 74.1932 66.433 74.283 64.9058 74.262C63.9026 74.2471 63.0283 73.7051 62.8396 72.8995C62.7258 72.4234 62.8186 71.8964 62.8186 71.1777C62.9055 71.1088 63.148 70.9412 63.3666 70.7435C63.7739 70.3722 64.2231 70.1746 64.792 70.1806C66.6156 70.2015 68.4423 70.2105 70.2659 70.1746C70.9786 70.1596 71.5416 70.3722 72.0147 70.8813C72.1584 71.037 72.3141 71.1807 72.38 71.2466L72.377 71.2526Z" fill="white"/>
<path d="M53.1465 70.7016C53.0327 71.2646 53.1075 71.8485 53.0956 72.4264C53.0806 73.0193 53.0926 73.6152 53.0926 74.2081V77.7955H52.1313V70.2225H54.1406C55.4462 71.57 56.7848 72.7917 57.9197 74.1812C58.6833 75.1185 59.5547 75.927 60.471 76.9631V70.2135H61.4591V77.7716H59.9919C58.854 76.5378 57.6053 75.1873 56.3596 73.8398C55.5121 72.9235 54.494 72.1569 53.8322 71.0669C53.7454 70.9262 53.6076 70.8094 53.4729 70.7106C53.419 70.6687 53.3082 70.7046 53.1495 70.7046L53.1465 70.7016Z" fill="white"/>
<path d="M127.937 77.3044C127.299 76.4959 127.194 75.6335 127.242 74.7142C127.26 74.3728 126.934 73.9686 127.035 73.6901C127.266 73.0463 127.164 72.3875 127.293 71.7586C127.377 71.3514 127.535 70.9082 128.086 70.6597C128.691 70.3872 129.248 70.1626 129.925 70.1776C131.491 70.2105 133.057 70.1806 134.623 70.1895C135.911 70.1955 136.938 71.2166 136.947 72.4923C136.956 73.5493 136.839 74.6244 136.986 75.6604C137.085 76.3701 136.642 76.7564 136.369 77.1936C136.16 77.532 135.585 77.7326 135.138 77.8105C134.213 77.9692 133.267 78.074 132.327 78.068C131.261 78.065 130.189 77.9602 129.134 77.8105C128.688 77.7476 128.275 77.4511 127.94 77.3014L127.937 77.3044ZM128.625 76.7415C129.021 76.8612 129.356 77.0499 129.697 77.0559C131.302 77.0888 132.911 77.0918 134.519 77.0619C135.228 77.0469 135.618 76.5648 135.938 75.8042C136.384 74.7471 136.207 73.6601 136.133 72.6091C136.058 71.54 135.198 70.9621 134.108 70.9561C132.755 70.9501 131.401 70.9741 130.048 70.9441C129.524 70.9322 129.12 71.1358 128.709 71.4053C128.209 71.7317 128.077 72.3486 128.062 72.7708C128.024 74.1003 127.697 75.5047 128.619 76.7415H128.625Z" fill="white"/>
<path d="M116.594 70.2075H118.558C120.558 72.3725 122.636 74.6214 124.84 77.005C125.065 75.7623 124.936 74.6843 124.957 73.6182C124.981 72.5162 124.963 71.4143 124.963 70.2434C125.113 70.2255 125.266 70.1985 125.421 70.1895C125.583 70.1806 125.745 70.1895 125.945 70.1895V77.7356C125.643 78.2926 125.08 78.0231 124.571 78.1129C123.634 76.6546 122.184 75.6605 121.112 74.3309C120.061 73.0283 118.842 71.9054 117.713 70.7046C117.354 70.9322 117.306 71.2316 117.309 71.5969C117.327 73.5464 117.318 75.4988 117.318 77.4482V78.068H116.594V70.2075Z" fill="white"/>
<path d="M44.726 77.0768H51.269V77.7776H43.6899V70.2375H51.2839V70.9142H44.741V73.4775H50.9995V74.1842C51.0264 74.1482 50.9995 74.2081 50.9785 74.2081C48.9093 74.2111 46.8401 74.2111 44.726 74.2111V77.0739V77.0768Z" fill="white"/>
<path d="M102.867 72.1839H101.894C101.786 71.9353 101.738 71.543 101.519 71.3843C101.22 71.1628 100.879 70.9382 100.432 70.9442C98.7765 70.9711 97.1175 70.9052 95.4646 70.9741C94.4734 71.013 93.9553 71.4293 93.8865 72.5612C93.8146 73.747 93.8715 74.9388 93.8715 76.1426C94.3925 76.8642 95.0992 77.1188 95.9976 77.0858C97.396 77.0349 98.8004 77.0798 100.202 77.0679C100.519 77.0679 100.816 76.996 101.139 76.8792C101.699 76.6756 101.777 76.3282 101.822 75.8371H102.723C102.741 75.921 102.813 76.0467 102.789 76.1486C102.526 77.2595 101.837 77.8344 100.756 77.8374C98.9292 77.8434 97.1055 77.8434 95.2789 77.8374C93.9613 77.8374 92.9372 76.9211 92.8654 75.6185C92.8145 74.6453 92.7875 73.6601 92.8803 72.6929C92.9342 72.124 93.1798 71.546 93.4493 71.028C93.7547 70.4351 94.4434 70.2375 95.0034 70.2375C95.6802 70.2375 96.2701 69.8991 96.9349 69.935C97.5697 69.968 98.2105 69.9111 98.8453 69.95C99.6628 70.0009 100.504 70.0099 101.277 70.2315C101.849 70.3932 102.561 70.6297 102.555 71.5041C102.555 71.7048 102.735 71.9084 102.873 72.1929L102.867 72.1839Z" fill="white"/>
<path d="M109.76 70.2015H111.105C111.284 70.4111 111.56 70.6297 111.701 70.9142C112.857 73.205 114.168 75.4059 115.447 77.6278C115.504 77.7266 115.522 77.8494 115.579 78.0321H114.617C114.255 77.4332 113.848 76.7594 113.435 76.0797H107.493C107.302 76.442 107.053 76.7684 106.948 77.1397C106.733 77.8943 106.26 77.9542 105.538 77.7446C106.957 75.2083 108.359 72.7079 109.757 70.2045L109.76 70.2015ZM112.719 75.2472C112.68 75.0256 112.698 74.7351 112.581 74.5166C112.066 73.5404 111.512 72.5851 110.976 71.6209C110.853 71.3993 110.734 71.1747 110.566 70.8603C109.647 72.3456 108.778 73.6991 108.074 75.2502H112.719V75.2472Z" fill="white"/>
<path d="M81.6361 70.2285H82.6542C82.6542 71.7077 82.6452 73.22 82.6602 74.7322C82.6632 75.0945 82.6902 75.4778 82.8099 75.8132C83.1184 76.6636 83.7562 77.0828 84.6725 77.0768C85.9452 77.0679 87.2178 77.0289 88.4875 77.0918C89.3529 77.1337 90.0027 76.8343 90.4309 76.3162C91.0178 74.2351 90.7243 72.2258 90.8351 70.2195H91.5718C91.5718 72.0491 91.6107 73.8638 91.5568 75.6724C91.5209 76.8942 90.4548 77.8344 89.2331 77.8404C87.4963 77.8494 85.7565 77.8524 84.0197 77.8404C83.2022 77.8344 82.1182 77.1427 81.9445 76.4869C81.7918 75.906 81.663 75.3041 81.6451 74.7052C81.6032 73.2289 81.6301 71.7527 81.6301 70.2374L81.6361 70.2285Z" fill="white"/>
<path d="M22.7615 69.8871C22.7615 71.537 22.7525 73.0972 22.7675 74.6573C22.7675 74.9747 22.7226 75.2801 22.9202 75.6155C23.1148 75.9479 23.0699 76.451 23.4921 76.6366C23.9233 76.8253 24.3875 77.0319 24.8426 77.0469C26.2411 77.1008 27.6455 77.0798 29.0469 77.0619C30.0021 77.0469 30.3794 76.5887 30.6909 75.6215C30.9035 74.9657 30.9125 74.3339 30.9154 73.6811C30.9214 72.5761 30.9154 71.4742 30.9184 70.3692C30.9184 70.3333 30.9514 70.2973 30.9873 70.2255H31.682V73.3397C31.682 74.0614 31.703 74.7831 31.676 75.5047C31.6281 76.8223 30.6729 77.8015 29.3643 77.8254C27.5826 77.8584 25.7979 77.8494 24.0132 77.8254C23.1927 77.8135 22.0967 76.7894 21.9979 75.9719C21.8931 75.1184 21.7883 74.262 21.7493 73.4026C21.7074 72.5132 21.7464 71.6209 21.7374 70.7285C21.7374 70.468 21.7194 70.1985 21.9919 70.0757C22.1985 69.9829 22.4381 69.9619 22.7615 69.8871Z" fill="white"/>
<path d="M74.0122 77.7925V70.2345H74.671C74.65 70.2165 74.7099 70.2434 74.7099 70.2734C74.7129 72.5103 74.7129 74.7441 74.7129 77.0649H81.1031V77.7925H74.0122Z" fill="white"/>
<path d="M104.532 77.8105H103.855V70.2135H104.532V77.8105Z" fill="white"/>
</g>
</svg>
