<svg width="148" height="148" viewBox="0 0 148 148" fill="none" xmlns="http://www.w3.org/2000/svg">
<path d="M73.8268 28H75.1757C81.3367 28.5414 84.1316 31.5931 87.5463 37.0504C90.7747 42.2144 93.9625 47.4092 97.1099 52.6348C97.164 52.7214 97.2386 52.7927 97.3268 52.8422C97.415 52.8917 97.5138 52.9177 97.6142 52.9178H101.722C102.326 52.9178 102.905 53.1609 103.333 53.5936C103.76 54.0262 104 54.6131 104 55.225V92.7555C104 93.3674 103.76 93.9542 103.333 94.3869C102.905 94.8196 102.326 95.0627 101.722 95.0627H97.043C96.8527 95.0627 96.7068 95.1427 96.6056 95.3026C92.7939 101.422 88.9438 107.517 85.0552 113.588C79.3134 122.571 67.3924 121.882 61.8572 112.985C58.2076 107.12 54.5559 101.242 50.9023 95.3519C50.8535 95.2721 50.7859 95.2058 50.7053 95.1586C50.6248 95.1114 50.5339 95.0848 50.4405 95.0811C48.0101 95.0073 44.9904 95.9917 44 93.0077V55.0527C45.0572 52.0318 48.5752 52.9301 50.9873 52.9116C51.0809 52.9114 51.1727 52.8877 51.2545 52.8425C51.3362 52.7974 51.4052 52.7323 51.4552 52.6532C55.2182 46.6525 58.9772 40.6537 62.7322 34.657C65.2881 30.58 68.9863 28.3609 73.8268 28ZM95.9554 54.659C92.1316 48.3916 88.2714 42.1467 84.3747 35.9245C80.6927 30.0488 73.0977 28.1046 67.5868 32.3129C66.3433 33.2604 64.6906 35.3728 62.6289 38.65C59.2709 43.974 55.9332 49.3186 52.6157 54.6836C52.5185 54.8394 52.3808 54.9174 52.2025 54.9174L46.4425 54.9235C46.3168 54.9235 46.1963 54.9741 46.1074 55.0641C46.0185 55.1541 45.9686 55.2761 45.9686 55.4034L45.9808 57.5937C45.9824 57.7003 46.0247 57.802 46.0986 57.8769C46.1725 57.9517 46.272 57.9936 46.3757 57.9936H101.649C101.904 57.9936 102.031 57.8644 102.031 57.606L102.019 55.3173C102.018 55.2107 101.975 55.109 101.901 55.0341C101.828 54.9593 101.728 54.9174 101.624 54.9174H96.4051C96.2066 54.9174 96.0567 54.8312 95.9554 54.659ZM52.4942 68.293C52.6096 68.2894 52.7225 68.327 52.8133 68.3992C52.9041 68.4714 52.967 68.5736 52.9909 68.688C53.0148 68.8023 52.9982 68.9216 52.944 69.0248C52.8899 69.1281 52.8016 69.2088 52.6947 69.2528C46.6127 71.5784 46.3635 63.3402 51.4552 64.0662C52.4881 64.22 53.1686 64.0108 53.3691 62.928C53.4096 62.7311 53.3387 62.5875 53.1565 62.4973C45.3246 58.652 42.7727 71.6461 50.3251 71.9722C53.0896 72.0891 55.3438 70.1818 55.684 67.3763C55.703 67.222 55.6895 67.0653 55.6444 66.9168C55.5994 66.7682 55.5237 66.6312 55.4225 66.5148C55.3214 66.3984 55.197 66.3053 55.0577 66.2416C54.9184 66.178 54.7674 66.1453 54.6147 66.1458H51.4673C51.1982 66.1559 50.9428 66.2691 50.7529 66.4625C50.563 66.656 50.4526 66.9152 50.4442 67.1878C50.4357 67.4604 50.5297 67.7261 50.7072 67.9313C50.8847 68.1364 51.1325 68.2657 51.4005 68.293C51.7205 68.3135 52.0851 68.3135 52.4942 68.293ZM61.6749 69.9482C62.3473 70.3625 62.8314 70.9429 63.1271 71.6894C63.2081 71.8904 63.3559 71.9908 63.5706 71.9908H65.2719C65.5311 71.9908 65.5899 71.8801 65.4481 71.6586L64.2633 69.7513C64.1539 69.5749 64.1843 69.4273 64.3544 69.3083C67.0886 67.3887 66.6997 63.6172 63.8805 62.2391C62.7261 61.673 61.1828 61.7961 59.9008 61.8515C59.6278 61.8626 59.3697 61.9803 59.1805 62.1798C58.9914 62.3794 58.8859 62.6454 58.8861 62.922V71.6032C58.8861 71.8616 59.0137 71.9908 59.2689 71.9908H60.5327C60.8243 71.9908 60.9782 71.8432 60.9944 71.5479L61.0552 70.2804C61.0585 70.2088 61.0801 70.1393 61.118 70.0787C61.1559 70.0182 61.2088 69.9687 61.2714 69.9351C61.334 69.9016 61.4041 69.8851 61.4749 69.8874C61.5456 69.8897 61.6146 69.9107 61.6749 69.9482ZM75.7043 63.1187C75.1271 60.953 72.2106 61.5867 71.597 63.7647C70.8719 66.3529 70.1711 68.9554 69.4947 71.5723C69.4218 71.8512 69.5271 71.9907 69.8106 71.9907H71.1291C71.249 71.9903 71.3654 71.9497 71.46 71.875C71.5546 71.8004 71.622 71.6961 71.6516 71.5784L72.0101 70.2372C72.0506 70.0731 72.1559 69.9911 72.3261 69.9911H75.042C75.281 69.9911 75.4289 70.108 75.4856 70.3418L75.8076 71.6154C75.8335 71.7227 75.8944 71.8181 75.9803 71.8862C76.0663 71.9543 76.1724 71.9911 76.2815 71.9907H77.7154C77.9504 71.9907 78.0375 71.8738 77.9767 71.64C77.2152 68.7811 76.4577 65.9407 75.7043 63.1187ZM86.8233 67.1425L83.4754 62.0851C83.337 61.8778 83.1365 61.7205 82.9034 61.6366C82.6704 61.5526 82.4171 61.5463 82.1809 61.6187C81.9447 61.6911 81.7381 61.8382 81.5916 62.0385C81.4451 62.2388 81.3664 62.4816 81.3671 62.7311V71.6092C81.3671 71.8676 81.4947 71.9968 81.7499 71.9968L83.1048 71.9784C83.364 71.9743 83.4937 71.841 83.4937 71.5784V66.7549C83.493 66.704 83.5087 66.6544 83.5384 66.6134C83.5681 66.5724 83.6101 66.5424 83.6582 66.5278C83.7063 66.5132 83.7577 66.5148 83.8048 66.5325C83.8518 66.5501 83.8919 66.5828 83.919 66.6256L87.1392 71.6707C87.2846 71.897 87.4981 72.0698 87.7481 72.1635C87.9982 72.2571 88.2713 72.2667 88.5271 72.1907C88.7829 72.1147 89.0077 71.9573 89.1682 71.7417C89.3286 71.5261 89.4161 71.2639 89.4177 70.9939V62.2204C89.4177 61.962 89.2901 61.8328 89.0349 61.8328L87.6071 61.8513C87.2952 61.8513 87.1392 62.0092 87.1392 62.325V67.044C87.1392 67.4296 87.0339 67.4624 86.8233 67.1425ZM99.1696 62.9957C98.7078 61.4698 96.8547 61.6421 95.8096 62.3312C95.6451 62.4423 95.5264 62.6084 95.4754 62.7988L93.0997 71.5846C93.0268 71.8553 93.1301 71.9907 93.4096 71.9907H94.7646C94.9914 71.9907 95.1413 71.882 95.2142 71.6646L95.6699 70.3049C95.7387 70.0957 95.8825 69.9911 96.1013 69.9911H98.7139C98.9448 69.9911 99.0825 70.1059 99.1271 70.3356L99.3762 71.6092C99.3973 71.7138 99.453 71.8077 99.5338 71.875C99.6147 71.9423 99.7157 71.9788 99.8197 71.9784L101.266 71.9968C101.318 71.9978 101.37 71.9863 101.417 71.9633C101.464 71.9402 101.506 71.9063 101.538 71.864C101.57 71.8218 101.593 71.7723 101.604 71.7196C101.614 71.6669 101.613 71.6123 101.6 71.56C100.838 68.6437 100.028 65.7889 99.1696 62.9957ZM48.4233 84.1481C51.042 84.3573 53.1018 82.7084 53.041 79.9951C52.962 76.7712 49.0491 74.9993 46.3453 76.2913C46.2346 76.3447 46.141 76.4291 46.0754 76.5347C46.0098 76.6403 45.9749 76.7628 45.9747 76.8881V85.84C45.9747 86.1518 46.1286 86.3056 46.4365 86.3015L47.7124 86.283C47.9716 86.2789 48.1013 86.1456 48.1013 85.8831V84.4496C48.1013 84.2322 48.2086 84.1317 48.4233 84.1481ZM56.2858 84.2962H59.2023C59.2925 84.2962 59.3791 84.3325 59.4429 84.3971C59.5067 84.4618 59.5425 84.5494 59.5425 84.6408C59.5506 86.0148 60.2372 86.5542 61.6023 86.2589C61.8777 86.1974 61.981 86.0271 61.9121 85.7482C61.2073 83.037 60.5066 80.3463 59.8099 77.6761C59.4818 76.4169 58.7162 75.8549 57.5132 75.9903C56.0367 76.1564 55.7815 77.2639 55.423 78.5128C54.7182 80.9574 54.058 83.4267 53.4423 85.9205C53.4292 85.9716 53.4285 86.0251 53.4404 86.0765C53.4522 86.1279 53.4762 86.1756 53.5103 86.2155C53.5443 86.2554 53.5874 86.2864 53.6359 86.3057C53.6844 86.3251 53.7368 86.3322 53.7886 86.3266L55.1496 86.1974C55.2603 86.1868 55.3652 86.1415 55.45 86.0678C55.5348 85.994 55.5954 85.8953 55.6235 85.7851L55.9334 84.5731C55.978 84.3885 56.0954 84.2962 56.2858 84.2962ZM63.7529 76.8696V85.4217C63.7529 85.6501 63.8425 85.8692 64.0021 86.0307C64.1616 86.1923 64.3779 86.283 64.6035 86.283H65.8916C67.2968 86.283 68.6444 85.7534 69.6381 84.8107C70.6317 83.8681 71.1899 82.5895 71.1899 81.2564V81.0349C71.1899 79.7018 70.6317 78.4232 69.6381 77.4805C68.6444 76.5379 67.2968 76.0083 65.8916 76.0083H64.6035C64.3779 76.0083 64.1616 76.099 64.0021 76.2606C63.8425 76.4221 63.7529 76.6412 63.7529 76.8696ZM74.9813 84.2957H77.8977C78.0922 84.2957 78.2096 84.3921 78.2501 84.5849L78.4932 85.7662C78.5539 86.0533 78.7281 86.2071 79.0157 86.2276L80.3828 86.3199C80.6785 86.3404 80.7878 86.2071 80.7109 85.92C80.0304 83.34 79.3458 80.7539 78.6572 78.1617C78.1833 76.3959 77.1139 75.5591 75.3519 76.279C75.1443 76.3632 74.9589 76.4948 74.8102 76.6635C74.6615 76.8322 74.5537 77.0333 74.4952 77.2511L72.1559 85.9815C72.0871 86.2399 72.1863 86.3568 72.4537 86.3322L73.9787 86.1907C74.238 86.1661 74.3858 86.0226 74.4223 85.76L74.5742 84.6526C74.59 84.5533 74.6396 84.4629 74.7142 84.3976C74.7887 84.3322 74.8834 84.2961 74.9813 84.2957ZM84.8911 80.9488C86.2704 82.7638 87.3762 86.2276 89.9281 86.2646C90.1954 86.2687 90.3291 86.1354 90.3291 85.8646V76.2728C90.3291 76.0513 90.2197 75.9467 90.001 75.959L88.6096 76.0575C88.3382 76.078 88.2025 76.2236 88.2025 76.4943V81.3671C88.2023 81.4097 88.1885 81.451 88.1631 81.4849C88.1378 81.5188 88.1023 81.5435 88.0619 81.5552C88.0216 81.567 87.9785 81.5652 87.9393 81.5502C87.9 81.5351 87.8666 81.5076 87.8441 81.4717C86.8233 79.8967 84.9823 75.7253 82.801 76.0083C82.5539 76.0411 82.4304 76.1826 82.4304 76.4328V85.9569C82.4304 86.2564 82.5762 86.3835 82.8678 86.3384L84.1681 86.1292C84.4273 86.0882 84.557 85.9344 84.557 85.6678V81.0595C84.557 80.6863 84.6684 80.6493 84.8911 80.9488ZM102.359 81.1337C102.359 79.7924 101.833 78.5061 100.896 77.5576C99.9596 76.6092 98.6893 76.0763 97.3647 76.0763C96.0401 76.0763 94.7697 76.6092 93.8331 77.5576C92.8965 78.5061 92.3703 79.7924 92.3703 81.1337C92.3703 82.475 92.8965 83.7614 93.8331 84.7098C94.7697 85.6583 96.0401 86.1911 97.3647 86.1911C98.6893 86.1911 99.9596 85.6583 100.896 84.7098C101.833 83.7614 102.359 82.475 102.359 81.1337ZM63.8562 112.481C67.3863 118.202 75.5463 119.759 80.7109 115.575C81.8329 114.669 83.2749 112.811 85.037 110.001C88.5124 104.456 91.9818 98.9019 95.4451 93.34C95.4969 93.2551 95.5694 93.1851 95.6555 93.1367C95.7417 93.0882 95.8387 93.0629 95.9372 93.0631H101.266C101.467 93.0631 101.66 92.9821 101.803 92.8379C101.945 92.6936 102.025 92.498 102.025 92.294V90.4483C102.025 90.2432 101.924 90.1407 101.722 90.1407H46.2785C46.0719 90.1407 45.9686 90.2453 45.9686 90.4544L45.9808 92.5155C45.9824 92.6613 46.0413 92.8006 46.1448 92.9031C46.2484 93.0057 46.3881 93.0631 46.5337 93.0631H51.5889C51.7873 93.0631 51.9392 93.1472 52.0446 93.3154C55.9777 99.714 59.9149 106.102 63.8562 112.481Z" fill="white"/>
<path d="M76.543 34.7328C79.2711 35.5326 80.1946 37.3353 82.0296 40.2147C85.0635 44.989 88.063 49.745 91.028 54.4824C91.2103 54.7736 91.1313 54.9192 90.7911 54.9192H57.8108C57.4908 54.9192 57.4179 54.7839 57.5921 54.5132C60.8366 49.3984 64.1136 44.2754 67.423 39.1441C69.7744 35.4957 72.2898 33.4899 76.543 34.7328Z" fill="white"/>
<path d="M61.0127 64.33C61.0126 64.2364 61.0489 64.1466 61.1137 64.0798C61.1785 64.0131 61.2666 63.9748 61.359 63.9731H62.0152C62.2823 63.9723 62.5469 64.019 62.7939 64.1105C63.0408 64.2019 63.2653 64.3364 63.4544 64.5061C63.6435 64.6759 63.7935 64.8776 63.8958 65.0997C63.9981 65.3218 64.0507 65.56 64.0506 65.8004V65.9973C64.0504 66.4809 63.8373 66.9447 63.4581 67.2872C63.0789 67.6297 62.5644 67.823 62.0273 67.8246H61.3711C61.3244 67.8255 61.2779 67.8168 61.2344 67.7993C61.191 67.7817 61.1514 67.7555 61.118 67.7223C61.0846 67.6891 61.0581 67.6495 61.0401 67.6058C61.022 67.5621 61.0126 67.5152 61.0127 67.4678V64.33Z" fill="white"/>
<path d="M97.1881 64.3002C97.1973 64.2682 97.2165 64.2402 97.2428 64.2202C97.2691 64.2002 97.301 64.1894 97.3339 64.1894C97.3668 64.1894 97.3988 64.2002 97.4251 64.2202C97.4513 64.2402 97.4705 64.2682 97.4797 64.3002L98.3607 67.4995C98.4215 67.7251 98.3364 67.8379 98.1056 67.8379H96.7324C96.4367 67.8379 96.3253 67.6923 96.3982 67.4011L97.1881 64.3002Z" fill="white"/>
<path d="M73.5234 64.6204C73.5362 64.579 73.5616 64.5429 73.5961 64.5173C73.6305 64.4917 73.6721 64.4778 73.7148 64.4778C73.7576 64.4778 73.7992 64.4917 73.8336 64.5173C73.8681 64.5429 73.8935 64.579 73.9062 64.6204L74.6961 67.3951C74.7101 67.4472 74.7121 67.5018 74.7019 67.5547C74.6917 67.6076 74.6695 67.6575 74.6372 67.7003C74.6049 67.7432 74.5632 67.7779 74.5155 67.8018C74.4677 67.8257 74.4152 67.8381 74.3619 67.8381H73.0556C72.7761 67.8381 72.6728 67.7028 72.7457 67.4321L73.5234 64.6204Z" fill="white"/>
<path d="M65.8808 78.5074C65.8808 78.473 65.8876 78.4389 65.9008 78.4071C65.914 78.3753 65.9334 78.3466 65.9577 78.3225C65.982 78.2984 66.0109 78.2795 66.0426 78.2669C66.0742 78.2543 66.1081 78.2482 66.1421 78.249H66.2211C66.9736 78.2523 67.694 78.5543 68.2239 79.0885C68.7537 79.6227 69.0496 80.3454 69.0464 81.0977V81.1838C69.0448 81.5563 68.9698 81.9248 68.8258 82.2683C68.6817 82.6118 68.4714 82.9236 68.2068 83.1858C67.9422 83.448 67.6285 83.6556 67.2836 83.7966C66.9387 83.9377 66.5694 84.0094 66.1968 84.0078H66.1178C66.0512 84.0062 65.9878 83.9783 65.9413 83.93C65.8947 83.8817 65.8687 83.8169 65.8687 83.7494L65.8808 78.5074Z" fill="white"/>
<path d="M48.0992 78.6716C48.0992 78.5671 48.1401 78.467 48.2131 78.3931C48.286 78.3193 48.3849 78.2778 48.488 78.2778L48.9012 78.2839C49.4457 78.2859 49.9672 78.4749 50.3512 78.8095C50.7351 79.144 50.9501 79.5968 50.9488 80.0682V80.2158C50.9482 80.4494 50.8944 80.6806 50.7905 80.8961C50.6866 81.1115 50.5347 81.3072 50.3434 81.4717C50.1521 81.6363 49.9253 81.7665 49.6757 81.8551C49.4262 81.9436 49.1588 81.9887 48.8891 81.9878L48.4759 81.9816C48.3728 81.9816 48.2738 81.9401 48.2009 81.8663C48.128 81.7924 48.087 81.6923 48.087 81.5879L48.0992 78.6716Z" fill="white"/>
<path d="M97.3649 83.9949C98.9253 83.9949 100.19 82.714 100.19 81.1339C100.19 79.5539 98.9253 78.273 97.3649 78.273C95.8045 78.273 94.5396 79.5539 94.5396 81.1339C94.5396 82.714 95.8045 83.9949 97.3649 83.9949Z" fill="white"/>
<path d="M56.7275 81.7504L57.4809 78.6988C57.4911 78.6547 57.5156 78.6154 57.5504 78.587C57.5852 78.5587 57.6283 78.5429 57.673 78.5422C57.7176 78.5415 57.7613 78.5559 57.7969 78.5831C57.8326 78.6104 57.8582 78.6489 57.8698 78.6926L58.6961 81.7258C58.7034 81.7552 58.7041 81.7859 58.6981 81.8157C58.6921 81.8454 58.6796 81.8734 58.6615 81.8976C58.6435 81.9218 58.6203 81.9416 58.5937 81.9555C58.5671 81.9694 58.5377 81.9771 58.5078 81.9781L56.9219 82.0027C56.8915 82.0027 56.8614 81.9956 56.834 81.9821C56.8067 81.9686 56.7827 81.9489 56.764 81.9246C56.7452 81.9002 56.7322 81.8719 56.7259 81.8418C56.7196 81.8116 56.7201 81.7803 56.7275 81.7504Z" fill="white"/>
<path d="M75.4556 81.7177L76.2941 78.6845C76.3061 78.6424 76.3316 78.6056 76.3666 78.5798C76.4015 78.5541 76.444 78.5409 76.4872 78.5423C76.5304 78.5437 76.5719 78.5596 76.6052 78.5876C76.6385 78.6156 76.6616 78.654 76.6708 78.6968L77.3756 81.7669C77.3821 81.7961 77.3819 81.8264 77.3751 81.8555C77.3683 81.8846 77.355 81.9118 77.3362 81.9349C77.3175 81.958 77.2938 81.9765 77.2669 81.989C77.2401 82.0015 77.2108 82.0076 77.1812 82.0068L75.6379 81.9699C75.6081 81.9693 75.5788 81.9616 75.5523 81.9477C75.5259 81.9337 75.5029 81.9137 75.4853 81.8894C75.4677 81.865 75.4558 81.8368 75.4507 81.807C75.4455 81.7772 75.4472 81.7467 75.4556 81.7177Z" fill="white"/>
<path d="M77.2818 112.677C75.052 114.117 70.2094 114.136 68.253 111.133C64.4251 105.247 60.6661 99.3654 56.976 93.4877C56.9502 93.446 56.9361 93.3982 56.9352 93.349C56.9342 93.2999 56.9464 93.2512 56.9705 93.2081C56.9946 93.1649 57.0298 93.1287 57.0724 93.1032C57.115 93.0778 57.1635 93.0639 57.213 93.0631H90.333C90.3756 93.0624 90.4176 93.0736 90.4543 93.0955C90.491 93.1174 90.5213 93.1493 90.5418 93.1877C90.5623 93.2261 90.5724 93.2696 90.5709 93.3138C90.5694 93.3579 90.5565 93.401 90.5335 93.4385C87.6292 97.9462 84.7289 102.483 81.8327 107.048C79.9087 110.083 78.3917 111.96 77.2818 112.677Z" fill="white"/>
</svg>
