<svg width="148" height="148" viewBox="0 0 148 148" fill="none" xmlns="http://www.w3.org/2000/svg">
<path d="M23.837 59.141L29.7703 59.1384C31.3176 59.1382 33.0522 59.0235 34.5491 59.3631C38.9315 60.3573 39.8004 66.7279 36.9024 69.7193C35.072 71.6087 31.96 71.3106 29.5748 71.3052V80.7032H32.3152V81.5658H23.837V80.7032H26.5261V60.001H23.837V59.141ZM29.5748 70.4239C31.1624 70.4296 33.2404 70.7013 34.351 69.3386C34.7603 68.7431 35.0983 68.0042 35.2017 67.2905C35.486 65.3267 35.7414 61.8378 34.0156 60.4868C33.185 59.8366 30.5876 59.997 29.5748 60.001V70.4239Z" fill="white"/>
<path d="M52.4979 68.2209C53.6268 68.1663 55.0965 68.1501 55.9857 68.9759C56.3287 69.2943 56.5373 69.6951 56.6451 70.1538C56.8745 71.1294 56.8055 72.225 56.806 73.2242L56.8048 77.0944C56.804 77.8176 56.7767 78.5518 56.8163 79.2736C56.8317 79.5548 56.8743 80.0558 57.102 80.2527C57.6684 80.7424 58.072 79.5641 58.5122 79.516L58.5479 79.5818C58.5377 80.1282 58.352 80.7194 58.0501 81.1699C57.7519 81.615 57.339 81.8657 56.8242 81.9617C56.3286 82.0542 55.8099 81.9944 55.3903 81.6923C54.6597 81.1661 54.4567 80.2003 54.3134 79.3538C53.9701 79.9667 53.5579 80.5581 53.0483 81.0373C52.3874 81.6588 51.572 82.0474 50.6634 82.0027C49.8062 81.9605 49.2038 81.5801 48.643 80.943C48.2688 80.4288 48.0399 79.8455 47.9729 79.2064C47.8602 78.1314 48.096 76.9965 48.7709 76.1486C50.0713 74.5147 52.4077 74.2376 54.3117 74.0393C54.3161 72.8628 54.3685 71.6465 54.2402 70.4767C54.1907 70.0251 54.0899 69.5233 53.7214 69.227C53.2899 68.88 52.4278 68.9422 51.9035 69.0128C51.5263 69.0636 51.0361 69.16 50.7932 69.4957C50.4109 70.0237 50.8628 70.7583 50.9355 71.3212C50.9845 71.7004 50.9557 72.1309 50.7199 72.444C50.5299 72.6961 50.2216 72.8737 49.9136 72.9098C49.6485 72.9408 49.4022 72.8745 49.1919 72.7025C48.8555 72.427 48.7115 71.9879 48.6672 71.5613C48.5975 70.8911 48.8066 70.2429 49.2177 69.7228C50.04 68.6825 51.2613 68.3479 52.4979 68.2209ZM51.2904 80.2234C51.631 80.4313 51.9491 80.5172 52.3418 80.412C52.9834 80.2401 53.5074 79.6708 53.8297 79.1001C54.506 77.9029 54.3183 76.1806 54.3117 74.8462L53.8643 74.8697C52.9065 74.9717 51.7521 75.1025 51.1065 75.9249C50.5457 76.6392 50.4081 77.6974 50.5071 78.584C50.5778 79.2179 50.8084 79.8043 51.2904 80.2234Z" fill="white"/>
<path d="M89.783 68.038C89.9598 68.0083 90.1439 68.0027 90.3226 68.0016C91.0185 67.9976 91.6628 68.2583 92.1541 68.7652C92.6363 69.2618 92.9572 69.9198 93.1218 70.5954C93.4977 72.1381 93.378 73.9067 93.378 75.4914L93.377 80.7032H95.3439V81.5898H89.1908V80.7032H90.8846L90.8855 74.6108C90.8865 73.2617 90.9328 71.8909 90.8203 70.546C90.7901 70.1849 90.7589 69.7125 90.5773 69.3983C90.4609 69.1964 90.2695 69.0603 90.0484 69.0057C89.6247 68.901 89.1226 69.0343 88.7589 69.2672C87.5691 70.0285 87.0485 71.5344 86.7447 72.8603C86.5391 74.1476 86.5635 75.4196 86.5635 76.7185L86.5659 80.7032H88.2188V81.5898H82.2756V80.7032H84.0847V69.2894H82.2756V68.4184C83.7243 68.4258 85.1303 68.3968 86.5659 68.1635V71.4939C86.79 70.9257 87.0427 70.3636 87.367 69.8478C87.9578 68.9097 88.7028 68.275 89.783 68.038Z" fill="white"/>
<path d="M75.8361 68.0311C75.8799 68.0229 75.9242 68.0172 75.9686 68.0141C77.0258 67.9403 77.9516 68.2498 78.7488 68.9762C80.18 70.2802 80.5725 72.1207 80.6826 74.0011H74.249C74.2451 75.5794 74.0917 78.8957 74.7467 80.2084C74.9668 80.6503 75.3199 80.9754 75.7835 81.1256C76.4473 81.3408 77.2454 81.2222 77.8566 80.896C79.0234 80.2731 79.563 79.0036 79.9414 77.7858L80.1279 77.107L80.6875 77.1077C80.3924 78.5562 79.9628 80.1493 78.8252 81.0671C75.4494 83.7896 72.0064 80.104 71.5506 76.6606C71.1775 73.8413 71.5915 71.2167 73.6081 69.1791C74.2427 68.5379 74.9882 68.1777 75.8361 68.0311ZM74.249 73.2238H77.9316C78.0426 72.0494 78.271 70.2825 77.4777 69.3015C77.1958 68.953 76.8315 68.8157 76.401 68.7776C76.3245 68.7709 76.2379 68.7573 76.1624 68.7678C75.6189 68.8119 75.1601 68.9546 74.7959 69.3954C74.0225 70.33 74.2422 72.0654 74.249 73.2238Z" fill="white"/>
<path d="M100.857 64.6144L100.882 64.6138C101.014 64.7549 100.936 67.9446 100.936 68.4032H103.934C103.938 68.6987 103.935 68.9941 103.923 69.2894H100.936C100.936 70.7593 100.772 79.316 101.175 80.1835C101.278 80.4041 101.464 80.5717 101.691 80.6472C102.026 80.7573 102.512 80.6719 102.815 80.5038C103.576 80.0806 103.872 79.2976 104.119 78.5141L104.68 78.5167C104.523 79.2703 104.393 79.6978 104 80.3678C102.743 82.2596 98.989 82.47 98.5985 79.7707C98.3944 78.3591 98.4426 76.9253 98.4422 75.5012L98.4436 69.2894H96.1957V68.4032H98.4436V64.8857C99.2213 64.8991 100.095 64.7625 100.857 64.6144Z" fill="white"/>
<path d="M65.2713 68.0262C67.5451 67.7116 69.7857 69.7032 69.3528 71.9885C68.9091 74.3313 66.143 73.064 66.9836 70.9281C67.1594 70.4817 67.7433 69.8853 67.305 69.3841C66.5648 68.5374 65.0829 68.6061 64.2438 69.2639C63.4188 69.9204 63.3424 71.2374 63.2498 72.2253C63.1632 73.667 63.2084 75.1815 63.244 76.628C63.2732 77.8095 63.3258 79.1147 63.8406 80.1932C64.1459 80.8166 64.6894 81.1364 65.3473 81.2097C66.2268 81.3076 66.8209 81.0481 67.491 80.5055C68.4499 79.5908 68.8497 78.2626 69.1916 77.0141L69.7482 77.0165C69.5174 78.334 69.2369 79.3717 68.4548 80.4746C67.1862 82.2638 64.6787 82.4875 63.0244 81.0991C59.9118 78.4865 59.6211 73.1327 62.0781 69.9585C62.9265 68.8625 63.8854 68.1996 65.2713 68.0262Z" fill="white"/>
<path d="M110.228 68.1685C110.325 68.2874 110.268 79.4838 110.268 80.7032H111.921C111.925 80.9988 111.922 81.2945 111.91 81.5898H106.007V80.7032H107.787V69.2894H106.007V68.4184C107.43 68.4231 108.825 68.4579 110.228 68.1685Z" fill="white"/>
<path d="M44.5266 68.1713C44.5815 68.4943 44.5429 68.8942 44.5435 69.2243L44.5371 71.7507L44.5387 80.7032H46.1944V81.5898L42.5604 81.5913C41.8074 81.5916 41.0405 81.6255 40.2907 81.5525V80.7032H42.0611V69.2894H40.2907V68.4184C41.7312 68.42 43.1031 68.4358 44.5266 68.1713Z" fill="white"/>
<path d="M102.812 60.0404C102.588 60.0443 102.47 60.0423 102.247 60.0144L102.239 59.941C102.468 59.7775 104.399 59.8029 104.545 59.931C104.377 60.0774 104.12 60.048 103.911 60.0404L103.911 63.6141C104.089 63.6071 104.365 63.5649 104.484 63.7097C104.262 63.8797 102.034 63.8006 101.609 63.8178C99.514 63.903 101.306 61.7674 99.4113 61.7944V63.614C99.4902 63.6115 99.5691 63.6098 99.6475 63.6089C99.8145 63.6076 99.8895 63.5894 99.9908 63.6923L99.966 63.7829C99.6333 63.8349 98.0448 63.828 97.7044 63.7516L97.7326 63.7052C97.9186 63.581 98.0798 63.6071 98.3009 63.6139V60.0404C97.9751 60.0365 97.6951 60.0448 97.3708 60.0596C97.3382 60.658 97.3503 61.4966 97.3688 62.0859C97.4429 63.3117 96.9388 63.9331 95.7116 63.8886C94.9373 63.8605 94.5701 63.8641 93.9911 63.2589C93.7831 62.5949 93.863 60.8039 93.8674 60.0408C93.5723 60.0559 93.3843 60.1298 93.2182 59.8698C93.4953 59.8204 95.3084 59.805 95.5767 59.8839L95.5675 59.9943C95.4418 60.0749 95.1418 60.0447 94.9797 60.0404C94.9865 60.5961 94.8092 63.1795 95.2431 63.4042C97.6104 64.6308 97.121 61.4011 97.1029 60.0549C96.9081 60.0549 96.5731 60.1015 96.4694 59.9249L96.5166 59.8566C96.802 59.823 97.6644 59.8425 98.0102 59.8429C98.896 59.8551 99.7979 59.7955 100.68 59.8822C101.039 59.9174 101.836 60.1732 101.883 60.619C101.969 61.4423 101.061 61.5917 100.482 61.7118L100.548 61.7324C102.169 62.247 101.295 62.5724 101.751 63.4561C101.974 63.5642 102.544 63.5966 102.792 63.587C102.832 63.4931 102.811 60.3859 102.812 60.0404ZM99.4113 61.595C99.8393 61.5977 100.106 61.6335 100.495 61.4404C100.991 60.239 100.42 60.0189 99.4113 60.0404V61.595Z" fill="white"/>
<path d="M125.33 77.204C125.494 77.1786 125.7 77.1702 125.862 77.2074C126.261 77.2992 126.598 77.5772 126.812 77.9284C127.218 78.5947 127.313 79.5116 127.142 80.2685C127.001 80.8899 126.646 81.5706 126.101 81.9111C125.871 82.0547 125.615 82.1232 125.349 82.0497C124.932 81.9349 124.702 81.5909 124.496 81.2316V84.7103C124.758 84.7 125.012 84.662 125.237 84.8279L125.26 84.9871L125.271 84.8792L125.229 85.015C125.162 85.0696 125.077 85.064 124.994 85.0697C124.54 85.0641 123.373 85.1926 123.012 85.0237C122.997 84.92 122.991 84.8542 123.028 84.7549C123.169 84.6601 123.451 84.7038 123.617 84.7101V77.65C123.437 77.6551 123.08 77.7053 122.941 77.5811L122.957 77.448C123.255 77.215 124.101 77.2966 124.496 77.2441V78.1475C124.708 77.7038 124.891 77.4263 125.33 77.204ZM125.286 81.737C125.487 81.7593 125.698 81.7941 125.866 81.6488C126.14 81.4114 126.175 80.762 126.193 80.4156C126.229 79.7402 126.384 78.1528 125.911 77.625C125.792 77.4931 125.644 77.4559 125.476 77.4525C125.115 77.5779 124.909 77.7912 124.74 78.1414C124.404 78.8356 124.375 80.1908 124.623 80.9253C124.754 81.3118 124.94 81.5364 125.286 81.737Z" fill="white"/>
<path d="M73.3744 59.8697C74.1467 59.7828 74.9951 59.872 75.7669 59.8388C77.6706 59.7568 78.6197 61.2545 76.1794 61.71C77.9818 62.2554 76.9669 62.6318 77.4919 63.4703C77.7363 63.5612 78.2798 63.6082 78.5389 63.5823C78.59 63.418 78.5515 60.4298 78.5525 60.0406C78.3275 60.048 78.1279 60.0908 77.9672 59.9079C78.1615 59.8024 81.3113 59.8428 81.7608 59.843C81.7968 60.1661 81.8329 60.8894 81.7822 61.1952C81.0303 60.006 81.0834 60.0276 79.6507 60.0404C79.6575 60.4959 79.5085 61.4043 79.8138 61.7049C80.387 61.8549 80.592 61.0946 80.7712 60.7161C80.8423 61.0663 80.8316 61.3213 80.8307 61.675C80.8355 61.9528 80.8628 62.3118 80.7756 62.5648C80.6008 62.5521 80.2141 61.7113 79.7588 61.9424C79.5577 62.2241 79.6458 63.2152 79.6507 63.6142C80.442 63.6242 81.269 63.73 81.6527 62.8276C81.716 62.6787 81.7243 62.5644 81.8577 62.4905L81.9274 62.5259C82.0272 62.813 81.9327 63.4829 81.9011 63.808L77.4061 63.8095C75.0155 63.7886 77.1622 61.775 75.13 61.7929V63.6141C75.3574 63.6137 75.5809 63.5668 75.7129 63.6947L75.6866 63.7856C75.4377 63.8249 73.5974 63.8339 73.388 63.7496C73.5429 63.5754 73.8234 63.6079 74.0308 63.6141V60.0404C73.7367 60.0554 73.5448 60.1279 73.3744 59.8697ZM75.13 61.5955C75.5186 61.5979 75.8517 61.6257 76.2091 61.4526C76.59 60.6617 76.3703 59.9509 75.4173 60.0358C75.3398 60.0428 75.2113 60.0387 75.13 60.0404V61.5955Z" fill="white"/>
<path d="M69.2398 59.7497C70.3565 59.6405 71.3485 60.4794 71.4581 61.6253C71.5676 62.7712 70.7534 63.7922 69.6372 63.9079C68.5171 64.0241 67.5178 63.1841 67.4078 62.0335C67.2977 60.8829 68.1188 59.8593 69.2398 59.7497ZM69.6051 63.6952C69.7658 63.6274 70.0312 63.5195 70.0769 63.3299C70.1997 62.8219 70.2372 62.1564 70.2026 61.6291C70.1432 60.723 70.3696 60.0055 69.2856 59.958C69.1312 60.0047 68.8619 60.0964 68.8054 60.2641C68.6457 60.74 68.6286 61.413 68.6549 61.9259C68.6988 62.7894 68.4825 63.7354 69.6051 63.6952Z" fill="white"/>
<path d="M42.6938 59.7096C43.7898 59.6081 44.7581 60.4388 44.8557 61.5641C44.9533 62.6895 44.1431 63.6827 43.0469 63.7816C41.9525 63.8803 40.9871 63.0501 40.8897 61.9266C40.7923 60.8031 41.5997 59.811 42.6938 59.7096Z" fill="white"/>
<path d="M108.754 59.916C109.226 59.8632 109.725 59.9573 110.136 60.2057C110.568 60.4618 110.882 60.8844 111.008 61.3795C111.122 61.8423 111.051 62.3323 110.812 62.7415C110.482 63.3116 110.001 63.5438 109.404 63.7002C108.351 63.8324 107.268 63.2915 107.046 62.1617C106.954 61.6912 107.05 61.2028 107.311 60.805C107.661 60.268 108.16 60.0402 108.754 59.916Z" fill="white"/>
<path d="M117.5 73.9149C117.549 73.907 117.598 73.9021 117.648 73.8975C118.315 73.8353 118.719 74.0065 119.23 74.442C119.324 74.2649 119.421 74.0332 119.613 73.9625L119.663 74.0344C119.739 74.5333 119.802 75.5251 119.645 75.9918L119.581 76.0091C119.194 75.5757 119.188 74.9257 118.658 74.4577C118.442 74.2673 118.164 74.1307 117.873 74.1574C117.536 74.1884 117.201 74.4002 116.988 74.6649C116.75 74.9608 116.625 75.4038 116.662 75.7855C116.769 76.888 118.575 76.7696 119.276 77.3742C119.774 77.8047 120.012 78.486 120.062 79.1377C120.126 79.9618 119.949 80.8637 119.41 81.5016C119.039 81.9395 118.618 82.1259 118.063 82.1673C117.509 82.1252 117.125 81.8661 116.72 81.4951L116.13 82.163C116.118 81.2962 116.026 80.2991 116.177 79.4488C116.336 79.7134 116.409 80.0171 116.52 80.3046C116.733 80.8565 117.027 81.4725 117.591 81.7184C117.898 81.852 118.287 81.8673 118.597 81.737C118.954 81.5872 119.31 81.1806 119.456 80.8202C119.627 80.3986 119.626 79.8398 119.452 79.4191C119.092 78.5478 118.132 78.5648 117.399 78.2536C116.918 78.049 116.549 77.7049 116.349 77.2057C116.066 76.4981 116.114 75.7347 116.397 75.0417C116.631 74.4704 116.943 74.1479 117.5 73.9149Z" fill="white"/>
<path d="M62.8554 59.8697C63.6083 59.7787 64.5204 59.8565 65.2889 59.8415C67.2699 59.8028 68.0292 61.2575 65.6604 61.7101C67.0031 62.0826 66.6485 62.2816 66.9261 63.3878C66.9539 63.4974 67.3849 63.5717 67.5144 63.5995L67.5319 63.6597C67.063 63.9309 66.5097 63.8535 66.0305 63.6645C65.076 62.9631 66.2745 61.7814 64.611 61.7929V63.6141C64.8384 63.6137 65.0619 63.5668 65.1939 63.6947L65.1676 63.7856C64.9188 63.8249 63.0784 63.8338 62.869 63.7496C63.0239 63.5754 63.3044 63.6079 63.5118 63.6141V60.0404C63.2177 60.0554 63.0258 60.1279 62.8554 59.8697ZM64.611 61.5955C64.9996 61.5977 65.3322 61.6251 65.6901 61.4526C66.0705 60.662 65.8508 59.9512 64.8983 60.0358C64.8209 60.0427 64.6928 60.0387 64.611 60.0404V61.5955Z" fill="white"/>
<path d="M131.622 77.2691C131.895 77.2513 132.186 77.2224 132.457 77.2697C133.453 77.4433 133.329 78.5056 133.318 79.2851C133.31 79.7819 133.305 80.2788 133.303 80.7758C133.303 80.9985 133.275 81.3162 133.404 81.5054C133.628 81.5138 133.681 81.2557 133.906 81.2782C133.896 81.4586 133.869 81.6311 133.783 81.7913C133.699 81.9457 133.557 82.0666 133.389 82.1087C133.205 82.1547 133.014 82.1074 132.854 82.0088C132.558 81.826 132.504 81.5507 132.423 81.2316C132.347 81.3484 132.271 81.4676 132.185 81.5767C131.971 81.8462 131.658 82.0959 131.31 82.1288C130.998 82.1582 130.749 82.0291 130.514 81.8332C130.339 81.5969 130.236 81.3403 130.197 81.0457C130.153 80.7146 130.249 80.3968 130.446 80.1327C130.917 79.4978 131.715 79.3889 132.432 79.2884C132.438 78.8838 132.501 78.3828 132.402 77.9893C132.362 77.8321 132.283 77.6924 132.14 77.6127C131.949 77.5053 131.651 77.5065 131.445 77.5785C130.861 77.7826 131.412 78.3254 131.208 78.732C131.161 78.8272 131.083 78.8878 130.982 78.9148C130.883 78.9415 130.764 78.9241 130.676 78.8701C130.558 78.7976 130.499 78.6402 130.47 78.5087C130.421 78.2899 130.46 78.0813 130.58 77.8929C130.822 77.5129 131.209 77.3611 131.622 77.2691ZM131.499 81.5766C131.758 81.5551 131.93 81.5024 132.105 81.2885C132.399 80.93 132.503 80.3846 132.464 79.9284C132.454 79.8261 132.43 79.7253 132.402 79.6271C132.303 79.5954 132.23 79.6018 132.129 79.6158C131.755 79.6912 131.49 79.76 131.267 80.0991C131.106 80.3449 131.048 80.6291 131.104 80.9197C131.156 81.1881 131.277 81.4157 131.499 81.5766Z" fill="white"/>
<path d="M50.1194 59.8698C50.3623 59.8258 51.187 59.8395 51.4628 59.8397L53.9858 59.843C54.0248 60.2251 54.0518 60.8433 54.0023 61.2169C53.251 60.0088 53.3476 60.0292 51.8813 60.0404C51.8879 60.4663 51.7417 61.452 52.0489 61.7152C52.6629 61.7886 52.7816 61.134 53.0026 60.715C53.0907 61.1564 53.0872 62.5049 52.9873 62.9372C52.6997 62.3942 52.7719 61.8262 51.9058 61.9251L51.8813 62.0375V63.6142C52.6093 63.6254 53.4264 63.7199 53.827 62.9409C53.9193 62.7614 53.9195 62.5203 54.1269 62.5003C54.2618 62.6586 54.1529 63.5213 54.1367 63.808C53.623 63.8086 50.5075 63.8429 50.1986 63.7534L50.2142 63.6916C50.3903 63.5784 50.56 63.6065 50.7686 63.614V60.0408C50.4738 60.0559 50.2859 60.1298 50.1194 59.8698Z" fill="white"/>
<path d="M54.4827 59.8697C54.9708 59.8167 55.7436 59.8413 56.2542 59.843L58.0344 62.2137C58.0297 61.6751 58.1193 60.744 57.973 60.2396C57.9103 60.0237 57.676 60.0556 57.4787 59.9804L57.4635 59.9038C57.6113 59.7951 58.6187 59.8339 58.8163 59.8695L58.8421 59.9614C58.7025 60.0776 58.3415 60.0466 58.3291 60.1323C58.2155 60.9178 58.3156 63.162 58.2583 63.8502C58.1727 63.9118 58.198 63.8936 58.0721 63.8845C57.9064 63.7982 57.78 63.5899 57.6641 63.4314C56.901 62.4212 56.0949 61.383 55.3583 60.3566C55.3598 61.1667 55.3026 62.665 55.3623 63.3847C55.4716 63.5421 55.7818 63.6519 55.9718 63.7439L55.936 63.78C55.5618 63.8024 54.9602 63.8309 54.597 63.7815C54.58 63.6583 54.9623 63.5755 55.058 63.4373C55.0617 63.4319 55.0652 63.4264 55.0688 63.4209C55.0724 63.4156 55.0762 63.4104 55.0798 63.405C55.1764 63.2579 55.1282 60.4717 55.0704 60.1455C54.8557 59.9279 54.6985 60.2046 54.4827 59.8697Z" fill="white"/>
<path d="M91.4475 59.7277C91.4699 59.7317 91.4918 59.7362 91.5138 59.7435C91.7509 59.8229 93.0731 63.118 93.302 63.6105C93.4641 63.607 93.5737 63.5927 93.7232 63.6636L93.7408 63.72C93.5026 63.8222 91.6603 63.8646 91.5318 63.7715L91.5503 63.6645C91.6715 63.5729 91.9632 63.6083 92.1293 63.6141C92.0124 63.3349 91.8921 62.9963 91.7334 62.7457C91.7056 62.7014 91.6521 62.7071 91.5863 62.6957H90.2997C90.1736 62.9624 89.9914 63.2473 90.0835 63.5259C90.3031 63.685 90.325 63.5248 90.5505 63.6388L90.5773 63.7663C90.436 63.8522 89.2118 63.832 89.129 63.7292C89.2814 63.6344 89.6398 63.5042 89.7065 63.379C90.2622 62.3308 90.9557 60.7833 91.4475 59.7277ZM90.3981 62.4991H91.6472L91.0438 61.1258L90.3981 62.4991Z" fill="white"/>
<path d="M59.0979 59.843L62.8335 59.843C62.8374 60.1132 62.9401 61.0249 62.7969 61.1623C62.5383 61.0391 62.4799 60.7564 62.384 60.4902C62.2681 60.1685 61.8517 59.9379 61.5386 60.0942C61.4986 60.3786 61.504 63.5027 61.558 63.5977L61.6608 63.6142C61.7109 63.6111 61.7606 63.6087 61.8108 63.6072C62.0066 63.6014 62.1005 63.6084 62.2462 63.7491C62.0957 63.8353 59.8533 63.8524 59.7164 63.7382L59.7409 63.661C59.8494 63.5719 60.2472 63.61 60.41 63.6142C60.4076 63.1593 60.4762 60.2087 60.3497 60.0574C59.3376 59.9522 59.6154 61.0021 59.1395 61.1608L59.0765 61.1178C59.0371 61.0111 59.0934 60.0318 59.0979 59.843Z" fill="white"/>
<path d="M85.776 59.843H89.5001C89.5122 60.0858 89.5804 60.9508 89.4674 61.1157C89.2317 60.9991 88.978 60.1352 88.4326 59.9644C88.2646 59.9986 88.3225 59.969 88.2003 60.0981C88.156 60.2999 88.1759 63.5076 88.2183 63.5917L88.3478 63.6142C88.6118 63.6003 88.6936 63.5672 88.8913 63.7387L88.8324 63.7753C88.5236 63.7952 86.5499 63.8617 86.4057 63.7651L86.4145 63.6572C86.5669 63.584 86.9 63.6107 87.0836 63.6142C87.0846 63.2125 87.1192 60.215 87.0442 60.0612C86.3005 59.8233 86.0268 61.0087 85.779 61.4253C85.6918 61.0008 85.7463 60.283 85.776 59.843Z" fill="white"/>
<path d="M48.1002 59.7638C48.3909 59.7487 48.6696 59.8242 48.9255 59.9569C49.2493 60.1247 49.2952 59.7908 49.5485 59.8846C49.6064 60.0145 49.6197 60.8824 49.5557 60.9875C49.3078 60.898 48.6077 59.3461 47.8819 60.109C47.4319 60.6592 47.6169 61.7012 47.5831 62.3367C47.5185 63.5516 48.1934 64.2655 49.1645 63.1957C49.2992 62.9683 49.3944 62.5952 49.6571 62.6302C49.7024 62.83 49.6678 63.6737 49.5258 63.8269C49.3262 63.812 49.3551 63.7474 49.2011 63.648C48.9782 63.5672 48.5777 63.8805 48.3431 63.8897C45.8207 63.9883 45.5229 60.1672 48.1002 59.7638Z" fill="white"/>
<path d="M83.6216 59.7632C84.02 59.7456 84.1695 59.8407 84.5216 59.975C84.7441 60.0599 84.784 59.7583 85.1137 59.8616C85.1507 60.0739 85.1688 60.6661 85.1152 60.8723L85.0495 60.8868C84.9121 60.8378 84.5956 60.4386 84.5011 60.3008C84.1305 59.762 82.9861 59.8266 82.9788 60.6049C83.2247 61.4312 86.0604 61.0354 85.3027 62.9864C85.0295 63.6892 84.5678 63.8376 83.8904 63.8984C83.512 63.8459 83.3693 63.7931 83.025 63.6249C82.8536 63.7698 82.7289 63.8934 82.5098 63.8898C82.4387 63.792 82.4757 62.9078 82.4835 62.7319L82.5083 62.7268C82.5692 62.7147 82.7051 62.7003 82.7304 62.7615C82.9997 63.3923 83.327 63.7164 84.02 63.6921C84.7193 63.6675 85.3051 62.8219 84.523 62.4594C83.8607 62.1602 82.6613 62.1808 82.4825 61.2453C82.3218 60.4024 82.9013 59.916 83.6216 59.7632Z" fill="white"/>
<path d="M135.222 80.646C135.305 80.6381 135.395 80.6284 135.479 80.6369C135.629 80.6521 135.774 80.7587 135.862 80.8803C135.985 81.0504 136.02 81.2692 135.99 81.4757C135.95 81.755 135.827 81.9402 135.611 82.1084C135.568 82.1181 135.525 82.1256 135.482 82.1259C135.318 82.1267 135.166 82.0687 135.053 81.9449C134.912 81.7902 134.872 81.5887 134.877 81.3836C134.885 81.0622 135.001 80.8645 135.222 80.646Z" fill="white"/>
<path d="M128.303 80.6507C128.388 80.6409 128.479 80.6289 128.564 80.6361C128.707 80.6481 128.846 80.7392 128.936 80.8503C129.07 81.0166 129.111 81.2323 129.089 81.4431C129.058 81.7433 128.927 81.927 128.706 82.112C128.667 82.1211 128.629 82.1274 128.589 82.1279C128.426 82.1299 128.278 82.0774 128.161 81.9563C128.019 81.8083 127.975 81.6104 127.974 81.4093C127.973 81.0842 128.084 80.8768 128.303 80.6507Z" fill="white"/>
<path d="M121.274 80.6423C121.356 80.6362 121.443 80.6287 121.525 80.6356C121.67 80.6475 121.809 80.7402 121.9 80.8518C122.03 81.0096 122.075 81.2052 122.059 81.4083C122.033 81.7185 121.906 81.9121 121.679 82.1087C121.647 82.115 121.618 82.1187 121.585 82.1205C121.416 82.1297 121.273 82.0953 121.146 81.9741C120.996 81.8311 120.943 81.6309 120.94 81.4274C120.934 81.0893 121.052 80.8808 121.274 80.6423Z" fill="white"/>
<path d="M42.3343 84.7229C42.3921 84.7327 42.4394 84.7506 42.488 84.784C42.5868 84.8518 42.6479 84.9466 42.667 85.0677C42.7051 85.3093 42.6077 85.488 42.4763 85.6744C42.4224 85.6579 42.3722 85.6304 42.3257 85.5983C42.226 85.5294 42.167 85.4274 42.1485 85.3056C42.1131 85.0733 42.2104 84.9032 42.3343 84.7229Z" fill="white"/>
<path d="M61.9632 84.7197C62.027 84.7336 62.083 84.7526 62.1361 84.7934C62.2315 84.8668 62.2905 84.9752 62.3036 85.097C62.3284 85.3262 62.2325 85.5012 62.1025 85.6744C62.0552 85.6583 62.0105 85.6355 61.9681 85.6082C61.8707 85.5457 61.8079 85.4467 61.785 85.3312C61.7377 85.094 61.84 84.9072 61.9632 84.7197Z" fill="white"/>
<path d="M53.2023 84.7159C53.2655 84.73 53.3192 84.7539 53.372 84.7922C53.4628 84.858 53.5223 84.9618 53.54 85.0743C53.578 85.3151 53.4726 85.4945 53.3403 85.6776C53.3 85.6607 53.2617 85.6398 53.2245 85.6166C53.1165 85.549 53.0502 85.4583 53.0237 85.3299C52.975 85.0939 53.0814 84.9038 53.2023 84.7159Z" fill="white"/>
<path d="M91.8327 84.7212C91.8819 84.7304 91.9199 84.7455 91.9647 84.7681C92.0655 84.8194 92.141 84.8981 92.1746 85.0139C92.2384 85.2332 92.1371 85.4623 92.0392 85.6517C91.9667 85.6499 91.9068 85.6349 91.8434 85.598C91.7616 85.55 91.7056 85.4645 91.6818 85.3716C91.6199 85.1321 91.7197 84.9218 91.8327 84.7212Z" fill="white"/>
<path d="M107.703 84.7153C107.762 84.7272 107.817 84.7469 107.868 84.7784C107.961 84.8349 108.025 84.9376 108.048 85.0449C108.098 85.2833 107.999 85.4781 107.876 85.6681C107.819 85.6523 107.761 85.6274 107.71 85.5974C107.624 85.5469 107.568 85.4508 107.545 85.3538C107.489 85.1214 107.592 84.9093 107.703 84.7153Z" fill="white"/>
<path d="M66.3602 84.7197C66.4318 84.7351 66.4985 84.77 66.5658 84.8004C66.6169 84.8574 66.6724 84.921 66.6953 84.9965C66.7644 85.2243 66.6705 85.4506 66.5731 85.651C66.4834 85.6483 66.4309 85.6267 66.3534 85.5837C66.2916 85.5495 66.2278 85.4425 66.2098 85.374C66.1484 85.139 66.2482 84.917 66.3602 84.7197Z" fill="white"/>
<path d="M68.4032 84.7161C68.4684 84.7289 68.5303 84.7521 68.5863 84.7896C68.6759 84.8496 68.7353 84.9615 68.7533 85.0683C68.7923 85.2973 68.6997 85.4885 68.5756 85.6681C68.5084 85.6484 68.4416 85.6087 68.3783 85.5779C68.3291 85.5189 68.2756 85.4533 68.2537 85.3776C68.1835 85.1385 68.2902 84.9174 68.4032 84.7161Z" fill="white"/>
<path d="M103.418 84.7128C103.474 84.7267 103.532 84.7516 103.582 84.7818C103.672 84.837 103.732 84.9411 103.755 85.0457C103.804 85.2782 103.707 85.4775 103.591 85.6673C103.536 85.6559 103.484 85.6397 103.436 85.6105C103.34 85.5537 103.28 85.4669 103.255 85.3566C103.199 85.1173 103.297 84.9084 103.418 84.7128Z" fill="white"/>
<path d="M12 58H22.4656V90H12V58Z" fill="white"/>
<path d="M65.5328 84.5211L65.5348 89.79L66.2073 89.7902C66.2088 89.0456 66.2044 88.2992 66.2195 87.5549C66.2273 87.1762 66.1971 87.0938 65.881 86.887L65.9083 86.8281C66.164 86.8123 66.4197 86.7949 66.6748 86.7756C66.6773 87.1775 66.6256 89.6359 66.7435 89.7775C66.9339 89.8174 66.9914 89.79 67.0639 90H65.1019H64.1293C62.7487 88.5534 64.236 85.5588 64.9879 87.1246C65.1501 86.919 64.9996 85.2733 65.0751 84.7511C64.9679 84.7509 64.7624 84.7617 64.6718 84.7236L64.7191 84.7233L64.5857 84.6645C64.8033 84.5148 65.2752 84.5423 65.5328 84.5211ZM65.0015 87.3658C64.8647 87.0951 64.7503 86.8197 64.4118 86.9025C63.9901 87.2857 63.9073 89.6553 64.4775 89.9042C64.742 89.8675 64.9061 89.5383 65.0064 89.3102C65.0678 88.5431 65.1033 88.1378 65.0015 87.3658Z" fill="white"/>
<path d="M65.0751 84.7511C65.1296 85.0782 65.1715 87.1569 65.0015 87.3658C64.8647 87.0951 64.7503 86.8197 64.4118 86.9025C63.9901 87.2857 63.9073 89.6553 64.4775 89.9042C64.742 89.8675 64.9061 89.5383 65.0064 89.3102C65.1384 89.5011 65.1072 89.7607 65.1019 90H64.1293C62.7487 88.5534 64.236 85.5588 64.9879 87.1246C65.1501 86.919 64.9996 85.2733 65.0751 84.7511Z" fill="white"/>
<path d="M116.666 90C116.202 89.6993 115.956 89.4853 115.799 88.917C115.554 88.0248 116.098 87.0582 117.019 86.866C117.429 86.7839 117.854 86.8706 118.201 87.1076C118.562 87.3492 118.814 87.7284 118.903 88.1613C118.992 88.5953 118.905 89.0478 118.662 89.4148C118.49 89.6757 118.268 89.8441 118.006 90H116.666ZM117.652 89.7036C118.306 89.5249 118.695 88.834 118.518 88.1628C118.342 87.4915 117.668 87.0953 117.014 87.2789C116.364 87.4616 115.981 88.1496 116.156 88.8174C116.332 89.4853 117.001 89.8816 117.652 89.7036Z" fill="white"/>
<path d="M116.716 87.5509C116.893 87.5468 117.076 87.5362 117.252 87.5511C117.453 87.5681 117.706 87.6896 117.836 87.8526C117.914 87.9496 117.945 88.0629 117.931 88.1872C117.902 88.4496 117.76 88.6149 117.568 88.7698C117.658 88.9025 117.768 89.018 117.864 89.1456C117.94 89.2457 117.966 89.3024 117.95 89.4274L117.728 89.4697C117.489 89.2486 117.269 88.8728 117.067 88.6069C117.051 88.8149 117.098 89.079 117.041 89.2773C117.013 89.3743 116.992 89.3944 116.908 89.4438L116.817 89.4008C116.577 89.0181 116.711 88.0174 116.716 87.5509ZM117.558 88.4569C117.576 88.2945 117.616 88.1181 117.538 87.9677C117.405 87.8377 117.262 87.8468 117.087 87.8516L117.051 87.8527C117.046 88.0297 117.003 88.3265 117.109 88.4703C117.237 88.547 117.42 88.4834 117.558 88.4569Z" fill="white"/>
<path d="M52.3622 84.5208L52.3647 89.7905L53.0385 89.7898C53.039 89.4237 53.0826 87.2389 52.9917 87.0871C52.8823 87.0078 52.8426 86.9831 52.7213 86.9252L52.7254 86.8323L53.4979 86.7724C53.4978 87.4983 53.45 89.0861 53.5232 89.7426C53.7044 89.8763 53.7976 89.6952 53.8514 90H51.9083C51.9125 89.7696 51.9423 89.4517 51.8278 89.2652C51.9076 88.6943 52.0655 87.1285 51.4135 86.8701C51.0215 86.9367 50.9025 87.5522 50.9316 87.8923C50.9715 88.3589 50.6623 90.1563 51.5479 89.8375L51.5882 90H50.9566C49.5951 88.492 51.0498 85.4953 51.881 87.24C51.8818 86.8953 51.9276 84.9503 51.8317 84.8018C51.5884 84.6466 51.5209 84.8245 51.4404 84.639L51.4653 84.5742L52.3622 84.5208Z" fill="white"/>
<path d="M26.6207 90C26.1122 89.5219 26.095 89.254 25.9748 88.5199C25.8414 87.7062 26.63 86.0921 27.5461 86.9418C28.1452 87.4974 28.1145 89.229 27.4362 89.8968C27.3996 89.9326 27.3617 89.9671 27.3226 90H26.6207ZM27.141 89.9136C27.5575 89.4367 27.4765 88.3724 27.4452 87.7543C27.4325 87.5035 27.3797 87.1367 27.1868 86.9618C27.0822 86.867 26.9378 86.8848 26.8074 86.8897C26.4082 87.3677 26.4782 88.4651 26.5247 89.0684C26.5447 89.3284 26.5889 89.6648 26.7956 89.8406C26.8825 89.9145 27.0317 89.917 27.141 89.9136Z" fill="white"/>
<path d="M94.3549 88.4944C94.3943 87.9391 94.441 87.3235 94.8677 86.9218C95.2144 86.5953 95.7067 86.7197 95.977 87.0741C96.5848 87.871 96.4776 89.3597 95.7004 90H94.9996C94.5199 89.6171 94.4323 89.0648 94.3549 88.4944ZM95.5207 89.9151C95.9322 89.4362 95.8606 88.3242 95.8207 87.7066C95.8041 87.4567 95.7447 87.1177 95.5504 86.9479C95.4613 86.8699 95.2947 86.8881 95.1837 86.8898C94.7844 87.3713 94.8594 88.48 94.9056 89.0885C94.9251 89.3441 94.9694 89.6628 95.1696 89.8379C95.2577 89.9149 95.4092 89.9178 95.5207 89.9151Z" fill="white"/>
<path d="M88.2904 90C87.7055 89.4328 87.4328 88.2436 87.7888 87.55C89.0442 85.1023 90.4477 88.5131 89.1066 89.9079C89.0754 89.9401 89.0433 89.9708 89.0097 90H88.2904ZM88.8095 89.9216C89.2337 89.452 89.1416 88.4248 89.1197 87.8111C89.11 87.5454 89.0715 87.1517 88.8645 86.9635C88.7623 86.8701 88.6249 86.8781 88.4959 86.8798C88.079 87.3483 88.1686 88.3822 88.1949 88.9926C88.2066 89.2539 88.2485 89.6345 88.4457 89.8237C88.547 89.9209 88.6785 89.921 88.8095 89.9216Z" fill="white"/>
<path d="M110.877 90C110.31 89.4332 110.334 89.1212 110.237 88.4232C110.119 87.5759 111.008 86.0925 111.815 86.9541C112.485 87.6685 112.328 89.3778 111.592 90H110.877ZM111.432 89.9023C111.802 89.4063 111.77 88.1993 111.691 87.5787C111.666 87.3785 111.609 87.0848 111.442 86.9594C111.335 86.8794 111.187 86.882 111.059 86.8943C110.671 87.3763 110.734 88.5479 110.794 89.1535C110.818 89.3943 110.87 89.6866 111.065 89.8443C111.16 89.9214 111.317 89.9136 111.432 89.9023Z" fill="white"/>
<path d="M43.6278 90C43.1019 89.4857 43.1029 89.2429 42.9858 88.4741C42.8617 87.6601 43.6723 86.0919 44.563 86.9518C45.1653 87.5333 45.1236 89.2658 44.4126 89.9323C44.3881 89.9555 44.363 89.9781 44.3374 90H43.6278ZM44.1771 89.9023C44.5516 89.421 44.512 88.2209 44.4432 87.6091C44.4203 87.4056 44.3662 87.0986 44.1988 86.9679C44.0866 86.8802 43.9442 86.8811 43.807 86.8943C43.4343 87.386 43.4735 88.5714 43.5455 89.1905C43.5703 89.404 43.6239 89.6917 43.7965 89.8307C43.9051 89.9183 44.0442 89.9156 44.1771 89.9023Z" fill="white"/>
<path d="M90.5602 87.4977C90.6464 87.2576 90.7351 86.9058 90.9333 86.7809C91.2892 86.9185 91.7592 86.7959 92.1473 86.7754C92.1517 87.1989 92.0952 89.6285 92.2155 89.7755C92.404 89.8172 92.4614 89.7919 92.5335 90H91.3117C91.3647 89.6912 91.4237 89.862 91.6603 89.743C91.71 89.4247 91.6886 87.4419 91.6667 87.0816C91.5878 87.003 91.5469 87.0292 91.4032 87.0212C91.3818 87.1899 91.3618 87.3589 91.3438 87.528C91.2298 87.6725 91.2863 87.6316 91.1159 87.6934L91.0053 87.6383C90.9177 87.4907 90.9216 87.1021 90.907 86.9034C90.8924 86.9335 90.8782 86.9636 90.8641 86.9939C90.5841 87.5944 90.4097 89.2024 90.5919 89.7339C90.829 89.9267 90.8363 89.5874 91.0268 90H89.6393C89.8405 89.5807 89.9101 89.9378 90.0844 89.7237C90.0991 89.283 90.1317 87.3891 90.0805 87.0379C89.8473 86.9586 89.8414 87.0816 89.7134 86.9541L89.7255 86.8313C90.0041 86.7985 90.2797 86.7933 90.5593 86.7841L90.5602 87.4977Z" fill="white"/>
<path d="M34.7866 87.4601C34.8316 87.3334 34.969 86.9093 35.0458 86.8806C35.4341 86.7356 36.3175 86.8035 36.682 86.829L36.7077 86.931C36.626 87.1019 36.558 86.9318 36.3801 87.0556C36.4015 87.3373 36.838 88.6939 36.9485 89.0562L36.9994 89.0238L37.1008 89.1087L36.8303 90H36.7199C36.4904 89.3104 35.9661 87.2506 35.6563 86.7296C35.5347 87.1173 35.6933 87.2886 35.497 87.6172C35.3683 87.708 35.4121 87.706 35.2781 87.697C35.1568 87.5771 35.1624 87.3258 35.088 87.1168C34.7415 87.3263 34.6963 89.4067 34.8325 89.7697C35.1058 89.7929 35.1346 89.7654 35.2597 90H33.8381C33.963 89.6728 34.2363 89.8458 34.2641 89.75C34.3478 89.4608 34.3308 87.4071 34.3045 87.1944C34.2374 87.0449 34.08 86.9827 33.9355 86.903L33.952 86.8297C34.2368 86.8043 34.4963 86.7927 34.7809 86.7823L34.7866 87.4601Z" fill="white"/>
<path d="M98.7387 88.1797C98.7392 87.8621 98.8006 87.1887 98.6033 86.9789C97.6216 86.6421 98.4334 87.7654 97.8432 87.9009C97.6065 87.7685 97.6898 87.1927 97.8052 87.0685C98.2766 86.5605 99.0436 86.6042 99.1926 87.3534C99.3002 87.8947 99.0986 89.2854 99.2554 89.6011C99.3903 89.6572 99.3621 89.6346 99.5345 89.5824C99.5228 89.7409 99.4619 89.8561 99.3991 90H97.7721C97.1244 89.0557 97.7331 88.2993 98.7387 88.1797ZM98.3029 89.7744C98.581 89.5897 98.6827 89.3643 98.7504 89.0361C98.7918 88.8352 98.7782 88.6078 98.6847 88.4245C98.6024 88.3891 98.5371 88.3917 98.4499 88.3961C98.2172 88.5229 98.1071 88.6382 98.0287 88.9025C97.9654 89.1163 97.9844 89.3605 98.0876 89.5591C98.1383 89.6575 98.2128 89.7155 98.3029 89.7744Z" fill="white"/>
<path d="M39.1242 88.1577C39.1281 87.7909 39.1827 87.289 38.9878 86.9942C38.7835 86.864 38.5862 86.8959 38.4417 87.1034C38.4565 87.3078 38.5099 87.691 38.4015 87.8542C38.2652 87.9057 38.3212 87.9019 38.1725 87.8553C37.7334 87.2757 38.4645 86.6146 39.0867 86.7586C40.0734 86.9871 39.3118 89.1935 39.6839 89.6308C39.7614 89.6235 39.8388 89.6147 39.9161 89.6047C39.8906 89.781 39.8522 89.8449 39.7756 90H38.1555C37.4836 88.9967 38.14 88.3518 39.1242 88.1577ZM38.6896 89.7761C38.9632 89.5915 39.0685 89.3594 39.1345 89.0347C39.1683 88.8687 39.1788 88.5879 39.0794 88.4447C39.0631 88.4213 39.0644 88.4236 39.0484 88.4049L38.842 88.3936C38.6174 88.5126 38.5026 88.6183 38.4217 88.8728C38.3517 89.0933 38.3614 89.3431 38.4661 89.5519C38.5182 89.6559 38.5953 89.7147 38.6896 89.7761Z" fill="white"/>
<path d="M69.364 89.7921C69.3664 89.2184 69.4088 87.5201 69.3357 87.0382C69.2306 87.002 69.1624 87.0037 69.0523 86.9983C69.0085 86.8824 69.008 86.93 69.0513 86.8195C69.3017 86.8132 69.5364 86.7882 69.7848 86.7634C69.8422 86.8548 69.832 87.3406 69.8344 87.4823L69.9226 87.5656C69.8456 87.9066 69.721 89.5332 69.8841 89.7786C70.0823 89.8101 70.1446 89.769 70.1928 90H67.83C67.9176 89.7802 67.9829 89.8153 68.1879 89.7685C68.3326 89.5529 68.2249 87.6402 68.2522 87.244C68.2605 87.1259 68.0428 86.9766 67.9391 86.8983L67.94 86.8325C68.2235 86.812 68.4397 86.7913 68.7207 86.7457V89.7921H69.364Z" fill="white"/>
<path d="M32.762 90C32.0614 89.3636 31.9151 87.7618 32.493 87.1147C33.4769 86.0128 33.838 87.4432 33.9239 88.1469L32.6925 88.1468C32.6852 88.7247 32.4735 90.2152 33.4283 89.8262L33.5237 89.8918L33.4165 90H32.762ZM32.6903 87.9601L33.3301 87.9607C33.4317 87.8165 33.4514 87.5399 33.4222 87.3637C33.3953 87.201 33.3154 87.0417 33.1967 86.9312C33.0879 86.8845 33.0038 86.8813 32.8868 86.8866C32.6508 87.2466 32.6921 87.5492 32.6903 87.9601Z" fill="white"/>
<path d="M48.1725 90C47.3202 89.2381 47.279 87.1078 48.4401 86.7246C49.0824 86.5126 49.2899 87.7514 49.3309 88.1461L48.0973 88.1468C48.0924 88.7391 47.8856 90.2148 48.8472 89.8233L48.8954 89.9387L48.8615 90H48.1725ZM48.6825 87.9607L48.7823 87.9258C48.8678 87.6632 48.8589 87.3489 48.7382 87.0987C48.6987 87.0169 48.6394 86.928 48.5507 86.8983C48.4788 86.8742 48.3913 86.8736 48.316 86.8706C48.1483 87.1013 48.0296 87.4909 48.0655 87.7814C48.0772 87.8757 48.0933 87.8921 48.1655 87.949C48.3385 87.9591 48.5092 87.9635 48.6825 87.9607Z" fill="white"/>
<path d="M57.833 90C57.0258 89.2534 56.8689 87.13 58.1308 86.7209C58.7235 86.5288 58.9395 87.6845 58.9777 88.1468H57.7592C57.7535 88.7446 57.5391 90.2057 58.5015 89.824L58.5512 89.9249L58.5081 90H57.833ZM58.3678 87.9607L58.4469 87.9207C58.4992 87.643 58.532 87.3119 58.3755 87.0599C58.3181 86.9676 58.2555 86.9069 58.1479 86.8867C58.0898 86.8758 58.0249 86.8786 57.9658 86.879C57.7175 87.2284 57.7568 87.5494 57.7567 87.9607H58.3678Z" fill="white"/>
<path d="M77.1665 90C76.4443 89.3333 76.3138 87.7502 76.9235 87.0693C77.8727 86.0087 78.253 87.4457 78.311 88.1468H77.0969C77.0872 88.7405 76.8671 90.2082 77.8357 89.8235L77.8849 89.9249L77.8415 90H77.1665ZM77.0901 87.9607H77.7013L77.7802 87.9206C77.8318 87.6444 77.8654 87.3104 77.7081 87.0603C77.6506 86.969 77.5883 86.9068 77.4811 86.8867C77.4232 86.8758 77.3589 86.8781 77.3 86.8781C77.0511 87.2283 77.0901 87.5486 77.0901 87.9607Z" fill="white"/>
<path d="M82.2152 90C81.3488 89.2521 81.3186 87.066 82.5049 86.7219C83.1356 86.5391 83.3284 87.7573 83.3659 88.1469L82.1343 88.1468C82.1324 88.6082 82.0116 89.6478 82.4655 89.892C82.6423 89.9253 82.7007 89.8952 82.8677 89.8354L82.932 89.9188L82.9018 90H82.2152ZM82.7231 87.9607L82.8229 87.9258C82.9057 87.6626 82.8984 87.3494 82.7786 87.099C82.7392 87.0173 82.6802 86.928 82.5916 86.8983C82.5191 86.8739 82.4304 86.8734 82.354 86.8702C82.1825 87.0966 82.0676 87.4975 82.1041 87.7832C82.1158 87.8762 82.1348 87.893 82.2054 87.9491C82.3788 87.9591 82.5497 87.9635 82.7231 87.9607Z" fill="white"/>
<path d="M73.6953 90C72.8927 89.2563 72.7374 87.1217 74.0026 86.7227C74.5982 86.535 74.8119 87.6878 74.8431 88.1468H73.6198C73.6178 88.6056 73.4951 89.6762 73.966 89.8983C74.1462 89.9236 74.2071 89.8892 74.3722 89.8228L74.418 89.93L74.3819 90H73.6953ZM74.2008 87.9607L74.303 87.9273C74.3805 87.6836 74.3917 87.3554 74.2743 87.1217C74.2242 87.0212 74.1613 86.9227 74.0483 86.8914C73.9831 86.8733 73.9037 86.8759 73.836 86.8749C73.6714 87.0992 73.5536 87.4971 73.5891 87.7806C73.594 87.8182 73.6028 87.8541 73.614 87.8902C73.7683 87.9934 74.0162 87.963 74.2008 87.9607Z" fill="white"/>
<path d="M40.1324 86.8069H41.8074C41.5614 87.4213 40.7466 89.2773 40.6324 89.7472L40.6609 89.7948C41.6679 89.8626 41.5192 89.0917 41.7284 88.372C41.7459 88.9145 41.7516 89.4573 41.7453 90H40.0312C40.0818 89.3067 41.0056 87.8071 41.1615 87.0375C41.0645 86.9785 40.8266 86.984 40.7209 87.0123C40.2435 87.1401 40.3124 87.9005 40.1324 88.2668V86.8069Z" fill="white"/>
<path d="M54.6841 90C54.7781 89.7834 54.8348 89.8187 55.0416 89.7708C55.1354 89.6461 55.1322 85.3265 55.0954 84.7767C54.9901 84.7565 54.8843 84.7386 54.7782 84.7228L54.7404 84.6466L54.8012 84.5685C55.0505 84.5582 55.2995 84.5402 55.5478 84.5144C55.485 84.8847 55.4541 87.249 55.6219 87.4715C55.5797 87.997 55.516 88.7742 55.6617 89.2766C55.4398 89.4564 55.51 89.7174 55.5191 90H54.6841Z" fill="white"/>
<path d="M100.414 87.4401C100.547 87.0861 100.606 86.773 101.036 86.8076C101.368 87.0097 101.275 87.5981 101.01 87.7222C100.821 87.6514 100.774 87.3445 100.718 87.1516L100.676 87.1363C100.396 87.601 100.316 89.2171 100.454 89.7493C100.572 89.7753 100.691 89.8042 100.808 89.8361L100.9 90H99.4955C99.6066 89.7576 99.6299 89.7926 99.9065 89.7657C100.006 89.383 99.9538 87.6687 99.9343 87.1749C99.9314 87.1092 99.6567 86.9406 99.57 86.8869L99.607 86.8239C99.8759 86.8123 100.145 86.7976 100.414 86.78L100.414 87.4401Z" fill="white"/>
<path d="M75.7143 87.5018C75.8098 87.2099 75.9437 86.7079 76.3182 86.7041C76.6075 86.8951 76.5495 87.6143 76.3182 87.736C75.9987 87.6529 76.1054 87.1733 76.0591 86.9036C75.6793 87.7323 75.6652 88.6486 75.7027 89.5655C75.7182 89.9475 75.9315 89.6969 76.12 89.8668L76.1526 90H74.7876L74.8738 89.8357C74.9946 89.8019 75.0998 89.7745 75.2225 89.7484C75.2673 89.3739 75.2863 87.3781 75.2225 87.0412C75.0145 86.9534 75.0321 87.1024 74.8655 86.9531L74.883 86.8274C75.1597 86.8075 75.4368 86.7936 75.7139 86.7858L75.7143 87.5018Z" fill="white"/>
<path d="M71.8501 85.9662L72.3147 85.8976V86.8068C72.49 86.8018 72.6906 86.7727 72.8318 86.8685V86.9409C72.6906 87.0397 72.4919 87.0102 72.3147 87.0052C72.3103 87.8128 72.2854 88.667 72.3337 89.474C72.3458 89.683 72.3994 89.7209 72.5543 89.8279L72.7583 89.8595L72.6147 90H72.0833C71.6202 89.3777 71.948 87.9069 71.8394 87.076C71.648 86.9086 71.6499 87.0864 71.4381 86.9809L71.4196 86.8734C71.5365 86.7425 71.5637 86.8357 71.8209 86.7923C71.8705 86.6973 71.8506 86.1147 71.8501 85.9662Z" fill="white"/>
<path d="M106.03 85.9642L106.491 85.8993V86.8069C106.673 86.8001 106.852 86.772 107.007 86.8622L107.021 86.932C106.878 87.0433 106.678 87.0103 106.491 87.0052C106.485 87.7911 106.444 88.7917 106.532 89.5775C106.548 89.7255 106.635 89.7594 106.741 89.8289L106.946 89.8574L106.792 90H106.264C105.771 89.2978 106.165 87.8189 106.014 87.0557C105.844 86.9324 105.822 87.0747 105.62 86.9827L105.599 86.8734L105.646 86.8078C105.761 86.8058 105.875 86.8029 105.989 86.7991C106.063 86.6993 106.031 86.129 106.03 85.9642Z" fill="white"/>
<path d="M101.737 85.9651C101.887 85.9479 102.049 85.9159 102.198 85.8896V86.8069C102.373 86.8032 102.592 86.7731 102.727 86.872L102.719 86.9453C102.566 87.0408 102.382 87.0117 102.198 87.0054C102.192 87.8046 102.161 88.6799 102.22 89.4815C102.236 89.698 102.303 89.7326 102.471 89.8266L102.637 89.8869L102.493 90H101.976C101.546 89.4421 101.787 87.8975 101.731 87.0775C101.562 86.9135 101.486 87.0958 101.322 86.9691L101.317 86.85C101.429 86.764 101.506 86.8167 101.703 86.7964C101.767 86.7007 101.739 86.1214 101.737 85.9651Z" fill="white"/>
<path d="M86.3965 85.9651C86.5479 85.9472 86.7067 85.9179 86.8581 85.8927V86.8069C87.0408 86.8003 87.2258 86.7715 87.3797 86.8643L87.3924 86.9314C87.2541 87.0417 87.0412 87.0096 86.8581 87.0053C86.8635 87.8236 86.7958 88.7373 86.8966 89.5543C86.9195 89.7415 87.014 89.7648 87.1606 89.84L87.2355 89.9082L87.1907 90H86.6361C86.2065 89.4429 86.4461 87.8967 86.3911 87.0775C86.2216 86.9135 86.1462 87.0958 85.982 86.9691L85.9767 86.85C86.0887 86.764 86.1656 86.8167 86.3629 86.7964C86.4267 86.7007 86.3984 86.1214 86.3965 85.9651Z" fill="white"/>
<path d="M104.123 88.5173C104.251 89.0564 104.612 90.7214 105.359 89.4998C105.817 88.7504 103.427 88.6131 104.208 87.1216C104.6 86.3734 105.085 87.005 105.336 86.823C105.418 87.1113 105.378 87.6486 105.36 87.9671C105.283 87.5723 105.147 86.7772 104.581 86.8849C104.351 87.0197 104.297 87.2833 104.331 87.538C104.568 87.8963 105.739 88.0414 105.565 89.1418C105.523 89.4149 105.372 89.7945 105.186 90H104.597C104.407 89.7892 104.46 89.7835 104.166 89.8501C104.028 89.6634 104.111 88.8069 104.123 88.5173Z" fill="white"/>
<path d="M78.4595 88.5042C78.5584 88.9391 78.6397 89.5677 79.0064 89.8524C79.1583 89.9703 79.4325 89.903 79.5431 89.735C80.2399 88.6758 78.701 88.8672 78.4804 88.0538C78.3348 87.5174 78.5944 86.4552 79.301 86.7634C79.3609 86.7933 79.451 86.8806 79.5319 86.9257L79.6697 86.872C79.7719 87.0459 79.7091 87.7148 79.6969 87.9529C79.6171 87.5576 79.4671 86.7649 78.9032 86.891C78.7006 87.0184 78.5793 87.3573 78.6908 87.5703C79.0415 87.9589 79.937 88.0307 79.9185 88.9983C79.9127 89.2834 79.7164 89.7852 79.5216 90H78.929C78.739 89.7871 78.7936 89.7813 78.4994 89.8552C78.3602 89.6605 78.4371 88.7873 78.4595 88.5042Z" fill="white"/>
<path d="M62.2574 86.7732C62.2569 87.1149 62.2033 89.6419 62.3182 89.777L62.5383 89.8211C62.5866 89.8986 62.5914 89.9097 62.608 90H60.3622L60.4139 89.8268C60.5676 89.8842 60.9712 89.8505 61.1417 89.821C61.3983 89.7871 61.5395 89.7875 61.7991 89.7921C61.7991 89.4504 61.8366 87.1162 61.7465 87.0126C61.6097 86.9984 61.5166 87.0176 61.4416 86.9315L61.4874 86.8265C61.7446 86.8123 62.0012 86.7945 62.2574 86.7732Z" fill="white"/>
<path d="M108.989 90C108.225 89.2828 108.105 87.3865 109.062 86.7883C109.82 86.3145 110.432 87.7275 109.839 87.9554C109.665 87.9005 109.711 87.941 109.614 87.8051C109.534 87.4316 109.821 87.277 109.606 86.9295C108.932 86.6524 108.844 87.7625 108.902 88.1986C108.97 88.7231 108.675 90.2443 109.673 89.8208L109.725 89.9289L109.689 90H108.989Z" fill="white"/>
<path d="M24.7488 90C24.0249 89.2933 23.9653 88.0037 24.4475 87.131C24.6854 86.7004 25.3583 86.5213 25.6561 86.9984C25.821 87.2626 25.9118 87.631 25.7196 87.9111C25.579 87.9755 25.6364 87.9676 25.4734 87.9184C25.1332 87.5273 25.6569 87.2595 25.3215 86.9142C24.6471 86.7355 24.6359 87.7439 24.6397 88.1952C24.6436 88.6611 24.5543 89.6637 25.0448 89.8993C25.2228 89.9188 25.259 89.8981 25.4259 89.8237L25.48 89.9258L25.4405 90H24.7488Z" fill="white"/>
<path d="M93.1296 90C92.5238 89.4855 92.497 88.6749 92.5535 87.9422C92.6577 86.5894 94.1206 86.1109 94.2161 87.6991C94.2219 87.7993 94.104 87.8845 94.0256 87.9348C93.8489 87.9436 93.8864 87.97 93.7729 87.8775C93.6594 87.5502 93.9701 87.2281 93.6833 86.9144C93.5275 86.8727 93.5021 86.8699 93.3478 86.9118C92.9002 87.2969 92.8257 89.6047 93.4184 89.8979C93.5976 89.9206 93.6468 89.8922 93.8084 89.8218L93.8586 89.9237L93.8148 90H93.1296Z" fill="white"/>
<path d="M69.8344 87.4823C70.0029 87.0975 70.1933 86.5556 70.7266 86.7447C70.8561 86.7906 70.9842 87.0139 71.0178 87.1488C71.2146 87.9429 71.0816 88.8099 71.1191 89.6234C71.1327 89.9132 71.3095 89.703 71.4951 89.8664L71.5277 90H70.2576C70.4232 89.6853 70.3818 89.9021 70.6292 89.719C70.6677 89.275 70.8142 87.0525 70.3516 86.9396C70.1208 87.0477 70.0175 87.3376 69.9226 87.5656L69.8344 87.4823Z" fill="white"/>
<path d="M28.9177 87.4796C29.0437 87.1812 29.3929 86.4712 29.7699 86.7083C30.5957 87.2278 29.9649 89.1388 30.2475 89.7758C30.348 89.7867 30.4525 89.7996 30.5528 89.8078L30.5271 90H29.3484C29.435 89.7067 29.5443 89.8836 29.7095 89.7191C29.7563 89.2902 29.9005 86.9975 29.4161 86.9118C29.2265 87.0232 29.0884 87.3554 29.0114 87.5576L28.9177 87.4796Z" fill="white"/>
<path d="M45.9119 87.4814C46.2456 86.6854 46.7714 86.2174 47.1464 87.3157C47.3106 87.7965 47.0615 89.5114 47.2542 89.7737C47.4556 89.8053 47.5654 89.7716 47.6336 90H46.3444C46.3738 89.9004 46.3774 89.8703 46.4558 89.798C46.5704 89.7969 46.5975 89.8011 46.7019 89.7482C46.7669 89.2957 46.73 88.7221 46.7381 88.2581C46.7437 87.9368 46.8129 87.0092 46.4161 86.9519C46.1728 87.0844 46.1064 87.3008 46.0057 87.5522L45.9119 87.4814Z" fill="white"/>
<path d="M28.0352 90L28.0431 89.975C28.1416 89.6736 28.2458 89.864 28.4254 89.7707C28.4957 89.1973 28.432 88.1211 28.4484 87.497C28.4634 86.9237 28.2481 87.042 28.1173 86.9203L28.1345 86.8242C28.4231 86.8072 28.6199 86.7873 28.9054 86.7413C28.9058 86.9874 28.9099 87.2336 28.9177 87.4796L29.0114 87.5576C28.898 88.0405 28.8581 89.2208 28.9179 89.7047C28.9992 89.8285 29.0355 89.8062 29.1852 89.8047C29.2528 89.8845 29.2606 89.8952 29.284 90H28.0352Z" fill="white"/>
<path d="M45.0298 90C45.125 89.6855 45.3769 89.8486 45.396 89.744C45.5236 89.0455 45.4149 87.9802 45.4406 87.238C45.4451 87.1072 45.2161 86.9627 45.1347 86.9069L45.1231 86.8356C45.3825 86.814 45.6411 86.783 45.8984 86.7426C45.8981 86.9889 45.9026 87.2352 45.9119 87.4814L46.0057 87.5522C45.9137 87.9424 45.8011 89.4865 45.9472 89.7786C46.1125 89.7991 46.1226 89.7711 46.222 89.866L46.2499 90H45.0298Z" fill="white"/>
<path d="M55.5478 84.5144C55.6218 84.8575 55.5727 86.8337 55.578 87.3034C56.4223 85.4112 57.8409 88.4948 56.4969 90H55.881L55.9216 89.84C56.0319 89.8705 56.2934 89.9538 56.3583 89.8042C56.5815 89.2897 56.6803 87.293 56.2312 86.9265C55.8679 86.8418 55.753 87.1882 55.6219 87.4715C55.4541 87.249 55.485 84.8847 55.5478 84.5144Z" fill="white"/>
<path d="M108.013 86.778C108.019 87.0999 107.975 89.6553 108.086 89.778C108.283 89.8179 108.329 89.7875 108.406 90H107.13L107.219 89.8349C107.321 89.8077 107.414 89.7828 107.515 89.7491C107.642 89.1254 107.513 88.2763 107.555 87.6284C107.593 87.0542 107.552 87.2231 107.223 86.8674C107.305 86.7895 107.852 86.7875 108.013 86.778Z" fill="white"/>
<path d="M103.722 86.7796C103.725 87.2119 103.674 89.5524 103.778 89.7578C104.052 89.8414 104.002 89.7796 104.12 90H102.842L102.93 89.8359C103.027 89.8111 103.147 89.7878 103.23 89.7365C103.277 89.4342 103.313 87.2651 103.194 87.0898C103.105 87.0237 103.016 86.9571 102.927 86.8899L102.967 86.823C103.219 86.8127 103.471 86.7983 103.722 86.7796Z" fill="white"/>
<path d="M42.6295 86.7738C42.6288 87.1327 42.5726 89.6239 42.6904 89.7711C42.8706 89.8139 42.947 89.7941 43.0094 90H41.8109L41.843 89.8333C42.0195 89.7312 42.2416 89.8703 42.1743 89.3686C42.1108 88.8952 42.242 87.3925 42.1456 87.0317C42.0099 87.0156 41.9495 87.0103 41.8206 86.9659L41.8184 86.8787C41.9128 86.7838 42.448 86.7856 42.6295 86.7738Z" fill="white"/>
<path d="M58.9664 90C59.0501 89.7773 59.1325 89.8113 59.3393 89.7642C59.4129 89.6053 59.4058 87.3288 59.3736 87.0292C59.2676 87.015 59.1634 86.995 59.0582 86.9758L59.0168 86.8948C59.0992 86.7881 59.6015 86.7821 59.8297 86.7456C59.8048 86.9652 59.7148 87.4682 59.9433 87.594C59.8454 88.0076 59.7993 89.2886 59.8781 89.7143C60.0548 89.9125 60.1251 89.6767 60.243 90H58.9664Z" fill="white"/>
<path d="M31.1458 89.8936C31.9167 89.9787 32.1137 89.0558 31.5337 88.7928C31.043 88.5703 30.5767 88.4397 30.5884 87.7383C30.6317 87.0773 30.997 86.2581 31.686 86.9746C31.7617 86.9095 31.7717 86.873 31.8106 86.7833C31.9266 86.912 31.8662 87.6918 31.8599 87.9123C31.7591 87.519 31.6097 86.7875 31.0605 86.8954C30.8194 87.0279 30.7703 87.3182 30.8316 87.5723C31.1533 87.9396 32.1001 88.0215 32.0742 88.9987C32.0666 89.2866 31.8661 89.7811 31.6711 90H31.1041L31.1458 89.8936Z" fill="white"/>
<path d="M59.8574 87.4751C60.0298 87.0956 60.227 86.5627 60.7477 86.7397C60.9585 86.8113 61.0978 87.2789 61.1139 87.4834C61.1738 88.2533 61.1475 89.0469 61.1417 89.821C60.9712 89.8505 60.5676 89.8842 60.4139 89.8268C60.5325 89.761 60.5694 89.8512 60.6706 89.7198C60.6964 89.2743 60.8465 86.9782 60.3502 86.9146C60.1566 87.0359 60.0231 87.384 59.9433 87.594C59.7148 87.4682 59.8048 86.9652 59.8297 86.7456C59.8706 86.9934 59.8606 87.225 59.8574 87.4751Z" fill="white"/>
<path d="M85.7522 89.0824L85.7439 89.0677C85.514 88.6422 85.0894 88.768 84.7733 88.4966C84.2985 88.0889 84.4008 86.595 85.2262 86.7076C85.3665 86.8341 85.4464 86.9688 85.5798 86.963L85.701 86.7775C85.8194 86.9282 85.7434 87.7046 85.7332 87.943C85.6621 87.6488 85.5798 87.1061 85.3246 86.9466C84.9745 86.7277 84.5854 87.1385 84.6857 87.5212C85.049 88.025 86.0804 87.8477 85.873 89.2955L85.8588 89.3913C85.8179 89.3303 85.7756 89.1621 85.7522 89.0824Z" fill="white"/>
<path d="M81.3274 89.0554L81.3172 89.0414C81.0347 88.6443 80.6685 88.7701 80.3529 88.5087C79.7437 88.0047 80.1192 86.0156 81.1414 86.9751L81.2651 86.7802C81.3819 86.9386 81.3089 87.7057 81.2987 87.9461C81.2539 87.7598 81.1701 87.4075 81.1131 87.2428C80.8287 86.4218 80.0154 87.223 80.2706 87.546C80.8721 88.3067 81.7248 87.7496 81.4258 89.3897C81.3858 89.3288 81.3469 89.1371 81.3274 89.0554Z" fill="white"/>
<path d="M94.3549 88.4944C94.4323 89.0648 94.5199 89.6171 94.9996 90H93.8148L93.8586 89.9237C94.1255 89.7104 94.2891 89.1754 94.2312 88.838L94.3213 88.8703C94.348 88.7323 94.3495 88.6331 94.3549 88.4944Z" fill="white"/>
<path d="M36.9994 89.0238C37.0904 88.7261 37.5915 87.2085 37.529 87.0149L37.255 86.9932L37.2162 86.9296L37.2542 86.8207C37.5096 86.8076 37.7044 86.8018 37.9596 86.8116L37.9897 86.8614C37.4179 87.4929 37.3386 88.2691 37.1008 89.1087L36.9994 89.0238Z" fill="white"/>
<path d="M84.4758 88.545C84.6477 89.0603 84.7417 90.1795 85.515 89.8262L85.6538 89.8698L85.5394 90H84.9691C84.8873 89.9022 84.8683 89.878 84.7651 89.8054L84.5576 89.8563L84.4909 89.8124C84.4466 89.5662 84.4719 88.8329 84.4758 88.545Z" fill="white"/>
<path d="M30.6064 88.512C30.7589 89.2243 30.7691 89.2926 31.1458 89.8936L31.1041 90H30.5271L30.5528 89.8078C30.6192 89.5867 30.5976 88.8056 30.6064 88.512Z" fill="white"/>
<path d="M80.0432 88.5422C80.2414 89.1337 80.2648 90.1177 81.1073 89.8366L81.1414 89.9616L81.1102 90H80.5326C80.4528 89.9014 80.4347 89.879 80.3334 89.8047L80.1167 89.8579L80.0583 89.8122C80.014 89.5668 80.0393 88.8297 80.0432 88.5422Z" fill="white"/>
<path d="M55.6617 89.2766C55.6889 89.3453 55.9215 89.839 55.9216 89.84L55.881 90H55.5191C55.51 89.7174 55.4398 89.4564 55.6617 89.2766Z" fill="white"/>
<path d="M51.5479 89.8375C51.548 89.8371 51.7978 89.3366 51.8278 89.2652C51.9423 89.4517 51.9125 89.7696 51.9083 90H51.5882L51.5479 89.8375Z" fill="white"/>
<path d="M109.673 89.8208C109.828 89.569 110.033 88.9444 110.101 88.8875C110.206 89.1214 109.931 89.7583 109.725 89.9289L109.673 89.8208Z" fill="white"/>
<path d="M94.2312 88.838C94.2891 89.1754 94.1255 89.7104 93.8586 89.9237L93.8084 89.8218C94.0076 89.493 94.0826 89.1918 94.2312 88.838Z" fill="white"/>
<path d="M25.4259 89.8237C25.5734 89.5655 25.7496 89.0921 25.8689 88.9458C25.8794 89.1928 25.7412 89.6464 25.5638 89.8424C25.5372 89.8716 25.5092 89.8994 25.48 89.9258L25.4259 89.8237Z" fill="white"/>
<path d="M82.8677 89.8354C83.0908 89.5136 83.1789 89.1365 83.3284 88.9713C83.3469 89.2695 83.177 89.7372 82.932 89.9188L82.8677 89.8354Z" fill="white"/>
<path d="M48.8472 89.8233C49.0079 89.5595 49.1759 89.0976 49.2878 88.9666C49.3032 89.2174 49.1654 89.6345 48.9942 89.8344C48.9628 89.8707 48.9299 89.9055 48.8954 89.9387L48.8472 89.8233Z" fill="white"/>
<path d="M74.3722 89.8228C74.5339 89.5538 74.6902 89.1257 74.8222 88.9685C74.8295 89.1887 74.6853 89.6495 74.5188 89.8311C74.4866 89.8658 74.453 89.8988 74.418 89.93L74.3722 89.8228Z" fill="white"/>
<path d="M77.8357 89.8235C78.0134 89.5433 78.1581 89.1014 78.2779 88.9697C78.3149 89.2598 78.1157 89.7347 77.8849 89.9249L77.8357 89.8235Z" fill="white"/>
<path d="M58.5015 89.824C58.6792 89.5446 58.8269 89.1012 58.9449 88.9702C58.9688 89.2994 58.7948 89.7046 58.5512 89.9249L58.5015 89.824Z" fill="white"/>
<path d="M33.4283 89.8262C33.6276 89.5232 33.7449 89.1104 33.8661 88.9748C33.9297 89.2284 33.717 89.7176 33.5237 89.8918L33.4283 89.8262Z" fill="white"/>
<path d="M81.3274 89.0554C81.3469 89.1371 81.3858 89.3288 81.4258 89.3897C81.3756 89.6043 81.3045 89.8053 81.1414 89.9616L81.1073 89.8366C81.268 89.4841 81.2933 89.4457 81.3274 89.0554Z" fill="white"/>
<path d="M87.1606 89.84C87.3203 89.6311 87.3773 89.5528 87.4932 89.3169L87.5394 89.3194C87.5331 89.5642 87.4786 89.7011 87.313 89.8769L87.2355 89.9082L87.1606 89.84Z" fill="white"/>
<path d="M85.7522 89.0824C85.7756 89.1621 85.8179 89.3303 85.8588 89.3913C85.8038 89.626 85.7877 89.6707 85.6538 89.8698L85.515 89.8262C85.7157 89.5444 85.7298 89.4163 85.7522 89.0824Z" fill="white"/>
<path d="M102.471 89.8266L102.483 89.8156C102.671 89.6549 102.729 89.5097 102.842 89.2868L102.901 89.294C102.884 89.5092 102.798 89.7426 102.637 89.8869L102.471 89.8266Z" fill="white"/>
<path d="M72.5543 89.8279C72.9594 89.5183 72.8372 89.2977 73.0003 89.2722C73.0296 89.4325 72.9049 89.8013 72.7583 89.8595L72.5543 89.8279Z" fill="white"/>
<path d="M106.741 89.8289C107.114 89.52 107.039 89.301 107.178 89.2651C107.211 89.4235 107.084 89.8044 106.946 89.8574L106.741 89.8289Z" fill="white"/>
</svg>
