<svg width="148" height="148" viewBox="0 0 148 148" fill="none" xmlns="http://www.w3.org/2000/svg">
<path d="M23.4984 53.5685C24.0929 53.4869 25.8679 53.5314 26.5673 53.5335L32.3852 53.5397L40.1372 53.5372C41.248 53.5365 42.3587 53.529 43.4694 53.5281C44.1512 53.5276 44.8312 53.6354 45.3944 54.0432C46.3658 54.7466 46.3654 56.1827 45.6498 57.0654C45.2989 57.4967 44.8088 57.7952 44.2619 57.9104C43.8304 57.9981 40.6061 57.9603 40.0032 57.9602L29.2065 57.9619C27.6411 57.963 25.8801 57.8667 24.3368 57.9829C22.2101 58.143 20.353 60.1838 20.6292 62.3275C20.8079 63.7135 21.8888 64.912 23.2258 65.2787C24.3105 65.5762 25.7929 65.4594 26.9391 65.4587L34.1536 65.4564C37.2944 65.4532 40.2468 65.2258 42.8997 67.303C46.6098 70.208 47.2122 76.5879 44.4453 80.2828C43.1423 82.0229 40.2634 83.4384 38.1111 83.7054L38.078 83.7088C36.7317 83.8436 34.8681 83.791 33.4803 83.7907L20.3989 83.7888C19.1585 83.7896 17.1987 84.0432 16.2135 83.2275C15.8051 82.8934 15.5496 82.4103 15.5046 81.8873C15.4644 81.4098 15.6901 80.5848 16.0156 80.2163C16.8203 79.3055 18.0066 79.3014 19.1205 79.3179C20.2429 79.3344 21.3407 79.3282 22.4483 79.3285L31.9303 79.3289C33.6088 79.3286 35.301 79.3432 36.9812 79.2955C37.6289 79.2685 38.1498 79.1008 38.7047 78.7971C42.798 76.5563 41.2548 71.1665 36.9505 70.3821C35.8275 70.1774 34.7254 70.2606 33.6158 70.2621L27.3729 70.2707C24.244 70.2748 21.0061 70.5466 18.4564 68.3195C15.6712 65.8865 14.6816 61.3557 16.4685 58.0807C17.9043 55.4493 20.4857 53.7733 23.4984 53.5685Z" fill="white"/>
<path d="M115.672 53.5615C116.035 53.5116 116.484 53.5252 116.855 53.5313C121.176 53.6024 125.411 55.3927 128.392 58.5164C130.616 60.8457 132.048 63.8132 132.424 67.0161C132.534 67.9534 132.502 69.3309 132.466 70.2841C130.651 70.2381 128.712 70.2687 126.89 70.2685L117.216 70.263C115.444 70.262 113.645 70.2916 111.874 70.2737C111.203 70.2441 110.451 70.0461 109.999 69.5251C109.637 69.1068 109.412 68.4332 109.436 67.8821C109.479 66.854 110.387 65.7377 111.44 65.5875C112.29 65.4663 113.242 65.5136 114.112 65.5141L124.019 65.5145C125.096 65.5134 126.451 65.4725 127.502 65.553C127.193 64.9529 126.976 64.2904 126.66 63.6904C124.103 58.8416 118.072 56.897 112.946 58.4616C108.315 59.8751 105.086 63.9105 105.065 68.7493C105.064 69.0719 105.048 69.4778 105.136 69.785C105.558 73.0254 107.107 75.514 109.817 77.3889C113.174 79.7108 117.937 80.0572 121.591 78.237C123.227 77.3349 124.356 76.382 126.282 76.023C126.801 75.9264 129.802 75.659 130.223 76.286C130.366 76.4979 129.238 77.8356 128.942 78.1765C126.116 81.3939 122.135 83.3898 117.847 83.7385C109.058 84.3863 100.857 78.2722 100.419 69.2556C100.035 61.3402 106.199 54.8009 113.939 53.6946C114.506 53.6135 115.097 53.5999 115.672 53.5615Z" fill="white"/>
<path d="M63.4645 53.5623C64.8368 53.4281 66.6833 53.5559 68.0971 53.5335C70.0163 53.503 72.085 53.4744 73.9845 53.6302C75.521 53.7562 76.96 55.3766 77.1133 56.8623C77.2305 58.5933 77.166 60.4038 77.1647 62.1387L77.1641 79.6785C77.1666 80.7794 77.2565 82.6838 77.0984 83.6871C76.8087 83.8584 72.9746 83.7953 72.3071 83.8189C72.227 83.1362 72.2484 82.0476 72.2488 81.3414L72.2516 65.3703L72.2615 62.1719C72.2644 61.2452 72.3927 60.3227 71.9546 59.4818C70.944 57.5423 69.2179 57.9794 67.4597 57.9431C64.589 57.8837 62.0115 57.8382 59.4602 59.3681C56.7668 60.9585 55.1277 63.0745 54.2925 66.0511C53.8495 67.654 53.8052 69.3395 54.1633 70.9631C55.2146 75.8205 59.266 79.1823 64.219 79.5091C66.0368 79.629 67.3429 78.8654 68.8738 79.8896C69.8881 80.5683 70.0978 81.3373 70.3375 82.4443C68.5212 83.1866 67.1209 83.6098 65.1292 83.7539C61.2374 84.0355 56.9641 82.6461 54.0333 80.0681C50.9524 77.4049 49.0743 73.6305 48.8174 69.5862C48.3073 60.947 54.8459 54.0646 63.4645 53.5623Z" fill="white"/>
<path d="M96.9573 53.5069C97.0032 53.4993 97.1378 53.5036 97.1918 53.504L97.2824 53.5978C97.3332 53.9974 97.3016 55.3819 97.211 55.7549C96.6075 58.2335 94.6765 57.8145 92.7858 58.074C91.5632 58.2419 90.0422 58.796 89.033 59.4538C87.4996 60.4356 86.4072 61.9663 85.9848 63.7267C85.8384 64.3287 85.7907 64.9337 85.661 65.5509C85.8025 65.5325 85.9792 65.5106 86.1219 65.5119C88.7272 65.5578 91.4118 65.4476 94.009 65.5344C96.2012 65.7203 97.0008 68.1429 95.4215 69.6006C94.4259 70.5199 92.6369 70.274 91.3374 70.2735C89.4294 70.2793 87.5207 70.2737 85.6126 70.2568C85.6989 71.1477 85.6703 72.2696 85.6709 73.1759L85.6691 77.6114C85.6685 78.4276 85.7628 83.2012 85.5835 83.6791C85.1797 83.8631 81.6297 83.7999 80.9176 83.8039C80.9095 83.6141 80.9027 83.4242 80.8971 83.2343C80.7873 79.665 80.8742 75.638 80.8754 72.0359L80.8748 67.8504C80.8723 66.0532 80.8084 64.5477 81.2742 62.7841C82.6867 57.4389 87.4655 53.6609 93.0352 53.5468C94.3285 53.5203 95.6516 53.5457 96.9573 53.5069Z" fill="white"/>
<path d="M108.867 89.5598C110.229 89.3298 111.523 90.2342 111.761 91.5832C111.999 92.9321 111.092 94.2182 109.732 94.4604C108.364 94.7041 107.056 93.7985 106.817 92.4409C106.578 91.0833 107.497 89.7913 108.867 89.5598ZM109.48 93.54C110.16 93.4583 110.707 92.946 110.827 92.2774C110.913 91.8027 110.77 91.3157 110.441 90.9605C110.111 90.6054 109.634 90.4229 109.15 90.467C108.59 90.5181 108.101 90.8641 107.87 91.3726C107.64 91.8811 107.703 92.4732 108.037 92.9221C108.37 93.371 108.922 93.6071 109.48 93.54Z" fill="white"/>
<path d="M124.968 89.5538C125.863 89.4251 126.758 89.7846 127.311 90.4944C127.864 91.2042 127.987 92.1542 127.635 92.9798C127.282 93.8054 126.508 94.3785 125.61 94.4793C124.25 94.6317 123.018 93.6746 122.843 92.3295C122.668 90.9842 123.614 89.7486 124.968 89.5538ZM124.066 91.0824C123.691 91.5866 123.657 92.265 123.981 92.8036C124.304 93.3423 124.922 93.6361 125.548 93.5492C126.406 93.4302 127.005 92.6452 126.886 91.7945C126.768 90.9439 125.977 90.3488 125.118 90.4645C124.698 90.5211 124.319 90.744 124.066 91.0824Z" fill="white"/>
<path d="M66.7675 89.6276C68.5471 89.7915 71.1576 89.3354 70.9193 92.4114C70.8815 92.8988 70.5346 93.3877 70.2346 93.7686C69.1049 94.5139 68.0474 94.3834 66.7093 94.3893C66.6757 93.7866 66.6203 89.9793 66.7675 89.6276ZM67.6549 93.5239C68.5146 93.4486 68.6887 93.5499 69.476 93.1678C69.8724 92.8157 69.8843 92.5543 70.0193 92.0419C69.5475 90.4721 69.1854 90.5774 67.6634 90.5438C67.6712 91.5389 67.6518 92.5297 67.6549 93.5239Z" fill="white"/>
<path d="M96.3302 89.6241C98.2488 89.6905 100.512 89.5035 100.434 92.2658C100.417 92.8665 100.117 93.3194 99.7419 93.764C98.7544 94.497 97.4238 94.3845 96.2434 94.382C96.2 93.7628 96.1937 90.056 96.3302 89.6241ZM98.9169 93.1942C99.0986 93.0385 99.3139 92.8692 99.3734 92.6389C99.7264 91.286 99.0862 90.5928 97.8196 90.5547C97.6198 90.5489 97.4195 90.5443 97.2191 90.541C97.2154 91.0364 97.1075 93.2458 97.2942 93.461C97.7191 93.5819 98.5422 93.417 98.9169 93.1942Z" fill="white"/>
<path d="M57.545 89.5832C59.7389 89.3307 60.1743 91.0874 60.0444 92.8092C60.0098 93.2673 60.0919 93.9823 59.7904 94.3657C58.5673 94.5167 59.2877 93.5518 58.9943 93.0499C58.8345 92.9405 58.4305 92.9717 58.2115 92.9704C57.6388 93.0003 57.311 92.9998 56.7392 92.9621C56.7784 93.3671 56.9336 94.0232 56.6395 94.3161C56.4239 94.44 56.1509 94.4024 55.896 94.3949C55.8223 93.8539 55.8254 93.2775 55.8175 92.7315C55.7945 91.1434 55.7211 90.0153 57.545 89.5832ZM56.6966 92.1031C57.2268 92.0949 57.7571 92.0969 58.2871 92.1093L59.1005 92.1133C58.9888 91.0997 58.9294 90.3509 57.6407 90.4377C56.7532 90.7909 56.8019 91.2349 56.6966 92.1031Z" fill="white"/>
<path d="M112.564 89.6287C113.893 89.7915 114.886 89.3823 116.006 90.261C116.433 91.3078 116.324 92.1876 115.238 92.6909C115.511 93.0614 116.385 93.9429 116.099 94.3338C115.902 94.4335 115.591 94.3767 115.359 94.3571C115.125 94.1552 114.419 93.0415 114.219 92.7359L113.498 92.7903C113.485 93.2637 113.576 93.8097 113.397 94.2313C113.163 94.4348 112.83 94.4381 112.593 94.2378C112.486 93.6869 112.438 90.0503 112.564 89.6287ZM113.47 91.9231C114.001 91.9249 114.622 91.9883 115.081 91.7577C116.006 90.4159 114.167 90.594 113.477 90.5419C113.491 90.9609 113.529 91.5206 113.47 91.9231Z" fill="white"/>
<path d="M52.4326 89.5878C53.4149 89.4643 54.5594 89.9629 55.0666 90.8159C55.1581 90.9697 55.1593 90.9662 55.1221 91.1255C54.5043 91.5228 53.4444 90.4014 52.6646 90.4308C51.797 90.4635 51.2082 91.3227 51.2423 92.158C51.2548 92.5186 51.4137 92.8589 51.683 93.1017C52.2318 93.5996 52.8179 93.5328 53.4862 93.4962C53.8696 93.2519 54.1239 92.9197 54.4103 92.5757C53.9488 92.5979 53.0387 92.6878 52.6058 92.547C52.4869 92.5084 52.4769 92.3557 52.4364 92.217C52.6426 91.503 53.0405 91.837 53.6371 91.7997C54.8391 91.7245 56.0578 91.4648 55.0776 93.1263C54.329 94.395 52.7934 94.8376 51.4789 94.1101C50.9421 93.8186 50.5491 93.322 50.3913 92.7357C49.9398 91.1209 50.8416 89.9798 52.4326 89.5878Z" fill="white"/>
<path d="M83.6959 89.5872C84.5612 89.4843 86.3465 90.1199 86.3154 91.0733C86.058 91.306 85.4185 91.167 85.1933 90.9553C83.431 89.2998 81.2203 91.9587 83.3628 93.4597C83.8231 93.5356 84.2542 93.5162 84.7175 93.4968C84.9731 93.3066 85.3323 93.0616 85.4352 92.7614C85.1673 92.2872 83.9788 93.0257 83.6928 92.2589C83.748 91.5145 84.2933 91.8167 84.8652 91.8007C85.2628 91.7895 86.1287 91.7006 86.4761 91.8211C87.0232 92.801 85.617 94.1533 84.6884 94.3659C82.3579 94.8995 80.7321 92.6957 81.8797 90.6699C82.2692 89.9821 82.9832 89.7538 83.6959 89.5872Z" fill="white"/>
<path d="M71.6049 89.6337C72.8096 89.7196 73.9913 89.7109 75.1971 89.683C75.1568 89.9514 75.1395 90.2662 75.1171 90.54C74.4702 90.6181 73.183 90.6077 72.5354 90.5506C72.564 90.9438 72.5584 91.1586 72.5354 91.5526C72.9951 91.5595 75.2151 91.2237 74.6048 92.2602C74.258 92.4665 73.1191 92.3586 72.6161 92.3709L72.5274 92.4654C72.5727 92.9411 72.5844 93.0136 72.5286 93.4924C73.0366 93.4343 74.3908 93.3853 74.9069 93.5262C75.0762 93.5726 75.1258 93.7126 75.1779 93.8488C75.1668 93.9534 75.1444 94.2034 75.0718 94.2297C74.4559 94.4527 72.1473 94.3915 71.6108 94.4011C71.5469 93.9869 71.5348 90.0662 71.6049 89.6337Z" fill="white"/>
<path d="M91.9453 89.642C92.6053 89.6937 93.2783 89.6918 93.9396 89.7008C94.3589 89.7065 94.9947 89.6255 95.3824 89.7031C95.695 90.1513 95.2763 90.5667 94.8043 90.5921C94.1728 90.6262 93.5022 90.5852 92.8733 90.5621C92.903 90.9259 92.8913 91.1822 92.877 91.5455C93.3757 91.5724 94.6144 91.4778 94.9705 91.6359C94.9966 91.6743 95.0232 91.7202 95.035 91.7652C95.0772 91.9253 95.0499 92.0954 94.96 92.2348C94.5388 92.4575 93.4098 92.3763 92.9105 92.3525C92.8838 92.4461 92.8764 93.3487 92.8702 93.5234C93.3422 93.4382 94.7385 93.3979 95.2397 93.5082C95.414 93.5466 95.4736 93.6743 95.5387 93.8094C95.5344 94.0299 95.4984 94.0695 95.3818 94.2551C95.0009 94.4473 92.4626 94.3817 91.9006 94.3877C91.8659 93.792 91.8305 90.0194 91.9453 89.642Z" fill="white"/>
<path d="M77.1157 89.5899C78.3657 89.4847 78.7881 90.0835 79.2353 91.0978L78.3328 91.0787C78.2348 90.9552 78.0034 90.6374 77.8769 90.5684C77.4563 90.339 76.9427 90.3706 76.6871 90.7868C76.6623 90.8951 76.6381 91.0018 76.6822 91.115C76.9886 91.7284 77.9916 91.5487 78.5573 91.8818C79.1063 92.1466 79.249 92.5034 79.1789 93.104C79.0796 93.9491 78.5015 94.2559 77.7453 94.4602C77.0798 94.5784 76.0625 94.2838 75.7697 93.6275C75.6828 93.4325 75.5879 93.2406 75.6618 93.0286C76.2616 92.6186 76.9061 93.8064 77.6994 93.5587C77.826 93.5467 78.0598 93.4647 78.1169 93.3324C78.5338 92.3673 76.787 92.5016 76.3032 92.126C76.0097 91.8987 75.7567 91.7646 75.7033 91.434C75.5327 90.3781 76.1605 89.8202 77.1157 89.5899Z" fill="white"/>
<path d="M88.8208 89.5845C91.5508 89.2531 91.1991 92.284 91.0595 94.0277C91.0322 94.3653 90.8101 94.491 90.4808 94.4021C89.7978 93.9428 90.6054 91.2284 89.7252 90.617C89.6427 90.5596 89.4449 90.4776 89.3481 90.4359C87.383 90.3536 88.1981 92.9613 88.0312 94.3597C87.7347 94.4039 87.445 94.4033 87.1467 94.4098C87.0251 93.6211 86.8985 91.0482 87.3811 90.3846C87.7868 89.8264 88.203 89.7128 88.8208 89.5845Z" fill="white"/>
<path d="M62.0376 89.5875C62.0854 89.5826 62.1334 89.579 62.1814 89.577C62.8569 89.55 63.3186 89.8043 63.7967 90.2384C63.916 90.5515 64.0672 90.789 63.8968 91.0977C63.3801 91.2569 62.2076 89.8087 61.7601 90.6543C61.2787 91.5642 62.491 91.5625 63.0608 91.7317C64.3436 92.1124 64.3296 92.928 63.7616 93.9611C63.4113 94.2054 63.127 94.3288 62.7242 94.4539C61.8612 94.6402 60.2975 93.9264 60.6412 93.0531C60.919 92.3471 62.3708 94.3697 63.1165 93.261C63.1726 93.0535 63.1755 93.0271 63.1097 92.8204C62.6702 92.248 61.0138 92.6326 60.7379 91.517C60.4496 90.3509 60.9522 89.8901 62.0376 89.5875Z" fill="white"/>
<path d="M128.568 89.611C128.811 89.6356 129.086 89.6873 129.33 89.7271C129.4 90.6567 129.134 92.4973 129.665 93.2349C130.05 93.7698 131.403 93.6853 131.471 92.7582C131.545 91.7494 131.516 90.7057 131.563 89.6694L132.477 89.6437C132.449 89.9621 132.448 90.2222 132.447 90.5398C132.471 91.9156 132.81 93.6455 131.271 94.3027C130.736 94.5322 130.133 94.5422 129.591 94.3304C128.131 93.746 128.46 92.0819 128.459 90.8534C128.459 90.4694 128.421 89.969 128.568 89.611Z" fill="white"/>
<path d="M103.04 89.591C103.977 89.7517 105.602 89.7336 106.555 89.6443L106.505 90.5548C105.75 90.6106 104.783 90.6026 104.03 90.5632C104.055 90.876 104.04 91.2279 104.035 91.5444C104.562 91.529 105.305 91.4783 105.826 91.5657C105.988 91.5928 106.016 91.7054 106.092 91.8419C106.071 92.0002 106.074 92.1069 105.964 92.2266C105.494 92.4967 104.586 92.3742 104.04 92.3394C104.029 92.8328 104.086 93.3006 104.054 93.7968C104.023 94.2638 103.526 94.5821 103.137 94.309C102.922 93.5767 103.029 90.5229 103.04 89.591Z" fill="white"/>
<path d="M120.75 91.5249C121.098 91.1094 121.653 89.865 122.183 89.6585C122.305 89.6107 122.812 89.6153 122.932 89.6915C122.952 90.044 122.167 91.0545 121.924 91.4089C121.073 92.572 121.289 92.9592 121.256 94.3715C120.975 94.3849 120.832 94.398 120.551 94.3484C120.242 94.0889 120.442 93.1902 120.353 92.7355C120.148 91.6946 118.884 90.6324 118.615 89.6362C118.758 89.6388 119.251 89.6577 119.368 89.6975C120.016 89.9187 120.456 90.9604 120.75 91.5249Z" fill="white"/>
<path d="M79.8897 89.5888C80.1651 89.6365 80.5491 89.6487 80.8357 89.6662C80.7923 90.9419 80.9331 93.1546 80.7625 94.325C80.4641 94.3764 80.1658 94.4783 79.9307 94.2603C79.7874 93.7492 79.8283 90.2219 79.8897 89.5888Z" fill="white"/>
</svg>
