<svg width="148" height="148" viewBox="0 0 148 148" fill="none" xmlns="http://www.w3.org/2000/svg">
<path d="M104.461 71.6701C104.461 73.9618 102.877 75.1005 100.86 75.1005C98.8422 75.1005 97.2576 73.96 97.2576 71.6701C97.2576 69.3802 98.8422 68.2397 100.86 68.2397C102.877 68.2397 104.461 69.3802 104.461 71.6701ZM95.9445 71.6701C95.9445 73.8882 97.3053 76.2159 100.86 76.2159C104.414 76.2159 105.775 73.8882 105.775 71.6701C105.775 69.452 104.412 67.1244 100.86 67.1244C97.3071 67.1244 95.9445 69.452 95.9445 71.6701Z" fill="white"/>
<path d="M64.6512 68.3834H68.3522C69.4049 68.3834 69.9129 68.9419 69.9129 69.7663C69.9129 70.3734 69.603 71.1367 68.3155 71.1367H64.6512V68.3834ZM63.3381 75.9231H64.6494V72.2502H68.0789C69.1683 72.2502 69.7002 72.7226 69.7882 74.2743C69.8505 75.316 69.8505 75.6806 70.0596 75.9231H71.4461C71.149 75.5836 71.0995 75.1831 71.0261 73.5721C70.9766 72.5537 70.5181 71.8389 69.7387 71.7294V71.7042C70.7052 71.4007 71.2242 70.6248 71.2242 69.5706C71.2242 68.5163 70.5805 67.268 68.8107 67.268H63.3399V75.9231H63.3381Z" fill="white"/>
<path d="M108.889 75.7758H110.202V68.2361H113.543V67.1208H105.547V68.2361H108.889V75.7758Z" fill="white"/>
<path d="M89.1092 74.2977L85.6063 67.1208H83.7613V75.7758H85.0726V68.7444H85.0983L88.5278 75.7758H89.6906L93.133 68.5989H93.1568V75.7758H94.4699V67.1208H92.6488L89.1092 74.2977Z" fill="white"/>
<path d="M116.168 67.1208H114.855V75.7776H116.168V67.1208Z" fill="white"/>
<path d="M126.79 70.2351C126.566 67.6416 124.129 66.9017 122.357 66.9017C119.337 66.9017 117.729 68.9024 117.729 71.424C117.729 74.7934 120.142 75.9949 122.37 75.9949C124.896 75.9949 126.579 74.3821 126.79 72.4675H125.477C125.105 74.1522 123.929 74.8796 122.381 74.8796C119.942 74.8796 119.04 73.1949 119.04 71.557C119.04 69.1934 120.364 68.017 122.457 68.017C124.312 68.017 125.279 69.0353 125.477 70.2351H126.79Z" fill="white"/>
<path d="M135.113 75.7758H136.611L132.613 67.1208H131.115L127.117 75.7758H128.529L129.655 73.2542H133.987L135.113 75.7758ZM130.148 72.1389L131.808 68.308L133.504 72.1389H130.148Z" fill="white"/>
<path d="M55.9471 71.3414V68.3834H59.3382C60.3413 68.3834 60.8365 68.9527 60.8365 69.7771C60.8365 70.65 60.4037 71.3414 59.1034 71.3414H55.9471ZM54.634 75.9231H55.9453V72.4568H59.2758C61.1336 72.4568 62.1478 71.3774 62.1478 69.7537C62.1478 68.1301 61.1318 67.268 59.1896 67.268H54.634V75.9231Z" fill="white"/>
<path d="M80.9828 71.6701C80.9828 73.9618 79.3983 75.1005 77.3809 75.1005C75.3635 75.1005 73.7789 73.96 73.7789 71.6701C73.7789 69.3802 75.3635 68.2397 77.3809 68.2397C79.3983 68.2397 80.9828 69.3802 80.9828 71.6701ZM72.4658 71.6701C72.4658 73.8882 73.8266 76.2159 77.3809 76.2159C80.9351 76.2159 82.296 73.8882 82.296 71.6701C82.296 69.452 80.9333 67.1244 77.3809 67.1244C73.8284 67.1244 72.4658 69.452 72.4658 71.6701Z" fill="white"/>
<path d="M80.8856 79.578H54.634V80.133H80.8856V79.578Z" fill="white"/>
<path d="M134.814 80.9663H135.494L135.705 79.9875L137 78.3783H136.175L135.439 79.4541L135.126 78.3783H134.416L135.027 79.9875L134.816 80.9663H134.814ZM131.228 80.9663H131.894L132.232 79.2745H132.239L132.85 80.9663H133.556L134.108 78.3801H133.442L133.112 80.0719H133.105L132.487 78.3801H131.78L131.228 80.9663ZM129.952 79.0715L130.051 80.0019H129.448L129.943 79.0715H129.952ZM128.916 80.9663L129.182 80.503H130.11L130.172 80.9663H130.863L130.431 78.3801H129.736L128.193 80.9663H128.916ZM127.085 78.9332H127.474C127.689 78.9332 127.889 78.962 127.889 79.2116C127.889 79.4253 127.751 79.5744 127.434 79.5744H126.95L127.087 78.9332H127.085ZM125.961 80.9663H126.649L126.831 80.1294H127.441C128.085 80.1294 128.577 79.8025 128.577 79.1506C128.577 78.6908 128.289 78.3783 127.814 78.3783H126.515L125.959 80.9645L125.961 80.9663ZM122.357 80.9663H123.009L123.401 78.9117H123.408L123.564 80.9663H124.094L125.138 78.9117H125.145L124.65 80.9663H125.301L125.853 78.3801H124.905L123.995 80.2246H123.988L123.861 78.3801H122.915L122.359 80.9663H122.357ZM120.201 79.8851C120.201 79.4577 120.437 78.8847 120.971 78.8847C121.341 78.8847 121.481 79.0985 121.481 79.4828C121.481 79.8923 121.226 80.4724 120.729 80.4724C120.362 80.4724 120.199 80.2192 120.199 79.8851M119.511 79.8815C119.511 80.6035 119.937 81.0274 120.674 81.0274C121.62 81.0274 122.169 80.3359 122.169 79.4253C122.169 78.5148 121.451 78.3316 120.993 78.3316C120.083 78.3316 119.513 79.023 119.513 79.8815M119.278 79.3104C119.286 78.6297 118.838 78.3244 118.176 78.3244C117.281 78.3244 116.758 79.0194 116.758 79.8528C116.758 80.8137 117.42 81.0202 117.839 81.0202C118.609 81.0202 119.034 80.6718 119.181 80.0091H118.493C118.446 80.2695 118.224 80.4652 117.934 80.4652C117.545 80.4652 117.446 80.212 117.446 79.8779C117.446 79.4685 117.642 78.8776 118.163 78.8776C118.486 78.8776 118.618 79.0697 118.589 79.3086H119.276L119.278 79.3104ZM111.599 80.9663H112.265L112.603 79.2745H112.61L113.221 80.9663H113.927L114.479 78.3801H113.813L113.485 80.0719H113.477L112.859 78.3801H112.153L111.601 80.9663H111.599ZM108.762 80.9663H110.879L111.005 80.3862H109.573L109.677 79.8941H110.987L111.099 79.3733H109.789L109.874 78.9602H111.295L111.421 78.3801H109.312L108.764 80.9663H108.762ZM106.75 80.9663H107.535L108.903 78.3801H108.179L107.291 80.2964H107.284L107.176 78.3801H106.484L106.75 80.9663ZM104.859 80.9663H105.547L106.099 78.3801H105.411L104.859 80.9663ZM101.96 80.9663H102.648L102.848 80.0252H103.306C103.55 80.0252 103.651 80.1456 103.651 80.3736C103.651 80.5479 103.633 80.6862 103.633 80.8191C103.633 80.8694 103.644 80.916 103.655 80.9681H104.346C104.306 80.8963 104.306 80.7831 104.306 80.6933C104.306 80.5443 104.317 80.4006 104.317 80.212C104.317 79.9624 104.243 79.8277 104.047 79.781V79.7738C104.461 79.7163 104.65 79.4397 104.65 79.0518C104.65 78.5004 104.284 78.3819 103.803 78.3819H102.508L101.962 80.9681L101.96 80.9663ZM103.084 78.9009H103.59C103.772 78.9009 103.961 78.9476 103.961 79.1685C103.961 79.4469 103.746 79.5241 103.499 79.5241H102.95L103.084 78.9009ZM100.491 78.9584C100.81 78.9584 101.012 79.1075 101.012 79.5277C101.012 79.8654 100.838 80.3862 100.241 80.3862H99.7867L100.093 78.9584H100.491ZM100.155 80.9663C101.202 80.9663 101.701 80.2785 101.701 79.4738C101.701 78.6692 101.202 78.3801 100.524 78.3801H99.5317L98.9724 80.9663H100.155ZM93.6978 80.9663H95.8142L95.9408 80.3862H94.5084L94.613 79.8941H95.9224L96.0343 79.3733H94.7249L94.8092 78.9602H96.2306L96.3571 78.3801H94.248L93.6997 80.9663H93.6978ZM91.1706 80.9663H93.0908L93.2173 80.3862H91.9812L92.4104 78.3783H91.7226L91.1706 80.9645V80.9663ZM89.5328 78.9332H89.9217C90.1362 78.9332 90.3361 78.962 90.3361 79.2116C90.3361 79.4253 90.1986 79.5744 89.8813 79.5744H89.3971L89.5347 78.9332H89.5328ZM88.4086 80.9663H89.0964L89.2779 80.1294H89.8886C90.5324 80.1294 91.0239 79.8025 91.0239 79.1506C91.0239 78.6908 90.7359 78.3783 90.2609 78.3783H88.9625L88.4068 80.9645L88.4086 80.9663ZM86.1932 79.8797C86.1932 79.4523 86.4297 78.8794 86.9634 78.8794C87.3339 78.8794 87.4733 79.0931 87.4733 79.4774C87.4733 79.8869 87.2184 80.467 86.7214 80.467C86.3546 80.467 86.1932 80.2138 86.1932 79.8797ZM85.5036 79.8762C85.5036 80.5964 85.9291 81.022 86.6663 81.022C87.6127 81.022 88.161 80.3305 88.161 79.42C88.161 78.5094 87.4439 78.3262 86.9836 78.3262C86.074 78.3262 85.5036 79.0177 85.5036 79.8762ZM82.6151 80.9663H84.7315L84.858 80.3862H83.4257L83.5302 79.8941H84.8397L84.9516 79.3733H83.6421L83.7265 78.9602H85.1478L85.2743 78.3801H83.1653L82.6169 80.9663H82.6151ZM80.9773 78.9332H81.3661C81.5807 78.9332 81.7806 78.962 81.7806 79.2116C81.7806 79.4253 81.6431 79.5744 81.3258 79.5744H80.8416L80.9791 78.9332H80.9773ZM79.8512 80.9663H80.539L80.7206 80.1294H81.3313C81.975 80.1294 82.4665 79.8025 82.4665 79.1506C82.4665 78.6908 82.1786 78.3783 81.7036 78.3783H80.4051L79.8494 80.9645L79.8512 80.9663Z" fill="white"/>
<path d="M23.0675 83.2816V89.7084C23.0675 91.5258 24.5326 93 26.3389 93C28.1453 93 29.6104 91.5258 29.6104 89.7084V83.2816H23.0675Z" fill="white"/>
<path d="M36.9965 74.8154H31.0757V81.4643C31.0757 83.2817 32.5408 84.7559 34.3472 84.7559C36.1535 84.7559 37.6186 83.2817 37.6186 81.4643V74.7599C37.4179 74.7902 37.2072 74.8154 36.9965 74.8154Z" fill="white"/>
<path d="M45.9876 74.8809H39.3243V81.4641H45.9876C47.794 81.4641 49.2591 79.99 49.2591 78.1725C49.2591 76.355 47.794 74.8809 45.9876 74.8809Z" fill="white"/>
<path d="M24.0207 74.8809C22.2143 74.8809 20.7492 76.355 20.7492 78.1725C20.7492 79.99 22.2143 81.4641 24.0207 81.4641H29.545V74.8809H24.0207Z" fill="white"/>
<path d="M29.6104 73.2908V66.6419C29.6104 64.8245 28.1453 63.3503 26.3389 63.3503C24.5326 63.3503 23.0675 64.8245 23.0675 66.6419V73.2908H29.6104Z" fill="white"/>
<path d="M36.9965 65.1222C37.2072 65.1222 37.4129 65.1424 37.6186 65.1778V58.2916C37.6186 56.4742 36.1535 55 34.3472 55C32.5408 55 31.0757 56.4742 31.0757 58.2916V65.1222H36.9965Z" fill="white"/>
<path d="M37.142 66.6418H31.0757V73.225H37.142C38.9483 73.225 40.4134 71.7508 40.4134 69.9334C40.4134 68.1159 38.9483 66.6418 37.142 66.6418Z" fill="white"/>
<path d="M21.547 66.6418H14.3116C12.4852 66.6418 11 68.1159 11 69.9334C11 71.7508 12.4802 73.225 14.3116 73.225H21.547V66.6418Z" fill="white"/>
</svg>
