<svg width="148" height="148" viewBox="0 0 148 148" fill="none" xmlns="http://www.w3.org/2000/svg">
<path d="M20.9119 56.6459L34.9237 56.6468L34.9239 60.5915L25.3692 60.5929L25.3678 64.4064L33.877 64.4076C33.905 65.6802 33.8789 67.046 33.8777 68.3258L25.3678 68.327V75.0162C28.8834 76.0486 31.2412 78.4476 32.047 82.0554C32.4702 84.1496 32.1481 86.3261 31.1368 88.2074C29.9844 90.3403 28.0342 91.928 25.7143 92.6217C23.3974 93.3101 20.9028 93.0521 18.775 91.9041C16.6495 90.7489 15.0684 88.7959 14.3788 86.4739C13.6872 84.1454 13.9497 81.6369 15.1083 79.5027C16.3963 77.1325 18.3497 75.7577 20.8894 75.0084L20.8906 62.7048L20.8855 58.8893C20.8846 58.2399 20.8587 57.2777 20.9119 56.6459ZM23.4959 89.7578C26.7377 89.5469 29.1965 86.7457 28.9911 83.4977C28.7857 80.2497 25.9935 77.7819 22.7512 77.9826C19.5015 78.1837 17.0315 80.9886 17.2374 84.2438C17.4433 87.4991 20.2469 89.9692 23.4959 89.7578Z" fill="white"/>
<path d="M23.1039 79.7766C24.0871 80.5396 25.4082 81.7751 26.3574 82.6108V87.0272L19.8858 87.0273V82.6043L23.1039 79.7766Z" fill="white"/>
<path d="M77.7036 56.5292L82.3293 56.5288C83.0545 57.9444 83.912 59.4605 84.6739 60.8699L88.8075 68.4959C90.9974 64.6055 93.1569 60.4704 95.2893 56.5304L99.9399 56.5324C99.9957 58.698 99.9429 61.1073 99.9435 63.2892L99.9387 75.8841L95.3236 75.8859L95.3278 69.1537C95.3278 68.6357 95.3598 67.1195 95.2602 66.7148L95.1677 66.6938C94.9501 66.8383 90.7477 74.9917 90.2799 75.8867L87.3346 75.8869C86.8964 75.0389 82.6282 66.7782 82.426 66.6275L82.3187 66.6585C82.2315 66.7989 82.2647 74.8905 82.2641 75.8854L77.6496 75.8871L77.6484 61.8038C77.6484 61.1751 77.588 56.8492 77.7036 56.5292Z" fill="white"/>
<path d="M108.966 60.9834C110.944 60.7492 113.5 61.2783 114.932 62.7095C115.584 63.3659 116.039 64.1925 116.245 65.0953C116.522 66.2725 116.431 68.3207 116.431 69.6002L116.427 75.8847L111.987 75.8862V74.821C109.344 76.9733 104.69 77.0012 102.798 73.8338C101.938 72.2074 102.096 69.8477 103.436 68.5268C105.573 66.4211 109.25 66.9172 112.003 66.8901C111.966 66.4315 111.936 66.1433 111.712 65.7325C111.436 65.2203 110.966 64.8409 110.408 64.6793C108.961 64.2661 107.89 65.015 107.506 66.4092L103.153 65.5112C103.855 62.6154 106.186 61.2712 108.966 60.9834ZM110.434 72.52C111.588 71.8637 111.977 71.1872 111.991 69.8576C111.085 69.856 109.11 69.8003 108.288 69.8862C105.444 70.7305 107.398 73.9146 110.434 72.52Z" fill="white"/>
<path d="M127.664 60.9817C130.472 60.5358 133.255 62.4343 133.792 65.236C134.085 66.7692 133.983 68.3602 133.98 69.9186L133.982 75.885L129.394 75.8866C129.338 73.9763 129.421 71.9671 129.389 70.0473C129.356 69.1426 129.464 68.1957 129.324 67.2996C128.976 65.0763 126.678 64.4926 125.011 65.7835C123.658 67.1932 123.915 69.5303 123.917 71.3627L123.921 75.8859L119.304 75.8859C119.249 71.1102 119.284 66.1593 119.307 61.3777L123.921 61.3778L123.921 62.7459C125.081 61.648 126.084 61.1717 127.664 60.9817Z" fill="white"/>
<path d="M54.4601 61.8738C54.5613 61.8677 54.6628 61.8645 54.7642 61.8642C56.5374 61.8582 58.3811 62.2478 59.6885 63.5399C61.4054 65.2368 61.0717 67.6637 61.0708 69.8738L61.0739 75.9151H56.8998V74.9218C54.2808 76.9888 49.7925 76.9714 48.1247 73.6987C47.8844 73.1103 47.7615 72.4803 47.7633 71.8444C47.7707 66.8933 53.5671 67.4466 56.9003 67.4545C56.9232 66.4887 56.5183 65.5737 55.5299 65.3619C54.0719 65.0494 53.0603 65.6093 52.6966 67.0032L48.5985 66.1586C49.3183 63.2397 51.6866 62.0688 54.4601 61.8738ZM55.2941 72.8134C56.4256 72.2479 56.9363 71.5319 56.9006 70.2366C55.9309 70.2363 54.5635 70.1934 53.6264 70.246C50.9797 70.7331 52.0578 73.9264 55.2941 72.8134Z" fill="white"/>
<path d="M65.3313 57.7084H69.6713V62.2732H73.685V65.7249H69.6713C69.6761 66.9307 69.4659 70.6463 69.901 71.5462C70.0842 71.925 70.3942 72.2109 70.7929 72.3475C71.6516 72.6416 72.6965 72.2633 73.4686 71.8894L74.2472 74.549L74.4731 75.3169C72.1373 76.5421 68.8497 76.9213 66.7385 74.9179C65.1667 73.4263 65.3242 71.1027 65.3262 69.0958L65.3313 65.7249H62.8595L62.8594 62.2732H65.3313V57.7084Z" fill="white"/>
<path d="M38.112 55L42.4517 55L42.4504 66.0671C42.4504 67.5388 42.4468 69.018 42.4487 70.4824C42.4497 71.1835 42.3819 71.9879 43.0895 72.3179C43.7843 72.6418 44.6642 72.2922 45.3197 72.0797C45.4346 72.5952 45.997 75.1166 45.9457 75.4785L45.78 75.5938C42.7329 76.9962 39.002 76.478 38.212 72.6547C38.0471 71.8566 38.1091 70.93 38.1102 70.1076L38.112 55Z" fill="white"/>
<path d="M70.6343 81.8685C72.0714 81.8768 73.232 83.0459 73.2332 84.4857C73.2338 85.9255 72.0741 87.0958 70.637 87.1056C69.187 87.1155 68.0061 85.9411 68.0054 84.4884C68.0046 83.0358 69.1843 81.8602 70.6343 81.8685ZM71.0148 86.1312C72.0088 85.7244 72.4549 84.7819 72.0415 83.7677C71.8872 83.3806 71.5824 83.073 71.197 82.9158C70.8615 82.7773 70.5547 82.7943 70.2035 82.8387C69.2155 83.2624 68.7718 84.2264 69.213 85.2349C69.3761 85.615 69.6854 85.9133 70.0708 86.0623C70.3867 86.1848 70.6854 86.1724 71.0148 86.1312Z" fill="white"/>
<path d="M44.8935 81.8685C46.3218 81.8553 47.496 82.9932 47.5305 84.4236C47.565 85.8541 46.4471 87.0474 45.0199 87.1035C44.0774 87.1406 43.1882 86.666 42.6929 85.8618C42.1977 85.0576 42.1733 84.0486 42.6292 83.2214C43.085 82.3941 43.9504 81.8771 44.8935 81.8685ZM45.3361 86.1253C45.8276 85.9135 46.1372 85.7021 46.3474 85.1761C46.529 84.7094 46.5205 84.1899 46.3237 83.7295C46.1587 83.3477 45.8464 83.049 45.458 82.9016C45.1536 82.7842 44.8427 82.7942 44.5241 82.8336C43.5197 83.246 43.0741 84.21 43.5071 85.2253C43.667 85.6089 43.9759 85.9107 44.3628 86.0611C44.6932 86.1902 44.993 86.1717 45.3361 86.1253Z" fill="white"/>
<path d="M98.0875 81.9446H99.3713L100.86 85.5958L102.317 81.9446H103.639V87.0273H102.682V83.4963C102.195 84.6159 101.716 85.8852 101.257 87.0273H100.443C99.9879 85.8647 99.494 84.6852 99.0232 83.5265C99.0072 84.6819 99.0202 85.8692 99.019 87.0273H98.0875V81.9446Z" fill="white"/>
<path d="M113.261 81.9446H114.238L114.239 85.2637C114.24 85.6987 114.267 86.5699 114.227 86.9787L114.131 87.0273H113.219L110.973 83.4463V87.0273H109.99V81.9446H111.202L113.261 85.2871V81.9446Z" fill="white"/>
<path d="M63.9213 81.9446C65.0227 81.9493 66.8359 81.627 67.3463 82.8664C67.5075 83.2672 67.5031 83.7156 67.334 84.1131C67.1283 84.5911 66.8649 84.7686 66.4059 84.9535L67.4726 87.0273H66.4608C66.1488 86.9289 65.7347 85.3644 65.3823 85.1437C65.2269 85.0464 65.1432 85.0701 64.9583 85.0959C64.8809 85.2435 64.9109 86.7476 64.9112 87.0273H63.9213V81.9446ZM64.9112 84.2104C65.4166 84.2184 65.8721 84.2923 66.3094 83.9983C66.9281 82.7871 65.708 82.8019 64.9112 82.8188V84.2104Z" fill="white"/>
<path d="M53.3366 81.9446C54.4326 81.9492 56.2494 81.6302 56.7515 82.8658C56.9108 83.2677 56.9058 83.7164 56.7376 84.1147C56.5352 84.5871 56.2654 84.7722 55.809 84.9548L56.8745 87.0273H55.8493C55.534 86.838 54.9507 84.6239 54.3297 85.1246C54.3024 85.7271 54.315 86.418 54.3127 87.0273H53.3366V81.9446ZM54.3128 84.2104C54.85 84.218 55.251 84.2891 55.7053 84.01C56.3689 82.7868 55.0908 82.8129 54.3127 82.8188L54.3128 84.2104Z" fill="white"/>
<path d="M130.081 81.9446C131.375 81.95 134.164 81.53 133.498 84.0629C133.38 84.5158 132.974 84.7788 132.558 84.9583L133.616 87.0273H132.584C132.089 86.7206 132.011 84.9304 131.095 85.0896C131.032 85.2287 131.057 86.7582 131.057 87.0273H130.081V81.9446ZM131.057 84.2104C131.584 84.2181 131.993 84.2843 132.447 84.0185C133.071 82.7757 131.878 82.8073 131.057 82.8188V84.2104Z" fill="white"/>
<path d="M82.5748 81.9446C83.2502 81.9475 84.6638 81.8362 85.1993 82.0911C86.5228 82.7219 86.3657 84.4061 85.0428 84.9588C85.4033 85.609 85.7668 86.3596 86.1083 87.0273H85.0831C84.7314 86.7575 84.2719 84.9594 83.6706 85.017C83.4821 85.2359 83.5491 86.648 83.5503 87.0273H82.5748V81.9446ZM83.5503 84.2104C84.0845 84.2181 84.4877 84.288 84.9408 84.0118C85.6043 82.7862 84.33 82.814 83.5503 82.8188V84.2104Z" fill="white"/>
<path d="M122.119 81.8795C123.49 81.7399 124.336 82.1229 124.897 83.4049L123.974 83.7407C123.836 83.4318 123.574 83.0304 123.255 82.906C121.156 82.0877 120.221 85.0886 121.928 86.0819C122.37 86.339 123.104 86.2427 123.497 85.9491C123.729 85.776 123.856 85.5073 123.984 85.2462C123.486 85.2363 122.821 85.3606 122.463 85.1803C122.32 84.9571 122.37 84.8857 122.373 84.5883C122.373 84.5608 122.397 84.4561 122.405 84.4225C122.703 84.3231 124.423 84.3715 124.859 84.377V87.0273C124.65 87.037 124.35 87.0716 124.162 87.0029C124.007 86.8074 124.045 86.7796 124.011 86.5101C123.3 87.1806 122.166 87.3814 121.363 86.8457C119.309 85.4735 119.697 82.54 122.119 81.8795Z" fill="white"/>
<path d="M116.859 81.9446H117.988L119.881 87.0273H118.82C118.701 86.6995 118.6 86.2065 118.39 85.9292C118.331 85.8523 118.237 85.873 118.119 85.8661H116.395L115.983 87.0273H114.955L116.859 81.9446ZM116.724 84.9566L117.422 84.9577L118.079 84.951C117.909 84.4746 117.598 83.515 117.399 83.091L116.724 84.9566Z" fill="white"/>
<path d="M106.258 81.9446H107.384L109.277 87.0273H108.221C108.097 86.6901 107.998 86.2088 107.783 85.927C107.732 85.8593 107.615 85.8748 107.505 85.8661H105.798L105.38 87.0273H104.35L106.258 81.9446ZM106.123 84.9577H106.868C107.01 84.9583 107.354 84.9806 107.458 84.9183C107.331 84.5519 106.945 83.378 106.792 83.0938L106.123 84.9577Z" fill="white"/>
<path d="M74.0995 81.9446C74.7079 81.9472 75.3187 81.9317 75.9531 81.9436C77.4326 81.9714 78.1098 83.4949 77.1764 84.6168C76.839 85.0231 76.3593 85.1026 75.8405 85.1218L75.0696 85.1219V87.0273H74.0995V81.9446ZM75.0773 84.2534C75.5932 84.2607 75.9988 84.3271 76.4388 84.0589C77.1041 82.8164 75.9051 82.8104 75.0773 82.8188V84.2534Z" fill="white"/>
<path d="M59.6228 81.9446C60.9148 81.9503 63.0078 81.5886 63.1151 83.4267C63.1799 84.5383 62.3795 85.0818 61.372 85.1218L60.5881 85.1241V87.0273H59.6228V81.9446ZM60.5929 84.2534C61.1287 84.2616 61.5052 84.3298 61.9637 84.057C62.5997 82.8039 61.4353 82.8066 60.5929 82.8188V84.2534Z" fill="white"/>
<path d="M48.3409 81.9446H49.3183C49.3243 82.9138 49.0696 85.0994 49.6327 85.9375C49.8505 86.2618 50.6696 86.2478 50.8858 85.9272C51.435 85.113 51.2061 82.8877 51.2003 81.9446H52.1663V82.9695C52.1818 84.6471 52.6307 87.0715 50.2722 87.1421C49.6921 87.1594 48.8517 86.8234 48.6216 86.3061C48.1505 85.2475 48.336 83.0693 48.3409 81.9446Z" fill="white"/>
<path d="M125.917 81.9446H129.028V82.8825H126.887V84.0368H128.831V84.9153C128.487 84.9128 127.082 84.8687 126.887 84.98V86.0882H129.028V87.0273H125.917V81.9446Z" fill="white"/>
<path d="M78.4116 81.9446H81.5199V82.8825H79.3799V84.0368H81.3207V84.9153C81.0165 84.9132 79.5228 84.8649 79.3799 84.9761V86.0882H81.5199V87.0273H78.4116V81.9446Z" fill="white"/>
<path d="M86.5744 81.9446H90.7038V82.8882H89.1224V87.0273H88.1529V82.8882H86.5744V81.9446Z" fill="white"/>
<path d="M37.8071 81.9446H38.9589L40.0717 83.9461L41.1845 81.9446H42.2822L40.5267 84.8854V87.0273H39.5441V84.8815L37.8071 81.9446Z" fill="white"/>
<path d="M91.094 81.9446H92.2378L93.3508 83.9521L94.4633 81.9446H95.5591L93.8021 84.8969V87.0273H92.8338V84.8993L91.094 81.9446Z" fill="white"/>
</svg>
