<svg width="148" height="148" viewBox="0 0 148 148" fill="none" xmlns="http://www.w3.org/2000/svg">
<path d="M99.9668 68.3969L101.689 71.3852H96.1687L98.9368 66.5914L99.9829 68.3969H99.9668ZM95.6537 62.4669V62.5136L96.9573 63.7588L89.8118 76.1479L88.5082 77.393V77.4397H94.2858V77.393L93.4007 76.1479L94.3984 74.4202H103.459L104.441 76.1479L103.556 77.393V77.4397H109.333V77.393L108.03 76.1479L100.884 63.7588L102.188 62.5136V62.4669H95.6376H95.6537ZM61.7609 65.5019C62.7587 65.5019 63.5795 66.2802 63.5795 67.2607C63.5795 67.6342 63.4668 67.9767 63.2576 68.2568C62.9679 68.6615 62.4851 68.9416 61.9541 69.0039H54.1487V65.5019H61.7609ZM61.6161 62.4669H49.6587V62.5292L50.9622 63.7743V76.1634L49.6587 77.4086V77.4553H55.4523V77.4086L54.1487 76.1634V72.0233H59.1699L62.7748 76.7082L62.5495 77.4553H67.9891V77.4086L66.2671 76.1634L62.984 71.8833C63.2093 71.8366 63.4186 71.7588 63.6278 71.6809C64.1749 71.463 64.6578 71.1673 65.0923 70.7938C66.0901 69.9222 66.7016 68.6615 66.7016 67.2607C66.7016 64.9105 64.9635 62.9494 62.6461 62.5447C62.3564 62.4981 62.0506 62.4669 61.7448 62.4669C61.6966 62.4669 61.6644 62.4669 61.6161 62.4669ZM117.911 65.5019H122.369C123.367 65.5019 124.187 66.2802 124.187 67.2607C124.187 67.821 123.93 68.3191 123.511 68.6304C123.254 68.8327 122.932 68.9572 122.578 69.0039H114.773V65.5019H117.943H117.911ZM122.304 62.4669C122.304 62.4669 122.256 62.4669 122.24 62.4669H110.283V62.5292L111.586 63.7743V76.1634L110.283 77.4086V77.4553H116.06V77.4086L114.757 76.1634V72.0233H119.778L123.383 76.7082L123.157 77.4553H128.597V77.4086L126.875 76.1634L123.592 71.8833C125.394 71.4319 126.811 70.0311 127.213 68.2724C127.293 67.9455 127.326 67.5875 127.326 67.2451C127.326 66.5292 127.165 65.8599 126.875 65.2685C126.103 63.6187 124.364 62.4669 122.369 62.4669C122.353 62.4669 122.321 62.4669 122.304 62.4669ZM75.5369 65.5019H81.9904C82.9882 65.5019 83.809 66.2802 83.809 67.2607C83.809 67.8054 83.5354 68.3035 83.133 68.6304C82.8755 68.8327 82.5376 68.9728 82.1835 69.0039H74.3782V65.5019H75.553H75.5369ZM81.8616 62.4669H69.9042V62.5292L71.2078 63.7743V76.1634L69.9042 77.4086V77.4553H75.6818V77.4086L74.3782 76.1634V72.0233H79.3993L83.0043 76.7082L82.779 77.4553H88.2186V77.4086L86.4966 76.1634L83.2135 71.8833C85.3539 71.3541 86.9472 69.4864 86.9472 67.2451C86.9472 64.5992 84.7263 62.4514 81.9904 62.4514C81.9421 62.4514 81.9099 62.4514 81.8616 62.4514M134.552 62.4669H130.222V62.5136L131.526 63.7588V76.1479L130.222 77.393V77.4397H136V77.393L134.696 76.1479V63.7743L136 62.5292V62.4825H134.552V62.4669ZM26.8221 62.4669H12V62.5136L13.3036 63.7588V76.1479L12 77.393V77.4397H17.7775V77.393L16.474 76.1479V71.0895H23.5712L25.438 71.821L25.4863 71.7899L24.1988 67.5564H24.1506L23.7321 68.07H16.4901V65.4708H26.645L28.5441 66.2023L28.5923 66.1712L27.3049 62H27.2566L26.8382 62.4514L26.8221 62.4669ZM45.8123 62H45.764L45.3456 62.4514H30.5236V62.4981L31.8271 63.7432V76.1323L30.5236 77.3774V77.4241H45.8123L47.3573 73.4864L47.309 73.4553L45.1525 74.4047H34.9975V71.0739H42.0626L43.9616 71.8054L44.0099 71.7743L42.7224 67.5409H42.6741L42.2557 68.0545H34.9975V65.4553H45.1525L47.0515 66.1868L47.0998 66.1556L45.8123 62ZM60.0067 85.9066H59.186V82.6693H57.5927V81.9066H61.6V82.6693H60.0067V85.9066ZM65.4463 84.3346H64.2554V85.8911H63.4346V81.8911H65.8004C65.8004 81.8911 65.9452 81.8911 66.0257 81.8911C66.1062 81.8911 66.2027 81.9066 66.2832 81.9377C66.3797 81.9533 66.4602 82 66.5407 82.0467C66.6212 82.0934 66.7177 82.1556 66.7982 82.2335C66.943 82.3735 67.0235 82.5136 67.0718 82.6848C67.1201 82.856 67.1361 82.9961 67.1361 83.1362C67.1361 83.2451 67.1361 83.3696 67.0879 83.4942C67.0557 83.6187 66.9913 83.7432 66.8947 83.8677C66.7499 84.0389 66.5568 84.179 66.3154 84.2568L67.2971 85.8911H66.3798L65.4302 84.3346H65.4463ZM65.9774 83.5564C65.9774 83.5564 66.1223 83.5097 66.1705 83.4475C66.2188 83.4008 66.251 83.3541 66.2671 83.2918C66.2832 83.2296 66.2993 83.1673 66.2993 83.1051C66.2993 83.0117 66.2832 82.9339 66.251 82.8716C66.2188 82.8093 66.1705 82.7782 66.1383 82.7471C66.074 82.7004 66.0096 82.6848 65.9291 82.6848C65.8487 82.6848 65.7682 82.6848 65.6877 82.6848H64.2554V83.6031H65.7521C65.7521 83.6031 65.8969 83.6031 65.9774 83.5875M69.518 81.9066H72.8493V82.6693H70.3387V83.4008H71.8676V84.1479H70.3387V85.144H72.9942V85.8911H69.518V81.8911V81.9066ZM76.0519 83.4163V85.8911H75.2311V81.8911H75.73L77.9992 84.3658V81.8911H78.82V85.8911H78.3211L76.0358 83.4163H76.0519ZM83.0204 85.9066H82.1996V82.6693H80.6064V81.9066H84.6136V82.6693H83.0204V85.9066ZM88.2668 86C87.9611 86 87.6714 85.9533 87.4139 85.8444C87.1564 85.7354 86.9311 85.5953 86.738 85.4086C86.5448 85.2218 86.4 85.0039 86.2873 84.7549C86.1747 84.5058 86.1264 84.2257 86.1264 83.9144C86.1264 83.6031 86.1747 83.3385 86.2873 83.0739C86.4 82.8249 86.5448 82.5914 86.738 82.4202C86.9311 82.2335 87.1564 82.0934 87.4139 81.9844C87.6714 81.8755 87.9611 81.8288 88.2668 81.8288C88.5726 81.8288 88.8623 81.8755 89.1198 81.9844C89.3773 82.0934 89.6026 82.2335 89.7957 82.4202C89.9888 82.607 90.1337 82.8249 90.2463 83.0739C90.359 83.323 90.4073 83.6031 90.4073 83.9144C90.4073 84.2257 90.359 84.4903 90.2463 84.7549C90.1337 85.0195 89.9888 85.2374 89.7957 85.4086C89.6026 85.5953 89.3773 85.7354 89.1198 85.8444C88.8623 85.9533 88.5726 86 88.2668 86ZM88.2668 82.5914C88.0898 82.5914 87.9128 82.6226 87.7518 82.6848C87.5909 82.7471 87.4622 82.8405 87.3334 82.9494C87.2208 83.0584 87.1242 83.1984 87.0598 83.3696C86.9955 83.5253 86.9633 83.7121 86.9633 83.8988C86.9633 84.0856 86.9955 84.2724 87.0598 84.428C87.1242 84.5837 87.2208 84.7237 87.3334 84.8482C87.4461 84.9728 87.5909 85.0506 87.7518 85.1128C87.9128 85.1751 88.0737 85.2062 88.2668 85.2062C88.46 85.2062 88.6209 85.1751 88.7818 85.1128C88.9428 85.0506 89.0715 84.9572 89.2003 84.8482C89.3129 84.7393 89.4095 84.5992 89.4738 84.428C89.5382 84.2724 89.5704 84.0856 89.5704 83.8988C89.5704 83.7121 89.5382 83.5253 89.4738 83.3696C89.4095 83.214 89.3129 83.0739 89.2003 82.9494C89.0876 82.8405 88.9428 82.7471 88.7818 82.6848C88.6209 82.6226 88.4439 82.5914 88.2668 82.5914Z" fill="white"/>
</svg>
