<svg width="148" height="148" viewBox="0 0 148 148" fill="none" xmlns="http://www.w3.org/2000/svg">
<path d="M24.2878 63.2561C25.8023 63.1404 26.8711 63.2369 28.3346 63.5982C30.2783 64.0782 33.0549 65.6456 34.0697 67.3496C31.8337 67.4719 29.0028 67.3247 26.687 67.3655C24.1185 67.4109 22.43 67.4118 20.3519 69.353C17.9327 71.6128 18.2172 74.1952 18.2225 77.1412L18.2573 81.4647C18.2568 81.7298 18.2485 82.2303 18.0508 82.4212L17.9236 82.3856C17.0837 81.5836 15.8609 80.2828 15.3424 79.2541C14.6664 77.9131 14.0786 76.1194 14.0113 74.6241C13.8779 71.7325 14.9272 68.9066 16.9315 66.7596C18.7685 64.8221 21.5603 63.3701 24.2878 63.2561Z" fill="white"/>
<path d="M128.426 63.0131C128.453 63.0104 128.481 63.0084 128.508 63.007C131.598 62.8494 133.853 65.3836 133.992 68.2403C134.074 69.7717 133.519 71.2711 132.453 72.4042C131.727 73.1728 130.295 73.924 129.244 73.9692C122.129 74.0938 121.428 63.9723 128.426 63.0131ZM129.251 72.9568C130.162 72.7208 130.558 72.62 131.274 72.0081C133.635 69.9898 133.328 65.9583 130.522 64.4517C129.934 64.1361 129.058 63.9332 128.404 64.0461C126 64.2813 124.553 66.5406 124.656 68.7518C124.762 71.0096 126.676 73.2122 129.141 72.9695C129.177 72.9658 129.214 72.9616 129.251 72.9568Z" fill="white"/>
<path d="M82.9968 63.1176C84.4969 63.099 86.0211 63.1022 87.5005 63.1148C89.6668 63.1332 91.0778 64.7046 90.9072 66.7712C90.7898 68.2002 90.4287 68.5452 89.3977 69.4674C89.1416 69.5263 88.8655 69.5711 88.6058 69.618C88.9333 70.6062 89.7388 71.5345 90.3106 72.4392C90.6458 72.9693 90.8577 73.3718 91.1633 73.9023L90.172 73.9161C89.8964 73.7373 89.75 73.6323 89.5659 73.3654C88.9988 72.3048 87.8133 70.922 87.3719 69.9178C86.3386 69.8502 85.1177 69.89 84.0714 69.9039C84.0431 71.0516 84.1865 72.8223 84.0283 73.9096L82.8971 73.9108C82.7183 70.5649 83.0039 67.0287 82.847 63.6624C82.8352 63.4028 82.8464 63.3241 82.9968 63.1176ZM84.0909 68.9789C85.3956 68.9781 88.1502 69.2265 89.0106 68.3964C89.0325 68.3748 89.0537 68.3522 89.0738 68.3285C90.0286 67.1706 90.136 65.5337 88.8613 64.5537C88.5846 64.3394 88.2588 64.1918 87.9118 64.1231C87.4226 64.0245 84.8911 64.099 84.1275 64.0681C84.0354 64.5182 84.0691 65.4703 84.0732 65.9703C84.0862 66.9731 84.0921 67.976 84.0909 68.9789Z" fill="white"/>
<path d="M110.737 63.1123C111.38 63.0685 112.187 63.141 112.826 63.1121C115.607 62.9867 118.167 62.9661 118.596 66.291C118.734 67.3722 118.029 68.7017 117.132 69.3767C116.866 69.5768 116.577 69.4439 116.337 69.7255C116.254 70.1327 117.349 71.4529 117.588 71.9135C117.931 72.5717 118.499 73.2179 118.828 73.9152L117.705 73.9192L117.262 73.4178C116.714 72.6643 115.361 70.3538 114.829 69.9192C113.88 69.8427 112.581 69.884 111.629 69.9219C111.615 70.7002 111.698 73.3434 111.557 73.9088C111.298 73.9178 110.977 73.9474 110.734 73.8754C110.486 73.6229 110.558 71.7791 110.558 71.3024L110.56 64.9339C110.56 64.4583 110.555 63.9633 110.571 63.4871C110.578 63.2671 110.61 63.2561 110.737 63.1123ZM111.644 68.9298C112.656 68.9999 115.915 69.2289 116.572 68.4399C117.6 67.58 117.809 65.9265 116.904 64.9168C116.464 64.4233 115.837 64.121 115.165 64.0772C114.703 64.0458 112.242 64.0582 111.81 64.1002C111.721 64.1581 111.634 64.2014 111.634 64.3289C111.632 65.71 111.576 67.5878 111.644 68.9298Z" fill="white"/>
<path d="M69.3779 63.109C70.7832 63.1232 74.2037 62.9045 75.3367 63.4041C76.1038 63.7424 76.7157 64.4653 77.0055 65.2219C77.346 66.1099 77.3123 67.2193 76.8999 68.0806C76.5045 68.9069 75.9799 69.2813 75.139 69.6004C75.0086 69.6498 74.992 69.723 74.9442 69.8373C74.9218 70.2209 77.4445 73.3494 77.3011 73.8862C77.071 73.9489 76.5116 73.9156 76.2466 73.9089L75.8211 73.2523C75.4447 72.7181 73.8732 70.1804 73.5451 69.9214C72.8216 69.8655 70.9972 69.8416 70.3055 69.9674C70.354 71.0634 70.4212 72.8312 70.2969 73.8991C70.0531 73.9256 69.5592 73.9674 69.3406 73.8772C69.3275 73.8367 69.3164 73.7956 69.3075 73.7541C69.205 73.2615 69.2452 70.1443 69.2443 69.4349L69.2416 65.4842C69.2416 65.0137 69.1645 63.4222 69.3779 63.109ZM70.3851 68.9295C71.2185 68.999 72.0378 68.9739 72.8694 68.9859C73.8484 69.0001 74.3276 68.9955 75.1738 68.5084C75.8176 67.8989 76.0566 67.4495 76.0708 66.5599C76.082 65.8749 75.9344 65.2722 75.4216 64.7715C74.8481 64.2115 74.2261 64.0618 73.4359 64.0661C72.4489 64.0716 71.4625 64.08 70.4756 64.0901C70.3983 64.1833 70.3245 64.268 70.3356 64.397C70.4469 65.6939 70.2062 67.4376 70.3498 68.6991C70.3591 68.7762 70.3709 68.853 70.3851 68.9295Z" fill="white"/>
<path d="M87.4002 76.0889C88.6837 76.0157 89.3316 76.0886 90.4523 76.829C93.4057 78.7811 92.5837 84.1841 88.8944 84.6905C85.1218 85.2194 83.0033 81.8053 84.3334 78.536C84.8692 77.2199 86.0908 76.5534 87.4002 76.0889ZM88.2228 84.0288C88.4488 83.9935 88.8826 83.9397 89.0873 83.8657C91.7564 82.9012 92.1246 79.0189 89.8728 77.4545C89.285 77.0465 88.7138 76.839 87.9933 76.8501C86.0211 76.9587 84.763 78.7826 84.8102 80.6033C84.8557 82.3559 86.2896 84.1231 88.2228 84.0288Z" fill="white"/>
<path d="M100.01 63.1244C100.318 63.1037 100.632 63.0628 100.894 63.2291C101.04 63.4106 101.303 64.0913 101.414 64.3441L104.506 71.5546C104.795 72.2265 105.302 73.2107 105.416 73.891L104.519 73.9208C103.558 72.9694 103.503 71.1097 102.568 70.4629L100.714 70.4813C99.8721 70.4922 98.9947 70.418 98.1602 70.4995C97.7306 70.6122 97.4468 71.5186 97.301 71.8648C96.9747 72.6384 96.8065 73.2357 96.3002 73.9051C96.0087 73.9274 95.6251 73.9164 95.3254 73.9151C95.3472 73.8017 95.3726 73.689 95.4021 73.5771C95.5685 72.9551 99.7742 63.2877 99.8332 63.2254C99.8674 63.1897 99.9636 63.1508 100.01 63.1244ZM98.103 69.6818L100.326 69.6768C101.141 69.6759 101.719 69.6568 102.521 69.6134C102.398 69.2528 100.481 64.5183 100.39 64.4626C99.6514 66.031 99.0165 67.6386 98.303 69.2169C98.2299 69.379 98.1608 69.5121 98.103 69.6818Z" fill="white"/>
<path d="M64.803 76.1053C65.4923 76.025 68.0722 76.0496 68.6865 76.1785C70.263 76.5092 71.159 78.3837 70.6134 79.835C70.2154 80.8939 69.8141 81.01 68.8406 81.5009C69.2515 82.1538 70.5557 83.9364 70.7663 84.4908C70.6782 84.8513 70.1748 84.6988 69.8931 84.642L69.5346 84.1171C69.1647 83.5777 68.1981 81.7731 67.6908 81.6425C67.3376 81.6204 65.6598 81.5524 65.4784 81.6858C64.7825 82.1976 65.7327 84.3023 64.9754 84.7087C64.7439 84.7417 64.5198 84.6575 64.2956 84.5919L64.2836 79.0675C64.2824 78.3289 64.2333 76.8895 64.3153 76.2061C64.3872 76.1301 64.6801 76.1187 64.803 76.1053ZM65.3192 80.8182C65.9457 80.8565 69.0416 81.0522 69.2387 80.3708C69.4098 80.1419 69.4797 80.0546 69.6922 79.8544C70.0291 78.4032 69.8461 77.6784 68.4731 76.8952C67.6079 76.8681 66.0814 76.8397 65.2408 76.9164C65.2415 77.6059 65.1955 80.3297 65.3192 80.8182Z" fill="white"/>
<path d="M127.355 76.1103C128.432 76.1058 129.514 76.0762 130.587 76.0832C131.44 76.0879 132.239 76.3426 132.838 76.9499C133.91 78.0371 133.893 79.8782 132.735 80.9068C131.963 81.5931 131.203 81.6673 130.2 81.6331C129.521 81.6172 128.842 81.616 128.162 81.6297C128.106 82.5233 128.188 83.4219 128.14 84.3145C128.127 84.5468 128.098 84.5764 127.949 84.6949C127.742 84.7607 127.52 84.7015 127.305 84.6626C127.285 83.7958 127.169 76.3495 127.355 76.1103ZM128.178 80.8246C129.385 80.8707 131.176 81.0945 132.141 80.3901C132.815 79.3456 133.076 77.9644 131.823 77.177C131.056 76.6951 129.069 76.8772 128.133 76.8875C128.137 77.9674 128.088 79.7894 128.178 80.8246Z" fill="white"/>
<path d="M56.2755 63.1205C56.2978 63.1189 56.3201 63.1179 56.3424 63.1175C57.9501 63.0984 61.6378 63.1105 63.3805 63.1436C63.418 63.1791 63.4508 63.2101 63.4789 63.2368C63.5761 63.4816 63.5375 63.8079 63.5264 64.0757C62.5407 64.1712 57.8585 63.9035 57.3743 64.2422C57.3004 64.2938 57.306 67.4539 57.2479 67.841C58.9978 67.9086 60.782 67.7921 62.5183 67.8888C62.8404 67.9067 62.7403 68.5015 62.6383 68.7029C62.2064 69.0459 58.384 68.6588 57.6029 68.8558C57.4218 68.9015 57.4061 68.9992 57.3138 69.1597C57.35 70.0525 57.2352 71.9558 57.323 72.6788C57.7808 73.2593 62.9114 72.6249 63.6849 73.0173C63.7868 73.1561 63.7382 73.2786 63.7631 73.4305C63.8662 74.0599 62.7787 73.9273 62.3827 73.9253C62.0117 73.9235 61.6374 73.9102 61.2628 73.9122L56.2405 73.9224L56.2391 73.9096C56.1383 72.8597 56.1132 63.4725 56.2755 63.1205Z" fill="white"/>
<path d="M43.5855 63.1123C45.8902 63.1308 48.1979 63.1406 50.5 63.1044C50.6259 63.1024 50.6565 63.1534 50.7366 63.2312C50.8175 63.4434 50.8241 63.7809 50.7275 63.9922C50.3687 64.2894 45.5685 63.9374 44.804 64.1468C44.399 64.2577 44.539 65.5311 44.5454 65.9025C44.5534 66.3669 44.4749 67.4764 44.6109 67.8286C45.0565 68.0886 48.9973 67.9414 49.8962 67.9917L49.899 68.8574C48.4279 69.0112 46.3911 68.718 44.8805 68.9412C44.8364 68.9477 44.6102 69.0662 44.5586 69.0939C44.5018 70.6686 44.5732 72.2945 44.5305 73.8791C44.2804 73.9007 43.8274 73.9398 43.5999 73.8714C43.4587 73.3562 43.4644 63.4595 43.5855 63.1123Z" fill="white"/>
<path d="M46.807 76.0535C47.8705 76.0344 48.7534 76.2563 49.6013 76.9291C49.8188 77.1017 50.3082 77.6145 50.3289 77.8815C50.2325 78.1377 49.9161 78.2744 49.6429 78.4569C49.5437 78.2326 49.4657 78.0642 49.3005 77.8737C48.7963 77.2814 48.0659 76.9123 47.2759 76.8506C45.2669 76.6866 43.8794 78.4158 43.7777 80.2303C43.6765 82.0369 44.9155 83.8709 46.8849 84.0037C48.3358 84.1016 48.8646 83.5262 49.892 82.67C49.9429 81.2905 50.1253 81.1842 48.6447 81.2325C48.3302 81.2316 48.08 81.2759 47.8639 81.0782C47.8345 80.8948 47.8463 80.8291 47.8703 80.6445C48.2277 80.4522 50.2556 80.5222 50.7018 80.6208C50.7167 81.9526 50.7124 83.2845 50.6891 84.6163C49.4556 84.9272 50.0495 84.083 49.845 83.7191C49.4163 83.6942 48.9887 84.3644 48.5224 84.5224C43.9793 86.0618 41.0071 80.3261 44.2046 77.2338C44.8605 76.5995 45.8789 76.0617 46.807 76.0535Z" fill="white"/>
<path d="M105.78 76.1081C105.966 76.0926 106.299 76.0356 106.465 76.1344C106.724 76.2889 106.601 80.0853 106.616 80.6324C106.628 80.9998 106.661 81.3767 106.743 81.7362C106.912 82.4816 107.329 83.2356 108.006 83.6546C108.639 84.046 109.527 84.1092 110.247 83.9528C112.359 83.4933 112.397 81.1712 112.394 79.5026L112.388 77.364C112.387 77.0248 112.35 76.3907 112.529 76.1189C112.718 76.0394 113.021 76.0778 113.236 76.0893L113.267 76.8871C113.274 78.8255 113.541 81.2212 112.725 83.0174C111.887 84.8625 109.532 85.1083 107.779 84.4578C106.601 84.0207 105.675 82.189 105.739 81.0788C105.782 80.3359 105.584 76.5073 105.78 76.1081Z" fill="white"/>
<path d="M44.7162 64.8032L44.8037 64.8883C44.8941 65.2062 44.8939 66.922 44.7664 67.2488C44.543 66.9417 44.6344 65.2058 44.7162 64.8032Z" fill="white"/>
<path d="M32.075 76.3773C29.488 76.051 25.9821 76.6502 23.3553 76.2888C23.3269 76.2848 23.2769 76.1247 23.2745 76.0967C22.9528 72.3331 23.7487 72.1745 27.3319 72.1969C28.4964 72.2054 29.661 72.2082 30.8256 72.2052L34.2402 72.1955C34.6668 72.1938 36.0375 72.1146 36.3233 72.3383C36.6112 72.9571 36.5047 75.3412 36.3663 76.0747C35.5404 80.4541 31.6855 84.2472 27.0641 84.7518C26.9572 84.7635 26.8406 84.9101 26.8116 85H24.0769C23.7134 84.7217 23.2438 84.8465 23.2364 84.3685C23.2252 83.6425 23.1529 81.5948 23.3053 80.9777C25.3651 81.0103 26.9341 81.2151 28.7999 80.1492C30.2195 79.3382 31.3281 78.1916 31.8959 76.6704C31.9216 76.6008 32.0271 76.4456 32.075 76.3773Z" fill="white"/>
</svg>
