<svg width="148" height="148" viewBox="0 0 148 148" fill="none" xmlns="http://www.w3.org/2000/svg">
<path d="M23.0224 70.2747C23.5439 70.2676 24.0654 70.2701 24.5867 70.282L24.5797 81.3861C24.5774 83.0231 24.4887 85.9187 24.6203 87.4415C23.8159 87.4604 23.0236 87.5393 22.2843 87.1974C19.883 86.0957 20.104 84.2189 20.1029 81.9955L20.1032 75.0113C20.1036 74.2678 20.0796 73.586 20.1779 72.8472C20.3778 71.3456 21.5655 70.417 23.0224 70.2747Z" fill="#FCFBFD"/>
<path d="M17.6217 59.0535C17.6586 59.049 17.6956 59.045 17.7326 59.0416C19.3116 58.8953 20.6227 59.1041 21.8552 60.1679C22.0351 60.3232 22.0344 60.3452 22.0521 60.5457C20.8034 62.2668 19.1194 63.9183 17.782 65.591C17.4288 66.0327 17.0187 66.5218 16.6361 66.9325C16.4234 67.1418 15.5498 68.4205 15.2078 68.1112C12.0507 65.2555 13.4276 59.8659 17.6217 59.0535Z" fill="#FCFBFD"/>
<path d="M100.724 74.3334C103.993 74.0189 104.577 78.2242 103.174 80.3906C102.827 80.9278 102.209 81.1787 101.596 81.2643C98.8969 81.6018 98.2328 79.679 98.3895 77.369C98.5128 75.5509 98.8915 74.7306 100.724 74.3334ZM101.073 80.1112L101.867 79.8885C102.133 79.4798 102.226 79.3082 102.335 78.8082C102.526 77.9291 102.514 75.4324 101.116 75.6048C99.6687 75.7687 99.6047 77.2478 99.701 78.4301C99.7788 79.3803 100.149 79.9615 101.073 80.1112Z" fill="#FCFBFD"/>
<path d="M125.773 74.3288L125.801 74.325C127.437 74.1192 128.642 75.4093 128.767 77.0023C128.923 78.9798 128.767 81.0011 126.395 81.2798C124.135 81.48 123.353 79.9737 123.353 77.9035C123.353 76.9634 123.431 76.1435 123.947 75.3199C124.411 74.58 124.982 74.4906 125.773 74.3288ZM126.148 80.1023L126.825 79.8989C127.053 79.5873 127.234 79.3189 127.3 78.9257C127.507 77.6684 127.69 75.7064 125.985 75.6015C124.568 75.8507 124.607 77.6095 124.78 78.7589C124.93 79.7482 125.247 79.9847 126.148 80.1023Z" fill="#FCFBFD"/>
<path d="M39.0455 74.4658C40.1334 74.4401 42.0925 74.2412 42.8714 75.0592C44.0628 76.3105 43.9935 79.4668 42.86 80.7016C41.8433 81.3985 40.0173 81.1812 38.7286 81.1687C38.668 80.3783 38.6297 74.7385 38.7873 74.4886L39.0455 74.4658ZM39.9149 79.9554C40.4901 79.9697 41.6175 80.0793 42.0258 79.6771C42.0353 79.6677 42.0446 79.6581 42.0537 79.6483C42.4419 78.7914 42.7457 76.4936 41.7857 75.8865C41.5067 75.7101 40.3561 75.7605 39.977 75.7636C39.9835 76.5761 40.0468 79.2916 39.9149 79.9554Z" fill="#FCFBFD"/>
<path d="M21.87 61.2984C21.96 61.3193 22.015 61.3186 22.0767 61.3981C24.7428 64.838 21.8063 69.3666 17.6641 68.637C17.2763 68.5298 16.4849 68.2673 16.317 67.903C16.4497 67.6673 17.4269 66.5601 17.6434 66.2971C19.018 64.6276 20.5711 63.0199 21.87 61.2984Z" fill="#FCFBFD"/>
<path d="M61.9927 74.464C63.3996 74.4451 66.1652 73.9992 66.4326 75.8519C66.6014 77.0212 66.5428 77.8356 65.4368 78.4155C65.7005 79.1656 66.3194 80.1219 66.6938 81.1679C66.3248 81.1694 65.8835 81.2515 65.5254 81.1671C65.3494 81.1256 65.3314 81.0084 65.2465 80.8405C65.0245 80.3741 64.3374 78.9976 64.2378 78.5954C63.8924 78.5807 63.3849 78.6076 63.0275 78.6165C63.0353 79.4647 63.0348 80.3129 63.0262 81.1611C62.6311 81.1788 62.2334 81.1691 61.8379 81.164C61.7943 80.2668 61.7263 75.133 61.8659 74.5418L61.9927 74.464ZM63.0041 77.2858C63.4608 77.295 64.7465 77.3666 65.0767 77.162C65.7104 75.4213 64.1413 75.7809 63.0333 75.7598C63.0436 76.3132 63.0384 76.7341 63.0041 77.2858Z" fill="#FCFBFD"/>
<path d="M96.1524 74.4884C96.4031 74.4673 97.1893 74.364 97.3425 74.517C97.4334 74.7596 97.437 75.7459 97.4196 75.949C97.3604 76.6299 97.5393 80.8934 97.3 81.1722L96.0387 81.1665C95.6899 80.6721 95.3686 79.8779 95.1113 79.3121C94.6626 78.3442 94.224 77.3719 93.7944 76.3952C93.7753 76.8701 93.8142 77.5031 93.819 77.9945L93.8297 81.1825C93.4295 81.1636 92.9484 81.1776 92.541 81.1799C92.5314 81.024 92.526 80.8679 92.526 80.7117C92.5194 79.2238 92.4913 76.151 92.5505 74.5587C92.5876 74.5207 92.6194 74.4881 92.6457 74.461C93.0908 74.4518 93.536 74.4475 93.9805 74.448C94.3258 74.9012 94.9055 76.3047 95.1742 76.8753C95.508 77.586 95.8945 78.3822 96.2134 79.0967C96.2302 77.5714 96.1189 76.0957 96.1524 74.4884Z" fill="#FCFBFD"/>
<path d="M44.4047 88.4496C47.7215 88.3423 51.5951 88.4385 54.9498 88.4387L83.0684 88.4359C83.4938 88.4352 85.9966 88.4011 86.2676 88.4814C86.3777 88.6987 86.34 88.694 86.3322 88.963C85.3905 89.0269 84.0526 88.9887 83.087 88.9884L48.955 88.985L46.1748 88.9901C45.7311 88.9918 44.8977 89.0205 44.484 88.9546C44.3826 88.842 44.4068 88.6141 44.4047 88.4496Z" fill="#FCFBFD"/>
<path d="M90.0137 74.4819C90.3529 74.4449 90.8986 74.4439 91.254 74.433C91.318 75.1177 91.3587 80.7157 91.2426 81.1673L89.9838 81.1736C89.3005 80.5544 88.0362 76.8408 87.7054 76.6072C87.5815 76.7823 87.6192 80.6874 87.6156 81.1919C87.2566 81.1625 86.7858 81.1757 86.4154 81.1766L86.4142 81.1598C86.3316 79.7066 86.4226 76.1466 86.4262 74.5526C86.4591 74.5148 86.4878 74.4825 86.5111 74.4558L87.8651 74.4374C88.1373 74.8228 88.3892 75.466 88.5986 75.9071C89.1 76.9626 89.5075 77.9925 90.0705 79.0192C90.0675 77.492 89.9694 75.9957 90.0137 74.4819Z" fill="#FCFBFD"/>
<path d="M133.328 74.4835C133.739 74.4646 134.15 74.4417 134.561 74.4149C134.577 76.672 134.578 78.9293 134.564 81.1865L133.21 81.1681C132.596 79.8523 131.859 78.3639 131.311 77.035C131.149 76.812 131.148 76.5636 130.996 76.4572C130.967 76.657 130.955 76.7146 131.024 76.9117C131.074 77.4622 131.126 80.5918 131.069 81.1568C130.663 81.1628 130.237 81.1758 129.833 81.1713C129.755 80.5021 129.778 78.7342 129.787 77.9913C129.799 77.0129 129.741 75.4185 129.817 74.4768C130.273 74.4631 130.789 74.4349 131.24 74.4364C131.549 74.9629 133.244 78.8217 133.345 78.9038L133.413 78.8941C133.422 78.8465 133.422 78.811 133.399 78.7676C133.3 78.5726 133.322 74.978 133.328 74.4835Z" fill="#FCFBFD"/>
<path d="M36.1238 74.4801C36.5141 74.4607 36.9042 74.4389 37.2942 74.4145C37.3275 76.0794 37.2956 79.299 37.2805 81.1138C37.254 81.146 37.2311 81.1739 37.2118 81.1973C36.7796 81.1841 36.3475 81.1683 35.9155 81.15C35.3996 79.9653 34.3933 77.633 33.7476 76.5482C33.7299 76.8524 33.8102 77.6165 33.8137 77.9789C33.8242 79.0422 33.8268 80.1073 33.8577 81.1697L32.5875 81.171C32.5345 80.2948 32.4656 75.0614 32.6172 74.4531C33.0391 74.4671 33.5616 74.4425 33.9909 74.4334C34.5315 75.2685 35.8126 78.676 36.1935 78.9558L36.2559 78.9148C36.2178 78.8585 36.1015 78.6753 36.1022 78.6147C36.1189 77.2398 36.0723 75.8541 36.1238 74.4801Z" fill="#FCFBFD"/>
<path d="M55.3523 74.4027C55.4688 74.5355 55.441 75.5377 55.4423 75.777C54.579 75.7627 53.7719 75.7396 52.8549 75.7563C52.196 75.7683 51.5368 76.103 51.8993 76.9737C51.9004 76.9763 52.1974 77.2155 52.2328 77.2443C53.8609 77.3424 55.7033 76.7055 55.6955 79.1396C55.6894 81.0243 54.6967 81.2312 53.081 81.1853C52.3484 81.1646 51.5293 81.1756 50.7845 81.1708C50.722 80.7906 50.7506 80.2722 50.7595 79.874C51.4997 79.8883 54.0386 80.2055 54.3815 79.4154C54.4896 79.1666 54.2831 78.7663 54.1638 78.5359C52.4668 78.3544 50.4087 79.0457 50.5015 76.3341C50.5537 74.8098 51.4399 74.4852 52.7573 74.482C53.5839 74.48 54.5348 74.4705 55.3523 74.4027Z" fill="#FCFBFD"/>
<path d="M72.0188 74.4571L73.1082 74.4408C73.5671 75.4188 74.0392 77.1781 74.4323 78.2449C74.7817 79.1948 75.1616 80.2272 75.4219 81.2009C75.0103 81.1634 74.5567 81.1787 74.1409 81.1822C73.8681 80.6744 73.831 80.0777 73.5097 79.664C73.4145 79.5416 73.1202 79.588 72.9365 79.5923C72.3954 79.5986 71.916 79.5965 71.3758 79.572C71.2388 80.1021 71.093 80.6297 70.9383 81.1548C70.6558 81.166 69.981 81.2155 69.743 81.1438C69.6964 80.9422 69.8416 80.5116 69.9033 80.3039C70.456 78.4415 71.1303 76.6212 71.7537 74.7834C71.7916 74.6716 71.9307 74.5339 72.0188 74.4571ZM71.7412 78.2541L72.4878 78.2856C72.6707 78.2911 73.0065 78.3236 73.1537 78.244C73.1507 78.0195 72.6498 76.6207 72.557 76.1699L72.4946 76.1095C72.2542 76.7679 72.0583 77.6843 71.7412 78.2541Z" fill="#FCFBFD"/>
<path d="M112.026 74.4501C112.348 74.4619 112.783 74.4301 113.113 74.4158C113.517 75.2318 114.009 76.9318 114.331 77.8449C114.644 78.733 115.248 80.2891 115.435 81.1759L114.123 81.1763C113.948 80.7206 113.895 80.1081 113.608 79.7104C113.517 79.5829 113.404 79.6111 113.233 79.5987C112.618 79.5968 112.032 79.5956 111.416 79.5615C111.261 80 111.088 80.7013 110.958 81.1666C110.714 81.1744 109.939 81.2292 109.778 81.0923C109.799 80.4575 111.66 74.8941 112.026 74.4501ZM111.805 78.2627L112.591 78.2846L113.226 78.3089C113.173 78.1452 112.577 76.1061 112.584 76.1143C112.306 76.4711 112.043 77.6829 111.805 78.2627Z" fill="#FCFBFD"/>
<path d="M48.302 74.467C49.7697 74.3859 49.5358 74.5444 49.5016 75.9466C49.4928 77.1826 49.7662 79.9576 48.9432 80.6435C47.4875 81.8568 44.4965 81.3349 44.7922 78.8668C44.863 78.2761 44.6751 74.7184 44.9161 74.4651L45.961 74.4263C46.0064 75.4632 45.7099 79.2218 46.3331 79.8605C46.5232 80.0553 46.7992 80.0849 47.0555 80.088C47.3366 80.0914 47.7329 80.0418 47.9399 79.8257C48.5212 79.2191 48.3049 75.4036 48.302 74.467Z" fill="#FCFBFD"/>
<path d="M108.541 74.472C108.921 74.4503 109.582 74.3145 109.777 74.6887C109.777 74.8973 109.421 75.784 109.327 76.0595C109.092 76.877 107.875 80.6204 107.554 81.1634L106.363 81.2055C106.286 81.0296 105.824 79.7569 105.794 79.6063C105.663 78.9208 103.943 74.8773 104.17 74.4573C104.889 74.4535 105.29 74.2341 105.566 75.0038C106.073 76.4223 106.511 77.8655 106.963 79.3031C107.257 78.0591 107.771 76.8843 108.125 75.6588C108.242 75.2555 108.368 74.8542 108.541 74.472Z" fill="#FCFBFD"/>
<path d="M115.54 74.5L120.285 74.5035L120.268 75.7689L118.546 75.7634C118.597 76.9535 118.549 78.4566 118.544 79.6672L118.543 81.1581C118.123 81.1793 117.672 81.1687 117.248 81.166C117.17 79.5213 117.228 77.4607 117.214 75.7675L115.528 75.7724C115.498 75.43 115.452 74.8205 115.54 74.5Z" fill="#FCFBFD"/>
<path d="M56.2544 74.504L60.9396 74.4924C60.9758 74.9474 60.9794 75.3127 60.9781 75.7699L59.2531 75.7642C59.2128 76.9779 59.2289 78.223 59.2315 79.4397L59.2399 81.164L57.9932 81.1679C57.9243 79.5015 57.9812 77.458 57.9849 75.7636L56.2667 75.7729C56.251 75.3321 56.2452 74.9449 56.2544 74.504Z" fill="#FCFBFD"/>
<path d="M76.0483 74.4531C76.3972 74.4653 76.7729 74.4403 77.1235 74.4246C77.251 75.6167 76.9422 79.0192 77.4161 79.7346C77.9414 80.1482 79.086 80.0192 79.7717 80.0042C79.7531 80.3701 79.7436 80.8049 79.6819 81.1606C79.1692 81.1739 78.657 81.1815 78.1443 81.1835C77.6758 81.182 76.9775 81.118 76.6305 80.7301C75.5511 79.5239 75.9736 77.0516 75.882 75.5009C75.8647 75.2049 75.8527 74.6499 76.0483 74.4531Z" fill="#FCFBFD"/>
<path d="M83.9509 74.4622C84.2333 74.4506 84.6779 74.4079 84.934 74.4898C85.2014 74.9686 84.9549 80.1598 85.0195 81.0718C85.0225 81.1156 84.9076 81.1545 84.8669 81.1738L83.7367 81.1643C83.6703 79.3738 83.7385 76.523 83.7553 74.6571C83.7565 74.5442 83.851 74.5191 83.9509 74.4622Z" fill="#FCFBFD"/>
<path d="M67.7382 74.4546C68.1821 74.4622 68.5301 74.4448 68.9737 74.4149C69.0341 76.5635 68.9766 79.0249 68.9637 81.1937C68.6341 81.1624 68.0382 81.1731 67.6888 81.169C67.6548 79.7749 67.692 78.3206 67.6788 76.9212C67.6743 76.4339 67.6566 74.8537 67.7382 74.4546Z" fill="#FCFBFD"/>
<path d="M30.0779 74.4568C30.4912 74.4631 30.7446 74.4423 31.1553 74.3997C31.2211 76.4745 31.1876 79.0184 31.1643 81.1104L31.0715 81.1761L29.9363 81.1751C29.8522 79.1179 29.9806 76.9628 29.9225 74.8977C29.9166 74.6906 29.9113 74.5731 30.0779 74.4568Z" fill="#FCFBFD"/>
<path d="M121.265 74.4673L122.294 74.415C122.354 75.6727 122.28 77.1441 122.309 78.423C122.32 78.916 122.345 80.7137 122.287 81.131L122.148 81.1707L121.076 81.1785C121.007 79.864 121.065 75.9856 121.107 74.5169C121.108 74.493 121.223 74.4768 121.265 74.4673Z" fill="#FCFBFD"/>
<path d="M75.2478 84.4664C76.2595 84.3698 76.4121 84.3771 77.1008 85.1045C77.3706 86.1138 77.4005 86.9321 76.3475 87.4009C76.0406 87.4794 75.7534 87.5168 75.4392 87.4367C75.0916 87.3485 74.7937 87.1228 74.6112 86.8099C74.1236 85.9658 74.4227 84.9587 75.2478 84.4664ZM76.095 86.9303C76.7286 86.3422 76.7639 85.0309 75.8234 84.9861C75.7402 84.9827 75.6564 84.9824 75.5727 84.9852C75.2939 85.162 75.1652 85.3061 75.1168 85.6333C74.9923 86.4742 75.2358 87.0059 76.095 86.9303Z" fill="#FCFBFD"/>
<path d="M49.2348 84.4658C50.2686 84.3286 50.4678 84.4757 51.0923 85.2663C51.1739 85.7871 51.1407 86.1194 51.0963 86.635C50.7655 87.1344 50.6904 87.2004 50.161 87.4449C47.9369 87.7005 47.7601 85.0845 49.2348 84.4658ZM49.8959 86.956C50.3284 86.7078 50.3398 86.543 50.5078 86.065C50.3954 85.4104 50.3628 85.1113 49.6717 84.9305C48.6583 85.3933 48.7799 87 49.8959 86.956Z" fill="#FCFBFD"/>
<path d="M98.9831 84.4698C99.5 84.459 99.941 84.4778 100.458 84.5048C101.422 85.0767 101.55 86.4036 100.798 87.1981C100.687 87.2504 100.555 87.3148 100.443 87.347C98.2531 87.977 98.7168 86.4587 98.7419 84.9815C98.7467 84.7108 98.7886 84.6373 98.9831 84.4698ZM99.3941 86.9858C99.868 86.9256 99.9278 86.9376 100.36 86.7432C100.447 86.4917 100.572 86.1618 100.643 85.9128C100.36 85.0697 100.322 84.9938 99.4073 85.0173C99.3983 85.6734 99.3935 86.3296 99.3941 86.9858Z" fill="#FCFBFD"/>
<path d="M59.7048 84.4579C59.9821 84.4459 60.2843 84.4704 60.5633 84.4866C60.5743 85.1163 60.7167 87.0627 60.3624 87.4354C60.165 87.4857 60.2441 87.4885 60.0341 87.3901C59.9299 87.1687 59.9554 86.6849 59.9535 86.4195L59.9086 86.1214L59.8486 86.0825C59.6079 86.3671 59.6555 87.1703 59.294 87.5047C58.7459 87.5957 58.5504 86.2155 58.4492 85.7856C58.3795 86.3519 58.5113 87.1434 58.2754 87.4159C58.0881 87.5069 58.1586 87.5054 57.9787 87.4533C57.7167 87.0931 57.7133 84.8951 58.002 84.4581C58.1361 84.4563 58.4757 84.4531 58.5784 84.5095C58.9171 84.6956 58.9709 85.8114 59.2274 86.0223C59.3534 85.8752 59.3431 85.4552 59.4079 85.2238C59.4922 84.9229 59.5772 84.7381 59.7048 84.4579Z" fill="#FCFBFD"/>
<path d="M53.2821 84.4637C53.9135 84.4829 54.5453 84.4905 55.1769 84.4864C55.3692 84.7013 55.5198 84.8726 55.5926 85.1486C55.7896 85.8957 55.1745 85.9968 55.0926 86.1378C55.3039 86.4486 55.755 87.0101 55.6498 87.3675C55.4433 87.4625 55.2984 87.5657 55.1368 87.3626C54.8291 87.0178 54.5724 86.2789 54.1119 86.1967C53.8753 86.5888 54.1297 87.3648 53.5976 87.4844C53.3202 87.4262 53.2536 87.2818 53.2574 87.0108C53.2694 86.1618 53.2428 85.3122 53.2821 84.4637ZM54.698 85.6459C54.8424 85.5515 54.9367 85.509 54.9944 85.3431C54.9082 84.9729 54.3405 85.0152 54.028 85.0095C53.9047 85.1569 53.9381 85.156 53.9179 85.3697C54.0296 85.6186 53.9805 85.5451 54.2194 85.6932C54.4411 85.7134 54.4839 85.7084 54.698 85.6459Z" fill="#FCFBFD"/>
<path d="M116.675 84.4586C117.256 84.4728 117.837 84.4828 118.418 84.4886C119.192 85.0155 119.166 85.6225 118.37 86.1108C118.612 86.4108 119.227 87.1467 118.861 87.4878C118.679 87.4717 118.605 87.4725 118.437 87.3883C118.144 87.0082 117.914 86.1874 117.388 86.1973C117.238 86.4314 117.382 87.0572 117.149 87.3845C116.962 87.4702 117.038 87.452 116.811 87.425C116.434 87.1674 116.563 86.4414 116.579 86.0292C116.598 85.5591 116.514 84.8884 116.675 84.4586ZM118.214 85.5599C118.314 85.3479 118.307 85.4309 118.269 85.2194C118.066 84.9635 117.576 85.0225 117.272 85.0272C117.284 85.3445 117.237 85.4074 117.39 85.6464C117.657 85.7542 117.951 85.6756 118.214 85.5599Z" fill="#FCFBFD"/>
<path d="M41.3889 86.3613C41.5047 85.7845 41.4331 85.1981 41.4925 84.6146C41.5032 84.5094 41.6308 84.4632 41.7164 84.4185C42.3974 84.5092 42.1314 86.2537 42.1746 86.7486C42.1968 87.003 42.1354 87.2758 41.9428 87.4543C41.8417 87.4592 41.6421 87.4723 41.5672 87.4167C41.1073 87.0747 40.4454 85.9386 40.3064 85.4189C40.2835 85.7414 40.3164 87.3098 40.218 87.4384C40.0401 87.4466 39.9348 87.4642 39.771 87.386C39.6189 87.0678 39.6755 85.1835 39.726 84.7318C39.7499 84.5178 39.8197 84.487 39.9633 84.3867C40.5564 84.5288 41.1593 85.8238 41.3889 86.3613Z" fill="#FCFBFD"/>
<path d="M79.5102 84.408C79.6077 84.414 79.731 84.4324 79.8303 84.4442C80.2467 84.6637 80.9964 86.0092 81.2352 86.4401C81.2202 86.107 81.2208 84.6686 81.3542 84.4674C81.514 84.4026 81.4547 84.4003 81.5983 84.4557C81.8867 84.7913 81.855 87.27 81.6528 87.5146C80.8923 87.4005 80.4119 86.2776 80.0505 85.6335C80.0337 86.1527 80.1887 87.1525 79.7543 87.5107L79.6436 87.4927C79.1644 87.0498 79.1871 84.8876 79.5102 84.408Z" fill="#FCFBFD"/>
<path d="M94.4125 84.3632C95.155 84.6885 95.4482 86.1171 95.9406 86.1581C95.9149 85.7373 95.7641 84.5662 96.2302 84.3927C96.6412 84.5734 96.4899 85.5426 96.4785 86.0001C96.4641 86.5707 96.7142 87.2815 96.1428 87.5077C95.5439 87.2568 94.9324 85.7681 94.6955 85.6518C94.586 86.2371 95.1084 87.2348 94.3533 87.4594C94.0858 87.3598 94.0727 87.2397 94.0703 86.9472C94.0649 86.2379 94.038 85.5142 94.1038 84.808C94.1283 84.5514 94.233 84.4984 94.4125 84.3632Z" fill="#FCFBFD"/>
<path d="M63.8749 84.3587C63.9909 84.3964 64.1911 84.4654 64.2619 84.617C64.5982 85.3375 65.2422 86.5032 65.2425 87.2914C65.2425 87.3632 65.1476 87.4022 65.0848 87.4429C64.6896 87.4355 64.6195 87.1031 64.3823 86.8273C64.2733 86.8025 64.1811 86.7816 64.1059 86.7645C63.3111 86.7131 63.4476 86.7995 63.0785 87.4062C62.88 87.4788 62.9154 87.4525 62.6881 87.4105L62.6233 87.2957C62.6117 87.1499 62.6422 86.8543 62.7026 86.7307C63.0198 86.081 63.2513 84.6908 63.8749 84.3587Z" fill="#FCFBFD"/>
<path d="M103.691 84.3626C103.725 84.3729 103.759 84.384 103.792 84.3957C104.63 84.6932 103.472 87.5104 104.882 86.9007C105.606 86.5878 104.617 84.8607 105.478 84.3666C105.899 84.4189 105.873 84.9069 105.868 85.2397C105.872 85.7481 105.855 86.2878 105.846 86.7987C105.459 87.2631 105.011 87.6216 104.36 87.4993C103.166 87.275 103.244 85.667 103.384 84.7466C103.413 84.5534 103.54 84.4606 103.691 84.3626Z" fill="#FCFBFD"/>
<path d="M125.006 84.4105C125.132 84.4141 125.326 84.4195 125.422 84.5111C125.836 84.9053 126.698 86.9871 126.34 87.4409L126.173 87.4397C125.816 87.2625 125.984 86.8909 125.545 86.7629L124.739 86.7525C124.577 87.1109 124.517 87.3052 124.197 87.5201L124.087 87.493C123.758 87.0218 124.632 84.8452 125.006 84.4105Z" fill="#FCFBFD"/>
<path d="M108.622 84.4646C109.014 84.4285 109.315 84.4479 109.707 84.4663C109.967 84.6942 110.231 84.9699 110.151 85.3393C109.753 85.5961 109.233 84.6966 108.675 85.1108L108.69 85.207C109.12 85.6301 110.114 85.6471 110.286 86.4048C110.444 87.0968 109.935 87.3368 109.376 87.4715C108.822 87.4651 108.379 87.4038 107.997 86.9011C107.824 86.6721 108.022 86.3607 108.249 86.2412C108.517 86.3159 108.67 86.8653 108.961 86.9926C109.24 87.1147 109.522 86.9002 109.618 86.6391C109.473 86.1145 108.317 86.1746 108.094 85.5617C107.913 85.0681 108.202 84.6647 108.622 84.4646Z" fill="#FCFBFD"/>
<path d="M132.881 84.4568C133.302 84.4782 133.69 84.4677 134.11 84.4643C134.473 84.4612 134.791 84.4539 134.883 84.8566C134.704 85.1794 133.678 84.8701 133.341 85.0622C133.31 85.2874 133.33 85.348 133.384 85.5648C133.663 85.7641 134.532 85.3493 134.831 85.8047C134.817 85.9611 134.818 85.9972 134.712 86.1065C134.444 86.2273 133.627 86.1987 133.327 86.1486C133.321 86.4016 133.338 86.7142 133.346 86.972C133.609 86.9405 134.602 86.9293 134.848 86.977C134.993 87.1037 134.969 87.0471 135 87.2138C134.745 87.5814 133.317 87.462 132.906 87.39C132.705 87.2005 132.713 84.7424 132.881 84.4568Z" fill="#FCFBFD"/>
<path d="M84.2082 84.4546C84.6252 84.4664 85.85 84.4442 86.1689 84.6102L86.203 84.7341C86.0391 85.3507 85.0273 84.7739 84.6958 85.0763C84.6665 85.2599 84.6749 85.2947 84.7401 85.4692C85.1727 85.8641 86.215 85.2389 86.1605 86.0019C85.7632 86.3872 85.0291 86.0342 84.7006 86.2243C84.7102 86.4574 84.6964 86.7365 84.6904 86.9734C85.2241 86.9253 85.777 86.8867 86.2826 87.0704L86.3418 87.2184C86.0265 87.4999 84.4643 87.6053 84.1663 87.2985C84.0778 86.922 84.0999 84.8322 84.2082 84.4546Z" fill="#FCFBFD"/>
<path d="M68.6005 84.4745C68.8597 84.4629 69.3038 84.3812 69.4476 84.5949C69.491 85.0943 68.3332 86.3763 67.9498 86.9829C68.1975 86.9637 68.4455 86.9472 68.6935 86.9336C68.9634 86.9202 69.3544 86.965 69.5604 87.1544L69.5574 87.2637C69.1706 87.5296 68.7984 87.4657 68.3364 87.4497C68.0272 87.4502 67.4225 87.484 67.1759 87.3777C66.809 86.8983 68.2423 85.4449 68.6178 85.0495C68.2325 85.0255 67.4793 85.059 67.2279 84.757L67.256 84.6742C67.6341 84.4173 68.1491 84.4721 68.6005 84.4745Z" fill="#FCFBFD"/>
<path d="M44.4349 84.4546C45.0835 84.4937 45.6716 84.4668 46.3168 84.4876L46.3831 84.5858C46.3846 84.7841 46.4234 84.8416 46.3124 84.9562C45.986 85.0365 45.3588 85.0086 44.9971 85.0046L45.0242 85.7231C45.3501 85.7155 45.7387 85.6034 46.0167 85.698C46.1947 85.8496 46.1457 85.842 46.1953 86.1241C45.9771 86.2937 45.3119 86.214 45 86.2032C45.0065 86.4866 45.0807 87.2443 44.8783 87.4393C44.8124 87.4486 44.4832 87.4744 44.4667 87.405C44.2827 86.6302 44.3259 85.2297 44.4349 84.4546Z" fill="#FCFBFD"/>
<path d="M80.2563 78.0175C81.0934 78.0221 81.9071 78.0278 82.7435 77.9989C82.7118 78.3642 82.7238 78.8556 82.7238 79.2333L80.2461 79.2313L80.2563 78.0175Z" fill="#FCFBFD"/>
<path d="M112.224 84.5001C112.713 84.4857 114.222 84.3751 114.548 84.6366C114.579 84.8316 114.606 84.7991 114.524 84.9333C114.314 85.0335 113.944 85.002 113.698 84.999C113.718 85.4688 113.705 86.0157 113.705 86.4915C113.714 86.8396 113.777 87.1647 113.572 87.4178C113.391 87.4486 113.346 87.4623 113.179 87.3926C113.005 87.0558 113.075 85.4658 113.086 85.019C112.823 85.0014 112.555 85.0651 112.321 84.9494C112.198 84.7547 112.235 84.757 112.224 84.5001Z" fill="#FCFBFD"/>
<path d="M30.0086 84.4222C30.3081 84.4014 30.4752 84.4498 30.5374 84.7739C30.6622 85.4248 30.5803 86.1954 30.5533 86.8576C31.0346 86.9117 31.4327 86.7937 31.8677 86.9832C32.0063 87.1635 31.9637 87.1317 31.9532 87.4068C31.4227 87.4739 30.5003 87.4316 29.9484 87.4073C29.9039 86.9283 29.871 84.8271 30.0086 84.4222Z" fill="#FCFBFD"/>
<path d="M128.751 84.4176C129.008 84.4386 128.97 84.3959 129.14 84.5471C129.347 85.0295 129.239 86.2417 129.247 86.8556C129.739 86.9209 130.155 86.8016 130.538 86.9787C130.681 87.1643 130.637 87.1485 130.642 87.426C130.204 87.4383 129.279 87.4703 128.897 87.4055C128.475 87.334 128.648 84.7891 128.751 84.4176Z" fill="#FCFBFD"/>
<path d="M91.3569 84.3601C91.5388 84.4036 91.5777 84.4153 91.7338 84.519C91.8858 84.7818 91.8834 87.2002 91.6537 87.4848C91.4754 87.4606 91.3994 87.439 91.2313 87.3875C91.0266 87.0445 91.1236 84.9886 91.2073 84.5401C91.2073 84.5401 91.3431 84.3766 91.3569 84.3601Z" fill="#FCFBFD"/>
<path d="M121.377 84.4017C121.497 84.4165 121.617 84.4417 121.736 84.4646C121.782 84.5249 121.822 84.5559 121.82 84.6356C121.806 85.1491 121.973 87.1566 121.704 87.4851C121.555 87.4666 121.44 87.4413 121.295 87.4089C121.092 87.1946 121.1 84.713 121.377 84.4017Z" fill="#FCFBFD"/>
<path d="M71.72 84.4412C71.8241 84.437 72.1435 84.4262 72.1666 84.5252C72.3004 85.0999 72.3218 86.9234 72.1979 87.4631C71.976 87.4728 71.803 87.5037 71.6648 87.3178C71.5903 86.8426 71.6127 84.9241 71.72 84.4412Z" fill="#FCFBFD"/>
<path d="M36.8047 84.4326C36.933 84.4313 37.2668 84.4149 37.2893 84.5553C37.3714 85.0684 37.4439 87.0256 37.275 87.4572C37.0966 87.4548 36.954 87.4714 36.8093 87.3643C36.6917 86.9939 36.7262 84.8277 36.8047 84.4326Z" fill="#FCFBFD"/>
<path d="M34.4953 84.4698L34.5627 84.5426C34.6175 85.0505 34.6662 85.3488 34.209 85.6197C33.9808 85.3833 33.8019 84.9341 34.0015 84.6311C34.1131 84.4618 34.312 84.4883 34.4953 84.4698Z" fill="#FCFBFD"/>
<path d="M131.024 76.9117C130.955 76.7146 130.967 76.657 130.996 76.4572C131.148 76.5636 131.149 76.812 131.311 77.035L131.024 76.9117Z" fill="#FCFBFD" fill-opacity="0.0980392"/>
<path d="M13 70.2699C14.2746 70.2603 15.4638 70.1527 16.4383 71.155C17.3271 72.0689 17.3758 72.6187 17.3839 73.7939L17.3899 81.2652C17.3898 82.3567 17.4351 83.7124 17.3195 84.7806C17.2673 85.2625 16.7081 86.1054 16.3387 86.4747C15.5499 87.2633 14.7196 87.4566 13.6555 87.4625C13.437 87.4634 13.2185 87.4626 13 87.4603V70.2699Z" fill="#FCFBFD"/>
</svg>
