<svg width="148" height="148" viewBox="0 0 148 148" fill="none" xmlns="http://www.w3.org/2000/svg">
<path d="M27.1729 88C19.3569 88 13 81.718 13 73.9989C13 70.3998 14.3837 66.9793 16.8951 64.3665L16.9403 64.3198L23.7685 75.9526C24.4701 77.1473 25.7763 77.8914 27.1772 77.8914C27.8659 77.8914 28.5481 77.7107 29.1485 77.3663C31.025 76.2906 31.6663 73.9054 30.5795 72.0495C29.878 70.8547 28.5717 70.1107 27.1708 70.1107C26.4821 70.1107 25.8 70.2914 25.1996 70.6358C24.8015 70.8654 24.4442 71.163 24.1429 71.5244L24.0978 71.5775L18.8641 62.6616L18.9007 62.6361C21.3217 60.912 24.1838 60 27.1729 60C34.9868 60 41.3438 66.2798 41.3438 73.9989C41.3438 81.718 34.9868 88 27.1729 88ZM16.7875 70.0512C16.2925 71.3139 16.0429 72.6405 16.0429 73.9989C16.0429 80.0619 21.0355 84.9939 27.1729 84.9939C33.3104 84.9939 38.3008 80.0619 38.3008 73.9989C38.3008 67.9359 33.3082 63.006 27.1729 63.006C25.7505 63.006 24.3625 63.2717 23.0433 63.7926L25.1608 67.398C25.8107 67.2046 26.4865 67.1047 27.1686 67.1047C29.6499 67.1047 31.9654 68.4206 33.2092 70.538C35.1396 73.8246 34.0033 78.0529 30.6721 79.962C29.609 80.57 28.3996 80.8931 27.1772 80.8931C24.6939 80.8931 22.3783 79.5772 21.1345 77.4577L16.7875 70.0512Z" fill="white"/>
<path d="M128.273 82.3982C124.563 82.3982 121.546 79.4985 121.546 75.9334C121.546 72.3683 124.565 69.4686 128.273 69.4686C131.981 69.4686 135 72.3683 135 75.9334C135 79.4985 131.981 82.3982 128.273 82.3982ZM128.273 72.4087C126.328 72.4087 124.746 73.9904 124.746 75.9334C124.746 77.8765 126.328 79.4581 128.273 79.4581C130.218 79.4581 131.8 77.8765 131.8 75.9334C131.8 73.9904 130.218 72.4087 128.273 72.4087Z" fill="white"/>
<path d="M77.1009 82.3983C73.1241 82.3983 70.1244 79.6197 70.1244 75.9335C70.1244 72.2472 73.1434 69.4665 76.8535 69.4665C80.5636 69.4665 83.5807 72.3684 83.5807 75.9335C83.5807 76.2927 83.5505 76.6435 83.4946 76.9794L83.488 77.0198H73.4987C73.9872 78.5483 75.33 79.4582 77.1031 79.4582C78.1104 79.4582 79.07 79.0266 79.7393 78.2719L79.7608 78.2485L82.836 79.3179L82.8038 79.3689C81.5643 81.2652 79.4339 82.3983 77.1053 82.3983H77.1009ZM80.1869 74.7833C79.6984 73.3611 78.3663 72.4087 76.8513 72.4087C75.3363 72.4087 74.0043 73.3611 73.5158 74.7833H80.1869Z" fill="white"/>
<path d="M53.8942 82.3983C50.0979 82.3983 47.0098 79.4964 47.0098 75.9313V65.5996H50.1733V70.91C51.2494 69.9661 52.5856 69.4687 54.0403 69.4687C57.5633 69.4687 60.4274 72.3684 60.4274 75.9356C60.4274 79.5028 57.4964 82.4004 53.8942 82.4004V82.3983ZM53.7004 72.4088C51.7594 72.4088 50.1755 73.9883 50.1733 75.9313C50.1733 77.8787 51.755 79.4582 53.7004 79.4582C55.6459 79.4582 57.2275 77.8765 57.2275 75.9335C57.2275 73.9904 55.6459 72.4088 53.7004 72.4088Z" fill="white"/>
<path d="M113.588 82.3983C109.792 82.3983 106.704 79.4964 106.704 75.9313V65.5996H109.867V70.91C110.945 69.9661 112.28 69.4687 113.734 69.4687C117.257 69.4687 120.121 72.3684 120.121 75.9356C120.121 79.5028 117.19 82.4004 113.588 82.4004V82.3983ZM113.394 72.4088C111.453 72.4088 109.869 73.9883 109.867 75.9313C109.867 77.8787 111.449 79.4582 113.394 79.4582C115.34 79.4582 116.921 77.8765 116.921 75.9335C116.921 73.9904 115.34 72.4088 113.394 72.4088Z" fill="white"/>
<path d="M62.1942 82.158V73.865C62.1942 71.3033 63.8232 69.711 66.4423 69.711H69.5002V72.7127H67.3073C66.2959 72.7127 65.3619 72.9232 65.3619 74.4475V82.158H62.192H62.1942Z" fill="white"/>
<path d="M101.739 82.1581V75.6486C101.739 73.4377 100.36 72.6533 99.1804 72.6533C98.7478 72.6533 96.5871 72.7936 96.5871 75.5551V82.1581H93.4368V75.5551C93.4368 72.7936 91.2761 72.6533 90.8435 72.6533C89.6623 72.6533 88.2849 73.4377 88.2849 75.6486V82.1581H85.2053V74.7855C85.2053 71.4713 87.9901 69.4921 90.6822 69.4921C92.3781 69.4921 93.9919 70.2361 95.014 71.4861C96.0342 70.2361 97.6503 69.4921 99.3461 69.4921C102.038 69.4921 104.825 71.4734 104.825 74.7855V82.1581H101.739Z" fill="white"/>
</svg>
