<svg width="148" height="148" viewBox="0 0 148 148" fill="none" xmlns="http://www.w3.org/2000/svg">
<path d="M104.672 72.1099C104.807 70.5039 108.389 71.1088 109.564 71.0489C109.647 71.0446 110.009 71.3017 110.099 71.3632C110.24 71.1993 110.077 71.0229 110.274 71.0255C111.088 71.0363 112.315 70.9672 113.083 71.0413C113.161 71.2804 112.987 71.363 112.98 71.5846C112.928 73.4754 113.017 75.368 112.943 77.2588C112.862 79.3416 110.272 78.9757 108.658 78.9746L105.12 78.9704C105.089 78.6595 104.883 77.951 104.975 77.7043C105.142 77.6696 105.431 77.8417 105.663 77.8433C106.921 77.852 108.196 77.8835 109.453 77.8257C109.841 77.8079 109.873 76.8463 109.835 76.5988C109.827 76.5497 109.813 76.5018 109.792 76.4559C109.777 76.4599 109.766 76.4637 109.752 76.4685L109.745 76.4705C109.477 76.5588 109.619 76.6918 109.104 76.7089C108.169 76.6993 107.234 76.6994 106.299 76.7094C105.699 76.7188 104.583 76.245 104.664 75.5945L104.672 72.1099ZM109.659 72.1722L109.636 72.0745C109.413 71.986 108.201 71.9722 107.921 72.0782C107.92 72.0783 107.86 72.1373 107.852 72.1445C107.601 72.5048 107.757 74.7869 107.771 75.3451C107.785 75.8715 109.776 75.7916 109.786 75.3919C109.806 74.5607 109.929 73.1377 109.801 72.3307C109.686 72.2502 109.689 72.279 109.659 72.1722Z" fill="white"/>
<path d="M107.852 72.1445C107.86 72.1373 107.92 72.0783 107.921 72.0782C108.201 71.9722 109.413 71.986 109.636 72.0745L109.659 72.1722C109.114 72.172 108.382 72.19 107.852 72.1445Z" fill="white"/>
<path d="M82.9895 76.7101C81.7542 76.7492 80.9886 75.9636 81.07 74.8823C81.1221 74.1887 80.9705 72.8849 81.1227 72.255C81.1854 71.9871 81.3264 71.7394 81.5307 71.5378C81.8297 71.2474 82.2255 71.0332 82.6724 71.0254C83.8982 71.0039 85.1421 71.0188 86.3652 71.016C87.8915 71.0099 89.6919 70.8547 89.6626 72.7595C89.6483 73.6878 89.7073 74.6739 89.6201 75.6055C89.578 76.0527 88.9327 76.6903 88.4523 76.7026C86.6312 76.6966 84.8101 76.6991 82.9895 76.7101ZM86.0385 75.6976C86.2088 75.604 86.4572 75.5203 86.5083 75.3329C86.6323 74.8776 86.6285 72.6308 86.3944 72.2762C86.3279 72.1759 86.2104 72.1415 86.0896 72.1158C85.6704 72.027 85.2602 72.0231 84.833 72.0435L84.8255 72.0507C84.7122 72.1535 84.5925 72.1421 84.4797 72.2173C84.1903 72.4101 84.2648 73.0012 84.2626 73.3012C84.2584 73.9534 84.1387 74.8894 84.3621 75.4997C84.7611 75.8054 85.5395 75.7063 86.0385 75.6976Z" fill="white"/>
<path d="M96.9529 76.7086C96.4959 76.7135 95.9617 76.5805 95.6271 76.2852C95.2068 75.9134 95.1329 75.3523 95.1281 74.8462C95.1211 74.2007 95.0366 72.8342 95.1807 72.2837C95.2674 71.9521 95.4505 71.6475 95.7112 71.4015C96.1639 70.981 96.7592 71.0224 97.3647 71.0176C98.2122 71.0109 101.792 70.931 102.36 71.0561C102.636 71.117 103.187 71.4341 103.389 71.6151C103.741 71.9296 103.714 72.6804 103.716 73.1074C103.72 73.9834 103.938 75.7121 103.234 76.3537C103.056 76.5166 102.715 76.7099 102.458 76.7115C102.436 76.7117 102.415 76.7105 102.393 76.7085C100.592 76.6468 98.757 76.6959 96.9529 76.7086ZM98.3819 72.4542L98.2627 72.4935C98.192 72.82 98.2042 74.8919 98.2718 75.3463C98.2781 75.3857 98.3415 75.3904 98.3851 75.3975C98.4963 75.8795 100.336 75.7167 100.435 75.5411C100.7 75.0712 100.801 72.4347 100.306 72.1442C99.671 72.0434 98.9932 71.9001 98.4213 72.243L98.3819 72.4542Z" fill="white"/>
<path d="M98.3851 75.3975C98.3415 75.3904 98.2781 75.3857 98.2718 75.3463C98.2042 74.8919 98.192 72.82 98.2627 72.4935L98.3819 72.4542C98.3941 73.0746 98.442 74.8308 98.3851 75.3975Z" fill="white"/>
<path d="M61.7181 76.4054C61.8272 75.9124 61.7776 74.2628 61.7841 73.6931C61.7983 72.446 61.7735 71.1337 61.783 69.8792C61.785 69.6243 61.6374 69.2517 61.6377 69.0505C62.2376 68.9776 64.1853 69.0224 64.9009 69.0232C64.8972 69.4042 64.8493 70.9176 64.9504 71.1718C65.1472 71.1805 65.2467 71.0254 65.5675 71.0273C66.7518 71.0342 68.1483 70.9065 69.2916 71.1701C69.3821 71.1909 69.6853 71.4816 69.7433 71.5411C70.6653 72.4831 69.9412 75.2593 70.2615 76.4054C70.302 76.6062 70.3903 76.5818 70.3488 76.6873C70.0274 76.7263 67.0992 76.7297 66.9359 76.6618L66.8853 76.6064C66.929 76.5059 66.972 76.4042 67.0072 76.3008C67.1418 75.8994 67.1694 72.6009 66.9896 72.3C66.9305 72.2006 66.9024 72.1936 66.7858 72.1628L66.7656 72.0732C66.5842 71.9711 65.5313 72.0045 65.2882 72.0516L65.2398 72.1588C65.1068 72.1874 65.0765 72.1915 65.0031 72.2998C64.8073 72.5896 64.8429 75.7997 64.9562 76.2334C64.9897 76.3613 65.0621 76.4899 65.1222 76.6092C65.1169 76.6175 65.1126 76.6245 65.1047 76.6309C64.9105 76.7834 62.0484 76.7321 61.6327 76.687C61.6003 76.6001 61.6778 76.5633 61.7181 76.4054Z" fill="white"/>
<path d="M120.566 76.7085C120.175 76.6987 119.774 76.608 119.453 76.3938C119.012 76.1001 118.858 75.6196 118.782 75.1503C118.669 74.4558 118.654 72.1403 119.125 71.5914C119.274 71.4188 119.86 71.0875 120.098 71.0592C120.653 70.9931 125.737 70.9534 125.955 71.1092C126.171 71.2647 126.459 71.321 126.662 71.5079C127.272 72.0705 127.064 73.6694 127.058 74.4351H121.88C121.867 75.1487 121.751 75.7197 122.805 75.6886C124.061 75.6516 125.596 75.8776 126.769 75.4736C126.801 75.4623 126.94 75.4716 126.984 75.4729C126.894 75.6342 126.861 76.2141 126.752 76.5657L126.709 76.674C126.516 76.7548 121.275 76.6889 120.566 76.7085ZM124.043 73.3099C124.05 72.9353 124.128 72.4545 123.876 72.1842L123.774 72.1573C123.764 72.1146 123.76 72.0589 123.711 72.0494C123.385 71.9859 122.385 71.9924 122.108 72.0558L122.066 72.1634C121.784 72.4604 121.88 72.9004 121.88 73.3173C122.506 73.3168 123.443 73.3434 124.043 73.3099Z" fill="white"/>
<path d="M122.066 72.1634L122.108 72.0558C122.385 71.9924 123.385 71.9859 123.711 72.0494C123.76 72.0589 123.764 72.1146 123.774 72.1573C123.257 72.1846 122.593 72.1656 122.066 72.1634Z" fill="white"/>
<path d="M44.7127 72.2545C44.7733 70.9036 46.8439 70.9513 47.9856 71.0144C49.0986 71.0759 51.0765 70.8324 52.1813 71.2523C52.2255 71.2691 52.5379 71.5549 52.5902 71.6067C52.7703 71.7848 52.8652 72.0205 52.854 72.2619C52.8485 72.6275 52.7899 74.1719 52.914 74.4449C51.8196 74.4319 50.725 74.4285 49.6305 74.4349C49.0607 74.4353 48.2514 74.4139 47.6985 74.441C47.6926 74.7623 47.6694 75.2662 47.91 75.5398C48.035 75.6821 49.0087 75.7017 49.2361 75.7007C50.0891 75.697 50.9724 75.7076 51.8248 75.6902C51.9754 75.6872 52.525 75.4872 52.7911 75.4541C52.8431 75.5346 52.6755 76.2128 52.682 76.5553C52.4691 76.6287 52.5944 76.6816 52.4037 76.6923C51.7321 76.7301 51.045 76.693 50.3731 76.7057C49.0605 76.7304 47.7206 76.6671 46.4113 76.7085C46.3694 76.7118 46.3273 76.7128 46.2853 76.7114C45.5366 76.6912 44.6793 76.1368 44.7031 75.3922C44.7278 75.2003 44.7133 74.578 44.7134 74.3547L44.7127 72.2545ZM47.8403 72.3095L47.7174 72.3516C47.6592 72.5806 47.6846 73.0543 47.6896 73.3085C48.0083 73.3349 49.6477 73.3757 49.8708 73.3013C49.8755 73.0233 49.8844 72.7313 49.8477 72.4547C49.8255 72.2872 49.7765 72.3251 49.7048 72.1719L49.6869 72.0793C49.4748 71.967 48.1343 71.9639 47.9314 72.1333C47.8428 72.2282 47.8622 72.1886 47.8403 72.3095Z" fill="white"/>
<path d="M47.6896 73.3085C47.6846 73.0543 47.6592 72.5806 47.7174 72.3516L47.8403 72.3095C47.8453 72.6293 47.8483 72.9492 47.8492 73.2691C48.1642 73.2676 49.6388 73.2435 49.8708 73.3013C49.6477 73.3757 48.0083 73.3349 47.6896 73.3085Z" fill="white"/>
<path d="M47.9314 72.1333C48.1343 71.9639 49.4748 71.967 49.6869 72.0793L49.7048 72.1719C49.2291 72.1719 48.3735 72.1932 47.9314 72.1333Z" fill="white"/>
<path d="M128.124 72.2468C128.187 70.6386 131.468 71.0711 132.675 71.0121C133.123 70.9902 135.234 70.9815 135.481 71.0572C135.502 71.0909 135.521 71.1255 135.539 71.161C135.612 71.3161 135.831 72.1657 135.77 72.3055C135.432 72.2959 135.58 72.1721 135.154 72.1601L135.132 72.0769C134.94 71.9843 131.427 71.9979 131.155 72.0647L131.126 72.1722C131.113 72.3121 131.087 72.4376 131.156 72.5641C132.166 72.8965 135.242 72.0176 135.752 73.3443C136.245 74.6282 136.142 76.6385 134.153 76.7083C132.245 76.6658 130.318 76.742 128.408 76.6952C128.224 76.6907 128.355 76.6269 128.137 76.5658C128.138 76.0735 127.932 75.7869 127.99 75.3561C127.994 75.308 128.063 75.3587 128.099 75.3707C128.511 75.5057 129.147 75.7142 129.579 75.7003C130.622 75.6647 131.726 75.7854 132.755 75.6311C132.989 75.5959 133.032 75.3671 132.955 75.1877L132.817 75.1512C132.815 75.1096 132.781 75.0728 132.755 75.0375C132.32 74.9732 129.933 75.0166 129.333 75.0199C128.672 75.0494 128.161 74.406 128.122 73.8588C128.145 73.3436 128.128 72.7666 128.124 72.2468Z" fill="white"/>
<path d="M71.4011 76.6004C71.6123 76.1517 71.6437 76.0537 71.6325 75.5547C71.599 74.0671 71.7411 72.5178 71.4931 71.0481C71.8203 71.0035 74.1612 70.9953 74.3916 71.0464C74.5187 71.211 74.3644 71.2788 74.5219 71.3606C74.7805 71.3347 74.9044 71.0585 75.0827 71.0423C75.8036 70.9766 76.5409 71.0434 77.2602 71.0132C78.5567 70.9586 79.7644 71.0963 79.9145 72.5464C80.0358 73.7195 79.815 75.0323 79.974 76.2132C79.9826 76.2875 80.1219 76.499 80.1608 76.5986C80.1496 76.6079 80.0656 76.6782 80.0656 76.6782C79.2968 76.7599 77.2405 76.6612 76.5654 76.7168C76.6745 76.3676 76.7984 76.4774 76.7995 76.0565C76.9862 75.9588 76.9559 75.7019 76.9532 75.5216C76.9384 74.513 76.9947 73.4928 76.9224 72.4878C76.9224 72.4878 76.8341 72.4063 76.8256 72.3985C76.7516 72.2614 76.7133 72.3523 76.6223 72.1722L76.5984 72.0744C76.3542 71.9745 75.2412 71.9903 74.9725 72.0671L74.9374 72.1705L74.8071 72.2064L74.7337 72.389C74.7246 72.3979 74.6299 72.4878 74.6299 72.4878C74.5751 73.4828 74.6171 74.4859 74.6081 75.4826C74.607 75.6077 74.6177 75.7279 74.6384 75.8513L74.7613 75.9565C74.7698 76.1372 74.7518 76.35 74.9151 76.4756L74.9326 76.5659L74.9023 76.6705C74.8816 76.677 74.8007 76.6996 74.7587 76.6997C73.6803 76.7014 72.58 76.7323 71.5048 76.6862C71.4628 76.6513 71.4282 76.6227 71.4011 76.6004Z" fill="white"/>
<path d="M20.1272 70.434L19.9738 70.3958C19.9349 70.0109 20.035 69.4535 20.1602 69.0832C20.2991 68.9712 27.3728 69.0235 28.2429 69.0232C28.248 69.2354 28.2542 69.48 28.2807 69.6892C28.3143 69.9535 28.4159 70.1572 28.3974 70.4286C28.1846 70.4823 28.0916 70.3079 27.7754 70.2979C27.1142 70.2768 26.4311 70.2883 25.7704 70.2939L25.7685 74.2202C25.7689 74.7491 25.6474 76.2235 26.0345 76.5885C26.0459 76.5992 26.0582 76.6093 26.0711 76.6185L26.0807 76.6987C25.484 76.7181 22.8966 76.7336 22.3816 76.6855C22.3214 76.5653 22.3625 76.5303 22.402 76.3794C22.4845 76.3093 22.4654 76.2388 22.4791 76.116L22.5866 76.0987C22.6685 75.9181 22.6509 70.8311 22.6071 70.3287C22.3369 70.0866 20.5894 70.2325 20.1752 70.3236L20.1272 70.434Z" fill="white"/>
<path d="M38.3171 70.2939C37.6886 70.2981 37.051 70.2702 36.4194 70.2864C36.1062 70.2944 35.9065 70.4569 35.6959 70.4203C35.6264 70.2269 35.8067 70.2179 35.7996 70.0885C35.7747 69.6401 35.8161 69.4724 35.9782 69.0485C36.1944 68.977 43.68 68.9879 43.882 69.0594C44.1284 69.1467 44.0414 70.2143 44.1388 70.3962C44.1397 70.3979 44.1407 70.3995 44.1417 70.4011L44.0619 70.4534C43.9555 70.4401 43.9162 70.3818 43.8467 70.3069C43.4027 70.226 41.9191 70.2583 41.4117 70.2621L41.4064 74.0626C41.4061 74.3891 41.3823 75.6181 41.4499 75.8687L41.5635 75.9565C41.5648 76.3321 41.6596 76.2375 41.8069 76.5996C41.779 76.6216 41.7427 76.6503 41.6978 76.6858C40.5985 76.7298 39.4598 76.7002 38.3585 76.7008C38.1442 76.7009 38.1331 76.6624 38.0625 76.5894C38.4483 75.9689 38.3231 74.8004 38.3223 74.0629L38.3171 70.2939Z" fill="white"/>
<path d="M12 76.6987L12.0097 76.6186C12.0923 76.558 12.1627 76.3977 12.2069 76.3077C12.3961 75.9232 12.3636 70.7211 12.2911 69.9856C12.2587 69.6568 12.1684 69.3542 12.0386 69.0464C12.4035 69.0028 15.6045 69.0061 15.7511 69.0638C15.7548 69.2274 15.6216 69.274 15.5905 69.431C15.5312 69.7299 15.5369 70.0744 15.5313 70.3782C15.519 71.0495 15.425 76.1649 15.6733 76.3908C15.6755 76.3928 15.6777 76.3946 15.6798 76.3965C15.7212 76.543 15.7589 76.5676 15.6999 76.686C15.1744 76.734 12.6036 76.7182 12 76.6987Z" fill="white"/>
<path d="M55.5904 76.7101C55.562 76.711 55.5337 76.7115 55.5054 76.7116C55.0519 76.7093 54.6181 76.5435 54.2995 76.2509C53.6327 75.6494 53.8013 75.1364 53.7721 74.3529C53.655 71.2056 53.8756 71.01 57.3336 71.0133L60.6605 71.0176C60.6572 71.5303 60.8323 71.6984 60.8312 72.2589C60.7232 72.3415 60.717 72.1535 60.3429 72.163L60.3321 72.0952C60.199 71.9802 57.612 71.9877 57.3063 72.0609L57.2674 72.1608C57.0581 72.1921 57.1224 72.1712 56.9681 72.3281C56.838 72.6749 56.8598 75.0175 56.9826 75.4193C57.1058 75.8221 59.458 75.6964 59.8718 75.6885C60.0245 75.6856 60.6981 75.4109 60.8159 75.4441C60.8876 75.7973 60.663 76.2602 60.6569 76.6995C59.047 76.746 57.2291 76.6928 55.5904 76.7101Z" fill="white"/>
<path d="M90.7368 69.468C90.7512 69.291 90.7081 69.2338 90.6176 69.0782L90.6437 69.0466C91.3279 68.9847 93.1389 69.0147 93.8688 69.0339C93.8682 69.7866 93.8161 75.8949 93.9342 76.1195L94.0231 76.1741L94.0396 76.4084C94.0608 76.5241 94.0731 76.5496 94.1316 76.6545C93.9943 76.7622 91.2417 76.6972 90.8517 76.688C90.7602 76.6859 90.7256 76.6311 90.7113 76.5501L90.7379 76.2688C90.8363 76.2524 90.8033 76.2689 90.8709 76.2009C90.9592 74.188 90.8379 72.1304 90.8932 70.113C90.8985 69.916 90.9156 69.6924 90.8522 69.5045L90.7368 69.468Z" fill="white"/>
<path d="M114.367 71.312L114.436 71.0854C114.832 71.0267 116.953 71.0664 117.49 71.0657L117.485 74.3612C117.484 74.6577 117.462 75.7903 117.529 76.0135L117.642 76.1012C117.666 76.3745 117.807 76.477 117.812 76.5659L117.784 76.6702C117.755 76.6781 117.661 76.7012 117.611 76.7011C116.55 76.6974 115.462 76.7369 114.406 76.6849C114.37 76.6545 114.34 76.6294 114.316 76.6095C114.705 75.8276 114.441 74.2234 114.517 73.3018C114.542 72.9877 114.572 71.5253 114.367 71.312Z" fill="white"/>
<path d="M17.3091 74.7225H20.4524V76.7048H17.3091V74.7225Z" fill="white"/>
<path d="M27.9408 74.6666C28.2864 74.7878 30.5645 74.7153 31.092 74.7296C31.0902 75.0394 31.0669 76.4643 31.1125 76.6723C30.5166 76.7969 28.4347 76.5877 27.9408 76.7607C27.9806 76.162 27.9548 75.2771 27.9408 74.6666Z" fill="white"/>
<path d="M114.511 69.0232C115.492 69.0213 116.513 69.0069 117.49 69.0339V70.4185C117.078 70.4173 114.781 70.3919 114.511 70.4427V69.0232Z" fill="white"/>
<path d="M20.1272 70.434L20.1752 70.3236C20.5894 70.2325 22.3369 70.0866 22.6071 70.3287C22.6509 70.8311 22.6685 75.9181 22.5866 76.0987L22.4791 76.116C22.4379 75.7544 22.4702 74.685 22.4703 74.284L22.4719 70.3259C21.8559 70.3217 20.667 70.262 20.1272 70.434Z" fill="white"/>
<path d="M93.8688 69.0339L94.014 69.065C94.0688 69.5644 94.0449 71.4911 94.0294 72.0835C93.997 73.3399 94.0922 74.958 94.0231 76.1741L93.9342 76.1195C93.8161 75.8949 93.8682 69.7866 93.8688 69.0339Z" fill="white"/>
<path d="M90.7368 69.468L90.8522 69.5045C90.9156 69.6924 90.8985 69.916 90.8932 70.113C90.8379 72.1304 90.9592 74.188 90.8709 76.2009C90.8033 76.2689 90.8363 76.2524 90.7379 76.2688C90.7107 76.1254 90.7208 74.301 90.7261 74.0832C90.7623 72.5819 90.6745 70.955 90.7368 69.468Z" fill="white"/>
<path d="M114.367 71.312C114.361 71.1638 114.325 71.1103 114.413 71.0199C115.121 70.9498 116.867 70.9988 117.65 71.0013C117.65 72.607 117.707 74.522 117.642 76.1012L117.529 76.0135C117.462 75.7903 117.484 74.6577 117.485 74.3612L117.49 71.0657C116.953 71.0664 114.832 71.0267 114.436 71.0854L114.367 71.312Z" fill="white"/>
<path d="M41.4117 70.2621C41.9191 70.2583 43.4027 70.226 43.8467 70.3069C43.1302 70.3328 42.2967 70.313 41.5714 70.3103C41.5714 72.1012 41.6316 74.1913 41.5635 75.9565L41.4499 75.8687C41.3823 75.6181 41.4061 74.3891 41.4064 74.0626L41.4117 70.2621Z" fill="white"/>
<path d="M46.4113 76.7085C47.7206 76.6671 49.0605 76.7304 50.3731 76.7057C51.045 76.693 51.7321 76.7301 52.4037 76.6923C52.5944 76.6816 52.4691 76.6287 52.682 76.5553L52.653 76.773C52.3407 76.9672 47.9349 76.7897 47.248 76.8474C47.1113 76.8588 46.5912 76.8481 46.4694 76.7878L46.4113 76.7085Z" fill="white"/>
<path d="M126.752 76.5657L126.726 76.825C126.096 76.9143 121.623 76.8489 120.644 76.7986C120.628 76.7978 120.58 76.7324 120.566 76.7085C121.275 76.6889 126.516 76.7548 126.709 76.674L126.752 76.5657Z" fill="white"/>
<path d="M128.137 76.5658C128.355 76.6269 128.224 76.6907 128.408 76.6952C130.318 76.742 132.245 76.6658 134.153 76.7083C134.088 76.7966 134.021 76.8447 133.899 76.8376C133.155 76.7942 128.503 76.9685 128.172 76.7801L128.137 76.5658Z" fill="white"/>
<path d="M82.9895 76.7101C84.8101 76.6991 86.6312 76.6966 88.4523 76.7026C88.4299 76.728 88.406 76.7511 88.3783 76.7714C88.2081 76.8951 83.8174 76.8991 83.2507 76.8407C83.1007 76.8252 83.0848 76.8182 82.9895 76.7101Z" fill="white"/>
<path d="M96.9529 76.7086C98.757 76.6959 100.592 76.6468 102.393 76.7085L102.327 76.7957C102.132 76.9041 97.6988 76.8825 97.2434 76.8411C97.0944 76.8275 97.0476 76.8146 96.9529 76.7086Z" fill="white"/>
<path d="M55.5904 76.7101C57.2291 76.6928 59.047 76.746 60.6569 76.6995C60.6491 76.7953 60.6638 76.7614 60.5941 76.8366C60.4123 76.8565 60.2033 76.85 60.0189 76.8495C58.6319 76.8459 57.2431 76.8662 55.8566 76.8421C55.6876 76.8391 55.687 76.8183 55.5904 76.7101Z" fill="white"/>
<path d="M41.8069 76.5996L41.8948 76.5945C41.9062 76.7013 41.893 76.7321 41.8586 76.8351C41.2483 76.8662 38.5615 76.8838 38.0278 76.8252C37.9421 76.7009 37.9583 76.7509 37.9678 76.5978L38.0625 76.5894C38.1331 76.6624 38.1442 76.7009 38.3585 76.7008C39.4598 76.7002 40.5985 76.7298 41.6978 76.6858C41.7427 76.6503 41.779 76.6216 41.8069 76.5996Z" fill="white"/>
<path d="M15.6798 76.3965C15.8234 76.5566 15.903 76.6038 15.8929 76.7875C15.7646 76.8949 12.4663 76.847 12.0488 76.8461C12.0162 76.7879 12.0002 76.7659 12 76.6987C12.6036 76.7182 15.1744 76.734 15.6999 76.686C15.7589 76.5676 15.7212 76.543 15.6798 76.3965Z" fill="white"/>
<path d="M26.0807 76.6987L26.0572 76.8284C25.9585 76.8712 22.524 76.8455 22.2458 76.8311L22.1773 76.7583C22.1961 76.5971 22.2889 76.5282 22.402 76.3794C22.3625 76.5303 22.3214 76.5653 22.3816 76.6855C22.8966 76.7336 25.484 76.7181 26.0807 76.6987Z" fill="white"/>
<path d="M65.1222 76.6092L65.1978 76.5925L65.2355 76.6557L65.1924 76.7609C65.1355 76.7964 65.0711 76.8212 65.0036 76.8337C64.6881 76.8942 62.1684 76.8308 61.6455 76.841C61.5979 76.8128 61.5567 76.7884 61.522 76.7677C61.484 76.594 61.5067 76.6229 61.6001 76.4417L61.7181 76.4054C61.6778 76.5633 61.6003 76.6001 61.6327 76.687C62.0484 76.7321 64.9105 76.7834 65.1047 76.6309C65.1126 76.6245 65.1169 76.6175 65.1222 76.6092Z" fill="white"/>
<path d="M70.2615 76.4054C70.5073 76.4785 70.3706 76.5312 70.4967 76.6038C70.4631 76.7888 70.5009 76.7404 70.361 76.8417C70.0386 76.9053 67.3248 76.8563 66.8694 76.837C66.7646 76.7323 66.7885 76.7778 66.7816 76.6237C66.847 76.5926 66.8257 76.5909 66.8853 76.6064L66.9359 76.6618C67.0992 76.7297 70.0274 76.7263 70.3488 76.6873C70.3903 76.5818 70.302 76.6062 70.2615 76.4054Z" fill="white"/>
<path d="M131.126 72.1722L131.155 72.0647C131.427 71.9979 134.94 71.9843 135.132 72.0769L135.154 72.1601C134.983 72.1868 134.073 72.1719 133.852 72.1712L131.126 72.1722Z" fill="white"/>
<path d="M94.0396 76.4084L94.1688 76.4463C94.1869 76.5891 94.2093 76.6795 94.1475 76.8146C93.8459 76.8866 91.1065 76.8462 90.6298 76.844C90.5479 76.776 90.5703 76.7281 90.5602 76.6061C90.6059 76.585 90.6618 76.5551 90.7113 76.5501C90.7256 76.6311 90.7602 76.6859 90.8517 76.688C91.2417 76.6972 93.9943 76.7622 94.1316 76.6545C94.0731 76.5496 94.0608 76.5241 94.0396 76.4084Z" fill="white"/>
<path d="M74.9326 76.5659C75.0438 76.619 75.0199 76.5898 75.0672 76.6901L75.0236 76.7751C74.7448 76.8915 71.7889 76.8762 71.3724 76.8279C71.2835 76.7066 71.2989 76.7562 71.3112 76.6069L71.4011 76.6004C71.4282 76.6227 71.4628 76.6513 71.5048 76.6862C72.58 76.7323 73.6803 76.7014 74.7587 76.6997C74.8007 76.6996 74.8816 76.677 74.9023 76.6705L74.9326 76.5659Z" fill="white"/>
<path d="M117.812 76.5659C117.925 76.6189 117.9 76.5896 117.948 76.6904L117.904 76.7751C117.635 76.8872 114.675 76.8803 114.289 76.8272C114.196 76.6903 114.204 76.7426 114.222 76.5987L114.316 76.6095C114.34 76.6294 114.37 76.6545 114.406 76.6849C115.462 76.7369 116.55 76.6974 117.611 76.7011C117.661 76.7012 117.755 76.6781 117.784 76.6702L117.812 76.5659Z" fill="white"/>
<path d="M76.8256 72.3985C76.8341 72.4063 76.9224 72.4878 76.9224 72.4878C76.9947 73.4928 76.9384 74.513 76.9532 75.5216C76.9559 75.7019 76.9862 75.9588 76.7995 76.0565C76.7708 75.4626 76.7569 72.8808 76.8256 72.3985Z" fill="white"/>
<path d="M80.1608 76.5986L80.2502 76.6073C80.2507 76.757 80.2725 76.7118 80.1661 76.8119C80.0134 76.8712 76.8123 76.8895 76.5367 76.7976L76.5191 76.7257L76.5654 76.7168C77.2405 76.6612 79.2968 76.7599 80.0656 76.6782C80.0656 76.6782 80.1496 76.6079 80.1608 76.5986Z" fill="white"/>
<path d="M74.7613 75.9565L74.6384 75.8513C74.6177 75.7279 74.607 75.6077 74.6081 75.4826C74.6171 74.4859 74.5751 73.4828 74.6299 72.4878C74.6299 72.4878 74.7246 72.3979 74.7337 72.389C74.8023 72.847 74.7885 75.3796 74.7613 75.9565Z" fill="white"/>
<path d="M104.672 72.1099L104.664 75.5945L104.575 75.5405C104.552 75.5025 104.524 75.4403 104.522 75.376C104.506 74.353 104.46 73.2583 104.549 72.2435C104.601 72.1875 104.642 72.143 104.672 72.1099Z" fill="white"/>
<path d="M129.333 75.0199C129.933 75.0166 132.32 74.9732 132.755 75.0375C132.781 75.0728 132.815 75.1096 132.817 75.1512C132.336 75.1783 130.014 75.2026 129.404 75.1003C129.404 75.1003 129.342 75.0309 129.333 75.0199Z" fill="white"/>
<path d="M44.7127 72.2545L44.7134 74.3547C44.7133 74.578 44.7278 75.2003 44.7031 75.3922L44.6159 75.378C44.5888 75.3348 44.5662 75.2792 44.565 75.2122C44.548 74.2922 44.4981 73.2965 44.5939 72.383C44.642 72.331 44.6816 72.2882 44.7127 72.2545Z" fill="white"/>
<path d="M31.1125 76.6723L31.2673 76.7305L31.2129 76.787C31.0046 76.8899 28.3845 76.863 28.0035 76.8328L27.9408 76.7607C28.4347 76.5877 30.5166 76.7969 31.1125 76.6723Z" fill="white"/>
<path d="M27.9408 74.6666L28.0034 74.5946C28.3835 74.5645 31.0052 74.5376 31.2116 74.64L31.2642 74.696L31.092 74.7296C30.5645 74.7153 28.2864 74.7878 27.9408 74.6666Z" fill="white"/>
<path d="M17.3091 76.7048H20.4524C20.4466 76.7692 20.437 76.7785 20.3904 76.8287C20.048 76.8634 17.6761 76.8752 17.3533 76.8222L17.3091 76.7048Z" fill="white"/>
<path d="M17.3091 74.7225L17.3533 74.6051C17.6761 74.5521 20.048 74.5639 20.3904 74.5986C20.437 74.6488 20.4466 74.6581 20.4524 74.7225H17.3091Z" fill="white"/>
<path d="M57.2674 72.1608L57.3063 72.0609C57.612 71.9877 60.199 71.9802 60.3321 72.0952L60.3429 72.163C59.6511 72.2092 57.9932 72.1837 57.2674 72.1608Z" fill="white"/>
<path d="M106.299 76.7094C107.234 76.6994 108.169 76.6993 109.104 76.7089L109.015 76.8127C108.475 76.9351 107.221 76.882 106.639 76.8463C106.458 76.8353 106.42 76.8351 106.299 76.7094Z" fill="white"/>
<path d="M117.49 69.0339L117.615 69.0614C117.687 69.2861 117.653 70.1796 117.65 70.4527C117.23 70.4671 114.796 70.5173 114.511 70.4427C114.781 70.3919 117.078 70.4173 117.49 70.4185V69.0339Z" fill="white"/>
<path d="M52.854 72.2619C52.9402 72.3278 52.9743 72.3347 52.9845 72.4476C53.0089 72.7181 53.0756 74.2757 52.9642 74.4254L52.914 74.4449C52.7899 74.1719 52.8485 72.6275 52.854 72.2619Z" fill="white"/>
<path d="M31.2642 74.696C31.2418 75.2623 31.2227 76.1722 31.2673 76.7305L31.1125 76.6723C31.0669 76.4643 31.0902 75.0394 31.092 74.7296L31.2642 74.696Z" fill="white"/>
<path d="M20.4524 74.7225L20.5827 74.7639C20.6298 75.015 20.6622 76.5237 20.5625 76.683L20.4524 76.7048V74.7225Z" fill="white"/>
<path d="M17.3091 76.7048L17.199 76.683C17.0993 76.5237 17.1317 75.015 17.1788 74.7639L17.3091 74.7225V76.7048Z" fill="white"/>
<path d="M128.122 73.8588L128.023 73.8368C127.923 73.6853 127.957 72.792 127.97 72.5728C127.983 72.3503 127.973 72.3661 128.124 72.2468C128.128 72.7666 128.145 73.3436 128.122 73.8588Z" fill="white"/>
<path d="M74.9374 72.1705L74.9725 72.0671C75.2412 71.9903 76.3542 71.9745 76.5984 72.0744L76.6223 72.1722L74.9374 72.1705Z" fill="white"/>
<path d="M65.2398 72.1588L65.2882 72.0516C65.5313 72.0045 66.5842 71.9711 66.7656 72.0732L66.7858 72.1628C66.2708 72.1709 65.7553 72.1695 65.2398 72.1588Z" fill="white"/>
</svg>
