<svg width="148" height="148" viewBox="0 0 148 148" fill="none" xmlns="http://www.w3.org/2000/svg">
<path d="M68.8531 56.0998C68.8938 56.1108 69.0298 56.1936 69.0755 56.2198C69.5403 57.7835 70.0166 61.5759 69.5663 63.1567C69.2674 64.2016 68.6859 65.1438 67.8859 65.8794C66.6496 66.997 65.0423 67.5557 63.5995 68.3032C61.103 69.5963 58.3239 70.6537 55.9053 72.0259C56.0508 73.1289 56.014 74.4426 56.0354 75.5715L56.1407 82.4446L56.3568 93.7412C56.3993 97.4123 56.9885 101.014 54.4632 104.003C52.1686 106.719 49.3159 106.512 46.3906 107.96L46.1885 95.1216L46.0788 82.1272C46.0783 81.6115 46.1346 76.989 46.0729 76.7657C45.2426 76.7467 38.2574 80.4181 36.7213 80.9678C34.9738 77.466 35.9473 73.3893 39.3373 71.2748C41.5981 69.8647 44.1849 68.7281 46.5681 67.4954L63.1321 59.0065C64.9596 58.0637 67.0973 57.0701 68.8531 56.0998Z" fill="white"/>
<path d="M82.6327 63.2005C83.489 63.222 83.314 66.8753 83.438 67.7031C84.0595 71.8503 83.9748 75.9718 84.049 80.1294C84.1693 86.8738 83.3584 94.6139 76.7136 98.177C61.7009 105.699 57.303 92.1965 58.8736 79.6778C58.9426 78.6899 58.9847 77.7159 59.3264 76.7779C60.1875 74.4138 62.7372 73.1885 64.9642 72.4357C65.94 72.1058 66.5278 72.0713 67.5168 71.6088C67.52 73.4957 67.297 74.8486 67.1418 76.7646C66.7918 81.0862 66.4766 86.3452 67.9895 90.4834C68.1168 90.8314 68.7816 91.8328 69.004 92.17C69.441 92.4117 70.0353 92.6642 70.4985 92.8768C71.1299 92.7616 71.7357 92.6448 72.303 92.3708C73.1626 91.9555 74.0885 90.3684 74.3035 89.4045C75.4873 84.0977 74.6166 78.5044 74.3711 73.1411C74.2986 71.5575 73.8173 69.9935 74.3053 68.476C74.9086 66.6004 77.6751 65.0942 79.3928 64.4247C80.4565 64.0101 81.6396 63.7293 82.6327 63.2005Z" fill="white"/>
<path d="M102.883 57.3792L102.934 57.3738C104.289 57.2352 104.601 57.2509 105.964 57.5094C105.835 65.1219 102.296 62.9175 98.2192 67.1695C96.1386 69.3552 94.8671 72.9476 95.0109 75.9263C95.1795 79.4184 97.1894 83.3617 101.22 83.0212C104.71 82.7264 106.874 80.3461 109.032 77.9308L109.183 78.155C110.122 79.5611 111.581 81.6963 111.163 83.4253C110.692 85.3745 108.735 87.1683 107.134 88.2107C105.707 89.6059 101.565 90.9048 99.586 91.1236C91.7668 91.988 87.053 86.9882 86.2016 79.3914C85.0314 68.9488 91.8495 58.2404 102.883 57.3792Z" fill="white"/>
<path d="M92.4576 28.5085C92.8586 28.4482 93.3625 28.5044 93.7794 28.494C95.5453 28.4501 97.2259 28.3566 98.7881 29.3412C99.6201 29.8656 100.314 30.6207 100.529 31.6039C101.449 35.818 94.4001 47.5873 92.1199 51.2259C91.5807 52.0888 89.6248 55.2939 89.0227 55.8078L88.8781 55.7144C88.6996 55.1388 89.327 45.5321 89.3714 44.0092C89.4712 40.8375 89.4693 37.6632 89.3655 34.4916C89.2961 32.8694 89.0247 30.9511 89.04 29.39C90.168 29.0485 91.2887 28.6287 92.4576 28.5085Z" fill="white"/>
<path d="M83.5158 38.2178L83.6877 38.258C84.0144 38.571 83.8924 39.1335 83.9066 39.5508C84.0223 42.9499 83.9117 46.522 84.265 49.8967C84.5914 53.0143 85.2473 56.0517 85.5099 59.1806C84.6182 57.9551 83.5805 56.232 82.7729 54.9182C80.9941 51.5091 78.5619 48.3318 77.2608 44.6139C75.6402 39.9832 80.3819 39.2761 83.5158 38.2178Z" fill="white"/>
<path d="M101.011 37.943L101.278 37.8632C101.541 38.2824 101.469 38.2726 101.928 38.4772C102.248 38.6535 102.838 39.002 103.159 39.1101C103.302 39.1638 103.51 39.2351 103.638 39.3038C104.353 39.7822 104.706 39.9651 105.488 40.3314L105.966 40.5068C106.613 40.8887 107.22 41.2748 107.924 41.5389L108.586 41.8555C109.536 42.4105 109.889 42.5807 110.895 43.0062C113.284 44.4487 115.239 44.4611 116.187 47.4102C116.645 48.8359 117.111 50.318 117.558 51.7507L120.092 59.7123L122.979 68.6481C123.402 69.9682 123.912 71.403 124.297 72.7243C124.678 74.0328 125.4 78.6554 126 79.584V81.2722C124.564 84.1174 123.181 86.9151 121.935 89.853C121.423 91.0599 120.45 92.3376 119.891 93.5473C119.246 94.7128 118.67 96.6303 117.714 97.5133C116.901 98.2648 114.591 98.9544 113.511 99.314C110.344 100.368 107.168 101.368 103.982 102.355C103.201 102.615 102.355 103.362 101.571 103.424C101.397 103.382 101.153 103.325 100.974 103.365C98.632 103.883 96.3681 104.82 94.0781 105.48C92.9427 105.808 91.1932 106.585 90.1372 106.721C89.5785 106.883 89.1077 107.059 88.5652 107.262C87.3448 107.746 85.932 108.065 84.6613 108.489C81.9942 109.379 79.3048 110.208 76.6483 111.129C75.5862 111.497 74.1957 111.609 73.1063 112.206C72.0155 112.576 70.9211 112.734 69.9347 113.23C68.9898 113.532 68.2244 113.791 67.2415 113.969C66.4838 114.276 66.1053 114.367 65.5751 114.997C64.933 114.879 64.2543 114.777 63.6454 115.143C62.9068 115.399 62.2214 115.568 61.8113 116.259C61.2356 116.007 60.5419 116.066 59.9935 116.343C59.5019 116.516 59.045 116.742 58.6173 116.892C58.437 117.012 58.0597 117.301 57.8716 117.315C57.335 117.29 56.5452 117.178 56.117 117.482C55.532 117.758 54.6317 118.007 53.9901 118.204C53.5996 118.218 53.5358 118.216 53.1811 118.381C52.5617 118.635 51.5308 119.184 50.957 119.249L50.3499 119.1C49.0099 118.492 46.9598 117.395 45.773 116.921C44.6666 116.225 43.4918 115.837 42.1576 114.996L41.0674 114.561C39.9081 113.756 36.5469 112.164 35.0921 111.403C34.1925 111.054 33.6853 110.312 33.2297 109.516C33.1187 109.057 32.5353 107.535 32.3375 107.088C32.1743 106.77 32.0915 106.434 31.9912 106.09C31.8637 105.41 31.7825 104.8 31.4955 104.169L31.2003 103.439C31.0988 103.207 30.7136 101.603 30.6043 101.214C29.6285 99.0792 28.9625 96.2292 28.2563 93.9483C28.0419 93.256 27.7237 92.7186 27.4757 91.8728C27.2812 90.5845 26.7226 89.3774 26.2673 88.1466L26.2762 88.0374C26.2372 87.889 26.1611 87.7369 26.0978 87.5953C25.9513 86.7777 25.809 86.1731 25.4095 85.4323C25.3993 85.2823 24.7466 84.5779 24.7489 84.4517C24.759 83.8819 24.8887 83.4837 24.7438 82.8856C24.5802 82.2108 24.1546 81.629 23.5612 81.2687C23.555 81.1849 23.4057 80.7767 23.3575 80.6896C22.8018 79.6873 22.5753 77.3243 22 76.5017V74.9899C22.2346 74.7127 22.3925 74.1337 22.5161 73.7703C22.8132 73.5029 22.7812 73.5323 23.1138 73.5385L23.2281 73.426C23.6809 72.9437 25.8985 68.1266 26.2918 67.2622C26.8565 66.3936 27.1983 65.5308 27.7133 64.6298C28.3534 63.7012 29.8304 60.531 30.2064 59.4281C29.6634 60.153 27.7975 63.9218 27.5617 64.0587L27.4156 63.8947C28.0249 62.5968 29.237 59.2532 30.3021 58.413C33.297 56.1412 37.4669 55.4848 40.9347 54.21C43.7326 53.1815 46.171 52.437 49.0506 51.7444C51.4611 50.8622 53.9744 50.3996 56.4038 49.6604C59.4787 48.7247 62.7816 47.513 65.8911 46.6597C69.3349 45.7149 71.8145 45.5752 75.0918 43.8595C75.6173 44.9238 75.8108 45.9418 76.3098 46.8961C75.4647 47.2519 73.835 47.6961 72.8821 47.9937L66.4848 50.0265L51.4882 54.7717C49.2614 55.4776 46.9579 56.2775 44.7325 56.9618L38.0603 59.0187C37.219 59.2805 33.4571 60.353 33.0287 60.9963C31.0568 63.9565 29.7025 67.2889 27.9541 70.4477C27.235 71.747 25.6721 74.3311 25.6729 75.9607C25.9402 77.3236 26.7779 79.4344 27.2142 80.8082L30.8626 92.2367L34.107 102.514C34.5374 103.871 35.4968 107.93 36.6902 108.575C39.6809 110.192 42.7812 111.721 45.7959 113.315C47.3915 114.158 49.0741 115.111 50.7783 115.694C52.1192 115.213 53.8297 114.725 55.2139 114.286L64.0049 111.483L100.464 99.9077C105.265 98.3424 110.174 96.8986 114.939 95.2534C116.009 94.8837 118.968 88.5915 119.605 87.3703C120.192 86.2464 122.958 81.3225 122.917 80.4681C122.833 78.697 121.54 75.2508 120.954 73.4042L117.451 62.4065L114.415 52.7813C113.983 51.4282 113.618 49.9963 113.1 48.6788C112.98 48.3737 112.78 48.1124 112.564 47.8679C110.905 45.9833 100.422 41.7596 100.026 40.8109C99.8374 40.3582 100.783 38.4697 101.011 37.943Z" fill="white"/>
<path d="M56.117 117.482C56.5452 117.178 57.335 117.29 57.8716 117.315C57.2267 117.461 56.9748 117.813 56.4498 118.05C55.4534 118.5 52.7531 119.777 51.7518 119.489C52.1248 119.148 52.8723 118.999 53.4167 118.631L53.4359 118.478L53.1811 118.381C53.5358 118.216 53.5996 118.218 53.9901 118.204C54.4415 118.537 55.8587 118.08 56.1746 117.708L56.117 117.482Z" fill="white"/>
<path d="M25.9674 66.7404L26.1591 66.743C26.2109 66.9236 26.2512 67.0788 26.2918 67.2622C25.8985 68.1266 23.6809 72.9437 23.2281 73.426C23.1306 73.0998 23.3571 72.712 23.4628 72.2406C23.8854 71.283 24.3697 70.3537 24.9127 69.4587C25.0549 68.9313 25.2685 68.5146 25.499 68.0239C25.8554 67.5354 26.1013 67.3433 25.9674 66.7404Z" fill="white"/>
<path d="M25.8521 66.7852C25.9314 66.0816 26.875 65.4474 27.3013 64.0484C27.4209 64.337 27.5064 64.409 27.7133 64.6298C27.1983 65.5308 26.8565 66.3936 26.2918 67.2622C26.2512 67.0788 26.2109 66.9236 26.1591 66.743L25.9674 66.7404L25.8521 66.7852Z" fill="white"/>
<path d="M27.4156 63.8947L27.5617 64.0587C27.7975 63.9218 29.6634 60.153 30.2064 59.4281C29.8304 60.531 28.3534 63.7012 27.7133 64.6298C27.5064 64.409 27.4209 64.337 27.3013 64.0484L27.4156 63.8947Z" fill="white"/>
<path d="M63.6454 115.143C64.2543 114.777 64.933 114.879 65.5751 114.997L65.3345 115.284C64.5508 115.662 63.729 115.864 62.9431 116.197L62.7042 116.093L62.6945 115.964C63.0297 115.589 63.5816 115.639 64.0241 115.301L63.9604 115.174L63.6454 115.143Z" fill="white"/>
<path d="M59.9935 116.343C60.5419 116.066 61.2356 116.007 61.8113 116.259L61.2316 116.717C60.5061 116.779 60.1118 117.181 59.4343 117.163C59.4707 116.768 59.8609 116.724 60.2092 116.576L60.2446 116.432L59.9935 116.343Z" fill="white"/>
<path d="M24.7098 69.1112L24.9127 69.4587C24.3697 70.3537 23.8854 71.283 23.4628 72.2406C23.3585 72.1303 23.2993 71.9797 23.2316 71.8407C23.7151 70.7436 24.0436 70.1084 24.7098 69.1112Z" fill="white"/>
<path d="M63.6454 115.143L63.9604 115.174L64.0241 115.301C63.5816 115.639 63.0297 115.589 62.6945 115.964L62.7042 116.093L62.9431 116.197C62.3147 116.363 61.8439 116.494 61.2316 116.717L61.8113 116.259C62.2214 115.568 62.9068 115.399 63.6454 115.143Z" fill="white"/>
<path d="M53.1811 118.381L53.4359 118.478L53.4167 118.631C52.8723 118.999 52.1248 119.148 51.7518 119.489C51.3842 119.422 51.3016 119.411 50.957 119.249C51.5308 119.184 52.5617 118.635 53.1811 118.381Z" fill="white"/>
<path d="M22.5161 73.7703C22.5549 73.5662 23.1221 72.1333 23.2316 71.8407C23.2993 71.9797 23.3585 72.1303 23.4628 72.2406C23.3571 72.712 23.1306 73.0998 23.2281 73.426L23.1138 73.5385C22.7812 73.5323 22.8132 73.5029 22.5161 73.7703Z" fill="white"/>
<path d="M56.117 117.482L56.1746 117.708C55.8587 118.08 54.4415 118.537 53.9901 118.204C54.6317 118.007 55.532 117.758 56.117 117.482Z" fill="white"/>
<path d="M26.0978 87.5953C25.9513 86.7777 25.809 86.1731 25.4095 85.4323C25.2793 86.0361 25.5653 87.2301 26.0978 87.5953Z" fill="white"/>
<path d="M59.9935 116.343L60.2446 116.432L60.2092 116.576C59.8609 116.724 59.4707 116.768 59.4343 117.163C59.1253 117.037 58.9386 116.981 58.6173 116.892C59.045 116.742 59.5019 116.516 59.9935 116.343Z" fill="white"/>
<path d="M25.2894 67.8625L25.499 68.0239C25.2685 68.5146 25.0549 68.9313 24.9127 69.4587L24.7098 69.1112C24.8521 68.9362 25.1327 68.1774 25.2894 67.8625Z" fill="white"/>
<path d="M25.9674 66.7404C26.1013 67.3433 25.8554 67.5354 25.499 68.0239L25.2894 67.8625L25.8521 66.7852L25.9674 66.7404Z" fill="white"/>
</svg>
