<svg width="148" height="148" viewBox="0 0 148 148" fill="none" xmlns="http://www.w3.org/2000/svg">
<path d="M70.5003 21.1177C99.7044 19.1849 124.946 41.2913 126.882 70.4954C128.817 99.6993 106.713 124.944 77.5093 126.882C48.3016 128.82 23.0536 106.712 21.118 77.5042C19.1824 48.2967 41.2923 23.0507 70.5003 21.1177ZM125.762 72.7604C125.076 44.1722 101.344 21.5531 72.7557 22.241C44.1713 22.9289 21.5557 46.6573 22.2409 75.2418C22.926 103.826 46.6524 126.444 75.2371 125.762C103.826 125.08 126.447 101.349 125.762 72.7604ZM109.82 53.0134C110.074 53.1858 110.551 54.1812 110.731 54.5232C112.715 58.2485 114.125 62.2516 114.915 66.3973C116.918 77.2066 114.58 88.3695 108.409 97.4667C102.199 106.605 92.6155 112.904 81.7637 114.981C74.6219 116.316 67.256 115.773 60.3871 113.405C59.3523 113.037 57.7678 112.458 56.8458 111.92C57.8129 111.603 58.765 110.99 59.7647 110.667C60.527 110.879 61.3391 111.203 62.1046 111.45C63.3983 111.869 64.7133 112.218 66.0439 112.497C75.3448 114.411 85.024 112.893 93.2923 108.224C102.394 103.083 109.063 94.5193 111.819 84.4365C112.332 82.5813 112.715 80.8023 112.899 78.8877C112.943 78.4374 113.049 77.8281 113.07 77.3935C113.409 75.7899 113.485 72.1482 113.013 70.5924C112.874 66.8304 111.595 62.4152 110.189 58.928C109.804 57.9701 108.93 56.4194 108.695 55.6125L108.713 55.5339C108.822 55.0633 109.458 53.2373 109.82 53.0134ZM52.9785 83.6967C53.1127 86.5556 53.0137 90.1879 53.0133 93.0881L53.0158 110.561C53.5339 110.382 55.4978 109.428 55.7325 109.524C55.7567 109.665 55.7521 109.697 55.6602 109.822C55.356 110.235 50.3874 112.455 49.6414 112.751C49.1965 112.938 47.1668 114.021 46.8729 113.867L46.8588 113.737C47.0959 113.201 48.5296 112.71 49.1175 112.444C49.2462 112.373 49.4501 112.3 49.4558 112.167C49.477 111.674 49.468 111.038 49.4663 110.554L49.4565 106.027L49.4572 94.6347C49.4579 92.8261 49.5399 90.0377 49.3991 88.2809C48.4011 88.79 47.5202 89.1522 46.5056 89.7027C46.8483 89.2705 48.6385 87.6133 49.1471 87.1712C50.256 86.2083 51.8576 84.5407 52.9785 83.6967ZM67.2453 77.6219C68.2626 77.4681 69.5876 77.7437 70.3395 78.5009C71.3053 79.4737 71.1949 81.591 70.8328 82.8358C69.983 85.757 67.6964 88.0805 65.5809 90.1757C67.0279 90.6562 68.5665 91.0897 69.8545 91.9156C73.1861 94.0534 72.1694 98.6457 70.2185 101.385C68.0333 104.451 64.5884 107.002 60.8351 107.693C60.5287 107.742 60.2194 107.769 59.9093 107.775C58.9176 107.802 57.6908 107.538 57.0114 106.8C53.5785 103.071 58.6383 96.5191 61.2519 93.9299C59.0318 92.5022 56.4865 92.5353 56.1531 89.2001C55.6019 83.6857 62.1909 78.138 67.2453 77.6219ZM62.3556 94.1762C60.3946 96.3122 58.8594 99.4274 59.0521 102.385C59.3032 106.241 61.6699 106.785 64.7894 105.305C66.6469 104.225 67.9743 102.761 68.5902 100.651C68.9226 99.5118 69.0071 97.8826 68.3803 96.826C67.596 95.5032 65.9314 94.9381 64.512 94.6107C64.1335 94.5233 62.7012 94.1634 62.3556 94.1762ZM37.6388 88.9706C37.846 89.2001 38.8671 91.5171 39.126 92.0152C39.7391 93.2017 40.4085 94.3586 41.1319 95.4816C42.3199 97.3345 43.7108 99.0277 45.1737 100.667C45.7836 101.351 46.6399 102.062 47.1412 102.784C47.1269 103.786 47.1282 104.788 47.145 105.79C46.7004 105.483 46.4047 105.215 46.0038 104.859C42.3482 101.426 39.5088 97.8895 37.164 93.4236C36.5689 92.2901 36.072 91.1816 35.5351 90.0219C36.1416 89.5879 36.9475 89.27 37.6388 88.9706ZM85.4521 69.2635C87.6125 69.1172 89.0985 70.0123 89.1422 72.3344C89.2167 76.3218 86.2187 79.2057 83.647 81.8379C84.7904 82.1332 86.8285 82.8906 87.8053 83.4975C88.8357 84.1301 89.752 85.2746 89.9663 86.4873C91.0154 92.4159 84.4123 98.2711 79.0948 99.3102C77.6485 99.563 76.0798 99.4891 74.9859 98.3731C74.2036 97.5739 73.902 96.357 73.9358 95.2631C74.022 92.4532 75.6878 89.9916 77.3543 87.8452C77.9409 87.0926 78.6276 86.2503 79.3103 85.5985C77.6601 84.5081 75.2254 84.194 74.5066 82.0959C72.5108 76.2693 79.9773 69.8673 85.1317 69.2893C85.2383 69.2794 85.3449 69.2709 85.4521 69.2635ZM80.5878 85.8042C79.5888 86.3709 78.4506 88.5454 77.9911 89.5752C76.1865 93.62 76.8006 99.8328 82.7541 96.9914C84.6029 96.0449 85.9916 94.3918 86.6055 92.4072C86.9585 91.2732 87.1099 89.7074 86.514 88.6316C85.3607 86.5521 82.6399 86.3453 80.5878 85.8042ZM102.598 61.3706C104.633 61.1828 106.641 62.5612 106.879 64.6252C107.59 70.961 102.733 76.7434 99.49 81.758C97.9936 84.0722 96.3312 86.549 94.7446 88.8003C95.4249 88.5988 97.7659 87.4652 98.5272 87.1123L103.618 84.7667C105.07 84.0892 106.649 83.3179 108.138 82.7389C107.778 83.6995 107.484 84.6671 107.16 85.6369C107.062 85.8815 106.93 86.2315 106.697 86.3842C106.158 86.7383 105.511 87.0016 104.927 87.2719L102.17 88.5493L91.4745 93.4719C90.9933 93.6664 90.5285 93.8867 90.0579 94.1051C90.5693 93.4888 91.1308 92.6185 91.5816 91.9446L93.6914 88.7917C97.1328 83.6972 101.922 77.3131 103.226 71.2226C103.501 69.9362 103.576 67.5346 102.737 66.402C102.301 65.8233 101.65 65.4441 100.931 65.3495C97.3407 64.848 93.6832 68.4713 92.5235 71.5077C92.0359 72.7849 91.9136 73.5071 90.7627 74.3604C91.2736 68.6109 96.5875 61.7843 102.598 61.3706ZM68.2236 81.8339C68.1401 80.0807 67.1795 79.0158 65.3639 79.247C60.1861 80.0252 55.8993 87.5643 62.4641 89.592C63.12 89.779 63.7299 89.8874 64.3525 90.0587C66.4477 87.734 68.3806 85.1325 68.2236 81.8339ZM39.1833 63.7666C39.1316 68.2279 39.1777 72.7651 39.1789 77.2304L39.1754 81.1769C39.1694 82.6028 39.2937 85.2735 38.0041 86.1443C37.104 86.7524 35.1837 87.6214 34.1414 88.0391C33.6044 87.0634 32.6049 84.4878 32.1252 83.3379L28.3428 74.293C27.6981 72.7238 26.9721 71.1339 26.402 69.5451C27.5667 68.9022 29.3449 68.1354 30.5881 67.5756C32.1262 71.4738 33.5603 75.7155 34.9775 79.6845C35.108 78.314 35.02 76.6404 35.0469 75.2448C35.1081 72.0636 34.9577 68.7277 35.0519 65.5582C35.8809 65.0976 38.2506 63.9963 39.1293 63.6842L39.1833 63.7666ZM47.5463 66.707C47.5327 67.6955 47.5295 68.6842 47.5365 69.6727C46.3916 70.252 44.7755 70.9858 43.7034 71.6016C43.7056 72.6054 43.6882 73.672 43.7543 74.668C44.5361 74.2742 46.3965 73.2905 47.1395 73.0831L47.1402 75.9576C46.0056 76.5855 44.8384 77.1431 43.7009 77.7675C43.6806 78.6074 43.6744 79.5737 43.7278 80.4136C44.6643 79.9453 46.5964 78.9545 47.5606 78.6522L47.5291 81.75C46.4229 82.2818 45.311 82.8024 44.1938 83.3109C42.8786 83.925 40.8193 85.404 40.4205 83.2114L40.4028 83.1042C40.4406 82.8322 40.421 81.786 40.4433 81.3829C40.5946 78.0668 40.5838 74.7449 40.411 71.4295C40.6076 70.2985 41.1816 69.5459 42.2357 69.1007C43.9282 68.3859 45.8146 67.2602 47.5463 66.707ZM83.7745 70.8623C81.7469 71.0517 80.0605 72.0449 78.7884 73.6034C76.5284 76.3731 76.4737 79.9356 80.2901 81.1745C81.0082 81.3953 81.6665 81.5118 82.3404 81.7116C83.8922 80.3014 85.2499 78.2341 85.9146 76.2519C86.5664 74.3087 86.7208 70.8792 83.8439 70.8623H83.7745ZM54.3527 63.9056C55.0977 63.9283 55.8026 64.2481 56.3104 64.7936C57.0742 65.6199 57.3151 66.8511 57.2573 67.9442C57.1765 69.4748 56.4009 70.5688 55.1717 71.4182C55.5356 71.9301 56.1934 72.4244 56.6194 72.9137C57.5393 73.9692 58.1984 75.2384 58.7517 76.5158C57.764 77.0389 56.7052 77.4029 55.7222 77.9709C54.6257 75.8378 54.0258 74.6606 52.1128 73.078C51.9869 75.1766 52.1459 77.5165 52.0759 79.6298C51.4855 79.9007 49.2966 80.9939 48.8396 81.0376C48.7577 80.9473 48.7817 81.0009 48.7722 80.8745C48.8229 80.5646 48.7899 80.1692 48.8076 79.843C48.9944 76.4104 48.9225 72.9555 48.8976 69.5183C48.8909 68.5892 48.7796 67.6365 48.7577 66.6949C48.7684 66.425 48.7682 66.2244 48.9719 66.022C49.2838 65.7124 52.6234 64.2527 53.1631 64.083C53.5512 63.961 53.9441 63.891 54.3527 63.9056ZM66.2035 57.9882C66.2927 58.233 66.2376 60.6864 66.2356 61.1245C64.3576 61.9936 62.6492 62.5518 61.6505 64.4961C61.4159 64.9524 61.2465 65.4394 61.1474 65.9428C60.9425 66.9782 60.8942 69.3296 61.1507 70.3844C61.428 71.5247 62.7217 71.3123 63.6103 70.9351C63.6539 70.1915 63.6296 69.2241 63.6301 68.4628C63.1219 68.6405 62.6601 68.8076 62.1595 69.0104C62.1254 68.1861 62.1329 67.3605 62.1818 66.5369C62.964 66.1582 65.4232 65.1919 66.239 64.9527L66.233 69.2399L66.2376 72.9987C65.2118 73.4502 64.1646 74.0372 63.1228 74.4147C61.0671 75.1603 58.8776 74.0542 58.1921 72.0117C58.072 71.643 57.9973 71.2609 57.9698 70.8742C57.9305 70.3698 57.9529 69.858 57.9555 69.3535C57.9666 67.1779 57.7955 65.5742 58.8442 63.5588C60.0819 61.1801 61.7033 59.8024 64.1721 58.8203C64.8375 58.5556 65.435 58.1972 66.1349 57.9694L66.2035 57.9882ZM76.6602 53.0903C76.7691 53.2246 76.7265 66.7957 76.7306 68.1018C75.971 68.5468 74.3774 69.2273 73.5159 69.6426C73.4606 67.955 73.5036 66.2663 73.4919 64.5783C73.4896 64.1863 73.4867 63.7919 73.4372 63.4025C73.3912 63.0379 73.2927 62.6819 73.1436 62.3459C72.6904 61.3209 71.9061 60.4995 70.8564 60.09C70.8896 62.6652 70.8734 65.2649 70.8747 67.8419L70.8879 70.8542C70.0895 71.2472 68.3145 72.0892 67.5451 72.3495C67.4628 68.3842 67.5823 64.3944 67.5298 60.4268C67.5162 59.4078 67.5047 58.3578 67.5391 57.3421C67.8461 57.1473 68.207 56.9987 68.5241 56.8287C70.8411 55.5871 71.9351 56.4112 73.4809 58.1486C73.4588 56.9449 73.4565 55.7407 73.4728 54.5369C74.5282 54.0394 75.5907 53.5571 76.6602 53.0903ZM53.6512 66.7102C53.0192 66.9082 52.5986 67.1674 52.0161 67.4776C52.0079 68.5221 51.9664 70.2133 52.0842 71.2331C52.298 71.0853 52.4986 70.9544 52.6951 70.7833C53.6317 69.9008 54.47 68.9278 54.6262 67.6017C54.4241 67.1839 54.1882 66.7059 53.6512 66.7102ZM86.4459 48.5429C86.545 48.7213 86.5 62.2799 86.5 63.6C85.3619 64.081 84.2778 64.6515 83.1426 65.1292C83.0983 64.0913 83.1286 62.9062 83.1321 61.8577C82.4547 62.1477 81.7167 62.5164 81.0451 62.8366C81.0119 63.8748 81.0404 65.0644 81.041 66.1132L80.3741 66.4309C79.6093 66.7938 78.7548 67.2217 77.9731 67.5159C77.9195 65.3863 77.9619 63.205 77.9514 61.0694C77.9736 59.5249 77.8805 57.9866 78.0337 56.4472C78.181 54.9603 78.7652 53.7366 79.7152 52.5928C80.9076 51.1574 82.5048 50.3339 84.1661 49.5711C84.9256 49.2226 85.6648 48.8349 86.4459 48.5429ZM71.7636 32.5384C73.245 32.46 74.8416 32.503 76.3321 32.5255L76.3583 34.9586C69.4038 34.6559 63.4008 35.687 57.0749 38.6987C49.3968 42.3817 43.1191 48.454 39.1824 56.0052C38.1142 58.0655 37.5319 59.579 36.7714 61.7174C36.3424 62.6879 34.8208 63.0464 33.7849 63.5573C35.1098 57.7201 38.4787 51.5961 42.3463 47.0657C48.7375 39.5714 57.5799 34.587 67.3006 32.9993C68.7341 32.7606 70.3105 32.6536 71.7636 32.5384ZM96.7477 43.756C96.8269 43.7611 96.785 43.7484 96.8648 43.8166C96.9166 44.4467 96.866 45.5336 96.8671 46.2183L96.8725 56.1191C96.873 56.8348 96.9067 58.0971 96.8408 58.767C96.0242 59.1751 94.5041 59.9186 93.6758 60.2181L93.6809 56.5181C93.6903 53.6633 93.8154 52.2199 91.0707 50.6014C91.0468 53.1833 91.0416 55.7654 91.0556 58.3473L91.0546 61.4322C90.1477 61.8968 88.6604 62.6323 87.7249 62.9437L87.7214 47.9697C88.2492 47.6251 88.872 47.3386 89.4458 47.0757C91.3248 46.2147 92.516 47.4173 93.6681 48.7426C93.6576 47.5494 93.6541 46.3562 93.6581 45.163C94.6699 44.6558 95.7004 44.1864 96.7477 43.756ZM54.0923 44.5305C54.2303 44.8021 54.1747 47.514 54.174 48.0027C54.1509 48.0111 54.1278 48.0198 54.1049 48.0288C51.9482 48.8605 50.4737 49.9246 49.5237 52.1357C48.9708 53.4228 47.6997 58.1444 49.4964 58.9816C50.443 59.4225 53.0654 57.9487 54.1191 57.4934C54.2178 58.3952 54.1757 60.0143 54.1771 60.9665C53.5755 61.284 52.7455 61.6414 52.1148 61.9346C50.7182 62.6179 49.3546 63.0572 47.8372 62.3871C46.8274 61.9416 46.036 61.1131 45.6372 60.084C44.8322 58.0011 45.5812 53.4898 46.5226 51.48C48.1315 48.0451 50.5093 45.8594 54.0212 44.5082L54.0923 44.5305ZM62.4047 45.267C62.4925 45.2819 62.4461 45.2648 62.5363 45.336C62.5885 46.5933 62.531 48.0614 62.5278 49.3414L62.5262 57.0492C61.6693 57.5034 60.6092 57.9672 59.7226 58.367L59.694 55.6234C59.0178 55.9338 58.5474 56.1542 57.9011 56.5163L57.9089 59.1936L57.4489 59.4264C56.7417 59.7614 56.0791 60.0737 55.3568 60.3749C55.2926 58.5935 55.374 56.7653 55.3395 54.9802C55.3055 53.2221 55.3186 51.6523 56.1376 50.0539C57.145 48.0881 58.7286 46.8289 60.7404 45.9856C61.2951 45.751 61.8147 45.4622 62.4047 45.267ZM82.9825 53.37C81.1622 54.4701 80.9641 55.9958 81.0713 57.9624C81.0864 58.2307 81.0405 59.0181 81.1733 59.2072C81.627 58.9949 82.5962 58.5157 83.0296 58.375C83.1251 57.0623 83.0878 54.7995 83.0669 53.4228C82.9982 53.3665 83.0307 53.3721 82.9825 53.37ZM69.2025 42.14C69.3139 42.3714 69.2586 44.4421 69.2554 44.8577C67.8575 45.6915 66.6199 45.5584 66.5192 47.5655C67.2152 47.2647 68.2201 46.787 68.9137 46.6007C68.8792 47.5115 68.8663 48.4229 68.8753 49.3342C68.0491 49.7293 67.3414 49.978 66.531 50.4683C66.5046 51.9441 66.5198 53.4426 66.5024 54.9198C66.4997 55.1488 66.4578 55.1687 66.3285 55.2788C65.6561 55.6367 64.5568 56.0983 63.8451 56.4249C63.8114 53.8769 63.8604 51.3136 63.8379 48.7642C63.8269 47.5059 63.7257 46.4194 64.2903 45.2586C64.9434 43.916 66.1156 43.4605 67.4044 42.8744C67.9968 42.6056 68.5346 42.3279 69.1492 42.1264L69.2025 42.14ZM102.772 40.3819C105.715 40.1771 107.359 42.1384 108.083 44.8176C109.139 48.7265 107.934 54.7298 103.484 55.9012C96.5893 56.7261 95.7185 42.2372 102.772 40.3819ZM59.6137 49.3331C58.7736 49.9435 58.1208 50.6078 57.9533 51.6973C57.8962 52.0686 57.8749 53.9003 57.952 54.2285C58.0424 54.2578 58.0089 54.266 58.0537 54.2496C58.5812 54.029 59.2493 53.7551 59.7472 53.4867C59.7749 52.9078 59.8152 49.7795 59.69 49.364L59.6137 49.3331ZM75.6215 39.0343C75.6477 39.9814 75.6588 40.9287 75.6541 41.8761C74.0284 42.6149 73.1238 42.6164 72.8232 44.5686C73.5583 44.2585 74.5148 43.7891 75.2126 43.524C75.2388 44.3154 75.2789 45.5232 75.2166 46.3043C74.4553 46.6726 73.6713 47.0498 72.8838 47.3604C72.8588 48.8986 72.9141 50.6421 72.8617 52.128C72.2552 52.5104 70.9106 53.1155 70.2438 53.3331C70.0558 52.7325 70.4089 50.7257 70.3398 50.0056C70.1625 48.1574 70.2072 46.3107 70.1964 44.4623L70.1935 44.0925L70.207 43.9158C70.3708 42.1105 71.2436 40.9624 72.9199 40.2564C73.8181 39.8781 74.7128 39.4037 75.6215 39.0343ZM103.796 44.0883C103.459 43.8733 103.258 43.8961 102.867 43.9401C100.609 45.4293 100.549 49.4756 101.812 51.6431C102.154 52.2299 102.694 52.5532 103.371 52.4151C105.678 51.5143 105.955 45.4631 103.796 44.0883ZM78.6977 32.748C79.9902 32.8667 81.0475 33.0544 82.3313 33.2883C82.3458 34.8228 82.3522 36.7652 82.3161 38.2844C81.5828 38.7721 80.2232 39.2767 79.3093 39.8064C79.2924 40.3473 79.2976 40.9227 79.2935 41.4666C80.1154 41.208 80.9332 40.6821 81.7341 40.4934L81.7311 43.048C80.925 43.4379 80.1148 43.8197 79.3012 44.1934L79.2883 46.2399C80.3082 45.9329 81.2874 45.3923 82.3189 45.0197C82.3329 45.816 82.351 46.635 82.3352 47.4327C82.3312 47.6436 82.2945 47.656 82.1745 47.763C81.3724 48.191 77.9981 49.8971 77.2979 49.9197C77.1115 49.9257 76.9402 49.8407 76.8149 49.707C76.6787 49.5623 76.6187 49.397 76.5896 49.2039C76.3881 47.873 76.5097 46.3979 76.5155 45.0471C76.5225 43.3289 76.4743 41.594 76.5546 39.8785C76.5715 39.5194 76.5733 39.1649 76.7655 38.8489C77.3229 37.9323 79.9249 36.9376 80.9524 36.5112C81.2809 36.3748 81.7627 36.2474 82.0102 35.9924C82.0789 35.9216 82.0556 35.9389 82.0433 35.8295C81.5097 35.4623 79.3181 35.2122 78.6686 35.1776C78.6424 34.3438 78.6674 33.5805 78.6977 32.748ZM84.6868 33.8868C85.5291 34.0422 86.5438 34.3935 87.3616 34.6703C91.2124 35.9607 94.8442 37.8309 98.1311 40.2163C97.8801 40.3578 97.6423 40.4683 97.3826 40.5918C96.7861 40.8845 96.2649 41.1353 95.6259 41.3224C94.874 40.964 93.8598 40.2201 93.046 39.7839C90.6485 38.4983 87.3068 36.9579 84.6547 36.3341C84.6198 35.5574 84.6513 34.6617 84.6868 33.8868ZM105.577 38.4793C105.618 38.5217 105.729 38.6296 105.759 38.6704C105.722 39.0289 105.665 39.6258 106.02 39.8487C106.329 39.7203 106.212 39.0887 106.19 38.8025C106.378 38.9197 106.39 38.9503 106.505 39.1417C106.758 39.2353 107.059 39.0406 107.375 39.038C107.345 39.269 107.317 39.4776 107.275 39.7067L107.213 39.727C107.118 39.5626 107.023 39.3382 106.88 39.252C106.526 39.3198 106.264 39.9806 106.507 40.2887C107.058 40.5302 107.811 39.7282 108.058 39.2845L108.213 39.1327C108.325 39.252 108.284 39.2023 108.327 39.3842C107.979 40.0283 107.419 40.5766 106.627 40.4515C106.278 40.3969 105.967 40.2026 105.765 39.9136C105.442 39.4485 105.488 38.998 105.577 38.4793Z" fill="white"/>
</svg>
