<svg width="148" height="148" viewBox="0 0 148 148" fill="none" xmlns="http://www.w3.org/2000/svg">
<path d="M71.839 49.099C57.4644 50.1461 46.6564 62.5329 47.7012 76.7879C48.746 91.031 61.2352 101.752 75.6098 100.741C90.0085 99.7172 100.852 87.3185 99.8077 73.0516C98.7629 58.7847 86.2377 48.0519 71.839 49.1109V49.099ZM74.3849 99.8362C60.4906 100.181 48.9501 89.3056 48.6019 75.5385C48.2536 61.7714 59.2297 50.3365 73.112 49.9914C87.0062 49.6463 98.5588 60.522 98.907 74.2891C99.2553 88.0562 88.2792 99.4912 74.3849 99.8362Z" fill="white"/>
<path d="M68.3445 85.8192C69.8215 87.1757 71.803 87.8896 73.8205 87.7826C75.6939 87.6874 77.3511 86.9496 78.7321 85.7121C79.4767 84.9744 80.1612 84.1772 80.4494 83.142C82.9593 83.5227 86.3938 83.2134 86.7901 80.0839C86.9222 79.1082 86.646 78.1206 86.0335 77.3353C84.7126 75.6575 83.0073 75.955 81.1219 75.9907C81.1219 74.9436 81.29 73.3372 80.4374 72.5995C78.552 71.005 74.2048 70.7075 71.8751 70.9455C69.7135 71.2073 66.8674 71.481 65.7625 73.6228C65.7986 74.3248 65.7866 75.0269 65.7986 75.7289C65.8466 79.5723 65.1621 82.9278 68.3445 85.8192ZM81.0498 76.8117C82.5509 76.8831 83.8839 76.5261 85.0608 77.6446C85.5892 78.1444 85.9014 78.8345 85.9014 79.5723C85.9014 80.5004 85.4331 81.0477 84.8206 81.6546C83.5597 82.6184 82.4669 82.071 80.8457 82.4161C81.23 80.4647 81.1099 78.775 81.0498 76.8117ZM78.6 84.4389C75.886 87.7112 71.0705 87.735 68.3204 84.4865C66.7353 82.6184 66.6152 80.0601 66.8433 77.7279C71.1785 79.1796 75.826 79.4176 80.1252 77.7279C80.2092 80.5599 80.3053 82.1424 78.6 84.4508V84.4389ZM80.1252 76.7165C76.2703 78.5846 70.7462 78.0254 66.7833 76.7522C66.7593 76.419 66.7833 75.7765 66.8073 75.4195C70.446 77.3115 76.4144 77.4185 80.0411 75.4433C80.3053 75.7765 80.1732 76.2762 80.1252 76.7165ZM80.2092 74.1225C78.0476 75.9074 74.8653 76.0383 72.1753 75.9431C70.6622 75.8479 69.2091 75.5623 67.8281 74.9436C69.1971 75.1934 72.0072 75.5861 73.1 74.7175C74.2168 73.837 74.553 73.4086 76.0421 73.0397C77.6273 72.9207 78.8882 73.2539 80.1972 74.1106L80.2092 74.1225ZM71.6349 71.8498C72.7757 71.7189 75.3937 71.7665 76.4985 72.0402C75.7419 72.183 74.7092 72.4329 74.0727 72.8493C73.0759 73.5038 72.9198 73.8727 71.731 74.2534C69.9656 74.5866 68.3925 74.1582 66.7112 73.5633C68.1523 72.3734 69.8095 72.0521 71.6229 71.8498H71.6349Z" fill="white"/>
<path d="M74.7692 68.8632C75.7779 68.4943 76.5105 68.1968 77.3151 67.4829C78.1797 66.7571 79.1284 65.353 79.0804 64.1512C78.9123 60.6291 75.3937 61.4977 73.6284 63.1755C72.5716 62.3663 72.0912 62.0094 70.7342 61.9856L70.6021 62.1522L70.6381 62.402L70.5781 62.4615C71.755 62.5567 72.8358 63.116 73.5803 64.0203C74.2888 64.877 75.0454 66.7928 74.553 67.8518L74.4209 67.9351C74.0367 67.7447 73.7605 66.3763 73.208 65.9955C72.4275 65.4482 71.815 65.472 70.9624 64.9365L70.5781 64.9008C70.41 65.0436 70.458 64.9722 70.374 65.1745C70.8543 65.8646 72.0672 65.9241 72.7637 66.4596C73.4482 66.9831 73.6404 67.59 73.7484 68.411C73.7725 68.6252 73.6764 68.7085 73.5683 68.8394C72.2473 69.3034 70.5061 68.0303 69.8576 66.9356C69.053 65.591 68.9569 64.7461 69.2932 63.2469L69.2091 63.2231V63.116C69.101 63.1041 69.0169 63.0803 68.9209 63.0684C68.7287 63.2588 68.4886 63.9727 68.4766 64.2583C68.3925 66.65 70.3019 69.2797 72.7877 69.5414C73.5323 69.6247 74.1688 69.1012 74.8052 68.8751L74.7692 68.8632ZM78.4679 64.2464C78.2278 65.9241 77.0389 66.9593 75.7659 67.9232C75.5378 68.0303 75.3456 68.1255 75.1175 67.9946C75.1535 67.3163 75.5017 66.6262 75.6338 65.9717C75.9821 64.2464 76.0181 63.7585 77.6754 62.9018C78.4319 62.8185 78.552 63.6752 78.4679 64.2345V64.2464ZM73.9646 63.4848C74.9613 62.7947 75.2856 62.5091 76.4985 62.2593C76.7507 62.2355 76.7987 62.2117 77.0509 62.2593C77.231 62.5686 75.9221 63.3302 75.6699 63.6514C75.2015 64.2583 75.3576 64.8889 75.2015 65.5791H75.0934C74.6731 64.8056 74.433 64.2702 73.9646 63.4729V63.4848Z" fill="white"/>
<path d="M69.1611 63.2112L69.2451 63.235L69.4253 63.2826C69.6414 63.8656 69.9416 64.6985 70.3379 65.1745C70.422 64.9841 70.386 65.0436 70.5421 64.9008L70.9264 64.9365C70.374 64.4011 69.9897 63.5205 70.0497 62.759C70.2058 62.4972 70.1578 62.5805 70.5541 62.4615L70.6141 62.402L70.5781 62.1522L70.7102 61.9856C69.9056 62.0808 69.2932 62.3068 68.8608 63.0565C68.9569 63.0803 69.041 63.0922 69.137 63.1041V63.2112H69.1611Z" fill="white"/>
<path d="M88.2432 84.201C87.5226 84.1653 87.1383 85.0934 86.7901 85.5812C79.933 94.91 65.7746 94.1485 59.8302 84.2962C59.7581 84.1772 59.6861 84.1415 59.566 84.1177C59.1937 84.2962 59.2177 84.2129 59.0736 84.4984C59.1937 85.7716 61.7996 88.2942 62.7603 89.1152C66.2309 92.0781 70.8303 93.4584 75.3937 93.03C79.945 92.5778 84.1241 90.3527 87.0183 86.8544C87.4266 86.3547 87.8228 85.7954 88.1831 85.26C88.4593 84.8554 88.7115 84.5698 88.2312 84.2129L88.2432 84.201Z" fill="white"/>
<path d="M69.7015 59.463C71.4548 59.0227 73.2801 58.7847 75.0934 58.987C79.8249 59.463 83.4756 61.4977 86.4779 65.115C86.9822 65.7337 87.4506 66.3763 87.8949 67.0426L88.6635 66.6143C86.1176 62.6043 82.647 59.6415 77.9035 58.523C76.2943 58.1422 74.3009 57.9161 72.6556 58.0708C67.732 58.5825 63.637 60.4149 60.4666 64.294C59.8542 65.0317 59.3258 65.8408 58.8935 66.7095L59.65 67.1021C61.9557 63.3421 65.3302 60.5696 69.6894 59.4749L69.7015 59.463Z" fill="white"/>
<path d="M92.5784 78.073L92.2661 78.4657V78.8464C92.3862 78.9535 92.5423 79.0844 92.6624 79.1915L92.7225 79.1201C93.8153 78.0135 92.9506 76.6094 92.0139 75.7289L91.7377 76.0264C92.2061 76.4785 92.9146 77.3829 92.5664 78.073H92.5784Z" fill="white"/>
<path d="M90.765 78.894L90.681 78.8702L90.1406 78.6441C89.9724 78.7631 89.8764 78.8345 89.6722 78.894L90.2607 79.2034C91.2094 79.5961 91.7858 79.727 92.6864 79.1915C92.5664 79.0844 92.4222 78.9535 92.2902 78.8464C91.7257 79.1558 91.4015 79.0725 90.777 78.894H90.765Z" fill="white"/>
<path d="M88.8436 76.776V76.657C88.5314 76.6213 88.6515 76.5737 88.4353 76.7284C88.3873 76.895 88.3512 77.014 88.3272 77.1806C88.6274 77.9421 88.9757 78.4062 89.6602 78.8821C89.8644 78.8345 89.9604 78.7512 90.1286 78.6322C89.7082 78.3348 88.4473 77.2996 88.8436 76.776Z" fill="white"/>
<path d="M90.9572 76.9307C90.8611 77.0735 90.765 77.1925 90.6569 77.3234C91.4615 77.5018 91.9539 77.6208 92.2781 78.4538L92.5904 78.0611C92.038 77.3472 91.8218 77.1806 90.9692 76.9307H90.9572Z" fill="white"/>
<path d="M90.6449 77.3234C90.765 77.2044 90.8491 77.0735 90.9452 76.9307L90.681 76.7284H90.6329C90.2486 77.0021 90.1766 76.9783 89.6962 77.014C90.0445 77.1449 90.2847 77.2401 90.6449 77.3234Z" fill="white"/>
<path d="M88.9157 76.3C89.0357 76.193 89.2039 76.0978 89.348 76.0145L88.8796 75.7289C88.6395 75.8241 88.3753 75.8479 88.1591 75.717C87.7388 75.0269 88.7715 73.7537 89.2639 73.2896L89.1919 72.8255C87.9549 73.6347 87.0062 75.0269 88.003 76.4309C88.2552 76.0621 88.3032 76.5499 88.9277 76.3H88.9157Z" fill="white"/>
<path d="M90.8851 72.6471C90.681 72.3496 90.6569 72.3972 90.3207 72.302C89.8884 72.4686 89.5641 72.5638 89.1678 72.8255L89.2399 73.2896C89.9244 72.8493 90.0685 72.7542 90.8731 72.6471H90.8851Z" fill="white"/>
<path d="M90.3207 72.302C90.6569 72.3853 90.681 72.3377 90.8851 72.6471L91.9059 72.8374C90.5248 73.4443 90.1766 73.6347 89.8403 75.122C89.5041 75.36 89.2519 75.5504 88.8676 75.7289L89.336 76.0145C90.1045 75.598 90.2246 75.3243 90.5369 74.5509C90.8491 73.8013 91.2574 73.2182 92.1581 73.3729C92.8786 73.9202 92.134 74.8722 91.7137 75.36C91.9539 75.3838 92.05 75.3243 92.1941 75.5504C92.5784 75.3362 93.0107 74.3367 92.9386 73.8608C92.7225 72.3377 91.6417 72.1592 90.3207 72.3139V72.302Z" fill="white"/>
<path d="M88.8676 76.6689V76.7879L89.6962 77.0259C90.1766 77.0021 90.2486 77.0259 90.6329 76.7284L90.5849 76.2762C90.0205 76.5856 89.6482 76.6094 89.0117 76.4547L88.9157 76.3119C88.2912 76.5499 88.2432 76.074 87.991 76.4428L88.3272 77.2044C88.3632 77.0378 88.3873 76.9188 88.4353 76.7522C88.6515 76.5975 88.5194 76.6451 88.8556 76.6808L88.8676 76.6689Z" fill="white"/>
<path d="M91.7137 75.3481C91.2574 75.8003 91.1253 75.9074 90.5849 76.2644L90.6329 76.7165H90.681C90.8131 76.4309 91.4375 76.1692 91.7498 76.0264L92.026 75.7289L92.2061 75.5385C92.062 75.3243 91.9659 75.3719 91.7257 75.3481H91.7137Z" fill="white"/>
<path d="M58.9895 73.4324C59.3498 73.837 59.7461 74.2296 59.9142 74.7532L59.8542 74.8841C59.7701 74.8841 59.674 74.8841 59.602 74.8841L59.5059 75.1101L59.614 75.2767L59.7941 75.36V75.5028C59.4579 75.7646 58.8935 75.9431 58.7374 76.1692C57.8847 77.3472 58.269 78.0968 56.5157 78.5846C56.7079 79.0011 56.7559 78.8583 57.0561 79.0963C57.1882 78.8821 57.3203 78.8345 57.5124 78.6917C58.5212 77.9897 58.5932 77.6922 58.8694 76.5499C59.3738 76.2286 59.7941 75.9193 60.3946 76.074C60.935 76.538 60.5147 77.1925 60.1784 77.6684C60.0583 78.0016 59.9983 77.9778 60.1064 78.2277L60.2985 78.311C60.935 77.6684 61.007 77.1687 61.1511 76.3238C60.6468 75.1339 60.4546 74.4795 59.65 73.48C59.3498 73.5871 59.3738 73.5633 58.9895 73.4324Z" fill="white"/>
<path d="M58.281 75.4076C58.0769 75.2886 58.0288 75.2767 57.8007 75.2053C57.5124 75.3838 57.2483 75.5861 56.912 75.6218C56.6358 75.5504 56.5878 75.4433 56.4076 75.2172C56.0834 74.7175 55.9873 74.4319 55.8432 73.8727C55.7952 73.7894 55.579 73.7418 55.4589 73.7061C55.531 74.4319 55.6391 74.8841 56.0834 75.5028L56.5037 76.1692C56.2875 76.4071 56.1074 76.5618 55.9993 76.8593C56.0354 77.1806 56.0714 77.478 56.1554 77.7874C56.4076 76.7284 57.2963 75.8717 58.269 75.4195L58.281 75.4076Z" fill="white"/>
<path d="M56.1675 77.7636C56.0834 77.4543 56.0594 77.1568 56.0113 76.8355C55.8312 77.371 55.6871 77.7993 55.8312 78.3705L56.2035 78.1801L56.1554 77.7517L56.1675 77.7636Z" fill="white"/>
<path d="M56.0113 73.7418C56.4437 73.8727 56.4557 74.2534 56.8159 74.4795C56.9961 74.3962 56.924 74.4438 57.2122 74.5271L57.2362 74.4557L57.1642 74.4914L57.2242 74.3962L57.1522 74.2177C56.6958 73.7656 56.2995 73.48 56.4677 72.7898C56.4076 72.5638 56.4677 72.6709 56.2275 72.5043C55.7471 72.8969 55.6271 73.0992 55.4829 73.6823C55.603 73.718 55.8192 73.7656 55.8672 73.8489L56.0113 73.7299V73.7418Z" fill="white"/>
<path d="M59.4939 75.0982L59.59 74.8722C59.4219 74.8365 59.2297 74.7651 59.0736 74.7056C58.8454 74.7651 58.1249 74.896 57.9808 74.9555L57.8127 75.1934C58.0288 75.2767 58.0889 75.2767 58.293 75.3957C58.8454 75.2886 59.0376 75.2648 59.602 75.2529L59.4939 75.0864V75.0982Z" fill="white"/>
<path d="M56.4677 72.7898C57.0561 72.7066 57.3083 72.6947 57.9087 72.8493C58.0168 72.6947 58.0889 72.5995 58.209 72.4448C57.4884 72.2306 56.912 72.1473 56.2275 72.5043C56.4557 72.6709 56.4076 72.5638 56.4677 72.7898Z" fill="white"/>
<path d="M58.9895 73.4324C59.3738 73.5514 59.3378 73.5871 59.65 73.48C59.2537 72.9445 58.7974 72.7185 58.209 72.4567C58.0889 72.5995 58.0048 72.6947 57.9087 72.8612C58.4011 73.0635 58.5572 73.1587 58.9895 73.4443L58.9895 73.4324Z" fill="white"/>
<path d="M59.0736 74.7175C58.3531 74.4438 57.7526 74.539 57.1522 74.2177L57.2242 74.3962L57.1642 74.4914L57.2362 74.4557L57.2122 74.5271C56.936 74.4438 56.9961 74.3962 56.8159 74.4795C57.2122 74.7175 57.5004 74.8722 57.9808 74.9555C58.1249 74.9079 58.8574 74.7651 59.0736 74.7056V74.7175Z" fill="white"/>
<path d="M60.1064 78.2158C59.9983 77.9659 60.0583 77.9897 60.1784 77.6565C59.4579 78.43 58.7854 79.0844 57.6445 79.1201C57.4404 79.1201 57.2362 79.1201 57.0441 79.0725C56.96 79.3581 57.0441 79.251 56.852 79.4295C58.1849 79.8935 59.3258 79.132 60.2865 78.2991L60.0944 78.2158H60.1064Z" fill="white"/>
<path d="M57.0441 79.0844C56.7439 78.8464 56.6958 78.9892 56.5037 78.5728C56.4557 78.4895 56.2875 78.2872 56.2275 78.2039L55.8552 78.3943C56.1074 78.9416 56.2875 79.1915 56.864 79.4414C57.0441 79.2629 56.972 79.37 57.0561 79.0844H57.0441Z" fill="white"/>
<path d="M67.0835 34.0587C67.1075 35.4746 67.1916 37.1048 67.0955 38.5208C67.0835 38.7231 66.7112 39.2942 66.5912 39.4965C67.9722 39.4727 70.5061 39.3537 71.755 39.5203C71.5028 39.2466 71.1665 38.9016 70.9624 38.6041C70.7943 36.6883 70.8423 34.6179 70.7462 32.6665C72.5115 34.0944 73.1 35.3081 74.2768 37.2357C74.9734 38.259 75.3336 38.6874 76.3304 39.4132L80.9418 39.3656C80.1252 38.4494 79.5968 37.8068 78.8882 36.7835C77.207 34.3442 76.1022 31.3933 73.3401 30.0011C72.6797 30.3343 71.4307 31.2743 70.7462 31.7503C70.8183 29.8702 70.6502 27.9902 70.7222 26.1577C70.9504 25.8127 71.1425 25.5152 71.4067 25.182C70.7823 25.182 70.0377 25.182 69.4253 25.2058C68.5486 25.2296 67.1796 25.2177 66.351 25.3129C66.5912 25.5985 66.8193 25.8841 67.0475 26.1815C67.0235 28.8231 67.0475 31.4528 67.0955 34.0944L67.0835 34.0587Z" fill="white"/>
<path d="M91.6657 40.7102C92.2781 39.6988 92.8666 38.5922 93.5511 37.6284C94.2236 39.9249 94.1155 41.0553 94.1155 43.4232C94.1635 44.0895 94.3317 45.2913 94.4758 45.9576C95.1483 46.4693 97.7782 47.9805 98.5828 48.3731C98.4027 47.1237 98.3666 46.5526 98.2826 45.1128C98.1265 42.7449 98.7269 38.5684 97.0937 36.7002C96.8415 36.4147 94.728 36.724 94.0915 36.7597C94.776 35.4152 96.073 33.1186 97.0697 31.9644C97.2258 31.786 97.7182 31.5004 97.9463 31.3695C96.6133 30.7032 94.9681 29.5252 93.7312 28.9897C93.6952 29.3348 93.7312 30.0249 93.5871 30.2867C91.6897 33.5232 89.7683 36.7597 87.8108 39.9606C87.3545 40.7102 87.0663 40.8887 86.2857 41.2813C87.5587 41.9477 89.4801 43.0424 90.6449 43.8515C90.5609 42.4712 90.9692 41.8763 91.6657 40.7102Z" fill="white"/>
<path d="M40.2197 56.3693C40.3398 56.4763 40.5199 57.2974 40.5559 57.4402C41.5647 56.3217 42.9097 54.7867 43.8103 53.5968L42.8496 53.5611C41.4206 52.6211 39.7873 51.0504 38.3943 49.9438L38.2742 49.7653L38.3463 49.6701C41.0002 49.3965 43.6662 50.3127 46.3802 50.2532C47.485 49.6106 49.0822 47.5759 49.8388 46.505C48.1695 46.624 47.2449 46.505 45.6237 46.3027C42.9457 45.9576 40.1356 44.8629 37.6738 46.3265C37.6738 47.1951 37.5417 48.2066 37.3976 49.0514C36.0766 47.9924 34.7196 46.9096 33.4467 45.803C32.9663 45.3984 33.0263 44.6607 32.7261 44.4941C31.6814 45.684 30.6126 47.0286 29.5438 48.1709C29.916 48.2423 30.8167 48.4207 31.153 48.7182C34.1552 51.2527 37.3255 53.7277 40.2197 56.3693Z" fill="white"/>
<path d="M50.091 31.7265C50.5473 32.4642 50.9076 33.2971 51.2798 34.0706L52.9371 37.6046C53.6936 39.1871 54.5823 40.9482 55.2428 42.6021C55.3989 42.9829 55.0626 43.4827 55.2908 43.8634C56.7559 43.1138 58.257 42.5307 59.674 41.7454C59.3378 41.555 58.9055 41.3527 58.7133 41.0315C58.233 40.2104 57.8247 39.2704 57.4044 38.4018C56.4557 36.4623 55.543 34.5108 54.6663 32.5356C54.3181 31.7622 53.9098 30.9768 53.5615 30.2034C53.4054 29.8464 53.7176 29.1325 53.4895 28.9064L49.0942 30.9649C49.5265 31.1791 49.8148 31.2981 50.079 31.7146L50.091 31.7265Z" fill="white"/>
<path d="M102.33 53.2874C102.606 53.8467 104.695 56.9642 105.092 57.2379C105.224 56.9285 105.416 56.3574 105.656 56.1551C106.232 55.6553 106.953 55.2032 107.589 54.7748L110.892 52.5259L114.026 50.3722C114.519 50.0271 115.347 49.4202 115.852 49.1585L116.86 49.1942C116.416 48.5159 114.471 45.4341 113.918 45.1604C113.882 45.4341 113.846 45.7197 113.786 45.9814C112.801 46.7906 111.745 47.5402 110.688 48.2423C108.226 49.8724 105.848 51.6335 103.338 53.1922C102.978 53.4183 102.606 53.1327 102.33 53.2874Z" fill="white"/>
<path d="M39.5231 96.4093C41.5887 94.1247 39.2229 90.0791 36.2567 90.6264C34.7556 90.9239 33.2785 91.4593 32.3539 92.7682C31.8375 93.4941 31.6453 94.3984 31.8135 95.267C32.1977 97.2303 33.8189 98.3727 35.8004 98.2775C37.3015 98.1347 38.5144 97.5278 39.5231 96.4093ZM37.0974 91.8401C39.2109 91.7092 40.3758 92.9586 39.1148 94.9219C38.2982 96.1832 36.4849 96.8377 35.0318 97.0995C30.5165 97.3255 32.2578 92.4232 37.0974 91.8401Z" fill="white"/>
<path d="M79.7649 121.778C79.3446 121.921 79.1284 122.194 78.7802 122.23C78.4079 121.968 78.2638 120.636 78.0596 120.16C77.9035 119.803 77.8555 119.696 77.6273 119.362C77.3391 119.243 77.0389 119.113 76.7507 118.994C77.5433 118.565 77.9516 118.315 78.4319 117.506C78.504 115.733 77.8315 114.805 75.91 114.793C75.4297 114.793 74.9613 114.817 74.481 114.853C73.9646 114.888 72.6797 114.853 72.3314 115.067C72.4035 115.376 72.9078 115.448 73.196 115.519C73.3281 117.613 73.3522 119.731 73.5323 121.837C73.5683 122.206 72.7397 122.563 72.6196 122.885C72.9799 123.099 75.2496 122.968 75.6819 122.777L75.7299 122.647C75.5138 122.385 75.1535 122.301 74.8292 122.218C74.7812 121.219 74.7692 120.207 74.7092 119.208C75.7539 119.16 76.2823 118.922 76.6306 120.053C76.8587 120.826 77.0989 121.766 77.4472 122.48C77.9035 123.372 79.4767 122.908 79.849 122.111V121.873L79.7529 121.79L79.7649 121.778ZM76.4264 118.47C75.826 118.72 75.2976 118.72 74.6611 118.732C74.6611 117.863 74.481 116.507 74.6251 115.65C74.6611 115.448 74.9253 115.364 75.1175 115.269C77.255 115.079 77.6393 117.518 76.4264 118.47Z" fill="white"/>
<path d="M59.2057 112.366L59.2417 112.247L59.4459 112.175L59.5179 111.902C59.0736 111.711 57.7286 111.045 57.3323 111.176C57.2603 111.533 57.7406 111.842 57.9928 112.056C57.0201 113.937 56.2515 116.697 55.3388 118.268C54.9786 118.232 54.7744 118.184 54.4142 118.268L54.3181 118.375C54.4862 118.732 56.9 119.672 57.3803 119.648L57.4644 119.553C57.3803 119.208 57.0321 119.029 56.7319 118.827C56.936 118.125 57.2362 117.137 57.5245 116.471C57.6566 116.34 57.6806 116.233 57.7646 116.055C58.257 114.829 58.7374 113.591 59.2057 112.354V112.366Z" fill="white"/>
<path d="M59.5059 111.902L59.4339 112.175L59.2297 112.247L59.1937 112.366C60.1904 112.616 60.3946 112.651 60.995 113.508C60.947 115.067 60.6468 115.912 59.1096 116.53C58.7614 116.435 58.0168 116.245 57.7526 116.066C57.6686 116.245 57.6445 116.352 57.5124 116.483C58.5092 116.876 59.638 117.268 60.6948 116.84C61.9317 116.34 62.6402 115.079 62.1118 113.806C61.6315 112.651 60.5627 112.33 59.4939 111.902H59.5059Z" fill="white"/>
<path d="M36.9412 74.2177C36.4609 73.8727 36.0646 73.6228 35.5242 73.3848C35.0438 73.4324 34.9718 73.123 34.4554 73.1468C34.7076 73.3253 34.8517 73.3372 34.9117 73.5276L34.7917 73.5633C34.4794 73.7537 32.4499 74.2296 31.9455 74.3605L31.4532 74.4438L29.0274 75.2291C28.9433 74.896 28.9193 74.2653 28.535 74.2296C28.2828 74.5509 28.1267 76.657 27.9946 77.3234C29.3997 76.1573 30.3244 76.1216 32.0536 75.6218L36.9292 74.2058L36.9412 74.2177Z" fill="white"/>
<path d="M34.7917 73.5752L34.9117 73.5395C34.8637 73.3491 34.7076 73.3491 34.4554 73.1587C34.9718 73.1349 35.0438 73.4443 35.5242 73.3967C34.0231 72.4924 30.8888 71.3977 29.4477 70.2078C29.3036 70.0888 29.3516 69.8389 28.9794 69.7199L28.8473 69.827C28.7032 70.2316 28.475 71.826 28.8112 72.0997C29.0154 71.8736 29.2195 71.4334 29.3636 71.1478C30.2523 71.3501 30.8407 71.6237 31.6213 72.064C31.8255 72.1711 31.8735 72.2068 32.1017 72.2544C32.9423 72.7422 33.903 73.0873 34.7676 73.5871L34.7917 73.5752Z" fill="white"/>
<path d="M32.1137 72.2425C31.8855 72.1949 31.8375 72.1592 31.6333 72.0521C31.4532 73.0278 31.5613 73.718 31.4532 74.4438L31.9455 74.3605C31.9455 73.7775 31.9455 72.7898 32.1137 72.2425Z" fill="white"/>
<path d="M44.5188 100.562C44.3627 100.276 44.0265 99.9195 43.8103 99.6696C43.6422 99.8124 43.6182 99.8124 43.5101 99.9909C44.6389 101.371 43.8463 103.061 41.997 103.097C41.6367 103.097 40.724 102.168 40.3998 101.871L40.1236 102.097C42.033 104.275 39.5592 104.405 38.9227 106.297C38.6465 107.13 39.9675 108.296 40.676 107.69L40.64 107.523C40.4238 107.273 40.1716 107.225 39.8474 107.107C40.3518 106.25 41.1804 105.738 41.5046 104.893C41.5406 104.798 41.5767 103.894 41.5767 103.727L41.6607 103.691C44.2907 104.81 45.8638 103.085 44.5068 100.574L44.5188 100.562Z" fill="white"/>
<path d="M118.962 83.0111C118.181 83.1658 116.776 82.7969 115.864 82.7612C116.008 82.1781 116.092 81.8807 116.308 81.3214C116.872 81.3214 117.149 81.3452 117.653 81.1072V81.0001C117.173 80.7384 114.374 80.429 113.99 80.7146C114.038 81.0358 115.131 81.1786 115.359 81.4642C115.563 81.726 115.443 82.3566 115.419 82.6779C114.266 82.5708 113.138 82.4756 112.009 82.2614C112.057 81.7498 112.141 80.2386 112.453 79.9292C112.801 79.5723 114.026 79.5961 114.483 79.2391V79.132C114.314 78.9892 112.357 78.7274 111.913 78.656C111.769 79.5961 111.228 83.8797 111.468 84.5103H111.564C111.793 84.1772 111.805 84.0463 111.901 83.6536C113.846 83.7726 116.824 84.1415 118.758 84.427C118.926 84.9863 119.01 85.3195 119.25 85.843C119.442 85.2719 119.514 84.1772 119.586 83.5346C119.538 83.2253 119.586 83.1658 119.418 82.9873L118.962 83.023V83.0111Z" fill="white"/>
<path d="M119.454 82.1186C119.19 82.3328 119.094 82.6779 118.962 83.0111L119.418 82.9754C119.598 83.142 119.55 83.2134 119.586 83.5227C119.646 83.0587 119.766 82.5589 119.586 82.1424L119.454 82.1186Z" fill="white"/>
<path d="M111 96.4093C110.315 96.3022 107.109 95.5764 106.689 96.0286C106.881 96.3855 107.517 97.0876 107.818 97.4207L108.238 97.3255C108.574 97.1828 110.808 97.6587 111.324 97.742L111.769 97.7777C112.645 97.9086 113.438 98.0157 114.302 98.1942C114.182 98.5392 113.894 98.9557 114.218 99.1937C114.771 99.0985 115.768 96.7901 115.984 96.2427C115.455 96.5997 115.299 96.7068 114.723 96.9805C113.642 96.6711 112.141 96.5878 111 96.4093Z" fill="white"/>
<path d="M110.159 99.4912C110.291 99.7053 110.303 99.7648 110.496 99.9195C110.568 99.741 111.564 98.1585 111.769 97.7896L111.324 97.7539C111.108 98.1109 110.448 99.2651 110.159 99.4912Z" fill="white"/>
<path d="M117.341 91.2928C116.812 91.9353 116.392 91.6497 115.695 91.388C115.083 91.1738 114.591 90.9715 113.954 90.8049C113.702 90.7335 113.81 90.8049 113.63 90.6026C113.174 90.7454 110.94 89.8292 110.339 89.6031C110.46 89.0201 110.712 87.735 111.216 87.3661C111.733 86.9972 113.041 87.3423 113.402 87.14C113.246 86.8068 111.348 86.1762 110.892 85.9739C110.508 87.259 109.595 90.0672 109.151 91.495C109.175 91.5426 109.199 91.5783 109.211 91.6259C109.595 91.5664 109.859 91.1857 110.135 90.8882C111.985 91.6735 114.579 92.3518 116.524 93.0181C116.488 93.3632 116.416 93.6488 116.572 93.9462L116.728 94.0533C117.233 93.7915 117.485 92.2566 117.713 91.6735C117.425 91.5307 117.521 91.5902 117.341 91.2809V91.2928Z" fill="white"/>
<path d="M117.629 90.7573C117.461 90.912 117.425 91.0786 117.341 91.2928C117.521 91.6021 117.425 91.5307 117.713 91.6854C117.809 91.3047 117.893 91.1857 117.761 90.8049L117.629 90.7454V90.7573Z" fill="white"/>
<path d="M97.3819 113.734L97.1898 113.794C96.9856 114.258 98.6308 115.579 96.205 116.745C95.8328 116.923 95.4605 117.078 95.0642 117.221C94.3797 115.507 92.7345 112.889 91.8338 111.093C92.098 110.914 92.4823 110.712 92.5183 110.367C92.3862 110.212 92.4703 110.26 92.2902 110.2C91.7738 110.486 89.9004 111.39 89.6722 111.795C89.8403 112.045 90.3327 111.878 90.6209 111.83C91.3655 113.008 93.395 116.578 93.9234 117.851C93.7072 118.054 93.467 118.232 93.395 118.494L93.479 118.577C94.1395 118.565 97.0697 116.828 97.8383 116.4C98.1745 116.221 98.5107 116.043 98.871 115.9L98.811 115.817C98.3666 115.222 97.8623 113.913 97.3699 113.722L97.3819 113.734Z" fill="white"/>
<path d="M119.49 73.1111L119.298 73.4086C119.31 73.6585 119.346 73.8013 119.226 74.0154C118.89 74.2534 116.488 74.4795 116.02 74.4795C115.743 74.6104 115.888 74.5747 115.539 74.5509C114.651 74.5271 113.078 74.9793 112.561 74.7651C112.117 74.3486 112.009 73.0873 111.889 72.4091C112.489 71.9807 113.606 71.588 113.738 71.2311C113.642 71.1835 111.672 71.3025 111.384 71.3144C111.6 72.2306 111.6 76.5975 112.105 77.0259L112.249 76.9783C112.453 76.7284 112.453 76.4785 112.513 76.1573C114.783 76.0859 116.836 75.5623 119.394 75.6099C119.478 75.8955 119.55 76.3 119.851 76.4309L119.947 76.3476C120.103 75.7289 119.911 74.182 119.79 73.5276C119.646 73.361 119.646 73.2301 119.49 73.123V73.1111Z" fill="white"/>
<path d="M107.866 103.929L107.77 103.989C107.794 104.572 108.502 105.262 108.754 106.119C107.385 110.2 103.675 107.725 102.209 105.238C101.621 104.251 101.753 103.394 102.45 102.514C102.594 102.228 102.69 102.097 102.726 101.776C101.933 102.24 101.345 102.989 101.105 103.87C100.264 106.988 104.647 110.676 107.529 108.737C108.574 108.035 108.994 107.225 109.139 106.024C109.511 105.81 109.835 106.131 110.099 105.917C110.027 105.536 108.238 104.072 107.854 103.929H107.866Z" fill="white"/>
<path d="M90.3207 119.66C89.9244 119.577 89.8043 119.624 89.408 119.696L87.1504 113.294C87.4746 113.056 88.075 112.723 87.8108 112.294L87.7508 112.259C87.1984 112.473 85.289 113.115 85.0128 113.472C85.1689 113.746 85.6132 113.651 85.9134 113.639C86.622 115.793 87.3545 117.923 88.1231 120.053C87.8709 120.267 87.5587 120.481 87.4386 120.767C87.5106 120.981 87.4386 120.886 87.6547 121.005C88.2912 120.695 90.2246 120.088 90.4768 119.803V119.767L90.2847 119.66H90.3327H90.3207Z" fill="white"/>
<path d="M42.5614 100.205C42.8856 99.9671 43.1018 99.9195 43.4981 99.9909C43.5942 99.8124 43.6302 99.8124 43.7983 99.6696C43.4861 99.277 42.5014 97.8729 42.1051 97.7301C41.8889 97.9681 42.1651 98.4083 42.2852 98.6701C41.2164 99.7172 37.998 102.097 36.7011 102.918C36.4609 102.728 36.1847 102.478 35.9085 102.395L35.8004 102.466C35.8244 102.894 37.3736 104.727 37.8059 104.977L37.902 104.953C37.998 104.465 37.8419 104.37 37.5537 104.001C38.1902 103.513 39.4871 102.454 40.1236 102.085L40.3998 101.859C41.0363 101.288 41.8769 100.705 42.5734 100.205H42.5614Z" fill="white"/>
<path d="M36.8572 87.1281C37.4336 86.8187 37.0853 86.4856 37.3375 86.0096C37.3375 85.8668 37.3375 85.8668 37.3015 85.724C37.0493 85.5694 36.617 85.6526 36.2327 85.5218C35.9445 85.6526 35.8364 85.7121 35.5722 85.8906H35.4762C34.8877 86.2238 31.249 86.5094 30.3964 86.783C29.5918 87.0448 29.7119 85.9739 29.1955 86.0691C29.0634 86.3666 29.4237 88.6631 29.6999 89.032H29.832C30.0361 88.7702 30.0241 88.4846 30.0602 88.1633C31.0329 87.9848 36.3048 87.021 36.8572 87.1281Z" fill="white"/>
<path d="M36.8572 87.1281C37.0013 87.4137 37.1334 87.8183 37.4696 87.854C37.6738 87.4732 37.4216 86.4737 37.3375 86.0096C37.0853 86.4737 37.4336 86.8187 36.8572 87.1281Z" fill="white"/>
<path d="M67.2637 114.246C66.6272 114.115 65.1501 113.746 64.5857 113.877L64.5136 113.996C64.6337 114.222 64.7298 114.234 64.958 114.365C65.066 114.424 65.1861 114.496 65.2942 114.555C65.006 116.519 64.4536 118.613 64.2134 120.612C64.1534 121.159 63.7691 121.278 63.2887 121.409L63.1566 121.54L63.1926 121.671C63.613 121.849 64.5256 121.968 65.006 122.028L65.2582 121.945C65.3783 121.754 65.3302 121.73 65.3302 121.445L65.4383 121.373C65.5824 120.719 65.7866 118.756 66.0147 118.256C66.0628 118.173 66.0748 118.054 66.1108 117.946C66.0387 117.423 66.423 114.924 66.8914 114.627L66.8674 114.579C66.9514 114.353 66.9754 114.401 67.2637 114.234V114.246Z" fill="white"/>
<path d="M30.8768 84.3676C31.4172 83.9749 36.1366 81.3452 36.6891 81.1429C36.4369 80.548 36.2327 79.0011 36.1126 78.8702C35.9085 79.0249 35.5722 79.727 35.4041 80.0006C35.1399 80.1434 34.2633 80.1791 33.903 80.2029C34.2513 80.6908 34.2152 80.4647 34.6716 80.6313C34.4674 81.2024 29.0154 83.5822 28.6671 84.3795C28.8833 84.6769 30.0842 84.7721 30.5045 84.8435L30.6846 84.7483C30.7447 84.546 30.7327 84.5222 30.8648 84.3676H30.8768Z" fill="white"/>
<path d="M47.485 104.251C47.2689 104.513 47.6171 104.941 47.7732 105.191C46.2962 106.857 44.735 108.534 43.414 110.319C43.0658 110.224 42.8376 110.117 42.4893 110.176L42.4053 110.284C42.5734 110.676 43.39 111.2 43.7623 111.521H43.9905L44.1346 111.259L44.2907 111.235C44.8431 110.498 45.7918 109.344 46.4883 108.772L46.7405 108.511C46.7885 108.166 48.5298 106.214 48.8901 105.952C48.9741 105.893 49.1303 105.643 49.2023 105.548C48.83 105.226 47.9053 104.31 47.485 104.251Z" fill="white"/>
<path d="M37.5777 42.3999C37.6738 41.1386 37.6137 40.5674 37.95 39.3418C37.974 39.1514 38.022 38.9848 37.95 38.8302C37.7819 38.8064 37.8059 38.8064 37.6738 38.6993C36.9172 39.556 35.6803 40.8887 35.0318 41.7811C35.5122 41.674 35.9325 41.5788 36.4249 41.5431C36.8692 41.8287 37.1694 42.0667 37.5777 42.3999Z" fill="white"/>
<path d="M37.95 39.3299C38.1661 38.7469 38.5144 38.1281 38.7906 37.557C38.2262 37.9853 38.0941 38.1519 37.6738 38.6993C37.8059 38.8064 37.7819 38.8064 37.95 38.8302C38.022 38.9848 37.962 39.1514 37.95 39.3418L37.95 39.3299Z" fill="white"/>
<path d="M104.779 35.8554C105.068 35.9149 105.008 35.9506 105.236 35.8673C105.116 35.4627 101.513 33.428 100.985 33.3328C101.045 33.7969 101.237 34.0587 101.417 34.487C101.213 34.9987 101.057 35.3319 100.804 35.8197C102.462 35.4389 103.11 35.4746 104.779 35.8554Z" fill="white"/>
<path d="M76.1262 27.193V27.3595C76.3904 27.2406 77.147 26.3838 77.9035 25.9912C78.516 25.6818 79.7289 25.3724 79.945 25.1939V25.0868C79.6688 24.9678 79.3806 25.0035 79.0804 25.0392C77.5432 25.0987 76.3424 25.0273 74.7932 25.182C75.6939 25.8246 76.0782 26.0388 76.1382 27.2049L76.1262 27.193Z" fill="white"/>
<path d="M110.159 99.4912C109.475 98.7653 108.982 98.0752 108.238 97.3255L107.818 97.4207C109.019 98.92 110.388 100.372 111.444 101.978C111.721 102.395 111.841 102.954 111.973 103.442C112.285 102.966 113.222 101.669 113.078 101.145C112.717 101.062 112.405 101.502 112.165 101.752C111.468 101.133 111.108 100.598 110.496 99.9195C110.303 99.7767 110.291 99.7053 110.159 99.4912Z" fill="white"/>
<path d="M33.903 80.2029C32.4019 80.3814 30.3604 80.9644 28.9313 80.9644C28.7992 80.6432 28.7152 80.3814 28.451 80.1791H28.2828C27.9946 80.5242 28.3909 82.3328 28.7152 82.6184L28.8112 82.5827C28.9433 82.1781 29.0274 81.8569 29.1235 81.4404C30.6846 81.2381 33.2785 80.7503 34.6716 80.6432C34.2152 80.4647 34.2392 80.7027 33.903 80.2148L33.903 80.2029Z" fill="white"/>
<path d="M43.9784 111.521H43.7503C44.6509 112.294 46.14 113.461 46.9206 114.27C47.2569 113.615 48.2896 112.473 48.2896 112.068C47.9053 111.949 47.0047 112.735 46.4883 112.937C45.6957 112.521 44.8311 111.937 44.2787 111.235L44.1225 111.259L43.9784 111.521Z" fill="white"/>
<path d="M65.2702 121.945L65.018 122.028C65.6665 122.099 66.315 122.206 66.9634 122.325C67.6359 122.516 68.4165 122.694 69.113 122.849C69.149 122.218 69.4493 120.719 69.3052 120.279C68.9089 120.279 68.5846 121.564 67.8041 121.968C67.1436 121.849 66.351 121.849 65.6905 121.659C65.4863 121.599 65.5224 121.564 65.4503 121.373L65.3422 121.445C65.3422 121.718 65.4023 121.742 65.2702 121.945Z" fill="white"/>
<path d="M119.79 73.5276C119.766 72.54 119.598 71.4691 119.574 70.3982C118.806 70.5171 117.809 70.4576 117.088 70.6837L117.04 70.7789C117.425 71.0764 118.457 71.1954 118.878 71.5524C119.202 71.826 119.25 72.9683 119.298 73.4205L119.49 73.123C119.646 73.242 119.646 73.3729 119.79 73.5276Z" fill="white"/>
<path d="M116.02 74.4795C115.96 74.0392 115.876 73.7656 116.128 73.3491C116.404 72.885 117.161 72.8493 117.425 72.6233C117.329 72.3853 117.413 72.4805 117.197 72.3377C116.512 72.3734 114.507 72.6471 113.87 72.8255L113.846 72.9683C114.35 73.4562 115.359 72.4686 115.551 74.5509C115.9 74.5747 115.755 74.6223 116.032 74.4795H116.02Z" fill="white"/>
<path d="M66.1829 118.315C66.7233 118.482 66.7473 118.494 67.2396 118.768C67.2396 119.208 67.0955 119.731 67.4318 120.064H67.5879C67.9241 119.672 68.3204 117.102 68.1403 116.709C67.2636 116.661 68.1763 118.173 66.1228 117.958C66.0988 118.054 66.0748 118.173 66.0267 118.268L66.1829 118.315Z" fill="white"/>
<path d="M47.3169 109.784C47.1128 110.117 46.6684 110.7 46.8606 111.093C47.3169 111.033 48.9982 108.903 49.1303 108.451L49.0582 108.392C47.7132 108.653 48.3136 109.463 46.7525 108.522L46.5003 108.784C46.9446 109.129 47.0647 109.32 47.3289 109.784H47.3169Z" fill="white"/>
<path d="M36.2327 85.5218C35.236 85.2719 34.2272 85.0577 33.2065 84.8911C32.7141 84.8078 31.225 84.6412 30.8768 84.3676C30.7447 84.5222 30.7567 84.546 30.6966 84.7483L30.5165 84.8435C32.0056 85.1767 34.0831 85.5099 35.4762 85.8787H35.5722C35.8364 85.7121 35.9445 85.6526 36.2327 85.5218Z" fill="white"/>
<path d="M113.954 90.8049C114.783 88.4608 115.083 90.1029 116.044 89.5317V89.3889C115.743 89.0439 113.45 88.5203 112.873 88.3537C112.789 88.3299 112.669 88.4132 112.585 88.4489C112.405 89.2104 114.423 88.4489 113.618 90.6026C113.798 90.8049 113.69 90.7335 113.942 90.8049H113.954Z" fill="white"/>
<path d="M49.4785 106.357C50.0429 106.833 50.4512 107.214 50.8715 107.809C50.5593 108.344 50.2711 108.701 50.2231 109.296L50.3191 109.367C50.7875 109.213 51.5921 108.225 51.9884 107.82C51.3159 107.285 50.6314 106.738 49.9709 106.19C49.7907 106.262 49.6586 106.309 49.4665 106.357H49.4785Z" fill="white"/>
<path d="M109.547 76.1811C109.883 76.2762 109.775 76.3 110.027 76.1811C110.352 75.7765 111.252 73.3848 110.928 73.0754C110.448 73.5514 109.367 75.015 109.139 75.6337C109.199 75.9193 109.271 75.955 109.535 76.1811H109.547Z" fill="white"/>
<path d="M106.112 102.49L106.148 102.299C106.028 102.014 104.407 100.538 104.083 100.372L103.963 100.479C103.867 100.812 104.119 100.907 104.071 101.276C104.155 101.55 104.167 101.55 104.311 101.788C104.875 101.966 105.596 102.656 106.112 102.49Z" fill="white"/>
<path d="M68.3204 114.686L68.5966 114.912C68.7768 114.996 68.9329 115.031 69.113 115.15C69.6654 115.531 69.125 116.673 69.6054 117.03C69.9056 116.816 70.2058 115.174 70.3139 114.71C69.7375 114.71 69.0049 114.567 68.4165 114.472L68.3324 114.698L68.3204 114.686Z" fill="white"/>
<path d="M104.299 101.788C104.155 101.562 104.143 101.562 104.059 101.276C103.639 101.371 103.074 101.526 102.726 101.776C102.69 102.085 102.594 102.228 102.45 102.514C103.158 101.954 103.446 101.847 104.299 101.788Z" fill="white"/>
<path d="M68.4045 114.46C68.2724 114.424 67.4438 114.27 67.2637 114.234C66.9754 114.401 66.9514 114.341 66.8674 114.579L66.8914 114.627L68.5846 114.912L68.3084 114.686L68.3925 114.46H68.4045Z" fill="white"/>
<path d="M49.2023 105.548C49.1303 105.643 48.9741 105.893 48.8901 105.952L49.4785 106.357C49.6706 106.321 49.8027 106.262 49.9829 106.19C49.7547 105.976 49.4545 105.75 49.2023 105.548Z" fill="white"/>
</svg>
