<svg width="148" height="148" viewBox="0 0 148 148" fill="none" xmlns="http://www.w3.org/2000/svg">
<path d="M41.8162 70.8224C44.5309 70.5767 46.9315 72.5764 47.1805 75.2907C47.4295 78.0051 45.4327 80.4081 42.7186 80.6603C39.9999 80.9131 37.5919 78.9121 37.3425 76.1931C37.0931 73.4741 39.097 71.0685 41.8162 70.8224ZM42.5067 78.7126C44.1784 78.5478 45.3969 77.0539 45.2221 75.3831C45.0475 73.7123 43.5465 72.5028 41.8767 72.6873C40.2209 72.8704 39.0236 74.3562 39.1969 76.0131C39.3701 77.67 40.8488 78.876 42.5067 78.7126Z" fill="white"/>
<path d="M84.7411 93.7125C86.1243 95.1756 88.1255 95.7418 90.1113 95.6317C91.314 95.5651 92.3595 95.2068 93.4378 94.7078C94.1049 94.3994 94.7384 94.1442 95.3018 93.6545C97.2257 92.076 97.8618 89.4586 98.2125 87.1026C98.322 86.3489 98.177 85.4322 98.6681 84.7978C98.9627 84.4166 99.5447 84.5211 99.8231 84.8527C100.154 85.247 100.024 86.0691 99.9914 86.5525C99.9778 87.0135 99.8973 87.4297 99.8322 87.8858C99.2456 92.0068 97.1993 95.6805 92.9505 96.7978C89.6769 97.6587 84.3602 97.769 83.1169 93.7627C83.6989 91.5062 85.8948 91.5677 87.7498 90.5291C89.055 89.7954 90.2693 88.9104 91.3675 87.8923C92.4271 86.8904 93.0807 84.9806 93.9212 84.5668C95.6711 84.642 95.0253 85.7809 94.4387 86.7398C92.7739 89.4648 90.1739 91.285 87.3167 92.6001C86.491 92.9802 85.5564 93.2561 84.7411 93.7125Z" fill="white"/>
<path d="M51.4387 71.0283C53.8362 71.1652 57.7751 70.4666 58.3111 73.871C58.54 75.3247 57.8955 76.3137 56.6544 77.0219C56.7954 77.1379 56.9322 77.259 57.0644 77.3849C57.742 78.0372 58.1636 78.9642 58.2553 79.893C58.3307 80.6564 57.2074 80.4414 56.7714 80.4153C56.7063 80.4113 56.4998 80.415 56.4807 80.361C55.7505 78.2972 55.915 77.6448 53.2873 77.6174C53.3414 78.2881 53.544 79.5134 53.3092 80.1324C53.1538 80.5421 51.761 80.5243 51.4767 80.3426C51.3173 79.875 51.2914 71.6966 51.4387 71.0283ZM53.2624 75.9892C53.9157 75.977 54.8119 75.9874 55.4439 75.9186L55.8924 75.5928C56.2383 75.1466 56.4274 74.6431 56.3333 74.0768C56.0615 72.4397 54.5294 72.7727 53.3194 72.7198C53.2794 73.7561 53.4905 74.9624 53.2624 75.9892Z" fill="white"/>
<path d="M71.0328 61.009C75.4945 60.8721 80.0463 62.2214 83.8472 64.5245C84.9467 65.1906 85.0189 65.7798 83.8845 66.4591C83.0022 65.9763 82.154 65.4464 81.2458 65.013C77.9531 63.4423 74.8367 62.9061 71.2382 62.834C67.6753 62.7674 64.144 63.5131 60.9121 65.0144C59.9745 65.4536 57.8183 67.3265 57.4462 65.5794C57.2734 64.7678 59.4681 63.9177 60.0074 63.6142C63.6009 61.5919 67.0123 61.1945 71.0328 61.009Z" fill="white"/>
<path d="M110.484 71.0863C110.973 71.0439 111.469 71.0619 111.912 71.289C112.675 71.68 115.882 76.66 116.217 76.6352C116.29 76.3028 116.174 75.8428 116.188 75.4534C116.238 74.1275 116.002 72.5376 116.371 71.2769C116.447 71.0168 117.921 71.0333 118.107 71.1611C118.276 71.9116 118.197 74.0701 118.206 74.9385C118.203 76.4627 118.226 77.9883 118.212 79.5124C118.208 79.9143 118.21 80.1887 117.908 80.4743C117.532 80.4695 117.118 80.3956 116.743 80.3406C116.21 79.8291 115.574 78.8353 115.116 78.1958C114.554 77.4212 113.98 76.6544 113.397 75.8956C113.166 75.5933 112.718 74.96 112.442 74.754C112.265 75.5446 112.709 79.8601 112.256 80.3886C111.947 80.5082 110.599 80.5098 110.381 80.2191C110.246 79.2949 110.242 71.6428 110.484 71.0863Z" fill="white"/>
<path d="M78.6054 71.0715C79.1067 71.023 79.3784 70.9344 79.3601 71.5469C79.3487 71.9261 79.4497 72.3242 79.2388 72.6741C78.8946 72.9064 76.0624 72.7958 75.4019 72.8224C75.4592 73.573 75.4283 74.3941 75.4072 75.1498C75.8613 75.0784 78.1594 75.1087 78.7798 75.1064C78.7659 75.6606 78.7669 76.2151 78.783 76.7693C78.079 76.8284 76.1146 76.8497 75.4077 76.8033C75.4261 77.3897 75.4418 77.9974 75.3897 78.5804C76.5029 78.6087 78.0327 78.6864 79.0974 78.5777C79.2175 78.5632 79.2365 78.5833 79.3421 78.639C79.4954 78.9586 79.4302 79.9622 79.4204 80.3383C78.9094 80.4333 74.0534 80.4908 73.5912 80.3617C73.4028 79.7876 73.4353 71.9583 73.6088 71.195C73.8389 70.9654 77.9334 71.0992 78.6054 71.0715Z" fill="white"/>
<path d="M32.9752 71.0729C33.2099 71.0464 33.514 70.9836 33.7039 71.1095C33.8154 71.3456 33.7943 71.8687 33.7929 72.1387C33.7875 73.1856 31.9751 72.8121 31.298 72.7474C31.3606 73.6378 31.3983 79.8088 31.1936 80.2761C31.0205 80.4173 30.9186 80.4386 30.6963 80.4516C29.0001 80.5513 29.3359 80.0893 29.2831 78.598L29.2718 72.9082C28.9256 72.5947 27.3451 73.0181 26.8595 72.7098C26.7116 72.4576 26.6731 71.0948 27.3139 71.0866C29.189 71.0627 31.1055 71.1561 32.9752 71.0729Z" fill="white"/>
<path d="M62.5345 71.0473C63.3968 71.1253 64.6368 71.0883 65.5213 71.0914C66.7609 71.0959 68.0725 71.1145 69.3019 71.0265C69.3138 71.2574 69.3242 71.4883 69.333 71.7194C69.3785 72.8664 68.9217 72.8756 67.9417 72.831C67.5731 72.8143 67.1563 72.8151 66.7832 72.8072C66.9073 73.694 66.8414 76.7859 66.8481 77.8511C66.8531 78.4705 67.0561 79.7254 66.6976 80.2278C66.4762 80.5381 65.1835 80.5404 64.9443 80.2991C64.7849 79.6517 64.835 77.3472 64.8413 76.5855C64.8511 75.3999 64.7976 73.9325 64.8528 72.7693C63.9367 72.8231 62.087 73.1778 62.3795 71.7646C62.4405 71.4698 62.3905 71.355 62.5345 71.0473Z" fill="white"/>
<path d="M95.2695 71.0627C95.3604 71.041 95.4629 71.0598 95.5576 71.0691L95.6388 71.1684C95.7291 72.2319 95.6408 73.9892 95.6633 75.1297C95.6775 75.8334 95.6917 78.0163 95.6053 78.6291C96.101 78.6092 98.8235 78.5924 99.1947 78.6886C99.4867 78.978 99.4583 79.9344 99.2592 80.2816C98.8802 80.5323 98.2615 80.4427 97.8013 80.4234C97.111 80.397 93.9515 80.5631 93.6788 80.3042C93.4642 79.8792 93.557 71.8941 93.7194 71.2359C93.9598 71.0202 94.8635 71.081 95.2695 71.0627Z" fill="white"/>
<path d="M83.8916 71.0137C84.4588 71.0807 85.191 71.0636 85.7717 71.0594C85.7621 72.6536 85.7614 74.2479 85.7691 75.8422C85.7698 76.6419 85.8072 77.8634 85.706 78.6229C86.8951 78.5854 88.3627 78.6226 89.5622 78.6511C89.6473 79.178 89.637 79.7098 89.5867 80.2387C89.4565 80.3161 89.2122 80.432 89.0711 80.42C88.1313 80.3404 84.6058 80.5305 83.8948 80.3549C83.7331 79.9064 83.7279 71.5268 83.8916 71.0137Z" fill="white"/>
<path d="M123.38 71.1019C123.767 71.0769 124.739 71.0133 125.03 71.2283C125.122 71.7947 125.139 72.3715 125.114 72.9444C125.013 75.2902 125.134 77.6323 125.105 79.9747C125.102 80.1966 124.957 80.31 124.796 80.434C124.366 80.4402 123.631 80.4891 123.247 80.3469C122.903 79.9287 123.114 72.4803 123.16 71.4573C123.165 71.339 123.294 71.1908 123.38 71.1019Z" fill="white"/>
<path d="M103.782 71.1054C104.364 71.0722 104.948 71.0852 105.528 71.1446C105.564 71.3909 105.601 72.8735 105.567 73.0652C105.37 74.1792 105.831 79.5794 105.416 80.3537C105.144 80.4544 103.884 80.5338 103.668 80.3594C103.466 79.6228 103.47 71.7429 103.782 71.1054Z" fill="white"/>
<path d="M65.5129 107L65.4582 106.979C65.0371 106.822 63.5987 106.617 63.0583 106.526C61.9718 106.352 60.892 106.138 59.821 105.884C54.3239 104.591 50.28 102.407 46.7923 97.8731C45.9488 96.7764 45.1153 95.5998 44.5246 94.3467C44.0845 93.413 43.6547 92.459 43.3119 91.4848C42.9027 90.3222 41.7775 86.2264 42.1694 85.1012C42.2407 84.8963 42.3679 84.7169 42.5716 84.6263C42.7435 84.5498 42.966 84.5373 43.1404 84.6118C43.3801 84.7143 43.5837 84.9613 43.6761 85.2009C43.9244 85.8453 43.9168 86.7696 44.0277 87.4695C44.1667 88.3469 44.3799 89.2263 44.6192 90.0818C44.9532 91.2756 45.5323 92.2755 46.0877 93.3689C46.5214 94.2226 46.9325 95.1181 47.4432 95.9284C49.2802 98.8424 52.0275 101.015 55.1124 102.469C62.0731 105.749 71.893 106.241 79.3637 104.709C80.6079 104.454 81.9045 104.181 83.0988 103.747C84.6167 103.195 86.297 102.599 87.706 101.814C88.4433 101.403 89.0975 100.868 89.82 100.452C86.8088 99.1799 82.8578 98.5666 79.6408 97.7862C78.5566 97.5231 77.3557 97.3293 76.3009 96.9802C75.8048 96.8161 74.5447 96.3642 74.3533 95.8479C74.2853 95.6646 74.2376 95.3788 74.21 95.1795C74.3116 94.9379 74.4458 94.6378 74.6739 94.5055C77.0412 93.1332 79.7774 92.4495 81.9232 90.6519C82.3531 90.2914 82.5555 90.0303 82.8932 89.585C79.2971 88.0072 74.7389 87.8013 70.9373 86.6991C70.1919 86.4879 68.8566 86.4042 68.1823 86.1078C67.1585 85.6576 67.6693 84.3768 69.0421 84.635C72.4525 85.2765 75.887 85.8976 79.2795 86.6298C80.5886 86.9123 82.2184 87.4976 83.4321 88.0615C84.4769 88.5618 84.772 89.7616 84.1256 90.7173C82.4517 93.1913 79.0918 94.0104 76.7066 95.451C77.9834 95.6304 79.8862 96.1273 81.1848 96.4115L85.4739 97.389C86.9751 97.7324 88.6173 98.0545 90.054 98.7071C91.9031 99.5472 91.7755 101.138 90.228 102.27C86.9499 104.669 83.0241 105.601 79.1268 106.477C78.4851 106.622 76.6198 106.791 76.1776 107H65.5129Z" fill="white"/>
<path d="M69.2309 41H72.5862C74.6215 42.002 75.9315 43.1626 77.6347 44.6327C78.0047 44.952 78.4587 45.1817 78.7946 45.4862C79.4462 46.077 80.0121 46.7742 80.6468 47.393C85.6022 52.1875 90.0166 57.5116 93.8103 63.2698C94.3569 64.0832 96.0178 65.5177 94.8242 66.218C94.1803 66.5956 93.7491 66.1236 93.3791 65.6236C92.5077 64.446 91.7575 63.1911 90.9441 61.9744C89.7253 60.3316 88.5045 58.5356 87.1568 56.9996C86.2016 55.9112 85.2864 54.7926 84.348 53.706C82.8449 51.9823 81.2711 50.3216 79.6307 48.7281C77.8337 46.9859 73.8792 43.2709 71.562 42.4347C68.9661 41.9488 65.6899 45.6411 64.0882 47.024C60.7025 49.9471 58.0362 52.7561 55.2817 56.2009C53.7646 58.0983 52.2049 59.6696 50.8907 61.7418C49.918 63.2756 49.1396 65.103 47.8904 66.357C47.4816 66.7477 46.5261 65.7142 46.9425 65.1744C47.2355 64.4509 47.6803 63.7652 48.079 63.0867C50.2291 59.4268 53.0758 55.8638 55.9102 52.6993C57.6611 50.7799 59.4783 48.9219 61.3584 47.1288C63.7589 44.8296 66.2656 42.5338 69.2309 41Z" fill="white"/>
<path d="M17.0234 73.392C17.2734 72.4759 17.3965 71.8555 18.2872 71.3431C19.6632 70.5514 21.9411 70.878 22.7502 72.3515C22.9473 72.7106 23.036 73.1316 23.1285 73.5263C22.2742 73.6512 21.9422 73.6121 21.0727 73.5101C20.7635 72.9723 20.6498 72.8644 20.1322 72.519C18.2406 73.101 19.2382 74.2911 20.3112 74.6006C25.4677 76.0881 23.448 81.9771 18.643 80.2434C17.2992 79.7585 17.6044 78.9766 17.0234 78.1795V77.784C17.7567 77.7049 18.2757 77.7414 18.9891 77.8924C19.3297 78.5317 19.478 78.6226 20.1123 78.9293C23.0667 77.8152 19.7057 76.4315 18.5826 75.8934C17.4902 75.37 17.3087 74.6281 17.0234 73.5358V73.392Z" fill="white"/>
<path d="M129.381 71.7394C129.713 71.8671 129.862 72.0154 130.13 72.2401C129.804 72.7961 130.019 72.8093 129.836 73.2228L129.732 73.1984L129.613 72.9262C129.289 73.0048 129.212 73.2045 128.98 73.2008C128.742 72.9073 128.859 72.3341 128.961 71.9978C129.006 71.8488 129.249 71.7904 129.381 71.7394Z" fill="white"/>
<path d="M129.301 74.0966C128.525 73.8201 127.838 73.2734 127.967 72.3577C128.024 71.9684 128.237 71.6189 128.556 71.3897C128.899 71.1472 129.323 71.0519 129.736 71.1249C130.374 71.2333 130.639 71.5947 130.977 72.0752V72.3006L130.894 72.6083C130.212 70.6716 127.999 71.1869 128.356 73.0168C128.413 73.3124 129.142 73.9225 129.495 73.8511L129.301 74.0966Z" fill="white"/>
<path d="M130.977 72.3006V73.0167C130.627 73.6144 130.079 74.2491 129.301 74.0966L129.495 73.8511C130.333 73.61 130.411 73.3497 130.894 72.6083L130.977 72.3006Z" fill="white"/>
</svg>
