<svg width="148" height="148" viewBox="0 0 148 148" fill="none" xmlns="http://www.w3.org/2000/svg">
<path d="M35.5237 68.7472C35.9366 68.6974 36.2224 68.6476 36.5621 68.8631C36.7679 69.6408 36.024 73.8544 35.7541 74.764C35.0601 75.0357 33.9283 75.3443 33.1973 75.525C27.7033 76.8815 22.7178 81.1717 22.1027 86.8955C21.1766 95.5115 27.4544 96.4855 32.8165 91.1802C33.431 90.5721 34.4335 89.6421 35.0984 89.125C35.7676 89.683 37.699 92.2775 38.1932 93.0667C37.3493 94.8584 34.499 97.2504 32.9017 98.4076C28.9532 101.272 22.6689 103.677 18.3548 100.479C11.7676 95.5957 13.5682 85.0626 17.7339 79.2621C22.257 72.9641 28.136 70.1097 35.5237 68.7472ZM44.426 70.3283C44.5944 70.3327 44.7186 70.3797 44.8835 70.4236C45.1363 70.6913 45.162 70.8003 45.1818 71.2235C45.2702 73.1189 45.1924 75.0451 45.2303 76.9502C45.276 79.8128 45.295 82.6759 45.2873 85.5389C45.3011 87.9959 45.3554 90.5705 45.2929 93.0117C44.2823 93.4696 41.2829 94.3423 40.1418 94.7027C39.6404 94.7689 39.2694 94.6562 39.2505 94.0807C39.2018 92.6042 39.2141 91.1219 39.2105 89.6443L39.2212 81.0482L39.2545 75.4964C39.26 74.4046 39.2209 72.9514 39.3509 71.8902C40.5758 71.4232 43.1762 70.6213 44.426 70.3283ZM56.5628 66.5057C63.3417 65.6631 65.1455 73.2601 61.9176 77.932C59.4078 81.5647 57.4154 82.1622 53.4788 83.6077C53.5128 84.6694 53.6951 89.9358 53.4884 90.673C53.2816 90.9536 53.0329 90.9931 52.6908 91.1101C51.7135 91.3471 48.066 92.69 47.413 92.2478C46.6655 89.7246 47.2237 83.4056 46.9521 80.5215C46.6861 77.6962 46.9763 74.2102 46.818 71.3361C46.8003 71.0149 46.9164 70.1054 47.1548 69.8372C48.8533 68.2705 54.3901 66.7314 56.5628 66.5057ZM73.6795 61.2492C74.4488 61.1456 76.3149 61.1359 77.0135 61.4509C77.7403 62.1911 76.747 65.7089 76.2782 66.5816C75.7792 66.5817 74.9878 66.4802 73.998 66.4844C72.5632 66.4905 70.1328 67.6412 70.8751 69.3234C71.004 69.6152 74.3727 70.5162 75.2398 70.8942C75.9854 71.2165 76.6862 71.6323 77.3247 72.1316C80.3186 74.4798 79.6064 79.451 77.3391 82.0806C74.8107 85.013 71.7929 86.2228 68.0049 86.6183C67.2623 86.7034 65.4227 86.7813 64.8286 86.3106C64.6575 86.1749 64.5372 85.7228 64.5271 85.4854C64.4743 84.2362 64.5931 81.4804 65.355 80.5179C65.9966 79.7076 68.349 80.3949 69.4148 80.2424C70.3747 80.1052 71.2938 80.0672 72.0391 79.2599C72.3396 78.9343 72.6373 78.1636 72.5944 77.8142C72.4594 76.7169 69.2361 76.1982 68.2483 75.6769C67.4783 75.3122 66.6535 74.8757 65.9926 74.3276C63.0707 71.905 63.9352 67.7048 66.1104 65.0989C68.0479 62.7779 70.6894 61.5492 73.6795 61.2492ZM93.709 55.2214C94.4226 55.2998 94.4751 55.9711 94.4662 56.5773C94.4474 57.8592 94.5163 59.2369 94.3617 60.5062C92.8978 61.0576 91.0675 61.5294 89.5292 62.0267C89.5069 65.2803 89.506 68.5343 89.527 71.7879C89.5433 73.0935 89.744 78.5913 89.4785 79.5563C88.9535 79.9851 84.156 81.4049 83.652 81.2125C83.0529 80.5777 83.2483 77.3971 83.2519 76.3315C83.1761 72.1997 83.2309 68.0807 83.136 63.9407C82.1097 64.1228 79.2694 65.2461 78.5965 64.7046C78.126 64.0229 78.5002 60.5605 78.6131 59.6051C80.8409 58.7956 84.2006 57.9482 86.5734 57.2466C88.4285 56.698 91.9207 55.5789 93.709 55.2214ZM55.3243 71.6603C54.4268 71.7989 53.9371 71.9596 53.075 72.2911C53.1829 74.1657 53.2732 76.2824 53.2709 78.1579C53.952 77.967 54.4759 77.8334 55.1265 77.548C58.2745 76.0216 58.508 71.4421 55.3243 71.6603ZM105.121 51.2899C106.5 51.1107 108.631 51.4411 109.547 52.3102C114.989 57.471 110.686 64.571 104.527 66.41C103.697 66.6579 101.268 67.2602 100.959 67.6635C100.884 68.2906 101.766 69.2803 102.271 69.5313C104.808 70.7923 107.851 68.3639 109.582 67.0848C110.152 68.7122 110.648 70.3643 111.067 72.0362L110.365 72.7455C104.399 77.8077 95.5599 78.3235 94.2943 68.7583C93.3364 61.5185 97.0786 52.4519 105.121 51.2899ZM123.744 46.0407C127.825 45.6854 130.414 47.6564 130.207 51.8972C130.071 54.6712 128.757 57.0353 126.731 58.9145C128.949 59.8539 129.43 61.6266 131.113 63.2091C131.902 63.9514 133.862 64.3102 134 65.0369C133.959 65.1684 133.864 65.4104 133.759 65.4957C132.133 66.8366 129.891 68.4122 127.747 68.6123C125.31 67.5721 124.321 65.3339 122.518 63.5212C121.72 62.8248 121.365 62.6466 120.36 62.3535C120.244 64.8847 120.47 67.6053 120.404 70.2095C118.893 70.8611 116.857 71.2903 115.261 71.7765C114.61 71.9748 114.037 71.8796 113.979 71.075C113.815 68.8274 113.82 66.5642 113.735 64.3071C113.63 61.4641 113.544 58.6205 113.48 55.7763C113.43 54.1691 113.368 52.5652 113.336 50.954C113.305 49.2919 114.037 49.1153 115.421 48.4198C118.04 47.103 120.807 46.2616 123.744 46.0407ZM104.348 56.6106C101.542 57.4299 101.006 59.9444 100.492 62.4572C101.021 62.3704 101.632 62.2863 102.143 62.1484C103.616 61.7192 105.11 61.2312 105.909 59.8101C106.723 58.3601 106.246 56.6046 104.348 56.6106ZM123.779 51.6387C123.416 51.0904 122.62 50.9478 121.981 51.0013C121.486 51.0849 120.089 51.3065 120.003 51.6955C119.738 52.883 120.064 56.9535 120.166 58.0791C120.433 57.8906 121.115 57.4411 121.334 57.255C122.851 56.0668 125.295 53.938 123.779 51.6387Z" fill="#FEFEF8"/>
</svg>
