<svg width="148" height="148" viewBox="0 0 148 148" fill="none" xmlns="http://www.w3.org/2000/svg">
<path d="M73.8113 39.0028C74.5952 38.9346 77.6524 40.1332 78.5941 40.4643L85.3423 42.8302L89.4433 44.2522C90.6652 44.6694 92.0151 45.0037 93.0631 45.6992C91.2202 45.3433 88.7937 45.5811 86.8606 45.5842L74.2308 45.5999C69.9922 45.5461 65.8119 45.4672 61.5671 45.576C59.4884 45.6293 57.13 45.3604 55.0875 45.6585C55.7421 44.9898 58.664 44.1577 59.6943 43.798L67.0679 41.2168C68.1058 40.8585 72.9522 39.1035 73.8113 39.0028Z" fill="white"/>
<path d="M74.0038 70.003C81.8811 63.9964 91.751 62.9935 100.686 67.5605C101.355 67.9025 104.091 69.5134 104.367 70.1317L104.291 70.2076C103.756 70.1694 102.606 69.3174 102.074 69.0241C100.295 68.0227 98.4037 67.2329 96.4393 66.6707C92.3585 65.5344 89.0239 65.5618 84.8141 66.203C84.3455 66.2743 82.9286 66.509 82.5656 66.7119C82.8156 66.8037 87.1539 66.3487 88.1389 66.3733C90.4697 66.4135 92.7822 66.7909 95.0039 67.4937C97.8383 68.358 100.483 69.7456 102.801 71.584C103.291 71.9697 103.953 72.4652 104.239 73.0081L104.184 73.1212C103.624 73.0518 102.832 72.3004 102.341 71.9581C101.322 71.2543 100.258 70.6176 99.1547 70.052C96.8865 68.8917 94.4462 68.102 91.9265 67.7135C90.7834 67.6561 89.8097 67.4674 88.5515 67.4484C84.1907 67.3823 80.3228 68.352 76.4426 70.3221C75.6121 70.7438 74.8546 71.3961 74.0275 71.8173L73.9467 71.8578C72.0307 70.583 70.8835 69.924 68.7311 69.0822C62.1933 66.5254 54.6006 66.9614 48.362 70.2495C47.5176 70.6945 46.703 71.1933 45.9231 71.7426C45.1833 72.2647 44.2546 73.0235 43.4571 73.3753L43.3347 73.4284C44.1388 72.3616 45.3717 71.3832 46.4829 70.6277C50.6898 67.7738 55.6836 66.2899 60.7745 66.3813C61.5785 66.4026 64.9389 66.8702 65.2362 66.7638L65.1905 66.6774C64.5553 66.4295 62.7062 66.143 61.964 66.033C56.5498 65.231 50.841 66.2224 46.0758 68.921C45.1279 69.4577 44.3272 70.0703 43.302 70.4796C43.331 70.4417 43.3605 70.4044 43.3907 70.3674C44.1053 69.4938 45.1094 68.8316 46.0715 68.2577C49.6184 66.1418 52.9951 65.2002 57.058 64.7804C57.8262 64.694 59.2011 64.715 59.9749 64.7502C65.0924 64.9784 70.0049 66.8178 74.0038 70.003Z" fill="white"/>
<path d="M72.7344 83.0546C73.2305 83.1535 74.0466 83.1333 74.573 83.138C76.9627 83.1598 79.6933 82.989 81.5371 84.7972C82.5487 85.7892 83.4187 87.6177 83.4172 89.0501C83.415 91.1491 82.9253 92.4101 81.4671 93.8826C79.0881 96.0191 75.8828 95.3828 72.757 95.5372C72.6177 94.1579 72.7377 90.6996 72.7293 89.1836L72.6961 85.4394C72.6885 84.8519 72.6352 83.5738 72.7344 83.0546ZM79.8067 92.363C81.4571 90.5399 81.462 87.9595 79.6901 86.171C78.6118 85.0825 76.6074 85.2487 75.1539 85.2297C75.135 86.969 75.1285 88.7084 75.134 90.4478C75.133 91.3052 75.1681 92.635 75.0701 93.446C76.9225 93.315 78.3776 93.6828 79.8067 92.363Z" fill="white"/>
<path d="M76.016 72.4115C78.2467 72.3806 80.8211 72.5298 83.0707 72.6156C90.9688 72.9227 98.8458 73.6382 106.669 74.7592L106.33 75.8836C98.3632 75.3092 90.4738 74.4789 82.4655 74.4436C80.865 74.4366 79.0355 74.3916 77.4505 74.2687C77.2478 74.6378 77.0308 74.9455 76.7374 75.2501C76.0329 75.9858 75.0604 76.4086 74.0391 76.4232C72.8317 76.4471 71.9407 75.9892 71.0889 75.1839C70.8482 74.8728 70.7571 74.6638 70.5865 74.3174C69.571 74.398 68.0482 74.3942 67.0075 74.4191C64.5246 74.4747 62.0421 74.5426 59.56 74.6229C53.5338 74.9059 47.5159 75.3423 41.5122 75.9317L41.3826 74.6798C45.0388 74.3202 48.7358 73.7742 52.4463 73.4161C58.9639 72.8098 65.5055 72.4913 72.0515 72.4617C72.2297 73.7859 73.1049 75.1201 74.6936 74.4237C75.5121 74.065 75.7721 73.2036 76.016 72.4115Z" fill="white"/>
<path d="M96.3068 83.0349C97.1911 83.0569 97.7472 82.9111 98.3117 83.7121C98.7885 84.3891 99.1715 85.084 99.6019 85.7886L102.498 90.6117C103.563 88.9644 104.527 87.0991 105.597 85.4412C106.06 84.7233 106.612 83.626 107.22 83.0526C107.633 83.0445 108.406 82.9743 108.722 83.2093C108.803 83.7598 108.729 86.1183 108.735 86.8449C108.757 89.7347 108.686 92.6569 108.783 95.5482C107.936 95.5196 107.191 95.533 106.344 95.5549L106.342 93.7508C106.298 92.044 106.341 90.3561 106.323 88.6502C105.403 89.7962 104.208 92.7072 103.135 93.3344C102.846 93.5023 102.484 93.5803 102.157 93.4922C101.033 93.19 99.245 89.54 98.6188 88.447C98.5758 90.722 98.6003 93.2764 98.7412 95.5482C97.8847 95.5205 97.089 95.4734 96.2359 95.5599C96.2545 92.9457 96.2587 90.3314 96.2494 87.7173C96.2443 86.9661 96.1675 83.5725 96.3068 83.0349Z" fill="white"/>
<path d="M24.5023 83.0449C25.0262 83.0604 25.5129 83.0997 26.0355 83.1427C26.6056 84.0487 28.121 87.7853 28.6536 89.0413C29.2803 90.519 30.9555 94.0899 31.3028 95.4122C30.9716 95.5574 29.3961 95.5154 28.9321 95.5129C28.5205 94.6238 28.1634 93.6509 27.7449 92.7282L26.1332 92.724C25.0249 92.7333 23.9165 92.7291 22.8084 92.7114C22.3326 93.6005 22.0778 94.5181 21.5042 95.5095C20.6871 95.4986 19.8699 95.5037 19.053 95.5246C20.36 92.7123 21.5296 89.642 22.8202 86.8058C23.2259 85.9145 24.0271 83.7973 24.5023 83.0449ZM23.593 90.7249C24.144 90.6993 24.6955 90.6827 25.2471 90.6749L26.8804 90.685C26.6095 90.1243 25.419 87.2284 25.1622 87.0461C24.8815 87.8348 23.9951 90.0185 23.593 90.7249Z" fill="white"/>
<path d="M121.951 83.0329C122.463 83.0329 123.356 82.9394 123.623 83.4455C124.166 84.4761 124.605 85.5771 125.066 86.6497L127.488 92.2858C127.938 93.3369 128.391 94.513 128.891 95.5263C128.105 95.5624 127.216 95.5028 126.385 95.5289C125.965 94.6692 125.532 93.6307 125.247 92.7198H123.679C122.512 92.7316 121.345 92.7266 120.179 92.703C119.837 93.5879 119.454 94.6297 118.989 95.4449C118.171 95.5205 117.424 95.4415 116.51 95.5456C117.566 92.8063 118.973 89.9083 120.1 87.1611C120.411 86.4003 121.574 83.5853 121.951 83.0329ZM121.026 90.7121L122.598 90.6409C123.179 90.6613 123.76 90.6788 124.342 90.6934C124.014 90.1561 122.789 87.125 122.679 87.0443C122.111 88.2589 121.613 89.5298 121.026 90.7121Z" fill="white"/>
<path d="M63.8501 83.0518C64.5065 83.031 64.7691 83.0692 65.4017 83.2107C65.9118 84.1685 70.6098 95.0285 70.5906 95.4407C70.2043 95.523 68.8396 95.5238 68.3177 95.5414C67.8694 94.7716 67.4228 93.5535 67.0849 92.6955C66.5224 92.7081 65.9597 92.7165 65.397 92.7223C64.29 92.7375 63.1829 92.7375 62.0759 92.7232C60.7731 95.6842 61.7159 95.4054 58.3851 95.5288C59.6813 92.7257 60.8079 89.6446 62.1212 86.829C62.4983 86.0206 63.3731 83.641 63.8501 83.0518ZM62.8728 90.7107L64.4003 90.6631L66.1857 90.6885C65.7981 89.8492 64.8923 87.908 64.6077 87.0481C64.0759 87.7499 63.432 89.7998 62.8728 90.7107Z" fill="white"/>
<path d="M72.3354 49.224C73.0684 49.3149 75.4727 48.9708 75.8727 49.4425C76.0125 50.6633 75.9694 52.525 75.971 53.8047L75.978 60.9374C75.9812 62.5109 75.9881 64.087 75.9849 65.6603C75.9827 66.829 76.0917 66.7635 75.1056 67.4351C73.7062 68.4734 73.5768 68.0591 72.2883 67.0816C72.1792 65.4089 72.0121 49.9097 72.3354 49.224Z" fill="white"/>
<path d="M85.9064 83.094C87.4799 83.2468 91.8826 83.1834 93.5087 83.1007C93.4648 83.7969 93.4707 84.543 93.464 85.2441C92.2404 85.3128 89.5317 85.321 88.2908 85.2849C88.353 86.0533 88.367 87.1057 88.2935 87.8624C89.4114 87.7973 91.13 87.7968 92.2497 87.8191C92.2843 88.4475 92.2607 89.3266 92.2607 89.9745C91.0911 89.8796 89.545 89.9343 88.323 89.9186C88.3181 90.4096 88.3509 91.0065 88.3644 91.5059C88.3648 92.1859 88.3618 92.7114 88.3018 93.3948C89.992 93.3604 91.9974 93.4594 93.653 93.3503L93.6766 95.5465C92.2067 95.3903 87.4391 95.4382 85.9455 95.5557C85.8792 92.1515 85.9783 88.7345 85.9092 85.329C85.8943 84.5925 85.8443 83.8248 85.9064 83.094Z" fill="white"/>
<path d="M50.9942 82.992C52.6149 82.9027 53.55 83.0972 55.0516 83.7658C55.5276 83.9777 56.0433 84.1752 56.2364 84.6738C56.2295 85.1648 55.3254 85.8383 54.8919 86.3291C54.1781 85.6675 53.2823 85.1843 52.306 85.0651C51.2345 84.9383 50.1561 85.2402 49.3082 85.9043C48.3539 86.6526 47.8081 87.8161 47.6772 89.0029C47.5614 90.0987 47.8913 91.1953 48.5932 92.0474C50.2829 94.0908 53.0066 94.0144 54.969 92.3916C55.1483 92.196 55.1411 92.1935 55.3688 92.0667C56.002 92.0684 56.6243 92.8693 57.1056 93.3394C54.5357 96.0393 50.896 96.4338 47.7295 94.3879C46.4636 93.5703 45.611 91.8887 45.3653 90.4299C45.0667 88.6941 45.4784 86.9117 46.5086 85.4797C47.6057 83.9744 49.1921 83.2737 50.9942 82.992Z" fill="white"/>
<path d="M37.8685 82.9931C40.0973 82.8379 41.5058 83.3668 43.2514 84.7253C42.9629 85.0063 42.2739 85.7534 41.9471 86.031C41.7951 86.2373 41.1827 85.9392 40.9671 85.7876C38.4409 84.0121 34.7796 85.5521 34.4808 88.9714C34.373 90.1232 34.7393 91.2692 35.4961 92.1473C37.338 94.3141 40.0111 93.8742 42.0083 92.1968C42.1066 92.0835 42.1228 92.1011 42.2719 92.0272C42.748 92.0944 43.5347 92.9818 43.9038 93.3495C42.8544 94.56 41.4024 95.3542 39.8131 95.5868C32.9453 96.6294 29.3162 88.6693 34.5472 84.237C35.3491 83.5576 36.827 83.1331 37.8685 82.9931Z" fill="white"/>
<path d="M116.816 100.557C119.142 100.325 121.221 102.005 121.469 104.318C121.717 106.631 120.043 108.709 117.72 108.972C115.375 109.237 113.261 107.552 113.009 105.217C112.759 102.882 114.467 100.79 116.816 100.557ZM117.865 107.438C119.351 107.095 120.271 105.612 119.914 104.136C119.557 102.661 118.06 101.756 116.58 102.123C115.115 102.486 114.219 103.956 114.572 105.415C114.926 106.874 116.395 107.777 117.865 107.438Z" fill="white"/>
<path d="M77.8785 100.553C80.2093 100.354 82.2638 102.065 82.4753 104.383C82.6869 106.701 80.9758 108.754 78.6471 108.975C76.3026 109.198 74.2229 107.482 74.0101 105.148C73.7972 102.815 75.5321 100.754 77.8785 100.553ZM78.9652 107.422C80.4285 107.038 81.3061 105.551 80.9307 104.093C80.5554 102.634 79.0676 101.75 77.5987 102.112C76.1143 102.478 75.2141 103.978 75.5935 105.452C75.9729 106.926 77.4865 107.81 78.9652 107.422Z" fill="white"/>
<path d="M35.6643 100.568C37.9799 100.332 40.0554 101.993 40.3194 104.293C40.5834 106.594 38.9375 108.678 36.6281 108.967C35.1105 109.157 33.6076 108.52 32.693 107.301C31.7783 106.082 31.5931 104.467 32.208 103.074C32.8229 101.681 34.1429 100.724 35.6643 100.568ZM36.5243 107.473C37.9912 107.246 39.0121 105.902 38.8302 104.436C38.6482 102.97 37.3293 101.913 35.8511 102.049C34.8531 102.14 33.9842 102.765 33.5837 103.678C33.1832 104.592 33.3146 105.651 33.9265 106.44C34.5384 107.23 35.534 107.625 36.5243 107.473Z" fill="white"/>
<path d="M86.8081 49.2217C87.5808 49.2344 89.7193 49.0934 90.2979 49.3328C90.6981 50.4349 90.4713 61.3226 90.534 63.37C89.2662 63.3099 87.9961 63.3118 86.7283 63.3758C86.676 60.4598 86.722 57.4492 86.7087 54.5288C86.7029 53.2606 86.6452 50.3717 86.8081 49.2217Z" fill="white"/>
<path d="M61.0104 49.1798L61.179 49.1957C61.3279 49.366 61.3408 49.5092 61.3486 49.7336C61.506 54.22 61.1066 58.9731 61.4291 63.434C60.2836 63.3088 59.3027 63.3085 58.1561 63.3204C57.9393 63.3418 57.9394 63.3319 57.7237 63.2835C57.688 63.2296 57.6523 63.1757 57.6167 63.1217C57.5897 59.1736 57.6203 53.0658 57.5672 49.3027C58.6661 49.2159 59.8874 49.2264 61.0104 49.1798Z" fill="white"/>
<path d="M86.7176 69.2323C87.1732 69.1705 88.3254 69.1668 88.8005 69.1713C92.1746 69.2034 95.8157 69.9264 98.7598 71.612C99.2483 71.8918 100.036 72.3174 100.419 72.7088L100.385 72.833C99.8424 72.9547 91.7139 71.9082 90.2627 71.8175C86.0051 71.4987 81.6131 71.0548 77.3576 71.553C76.9757 71.5977 75.8319 71.8449 75.6254 71.5167C76.9649 70.5061 84.7629 69.3173 86.7176 69.2323Z" fill="white"/>
<path d="M57.9224 69.2331C61.5982 69.0229 65.1914 69.5249 68.757 70.3929C69.435 70.5579 72.0388 71.0938 72.3507 71.5507L72.2716 71.6824C71.8839 71.7422 70.4785 71.4973 69.9512 71.4518C66.9337 71.1916 63.9526 71.4188 60.9407 71.55C56.8988 71.7471 52.8001 72.3595 48.769 72.7207C48.4021 72.7535 47.7709 73.0358 47.5048 72.7781C47.8253 72.3601 48.608 71.96 49.0776 71.6873C51.7204 70.152 54.889 69.4129 57.9224 69.2331Z" fill="white"/>
<path d="M128.725 106.263C128.527 104.674 128.667 102.837 128.602 101.222C128.568 100.378 129.741 100.656 130.326 100.703C130.403 101.697 130.272 103.3 130.273 104.329C130.274 105.158 130.442 108.4 130.098 108.948C129.995 108.945 129.425 108.921 129.39 108.896C128.192 108.05 125.332 104.465 124.594 103.429C124.588 104.205 124.776 108.521 124.407 108.874C123.99 108.97 123.47 108.984 123.06 108.847C122.77 108.439 123.078 102.268 122.903 101.216C122.864 100.986 123.006 100.801 123.147 100.632C123.279 100.636 123.738 100.651 123.819 100.693C124.922 101.264 128.214 105.364 128.725 106.263Z" fill="white"/>
<path d="M19.8762 100.629C20.3993 100.631 20.8289 100.657 21.3513 100.698C21.3512 101.676 21.4674 108.263 21.2144 108.838C21.0533 108.953 20.9704 109.011 20.7647 108.978C19.7775 108.82 16.3473 104.431 15.6065 103.409C15.7027 104.543 15.7137 107.8 15.5908 108.874C15.0644 108.947 14.5894 108.943 14.0611 108.95C13.9805 106.924 14.1059 104.852 14.0273 102.822C14.0027 102.187 13.9763 101.396 14.0379 100.776C14.7981 100.019 16.1465 101.815 16.599 102.323C17.7232 103.588 18.8172 104.88 19.88 106.197C19.8416 106.045 19.8087 105.892 19.7816 105.737C19.6484 104.973 19.487 101.176 19.8762 100.629Z" fill="white"/>
<path d="M66.9841 100.659C68.3936 100.915 71.1937 100.238 72.0921 101.69C73.0551 103.246 72.2584 104.347 70.9095 105.213C71.7838 106.019 73.2824 107.866 73.9908 108.813C73.7978 108.844 73.6036 108.87 73.4088 108.887C72.9239 108.928 72.1949 108.933 71.8095 108.606C71.1897 107.665 69.4601 105.631 68.648 104.826C68.6397 105.434 68.7118 108.517 68.4298 108.828C68.0017 108.968 67.4388 108.933 66.977 108.93C66.8909 107.515 66.965 105.701 66.9425 104.251C66.9293 103.408 66.8969 101.389 66.9841 100.659ZM68.6241 103.892C69.2133 103.864 70.185 103.843 70.7153 103.67C70.9671 103.309 71.1138 102.595 70.6508 102.331C70.0486 101.988 69.2351 102.116 68.5664 102.074C68.6085 102.708 68.6532 103.254 68.6241 103.892Z" fill="white"/>
<path d="M59.7693 100.699C61.0292 100.619 63.8275 100.568 64.8628 101.327C65.2723 101.628 65.6062 102.415 65.5885 102.944C65.501 105.552 63.7576 105.488 61.7846 105.473C60.7453 105.434 61.8911 108.039 61.2073 108.818C60.8143 108.954 60.1373 108.907 59.6955 108.901C59.7635 106.744 59.7099 104.565 59.7187 102.406C59.7208 101.887 59.6438 101.196 59.7693 100.699ZM61.3307 104.141C62.0429 104.132 63.0783 104.185 63.7155 103.93C64.0671 103.507 64.3172 102.786 63.758 102.419C63.0899 101.981 62.0712 102.081 61.2951 102.096C61.4019 102.721 61.4108 103.513 61.3307 104.141Z" fill="white"/>
<path d="M112.192 83.0323C112.905 83.1446 113.853 83.0803 114.592 83.0604C114.514 87.2135 114.5 91.3674 114.552 95.5213C113.692 95.4995 112.956 95.5255 112.096 95.5607L112.102 87.2506C112.101 86.4558 112.047 83.6051 112.192 83.0323Z" fill="white"/>
<path d="M25.3568 107.066C25.4117 107.098 25.4666 107.13 25.5216 107.162C30.4109 109.434 28.1078 102.201 28.8209 100.762C29.1679 100.551 30.0374 100.538 30.3508 100.79C30.4984 101.149 30.4366 101.661 30.4217 102.071C30.4197 103.712 30.6427 106.493 29.5803 107.758C27.8645 109.801 23.5316 109.109 23.354 106.103C23.2772 104.803 23.3598 103.552 23.2806 102.256C23.2454 101.678 23.12 101.053 23.5162 100.605C24.0107 100.65 24.3989 100.591 24.8719 100.745C25.3072 101.374 24.5917 105.444 25.3568 107.066Z" fill="white"/>
<path d="M49.7538 100.65C50.6969 100.762 53.7868 100.776 54.7514 100.716L54.6962 102.107C53.6362 102.143 52.4049 102.115 51.3421 102.086C51.3592 102.697 51.3633 103.198 51.3363 103.808C52.1874 103.732 52.9375 103.777 53.8557 103.674C53.8755 104.156 53.8665 104.704 53.8701 105.192C53.002 105.196 52.2145 105.157 51.3477 105.113L51.3651 106.827L51.3586 107.234C51.7751 107.918 53.6441 107.11 54.6061 107.481C55.0905 107.93 54.9129 108.806 54.1954 108.845C53.7224 108.872 53.212 108.818 52.7338 108.808C51.7057 108.787 50.6771 108.807 49.6506 108.87C49.7516 106.567 49.6175 104.239 49.6663 101.933C49.6762 101.467 49.6442 101.111 49.7538 100.65Z" fill="white"/>
<path d="M90.2915 100.673C91.7788 100.767 93.7998 100.745 95.2934 100.72C95.2925 101.141 95.2427 101.709 95.2182 102.141C94.1787 102.076 92.9534 102.117 91.8666 102.078C91.9063 102.718 91.9189 103.152 91.8945 103.793C92.7805 103.767 93.5669 103.732 94.4495 103.659C94.5027 105.131 94.4268 105.313 92.8581 105.164C92.5568 105.135 92.1957 105.124 91.8885 105.107L91.9105 106.281C91.9358 106.783 91.9105 106.987 91.8497 107.488C92.9686 107.428 94.3238 107.489 95.3904 107.329C95.4123 107.778 95.3895 108.357 95.3828 108.818C93.6488 108.88 92.0666 108.747 90.2611 108.896C90.1994 106.936 90.3255 104.932 90.2711 102.965C90.2505 102.221 90.2495 101.414 90.2915 100.673Z" fill="white"/>
<path d="M47.2529 100.603C47.6539 100.637 48.0921 100.63 48.4973 100.633C47.9952 101.802 45.5436 108.407 45.0376 108.772C44.8068 108.939 44.4848 108.977 44.212 108.938C43.8778 108.707 42.1817 104.322 41.8639 103.553C41.5901 102.732 41.056 101.566 40.7213 100.694C41.157 100.679 41.7174 100.608 42.1276 100.781C42.9074 101.108 44.2596 105.35 44.6204 106.331C45.1771 104.728 46.0151 102.593 46.7289 101.034C46.8138 100.849 47.0706 100.697 47.2529 100.603Z" fill="white"/>
<path d="M105.629 100.62C106.212 100.63 107.764 100.832 107.931 101.472C107.832 101.766 107.573 102.186 107.311 102.365C106.769 102.482 105.038 101.193 104.617 102.761C104.726 103.931 107.193 104.1 107.934 105.21C108.219 105.567 108.508 106.123 108.394 106.62C107.95 108.566 106.449 109.097 104.754 108.799C103.827 108.661 103.21 108.359 102.562 107.694C102.985 107.329 103.164 107.134 103.532 106.709C104.348 107.143 104.731 107.395 105.636 107.577C107.719 106.982 106.671 105.673 105.17 105.213C102.034 104.252 102.214 101.044 105.629 100.62Z" fill="white"/>
<path d="M99.0829 100.615C100.105 100.585 100.852 100.847 101.76 101.257C101.561 101.676 101.418 102.051 101.011 102.289C100.447 102.406 99.5479 101.63 98.7994 102.133C97.0856 103.249 99.6897 103.874 100.498 104.303C102.011 105.109 102.203 105.962 101.855 107.576C100.843 108.751 100.106 109.017 98.5463 108.831C97.5447 108.667 96.9835 108.317 96.2038 107.701C96.549 107.452 96.9928 107.017 97.3177 106.715C97.8231 107.075 98.7513 107.626 99.4264 107.546C99.9377 107.581 100.757 106.825 100.462 106.307C99.7917 105.035 96.9734 105.068 96.6806 103.402C96.3844 101.723 97.6881 100.889 99.0829 100.615Z" fill="white"/>
<path d="M83.9746 100.713C85.4306 100.668 87.6708 100.869 89.0146 100.615C88.991 102.921 87.6351 102.089 85.59 102.105C85.6252 102.698 85.6076 103.219 85.5917 103.811C86.4819 103.749 87.2733 103.749 88.1632 103.763C88.1812 104.172 88.2379 104.659 88.1087 105.037C87.9091 105.235 87.9987 105.177 87.6475 105.199L85.6055 105.135C85.6613 106.392 85.6931 107.587 85.5969 108.843C85.0497 108.911 84.5033 108.897 83.952 108.896C84.0092 107.136 83.9592 105.381 83.9448 103.625C83.9396 102.992 83.8598 101.192 83.9746 100.713Z" fill="white"/>
<path d="M110.436 100.639L111.56 100.611C111.459 103.309 111.551 106.056 111.407 108.734C111.401 108.837 111.178 108.878 111.084 108.912C110.692 108.91 110.278 108.923 109.885 108.932C109.825 108.421 109.816 100.902 109.95 100.694L110.436 100.639Z" fill="white"/>
<path d="M132.448 100.642C132.893 100.641 133.579 100.579 133.92 100.856C134.027 101.655 134.059 108.389 133.807 108.875C133.289 108.878 132.81 108.903 132.292 108.933C132.346 107.614 132.177 101.409 132.448 100.642Z" fill="white"/>
<path d="M72.4807 46.4886C73.2136 46.4909 77.5515 46.4094 77.8238 46.5697C77.9294 47.0348 77.479 47.6712 77.2277 48.0448C77.034 48.3329 76.1161 48.3079 75.7919 48.3132C74.3457 48.3776 72.5102 48.3024 71.0424 48.2627C70.6721 47.7797 70.368 47.1027 70.0926 46.5486C70.8889 46.5442 71.6873 46.5528 72.4807 46.4886Z" fill="white"/>
<path d="M55.5814 46.4302C55.893 46.4836 56.3224 46.5466 56.6385 46.5321C58.9395 46.4269 61.2184 46.4889 63.5207 46.5363C63.2619 46.9062 63.0733 47.1356 62.9337 47.5658C62.8514 47.7363 62.7662 47.9473 62.6233 48.0766C62.0781 48.5699 57.5107 48.293 56.5079 48.2575C56.0625 47.7615 55.715 47.0834 55.5814 46.4302Z" fill="white"/>
<path d="M86.5475 46.4886C87.0071 46.422 87.6667 46.5004 88.1626 46.4987C89.6257 46.4938 91.1915 46.6115 92.6395 46.4379C91.8362 47.716 92.1425 48.3534 90.39 48.3198C89.2404 48.3959 86.788 48.2957 85.5414 48.2836C85.1949 47.7175 84.9058 47.1033 84.6109 46.5075C85.1041 46.554 86.0627 46.5698 86.5475 46.4886Z" fill="white"/>
</svg>
