<svg width="148" height="148" viewBox="0 0 148 148" fill="none" xmlns="http://www.w3.org/2000/svg">
<path d="M122.037 72.528L122.464 72.2477C122.843 72.014 123.222 71.8271 123.554 71.5467C126.921 69.0701 128.77 65.3318 128.722 61.3131C128.627 54.4439 122.701 49.0701 115.731 49.0701H96.5283C96.3387 49.0701 96.1964 49.2103 96.1964 49.3972V63.229C96.1964 63.6495 96.5757 63.9299 97.0024 63.8365L119.714 58.2757C120.709 58.0421 121.136 59.4439 120.235 59.8178L96.6231 69.1168C96.3861 69.2103 96.2438 69.4439 96.2438 69.6776V84.771C96.2438 84.958 96.3861 85.0981 96.5757 85.0981H107.86C108.05 85.0981 108.192 84.958 108.192 84.771V74.257C108.192 74.0701 108.334 73.9299 108.524 73.9299H110.752C110.895 73.9299 110.99 74.0234 111.037 74.1168L116.442 84.9112C116.49 85.0514 116.632 85.0981 116.727 85.0981H127.821C128.058 85.0981 128.248 84.8645 128.106 84.6308L122.037 72.528ZM92.9249 64.8178C93.2568 64.7243 93.4464 64.4439 93.399 64.1168C91.9766 55.5654 84.3904 49.0701 75.3343 49.0701H57.6964C57.5068 49.0701 57.3645 49.2103 57.3645 49.3972V72.7617C57.3645 73.1822 57.7438 73.4626 58.1706 73.3692L68.8861 70.7523C69.1705 70.7056 69.3602 70.4252 69.3602 70.1449V61.3131C69.3602 61.1262 69.5024 60.986 69.6921 60.986H75.4766C78.8904 60.986 81.6878 63.743 81.6878 67.1075C81.6878 67.2477 81.6878 67.3411 81.6878 67.4813C81.6878 67.6215 81.83 67.5748 81.83 67.5748L92.9249 64.8178ZM92.7826 70.6122L73.9119 78.0888C69.5024 79.8178 69.9766 85.1449 75.3818 85.1449C80.2654 85.1449 84.8645 83.2757 88.3257 79.8645C90.9335 77.2944 92.593 74.5374 93.3042 70.986C93.3042 70.7056 93.0197 70.5187 92.7826 70.6122ZM47.3602 49.3037C47.3128 49.1636 47.1705 49.0701 47.0283 49.0701H27.8257C27.6835 49.0701 27.5412 49.1636 27.4938 49.3037L19.2912 81.8738C19.1964 82.3411 19.5757 82.7617 20.0499 82.6215L33.3731 79.3505C33.6102 79.3037 33.7999 79.1168 33.8473 78.8832L37.0714 66.0327C37.1662 65.7056 37.6404 65.7056 37.7352 66.0327L40.4852 76.9673C40.58 77.2944 40.9119 77.4813 41.2438 77.4346L53.0499 74.5374C53.3818 74.4439 53.5714 74.1168 53.524 73.7897L47.3602 49.3037Z" fill="white"/>
<path d="M26.3085 98.8365L28.6318 92.3411H30.3861L32.5197 98.8365H30.7654L29.2007 93.5094H29.9119L28.1102 98.8365H26.3085ZM27.9205 96.2664H30.6705V97.8551H27.9205V96.2664Z" fill="white"/>
<path d="M34.1318 93.9766L34.843 93.229V98.0888L34.0843 97.2009H37.4033V98.8365H33.0887V92.3411H37.4033V93.9766H34.1318ZM34.1792 96.4065V94.771H36.9292V96.4065H34.1792Z" fill="white"/>
<path d="M38.4938 98.8365V92.3411H40.9119C41.3861 92.3411 41.8128 92.4346 42.2395 92.6215C42.6188 92.8084 42.9507 93.0888 43.1878 93.4159C43.4249 93.7897 43.5197 94.2103 43.5197 94.7243C43.5197 95.2383 43.4249 95.6589 43.1878 96.0327C42.9507 96.4066 42.6188 96.6402 42.2395 96.8271C41.8602 97.014 41.3861 97.1075 40.9119 97.1075H39.8214V95.4252H40.8645C41.149 95.4252 41.3861 95.3785 41.5283 95.2383C41.6705 95.1449 41.7654 94.958 41.7654 94.7243C41.7654 94.4907 41.6705 94.3037 41.5283 94.2103C41.3861 94.0701 41.149 94.0234 40.8645 94.0234H39.8214L40.2481 93.6495V98.8365H38.4938ZM41.718 98.8365L40.4378 96.2664H42.3343L43.6145 98.8365H41.718Z" fill="white"/>
<path d="M44.0887 95.5654C44.0887 95.0514 44.1835 94.6308 44.3257 94.2103C44.468 93.7897 44.705 93.4626 44.9895 93.1355C45.274 92.8551 45.6533 92.6215 46.0326 92.4346C46.4593 92.2477 46.8861 92.2009 47.4076 92.2009C47.9292 92.2009 48.3559 92.2944 48.7826 92.4346C49.2093 92.6215 49.5412 92.8551 49.8731 93.1355C50.1576 93.4159 50.3947 93.7897 50.5843 94.2103C50.7266 94.6308 50.8214 95.0981 50.8214 95.5654C50.8214 96.0327 50.7266 96.5 50.5843 96.9206C50.4421 97.3411 50.205 97.6682 49.8731 97.9953C49.5887 98.2757 49.2093 98.5094 48.7826 98.6963C48.3559 98.8832 47.9292 98.9299 47.4076 98.9299C46.8861 98.9299 46.4593 98.8365 46.0326 98.6963C45.6059 98.5561 45.274 98.3224 44.9895 97.9953C44.705 97.715 44.468 97.3411 44.3257 96.9206C44.1835 96.5467 44.0887 96.0794 44.0887 95.5654ZM45.8904 95.5654C45.8904 95.9393 45.9378 96.2196 46.08 96.4533C46.2223 96.6869 46.4119 96.8738 46.649 97.014C46.8861 97.1542 47.1705 97.2009 47.455 97.2009C47.7869 97.2009 48.024 97.1542 48.3085 97.014C48.5455 96.8738 48.7352 96.6869 48.8774 96.4533C49.0197 96.2196 49.0671 95.8925 49.0671 95.5654C49.0671 95.1916 49.0197 94.9112 48.8774 94.6776C48.7352 94.4439 48.5455 94.257 48.3085 94.1168C48.0714 93.9766 47.7869 93.9299 47.455 93.9299C47.1231 93.9299 46.8861 93.9766 46.649 94.1168C46.4119 94.257 46.2223 94.4439 46.08 94.6776C45.9378 94.9112 45.8904 95.2383 45.8904 95.5654Z" fill="white"/>
<path d="M53.0024 95.5654H54.0455C54.33 95.5654 54.5671 95.5187 54.7093 95.3785C54.8516 95.2383 54.9464 95.0514 54.9464 94.8178C54.9464 94.5374 54.8516 94.3505 54.7093 94.2103C54.5671 94.0701 54.33 94.0234 54.0455 94.0234H53.0024L53.4292 93.6495V98.8365H51.6749V92.3411H54.093C54.6145 92.3411 55.0887 92.4346 55.468 92.6215C55.8473 92.8084 56.1792 93.0888 56.3688 93.4626C56.6059 93.8365 56.7007 94.257 56.7007 94.8178C56.7007 95.3785 56.6059 95.7991 56.3688 96.1729C56.1318 96.5467 55.8473 96.8271 55.468 97.014C55.0887 97.2009 54.6145 97.2944 54.093 97.2944H53.0024V95.5654Z" fill="white"/>
<path d="M57.2223 95.5654C57.2223 95.0514 57.3171 94.6308 57.4593 94.2103C57.6016 93.7897 57.8387 93.4626 58.1231 93.1355C58.4076 92.8551 58.7869 92.6215 59.1662 92.4346C59.593 92.2477 60.0197 92.2009 60.5412 92.2009C61.0628 92.2009 61.4895 92.2944 61.9162 92.4346C62.343 92.6215 62.6749 92.8551 63.0068 93.1355C63.2912 93.4159 63.5283 93.7897 63.718 94.2103C63.8602 94.6308 63.955 95.0981 63.955 95.5654C63.955 96.0327 63.8602 96.5 63.718 96.9206C63.5757 97.3411 63.3387 97.6682 63.0068 97.9953C62.7223 98.2757 62.343 98.5094 61.9162 98.6963C61.4895 98.8832 61.0628 98.9299 60.5412 98.9299C60.0197 98.9299 59.593 98.8365 59.1662 98.6963C58.7395 98.5561 58.4076 98.3224 58.1231 97.9953C57.8387 97.715 57.6016 97.3411 57.4593 96.9206C57.3171 96.5467 57.2223 96.0794 57.2223 95.5654ZM59.024 95.5654C59.024 95.9393 59.0714 96.2196 59.2137 96.4533C59.3559 96.6869 59.5456 96.8738 59.7826 97.014C60.0197 97.1542 60.3042 97.2009 60.5887 97.2009C60.9206 97.2009 61.1576 97.1542 61.4421 97.014C61.6792 96.8738 61.8688 96.6869 62.0111 96.4533C62.1533 96.2196 62.2007 95.8925 62.2007 95.5654C62.2007 95.1916 62.1533 94.9112 62.0111 94.6776C61.8688 94.4439 61.6792 94.257 61.4421 94.1168C61.205 93.9766 60.9206 93.9299 60.5887 93.9299C60.2568 93.9299 60.0197 93.9766 59.7826 94.1168C59.5456 94.257 59.3559 94.4439 59.2137 94.6776C59.0714 94.9112 59.024 95.2383 59.024 95.5654Z" fill="white"/>
<path d="M64.8085 98.8365V92.3411H67.2266C67.7007 92.3411 68.1274 92.4346 68.5542 92.6215C68.9809 92.8084 69.2654 93.0888 69.5024 93.4159C69.7395 93.7897 69.8343 94.2103 69.8343 94.7243C69.8343 95.2383 69.7395 95.6589 69.5024 96.0327C69.2654 96.4066 68.9335 96.6402 68.5542 96.8271C68.1749 97.014 67.7007 97.1075 67.2266 97.1075H66.1361V95.4252H67.1792C67.4636 95.4252 67.7007 95.3785 67.843 95.2383C67.9852 95.1449 68.08 94.958 68.08 94.7243C68.08 94.4907 67.9852 94.3037 67.843 94.2103C67.7007 94.0701 67.4636 94.0234 67.1792 94.0234H66.1361L66.5628 93.6495V98.8365H64.8085ZM67.9852 98.8365L66.705 96.2664H68.6016L69.8818 98.8365H67.9852Z" fill="white"/>
<path d="M70.3559 94.0234V92.3411H75.8559V94.0234H70.3559ZM72.2524 98.8365V92.9486H74.0068V98.8365H72.2524Z" fill="white"/>
<path d="M78.2266 98.8365H76.4723V92.3411H78.2266V98.8365Z" fill="white"/>
<path d="M82.1145 98.8365V92.3411H84.5326C85.2438 92.3411 85.8602 92.4813 86.3343 92.715C86.8085 92.9486 87.1878 93.3224 87.4723 93.8365C87.7093 94.3037 87.8516 94.9112 87.8516 95.5654C87.8516 96.2664 87.7093 96.8271 87.4723 97.2944C87.2352 97.7617 86.8559 98.1355 86.3343 98.4159C85.8602 98.6495 85.2438 98.7897 84.5326 98.7897H82.1145V98.8365ZM83.8688 97.9019L83.1102 97.1542H84.3904C84.7697 97.1542 85.0542 97.1075 85.2912 97.014C85.5283 96.9206 85.718 96.7337 85.8602 96.5C86.0024 96.2664 86.0499 95.986 86.0499 95.6122C86.0499 95.2383 86.0024 94.958 85.8602 94.7243C85.718 94.4907 85.5283 94.3505 85.2912 94.2103C85.0542 94.1168 84.7223 94.0701 84.3904 94.0701H83.0154L83.8688 93.6028V97.9019Z" fill="white"/>
<path d="M90.4593 98.8365H88.705V92.3411H90.4593V98.8365Z" fill="white"/>
<path d="M94.2999 98.8365V92.3411H96.718C97.1921 92.3411 97.6188 92.4346 98.0456 92.6215C98.4723 92.8084 98.7568 93.0888 98.9938 93.4159C99.2309 93.7897 99.3257 94.2103 99.3257 94.7243C99.3257 95.2383 99.2309 95.6589 98.9938 96.0327C98.7568 96.4066 98.4249 96.6402 98.0456 96.8271C97.6662 97.014 97.1921 97.1075 96.718 97.1075H95.6274V95.4252H96.6705C96.955 95.4252 97.1921 95.3785 97.3344 95.2383C97.4766 95.1449 97.5714 94.958 97.5714 94.7243C97.5714 94.4907 97.4766 94.3037 97.3344 94.2103C97.1921 94.0701 96.955 94.0234 96.6705 94.0234H95.6274L96.0542 93.6495V98.8365H94.2999ZM97.524 98.8365L96.2438 96.2664H98.1404L99.4205 98.8365H97.524Z" fill="white"/>
<path d="M99.9421 95.5654C99.9421 95.0514 100.037 94.6308 100.179 94.2103C100.321 93.7897 100.558 93.4626 100.843 93.1355C101.127 92.8551 101.507 92.6215 101.886 92.4346C102.313 92.2477 102.74 92.2009 103.261 92.2009C103.783 92.2009 104.209 92.2944 104.636 92.4346C105.063 92.6215 105.395 92.8551 105.727 93.1355C106.011 93.4159 106.248 93.7897 106.438 94.2103C106.58 94.6308 106.675 95.0981 106.675 95.5654C106.675 96.0327 106.58 96.5 106.438 96.9206C106.296 97.3411 106.058 97.6682 105.727 97.9953C105.442 98.2757 105.063 98.5094 104.636 98.6963C104.209 98.8832 103.783 98.9299 103.261 98.9299C102.74 98.9299 102.313 98.8365 101.886 98.6963C101.459 98.5561 101.127 98.3224 100.843 97.9953C100.558 97.715 100.321 97.3411 100.179 96.9206C100.037 96.5 99.9421 96.0794 99.9421 95.5654ZM101.696 95.5654C101.696 95.9393 101.744 96.2196 101.886 96.4533C102.028 96.6869 102.218 96.8738 102.455 97.014C102.692 97.1542 102.977 97.2009 103.261 97.2009C103.593 97.2009 103.83 97.1542 104.115 97.014C104.352 96.8738 104.541 96.6869 104.683 96.4533C104.826 96.2196 104.873 95.8925 104.873 95.5654C104.873 95.1916 104.826 94.9112 104.683 94.6776C104.541 94.4439 104.352 94.257 104.115 94.1168C103.877 93.9766 103.593 93.9299 103.261 93.9299C102.929 93.9299 102.692 93.9766 102.455 94.1168C102.218 94.257 102.028 94.4439 101.886 94.6776C101.791 94.9112 101.696 95.2383 101.696 95.5654Z" fill="white"/>
<path d="M107.007 98.8365L108.145 92.3411H109.709L111.132 96.5467H110.99L112.412 92.3411H113.977L115.115 98.8365H113.408L113.028 96.0794C112.981 95.7523 112.933 95.3785 112.886 95.0514C112.839 94.7243 112.791 94.3505 112.744 94.0234H113.265C113.171 94.3505 113.076 94.6776 113.028 95.0514C112.933 95.3785 112.839 95.7523 112.744 96.0794L111.843 98.8365H110.468L109.567 96.0794C109.472 95.7523 109.33 95.4252 109.283 95.0514C109.188 94.7243 109.093 94.3505 109.046 94.0234H109.567C109.52 94.3505 109.472 94.7243 109.425 95.0514C109.377 95.3785 109.33 95.7523 109.283 96.0794L108.903 98.8365H107.007Z" fill="white"/>
<path d="M115.541 98.8365L117.865 92.3411H119.619L121.752 98.8365H119.998L118.433 93.5094H119.145L117.343 98.8365H115.541ZM117.153 96.2664H119.903V97.8551H117.153V96.2664Z" fill="white"/>
</svg>
