<svg width="148" height="148" viewBox="0 0 148 148" fill="none" xmlns="http://www.w3.org/2000/svg">
<path d="M23.3823 71.9243C23.4545 71.9373 23.555 71.9695 23.6281 71.9904C23.7694 72.5442 24.7013 75.989 24.632 76.2148C24.4196 76.304 23.9876 76.2737 23.7408 76.2707L22.9655 76.282C22.7683 76.2833 22.5363 76.3109 22.4092 76.1812C22.4084 75.349 23.3499 72.9392 23.3816 71.9511L23.3823 71.9243Z" fill="white"/>
<path d="M55.7094 68.5399C57.6006 68.5529 58.4513 69.2042 58.4011 71.2181C58.3791 72.0986 58.3694 72.7394 57.7078 73.4112C57.5649 73.4508 57.293 73.6528 57.0044 73.7372C56.1851 73.9768 55.378 73.9167 54.5328 73.9073C54.516 73.2755 54.4597 68.8396 54.6048 68.5416L55.7094 68.5399Z" fill="white"/>
<path fill-rule="evenodd" clip-rule="evenodd" d="M12 62.148C12.4705 62.329 22.5514 62.221 23.9036 62.2207L67.2508 62.2221C69.0329 62.2222 71.0076 62.1779 72.778 62.2265L72.7762 78.8151C72.7756 79.5975 72.7106 85.6316 72.8478 86C70.5223 85.9436 68.0121 85.9883 65.6737 85.9883L12.0119 85.9875L12.0129 70.5884C12.0129 67.8042 12.0489 64.9213 12 62.148ZM26.6646 64.2394C25.9782 64.0563 24.0471 64.1936 23.2186 64.1896C19.7375 64.1729 20.5197 63.6624 19.5242 66.7048L16.7058 75.3746C16.089 77.2538 15.482 79.1365 14.8846 81.0224C14.5627 82.0289 14.2426 82.8436 13.9817 83.8866L13.9726 83.9229C14.1595 84.0659 19.6294 84.0075 20.1932 83.9594C20.6486 83.6998 20.8705 81.0701 21.2335 80.7627C21.788 80.706 25.595 80.6466 25.8753 80.8269C26.0863 81.2214 26.3964 82.9871 26.4946 83.1004C26.5054 83.2758 26.5968 83.9998 26.8248 84.0014C32.9841 84.045 39.1556 84.0115 45.319 84.0181C45.5289 84.0184 45.9129 84.0075 46.098 83.9382C46.2074 83.6905 46.2494 82.9829 46.221 82.716C46.1629 82.1714 46.3458 79.9425 46.0646 79.597C45.6571 79.5035 44.1908 79.5386 43.6769 79.5389L38.8694 79.5438L38.8725 76.3123L43.3274 76.3172C43.989 76.3174 45.5876 76.364 46.1406 76.2154C46.3144 76.0083 46.1586 73.8462 46.2173 73.4206C46.2648 73.0765 46.242 72.1754 46.0808 71.8644C45.8724 71.7323 39.6445 71.7868 38.8694 71.7874V68.6661H48.1041C48.162 70.2309 48.108 72.1974 48.1082 73.788L48.109 84.0292L54.545 84.0216C54.6199 82.3222 54.5557 80.029 54.5559 78.2855C55.476 78.2875 59.354 78.4113 59.871 78.0696C60.8425 78.1065 62.8793 76.5715 63.4417 75.7397C63.6226 75.4723 63.8929 74.9545 64.0853 74.6513C64.4101 74.8689 64.0182 82.7355 64.2523 83.8251C64.6033 84.0937 66.2839 84.0067 66.8003 84.0057L70.5957 83.9962L70.5951 64.1847H64.2025C64.2026 64.6602 64.2458 67.6905 64.1439 67.8192C63.9983 67.7525 63.5892 66.978 63.4369 66.7775C61.4424 64.1537 59.2848 64.1872 56.4102 64.1924L51.6298 64.1949L39.7764 64.186C37.3439 64.186 34.842 64.2161 32.4141 64.1728C32.2912 64.2956 32.3067 64.4183 32.3065 64.6257C32.3013 68.8571 32.3106 73.091 32.3083 77.3222C32.308 77.8483 32.3349 80.8667 32.2686 81.0711C32.0861 80.9147 32.2755 80.8271 32.0446 80.6582C32.0108 80.4332 31.7422 79.7054 31.6495 79.416C31.3177 78.3664 30.9807 77.3185 30.6385 76.2723L27.7953 67.4672C27.6345 66.9659 26.8724 64.4327 26.6646 64.2394Z" fill="white"/>
<path fill-rule="evenodd" clip-rule="evenodd" d="M124.584 70.9809C125.7 70.2202 126.767 70.0428 128.053 70.5473C131.164 71.7678 131.375 76.9496 128.864 78.8343C128.059 79.4285 127.059 79.6698 126.082 79.5059C125.224 79.365 124.785 79.0314 124.179 78.4369L124.042 78.3983C123.864 78.8295 124.12 81.7861 123.922 82.0334L123.839 82.064C123.192 82.0108 122.142 82.0457 121.467 82.0469C121.375 81.8742 121.358 71.3412 121.462 70.3967C121.692 70.2335 123.583 70.2793 123.93 70.3181L124.002 70.4186C123.992 70.7214 123.956 71.235 124.017 71.5124L124.083 71.5519L124.17 71.4672C124.191 71.2973 124.453 71.07 124.584 70.9809ZM126.281 72.4527C126.011 72.4228 125.626 72.4639 125.347 72.4809C124.959 72.6862 124.653 72.9 124.402 73.2704C123.552 74.5259 123.843 76.8589 125.438 77.3419C125.764 77.4407 126.291 77.4706 126.59 77.3033C126.663 77.2616 126.734 77.2166 126.804 77.1686C126.965 77.1885 127.116 77.0798 127.239 76.9812C128.714 75.7914 128.349 72.6808 126.281 72.4527ZM124.154 71.5386C124.149 71.5542 124.144 71.5697 124.138 71.5852C124.134 71.5929 124.131 71.6006 124.128 71.6082C124.138 71.5852 124.147 71.5621 124.154 71.5386Z" fill="white"/>
<path fill-rule="evenodd" clip-rule="evenodd" d="M103.521 70.3022C105.994 69.6621 108.503 71.2145 109.123 73.7701C109.743 76.3255 108.24 78.9167 105.767 79.558C103.293 80.1996 100.783 78.6472 100.163 76.0908C99.5425 73.5345 101.046 70.9427 103.521 70.3022ZM105.174 72.516C104.809 72.4125 104.466 72.4527 104.091 72.4836C102.676 73.094 101.935 74.4271 102.57 75.9573C102.815 76.5576 103.285 77.0299 103.872 77.2668C104.256 77.4252 104.826 77.4849 105.214 77.3705L105.246 77.351C105.442 77.2368 105.627 77.1879 105.815 77.0902C106.946 76.5023 107.176 74.7404 106.591 73.6754C106.287 73.1096 105.777 72.6922 105.174 72.516Z" fill="white"/>
<path d="M86.1217 67.4921C87.2797 67.4974 88.5989 67.7417 89.607 68.3482C89.8004 68.4645 90.4731 68.9191 90.5239 69.1214C90.3174 69.6903 89.4435 70.3795 89.1265 70.9431L88.997 70.9653C88.5475 70.6734 88.0622 70.3866 87.6128 70.0949C87.2129 69.8351 87.0815 70.1177 86.61 69.8646C86.1199 69.6771 85.0569 70.002 84.6372 70.2265C82.0425 71.6159 82.2663 76.121 85.1255 77.0505C86.4446 77.4794 87.3997 77.1995 88.5678 76.5784C88.674 76.3778 88.6204 75.2078 88.6162 74.9141C87.768 74.9219 86.9198 74.9177 86.0722 74.9012C86.0704 74.2774 86.0393 73.2183 86.1056 72.6322L91.0044 72.634C91.0121 74.0533 91.0682 76.1851 90.9602 77.6305C90.8116 78.1049 89.8953 78.5594 89.5497 78.7446C86.5372 80.357 82.3833 79.6911 80.8069 76.3239C80.0847 74.7813 80.053 72.5788 80.7317 71.0263C81.6903 68.8338 83.7992 67.5405 86.1217 67.4921Z" fill="white"/>
<path fill-rule="evenodd" clip-rule="evenodd" d="M111.398 70.3176C111.724 70.2914 113.558 70.23 113.757 70.3669L113.778 70.4923C113.835 72.3392 113.67 74.2233 113.887 76.048C114.093 77.7871 116.773 77.5394 116.776 75.8508L116.776 75.8107L116.77 75.653C116.712 74.0145 116.78 72.0878 116.759 70.4206L116.784 70.3876C116.836 70.32 116.846 70.3142 116.989 70.3095C117.36 70.2975 119.058 70.2309 119.296 70.3655L119.314 70.4932C119.317 71.264 119.367 79.1833 119.286 79.3762L119.269 79.3797C118.896 79.4535 117.143 79.4138 116.768 79.3871C116.759 79.0899 116.842 78.5343 116.725 78.3489C116.641 78.3722 116.585 78.4255 116.525 78.4869L116.464 78.5504C116.24 78.5802 115.68 79.585 114.433 79.5443C111.288 79.4416 111.325 77.1476 111.331 74.5791C111.346 73.1897 111.343 71.8001 111.324 70.4108L111.398 70.3176Z" fill="white"/>
<path d="M98.8435 70.2843C98.8429 71.0283 98.8745 72.2238 98.8333 72.9349C95.3158 72.9572 96.0046 76.7778 96.0112 79.3954H93.5609C93.5054 79.1433 93.5245 77.1467 93.5245 76.7449L93.5305 70.2996C93.9555 70.2953 95.6488 70.2552 95.9592 70.3402L95.9962 70.4846L95.9978 70.5483C96.0031 70.904 95.9768 71.7868 96.0345 71.9406L96.1031 71.962C96.395 71.6646 96.1873 71.6628 96.435 71.3881C97.2152 70.5233 97.7058 70.2809 98.8435 70.2843Z" fill="white"/>
<path fill-rule="evenodd" clip-rule="evenodd" d="M75.1053 62.0433C79.0103 61.9499 83.3461 62.0367 87.269 62.0365L133.127 62.0368C133.966 62.0369 135.105 62.001 135.928 62.0459L136 62.1477L135.993 62.3935C135.93 64.9428 135.987 67.8007 135.987 70.3584L135.988 85.9724L75.0444 85.9714L75.0462 70.5739C75.0462 67.8009 75.0862 64.9134 75.0325 62.1477L75.1053 62.0433ZM89.702 64.3289C85.5583 64.329 81.2946 64.2738 77.1592 64.331C77.0058 64.6943 77.0476 82.4159 77.0966 83.8411C77.9078 83.8936 78.9201 83.867 79.7444 83.8664L121.779 83.8651C125.758 83.8649 129.851 83.9183 133.821 83.8626C133.966 83.6845 133.906 77.6798 133.906 77.0434V64.3593C133.253 64.2921 132.25 64.3252 131.563 64.3259L89.702 64.3289Z" fill="white"/>
</svg>
