<svg width="148" height="148" viewBox="0 0 148 148" fill="none" xmlns="http://www.w3.org/2000/svg">
<path d="M23.5 23.5H124.5V124.5H23.5V23.5ZM69.0691 56.4936C68.5099 57.0001 67.6287 56.8994 66.9015 57.065C66.1687 57.2318 65.17 57.1953 64.4092 57.166C63.9484 56.8509 63.719 56.8704 63.1596 56.7799L63.1088 56.7321C62.493 56.1443 62.0716 55.2495 61.1586 55.2774C60.511 55.2972 60.1366 55.5055 59.5297 55.5991C59.2417 56.5227 58.5829 57.4794 58.8595 58.551C59.1135 59.5349 58.2391 61.6163 57.2121 61.9218C56.9069 62.0125 56.0556 62.0819 55.7915 61.9663C55.7456 61.8611 55.6971 61.757 55.6461 61.6541L55.562 61.6508L55.4992 61.7167C55.295 61.929 55.2337 62.0051 54.9478 62.1055C54.6169 62.6326 54.1789 63.5049 53.5295 63.6336C52.6613 63.8057 51.5871 63.7908 50.8167 63.3051C50.2007 62.9168 50.8779 61.9324 51.0231 61.462C51.0861 61.2581 50.9101 60.7536 51.0112 60.5476C51.197 60.4027 51.4034 60.3892 51.6414 60.3444L52.1209 59.8262C52.2653 59.283 52.152 59.0556 52.0104 58.5159C51.6911 58.3934 51.0122 58.0765 50.732 58.0776C49.5313 58.0979 48.5785 58.0611 47.4664 57.4926C46.0083 56.7473 44.8375 57.8751 43.6454 58.3014C42.947 58.5511 40.5051 58.3849 39.6922 58.382C39.6337 58.9789 39.4674 60.2537 39.8552 60.7315C40.1681 61.117 40.7941 61.3782 41.2007 61.677C41.2699 61.9605 41.3324 62.4472 41.4419 62.6733C41.6716 63.1474 42.2028 63.5136 42.6288 63.8071C43.3937 64.334 44.0325 64.9903 44.6281 65.6988C44.9303 66.0583 45.1248 65.992 45.2986 66.5142L45.2426 66.554C45.053 66.437 45.0307 66.3488 44.919 66.1434C44.0641 66.2304 43.4036 65.9973 42.564 65.8745C41.6921 65.7469 40.494 65.8288 39.6535 65.5987C38.5263 65.29 37.1689 64.661 36.0648 64.2036C35.6245 64.0213 35.2065 63.6475 34.7842 63.4237C33.5791 62.7427 32.4938 61.9793 31.4071 61.1194C31.0479 60.8352 29.9204 60.1305 29.5023 60.5649C28.7906 61.3519 29.2225 62.3923 29.6863 63.1742C30.2226 64.0781 29.7679 63.9454 29.4337 64.6293C29.7633 65.6913 30.1453 66.1382 30.9602 66.8893C31.315 67.2167 31.6374 67.6358 32.074 67.8549C32.1992 67.9178 32.3346 67.9874 32.3508 68.1392C32.4557 69.1228 32.2631 69.9394 32.8558 70.8182C33.3071 71.4874 33.8351 72.1813 34.3031 72.842C34.2917 72.8738 34.2802 72.9056 34.2688 72.9374L34.1987 72.9567C34.0853 72.8367 34.0708 72.8089 33.9839 72.6741C32.9409 73.2968 32.7885 72.9761 32.0073 74.0866C31.9561 74.482 31.8348 76.2338 32.0317 76.4911C32.3969 76.213 33.5696 75.0907 33.9764 75.78C34.3873 76.4763 33.2256 77.3096 33.57 78.0039C33.658 78.1776 34.1923 78.5354 34.3869 78.7427C34.3924 80.1768 34.1352 81.0606 35.166 82.2111C35.2733 83.3785 34.9788 83.5012 34.454 84.5008C34.2828 84.8265 34.1136 85.3688 34.0215 85.732C34.1552 86.1695 34.2524 86.2808 34.5172 86.6723C34.9834 86.7262 35.1881 86.8766 35.6124 87.079C36.5785 86.6901 37.1863 85.7533 38.2249 86.6752C38.6188 86.7153 38.8341 86.7297 39.2278 86.7208C39.6042 86.4664 39.8826 86.362 40.2934 86.1903C40.4096 86.1418 40.6145 85.8562 40.7431 85.7721C42.6984 84.4929 42.6998 85.4613 42.4599 87.1983C40.8874 87.2314 39.9175 87.799 38.9008 88.9362C38.5907 89.2831 37.8528 90.2807 38.0817 90.742C38.1455 90.783 38.2223 90.8325 38.3117 90.8899C38.4313 91.1903 38.8442 91.9796 38.8992 92.2339C38.9119 92.2918 38.9233 92.3507 38.9336 92.4091C39.7445 93.1074 39.5153 93.7141 39.7308 94.6038C39.8033 94.9032 40.0487 95.16 40.0816 95.551C40.0907 95.6702 40.0975 95.789 40.1022 95.9082C40.4106 96.2289 40.6831 96.512 41.0146 96.8118C41.28 96.8277 41.4033 96.8668 41.6164 97.0083C42.1221 97.3438 43.026 96.8415 43.4362 96.4833C44.1703 96.5045 44.5011 97.0667 45.2487 96.7797C45.5017 96.6822 45.7922 96.5639 46.0588 96.5209C46.3241 96.4363 47.9306 96.5144 48.0721 96.3566C48.6413 95.7232 49.0584 94.3974 48.6722 93.6017C48.1967 92.6224 47.9971 92.3121 47.1061 91.7623C46.7274 91.5778 45.575 91.748 45.027 91.7079C44.9276 91.8232 44.8017 91.9791 44.6972 92.0845L44.176 91.8569C43.8024 90.8276 44.1174 91.0225 44.7317 90.2872C45.3728 89.5202 46.1736 89.2648 46.8478 88.5522C46.9858 88.4062 47.2034 88.2766 47.3397 88.141C48.1613 87.323 48.1901 86.4817 49.2877 87.5239C50.2572 87.567 51.3307 87.4403 52.1639 87.4922C52.8179 88.334 52.5312 88.2875 52.9121 89.2232C53.4042 90.4332 54.1055 90.7256 54.8969 91.5431C55.2701 91.6075 55.3202 91.5941 55.5449 91.8861C56.166 91.986 56.4488 92.276 56.8447 92.3458C57.9043 92.5328 59.3399 92.4601 60.403 92.3651C61.2026 92.2938 61.7401 91.3061 62.3763 90.9399C62.9658 90.6009 63.8045 90.6464 64.3879 90.2778C64.8378 89.9848 64.5023 88.8808 64.5723 88.427C64.6136 88.1603 64.8084 87.9826 64.8889 87.7313C65.2708 86.5812 65.4721 86.0285 64.98 84.8769C64.69 84.1985 64.7552 84.148 64.1967 83.5962C63.4797 83.4577 62.7887 83.4948 62.0639 83.5685C61.4132 84.2069 60.4132 85.1867 59.9745 85.9612C59.607 86.6094 59.2377 86.7262 58.4699 86.839C58.1098 86.4159 57.6962 86.3046 57.4257 85.8087C57.1321 85.2703 57.0673 84.6998 56.9659 84.1054C56.719 82.5204 56.4297 80.5484 54.7383 79.866C54.2211 79.6572 53.8867 79.5458 53.3179 79.5038C52.8465 79.4686 52.1669 79.5503 51.8136 79.2039C51.7022 79.095 51.6755 78.9792 51.6842 78.8288C51.7104 78.375 52.5799 77.8495 52.9457 77.5961C53.8164 76.9924 55.1084 76.0784 56.2147 76.2818C57.3136 76.4837 57.629 77.1601 58.4227 77.7842C58.779 77.796 59.1607 77.8139 59.4498 77.7045C61.7416 76.8375 62.0557 76.3115 63.2674 78.7541C63.6288 79.483 63.9902 80.5905 65.0256 80.0333C65.49 79.3207 65.5431 78.4715 65.8278 77.6698C65.8561 77.5897 65.8646 77.2403 65.867 77.1384C66.4321 76.3377 66.9009 76.3684 67.5058 75.6202C67.5426 75.1332 67.5337 74.6517 67.6283 74.1816C67.9689 74.9318 68.2245 74.9674 68.7158 75.5514C69.6261 76.6336 70.6663 77.4991 71.7568 78.3918C72.0552 78.6363 72.7381 78.8248 73.0822 79.1039C73.2509 79.3499 73.2124 79.2811 73.4388 79.4058C74.1652 79.8076 74.4754 79.5815 75.1032 79.1841C76.6226 78.2211 78.0119 77.2393 79.2206 75.8889C79.4075 75.68 79.6053 75.2569 79.7409 74.9952C80.2657 75.0253 80.2109 75.6865 80.49 75.9735C80.925 76.4203 81.5494 76.6396 81.8374 77.2428C82.3996 78.329 81.8591 79.9269 83.5437 80.2693C84.0058 79.7562 84.1261 79.1326 84.4827 78.5606C84.8457 77.9781 85.3911 77.5427 85.7541 76.9568C87.0851 76.9112 87.7228 77.7936 88.72 77.7738C90.5979 77.7362 90.4653 75.4915 93.0144 76.4901C93.3079 76.6054 93.8114 76.7801 94.0392 76.9894C94.1674 77.1072 94.2656 77.2646 94.4022 77.3719C94.8628 77.7337 96.3014 78.3666 96.2565 79.0792C96.2526 79.147 96.2077 79.2202 96.1593 79.2658C95.4107 79.9685 93.588 78.7402 91.9467 80.8018C91.5187 81.3392 91.2233 81.9563 91.0995 82.6352C90.8248 84.1455 90.9811 85.0343 90.0564 86.4041C89.6811 86.5777 89.333 86.7034 88.9384 86.8276C87.8337 86.3165 87.7257 85.926 87.0846 84.9606C86.5796 84.2 85.5859 83.4542 84.6282 83.5319C83.7538 83.6022 83.7425 83.5072 83.019 84.0634C82.9228 84.5439 82.8183 84.7196 82.7078 85.1239C82.5224 85.7993 82.5268 86.9068 82.7976 87.5635C82.9016 87.8159 83.2646 88.4389 83.2611 88.6522C83.2547 89.0936 82.7749 89.4717 83.1442 89.9818C83.5674 90.5435 84.422 90.497 84.9966 90.7489C85.5001 90.9696 85.977 91.504 86.4307 91.8173C86.7922 92.0672 86.8494 92.0217 87.1132 92.3784C88.6189 92.4279 89.5786 92.4611 91.0995 92.3567C91.5448 92.0419 91.7593 92.0078 92.2569 91.8168C92.9281 91.5387 93.6269 90.9993 94.1369 90.4831C94.5141 90.1011 94.8071 89.1639 95.0374 88.668C95.2381 88.236 95.2095 87.4621 95.7811 87.4175C96.4562 87.3651 97.0737 87.5526 97.7449 87.5387C98.3889 87.5387 99.1228 86.9642 99.3871 87.0528C100.268 87.3477 101.561 89.1198 102.304 89.7428C102.935 90.2728 102.983 89.8601 103.55 90.642C103.524 90.9829 103.582 91.7945 103.442 91.9746C103.177 92.1201 102.636 91.7999 102.321 91.7391C101.704 91.6193 101.093 91.7168 100.468 91.7302C99.5252 92.6551 98.9625 92.9762 99.0123 94.3895C99.0301 94.8992 98.9659 95.3773 99.2505 95.8672C99.3753 96.0824 99.4566 96.122 99.5454 96.3556C99.865 96.5748 101.685 96.4452 102.235 96.4996C102.859 97.4146 103.766 96.7183 104.03 96.505C104.044 96.4942 105.477 97.1137 105.718 97.1949C106.202 96.9093 106.426 96.9079 106.981 96.8123C107.622 96.0518 107.565 95.5579 107.845 94.6795C108.041 94.0619 108.286 93.4463 108.463 92.7832C108.64 92.1172 109.607 91.2254 109.503 90.4109C109.393 89.2297 108.392 88.3518 107.414 87.7877C106.822 87.4462 105.116 87.2626 105.015 86.3461C105.005 86.0012 105.065 85.5945 105.312 85.3297C105.437 85.1951 105.614 85.1204 105.797 85.1234C106.499 85.1333 107.618 86.3268 108.206 86.6718C108.36 86.6732 108.881 86.6802 108.997 86.647C109.912 86.3907 109.905 86.2026 110.875 86.1883C111.407 86.7128 111.808 86.9603 112.537 87.0602C112.852 86.8549 113.291 86.4253 113.581 86.1591C113.539 85.3386 113.497 84.8111 113.045 84.0921C112.633 83.4364 112.661 82.6991 112.76 81.9647C112.831 81.267 113.468 81.018 113.55 80.3901C113.698 79.2658 113.233 78.9065 114.196 78.0954C114.311 77.6609 114.4 77.464 114.154 77.0602C113.712 76.3337 113.08 76.1442 114.096 75.5063C114.664 75.6795 114.984 75.7335 115.371 76.1986C115.59 76.2239 115.829 76.2556 116.049 76.2714C115.853 74.4587 116.043 75.1298 115.398 73.4789C114.799 73.2251 114.468 73.042 113.808 72.9703C113.39 72.4797 114.422 71.4243 114.696 71.0113C115.176 70.34 115.451 69.5584 115.501 68.7376C115.534 68.1944 115.496 67.7562 116.014 67.4541C116.863 66.9578 117.38 66.4142 117.864 65.5461C118.043 65.2237 118.15 64.968 118.423 64.6911L118.374 64.6363C118.089 64.3243 117.656 64.1243 117.624 63.8385C117.708 63.6357 117.703 63.6856 117.898 63.5287C118.343 62.1851 118.818 62.1399 118.179 60.5918C118.05 60.4866 117.894 60.4442 117.722 60.4809C116.502 60.7421 115.515 61.9579 114.519 62.5577C114.029 62.8525 113.95 62.6566 113.515 63.271C112.663 63.7962 111.549 64.1996 110.65 64.6644C110.215 64.8897 109.87 65.0768 109.43 65.2643C107.561 65.8831 105.343 65.9557 103.366 66.1329C103.23 66.2445 103.101 66.3509 102.969 66.4678C102.755 66.5099 102.597 66.5677 102.396 66.4988C102.166 66.241 103.003 65.6165 103.253 65.3169L103.796 65.174C104.445 64.3267 105.265 63.7072 105.972 62.9564C106.248 62.6633 106.602 61.6925 106.868 61.2598C107.572 60.9613 107.79 60.8106 108.116 60.0777C108.482 59.2539 108.07 59.0937 107.807 58.4339C107.28 58.4278 106.373 58.4013 105.871 58.4274C104.29 58.5098 103.731 58.4289 102.525 57.372C101.497 57.1828 100.9 57.241 99.9074 57.5289C99.289 57.7083 99.2855 57.6975 98.8096 58.0473C98.6735 58.1474 97.4352 58.0008 97.2039 58.0968C96.7388 58.1683 96.3916 58.4672 95.9838 58.461L95.9266 58.4605C95.8822 58.4584 95.8383 58.4563 95.7939 58.4543C95.7944 58.7214 95.8087 59.1497 95.7688 59.4055C95.6425 60.2117 96.3744 60.2219 96.7418 60.7108C96.7339 60.8385 96.6998 61.3173 96.7329 61.4149C96.9159 61.9503 97.4514 62.9017 96.9208 63.3933C96.4819 63.7999 95.4867 63.814 94.9087 63.7673C94.2345 63.7128 93.9692 63.572 93.439 63.1687C92.6806 61.2355 92.2032 62.3097 90.6285 61.9133C90.4638 61.8717 90.125 61.6713 89.9588 61.5772C89.8301 61.357 89.7023 61.1583 89.5248 60.9572C88.6623 59.9794 89.0672 58.5831 88.9212 57.3347C88.7353 55.7452 87.3914 54.7381 85.8591 55.4356C85.5538 55.5746 85.0849 56.4456 84.8171 56.7828C83.4752 57.2087 82.6777 57.3378 81.2574 57.0047C80.8678 56.9134 80.3623 56.9284 79.9599 56.8595C78.8853 56.6549 77.7969 56.2459 76.9314 55.5635C76.6369 55.3313 76.3662 55.0572 76.0096 54.9398C75.3315 54.6935 74.9084 53.7812 74.4917 53.2319C74.2998 52.9774 74.3294 52.8228 73.9847 52.7635C73.966 52.7869 73.9472 52.81 73.929 52.8337C73.8609 52.9228 73.8244 53.0137 73.7805 53.1159C73.3678 54.0785 70.7957 55.9853 69.7734 56.3804C69.5385 56.4711 69.3171 56.4819 69.0691 56.4936ZM109.224 40.8664C109.923 40.9448 110.373 40.9647 111.086 40.9604C111.525 40.9517 112.812 40.8678 113.12 41.0227C113.518 41.4891 114.458 43.9324 114.602 44.6507C114.658 44.931 114.038 45.0334 114.112 45.2788C114.423 45.4104 118.389 45.4617 118.677 45.2691L118.696 45.1741C118.37 44.8285 117.773 45.0929 117.259 44.6353C116.639 44.0837 116.415 43.3678 116.014 42.6559C115.725 42.1125 115.609 41.4578 115.368 40.9047C115.049 40.185 114.775 39.4467 114.476 38.7202C113.844 37.1855 113.191 35.6597 112.54 34.1334C112.273 33.5085 112.087 32.7398 111.917 32.085C111.903 32.0293 111.844 31.9751 111.801 31.9391C111.402 32.5694 110.845 33.9925 110.476 34.7157C110.368 34.9275 110.107 35.8315 109.965 36.1653C109.168 38.0375 108.448 39.9398 107.651 41.8115C107.291 42.6558 107.038 43.4948 106.511 44.2934C106.337 44.5568 106.01 44.7746 105.752 44.9627C105.479 44.9678 105.036 44.9355 104.818 45.0295C104.732 45.1729 104.763 45.0921 104.789 45.3073C105.005 45.4246 109.065 45.4529 109.211 45.2792C109.124 44.9712 108.261 44.9116 107.958 44.7411C107.766 44.0144 108.85 41.6229 109.224 40.8664ZM95.6351 45.305C95.7905 45.1414 95.8457 45.0884 95.9665 44.9017C95.9734 44.0373 96.3556 42.9152 96.1283 42.2412L96.0617 42.1774L96.0158 42.2383L96.075 42.1755C96.0597 42.196 96.0449 42.2164 96.0301 42.2369C95.6662 43.049 95.8122 43.8967 94.6562 44.1385C94.0022 44.2753 89.4158 44.2798 89.0218 44.1382C88.9764 43.9313 89.1401 43.608 89.2531 43.4362L92.7205 38.0605C92.938 37.7285 93.2655 37.4665 93.4923 37.0922C94.2039 35.9171 94.9437 34.7724 95.6405 33.5855C95.8511 33.2265 96.0888 32.771 96.3112 32.4397C94.2291 32.4203 92.1475 32.4145 90.0653 32.4225C89.1298 32.4239 87.9299 32.3869 87.019 32.4196C86.7606 32.4439 86.7868 32.3979 86.6428 32.5394C86.4899 33.1826 86.7118 34.2191 86.442 34.9349C86.3543 35.1682 86.5732 35.3528 86.8395 35.3958C87.0437 35.2051 86.7725 34.7117 87.3233 34.1428C88.3935 33.0372 90.0066 33.5471 91.3924 33.4596C91.7924 33.4343 92.8591 33.4109 93.1777 33.5461C93.3286 33.8072 92.7861 34.4688 92.6801 34.7153C92.4212 35.3209 92.2959 35.5371 91.8742 36.0035C91.3702 36.5613 90.9767 37.4691 90.5383 38.0873C89.8459 39.0756 89.223 40.0173 88.6401 41.0752C88.1366 41.9884 87.3475 42.8095 86.9031 43.768C86.8114 43.9529 86.4228 44.199 86.3089 44.3957C86.1792 44.6087 86.1309 45.0862 86.2053 45.3249C86.3483 45.4119 95.1262 45.4552 95.6351 45.305ZM70.9728 103.146C71.1277 103.369 71.5645 103.961 71.5675 104.195C71.5781 105.009 71.5178 105.881 71.515 106.696L71.5225 111.659C71.5271 112.293 71.5865 113.386 71.5127 113.975C71.461 114.388 71.2972 114.538 71.257 115.153C70.9501 115.16 69.9909 115.054 69.9551 115.396L70.0499 115.54C70.4477 115.605 70.9854 115.575 71.397 115.568C72.6362 115.547 73.8728 115.564 75.1116 115.579C75.2536 115.581 75.5042 115.472 75.5905 115.355C75.4598 115.129 74.2934 115.146 74.003 115.116C73.6952 114.783 73.4334 114.493 73.4989 114.003C73.6997 112.504 73.5857 110.99 73.6015 109.484C73.603 109.319 73.5862 109.227 73.6903 109.111C74.0291 109.034 74.4907 109.102 74.8635 109.1C76.6981 108.913 76.453 109.536 77.6198 110.453C77.5932 110.003 77.5799 108.12 77.5419 107.953C77.3515 108.009 77.4152 108.232 77.1326 108.256C76.1329 108.341 74.5775 108.354 73.5946 108.306C73.6474 106.91 73.6139 105.503 73.5877 104.106C73.5857 104.004 73.5996 103.888 73.6642 103.807C73.8989 103.74 74.5331 103.764 74.8394 103.785C75.6881 103.844 77.1622 103.435 77.6248 104.356C77.7214 104.548 77.4946 105.143 77.9424 105.054C78.1909 104.749 78.075 103.184 78.0933 102.661C77.3037 102.701 76.5497 102.594 75.7966 102.621C73.89 102.692 71.8124 102.52 69.9273 102.628C69.917 102.862 69.8827 102.81 69.995 102.953C70.3244 103.098 70.5853 103.03 70.9728 103.146ZM59.8659 33.3567C59.9374 34.2153 59.8997 35.083 59.901 35.9451C59.9136 37.424 59.914 38.903 59.902 40.3819C59.8957 41.6112 59.946 42.8984 59.8589 44.125C59.8364 44.4427 59.6191 44.6832 59.41 44.9097C58.9066 44.9798 58.5843 45.0115 58.0988 45.1836C58.3145 45.2523 58.5988 45.3473 58.8216 45.354C60.872 45.4155 62.9284 45.3757 64.9802 45.4068C65.3488 45.4123 65.7372 45.4014 66.1035 45.3667C66.2856 45.1015 66.3896 45.0087 66.6154 44.79C66.6678 44.3011 66.7818 43.393 66.6071 42.9502L66.4884 42.8513C66.2847 42.9628 66.28 43.4789 66.1706 43.7328C65.9552 44.1668 65.8666 44.1225 65.4283 44.3004C64.5135 44.6718 62.8907 44.6259 62.1482 43.8782C61.9716 42.5351 62.2388 40.5067 62.0622 38.9744C62.7522 38.8651 64.2675 38.8082 64.9684 38.8633C65.0579 38.9807 65.4118 39.4314 65.453 39.5488C65.543 39.8052 65.4231 40.2772 65.6756 40.4722C65.837 40.4526 65.7723 40.4868 65.8802 40.3746C66.0582 39.7768 65.8011 38.5569 65.9859 37.9044C65.9895 37.8917 66.0099 37.7669 66.0115 37.7571L65.9607 37.6932C65.6484 37.6596 65.3142 38.0158 65.0114 38.0507C64.1212 38.1532 63.0068 38.1161 62.1312 38.0021L62.1337 37.9523C62.1696 37.1227 61.9881 34.202 62.2091 33.5709C62.2937 33.5018 62.3524 33.4593 62.4719 33.465C63.4125 33.5094 64.3625 33.2912 65.2718 33.5477C65.4728 33.758 65.6511 33.9624 65.885 34.1347C65.9124 34.4073 65.9086 34.6536 66.1037 34.8517C66.3394 34.6534 66.2355 33.7102 66.2571 33.3913C66.2724 33.1661 66.3168 32.6087 66.2653 32.4225C66.1792 32.3817 66.2148 32.3825 66.165 32.3861C65.1359 32.4706 58.6209 32.3116 58.2586 32.4511C58.1782 32.6112 58.2029 32.5221 58.2428 32.7426C58.5561 32.9914 59.0646 32.4136 59.8659 33.3567ZM99.7318 32.816C99.9168 32.9479 100.123 33.0866 100.293 33.2352C100.426 34.0642 100.341 35.6245 100.351 36.565C100.367 38.1695 100.372 39.7741 100.368 41.3787C100.368 42.4658 100.398 43.5749 100.321 44.6572L100.244 44.6934C99.8709 44.8647 99.0838 45.0352 98.9487 45.1111L98.9349 45.222C99.1025 45.3924 99.3102 45.373 99.5641 45.3723C100.954 45.3686 102.453 45.3191 103.838 45.4161C104.063 45.4075 104.073 45.4435 104.234 45.3401C104.287 45.1549 104.295 45.2401 104.224 45.0748C103.939 44.8997 103.546 44.9624 103.198 44.9262L102.754 44.5661C102.607 42.767 102.703 40.1647 102.703 38.2981C102.698 37.2081 102.701 36.1181 102.711 35.0282C102.714 34.3925 102.586 33.5288 102.912 32.9803C103.191 32.7341 103.807 32.9299 103.968 32.6104C103.94 32.5525 103.931 32.4852 103.868 32.4587C103.68 32.3783 99.5069 32.4037 99.0424 32.4188C98.9013 32.5319 98.9364 32.4622 98.889 32.6099C99.0434 32.8285 99.4724 32.8024 99.7318 32.816ZM48.1766 115.102C47.9649 114.002 48.1918 113.359 48.6296 112.369C48.7774 112.035 49.0024 111.17 49.3981 111.134C49.9493 111.084 50.5221 111.134 51.0761 111.116C51.5741 111.111 52.4239 111.082 52.8833 111.136C53.5768 111.675 53.4835 112.08 53.7847 112.85C53.9326 113.228 54.1298 113.607 54.2749 113.988C54.3683 114.246 54.3339 114.459 54.5131 114.705C54.7156 114.982 54.2693 115.24 54.2515 115.484C54.4387 115.604 58.4575 115.604 58.6376 115.503C58.6875 115.353 58.6772 115.431 58.6459 115.258C58.4494 115.094 57.7841 115.161 57.4838 115.125C55.9255 113.839 55.8527 112.336 55.142 110.605L52.5322 104.195C52.2994 103.626 51.8176 102.788 51.6701 102.271L51.5918 102.21C51.0546 102.864 51.1988 102.96 50.9198 103.7L49.9796 106.186C49.6422 107.061 49.077 108.094 48.783 108.871L47.2032 112.93C46.8843 113.737 46.8694 113.955 46.4359 114.795L46.3728 114.831C46.2262 114.915 46.0682 115.007 45.868 115.058C45.503 115.152 45.0196 115.109 44.6644 115.243C44.645 115.289 44.6256 115.335 44.6062 115.381C44.7234 115.792 47.9394 115.465 48.424 115.572C48.5106 115.591 48.8163 115.5 48.9167 115.462L48.9683 115.384C48.8424 115.203 48.608 115.178 48.4021 115.14C48.327 115.127 48.2519 115.114 48.1766 115.102ZM92.3423 58.925C92.1263 59.0177 91.6952 59.1901 91.5068 59.2951L91.2908 59.8066C92.1341 60.285 92.1366 60.7043 92.719 61.3877C92.7979 61.4803 93.4119 61.8242 93.6358 62.0071C94.2158 62.0495 94.3386 61.977 94.8076 61.9859C95.3895 61.849 96.2402 61.1715 95.7012 60.5566C95.6198 60.5331 95.5419 60.5079 95.4581 60.4949C94.9052 60.409 93.7113 58.7841 92.3423 58.925ZM99.685 113.723C99.463 113.645 99.108 113.51 98.8786 113.532C97.9983 113.663 97.8351 114.062 97.8756 114.871C98.1715 115.368 98.1828 115.531 98.7938 115.556C99.0912 115.561 99.2752 115.597 99.502 115.365C99.9113 114.948 99.7964 114.239 99.685 113.723ZM59.5921 113.625C59.3852 114.059 59.2276 114.36 59.4242 114.835C59.6774 115.448 60.0172 115.574 60.5983 115.552C60.8578 115.49 61.0226 115.367 61.1475 115.132C61.5902 114.302 61.3664 114.13 60.9144 113.567C60.6451 113.57 60.3788 113.568 60.1106 113.592L59.5921 113.625ZM80.2563 113.251C80.0388 113.506 79.988 113.519 79.6975 113.64C79.0633 113.905 79.195 115.018 79.6522 115.401C79.8632 115.578 80.0664 115.563 80.3095 115.576C80.7761 115.454 80.8688 115.392 81.1662 114.989L81.1376 114.123C80.9921 113.897 80.4743 113.389 80.2563 113.251ZM52.925 62.0231C54.5306 62.3471 55.0012 61.3646 55.8427 60.2919C55.9742 60.1243 56.3499 60.0058 56.5185 59.7602C56.4728 59.5006 55.8038 58.9558 55.5886 58.9608C54.2007 58.9641 53.6311 59.5117 52.5892 60.3304C52.3955 60.4825 51.7034 60.5512 51.841 60.9818C51.9411 61.2954 52.646 61.8848 52.925 62.0231ZM94.6251 115.589C94.8899 115.574 95.1375 115.6 95.3215 115.411L95.32 115.326C95.0201 115.108 94.1048 115.152 93.7039 115.113L93.6856 115.015C93.1708 112.199 93.3804 109.193 93.3409 106.34C93.333 105.734 93.476 103.67 93.7705 103.197C94.1088 102.939 94.6872 103.124 94.9733 102.84C94.7065 102.469 91.3387 102.662 90.6877 102.599C90.4648 102.614 90.013 102.611 89.8676 102.789C90.0022 102.978 90.2789 103.007 90.4958 103.04L90.8983 103.104C91.4457 103.922 91.4363 104.821 91.4462 105.773C91.4629 107.378 91.4827 109.007 91.4669 110.61C91.4551 111.853 91.528 114.028 90.9545 115.121C90.5225 115.162 90.3089 115.142 89.9336 115.355L89.9184 115.426C90.0599 115.524 90.3129 115.565 90.4786 115.567C91.8555 115.579 93.2487 115.534 94.6251 115.589ZM80.4767 33.3634L80.5897 36.708C80.5946 36.8698 80.5714 37.58 80.5921 37.6459C80.9092 38.6675 81.0315 39.4648 80.9211 40.5461C80.892 40.8356 81.0587 42.0153 80.6449 42.072C80.4338 41.8198 80.3544 41.5112 80.1429 41.2776C79.9974 41.117 79.7996 40.9755 79.6433 40.8166C77.031 38.1679 74.3832 35.556 71.8038 32.8738C71.4053 32.4595 71.4087 32.3388 70.8331 32.3648C70.8466 32.3282 70.8051 37.0042 70.8023 37.4661L70.7869 42.2105C70.7785 42.9506 70.8176 43.6396 70.7501 44.3832C70.5091 44.6156 70.4483 44.7446 70.2513 44.9718C70.0341 44.9771 69.3632 44.9442 69.2394 45.0285C69.1841 45.1868 69.1875 45.1059 69.2509 45.2793C69.6419 45.5418 73.0457 45.3239 73.7332 45.3886C73.7978 45.3947 73.8871 45.3255 73.9359 45.282C73.9739 45.1379 73.9867 45.2024 73.9191 45.0806C73.1562 44.799 73.317 45.2301 72.2899 44.5004C72.2548 43.9957 72.2824 43.5336 72.2381 43.0371C72.2066 42.6836 71.9748 41.8948 71.9709 41.5902C71.9596 40.7193 71.8117 36.7776 72.0125 36.1183C72.0582 36.0798 72.0923 36.0268 72.1498 36.0541C72.5389 36.2395 73.3101 37.06 73.5192 37.4201C74.2486 38.6769 75.3069 39.5318 76.3391 40.5512L78.8453 43.0481C79.4608 43.6545 79.9944 44.2679 80.6853 44.81C80.9852 45.0455 81.179 45.4563 81.6648 45.3713C81.7585 45.2693 81.7274 45.3269 81.7412 45.187C81.7229 44.055 81.7377 43.0518 81.9232 41.9265C81.9646 41.4665 81.8561 40.9142 81.8965 40.4645C82.0968 38.2414 81.9774 35.9953 82.0287 33.7634C82.0593 32.4391 83.0545 33.1055 83.4268 32.6469C83.4007 32.4898 83.4367 32.5577 83.2912 32.4503C82.9046 32.3847 79.0318 32.3602 78.8759 32.4572C78.8123 32.6034 78.8246 32.5989 78.8537 32.7595C79.5816 33.0862 79.7789 32.3849 80.4767 33.3634ZM34.9541 32.0435C34.42 32.6869 34.3784 33.3032 34.0588 34.084L31.2043 41.108C30.9641 41.7202 30.7273 42.3338 30.4938 42.9485C30.4077 43.1752 30.2558 43.6545 30.1401 43.8485C29.9038 44.2446 29.2735 44.8666 28.8094 44.9517C28.5806 44.9936 28.2947 44.9197 28.0239 45.0279C27.927 45.1671 27.9549 45.0858 27.9856 45.294C28.1955 45.4681 31.6392 45.3484 32.1589 45.396C32.2015 45.3892 32.2442 45.3825 32.2869 45.3757C32.3678 45.2552 32.3552 45.2559 32.355 45.107C32.1698 44.9624 31.9504 44.9822 31.6979 44.9665C31.5059 44.8121 31.2627 44.6733 31.1578 44.4785C31.1483 44.3005 31.1722 44.2394 31.335 44.1226C31.6188 43.919 31.4438 43.366 31.5724 43.1171C31.9557 42.3748 32.1708 41.7991 32.3767 40.9935C32.8897 40.9098 33.713 40.9597 34.2633 40.9625C34.8653 40.9636 35.6348 40.9434 36.223 40.9726C36.5058 41.1941 36.9424 41.3651 36.9028 41.7533C36.8353 42.4148 37.4128 42.8732 37.5819 43.3992C37.7729 43.9933 37.7383 44.2554 38.0288 44.8581C37.8938 44.9789 37.759 45.0677 37.7047 45.2338L37.7398 45.3278C38.2478 45.3645 41.6358 45.4484 41.98 45.3404C42.0825 45.1732 42.0689 45.2573 42.0577 45.0882C41.8522 44.9324 41.4288 44.974 41.1569 44.9751C40.6238 44.659 40.0263 44.1897 39.6789 43.6635C39.4769 43.2925 39.4627 42.8711 39.275 42.4835C38.5569 41.0009 37.9552 39.4487 37.3935 37.8998C37.0661 36.9969 36.8321 36.2591 36.3376 35.4116C36.173 35.1295 36.1001 34.4295 35.943 34.1064C35.824 33.7748 35.1835 32.2317 34.9541 32.0435ZM48.7943 32.3798C48.2703 32.4058 47.7701 32.4186 47.2675 32.587C46.6359 32.7988 45.9783 33.2001 45.3388 33.3636C44.8849 33.8692 44.8599 34.001 44.2587 34.2179L44.2468 34.2752C44.0908 34.9913 43.7233 34.9217 43.4352 35.438C42.4334 37.2339 42.2517 39.3759 42.9366 41.3157C43.2583 42.2231 43.3823 42.4926 44.1262 43.1234L44.2261 43.6455C44.4946 43.7216 44.6613 43.7567 44.8678 43.9329C45.6047 44.5618 46.3987 44.896 47.3488 45.0372C47.4684 45.055 47.7416 45.3418 47.9067 45.3448C49.4884 45.4091 51.1346 45.4172 52.7137 45.3418C53.0049 45.3278 54.2457 44.7817 54.5415 44.6183C54.517 43.5209 54.5678 42.4105 54.5357 41.3133C54.5208 40.8013 54.5252 39.9613 54.8456 39.5603C55.0011 39.3657 55.7667 39.3244 56.0285 39.1386L56.0147 39.0676C55.5848 38.821 51.1647 38.8542 50.6481 39.0508L50.6172 39.119C51.0054 39.4094 51.7525 39.2319 52.1615 39.4287C52.4292 40.203 52.3195 40.3386 52.4224 41.0557C52.5874 42.2056 52.7061 43.4837 52.2595 44.5936C50.8604 44.7137 48.6519 44.7801 47.5419 43.8249C46.3837 42.8283 44.8726 41.3771 44.857 39.729C44.846 38.5735 44.6334 35.9815 45.5059 35.127C46.4115 34.24 47.2145 33.0883 48.564 33.158C50.3247 33.0824 51.9092 33.0632 53.3376 34.2591C53.7753 34.6232 54.0285 35.9599 54.5265 35.9856C54.6802 35.5566 54.4678 33.4687 54.5112 32.7627C53.5433 32.8047 53.6931 32.4967 52.8949 32.4492C51.62 32.3734 50.0609 32.3099 48.7943 32.3798Z" fill="white"/>
<path d="M74.0764 53.9722L74.2466 53.9782C74.3674 54.0438 74.4325 54.178 74.4818 54.3034C74.6081 54.6714 74.8793 54.8132 75.1693 55.0315C76.0678 55.7075 76.636 56.2774 77.6854 56.7479C78.9918 57.3336 80.4965 57.6402 81.898 57.9242C82.3241 58.0105 83.6739 57.9404 84.1695 57.9366C84.1562 58.2283 84.1863 59.4607 84.1133 59.6484C83.6616 60.4697 84.0186 61.6089 83.811 62.368C83.3963 63.2319 83.5679 64.0531 83.4254 64.8965C83.2848 65.7284 82.7956 67.3277 82.5322 68.1248C81.9187 69.9949 81.0956 71.7892 80.0792 73.473C79.9071 73.7585 78.3477 75.6682 78.1233 75.9284C77.5449 76.599 75.0075 78.4483 74.2091 78.6467C74.0439 78.6442 73.927 78.6467 73.7727 78.5858C71.9098 77.852 70.4827 76.3704 69.2199 74.865C68.8808 74.4607 68.1147 73.5724 67.8782 73.134C67.2509 71.9517 66.5986 70.7655 66.0677 69.5352C65.8342 68.994 65.6871 68.329 65.4495 67.7702C65.2728 67.3547 65.1909 66.7847 65.0822 66.342C64.989 65.9625 65.0234 65.5209 64.8428 65.1659C64.5173 64.5969 64.6434 63.9379 64.5578 63.3473C64.5059 62.9895 64.2898 62.8833 64.2504 62.3313C64.1757 61.2842 64.112 60.3114 64.2035 59.2593C64.2138 59.1412 64.1361 58.2848 64.1226 58.1061C64.349 57.7408 66.6153 58.0817 66.8669 57.9144C67.7032 57.3585 67.8732 57.6676 68.7185 57.4686C69.3326 57.2154 70.2719 57.0616 70.8114 56.6772C71.4494 56.2226 72.2438 55.7331 72.8371 55.2314C73.2558 54.8773 73.6109 54.2425 74.0764 53.9722ZM70.6563 63.3264C70.3887 63.535 69.8144 64.1118 69.5849 64.375C69.1532 64.4848 67.803 65.1328 67.5397 65.4653C67.468 65.7728 67.7171 66.0149 67.9135 66.228C68.0112 66.6692 67.9413 67.253 67.9459 67.7426C68.3456 67.737 69.0386 67.7493 69.3364 68.0367C69.5784 68.2702 69.7372 69.1858 69.4311 69.4202C68.6425 70.0239 68.752 68.9642 68.5613 68.8351C68.2222 69.1474 68.3661 70.4394 68.3786 70.9137C68.9894 71.1219 69.2326 71.2511 69.8115 70.8888L69.9597 70.5389L69.996 70.4795C70.3793 69.8382 70.2619 69.4081 70.4111 68.7077C70.516 68.2153 70.9229 67.1125 71.43 66.9488C71.7055 67.1999 71.4201 67.7137 71.7953 67.8558C72.2647 67.7866 72.3729 67.4445 72.7234 67.6473C72.9101 67.9938 72.7615 68.3824 72.9653 68.9962C73.2677 69.0591 73.2869 69.0455 73.5793 68.974L73.9561 68.8846C73.9196 68.1865 73.9921 67.5579 73.9566 66.8092C73.4161 66.2369 72.8043 65.5774 72.2048 65.0594C72.0654 64.9389 71.7375 64.9818 71.5867 64.7943C71.39 64.2103 71.6524 63.4648 71.4423 63.2694L71.3812 63.2591C71.1329 63.2872 70.9069 63.3125 70.6563 63.3264ZM76.4555 66.9392C76.6187 66.5226 76.7188 66.1496 76.8396 65.7208C76.5368 65.7216 75.9603 65.755 75.6999 65.6789C75.3128 65.2757 75.8676 64.5622 75.9302 64.1218C76.0013 63.6208 75.8868 63.0274 75.9662 62.5349L75.2147 62.5348C75.2201 63.0268 75.2378 63.5814 75.2295 64.0688C74.9863 64.0732 74.7033 64.0855 74.4631 64.0758C74.0202 63.6561 74.0133 63.5632 73.8595 62.9468C73.7608 62.8769 73.5843 62.7971 73.5991 62.6651C73.6799 61.9279 74.2678 61.4839 74.8699 61.2066C75.0884 61.2337 75.6289 61.3373 75.7996 61.2286C75.9184 61.1528 75.9312 60.8825 76.2069 60.7888C76.4688 60.6999 76.5566 60.3043 76.3519 60.0954C76.054 59.7972 75.7931 59.6601 75.3878 59.6925C74.5701 59.8068 73.8782 60.8743 73.2741 61.4114C72.9713 61.681 72.0529 62.5352 72.0048 62.9236C72.1373 63.4636 73.2716 64.1965 73.6563 64.691C74.0626 65.1428 74.5094 65.5734 74.791 66.1195C74.8808 66.2943 75.368 67.0868 75.3005 67.2419C75.0647 67.7827 75.5476 67.4481 75.5505 67.987L75.3498 68.0199L75.3424 68.0825C75.4568 68.1915 75.6713 68.4292 75.8074 68.4561C76.4939 68.364 76.3504 67.441 76.4555 66.9392ZM78.614 57.5503C76.5393 58.1794 77.4324 59.9703 78.3241 61.1617C78.6599 61.6107 79.9313 62.8765 79.6423 63.5399C79.2778 64.0925 78.7018 63.9892 78.906 64.8834C79.0875 64.8592 79.3424 64.8361 79.5091 64.7777C80.2213 64.4119 80.9995 63.7766 81.6583 63.5265L81.7239 63.5021C81.7082 63.3002 81.7027 62.8998 81.6233 62.7422C80.5788 62.1009 79.1945 61.0566 78.8858 59.8026C78.6777 58.9586 79.0456 57.836 78.614 57.5503ZM78.3931 65.2507C78.1766 65.2825 78.0277 65.2805 77.8556 65.4116C77.719 65.6663 77.894 65.8106 78.0849 65.9744C78.2644 66.054 78.2249 66.0715 78.3734 66.0313C78.5095 65.7972 78.4577 65.5815 78.4326 65.3092L78.3931 65.2507ZM82.4701 62.7672C82.5811 62.484 82.6521 62.2784 82.408 62.0645C82.2857 62.0416 82.257 62.0331 82.1328 62.0253C82.08 62.2351 81.9833 62.4947 82.045 62.6893C82.2033 62.8074 82.2329 62.7944 82.4701 62.7672Z" fill="white"/>
<path d="M69.658 65.7969L69.7595 65.8204C69.972 66.0199 69.9403 66.4951 69.8848 66.757C69.749 66.9256 69.7629 66.8799 69.527 66.9688C68.7415 66.6275 69.2588 66.1603 69.658 65.7969Z" fill="white"/>
<path d="M71.0869 65.6606C71.2889 65.6319 71.3489 65.6534 71.4954 65.7515C71.5887 65.9389 71.5792 65.8465 71.5511 66.034C71.4124 66.1823 71.4976 66.1307 71.2693 66.1625C71.0534 66.0819 70.8129 66.0052 70.593 65.9298L71.0869 65.6606Z" fill="white"/>
<path d="M60.8617 63.6318C61.6041 63.5755 62.1757 64.3206 62.6411 64.8411C63.1097 64.8232 63.461 64.8325 63.9306 64.8552C63.9709 65.373 63.9723 65.457 64.2651 65.882C64.2719 67.1691 64.9572 68.7879 65.4148 69.9915C65.509 70.2394 65.8522 70.7043 65.8141 70.8871C65.4649 71.1772 64.9255 70.8918 64.5859 70.6953C64.1911 71.1041 63.3796 71.1695 62.9779 71.6835C62.7198 72.0139 62.6108 72.5938 62.1913 72.695C62.0374 72.6589 61.9779 72.5727 61.8647 72.459C61.7836 72.0965 61.8228 70.975 61.5095 70.6798C61.086 70.2807 59.5231 71.8056 58.6908 71.5535C58.5309 71.505 58.3402 71.48 58.2485 71.29C57.5771 69.8975 60.3449 68.0491 60.8977 67.0708C61.4528 66.0886 60.0951 65.0573 60.2824 64.2205C60.3438 63.9466 60.6623 63.7595 60.8617 63.6318Z" fill="white"/>
<path d="M111.492 73.86C111.6 73.8857 111.564 73.8674 111.644 73.9456C111.685 74.285 111.773 74.6364 111.527 74.9308C111.258 75.254 111.28 75.8582 111.21 76.2773C111.185 76.6455 110.9 76.9686 110.894 77.3343C110.875 78.523 110.93 79.72 110.887 80.9087C110.882 81.0665 110.819 81.5347 110.754 81.6604C110.573 82.0117 110.088 82.372 109.835 82.6996C108.413 83.1306 107.535 81.9444 106.558 81.1888C104.992 79.7487 103.509 78.3453 106.406 77.2675C106.731 76.7603 107.282 76.6089 107.784 76.3357C109.094 75.6226 110.137 74.4731 111.492 73.86Z" fill="white"/>
<path d="M36.5397 73.8486C36.9172 74.0411 37.0716 74.2865 37.3628 74.524C38.2567 75.253 39.8315 76.3451 40.803 76.8499C44.3843 78.7105 42.9643 78.9758 41.1203 81.0908C40.5943 81.5946 39.8978 82.2191 39.4208 82.7144C38.8931 82.7797 38.7721 82.7847 38.2688 82.7134C37.8743 82.373 37.0375 81.6302 36.914 81.1442C36.623 80.0001 36.8504 78.4982 36.7431 77.2878C36.6564 76.309 36.0016 74.6255 36.5397 73.8486Z" fill="white"/>
<path d="M86.8361 63.5992C87.3968 63.6737 87.5566 64.1969 87.4289 64.67C87.2074 65.4888 86.7611 65.8084 86.6077 66.6946C87.2469 67.3437 87.2119 67.5992 87.7326 68.2281C88.2076 68.8015 88.968 69.3587 89.402 69.9817C89.766 70.504 89.7452 70.6063 89.6367 71.1903C89.4489 71.37 89.292 71.4749 89.0819 71.6232C88.0621 71.4998 87.6325 71.318 86.8992 70.5922C86.6733 70.589 86.4874 70.5708 86.2645 70.5492C86.1979 70.9926 86.1698 71.1573 85.9543 71.5378C85.9213 71.8588 85.8887 72.6123 85.5612 72.7736C85.1781 72.6297 84.963 71.5876 84.3229 71.1856C83.8002 70.8576 82.5697 71.1441 82.4464 70.8202C82.474 70.4267 83.195 68.5919 83.3637 68.1547C83.773 67.0957 83.7814 66.093 84.1464 65.04C84.247 64.7493 84.8905 64.9046 85.1021 64.7912C85.8295 64.3219 85.8542 63.7071 86.8361 63.5992Z" fill="white"/>
<path d="M62.8024 57.9653C62.921 57.9731 62.9144 57.9771 63.0201 58.0354C63.2424 58.3834 63.1097 58.7155 63.1097 59.1077C63.1097 59.4496 63.0617 59.4463 63.3443 59.639C63.4776 59.9446 63.6412 61.4422 63.3478 61.5824L63.2302 61.526C62.6744 60.9115 62.2975 60.093 62.2698 59.2586C62.2497 58.6513 62.4441 58.3954 62.8024 57.9653Z" fill="white"/>
<path d="M84.9044 58.1979C85.0572 58.2318 85.2732 58.34 85.4241 58.4068C85.5026 59.2117 85.4587 59.8871 85.3265 60.6796C84.7594 60.7586 84.822 59.922 84.8274 59.5442C84.8338 59.1183 84.8185 58.6112 84.9044 58.1979Z" fill="white"/>
<path d="M51.1252 105.815C51.3741 105.979 51.4208 106.459 51.4655 106.743C51.5824 106.869 51.6872 107 51.7963 107.133C51.9311 108.165 52.3867 109.176 52.7991 110.118C52.7888 110.152 52.7785 110.187 52.7682 110.222C52.4803 110.368 51.3802 110.318 51.0037 110.317C50.601 110.317 49.7038 110.341 49.3426 110.279L49.2991 110.193C49.3928 109.942 49.6074 110.034 49.7661 109.557C50.1617 108.369 50.5304 106.915 51.1252 105.815Z" fill="white"/>
<path d="M34.4821 35.6417C34.6486 35.6719 34.6558 35.6655 34.8091 35.7514C34.9115 35.9775 34.8106 36.2419 34.8122 36.4873C34.8132 36.6477 34.8987 36.7361 35.007 36.8396C35.3395 37.157 36.0411 39.6513 36.1283 40.1498C35.557 40.1663 34.9102 40.1489 34.3329 40.1452C33.943 40.1534 33.0866 40.1987 32.756 40.1288C32.6308 40.0034 32.671 40.0761 32.6319 39.9022C32.7191 39.7208 33.0858 39.6246 33.1067 39.5509C33.2279 39.1241 33.3118 38.6472 33.4654 38.2311C33.7858 37.3632 34.1063 36.487 34.4821 35.6417Z" fill="white"/>
<path d="M111.363 35.9536C111.421 35.9793 111.513 36.041 111.571 36.0767C111.676 36.2423 111.665 36.2963 111.706 36.5171C111.857 37.3374 112.284 38.2515 112.582 39.0282C112.71 39.3612 113.034 39.7893 112.841 40.0726C112.49 40.2289 111.65 40.1564 111.232 40.1438L109.53 40.1283C109.62 39.736 109.817 39.4303 109.924 39.0152C110.102 38.3245 110.675 36.2611 111.363 35.9536Z" fill="white"/>
</svg>
