<svg width="148" height="148" viewBox="0 0 148 148" fill="none" xmlns="http://www.w3.org/2000/svg">
<path fill-rule="evenodd" clip-rule="evenodd" d="M90.2497 82.8037C91.5518 82.475 92.9307 82.6715 94.089 83.3508C95.8744 84.4057 96.3517 85.8727 96.832 87.7203L96.8322 87.7205C96.8263 87.8832 96.8117 88.1436 96.8015 88.4002C96.7913 88.6567 96.7853 88.9096 96.7959 89.0571C96.557 90.2115 96.3055 91.1676 95.5243 92.0899C93.5036 94.4757 90.461 94.6391 88.0982 92.7111C88.2895 94.0222 88.184 97.4735 88.2203 99C86.9901 98.962 85.589 98.9923 84.3463 98.9932C84.4007 97.4634 84.3475 95.5433 84.3513 93.9701L84.3457 82.9919C85.6234 82.9791 86.9012 82.9742 88.179 82.9771C88.1865 83.3248 88.1358 83.782 88.1051 84.1376C88.7831 83.5382 89.3541 83.0395 90.2497 82.8037ZM92.7795 87.8993C92.5324 86.6198 91.3015 85.7777 90.0201 86.011C89.1783 86.1643 88.4842 86.7581 88.2015 87.5659C87.9194 88.3738 88.0927 89.2712 88.6556 89.9156C89.2184 90.56 90.084 90.8522 90.922 90.6806C92.1985 90.4194 93.0272 89.1789 92.7795 87.8993Z" fill="white"/>
<path fill-rule="evenodd" clip-rule="evenodd" d="M65.0173 82.6579C66.2133 82.6525 67.3615 83.1278 68.204 83.9772L68.1302 82.9955C69.4185 82.9653 70.7084 82.9973 71.9982 82.9568C72.0293 86.4758 71.8902 90.1475 72.0127 93.6597C71.2268 93.5669 69.0227 93.611 68.1779 93.6429L68.1525 92.8083L68.0779 92.7711C66.5473 94.1603 64.4707 94.3599 62.6134 93.5173C59.4092 92.0637 58.6801 87.5818 60.6158 84.8498C61.5038 83.5965 62.6912 82.9501 64.1806 82.7008C64.4458 82.6658 64.749 82.6587 65.0173 82.6579ZM68.2269 87.9475C68.0075 86.6514 66.7789 85.7788 65.4833 85.9987C64.1882 86.2185 63.3165 87.4467 63.5358 88.7423C63.7552 90.038 64.9828 90.9106 66.2781 90.6914C67.5737 90.4722 68.4464 89.2436 68.2269 87.9475Z" fill="white"/>
<path d="M115.547 82.6976C116.827 82.5281 117.704 82.7518 118.854 83.2714C118.824 84.2644 118.819 85.5948 118.866 86.5726C115.918 84.3128 113.152 87.5803 114.888 89.8988C115.275 90.4175 115.854 90.7595 116.495 90.8482C117.473 90.9901 118.142 90.6654 118.9 90.1007C118.802 91.0462 118.84 92.2946 118.868 93.2619L118.801 93.4141C118.389 93.7369 117.788 93.8237 117.283 93.9153C114.216 94.462 110.987 92.6985 110.487 89.4723C109.94 85.9345 112.047 83.1991 115.547 82.6976Z" fill="white"/>
<path fill-rule="evenodd" clip-rule="evenodd" d="M99.2631 83.6839C100.526 82.7413 101.811 82.541 103.348 82.7353C104.448 82.8746 105.137 83.6621 105.671 83.798C105.806 83.6098 105.573 83.4333 105.687 83.1349C105.784 83.0503 105.82 82.9979 105.961 82.9895C107.052 82.9236 108.397 83.0316 109.467 82.9663L109.464 90.1141C109.466 91.2046 109.434 92.5656 109.483 93.6362C108.194 93.5892 106.886 93.6572 105.626 93.6106L105.742 92.574C104.612 93.6097 103.75 94.0714 102.158 94.0012C100.752 93.9498 99.4245 93.337 98.4733 92.2997C97.5252 91.2619 97.3224 90.4576 97.1454 89.12C97.1248 88.6527 97.1355 88.1708 97.1398 87.702C97.4038 85.9515 97.7484 84.8141 99.2631 83.6839ZM105.728 87.9579C105.514 86.6743 104.308 85.8011 103.023 85.9983C102.176 86.1282 101.464 86.7041 101.16 87.5055C100.856 88.3068 101.006 89.2098 101.554 89.8691C102.102 90.5284 102.961 90.842 103.805 90.6898C105.085 90.4588 105.942 89.2415 105.728 87.9579Z" fill="white"/>
<path d="M124.156 76.4586C124.24 76.6214 124.185 79.0133 124.184 79.362L124.188 84.0644C124.19 84.8247 124.23 86.0764 124.132 86.7835C125.391 85.6963 126.876 83.9783 128.116 83.0038C129.487 82.8952 131.822 82.9703 133.285 82.9619C131.997 84.2922 130.57 85.5083 129.212 86.7665C128.782 87.1644 128.357 87.5782 127.905 87.9487C128.06 88.0698 128.258 88.2554 128.395 88.396C129.892 89.9279 131.463 91.4099 132.947 92.9521C133.136 93.1543 133.44 93.4271 133.648 93.625C132.95 93.6489 132.157 93.6135 131.444 93.616C130.385 93.6196 129.279 93.6488 128.225 93.6024C126.767 92.2769 125.486 90.6402 124.115 89.423C124.29 90.3594 124.162 92.5335 124.222 93.6545C123.48 93.5692 121.152 93.6111 120.363 93.6469L120.353 76.4857C121.58 76.4867 122.893 76.5101 124.113 76.463L124.156 76.4586Z" fill="white"/>
<path d="M77.515 76.472C77.4768 78.5613 77.508 80.7468 77.508 82.8432L77.5188 93.6344C76.3192 93.6089 74.8138 93.5755 73.6199 93.6527C73.7124 89.2064 73.6042 84.7227 73.6348 80.2731C73.6436 79.0197 73.6469 77.7245 73.5993 76.4753C74.9045 76.4877 76.2098 76.4866 77.515 76.472Z" fill="white"/>
<path d="M82.8585 76.4608C83.0167 76.6217 82.9372 92.02 82.9384 93.6238C81.757 93.5891 80.2567 93.5954 79.0784 93.6435C78.9497 93.4501 79.0597 78.2001 78.9978 76.4755C80.1817 76.4991 81.6864 76.5149 82.8585 76.4608Z" fill="white"/>
<path d="M55.0541 67.126C49.7589 67.178 44.4406 67.0853 39.1463 67.1485L39.1357 74.1654L39.1331 83.9911C39.1372 85.9262 39.1808 87.9962 39.1165 89.9204C38.2886 89.9377 37.4321 89.9314 36.6017 89.9361L36.5993 72.5213C36.5991 69.9486 36.628 67.2963 36.5682 64.7292L55.0428 64.7129L55.0541 67.126Z" fill="white"/>
<path fill-rule="evenodd" clip-rule="evenodd" d="M19.3536 52.5472C20.4945 52.5294 21.6355 52.5286 22.7764 52.5448C24.2186 54.1226 26.0917 55.9029 27.6199 57.4245L35.1103 64.8958L35.1127 89.9235C34.2564 89.9385 33.3727 89.9294 32.5141 89.9315L32.5071 65.7682C31.0641 64.3525 29.6505 62.8883 28.1886 61.4948C27.8371 61.8997 27.5087 62.233 27.1325 62.6116C27.1905 62.707 27.2467 62.8034 27.3011 62.9009C28.8839 65.7534 26.5751 70.1041 23.8229 71.4602C21.2908 72.7078 20.0382 72.6235 17.4421 71.8566C17.2954 71.5492 17.2177 71.3372 17.1223 71.0088C16.5608 69.0742 16.8036 66.9947 17.7958 65.2417C19.4277 62.2979 23.462 60.2733 26.6182 62.047C27.0131 61.6723 27.3221 61.3614 27.6889 60.9598C26.7312 59.9357 19.48 52.9042 19.3536 52.5472ZM20.388 69.3282C19.7297 69.9987 19.0658 70.6638 18.3965 71.3234L18.3992 71.4062C18.6023 71.4885 18.6681 71.5013 18.885 71.5404C19.5041 71.6439 19.8719 71.6808 20.4911 71.7206C20.4987 71.367 20.5931 69.5139 20.388 69.3282ZM22.221 67.5192C21.8917 67.8316 21.5071 68.2155 21.1672 68.5057C21.1694 68.9236 21.1279 71.4033 21.2831 71.5769C21.6939 71.5161 21.9192 71.4688 22.3195 71.3575C22.3151 70.3766 22.3722 68.4817 22.3026 67.595L22.221 67.5192ZM24.1569 65.5773C23.7527 65.9711 23.3299 66.399 22.9034 66.7639C22.9022 67.3146 22.8135 70.8964 23.0469 71.0722C23.4675 70.8524 23.9234 70.5977 24.2865 70.2874C24.2819 69.7099 24.3343 65.8414 24.2087 65.6046L24.1569 65.5773ZM17.5215 68.606C17.4976 69.5221 17.5071 69.9629 17.7874 70.835C18.2143 70.4701 18.4911 70.1968 18.8808 69.7964C19.2314 69.4657 19.7791 68.978 20.0678 68.617C19.2546 68.6179 18.3253 68.6394 17.5215 68.606ZM26.6272 63.0754C26.0997 63.6185 25.3687 64.302 24.8898 64.8402C24.9036 65.4913 24.8276 69.4803 24.9814 69.6849C25.0805 69.6509 25.1196 69.6446 25.202 69.576C26.4216 68.3105 27.0862 66.6077 27.1054 64.838C27.1107 64.3403 26.9366 63.4582 26.6272 63.0754ZM17.878 66.8571C17.7133 67.2948 17.6667 67.5056 17.5743 67.9673C18.4318 67.948 19.8531 67.8824 20.6637 67.9676C20.7348 67.9097 20.9634 67.7303 21.015 67.675L21.8589 66.8997C20.7697 66.8777 18.8623 66.9655 17.878 66.8571ZM18.897 64.9688C18.5154 65.3913 18.3361 65.7026 18.0777 66.2127C19.4533 66.1894 20.9499 66.2538 22.3219 66.1846C22.445 66.1783 22.6044 66.0689 22.7053 65.9914L23.7896 64.9808C22.1588 64.9674 20.5278 64.9634 18.897 64.9688ZM26.1149 62.5555C25.2463 62.1621 24.5976 62.0232 23.6296 62.1158C21.9909 62.3536 20.4658 63.0873 19.3299 64.3067C20.2127 64.2871 21.0958 64.2795 21.9788 64.284H24.2897C24.8819 63.8211 25.582 63.1024 26.1149 62.5555Z" fill="white"/>
<path d="M40.6173 68.5709C40.9272 68.7573 43.8045 71.7036 44.2238 72.1213L55.0368 82.9294C55.0829 84.0185 55.0776 85.2364 55.0908 86.3328C54.1891 85.52 53.1651 84.4319 52.2889 83.5568L47.1785 78.4595C45.7945 77.0401 44.3902 75.6404 42.9664 74.2609C42.9243 75.9318 42.9648 77.7727 42.9652 79.4608L42.9592 89.9132C42.2219 89.9417 41.3982 89.9274 40.6542 89.9291L40.6674 76.5757C40.6663 74.0769 40.7435 71.0218 40.6173 68.5709Z" fill="white"/>
<path d="M43.3761 52.5271C44.4577 52.5164 45.5645 52.5272 46.6478 52.5275C43.5342 55.8274 39.8676 59.3901 36.5989 62.5703L35.6964 63.4227C35.1838 62.9138 34.5603 62.3618 34.025 61.8647C34.4642 61.5083 35.1041 60.837 35.5212 60.4199L41.2384 54.7213C41.9297 54.032 42.7452 53.2534 43.3761 52.5271Z" fill="white"/>
<path fill-rule="evenodd" clip-rule="evenodd" d="M14 49C15.6603 49.0446 17.5135 49.0084 19.1843 49.009L57.8197 49.0004C57.9226 50.189 57.8488 52.6822 57.848 53.9383L57.8514 92.8607C55.9758 92.7699 53.7817 92.82 51.8812 92.821L41.8039 92.8258L14.0138 92.8697L14.017 64.1954C14.0172 59.1488 14.058 54.0405 14 49ZM56.0666 50.756C42.6854 50.6134 29.1815 50.823 15.7815 50.7396L15.7779 91.1201C18.5262 91.0332 21.4782 91.0817 24.2406 91.0798L50.28 91.0714C52.0131 91.0708 54.3655 90.9998 56.0646 91.0798L56.0666 50.756Z" fill="white"/>
<path d="M130.835 77.7346C131.451 77.7125 132.282 77.6269 132.721 78.1453C133.101 78.5943 132.513 79.0813 132.214 79.3227C132.495 79.7018 132.68 80.0557 132.905 80.4667L132.772 80.5732C132.164 80.213 131.788 79.242 131.448 79.1643C131.259 79.456 131.292 80.3216 131.037 80.5704L130.942 80.5415C130.777 80.339 130.822 78.1402 130.835 77.7346ZM132.408 78.4456C132.242 78.0139 131.708 78.0607 131.313 78.0703C131.191 78.2434 131.233 78.6504 131.238 78.8829C131.587 78.9023 131.837 78.9336 132.18 78.8533C132.314 78.7056 132.396 78.6436 132.408 78.4456Z" fill="white"/>
<path fill-rule="evenodd" clip-rule="evenodd" d="M130.82 76.9029C131.363 76.7107 132.2 76.7381 132.727 76.9833C133.263 77.238 133.674 77.6979 133.867 78.2589C134.077 78.8688 134.037 79.5372 133.754 80.1172C133.491 80.6426 133.024 81.0372 132.463 81.2092C131.609 81.4787 130.783 81.3117 130.125 80.6997C129.301 79.9698 129.25 78.5982 129.868 77.7318C130.187 77.2851 130.364 77.1793 130.82 76.9029ZM132.64 77.4484C132.069 77.0993 131.624 77.1395 131.012 77.2756C129.932 77.9217 129.481 78.9935 130.195 80.1282L130.237 80.1898L130.297 80.2483C130.933 80.8434 131.946 81.1856 132.725 80.6738L132.772 80.5732L132.905 80.4667C133.056 80.3959 133.139 80.2395 133.237 80.1114C133.869 79.2824 133.494 77.9708 132.64 77.4484Z" fill="white"/>
</svg>
