<svg width="148" height="148" viewBox="0 0 148 148" fill="none" xmlns="http://www.w3.org/2000/svg">
<path d="M25.6229 64.9497C27.6986 62.8404 29.8622 60.6071 31.8955 58.4588C36.1964 63.1854 37.0264 69.7319 35.973 75.8804C35.9073 76.2643 35.3622 78.2574 35.3933 78.418C36.3613 80.9835 36.247 85.7131 35.7425 88.3969C35.4782 89.8338 35.0491 91.2346 34.4638 92.5708C33.8153 94.0401 32.8036 95.6072 31.6639 96.739C31.1009 96.237 30.4613 95.5821 29.9546 95.0182C28.6055 93.517 27.0287 92.0964 25.727 90.5672C25.0188 91.2051 24.379 91.9423 23.7154 92.6267C22.3934 93.9902 21.0652 95.4751 19.6935 96.783C19.6242 96.7142 19.5562 96.6439 19.4898 96.5722C16.1037 92.974 14.8597 86.9328 15.3026 82.0887C15.3786 81.2494 15.4903 80.4139 15.6372 79.5843C15.7228 79.1253 15.9751 78.1648 15.9718 77.7406C15.3575 76.4335 15.0379 73.3717 15.0063 71.9247C14.9014 67.115 16.0865 62.0802 19.4361 58.5138C20.2232 59.2517 25.2765 64.338 25.6229 64.9497ZM25.3738 74.6306C24.7827 74.9519 24.444 75.151 24.2016 75.8199C23.8043 75.2724 23.4338 74.7484 22.7059 74.6334C22.2998 74.5677 21.8848 74.6713 21.5554 74.9204C19.4483 76.4933 22.315 79.9993 24.2122 76.8234C24.52 77.518 24.6779 77.6647 25.3683 77.9819C25.2108 78.0744 24.8684 78.2602 24.7462 78.3811C23.5373 79.5765 24.1524 81.317 25.8154 81.4356C26.3881 81.3535 26.8048 81.2154 27.1767 80.7261C27.4463 80.3701 27.564 79.9198 27.5035 79.4756C27.4014 78.7209 26.9559 78.3541 26.3156 78.0563C26.9795 77.6003 27.0514 77.5456 27.4649 76.8448C27.7933 77.4387 28.1037 77.8396 28.7633 78.059C30.1733 78.5282 31.4178 76.4083 30.5488 75.3497C29.4932 74.0637 28.1488 74.6379 27.4535 75.8441C27.091 75.1579 26.9759 75.026 26.2705 74.6381C26.835 74.3419 27.2352 74.0774 27.4339 73.4095C27.5678 72.9596 27.5189 72.4744 27.2983 72.061C26.9897 71.4935 26.4911 71.2831 25.8837 71.2266C25.2996 71.2727 24.9129 71.3477 24.4976 71.842C24.2017 72.1965 24.062 72.6581 24.1108 73.1194C24.1932 73.897 24.7107 74.3369 25.3738 74.6306Z" fill="white"/>
<path d="M19.4361 58.5138C20.2232 59.2517 25.2765 64.338 25.6229 64.9497C24.2237 66.3791 22.8356 67.8194 21.4586 69.2706C20.1555 70.6536 18.8504 71.9654 17.8567 73.6039C17.3223 74.4848 16.9927 75.2039 16.6223 76.1629C16.4915 76.5016 16.1346 77.4821 15.9718 77.7406C15.3575 76.4335 15.0379 73.3717 15.0063 71.9247C14.9014 67.115 16.0865 62.0802 19.4361 58.5138Z" fill="white"/>
<path d="M25.727 90.5672C25.9403 90.2828 26.1722 90.0638 26.4124 89.8012C29.1879 86.7675 32.5858 84.1149 34.4817 80.3778C34.743 79.8629 35.0745 78.8377 35.3933 78.418C36.3613 80.9835 36.247 85.7131 35.7425 88.3969C35.4782 89.8338 35.0491 91.2346 34.4638 92.5708C33.8153 94.0401 32.8036 95.6072 31.6639 96.739C31.1009 96.237 30.4613 95.5821 29.9546 95.0182C28.6055 93.517 27.0287 92.0964 25.727 90.5672Z" fill="white"/>
<path d="M54.4827 50.1466C55.4747 50.141 56.4668 50.1438 57.4588 50.155C57.9958 51.1131 58.6583 52.7522 59.1174 53.8066L61.5693 59.366C64.0007 64.8589 66.6863 70.6752 68.9861 76.1918C68.0052 76.1963 66.7885 76.1721 65.829 76.2412C64.856 74.0307 63.8946 71.815 62.9449 69.5941C61.6678 69.7077 58.9761 69.6317 57.5816 69.6308C54.6937 69.6394 51.8059 69.632 48.9182 69.6088C48.3023 70.9494 47.7069 72.2996 47.1322 73.6588C46.7967 74.4372 46.3842 75.4666 45.9858 76.1928C44.9586 76.2049 43.9313 76.2058 42.9041 76.1954L53.2988 52.7227C53.5792 52.0877 54.1657 50.6548 54.4827 50.1466ZM50.0556 66.8023C51.9588 66.7617 53.8626 66.7505 55.7662 66.7687C57.6884 66.7631 59.8056 66.7164 61.7117 66.7808C61.1587 65.5415 56.109 53.814 55.8498 53.5473L51.9648 62.5373C51.5018 63.5963 50.5494 65.9493 50.0556 66.8023Z" fill="white"/>
<path d="M97.7295 50.1395C98.948 50.1111 100.128 50.165 101.358 50.1044C101.28 54.081 101.325 58.2462 101.322 62.2354C101.308 66.8974 101.321 71.5594 101.36 76.2212C100.448 76.1884 99.5352 76.1903 98.623 76.227L98.6311 57.6239C98.6311 56.6245 98.6177 55.6099 98.6744 54.6131C97.6128 56.4064 96.1908 59.485 95.2178 61.4396L89.2009 73.453C88.575 73.4457 88.0505 73.4418 87.4279 73.4842C86.7079 71.7743 85.3032 69.1671 84.4291 67.4131L78.0664 54.64C78.007 56.9038 78.0691 59.4657 78.0698 61.7584L78.0804 76.2076C77.2517 76.1758 76.1046 76.1764 75.2903 76.2379C75.3564 75.4353 75.3161 73.9511 75.3175 73.1173L75.3157 66.992C75.3088 61.3895 75.3582 55.7281 75.2893 50.132C76.3461 50.1667 77.7007 50.0553 78.7424 50.1952C78.9185 50.2189 79.0634 50.4569 79.1494 50.6204C80.055 52.3414 80.9078 54.1232 81.7852 55.8608L88.3808 68.9907C89.297 66.8223 90.763 64.1363 91.8454 61.9818L97.7295 50.1395Z" fill="white"/>
<path d="M129.511 50.142C130.494 50.1476 131.477 50.1414 132.459 50.1235L132.465 52.8205L132.466 61.479C132.468 63.8438 132.63 66.3808 132.128 68.6904C131.107 73.3888 127.483 75.9812 122.86 76.3085C117.77 76.6689 112.756 74.6597 111.341 69.2971C110.679 66.8245 110.827 64.6217 110.827 62.1099L110.832 54.574C110.833 53.234 110.878 51.4521 110.789 50.1412C111.787 50.143 112.784 50.1397 113.782 50.1312C113.724 55.0449 113.825 60.0105 113.76 64.923C113.474 70.0415 116.519 73.581 121.686 73.5356C124.299 73.5276 126.989 72.5402 128.382 70.1754C129.93 67.5486 129.525 64.0279 129.524 61.0397L129.511 50.142Z" fill="white"/>
<path d="M25.2411 50.0303C27.8436 49.7353 30.1907 51.6279 30.4868 54.2603C30.7829 56.8926 28.9162 59.2704 26.3146 59.5746C23.7069 59.8794 21.3494 57.9852 21.0526 55.3464C20.7558 52.7076 22.6322 50.326 25.2411 50.0303Z" fill="white"/>
<path d="M114.24 79.7994C116.717 79.6222 118.87 81.4999 119.062 84.0038C119.254 86.5077 117.413 88.6992 114.94 88.9109C112.442 89.1246 110.25 87.2398 110.056 84.7114C109.862 82.183 111.74 79.9784 114.24 79.7994ZM114.994 87.5029C116.698 87.2575 117.888 85.6685 117.66 83.9427C117.433 82.2168 115.873 80.9992 114.164 81.2147C112.435 81.4327 111.214 83.035 111.444 84.7822C111.675 86.5293 113.269 87.7512 114.994 87.5029Z" fill="white"/>
<path d="M66.8151 79.9667C68.2868 79.9599 70.3692 79.7989 71.7339 80.2921C73.3839 80.8884 73.7866 83.4094 71.8938 84.18C73.3398 84.9886 74.0565 85.7177 73.3812 87.4741C73.3012 87.625 73.2065 87.7674 73.0985 87.8993C71.9311 89.3344 68.6942 88.6944 66.803 88.8737C66.8577 85.9342 66.7971 82.9179 66.8151 79.9667ZM71.9033 87.0872C73.5085 84.6622 69.422 85.0284 68.2433 85.0387L68.2524 87.4951C69.3063 87.4614 71.1869 87.6826 71.9033 87.0872ZM68.2398 83.6976C69.2655 83.6899 70.5471 83.8588 71.3888 83.3494C71.4985 83.1514 71.6252 82.9337 71.7225 82.7323C71.6412 82.1628 71.6153 82.0442 71.2949 81.5794C70.2816 81.2361 69.2857 81.3248 68.2176 81.3365C68.2816 81.9852 68.2448 83.0192 68.2398 83.6976Z" fill="white"/>
<path d="M61.3537 79.9876C62.1171 80.0016 62.7739 80.0036 63.5399 79.9742C63.5172 80.653 63.5908 81.3715 63.5562 82.0359C63.439 84.2806 63.6953 86.6711 63.5354 88.8893C63.026 88.8478 62.6375 88.8308 62.1264 88.8307C62.1169 86.841 62.1193 84.8512 62.1338 82.8615L62.1347 81.9068C61.231 83.4425 60.0617 86.2685 59.1594 87.9213C59.0877 88.0526 58.6686 88.0857 58.481 88.0775C58.4376 88.054 58.3843 88.025 58.321 87.9907C57.264 86.1819 56.3123 83.5572 55.2596 81.8302C55.3669 84.1601 55.3265 86.5309 55.3245 88.8675C54.825 88.8237 54.4151 88.8313 53.9139 88.8375L53.8878 83.1725C53.8803 82.4244 53.8172 80.6584 53.9162 79.9963C54.634 79.9969 55.3519 79.9928 56.0696 79.9838C56.9701 81.5441 57.8894 83.9143 58.7618 85.6247C59.5292 83.867 60.4761 81.6746 61.3537 79.9876Z" fill="white"/>
<path d="M121.761 79.9784C124.609 79.9568 129.627 79.2275 128.404 84.0524C128.198 84.8664 127.379 85.3475 126.676 85.6655C127.446 86.6879 128.243 87.7219 128.898 88.8226L127.634 88.837C127.499 88.8363 127.345 88.8463 127.215 88.812C126.87 88.7219 125.45 86.3394 125.147 85.8619C124.529 85.8377 123.789 85.8595 123.162 85.8615L123.177 88.8898C122.712 88.8619 122.246 88.8433 121.781 88.8342C121.789 85.8823 121.783 82.9303 121.761 79.9784ZM123.17 84.5525C124.27 84.5 125.853 84.7268 126.692 84.1163C127.485 83.0875 127.278 81.6331 125.873 81.3692C125.104 81.225 123.977 81.3211 123.165 81.3216L123.17 84.5525Z" fill="white"/>
<path d="M46.5887 79.9714C47.0466 79.9777 47.5043 79.9912 47.9618 80.0118C48.3568 80.5821 48.7628 81.6562 49.0374 82.3283C49.9161 84.4787 50.9782 86.6487 51.774 88.8262C51.2866 88.8336 50.8222 88.8418 50.3356 88.8703C50.0256 88.2168 49.7462 87.5125 49.468 86.8418L48.0589 86.8436C47.1126 86.8432 46.1034 86.858 45.1634 86.8175C44.891 87.3234 44.5197 88.26 44.2818 88.8222C43.8263 88.8411 43.2601 88.8248 42.796 88.8245C43.4344 87.0361 44.4156 85.0282 45.1271 83.2464C45.3663 82.6474 46.2903 80.4133 46.5887 79.9714ZM45.7372 85.4867C46.3332 85.4817 46.9291 85.4817 47.5251 85.4869L48.8324 85.4794C48.6831 85.0625 47.4571 81.9632 47.2565 81.7725C46.8284 82.772 46.0648 84.4896 45.7372 85.4867Z" fill="white"/>
<path d="M96.3649 79.9802C96.8494 79.9704 97.3332 79.9759 97.817 79.9967L100.199 85.4959C100.646 86.5283 101.227 87.7763 101.557 88.8324C101.12 88.8537 100.551 88.8307 100.103 88.8241C99.8068 88.1416 99.5386 87.4761 99.2309 86.7909C98.8239 86.8295 98.3835 86.83 97.9724 86.8392C96.9662 86.8494 95.9472 86.8385 94.9403 86.8357C94.6667 87.3809 94.321 88.2483 94.0608 88.8278L92.5987 88.8251C93.236 87.0838 94.1962 85.0813 94.9002 83.345C95.1491 82.7304 96.0813 80.4731 96.3649 79.9802ZM95.5068 85.5033L97.1176 85.4981C97.6181 85.5022 98.1693 85.4946 98.6651 85.5134C98.5129 85.1371 97.2424 81.9138 97.0556 81.7726C96.5338 82.9774 95.9712 84.2771 95.5068 85.5033Z" fill="white"/>
<path d="M59.4988 91.1224C60.0767 91.1473 60.8256 91.1843 61.4009 91.1565C64.7545 90.9946 66.5299 94.1021 64.379 96.8592C62.9887 98.1442 61.3476 97.8536 59.5185 97.8725C59.5391 95.6629 59.5847 93.3226 59.4988 91.1224ZM59.8154 97.5128C61.4818 97.5351 62.9225 97.8044 64.2123 96.6489C64.8023 95.9519 65.1406 95.2757 65.075 94.3218C65.0198 93.497 64.6355 92.7304 64.0106 92.1979C62.6164 91.0245 61.1088 91.6612 59.7974 91.4808C59.7709 93.4915 59.7769 95.5023 59.8154 97.5128Z" fill="white"/>
<path d="M75.4498 79.9754C75.9217 79.9829 76.4082 79.9753 76.8813 79.9736L76.88 80.0417C76.8519 81.629 76.7545 84.1795 76.936 85.6602C77.267 88.3564 81.4449 88.2399 81.2794 84.8493C81.2114 83.4526 81.2634 81.4076 81.2501 79.9766C81.7399 79.9916 82.231 79.9817 82.7208 79.9761C82.7008 80.3543 82.7014 80.7921 82.6934 81.1757C82.7021 82.6798 82.7655 84.2292 82.6554 85.7252C82.4312 88.7825 78.637 89.9163 76.5336 87.9446C75.275 86.7651 75.4675 84.5945 75.4675 83.0047C75.4713 81.9949 75.4654 80.9851 75.4498 79.9754Z" fill="white"/>
<path d="M102.036 79.9875C103.915 79.8823 106.736 79.978 108.702 79.9746L108.693 81.3508C107.897 81.3093 106.877 81.3367 106.068 81.3411C106.119 82.8041 106.064 84.6441 106.065 86.1356L106.073 88.8529C105.608 88.833 105.112 88.836 104.644 88.8319L104.636 81.3247C103.769 81.3243 102.902 81.3311 102.036 81.3448L102.036 79.9875Z" fill="white"/>
<path d="M85.8384 79.9702L87.3158 79.9849C87.2697 82.4747 87.2677 84.9652 87.3104 87.4551C88.5696 87.4703 89.9402 87.478 91.1934 87.4416C91.2248 87.9288 91.2128 88.3382 91.2001 88.8262C89.6646 88.9103 87.4779 88.817 85.8491 88.8368L85.8384 79.9702Z" fill="white"/>
<path d="M131.557 80.0059L132.989 80.0145C132.981 80.8374 133.051 88.6206 132.915 88.8459C132.458 88.8347 131.993 88.8333 131.536 88.8276C131.585 88.2303 131.543 87.245 131.541 86.6139L131.529 82.2299C131.527 81.794 131.493 80.3312 131.557 80.0059Z" fill="white"/>
<path d="M121.063 91.0152C121.08 91.0282 121.109 91.0487 121.125 91.0663C121.348 91.3136 124.092 97.6966 124.083 97.8235C124.08 97.8767 124.034 97.8983 123.996 97.933C123.775 97.815 123.156 96.205 123.019 95.8759C122.407 95.9223 121.589 95.9008 120.961 95.9019C120.399 95.9023 119.729 95.9218 119.182 95.8422C118.891 96.331 118.459 97.5573 118.13 97.8437C118.084 97.4318 120.668 91.6009 121.063 91.0152ZM119.226 95.6449C119.841 95.6106 120.456 95.5933 121.071 95.5931C121.593 95.5996 122.388 95.5856 122.888 95.6311C122.6 94.9607 121.376 91.9715 121.033 91.5538C120.496 92.503 119.64 94.5959 119.226 95.6449Z" fill="white"/>
<path d="M49.8034 91.0046C50.2039 91.138 50.1137 91.6171 50.0653 91.9654C49.9648 92.6886 50.187 97.6149 49.9562 97.9192C49.7257 97.6232 49.8491 92.3582 49.8509 91.5337C49.4045 92.1476 48.9534 93.1496 48.6105 93.8551C48.063 94.9747 47.5233 96.0983 46.9917 97.2257C46.6246 96.3114 46.0258 95.1748 45.5933 94.2649C45.2326 93.5063 44.6692 92.2682 44.2286 91.5926C43.9355 92.43 44.4014 97.4599 44.0716 97.9397C43.9745 97.7838 43.868 97.3574 43.8881 97.201C43.9966 96.36 43.7404 91.4995 44.0317 91.1436L44.1962 91.1616C44.5645 91.45 46.6904 95.9644 47.0426 96.6824C47.4259 95.8514 49.4113 91.4994 49.8034 91.0046Z" fill="white"/>
<path d="M91.9388 91.0589C92.4212 91.176 93.7218 93.1937 94.1061 93.7465C94.9783 95.0005 95.9298 96.2729 96.762 97.5499C96.7847 96.737 96.5951 91.4804 96.8521 91.1434C97.0976 91.7592 97.0322 96.9815 96.9708 97.8613L96.9355 97.9015C96.483 98.0198 92.851 91.9595 92.2457 91.7118C91.9588 92.6126 92.3825 97.595 92.1563 97.9061L92.0415 97.9118C91.8494 97.6376 91.9268 91.7881 91.9388 91.0589Z" fill="white"/>
<path d="M84.2909 91.8224C84.4831 93.7833 83.4395 97.7559 86.8967 97.5657C87.5333 97.5307 88.0965 97.1894 88.4889 96.7333C89.5192 95.766 88.585 91.7397 89.1068 91.091C89.347 91.2803 89.2035 95.1949 89.1188 95.8306C88.7351 98.7045 84.0127 98.3277 84.0941 95.5386C83.9853 94.9848 83.9733 91.6846 84.0934 91.1454L84.1702 91.1398C84.3216 91.3803 84.2949 91.5359 84.2909 91.8224Z" fill="white"/>
<path d="M84.0941 95.5386C83.9853 94.9848 83.9733 91.6846 84.0934 91.1454L84.1702 91.1398C84.3216 91.3803 84.2949 91.5359 84.2909 91.8224C84.2622 92.4247 84.401 95.3258 84.0941 95.5386Z" fill="white"/>
<path d="M113.889 91.1973C114.765 91.1288 116.252 91.316 116.764 92.1426L116.707 92.2245C116.246 91.99 115.351 91.5139 114.828 91.4588C113.269 91.2943 111.749 92.4232 111.514 94.0188C111.398 94.8546 111.617 95.7027 112.123 96.3737C112.7 97.133 113.404 97.3843 114.288 97.51C115.559 97.6945 116.044 96.9737 116.98 96.6485L117.04 96.628C114.221 99.6273 109.983 96.4994 111.635 92.9269C112.062 92.0062 112.963 91.4939 113.889 91.1973Z" fill="white"/>
<path d="M52.9193 91.1678L54.0751 91.171L53.7792 91.2918C53.8632 91.3431 53.9206 91.3713 53.9581 91.4689C53.6352 91.492 53.5219 91.4968 53.203 91.4577C53.2153 91.8163 53.2268 94.1378 53.3101 94.2738C53.3029 94.3812 53.2837 94.4822 53.3112 94.5801C53.1692 94.7949 53.2351 97.1213 53.2394 97.515L53.0848 97.6303L53.1064 97.7244C53.5473 97.864 54.4588 97.7205 54.886 97.8484C54.2325 97.8596 53.579 97.8663 52.9254 97.8684C53.0066 95.9744 53.0166 93.0526 52.9193 91.1678Z" fill="white"/>
<path d="M70.1838 93.6526L70.3542 93.8233C70.2904 94.367 70.2845 94.8873 70.4443 95.4141C70.6726 96.1773 71.1959 96.8148 71.8955 97.1821C72.7589 97.6396 73.7856 97.6558 74.6626 97.2255C74.9541 97.0795 75.1571 96.8842 75.4683 96.7855L75.4867 96.8763C74.0025 98.9826 69.4356 97.5648 70.1838 93.6526Z" fill="white"/>
<path d="M131.059 91.1014L131.169 91.1738C131.335 91.4396 131.328 97.3803 131.269 97.9853C131.136 97.9561 131.118 97.9585 131.016 97.8602C130.965 97.1682 130.925 91.4903 131.059 91.1014Z" fill="white"/>
<path d="M103.049 93.7232C103.135 93.9261 103.164 93.9846 103.192 94.2119L103.203 94.1616C103.239 94.0017 103.235 93.9642 103.337 93.8476C103.327 94.0928 103.304 94.2472 103.391 94.4768C103.478 94.526 106.214 94.465 106.964 94.6982C106.056 94.8213 104.291 94.7718 103.339 94.7627C103.331 95.4578 103.439 97.4263 103.207 97.8952L103.123 97.9116C102.988 97.43 103.064 94.4519 103.049 93.7232Z" fill="white"/>
<path d="M103.057 91.14C104.251 91.257 105.761 91.0152 106.932 91.2449L106.96 91.3183C106.332 91.5684 104.102 91.4771 103.308 91.4666C103.372 92.1737 103.341 93.1209 103.337 93.8476C103.235 93.9642 103.239 94.0017 103.203 94.1616L103.192 94.2119C103.164 93.9846 103.135 93.9261 103.049 93.7232C103.043 92.8622 103.046 92.001 103.057 91.14Z" fill="white"/>
<path d="M77.8462 91.0665L77.9903 91.1641C78.1472 91.4629 78.1151 97.3204 78.0391 97.997L77.8889 97.9318C77.7414 97.6357 77.7668 91.6283 77.8462 91.0665Z" fill="white"/>
<path d="M99.9269 91.0628L100.066 91.1697C100.227 91.7244 100.16 97.0863 100.14 97.9704C99.9643 97.9376 100.012 97.9725 99.9056 97.8585C99.8108 96.2077 99.9349 94.4679 99.8942 92.8089C99.8809 92.2521 99.8902 91.6165 99.9269 91.0628Z" fill="white"/>
<path d="M67.5842 91.0694L67.7177 91.1918C67.8369 91.764 67.8486 97.2732 67.7675 98C67.7112 97.9689 67.5931 97.9176 67.5902 97.8742C67.5202 96.8447 67.4678 91.6372 67.5842 91.0694Z" fill="white"/>
<path d="M126.666 91.5263C126.741 91.5284 126.835 91.5375 126.905 91.5218C126.935 92.0898 126.961 97.7184 126.83 97.9317C126.559 97.233 126.665 92.6245 126.666 91.5263Z" fill="white"/>
<path d="M126.666 91.5263C126.035 91.3482 124.976 91.5973 124.386 91.3931L124.353 91.293C124.653 91.0534 126.472 91.1743 127.012 91.1577C127.492 91.1428 128.835 91.1045 129.234 91.3061C128.893 91.6279 127.375 91.3489 126.905 91.5218C126.835 91.5375 126.741 91.5284 126.666 91.5263Z" fill="white"/>
<path d="M53.2394 97.515C53.8384 97.5135 56.8448 97.4645 57.1964 97.6159L57.2036 97.713C56.8736 97.9718 55.3902 97.8562 54.886 97.8484C54.4588 97.7205 53.5473 97.864 53.1064 97.7244L53.0848 97.6303L53.2394 97.515Z" fill="white"/>
<path d="M53.3101 94.2738C53.794 94.2669 56.5114 94.2048 56.7212 94.3674C56.6928 94.4547 56.6924 94.5237 56.6192 94.5312C55.815 94.6131 54.0447 94.6184 53.3112 94.5801C53.2837 94.4822 53.3029 94.3812 53.3101 94.2738Z" fill="white"/>
<path d="M54.0751 91.171C54.8095 91.1632 56.4201 91.1171 57.0903 91.2574L57.1128 91.3237C56.4329 91.5711 54.7658 91.469 53.9581 91.4689C53.9206 91.3713 53.8632 91.3431 53.7792 91.2918L54.0751 91.171Z" fill="white"/>
<path d="M70.1838 93.6526C70.3382 92.4015 71.5419 91.5872 72.6237 91.2151L72.5274 91.554C71.3869 91.9582 70.649 92.5911 70.3542 93.8233L70.1838 93.6526Z" fill="white"/>
<path d="M72.6237 91.2151C73.3059 91.1537 75.3375 91.3142 75.5017 92.1374L75.4201 92.1984C74.318 91.5969 73.8965 91.2774 72.5274 91.554L72.6237 91.2151Z" fill="white"/>
</svg>
