<svg width="148" height="148" viewBox="0 0 148 148" fill="none" xmlns="http://www.w3.org/2000/svg">
<path d="M32.262 84.1889L32.0728 83.7589L22.9602 63.5835C22.7395 63.1535 22.2035 62.9693 21.7621 63.1843C21.5729 63.2764 21.4152 63.3992 21.3522 63.5835L12.2396 83.7896L12.0504 84.2196C11.9243 84.4959 12.0504 84.8337 12.3342 84.9565C12.3973 84.9873 12.4919 85.018 12.5549 84.9873H13.2486C13.5009 84.9873 13.7216 84.8337 13.7847 84.6188L13.8477 84.4652L22.1404 66.1016L30.4332 84.4652L30.4963 84.6188C30.5593 84.8337 30.78 84.9873 31.0322 84.9873H31.7259C32.0413 84.9873 32.2935 84.7416 32.2935 84.4345C32.2935 84.3424 32.2935 84.281 32.262 84.1889Z" fill="white"/>
<path d="M48.2483 84.9565H47.6177C47.3024 84.9565 47.0501 84.7109 47.0501 84.4038V64.7504H39.7349C39.4196 64.7504 39.1673 64.5047 39.1673 64.1976V63.5835C39.1673 63.2764 39.4196 63.0307 39.7349 63.0307H56.0681C56.3834 63.0307 56.6356 63.2764 56.6356 63.5835V64.1976C56.6356 64.5047 56.3834 64.7504 56.0681 64.7504H48.8159V84.4038C48.8159 84.7109 48.5637 84.9565 48.2483 84.9565Z" fill="white"/>
<path d="M79.3383 84.9565H67.0725C66.5995 84.9565 66.1896 84.5881 66.1896 84.1274V63.5835C66.1896 63.2764 66.4418 63.0307 66.7572 63.0307H67.3878C67.7031 63.0307 67.9554 63.2764 67.9554 63.5835V83.2369H79.3067C79.6218 83.2369 79.8743 83.4826 79.8743 83.7896V84.4038C79.9059 84.7416 79.6535 84.9565 79.3383 84.9565Z" fill="white"/>
<path d="M107.054 84.1889L106.865 83.7589L97.7523 63.5835C97.5315 63.1535 96.9956 62.9693 96.554 63.1843C96.3648 63.2764 96.2072 63.3992 96.1446 63.5835L87.0316 83.7896L86.8424 84.2196C86.7165 84.4959 86.8424 84.8337 87.1265 84.9565C87.1897 84.9873 87.284 84.9873 87.3473 84.9873H88.0407C88.2932 84.9873 88.514 84.8337 88.5767 84.6188L88.6399 84.4652L96.9323 66.1016L105.225 84.4652L105.289 84.6188C105.351 84.8337 105.572 84.9873 105.825 84.9873H106.518C106.834 84.9873 107.086 84.7416 107.086 84.4038C107.086 84.3424 107.054 84.281 107.054 84.1889Z" fill="white"/>
<path d="M131.176 84.9565H130.387C130.198 84.9565 130.04 84.8644 129.915 84.7416L129.82 84.6188L122.693 75.0377L115.441 84.7416C115.347 84.8952 115.158 84.9565 114.969 84.9565H114.18C113.865 84.9565 113.613 84.7109 113.613 84.4038C113.613 84.281 113.644 84.1581 113.739 84.066L114.117 83.5747L121.59 73.5637L114.748 64.3819L114.369 63.8905C114.18 63.6449 114.243 63.3071 114.495 63.1228C114.59 63.0614 114.716 63 114.843 63H115.63C115.82 63 115.978 63.0921 116.104 63.215L116.198 63.3378L122.725 72.059L129.347 63.215C129.441 63.0614 129.63 63 129.82 63H130.608C130.923 63 131.176 63.2457 131.176 63.5528C131.176 63.6756 131.144 63.7984 131.05 63.8905L130.671 64.3819L123.828 73.533L131.301 83.544L131.68 84.0353C131.869 84.281 131.806 84.6188 131.554 84.803C131.459 84.9259 131.333 84.9565 131.176 84.9565Z" fill="white"/>
<path d="M132.626 64.7197C132.626 64.4433 132.689 64.1669 132.847 63.8905C133.004 63.6449 133.193 63.4299 133.446 63.2764C133.698 63.1228 133.982 63.0614 134.297 63.0614C134.581 63.0614 134.865 63.1228 135.148 63.2764C135.401 63.4299 135.622 63.6142 135.779 63.8598C135.937 64.1055 136 64.3819 136 64.689C136 64.9653 135.937 65.2417 135.779 65.4874C135.622 65.7331 135.432 65.948 135.18 66.1016C134.928 66.2551 134.644 66.3165 134.328 66.3165C134.013 66.3165 133.73 66.2551 133.477 66.1016C133.225 65.948 133.004 65.7638 132.878 65.4874C132.721 65.2724 132.626 64.996 132.626 64.7197ZM132.878 64.7197C132.878 64.9653 132.941 65.211 133.067 65.426C133.193 65.6409 133.382 65.8252 133.603 65.948C133.824 66.0708 134.077 66.1323 134.328 66.1323C134.581 66.1323 134.833 66.0708 135.054 65.948C135.274 65.8252 135.464 65.6409 135.59 65.426C135.716 65.211 135.779 64.9653 135.779 64.7197C135.779 64.474 135.716 64.2283 135.59 64.0134C135.464 63.7984 135.274 63.6142 135.054 63.4913C134.833 63.3685 134.581 63.3071 134.328 63.3071C134.077 63.3071 133.824 63.3685 133.603 63.4913C133.382 63.6142 133.193 63.7984 133.067 64.0134C132.941 64.2283 132.878 64.4433 132.878 64.7197ZM134.991 64.3205C134.991 64.4433 134.959 64.5354 134.896 64.6275C134.833 64.7197 134.738 64.7811 134.644 64.8118L135.18 65.6716H134.802L134.328 64.9039H134.013V65.6716H133.698V63.737H134.266C134.518 63.737 134.707 63.7984 134.802 63.8905C134.928 63.9827 134.991 64.1362 134.991 64.3205ZM134.266 64.6583C134.392 64.6583 134.487 64.6275 134.549 64.5661C134.612 64.5047 134.644 64.4433 134.644 64.3512C134.644 64.2283 134.612 64.1669 134.549 64.1055C134.487 64.0441 134.392 64.0441 134.234 64.0441H133.982V64.6583H134.266Z" fill="white"/>
</svg>
