<svg width="148" height="148" viewBox="0 0 148 148" fill="none" xmlns="http://www.w3.org/2000/svg">
<path d="M55.9719 68.0535H53.4195L49.5425 73.0644V64.2795H47.4101V79.7879H49.5425V75.8236L50.8348 74.2696L54.001 79.7879H56.5211L52.2887 72.557L55.9719 68.0535Z" fill="white"/>
<path d="M64.8567 69.6075C64.5659 69.0367 64.1459 68.5927 63.5967 68.2755C63.0474 67.9267 62.3366 67.7681 61.4643 67.7681C60.592 67.7681 59.8489 67.9584 59.2673 68.3389C58.6858 68.7195 58.2335 69.1952 57.9427 69.8295C57.6519 70.4321 57.4581 71.0981 57.3288 71.7958C57.2319 72.4936 57.1673 73.2547 57.1673 74.0793C57.1673 76.0773 57.4904 77.5996 58.1688 78.5828C58.8473 79.5976 59.9135 80.1051 61.3674 80.1051C62.1428 80.1051 62.8213 79.9465 63.3382 79.6611C63.8874 79.3756 64.3075 78.995 64.5982 78.551C64.889 78.107 65.1152 77.6313 65.2444 77.1873C65.3736 76.7116 65.4382 76.2993 65.4382 75.9187V75.7602H63.2736V75.9187C63.2736 76.1724 63.2413 76.4579 63.209 76.7433C63.1443 77.0287 63.0797 77.2825 62.9505 77.5362C62.8213 77.7899 62.6274 77.9802 62.4013 78.1705C62.1751 78.329 61.852 78.4242 61.4966 78.4242C61.012 78.4242 60.6243 78.2973 60.3658 78.0753C60.075 77.8216 59.8812 77.5045 59.7196 77.0922C59.5904 76.6799 59.4935 76.2359 59.4612 75.8236C59.4289 75.443 59.4289 74.9673 59.4289 74.3964H65.5352V73.5084C65.5352 72.7473 65.5029 72.0813 65.4059 71.447C65.309 70.7493 65.1152 70.1467 64.8567 69.6075ZM59.8166 70.559C59.9458 70.2735 60.1397 69.9881 60.4304 69.7978C60.6889 69.6075 61.012 69.4807 61.432 69.4807C61.7874 69.4807 62.0782 69.5441 62.3043 69.7027C62.5305 69.8612 62.7243 70.0515 62.8859 70.2735C63.0151 70.5273 63.1443 70.8127 63.1767 71.0981C63.2413 71.4153 63.2736 71.7324 63.2736 72.0813V72.5887H59.4612V72.335C59.4612 72.113 59.4935 71.8276 59.5258 71.5104C59.5904 71.1933 59.6873 70.8761 59.8166 70.559Z" fill="white"/>
<path d="M72.2553 67.7681C71.6092 67.7681 71.0922 67.9584 70.6722 68.3389C70.3815 68.5927 70.123 68.9415 69.8645 69.3538V68.0535H67.6998V79.7879H69.8645V72.4301C69.8645 72.0178 69.9291 71.6373 70.0907 71.3201C70.2199 71.003 70.4138 70.7175 70.6399 70.5273C70.8661 70.3053 71.1245 70.1467 71.383 70.0515C71.9646 69.8295 72.4815 69.893 72.9015 69.9564C72.9661 69.9881 73.0307 69.9881 73.0631 69.9881H73.2246V67.9901L73.1277 67.9584C72.9338 67.8315 72.643 67.7681 72.2553 67.7681Z" fill="white"/>
<path d="M82.5294 78.329C82.271 78.329 82.2387 78.2339 82.2064 78.2022C82.1417 78.0753 82.1094 77.8533 82.1094 77.5679V71.225C82.1094 70.781 82.0771 70.4004 82.0448 70.0515C81.9802 69.7027 81.851 69.3538 81.6248 69.005C81.3987 68.6561 81.0109 68.3389 80.494 68.1169C79.9771 67.8949 79.2986 67.7998 78.4263 67.7998C77.0047 67.7998 75.9708 68.1169 75.3246 68.7512C74.6785 69.3855 74.3554 70.3687 74.3554 71.7324V71.891H76.5201V71.6373C76.5201 71.447 76.5201 71.2567 76.5524 71.0347C76.5847 70.8444 76.6493 70.6224 76.7785 70.3687C76.8755 70.1467 77.0693 69.9564 77.3278 69.7978C77.5862 69.6392 77.9416 69.5441 78.3616 69.5441C79.5247 69.5441 80.0417 70.0198 80.0417 71.0664C80.0417 71.7007 79.9448 71.9861 79.8478 72.113C79.7832 72.2398 79.5248 72.4301 78.814 72.6521L76.3585 73.3816C75.5831 73.6036 75.0016 74.0159 74.6139 74.5867C74.2262 75.1576 74.0323 75.8553 74.0323 76.7116C74.0323 77.7899 74.3231 78.6462 74.8723 79.2805C75.4216 79.8831 76.2616 80.2002 77.3601 80.2002C77.9416 80.2002 78.4909 80.0416 79.0401 79.7245C79.4601 79.4708 79.8155 79.1853 80.074 78.8048C80.1063 78.995 80.1709 79.1536 80.2355 79.2805C80.3648 79.5025 80.494 79.6928 80.6879 79.7879C80.8494 79.8831 81.0433 79.9465 81.2371 79.9782C81.5279 80.0099 81.9802 80.0416 82.4002 79.9782C82.5941 79.9465 82.7556 79.9465 82.9171 79.9148H83.0787V78.1705L82.8202 78.3608C82.8202 78.2973 82.691 78.329 82.5294 78.329ZM76.3262 76.553C76.3262 76.109 76.3908 75.7602 76.5201 75.5064C76.6493 75.2527 76.8432 75.0624 77.1339 74.9039C77.3601 74.777 77.7801 74.6184 78.394 74.4281C78.8786 74.3013 79.2663 74.1427 79.5571 74.0159C79.7186 73.9524 79.8801 73.8573 80.0094 73.7621V76.331C80.0094 76.8702 79.7832 77.3142 79.3632 77.7265C78.9109 78.1388 78.4263 78.329 77.8447 78.329C77.3278 78.329 76.9401 78.1705 76.7139 77.885C76.4555 77.5996 76.3262 77.1556 76.3262 76.553Z" fill="white"/>
<path d="M90.962 69.005C90.8004 68.7512 90.5743 68.5292 90.2835 68.3072C89.7989 67.9267 89.2173 67.7681 88.5711 67.7681C87.828 67.7681 87.1819 67.9267 86.6649 68.2755C86.148 68.5927 85.728 69.0684 85.4372 69.6392C85.1464 70.2101 84.9203 70.8761 84.791 71.6055C84.6618 72.3033 84.5972 73.0961 84.5972 73.9207C84.5972 74.4599 84.6295 75.0307 84.6941 75.6333C84.7587 76.2359 84.9203 76.8702 85.1787 77.5045C85.4372 78.1388 85.8249 78.6779 86.3419 79.1219C86.8588 79.5659 87.5373 79.7879 88.3773 79.7879C88.9911 79.7879 89.5727 79.6293 90.0896 79.3439C90.4127 79.1536 90.7035 78.9316 90.8973 78.6462V79.5659C90.8973 79.8831 90.865 80.2002 90.8327 80.4539C90.8004 80.7076 90.7035 80.9613 90.5743 81.1833C90.445 81.4053 90.2512 81.5956 89.9604 81.7225C89.6696 81.8811 89.2819 81.9445 88.7973 81.9445C88.3127 81.9445 87.925 81.8494 87.6019 81.6274C87.3111 81.4371 87.1496 81.0882 87.0849 80.6442V80.4856H84.9203L84.9526 80.6759C85.0172 81.3736 85.2434 81.9445 85.5664 82.3568C85.8895 82.7691 86.2772 83.0862 86.6972 83.2765C87.1172 83.4668 87.505 83.5619 87.8927 83.6254C88.248 83.6571 88.6034 83.6888 88.9265 83.6888C90.2189 83.6888 91.2204 83.3082 91.9635 82.5471C92.6743 81.7859 93.062 80.5491 93.062 78.8999V68.0535H90.9943V69.005H90.962ZM86.9234 75.4113C86.8911 74.9673 86.8588 74.4599 86.8588 73.9207C86.8588 72.4618 87.0203 71.3835 87.3111 70.6541C87.6019 69.9564 88.0865 69.6392 88.8296 69.6392C89.2496 69.6392 89.605 69.7661 89.8958 69.9881C90.1866 70.2101 90.4127 70.5273 90.5743 70.9078C90.7358 71.2884 90.865 71.7641 90.9297 72.2716C90.9943 72.779 91.0266 73.3499 91.0266 73.9524C91.0266 74.5867 90.9943 75.1576 90.9297 75.6333C90.865 76.109 90.7358 76.5213 90.5743 76.8702C90.4127 77.219 90.1866 77.4727 89.8958 77.663C89.605 77.8533 89.2496 77.9485 88.7973 77.9485C88.4096 77.9485 88.0865 77.8533 87.828 77.6313C87.5696 77.4093 87.3757 77.0922 87.2142 76.7116C87.0849 76.2993 86.9557 75.887 86.9234 75.4113Z" fill="white"/>
<path d="M97.876 64.2795H95.7113V79.7879H97.876V64.2795Z" fill="white"/>
<path d="M108.441 78.329C108.182 78.329 108.15 78.2339 108.118 78.2022C108.053 78.0753 108.021 77.8533 108.021 77.5679V71.225C108.021 70.781 107.989 70.4004 107.956 70.0515C107.892 69.7027 107.762 69.3538 107.536 69.005C107.31 68.6561 106.922 68.3389 106.405 68.1169C105.888 67.8949 105.21 67.7998 104.338 67.7998C102.916 67.7998 101.882 68.1169 101.236 68.7512C100.59 69.3855 100.267 70.3687 100.267 71.7324V71.891H102.431V71.6373C102.431 71.447 102.431 71.2567 102.464 71.0347C102.496 70.8444 102.561 70.6224 102.69 70.3687C102.787 70.1467 102.981 69.9564 103.239 69.7978C103.498 69.6392 103.853 69.5441 104.273 69.5441C105.436 69.5441 105.985 70.0198 105.985 71.0664C105.985 71.7007 105.888 71.9861 105.792 72.113C105.727 72.2398 105.468 72.4301 104.758 72.6521L102.302 73.3816C101.527 73.6036 100.945 74.0159 100.558 74.5867C100.17 75.1576 99.976 75.8553 99.976 76.7116C99.976 77.7899 100.267 78.6462 100.816 79.2805C101.365 79.8831 102.205 80.2002 103.304 80.2002C103.885 80.2002 104.435 80.0416 104.984 79.7245C105.404 79.4708 105.759 79.1853 106.018 78.8048C106.05 78.995 106.115 79.1536 106.179 79.2805C106.308 79.5025 106.438 79.6928 106.632 79.7879C106.793 79.8831 106.987 79.9465 107.181 79.9782C107.472 80.0099 107.924 80.0416 108.344 79.9782C108.538 79.9465 108.699 79.9465 108.861 79.9148H109.022V78.1705L108.764 78.3608C108.699 78.2973 108.602 78.329 108.441 78.329ZM102.238 76.553C102.238 76.109 102.302 75.7602 102.431 75.5064C102.561 75.2527 102.755 75.0624 103.045 74.9039C103.271 74.777 103.692 74.6184 104.305 74.4281C104.79 74.3013 105.178 74.1427 105.468 74.0159C105.63 73.9524 105.792 73.8573 105.921 73.7621V76.331C105.921 76.8702 105.695 77.3142 105.275 77.7265C104.822 78.1388 104.338 78.329 103.756 78.329C103.239 78.329 102.851 78.1705 102.625 77.885C102.367 77.5996 102.238 77.1556 102.238 76.553Z" fill="white"/>
<path d="M117.261 73.9841C117.003 73.7621 116.68 73.5719 116.389 73.4133C116.098 73.2864 115.71 73.1278 115.226 72.9693C115.096 72.9376 114.935 72.8741 114.709 72.8107C113.933 72.5887 113.352 72.335 112.964 72.113C112.641 71.891 112.479 71.5738 112.479 71.0981C112.479 70.7493 112.544 70.4638 112.641 70.2735C112.77 70.0515 112.899 69.893 113.093 69.7978C113.287 69.7027 113.449 69.6075 113.643 69.5758C113.836 69.5441 114.03 69.5124 114.192 69.5124C114.773 69.5124 115.161 69.671 115.387 69.9881C115.613 70.3053 115.743 70.8444 115.743 71.5738V71.7324H117.907V71.5738C117.907 71.0981 117.875 70.6858 117.81 70.3053C117.746 69.893 117.584 69.5124 117.358 69.1318C117.1 68.7512 116.712 68.4024 116.227 68.1804C115.71 67.9267 115.064 67.7998 114.224 67.7998C113.126 67.7998 112.189 68.0852 111.478 68.6561C110.735 69.227 110.379 70.0515 110.379 71.1298C110.379 71.7007 110.444 72.1764 110.606 72.557C110.767 72.9376 110.993 73.2547 111.252 73.5084C111.51 73.7621 111.801 73.9207 112.092 74.0476C112.382 74.1744 112.77 74.3013 113.223 74.4599L113.352 74.4916C113.416 74.4916 113.513 74.555 113.707 74.5867C114.515 74.8404 115.096 75.0942 115.387 75.3162C115.613 75.4747 115.775 75.665 115.904 75.8553C116.033 76.0773 116.066 76.331 116.066 76.6482C116.066 76.997 116.001 77.2825 115.872 77.5045C115.743 77.7265 115.581 77.9167 115.419 78.0436C115.226 78.1705 115.032 78.2656 114.87 78.2973C114.676 78.329 114.483 78.3608 114.321 78.3608C113.578 78.3608 113.061 78.1388 112.77 77.7265C112.479 77.2825 112.318 76.6482 112.318 75.887V75.7284H110.153V75.887C110.153 76.331 110.186 76.775 110.25 77.1873C110.315 77.6313 110.476 78.0436 110.735 78.4876C110.993 78.9316 111.413 79.3122 112.027 79.6293C112.609 79.9465 113.384 80.0733 114.321 80.0733C115.484 80.0733 116.421 79.7562 117.164 79.1219C117.875 78.4876 118.263 77.5362 118.263 76.331C118.263 75.7602 118.166 75.2844 118.036 74.9039C117.746 74.555 117.52 74.2061 117.261 73.9841Z" fill="white"/>
<path d="M127.277 74.9356C127.115 74.555 126.889 74.2379 126.598 73.9841C126.34 73.7621 126.017 73.5719 125.726 73.4133C125.435 73.2864 125.047 73.1278 124.563 72.9693C124.434 72.9376 124.272 72.8741 124.046 72.8107C123.27 72.5887 122.689 72.335 122.301 72.113C121.978 71.891 121.817 71.5738 121.817 71.0981C121.817 70.7493 121.881 70.4638 121.978 70.2735C122.107 70.0515 122.237 69.893 122.43 69.7978C122.624 69.7027 122.786 69.6075 122.98 69.5758C123.174 69.5441 123.367 69.5124 123.529 69.5124C124.11 69.5124 124.498 69.671 124.724 69.9881C124.951 70.3053 125.08 70.8444 125.08 71.5738V71.7324H127.244V71.5738C127.244 71.0981 127.212 70.6858 127.147 70.3053C127.083 69.893 126.921 69.5124 126.695 69.1318C126.437 68.7512 126.049 68.4024 125.564 68.1804C125.047 67.9267 124.401 67.7998 123.561 67.7998C122.463 67.7998 121.526 68.0852 120.815 68.6561C120.072 69.227 119.717 70.0515 119.717 71.1298C119.717 71.7007 119.813 72.1764 119.943 72.557C120.104 72.9376 120.33 73.2547 120.589 73.5084C120.847 73.7621 121.138 73.9207 121.429 74.0476C121.72 74.1744 122.107 74.3013 122.56 74.4599L122.689 74.4916C122.754 74.4916 122.85 74.555 123.044 74.5867C123.852 74.8404 124.434 75.0942 124.724 75.3162C124.951 75.4747 125.112 75.665 125.241 75.8553C125.371 76.0773 125.403 76.331 125.403 76.6482C125.403 76.997 125.338 77.2825 125.209 77.5045C125.08 77.7265 124.918 77.9167 124.757 78.0436C124.563 78.1705 124.369 78.2656 124.207 78.2973C124.014 78.329 123.82 78.3608 123.658 78.3608C122.915 78.3608 122.398 78.1388 122.107 77.7265C121.817 77.2825 121.655 76.6799 121.655 75.887V75.7284H119.49V75.887C119.49 76.331 119.523 76.775 119.587 77.1873C119.652 77.6313 119.813 78.0436 120.072 78.4876C120.33 78.9316 120.75 79.3122 121.364 79.6293C121.946 79.9148 122.721 80.0733 123.658 80.0733C124.821 80.0733 125.791 79.7562 126.501 79.1219C127.212 78.4876 127.6 77.5362 127.6 76.331C127.503 75.7919 127.438 75.3162 127.277 74.9356Z" fill="white"/>
<path d="M136 64.5649H131.929V66.9435H136V64.5649Z" fill="white"/>
<path d="M136 73.2547H131.929V75.6333H136V73.2547Z" fill="white"/>
<path d="M136 77.5679H131.929V79.9465H136V77.5679Z" fill="white"/>
<path d="M41.7238 58H41.0776V90H41.7238V58Z" fill="white"/>
<path d="M24.3742 61.8375L12 73.9841L24.3742 86.1308L36.7483 73.9841L24.3742 61.8375ZM24.3742 63.7086L34.8421 73.9841L24.3742 84.2597L13.9062 73.9841L24.3742 63.7086Z" fill="white"/>
<path d="M20.0125 71.5104H21.1433V73.7304L23.2757 71.5104H24.6649L22.5326 73.667L24.7619 76.6165H23.3726L21.7572 74.4281L21.1433 75.0624V76.6165H20.0125V71.5104Z" fill="white"/>
<path d="M23.7603 73.9841C23.7603 72.5253 24.9234 71.3201 26.5065 71.3201C27.4435 71.3201 28.025 71.5738 28.542 72.0178L27.8312 72.8741C27.4435 72.557 27.0558 72.3667 26.4742 72.3667C25.6342 72.3667 24.988 73.0961 24.988 73.9524C24.988 74.9039 25.6342 75.5699 26.5711 75.5699C26.9911 75.5699 27.3465 75.4747 27.6373 75.2527V74.5233H26.4742V73.5401H28.7358V75.7602C28.1866 76.2042 27.4758 76.5847 26.5065 76.5847C24.8911 76.6165 23.7603 75.5064 23.7603 73.9841Z" fill="white"/>
</svg>
