<svg width="148" height="148" viewBox="0 0 148 148" fill="none" xmlns="http://www.w3.org/2000/svg">
<path d="M71.4171 47.6282L71.3706 47.5166C70.7661 46.0942 69.4574 44.2683 68.7042 42.887C65.4535 36.9258 67.0473 29.3558 72.3885 25.1291C72.8615 24.7547 73.2459 24.2743 73.8028 24L73.9708 24.0192C80.7797 36.5375 88.5877 48.7428 95.4572 61.2525C96.7556 63.6166 98.6244 66.2556 99.4547 68.7852C100.276 71.3196 100.304 74.0411 99.5329 76.5911C99.153 77.8405 97.4329 81.4257 96.6455 82.3016C93.8825 82.4292 90.6657 82.3574 87.8818 82.3752C86.4204 82.3845 81.4916 82.3676 80.2217 82.0463C80.6322 80.639 82.2734 78.266 83.0694 76.9524C83.9867 75.4391 84.9106 73.7777 85.8643 72.3034C85.4315 71.7983 84.784 70.6319 84.4162 70.0185C83.4097 68.3614 82.4369 66.6848 81.4979 64.9897C81.0081 64.1249 80.287 62.7562 79.7544 62.003C79.4047 60.8888 77.3581 57.599 76.6533 56.4166C74.9199 53.5084 73.2471 50.4624 71.4171 47.6282Z" fill="white"/>
<path d="M54.5748 86.9012C55.6716 83.9655 57.9018 80.7435 59.5071 77.9887C60.0199 77.1087 62.4878 73.0793 63.0551 72.6379C63.6064 73.5886 64.2194 74.5043 64.7605 75.4593C65.2394 76.3045 68.1214 82.0527 68.8674 82.2556C68.8972 82.2638 68.9277 82.2686 68.9577 82.2753C68.9781 82.28 68.9984 82.2852 69.0187 82.2898C70.0794 82.5337 79.5223 82.4574 80.1247 82.107C80.1576 82.0879 80.1893 82.0666 80.2217 82.0463C81.4916 82.3676 86.4204 82.3845 87.8818 82.3752C90.6657 82.3574 93.8825 82.4292 96.6455 82.3016C97.3734 82.4573 100.797 82.4236 101.637 82.3604C109.46 81.771 116.514 88.0116 116.581 95.7918C116.583 95.9414 116.468 96.0893 116.367 96.1934C115.383 96.2411 114.147 96.1591 113.138 96.1435C111.421 96.1289 109.705 96.1236 107.988 96.1278L74.057 96.1277C68.1227 96.1271 62.7994 96.7844 58.2878 92.2651C56.6923 90.6669 55.6582 88.8563 54.5748 86.9012Z" fill="white"/>
<path d="M54.5748 86.9012C53.6414 89.0057 51.956 91.381 50.1661 92.8982C47.2209 95.3946 43.891 96.3165 40.0213 96.0622C39.2689 96.1804 34.7605 95.0134 34.5045 94.4117C34.1175 93.5016 40.0964 83.9172 40.3987 83.3909L53.8322 59.9953C55.186 57.6529 56.636 55.0848 57.956 52.7209C58.1967 52.2897 60.535 50.0008 60.9519 49.7527C63.3705 48.3138 68.6568 47.0287 71.4171 47.6282C73.2471 50.4624 74.9199 53.5084 76.6533 56.4166C77.3581 57.599 79.4047 60.8888 79.7544 62.003C77.5436 61.8008 71.0581 61.8027 68.9278 61.9698L65.2762 68.2391C64.7897 69.0615 62.9403 71.88 63.0551 72.6379C62.4878 73.0793 60.0199 77.1087 59.5071 77.9887C57.9018 80.7435 55.6716 83.9655 54.5748 86.9012Z" fill="white"/>
<path d="M105.778 107.05C106.906 106.95 108.158 107.097 109.201 107.538C109.834 107.805 110.919 108.862 111.542 108.838C111.974 108.822 113.393 107.667 113.999 107.418C114.404 107.251 114.869 107.195 115.303 107.137C117.202 106.88 119.493 107.116 121.045 108.303C122.577 109.474 123.616 111.513 123.842 113.4C123.969 114.467 124.18 122.687 123.704 123.191C123.397 123.516 121.241 123.387 120.725 123.376C120.447 123.369 119.938 123.376 119.722 123.17C118.678 122.176 120.434 113.631 118.58 111.766C118.072 111.256 117.453 111.144 116.757 111.132C115.889 111.117 115.07 111.232 114.429 111.866C113.146 113.134 113.533 115.885 113.537 117.536C113.533 118.724 113.753 122.187 113.412 123.071C112.914 123.48 110.01 123.488 109.556 123.187C108.668 121.669 110.502 112.453 108.222 111.579C100.424 108.593 104.812 120.753 103.195 123.205C102.711 123.496 100.201 123.388 99.3887 123.427C98.9746 120.403 99.2598 115.549 99.458 112.455C99.6761 109.067 102.761 107.5 105.778 107.05Z" fill="white"/>
<path d="M32.2917 107.059C34.0189 107.011 35.8916 107.445 37.2856 108.485C39.1256 109.869 40.3266 111.927 40.6189 114.196C40.8045 115.547 40.9835 121.73 40.461 123.228C40.3508 123.544 37.1985 123.482 36.8033 123.135C36.6088 122.823 36.6497 122.192 36.6449 121.799C35.4454 122.694 34.9813 122.947 33.6441 123.642C31.5629 124.63 29.0036 123.2 27.3659 121.923C24.8268 119.889 23.1959 116.261 24.4096 113.098C25.9166 109.169 28.0371 107.445 32.2917 107.059ZM32.6406 119.701C34.0472 119.267 35.1507 118.94 35.8946 117.519C36.473 116.393 36.5792 115.086 36.1901 113.883C35.6807 112.335 34.1188 110.743 32.3471 110.978C26.7435 111.622 27.5577 119.824 32.6406 119.701Z" fill="white"/>
<path d="M84.1045 107.392C84.5671 107.348 85.2697 107.3 85.6881 107.476C86.0174 107.75 86.1011 108.202 86.1165 108.62C86.2189 111.462 85.7201 114.583 86.0758 117.377C86.4656 120.433 91.495 120.172 91.7703 116.993C91.9707 114.674 91.8408 112.182 91.8364 109.84C91.8408 109.299 91.6106 107.471 92.5918 107.435C93.4012 107.512 95.3515 107.105 95.9583 107.588C96.3823 108.492 96.2061 112.63 96.1896 113.802C96.1962 116.515 96.3669 118.991 94.432 121.216C93.3021 122.532 90.9895 123.888 89.2506 123.995C86.9215 124.101 84.4008 122.631 82.9913 120.861C82.1713 119.804 81.8091 118.344 81.7615 117.012C81.6592 114.147 81.8546 111.232 81.802 108.365C81.7828 107.328 83.3425 107.406 84.1045 107.392Z" fill="white"/>
<path d="M61.2245 103.472C65.537 103.161 64.9757 103.257 65.1633 107.323C65.5286 107.334 67.3846 107.229 67.6573 107.529C68.2803 108.215 68.286 110.166 67.773 110.903C67.5207 111.265 65.5853 111.203 64.9751 111.211C65.3613 113.793 64.5511 115.692 65.3416 118.467C66.1826 119.175 66.7823 119.246 67.8612 119.581C67.9551 120.056 67.9926 120.77 68.034 121.269C68.0427 121.54 68.0438 121.811 68.0375 122.082C68.0196 123.112 67.871 123.49 66.7567 123.406C63.9984 123.277 61.2209 121.242 60.9594 118.311C60.5506 113.729 60.7608 108.7 60.8089 104.068C60.8122 103.751 61.0071 103.64 61.2245 103.472Z" fill="white"/>
<path d="M77.4304 107.059C80.4706 106.985 79.2077 110.529 79.1613 110.558C77.798 111.426 75.6268 110.54 74.9673 113.403C74.5831 115.072 75.2986 122.477 74.5816 123.335C74.1161 123.5 73.307 123.388 72.7844 123.351C72.2499 123.373 71.3637 123.47 70.9197 123.235C70.6388 122.786 70.6662 121.563 70.6877 120.995C70.912 115.038 68.9476 107.737 77.4304 107.059Z" fill="white"/>
<path d="M50.5364 115.338C50.9039 115.278 51.992 115.418 52.294 115.654C54.542 117.411 56.5087 119.616 58.5192 121.635C58.8923 122.059 58.6485 122.545 58.2224 122.783C56.0591 123.987 54.3735 122.655 52.873 121.136C52.1964 120.452 51.4075 119.7 50.8824 118.872C50.4498 118.997 48.1171 121.703 47.5449 122.122C46.4473 122.926 46.2002 122.985 44.9035 123.287C44.1429 123.05 42.962 122.826 42.6825 122.018C43.122 121.009 44.943 119.378 45.8149 118.633C47.5596 117.143 48.1576 115.698 50.5364 115.338Z" fill="white"/>
<path d="M56.4787 107.382C57.6119 107.454 59.7676 107.961 58.2339 109.256C56.3772 110.823 53.2853 115.12 50.7761 115.232C48.8732 115.317 46.4107 112.239 45.0222 110.943C44.3851 110.291 42.726 109.002 42.7233 108.178C43.0389 107.797 43.9148 107.522 44.3989 107.427C47.2886 106.855 48.6869 110.104 50.7931 111.528L50.8945 111.595C52.5928 109.642 53.8347 107.665 56.4787 107.382Z" fill="white"/>
</svg>
