<svg width="148" height="148" viewBox="0 0 148 148" fill="none" xmlns="http://www.w3.org/2000/svg">
<path d="M53.7616 78.8306C53.7579 79.2828 53.7051 79.7334 53.6041 80.1748H45.1656L44.8507 79.7157L49.6831 70.5941H45.3935C45.3384 70.3644 45.3004 70.1312 45.28 69.8963C45.2624 69.6808 45.2536 69.4767 45.2536 69.284C45.2536 69.0913 45.2624 68.8815 45.28 68.6546C45.2995 68.4139 45.3374 68.175 45.3935 67.9398H53.9199L54.1839 68.4332L49.3866 77.5377H53.6094C53.7064 77.9623 53.7575 78.3956 53.7616 78.8306Z" fill="white"/>
<path d="M60.6244 80.3613C59.8219 80.385 59.0223 80.2578 58.2694 79.9867C57.6832 79.7657 57.1712 79.3916 56.7897 78.9058C56.4102 78.3967 56.1502 77.8129 56.0278 77.1956C55.8742 76.4505 55.8007 75.6919 55.8087 74.9321V67.9714C56.1471 67.9264 56.4404 67.8953 56.6885 67.8782C56.9366 67.8611 57.1712 67.8525 57.3923 67.8525C57.5911 67.8525 57.8099 67.8611 58.0486 67.8782C58.2873 67.8953 58.5761 67.9264 58.9151 67.9714V74.5746C58.9109 75.0578 58.9344 75.5409 58.9855 76.0215C59.0154 76.3561 59.1012 76.6836 59.2397 76.9912C59.3439 77.222 59.5261 77.4112 59.7561 77.5274C60.0327 77.6463 60.3337 77.7016 60.6359 77.689C60.9378 77.6997 61.2384 77.6444 61.5156 77.5274C61.7503 77.4137 61.937 77.2242 62.0434 76.9912C62.1812 76.6838 62.2642 76.3559 62.2889 76.0215C62.3294 75.6225 62.3499 75.1402 62.3505 74.5746V67.9714C62.7024 67.9264 62.9971 67.8953 63.2346 67.8782C63.4721 67.8611 63.6909 67.8525 63.8909 67.8525C64.1009 67.8525 64.3284 67.8611 64.5736 67.8782C64.8187 67.8953 65.112 67.9264 65.4533 67.9714V74.9321C65.4612 75.6919 65.3878 76.4505 65.2343 77.1956C65.1116 77.8128 64.8516 78.3966 64.4724 78.9058C64.0908 79.3915 63.5788 79.7655 62.9927 79.9867C62.2357 80.2595 61.4314 80.3867 60.6244 80.3613Z" fill="white"/>
<path d="M70.8145 74.0821C70.8145 76.4873 71.8532 77.6899 73.9305 77.6899C74.2851 77.6914 74.6389 77.6573 74.9862 77.5881C75.3984 77.4975 75.8046 77.3833 76.2029 77.2461C76.5827 78.0453 76.8422 78.8934 76.9735 79.7644C76.6345 79.8892 76.3193 79.9913 76.0278 80.0705C75.7517 80.1466 75.4712 80.2063 75.1877 80.2493C74.9191 80.2892 74.6534 80.3177 74.3906 80.3348C74.1279 80.3519 73.8566 80.3604 73.5768 80.3604C72.6809 80.3781 71.7905 80.219 70.9596 79.8927C70.2372 79.6018 69.5912 79.157 69.0691 78.5912C68.5489 78.0123 68.1593 77.3338 67.9254 76.5996C67.6617 75.785 67.5316 74.9351 67.5401 74.0812C67.5321 73.2233 67.6682 72.3698 67.943 71.5544C68.1901 70.8141 68.5857 70.1288 69.1069 69.538C69.6242 68.9641 70.2676 68.5106 70.9895 68.2108C71.7927 67.8825 72.6573 67.7203 73.5284 67.7345C74.0619 67.7325 74.5948 67.7722 75.1217 67.8534C75.6976 67.9535 76.2609 68.1132 76.802 68.3297C76.779 68.7904 76.6902 69.2457 76.5381 69.6825C76.4049 70.0743 76.2471 70.4579 76.0656 70.8309C75.831 70.7517 75.6181 70.6835 75.4269 70.6265C75.2357 70.5695 75.0519 70.5242 74.8753 70.4906C74.6994 70.4564 74.5235 70.4307 74.3475 70.4136C74.1716 70.3965 73.9847 70.388 73.7871 70.388C73.3715 70.3657 72.9563 70.438 72.5746 70.5991C72.1928 70.7601 71.8549 71.0055 71.5877 71.3158C71.0119 72.1247 70.739 73.1012 70.8145 74.0821Z" fill="white"/>
<path d="M81.0045 74.0821C81.0045 76.4873 82.0432 77.6899 84.1205 77.6899C84.4751 77.6914 84.8289 77.6573 85.1762 77.5881C85.5884 77.4975 85.9946 77.3833 86.3929 77.2461C86.7726 78.0453 87.0321 78.8934 87.1635 79.7644C86.8245 79.8892 86.5093 79.9913 86.2178 80.0705C85.9418 80.1466 85.6612 80.2063 85.3777 80.2493C85.1091 80.2892 84.8434 80.3177 84.5806 80.3348C84.3179 80.3519 84.0466 80.3604 83.7669 80.3604C82.8709 80.3781 81.9805 80.219 81.1496 79.8927C80.4272 79.6018 79.7812 79.157 79.2591 78.5912C78.739 78.0122 78.3494 77.3338 78.1154 76.5996C77.8517 75.785 77.7217 74.9351 77.7301 74.0812C77.722 73.2233 77.8577 72.3698 78.1321 71.5544C78.3793 70.8141 78.7748 70.1288 79.296 69.538C79.8133 68.9641 80.4567 68.5105 81.1787 68.2108C81.9818 67.8825 82.8464 67.7203 83.7176 67.7345C84.2511 67.7325 84.7839 67.7722 85.3108 67.8534C85.8868 67.9535 86.4501 68.1132 86.9911 68.3297C86.9682 68.7904 86.8793 69.2457 86.7272 69.6825C86.594 70.0743 86.4362 70.4579 86.2548 70.8309C86.0202 70.7517 85.8073 70.6835 85.6161 70.6265C85.4249 70.5695 85.241 70.5242 85.0645 70.4906C84.8885 70.4564 84.7126 70.4307 84.5367 70.4136C84.3607 70.3965 84.1739 70.388 83.9762 70.388C83.5607 70.3658 83.1455 70.4381 82.7637 70.5992C82.382 70.7602 82.0441 71.0056 81.7769 71.3158C81.2015 72.1249 80.9288 73.1013 81.0045 74.0821Z" fill="white"/>
<path d="M96.8838 80.2766C96.361 80.268 95.8398 80.2169 95.3258 80.1235V75.1544H92.2265V80.1261C91.7181 80.2177 91.2029 80.2689 90.686 80.2792C90.1632 80.2706 89.642 80.2194 89.128 80.1261V67.9748C89.4429 67.9298 89.7289 67.8959 89.9858 67.8731C90.2426 67.8503 90.4702 67.8389 90.6684 67.8389C90.8784 67.8389 91.1147 67.8503 91.3775 67.8731C91.6402 67.8959 91.9232 67.9298 92.2265 67.9748V72.4847H95.3258V67.9748C95.6407 67.9298 95.9237 67.8959 96.1747 67.8731C96.4257 67.8503 96.6562 67.8389 96.8662 67.8389C97.0762 67.8389 97.3125 67.8503 97.5752 67.8731C97.838 67.8959 98.121 67.9298 98.4242 67.9748V80.1261C97.9158 80.2168 97.4006 80.2671 96.8838 80.2766Z" fill="white"/>
<path d="M107.564 73.7931C107.558 74.2395 107.505 74.6842 107.406 75.1202H104.027V77.5368H108.422C108.52 77.9615 108.573 78.3952 108.579 78.8306C108.575 79.2828 108.523 79.7334 108.422 80.1748H100.928V67.9423H108.318C108.364 68.192 108.399 68.4246 108.422 68.6401C108.445 68.8435 108.457 69.0478 108.458 69.2524C108.45 69.7035 108.403 70.1532 108.318 70.5966H104.027V72.4685H107.406C107.504 72.9038 107.557 73.3476 107.564 73.7931Z" fill="white"/>
<path d="M112.849 70.5932H109.926C109.716 69.7213 109.716 68.8142 109.926 67.9423H118.873C118.919 68.192 118.954 68.4246 118.978 68.6401C119 68.8435 119.012 69.0478 119.013 69.2524C119.005 69.7035 118.958 70.1531 118.873 70.5966H115.949V80.127C115.44 80.2185 114.925 80.2697 114.408 80.28C113.885 80.2715 113.364 80.2203 112.85 80.127L112.849 70.5932Z" fill="white"/>
<path d="M123.023 70.5932H120.1C119.89 69.7213 119.89 68.8142 120.1 67.9423H129.047C129.093 68.192 129.128 68.4246 129.152 68.6401C129.174 68.8435 129.186 69.0478 129.187 69.2524C129.179 69.7035 129.132 70.1531 129.047 70.5966H126.123V80.127C125.614 80.2185 125.099 80.2697 124.582 80.28C124.06 80.2715 123.538 80.2203 123.024 80.127L123.023 70.5932Z" fill="white"/>
<path d="M132.46 80.2766C131.937 80.268 131.416 80.2168 130.902 80.1235V67.9723C131.217 67.9272 131.502 67.8933 131.759 67.8705C132.016 67.8477 132.244 67.8363 132.442 67.8363C132.652 67.8363 132.888 67.8477 133.151 67.8705C133.414 67.8933 133.697 67.9272 134 67.9723V80.1261C133.492 80.2168 132.976 80.2672 132.46 80.2766Z" fill="white"/>
<path d="M33.6059 69.7004H32.0839L31.5798 70.2819H33.6032L33.6059 69.7004Z" fill="white"/>
<path d="M33.6059 72.0264H30.0693L29.5652 72.6079H33.6059V72.0264Z" fill="white"/>
<path d="M33.605 70.8634H31.0757L30.5717 71.4449H33.605V70.8634Z" fill="white"/>
<path d="M33.605 73.1885H29.0594L28.5562 73.77H33.6041L33.605 73.1885Z" fill="white"/>
<path d="M19.4245 62.7235H17.7688V63.305H20.0033L19.4245 62.7235Z" fill="white"/>
<path d="M20.5013 63.8865H17.7688V64.468H21.0793L20.5013 63.8865Z" fill="white"/>
<path d="M17.7688 60.9996V62.142H18.9265L17.7688 60.9996Z" fill="white"/>
<path d="M17.7802 78.421H19.2899L19.7948 77.8395H17.7802V78.421Z" fill="white"/>
<path d="M17.7802 76.0899H21.3106L21.8094 75.5144L17.7802 75.5204V76.0899Z" fill="white"/>
<path d="M14 69.7004V70.2819H19.5802L20.0913 69.7004H14Z" fill="white"/>
<path d="M33.6059 69.1181V67.9551L32.5871 69.1181H33.6059Z" fill="white"/>
<path d="M20.8021 76.6765H17.7802V77.2597H20.3016L20.8021 76.6765Z" fill="white"/>
<path d="M23.8232 73.1885H14V73.77H23.3173L23.8232 73.1885Z" fill="white"/>
<path d="M14 70.8634V71.4449H25.331L25.8343 70.8634H14Z" fill="white"/>
<path d="M14 72.6079H24.3246L24.8296 72.0264H14V72.6079Z" fill="white"/>
<path d="M20.5954 69.119L21.0986 68.5375H14.0009V69.119H20.5954Z" fill="white"/>
<path d="M32.1596 85.3979H33.6059V84.8165H31.5983L32.1596 85.3979Z" fill="white"/>
<path d="M31.498 78.421H37.4019V77.8446H32.003L31.498 78.421Z" fill="white"/>
<path d="M30.1028 83.0737H33.6068V82.4922H29.5397L30.1028 83.0737Z" fill="white"/>
<path d="M30.481 79.584H37.402V79.0025H30.9869L30.481 79.584Z" fill="white"/>
<path d="M25.536 77.2597H37.402V76.6783H26.041L25.536 77.2597Z" fill="white"/>
<path d="M28.0547 74.3515L27.5506 74.9329H37.4037V74.3515H28.0547Z" fill="white"/>
<path d="M27.0474 75.517L26.5451 76.0985H37.4028V75.517H27.0474Z" fill="white"/>
<path d="M33.605 81.3275H28.5025L29.0629 81.9082H33.605V81.3275Z" fill="white"/>
<path d="M33.6059 87.0004V85.9794H32.6285L33.6059 87.0004Z" fill="white"/>
<path d="M22.6443 66.2115H17.7688V66.793H23.2337L22.6443 66.2115Z" fill="white"/>
<path d="M22.815 74.3515H14V74.9338H22.31L22.815 74.3515Z" fill="white"/>
<path d="M17.7802 79.0025V80.1654L18.7875 79.0025H17.7802Z" fill="white"/>
<path d="M33.6032 83.6543H30.5743L31.1347 84.235H33.605L33.6032 83.6543Z" fill="white"/>
<path d="M21.5781 65.0486H17.7688V65.6301H22.1569L21.5781 65.0486Z" fill="white"/>
<path d="M24.1803 67.826L23.7264 67.3745H14V67.956H33.605V67.826H24.1803Z" fill="white"/>
<path d="M17.7802 80.1654L17.7794 80.2954H27.6166L28.0521 80.7469H37.402V80.1655L17.7802 80.1654Z" fill="white"/>
</svg>
