<svg width="148" height="148" viewBox="0 0 148 148" fill="none" xmlns="http://www.w3.org/2000/svg">
<path d="M56.4688 61.4487C56.7821 61.4146 57.0843 61.4079 57.2297 61.7429C58.434 64.5181 60.1099 67.382 61.0954 70.2211C61.8023 69.4394 62.4096 68.4357 62.9888 67.5466C63.7819 66.3356 64.5663 65.1191 65.3419 63.8971C67.3956 60.6559 66.6099 61.5576 70.3157 61.4877C70.3154 61.5138 70.3148 61.54 70.314 61.5661C70.2942 62.1672 70.1809 62.9957 70.1265 63.6186L69.6575 68.6585C69.3744 71.7062 69.1645 74.7755 68.8361 77.8217C68.8174 77.9957 68.706 78.7427 68.6276 78.7646C68.0982 78.9125 66.2054 78.8251 65.7138 78.7889C65.6492 77.6539 65.898 75.1477 66.0354 73.9151C66.1795 72.6215 66.2734 70.6064 66.4541 69.3861C66.4937 68.9469 66.7278 67.3549 66.7126 67.0756C66.1789 67.3914 62.9024 72.6374 62.2859 73.5379C61.4253 73.5425 60.5647 73.5532 59.7043 73.5702C58.3904 71.6811 57.8115 69.0103 56.1971 66.9477C56.2555 67.3896 56.2617 68.0093 56.2307 68.4521C56.063 70.852 55.8524 73.2572 55.5971 75.6493C55.5235 76.3384 55.5016 78.1455 55.2657 78.7116C55.0106 78.9361 52.5991 78.8505 52.263 78.6511C52.1948 78.2503 52.3188 77.0448 52.3586 76.5661C52.4808 75.1206 52.6121 73.6759 52.7524 72.2319L53.6248 61.5563C54.4826 61.444 55.5384 61.5287 56.4688 61.4487Z" fill="#FEFEFE"/>
<path d="M75.9684 66.7742C76.1205 66.7608 76.5811 66.7894 76.7564 66.7959C76.7088 68.2393 75.9609 74.6422 76.2531 75.369C76.4102 75.7595 76.7451 76.0558 77.1325 76.214C78.0576 76.5916 79.089 76.3182 79.9684 75.9536C79.9552 75.2197 80.1355 73.9487 80.1899 73.1658C80.3383 71.0366 80.5855 68.9093 80.6907 66.7751C81.6983 66.7968 82.6615 66.7607 83.6842 66.8016C83.2455 70.1012 83.228 73.5846 82.7936 76.8928C82.5883 78.4601 82.5889 79.8839 81.7884 81.2987C80.3714 83.4175 77.9418 83.6751 75.5716 83.3788C72.4622 82.99 72.9653 83.0499 73.5806 80.3412C74.895 80.9498 77.6132 81.5692 78.8912 80.5808C79.5672 80.0577 79.6617 79.288 79.7474 78.5015C77.8704 78.8295 75.7593 79.1034 74.2472 77.6659C72.8836 76.37 73.2291 74.299 73.3791 72.6465L73.6789 69.0271C73.744 68.2974 73.8679 67.5078 73.871 66.7847C74.4838 66.8143 75.3368 66.7814 75.9684 66.7742Z" fill="#FEFEFE"/>
<path d="M101.54 61.5101C102.344 61.4702 103.58 61.4888 104.396 61.5015C104.179 62.9184 104.037 65.3842 103.899 66.8807C105.772 66.3416 108.907 66.2008 110.029 68.0859C111.272 70.1741 110.008 74.3583 110.022 76.7534C110.025 77.3051 109.886 78.3303 109.783 78.834C109.143 78.8416 107.614 78.8461 107.023 78.7734C106.846 78.489 107.46 72.4524 107.582 71.657C107.601 71.1581 107.632 70.6596 107.674 70.162C106.784 68.4069 105.271 68.8115 103.673 69.272C103.549 70.4344 102.996 78.291 102.822 78.5817C102.75 78.7018 102.65 78.7839 102.51 78.8105C102.199 78.8692 100.212 78.8836 99.9797 78.7292C99.9734 78.685 99.9684 78.6407 99.9647 78.5962C99.9021 77.9078 100.047 76.922 100.117 76.2128L100.442 72.7604L101.046 65.9083C101.099 65.2779 101.307 61.7839 101.54 61.5101Z" fill="#FEFEFE"/>
<path d="M118.614 66.4512C118.739 66.4435 118.864 66.4405 118.989 66.4421C123.954 66.5267 123.104 70.6672 123.005 74.0515C122.155 74.1201 121.115 74.0908 120.25 74.0897C118.903 74.0837 117.557 74.0951 116.211 74.1241C116.243 74.4015 116.276 74.7708 116.345 75.0347C117.004 77.5448 120.58 76.4863 122.291 76.0358C122.301 76.3519 122.296 76.7051 122.297 77.0238C122.323 77.4701 122.332 77.9172 122.324 78.3642C121.966 78.5527 121.362 78.7184 120.95 78.7768C119.023 79.0497 116.655 79.3695 114.958 78.2046C114.046 77.578 113.499 76.3127 113.345 75.2667C113.046 73.2207 113.477 70.0488 114.718 68.3369C115.735 66.9341 117.024 66.699 118.614 66.4512ZM116.412 71.7437L118.604 71.7342C119.234 71.7232 119.754 71.7203 120.387 71.7533C120.357 70.5027 120.281 68.8206 118.558 68.8971C118.432 68.9031 118.306 68.9108 118.179 68.9203C116.915 69.4611 116.63 70.4848 116.412 71.7437Z" fill="#FEFEFE"/>
<path d="M94.0013 61.1377C94.8894 60.9094 97.4912 61.4354 98.4838 61.6479C98.2673 62.559 98.0914 63.5514 97.9124 64.4762C96.4472 64.0931 94.7642 63.8144 93.2233 64.0615C92.4892 64.1792 91.6035 64.9361 91.1917 65.6446C89.9575 67.7691 89.7791 71.5685 90.1615 73.9703C90.2717 74.6611 90.9157 75.5924 91.5197 75.9091C93.0625 76.7178 95.3369 76.2039 96.9054 75.8236C96.9536 76.1563 96.9805 76.5817 97.0112 76.9244C97.0218 77.4216 97.0193 77.9191 97.0036 78.4164C94.9288 79.2305 90.5796 79.4225 88.7595 77.9736C87.524 76.993 86.7655 74.9876 86.6716 73.4357C86.4782 70.2297 86.9094 66.0838 88.9348 63.4744C90.2047 61.8379 92.0517 61.3489 94.0013 61.1377Z" fill="#FEFEFE"/>
<path d="M47.1145 83.2845C51.9277 83.2069 54.7865 88.4676 57.4062 91.6637C58.1034 92.5142 59.3413 93.7623 60.2269 94.4286C61.5886 95.4407 63.1711 96.1238 64.8478 96.4232C68.8932 97.152 73.1052 95.749 76.3113 93.3245C77.7947 92.203 79.6398 93.4025 77.9336 94.7141C77.406 95.1195 76.7689 95.5188 76.2024 95.8795C73.5174 97.5087 70.7744 98.5254 67.5981 98.7747C66.0555 98.8959 64.418 98.5372 62.9623 98.1016C58.6695 96.8167 56.2817 93.7266 53.7627 90.3334C52.8359 89.085 51.9195 87.9754 50.7742 86.9477C48.9649 85.324 47.5648 85.3504 45.2198 85.5617C44.9352 85.5907 44.5202 85.402 44.3279 85.1894C42.6508 83.3358 46.3685 83.3112 47.1145 83.2845Z" fill="#FEFEFE"/>
<path d="M110.571 85.1871C111.739 85.0352 111.863 86.7168 111.252 86.9749C109.814 87.5826 107.965 87.9085 106.418 88.2334C97.5356 90.0828 88.4278 90.639 79.3832 89.8844C77.2946 89.6997 74.363 89.3434 72.3291 88.8729C72.0928 88.8245 71.79 88.7896 71.5756 88.6818C71.3592 88.5729 71.1851 88.337 71.1211 88.1077C71.0489 87.8493 71.0969 87.569 71.2323 87.3391C71.3602 87.1219 71.5943 86.909 71.8506 86.8602C72.2271 86.7886 76.1092 87.421 76.869 87.518C88.0254 88.9423 99.7012 87.9279 110.571 85.1871Z" fill="#FEFEFE"/>
<path d="M38.3736 58.2329C42.8887 58.2672 43.6374 61.4032 43.0928 65.1608C42.9613 66.0679 41.6528 65.8017 41.0056 65.7622C40.1713 65.7112 39.3745 65.6871 38.5478 65.6744C37.8626 65.6641 37.1773 65.688 36.4945 65.7461C33.6378 66.0124 30.6514 67.179 28.2682 68.7765C27.7139 69.148 25.8983 70.6479 25.1525 70.7247C24.8343 70.7574 24.3254 70.0024 24.1382 69.6622C25.2481 67.8314 28.9618 65.8 30.9859 65.048C31.8724 64.7186 32.8158 64.4424 33.7341 64.1923C36.1905 63.6444 38.66 63.414 41.1754 63.664C41.1224 62.3059 41.3233 60.8829 39.4618 60.3966C38.4683 60.1371 37.0993 60.3929 36.1252 60.6687C33.9173 61.2941 31.8109 62.4071 29.933 63.7064C28.9348 64.3906 27.803 65.2563 26.7764 65.8574C26.1055 65.4956 25.9596 65.1809 25.4948 64.6368C25.6257 64.4478 25.7906 64.2348 25.9716 64.0844C28.6487 61.8589 31.8062 60.0134 35.1009 58.8385C36.1581 58.4615 37.2615 58.321 38.3736 58.2329Z" fill="#FEFEFE"/>
<path d="M41.9707 66.6178C43.0945 66.609 43.2649 67.6738 43.5373 68.5303C44.5989 71.8141 45.3994 75.2463 44.4594 78.6642C43.9233 80.6823 43.0343 83.2124 40.782 83.8682C37.8257 84.7289 35.2668 82.5403 33.4843 80.4737C33.2585 80.212 32.9822 79.8826 32.7013 79.6862C31.1198 80.7768 29.617 80.8937 28.0541 79.6872C27.0167 78.8864 26.6272 77.8058 26.2563 76.6025C26.0581 75.7244 26.0171 75.4105 26.0462 74.5135C26.9097 73.4654 27.4109 73.5345 28.145 74.5601C28.1708 75.3358 28.1895 76.3454 28.5276 77.0501C29.6486 79.3866 31.1857 78.1633 32.7759 77.4452C34.6862 77.983 35.6131 80.1494 37.421 81.2725C40.8921 83.5723 41.9235 80.413 42.5694 77.6687C43.507 73.6851 41.8689 70.8777 41.0227 67.2344C41.3663 66.9107 41.5576 66.8071 41.9707 66.6178Z" fill="#FEFEFE"/>
<path d="M131.142 61.1346C131.699 61.0601 133.663 61.1196 133.998 61.5678C134.025 62.1029 133.744 63.2745 133.528 63.7649C133.212 64.0155 132.432 63.6906 131.971 63.6501C129.785 63.4581 129.761 65.0766 129.636 66.7775C130.331 66.8091 132.496 66.7191 132.992 66.9238C133.153 67.25 132.877 68.8574 132.777 69.2607C131.8 69.3253 130.317 69.281 129.303 69.278C129.335 69.8628 129.254 70.6759 129.203 71.2842C129.086 72.6706 129.013 74.2208 128.817 75.5919C128.822 76.4934 128.678 77.7984 128.489 78.6776C128.439 78.9112 125.904 78.8566 125.667 78.7023C125.619 78.1038 125.767 76.8937 125.831 76.2412C125.943 75.104 126.048 73.9661 126.145 72.8276C126.288 71.0449 126.446 69.2634 126.619 67.4833C126.936 64.0108 126.993 61.7244 131.142 61.1346Z" fill="#FEFEFE"/>
<path d="M29.8439 46.0475C30.7996 45.8586 34.2796 46.2591 35.122 46.7927C35.2435 47.0667 35.3194 47.3245 35.4086 47.6086C35.3351 47.8608 35.2102 48.099 35.0956 48.3364C34.9604 48.4372 34.7071 48.5692 34.5519 48.6558C34.1829 48.5926 33.8043 48.4915 33.4332 48.4241C29.83 47.7705 26.1418 48.2001 23.2042 50.5158C19.6312 53.3324 20.3731 56.5561 24.6586 57.8985C25.4488 58.0736 26.8921 58.4338 26.1392 59.6655C25.6653 60.296 25.1126 60.1461 24.5188 60.0016C19.7361 58.8368 16.8721 54.4928 20.4231 50.2953C22.8731 47.3993 26.1632 46.4365 29.8439 46.0475Z" fill="#FEFEFE"/>
<path d="M32.3464 83.9938C32.9423 84.0999 33.4004 84.551 33.66 85.0672C33.46 85.7129 32.98 86.2587 32.5335 86.7558C28.4778 91.2698 21.3242 91.5341 17.5283 96.1966C15.5038 98.6832 16.7246 100.301 16.021 101.504C15.8528 101.792 15.6127 101.904 15.2996 101.987C13.9484 102.172 13.9974 100.308 14.0998 99.4065C14.582 95.1642 17.9061 92.3812 21.6152 90.6919C23.7652 89.7127 26.1389 88.8543 28.17 87.6577C29.0991 87.1102 29.9464 86.4373 30.6874 85.6585C31.1868 85.1321 31.7836 84.4238 32.3464 83.9938Z" fill="#FEFEFE"/>
<path d="M41.7856 46.9752C41.9815 46.9149 42.3758 46.9441 42.6048 46.9286C45.5723 46.7276 48.7343 48.1304 49.8853 50.9763C50.4937 52.4806 50.3652 53.8589 49.7036 55.341C48.8906 57.162 47.0917 59.3001 45.1723 60.0382C42.8593 58.8202 45.2769 57.7086 46.3043 56.7142C47.5567 55.3235 48.6581 53.6263 47.8901 51.6165C47.4172 50.5482 46.2228 49.6689 45.1648 49.2996C42.5341 48.3812 39.6612 49.2401 37.335 50.5523C36.3538 51.1059 36.0267 50.2802 35.6739 49.5085C35.733 49.4314 35.7937 49.3553 35.8559 49.2806C36.9819 47.9277 40.0812 47.1309 41.7856 46.9752Z" fill="#FEFEFE"/>
<path d="M16.1612 55.4944C16.5921 55.4634 17.2958 55.5764 17.4497 56.0365C17.7161 56.8328 16.8843 57.8611 16.5932 58.5935C16.1469 59.7163 16.0683 61.2038 16.385 62.3619C16.4606 62.7223 17.1296 63.3026 17.4951 63.3235C19.0354 63.4113 20.3978 63.6152 21.8572 64.1882C23.0093 64.6405 26.2109 66.7158 23.7034 67.721C23.2081 67.7738 22.0833 66.7361 21.546 66.3776C20.058 65.3179 17.9277 65.7367 16.3102 65.0357C13.3723 63.7626 13.6938 59.8971 14.7755 57.4876C15.0617 56.8501 15.4968 55.7677 16.1612 55.4944Z" fill="#FEFEFE"/>
<path d="M99.8345 90.8068C99.889 90.812 99.919 90.8135 99.9716 90.8334C100.161 90.9044 100.316 91.0458 100.402 91.2275C100.744 91.9619 100.366 92.6602 99.6011 92.92C95.6261 94.2703 91.1792 95.1106 87.0008 94.3084C85.8767 94.0925 85.0437 93.9733 83.9603 93.5413C82.828 93.0576 83.1673 91.2469 84.4096 91.6186C88.4585 92.83 92.7921 92.7526 96.8547 91.6517C97.8423 91.3842 98.84 91.0163 99.8345 90.8068Z" fill="#FEFEFE"/>
</svg>
