<svg width="148" height="148" viewBox="0 0 148 148" fill="none" xmlns="http://www.w3.org/2000/svg">
<g clip-path="url(#clip0_12_8347)">
<path d="M70.2265 36.4995C69.8092 36.562 69.2143 36.6601 68.8947 36.7225C68.5751 36.776 68.14 36.8474 67.918 36.8831C67.6961 36.9188 67.3409 36.999 67.1189 37.0615C66.0091 37.3648 65.725 37.445 65.4764 37.5343C65.3343 37.5788 65.0502 37.6591 64.8548 37.7037C64.6595 37.7573 64.4642 37.8286 64.4198 37.8821C64.3665 37.9267 64.2599 37.9624 64.18 37.9624C63.8959 37.9624 60.7706 39.4253 59.4831 40.1657C57.4144 41.3432 54.6797 43.5911 53.0548 45.4554C52.5576 46.0173 52.1048 46.5347 52.0426 46.6061C51.5454 47.1235 50.4089 48.7915 49.6187 50.1385C48.8551 51.4408 48.1803 52.8413 47.5855 54.3756C47.2658 55.1962 47.1682 55.4638 47.0083 56.0258C46.9195 56.3202 46.8219 56.6591 46.7775 56.784C46.5644 57.453 46.156 59.4511 45.934 60.8873C45.8097 61.6901 45.7742 62.484 45.7742 64.5446C45.7742 67.2206 45.863 68.2732 46.2092 69.7807C46.2803 70.084 46.3424 70.4051 46.3424 70.5033C46.3424 70.6014 46.3957 70.8779 46.4667 71.1098C46.5378 71.3507 46.6443 71.7432 46.7064 71.9751C46.7686 72.2159 46.8663 72.43 46.9195 72.4568C46.9817 72.4746 47.1504 72.3854 47.2836 72.2516C47.4256 72.1267 47.7186 71.868 47.9406 71.6986C48.1626 71.5202 48.4023 71.315 48.4822 71.2347C48.5621 71.1634 48.8196 70.9403 49.0505 70.7441C49.2902 70.5479 49.9295 70.0037 50.4711 69.5399C51.0216 69.076 51.6609 68.5319 51.8917 68.3357C52.1314 68.1394 52.38 67.9164 52.4511 67.845C52.531 67.7737 52.7174 67.6131 52.8773 67.4882C53.2679 67.176 55.2302 65.5258 55.4077 65.3563C55.4876 65.276 55.7362 65.053 55.976 64.8568C56.2068 64.6605 56.6863 64.2591 57.0326 63.9648C57.3788 63.6704 57.9027 63.2333 58.1957 62.9835C58.4887 62.7427 58.8261 62.4573 58.9504 62.3502C59.0747 62.2342 59.3766 61.9845 59.6163 61.7793C59.8649 61.5742 60.1668 61.3065 60.3 61.1906C60.4243 61.0835 60.9037 60.6732 61.3654 60.2896C61.8183 59.9061 62.2888 59.5047 62.4131 59.3976C62.5375 59.2995 62.8393 59.0408 63.0791 58.8357C63.3277 58.6305 63.6295 58.3629 63.7627 58.2469C63.887 58.1399 64.3665 57.7296 64.8282 57.346C65.281 56.9624 65.7516 56.561 65.8759 56.454C66.0002 56.3558 66.3021 56.0972 66.5418 55.892C66.7904 55.6868 67.2077 55.3211 67.4741 55.0892C67.7493 54.8573 68.1666 54.5004 68.4064 54.3042C68.655 54.108 69.1078 53.7244 69.4274 53.4479C70.1111 52.8591 70.5018 52.6986 70.9546 52.8502C71.4873 53.0286 71.6916 53.323 71.6916 53.9474V54.4826L71.1943 54.9375C70.9191 55.1962 70.4219 55.6244 70.0934 55.892C69.756 56.1596 69.4008 56.4629 69.2854 56.561C69.1788 56.668 68.8947 56.9089 68.6639 57.0962C68.433 57.2925 67.9624 57.6939 67.6162 57.9882C67.2699 58.2826 66.746 58.7197 66.453 58.9695C66.16 59.2103 65.8226 59.4958 65.6983 59.6028C65.574 59.7188 65.281 59.9685 65.0324 60.1737C64.7927 60.3788 64.3487 60.7535 64.0646 61.0122C63.7716 61.2619 63.4342 61.5474 63.3099 61.6455C63.1856 61.7436 62.6529 62.1807 62.1379 62.6267C61.6229 63.0638 61.0014 63.5901 60.7706 63.7864C60.5397 63.9826 60.2822 64.2056 60.2112 64.277C60.1313 64.3483 59.9448 64.5089 59.785 64.6338C59.492 64.8657 57.5742 66.4803 57.1746 66.8281C57.0503 66.9352 56.7573 67.1939 56.5087 67.399C56.269 67.6042 55.825 67.9788 55.5409 68.2375C55.2479 68.4873 54.9105 68.7727 54.7862 68.8709C54.6619 68.969 54.1292 69.4061 53.6142 69.8521C53.0992 70.2892 52.4777 70.8155 52.2469 71.0117C52.0071 71.208 51.3945 71.7253 50.8795 72.1713C50.3645 72.6084 49.6986 73.1704 49.4056 73.4202C48.0916 74.5173 47.6742 74.9009 47.6742 75.0436C47.6742 75.115 47.7364 75.2845 47.8074 75.4094C47.8785 75.5432 48.0116 75.8375 48.1182 76.0695C48.2159 76.3103 48.3313 76.4976 48.3757 76.4976C48.4467 76.4976 48.6598 76.3281 49.3612 75.7305C49.4855 75.6234 49.7874 75.3648 50.0271 75.1596C50.2757 74.9544 50.7108 74.5798 50.9949 74.3211C51.2879 74.0713 51.6253 73.7859 51.7496 73.6878C51.8739 73.5896 52.4067 73.1526 52.9216 72.7065C53.4366 72.2695 54.0581 71.7432 54.289 71.5469C54.5198 71.3507 54.7773 71.1277 54.8484 71.0563C54.9283 70.985 55.1147 70.8244 55.2745 70.6995C55.6563 70.4051 57.6274 68.7371 57.805 68.5676C58.027 68.3446 58.4177 68.0145 58.906 67.631C59.1546 67.4347 59.3677 67.2563 59.3943 67.2206C59.421 67.1939 59.9626 66.73 60.593 66.1948C62.0491 64.9727 62.7239 64.3929 63.1235 64.0361C63.2922 63.8845 63.5585 63.6615 63.7006 63.5544C63.8515 63.4385 64.3931 62.9835 64.9081 62.5375C65.4231 62.1004 66.0446 61.5742 66.2754 61.3779C66.5152 61.1817 67.1278 60.6554 67.6428 60.2183C68.1578 59.7723 68.8237 59.2192 69.1167 58.9695C69.4097 58.7286 69.7471 58.4432 69.8714 58.3361C69.9957 58.2202 70.2976 57.9704 70.5373 57.7652C70.7859 57.5601 71.2121 57.1854 71.5051 56.9267C72.2864 56.2399 72.8192 55.9009 73.1033 55.892C73.6271 55.892 74.3108 56.5699 74.3108 57.0962C74.3108 57.5511 73.9468 57.9258 71.4252 60.0399C71.1855 60.2361 70.9368 60.4591 70.8658 60.5305C70.7859 60.6019 70.5995 60.7624 70.4396 60.8873C70.1466 61.1192 68.2288 62.7338 67.8292 63.0817C67.7049 63.1887 67.4119 63.4474 67.1633 63.6526C66.9236 63.8577 66.4797 64.2324 66.1955 64.4911C65.9025 64.7408 65.5651 65.0263 65.4408 65.1244C65.3165 65.2225 64.7838 65.6596 64.2688 66.1056C63.7539 66.5427 63.1412 67.069 62.9104 67.2652C62.6795 67.4526 62.3954 67.6934 62.2888 67.8004C62.1734 67.8986 61.6496 68.3357 61.1168 68.7817C60.593 69.2188 59.7406 69.9413 59.2168 70.3873C58.7018 70.8244 58.0803 71.3507 57.8405 71.5469C57.6008 71.7432 56.9882 72.2605 56.4732 72.7065C55.9582 73.1436 55.2923 73.7056 54.9993 73.9554C54.7063 74.1962 54.3689 74.4817 54.2446 74.5887C54.1203 74.7047 53.8273 74.9544 53.5787 75.1596C53.339 75.3648 52.895 75.7394 52.6109 75.9981C52.3179 76.2479 51.9805 76.5333 51.8473 76.6314C51.723 76.7296 51.1459 77.2112 50.5776 77.7019C49.8673 78.3173 49.5388 78.6563 49.5388 78.7812C49.5388 78.8882 49.6542 79.1291 49.7874 79.3164C49.9295 79.5037 50.0627 79.7357 50.0982 79.8249C50.2047 80.1103 50.4089 80.0925 50.844 79.7446C51.0748 79.5573 51.3323 79.3432 51.4122 79.2629C51.4922 79.1915 51.7408 78.9685 51.9805 78.7723C52.2113 78.576 52.8506 78.0319 53.4011 77.568C53.9516 77.1042 54.5909 76.5601 54.8217 76.3638C55.0615 76.1676 55.3722 75.9 55.5232 75.7751C56.5531 74.892 57.2013 74.3389 57.663 73.9554C57.956 73.7145 58.2578 73.4558 58.3378 73.3845C58.4177 73.3042 58.6663 73.0812 58.906 72.885C59.1368 72.6887 59.6163 72.2873 59.9626 71.9929C60.3089 71.6986 60.8327 71.2615 61.1257 71.0117C61.4187 70.7709 61.7561 70.4854 61.8804 70.3784C62.28 70.0216 64.0469 68.523 64.5885 68.077C64.8815 67.8272 65.1833 67.5685 65.2633 67.4972C65.4941 67.2742 65.8848 66.9352 66.3642 66.5605C66.6128 66.3643 66.8259 66.177 66.8526 66.1502C66.8792 66.1145 67.2788 65.7756 67.7405 65.3831C68.2022 64.9906 68.6816 64.5892 68.8059 64.4821C68.9302 64.384 69.2321 64.1253 69.4718 63.9202C69.7204 63.715 70.0223 63.4474 70.1555 63.3314C70.2798 63.2244 70.7593 62.8141 71.221 62.4305C71.6738 62.0469 72.1444 61.6455 72.2687 61.5385C72.393 61.4403 72.6949 61.1817 72.9346 60.9765C73.1832 60.7713 73.6183 60.3967 73.9024 60.138C75.1809 59.023 75.5982 58.8178 76.1043 59.0497C76.2642 59.1211 76.4595 59.2371 76.5305 59.2995C76.6992 59.4511 76.9745 59.9418 76.9745 60.1023C76.9745 60.4413 76.5838 60.9854 75.9889 61.476C75.6426 61.7615 75.2253 62.1094 75.0744 62.2342C74.9235 62.368 74.6038 62.6446 74.3552 62.8497C74.1155 63.0549 73.6715 63.4296 73.3874 63.6882C73.0944 63.938 72.757 64.2234 72.6238 64.3216C72.4906 64.4197 72.1444 64.7051 71.8602 64.9638C71.363 65.4009 71.0434 65.6685 70.0934 66.4624C69.8536 66.6587 69.605 66.8817 69.5251 66.953C69.4452 67.0333 69.1877 67.2474 68.9391 67.4436C68.6994 67.6399 68.3531 67.9253 68.1844 68.0859C68.0157 68.2375 67.7582 68.4605 67.6073 68.5676C67.4652 68.6835 66.9147 69.1385 66.3998 69.5845C65.8848 70.0216 65.2633 70.5479 65.0324 70.7441C64.7927 70.9403 64.5441 71.1634 64.4642 71.2347C64.3843 71.315 64.1268 71.5291 63.8782 71.7253C63.6384 71.9216 63.2922 72.207 63.1235 72.3676C62.9548 72.5192 62.6973 72.7422 62.5463 72.8493C62.4043 72.9652 61.8538 73.4202 61.3388 73.8662C60.8238 74.3033 60.2023 74.8296 59.9715 75.0258C59.7317 75.222 59.4831 75.445 59.4032 75.5164C59.3233 75.5967 59.0658 75.8108 58.8172 76.007C58.5775 76.2033 58.2312 76.4887 58.0625 76.6493C57.8938 76.8009 57.6363 77.0239 57.4854 77.131C57.3433 77.2469 56.7928 77.7019 56.2779 78.1479C55.7629 78.585 55.1414 79.1112 54.9105 79.3075C54.6708 79.5037 54.4222 79.7267 54.3423 79.7981C54.2624 79.8784 54.0049 80.0925 53.7563 80.2887C53.5165 80.485 53.1703 80.7704 53.0016 80.922C52.8329 81.0826 52.4777 81.377 52.2291 81.5732C51.9716 81.7784 51.7585 81.9925 51.7585 82.0638C51.7585 82.3314 54.2002 84.9361 55.5232 86.0868C56.0115 86.5061 57.3433 87.5319 57.7961 87.8263C57.9027 87.8976 58.0803 88.0225 58.1868 88.1028C58.6485 88.4596 60.0691 89.2713 61.2145 89.8244C61.8982 90.1634 62.5375 90.4756 62.6262 90.5202C62.7239 90.5737 62.9015 90.645 63.0258 90.6807C63.1501 90.7253 63.4786 90.8413 63.745 90.9483C65.9114 91.7868 68.3975 92.3666 71.1144 92.661C73.0145 92.8662 76.1221 92.768 77.7736 92.4469C78.0399 92.3934 78.4839 92.322 78.7502 92.2864C79.6292 92.1615 81.7513 91.6084 82.3728 91.3408C82.5326 91.2695 82.7191 91.2159 82.7901 91.2159C82.9144 91.2159 83.3761 91.0375 83.8378 90.8056C83.9799 90.7342 84.1308 90.6807 84.1752 90.6807C84.2196 90.6807 84.5925 90.5202 85.001 90.3239C85.4094 90.1366 85.88 89.9136 86.0487 89.8422C86.315 89.7173 86.8211 89.4408 87.7179 88.9413C87.8866 88.8432 88.2773 88.5934 88.588 88.3793C88.8988 88.1742 89.1651 88.0047 89.1918 88.0047C89.2717 88.0047 91.669 86.1582 92.104 85.7657C92.7167 85.2037 93.9775 83.9371 94.5812 83.268C95.1761 82.6169 96.7122 80.5831 97.0762 79.9765C97.2094 79.7535 97.3603 79.4948 97.4225 79.3967C97.4846 79.3075 97.6267 79.0666 97.751 78.8615C98.2571 78.0319 98.8342 76.8634 99.3048 75.7394C99.4824 75.2934 99.6777 74.8563 99.7221 74.7582C99.7754 74.6601 99.8553 74.4638 99.8908 74.3122C99.9263 74.1695 100.051 73.7591 100.175 73.4202C101.329 70.0751 101.773 66.4803 101.525 62.6267C101.453 61.592 101.356 60.6108 101.303 60.4413C101.258 60.2718 101.214 60.0131 101.214 59.8615C101.214 59.576 101.107 59.0497 100.619 57.0516C100.486 56.5075 100.299 56.5788 98.994 57.7296C98.8697 57.8455 98.5767 58.0953 98.3281 58.3004C98.0884 58.5056 97.6444 58.8803 97.3603 59.1389C97.0673 59.3887 96.7299 59.6742 96.5967 59.7723C96.4636 59.8704 96.1173 60.1558 95.8332 60.4145C95.3359 60.8427 95.0785 61.0657 94.0663 61.9131C93.8265 62.1094 93.5779 62.3324 93.5069 62.4037C93.427 62.4751 93.2405 62.6357 93.0807 62.7605C92.7877 62.9925 90.8699 64.607 90.4703 64.9549C90.1951 65.2047 89.5736 65.731 89.0053 66.1948C88.7745 66.3911 88.517 66.6141 88.4371 66.6854C88.3572 66.7657 88.1174 66.9709 87.8955 67.1493C87.6735 67.3188 87.3982 67.5596 87.2651 67.6756C87.1408 67.7915 86.759 68.1216 86.4038 68.407C86.0575 68.6835 85.6757 69.0047 85.5514 69.1206C85.1608 69.4774 84.8411 69.754 84.3883 70.1108C84.1486 70.307 83.9266 70.4854 83.9 70.5211C83.8733 70.5479 83.4738 70.8957 83.0121 71.2793C82.5504 71.6718 81.8845 72.2338 81.5382 72.5281C81.1919 72.8225 80.7213 73.2239 80.4816 73.4202C80.2508 73.6164 79.9933 73.8394 79.9222 73.9108C79.8423 73.9821 79.6559 74.1427 79.4961 74.2676C79.3451 74.3925 78.7414 74.892 78.1642 75.3826C77.1254 76.2657 77.1077 76.2746 76.646 76.2746C76.0955 76.2746 75.7669 76.0695 75.5805 75.5788C75.3585 75.0258 75.5361 74.5798 76.1931 74.0446C76.495 73.7948 76.8235 73.5183 76.939 73.4202C77.0455 73.3131 77.3296 73.0723 77.5605 72.885C77.7913 72.6887 78.2619 72.2873 78.6082 71.9929C78.9545 71.6986 79.4783 71.2615 79.7713 71.0117C80.0643 70.7709 80.4017 70.4854 80.526 70.3784C80.6503 70.2624 80.9522 70.0126 81.1919 69.8075C81.4405 69.6023 81.8756 69.2277 82.1597 68.969C82.4527 68.7192 82.7901 68.4338 82.9144 68.3357C83.0387 68.2375 83.5715 67.8004 84.0864 67.3544C84.6014 66.9173 85.2229 66.3911 85.4538 66.1948C85.6846 65.9986 85.9421 65.7756 86.0131 65.7042C86.0931 65.6328 86.2795 65.4723 86.4393 65.3474C86.7323 65.1155 88.6502 63.5009 89.0497 63.153C89.174 63.046 89.4759 62.7873 89.7156 62.5821C89.9642 62.377 90.3993 62.0023 90.6834 61.7436C90.9764 61.4939 91.3138 61.2084 91.447 61.1103C91.5802 61.0122 91.9265 60.7267 92.2106 60.468C92.7256 60.022 93.134 59.6742 93.9775 58.9695C94.2172 58.7732 94.8298 58.2469 95.3448 57.8098C95.8598 57.3638 96.5257 56.8108 96.8187 56.561C97.1117 56.3202 97.4491 56.0347 97.5734 55.9188C97.6977 55.8117 98.0706 55.4906 98.4169 55.2051C98.7543 54.9197 99.1716 54.5629 99.3403 54.4112L99.6422 54.1258L99.3226 53.3854C99.1539 52.9751 98.9674 52.6272 98.923 52.6094C98.8697 52.5915 98.7365 52.6718 98.6122 52.7878C98.4879 52.9037 98.1239 53.2159 97.7865 53.4835C97.458 53.7512 97.1028 54.0544 96.9874 54.1526C96.8809 54.2596 96.5967 54.5004 96.3659 54.6878C96.135 54.884 95.6645 55.2854 95.3182 55.5798C94.9719 55.8742 94.4481 56.3112 94.1551 56.561C93.8621 56.8019 93.5247 57.0873 93.4004 57.1943C93.2761 57.3103 92.983 57.5601 92.7344 57.7652C92.4947 57.9704 92.0508 58.345 91.7666 58.6037C91.4736 58.8535 91.1362 59.1389 91.0031 59.2371C90.8699 59.3352 90.5236 59.6206 90.2395 59.8793C89.9554 60.1291 89.5292 60.4859 89.3072 60.6821C88.295 61.5206 88.0464 61.7347 87.8599 61.9131C87.7445 62.0112 87.2207 62.4483 86.6879 62.8943C86.1641 63.3314 85.3117 64.054 84.7879 64.5C84.2729 64.9371 83.6514 65.4634 83.4116 65.6596C83.1808 65.8558 82.9233 66.0788 82.8523 66.1502C82.7724 66.2216 82.5859 66.3821 82.4261 66.507C82.1331 66.7389 80.2153 68.3535 79.8157 68.7014C79.6914 68.8084 79.3984 69.0671 79.1498 69.2723C78.9101 69.4774 78.4661 69.8521 78.182 70.1108C77.889 70.3605 77.5516 70.646 77.4273 70.7441C77.303 70.8422 76.7703 71.2793 76.2553 71.7253C74.2398 73.4558 74.373 73.3577 73.8757 73.3666C73.3341 73.3845 72.7126 72.769 72.7126 72.2159C72.7126 71.868 73.0411 71.422 73.7426 70.8422C74.1332 70.5211 74.5861 70.1375 74.737 70.0037C75.3319 69.4685 75.5272 69.308 75.9534 68.969C76.202 68.7727 76.4151 68.5943 76.4417 68.5587C76.4684 68.5319 77.01 68.068 77.6404 67.5328C78.8035 66.5605 79.7713 65.7399 79.9578 65.5704C80.011 65.5169 80.2508 65.3206 80.4816 65.1244C80.7213 64.9281 81.1919 64.5267 81.5382 64.2324C81.8845 63.938 82.4083 63.5009 82.7013 63.2511C82.9943 63.0103 83.2962 62.7516 83.3761 62.6803C83.607 62.4573 83.9976 62.1183 84.4771 61.7436C84.7257 61.5474 84.9388 61.369 84.9654 61.3333C84.9921 61.3065 85.5337 60.8427 86.1641 60.3075C87.6202 59.0854 88.295 58.5056 88.6946 58.1488C88.8633 57.9972 89.1296 57.7742 89.2717 57.6671C89.4226 57.5511 89.9642 57.0962 90.4792 56.6502C90.9942 56.2131 91.6157 55.6868 91.8466 55.4906C92.0774 55.2943 92.3349 55.0713 92.4059 55C92.4858 54.9286 92.6723 54.7681 92.8321 54.6432C93.134 54.4112 95.0607 52.7789 95.4425 52.4488C95.5668 52.3328 95.9486 52.0117 96.286 51.7263C96.6323 51.4408 97.0673 51.0573 97.2627 50.8788C97.458 50.6915 97.6444 50.5399 97.6888 50.5399C97.7776 50.5399 97.7687 50.1117 97.6711 50.0493C97.6178 50.0225 97.458 49.7817 97.307 49.5141C97.1561 49.2465 96.9785 49.0235 96.9164 49.0235C96.8542 49.0235 96.6855 49.1305 96.5346 49.2643C96.3836 49.407 96.064 49.6746 95.8332 49.8709C95.6023 50.0671 95.1229 50.4685 94.7855 50.7629C94.4392 51.0573 93.9153 51.4943 93.6223 51.7441C93.3293 51.985 92.9919 52.2704 92.8676 52.3774C92.7433 52.4934 92.4503 52.7432 92.2017 52.9483C91.962 53.1535 91.518 53.5281 91.2339 53.7868C90.9409 54.0366 90.6035 54.322 90.4792 54.4202C90.3549 54.5183 89.8222 54.9554 89.3072 55.4014C88.7922 55.8385 88.1707 56.3648 87.9399 56.561C87.709 56.7573 87.4515 56.9803 87.3805 57.0516C87.3006 57.123 87.1141 57.2835 86.9543 57.4084C86.6613 57.6404 84.7435 59.2549 84.3439 59.6028C84.2196 59.7098 83.9266 59.9685 83.678 60.1737C83.4383 60.3788 82.9943 60.7535 82.7102 61.0122C82.4172 61.2619 82.0798 61.5474 81.9555 61.6455C81.8312 61.7436 81.2985 62.1807 80.7835 62.6267C80.2685 63.0638 79.647 63.5901 79.4162 63.7864C79.1853 63.9826 78.9278 64.2056 78.8568 64.277C78.7769 64.3483 78.5904 64.5089 78.4306 64.6338C78.1376 64.8657 76.2198 66.4803 75.8202 66.8281C75.6959 66.9352 75.4029 67.1939 75.1543 67.399C74.9146 67.6042 74.4884 67.9699 74.222 68.2019C73.9468 68.4338 73.5295 68.7906 73.2897 68.9868C73.0411 69.1831 72.6682 69.5042 72.4463 69.7004C71.6738 70.4141 70.8125 70.2535 70.484 69.3347C70.3864 69.0582 70.3864 68.9511 70.484 68.6657C70.6261 68.2732 70.6882 68.2108 72.1355 66.9976C72.3752 66.8014 72.6238 66.5784 72.6949 66.507C72.7748 66.4357 72.9346 66.2929 73.0678 66.1948C73.201 66.0967 73.5472 65.8112 73.8314 65.5526C74.3375 65.1065 74.7192 64.7854 75.5982 64.054C76.1576 63.5901 77.4095 62.5108 77.5516 62.377C77.6137 62.3145 77.9334 62.0469 78.2619 61.7793C78.5904 61.5117 78.9545 61.2084 79.0699 61.1103C79.1764 61.0033 79.4605 60.7624 79.6914 60.5751C79.9222 60.3788 80.5527 59.8347 81.1031 59.3709C81.6536 58.907 82.2929 58.3629 82.5238 58.1666C82.7635 57.9704 83.5448 57.3103 84.2551 56.6948C84.9743 56.0793 85.7379 55.4281 85.951 55.2497C87.123 54.2596 89.0764 52.5915 89.618 52.1098C89.911 51.8601 90.2484 51.5746 90.3727 51.4765C90.6035 51.307 92.0952 50.0314 93.0807 49.1662C93.3737 48.9164 93.7111 48.631 93.8443 48.5328C94.4392 48.0779 95.5313 47.0967 95.5313 47.0164C95.5224 46.9004 95.1051 46.392 94.0041 45.1789C92.6368 43.6713 90.639 41.9854 88.6768 40.7009C87.5847 39.9784 84.7523 38.5422 83.8112 38.23C83.6869 38.1854 83.3672 38.0695 83.1009 37.9624C82.8345 37.8554 82.4971 37.7394 82.3462 37.6948C82.2041 37.6502 81.9644 37.5788 81.8134 37.5343C80.7569 37.1685 78.9545 36.776 77.0544 36.4995C75.8113 36.3122 71.3453 36.3122 70.2265 36.4995Z" fill="white"/>
<path d="M125.808 100.573C124.618 100.769 123.384 101.563 122.558 102.678C122.23 103.115 121.759 104.097 121.688 104.462C121.67 104.605 121.608 104.908 121.555 105.131C121.44 105.649 121.44 106.755 121.555 107.272C121.608 107.495 121.679 107.843 121.715 108.057C121.75 108.271 121.83 108.485 121.884 108.539C121.946 108.601 121.99 108.708 121.99 108.789C121.999 108.994 122.514 109.788 122.967 110.278C123.677 111.054 124.414 111.536 125.364 111.857C125.835 112.018 128.516 112.062 128.605 111.911C128.632 111.857 128.756 111.822 128.88 111.822C129.306 111.822 130.354 111.179 131.047 110.484C131.668 109.859 132.378 108.744 132.378 108.405C132.378 108.334 132.441 108.155 132.52 108.004C132.716 107.593 132.716 104.81 132.52 104.4C132.441 104.248 132.378 104.07 132.378 104.008C132.378 103.936 132.254 103.642 132.094 103.347C131.526 102.259 130.301 101.189 129.138 100.761C128.711 100.609 128.356 100.564 127.406 100.538C126.749 100.52 126.03 100.538 125.808 100.573ZM127.974 103.437C128.401 103.651 128.782 104.07 129.031 104.596C129.191 104.944 129.218 105.158 129.218 106.291C129.226 107.558 129.218 107.593 128.96 108.066C128.489 108.923 127.664 109.422 126.918 109.297C125.826 109.119 125.258 108.387 124.991 106.817C124.814 105.792 125.187 104.338 125.755 103.802C126.35 103.24 127.3 103.08 127.974 103.437Z" fill="white"/>
<path d="M15 106.291V111.822L16.6692 111.804L18.3296 111.777L18.374 109.681L18.4184 107.585L20.5493 107.54L22.6802 107.495L22.7068 106.425C22.7424 104.784 22.9998 104.962 20.5226 104.935L18.4184 104.908V104.239V103.57L20.9044 103.526L23.3905 103.481V102.143V100.805L19.1997 100.778L15 100.761V106.291Z" fill="white"/>
<path d="M25.0776 100.868C25.0509 100.93 25.0421 103.41 25.0509 106.38L25.0776 111.777L26.5426 111.804C27.3506 111.813 28.0964 111.804 28.2118 111.777L28.4071 111.732V106.3C28.4071 101.43 28.3894 100.868 28.2651 100.814C28.1852 100.787 27.4482 100.761 26.6225 100.761C25.4949 100.761 25.1042 100.787 25.0776 100.868Z" fill="white"/>
<path d="M30.4047 100.957C30.3781 101.073 30.3692 103.553 30.3781 106.469L30.4047 111.777L34.8885 111.804C37.3569 111.813 39.4612 111.804 39.5766 111.777C39.7719 111.732 39.7719 111.706 39.7719 110.457C39.7719 109.761 39.7364 109.137 39.7009 109.083C39.6476 108.994 38.9195 108.967 36.7442 108.949L33.8675 108.923V108.253V107.584L36.4423 107.54L39.0172 107.495V106.246V104.998L36.4423 104.953L33.8675 104.908V104.239V103.57L36.7087 103.526L39.5499 103.481L39.5766 102.197C39.5943 101.224 39.5677 100.894 39.4878 100.832C39.4256 100.796 37.3657 100.761 34.9152 100.761H30.4491L30.4047 100.957Z" fill="white"/>
<path d="M41.7432 100.832C41.6544 100.894 41.6366 102.054 41.6544 106.345L41.681 111.777H43.3236H44.9662L45.0106 109.948L45.055 108.12L46.2092 108.093C47.1415 108.075 47.4079 108.093 47.6299 108.218C48.0738 108.459 48.278 109.083 48.4733 110.876C48.5266 111.393 48.5888 111.625 48.7042 111.706C48.8196 111.786 49.2724 111.822 50.3557 111.822C52.0782 111.822 52.0426 111.839 51.8473 111.028C51.7852 110.751 51.7052 110.082 51.6697 109.547C51.6342 109.003 51.5454 108.414 51.4833 108.227C51.4122 108.039 51.1015 107.593 50.7907 107.246C50.258 106.657 50.2402 106.612 50.3912 106.496C50.8174 106.202 51.2613 105.676 51.4566 105.247C51.7674 104.578 51.7674 103.312 51.4566 102.625C51.1725 101.992 50.622 101.456 49.9028 101.091L49.3168 100.805L45.5877 100.778C43.5367 100.769 41.8053 100.787 41.7432 100.832ZM47.9672 103.784C48.207 104.025 48.2514 104.132 48.2514 104.498C48.2514 104.837 48.207 104.989 48.0383 105.167C47.7364 105.488 47.3457 105.577 46.156 105.577C45.2947 105.577 45.1083 105.551 45.0639 105.435C44.984 105.23 45.0017 103.57 45.0816 103.49C45.1171 103.446 45.7209 103.437 46.4134 103.454L47.692 103.499L47.9672 103.784Z" fill="white"/>
<path d="M56.4464 100.912C56.3665 101.001 56.26 101.215 56.2156 101.385C56.1623 101.554 56.038 101.92 55.9315 102.188C55.8249 102.455 55.7184 102.777 55.6917 102.901C55.6651 103.026 55.5852 103.205 55.523 103.303C55.452 103.401 55.3987 103.561 55.3987 103.66C55.3987 103.767 55.3543 103.892 55.3011 103.945C55.2478 103.999 55.1768 104.177 55.1324 104.338C55.088 104.507 54.9725 104.864 54.866 105.131C54.7595 105.399 54.644 105.72 54.5996 105.845C54.5552 105.97 54.4398 106.291 54.3333 106.559C54.2267 106.826 54.1202 107.147 54.0935 107.272C54.0669 107.397 53.987 107.576 53.9248 107.674C53.8538 107.772 53.8005 107.915 53.8005 107.995C53.8005 108.075 53.7384 108.262 53.6674 108.396C53.5963 108.539 53.5342 108.717 53.5342 108.789C53.5342 108.869 53.4987 108.967 53.4543 109.012C53.4099 109.065 53.33 109.244 53.2856 109.413C53.2323 109.583 53.108 109.948 53.0014 110.216C52.3266 111.964 52.1935 111.768 54.1202 111.804C55.3455 111.822 55.7539 111.795 55.816 111.715C55.9137 111.581 56.1978 110.698 56.1978 110.519C56.1978 110.457 56.2777 110.359 56.3665 110.305C56.5796 110.198 59.5629 110.189 59.7405 110.296C59.8559 110.377 59.9802 110.724 60.1756 111.509L60.2466 111.777L61.9247 111.804C62.8481 111.813 63.6294 111.795 63.6738 111.75C63.7182 111.706 63.6916 111.5 63.6117 111.277C63.5318 111.063 63.4341 110.787 63.3897 110.662C63.3453 110.537 63.2299 110.216 63.1233 109.948C63.0168 109.681 62.9014 109.324 62.857 109.154C62.8126 108.994 62.7415 108.815 62.6883 108.762C62.635 108.708 62.5906 108.584 62.5906 108.477C62.5906 108.378 62.5373 108.218 62.4663 108.12C62.4041 108.022 62.3242 107.843 62.2976 107.718C62.271 107.593 62.1644 107.272 62.0579 107.005C61.9513 106.737 61.827 106.389 61.7826 106.246C61.7382 106.095 61.6672 105.899 61.6228 105.8C61.5784 105.702 61.4541 105.381 61.3564 105.087C61.2588 104.792 61.0901 104.329 60.9924 104.061C60.8859 103.793 60.7616 103.428 60.7083 103.258C60.6639 103.089 60.584 102.91 60.5396 102.857C60.4952 102.812 60.4597 102.723 60.4597 102.652C60.4597 102.58 60.4064 102.402 60.3354 102.25C60.2643 102.09 60.1933 101.884 60.1667 101.786C60.0956 101.519 59.8914 101.001 59.8115 100.868C59.7582 100.787 59.3232 100.761 58.1601 100.761C56.7661 100.761 56.5619 100.778 56.4464 100.912ZM58.3288 105.087C58.3288 105.212 58.382 105.461 58.4531 105.64C58.5152 105.827 58.6395 106.22 58.7194 106.514C58.8082 106.808 58.9148 107.165 58.9592 107.317C59.0035 107.46 59.0568 107.62 59.0657 107.674C59.0835 107.781 57.2633 107.843 57.1567 107.736C57.1212 107.7 57.1301 107.549 57.1745 107.406C57.2278 107.254 57.3787 106.782 57.5297 106.336C57.6717 105.899 57.796 105.47 57.796 105.39C57.796 105.194 58.1423 104.757 58.2488 104.819C58.2932 104.855 58.3288 104.971 58.3288 105.087Z" fill="white"/>
<path d="M69.8004 100.868C69.7205 100.948 69.6938 102.286 69.6938 106.353V111.732L69.8981 111.777C70.0046 111.804 70.7327 111.813 71.514 111.804L72.9346 111.777L72.979 108.521C73.0057 106.443 73.0589 105.265 73.1122 105.265C73.1655 105.265 73.2276 105.426 73.2543 105.622C73.2809 105.818 73.3431 106.122 73.3963 106.291C73.5118 106.666 73.7071 107.379 73.9113 108.164C73.9912 108.485 74.1155 108.923 74.1777 109.146C74.2309 109.369 74.3552 109.806 74.444 110.127C74.5328 110.448 74.6749 110.947 74.7548 111.242L74.9146 111.777H76.1754H77.4451L77.6138 111.153C77.8713 110.225 78.0311 109.654 78.1732 109.101C78.2531 108.833 78.3685 108.387 78.4395 108.12C78.5194 107.852 78.6349 107.415 78.7059 107.165C78.99 106.113 79.1676 105.569 79.2475 105.551C79.2919 105.542 79.3452 106.862 79.3718 108.655L79.4162 111.777H80.97H82.5238L82.5504 106.469C82.5593 103.553 82.5504 101.073 82.5238 100.957L82.4794 100.761H80.2064C78.8479 100.761 77.8713 100.796 77.7736 100.85C77.6759 100.903 77.5783 101.082 77.5516 101.278C77.5161 101.456 77.4451 101.786 77.3829 102.009C77.3119 102.232 77.1965 102.732 77.1077 103.124C77.0278 103.517 76.9124 103.954 76.868 104.106C76.8236 104.248 76.7525 104.552 76.7081 104.775C76.4329 106.148 76.1577 106.969 75.9978 106.871C75.9534 106.844 75.909 106.692 75.909 106.541C75.909 106.389 75.8558 106.059 75.7847 105.809C75.7137 105.56 75.5894 105.069 75.5095 104.73C75.3586 104.061 75.1899 103.365 75.0212 102.723C74.9679 102.5 74.888 102.116 74.8347 101.867C74.7903 101.617 74.6926 101.26 74.6216 101.082L74.4884 100.761H72.1977C70.5373 100.761 69.8803 100.787 69.8004 100.868Z" fill="white"/>
<path d="M84.4503 100.868C84.3704 100.948 84.3438 102.286 84.3438 106.345C84.3438 111.162 84.3615 111.715 84.4858 111.768C84.6634 111.839 87.3981 111.839 87.5757 111.768C87.7 111.715 87.7177 111.162 87.7177 106.345C87.7177 102.286 87.6911 100.948 87.6112 100.868C87.4602 100.716 84.6012 100.716 84.4503 100.868Z" fill="white"/>
<path d="M89.538 100.868C89.5114 100.93 89.5025 103.41 89.5114 106.38L89.538 111.777H93.6223H97.7066V110.394V109.012L95.3093 108.967L92.912 108.923L92.8854 104.917C92.8676 101.84 92.841 100.885 92.7522 100.832C92.6989 100.796 91.9531 100.761 91.1096 100.761C89.9642 100.761 89.5647 100.787 89.538 100.868Z" fill="white"/>
<path d="M102.262 100.912C102.182 101.001 102.075 101.215 102.031 101.385C101.977 101.554 101.853 101.92 101.747 102.188C101.64 102.455 101.525 102.777 101.48 102.901C101.436 103.026 101.32 103.347 101.214 103.615C100.85 104.561 100.761 104.819 100.708 104.998C100.681 105.096 100.61 105.301 100.539 105.462C100.468 105.613 100.415 105.8 100.415 105.872C100.415 105.952 100.379 106.032 100.335 106.068C100.29 106.095 100.219 106.246 100.184 106.407C100.131 106.675 100.086 106.791 99.7577 107.558C99.6778 107.736 99.6156 107.941 99.6156 108.013C99.6156 108.093 99.5623 108.262 99.4913 108.405C99.2516 108.887 99.0829 109.333 99.0829 109.485C99.0829 109.565 99.0207 109.716 98.9497 109.806C98.8787 109.904 98.8165 110.073 98.8165 110.18C98.8165 110.296 98.781 110.403 98.7366 110.439C98.6922 110.466 98.6301 110.608 98.5946 110.751C98.559 110.903 98.4791 111.144 98.3992 111.286C98.1506 111.804 98.2039 111.822 99.953 111.822C101.622 111.822 101.747 111.795 101.747 111.411C101.747 111.304 101.809 111.099 101.88 110.965C101.951 110.823 102.013 110.635 102.013 110.555C102.013 110.261 102.315 110.207 103.975 110.234C105.795 110.261 105.644 110.198 105.875 111.063C105.964 111.358 106.044 111.652 106.062 111.706C106.097 111.848 109.427 111.875 109.516 111.741C109.542 111.697 109.498 111.483 109.427 111.269C109.347 111.054 109.24 110.742 109.187 110.573C109.143 110.403 109.063 110.216 109.027 110.171C108.992 110.118 108.938 109.984 108.912 109.859C108.885 109.734 108.779 109.413 108.681 109.146C108.299 108.182 108.219 107.941 108.139 107.638C108.095 107.477 108.024 107.299 107.971 107.246C107.917 107.192 107.873 107.067 107.873 106.96C107.873 106.862 107.82 106.701 107.749 106.603C107.686 106.505 107.607 106.327 107.58 106.202C107.553 106.077 107.447 105.756 107.34 105.488C107.234 105.221 107.109 104.855 107.056 104.685C107.012 104.516 106.932 104.338 106.887 104.284C106.843 104.239 106.807 104.123 106.807 104.016C106.807 103.918 106.754 103.758 106.683 103.66C106.621 103.562 106.541 103.383 106.514 103.258C106.488 103.133 106.381 102.812 106.275 102.545C106.168 102.277 106.044 101.929 106 101.786C105.928 101.537 105.813 101.269 105.653 100.939C105.6 100.832 105.307 100.805 103.993 100.778C102.563 100.761 102.386 100.769 102.262 100.912ZM104.179 105.06C104.25 105.47 104.481 106.3 104.579 106.514C104.659 106.701 104.845 107.406 104.881 107.629C104.899 107.736 104.739 107.772 104.02 107.79C103.531 107.799 103.096 107.772 103.052 107.727C102.963 107.638 103.212 106.692 103.487 106.041C103.558 105.881 103.611 105.702 103.611 105.64C103.611 105.417 103.904 104.775 104.011 104.775C104.073 104.775 104.144 104.908 104.179 105.06Z" fill="white"/>
<path d="M110.208 100.823C110.119 100.859 110.093 102.036 110.093 106.291C110.093 111.153 110.11 111.715 110.235 111.768C110.412 111.839 112.969 111.839 113.147 111.768C113.271 111.723 113.289 111.376 113.289 108.851V105.997L113.475 106.166C113.582 106.255 113.697 106.416 113.742 106.514C113.831 106.701 114.203 107.379 114.523 107.897C114.621 108.066 114.745 108.298 114.789 108.405C114.843 108.512 114.976 108.753 115.091 108.94C115.207 109.128 115.455 109.556 115.642 109.904C115.828 110.243 116.059 110.644 116.148 110.796C116.237 110.938 116.352 111.162 116.405 111.286C116.627 111.813 116.654 111.822 118.27 111.822C119.087 111.822 119.815 111.795 119.895 111.768C120.019 111.715 120.037 111.153 120.037 106.291C120.037 101.43 120.019 100.868 119.895 100.814C119.62 100.707 117.062 100.752 116.947 100.868C116.867 100.948 116.84 101.697 116.84 103.695V106.407L116.654 106.238C116.547 106.148 116.432 105.988 116.388 105.89C116.343 105.792 116.201 105.533 116.077 105.31C115.953 105.087 115.66 104.543 115.42 104.106C115.189 103.66 114.852 103.044 114.674 102.723C114.496 102.402 114.31 102.036 114.257 101.893C114.203 101.76 114.124 101.653 114.079 101.653C114.035 101.653 113.999 101.599 113.999 101.537C113.999 101.474 113.902 101.278 113.777 101.091L113.546 100.761L111.93 100.769C111.043 100.769 110.261 100.796 110.208 100.823Z" fill="white"/>
</g>
<defs>
<clipPath id="clip0_12_8347">
<rect width="118" height="76" fill="white" transform="translate(15 36)"/>
</clipPath>
</defs>
</svg>
