<svg width="148" height="148" viewBox="0 0 148 148" fill="none" xmlns="http://www.w3.org/2000/svg">
<path d="M66.0155 80.0224L61.8029 89.8731H63.2369L64.4694 86.9851H68.6369L69.9442 89.8731H71.3785L66.9939 80.0224H66.0155ZM65.0295 85.7239L66.4935 82.1716L68.077 85.7239H65.0295Z" fill="white"/>
<path d="M47.4172 80.0747H46.0055V89.8732H47.4172V80.0747Z" fill="white"/>
<path d="M56.7238 84.7015V84.6717C57.7396 84.2538 58.2177 83.597 58.2177 82.5747C58.2177 81.3358 57.3139 80.0747 55.2001 80.0747H52.3543V89.8732H55.7155C58.1728 89.8732 59.0766 88.4702 59.0766 87.2612C59.0766 85.9403 58.1878 84.9777 56.7238 84.7015ZM53.7585 81.3433H55.0507C56.3429 81.3433 56.7611 81.9776 56.7611 82.709C56.7611 83.7612 56.0889 84.2762 54.6922 84.2762H53.7585V81.3433ZM55.5287 88.6119H53.7585V85.5373H55.454C56.9329 85.5373 57.6276 86.1717 57.6276 87.0597C57.6276 87.791 57.1794 88.6119 55.5287 88.6119Z" fill="white"/>
<path d="M107.44 82.3806C107.44 81.694 108.089 81.2164 108.993 81.2164C109.658 81.2164 110.457 81.4478 111.294 82.2388V80.6418C110.607 80.1791 109.86 79.9478 109.105 79.9478C107.305 79.9478 106.125 80.9701 106.125 82.5597C106.125 85.2463 110.368 85.4776 110.368 87.5C110.368 88.0448 109.867 88.7388 108.776 88.7388C107.813 88.7388 106.902 88.2388 106.192 87.3134V89.097C107.014 89.7164 107.873 90 108.941 90C110.517 90 111.682 88.8806 111.682 87.3433C111.682 84.2314 107.44 84.2538 107.44 82.3806Z" fill="white"/>
<path d="M37.7222 80.0747H36.3105V89.8732H42.1514V88.6119H37.7222V80.0747Z" fill="white"/>
<path d="M91.5529 80.0224L87.3402 89.8731H88.7814L90.0214 86.9851H94.1893L95.4966 89.8731H96.9304L92.5463 80.0224H91.5529ZM90.5595 85.7239L92.0232 82.1716L93.6144 85.7239H90.5595Z" fill="white"/>
<path d="M82.5824 87.6642L75.9345 80.0747H74.814V89.8732H76.1363V82.3358L82.694 89.8732H83.9041V80.0747H82.5824V87.6642Z" fill="white"/>
<path d="M101.584 80.0747H100.172V89.8732H101.584V80.0747Z" fill="white"/>
<path d="M131.005 67.1791C132.364 66.4627 133.283 65.1343 133.283 63V62.709C133.283 59.0299 130.213 58.2313 127.696 58.2313H122.774V74.3731H126.456V67.8731H127.442L129.892 74.3731H134L131.005 67.1791ZM129.571 63.1045C129.571 64.4403 128.801 64.9179 127.562 64.9179H126.449V61.1642H127.614C128.846 61.1642 129.564 61.5373 129.564 62.6269V63.1045H129.571Z" fill="white"/>
<path d="M19.572 58H19.2284C16.1959 58 14 59.306 14 63.3657V69C14 73.2761 16.2408 74.6045 19.572 74.6045C21.865 74.6045 23.1498 73.9925 24.0834 73.4105L23.8892 70.2985C22.851 70.8284 21.3945 71.306 19.8932 71.306C18.6832 71.306 17.6973 70.7761 17.6973 68.8657V63.4179C17.6973 61.5 18.1155 61.0746 19.348 61.0746C20.7298 61.0746 20.9986 61.6119 20.9986 62.6716V63.1716H24.3075V61.9776C24.3075 59.5149 22.4327 58 19.572 58Z" fill="white"/>
<path d="M39.9779 69.2463V63.3731C39.9779 59.306 37.6325 58.0075 34.6224 58.0075C31.6124 58.0075 29.297 59.3134 29.297 63.3731V69.2463C29.297 73.3134 31.6124 74.6194 34.6224 74.6194C37.6325 74.6119 39.9779 73.3134 39.9779 69.2463ZM36.3031 69.2463C36.3031 71.1866 35.6831 71.5075 34.6224 71.5075C33.5618 71.5075 32.9718 71.1866 32.9718 69.2463V63.3731C32.9718 61.4328 33.5618 61.1119 34.6224 61.1119C35.6831 61.1119 36.3031 61.4328 36.3031 63.3731V69.2463Z" fill="white"/>
<path d="M89.8645 58.2687H79.378V61.194H82.7836V74.3731H86.4589V61.194H89.8645V58.2687Z" fill="white"/>
<path d="M99.0666 58C96.0565 58 93.7335 59.306 93.7335 63.3657V69.2388C93.7335 73.306 96.0565 74.6119 99.0666 74.6119C102.077 74.6119 104.422 73.306 104.422 69.2388V63.3657C104.422 59.306 102.077 58 99.0666 58ZM100.74 69.2463C100.74 71.1866 100.12 71.5075 99.0592 71.5075C97.9985 71.5075 97.4087 71.1866 97.4087 69.2463V63.3731C97.4087 61.4328 97.9985 61.1119 99.0592 61.1119C100.12 61.1119 100.74 61.4328 100.74 63.3731V69.2463Z" fill="white"/>
<path d="M52.5635 68.709L49.5758 58.2687H45.632V74.3731H48.7392V65.791L51.0323 74.3731H53.527L55.9694 65.5821V74.3731H59.4949V58.2687H55.596L52.5635 68.709Z" fill="white"/>
<path d="M75.7103 63.3955C75.7103 59.3806 73.2682 58.2687 70.2581 58.2687H65.2686V74.3731H68.9433V69.2164H70.3029C73.0888 69.2164 75.7103 68.0224 75.7103 63.8209V63.3955ZM72.0057 63.8508C72.0057 65.6866 71.244 66.2687 70.1086 66.2687H68.9508V61.194H70.1759C71.3113 61.194 71.9983 61.4627 71.9983 63.3731V63.8508H72.0057Z" fill="white"/>
<path d="M109.008 61.194H111.645V71.4553H109.008V74.3731H117.941V71.4553H115.327V61.194H117.941V58.2687H109.008V61.194Z" fill="white"/>
</svg>
