<svg width="148" height="148" viewBox="0 0 148 148" fill="none" xmlns="http://www.w3.org/2000/svg">
<path d="M72.712 21.3883C72.3961 20.528 72.3966 19.5687 73.3644 19.1404C73.7534 18.9686 74.1956 18.9626 74.5891 19.1237C75.5912 19.5314 75.6479 20.503 75.2699 21.3814C75.7127 21.3711 76.4179 21.3134 76.8088 21.4707C77.1877 21.8881 76.3086 22.6296 76.2913 23.3083C76.256 24.6911 76.4498 26.1566 76.5071 27.5301C76.9426 27.9357 77.4062 28.333 77.8479 28.7396C77.8906 29.1397 77.8726 29.8103 77.8739 30.2306C78.1609 30.5348 78.6514 31.0484 78.9699 31.2883C81.1159 31.3233 83.4069 31.3043 85.5576 31.2832L86.6374 30.2033C86.6336 29.7137 86.6395 29.224 86.6547 28.7345C86.9282 28.4325 87.665 27.812 88.0003 27.5148C88.0665 26.1913 88.2363 24.3754 88.1913 23.0361C88.1804 22.7052 87.4322 21.9852 87.6856 21.4756C88.0014 21.3084 88.8603 21.3778 89.2509 21.3882C89.0719 20.9015 88.9302 20.5319 89.1098 19.9905C89.2292 19.6281 89.4918 19.3304 89.8363 19.1668C90.2129 18.9838 90.648 18.9607 91.0419 19.1028C92.114 19.4886 92.2009 20.4591 91.7956 21.3826C92.2057 21.3734 92.9686 21.3194 93.3245 21.4591C93.6794 21.9413 92.8503 22.6706 92.8319 23.1256C92.7971 23.9751 92.8764 24.9064 92.9154 25.7598C92.9355 26.197 92.9583 27.1413 93.0451 27.5342C93.4292 27.9287 93.9257 28.3113 94.3386 28.711C94.3983 29.1226 94.3793 29.7777 94.3798 30.211L95.4443 31.2761C96.1529 31.3175 96.8653 31.263 97.5745 31.2911C97.8533 31.3021 98.0096 31.345 98.1214 31.6038C98.1094 32.0329 97.313 33.3087 97.0531 33.7353C97.5289 33.7877 98.3422 33.747 98.7399 34.0003C98.8479 34.0691 99.0416 34.3984 99.0177 34.5392C98.7692 35.9515 98.4144 37.3742 98.0644 38.7682C97.8143 39.7652 97.3612 39.6847 96.5067 39.6948C96.4986 39.8529 96.4834 40.0104 96.4606 40.167C96.3955 40.6056 96.2213 40.7396 95.8925 40.9803C95.4975 41.0275 95.2745 41.0313 94.8741 41.0284C94.5431 46.0889 94.3804 51.159 94.3863 56.2304C94.7455 56.2262 95.5784 56.1706 95.8529 56.3381C96.001 56.7586 96.0026 58.4998 95.8312 58.9134C95.5322 59.0949 94.6636 59.02 94.2784 59.0096C94.2463 60.6103 94.2751 62.309 94.2746 63.9177L94.2735 78.4857C95.6489 78.4944 97.0802 78.4537 98.4572 78.5031C98.6656 78.5107 98.9504 78.5807 99.0682 78.7663L99.041 78.8662C98.7866 79.1196 98.6043 79.1413 98.2467 79.1375C95.2414 79.1071 92.234 79.125 89.2281 79.125L56.0041 79.1245C53.9321 79.1234 51.8502 79.1245 49.7777 79.1256C49.4929 79.1261 49.2828 79.1337 49.0931 78.9481C49.0764 78.7267 49.0566 78.8135 49.1511 78.6116C49.3766 78.407 50.4636 78.4803 50.8211 78.4808L53.6468 78.4884L53.6478 59.0147C53.263 59.0206 52.3701 59.0826 52.0688 58.9139C51.9006 58.4916 51.9014 56.7822 52.0427 56.3486C52.3031 56.1605 53.1262 56.2333 53.4817 56.2401C53.5077 52.7553 53.4482 49.2704 53.3032 45.7886C53.2647 44.8212 53.2148 43.8544 53.1535 42.8881C53.11 42.2558 53.0351 41.6649 53.0275 41.0291C52.743 41.0336 52.458 41.0008 52.1739 40.9758C52.0996 40.924 52.0285 40.8677 51.9611 40.8072C51.5842 40.4758 51.5927 40.159 51.5639 39.6846C51.2569 39.6891 50.9499 39.6719 50.643 39.6588C50.4637 39.5493 50.3134 39.4103 50.1532 39.2737C49.7161 38.0694 49.5104 36.4202 49.1621 35.1569C48.7472 33.6523 49.9345 33.8089 51.0055 33.7441C50.6979 33.1836 50.3819 32.6203 50.0876 32.0523C49.9619 31.8098 49.9063 31.6374 50.0523 31.4015C50.4021 31.2061 52.3108 31.2888 52.8344 31.2833L53.8713 30.2418C53.8687 29.7439 53.8766 29.246 53.8949 28.7484C54.3224 28.3221 54.7966 27.9401 55.2393 27.5172C55.2649 26.5973 55.5596 24.0056 55.4654 23.2153L55.4542 23.1293C55.3837 22.5618 54.6994 22.023 54.9487 21.486C55.2133 21.3018 56.141 21.378 56.5044 21.3871C56.0609 20.3455 56.2881 19.3906 57.4384 19.0266C58.9271 18.7999 59.6243 20.0582 59.0394 21.3836C59.4884 21.3722 60.2144 21.2998 60.5926 21.4932C60.8548 21.8519 60.3147 22.5388 60.1521 22.901C59.9162 23.4265 60.2018 26.7769 60.2738 27.5296C60.7231 27.9436 61.1796 28.3066 61.6079 28.7496C61.639 29.1899 61.6255 29.7277 61.6257 30.1758C61.8878 30.4849 62.4322 31.0615 62.7551 31.2858C64.728 31.3351 67.0586 31.3142 69.0391 31.2806C69.4077 30.9228 69.7682 30.5566 70.1201 30.1824L70.1304 28.7288C70.5757 28.3148 71.0271 27.9074 71.4845 27.5066C71.4499 26.0974 71.7897 24.5322 71.6798 23.1077C71.644 22.6429 70.8829 21.9557 71.1785 21.4864C71.5412 21.2985 72.2786 21.3744 72.712 21.3883ZM67.7308 56.2299C68.0478 56.2286 68.502 56.1731 68.7129 56.3757C68.8152 56.814 68.8374 58.5185 68.6503 58.9301C68.3392 59.0909 67.5421 59.0198 67.1606 59.0079L67.1534 78.4819L80.7658 78.489L80.7663 59.0177C80.368 59.0232 79.6037 59.0677 79.2601 58.9393C79.0682 58.7084 79.0609 56.5218 79.2152 56.3152C79.4784 56.1915 79.9001 56.2297 80.2023 56.2366C80.1984 52.6306 79.0651 47.8219 75.0136 46.8649C74.6397 47.0912 74.4303 47.2096 73.9942 47.3056C73.4701 47.1741 73.3743 47.083 72.8948 46.8616C68.8297 47.8717 67.6898 52.5743 67.7308 56.2299ZM52.8136 36.245L52.8059 37.8927C60.2028 37.9802 67.7911 37.9045 75.2016 37.9037L95.2913 37.9005L95.2962 36.2404C94.2805 36.1982 93.2931 36.2258 92.2828 36.2031L80.926 36.0271C79.5651 36.0101 78.2009 35.988 76.8399 35.9707C75.5076 35.9537 74.2053 35.8462 72.8672 35.918C70.271 36.0165 67.6542 36.0127 65.054 36.042L55.3279 36.2123C54.4898 36.2222 53.6501 36.2032 52.8136 36.245ZM51.5799 33.5073C56.6051 33.6015 61.8977 33.5192 66.9413 33.5191L96.472 33.5192C96.5875 33.3006 96.6933 33.0956 96.8252 32.8855C96.9863 32.5842 97.1675 32.2238 97.3471 31.9392L56.2868 31.9372C54.4851 31.9371 52.5274 31.9739 50.7335 31.9253C50.9814 32.3458 51.3791 33.0685 51.5799 33.5073ZM95.3174 40.3605C95.4628 40.3527 95.6597 40.3729 95.7531 40.2475C96.0851 39.7997 95.8442 38.9769 95.619 38.5529C90.7446 38.471 85.6786 38.5407 80.7924 38.5409L52.4694 38.5413C52.2571 38.9236 52.0016 40.024 52.4017 40.3141C53.0748 40.4092 54.3756 40.3397 55.0719 40.3223L70.6581 40.0053C71.6675 39.9845 72.6876 39.911 73.696 39.9005C75.1207 39.8858 76.5553 39.9939 77.9813 40.0179L89.9324 40.2603C91.6914 40.2942 93.5622 40.3628 95.3174 40.3605ZM65.0998 40.7297C65.554 41.2602 65.8394 41.7671 65.7882 42.4959C65.7454 43.0787 65.4696 43.6196 65.0232 43.9965C64.3275 44.5832 63.6345 44.6032 62.7943 44.3706C62.7365 45.0768 62.6776 45.321 62.2684 45.9077C64.3217 46.3629 63.5868 48.2019 63.2235 49.6044C62.839 51.0888 62.9171 52.4804 63.138 53.9786C63.3049 54.1036 63.4681 54.2233 63.6284 54.3571L63.6647 54.3552C64.1311 50.6544 65.1675 47.3174 68.2162 44.8545C68.7619 44.4137 69.6054 43.9381 70.2723 43.7102C69.4509 42.6457 69.4655 41.7415 70.2232 40.6478C69.4262 40.6561 68.5803 40.6511 67.7883 40.6933C66.8922 40.7113 65.996 40.7234 65.0998 40.7297ZM77.6383 43.7275C80.9556 44.7849 83.1888 48.756 83.8589 51.976C83.9381 52.3565 84.179 54.1293 84.2712 54.3001C84.4144 54.3064 84.6266 54.0751 84.7866 53.9502C84.8404 53.5415 84.8854 53.1692 84.9185 52.7563C84.9635 51.8475 84.9386 51.0075 84.791 50.1119C84.5544 48.676 83.338 46.3519 85.6314 45.9128C85.2212 45.2997 85.1822 45.107 85.1106 44.3712C84.4378 44.5772 83.924 44.5998 83.2756 44.2603C82.7688 43.9971 82.3876 43.5427 82.2165 42.9977C82.0451 42.4382 82.104 41.8333 82.38 41.3172C82.4856 41.1182 82.6603 40.9062 82.8025 40.7289L79.2588 40.6683C78.8897 40.6609 78.0266 40.6733 77.6974 40.6257C78.4659 41.6833 78.4997 42.7079 77.6383 43.7275ZM91.4689 44.2652C91.4163 45.1086 91.1076 45.8033 90.9226 46.6152C90.3599 49.0791 90.6518 51.6641 90.635 54.155C91.0837 54.7902 91.1103 54.9677 91.1743 55.7436C91.1776 55.9005 91.1597 56.0928 91.2443 56.2127C91.7923 56.2816 93.1531 56.2405 93.7607 56.2378C93.7515 55.0762 93.9756 43.7576 94.0347 43.8585C93.1466 44.6513 92.5318 44.6617 91.4689 44.2652ZM54.1301 56.231L56.7255 56.2366C56.7282 56.0728 56.7258 55.6597 56.751 55.5199C56.8241 54.9432 56.8744 54.6702 57.2533 54.1895C57.3969 52.0932 57.3936 49.5293 57.1461 47.4537C57.0164 46.3654 56.4824 45.2537 56.4379 44.2444C55.3805 44.6758 54.7153 44.6349 53.841 43.8443C53.8831 46.2113 54.1014 48.5791 54.0999 50.9505C54.0989 52.7013 54.1664 54.4826 54.1301 56.231ZM88.3405 43.9051C88.5656 44.419 88.6709 44.7392 88.73 45.298C88.8174 45.0008 88.9199 44.5096 89.3073 44.4888C89.826 44.868 89.0561 45.9575 88.761 46.2962C88.4555 46.6469 87.959 46.7933 87.5125 46.807C86.8278 46.8709 85.6537 46.284 85.0997 46.8294C84.6955 47.3041 84.8745 48.1931 85.1371 48.6791C85.6152 49.5622 86.5093 49.9372 87.4132 50.2294C87.7767 50.3468 88.7724 50.6747 89.1305 50.4891C89.7674 49.2037 85.5783 49.2426 86.3086 47.9264C86.4545 47.8369 86.4523 47.8231 86.627 47.8371C86.9434 48.0308 86.9141 48.2707 87.3373 48.4575C87.9981 48.7488 88.4723 48.7529 89.1343 49.0894C89.4755 49.3555 89.6779 49.5699 89.743 50.0219C90.0778 52.3586 86.1686 50.4833 85.4035 49.9616C85.6341 50.998 85.6124 52.5815 85.486 53.6391C86.9792 53.3561 88.5255 53.2493 89.9915 53.7684C90.01 51.0814 89.7338 48.2624 90.5314 45.6598C90.7186 45.049 91.2367 43.6254 90.1499 43.6217C89.9134 43.6233 89.6774 43.6378 89.4424 43.6653C89.0757 43.7474 88.7083 43.8273 88.3405 43.9051ZM57.882 53.7676C59.4225 53.3201 60.8695 53.2777 62.4368 53.6538C62.2586 52.2918 62.3118 51.3456 62.4656 49.9875C61.5602 50.5666 59.9234 51.2839 58.8051 51.1336C58.2312 51.0565 57.977 50.3752 58.1783 49.8573C58.4478 49.1642 58.9753 48.9269 59.6403 48.7553C59.8021 48.7144 60.3508 48.5819 60.4707 48.5123C60.771 48.3383 61.1529 47.8436 61.5089 47.8263C61.5993 47.8981 61.6405 47.9038 61.632 48.038C61.5328 49.616 59.1023 48.8858 58.7233 50.213C58.753 50.404 58.7145 50.3187 58.8624 50.4675C59.5325 50.7137 60.5234 50.1541 61.3973 49.8829C62.5155 49.5359 63.8758 47.4572 62.4559 46.6015C62.1246 46.4019 60.6935 46.942 60.2333 46.8115C59.194 46.8394 57.9504 44.902 58.6014 44.4929C59.0106 44.5302 59.1142 45.0369 59.2101 45.3563C59.2396 44.6702 59.285 44.5282 59.5823 43.906C58.7868 43.7212 58.216 43.5596 57.3888 43.6567C57.2255 43.796 57.0662 43.9451 57.0671 44.1761C57.0703 45.0376 57.5371 45.9565 57.6809 46.8067C57.9566 48.4365 57.9488 50.0464 57.9352 51.6912C57.93 52.3149 57.9509 53.1623 57.882 53.7676ZM88.2868 59.8911C90.4549 59.1557 90.8265 57.2319 90.4777 55.1977C90.2541 53.8943 87.6422 54.0001 86.6911 54.0997C84.5251 54.2962 84.3428 55.1004 84.5164 57.1762C84.6662 58.9695 86.2174 60.1876 88.016 59.9336C88.1066 59.9206 88.1967 59.9064 88.2868 59.8911ZM61.2066 59.8758C62.1069 59.5128 62.7072 59.101 63.1279 58.1843C63.4645 57.4509 63.3619 56.8819 63.4141 56.123C63.5658 53.918 61.1508 53.9146 59.5024 54.1003C57.9035 54.2328 57.2585 54.5322 57.3539 56.2435C57.3729 56.5828 57.3386 56.9166 57.386 57.274C57.6296 59.1128 59.1771 60.1964 60.9322 59.9268C61.0242 59.913 61.1157 59.896 61.2066 59.8758ZM84.4958 69.1297C85.1024 69.1459 85.6933 69.1971 86.2977 69.2457C87.697 69.3582 89.1321 69.3602 90.527 69.493L90.5303 61.0515C90.5287 60.3889 90.5357 59.7074 90.5243 59.0466C90.2047 59.4413 90.0734 59.5695 89.6909 59.8993C90.3111 60.6915 90.195 61.1426 89.4446 61.7832C89.4386 62.5747 89.4403 63.3662 89.4489 64.1577C89.4641 65.1924 89.7333 66.7375 88.2466 66.7724C87.7002 66.7852 86.7909 66.8064 86.2613 66.7284C85.8805 66.4519 85.6341 66.2014 85.5972 65.6924C85.5056 64.4167 85.6086 63.0224 85.5609 61.7415C84.9315 61.1989 84.8518 60.631 85.3943 59.957C85.0417 59.6212 84.8219 59.3579 84.5105 59.046C84.466 62.4025 84.5338 65.7771 84.4958 69.1297ZM62.5068 59.9571C63.0749 60.6623 62.9859 61.1657 62.3251 61.7648L62.3288 64.2082C62.3449 66.8009 62.2372 66.8319 59.6258 66.7708C58.9801 66.7557 58.5267 66.4012 58.4702 65.7282C58.3604 64.4174 58.4702 63.0696 58.4284 61.7527C57.7756 61.1664 57.5307 60.6494 58.2146 59.9118C58.0223 59.7347 57.5087 59.1973 57.3773 59.0919L57.369 69.4892C58.6634 69.4058 59.9584 69.3319 61.2539 69.2674C61.95 69.227 62.7132 69.1333 63.398 69.1375L63.4008 61.0957L63.3986 59.0145C63.1139 59.3934 62.8525 59.6375 62.5068 59.9571ZM57.3669 78.483L63.3965 78.4906L63.4 74.0617C61.4312 73.9222 59.3525 73.8994 57.3745 73.8202L57.3669 78.483ZM84.5023 74.0764L84.4937 78.4819L85.4182 78.489H90.5254L90.5287 73.8289C90.3143 73.8327 89.9508 73.8273 89.749 73.8452C88.3058 73.8935 85.8799 73.919 84.5023 74.0764ZM82.7005 42.3582C82.8524 42.9357 82.9517 43.3421 83.5214 43.6824C84.2891 44.1411 85.5647 43.8116 85.4974 42.7498C85.1334 42.1965 84.3879 42.7579 84.0808 42.389C84.1535 41.7445 85.7378 41.2857 86.0801 42.8034C87.0568 42.8125 87.1333 42.8388 87.9113 43.3725C88.8565 43.1381 89.7989 42.817 90.7658 43.0786C90.8737 42.7044 90.9236 42.4601 91.1651 42.1486C91.5129 41.9344 91.7749 41.863 92.184 41.969C92.4911 42.0488 92.935 42.2523 92.834 42.6424C92.4781 42.8479 91.5373 42.3042 91.4499 42.8661C91.3528 43.4901 91.8585 43.8159 92.3756 43.8793C92.7451 43.9265 93.1173 43.8195 93.4054 43.5833C93.732 43.3151 93.9338 42.9241 93.9631 42.5023C94.0684 41.0844 92.7196 40.9275 91.661 40.939C89.8732 40.9583 88.0855 40.819 86.2977 40.8121C85.6775 40.8086 84.8946 40.751 84.294 40.7871C83.2387 40.9215 82.9283 41.3675 82.7005 42.3582ZM57.0859 43.0662C57.4053 43.0784 57.8568 42.9351 58.2267 42.9806C58.8215 43.0536 59.4177 43.2316 60.0018 43.3738C60.424 43.0626 60.7793 42.7949 61.3353 42.8172C61.4047 42.8199 61.8101 42.8159 61.8236 42.7436C61.9814 41.8993 62.6742 41.6675 63.4488 41.8878C63.6839 41.9546 63.7887 42.1562 63.7703 42.4226C63.6841 42.5273 63.7123 42.5278 63.5756 42.5359C63.3199 42.5511 62.7481 42.3543 62.5582 42.6038C62.0485 43.2734 63.0731 44.0635 63.7604 43.8813C64.2944 43.7398 64.5546 43.6479 64.898 43.1987C65.3512 42.4953 65.2362 41.5148 64.4799 41.0778C63.8557 40.7172 63.3287 40.7612 62.6551 40.7964C61.4853 40.8413 60.2762 40.7946 59.1158 40.8887C57.7947 40.9957 56.2911 40.8185 55.005 41.047C53.3346 41.3437 53.7084 44.1058 55.5589 43.872C56.1266 43.8003 56.5158 43.4089 56.5116 42.8311C56.2153 42.3282 55.4764 42.9289 55.0961 42.5899C55.0619 42.4286 55.0794 42.4238 55.1453 42.275C55.5491 41.8926 56.3714 41.746 56.7759 42.2117C57.0124 42.4839 57.0465 42.7277 57.0859 43.0662ZM84.4942 73.4165C86.3292 73.3551 88.5966 73.1782 90.38 73.1766L90.4939 73.1315C90.5715 72.7593 90.5276 70.6461 90.5335 70.1084C88.679 69.9795 86.2988 69.9591 84.5013 69.7678C84.4996 70.9743 84.5126 72.2128 84.4942 73.4165ZM57.3711 70.1211C57.3691 70.7717 57.3293 72.5449 57.3961 73.1066C57.5252 73.1918 57.7339 73.1787 57.8973 73.1863C58.6933 73.1934 59.4617 73.2607 60.2541 73.2992C61.301 73.3502 62.3501 73.3687 63.3969 73.4322C63.3984 72.9959 63.4492 69.9472 63.3389 69.7916L63.2611 69.7743C61.3698 69.9498 59.3 69.9804 57.3711 70.1211ZM91.132 78.4841L93.6387 78.4917L93.6457 70.9976C92.9366 70.9964 91.8059 71.0291 91.1369 70.9852L91.132 78.4841ZM55.8548 27.8296L55.1738 28.4551C56.1879 28.4196 57.2054 28.3084 58.2211 28.3471C58.632 28.3627 59.0426 28.3842 59.4535 28.4C59.7715 28.4323 60.0286 28.454 60.3475 28.4622C60.1157 28.2412 59.9087 28.0432 59.6621 27.839L59.4306 23.2667C58.5003 23.2657 57.0139 23.3127 56.125 23.2583C56.0059 24.661 56.0204 26.5201 55.8548 27.8296ZM61.6491 34.1695C60.2985 34.1564 58.9478 34.1526 57.5971 34.1581C57.0181 34.1586 56.1227 34.187 55.5643 34.1497C55.6567 34.62 55.7543 35.0893 55.8572 35.5575C56.6893 35.5857 57.5464 35.5258 58.3819 35.5162C59.4837 35.5035 60.5887 35.5244 61.6889 35.4649C61.6887 35.0037 61.6825 34.6335 61.6491 34.1695ZM78.1305 46.8215C78.4757 46.355 78.8842 45.7703 79.2438 45.3275C78.5828 44.8871 78.0614 44.5384 77.294 44.2723C76.8299 44.1114 76.3196 44.0126 75.8826 43.8231C75.8917 44.7752 75.9702 45.5042 75.4541 46.3393C76.3781 46.6148 76.8492 46.9346 77.6215 47.4912C77.8023 47.2673 77.9732 47.0632 78.1305 46.8215ZM54.954 34.1569C54.24 34.1606 52.4466 34.222 51.8044 34.1604C51.7452 34.9139 51.7991 35.633 52.7902 35.6389C53.5988 35.6438 54.3926 35.5498 55.2072 35.5728C55.1115 35.103 55.0271 34.6308 54.954 34.1569ZM64.4629 53.2793C64.2845 54.2657 64.2181 55.2296 64.2043 56.2305L67.0786 56.2367L67.2216 53.7926C66.2913 53.6466 65.3858 53.4629 64.4629 53.2793ZM50.1444 36.6333C50.5788 36.6923 50.9344 36.7044 51.3467 36.7499C51.6024 36.7622 51.891 36.7693 52.143 36.7898C52.1446 36.5954 52.1433 36.396 52.1511 36.2022C50.84 35.6194 51.4196 34.8531 51.0275 34.4061C50.9387 34.4028 50.8339 34.3961 50.7466 34.3969L49.6445 34.4654C49.7798 35.0505 50.0558 36.073 50.1444 36.6333ZM56.7251 56.8477C55.4924 56.8419 53.7625 56.9007 52.5841 56.8336C52.5695 57.34 52.5634 57.8466 52.5658 58.3532L57.0025 58.3591C56.8051 57.8032 56.7842 57.4411 56.7251 56.8477ZM64.0149 75.0179C64.019 76.1033 64.0579 77.4096 64.01 78.4803L66.4966 78.489C66.4988 77.3548 66.4796 76.1484 66.5057 75.0206L64.0149 75.0179ZM84.1274 58.3592C83.9305 57.7385 83.9115 57.5052 83.8968 56.8478L81.2011 56.8425C80.8143 56.8431 80.1091 56.8654 79.7456 56.8354L79.7368 58.3491L84.1274 58.3592ZM97.7606 37.3478C97.5962 37.3547 97.2587 37.3595 97.1068 37.3764C96.7161 37.4036 96.3173 37.4219 95.9326 37.4925C95.8974 38.2414 96.3021 38.2727 96.4758 38.9872L96.5534 39.0376C96.6695 39.0436 97.0531 39.0689 97.135 39.0248C97.5918 38.7792 97.6499 37.8222 97.7606 37.3478ZM95.3038 56.8411C94.1319 56.8415 92.2692 56.9036 91.1553 56.8332C91.1331 57.5006 91.113 57.7282 90.9117 58.3576L95.1003 58.3589L95.242 58.3426C95.3695 58.1254 95.3038 57.1542 95.3038 56.8411ZM70.743 29.2108L70.7347 30.0056C72.0428 30.0208 73.351 30.0248 74.659 30.0175L77.2217 30.0185L77.2356 29.2051C75.96 29.0174 74.6709 28.9372 73.3819 28.9654C72.5317 29.0187 71.5724 29.0491 70.743 29.2108ZM66.4951 66.3493L66.5001 63.0099C65.907 63.0102 64.5474 63.048 64.0265 62.9966C64.0168 63.9391 64.0733 65.4655 64.0101 66.3391L66.4951 66.3493ZM73.3901 43.0097C72.6326 43.2293 72.6903 43.7085 72.6486 44.3755C72.5877 45.3506 73.1568 47.0455 74.457 46.4931C75.0012 46.0862 75.2158 45.517 75.2854 44.859C75.4651 43.1622 74.9748 42.8652 73.3901 43.0097ZM87.2803 30.0129L91.2617 30.0175L93.7586 30.0177C93.7602 29.7541 93.757 29.4666 93.7667 29.2055C92.4955 29.0193 91.2101 28.9388 89.9253 28.9647C89.004 29.0221 88.1978 29.0562 87.283 29.1973L87.2803 30.0129ZM72.4973 46.3216C72.0435 45.535 72.0736 45.0046 72.0636 44.0985C72.0624 43.9849 72.0972 43.906 71.9784 43.8666C71.4987 44.0432 71.2172 44.0912 70.7448 44.228C70.0038 44.4425 69.2887 44.9023 68.6563 45.3401C69.0908 45.8486 69.4608 46.4229 69.8709 46.9512C69.9956 47.1217 70.1444 47.338 70.2797 47.4945C71.0999 46.9004 71.5107 46.618 72.4973 46.3216ZM54.5378 29.2041L54.5205 30.0059C55.8076 30.0203 57.0948 30.0242 58.382 30.0175L61.0047 30.0213L61.0136 29.2038C59.7428 29.0191 58.4589 28.9393 57.175 28.9651C56.3181 29.0183 55.3751 29.0509 54.5378 29.2041ZM74.8915 42.4556L75.0039 42.4665C75.2316 42.1098 75.3924 41.7682 75.8355 41.6276C76.2006 41.5118 77.1449 41.907 76.8691 42.3717C76.4294 42.5028 76.123 42.1569 75.7434 42.4544C75.5626 42.9521 76.0444 43.2896 76.4668 43.3998C76.6954 43.4607 76.9391 43.4174 77.1326 43.2814C77.7497 42.8559 77.784 41.7823 77.341 41.2144C76.8572 40.5944 76.0715 40.5963 75.3548 40.5779C74.5702 40.5577 73.7693 40.541 72.9842 40.5856C72.2572 40.5943 71.2272 40.5313 70.7086 41.0776C69.6778 42.1634 70.7228 44.4238 72.1614 42.9383C72.2636 42.8326 72.2667 42.5963 72.2538 42.4541C71.9892 42.1126 71.5369 42.5376 71.1353 42.4008C71.0176 42.2563 71.051 42.3196 71.0417 42.1047C71.2241 41.6881 71.868 41.5106 72.2709 41.6967C72.6423 41.8682 72.7559 42.1189 72.9089 42.4796C73.681 42.3317 74.1202 42.2801 74.8915 42.4556ZM83.8985 66.3488L83.9006 63.0093C83.3071 63.0097 81.9443 63.0491 81.4118 62.9931C81.3992 64.1091 81.396 65.2252 81.4024 66.3412L83.8985 66.3488ZM93.6343 66.3522L93.6425 63.0121C93.0988 63.0102 91.6203 63.0461 91.139 62.9926L91.1315 66.3392L93.6343 66.3522ZM63.7572 58.3545L67.9719 58.3583L68.1136 58.3424C68.241 58.1276 68.176 57.1549 68.1756 56.8413C66.842 56.8435 65.3449 56.8798 64.0247 56.8389C64.0159 57.5359 63.9834 57.7086 63.7572 58.3545ZM61.058 43.4411C59.5463 44.181 59.3588 46.4328 61.0169 46.1088C62.2724 45.5444 62.8627 43.3599 61.058 43.4411ZM87.4154 46.1581C88.7718 45.5452 87.8495 43.3313 86.2733 43.4412C85.9982 43.6449 85.9684 43.6921 85.7692 43.9699C85.6558 44.9487 86.0845 46.0551 87.1967 46.1478C87.2694 46.1534 87.3422 46.1568 87.4154 46.1581ZM61.2145 30.682C58.9614 30.668 56.5429 30.6348 54.2996 30.6787L53.6913 31.3077C56.1369 31.2237 58.823 31.3082 61.2936 31.2856L61.8292 31.3051L61.2145 30.682ZM86.4496 31.2956L94.0982 31.2852L94.5589 31.3093C94.3668 31.0976 94.1709 30.8893 93.9718 30.6846C91.8211 30.6581 89.2037 30.6257 87.0584 30.6793L86.4496 31.2956ZM98.3954 34.4703C97.9125 34.4262 97.3998 34.4167 96.944 34.3729C96.8908 35.3139 96.8322 35.7657 95.9278 36.2158L95.9164 36.7648C96.4503 36.7607 96.9011 36.7373 97.4334 36.7004C97.5886 36.6845 97.7497 36.6709 97.9038 36.6484C98.0807 35.9863 98.3064 35.1528 98.3954 34.4703ZM59.0264 61.1455C59.1685 61.0882 59.2678 60.9576 59.285 60.8053C59.3022 60.6529 59.2344 60.5035 59.1087 60.4159C58.9828 60.3284 58.8192 60.317 58.6824 60.386C58.4829 60.4868 58.3982 60.727 58.4905 60.9307C58.5827 61.1344 58.819 61.2291 59.0264 61.1455ZM87.9118 28.4532C88.9476 28.4278 89.9839 28.2996 91.0213 28.3497C91.4179 28.3688 91.814 28.3862 92.2106 28.4009C92.5297 28.435 92.763 28.453 93.0836 28.4602C92.8519 28.2296 92.6631 28.0536 92.4152 27.84L92.2497 24.8598C92.2215 24.3799 92.1466 23.733 92.1618 23.2742C91.0761 23.2515 89.9307 23.2995 88.8716 23.2661C88.7653 24.6264 88.7686 26.5268 88.5944 27.8034C88.3497 28.073 88.1902 28.2147 87.9118 28.4532ZM51.7276 38.5899C52.6863 37.0747 51.5487 37.4001 50.3243 37.3349C50.5266 38.1575 50.4081 39.2242 51.4948 39.0262C51.6559 38.9071 51.6496 38.8063 51.7276 38.5899ZM75.6383 23.2745C74.6801 23.26 73.7218 23.2574 72.7635 23.2668C72.5827 23.2754 72.483 23.249 72.3525 23.3399C72.273 23.7271 72.2604 24.5081 72.2411 24.929C72.2015 25.8933 72.1513 26.8573 72.0908 27.8205L71.4055 28.453C72.5941 28.4234 73.9603 28.2379 75.1195 28.3898C75.6179 28.4055 76.0981 28.4447 76.5876 28.4629L75.8891 27.8379C75.803 26.3889 75.7684 24.694 75.6383 23.2745ZM90.3388 19.6422C89.8635 19.7475 89.5634 20.2184 89.6687 20.6938C89.7739 21.1693 90.2449 21.4693 90.7202 21.3639C91.1955 21.2586 91.4955 20.7878 91.3903 20.3124C91.285 19.8369 90.814 19.5369 90.3388 19.6422ZM89.1918 61.1403C89.3312 61.0788 89.4262 60.9461 89.4392 60.7943C89.4517 60.6425 89.3811 60.4957 89.2542 60.4114C89.1272 60.3271 88.9644 60.3187 88.8299 60.3895C88.6308 60.494 88.5505 60.7376 88.6481 60.9401C88.7458 61.1426 88.9861 61.2312 89.1918 61.1403ZM59.7673 22.2561L59.8546 22.1012L59.817 22.0348C58.6814 21.9498 56.8635 22.0351 55.6532 22.0129C55.7609 22.21 55.879 22.4165 55.9786 22.6165C56.4706 22.6329 59.4654 22.7434 59.6327 22.5323C59.6895 22.4606 59.7295 22.3406 59.7673 22.2561ZM87.4838 60.6208C87.2548 60.6587 87.1012 60.8757 87.1409 61.104C87.181 61.3323 87.3991 61.4845 87.627 61.4428C87.8522 61.4015 88.0024 61.1863 87.9628 60.9606C87.9232 60.7349 87.7095 60.5833 87.4838 60.6208ZM61.9524 61.2049C62.1725 61.14 62.3007 60.9116 62.2418 60.6899C62.1828 60.4682 61.9581 60.3337 61.7349 60.3866C61.5851 60.4222 61.4664 60.5363 61.4248 60.6846C61.3833 60.833 61.4257 60.9922 61.5354 61.1003C61.645 61.2085 61.8048 61.2485 61.9524 61.2049ZM74.1722 21.3709C74.6505 21.2794 74.964 20.8174 74.8725 20.339C74.781 19.8607 74.319 19.5471 73.8408 19.6387C73.3626 19.7303 73.0492 20.1923 73.1408 20.6705C73.2322 21.1488 73.694 21.4623 74.1722 21.3709ZM71.8992 22.0163C72.0048 22.2204 72.1073 22.4093 72.194 22.6229C72.7081 22.6301 75.5229 22.7093 75.8303 22.5583L75.9158 22.4061C75.996 22.2595 76.0569 22.1996 76.0594 22.048C75.2752 21.9521 72.8215 22.0253 71.8992 22.0163ZM88.4208 22.012C88.5136 22.2098 88.6069 22.4193 88.704 22.6137C89.1853 22.6335 92.1732 22.7143 92.3653 22.5595L92.4879 22.3382L92.5769 22.1017L92.5275 22.0372C91.3441 21.9363 89.6676 22.0684 88.4208 22.012ZM60.2796 60.6241C60.1251 60.6529 59.9999 60.766 59.9557 60.9169C59.9115 61.0677 59.9557 61.2305 60.0701 61.3383C60.1846 61.4459 60.3498 61.4802 60.4976 61.4268C60.702 61.3531 60.8156 61.1347 60.7586 60.9249C60.7017 60.7152 60.4932 60.5843 60.2796 60.6241ZM86.1735 61.2064C86.3997 61.154 86.5408 60.9282 86.4881 60.7019C86.4361 60.4757 86.2104 60.3346 85.9841 60.3867C85.7578 60.4389 85.6162 60.6649 85.6689 60.8913C85.721 61.1178 85.9472 61.2589 86.1735 61.2064ZM81.0749 56.2348L83.6928 56.2377C83.6863 55.6969 83.6212 53.7504 83.427 53.3365C83.3315 53.3204 83.3391 53.3117 83.2474 53.3244C82.3876 53.4979 81.5259 53.6605 80.6622 53.8121L80.6733 53.8861C80.733 54.2978 80.778 56.0826 80.9279 56.226L81.0749 56.2348ZM57.608 19.6378C57.1305 19.7326 56.82 20.1964 56.9142 20.6741C57.0084 21.1518 57.4716 21.463 57.9494 21.3694C58.428 21.2756 58.7397 20.8112 58.6454 20.3326C58.551 19.8541 58.0864 19.5428 57.608 19.6378ZM92.2421 35.4943C92.3311 35.0503 92.4163 34.6054 92.4966 34.1597L88.5662 34.1617C87.9249 34.1641 86.9325 34.1986 86.3086 34.1567C86.2939 34.6029 86.2847 35.0114 86.2326 35.4565C87.4935 35.5155 88.749 35.5157 90.0116 35.5212C90.6751 35.5241 91.546 35.5937 92.184 35.5666L92.2421 35.4943ZM81.0206 53.1109C81.7993 52.9476 82.5816 52.8014 83.3667 52.6725C83.2832 52.23 82.6733 49.631 82.3174 49.4485C81.5699 49.8244 80.5831 50.3825 79.8504 50.7106C79.9532 50.9729 80.0189 51.1226 80.1428 51.5083C80.2675 51.896 80.4544 52.6727 80.5718 53.0978C80.6074 53.1192 80.6431 53.1406 80.6787 53.1621L81.0206 53.1109ZM54.2848 75.0125L54.2827 78.4825L56.7789 78.4912L56.7845 75.019C55.9786 75.0179 55.0827 75.0364 54.2848 75.0125ZM70.5218 30.6797C70.3252 30.8873 70.1314 31.0979 69.9239 31.2945L77.6086 31.2857L78.0694 31.3071C77.8529 31.0989 77.6503 30.9108 77.4558 30.6812C75.2536 30.671 72.696 30.6126 70.5218 30.6797ZM95.9196 35.5434C97.7134 33.5877 94.0733 34.222 93.165 34.1554C93.0386 34.6616 92.9615 35.0552 92.8731 35.5681C93.5155 35.5713 95.446 35.6848 95.9196 35.5434ZM85.6141 35.4543C85.6613 34.952 85.6651 34.6618 85.658 34.1643C83.4291 34.1522 80.7759 34.2418 78.6052 34.152C78.6029 34.5964 78.6158 34.8982 78.6563 35.3408C80.8401 35.349 83.4492 35.3573 85.6141 35.4543ZM64.0241 59.0065C64.0249 60.0478 64.0608 61.3287 64.0122 62.3558L66.4296 62.3669C66.5584 62.2049 66.5002 59.4079 66.4987 59.0138C65.7158 59.0153 64.7963 59.0401 64.0241 59.0065ZM64.0215 67.0324C64.024 68.1138 64.0456 69.2969 64.0135 70.3735C64.8412 70.3884 65.669 70.3944 66.4968 70.3913L66.5038 67.0346L64.0215 67.0324ZM65.8129 48.8438C66.4396 49.1708 67.2211 49.548 67.8205 49.8896L68.3166 50.1416C68.7776 49.2149 69.1007 48.7109 69.8225 47.9374C69.4325 47.464 68.4968 46.0668 68.1617 45.7624C67.3224 46.5378 66.2366 47.7857 65.8129 48.8438ZM67.2296 53.1755L67.3325 53.1445C67.5395 52.3317 67.7213 51.459 68.074 50.7044C67.2039 50.3204 66.3792 49.8006 65.5286 49.4304C65.0653 50.5363 64.7601 51.4847 64.5352 52.6751C65.4456 52.816 66.327 52.9954 67.2296 53.1755ZM54.2907 62.992C54.2808 64.1084 54.2783 65.225 54.2829 66.3415L56.7787 66.3492L56.7803 63.0097C56.2162 63.0099 54.7866 63.0483 54.2907 62.992ZM54.288 59.0007L54.2826 62.3599L56.7791 62.3652L56.7769 59.0181C56.1971 59.0171 54.7848 59.0519 54.288 59.0007ZM54.286 67.0214L54.2835 70.3771C55.116 70.3884 55.9485 70.3914 56.781 70.3859L56.7837 67.0333C56.1091 67.0321 54.9181 67.0692 54.286 67.0214ZM81.4096 59.0026L81.402 62.3594L83.899 62.3645C83.8985 61.255 83.9099 60.1251 83.8968 59.0173C83.2772 59.0168 81.9612 59.053 81.4096 59.0026ZM64.0217 70.9874C64.0219 71.989 64.0661 73.4002 64.0128 74.3689C64.8405 74.3808 65.6683 74.3846 66.4961 74.3803L66.5022 70.9954C65.6836 70.9966 64.8379 71.0087 64.0217 70.9874ZM81.4065 67.0233L81.4038 70.3793C82.2364 70.3864 83.0689 70.389 83.9012 70.3871L83.9044 67.0334C83.1796 67.0319 82.102 67.0653 81.4065 67.0233ZM91.1407 59.0032L91.1309 62.3565L93.6354 62.3684L93.6403 59.0165C92.8785 59.0158 91.8867 59.0426 91.1407 59.0032ZM91.1369 67.0317C91.1353 68.125 91.1553 69.2875 91.1315 70.3748C91.9686 70.3889 92.8064 70.3939 93.6435 70.39C93.6435 69.2791 93.6311 68.1444 93.6441 67.0356L91.1369 67.0317ZM78.0795 47.9489C78.7108 48.5826 79.2226 49.3251 79.59 50.1407C79.7783 50.0433 80.0489 49.9137 80.2216 49.8032C80.8487 49.4892 81.4731 49.1698 82.0947 48.8452C81.6495 47.9072 80.5397 46.3292 79.7207 45.7451C79.2192 46.3998 78.577 47.3549 78.0795 47.9489ZM54.2865 70.9788L54.2835 74.371C55.1155 74.3803 55.9476 74.3824 56.7796 74.3776L56.782 70.9951C56.1759 70.9953 54.8344 71.0345 54.2865 70.9788ZM83.8985 78.4912L83.9012 70.9951C83.262 70.995 81.9965 71.034 81.4075 70.9813L81.4019 78.4814L83.8985 78.4912ZM62.2605 34.147C62.2761 34.5739 62.3073 35.0177 62.3185 35.4392C64.5406 35.3872 67.0998 35.3305 69.3192 35.3485C69.3233 34.9196 69.3232 34.5906 69.3763 34.1618L64.6662 34.1597C64.0935 34.1602 62.7837 34.1971 62.2605 34.147ZM69.9846 34.1551C69.9527 34.5628 69.9392 34.925 69.9286 35.333C72.3476 35.2544 75.5755 35.2249 77.9782 35.3421C78.0691 35.1625 77.9855 34.4374 77.9819 34.161L72.7345 34.1579C71.9292 34.1586 70.7613 34.1954 69.9846 34.1551ZM59.4287 61.654C59.3352 61.7012 59.09 61.7836 59.0815 61.9116C59.0321 62.6654 59.0622 63.4724 59.0566 64.2189C59.0403 66.3707 58.9854 66.19 61.1194 66.1603C61.3122 66.1576 61.4409 66.11 61.5967 65.9726C61.8191 65.5026 61.7181 62.5235 61.7142 61.8629L61.2236 61.692C60.4587 62.2508 60.1889 62.2379 59.4287 61.654ZM88.4354 61.667C87.7116 62.2475 87.4387 62.2408 86.6835 61.7033L86.1908 61.8583C86.1838 62.8987 86.1751 63.9394 86.1745 64.9798C86.174 65.4072 86.1317 65.7504 86.422 66.0873C86.8446 66.1871 88.1614 66.2258 88.5564 66.081C88.7707 65.8982 88.8429 65.5842 88.8478 65.3149C88.8679 64.1614 88.8532 62.9753 88.8478 61.8222L88.4354 61.667Z" fill="white"/>
<path d="M77.5891 115.253C81.3205 114.836 84.6836 117.523 85.1024 121.255C85.5218 124.986 82.8383 128.352 79.1073 128.774C75.3727 129.196 72.0035 126.509 71.5841 122.773C71.1647 119.037 73.8539 115.669 77.5891 115.253ZM78.7832 126.692C81.3565 126.449 83.2512 124.174 83.0249 121.599C82.7992 119.023 80.5373 117.113 77.961 117.322C75.3603 117.533 73.4284 119.821 73.6565 122.421C73.8846 125.021 76.1855 126.938 78.7832 126.692Z" fill="white"/>
<path d="M61.1298 115.236C62.1888 115.182 63.3637 115.209 64.4305 115.203C65.1347 115.199 66.3893 115.172 67.0359 115.285C67.5382 115.369 68.0183 115.554 68.4473 115.829C69.3178 116.376 69.9308 117.251 70.1474 118.256C70.3803 119.288 70.1923 120.371 69.625 121.263C69.0622 122.137 68.1736 122.75 67.1569 122.965C67.7233 123.686 70.8335 128.068 70.8937 128.634L70.8081 128.727C70.3418 128.928 69.2337 128.843 68.6971 128.813C68.5695 128.669 68.4398 128.493 68.3203 128.34C67.147 126.575 65.8977 124.825 64.7068 123.062C64.2336 123.094 63.557 123.079 63.0679 123.082C63.0666 123.808 63.1613 128.471 62.9331 128.735C62.4554 128.944 61.5013 128.833 60.9742 128.775C60.9508 128.564 60.9428 128.35 60.9424 128.139C60.9376 125.59 60.9428 123.038 60.9408 120.489L60.9373 117.226C60.9358 116.687 60.9311 116.13 60.9367 115.59C60.9386 115.402 61.0147 115.359 61.1298 115.236ZM63.0739 120.999C64.304 120.986 66.8012 121.266 67.6835 120.417C68.5529 119.385 68.2798 117.745 66.9132 117.396C65.8595 117.128 64.2045 117.325 63.0676 117.291C63.0673 118.51 63.0486 119.785 63.0739 120.999Z" fill="white"/>
<path d="M29.1859 100.548L31.8791 100.54C33.5229 100.551 34.9141 101.024 36.083 102.224C37.1209 103.292 37.6843 104.732 37.6454 106.221C37.6136 107.821 36.9763 109.101 35.843 110.2L35.8097 110.231C33.9025 111.959 31.4574 111.772 29.01 111.671C29.0103 110.759 28.9658 100.801 29.0621 100.582L29.1859 100.548ZM30.2503 110.392C32.2495 110.418 33.5933 110.623 35.1526 109.123C36.0415 108.157 36.4486 107.217 36.3888 105.88C36.3468 104.747 35.8477 103.679 35.0052 102.92C33.3784 101.438 32.0664 101.925 30.255 101.816L30.2503 110.392Z" fill="white"/>
<path d="M72.4193 85.6183C72.4992 85.6162 72.5792 85.6151 72.6592 85.6151C75.2051 85.5977 77.4587 85.2916 79.4208 87.2524C80.4679 88.3052 81.0552 89.7303 81.0539 91.2156C81.0414 92.7699 80.3955 94.1429 79.2944 95.2207C77.4681 97.1473 74.7767 96.7137 72.4131 96.762C72.3674 93.146 72.3667 89.2327 72.4193 85.6183ZM73.6543 95.472C75.4283 95.4921 77.0126 95.6934 78.4093 94.3318C78.4455 94.2965 78.4812 94.2607 78.5163 94.2249C79.3493 93.3718 79.8074 92.3602 79.7992 91.1532C79.7893 90.0054 79.3246 88.9081 78.5071 88.1022C76.846 86.4769 75.4454 87.0375 73.6559 86.8795L73.6543 95.472Z" fill="white"/>
<path d="M47.0841 100.548C47.956 100.544 50.5993 100.475 51.2956 100.637C51.7561 100.744 52.1875 100.95 52.5593 101.242C53.9936 102.384 53.9946 104.351 52.872 105.721C53.0854 105.815 53.2126 105.885 53.404 106.015C54.0776 106.464 54.5424 107.164 54.6936 107.96C54.8815 108.997 54.6231 109.718 54.0477 110.552C53.991 110.614 53.9333 110.673 53.8724 110.731C53.4508 111.132 52.9806 111.414 52.4155 111.564C51.4036 111.834 48.1097 111.707 46.902 111.675C46.9022 110.588 46.8247 100.929 46.95 100.587L47.0841 100.548ZM48.1432 110.392C49.3869 110.403 52.0838 110.694 52.9561 109.874C53.3486 109.454 53.5048 109.089 53.4829 108.504C53.3869 105.942 49.8664 106.871 48.1486 106.72L48.1432 110.392ZM48.144 105.463C48.7213 105.472 49.3163 105.475 49.8914 105.484C50.7989 105.496 51.1837 105.488 51.9186 104.932C52.2684 104.458 52.5142 104.048 52.4267 103.425C52.1209 101.251 49.6652 101.894 48.1488 101.818L48.144 105.463Z" fill="white"/>
<path d="M87.1441 115.064C87.3866 115.146 87.4713 115.228 87.6373 115.416C88.4446 116.328 89.2395 117.253 90.036 118.174L94.9772 123.896C95.0043 122.763 94.8437 115.934 95.0276 115.383C95.2962 115.098 96.7183 115.133 97.0124 115.369C97.1176 115.82 97.161 128.26 97.0438 128.719C97.0048 128.872 96.8968 128.918 96.7758 129C96.3993 128.864 94.3364 126.352 93.9192 125.87L88.9579 120.125C88.9926 122.533 88.9487 124.95 88.9682 127.358C88.9709 127.678 89.0008 128.52 88.8385 128.742C88.3926 128.932 87.4056 128.847 86.9173 128.779C86.85 128.13 86.8858 126.842 86.8864 126.14L86.8896 121.33L86.882 117.379C86.8799 116.725 86.8707 116.048 86.8962 115.394C86.9032 115.21 87.0003 115.18 87.1441 115.064Z" fill="white"/>
<path d="M50.9876 115.244C51.6865 115.177 58.8371 115.135 59.0851 115.28C59.1502 115.318 59.1927 115.377 59.2076 115.452C59.2856 115.844 59.324 116.873 59.1386 117.213C58.6391 117.367 53.8701 117.301 52.9751 117.305C53.0037 118.502 52.9809 119.794 52.9823 120.999C53.5827 120.981 57.9884 120.944 58.2618 121.056C58.4487 121.417 58.3997 122.55 58.2296 122.936C58.1924 122.969 58.1552 123.003 58.1179 123.036C56.8043 123.203 54.2225 122.948 53.0281 123.1C52.9525 123.23 52.9809 123.349 52.9811 123.519L52.9824 126.699C53.8204 126.673 58.5776 126.608 59.0966 126.785C59.3169 126.999 59.2923 128.501 59.1334 128.762C58.5273 128.925 51.7521 128.881 50.9317 128.788C50.8605 128.134 50.8864 127.157 50.8858 126.482L50.8837 118.016C50.8839 117.557 50.8189 115.54 50.9876 115.244Z" fill="white"/>
<path d="M103.622 114.993C103.766 115.004 103.763 115.011 103.896 115.071C104.232 115.432 104.886 117.387 105.098 117.938L106.871 122.505C107.194 123.34 109.083 128.045 109.134 128.646C108.891 128.975 107.478 128.831 107.068 128.795C106.804 128.274 106.292 126.858 106.094 126.287C105.384 126.312 104.567 126.294 103.849 126.295L101.389 126.291C101.122 127.007 100.7 128.156 100.374 128.805C99.888 128.863 98.607 128.972 98.3042 128.577C98.3932 128.133 98.7844 127.19 98.9607 126.735L102.269 118.225C102.488 117.662 103.309 115.364 103.622 114.993ZM103.802 124.212L105.278 124.214C105.011 123.552 103.965 120.679 103.711 120.303C103.244 121.549 102.613 122.997 102.198 124.228C102.732 124.218 103.267 124.213 103.802 124.212Z" fill="white"/>
<path d="M101.51 100.547C103.015 100.541 104.848 100.47 106.341 100.62C106.64 100.65 107.221 100.943 107.478 101.124C108.144 101.596 108.59 102.319 108.713 103.126C108.996 104.951 107.753 106.484 105.951 106.731L108.101 109.863C108.461 110.385 108.989 111.111 109.281 111.652C108.728 111.69 108.352 111.692 107.806 111.677C107.689 111.448 107.581 111.312 107.43 111.109C106.59 109.778 105.2 108.029 104.463 106.739C103.946 106.698 103.124 106.721 102.593 106.724C102.571 108.366 102.596 110.032 102.582 111.679C102.175 111.705 101.76 111.688 101.352 111.678C101.294 108.457 101.39 105.211 101.349 101.988C101.345 101.628 101.295 100.909 101.396 100.589L101.51 100.547ZM107.07 104.877C107.755 104.033 107.744 102.897 106.899 102.23C105.963 101.492 103.77 101.909 102.594 101.811L102.592 105.462C103.416 105.472 104.243 105.481 105.067 105.486C105.909 105.49 106.423 105.482 107.07 104.877Z" fill="white"/>
<path d="M39.001 115.24C39.4413 115.194 40.5274 115.135 40.9152 115.299C41.1621 115.637 42.083 118.071 42.2759 118.601C42.8856 120.276 43.6814 122.084 44.2509 123.757C45.0601 121.854 45.7626 119.784 46.5474 117.865C46.7551 117.356 47.3621 115.636 47.6149 115.308C47.9938 115.135 48.5696 115.214 48.9872 115.212C49.2801 115.211 49.4921 115.178 49.6661 115.435C49.6684 115.806 48.4926 118.664 48.291 119.205C47.3117 121.597 45.5776 126.348 44.482 128.863C44.4418 128.954 44.2379 128.954 44.1356 128.955C43.8905 128.815 42.8455 125.921 42.6541 125.426L40.2805 119.288C39.8403 118.151 39.2902 116.751 38.8576 115.587C38.8105 115.46 38.9204 115.356 39.001 115.24Z" fill="white"/>
<path d="M100.833 85.4696C100.782 86.428 100.839 87.635 100.827 88.621C100.792 91.3112 100.88 94.061 100.813 96.7473C100.34 96.7636 100.038 96.7582 99.5657 96.7251L99.5684 94.0914L99.5771 90.381C99.2309 90.9128 98.7318 91.8853 98.4133 92.4638L96.0341 96.7701C95.1779 95.3634 94.4026 93.7511 93.5719 92.3168C93.2166 91.7035 92.8829 91.0007 92.4841 90.4195C92.528 92.4383 92.5031 94.7166 92.4743 96.743C91.9936 96.7668 91.7234 96.7571 91.2465 96.7278L91.2557 85.6319C91.4337 85.7578 95.4959 93.2735 96.0423 94.1983C97.5962 91.3225 99.3519 88.3508 100.833 85.4696Z" fill="white"/>
<path d="M95.5838 100.447C95.7976 100.73 96.6885 103.147 96.8583 103.579C97.9136 106.26 98.9114 108.986 99.9829 111.658C99.4648 111.69 99.1691 111.692 98.6509 111.672C98.3601 110.976 98.0877 110.23 97.817 109.522L95.548 109.523L93.3972 109.527C93.1259 110.229 92.8433 111.009 92.5259 111.684C92.0956 111.702 91.6648 111.662 91.2193 111.681C92.3761 108.796 93.4477 105.866 94.605 102.98C94.9392 102.145 95.274 101.29 95.5838 100.447ZM93.8872 108.237L95.6565 108.234L97.32 108.238C97.0905 107.655 95.8285 104.178 95.5816 103.872C95.0993 105.172 94.4368 106.987 93.8872 108.237Z" fill="white"/>
<path d="M110.178 85.5223C110.329 85.6726 114.196 95.7189 114.544 96.7256C114.13 96.7603 113.642 96.7544 113.222 96.7598C112.958 96.0375 112.688 95.3173 112.411 94.5993H110.252L107.987 94.6069C107.707 95.1919 107.412 96.1042 107.134 96.7516C106.732 96.7701 106.234 96.7435 105.825 96.7321C107.197 93.0293 108.733 89.2093 110.178 85.5223ZM108.477 93.3468C109.021 93.33 109.565 93.3251 110.109 93.3321C110.673 93.3338 111.343 93.3191 111.898 93.3424C111.709 92.8074 110.385 89.199 110.172 88.9423C109.624 90.4011 109.002 91.8913 108.477 93.3468Z" fill="white"/>
<path d="M66.6517 85.5158C66.8273 85.7665 67.8105 88.4132 67.9893 88.8739L69.8846 93.769C70.2381 94.6829 70.707 95.8117 70.9941 96.7267C70.5897 96.7603 70.1052 96.7527 69.6937 96.7565C69.4117 96.0592 69.139 95.3054 68.8823 94.5972L66.7375 94.5993C65.9796 94.5977 65.2215 94.6026 64.4637 94.6151C64.1515 95.2538 63.9052 96.0521 63.5809 96.7533C63.1558 96.7706 62.7159 96.7392 62.2898 96.718C63.7162 93.0185 65.1691 89.1849 66.6517 85.5158ZM64.9436 93.3441C65.5492 93.3354 66.1549 93.3316 66.7605 93.3321C67.2314 93.3343 67.9068 93.3186 68.3603 93.3495C68.1983 92.8844 66.8192 89.1453 66.6407 88.9559C66.0983 90.3349 65.4247 91.9624 64.9436 93.3441Z" fill="white"/>
<path d="M37.8266 85.5331C37.9721 85.6813 41.8928 95.8204 42.1781 96.7245C41.7648 96.756 41.284 96.7576 40.8668 96.7619C40.6065 96.0358 40.3265 95.332 40.0697 94.5982L37.9271 94.5993C37.1663 94.5977 36.4056 94.6031 35.6449 94.614C35.3393 95.1898 35.074 96.1048 34.7617 96.7554C34.3323 96.7701 33.9013 96.7397 33.472 96.7174C34.9047 93.0071 36.3413 89.2175 37.8266 85.5331ZM36.1204 93.3452C36.7255 93.3327 37.3307 93.3283 37.9359 93.3321C38.4316 93.3338 39.0465 93.3202 39.5322 93.3441C39.3446 92.7623 38.0771 89.2734 37.825 88.951C37.2628 90.3853 36.6414 91.9049 36.1204 93.3452Z" fill="white"/>
<path d="M80.1895 100.548C82.2616 100.545 84.5181 100.503 86.5766 100.559L86.5739 101.812C84.8295 101.845 82.9869 101.819 81.2364 101.825C81.2037 103.021 81.2449 104.254 81.2201 105.462C82.7292 105.495 84.301 105.476 85.8148 105.478L85.8159 106.715C84.3483 106.771 82.7368 106.699 81.2267 106.742L81.2261 107.238L81.2291 110.392C82.9631 110.437 84.8268 110.397 86.5755 110.408L86.5706 111.683C86.2342 111.696 85.881 111.696 85.5446 111.691C83.6928 111.665 81.8128 111.739 79.9647 111.671C79.9774 110.655 79.8941 100.876 80.0028 100.586L80.1895 100.548Z" fill="white"/>
<path d="M56.7461 100.548C58.8871 100.539 61.0282 100.54 63.1692 100.554L63.1727 101.811L57.7959 101.821C57.7398 102.948 57.7908 104.307 57.7783 105.465C59.2895 105.493 60.8513 105.474 62.3694 105.481L62.3705 106.717C60.8735 106.746 59.2883 106.723 57.7836 106.725L57.7798 107.184L57.7807 110.394C59.5593 110.42 61.384 110.404 63.1671 110.406C63.1712 110.83 63.1706 111.255 63.1653 111.678C62.401 111.719 61.4264 111.691 60.647 111.692C59.2836 111.698 57.9203 111.695 56.557 111.682C56.5431 110.717 56.5219 100.72 56.5949 100.578L56.7461 100.548Z" fill="white"/>
<path d="M82.8898 85.6238C84.9011 85.5472 87.3915 85.5999 89.431 85.6189L89.4294 86.8785C87.6845 86.9164 85.8305 86.8866 84.0775 86.8947L84.0748 90.5492C85.5207 90.6111 87.2125 90.5677 88.6861 90.5747V91.8408C87.2401 91.919 85.6217 91.7866 84.1426 91.8728C84.0493 91.9901 84.0818 92.0167 84.0732 92.2055L84.0742 95.472C85.8506 95.5062 87.6471 95.4622 89.4305 95.4921C89.43 95.9105 89.4272 96.3294 89.4224 96.7484C88.118 96.7598 86.8137 96.7641 85.5093 96.7614C84.689 96.762 83.6673 96.7907 82.8611 96.7305C82.8269 94.1429 82.8784 91.5206 82.854 88.9287C82.8491 88.4316 82.8307 85.8555 82.8898 85.6238Z" fill="white"/>
<path d="M47.8163 85.62C49.3459 85.5353 50.6702 86.1838 51.8097 87.14C51.5286 87.419 51.2342 87.7462 50.9607 88.0371C49.579 86.9338 48.0388 86.5203 46.3411 87.2046C45.2963 87.6219 44.4625 88.4414 44.0263 89.479C43.5933 90.5112 43.5791 91.7676 44.0036 92.8052C44.4407 93.8857 45.2974 94.7431 46.3778 95.1805C47.6553 95.6994 48.7161 95.536 49.9325 95.0248C50.3139 94.8321 50.625 94.5809 50.9596 94.3204C51.2531 94.5982 51.5246 94.9005 51.8202 95.1854C49.7084 97.1391 46.6715 97.3128 44.4345 95.4535C43.3012 94.512 42.5913 93.1563 42.4628 91.6883C42.3275 90.1932 42.7985 88.7062 43.7701 87.5617C44.86 86.288 46.179 85.7469 47.8163 85.62Z" fill="white"/>
<path d="M57.6844 85.621C59.1708 85.5244 60.5531 86.1925 61.6588 87.1346C61.3674 87.4363 61.1051 87.7321 60.8282 88.0458C59.4909 86.93 57.8827 86.5447 56.2228 87.1932C55.1807 87.6024 54.3459 88.4121 53.9048 89.4416C53.4493 90.5205 53.4366 91.7355 53.8695 92.8236C54.305 93.8841 55.1443 94.7279 56.2024 95.1686C57.435 95.6809 58.5259 95.5534 59.7203 95.0601C60.0931 94.8831 60.4912 94.57 60.821 94.3166L61.6703 95.1952C59.6576 97.189 56.4169 97.2536 54.2695 95.4334C53.1291 94.4778 52.4258 93.0999 52.3207 91.6156C52.2011 90.1075 52.6971 88.6151 53.6956 87.4792C54.7562 86.2679 56.1116 85.7355 57.6844 85.621Z" fill="white"/>
<path d="M109.72 100.551C111.756 100.503 114.397 100.515 116.426 100.559C116.434 100.972 116.425 101.398 116.421 101.812L113.647 101.82L113.644 109.015L113.639 111.678C113.197 111.703 112.845 111.69 112.405 111.674C112.357 108.437 112.4 105.065 112.403 101.823L109.652 101.808C109.649 101.497 109.611 100.814 109.72 100.551Z" fill="white"/>
<path d="M65.2029 100.55C65.518 100.544 65.8611 100.555 66.1786 100.559C66.2224 103.802 66.1863 107.143 66.1831 110.391C67.7999 110.429 69.5176 110.404 71.1431 110.406C71.1536 110.707 71.2026 111.337 71.1075 111.618C71.0869 111.679 71.0371 111.671 70.9556 111.69C69.0605 111.692 66.8062 111.746 64.9424 111.671C64.9391 110.537 64.8573 100.772 64.9979 100.579L65.2029 100.55Z" fill="white"/>
<path d="M72.7439 100.549C73.0534 100.543 73.3935 100.555 73.7056 100.559L73.7083 110.391C75.2863 110.438 77.0428 110.404 78.6318 110.406C78.6279 110.747 78.7232 111.329 78.5818 111.62C78.5495 111.687 78.4309 111.679 78.3349 111.692C76.4098 111.681 74.4031 111.733 72.4868 111.675C72.4865 110.5 72.4387 100.716 72.5392 100.576L72.7439 100.549Z" fill="white"/>
<path d="M117.809 100.551C118.196 100.537 118.611 100.55 119 100.556L118.998 111.671C118.589 111.713 118.166 111.692 117.754 111.683C117.734 110.668 117.683 100.87 117.809 100.551Z" fill="white"/>
<path d="M103.211 85.6221C103.609 85.6031 104.031 85.6167 104.431 85.6227L104.434 93.229C104.434 93.8048 104.475 96.2149 104.409 96.6914L104.325 96.7516C103.948 96.7598 103.57 96.7582 103.194 96.7468C103.237 93.0451 103.169 89.326 103.211 85.6221Z" fill="white"/>
<path d="M39.6699 100.548L40.6844 100.554L40.691 108.659C40.6908 109.12 40.7277 111.354 40.6492 111.639L40.5525 111.688C40.2038 111.701 39.8182 111.686 39.4663 111.68C39.4531 110.701 39.4311 100.72 39.5041 100.578L39.6699 100.548Z" fill="white"/>
</svg>
