<svg width="148" height="148" viewBox="0 0 148 148" fill="none" xmlns="http://www.w3.org/2000/svg">
<path d="M90.1776 79.7154C89.3137 79.1487 87.8615 79.3955 86.8322 79.3575C82.83 79.2095 78.1642 79.64 74.2366 79.0498C70.7376 78.524 68.5812 75.7404 68.2805 72.1889C67.908 67.7901 70.6224 64.4347 74.8428 63.5578C77.056 63.1427 79.7551 63.2884 82.0151 63.2871L92.2745 63.2849C94.1933 63.2849 96.4504 63.3384 98.3441 63.2361C98.2378 63.8621 97.8376 64.6718 97.5787 65.2737L96.2428 68.3502C95.9823 68.9458 95.6338 69.6839 95.4284 70.2904C95.4067 70.2894 95.385 70.2887 95.3633 70.2881C91.4819 70.1911 87.3032 70.2763 83.3967 70.2728L79.6477 70.2678C79.0081 70.2666 78.3596 70.2531 77.72 70.292C77.2319 70.3216 77.0187 70.5222 76.6813 70.8517C76.4208 71.6812 76.452 71.8017 77.0888 72.3689C78.1147 72.4428 79.6427 72.3937 80.7125 72.3918L87.287 72.3863C89.326 72.3881 91.6199 72.3343 93.5865 72.9263C94.8289 73.3116 95.965 73.9911 96.9024 74.9096C99.7624 77.7465 99.6105 83.1845 96.8212 85.9631C95.5637 87.2153 93.3355 88.5259 91.5615 88.5508C90.8178 88.5089 89.8709 88.5465 89.1128 88.5521L85.2391 88.5568L78.9875 88.5522C78.6413 88.5524 76.7888 88.5322 76.609 88.5896C75.7273 88.5611 67.686 88.4698 67.3887 88.692L67.3032 88.9597L67.3117 89H67.0545C67.0053 88.764 66.9789 88.405 66.9535 88.1564C67.5896 87.676 69.2476 82.7739 69.8332 81.9123C69.9971 81.6711 74.9775 81.7651 75.518 81.7652L85.5013 81.7669C86.7549 81.7671 88.2261 81.8127 89.4713 81.7137C89.6121 81.7025 90.0585 81.4009 90.2049 81.3062C90.5845 80.56 90.5434 80.4381 90.1776 79.7154Z" fill="white"/>
<path d="M40.8438 63.2417C41.7609 63.3244 43.1295 63.2874 44.0752 63.2902C44.9259 63.2927 46.3248 63.3303 47.1161 63.2311C47.2592 63.3294 47.4626 63.4611 47.5885 63.5726C47.8832 64.3869 50.2533 69.9256 50.2372 70.0929C50.1834 70.1551 50.1724 70.1932 50.088 70.201C48.9395 70.307 47.711 70.146 46.5649 70.264C46.1049 71.6199 45.2796 73.3918 44.7078 74.7533C43.5698 77.4973 42.4179 80.2353 41.2522 82.9671C40.7588 84.1235 40.2725 85.2831 39.7935 86.4458C39.4743 87.2155 39.0531 88.3307 38.6244 89H38.231C38.2358 88.8397 38.2443 88.796 38.1532 88.6702C37.8116 88.5159 28.8612 88.5394 28.1201 88.6317C27.9571 88.7545 27.992 88.771 27.9159 89H27.6813L19.5086 69.4497C18.8947 67.9772 18.2903 66.5006 17.6956 65.0199C17.5743 64.7108 17.4275 64.3302 17.3498 63.9941C17.3385 63.945 17.0829 63.9234 17 63.9109V63.4346C18.9537 63.4063 20.9076 63.3963 22.8615 63.4047C23.6644 63.404 25.4142 63.3387 26.0986 63.4951C26.5538 64.9104 27.4193 66.8693 27.9987 68.2929L31.1794 76.1523C31.6548 77.3196 32.7534 79.7471 32.9303 80.8278L33.5512 80.8704C33.6338 79.8896 34.7213 77.5826 35.1457 76.5666L38.7567 67.7358C39.1923 66.6579 40.0666 64.7635 40.3329 63.7368L40.8438 63.2417Z" fill="white"/>
<path d="M105.488 59H113.69C113.683 59.8316 113.673 60.6689 113.668 61.5004C113.667 61.8067 113.53 62.9754 113.682 63.145C114.307 63.3565 116.683 63.2836 117.504 63.2828L126.414 63.2811C127.626 63.2814 129.927 63.2069 131 63.3414V63.7482C130.745 63.8536 130.731 63.8191 130.611 64.0906C130.413 64.544 130.156 65.3039 129.913 65.7095C129.567 66.6241 128.363 69.5443 127.881 70.2775L113.769 70.2698C113.587 70.9136 113.644 73.5793 113.677 74.404C113.811 77.7221 112.683 81.4729 117.27 81.6458C117.997 81.6732 122.591 81.582 122.861 81.7474C122.934 81.9386 122.802 82.1923 122.714 82.3964L121.106 86.0737C120.744 86.9013 120.273 88.047 119.831 88.8181C119.702 88.814 119.259 88.542 118.84 88.5519C116.568 88.6053 114.267 88.5115 111.999 88.5493C110.883 88.5608 108.878 87.5073 108.097 86.6967C104.985 83.4672 105.528 78.5774 105.487 74.4299C105.474 73.0525 105.506 71.6748 105.48 70.298C104.722 70.2363 100.272 70.3738 100 70.1594C99.9973 70.1467 99.9706 70.0168 99.9706 70.0168C100.561 68.649 101.133 67.2709 101.703 65.894C102.019 65.1338 102.378 64.3468 102.616 63.5607C103.499 63.0577 104.745 63.5468 105.377 63.2703C105.581 62.9026 105.491 59.6238 105.488 59Z" fill="white"/>
<path d="M54.8649 88.8438C54.6484 88.2261 54.743 85.4775 54.7434 84.591L54.7451 75.4697C54.7448 73.799 54.7738 72.1198 54.6916 70.4517C54.6787 70.1909 54.6336 70.0142 54.5714 69.7661C54.2267 68.391 52.1928 64.7343 52.1008 63.4643C52.236 63.281 53.6403 63.3428 53.9558 63.343L56.9594 63.3465L60.8199 63.3387C61.2205 63.337 63.3176 63.1368 63.3381 63.7048C63.3492 64.0148 63.2843 64.861 63.279 65.235C63.2667 66.5351 63.2623 67.8352 63.266 69.1353L63.2606 83.138C63.2632 84.1769 63.26 85.2158 63.251 86.2547C63.2477 86.8333 63.2162 87.7958 63.3097 88.342L62.9532 89H62.7518C62.7348 88.9094 62.708 88.8091 62.6858 88.7187C62.3561 88.3986 56.513 88.6378 55.7572 88.5604C55.4533 88.5292 55.0602 88.8512 54.8649 88.8438Z" fill="white"/>
<path d="M76.609 88.5896C76.7888 88.5322 78.6413 88.5524 78.9875 88.5522L85.2391 88.5568L89.1128 88.5521C89.8709 88.5465 90.8178 88.5089 91.5615 88.5508L90.9514 88.618C90.83 88.8322 90.9647 88.7572 90.7499 89H67.3117L67.3032 88.9597C68.1346 88.7726 69.1248 88.8873 70.0129 88.8822L74.8606 88.8391C75.2708 88.8368 76.1475 88.9332 76.5349 88.8137L76.609 88.5896Z" fill="white"/>
<path d="M27.9159 89C27.992 88.771 27.9571 88.7545 28.1201 88.6317C28.8612 88.5394 37.8116 88.5159 38.1532 88.6702C38.2443 88.796 38.2358 88.8397 38.231 89H27.9159Z" fill="white"/>
<path d="M54.8649 88.8438C55.0602 88.8512 55.4533 88.5292 55.7572 88.5604C56.513 88.6378 62.3561 88.3986 62.6858 88.7187C62.708 88.8091 62.7348 88.9094 62.7518 89L54.9146 89L54.8649 88.8438Z" fill="white"/>
<path d="M111.999 88.5493C114.267 88.5115 116.568 88.6053 118.84 88.5519C119.259 88.542 119.702 88.814 119.831 88.8181L119.757 89H113.109C113.074 88.9374 113.036 88.7745 112.995 88.6773C112.797 88.5222 112.416 88.6243 111.999 88.5493Z" fill="white"/>
<path d="M67.3032 88.9597L67.3887 88.692C67.686 88.4698 75.7273 88.5611 76.609 88.5896L76.5349 88.8137C76.1475 88.9332 75.2708 88.8368 74.8606 88.8391L70.0129 88.8822C69.1248 88.8873 68.1346 88.7726 67.3032 88.9597Z" fill="white"/>
</svg>
