<svg width="148" height="148" viewBox="0 0 148 148" fill="none" xmlns="http://www.w3.org/2000/svg">
<path d="M49.0681 68.0938H62.1371V70.2579H51.7418V72.8511H61.1567V75.0194H51.7418V77.75H62.1371V79.9141H49.0681V68.0938Z" fill="white"/>
<path d="M63.6964 68.0938H76.7264V70.2579H66.3623V72.8511H75.7814V75.0194H66.3623V77.75H76.7264V79.9141H63.6964V68.0938Z" fill="white"/>
<path d="M34.3884 68.1328H37.0586V72.9337H40.9849C41.2568 72.6674 41.9936 71.7141 42.2621 71.3838L44.9113 68.1328H48.2485C46.6109 70.0015 44.9592 72.0893 43.3512 74.0024C44.1689 75.0825 45.2007 76.216 46.059 77.2963C46.2927 77.4628 47.9388 79.5503 48.253 79.9141H44.9141C43.6912 78.4362 42.2148 76.4835 40.9647 75.0899H37.0586V79.9141H34.3884V68.1328Z" fill="white"/>
<path d="M77.602 68.0938H80.4791C80.8401 68.765 81.315 69.908 81.6419 70.6308L83.8183 75.443C84.1321 76.1386 84.6518 77.3865 85.0062 77.9843C85.3781 77.3305 85.9191 76.041 86.2456 75.3188L88.2954 70.7863C88.6824 69.9279 89.1038 68.9225 89.5277 68.0938H92.4261C92.2163 68.5492 92.0103 69.0062 91.8071 69.4647L88.6105 76.5011C88.1366 77.5462 87.5625 78.912 87.0437 79.9141H82.9432C81.4577 76.5402 79.87 73.1974 78.3688 69.8293C78.1109 69.2497 77.8316 68.6868 77.602 68.0938Z" fill="white"/>
<path d="M29.774 68.0938H32.4361V79.9141H29.774V68.0938Z" fill="white"/>
<path d="M115.594 68.0938H118.921C119.448 68.8012 122.14 72.2021 122.675 72.5414C123.203 72.8827 123.847 73.0009 124.463 72.8698C125.628 72.6136 126.978 70.2889 127.827 69.427C128.052 69.1974 128.699 68.374 128.88 68.0938H132.257C131.025 69.5059 129.86 70.9981 128.646 72.4279C128.477 72.6266 128.422 72.6459 128.563 72.8643C128.951 73.0018 133.287 72.9227 134 72.9219C133.5 73.5883 132.759 74.4208 132.211 75.0781C131.679 75.0768 128.87 75.0386 128.573 75.1265C128.461 75.2586 128.47 75.2114 128.455 75.3627C129.708 76.8046 130.975 78.3887 132.207 79.8617C132.093 79.9534 129.292 79.9148 128.911 79.9141C128.155 78.9976 125.832 75.9095 125.068 75.4025C124.602 75.0936 123.999 75.0168 123.456 75.1263C123.109 75.1964 122.792 75.3422 122.522 75.5705C121.855 76.1342 121.091 77.2475 120.519 77.9472C119.994 78.5886 119.379 79.229 118.921 79.9141H115.578L118.133 76.8426C118.493 76.4102 118.99 75.8651 119.296 75.3921C119.35 75.3086 119.307 75.2228 119.274 75.1446C118.929 75.0073 114.485 75.0768 113.793 75.0777C114.22 74.61 115.233 73.4201 115.581 72.9219C116.518 72.9202 118.209 72.9657 119.176 72.8802C119.249 72.8739 119.275 72.782 119.302 72.7191C119.311 72.4398 116.028 68.6902 115.594 68.0938Z" fill="white"/>
<path d="M98.2753 68H102.191C102.601 68.0668 103.1 68.0951 103.515 68.1517C107.39 68.6789 108.965 71.5918 108.428 75.2821C108.028 78.0313 106.11 79.5123 103.385 79.8836C103.201 79.906 102.642 79.9566 102.475 80H97.9904C97.8344 79.9588 97.2627 79.9082 97.0874 79.8869C94.3662 79.5167 92.4435 78.0417 92.0377 75.2944C91.4914 71.6018 93.0734 68.6767 96.9527 68.151C97.3681 68.0947 97.8666 68.0667 98.2753 68ZM104.744 76.9481C105.279 76.3872 105.579 75.8494 105.697 75.0781H94.7655C95.4714 78.6412 99.4051 77.7229 102.115 77.8127C103 77.842 104.033 77.4513 104.744 76.9481ZM94.7607 72.9219H105.7C105.085 69.9548 102.461 70.1754 100.022 70.1766C99.4225 70.1769 98.6372 70.1433 98.0499 70.2221C96.3328 70.4122 95.0622 71.1091 94.7607 72.9219Z" fill="white"/>
<path d="M14 68.1328L22.4739 68.0965C25.0361 68.0934 27.8447 67.9278 27.9361 71.3471C27.9563 72.1015 27.7012 72.95 27.1605 73.4898C27.0593 73.5912 26.9506 73.685 26.8353 73.7703C27.5435 74.204 27.9527 74.6267 28.1456 75.468C28.3396 76.3145 28.3168 77.1935 27.993 78.0102C27.1343 80.1766 24.5492 79.881 22.641 79.9073C22.068 79.9152 21.4989 79.9077 20.9294 79.9078L14 79.9141V68.1328ZM16.6814 77.773L21.925 77.7759C22.7642 77.7759 23.7107 77.8052 24.5416 77.7231C24.7607 77.7014 25.0502 77.514 25.2198 77.3722C25.8807 76.6292 25.6021 75.0442 24.332 75.0024C23.4217 74.9725 22.5542 74.9577 21.6434 74.9579L16.6814 74.9614V77.773ZM16.6814 72.8511L21.5688 72.8551C22.3903 72.8554 23.3254 72.8897 24.1331 72.8041C24.4449 72.7711 24.6523 72.645 24.9084 72.478C25.5227 71.5425 25.2598 70.2975 23.9701 70.2489C23.1266 70.2171 22.2982 70.2242 21.4529 70.2244L16.6814 70.227V72.8511Z" fill="white"/>
</svg>
