<svg width="148" height="148" viewBox="0 0 148 148" fill="none" xmlns="http://www.w3.org/2000/svg">
<path d="M78.1522 20.0189C78.6741 19.996 79.1968 19.9939 79.7189 20.0126C80.9077 20.0503 82.1518 20.1947 83.333 20.287C94.5114 21.1611 105.123 25.0436 112.855 33.3856C119.143 40.169 122.312 48.8798 122.634 58.0612C122.671 59.0983 122.763 59.9262 122.722 60.9915C122.411 69.1543 120.368 77.89 115.53 84.6137C115.002 85.3474 113.846 86.8465 113.203 87.4445C113.411 86.5961 113.935 85.6289 114.253 84.7843C118.6 73.2297 119.945 58.3828 112.967 47.3875C109.458 41.4908 104.648 36.4637 98.8987 32.6857C94.5567 29.8633 89.7521 27.8166 84.7014 26.6378C70.9414 23.2859 58.7499 26.0076 46.8853 33.4996C45.163 34.5981 43.4811 35.7581 41.843 36.9772C41.1492 37.5041 40.4633 38.04 39.7824 38.582C39.4315 38.8613 38.723 39.6736 38.3288 39.754L38.2702 39.6545C38.3288 39.1129 40.862 36.2579 41.3865 35.6851C51.1919 24.9765 63.9019 20.6877 78.1522 20.0189Z" fill="white"/>
<path d="M34.4475 46.6403L34.5705 46.766C34.5009 47.0167 34.3654 47.25 34.2653 47.491C30.031 57.6877 28.2893 70.5079 32.2892 80.9861C36.0665 90.8807 45.1938 100.091 54.8496 104.326C58.6166 106.006 62.587 107.193 66.6613 107.859C69.6142 108.371 73.3849 108.731 76.3814 108.615C84.6041 108.298 93.1924 105.125 100.153 100.812C101.914 99.7201 103.635 98.5642 105.312 97.3483C105.888 96.9273 109.395 94.0991 109.589 94.0241L109.647 94.095C109.408 94.9056 106.22 98.4864 105.515 99.1892C105.144 99.5624 104.77 99.9329 104.392 100.3C94.7337 109.649 81.1735 113.938 67.8754 113.65C56.0754 113.395 44.3903 109.852 35.9122 101.34C28.3479 93.7457 24.9658 83.3078 25.2202 72.759C25.4141 64.8123 27.6485 55.6296 32.4103 49.143C32.941 48.4202 33.8102 47.251 34.4475 46.6403Z" fill="white"/>
<path d="M101.122 54.3327C106.664 53.4812 110.883 59.4773 106.956 63.9296C105.842 65.1917 104.714 65.8721 103.296 66.7106C104.837 68.7491 106.617 70.8008 108.192 72.8884C108.327 72.4507 108.572 71.9512 108.722 71.4989C108.988 70.7021 109.246 69.8823 109.466 69.073C110.596 69.3169 111.921 69.6605 113.045 69.8054C112.45 71.7231 112.046 73.3793 110.905 75.0784C110.795 75.2414 110.552 75.6633 110.656 75.8054C111.501 76.955 113.755 79.1869 114.892 79.8114C114.495 80.2724 112.837 82.316 112.457 82.4075C112.05 82.2553 111.436 81.7333 111.083 81.4498C110.022 80.3889 109.324 79.9799 108.374 78.622C107.533 79.73 105.871 80.8866 104.637 81.4637C102.353 82.5323 99.3894 82.6227 97.0252 81.7428C95.0069 80.978 93.3735 79.4515 92.4814 77.4954C90.1577 72.2637 93.8045 68.2708 98.3964 66.289C97.2016 65.4329 95.5126 62.656 95.3253 61.2201C94.8223 57.3725 97.5056 54.955 101.122 54.3327ZM106.272 76.0714C105.722 75.4318 100.08 68.507 100.024 68.4845L99.9679 68.5309C98.3902 69.8167 96.5228 70.514 95.77 72.729C95.1455 74.5644 95.7782 76.3448 96.96 77.8098C98.2228 79.3224 99.8897 79.483 101.719 79.2628C104.052 78.3656 104.65 77.8561 106.272 76.0714ZM102.075 64.1899C103.349 63.3174 104.556 62.5495 104.891 60.9255C105.236 59.2533 104.298 57.4364 102.518 57.1269C102.183 57.069 101.839 57.0712 101.504 57.1334C101.14 57.1687 100.903 57.1983 100.566 57.3414C99.3716 57.8497 98.6105 59.0503 98.7738 60.3545C98.979 61.9866 100.487 63.2027 101.438 64.4426C101.464 64.4767 101.53 64.4958 101.57 64.5101C101.824 64.402 101.856 64.3659 102.075 64.1899Z" fill="white"/>
<path d="M49.5328 55.9593C52.8107 55.6022 55.76 57.9525 56.123 61.2111C56.4861 64.4696 54.1256 67.4047 50.8485 67.7695C47.566 68.1349 44.6079 65.7833 44.2442 62.5192C43.8806 59.2552 46.2494 56.3169 49.5328 55.9593ZM50.4838 65.706C53.0303 65.466 53.685 63.1252 53.4155 60.9363C53.1755 58.9861 51.7817 57.857 49.8243 58.0181C47.1018 58.5576 46.6076 60.5888 47.0147 63.1548C47.2896 64.8881 48.7789 65.7362 50.4838 65.706Z" fill="white"/>
<path d="M32.7081 56.2432C34.3716 56.1602 37.9815 56.1272 39.5724 56.3641C42.3078 56.7715 43.3824 59.7275 40.6119 61.5279C42.7354 62.2896 43.3602 63.8121 42.3739 65.8107C41.176 67.9063 38.0623 67.4944 36.0095 67.5432C34.9222 67.569 33.7978 67.5456 32.707 67.5462C32.5064 65.405 32.7052 62.532 32.6327 60.3126C32.6128 59.7038 32.62 56.6583 32.7081 56.2432ZM39.6898 65.2626C40.0254 64.9443 40.2225 64.7179 40.2229 64.217C40.2252 61.975 36.7484 62.7236 35.2038 62.5962C35.0267 63.0396 35.2796 64.7284 35.1395 65.4436C35.3586 65.7239 39.1012 65.5843 39.6898 65.2626ZM39.2499 60.4374C39.5623 60.1661 39.5709 60.1195 39.7591 59.7691L39.8887 59.5286C39.5554 58.3987 39.1784 58.1603 37.9449 58.1495C37.0305 58.1414 36.116 58.2291 35.2014 58.1517C35.1173 58.4364 35.1488 60.3029 35.1923 60.6425C35.7747 60.8035 38.5664 60.7712 39.2499 60.4374Z" fill="white"/>
<path d="M59.7657 78.2183C59.849 77.2744 61.1582 71.0124 61.5881 70.3571C61.9009 70.1606 63.4967 70.233 64.0937 70.172C63.8513 70.7948 63.2795 73.0838 63.1394 73.769L61.8977 78.5167C61.7256 79.1806 61.3331 80.858 61.0701 81.3587C60.7681 81.5989 58.5567 81.5684 58.5043 81.4099C57.6155 78.723 56.767 75.8101 56.091 73.0494C55.552 75.4783 54.4666 79.0583 53.7259 81.4865C53.3858 81.5281 51.1071 81.6327 51.0225 81.3308C50.0256 77.7721 49.1591 74.1619 48.236 70.5809C48.1996 70.4398 48.1994 70.3241 48.2149 70.1825C48.7865 70.2939 50.2047 70.058 50.6046 70.3495C50.9778 70.6215 52.2755 76.9725 52.4851 77.8878C52.7211 77.28 52.6339 77.0442 53.0036 76.0086C53.4973 74.6259 54.0254 71.503 54.8056 70.2639C54.8507 70.1924 57.4296 70.1887 57.4984 70.3377C58.5836 72.6885 58.8871 75.6993 59.7375 78.1387L59.7657 78.2183Z" fill="white"/>
<path d="M70.2354 56.2239C72.287 56.2342 77.2415 55.9067 78.8125 56.9628C79.4318 57.3792 79.8176 58.0279 79.9451 58.7552C80.0946 59.6083 79.9607 60.44 79.4488 61.152C78.9067 61.906 78.0054 62.3832 77.0965 62.5224L76.9883 62.5386C77.2047 62.7856 77.9258 63.2357 78.1909 63.5343C79.1747 64.6425 80.2028 66.2054 80.8932 67.4922C80.1641 67.5587 79.4498 67.5431 78.7181 67.5408L78.086 67.5079C76.8356 66.0862 75.9262 64.2814 74.5266 62.9975C73.923 62.8373 73.1562 62.8374 72.5251 62.8204C72.6339 64.324 72.6154 66.0017 72.6218 67.5154C71.8253 67.574 70.9138 67.5476 70.1058 67.5414C70.0095 66.0835 70.0348 64.0356 70.0381 62.5777C70.04 61.7144 69.9325 56.689 70.2354 56.2239ZM72.4918 61.0025C73.6254 60.9533 76.174 61.1713 76.9727 60.6236C77.5065 60.0156 77.6771 59.025 77.0009 58.5742C75.9743 57.8901 73.7543 58.3022 72.5273 58.1904C72.5796 59.069 72.682 60.1489 72.4918 61.0025Z" fill="white"/>
<path d="M69.9771 70.1211C70.9453 70.4373 74.1893 70.2008 75.3927 70.2611C77.1293 70.3479 79.2762 70.4382 79.7202 72.5638C80.218 74.9471 78.8322 76.1284 76.6527 76.5434C78.6874 77.6065 79.5218 79.7701 80.8226 81.528C80.1748 81.5019 79.4269 81.5176 78.7715 81.5172C78.7057 81.5176 78.6397 81.5176 78.5738 81.5172C78.1534 81.514 77.9669 81.5163 77.6644 81.1919C76.607 80.0582 75.8965 78.5744 74.8282 77.4426C74.1416 76.7151 73.2995 76.8195 72.3416 76.8344C72.4242 77.4292 72.4748 80.8812 72.3354 81.3906C71.9909 81.6033 70.4688 81.5228 69.95 81.523C69.7975 80.4274 69.8094 70.5327 69.9771 70.1211ZM72.3521 74.9538C73.4362 74.9675 75.9783 75.2163 76.8153 74.6195C77.0573 74.2416 77.1663 74.0521 77.3531 73.6466C77.1903 73.1234 77.0744 72.659 76.5295 72.3948C75.7473 72.0155 73.2657 72.1628 72.3598 72.2098C72.4419 73.036 72.3784 74.1043 72.3521 74.9538Z" fill="white"/>
<path d="M61.5238 56.2225C62.2366 56.2183 63.2614 56.1913 63.9385 56.2972C64.4854 57.153 65.8162 60.3907 66.2893 61.5327C66.9705 63.1769 68.2976 65.9135 68.7923 67.5147C68.0332 67.5753 66.9721 67.5547 66.2054 67.5583C65.8552 66.8682 65.3024 65.62 65.1156 64.8947C64.7369 64.9511 64.469 64.9437 64.0872 64.9427C63.1895 64.9402 61.1084 64.9951 60.3564 64.8887C59.0997 67.598 60.1064 67.6425 56.7115 67.5285C56.8131 67.0905 56.9811 66.7061 57.1547 66.2935C58.4961 63.1058 59.8083 59.9043 61.1728 56.7267C61.2457 56.557 61.4048 56.3623 61.5238 56.2225ZM60.9796 63.0645C61.604 62.9956 62.1644 63.0014 62.7908 62.9975C63.3056 63.0139 63.8583 63.0418 64.3703 63.0342C64.0487 62.4522 62.8307 59.2053 62.6284 59.0574C62.266 60.0001 61.4339 62.2778 60.9796 63.0645Z" fill="white"/>
<path d="M82.0563 70.1871C82.8302 70.2864 83.8456 70.2416 84.6408 70.2654C86.7544 70.3286 89.0301 70.1845 91.1198 70.2502C91.1445 70.9604 91.1548 71.4607 91.1102 72.1686C90.7327 72.2076 90.356 72.2105 89.9772 72.2018C88.1585 72.1605 86.3358 72.2374 84.5178 72.1664C84.604 72.8841 84.6331 73.9692 84.4547 74.6552C86.1786 74.5282 88.7549 74.638 90.6456 74.5764C90.6257 75.2312 90.6305 75.9194 90.6257 76.5771C89.0342 76.6413 87.1806 76.5522 85.5128 76.5884C85.2456 76.5951 84.7985 76.558 84.5201 76.5427C84.6065 77.2684 84.6401 78.8819 84.4544 79.5724C86.602 79.4047 89.0507 79.7139 91.301 79.4587C91.2982 80.1491 91.3051 80.8394 91.3223 81.5296C88.5058 81.454 84.8643 81.4433 82.0438 81.5457C82.0119 79.0291 81.9996 76.5123 82.0069 73.9955C82.0046 73.1909 81.9526 70.8298 82.0563 70.1871Z" fill="white"/>
<path d="M81.5677 56.2348C82.542 56.2705 83.7225 56.2366 84.7103 56.2368L91.0285 56.229C91.0292 56.8645 91.0237 57.5001 91.0121 58.1354C90.3079 58.2583 88.092 58.2588 87.37 58.1631C87.4874 58.8162 87.4572 59.9377 87.4572 60.635L87.4565 64.2961L87.4626 67.522C86.6508 67.5573 85.8162 67.5415 85.0017 67.5364C84.812 64.7389 84.9652 61.0627 84.9418 58.1904C84.0665 58.2567 82.3403 58.2402 81.4608 58.1908C81.3975 57.7266 81.3611 56.6478 81.5677 56.2348Z" fill="white"/>
<path d="M65.2861 70.1952C65.9066 70.287 67.0299 70.2087 67.6809 70.1772C67.6266 73.9143 67.696 77.6621 67.6749 81.3999C67.6494 81.4428 67.6238 81.4856 67.5983 81.5284C66.7934 81.5286 65.9791 81.512 65.1735 81.5018C65.1215 80.1957 64.968 70.7989 65.2861 70.1952Z" fill="white"/>
<path d="M119.755 20.172C121.209 20.0681 122.474 21.1523 122.583 22.597C122.693 24.0417 121.608 25.3029 120.155 25.4177C118.694 25.5331 117.418 24.4465 117.307 22.9941C117.197 21.5417 118.294 20.2765 119.755 20.172ZM120.318 24.7857C121.421 24.5821 122.152 23.5306 121.953 22.4326C121.754 21.3347 120.7 20.6029 119.595 20.7951C118.481 20.9886 117.738 22.0458 117.939 23.1519C118.139 24.258 119.206 24.9909 120.318 24.7857Z" fill="white"/>
<path d="M119.18 21.4971C120.219 21.4451 121.853 21.4398 120.773 22.739C120.612 22.933 121.106 23.5372 121.19 23.9125C121.135 24.1422 121.197 24.0534 120.994 24.1844C120.741 24.1992 120.838 24.2135 120.593 24.0439C120.411 23.6383 120.292 23.3096 119.89 23.0831C119.461 23.1857 119.712 23.8977 119.291 24.2572L119.167 24.2168C118.952 23.792 118.916 21.862 119.18 21.4971Z" fill="white"/>
<path d="M103.024 120.514C106.381 120.145 106.86 125.35 103.731 126.01C103.178 126.019 102.712 126.023 102.226 125.733C100.61 124.767 100.5 121.981 102.046 120.9C102.382 120.666 102.64 120.606 103.024 120.514ZM103.635 125.548C105.908 124.87 105.632 121.022 103.292 120.98C101.769 121.346 101.395 122.647 101.69 124.051C101.898 125.042 102.659 125.49 103.635 125.548Z" fill="white"/>
<path d="M122.043 120.507C125.543 120.379 125.714 125.366 122.741 126.008C119.78 126.145 119.085 122.536 121.072 120.886C121.304 120.693 121.742 120.585 122.043 120.507ZM122.68 125.531C124.646 124.872 124.64 121.833 123.048 121.127C122.787 121.011 122.501 120.959 122.215 120.975C121.608 121.18 121.12 121.409 120.867 122.032C120.243 123.567 120.697 125.565 122.68 125.531Z" fill="white"/>
<path d="M28.9682 120.506C31.0843 120.333 31.2957 121.659 31.6227 123.273C30.3825 123.385 28.9193 123.285 27.6289 123.331C27.8688 124.719 28.5429 125.935 30.2088 125.43C30.4775 125.225 30.9724 124.732 31.2832 124.983C31.2596 125.389 30.7143 125.771 30.3635 125.88C26.8804 126.958 25.6569 121.654 28.9682 120.506ZM27.5692 122.791C28.1901 122.782 28.8112 122.787 29.4318 122.806C29.8609 122.816 30.6162 122.911 30.9155 122.649C31.1365 122.105 30.3118 121.311 29.8511 121.087C29.6746 121.001 29.3893 120.98 29.1905 120.981C28.1036 121.351 27.988 121.819 27.5692 122.791Z" fill="white"/>
<path d="M32.658 120.475C33.3734 120.701 32.9354 120.836 33.2165 121.216C34.2638 120.447 34.9286 120.299 36.1401 120.828L36.4945 121.452C36.6039 121.334 36.7168 121.218 36.8328 121.105C37.2765 120.681 37.9271 120.499 38.5403 120.514C40.5778 120.555 40.0682 122.887 40.1076 124.225C40.1197 124.638 40.1644 125.452 39.8464 125.725C39.4956 125.31 39.5578 122.335 39.4045 121.697C39.3138 121.32 38.8683 121.139 38.5392 120.986C37.8664 121.032 37.7052 121.056 37.1407 121.427C36.9431 121.622 36.8207 121.83 36.6669 122.061C36.6601 122.788 36.6863 125.22 36.4963 125.793C36.3191 125.92 36.4107 125.903 36.2221 125.883C36.0439 125.628 36.0217 122.419 35.9982 121.921C35.9926 121.803 35.7831 121.378 35.7203 121.25C35.6095 121.203 35.4974 121.161 35.384 121.122C34.3313 120.759 33.4218 121.264 33.2564 122.374C33.1057 123.386 33.4074 124.889 33.0903 125.829L32.9639 125.88C32.5008 125.477 32.4164 120.993 32.658 120.475Z" fill="white"/>
<path d="M51.453 120.512C51.8574 120.463 52.3953 120.63 52.7864 120.736C53.0535 121.001 53.0989 121.129 53.2652 121.464C53.9816 120.752 54.5769 120.301 55.6549 120.57C56.0724 120.666 56.4907 120.954 56.6783 121.362C57.1301 122.346 56.9597 123.598 56.9478 124.653C56.9446 124.944 56.9347 125.428 56.8589 125.671C56.6985 125.845 56.7613 125.827 56.5671 125.87C56.3979 125.641 56.3091 124.272 56.2914 123.929C56.2415 122.962 56.5582 120.726 54.9214 121.005C54.1232 121.141 53.8458 121.462 53.4214 122.106L53.4094 124.211C53.3892 124.651 53.4786 125.76 53.0601 125.912C52.737 125.52 52.906 122.632 52.7703 122C52.7073 121.708 52.6217 121.516 52.5032 121.237C48.726 119.764 50.5328 125.142 49.7451 125.821L49.6427 125.81C49.3715 125.203 49.2258 121.298 49.4235 120.634C49.5828 120.518 49.4964 120.551 49.692 120.531C49.8668 120.675 49.8893 120.966 49.9396 121.203C50.1182 121.236 50.6238 120.766 50.8585 120.669C51.0701 120.581 51.2324 120.555 51.453 120.512Z" fill="white"/>
<path d="M97.3594 118.675L97.4075 118.675C98.1857 118.697 99.0346 118.806 99.5926 119.411C99.843 119.683 100.306 120.539 99.9439 120.845C99.5974 120.755 99.4752 120.435 99.3311 120.139C98.9674 119.388 98.3977 119.098 97.5701 119.189C97.1377 119.236 96.2868 119.412 96.0576 119.818C94.9444 121.788 98.2337 121.838 99.2384 122.584C100.014 123.158 100.06 123.353 100.238 124.157C99.8609 125.496 99.2975 125.851 97.9578 126.026C96.8976 125.992 95.7309 125.822 95.2134 124.749C95.0947 124.503 95.0069 124.171 95.0968 123.905L95.2121 123.855C95.9155 124.111 95.49 124.503 96.1564 125.015C96.6869 125.43 97.3711 125.57 98.0368 125.493C98.8507 125.441 99.7305 124.808 99.4876 123.895C99.001 122.071 95.538 122.882 95.232 120.767C95.1729 120.36 95.2244 119.906 95.4948 119.573C96.0013 118.953 96.5928 118.767 97.3594 118.675Z" fill="white"/>
<path d="M63.1554 118.675C64.4882 118.595 65.6483 119.122 65.9816 120.472C66.0407 120.711 66.0582 120.763 65.9466 120.966C65.5481 120.996 65.0722 119.74 64.5409 119.453C62.7107 118.556 61.4629 119.882 61.359 121.715C61.2501 123.637 61.5303 125.976 64.2098 125.437C65.3477 124.953 64.9692 124.367 65.7598 123.682C65.8295 123.622 65.851 123.652 65.9465 123.684C66.3818 124.562 64.9374 125.954 64.0193 125.984C63.2304 126.01 62.5862 126.06 61.9059 125.544C60.3926 124.397 60.3385 121.145 61.3426 119.678C61.7732 119.063 62.4288 118.785 63.1554 118.675Z" fill="white"/>
<path d="M81.799 120.48C82.236 120.626 82.1957 120.805 82.2821 121.223C82.4139 121.258 86.0593 118.392 85.8123 123.628C85.7869 124.165 85.9524 125.638 85.5274 125.965L85.4274 125.913C85.1021 125.296 85.1588 123.329 85.1537 122.524C85.1466 122.105 85.0759 121.303 84.6135 121.148C83.0387 120.628 82.2312 121.729 82.2527 123.189C82.2675 124.191 82.2956 125.16 81.9492 126.109C81.8375 125.137 81.4276 121.115 81.799 120.48Z" fill="white"/>
<path d="M109.56 120.73C110.069 121.225 109.721 123.473 109.845 124.281C110.121 126.067 111.862 125.804 112.713 124.483C112.658 123.83 112.767 121.491 112.989 120.916L113.059 120.936C113.186 121.272 113.204 121.794 113.235 122.166C113.266 123.244 113.341 124.55 113.293 125.628C113.284 125.824 113.156 125.932 113.006 126.023C112.685 125.822 112.84 125.716 112.553 125.443C111.338 126.246 109.797 126.497 109.311 124.667C109.112 123.92 109.178 121.337 109.56 120.73Z" fill="white"/>
<path d="M47.5849 120.717L47.7046 120.775C47.8881 121.143 47.9688 125.269 47.8701 125.787C47.7214 125.978 47.8131 125.92 47.6006 125.988C47.3907 125.874 47.3182 125.249 47.0931 125.465C46.429 126.105 44.9772 126.275 44.3258 125.563C43.6548 124.829 43.8409 123.273 43.8771 122.352C43.9165 122.1 44.0386 121.205 44.2155 121.071C44.5953 121.803 44.2209 123.903 44.7315 125.196C45.2286 125.47 45.9981 125.678 46.5275 125.368C47.4595 124.824 47.2728 123.69 47.3399 122.789C47.3889 122.131 47.4115 121.355 47.5849 120.717Z" fill="white"/>
<path d="M68.2165 125.882C67.7637 125.49 67.4713 125.018 67.3985 124.429C67.312 123.731 67.3481 121.173 67.7131 120.656L67.8016 120.671C68.1744 121.857 67.5828 123.696 68.3003 125.2C69.4428 125.882 70.3798 125.422 70.891 124.292C70.9455 123.98 71.1224 122.32 71.2395 122.213L71.1774 122.219L71.2299 122.13L71.2493 122.183L71.2027 122.175L71.1935 122.222C71.3729 122.428 71.3432 125.187 71.3482 125.649L71.2408 125.787L71.1186 125.748L71.104 125.705C71.0382 125.513 71.0301 125.501 70.9127 125.339C70.6723 125.432 70.4897 125.589 70.2731 125.708C69.4845 126.142 69.0316 126.05 68.2165 125.882Z" fill="white"/>
<path d="M73.5847 119.288C73.7761 119.36 73.6924 119.306 73.8334 119.472C73.9253 119.794 73.8489 120.206 73.8111 120.55C74.2145 120.561 74.6751 120.52 74.9269 120.863L74.8756 120.984C74.5059 121.18 74.2715 121.108 73.8597 121.05C73.9021 122.355 73.8045 123.838 73.9958 125.131C74.0594 125.561 74.7868 125.506 75.1814 125.722C75.0674 125.849 74.9699 125.937 74.7919 125.957C74.4433 125.996 73.9868 126.001 73.7124 125.759C73.0291 125.156 73.2731 122.041 73.2285 121.053C72.9612 121.021 72.6972 121.03 72.5014 120.867L72.5165 120.763C72.7745 120.574 73.0179 120.57 73.3406 120.521C73.3679 120.116 73.3675 119.627 73.5847 119.288Z" fill="white"/>
<path d="M76.6072 120.405C76.7433 120.374 76.8093 120.35 76.9487 120.357L77.0386 120.44C77.4592 120.641 77.9685 120.672 78.501 120.898C77.9134 121.047 77.6981 121.111 77.0866 121.026C77.1203 121.751 76.9526 125 77.3705 125.362C77.629 125.586 78.2278 125.499 78.3683 125.752C78.1418 126.188 76.751 126.017 76.6073 125.129C76.3869 123.766 76.6402 122.39 76.4663 121.039C76.4171 120.954 76.3679 120.874 76.3163 120.79L76.5035 120.571L76.6072 120.405Z" fill="white"/>
<path d="M24.1373 120.462C24.6123 120.574 24.5647 120.697 24.6739 121.122C24.9802 121.109 25.7926 120.218 26.6361 120.626L26.6521 120.754C25.882 121.744 24.6568 120.246 24.71 123.364C24.705 123.914 24.7672 125.268 24.4313 125.674L24.3357 125.611C24.0725 124.901 23.8867 121.108 24.1373 120.462Z" fill="white"/>
<path d="M115.271 120.381C115.572 120.416 115.467 120.393 115.736 120.592C115.835 120.898 115.848 120.791 115.754 121.053C115.706 122.221 115.68 123.448 115.709 124.621C115.739 125.817 116.596 125.305 117.023 125.673L117.016 125.839C116.852 125.984 116.66 125.976 116.438 126.007C114.752 126.25 115.183 123.776 115.146 122.788C115.12 122.12 115.14 121.653 115.101 121.062C114.799 121.008 114.631 120.987 114.341 120.87L114.33 120.793C114.695 120.55 114.972 120.675 115.271 120.381Z" fill="white"/>
<path d="M107.4 118.68L107.557 118.8C107.791 119.623 107.666 124.307 107.644 125.432C107.637 125.746 107.549 125.79 107.357 125.95C106.83 125.057 106.999 119.721 107.4 118.68Z" fill="white"/>
<path d="M118.342 120.638C118.436 120.665 118.555 120.673 118.571 120.742C118.772 121.592 118.785 125.304 118.609 125.941C118.547 125.943 118.281 125.954 118.27 125.887C117.995 124.242 118.127 122.288 118.342 120.638Z" fill="white"/>
<path d="M42.0175 121.01C42.3964 121.313 42.2756 124.577 42.2134 125.228C42.1842 125.533 42.1195 125.714 41.8959 125.927C41.6407 124.713 41.5859 122.12 42.0175 121.01Z" fill="white"/>
<path d="M79.8692 120.963C80.219 121.326 80.04 124.596 80.0028 125.289C79.9898 125.531 79.8982 125.764 79.7163 125.933C79.5241 125.37 79.4921 121.41 79.8692 120.963Z" fill="white"/>
<path d="M70.891 124.292C70.7425 123.736 70.9035 121.242 71.1603 120.735L71.2794 120.669C71.5527 120.856 71.5862 125.395 71.3093 125.942L71.1957 126.014C70.9854 125.956 71.0749 126.007 70.9179 125.855C70.8359 125.624 70.8598 125.59 70.9127 125.339C71.0301 125.501 71.0382 125.513 71.104 125.705L71.1186 125.748L71.2408 125.787L71.3482 125.649C71.3432 125.187 71.3729 122.428 71.1935 122.222L71.2027 122.175L71.2493 122.183L71.2299 122.13L71.1774 122.219L71.2395 122.213C71.1224 122.32 70.9455 123.98 70.891 124.292Z" fill="white"/>
<path d="M115.736 120.592C116.06 120.616 116.397 120.61 116.671 120.777L116.701 120.884C116.347 121.128 116.149 121.014 115.754 121.053C115.848 120.791 115.835 120.898 115.736 120.592Z" fill="white"/>
<path d="M76.6072 120.405L76.6188 120.355C76.7047 119.981 76.6168 119.822 76.852 119.494L76.9568 119.459C77.1424 119.78 77.0955 120.096 77.0386 120.44L76.9487 120.357C76.8093 120.35 76.7433 120.374 76.6072 120.405Z" fill="white"/>
<path d="M115.463 119.181C115.535 119.506 115.699 120.262 115.736 120.592C115.467 120.393 115.572 120.416 115.271 120.381C115.195 120.001 115.354 119.557 115.463 119.181Z" fill="white"/>
<path d="M75.3332 120.828C75.7998 120.683 76.016 120.644 76.5035 120.571L76.3163 120.79C76.3679 120.874 76.4171 120.954 76.4663 121.039C75.9963 120.986 75.7784 120.968 75.3332 120.828Z" fill="white"/>
<path d="M90.6957 125.398C86.4597 128.334 85.5685 119.885 89.4851 120.569C89.8234 120.628 90.45 121.044 90.6902 121.021C90.7945 120.794 90.8034 120.705 91.0237 120.587L91.2324 120.578C91.4183 120.77 91.3408 122.984 91.325 123.428C91.2605 125.239 91.9337 127.09 89.9291 128H88.5092C88.1057 127.78 87.2581 127.438 87.4915 126.867C87.8634 126.811 88.2011 127.301 88.5003 127.39C90.1089 127.87 90.8 126.863 90.6957 125.398ZM89.2813 125.532C89.7342 125.457 90.2448 125.258 90.5481 124.877C90.7348 124.642 90.6895 124.142 90.6964 123.845C90.7293 122.426 91.0162 121.137 89.0953 120.982C87.5731 121.421 87.4647 122.927 87.7591 124.287C87.919 125.026 88.538 125.454 89.2813 125.532Z" fill="white"/>
<path d="M18 118.738C19.2669 118.712 21.3255 118.501 22.329 119.384C23.1641 120.117 23.0552 121.754 22.2469 122.458C21.471 123.134 19.8873 123.065 18.9334 122.998C18.8439 122.992 18.7545 122.984 18.6652 122.975C18.6904 123.706 18.8502 125.185 18.4254 125.786C18.3327 125.917 18.1573 125.93 18 125.954V118.738ZM18.6741 119.32C18.6832 120.144 18.7459 121.717 18.6054 122.462C19.3745 122.421 20.1065 122.501 20.8731 122.479C21.9067 122.238 22.5043 121.534 22.2116 120.443C22.1049 120.031 21.8323 119.681 21.4578 119.475C21.0534 119.251 20.5802 119.245 20.1286 119.296C19.6443 119.322 19.1591 119.329 18.6741 119.32Z" fill="white"/>
<path d="M126.58 122.108C126.586 122.771 126.68 125.385 126.364 125.789C125.985 125.445 125.757 120.894 126.124 120.597L126.431 120.645C126.557 120.83 126.493 120.982 126.508 121.267C127.148 121.253 127.314 119.959 129.454 120.799C129.678 121.04 129.829 121.317 130 121.598V125.925C129.75 125.927 129.815 125.959 129.616 125.853C129.201 125.135 129.515 122.974 129.36 122.087C129.04 120.274 127.316 120.95 126.58 122.108Z" fill="white"/>
</svg>
