<svg width="148" height="148" viewBox="0 0 148 148" fill="none" xmlns="http://www.w3.org/2000/svg">
<path d="M102.205 83.4337H98.2971C96.7606 83.4337 95.9667 83.1895 95.6441 82.6196C95.3419 82.0904 95.4955 81.3221 96.1306 80.2077L96.1767 80.1263H100.192L100.054 80.3655C99.9616 80.5334 99.9257 80.6657 99.9667 80.7369C100.008 80.8132 100.156 80.8539 100.366 80.8539H102.927C104.52 80.8539 105.467 80.284 106.297 78.8135L108.617 74.6615C109.037 73.9186 109.17 73.4912 109.042 73.2673C108.919 73.0485 108.494 72.9518 107.7 72.9518H105.969C104.346 72.9518 103.675 73.3487 102.84 74.8243C102.435 75.5468 102.302 75.9692 102.425 76.1829C102.548 76.3966 102.978 76.4984 103.777 76.4984H105.877L104.243 79.3631L104.161 79.3682C103.844 79.3987 103.48 79.4139 103.06 79.4139H101.201C99.516 79.4139 98.548 79.0883 98.1588 78.4014C97.7695 77.7145 97.9846 76.6968 98.84 75.1907L99.5826 73.8779C101.385 70.6926 103.516 70.0413 106.164 70.0413H108.228C109.877 70.0413 110.359 70.2448 110.584 71.2574L111.188 70.194H114.876L109.647 79.4089C108.52 81.3984 106.758 83.4337 102.205 83.4337ZM79.5058 80.2382H75.6492L77.3752 77.2005L77.4725 77.2056C77.58 77.2107 77.6927 77.2107 77.8105 77.2107H78.6607C80.9706 77.2107 81.4776 76.8902 82.1434 75.7148L82.8912 74.402C83.1933 73.8728 83.2804 73.5675 83.1933 73.4047C83.0243 73.1045 82.0871 73.0638 81.1959 73.0638H80.3457C78.6505 73.0638 77.7593 73.5268 77.0525 74.7683L73.9334 80.2382L73.8361 80.2332C72.7554 80.1772 72.0435 79.8515 71.7362 79.2664C71.3675 78.5795 71.5672 77.5516 72.3303 76.2083L73.6312 73.9186C75.0909 71.349 77.1703 70.0464 79.8131 70.0464H85.1037C86.379 70.0464 87.2036 70.3619 87.5621 70.9928C87.9513 71.6797 87.7567 72.7177 86.9885 74.0814L85.6876 76.3762C84.2228 78.9356 82.1434 80.2382 79.5058 80.2382ZM65.1601 80.0907H51.8438L53.8771 76.4984H65.4008C66.3739 76.4984 66.9373 76.2236 67.3009 75.5825C67.4802 75.267 67.5365 75.0329 67.4699 74.9108C67.388 74.7683 67.096 74.6971 66.6044 74.6971H54.9014L59.7362 66.164H71.6133C73.6056 66.164 74.6812 66.4897 75.0909 67.2224C75.4443 67.8432 75.2753 68.7438 74.5788 69.9752C73.3905 72.0664 72.3764 72.6821 71.2446 73.0281C71.6697 73.1604 71.9462 73.3792 72.0948 73.6794C72.3713 74.2493 72.1613 75.0889 71.4187 76.3966C69.5749 79.6531 67.219 80.0907 65.1601 80.0907ZM88.4123 80.0907H84.5045L90.1178 70.1889H93.8054L93.1601 71.3236C94.1946 70.4687 95.516 70.0413 97.0986 70.0413C98.3636 70.0413 99.1063 70.3059 99.4289 70.8656C99.7926 71.5118 99.5621 72.5244 98.6914 74.056C98.5839 74.2493 98.461 74.4529 98.3073 74.6971L98.128 74.9871H94.7068L94.8451 74.748C95.1114 74.2748 95.3982 73.6998 95.2548 73.4454C95.1575 73.2775 94.84 73.1859 94.3022 73.1859C93.4008 73.1859 92.1767 73.4505 91.4597 74.7225L88.4123 80.0907ZM128.387 80.0856H124.479L130.092 70.1838H133.995L128.387 80.0856ZM123.398 80.0856H119.49L122.748 74.3409C122.937 74.0051 122.983 73.7456 122.886 73.5777C122.778 73.3945 122.44 73.1757 121.396 73.1757H120.581C119.081 73.1757 117.851 73.8881 117.119 75.1805L114.338 80.0856H110.43L118.323 66.164H122.23L119.357 71.232C120.479 70.3873 121.754 70.0362 123.562 70.0362C124.776 70.0362 126.609 70.0362 127.224 71.1149C127.644 71.8629 127.429 72.9671 126.558 74.5037L123.398 80.0856ZM61.1396 71.5576H68.1152C68.8784 71.5576 69.3957 71.2574 69.7747 70.5858C69.9437 70.2805 70.0051 70.0464 69.9385 69.9294C69.8771 69.8123 69.662 69.7564 69.324 69.7564H62.1639L61.1396 71.5576Z" fill="white"/>
<path d="M45.4827 90.9949C48.5045 90.8779 50.9219 88.4202 50.9219 85.408C50.9219 84.2427 50.5583 83.1589 49.9385 82.2634L43.8438 71.8578C42.717 73.3233 39.0807 73.8474 39.5775 73.8219C40.4533 73.9033 42.4507 74.1679 42.799 75.2314C43.1268 76.2439 42.758 77.287 41.493 79.4496C38.3739 84.7821 32.5967 85.408 29.1088 85.408H17.5698L20.6172 80.2179H30.927C33.114 80.2179 34.2766 79.2867 34.8809 78.2487C35.1626 77.7602 35.1831 77.455 35.1626 77.2209C35.137 76.9461 34.8963 76.3661 33.5339 76.3762L22.7734 76.3711L25.8156 71.2014H36.0384C37.5851 71.2014 38.6197 70.6112 39.3931 69.2933C39.8745 68.4741 39.3316 68.0569 39.1268 67.9602C39.0038 67.9042 38.7222 67.7567 37.8259 67.7567H27.7977L30.8604 62.5462H38.3892C37.6773 61.3301 37.1396 60.3125 36.6223 59.4475C35.7977 58.0635 34.1793 57.0051 32.4379 57.0051C30.6761 57.0051 29.2215 57.9108 28.3816 59.4271L14.7017 82.8485C14.2561 83.6372 14 84.548 14 85.5148C14 88.5271 16.4584 90.9695 19.4955 91L45.4827 90.9949Z" fill="white"/>
</svg>
