<svg width="148" height="148" viewBox="0 0 148 148" fill="none" xmlns="http://www.w3.org/2000/svg">
<path d="M72.5889 44.0078C73.5242 44.013 74.4602 44.0104 75.3955 44C75.4267 44.9495 75.5549 47.8284 75.4609 48.6279C79.2894 48.9494 83.7687 52.7697 83.311 56.9908C83.2281 57.7584 82.6017 58.3721 81.9628 58.7807C82.1882 62.8348 81.2012 67.939 77.085 69.7897C76.5183 70.0443 75.9778 70.1983 75.413 70.4277C75.002 70.9986 74.8307 71.5065 74.6433 72.1701C74.5984 72.3911 74.5816 72.5993 74.4303 72.7637C73.4016 73.4059 73.2808 71.7181 73.0323 71.1578C72.9084 70.8789 72.7788 70.6734 72.6095 70.4201C67.7967 68.8532 66.3498 65.6058 66.1142 60.7697C66.082 60.1093 66.0479 59.4708 66.1168 58.8057C65.2221 58.2882 64.8215 57.6936 64.6942 56.6567C64.2378 52.9397 69.0525 48.918 72.5403 48.637C72.5 47.2223 72.5976 45.4864 72.5889 44.0078ZM73.9869 71.3692C74.4284 70.411 74.6445 69.8143 75.7299 69.4603C76.7848 69.1164 77.5788 68.6713 78.4095 67.9323C81.0007 65.6274 81.0281 62.2655 81.1526 59.0785C80.7354 59.1334 80.2827 59.1773 79.8723 59.249C75.4802 60.0159 71.2912 59.8412 66.8947 59.0624C66.6638 62.5226 67.5878 67.2307 71.099 68.979C72.6369 69.7447 73.4302 69.3972 73.9869 71.3692ZM68.1201 57.5257C68.2787 57.5887 68.3239 57.6081 68.4923 57.6327C68.1531 57.8439 67.8125 58.1139 67.4919 58.3554C68.6889 58.5486 69.1285 58.6567 70.3688 58.6709C70.7643 58.3615 70.9466 58.1583 71.2879 57.7876C71.1586 57.6949 70.9835 57.5927 70.9731 57.4377C71.1744 57.4394 71.2978 57.5722 71.4663 57.7015C71.973 57.2867 72.6506 56.4691 73.0927 55.9562C72.866 55.7391 72.7197 55.5645 72.5207 55.3267C72.7826 55.4738 73.0597 55.6553 73.3163 55.8157L73.6301 55.415L73.8649 55.5496L73.4041 56.0475C74.0859 56.5057 74.7797 57.2272 75.4783 57.5237L75.5767 57.7334L76.8571 58.5961C77.1977 58.769 77.3197 58.8615 77.6784 58.6817C78.0147 58.5303 78.6237 57.644 78.8971 57.307C78.2096 56.883 77.5639 56.3293 76.9586 55.7987L76.7549 55.732C76.6024 55.5318 75.9336 54.9542 75.7112 54.7542L75.8445 54.5538C76.1129 54.7886 76.6291 55.2953 76.9087 55.4375C77.0532 55.372 77.0078 55.3903 77.0943 55.2064C77.0183 55.107 76.6864 55.0823 76.5519 55.0139C76.4068 54.9405 76.3184 54.8516 76.1895 54.7627L76.1422 54.7292C76.4292 54.6749 77.113 54.5101 77.3615 54.6339L77.3895 54.7149L77.463 54.7375L77.6199 54.8177C77.4256 55.1278 77.2948 55.3327 77.1416 55.6693C77.6697 56.0573 78.5004 56.7346 79.0272 57.0306C79.0901 56.989 79.1001 56.9983 79.1275 56.9461L79.2757 57.0363C79.2103 57.3724 79.5335 57.4887 79.8056 57.6747C80.2708 58.043 80.457 58.12 80.9988 58.3135L81.5549 57.3097C81.6309 57.0872 81.6576 56.7646 81.6863 56.5234C81.4428 56.091 81.2965 55.9669 80.9122 55.6685L81.0112 55.5316C81.228 55.7105 81.5798 56.0436 81.8588 56.0521C81.9914 55.9479 82.0331 55.6954 81.992 55.5421L81.7959 55.7513C81.5617 55.813 81.4036 55.7141 81.2466 55.5491C81.3313 55.3356 81.827 55.4735 82.0562 55.2593C82.0568 54.3607 81.4658 52.6389 80.6544 52.2045L80.5753 52.1603C79.9763 51.0691 77.7363 49.9722 76.5662 49.6323C75.9572 49.4537 75.3264 49.3555 74.6912 49.3402L74.6987 44.8459L73.4508 44.8434C73.3449 46.0899 73.3212 48.0895 73.3991 49.3322C70.5776 49.6029 68.7977 50.7278 66.9276 52.7784C65.6952 54.1297 64.2996 57.9137 67.1214 58.195C67.4214 58.2249 67.8441 57.6275 68.1201 57.5257ZM74.5717 58.995C74.9341 58.9682 75.2965 58.9359 75.6577 58.8983L76.7057 58.8225C76.3962 58.607 75.7206 58.1056 75.4242 57.9366C75.1558 58.3717 74.9173 58.616 74.5717 58.995ZM81.4173 57.1318C81.0673 58.0081 80.6563 58.2556 79.9912 57.3689C80.2976 57.2766 81.0542 57.1894 81.4173 57.1318ZM78.1953 58.7475L79.4295 58.5412L80.3045 58.4084C79.8436 57.9691 79.5597 57.8232 79.0341 57.4729C78.7806 57.8965 78.4992 58.3565 78.1953 58.7475ZM75.1788 57.7049C74.6159 57.3721 73.83 56.6312 73.3256 56.1767C73.0248 56.6188 72.1345 57.483 71.726 57.8941L71.5421 58.0501C71.2526 58.376 71.0141 58.5656 70.6792 58.8439C71.2303 58.8044 72.2112 58.9265 72.5958 58.8311L72.7901 58.6857C73.0709 58.8308 73.4003 58.9851 73.7173 58.9963C73.7142 58.9889 73.0815 58.493 72.9601 58.3522C73.4632 58.293 73.9408 58.2174 74.4409 58.137L73.9875 59.0347C74.4994 58.5517 74.7647 58.2676 75.1788 57.7049ZM81.9871 56.6589C81.8843 56.9732 81.6109 57.6771 81.5954 57.9409L81.6446 58.0114L81.855 57.9208C82.3364 57.5084 82.8115 57.0075 81.9871 56.6589ZM76.9019 58.4115C76.7475 58.2421 76.7425 58.2936 76.7481 58.126C77.0875 57.9165 77.6348 57.9643 78.0602 57.8526C77.9462 58.1239 77.8453 58.4196 77.6498 58.6374C77.3646 58.6961 77.1485 58.5456 76.9019 58.4115ZM80.3655 53.6273L80.335 53.7037C80.127 54.0534 80.1326 54.1593 79.7197 54.1705C79.4576 54.0601 79.3536 53.9349 79.1493 53.7363C79.4644 53.6752 80.0684 53.5427 80.3655 53.6273Z" fill="white"/>
<path d="M80.3773 59.6746C80.5031 59.8767 80.4664 59.8167 80.4408 60.0941C80.0099 60.7127 75.8676 60.8146 75.0854 60.6783L75.0456 60.6707L75.0119 60.6111C75.2087 60.5021 76.3184 60.4028 76.6204 60.3609C77.8808 60.1791 79.1344 59.9501 80.3773 59.6746Z" fill="white"/>
<path d="M80.3144 60.7794L80.3804 60.8279C80.3891 61.0309 80.3985 61.092 80.3387 61.2944C79.688 61.7236 76.0855 61.8843 75.21 61.7276L75.1253 61.6714C75.1963 61.5974 76.0002 61.5259 76.1677 61.5046C77.5607 61.3285 78.9444 61.0865 80.3144 60.7794Z" fill="white"/>
<path d="M80.1967 61.8845L80.292 61.941C80.391 62.4777 79.6973 62.5614 79.2938 62.612C78.0969 62.7622 76.6516 62.9642 75.4703 62.8006L75.337 62.7754L75.3108 62.7127C75.5282 62.6181 77.1018 62.4482 77.4897 62.3855C78.3952 62.2338 79.2975 62.0668 80.1967 61.8845Z" fill="white"/>
<path d="M80.0784 62.806C80.132 62.8055 80.1394 62.8193 80.1949 62.8455C80.1556 63.0467 80.1544 63.1328 80.0068 63.2842C79.3648 63.6714 76.3962 63.7421 75.5942 63.6958L75.4902 63.6426L75.5138 63.5775C75.7866 63.4943 76.451 63.4573 76.7985 63.4011C77.897 63.2321 78.9905 63.0336 80.0784 62.806Z" fill="white"/>
<path d="M79.777 63.9143C79.909 63.893 79.843 63.8841 79.9744 63.9727C79.6761 64.6951 77.136 64.6658 76.4075 64.6041L76.1727 64.5367L76.2144 64.4737C77.6162 64.2955 78.3466 64.1929 79.777 63.9143Z" fill="white"/>
<path d="M79.6263 64.7908L79.6693 64.876C79.6406 64.9815 79.6419 65.0647 79.5559 65.114C78.9394 65.4665 76.9548 65.5847 76.3246 65.4767C76.2524 65.4671 76.2873 65.4753 76.2206 65.4174C76.2935 65.3731 79.2029 64.8907 79.6263 64.7908Z" fill="white"/>
<path d="M79.1431 65.8114C79.1686 65.8134 79.2178 65.8414 79.2446 65.8543C79.0409 66.5656 76.5251 66.5237 75.8819 66.5241L75.8015 66.5116L75.8009 66.4446C76.2281 66.3034 78.4712 65.9503 79.1431 65.8114Z" fill="white"/>
<path d="M78.3628 66.8532C78.4456 66.8321 78.5098 66.844 78.5957 66.8511L78.61 66.9353C78.2601 67.3852 76.7992 67.3412 76.2505 67.3387C76.1073 67.3198 76.1135 67.3246 75.9983 67.2415C76.0363 67.2072 78.0975 66.9048 78.3628 66.8532Z" fill="white"/>
<path d="M77.8136 67.6018L77.9294 67.5744L78.0153 67.6306C77.6224 68.0691 76.385 68.0594 75.8128 68.0485L75.639 67.9775C75.7368 67.9038 77.519 67.6502 77.8136 67.6018Z" fill="white"/>
<path d="M76.8944 68.4518L76.9168 68.5282C76.6634 68.8621 75.6857 68.8063 75.2859 68.803L75.2479 68.7363C75.3737 68.6675 76.5432 68.5295 76.8944 68.4518Z" fill="white"/>
<path d="M73.8256 45.0245C74.0473 45.0223 74.2566 44.9872 74.421 45.1101C74.4969 45.5197 74.4614 47.8041 74.4621 48.3871C74.0909 48.0838 73.8935 45.6446 73.8256 45.0245Z" fill="white"/>
<path d="M75.6758 56.6074L75.743 56.5991L75.7959 56.6653C75.715 57.0527 75.5861 57.2337 75.1807 57.2011C75.0001 57.0846 74.8208 57.0046 74.8201 56.7811C75.0094 56.6432 75.4242 56.6337 75.6758 56.6074Z" fill="white"/>
<path d="M78.9127 55.9299C79.1107 55.891 79.2259 55.8692 79.3828 55.9773C79.4277 56.3579 79.1854 56.5715 78.8404 56.6708C78.5926 56.5405 78.2513 56.2607 78.0203 56.0833C78.3074 56.0157 78.6194 55.9746 78.9127 55.9299Z" fill="white"/>
<path d="M76.8153 50.4647C76.7898 50.8741 76.7288 51.0412 76.6073 51.4233C76.9561 51.7938 77.331 52.2255 77.727 52.5466C77.75 52.5652 78.0994 52.4032 78.2899 52.4895L78.2924 52.6213C78.0564 52.8636 78.1361 52.6319 77.907 52.7319C78.0085 52.842 78.0957 52.9566 78.2283 53.0225C78.4544 52.5983 78.6673 51.8123 78.9345 51.2673C78.8386 52.0708 78.7159 52.5888 78.3697 53.3126C78.7688 53.5594 79.6257 54.3304 80.1039 54.6824C80.1899 54.3582 80.2671 54.0319 80.335 53.7037L80.3655 53.6273C80.4894 53.1271 80.3406 52.6494 80.5753 52.1603L80.6544 52.2045C80.688 53.1661 80.5068 53.9493 80.2397 54.8695C80.5012 55.0855 80.7578 55.3063 81.0112 55.5316L80.9122 55.6685L80.1376 55.066C79.853 55.9154 79.7147 56.2608 79.2757 57.0363L79.1275 56.9461C79.4382 56.3351 79.7396 55.6024 80.018 54.9682C79.3361 54.4846 78.9563 53.9766 78.3111 53.4763C78.1193 54.0115 77.9151 54.3395 77.6199 54.8177L77.463 54.7375C77.6691 54.2569 77.9375 53.7452 78.1586 53.2337C77.59 52.801 77.0713 52.1348 76.4629 51.6266C75.989 52.6367 75.7355 53.0398 75.0991 53.9348C75.3725 54.1408 75.5892 54.3298 75.8445 54.5538L75.7112 54.7542L74.9939 54.0645C74.6476 54.611 74.3276 55.0879 73.8649 55.5496L73.6301 55.415C75.2224 53.5145 75.7723 52.6813 76.8153 50.4647Z" fill="white"/>
<path d="M81.4173 57.1318C81.0673 58.0081 80.6563 58.2556 79.9912 57.3689C80.2976 57.2766 81.0542 57.1894 81.4173 57.1318Z" fill="white"/>
<path d="M76.9019 58.4115C76.7475 58.2421 76.7425 58.2936 76.7481 58.126C77.0875 57.9165 77.6348 57.9643 78.0602 57.8526C77.9462 58.1239 77.8453 58.4196 77.6498 58.6374C77.3646 58.6961 77.1485 58.5456 76.9019 58.4115Z" fill="white"/>
<path d="M70.4043 55.7568C69.85 56.7039 69.3633 57.0037 68.4923 57.6327C68.3239 57.6081 68.2787 57.5887 68.1201 57.5257C69.0281 57.0897 69.6452 56.4196 70.4043 55.7568Z" fill="white"/>
<path d="M81.4173 57.1318L81.5549 57.3097L80.9988 58.3135C80.457 58.12 80.2708 58.043 79.8056 57.6747C79.9271 57.5456 79.9539 57.5337 79.9912 57.3689C80.6563 58.2556 81.0673 58.0081 81.4173 57.1318Z" fill="white"/>
<path d="M75.4783 57.5237C75.5506 57.3745 76.5563 56.0315 76.7549 55.732L76.9586 55.7987C76.5376 56.474 75.9585 57.0911 75.5767 57.7334L75.4783 57.5237Z" fill="white"/>
<path d="M79.1493 53.7363C79.4644 53.6752 80.0684 53.5427 80.3655 53.6273L80.335 53.7037C80.127 54.0534 80.1326 54.1593 79.7197 54.1705C79.4576 54.0601 79.3536 53.9349 79.1493 53.7363Z" fill="white"/>
<path d="M71.5421 58.0501L71.726 57.8941C72.0856 58.1489 72.4557 58.4001 72.7901 58.6857L72.5958 58.8311C72.361 58.582 71.84 58.2517 71.5421 58.0501Z" fill="white"/>
<path d="M76.9019 58.4115C77.1485 58.5456 77.3646 58.6961 77.6498 58.6374L77.6784 58.6817C77.3197 58.8615 77.1977 58.769 76.8571 58.5961L76.9019 58.4115Z" fill="white"/>
<path d="M79.0104 76.8689C86.1319 75.8418 87.528 86.7473 80.6924 88.0176C77.5508 88.3176 75.1004 86.6908 74.6315 83.5626C74.1526 80.3705 75.6004 77.3847 79.0104 76.8689ZM80.4738 86.7467C82.8171 86.2284 83.6927 84.2992 83.5619 82.1324C83.4019 79.4759 81.9821 77.9956 79.2247 78.1601C76.3919 78.7355 75.7835 81.2485 76.2088 83.7536C76.565 85.8511 78.3485 86.9669 80.4738 86.7467Z" fill="white"/>
<path d="M14.0415 76.9972C16.0015 76.9157 18.3167 76.9328 20.2673 77.0937C21.837 77.2231 23.033 78.772 22.6574 80.2979C22.443 81.1689 22.0278 81.5861 21.2855 82.0833C21.4062 82.1318 21.5258 82.1828 21.6442 82.2364C23.3879 83.0313 23.5828 84.748 22.8341 86.3263C21.7109 88.023 20.2493 87.8667 18.444 87.8966C16.9661 87.9149 15.4881 87.9161 14.0102 87.9003L14.0065 80.0141C14.0062 79.5789 13.978 77.2901 14.0415 76.9972ZM16.2966 83.1491C16.2723 84.1007 16.2658 85.0527 16.277 86.0046C17.2942 86.0155 19.8081 86.2193 20.5244 85.5855C20.8393 85.2206 20.9647 84.9494 20.9209 84.464C20.749 82.5559 17.5909 83.3193 16.2966 83.1491ZM16.2741 81.2644C17.3661 81.2797 19.383 81.4766 20.1849 80.8899C20.5794 80.3589 20.7913 79.558 20.1074 79.1758C19.04 78.5793 17.4439 79.0497 16.303 78.867C16.2683 79.6877 16.2978 80.4654 16.2741 81.2644Z" fill="white"/>
<path d="M48.8931 76.9858L51.6826 76.9778C53.2885 76.9762 55.1118 76.8506 56.3915 77.9272C57.5012 78.8608 57.9618 80.186 58.0721 81.5789C58.2234 83.4907 58.0255 85.1028 56.7691 86.6008C55.4026 88.0061 53.6814 87.9157 51.8563 87.9123L48.8795 87.9023C48.8778 84.3593 48.7982 80.5029 48.8931 76.9858ZM51.161 86.003C52.5459 86.0211 54.1021 86.2473 55.1347 85.2946C56.0235 83.8543 56.22 80.2673 54.5894 79.2355C53.664 78.6499 52.1462 79.0673 51.1702 78.8646C51.1541 81.244 51.1511 83.6235 51.161 86.003Z" fill="white"/>
<path d="M25.6339 76.9972C27.3668 76.9103 30.488 76.8976 32.1681 77.1165C35.4341 77.542 35.7694 82.4337 31.8389 83.0888C33.4242 84.0177 34.5856 86.3177 35.5843 87.8897C34.9147 87.9085 34.2038 87.9046 33.5311 87.9107L32.8571 87.8946C32.0311 86.6419 31.1236 85.177 30.1715 84.0163C29.5855 83.3019 28.7975 83.3865 27.9172 83.3633C27.8466 84.6883 27.9002 86.5376 27.8897 87.9028C27.1495 87.9146 26.373 87.9023 25.6304 87.9004L25.6339 76.9972ZM27.8962 81.559C28.9355 81.5753 31.1674 81.7586 31.9272 81.2072C32.2551 80.8066 32.3754 80.5267 32.3176 80.004C32.1241 78.2541 29.1245 79.0821 27.9219 78.8815C27.8858 79.7853 27.928 80.6837 27.8962 81.559Z" fill="white"/>
<path d="M40.4328 76.991C41.2155 76.9729 41.9986 76.9754 42.7811 76.9987C44.341 80.4999 45.6829 84.3601 47.2184 87.8937C46.3896 87.9138 45.5606 87.9133 44.7318 87.8923C44.509 87.1592 44.0955 86.1781 43.8262 85.4158L42.8097 85.3989C41.7238 85.404 40.5451 85.4314 39.4665 85.3998C39.1347 86.1585 38.8088 87.1179 38.5334 87.9001C37.7744 87.9243 36.8937 87.9026 36.1253 87.9006C37.1854 85.0269 38.4009 82.1867 39.4855 79.3203C39.7602 78.5942 40.0818 77.6759 40.4328 76.991ZM40.1269 83.5247C40.6742 83.5135 41.2217 83.5115 41.7691 83.5188C42.1221 83.5183 42.7196 83.5028 43.0508 83.5353C42.8521 82.994 41.7969 79.9363 41.5224 79.7077C41.2484 80.5986 40.4998 82.6748 40.1269 83.5247Z" fill="white"/>
<path d="M112.905 76.9956C113.446 76.9703 113.976 76.9856 114.517 76.9965C116.065 80.4867 117.538 84.346 119.017 87.8904C118.428 87.9127 117.871 87.9027 117.284 87.8932C116.922 86.8073 116.427 85.7342 116.072 84.6331L114.828 84.6243C113.802 84.627 112.449 84.6676 111.449 84.6042C111.036 85.6852 110.646 86.8115 110.253 87.9022C109.731 87.9112 109.181 87.9008 108.656 87.8994L111.349 80.9534C111.784 79.8332 112.415 78.0432 112.905 76.9956ZM111.903 83.369L113.738 83.3674C114.314 83.3691 114.954 83.3567 115.525 83.3745C115.344 82.8404 113.779 78.5149 113.625 78.3601C113.319 79.8562 112.444 81.8995 111.903 83.369Z" fill="white"/>
<path d="M120.653 76.9974C121.172 76.9749 121.625 76.9854 122.146 76.9996C123.561 78.8533 124.912 81.1896 126.297 83.096C126.781 83.7624 127.4 84.8306 127.928 85.4115C127.867 82.6594 127.92 79.7653 127.91 76.9981C128.369 76.9737 128.875 76.9888 129.338 76.994C129.261 80.542 129.35 84.3167 129.331 87.8996C128.808 87.9149 128.315 87.9049 127.791 87.8937C125.903 85.07 123.997 82.2577 122.074 79.457C122.084 82.2717 122.077 85.0864 122.052 87.9009C121.575 87.9102 121.123 87.9015 120.646 87.8902C120.651 84.2836 120.6 80.5967 120.653 76.9974Z" fill="white"/>
<path d="M90.481 76.8698C93.0242 76.6093 95.0948 77.3096 95.469 80.1027C95.0014 80.1353 94.5113 80.1595 94.0504 80.2336C93.6955 78.7607 93.0454 78.131 91.3752 78.1421C90.5987 78.1473 89.7823 78.2329 89.2237 78.8249C88.69 79.3909 88.7635 80.4145 89.4965 80.8169C91.194 81.6818 93.3978 81.4946 94.9092 82.7783C96.0699 83.7637 96.0232 85.7602 94.9659 86.8209C93.9639 87.8256 93.0049 88.0207 91.6486 88.063C89.1558 87.9921 87.1893 87.1816 87.0106 84.3716L88.3818 84.2247C88.5312 84.9657 88.7554 85.6795 89.4155 86.1282C90.6516 86.9683 93.1624 87.0644 94.0915 85.7175C94.5243 85.0993 94.3581 84.1908 93.7086 83.772C91.9749 82.619 87.9434 83.0097 87.4639 80.4104C87.0822 78.342 88.6371 77.1649 90.481 76.8698Z" fill="white"/>
<path d="M102.259 76.8658C104.898 76.6139 106.487 77.5194 107.418 79.9943C106.872 80.1507 106.473 80.2272 105.911 80.3279C105.534 79.2297 104.99 78.4016 103.762 78.1748C101.542 77.7649 99.8399 78.9563 99.4968 81.1702C99.2832 82.5459 99.3399 84.3124 100.198 85.486C101.306 87.001 103.41 87.1701 104.909 86.1193C105.654 85.4102 105.812 84.9731 106.101 84.0344L107.588 84.4091C107.402 85.0781 107.173 85.6729 106.769 86.246C106.127 87.1646 105.137 87.7899 104.022 87.9817C102.724 88.2038 101.057 88.0349 99.9682 87.2475C97.5034 85.4655 97.1902 81.0925 98.9064 78.7266C99.7284 77.5929 100.9 77.0744 102.259 76.8658Z" fill="white"/>
<path d="M62.4808 94.1354C64.5973 94.0343 65.82 95.5382 65.6891 97.5488C65.575 99.302 64.657 100.294 62.8921 100.489C62.1242 100.534 61.303 100.334 60.7078 99.8632C59.0584 98.5598 59.3261 95.0111 61.4735 94.3108C61.8267 94.1957 62.1176 94.1655 62.4808 94.1354ZM62.83 99.3803C64.1794 99.1264 64.5407 97.898 64.319 96.6706C64.1458 95.7121 63.5474 95.2798 62.5849 95.232C60.1458 95.5782 60.593 99.5579 62.83 99.3803Z" fill="white"/>
<path d="M55.4572 94.1352C59.4962 93.8963 59.9444 100.053 55.9176 100.485C55.1572 100.548 54.3173 100.339 53.7233 99.8798C52.0567 98.5902 52.3157 95.0454 54.4421 94.3212C54.7914 94.2022 55.0947 94.1693 55.4572 94.1352ZM55.7415 99.3953C57.1652 99.143 57.5385 97.9699 57.3091 96.6469C57.1443 95.6965 56.5235 95.2832 55.576 95.2316C54.1973 95.4339 53.8349 96.5326 54.0041 97.801C54.1356 98.7864 54.7508 99.3089 55.7415 99.3953Z" fill="white"/>
<path d="M81.0411 94.2399C81.5431 94.2392 82.0443 94.243 82.5463 94.2511C82.7835 95.1163 83.3595 97.7146 83.6628 98.3678C83.8303 97.1584 84.2569 95.4665 84.5278 94.2422L85.8162 94.2467L85.1449 97.0779C84.8809 98.1579 84.615 99.3429 84.3023 100.402C83.8882 100.423 83.3813 100.415 82.961 100.416C82.5438 98.9435 82.1957 97.4271 81.7747 95.9472C81.3182 97.324 80.9951 99.0981 80.5187 100.401C80.0784 100.432 79.5771 100.405 79.13 100.392C78.7788 98.6487 78.2862 96.8727 77.912 95.1152C78.2445 94.7655 78.4736 94.5204 78.8473 94.215C78.879 94.2234 78.8871 94.2232 78.9176 94.2447C79.2041 94.4463 79.7932 97.7599 79.9103 98.304C80.3437 97.0177 80.6252 95.5591 81.0411 94.2399Z" fill="white"/>
<path d="M66.9162 94.2309C69.775 94.3648 72.2318 93.6112 72.1209 97.6841C71.7786 98.0881 71.119 98.694 70.7214 99.0813C70.2667 99.5139 69.8783 99.9589 69.39 100.375C68.576 100.398 67.7244 100.373 66.9146 100.419L66.9162 94.2309ZM70.4197 98.9457C70.6347 98.5713 70.7272 98.2931 70.7711 97.87C70.8478 97.1298 70.8651 95.94 70.1229 95.5201C69.6334 95.2431 68.7596 95.3614 68.2082 95.3151C68.1735 96.5784 68.2475 98.0694 68.1828 99.2724C69.0212 99.2993 69.7527 99.4384 70.4197 98.9457Z" fill="white"/>
<path d="M64.527 76.994C67.2303 76.9 70.5306 76.9708 73.2689 76.9895L73.2671 78.3076L69.6711 78.3233C69.6155 80.2785 69.6644 82.4637 69.6638 84.4373L69.6557 87.9002L68.1542 87.9004L68.1534 78.3229C66.953 78.2996 65.7156 78.3124 64.5123 78.3104L64.527 76.994Z" fill="white"/>
<path d="M60.4394 76.9929C61.1908 76.9776 61.9425 76.9779 62.6939 76.9937L62.6883 87.9001C61.9509 87.9168 61.1693 87.903 60.428 87.901L60.4394 76.9929Z" fill="white"/>
<path d="M89.4541 94.2386C89.8583 94.2392 90.263 94.2445 90.6666 94.2542C91.4169 95.3007 92.4806 97.1317 93.1936 98.2813C93.16 96.9725 93.1799 95.5531 93.188 94.2435L94.3413 94.2473C94.3487 95.8928 94.4465 98.8725 94.3132 100.392C93.8493 100.432 93.5373 100.412 93.0722 100.387C92.3641 99.1773 91.3895 97.5812 90.6031 96.4314C90.6167 97.7182 90.6242 99.1177 90.5837 100.398C90.2251 100.42 89.8159 100.391 89.4529 100.376C89.4379 98.33 89.4386 96.2842 89.4541 94.2386Z" fill="white"/>
<path d="M95.9622 94.2383L100.558 94.2489L100.546 95.3128C99.5067 95.3461 98.2899 95.3279 97.2444 95.3249L97.2276 96.6149C98.2333 96.6478 99.3187 96.6335 100.331 96.6377L100.331 97.7024C99.5067 97.7508 98.0813 97.7256 97.2444 97.7148C97.2232 98.208 97.2313 98.7717 97.227 99.2706C98.3784 99.2893 99.5292 99.2987 100.681 99.2987L100.676 100.383C99.8829 100.458 96.8004 100.418 95.9554 100.382L95.9622 94.2383Z" fill="white"/>
<path d="M132.537 76.9925C133.002 76.9745 133.53 76.9874 134 76.9887L133.999 87.9009C133.52 87.9126 133.001 87.9012 132.519 87.8996C132.533 84.2838 132.478 80.6012 132.537 76.9925Z" fill="white"/>
<path d="M47.3443 94.2384L51.6061 94.2448L51.6035 95.3058C50.9202 95.3606 49.3283 95.3346 48.6209 95.325L48.609 96.6961L51.2283 96.7222L51.2195 97.7172L51.181 97.7602C50.9306 97.8419 49.0015 97.8223 48.6159 97.8079C48.618 98.6692 48.6105 99.5306 48.5937 100.392C48.1373 100.426 47.7943 100.4 47.3386 100.374C47.3298 98.329 47.3318 96.2836 47.3443 94.2384Z" fill="white"/>
<path d="M80.3287 90.7788C80.4147 90.79 80.5093 90.8322 80.594 90.8632C80.637 90.92 80.7148 90.9974 80.6862 91.0545C80.4016 91.6229 79.1126 92.7726 78.6991 93.1808L75.1321 96.7018C72.7789 99.0244 70.095 101.813 67.7098 103.999C67.4721 104.01 67.4243 103.939 67.3504 103.749C67.3742 103.582 67.451 103.4 67.5703 103.281C68.2992 102.55 69.0573 101.819 69.7911 101.095L74.4932 96.4558L78.1156 92.8736C78.7041 92.2914 79.7023 91.2498 80.3287 90.7788Z" fill="white"/>
<path d="M86.7272 94.239C87.1463 94.2366 87.5592 94.2255 87.9764 94.2674C88.0051 96.1214 88.0393 98.5596 87.9627 100.392C87.533 100.429 87.1588 100.401 86.7291 100.38C86.6843 98.3784 86.7216 96.2464 86.7272 94.239Z" fill="white"/>
</svg>
