<svg width="148" height="148" viewBox="0 0 148 148" fill="none" xmlns="http://www.w3.org/2000/svg">
<path d="M61.028 57.4018C65.0303 56.9467 68.6341 59.9058 69.0742 64.0089C69.5143 68.112 66.6241 71.8032 62.6209 72.2504C58.6233 72.697 55.0286 69.7392 54.5891 65.6417C54.1495 61.5443 57.0313 57.8564 61.028 57.4018ZM66.5045 64.1276C66.1341 61.4789 63.7404 59.6387 61.1562 60.0161C58.5688 60.3939 56.7709 62.8515 57.1418 65.5034C57.5127 68.1554 59.9117 69.9963 62.4985 69.6138C65.082 69.2317 66.8749 66.7762 66.5045 64.1276Z" fill="white"/>
<path d="M85.2205 60.0195C87.8094 59.6536 90.196 61.5121 90.5466 64.1668C90.8972 66.8214 89.0778 69.2632 86.4876 69.6157C83.906 69.967 81.5342 68.1105 81.1848 65.4653C80.8361 62.8201 82.6408 60.3842 85.2205 60.0195Z" fill="white"/>
<path d="M12.1281 85.4708C13.7054 85.4245 16.9212 85.1062 17.6532 86.8861C18.1522 88.0995 17.7225 89.1088 16.8192 89.9227C18.2861 90.866 18.6951 92.0818 17.8713 93.7001C17.2923 95.2674 13.3577 94.9829 12.0586 94.975C11.9688 94.1056 12.0123 91.6149 12.0146 90.6548C12.0175 89.4844 11.9365 86.4528 12.1281 85.4708ZM13.8698 93.2291C14.5658 93.231 15.3423 93.3089 15.9449 92.9407C16.3159 92.6683 16.4297 92.2801 16.3022 91.8379C16.0054 90.8092 14.8051 91.1142 14.0811 91.048L13.9241 91.0965C13.8505 91.5222 13.868 92.7726 13.8698 93.2291ZM13.8686 89.3087C14.2741 89.3073 15.0996 89.3198 15.4658 89.2073C16.6876 87.6728 15.4102 87.1623 14.0242 87.1891L13.9068 87.2808C13.8834 87.9565 13.8706 88.6325 13.8686 89.3087Z" fill="white"/>
<path d="M20.2144 85.4621C21.4283 85.4556 22.5544 85.4235 23.7642 85.5465C26.915 85.8667 27.5462 89.7044 25.1527 91.5601C25.2354 91.7327 25.3314 91.8959 25.4397 92.0526C26.0791 92.9771 26.6191 94.0217 27.2759 94.9277C26.7275 95.0009 26.0518 94.98 25.4873 94.9784C25.4353 94.9715 25.3835 94.9635 25.3323 94.9519C24.8904 94.8517 23.5519 92.4748 23.2155 91.9493C22.8485 91.9301 22.3747 91.9516 21.9997 91.9579C22.1019 92.3651 22.0243 94.4433 22.0141 94.9653C21.4999 95.0015 20.7492 94.9808 20.2173 94.9818C20.1225 92.785 20.2092 90.5453 20.1813 88.3438C20.1692 87.3902 20.1802 86.4142 20.2144 85.4621ZM24.0897 89.9749C24.7003 89.3296 24.9366 88.3006 24.2781 87.5548C23.8727 87.0958 22.7393 87.1908 22.1428 87.1869C22.1341 87.1955 22.0376 87.2927 22.0376 87.2927C21.9675 88.2104 22.094 89.3062 22.0198 90.2014C22.7628 90.2114 23.4406 90.3137 24.0897 89.9749Z" fill="white"/>
<path d="M101.048 85.4649C102.785 85.4519 105.53 85.1469 106.748 86.6022C107.642 87.6705 107.652 89.6867 106.776 90.7812C106.512 91.112 106.293 91.3083 105.977 91.5837C106.408 92.2367 107.768 94.5766 108.186 94.9188C107.578 94.9961 106.922 94.9808 106.307 94.9817C105.756 94.9761 104.376 92.4965 104.054 91.9197L102.873 91.9685C102.87 92.9675 102.86 93.9665 102.845 94.9654C102.334 95.0041 101.571 94.9781 101.039 94.9744C101.003 94.3233 101.016 93.5719 101.021 92.9144C101.039 90.4378 100.976 87.9389 101.048 85.4649ZM102.879 90.1924C103.549 90.2111 104.364 90.3349 104.907 89.9465C105.19 89.7454 105.401 89.6028 105.451 89.2238C105.727 87.1543 104.54 87.1725 103.024 87.1888C102.85 87.3141 102.868 87.379 102.864 87.6026C102.849 88.4653 102.863 89.3299 102.879 90.1924Z" fill="white"/>
<path d="M73.5509 85.2585C73.7514 85.6562 73.6727 93.935 73.6616 94.9591C73.2249 95.0057 72.3598 94.9804 71.8902 94.9792C71.8248 93.832 71.817 91.6225 71.8773 90.502C71.4305 91.062 70.8746 91.9806 70.4526 92.6022C69.9913 93.2818 69.3787 94.1226 68.9903 94.823C68.018 93.8083 67.04 92.0156 66.1027 90.8545L66.1055 94.969C65.543 94.9955 64.8955 94.9765 64.3256 94.9715C64.265 93.9475 64.3025 92.6292 64.299 91.5726C64.2763 89.4488 64.2903 87.3248 64.3412 85.2017C65.0776 86.0434 66.2015 87.8306 66.8941 88.8165C67.3587 89.478 68.6295 91.2936 68.9437 91.9188C69.2087 91.3301 69.9864 90.3483 70.3635 89.7693C71.3797 88.2092 72.4572 86.7527 73.5509 85.2585Z" fill="white"/>
<path d="M36.2355 85.4853C37.3482 85.3613 38.6091 85.7004 39.6169 86.1644C39.38 86.8872 39.3046 87.2305 38.9936 87.954C37.5398 87.2181 35.0421 87.0591 34.2553 88.8198C32.977 91.6801 35.534 93.709 38.178 92.7453L38.1705 91.6848C37.7163 91.7204 37.0498 91.7028 36.5773 91.7023C36.5627 91.1676 36.4369 90.3746 36.7518 90.0236C37.1044 89.8855 37.8639 89.9426 38.2768 89.9499L40.0784 89.9579C40.0571 91.2415 40.0793 92.5394 40.0595 93.8322C38.2678 95.2377 35.7659 95.3217 33.8895 94.1055C31.2777 92.4125 31.4939 87.5729 34.208 86.1189C34.9388 85.7273 35.4431 85.6416 36.2355 85.4853Z" fill="white"/>
<path d="M42.2922 85.4618L44.1353 85.4551C44.1371 86.2751 44.1873 88.6291 44.086 89.3107L48.1378 89.3072C48.0777 88.2394 48.0991 86.5262 48.1485 85.4555C48.7322 85.4481 49.316 85.4534 49.8995 85.4715C50.0019 86.058 49.9566 87.1994 49.9505 87.8396L49.9425 91.1139C49.9444 92.2616 49.9821 93.4704 49.9547 94.6204C49.949 94.8597 49.9149 94.8673 49.7741 94.9831L48.144 94.981C48.0949 93.711 48.1103 92.299 48.1207 91.0243C47.2294 91.0518 44.9704 91.1022 44.1325 91.0249C44.1606 92.2332 44.1558 93.7583 44.1216 94.9546C43.6713 95.0114 42.7488 94.9817 42.2823 94.9628C42.2648 94.4076 42.2553 93.846 42.2609 93.2904C42.2875 90.6877 42.2077 88.0622 42.2922 85.4618Z" fill="white"/>
<path d="M132.553 85.4825C133.926 85.377 134.876 85.6542 136 86.4168C135.884 86.6072 135.493 87.8506 135.294 87.8199C134.507 87.6924 132.898 86.6114 132.244 87.5533C131.902 88.1348 132.089 88.6788 132.632 88.9876C133.804 89.6633 135.616 89.9668 135.896 91.6023C136.238 93.5976 135.022 94.5658 133.327 94.9438C132.029 95.0512 130.737 94.6768 129.685 93.8889C129.817 93.5152 130.163 92.8698 130.352 92.4936C131.212 92.7025 133.064 93.9059 133.84 92.7026C133.973 92.4956 134.017 92.2412 133.96 92.0001C133.661 90.7352 130.452 90.693 130.198 88.7612C129.93 86.7169 130.676 85.8834 132.553 85.4825Z" fill="white"/>
<path d="M90.6807 85.4435L90.7589 85.4385C90.8979 85.6717 90.872 86.8397 90.8764 87.1841L88.6558 87.1874C88.7352 87.5855 88.6989 89.9201 88.6897 90.5268C88.6681 91.9602 88.7438 93.5502 88.6915 94.9565C88.1022 94.997 87.4256 94.9788 86.8278 94.9749C86.7681 94.556 86.7786 93.9155 86.773 93.4766C86.7829 91.3846 86.7761 89.2925 86.7527 87.2006C86.2551 87.1565 85.2716 87.1858 84.7377 87.1849C84.6454 86.6471 84.7094 86.0154 84.7604 85.4701C86.7232 85.4386 88.7229 85.5094 90.6807 85.4435Z" fill="white"/>
<path d="M57.9643 85.4411L58.0602 85.463C58.1427 85.6403 58.1395 86.891 58.1478 87.1842L55.888 87.1887C55.952 87.5743 55.8952 89.1211 55.8932 89.6392C55.883 91.4127 55.8921 93.1863 55.9207 94.9596C55.3463 95.0032 54.6583 94.9829 54.0836 94.9667C54.0372 94.5255 54.0488 93.8337 54.0444 93.3694C54.0464 91.5096 53.9628 88.9845 54.0409 87.1873L51.9177 87.1864C51.8893 86.5919 51.8885 86.0545 51.9381 85.4614C53.8382 85.4647 56.0956 85.5201 57.9643 85.4411Z" fill="white"/>
<path d="M122.52 85.4599L124.214 85.4534C124.325 88.0111 124.148 90.7243 124.28 93.2349C125.537 93.202 127.372 93.1872 128.605 93.2488C128.616 93.7771 128.592 94.4071 128.586 94.9434C128.021 95.0144 126.996 94.9803 126.376 94.9792L122.481 94.9771C122.389 93.3888 122.467 91.3387 122.449 89.7127C122.438 88.6421 122.404 86.4174 122.52 85.4599Z" fill="white"/>
<path d="M116.616 85.3902C117.041 85.7839 118.961 91.563 119.417 92.4477C119.598 92.7982 120.315 94.5808 120.205 94.8906C119.606 95.148 119.394 94.1431 119.218 93.7027C118.963 93.0668 118.796 92.3961 118.493 91.7755C118.049 91.8296 117.059 91.8024 116.573 91.8019C115.934 91.8193 115.294 91.7775 114.658 91.8408C114.446 92.3033 113.696 95.3478 113.003 94.8301C112.963 94.5832 116.297 85.8843 116.616 85.3902ZM114.83 91.269L116.687 91.2722L118.332 91.2669C117.89 90.1893 117.47 89.102 117.074 88.0059C116.968 87.7202 116.754 86.9893 116.566 86.8242C116.265 87.9264 115.328 90.2326 114.83 91.269Z" fill="white"/>
<path d="M79.4072 85.3909C79.6557 85.607 83.1562 94.5184 83.1015 94.8679L82.9785 94.9275C82.6076 94.9193 82.5221 94.8178 82.3818 94.477C82.0232 93.6016 81.6597 92.6958 81.386 91.7884L79.796 91.8088C79.0474 91.8222 78.2988 91.8198 77.5502 91.8014C77.3005 92.3441 77.1332 92.8301 76.9339 93.3926C76.8029 93.7633 76.4824 94.9483 76.0273 94.8827C75.9128 94.7035 75.9854 94.2909 76.0592 94.0988C77.1646 91.2391 78.2066 88.2037 79.4072 85.3909ZM77.6726 91.2763L79.3882 91.2722L81.1793 91.2659C80.7961 90.5854 79.7043 87.0725 79.3679 86.8231C79.1704 87.6866 78.1118 90.5371 77.6726 91.2763Z" fill="white"/>
<path d="M93.1055 85.7226C93.7685 85.6993 97.9863 85.6436 98.3098 85.8171L98.3295 85.9473C97.894 86.4228 94.3141 86.1192 93.7735 86.3563C93.5557 86.7413 93.6572 89.3465 93.6689 89.9478C94.8548 90.028 96.4049 89.8736 97.5969 90.0049C97.7113 90.0176 97.7722 90.1022 97.8214 90.1961C97.4862 90.5633 94.5171 90.4627 93.8208 90.5423C93.6689 90.6926 93.7015 90.7611 93.6628 91.0048C93.6289 92.0846 93.648 93.2859 93.6757 94.3629C95.0461 94.4361 96.4159 94.4037 97.7864 94.3992C98.0835 94.3983 98.399 94.3996 98.6051 94.6339L98.5854 94.7709C98.5559 94.8003 98.5214 94.8351 98.4814 94.8754C97.0298 95.001 94.4033 94.9677 93.0692 94.9668C93.0157 94.1504 93.0655 92.2888 93.0747 91.426C93.0944 89.6167 93.0175 87.5109 93.1055 85.7226Z" fill="white"/>
<path d="M29.3114 85.7056C29.508 85.7124 29.5586 85.7112 29.7419 85.7794C29.7622 85.8088 29.8095 85.86 29.8199 85.8918C29.9239 86.212 29.8892 94.2425 29.792 94.9182C29.5961 94.983 29.4693 94.9814 29.3202 94.8521C29.1581 94.0866 29.197 86.5988 29.3114 85.7056Z" fill="white"/>
<path d="M109.934 85.7003C110.128 85.7113 110.174 85.7143 110.357 85.7787C110.377 85.8106 110.419 85.8608 110.43 85.8951C110.559 86.3031 110.512 94.1902 110.43 94.9116C110.198 94.9832 110.099 95.0055 109.935 94.8238C109.842 94.2715 109.851 91.4166 109.874 90.7553C109.922 89.3209 109.797 87.0745 109.934 85.7003Z" fill="white"/>
<path d="M73.605 53H74.0429C74.0958 55.1764 74.0694 57.4367 74.0694 59.6215L74.0645 70.3589L74.0768 74.3179C74.0798 74.8535 74.1168 76.2307 74.0214 76.6752C73.9002 76.8011 73.963 76.7704 73.784 76.7854L73.6696 76.6692C73.5287 76.2635 73.6019 71.0807 73.6019 70.32L73.605 53Z" fill="white"/>
</svg>
