<svg width="148" height="148" viewBox="0 0 148 148" fill="none" xmlns="http://www.w3.org/2000/svg">
<g clip-path="url(#clip0_12_8378)">
<path d="M13.3276 88.7318C13.3276 87.6799 14.1141 86.9635 15.1 86.9635C15.818 86.9635 16.2454 87.3217 16.5019 87.7311L15.989 87.9926C15.8237 87.7083 15.4989 87.498 15.1 87.498C14.4503 87.498 13.9431 88.0154 13.9431 88.7318C13.9431 89.4482 14.4446 89.9656 15.1 89.9656C15.4932 89.9656 15.8237 89.7552 15.989 89.4709L16.5019 89.7325C16.2397 90.1418 15.818 90.5 15.1 90.5C14.1141 90.5 13.3276 89.7836 13.3276 88.7318Z" fill="white"/>
<path d="M23.2265 89.7836H21.608L21.3573 90.4375H20.7019L22.0468 87.0261H22.7934L24.1383 90.4375H23.4829L23.2322 89.7836H23.2265ZM21.7733 89.2549H23.0555L22.4172 87.5321L21.7733 89.2549Z" fill="white"/>
<path d="M28.6118 87.0204H29.2102V89.9087H30.7204V90.4375H28.6118V87.0261V87.0204Z" fill="white"/>
<path d="M36.8067 86.9692C37.8324 86.9692 38.5562 87.714 38.5562 88.7374C38.5562 89.7609 37.8324 90.5057 36.8067 90.5057C35.7809 90.5057 35.0571 89.7609 35.0571 88.7374C35.0571 87.714 35.7809 86.9692 36.8067 86.9692ZM36.8067 87.4979C36.1114 87.4979 35.6726 88.0267 35.6726 88.7318C35.6726 89.4368 36.1114 89.9656 36.8067 89.9656C37.5019 89.9656 37.9407 89.4311 37.9407 88.7318C37.9407 88.0324 37.4962 87.4979 36.8067 87.4979Z" fill="white"/>
<path d="M44.4374 89.1639H43.8447V90.4375H43.2463V87.0261H44.7508C45.429 87.0261 45.8678 87.4639 45.8678 88.095C45.8678 88.7261 45.4689 89.0331 45.0586 89.0957L45.8963 90.4375H45.2067L44.4488 89.1639H44.4374ZM44.6596 87.5491H43.839V88.6351H44.6596C44.9959 88.6351 45.2466 88.4191 45.2466 88.095C45.2466 87.7709 45.0016 87.5548 44.6596 87.5548V87.5491Z" fill="white"/>
<path d="M50.5635 87.0204H52.9057V87.5492H51.1619V88.4361H52.8715V88.9649H51.1619V89.9144H52.9057V90.4432H50.5635V87.0318V87.0204Z" fill="white"/>
<path d="M63.1579 89.4936C63.3916 89.7438 63.762 89.9656 64.2407 89.9656C64.7194 89.9656 64.9302 89.7268 64.9302 89.4993C64.9302 89.1923 64.5655 89.1013 64.1495 88.9933C63.591 88.8568 62.9357 88.692 62.9357 87.9699C62.9357 87.407 63.4315 86.9692 64.1837 86.9692C64.7194 86.9692 65.1468 87.1397 65.4659 87.4468L65.124 87.8903C64.8562 87.623 64.4914 87.5036 64.1324 87.5036C63.7734 87.5036 63.5511 87.6742 63.5511 87.9301C63.5511 88.1859 63.8988 88.2826 64.3034 88.3849C64.8676 88.5271 65.54 88.7033 65.54 89.4425C65.54 90.011 65.1411 90.4943 64.2179 90.4943C63.5853 90.4943 63.1294 90.2726 62.8274 89.9485L63.1579 89.488V89.4936Z" fill="white"/>
<path d="M71.7915 86.9692C72.8173 86.9692 73.541 87.714 73.541 88.7374C73.541 89.7609 72.8173 90.5057 71.7915 90.5057C70.7657 90.5057 70.042 89.7609 70.042 88.7374C70.042 87.714 70.7657 86.9692 71.7915 86.9692ZM71.7915 87.4979C71.0963 87.4979 70.6575 88.0267 70.6575 88.7318C70.6575 89.4368 71.0963 89.9656 71.7915 89.9656C72.4868 89.9656 72.9256 89.4311 72.9256 88.7318C72.9256 88.0324 72.4811 87.4979 71.7915 87.4979Z" fill="white"/>
<path d="M78.3337 89.4936C78.5674 89.7438 78.9378 89.9656 79.4165 89.9656C79.8952 89.9656 80.106 89.7268 80.106 89.4993C80.106 89.1923 79.7413 89.1013 79.3253 88.9933C78.7668 88.8568 78.1115 88.692 78.1115 87.9699C78.1115 87.407 78.6072 86.9692 79.3595 86.9692C79.8952 86.9692 80.3226 87.1397 80.6417 87.4468L80.2998 87.8903C80.0319 87.623 79.6672 87.5036 79.3082 87.5036C78.9492 87.5036 78.7269 87.6742 78.7269 87.9301C78.7269 88.1859 79.0745 88.2826 79.4792 88.3849C80.0433 88.5271 80.7158 88.7033 80.7158 89.4425C80.7158 90.011 80.3169 90.4943 79.3937 90.4943C78.7611 90.4943 78.3052 90.2726 78.0032 89.9485L78.3337 89.488V89.4936Z" fill="white"/>
<path d="M86.1353 87.5492H85.0981V87.0204H87.7709V87.5492H86.7337V90.4375H86.1353V87.5492Z" fill="white"/>
<path d="M92.387 87.0204H94.7292V87.5492H92.9853V88.4361H94.695V88.9649H92.9853V89.9144H94.7292V90.4432H92.387V87.0318V87.0204Z" fill="white"/>
<path d="M100.046 87.9472V90.4375H99.4478V87.0261H100.063L101.813 89.4482V87.0261H102.411V90.4375H101.83L100.046 87.9472Z" fill="white"/>
<path d="M107.244 87.0204H107.842V90.4318H107.244V87.0204Z" fill="white"/>
<path d="M112.675 87.0204H114.356C114.983 87.0204 115.33 87.407 115.33 87.8903C115.33 88.3224 115.051 88.6067 114.738 88.6749C115.102 88.7318 115.399 89.0957 115.399 89.5164C115.399 90.0452 115.045 90.4375 114.401 90.4375H112.675V87.0261V87.0204ZM114.236 88.4361C114.544 88.4361 114.72 88.2542 114.72 87.9983C114.72 87.7425 114.544 87.5548 114.236 87.5548H113.279V88.4418H114.236V88.4361ZM114.259 89.9087C114.589 89.9087 114.783 89.7325 114.783 89.4311C114.783 89.1753 114.606 88.9592 114.259 88.9592H113.273V89.9087H114.259Z" fill="white"/>
<path d="M120.1 87.0204H120.698V90.4318H120.1V87.0204Z" fill="white"/>
<path d="M125.531 87.0204H126.13V89.9087H127.64V90.4375H125.531V87.0261V87.0204Z" fill="white"/>
<path d="M132.29 87.0204H134.632V87.5492H132.888V88.4361H134.598V88.9649H132.888V89.9144H134.632V90.4432H132.29V87.0318V87.0204Z" fill="white"/>
<path d="M87.2525 72.0669C87.2297 72.2147 87.2012 72.3682 87.167 72.516C87.0303 73.1244 86.8023 73.7555 86.4889 74.4094C86.2837 74.8301 86.0672 75.2281 85.8335 75.6091C85.6113 75.973 85.3776 76.3255 85.1212 76.6609C84.6026 77.3489 84.0612 77.9175 83.4913 78.3723C82.9214 78.8215 82.3971 79.0433 81.9241 79.0433C81.5024 79.0433 81.1833 78.8727 80.9725 78.5258C80.7616 78.179 80.6533 77.7355 80.6533 77.2011C80.6533 76.4506 80.8186 75.7342 81.1434 75.0348C81.4682 74.3355 81.89 73.7214 82.3971 73.1983C82.91 72.6695 83.4571 72.2431 84.0441 71.919C84.6311 71.5949 85.1839 71.4301 85.7025 71.4301C86.6029 71.4301 87.1214 71.6404 87.2525 72.0612V72.0669Z" fill="white"/>
<path d="M92.9284 73.4996C92.9284 74 92.9056 74.5174 92.86 75.0518C92.8087 75.5863 92.7118 76.098 92.5579 76.5927C92.4041 77.0817 92.1704 77.5251 91.8513 77.9231C91.5321 78.3268 91.1047 78.6509 90.5691 78.9068C89.8225 79.2309 89.1899 79.3901 88.6714 79.3901C87.959 79.3901 87.6114 78.884 87.6114 77.8663C87.6114 77.6218 87.657 77.2636 87.7596 76.8031C87.8507 76.3482 87.9761 75.8251 88.13 75.2395C88.1528 75.1599 88.1756 75.0746 88.1984 74.995V74.9836C88.3351 74.4662 88.4833 73.9147 88.6372 73.3234C88.8024 72.6809 88.9791 72.027 89.1558 71.3504C89.1672 71.2993 89.1843 71.2481 89.1957 71.1969C88.2155 70.1792 87.0415 69.6731 85.6795 69.6731C84.7905 69.6731 83.9129 69.9176 83.041 70.3952C82.169 70.8728 81.3883 71.4926 80.6931 72.2488C80.0035 73.005 79.4393 73.8692 79.0062 74.8358C78.5731 75.8024 78.3565 76.7746 78.3565 77.7526C78.3565 78.6737 78.5617 79.4355 78.9891 80.0382C79.4108 80.6466 80.1118 80.9423 81.092 80.9423C81.4966 80.9423 81.9411 80.8627 82.4198 80.6978C82.8985 80.5329 83.3658 80.3055 83.8331 80.0098C84.2947 79.7141 84.7278 79.3616 85.1438 78.9636C85.5598 78.5599 85.896 78.1108 86.1696 77.6104C86.1696 77.6332 86.1696 77.6843 86.1582 77.7753C86.1468 77.8606 86.1354 77.9516 86.1297 78.0425C86.1183 78.1392 86.1126 78.2359 86.1012 78.3325C86.0898 78.4292 86.0841 78.486 86.0841 78.5031C86.0841 79.1171 86.2095 79.663 86.4602 80.1576C86.711 80.6466 87.1156 80.8854 87.6741 80.8854C87.959 80.8854 88.2781 80.8342 88.6201 80.7262C88.9677 80.6182 89.3096 80.4817 89.6573 80.3111C90.0049 80.1349 90.3411 79.9416 90.6659 79.7198C90.9908 79.4981 91.27 79.2707 91.498 79.0432C91.0421 79.8677 90.4722 80.6182 89.7997 81.3005C89.1273 81.9771 88.3807 82.5627 87.5544 83.0517C86.7281 83.5463 85.8505 83.9159 84.9159 84.1888C83.9813 84.456 83.0296 84.5925 82.0494 84.5925C80.9552 84.5925 79.9636 84.4276 79.0803 84.0865C78.197 83.751 77.4447 83.2677 76.8179 82.6366C76.1967 82.0055 75.718 81.2266 75.3932 80.3111C75.0683 79.3901 74.9031 78.3553 74.9031 77.2067C74.9031 75.6773 75.188 74.2388 75.7693 72.897C76.3449 71.5551 77.1313 70.3952 78.1286 69.4059C79.1316 68.4223 80.2827 67.6433 81.5878 67.0634C82.8928 66.4834 84.289 66.1992 85.7707 66.1992C86.8819 66.1992 87.8849 66.3697 88.7796 66.7166C89.3438 66.9326 89.851 67.2055 90.3012 67.5353C90.5691 67.7343 90.8141 67.9504 91.0421 68.1835C91.4011 68.5531 91.7145 68.9738 91.971 69.44C92.159 69.7641 92.3129 70.1109 92.4497 70.4805C92.7745 71.3845 92.9398 72.3909 92.9398 73.4996H92.9284Z" fill="white"/>
<path fill-rule="evenodd" clip-rule="evenodd" d="M62.4456 68.1437H59.6988V65.4032H62.4456V68.1437ZM62.4456 80.8741H59.6988V69.821H62.4456V80.8741ZM115.553 80.8741H112.806V69.821H115.553V80.8741ZM122.066 81.0958C121.212 81.0958 120.448 80.948 119.787 80.6523C119.12 80.3567 118.562 79.9586 118.1 79.4469C117.644 78.9409 117.291 78.3325 117.046 77.6332C116.801 76.9338 116.681 76.1776 116.681 75.3703C116.681 74.5629 116.801 73.8067 117.046 73.113C117.291 72.4194 117.638 71.8167 118.1 71.2993C118.556 70.7819 119.12 70.3782 119.787 70.0825C120.454 69.7869 121.212 69.639 122.066 69.639C123.423 69.639 124.534 69.912 125.389 70.4578L125.144 72.8003C124.232 72.1976 123.28 71.8963 122.294 71.8963C121.411 71.8963 120.727 72.209 120.243 72.8344C119.758 73.4599 119.513 74.307 119.513 75.3646C119.513 76.4221 119.758 77.2693 120.243 77.8947C120.727 78.5202 121.411 78.8329 122.294 78.8329C123.28 78.8329 124.226 78.5315 125.144 77.9288L125.389 80.2714C124.534 80.8172 123.423 81.0901 122.066 81.0901V81.0958ZM136 78.8386L135.755 81.0958H134.758C133.561 81.0958 132.735 80.6694 132.279 79.8165C131.509 80.6694 130.381 81.0958 128.888 81.0958C128.432 81.0958 128.005 81.0162 127.611 80.8627C127.218 80.7092 126.882 80.4874 126.591 80.1974C126.306 79.9075 126.078 79.5663 125.919 79.157C125.753 78.7533 125.674 78.2927 125.674 77.7753C125.674 77.0248 125.896 76.3994 126.34 75.899C126.785 75.3987 127.321 74.995 127.959 74.6937C128.591 74.3923 129.27 74.1763 129.988 74.0398C130.706 73.909 131.344 73.8351 131.902 73.8181C131.874 73.1528 131.709 72.6866 131.412 72.4137C131.116 72.1408 130.615 72.0043 129.908 72.0043C129.036 72.0043 128.027 72.2829 126.87 72.8458L126.625 70.6113C127.999 69.9631 129.344 69.639 130.66 69.639C133.333 69.639 134.672 71.123 134.672 74.0796V77.0646C134.672 77.4626 134.684 77.781 134.706 78.0141C134.729 78.2529 134.775 78.4292 134.837 78.5543C134.906 78.6794 135.003 78.759 135.134 78.7874C135.265 78.8158 135.436 78.8329 135.647 78.8329H136V78.8386ZM131.925 78.2018V75.683C131.498 75.7114 131.082 75.774 130.672 75.8592C130.267 75.9502 129.908 76.0753 129.6 76.2459C129.292 76.4164 129.036 76.6154 128.848 76.8542C128.654 77.093 128.557 77.3603 128.557 77.673C128.557 78.5543 129.053 78.9978 130.039 78.9978C130.734 78.9978 131.361 78.7305 131.92 78.2018H131.925ZM73.8546 78.8386L73.6095 81.0958H72.6123C71.4155 81.0958 70.5892 80.6694 70.1333 79.8165C69.3639 80.6694 68.2356 81.0958 66.7425 81.0958C66.2866 81.0958 65.8592 81.0162 65.466 80.8627C65.0728 80.7092 64.7365 80.4874 64.4459 80.1974C64.1553 79.9075 63.933 79.5663 63.7677 79.157C63.6025 78.7533 63.5227 78.2927 63.5227 77.7753C63.5227 77.0248 63.7449 76.3994 64.1894 75.899C64.634 75.3987 65.1696 74.995 65.8079 74.6937C66.4405 74.3923 67.1186 74.1763 67.8367 74.0398C68.5547 73.909 69.193 73.8351 69.7515 73.8181C69.723 73.1528 69.5577 72.6866 69.2614 72.4137C68.965 72.1408 68.4635 72.0043 67.7569 72.0043C66.885 72.0043 65.8763 72.2829 64.7194 72.8458L64.4744 70.6113C65.8478 69.9631 67.1927 69.639 68.5091 69.639C71.1819 69.639 72.5211 71.123 72.5211 74.0796V77.0646C72.5211 77.4626 72.5325 77.781 72.5553 78.0141C72.5781 78.2529 72.6237 78.4292 72.6863 78.5543C72.7547 78.6794 72.8516 78.759 72.9884 78.7874C73.1194 78.8158 73.2904 78.8329 73.4956 78.8329H73.8489L73.8546 78.8386ZM69.78 78.2018V75.683C69.3526 75.7114 68.9365 75.774 68.5262 75.8592C68.1216 75.9502 67.7626 76.0753 67.4492 76.2459C67.1414 76.4164 66.885 76.6154 66.6969 76.8542C66.5032 77.093 66.4063 77.3603 66.4063 77.673C66.4063 78.5543 66.9021 78.9978 67.8937 78.9978C68.5889 78.9978 69.2158 78.7305 69.7743 78.2018H69.78ZM111.119 80.8741H108.372V74.9268C108.372 73.8635 108.218 73.096 107.905 72.6184C107.597 72.1408 107.061 71.902 106.309 71.902C105.483 71.902 104.907 72.0953 104.594 72.4762C104.275 72.8572 104.115 73.3803 104.115 74.0455V80.8741H101.391V74.9268C101.391 74.3525 101.351 73.8692 101.271 73.4769C101.192 73.0846 101.061 72.7719 100.884 72.5388C100.707 72.3057 100.479 72.1351 100.2 72.0441C99.9209 71.9475 99.5789 71.902 99.18 71.902C98.3366 71.902 97.6584 72.2033 97.1399 72.806V80.8741H94.393V69.821H96.6555L96.8093 70.6852C97.6642 69.9916 98.6101 69.6447 99.6473 69.6447C100.325 69.6447 100.969 69.7869 101.574 70.0768C102.178 70.3668 102.668 70.7819 103.038 71.3277C103.141 71.123 103.306 70.9183 103.534 70.7193C103.762 70.5203 104.035 70.3384 104.355 70.1792C104.674 70.02 105.033 69.8892 105.432 69.7926C105.831 69.6959 106.258 69.6504 106.714 69.6504C107.438 69.6504 108.076 69.7755 108.629 70.0257C109.181 70.2758 109.643 70.6284 110.013 71.0889C110.384 71.5438 110.657 72.101 110.845 72.7548C111.028 73.4087 111.125 74.1365 111.125 74.9325V80.8797L111.119 80.8741ZM31.4271 78.8386L31.182 81.0958H30.1848C28.988 81.0958 28.1617 80.6694 27.7058 79.8165C26.9364 80.6694 25.8081 81.0958 24.315 81.0958C23.8591 81.0958 23.4317 81.0162 23.0385 80.8627C22.6453 80.7092 22.309 80.4874 22.0184 80.1974C21.7278 79.9075 21.5055 79.5663 21.3402 79.157C21.1807 78.7533 21.0952 78.2927 21.0952 77.7753C21.0952 77.0248 21.3174 76.3994 21.7619 75.899C22.2065 75.3987 22.7421 74.995 23.3804 74.6937C24.013 74.3923 24.6911 74.1763 25.4092 74.0398C26.1272 73.909 26.7655 73.8351 27.324 73.8181C27.2955 73.1528 27.1302 72.6866 26.8339 72.4137C26.5375 72.1408 26.036 72.0043 25.3294 72.0043C24.4575 72.0043 23.4488 72.2829 22.2919 72.8458L22.0469 70.6113C23.4203 69.9631 24.7652 69.639 26.0816 69.639C28.7544 69.639 30.0936 71.123 30.0936 74.0796V77.0646C30.0936 77.4626 30.105 77.781 30.1278 78.0141C30.1506 78.2529 30.1962 78.4292 30.2588 78.5543C30.3272 78.6794 30.4241 78.759 30.5609 78.7874C30.692 78.8158 30.8629 78.8329 31.0681 78.8329H31.4214L31.4271 78.8386ZM27.3525 78.2018V75.683C26.9251 75.7114 26.509 75.774 26.0987 75.8592C25.6941 75.9502 25.3351 76.0753 25.0217 76.2459C24.7139 76.4164 24.4575 76.6154 24.2694 76.8542C24.0757 77.093 23.9788 77.3603 23.9788 77.673C23.9788 78.5543 24.4746 78.9978 25.4605 78.9978C26.1557 78.9978 26.7826 78.7305 27.3411 78.2018H27.3525ZM36.3679 78.8386L36.1229 81.0958H35.1256C34.1796 81.0958 33.473 80.8286 33 80.2884C32.527 79.7483 32.2933 79.0546 32.2933 78.2018V64.2945H35.0401V77.0703C35.0401 77.4967 35.0515 77.8322 35.0743 78.0653C35.0971 78.2984 35.1541 78.4747 35.2396 78.5827C35.3308 78.6907 35.4618 78.7646 35.6385 78.7931C35.8152 78.8215 36.0602 78.8386 36.3679 78.8386ZM47.4464 80.8741H44.8535L44.8079 80.2543C43.9815 80.8172 43.0811 81.0958 42.1066 81.0958C41.2347 81.0958 40.4654 80.948 39.7929 80.6523C39.1205 80.3567 38.5563 79.9473 38.1004 79.4242C37.6445 78.9011 37.2912 78.2927 37.0461 77.5991C36.8011 76.9054 36.6814 76.1606 36.6814 75.3646C36.6814 74.5686 36.8068 73.8237 37.0575 73.1187C37.3083 72.4194 37.6673 71.811 38.1346 71.2936C38.6019 70.7762 39.1661 70.3725 39.8385 70.0768C40.511 69.7812 41.2689 69.6334 42.1066 69.6334C43.0982 69.6334 43.9587 69.8778 44.6996 70.3611V64.2831H47.4464V80.8627V80.8741ZM42.2947 71.8963C41.4114 71.8963 40.7275 72.209 40.2431 72.8344C39.7587 73.4599 39.5137 74.307 39.5137 75.3646C39.5137 76.4221 39.7587 77.2693 40.2431 77.8947C40.7275 78.5202 41.4114 78.8329 42.2947 78.8329C43.178 78.8329 43.7821 78.5258 44.2038 77.9061C44.6255 77.2864 44.8307 76.4392 44.8307 75.3646C44.8307 74.29 44.6198 73.4428 44.2038 72.8231C43.7821 72.2033 43.1495 71.8963 42.2947 71.8963ZM58.8326 78.8386L58.5875 81.0958H57.5902C56.3935 81.0958 55.5672 80.6694 55.1113 79.8165C54.3419 80.6694 53.2136 81.0958 51.7205 81.0958C51.2646 81.0958 50.8372 81.0162 50.444 80.8627C50.0507 80.7092 49.7145 80.4874 49.4239 80.1974C49.1332 79.9075 48.911 79.5663 48.7457 79.157C48.5805 78.7533 48.5007 78.2927 48.5007 77.7753C48.5007 77.0248 48.7229 76.3994 49.1674 75.899C49.6119 75.3987 50.1476 74.995 50.7859 74.6937C51.4242 74.3923 52.0966 74.1763 52.8147 74.0398C53.5327 73.909 54.171 73.8351 54.7295 73.8181C54.701 73.1528 54.5357 72.6866 54.2394 72.4137C53.943 72.1408 53.4415 72.0043 52.7349 72.0043C51.863 72.0043 50.8543 72.2829 49.6974 72.8458L49.4524 70.6113C50.8258 69.9631 52.1707 69.639 53.4871 69.639C56.1599 69.639 57.4991 71.123 57.4991 74.0796V77.0646C57.4991 77.4626 57.5105 77.781 57.5333 78.0141C57.5561 78.2529 57.6016 78.4292 57.6643 78.5543C57.7327 78.6794 57.8296 78.759 57.9664 78.7874C58.0974 78.8158 58.2684 78.8329 58.4736 78.8329H58.8269L58.8326 78.8386ZM54.7579 78.2018V75.683C54.3305 75.7114 53.9145 75.774 53.5042 75.8592C53.0996 75.9502 52.7406 76.0753 52.4271 76.2459C52.1194 76.4164 51.863 76.6154 51.6749 76.8542C51.4811 77.093 51.3843 77.3603 51.3843 77.673C51.3843 78.5543 51.8801 78.9978 52.8659 78.9978C53.5612 78.9978 54.1881 78.7305 54.7465 78.2018H54.7579ZM17.3853 81.0958C16.5305 81.0958 15.7668 80.948 15.1058 80.6523C14.439 80.3567 13.8805 79.9586 13.4246 79.4469C12.9687 78.9409 12.6154 78.3325 12.3703 77.6332C12.1253 76.9338 12.0056 76.1776 12.0056 75.3703C12.0056 74.5629 12.1253 73.8067 12.3703 73.113C12.6154 72.4194 12.963 71.8167 13.4246 71.2993C13.8805 70.7819 14.4447 70.3782 15.1058 70.0825C15.7725 69.7869 16.5305 69.639 17.3853 69.639C18.7416 69.639 19.8529 69.912 20.7077 70.4578L20.4626 72.8003C19.5508 72.1976 18.5991 71.8963 17.6132 71.8963C16.7299 71.8963 16.0461 72.209 15.5617 72.8344C15.0773 73.4599 14.8322 74.307 14.8322 75.3646C14.8322 76.4221 15.0773 77.2693 15.5617 77.8947C16.0461 78.5202 16.7299 78.8329 17.6132 78.8329C18.5991 78.8329 19.5508 78.5315 20.4626 77.9288L20.7077 80.2714C19.8529 80.8172 18.7416 81.0901 17.3853 81.0901V81.0958Z" fill="white"/>
<path d="M114.538 68.1437H112.783V65.4089H113.775L113.319 64.6868C113.068 64.5446 112.766 64.7266 112.526 64.7152C110.082 64.6356 109.01 62.2362 108.97 60.087C110.059 61.1161 111.774 60.7068 112.931 61.5767C113.7 62.1566 113.928 62.9469 113.854 63.8908L113.769 63.8282L113.683 63.7429L113.592 63.6576C112.948 62.8275 111.66 62.2703 110.691 61.878L110.959 62.06C112.156 62.674 113.239 63.6974 113.883 64.8858C113.968 65.045 114.002 65.2326 114.077 65.3747C114.105 65.4373 114.099 65.6079 114.236 65.4828C114.259 65.46 114.396 65.0052 114.453 64.8971C115.535 62.8389 117.04 61.3777 119.04 60.195C118.846 60.1609 118.562 60.2974 118.379 60.3713C117.291 60.8262 116.299 61.5028 115.456 62.3215L114.618 63.4245C114.367 61.9008 114.874 60.3429 116.225 59.5184C117.849 58.5234 120.265 58.9271 121.707 57.5C121.816 60.8318 120.02 64.4366 116.259 64.3399C116.008 64.3343 115.746 64.1523 115.49 64.3399C114.869 64.7834 114.219 67.3704 114.544 68.1437H114.538ZM115.53 65.4032C115.427 65.4032 115.359 65.6135 115.325 65.6931C115.017 66.4664 115.005 67.3249 115.154 68.1323H115.53V65.3975V65.4032Z" fill="white"/>
</g>
<defs>
<clipPath id="clip0_12_8378">
<rect width="124" height="33" fill="white" transform="translate(12 57.5)"/>
</clipPath>
</defs>
</svg>
