<svg width="148" height="148" viewBox="0 0 148 148" fill="none" xmlns="http://www.w3.org/2000/svg">
<path d="M76.5363 31C86.1776 31.0528 95.3864 34.9843 102.063 41.8981C103.899 43.7684 106.107 46.604 107.35 48.9336C105.604 49.8248 103.616 51.0239 101.885 52.0058L90.7791 58.2806C90.522 58.4862 90.2456 58.6193 89.9546 58.7741C89.6022 58.9707 88.2166 59.721 87.9724 59.9265C87.784 60.0125 87.5513 60.1435 87.3634 60.2419C86.8668 59.2841 86.0459 58.2554 85.2828 57.4987C82.9269 55.1462 79.7256 53.8231 76.3864 53.8218C76.3697 52.5265 76.3947 51.1771 76.4072 49.8791C76.4005 47.9258 76.4254 31.1907 76.5363 31Z" fill="white"/>
<path d="M76.4072 49.8791C80.8297 49.9097 85.0606 51.6768 88.178 54.7953C88.8048 55.4261 90.5381 57.4728 90.7791 58.2806C90.522 58.4862 90.2456 58.6193 89.9546 58.7741C89.6022 58.9707 88.2166 59.721 87.9724 59.9265C87.784 60.0125 87.5513 60.1435 87.3634 60.2419C86.8668 59.2841 86.0459 58.2554 85.2828 57.4987C82.9269 55.1462 79.7256 53.8231 76.3864 53.8218C76.3697 52.5265 76.3947 51.1771 76.4072 49.8791Z" fill="white"/>
<path d="M87.3077 72.7313C87.4946 72.8514 87.6757 72.9502 87.8694 73.0578C88.6309 73.5111 89.5054 74.0487 90.2815 74.4631L90.6568 74.7162C91.7234 75.3924 93.2303 76.1929 94.3505 76.8454L103.305 82.0522C104.506 82.7528 105.996 83.5585 107.127 84.3056C102.367 92.4008 94.5744 98.2912 85.4546 100.688C83.0034 101.331 80.4903 101.715 77.9579 101.832C77.3458 101.862 76.3713 101.903 75.7748 101.837C75.8966 101.835 75.9689 101.83 76.0897 101.816C76.2032 101.612 76.2276 84.9633 76.2302 82.979C76.2589 81.6911 76.2417 80.337 76.2448 79.0439C80.9801 79.0113 84.8274 76.6912 87.3077 72.7313Z" fill="white"/>
<path d="M87.3077 72.7313C87.4946 72.8514 87.6757 72.9502 87.8694 73.0578C88.6309 73.5111 89.5054 74.0487 90.2815 74.4631L90.6568 74.7162C90.5246 75.1725 90.1228 75.7112 89.8412 76.0992C88.404 78.0862 86.5399 79.7305 84.3844 80.9129C81.7073 82.3772 79.2582 82.875 76.2302 82.979C76.2589 81.6911 76.2417 80.337 76.2448 79.0439C80.9801 79.0113 84.8274 76.6912 87.3077 72.7313Z" fill="white"/>
<path d="M45.5297 48.5487L61.9234 58.0884L61.9488 58.0883C62.5179 58.4219 64.8907 59.8576 65.3907 60.0232C63.2901 63.7082 63.0245 68.0004 64.872 71.8336C64.9991 72.097 65.1897 72.4307 65.2864 72.6925C64.2189 73.3274 62.8886 74.0016 61.8681 74.6453L47.2936 82.8894C46.7662 83.189 45.8592 83.736 45.3259 83.9771C43.6478 80.9186 42.5551 78.334 41.6987 74.9407C39.4584 65.9838 40.8335 56.5109 45.5297 48.5487Z" fill="white"/>
<path d="M61.9234 58.0884L61.9488 58.0883C62.5179 58.4219 64.8907 59.8576 65.3907 60.0232C63.2901 63.7082 63.0245 68.0004 64.872 71.8336C64.9991 72.097 65.1897 72.4307 65.2864 72.6925C64.2189 73.3274 62.8886 74.0016 61.8681 74.6453C61.336 73.8355 60.7512 72.3883 60.4497 71.4446C59.3331 67.9694 59.4092 64.2239 60.6663 60.7964C61.0359 59.7963 61.4345 59.028 61.9234 58.0884Z" fill="white"/>
<path d="M65.2864 72.6925C65.6077 73.1773 65.9529 73.7444 66.3104 74.1941C68.1671 76.5396 70.7954 78.1602 73.7343 78.7712C74.7457 78.9777 75.2209 79.0036 76.2448 79.0439C76.2417 80.337 76.2589 81.6911 76.2302 82.979C76.2276 84.9633 76.2032 101.612 76.0897 101.816C75.9689 101.83 75.8966 101.835 75.7748 101.837C73.2085 101.898 69.4767 101.298 67.0277 100.637C57.8523 98.1748 50.0422 92.1788 45.3259 83.9771C45.8592 83.736 46.7662 83.189 47.2936 82.8894L61.8681 74.6453C62.8886 74.0016 64.2189 73.3274 65.2864 72.6925Z" fill="white"/>
<path d="M65.2864 72.6925C65.6077 73.1773 65.9529 73.7444 66.3104 74.1941C68.1671 76.5396 70.7954 78.1602 73.7343 78.7712C74.7457 78.9777 75.2209 79.0036 76.2448 79.0439C76.2417 80.337 76.2589 81.6911 76.2302 82.979C74.3256 82.9101 72.9279 82.7477 71.085 82.1381C67.9324 81.0971 65.1623 79.1479 63.1271 76.538C62.7269 76.0253 62.1636 75.2336 61.8681 74.6453C62.8886 74.0016 64.2189 73.3274 65.2864 72.6925Z" fill="white"/>
<path d="M45.5297 48.5487C46.8446 46.2601 48.7454 43.8222 50.5691 41.9303C56.0382 36.2453 63.2595 32.5372 71.0886 31.3937C73.0005 31.1126 74.6192 31.0407 76.5363 31C76.4254 31.1907 76.4005 47.9258 76.4072 49.8791C76.3947 51.1771 76.3697 52.5265 76.3864 53.8218C73.0633 53.7876 69.8617 55.0626 67.4816 57.368C66.6802 58.1484 65.9435 59.051 65.3907 60.0232C64.8907 59.8576 62.5179 58.4219 61.9488 58.0883L61.9234 58.0884L45.5297 48.5487Z" fill="white"/>
<path d="M76.4072 49.8791C76.3947 51.1771 76.3697 52.5265 76.3864 53.8218C73.0633 53.7876 69.8617 55.0626 67.4816 57.368C66.6802 58.1484 65.9435 59.051 65.3907 60.0232C64.8907 59.8576 62.5179 58.4219 61.9488 58.0883C62.6023 56.9021 63.5832 55.6691 64.5414 54.7198C67.6915 51.6017 71.9617 49.8597 76.4072 49.8791Z" fill="white"/>
<path d="M113.013 107.271C115.745 107.08 117.642 108.492 117.953 111.251C118.257 113.942 117.1 116.566 114.133 116.871C112.931 116.999 111.738 116.819 110.749 116.082C108.327 114.277 108.393 109.16 111.238 107.757C111.862 107.449 112.326 107.361 113.013 107.271ZM113.951 116.082C116.362 115.733 117.02 113.923 116.976 111.703C116.933 109.571 115.444 107.757 113.109 108.097C112.635 108.152 112.277 108.225 111.841 108.44C109.514 109.59 109.502 113.97 111.46 115.449C112.236 116.034 113.006 116.126 113.951 116.082Z" fill="white"/>
<path d="M89.9843 58.8836C90.1363 58.802 90.1831 58.7594 90.356 58.7684C90.6417 58.909 90.6886 58.8618 90.9171 59.0872C90.9494 59.2118 90.9379 59.2131 90.9103 59.3419C91.1102 59.7056 91.4527 60.1835 91.4522 60.599C91.4517 60.9625 91.7312 61.4202 91.8405 61.7768C91.9805 62.2334 92.4527 64.4619 92.5578 64.6188C92.8243 65.0152 92.6926 67.2773 92.588 67.7963C92.3819 68.8203 91.243 73.5597 90.5715 73.9488C90.5178 73.9799 90.4491 74 90.3919 74.0197L90.2935 74.0109C89.8292 73.6518 88.6533 73.2332 88.2848 72.7608C88.0042 72.4012 89.0494 70.6243 89.1629 70.1049C89.3003 69.4789 89.7646 65.5093 89.4903 65.2533L89.3706 65.456L89.3055 65.4405C89.2259 65.2434 89.2077 65.141 89.0499 65.01C88.9828 64.3523 89.1239 64.6492 88.8818 63.8816C88.9885 63.9718 89.0286 64.0001 89.1468 64.0752C89.1514 63.5355 88.6736 62.2355 88.4206 61.7258C88.4331 61.7502 88.2514 61.5867 88.2499 61.5855L88.1697 61.652C88.1708 61.6533 87.9542 61.1656 87.9391 61.1322C87.9964 60.702 87.8126 60.8689 87.8819 60.6031L88.1119 60.5243C88.2114 60.3963 88.1973 60.2801 88.2114 60.112L88.2171 60.0342C88.6845 59.4831 89.4169 59.3093 89.9843 58.8836Z" fill="white"/>
<path d="M100.496 107.379C102.394 107.461 106.451 106.764 107.095 109.267C107.566 111.1 106.451 112.219 104.715 112.643C105.653 113.802 106.569 115.59 107.535 116.783C106.961 116.819 106.507 116.972 106.15 116.487C105.338 115.313 104.548 113.954 103.737 112.744C102.991 112.728 102.232 112.752 101.478 112.736C101.492 114.034 101.424 115.559 101.493 116.833C101.177 116.815 100.836 116.812 100.517 116.803C100.438 113.689 100.58 110.472 100.496 107.379ZM101.476 111.995C102.749 111.933 104.564 112.222 105.55 111.45C106.303 110.713 106.421 109.417 105.598 108.703C104.572 107.813 102.713 108.267 101.474 108.139L101.476 111.995Z" fill="white"/>
<path d="M94.6384 107.375C94.9882 107.38 95.338 107.39 95.6873 107.405L98.1619 113.685C98.5242 114.609 99.0015 115.939 99.4039 116.801C99.0718 116.797 98.6959 116.816 98.3607 116.825C97.9589 115.915 97.5679 114.839 97.2098 113.901C96.7002 113.871 96.0818 113.884 95.5639 113.882C94.6977 113.872 93.831 113.881 92.9654 113.909C92.7135 114.716 92.232 116.031 91.8988 116.804C91.5521 116.809 91.205 116.808 90.8578 116.8C91.3372 115.701 94.2678 107.654 94.6384 107.375ZM95.1943 113.108L96.9319 113.1C96.7637 112.631 95.1933 108.405 95.1001 108.321C94.5114 109.875 93.9133 111.592 93.2751 113.112L95.1943 113.108Z" fill="white"/>
<path d="M42.6092 107.374L43.6586 107.403C44.5689 109.582 45.3869 111.853 46.2773 114.047C46.6401 114.941 46.983 115.928 47.3741 116.798C47.0361 116.799 46.6794 116.815 46.3398 116.823C45.9482 115.968 45.5275 114.793 45.1755 113.898C44.708 113.877 44.1782 113.885 43.7058 113.882C42.7868 113.881 41.8532 113.869 40.9363 113.91C40.7452 114.577 40.1565 116.168 39.8738 116.806C39.5368 116.812 39.1696 116.803 38.83 116.801C39.4119 115.444 42.2339 107.701 42.6092 107.374ZM43.193 113.108L44.9105 113.101C44.7287 112.611 43.2043 108.459 43.0831 108.321C42.4493 109.892 41.9027 111.541 41.254 113.11L43.193 113.108Z" fill="white"/>
<path d="M57.2019 107.558L58.0763 107.555C58.0506 108.005 58.0582 108.519 58.0671 108.971C58.1195 111.633 57.989 114.343 58.0771 116.998C57.7073 117.007 57.3152 116.981 56.9438 116.963C56.2964 116.207 55.4415 114.988 54.8268 114.165L50.7228 108.683C50.8927 109.61 50.802 110.461 50.8267 111.39C50.8744 113.186 50.7469 115.215 50.8438 116.984L49.9423 116.984L49.9362 107.554L51.004 107.582C51.336 107.901 51.738 108.483 52.0255 108.868L53.6682 111.069L55.9133 114.067C56.3395 114.636 56.8765 115.315 57.2446 115.906C57.1587 114.705 57.1849 113.355 57.1841 112.142C57.1739 110.614 57.1798 109.086 57.2019 107.558Z" fill="white"/>
<path d="M68.1559 107.38L69.0373 107.368C68.9848 107.96 69.0211 109.154 69.0219 109.779L69.027 114.193C69.0275 115 69.0501 116.037 69.0058 116.83C68.6291 116.822 68.2698 116.8 67.8939 116.777C67.2868 116.086 66.4928 114.923 65.9078 114.155C64.4801 112.281 63.1032 110.353 61.652 108.495C61.8305 109.286 61.7793 110.255 61.777 111.083L61.7708 114.606C61.77 115.281 61.7454 116.139 61.8003 116.8L60.8986 116.804C60.8911 115.935 60.8324 107.605 60.9457 107.374C61.2853 107.391 61.6251 107.402 61.965 107.408C62.2827 107.704 63.6505 109.584 63.9961 110.058C65.3584 111.929 66.8825 113.816 68.2028 115.703C68.1087 114.711 68.1417 113.37 68.141 112.352C68.1326 110.694 68.1376 109.037 68.1559 107.38Z" fill="white"/>
<path d="M74.8024 107.402L81.5506 107.392L81.5282 108.065C81.2669 108.531 80.2264 109.823 79.8677 110.288L77.1651 113.796C76.6212 114.503 76.0142 115.256 75.5135 115.985C76.0694 115.946 76.8028 115.981 77.3723 115.974C78.834 115.955 80.3331 116.01 81.7921 115.952C81.7604 116.316 81.7432 116.428 81.7994 116.791C81.4741 116.827 79.9625 116.789 79.5336 116.788C77.796 116.778 76.0585 116.783 74.3215 116.801C74.3563 115.868 74.4417 115.857 75.0273 115.124C76.8414 112.852 78.5414 110.452 80.3799 108.202C78.6408 108.264 76.5067 108.102 74.8154 108.22L74.8024 107.402Z" fill="white"/>
<path d="M83.2028 107.397C85.4036 107.423 87.7502 107.417 89.9515 107.388C89.9484 107.521 89.9468 107.987 89.8875 108.096C89.6059 108.615 89.2004 109.071 88.8417 109.54C87.1963 111.686 85.5171 113.815 83.8972 115.98C85.8455 115.874 88.1614 116.044 90.1915 115.949C90.1504 116.279 90.1623 116.486 90.1717 116.818C89.5111 116.748 88.277 116.782 87.5628 116.782L82.7239 116.8C82.726 116.593 82.7177 116.135 82.8254 115.967C83.347 115.159 84.0523 114.316 84.6457 113.544L88.7574 108.199C87.1234 108.317 84.9232 108.101 83.209 108.22L83.2028 107.397Z" fill="white"/>
<path d="M33.787 107.271C34.2432 107.2 35.1463 107.275 35.5989 107.409C36.7829 107.76 37.3916 108.4 37.9779 109.427C37.6653 109.526 37.4018 109.625 37.0966 109.742C36.7371 109.178 36.295 108.602 35.6671 108.345C34.124 107.716 32.1019 108.151 31.4243 109.805C30.9058 111.082 30.8714 112.726 31.3395 114.024C32.0155 115.897 33.9186 116.533 35.6896 115.816C36.5366 115.394 36.8359 114.932 37.3224 114.171L38.1555 114.498C37.4248 115.786 36.5293 116.648 35.0046 116.867C32.3876 117.248 30.3044 115.667 30.0529 113.03C29.7715 110.079 30.5557 107.675 33.787 107.271Z" fill="white"/>
<path d="M72.5432 107.387L72.6311 107.405C72.7348 107.581 72.6443 115.839 72.6862 116.833L71.8608 116.803L71.8198 116.797C71.7236 116.703 71.7192 116.718 71.7168 116.558C71.6708 113.507 71.7631 110.436 71.6955 107.387H72.5432Z" fill="white"/>
<path d="M89.0499 65.01C89.2077 65.141 89.2259 65.2434 89.3055 65.4405L89.3706 65.456L89.4903 65.2533C89.7646 65.5093 89.3003 69.4789 89.1629 70.1049C89.0494 70.6243 88.0042 72.4012 88.2848 72.7608C88.6533 73.2332 89.8292 73.6518 90.2935 74.0109L90.3919 74.0197C90.4325 74.2877 90.4741 74.2505 90.2815 74.4631C89.5054 74.0487 88.6309 73.5111 87.8694 73.0578L87.8949 72.9269C88.1395 72.811 88.0016 72.1466 88.1832 71.7715C88.4695 71.3092 88.5679 71.0247 88.7262 70.5183C89.2384 69.7535 89.571 66.2628 89.2196 65.4417C89.1738 65.3822 89.0817 65.0989 89.0499 65.01Z" fill="white"/>
<path d="M89.2196 65.4417C89.571 66.2628 89.2384 69.7535 88.7262 70.5183C88.7657 70.0162 89.0083 69.8499 88.7069 69.4112C88.8959 68.6104 88.8719 67.9784 89.2795 67.2806C89.2795 66.6637 89.2097 66.0867 89.2196 65.4417Z" fill="white"/>
<path d="M87.9724 59.9265C88.2166 59.721 89.6022 58.9707 89.9546 58.7741L89.9843 58.8836C89.4169 59.3093 88.6845 59.4831 88.2171 60.0342L88.2114 60.112C88.1973 60.2801 88.2114 60.3963 88.1119 60.5243L87.8819 60.6031C87.8126 60.8689 87.9964 60.702 87.9391 61.1322C87.6705 60.6807 87.5211 60.3837 87.9886 60.0127L87.9724 59.9265Z" fill="white"/>
<path d="M88.0344 71.4564C88.216 71.2382 88.6746 69.7458 88.7069 69.4112C89.0083 69.8499 88.7657 70.0162 88.7262 70.5183C88.5679 71.0247 88.4695 71.3092 88.1832 71.7715C88.1551 71.6571 88.0916 71.563 88.0344 71.4564Z" fill="white"/>
<path d="M88.1697 61.652L88.2499 61.5855C88.2514 61.5867 88.4331 61.7502 88.4206 61.7258C88.6736 62.2355 89.1514 63.5355 89.1468 64.0752C89.0286 64.0001 88.9885 63.9718 88.8818 63.8816C88.7116 63.2473 88.4659 62.1953 88.1697 61.652Z" fill="white"/>
<path d="M87.8949 72.9269C87.9636 72.3738 87.7252 71.9583 88.0344 71.4564C88.0916 71.563 88.1551 71.6571 88.1832 71.7715C88.0016 72.1466 88.1395 72.811 87.8949 72.9269Z" fill="white"/>
</svg>
