<svg width="148" height="148" viewBox="0 0 148 148" fill="none" xmlns="http://www.w3.org/2000/svg">
<path d="M60.4341 31.3951C62.5837 31.1878 63.5394 32.425 64.9417 33.8082L68.7988 37.5776C70.2132 38.9525 70.6839 39.656 72.5421 40.3954C72.9173 40.2695 73.3436 40.151 73.6816 39.9437C74.5006 39.4414 75.1886 38.6703 75.8721 38.0006C77.2109 36.6873 81.5922 31.9685 83.1443 31.5018C83.9421 31.262 84.8098 31.3171 85.5405 31.7327C86.204 32.1108 86.6977 32.7711 86.8983 33.508C87.1162 34.3028 87.0009 35.1526 86.5788 35.8598C85.6757 37.3873 83.9394 37.574 82.3292 38.0068C86.6742 37.7947 92.1818 37.9465 96.6012 37.9467L96.6057 79.8375C96.6057 82.8727 96.6393 85.6938 96.3362 88.7195C95.7925 94.1479 93.8002 95.1162 88.9551 96.2922C84.8053 97.2769 75.5998 98.6526 72.549 101.161C70.2139 99.1285 66.476 98.6771 63.5421 97.8912C61.7846 97.4204 59.9625 97.0701 58.1714 96.6243C56.0902 96.12 52.3947 95.8073 50.893 94.152C48.1271 91.1034 48.4958 83.784 48.4936 79.9255L48.5002 37.9539L56.8724 37.9509C58.7981 37.9511 60.8813 37.9144 62.7928 38.0202C61.0637 37.4111 58.9206 37.3744 58.2271 35.2372C57.9813 34.4779 58.0515 33.6512 58.4219 32.9447C58.8703 32.0915 59.5453 31.6727 60.4341 31.3951ZM50.3242 53.585C52.3706 53.5928 55.0958 53.6759 57.0859 53.5846C57.2036 50.9399 57.0524 48.1609 57.1297 45.511C59.2036 45.733 60.2787 46.3836 61.128 48.3653C62.0082 46.3339 62.9964 45.7656 65.122 45.5164C65.1363 47.8917 65.0547 51.3155 65.198 53.5986L79.7796 53.594C79.9348 52.6933 79.874 51.5789 79.883 50.6475C79.8985 48.9418 79.8458 47.212 79.8867 45.5071C82.0524 45.7707 82.9346 46.349 83.8767 48.3465C84.1499 47.771 84.4159 47.1756 84.877 46.7228C85.9163 45.8009 86.4953 45.6314 87.8822 45.502C87.8859 47.873 87.7888 51.3099 87.934 53.596L94.7732 53.5961C94.7723 49.1139 94.677 44.2268 94.7795 39.7774L87.2787 39.7763C81.2346 39.7808 78.3428 40.1582 72.5369 42.3653C70.1682 41.3827 67.1513 40.3249 64.6035 40.0469C59.9555 39.5395 54.9928 39.8446 50.3141 39.774L50.3242 53.585ZM72.5447 98.708C74.8183 97.3191 78.3355 96.7362 80.9831 96.1626L87.5174 94.7395C90.4509 94.0893 93.5887 93.6984 94.2831 90.2321C94.8549 87.377 94.7378 84.5455 94.7705 81.6486C94.7795 81.0948 94.8086 79.5168 94.745 79.0703L94.5844 79.0178L57.6451 91.9354C56.4847 92.3401 54.1441 93.0842 53.1174 93.5569C54.7612 94.1012 56.003 94.3301 57.6922 94.6488C59.3598 94.9858 61.6707 95.5459 63.3386 95.9691C65.7544 96.5819 70.6235 97.3976 72.5447 98.708ZM72.2647 61.4652C68.2661 62.0625 68.9019 66.0137 68.9054 69.0575L68.9193 76.3704L50.3133 76.3749C50.3126 80.6079 50.0589 87.4376 51.2255 91.3701L84.0728 79.8392C87.0817 78.7849 91.0128 77.5372 93.93 76.3807C88.0021 76.3577 81.9825 76.438 76.0664 76.3671L76.0718 69.1583C76.0772 67.6857 76.1843 65.8605 75.9465 64.426C75.6497 62.6393 74.1049 61.3935 72.2647 61.4652Z" fill="white"/>
<path d="M87.3004 104.422C89.9708 104.191 91.3804 105.476 91.3132 108.121C91.3032 108.539 91.453 109.696 90.961 109.849C90.0579 109.257 89.9063 104.198 87.0971 105.708C86.3002 106.137 85.7247 107.241 85.5133 108.079C84.4912 112.121 84.1318 117.353 85.8173 121.259C86.8965 123.692 90.1278 124.405 91.0472 121.223C90.7995 120.322 90.5517 119.395 90.3783 118.478L88.7981 118.456C88.6982 119.253 88.4659 121.821 88.0901 122.371C87.7897 122.485 87.7352 122.516 87.4184 122.488C87.1661 122.062 88.8589 112.815 89.1675 111.622C89.2247 111.398 89.9544 110.75 90.1868 110.537C91.2397 113.867 91.6372 117.342 92.5004 120.716C92.593 120.999 92.632 121.521 92.7754 121.773C93.536 123.112 94.5926 122.496 94.8984 121.302C95.4975 118.959 93.4544 117.875 92.3761 116.192C91.8024 115.297 91.5964 113.907 91.8423 112.874C92.091 111.953 92.6266 111.366 93.4353 110.895C94.5281 110.809 94.5907 110.92 95.6327 111.198C95.7525 111.23 96.6684 111.22 96.8399 111.22L108.005 111.201C109.438 111.201 111.911 111.105 113.288 111.25C112.707 111.43 112.394 111.469 111.803 111.546C111.794 113.668 111.733 116.726 111.852 118.881C111.863 119.073 112.189 119.299 112.374 119.343C113.599 119.638 113.718 117.754 114.33 117.474C114.49 117.185 114.563 115.116 114.901 114.269C115.276 113.204 115.865 111.852 116.969 111.344C119.11 110.359 120.494 111.95 121.315 113.654C121.52 114.219 121.695 114.808 121.824 115.437C122.421 117.887 121.535 122.899 118.596 123.391C115.624 123.888 114.729 119.75 114.388 117.759C114.305 118.464 114.204 119.167 114.085 119.868C113.308 119.913 112.3 119.89 111.505 119.894C111.51 120.84 111.342 122.216 111.21 123.167L104.268 123.189C103.361 123.184 102.213 123.285 101.343 123.195L101.229 123.031C101.429 122.723 101.761 122.747 101.962 122.503C102.305 122.086 102.248 112.852 102.09 111.942C101.916 111.72 101.818 111.715 101.542 111.626C101.008 111.87 101.558 113.305 101.126 113.869L100.956 113.889C100.169 113.422 100.887 112.803 100.197 112.225C99.896 112.175 99.8597 112.178 99.5747 112.284C99.3441 112.699 99.4957 121.391 99.523 122.49C99.8878 122.577 100.456 122.582 100.486 123.006C99.9831 123.337 97.1485 123.362 96.6838 123.024L96.7156 122.858C96.9906 122.584 97.399 122.526 97.783 122.432C97.8347 121.487 97.9218 112.725 97.7975 112.311C96.7682 111.74 96.7392 113.295 96.4233 113.806C95.0763 114.701 95.1099 112.365 94.7523 111.738C94.5181 111.333 93.8483 111.465 93.6014 111.781C91.8687 113.995 94.6316 115.85 95.65 117.53C96.7174 119.213 96.2173 122.676 94.048 123.228C93.5742 123.348 91.9431 123.178 91.3068 123.178C90.7332 123.788 90.2167 124.138 89.4153 124.395C85.9852 125.496 83.4982 122.978 82.5824 119.879C81.5023 116.224 81.4361 111.836 83.1951 108.375C84.0737 106.647 85.4116 105.017 87.3004 104.422ZM118.5 122.93C121.172 121.238 121.031 111.5 117.923 111.507C115.498 112.986 115.605 120.047 117.174 122.272C117.526 122.771 117.889 122.925 118.5 122.93ZM103.773 111.712C103.707 113.206 103.747 114.967 103.745 116.481C104.123 116.475 104.275 116.479 104.649 116.399C104.805 115.994 104.845 114.972 105.217 114.833C105.394 115.074 105.28 116.672 105.268 117.11C105.305 118.076 105.33 118.481 105.231 119.419C104.942 118.618 104.77 118.089 104.779 117.214L104.727 117.01C104.453 116.882 104.071 116.932 103.753 116.941C103.741 118.422 103.729 119.91 103.728 121.391C103.728 121.686 103.707 122.524 104.054 122.65C104.293 122.738 104.819 122.767 105.071 122.674C105.987 122.134 105.867 120.627 106.365 119.779C106.378 119.752 106.392 119.725 106.407 119.698C106.46 120.46 106.324 122.342 106.595 122.692C106.869 122.669 106.781 122.679 107.035 122.485C107.495 121.62 107.066 114.025 107.198 112.546C107.219 112.315 107.058 111.851 106.852 111.686C106.754 111.672 106.424 111.618 106.365 111.671C105.881 112.101 106.532 113.604 105.761 113.842L105.642 113.759C105.618 113.05 105.431 112.354 105.267 111.664C104.79 111.647 104.255 111.687 103.773 111.712ZM89.8274 117.578L90.1287 117.498C90.2558 117.033 89.7212 114.891 89.4234 114.571C89.3581 114.976 88.9297 117.244 88.9496 117.492C89.2483 117.618 89.506 117.587 89.8274 117.578ZM109.77 111.622C109.467 111.671 109.167 111.682 108.958 111.902C108.553 112.75 108.965 119.731 108.835 121.192C108.699 122.713 110.103 122.829 110.661 121.58C110.877 120.999 111.064 120.508 111.224 119.906C110.477 119.91 109.507 119.945 108.79 119.839C109.261 119.678 109.734 119.521 110.208 119.368C110.271 118.417 110.337 112.362 110.169 111.666C109.976 111.579 109.984 111.588 109.77 111.622Z" fill="white"/>
<path d="M104.779 117.214L104.891 117.1L105.268 117.11C105.305 118.076 105.33 118.481 105.231 119.419C104.942 118.618 104.77 118.089 104.779 117.214Z" fill="white"/>
<path d="M32.0599 104.71C34.8368 104.554 35.8175 107.145 35.498 109.457C35.4572 109.753 35.3759 109.993 35.1301 110.169C34.4298 109.742 33.8744 104.628 31.4334 106.012C28.8572 107.474 28.9174 113.143 28.863 115.655C28.8005 118.546 29.6716 124.597 33.7729 123.557C34.691 123.324 35.0462 122.248 35.2804 121.451C35.0114 120.466 34.7684 119.434 34.5201 118.442L32.9839 118.455C32.8897 119.247 32.6626 121.835 32.2578 122.366C31.9616 122.474 31.9084 122.501 31.5969 122.48C31.3574 122.109 33.0599 112.678 33.3745 111.545C33.4434 111.297 34.0901 110.806 34.3462 110.603C34.7192 111.361 35.041 112.762 35.2593 113.597C35.8473 115.848 36.2404 118.188 36.8415 120.432C36.9989 117.957 36.9268 114.646 36.8326 112.152C36.4275 111.991 36 111.887 35.852 111.449C36.2391 111.106 37.4425 111.206 38.0365 111.195C39.0373 113.624 40.3976 116.397 41.4802 118.872C41.5395 117.114 41.5528 113.97 41.4439 112.162C41.4329 111.98 40.9322 111.766 40.7466 111.434L40.8728 111.26C41.2922 111.18 44.0137 111.225 44.6148 111.225L53.603 111.229C54.0007 111.939 54.497 113.149 54.8407 113.926L57.0177 118.894C57.067 116.893 57.155 114.762 57.0891 112.763C57.0551 111.727 56.5947 111.88 56.1439 111.51L56.1528 111.341C56.506 111.086 58.1379 111.185 58.6521 111.215L58.7518 111.339C58.6212 111.627 58.3579 111.67 58.0125 111.898C57.683 112.328 57.8526 119.918 57.8634 121.157C58.3402 118.877 58.7551 116.236 59.1799 113.914C59.5328 112.28 59.3156 111.498 60.6832 110.543C61.0873 111.464 61.4407 113.117 61.6982 114.158C62.146 115.951 62.5831 117.747 63.0094 119.545C63.2174 120.448 63.4174 121.448 63.6925 122.336C63.7803 122.619 64.0448 122.721 64.3231 122.839L64.3874 122.865L64.3726 122.97C63.9035 123.283 61.4285 123.524 61.154 123.035C61.2737 122.731 61.517 122.641 61.8117 122.466C61.5893 121.278 61.0848 119.57 60.7763 118.34L59.5529 118.333L58.8786 122.557C59.1933 122.657 59.6225 122.724 59.6943 123.068C59.2908 123.353 57.4526 123.29 56.8227 123.314L54.7195 118.072C54.3134 117.062 53.7629 115.576 53.2768 114.648C53.1144 116.688 53.2485 119.92 53.2182 122.03C53.2109 122.546 53.9816 122.673 54.0405 123.135C53.6735 123.375 50.2422 123.209 49.4965 123.199C48.7164 123.19 44.1406 123.376 43.7935 123.051C43.97 122.615 44.5455 122.54 44.956 122.444C45.0229 121.569 45.023 112.651 44.8938 112.27L44.7309 112.203C44.2162 112.383 43.9102 113.473 43.5754 114.075C43.5026 114.057 43.4147 114.036 43.3117 114.013C43.1419 113.363 43.4405 112.027 42.9698 111.561L42.7654 111.594C42.5215 111.829 42.415 112.233 42.3752 112.569C42.2107 113.96 42.6746 123.198 42.1934 123.647C41.9157 123.581 41.7793 123.501 41.6361 123.235C40.1917 120.556 39.2081 117.462 37.7615 114.805C37.5952 116.689 37.6541 120.085 37.7047 122.039C37.7208 122.657 38.3247 122.842 38.8992 123.249C38.0668 123.316 36.5367 123.276 35.6253 123.29C35.0266 124.042 34.8956 124.277 33.9738 124.609C29.1774 126.335 26.8256 122.025 26.2292 117.959C25.6752 114.183 26.0281 110.351 28.3727 107.178C29.3868 105.805 30.3234 104.983 32.0599 104.71ZM46.6405 121.608C46.6683 122.091 46.5975 122.179 46.8226 122.536C47.3747 122.787 48.5475 122.904 48.9597 122.339C49.1115 121.311 49.2362 112.378 48.9319 112.003C48.8387 111.887 48.6857 111.804 48.5601 111.728C48.5633 112.221 48.641 113.564 48.3198 113.894C47.6548 113.547 47.8551 111.92 46.8012 112.229C46.4611 112.692 46.626 120.393 46.6405 121.608ZM51.5194 122.781C51.821 122.719 52.124 122.694 52.3029 122.413C52.5319 122.053 52.6021 112.803 52.3985 112.105C52.3545 111.954 52.2278 111.847 52.0861 111.785C51.8412 111.676 51.5043 111.687 51.2408 111.692C51.0197 111.876 50.8487 111.96 50.8502 112.292C50.8569 113.718 50.6574 121.686 50.9222 122.526C51.1525 122.708 51.2305 122.713 51.5194 122.781ZM34.0843 117.54L34.3171 117.496C34.4324 117.064 33.8862 114.887 33.6252 114.581C33.4512 115.545 33.2723 116.509 33.0884 117.471C33.2448 117.606 33.8183 117.544 34.0843 117.54ZM60.4973 117.437L60.6922 117.392C60.7524 116.982 60.2502 114.713 59.9751 114.412C59.8956 114.879 59.4877 117.075 59.5228 117.398C59.8897 117.43 60.1294 117.442 60.4973 117.437Z" fill="white"/>
<path d="M72.0455 23.0194C72.402 22.9985 72.7505 22.9738 73.0961 23.0672C76.8651 24.0862 75.1405 28.6804 74.5723 31.1185L72.6852 39.1019L72.6491 39.3212L72.564 39.344C71.9623 37.2962 71.3543 34.6843 70.9033 32.5858C70.2455 29.5251 67.7611 24.2521 72.0455 23.0194Z" fill="white"/>
<path d="M68.6402 106.723C69.4169 106.71 69.9697 106.71 70.742 106.773L70.7417 121.922C71.2166 122.101 71.3765 122.184 71.5892 122.684C71.466 123.445 70.1143 123.29 69.5528 123.223C69.2554 123.188 69.2298 123.009 69.0826 122.763C68.8938 122.749 68.0686 123.223 67.473 123.341C63.6352 124.111 64.2966 114.697 69.0236 115.743C68.9863 113.193 69.0607 110.624 68.9949 108.075C68.7024 107.758 68.331 107.587 68.2174 107.197C68.361 106.867 68.3266 106.959 68.6402 106.723ZM68.4567 121.96C69.7903 121 69.6625 116.731 68.0428 116.506C67.9764 116.498 67.9097 116.489 67.8429 116.484C67.1983 117.067 66.9778 117.856 66.9848 118.711C66.9943 119.883 66.7802 122.12 68.4567 121.96Z" fill="white"/>
<path d="M78.9727 26.2268C80.8642 26.2733 82.144 27.4229 82.0968 29.3677C82.0542 31.0859 80.2543 32.5453 79.1206 33.7203L74.6931 38.3008C74.1712 38.8306 73.624 39.4441 73.113 39.993C73.7299 37.8021 75.8176 28.6772 76.7425 27.4435C77.3053 26.6928 78.0695 26.3601 78.9727 26.2268Z" fill="white"/>
<path d="M65.8186 26.2251C68.4545 26.2876 68.8399 28.0897 69.4387 30.1701C70.3615 33.3759 71.0465 36.7488 72.0325 39.9248L70.6642 38.5298C69.1649 36.8077 67.3693 35.2025 65.8272 33.506C64.7371 32.3067 63.3153 31.3265 63.0716 29.6065C62.9602 28.8097 63.171 28.0013 63.657 27.3612C64.2161 26.6167 64.9357 26.3468 65.8186 26.2251Z" fill="white"/>
<path d="M73.8792 115.824C75.2213 115.851 75.7768 116.619 76.1244 117.902C76.2107 118.218 76.1753 118.473 75.9901 118.751C75.5944 119.085 73.5054 118.973 72.879 118.98C72.8742 120.67 73.2051 122.792 75.6307 121.622C75.8531 121.515 75.9039 121.186 76.1862 121.13L76.2388 121.381C75.7187 123.006 74.0967 123.838 72.7339 122.842C70.721 121.369 70.9923 116.224 73.8792 115.824ZM74.2029 118.363C75.441 118.061 74.9717 116.459 73.6246 116.424C73.1633 116.702 72.5526 117.366 72.7923 117.95C73.0232 118.512 73.7091 118.388 74.2029 118.363Z" fill="white"/>
<path d="M75.9883 116.019C76.6354 115.957 79.205 115.996 79.8921 116.024C79.4165 116.167 79.0117 116.218 78.5243 116.291C78.5152 117.315 78.2928 122.036 78.7666 122.579C80.1127 123.197 80.1644 121.691 80.8579 121.016L80.9623 121.132L80.9414 121.389L80.8642 123.172C80.1227 123.176 76.4094 123.334 76.0536 123.087C76.2615 122.866 76.6019 122.835 76.9168 122.763C77.0439 121.553 76.9804 117.594 76.9286 116.312C76.5583 116.264 76.2243 116.267 75.9883 116.019Z" fill="white"/>
</svg>
