<svg width="148" height="148" viewBox="0 0 148 148" fill="none" xmlns="http://www.w3.org/2000/svg">
<path d="M114.98 28.0312C115.19 28.1185 115.523 28.1921 115.738 28.2539C117.678 28.8092 119.326 30.4749 119.811 32.4414C119.855 32.622 119.934 32.9318 120 33.1035V90.54C119.797 90.0896 119.584 89.4027 119.421 88.9199L118.542 86.3223L110.819 63.5986C110.014 61.2301 109.049 58.6105 108.329 56.251C107.858 56.2498 107.357 56.2569 106.889 56.2461L96.4707 85.7998C95.9887 87.1653 95.4689 88.7566 94.9492 90.0938L83.3594 90.0947L83.3496 74.3135C87.5224 74.3081 91.8581 74.2483 96.0156 74.3135L96.0146 73.085C92.5382 73.0117 89.0304 73.1132 85.5508 73.0732C84.8273 73.0652 84.0833 73.0663 83.3594 73.082L83.3545 57.9795H96.0156V56.748L81.3037 56.7441C78.6403 56.7442 75.889 56.7082 73.2314 56.748L73.2344 57.9824C74.64 57.9816 76.0713 57.9949 77.4746 57.9775L77.4727 79.7441C77.4727 83.5769 77.4288 87.5123 77.4805 91.3369L89.4766 91.332C91.6126 91.332 93.9399 91.2882 96.0615 91.3457C97.3427 87.7462 98.5883 84.0989 99.9014 80.5146H110.537L112.768 87.6055C113.125 88.7429 113.633 90.2049 113.93 91.3369L120 91.333V114.896C119.87 115.303 119.781 115.69 119.633 116.092C118.952 117.942 117.455 119.263 115.571 119.814C115.384 119.869 115.131 119.932 114.953 120H33.0488C32.7848 119.866 31.987 119.681 31.5479 119.478C30.1079 118.818 28.9746 117.633 28.3809 116.165C28.2365 115.816 28.1641 115.342 28.0312 114.99L28 114.909V33.1348C28.1001 32.9187 28.2445 32.2692 28.3457 31.9863C28.9087 30.4133 29.9783 29.2555 31.4805 28.5312C31.9943 28.2836 32.6366 28.2247 33.085 28H114.907L114.98 28.0312ZM71.3076 65.0654C70.781 58.9299 66.5857 55.5016 60.4941 55.8691C57.8 56.1691 55.5387 57.5458 53.8623 59.6611C51.9889 62.0535 51.4131 64.5139 51.7246 67.4854C52.1962 71.9832 55.1339 74.5476 59.3799 75.583C63.6095 76.614 69.4335 75.9806 70.1133 81.6367C70.684 86.3865 68.0964 90.3404 63.2197 90.9033C57.1694 91.6845 54.4707 87.1021 53.8828 81.8086C53.8443 81.4685 53.8193 81.1265 53.8066 80.7842L50.7539 80.7852C51.2993 86.1487 53.8953 90.9047 59.5908 92.0273C66.4111 93.1261 72.0059 89.578 73.0205 82.6025C73.4759 79.4685 73.171 76.5796 71.2246 73.9473C69.8541 72.1303 67.9576 70.7782 65.793 70.0752C64.4802 69.6384 63.2037 69.4812 61.8486 69.2686C59.1432 68.844 55.7138 68.4971 54.8574 65.3867C54.6418 64.5997 54.5894 63.7769 54.7021 62.9688C55.2272 59.3282 58.779 56.4597 62.4209 57.1738C64.1499 57.5129 65.4066 58.1561 66.4639 59.6162C67.4377 60.9021 68.1798 63.4369 68.2598 65.0732L71.3076 65.0654ZM105.501 64.9648C105.722 65.6566 106.273 67.3982 106.466 68.0088L108.729 75.166C109.153 76.5046 109.639 77.9526 110.017 79.293C108.406 79.2535 106.673 79.2846 105.053 79.2842C103.489 79.2833 101.913 79.2726 100.351 79.291L104.801 66.5684C104.946 66.1487 105.222 65.2753 105.399 64.8994C105.433 64.9213 105.467 64.943 105.501 64.9648Z" fill="white"/>
</svg>
