<svg width="148" height="148" viewBox="0 0 148 148" fill="none" xmlns="http://www.w3.org/2000/svg">
<path d="M96.5141 42.0003C96.4667 42.0011 96.419 42.0048 96.3717 42.0083C95.2454 42.3112 94.282 43.089 93.5804 44.0124C91.7319 46.1584 90.6289 48.8242 89.674 51.4686C89.1686 53.1872 88.6829 54.9181 88.389 56.6888C87.969 59.0058 87.869 61.3645 87.4164 63.677C87.1071 65.1629 86.722 66.6298 86.3845 68.1091C86.0118 69.2939 85.5941 70.5875 84.5499 71.3452C84.0273 71.7662 83.3275 71.8652 82.6837 71.7533C82.0018 71.4877 81.6686 70.7818 81.3829 70.1532C81.3695 69.7598 81.3502 69.3695 81.292 68.9812C81.4086 66.2231 81.8562 63.4548 82.8854 60.8849C83.6791 58.629 84.6729 56.4566 85.487 54.2087C86.0232 52.7439 86.3696 51.1457 86.0286 49.5926C85.8064 48.5691 85.108 47.5782 84.0794 47.2805C82.884 46.9946 81.6197 47.4945 80.7622 48.3405C80.1094 49.0939 79.6203 49.9756 79.1649 50.8606C77.0343 54.8635 76.1715 59.4064 75.6974 63.885C75.6254 64.4601 75.686 65.0516 75.5353 65.6171C75.4655 66.5686 75.5682 67.5272 75.4681 68.4772C75.2569 69.808 75.4438 71.1588 75.3455 72.4973C75.1283 74.2349 74.6476 75.9483 73.8391 77.5014C73.3401 78.3992 72.7326 79.3147 71.7476 79.7135C71.1023 79.1539 71.0915 78.2518 71.1703 77.4654C71.4084 75.5576 71.9728 73.7104 72.5858 71.8973C72.7896 70.5965 72.6897 69.0803 71.7001 68.1091C71.1694 67.5222 70.2812 67.5428 69.5849 67.7531C68.573 68.0176 67.8056 68.7894 67.1572 69.5772C66.143 70.9084 65.7614 72.5766 65.378 74.1773C64.6932 76.7224 64.2815 79.3359 63.9823 81.9536C63.8698 82.701 63.9867 83.4626 63.8637 84.2096C63.6806 85.112 63.9972 86.0117 63.9389 86.9217C64.1101 88.3322 64.4162 89.8661 65.4413 90.9139C66.1961 91.6715 67.3307 91.7477 68.3276 91.6019C69.361 91.3441 70.1815 90.6214 70.9687 89.9378C72.5593 88.2799 73.7752 86.3082 74.8948 84.3056C75.0927 83.8846 75.6571 83.3549 76.0612 83.8536C76.5764 84.4811 76.6706 85.4197 77.3422 85.9377C78.2689 86.5488 79.4927 86.5266 80.5013 86.1457C82.3368 85.3435 83.625 83.683 84.7042 82.0416C85.3994 80.9846 85.8429 79.7942 86.4478 78.6895C87.2637 79.5949 87.1713 80.9836 88.0728 81.8416C88.5382 81.9044 89.0725 82.1366 89.4882 81.7976C90.2782 81.2058 90.6317 80.2271 91.0065 79.3455C91.6059 77.9545 91.9867 76.4853 92.3943 75.0293C92.5914 74.3157 92.6018 73.5214 93.0308 72.8933C93.2532 72.605 93.6649 72.6266 93.9837 72.5333C94.3464 72.9907 94.6341 73.5223 94.6875 74.1173C94.7784 75.1791 94.9132 76.267 95.3794 77.2374C95.785 78.0918 96.589 78.77 97.5263 78.9215C98.6595 79.0237 99.8203 78.9914 100.911 78.6295C102.769 78.1872 104.358 76.7496 104.995 74.9293C105.097 74.6131 105.329 74.3765 105.568 74.1613C106.187 74.6438 106.771 75.2181 107.533 75.4654C108.738 75.8152 110.036 75.6476 111.222 75.2934C113.313 74.6047 114.913 72.9795 116.303 71.3252C116.787 70.7782 117.19 70.1476 117.813 69.7452C118.115 70.245 118.351 70.7915 118.719 71.2492C119.15 71.6567 119.754 71.785 120.324 71.8492C122.141 71.9413 123.818 71.0619 125.246 70.0092C126.562 68.9968 127.832 67.9117 128.987 66.7131C130.608 64.8575 132.292 62.985 133.336 60.7169C133.714 60.0082 133.982 59.2241 134 58.4128C133.987 57.7323 133.363 57.02 132.656 57.1728C131.622 57.5104 130.95 58.4138 130.196 59.1448C129.402 59.8927 128.743 60.773 127.99 61.5609C127.28 62.5488 126.244 63.2904 125.049 63.525C124.664 63.3611 124.238 63.2453 123.942 62.9329C123.511 62.5263 123.396 61.8486 123.605 61.3009C124.261 59.2941 125.468 57.3802 125.29 55.1847C125.091 54.8586 124.934 54.4802 124.61 54.2607C123.912 53.6864 122.952 53.8333 122.123 53.8767C121.403 54.1222 120.78 54.6352 120.359 55.2727C119.27 56.8152 118.655 58.6237 117.956 60.3649C117.448 61.575 117.106 62.8878 116.295 63.941C115.662 64.6986 114.842 65.3856 113.851 65.561C112.658 65.77 111.431 64.7775 111.368 63.557C111.208 62.0127 111.96 60.5544 112.839 59.3488C114.63 57.1882 117.17 55.9138 119.426 54.3367C120.612 53.4779 121.935 52.5793 122.431 51.1166C122.725 50.3915 122.475 49.5874 122.095 48.9485C121.55 47.9049 120.352 47.3369 119.217 47.3485C117.607 47.487 116.114 48.2323 114.824 49.1845C113.253 50.3465 111.799 51.6827 110.566 53.2087C108.902 55.1093 107.455 57.217 106.383 59.5168C105.819 60.628 105.361 61.8104 105.252 63.065C105.13 64.8394 104.595 66.5508 104.022 68.2211C103.624 69.2779 103.177 70.3364 102.476 71.2292C102.28 71.2234 102.089 71.2205 101.895 71.2172C101.249 70.7395 100.667 70.1758 100.171 69.5412C99.8335 69.0772 99.3234 68.8009 98.8626 68.4851C100.391 67.2596 101.85 65.9226 103.038 64.349C104.469 62.5579 105.682 60.4549 105.904 58.1208C105.956 56.9349 105.612 55.6619 104.754 54.8167C103.916 54.1129 102.727 53.856 101.67 54.0887C100.212 54.3299 98.8351 54.9665 97.6409 55.8367C96.4818 56.5827 95.4198 57.4912 94.5807 58.5968C94.533 58.3837 94.4557 58.1731 94.4739 57.9528C94.6631 56.6033 95.3491 55.4103 95.8736 54.1767C96.6485 52.8011 97.3171 51.3662 98.0126 49.9485C98.6914 48.3212 99.5027 46.6439 99.3766 44.8284C99.5159 43.2575 97.984 41.9768 96.5141 42.0003ZM64.0852 53.7127C63.8508 53.709 63.6162 53.7305 63.3853 53.7767C60.6435 54.0997 58.208 55.7134 56.3515 57.7128C54.4762 59.4906 52.9662 61.6252 51.69 63.873C51.2569 64.6652 50.8183 65.474 50.6462 66.3731C50.5121 66.5035 50.376 66.6333 50.2429 66.7651C49.5872 65.9636 49.3877 64.827 48.531 64.193C47.3521 63.2355 45.6385 63.2998 44.336 63.957C43.1713 64.47 42.0314 65.3553 41.77 66.6851C41.5766 66.6885 41.3848 66.6937 41.1927 66.6971C40.5943 65.5756 41.0334 64.2706 40.8211 63.069C40.6743 61.2707 40.3835 59.4495 39.627 57.8008C39.0684 56.7216 38.3273 55.6754 37.2429 55.0887C35.3626 53.9545 32.9874 54.1173 31.0315 54.9647C28.8288 55.9995 26.9838 57.6932 25.4804 59.6009C23.6618 61.7888 22.2092 64.2545 20.8663 66.7611C18.58 71.2389 16.7298 75.9427 15.3389 80.7815C14.558 83.6916 13.7086 86.6939 14.0974 89.7378C14.2661 90.667 14.3763 91.6573 14.9237 92.4539C15.1946 92.8465 15.6287 93.0663 16.0268 93.3019C16.5902 93.2923 17.1871 93.3172 17.6914 93.0179C18.6432 92.46 19.4008 91.5678 19.8067 90.5338C20.0396 89.9154 20.0102 89.2455 20.1111 88.6018C20.3412 86.6251 20.8589 84.7032 21.2893 82.7656C22.2006 79.207 23.1983 75.6435 24.7331 72.3012C25.5722 70.4137 26.8772 68.6732 28.6908 67.6571C29.2777 67.3423 29.9586 67.0728 30.6282 67.2691C31.6358 67.5305 32.2885 68.4882 32.5972 69.4412C33.2094 71.2464 33.2711 73.1858 33.2535 75.0773C33.2881 75.9358 33.0676 76.7777 33.1072 77.6374C32.7507 82.6505 31.6546 87.5756 30.391 92.4259C29.7685 94.9075 29.0091 97.3566 28.588 99.8861C28.4136 100.78 28.4902 101.696 28.4773 102.602C28.4742 103.537 28.8813 104.406 29.363 105.182C30.6927 106.231 32.7129 106.295 34.0522 105.234C35.2642 104.138 35.8347 102.539 36.3414 101.022C36.7509 99.3746 37.1719 97.7234 37.4208 96.042C37.966 91.1962 38.2165 86.291 39.3858 81.5416C39.8539 79.9768 40.3633 78.3049 41.5999 77.1734C42.0296 76.7589 42.6683 76.4071 43.2605 76.6854C43.9775 76.9659 44.4281 77.6588 44.6641 78.3694C44.779 79.0716 44.643 79.7813 44.5218 80.4735C44.342 81.5445 44.1266 82.612 43.9169 83.6776C43.7252 84.7157 43.4959 85.744 43.3001 86.7817C42.9732 88.4327 42.6452 90.0849 42.3472 91.7419C42.2941 92.0125 42.2513 92.2833 42.2088 92.5579C41.9531 94.0797 41.7522 95.6116 41.5841 97.146C41.4624 98.5005 41.918 99.9726 42.9719 100.862C43.6394 101.509 44.6342 101.717 45.5221 101.51C46.4789 101.26 47.1818 100.477 47.7204 99.6821C48.8401 97.7584 49.1547 95.499 49.3296 93.3099C49.3744 91.1121 49.6062 88.9209 49.7724 86.7297C50.1512 83.7007 50.5586 80.6707 51.2433 77.6934C51.6842 75.8632 52.1819 74.0194 53.1213 72.3773C53.6172 71.4876 54.4403 70.7066 55.462 70.5292C56.0335 70.4144 56.4968 70.8725 56.8023 71.3012C57.2241 72.1777 57.1197 73.1852 57.0949 74.1293C56.7437 76.7712 55.5613 79.1911 54.8768 81.7456C54.0666 84.5769 53.4917 87.4908 53.3862 90.4419C53.2434 91.2853 53.2733 92.1462 53.3981 92.9899C53.4439 95.2318 53.9148 97.4421 54.5407 99.5861C54.7306 100.372 54.9218 101.158 55.2326 101.906C55.763 102.769 56.4149 103.602 57.3163 104.09C58.1894 104.611 59.2155 104.815 60.2223 104.754C61.7112 104.829 63.2894 104.029 63.8954 102.606C64.4316 101.516 64.2205 100.234 63.8282 99.1341C62.4464 95.2724 61.9909 91.1498 61.7366 87.0777C61.7817 84.7807 61.6284 82.4758 61.8829 80.1895C62.1049 77.398 62.6045 74.6142 63.4368 71.9413C65.0687 67.4993 66.8898 63.0257 67.2838 58.2568C67.4133 57.3375 67.2527 56.4112 67.0308 55.5208C66.7526 54.5283 65.8148 53.7783 64.785 53.7887C64.5542 53.7438 64.3195 53.7164 64.0852 53.7127ZM72.7558 57.5448C72.3736 57.5517 71.9912 57.6424 71.6488 57.7968C69.7895 58.5649 68.4983 60.5707 68.545 62.597C68.5192 63.2708 68.8785 63.8591 69.2093 64.413C69.6718 64.6234 70.1619 64.7538 70.6564 64.865C72.3154 64.7002 73.9988 63.8209 74.7446 62.253C75.0421 61.4585 75.3512 60.5843 75.1479 59.7289C75.0176 59.0537 74.7186 58.3519 74.1357 57.9568C73.7355 57.661 73.2472 57.536 72.7558 57.5448ZM97.21 62.337C97.2898 62.3376 97.3673 62.341 97.4472 62.349C97.4485 62.3491 97.4498 62.3488 97.4511 62.349C97.4525 62.3491 97.4538 62.3488 97.4551 62.349C97.5337 62.357 97.6139 62.3695 97.6923 62.385C97.8927 62.6268 98.0905 62.872 98.2854 63.121C98.2553 63.2229 98.22 63.3195 98.1826 63.417C98.1821 63.4181 98.1831 63.4198 98.1826 63.421C97.7702 64.4917 96.9287 65.2973 95.9645 65.8891C95.789 65.9968 95.6087 66.0993 95.4268 66.1931C95.2449 66.2869 95.062 66.3726 94.8772 66.4531C94.6609 66.5467 94.4375 66.6043 94.209 66.6371C94.0565 66.6592 93.9012 66.6711 93.7465 66.6771C93.5146 66.6856 93.2805 66.6804 93.0506 66.6771C93.0694 66.5897 93.0919 66.5 93.1138 66.4131C93.1141 66.4118 93.1136 66.4103 93.1138 66.4091C93.1358 66.3221 93.1598 66.2354 93.185 66.1491C93.1854 66.1479 93.1846 66.1463 93.185 66.1451C93.2871 65.7961 93.4168 65.4538 93.5725 65.125C93.573 65.124 93.572 65.1221 93.5725 65.1211C93.7289 64.7913 93.9136 64.4787 94.126 64.185C94.2322 64.0381 94.3455 63.8959 94.466 63.761C94.6462 63.5595 94.8421 63.3702 95.0552 63.201C95.1265 63.1444 95.2015 63.0895 95.2766 63.037C95.3233 62.9996 95.3742 62.9679 95.4229 62.933C95.4623 62.9047 95.5008 62.8755 95.5415 62.849C95.5974 62.8125 95.6536 62.774 95.7115 62.741C95.7362 62.7269 95.7615 62.7144 95.7866 62.701C95.8128 62.687 95.8392 62.6743 95.8657 62.661C95.8986 62.6446 95.9311 62.6283 95.9645 62.613C95.9672 62.6117 95.9697 62.6102 95.9724 62.609C96.0377 62.5791 96.1031 62.5503 96.1701 62.525C96.1803 62.5212 96.1916 62.5207 96.2018 62.517C96.2792 62.4887 96.3558 62.4629 96.435 62.441C96.5189 62.4178 96.6065 62.3966 96.692 62.381C96.7774 62.3654 96.8625 62.3567 96.949 62.349C97.0356 62.3413 97.1228 62.3363 97.21 62.337Z" fill="white"/>
</svg>
