<svg width="148" height="148" viewBox="0 0 148 148" fill="none" xmlns="http://www.w3.org/2000/svg">
<path d="M70.3445 42.0118C73.9033 41.8706 77.4791 42.9959 80.1801 45.4052C89.8095 53.9952 90.4926 71.0096 82.1089 80.6873C79.5178 83.6778 75.9426 85.7617 71.9799 85.988C68.6241 86.2266 64.4441 84.8179 61.9606 82.5361C52.2929 73.6556 51.9547 56.9944 60.2299 47.2228C62.7821 44.1912 66.4225 42.3157 70.3445 42.0118ZM71.6706 85.3171C75.7558 85.045 78.7758 83.3256 81.5421 80.2332C89.5724 71.2548 89.0653 54.3145 80.0443 46.2037C77.5927 43.9992 74.1712 42.4922 70.8849 42.5899C70.8596 42.5919 70.8341 42.5938 70.8088 42.5957C53.3524 44.1565 50.2039 72.4077 62.6717 82.1527C65.5849 84.4294 68.018 85.3135 71.6706 85.3171Z" fill="white"/>
<path d="M62.1708 52.9747C65.4658 52.9099 68.7755 52.9979 72.0738 52.9744C73.7251 52.9802 75.3148 52.9333 76.8585 53.621C79.5077 54.8017 80.0601 58.2057 78.9826 60.6764C78.3426 62.1445 76.8405 62.5974 75.4599 63.0841C80.7921 64.2568 77.5273 70.1274 79.0444 71.4607C79.1356 71.5404 79.2333 71.584 79.3526 71.5753C79.5846 71.5578 79.8303 71.4031 79.9862 71.2294C80.5386 70.6111 80.2871 68.9864 80.2404 68.1962C80.8245 68.1828 81.4343 68.1965 82.0205 68.2008C82.0557 69.8911 82.0866 72.0301 80.9803 73.4038C79.5925 75.1253 76.8118 75.1326 75.1718 73.7909C73.0714 71.439 74.2121 67.8146 73.5836 64.947C72.4644 64.2609 71.0223 64.5863 69.5957 64.4804C69.6146 66.5442 69.5574 68.5023 69.5108 70.5593L70.082 71.379C70.7728 71.3668 71.4636 71.3585 72.1544 71.3544C72.1214 72.2352 72.0995 73.1157 72.0887 73.9968C71.1696 74.0696 69.2886 74.0099 68.3113 74.0099L62.1811 74.0514C62.186 73.0793 62.1762 72.2665 62.1199 71.2969C62.7932 71.3124 63.4667 71.3131 64.1401 71.2989C64.3764 71.1472 64.4409 71.0906 64.6507 70.8993C64.8504 70.4734 64.7152 67.1132 64.7163 66.4615C64.7339 62.9454 64.7296 59.4292 64.7034 55.9132C63.8856 55.8308 62.9398 55.8405 62.108 55.8232C62.1471 55.1579 62.0766 53.4508 62.1708 52.9747ZM69.4806 61.7928C70.9575 61.851 72.6738 62.0614 73.9119 61.2844C74.5763 60.6161 74.7258 60.0951 74.7344 59.1607C74.7732 54.9433 72.3128 55.952 69.6062 55.7482C69.5663 57.5012 69.6245 60.1589 69.4806 61.7928Z" fill="white"/>
<path d="M81.8646 92.4288L86.4347 92.4623C88.4547 92.4688 89.8209 92.3713 91.8373 92.8305C95.7674 93.7269 97.0704 97.5134 96.1761 101.195C95.7681 102.876 94.817 103.844 93.3581 104.71C91.4458 105.845 88.2471 105.604 86.0339 105.605C84.6647 105.606 83.2963 105.623 81.9278 105.658C81.9688 105.121 81.9551 104.485 81.9573 103.938C82.5219 103.884 83.1856 103.86 83.7589 103.825C83.807 102.722 83.756 101.6 83.7467 100.491C83.7287 98.4331 83.7208 96.3747 83.723 94.317C83.1116 94.285 82.4357 94.2974 81.8194 94.2952C81.8761 93.7793 81.7619 92.7279 81.8646 92.4288ZM87.5266 103.944C89.1867 103.908 89.9093 104.057 91.2691 103.045C92.4041 101.56 92.2216 99.0327 92.0471 97.277C91.7583 94.3687 89.9869 94.1409 87.584 94.1482C87.4662 97.3876 87.6393 100.755 87.5266 103.944Z" fill="white"/>
<path d="M18.5209 92.4456C19.8665 92.3626 21.3042 92.4143 22.6712 92.6551C24.6002 92.9957 25.9145 94.5156 25.3912 96.5726C25.06 97.8736 23.6707 98.2818 22.5934 98.8355C23.6446 99.2015 23.8376 99.2459 24.5972 100.048C24.9017 101.309 24.5662 102.755 25.0458 103.935C25.1889 104.288 25.7059 104.207 25.9595 103.952C26.1214 103.564 26.0813 102.432 26.0833 101.942L27.459 101.97C27.4277 103.031 27.4567 104.308 26.7143 105.13C25.6642 106.294 23.0308 106.25 21.9234 105.238C20.8479 104.254 20.9941 101.938 20.9632 100.611C20.9626 100.394 20.9888 100.134 20.8267 99.9852C20.2536 99.4605 18.558 99.6213 17.7265 99.593C17.7216 100.278 17.5794 103.454 17.933 103.799C18.4678 103.94 19.168 103.868 19.7342 103.844C19.765 104.427 19.7033 105.08 19.6638 105.667C17.6086 105.549 14.1069 105.588 12.0493 105.738C12.0391 105.126 12.0226 104.513 12 103.901C12.6472 103.866 13.2951 103.842 13.9432 103.832C13.8596 102.986 13.8957 101.047 13.8981 100.142C13.9029 98.2403 13.8363 96.1855 13.8995 94.301C13.2826 94.2995 12.6658 94.3025 12.0489 94.3105C12.0688 93.6134 12.0631 93.1434 12.0164 92.4492C14.1118 92.5045 16.4242 92.4885 18.5209 92.4456ZM17.6992 97.9347C18.735 97.9304 19.722 97.9369 20.7552 97.8561C20.8956 97.747 21.1526 97.5585 21.2723 97.445C22.3434 96.3485 21.7235 94.389 20.1629 94.2493C19.3049 94.1722 18.5465 94.138 17.6837 94.1562C17.734 94.9551 17.7589 97.1322 17.6992 97.9347Z" fill="white"/>
<path d="M46.667 94.2683C46.6483 93.7786 46.5902 93.0088 46.7062 92.5554C47.1418 92.3321 52.0514 92.4529 52.8523 92.4354C52.7934 92.8821 52.7953 93.708 52.7608 94.221C52.232 94.2792 51.507 94.2435 51.0438 94.389C50.7862 94.7383 50.884 96.8658 50.8836 97.4465L50.8913 102.72C50.895 103.336 50.958 105.074 50.7862 105.585L50.6431 105.651C49.4017 105.633 48.0041 105.604 46.7694 105.698C46.1072 104.376 45.254 102.916 44.5434 101.601L41.4897 95.8828C41.5185 96.9633 41.2263 103.327 41.5205 103.825C42.1137 104.023 42.9536 103.586 43.3914 104.05C43.4703 104.397 43.3665 105.222 43.3438 105.639C41.3242 105.634 39.2151 105.718 37.2303 105.689L37.1981 103.858C37.774 103.819 38.5937 103.84 39.1878 103.837C39.1015 103.102 39.1331 100.518 39.1452 99.7137C39.1701 98.0482 39.0587 95.9229 39.1506 94.2952C38.5183 94.2857 37.8685 94.2923 37.2346 94.2915C37.2179 93.887 37.1311 92.6959 37.3264 92.415C39.2444 92.5322 41.2683 92.3139 43.1864 92.4885C43.8148 92.546 44.576 94.3337 44.921 94.8976C46.2603 97.0878 47.3247 99.5959 48.7534 101.722C48.7603 99.6352 48.4801 96.2117 48.6277 94.309C48.021 94.2624 47.2841 94.2741 46.667 94.2683Z" fill="white"/>
<path d="M106.16 92.4296C108.028 92.3554 110.274 92.503 112.242 92.4572C112.416 92.5787 112.566 92.6726 112.679 92.8603C114.417 95.7308 115.874 98.7911 117.652 101.64C117.688 99.9095 117.555 98.1996 117.547 96.4707C117.544 95.7919 117.481 94.9253 117.568 94.2668L115.613 94.3017L115.57 92.4885C117.593 92.423 119.817 92.5576 121.804 92.4521L121.82 94.2326C121.324 94.3003 120.416 94.2915 119.888 94.3025C119.768 95.9556 120.003 104.909 119.745 105.577C119.519 105.726 119.647 105.674 119.325 105.666C118.11 105.637 116.866 105.655 115.647 105.657C115.015 104.293 114.205 103.005 113.522 101.67C112.527 99.7268 111.375 97.8147 110.41 95.8639C110.29 98.0868 110.129 101.645 110.328 103.871C111.106 103.855 111.588 103.86 112.372 103.921C112.369 104.543 112.316 105.012 112.25 105.634C110.755 105.534 107.772 105.651 106.199 105.689C106.181 105.097 106.172 104.505 106.172 103.913C106.808 103.88 107.445 103.866 108.082 103.871C108.108 100.684 108.108 97.4967 108.084 94.309C107.47 94.2806 106.831 94.293 106.213 94.2959C106.211 93.6818 106.166 93.0568 106.16 92.4296Z" fill="white"/>
<path d="M58.7475 92.4194C59.8765 92.4136 61.5142 92.3714 62.6209 92.4987C63.8683 95.5598 65.1656 100.61 66.5517 103.768C66.633 103.954 67.7105 103.929 68.0492 103.943C68.0866 104.499 68.0639 105.066 68.0514 105.623C67.3858 105.675 66.2811 105.636 65.5629 105.635C63.9698 105.629 62.3768 105.637 60.7838 105.658C60.8177 105.086 60.7855 104.5 60.765 103.926C61.4255 103.861 61.9241 103.842 62.5898 103.831C62.3895 103.163 62.2081 102.49 62.0458 101.812C62.0244 101.613 62.049 101.678 61.934 101.519C61.4114 101.346 58.6563 101.489 58.0223 101.568C57.6731 101.948 57.4005 103.302 57.3641 103.833C57.9446 103.858 58.7104 103.705 59.1446 103.994C59.4482 104.444 59.3033 105.031 59.254 105.609C57.3087 105.661 55.3069 105.625 53.3403 105.668C53.3356 105.074 53.336 104.48 53.3414 103.886C53.7963 103.836 54.4328 103.837 54.9046 103.825C55.3245 102.934 55.7644 101.389 56.0888 100.412L58.0034 94.6488C58.1564 94.1729 58.5036 92.7272 58.7475 92.4194ZM58.4632 99.6592L59.8869 99.7174C60.3645 99.7196 60.8477 99.7159 61.3244 99.7392C61.2044 99.2845 60.1567 95.7002 60.0069 95.519C59.338 96.9182 59.0735 98.3662 58.4632 99.6592Z" fill="white"/>
<path d="M68.7258 92.4245C69.5028 92.3801 70.6383 92.4216 71.4478 92.4223C73.1332 92.4186 74.8191 92.4245 76.5044 92.4397C76.4921 93.0349 76.4735 93.6309 76.4469 94.2253C75.7343 94.2879 75.2293 94.293 74.5174 94.2879C74.46 96.4635 74.5368 98.7293 74.511 100.914C74.4995 101.891 74.5505 102.939 74.4851 103.906C75.4355 103.892 77.0122 104.031 77.8592 103.727C79.4553 103.152 79.0559 101.026 79.377 100.299C79.7261 100.021 80.7347 100.135 81.2188 100.153C81.2253 100.818 81.2274 101.399 81.1908 102.066C81.1994 102.869 81.3704 104.918 81.1434 105.535C80.6894 105.717 70.1462 105.638 68.7997 105.645C68.8325 104.989 68.8489 104.512 68.8225 103.858C69.4166 103.827 70.1154 103.836 70.718 103.828C70.6926 103.412 70.7183 102.84 70.7341 102.412C70.8318 99.761 70.5863 96.9313 70.7623 94.2995C70.0971 94.2901 69.4108 94.3024 68.7438 94.3061C68.73 93.6789 68.724 93.0517 68.7258 92.4245Z" fill="white"/>
<path d="M32.1378 92.4412C33.2404 92.3801 35.1439 92.4565 36.3319 92.4383C36.3266 93.0444 36.3161 93.6505 36.3004 94.2566C35.7393 94.309 34.9526 94.2908 34.3732 94.293L34.3733 100.283C34.3744 101.352 34.4155 102.786 34.3463 103.829C34.9059 103.872 35.5931 103.718 36.0843 103.915C36.5034 104.083 36.3931 105.311 36.2006 105.605C35.7564 105.691 33.8301 105.631 33.2612 105.624C31.709 105.618 30.1568 105.65 28.6061 105.718C28.5829 105.114 28.5827 104.509 28.6058 103.906C29.2462 103.892 29.8866 103.876 30.5268 103.855C30.5507 101.678 30.5047 99.4867 30.5102 97.309C30.5126 96.3718 30.4348 95.2018 30.5095 94.2981C29.8747 94.2821 29.2127 94.2915 28.5755 94.2915C28.5518 93.5974 28.5972 93.2059 28.4992 92.4892C29.6513 92.4383 30.9546 92.4747 32.1378 92.4412Z" fill="white"/>
<path d="M97.6207 92.439L105.319 92.463L105.254 94.2166C104.519 94.2617 104.038 94.2915 103.298 94.245C102.995 96.9044 103.355 100.169 103.21 102.885C103.192 103.23 103.227 103.635 103.487 103.882C104.458 104.281 105.458 102.684 105.249 105.645C104.908 105.679 104.484 105.644 104.135 105.642C101.902 105.628 99.6687 105.585 97.4368 105.682C97.444 105.108 97.4447 104.534 97.4397 103.959C98.0416 103.893 98.7873 103.868 99.4015 103.831C99.4553 102.701 99.4101 101.568 99.4072 100.435L99.4065 94.2995C98.7564 94.2835 98.097 94.2813 97.4461 94.2726C97.4303 93.7895 97.3757 93.0975 97.4289 92.6231C97.4418 92.5132 97.5029 92.5118 97.6207 92.439Z" fill="white"/>
<path d="M122.793 92.4259C124.546 92.4754 126.319 92.4077 128.075 92.4397C128.789 92.4528 129.528 92.471 130.238 92.4099C130.247 93.04 130.249 93.6221 130.229 94.2515C129.719 94.3105 128.955 94.2908 128.423 94.2915C128.341 97.4188 128.524 100.797 128.374 103.885C129.051 103.898 129.567 103.863 130.263 103.917C130.271 104.377 130.434 105.511 129.937 105.622C128.024 105.549 124.5 105.592 122.646 105.757C122.602 105.159 122.587 104.524 122.564 103.922L124.625 103.828C124.507 100.855 124.57 97.3213 124.555 94.2937L122.743 94.2828C122.755 93.8273 122.635 92.7308 122.793 92.4259Z" fill="white"/>
<path d="M134.129 91.731C133.03 92.0323 131.867 91.5521 131.289 90.5581C130.71 89.5642 130.858 88.3018 131.651 87.473C132.443 86.6443 133.684 86.4536 134.683 87.0066C135.59 87.5094 136.104 88.5193 135.982 89.5591C135.86 90.5981 135.127 91.4582 134.129 91.731ZM134.448 87.2809C133.579 86.8626 132.541 87.0743 131.899 87.8019C131.258 88.5295 131.167 89.5984 131.676 90.4257C132.185 91.2537 133.172 91.6423 134.099 91.3803C134.971 91.1337 135.599 90.3653 135.677 89.4529C135.754 88.5404 135.265 87.6746 134.448 87.2809Z" fill="white"/>
<path d="M133.23 88.1439L133.306 88.2225C133.166 88.9887 133.472 89.9506 132.751 90.3115C132.66 90.0648 132.64 88.6379 132.625 88.3003C132.805 88.1424 132.942 88.1803 133.23 88.1439Z" fill="white"/>
<path d="M133.531 88.1941C133.729 88.1897 134.054 88.2123 134.213 88.3403C134.602 88.6539 134.619 89.9069 134.4 90.2372C133.191 89.5853 134.488 89.2237 133.531 88.1941Z" fill="white"/>
<path d="M134.683 87.0066C135.59 87.5094 136.104 88.5193 135.982 89.5591C135.86 90.5981 135.127 91.4582 134.129 91.731L134.099 91.3803C134.971 91.1337 135.599 90.3653 135.677 89.4529C135.754 88.5404 135.265 87.6746 134.448 87.2809L134.683 87.0066Z" fill="white"/>
</svg>
