<svg width="148" height="148" viewBox="0 0 148 148" fill="none" xmlns="http://www.w3.org/2000/svg">
<path d="M129.987 69.2695V61H104.709V84.3286H119.401C119.563 84.2501 119.751 84.1846 119.932 84.0929C120.358 83.8638 120.908 83.7655 120.921 83.5495C120.934 83.3334 120.41 81.0287 120.999 80.5376C121.6 80.1055 122.247 79.7389 122.926 79.4442C123.204 79.3067 123.275 79.0514 123.262 78.4163C123.249 77.7812 123.223 76.9103 122.79 76.7532C122.357 76.6026 121.438 76.6812 120.585 76.6681C119.861 76.7139 119.169 76.3735 118.748 75.7842C118.289 75.0378 118.425 73.0604 118.425 72.3795C118.425 71.6986 118.186 69.6819 118.011 69.3873C118.257 69.1123 118.541 68.8766 118.858 68.6933C120.171 67.96 121.522 67.2987 122.906 66.7159C123.87 66.3362 124.18 66.1594 124.62 66.1987C125.06 66.238 126.709 67.2987 126.806 67.351C126.903 67.4034 127.381 67.6064 127.381 67.6064L127.892 66.6701C127.937 66.5588 128.054 66.4999 128.17 66.5326C128.37 66.5653 128.907 66.6374 128.985 67.0171C129.062 67.3969 129.114 68.4969 129.133 68.5689C129.153 68.6409 129.198 68.654 129.379 68.8111C129.489 68.8832 129.761 69.0927 130 69.2891M122.467 75.3979C122.99 75.3193 123.443 75.2604 123.443 74.5467C123.443 74.0622 122.467 74.0818 122.441 72.8116C122.415 71.417 123.779 70.8605 124.749 71.0635C125.551 71.2795 126.081 72.039 126.01 72.8771C125.971 73.6497 125.441 73.9574 125.085 74.2586C124.73 74.5598 125.034 74.7235 125.195 74.7955C125.648 74.9527 126.139 74.9461 126.586 74.7759C127.336 74.5271 128.118 74.4223 128.474 73.892C128.804 73.3944 128.771 72.2093 128.784 71.5676C128.765 70.8474 128.836 70.3432 128.513 69.8194C128.028 69.0468 124.575 67.9861 124.575 67.9861C123.779 68.1498 122.99 68.3528 122.214 68.6082C121.451 68.8962 120.701 69.2236 119.97 69.5903C119.97 69.5903 119.919 69.9766 119.854 70.5135C119.789 71.0438 119.615 73.5646 119.725 74.3765C119.835 75.1884 120.184 75.3324 120.494 75.3913C121.147 75.4765 121.807 75.483 122.46 75.4044M121.988 84.1453C121.988 84.2042 121.988 84.2763 121.975 84.3548H127.025C126.282 83.9751 126.515 83.5102 126.663 83.1304C126.825 82.7114 127.485 81.3168 126.76 80.9043C126.036 80.4853 125.609 80.5376 124.736 80.5638C123.863 80.59 121.988 80.7144 121.949 81.5787C121.91 82.443 122.001 83.8965 121.988 84.1519M128.745 84.3614H129.994V72.517C129.929 73.067 129.884 73.545 129.871 73.7086C129.845 74.1146 129.806 74.6842 128.907 75.3062C128.008 75.9282 125.958 76.3604 125.635 76.5371C125.467 76.6288 125.422 76.8514 125.512 77.2312C125.603 77.6109 125.861 79.0448 126.275 79.1823C126.689 79.3198 127.627 79.143 127.976 79.2347C128.325 79.3264 128.526 79.6799 128.461 80.1841C128.396 80.6882 128.138 81.5656 127.911 82.6525C127.866 82.8489 127.924 83.0584 128.067 83.1959C128.196 83.3596 128.985 83.8572 128.855 84.1584C128.83 84.2304 128.784 84.2959 128.739 84.3548" fill="white"/>
<path d="M20.606 79.8371C20.606 78.0496 21.9122 77.7026 23.0115 77.7026C24.1109 77.7026 25.4365 78.0496 25.4365 79.8371C25.4365 81.6245 24.1303 81.9715 23.0115 81.9715C21.8928 81.9715 20.606 81.6245 20.606 79.8371ZM25.5206 77.0478H25.4947C24.8351 76.2163 23.6905 75.902 22.5718 75.902C19.358 75.902 18 77.6764 18 79.7978C18 81.8013 19.3644 83.6935 22.3714 83.6935C23.6453 83.6935 24.7252 83.3596 25.4365 82.5477V83.1763C25.4365 85.0619 24.363 85.4024 23.115 85.4024C21.6536 85.4024 21.1686 85.0685 21.0069 84.4268H18.3169C18.5755 86.7839 21.1427 87 23.0309 87C26.2383 87 27.9649 85.9655 27.9649 83.281V76.1116H25.527V77.0544L25.5206 77.0478ZM35.9575 81.5656C35.6018 82.2334 34.8841 82.5805 33.8624 82.5805C32.1423 82.5805 31.3986 81.4477 31.3986 80.7079V80.6817H38.7963V80.4525C38.7963 77.5193 37.1926 75.8169 33.8688 75.8169C30.8296 75.8169 28.7926 77.0675 28.7926 80.0008C28.7926 82.934 30.8296 84.1846 33.8688 84.1846C36.1774 84.1846 37.9233 83.412 38.654 81.5721H35.9575V81.5656ZM31.3986 79.1692V79.143C31.3986 78.9532 31.8125 77.4145 33.8042 77.4145C35.6536 77.4145 36.1838 78.724 36.1838 79.143V79.1692H31.3986ZM39.443 79.9942C39.443 82.9275 41.4799 84.178 44.5192 84.178C47.5584 84.178 49.5954 82.9275 49.5954 79.9942C49.5954 77.0609 47.5584 75.8104 44.5192 75.8104C41.4799 75.8104 39.443 77.0609 39.443 79.9942ZM42.049 79.9942C42.049 78.4686 42.9543 77.6109 44.5127 77.6109C46.0711 77.6109 46.9764 78.4686 46.9764 79.9942C46.9764 81.5198 46.0711 82.3775 44.5127 82.3775C42.9543 82.3775 42.049 81.5198 42.049 79.9942ZM53.1002 80.04C53.1002 78.5603 54.206 77.7877 55.467 77.7877C56.7279 77.7877 57.8466 78.5603 57.8466 80.04C57.8466 81.5198 56.7409 82.2924 55.467 82.2924C54.1931 82.2924 53.1002 81.5198 53.1002 80.04ZM50.6624 86.7839H53.1843V83.0191H53.2102C53.6951 83.7197 54.7427 84.178 56.1654 84.178C58.5903 84.178 60.4527 82.5215 60.4527 79.9942C60.4527 77.2639 58.4868 75.8955 55.9972 75.8955C54.8979 75.83 53.8309 76.3014 53.1326 77.1592H53.1067V76.0985H50.6688V86.7774L50.6624 86.7839ZM61.5261 83.8899H64.048V76.0985H61.5261V83.8899ZM61.5261 75.1425H64.048V73.342H61.5261V75.1425ZM72.2217 81.5656C71.866 82.2334 71.1483 82.5805 70.1266 82.5805C68.4065 82.5805 67.6628 81.4477 67.6628 80.7079V80.6817H75.0605V80.4525C75.0605 77.5193 73.4568 75.8169 70.1266 75.8169C67.0873 75.8169 65.0503 77.0675 65.0503 80.0008C65.0503 82.934 67.0873 84.1846 70.1266 84.1846C72.4351 84.1846 74.1811 83.412 74.9118 81.5656H72.2152H72.2217ZM67.6628 79.1692V79.143C67.6628 78.9532 68.0767 77.4145 70.0684 77.4145C71.9178 77.4145 72.448 78.724 72.448 79.143V79.1692H67.6628ZM76.8776 76.105H75.2868V77.8204H76.8776V81.762C76.8776 83.1697 77.1039 84.0733 79.503 84.0733C80.0656 84.0733 81.0097 83.9882 81.4817 83.9292V82.2138C81.0808 82.24 80.6928 82.2727 80.2466 82.2727C79.5871 82.2727 79.3995 82.0698 79.3995 81.4608V77.827H81.4365V76.1116H79.3995V73.7021H76.8776V76.1116V76.105ZM82.1413 83.8965H84.6633V80.5376C84.6633 79.0317 85.4781 78.1413 87.1981 78.1413C87.6702 78.1544 88.1358 78.2329 88.5884 78.377V75.9806C88.2845 75.9282 87.9806 75.902 87.6702 75.9086C86.2346 75.9086 85.5168 76.4455 84.6051 77.6371H84.5792V76.1116H82.1413V83.8965ZM95.818 80.7406C95.818 82.0501 94.3954 82.6721 93.1215 82.6721C92.1774 82.6721 91.5307 82.2793 91.5307 81.5787C91.5307 80.8781 91.9769 80.6359 92.8628 80.5638L94.3242 80.4329C94.8351 80.4132 95.3395 80.3019 95.818 80.099V80.7406ZM91.7635 78.4883C92.1192 77.4145 92.6817 77.3228 93.7552 77.3228C95.2166 77.3228 95.7339 77.6306 95.7339 78.2526C95.7339 78.8746 95.4753 79.0055 94.6993 79.0645L92.0157 79.2543C90.4831 79.3591 88.8342 79.765 88.8342 81.6507C88.8342 83.5364 90.2374 84.178 92.2485 84.178C93.3801 84.178 94.9838 83.9292 95.8439 83.0584C95.8633 83.34 95.9215 83.615 96.0185 83.8834H98.5404C98.3335 83.3858 98.2365 82.8489 98.2559 82.312V78.449C98.2559 76.9955 97.4799 75.8038 93.8716 75.8038C91.8088 75.8038 89.6296 76.0788 89.3321 78.4752H91.7635V78.4883Z" fill="white"/>
</svg>
