<svg width="148" height="148" viewBox="0 0 148 148" fill="none" xmlns="http://www.w3.org/2000/svg">
<path d="M114.481 52.0818C111.085 52.3828 108.051 53.3859 106.025 54.8348C105.491 54.2101 104.82 53.7132 104.062 53.3821C103.304 53.0509 102.479 52.894 101.65 52.9233C96.0242 53.2577 90.2964 53.7203 84.1045 54.3389H84.0083C82.9118 54.4763 81.8957 54.9776 81.1274 55.76C78.6201 54.9463 75.4109 54.8906 70.7811 55.5426H70.8774C70.8094 55.5426 64.6515 56.4956 60.05 57.2145L58.2841 57.4931L55.5278 57.939H55.3297C53.8937 58.2284 52.6129 59.0203 51.7244 60.1682L51.6678 60.2518C51.647 60.2783 51.628 60.3063 51.6112 60.3354C51.4001 60.6583 51.2237 61.002 51.0848 61.3608C50.4887 61.1267 49.8803 60.9239 49.2623 60.7534C47.1236 60.1683 44.9165 59.8611 42.6969 59.8394C38.82 59.822 34.9593 60.3321 31.2243 61.3553C21.795 63.8073 13.8825 70.2552 14.0013 80.1138C14.033 81.8479 14.2801 83.5716 14.7371 85.2465C15.039 86.3683 15.482 87.4485 16.0559 88.4621C18.15 92.1793 21.8063 94.414 26.1814 95.3948C36.7031 97.7689 51.2999 92.9539 57.7408 84.522C58.4117 85.2428 59.3046 85.7265 60.2821 85.8985C60.962 86.0186 61.6562 86.0393 62.3423 85.9598C62.8177 85.9097 66.989 84.9121 69.4624 84.4106L70.7585 84.1486H70.8208C72.1803 83.8693 73.3783 83.0849 74.1657 81.9585C74.2337 81.8637 74.3016 81.7689 74.3638 81.6687C74.4261 81.5684 74.46 81.4902 74.511 81.4012C74.5619 81.3121 74.6581 81.1504 74.7147 81.0166C75.7541 81.8563 77.035 82.3533 78.3767 82.4377C78.812 82.461 79.2486 82.4367 79.6784 82.3653L85.3157 81.2339L88.9267 80.5318C89.017 80.5166 89.106 80.4943 89.1927 80.465H89.2323C89.7917 80.3002 90.3182 80.042 90.7887 79.7015C91.1783 79.7405 91.5708 79.7405 91.9603 79.7015C92.0538 79.7016 92.147 79.6904 92.2377 79.668H92.2094C98.7635 78.5199 104.316 77.5949 109.636 76.7756L110.174 76.692C110.637 76.6168 111.085 76.472 111.504 76.2629C112.146 75.9367 112.682 75.4383 113.049 74.8251L113.094 74.7693V74.7191C114.201 75.1149 115.341 75.4115 116.502 75.6052C117.887 75.8519 119.293 75.975 120.701 75.973C129.293 75.9836 133.821 71.7042 133.991 66.5603C134.012 66.088 133.997 65.6148 133.945 65.1448C132.796 55.2193 122.507 51.3741 114.481 52.0818ZM121.618 74.2064C119.086 74.2336 116.569 73.8223 114.181 72.9915C113.743 72.823 113.258 72.819 112.817 72.9804C112.377 73.1418 112.012 73.4572 111.793 73.8665C111.647 74.147 111.436 74.389 111.176 74.5723C110.916 74.7556 110.615 74.8748 110.298 74.9198C104.638 75.7892 99.488 76.6474 92.3396 77.8846C92.1868 77.8846 91.9321 77.8846 91.8302 77.8846C91.6892 77.9012 91.5467 77.9012 91.4057 77.8846C90.9301 77.8368 90.4536 77.966 90.07 78.2468C89.7845 78.4551 89.4648 78.6135 89.1248 78.715C89.1644 78.715 89.0512 78.715 89.0116 78.7485L85.3157 79.4562L79.7124 80.5151C79.1064 80.5977 78.4895 80.5508 77.9035 80.3777C77.3175 80.2046 76.7762 79.9093 76.3165 79.5119C76.0886 79.3283 75.822 79.197 75.5361 79.1276C75.2503 79.0582 74.9523 79.0524 74.6638 79.1107C74.3702 79.1776 74.0976 79.3141 73.8698 79.5084C73.6419 79.7026 73.4657 79.9487 73.3564 80.2253C73.3027 80.3684 73.2324 80.5049 73.147 80.6321C73.147 80.6321 73.147 80.6321 73.147 80.6656C72.9101 81.0802 72.5853 81.4397 72.1946 81.7195C71.8039 81.9994 71.3566 82.1931 70.883 82.2873H70.7585C70.3 82.3375 70 82.4377 69.5416 82.527C67.0909 83.0118 65.7608 83.3685 63.3157 83.8979C62.7843 83.9599 62.2482 83.9749 61.714 83.9426C61.3119 83.9154 60.9195 83.8092 60.5598 83.6302C60.2001 83.4512 59.8805 83.203 59.6198 82.9004C59.2293 82.4936 58.8105 81.9753 57.9219 82.07C57.0333 82.1648 56.4503 82.9617 56.0881 83.4076C46.6814 94.6538 21.3082 98.8391 16.7973 84.7952C12.0317 69.96 27.6982 63.3449 34.773 62.0186C41.3328 60.7925 46.206 61.0377 50.7622 62.6594C51.2528 62.8518 51.7997 62.8518 52.2903 62.6594C52.7477 62.4411 53.1023 62.058 53.2808 61.5894C53.3563 61.3567 53.4711 61.1381 53.6204 60.943C54.1783 60.1591 55.0253 59.6211 55.9806 59.4439C56.0315 59.4439 56.0768 59.4439 56.1277 59.4439C58.3917 59.0537 70.7472 57.053 71.2283 56.975C75.6939 56.3397 78.2748 56.4177 80.601 57.1088C80.9513 57.2164 81.3259 57.221 81.6787 57.122C82.0316 57.023 82.3475 56.8247 82.5876 56.5515C83.0181 56.0581 83.6275 55.7501 84.2856 55.6933H84.3535C90.7322 55.0245 95.894 54.5397 101.826 54.144C102.533 54.1294 103.229 54.3235 103.823 54.7013C103.972 54.7425 104.11 54.8133 104.23 54.9091C104.35 55.0049 104.448 55.1239 104.52 55.2586L104.723 55.4481C105.04 55.8232 105.49 56.0646 105.982 56.1226C106.473 56.1807 106.969 56.051 107.367 55.7602C109.132 54.4617 112.115 53.5311 115.364 53.3081C122.456 52.8344 130.787 56.2061 132.315 64.5655C133.17 68.918 129.604 74.2064 121.618 74.2064Z" fill="white"/>
<path d="M103.631 54.6342C97.9033 54.9853 92.2207 55.3977 86.1703 56.0163C85.31 56.1555 85.6044 56.8523 85.6044 56.8523V56.9135C87.5966 62.1187 89.5663 67.3071 91.5472 72.9748C91.6299 73.2106 91.7928 73.411 92.0084 73.542C92.224 73.6731 92.479 73.7266 92.7301 73.6937C98.9277 72.6516 104.661 71.7766 110.395 70.9072L110.649 70.8683C110.915 70.8683 111.215 70.4503 110.989 69.9766C110.762 69.5029 110.604 69.0515 110.423 68.6001C110.242 68.1487 110.123 67.8589 109.959 67.4855C109.489 66.722 108.951 66.8279 108.951 66.8279L108.708 66.8557C105.799 67.2012 102.952 67.6248 99.9634 67.9703C99.7386 67.9929 99.5123 67.9432 99.3185 67.8287C99.1246 67.7142 98.9737 67.541 98.8881 67.335C98.8753 67.3134 98.864 67.291 98.8541 67.268C98.7409 66.9448 98.6164 66.6104 98.4749 66.3039C98.4723 66.2816 98.4723 66.2592 98.4749 66.2369C98.3051 65.4233 98.9447 65.401 98.9447 65.401C101.322 65.0889 103.557 64.8437 105.833 64.5817L106.116 64.5539C106.631 64.4703 106.591 64.0412 106.478 63.7235C106.121 62.9322 105.81 62.1241 105.459 61.3494C104.995 60.625 104.446 60.6863 104.446 60.6863C102.109 60.8702 99.7653 61.1321 97.3486 61.394C97.1652 61.4058 96.9818 61.3716 96.8155 61.2946C96.6492 61.2176 96.5055 61.1003 96.3977 60.9538C96.3419 60.8842 96.2962 60.8073 96.2619 60.7253C96.1218 60.4308 95.9971 60.1295 95.8883 59.8225C95.8883 59.8225 95.8883 59.8224 95.8883 59.7946C95.6223 58.9643 96.3751 58.9754 96.3751 58.9754C99.3125 58.7079 102.109 58.4627 104.927 58.2342L105.255 58.2064C105.255 58.2064 105.821 58.2064 105.618 57.4485C105.255 56.724 104.967 55.9605 104.616 55.2193C104.616 55.1858 104.582 55.1691 104.565 55.1413C104.494 55.0066 104.395 54.8877 104.275 54.7919C104.156 54.6961 104.017 54.6253 103.869 54.5841C103.787 54.5884 103.707 54.6054 103.631 54.6342Z" fill="white"/>
<path d="M89.7587 73.5377C89.7712 73.4187 89.7528 73.2985 89.7053 73.1883C89.6578 73.0782 89.5827 72.9817 89.487 72.9079L89.2153 72.685C86.9514 70.7568 84.7271 68.9456 82.4801 67.0563L82.2367 66.8501L81.8632 66.538C81.8632 66.538 81.9481 66.4934 81.9707 66.4767C81.9933 66.4599 82.0952 66.4154 82.1348 66.3819C82.1742 66.3667 82.2121 66.348 82.248 66.3261C82.9471 65.9672 83.5834 65.5007 84.1328 64.944C84.6309 64.4622 84.9863 63.8559 85.1608 63.1902C85.3353 62.5245 85.3223 61.8246 85.1233 61.1656C84.9352 60.5321 84.6323 59.9373 84.229 59.4101C83.7859 58.8178 83.228 58.3178 82.5876 57.9388C80.7708 56.8688 78.0597 56.6738 73.13 57.3202C67.9342 58.0336 62.9422 58.8082 57.8031 59.6386C56.7617 59.9061 56.9994 60.664 56.9994 60.664C58.4992 66.3596 60.0217 72.122 61.6857 78.3135C61.7558 78.5962 61.9353 78.8407 62.1859 78.9948C62.4365 79.149 62.7384 79.2005 63.0271 79.1383C65.8854 78.5811 68.5964 77.9123 71.432 77.3996H71.483C71.7253 77.3226 71.9274 77.1553 72.0459 76.9334C72.1644 76.7115 72.1898 76.4527 72.1169 76.2125C71.6245 74.5407 71.149 72.9747 70.6736 71.4031C70.3963 70.4724 70.1076 69.5417 69.8416 68.6166C69.4171 67.2122 68.9926 65.8301 68.5681 64.4257C68.4663 64.1081 68.3701 63.7793 68.2682 63.4616C68.236 63.3379 68.2227 63.2102 68.2286 63.0827C68.2396 62.8261 68.3402 62.5812 68.5135 62.3893C68.6867 62.1974 68.922 62.0702 69.1794 62.0294C70.1246 61.8956 70.9793 61.7619 71.9301 61.6058C73.5658 61.3439 75.1732 61.1489 75.943 62.9266C76.0994 63.3446 76.0852 63.8061 75.9033 64.214C75.7539 64.4567 75.5623 64.6718 75.3373 64.8493C74.9041 65.1672 74.4202 65.412 73.9054 65.5738C73.088 65.8179 72.2538 66.0041 71.4094 66.1311C70.7415 66.2537 70.5944 66.276 70.583 66.2703C70.2265 66.3874 70.4981 66.6604 70.4981 66.6604L70.9113 67.0673C73.679 69.7701 76.3618 72.3392 79.1917 75.2149C79.3429 75.3673 79.5246 75.4871 79.7253 75.5667C79.926 75.6464 80.1414 75.6841 80.3576 75.6775C83.3121 75.1202 86.1194 74.5629 89.0172 74.0613L89.4021 73.9888C89.4892 73.9692 89.5694 73.9269 89.6342 73.8663C89.6773 73.8232 89.7107 73.7716 89.7321 73.715C89.7536 73.6583 89.7626 73.598 89.7587 73.5377Z" fill="white"/>
<path d="M56.6598 69.8372C55.9449 67.7442 54.5533 65.9394 52.6979 64.699C48.8831 62.1856 43.1214 61.4667 36.4314 62.832C33.2834 63.4126 30.2555 64.505 27.4718 66.0644C25.2284 67.2529 23.2741 68.9072 21.744 70.9128C21.6591 71.0354 21.5686 71.1525 21.4893 71.2695C21.4101 71.3866 21.4327 71.3586 21.4044 71.4032C19.8043 73.7475 19.1115 76.5792 19.4518 79.3837C19.5555 80.761 19.9522 82.1014 20.6162 83.3178C21.2803 84.5343 22.1967 85.5996 23.3061 86.4446C27.1832 89.2311 33.4543 89.872 40.9649 88.0775C45.7589 86.9629 50.2584 84.9176 53.4846 82.0699C53.9536 81.6274 54.3941 81.1565 54.8033 80.6599C55.8476 79.4642 56.6051 78.0522 57.0195 76.5289C57.434 75.0055 57.4948 73.4099 57.1974 71.8602C57.1597 71.6076 57.1088 71.3512 57.0446 71.0912C56.9371 70.6565 56.8013 70.2441 56.6598 69.8372ZM45.34 77.4777C45.109 77.8266 44.8497 78.1565 44.5646 78.4642C44.259 78.8182 43.9218 79.1445 43.5572 79.4394C42.4202 80.3543 41.0866 81.0023 39.6575 81.3342C38.5344 81.6272 37.3604 81.6793 36.215 81.487C35.0697 81.2947 33.9796 80.8625 33.0185 80.2196C32.4059 79.7953 31.8886 79.2511 31.4991 78.6212C31.1096 77.9912 30.8561 77.2889 30.7545 76.5582C30.5698 75.2704 30.814 73.9583 31.4507 72.8188C31.5073 72.7128 31.5696 72.607 31.6318 72.5067C31.8572 72.1366 32.1168 71.7877 32.4072 71.4645C33.7298 70.0337 35.4696 69.0409 37.3879 68.6223C39.7254 68.1877 41.9837 68.4943 43.7383 69.7369C44.9684 70.5532 45.8208 71.8153 46.1098 73.2479C46.3989 74.7058 46.1157 76.2174 45.3174 77.4777H45.34Z" fill="white"/>
<path d="M108.453 57.7718C107.808 59.1929 107.887 60.8313 108.793 62.871C109.671 64.8573 111.091 66.5647 112.896 67.8031C116.233 69.9663 120.266 70.8358 124.216 70.2441C125.82 70.0569 127.333 69.4118 128.568 68.3883C130.555 66.6718 131.223 64.0358 130.125 61.2828C129.303 59.5803 128.074 58.1 126.542 56.9693C123.639 54.9256 120.123 53.9029 116.558 54.0658C113.162 54.1549 110.57 55.0689 109.155 56.7185C108.874 57.0367 108.638 57.391 108.453 57.7718ZM124.51 64.0135C124.347 64.5558 124 65.0262 123.525 65.3454C123.308 65.5011 123.067 65.6232 122.812 65.7077C122.529 65.8053 122.234 65.867 121.935 65.8916C120.418 65.9648 118.922 65.5177 117.701 64.6265C116.767 63.9892 116.023 63.1176 115.545 62.1019C115.332 61.6918 115.205 61.2439 115.17 60.7846C115.135 60.3253 115.193 59.8638 115.341 59.4269C115.397 59.2838 115.465 59.1457 115.545 59.0145C115.836 58.6212 116.216 58.3004 116.655 58.0778C117.095 57.8552 117.581 57.7371 118.075 57.7328C119.53 57.7335 120.944 58.2011 122.105 59.0647C122.973 59.6945 123.677 60.5176 124.159 61.4666C124.582 62.2469 124.707 63.1506 124.51 64.0135Z" fill="white"/>
</svg>
