<svg width="148" height="148" viewBox="0 0 148 148" fill="none" xmlns="http://www.w3.org/2000/svg">
<path d="M114.255 60.2009C114.727 53.5601 117.903 47.3519 125.418 51.1656C129.295 53.1333 128.966 57.0521 127.107 60.464C126.564 61.4587 125.781 62.5185 125.096 63.4264C128.419 62.0568 134.857 61.1611 136.463 65.4751C137.346 67.8459 137.176 71.571 135.683 73.6652C133.292 77.0177 128.367 76.0831 125.085 74.8534C124.387 74.592 123.506 74.1289 122.845 73.9421C125.22 76.0656 127.835 78.824 128.035 82.1746C128.258 85.9025 123.604 88.0222 120.498 88.2252C119.107 88.3154 117.683 87.8121 116.681 86.8545C114.384 84.6928 113.808 81.2401 113.73 78.2205C113.707 77.3104 113.693 76.2273 113.802 75.3342C111.588 78.6748 109.074 82.7586 104.709 83.8404C103.489 84.1431 101.899 83.9239 100.861 83.2007C97.3628 80.6097 97.0885 76.8454 99.5329 73.3764C101.24 70.9529 102.336 70.4366 104.773 69.0427L104.693 68.9888C104.084 68.5881 103.415 68.3136 102.801 67.9317C100.907 66.7553 100.275 65.1341 100.251 63.034L100.25 62.8293C99.6056 63.2286 98.5164 63.1036 97.7659 63.1111C96.6084 63.1227 95.4552 63.0869 94.2952 63.125C94.0768 65.3972 94.1424 67.159 92.8109 69.1725C89.6927 73.8888 82.3504 74.1765 78.0047 71.1036C77.2929 70.6003 75.1948 68.75 74.4705 68.9066C73.5634 69.5205 74.1392 72.8308 72.6656 73.1736C71.4458 73.4575 70.9929 72.1343 70.7915 71.1803C70.2135 71.894 69.6642 72.6973 68.7503 72.9712C66.9591 73.5076 65.4016 72.446 64.9246 70.7288C64.2659 71.8498 62.5017 73.3405 62.1641 74.5182C61.2301 77.776 62.1941 81.8893 59.8946 84.7034C59.2845 85.4505 57.7402 85.8529 57.0485 85.0738C55.1336 82.9172 56.7798 79.1379 58.0532 77.0659C58.8899 75.7171 60.1539 74.8265 60.0088 73.0703C59.9748 72.651 59.9801 71.9784 59.6791 71.6951C59.3502 71.6412 57.8584 72.6129 57.1688 72.883C54.3768 71.5722 57.9602 70.0779 59.0157 69.2562C59.7859 68.6566 60.7049 67.3122 60.256 66.3029C60.0187 65.7696 59.4888 65.5677 58.9815 65.3725C58.7806 65.4303 58.5825 65.4979 58.3883 65.5753C56.4929 66.3193 55.5225 69.175 54.3298 70.7827C53.6706 71.671 51.7582 73.6212 51.5594 74.4404C50.8568 77.3372 51.3005 80.614 50.1023 83.4081C49.2255 85.6217 46.5597 86.5304 45.7501 83.8818C45.1293 81.8505 46.3465 78.708 47.4799 77.0421C48.4905 75.5567 49.8914 74.2053 49.3493 72.1811C49.2934 71.9663 49.2111 71.8606 49.0119 71.7585C48.427 71.7 47.7569 72.3502 47.2332 72.5902C46.9329 72.7275 46.5653 72.8661 46.2396 72.732C45.9623 72.6179 45.6278 72.3489 45.5483 72.0467C45.2339 70.8497 47.8125 69.7389 48.5297 69.1815C48.8313 68.947 49.0685 68.6616 49.2691 68.3381C49.6015 67.8022 49.827 67.1103 49.6604 66.4813C49.5613 66.1074 49.3197 65.7694 48.9774 65.5836C48.5673 65.361 48.1117 65.4049 47.6956 65.589C44.8808 66.8339 44.4631 72.018 41.2115 73.014C40.5532 73.2152 39.8611 73.1316 39.2599 72.7976C38.5628 72.4103 38.1329 71.6914 37.9375 70.9347C37.7035 70.0282 37.8119 65.6603 38.2542 64.9811C38.362 64.8154 38.4697 64.7559 38.6569 64.7098C39.4887 64.9109 39.2211 66.32 39.2272 66.9186C39.2385 68.0492 38.7149 70.8251 39.6937 71.596C41.057 72.6699 42.5926 70.3342 43.1737 69.3671C44.1931 67.6283 45.6588 64.4179 48.002 64.2598C51.6497 64.0138 51.6661 68.2888 49.4195 70.1246C49.1433 70.3503 49.9704 70.7251 50.1328 70.9866C50.5455 71.6518 50.686 72.3257 50.8559 73.0965C51.6139 71.9464 52.5861 71.0317 53.3744 69.905C54.8503 67.7952 55.7853 64.6427 58.7617 64.2422C60.1988 64.0488 61.5359 65.2503 61.5689 66.7132C61.6048 68.303 60.8962 69.1565 59.8948 70.2578C61.1028 71.0222 61.2641 71.9437 61.3354 73.2564C62.3218 71.961 63.2926 70.7854 64.3223 69.5223C65.4366 68.1338 65.7891 66.5286 67.2954 65.4577C68.7092 64.4525 70.6301 64.8771 71.7615 66.1153C72.0087 66.3858 71.6456 66.9188 71.3353 67.0731C70.8948 67.1252 70.2885 66.4439 69.8241 66.225C67.3105 65.0406 64.5089 71.1491 67.4604 71.8398C69.228 72.2535 69.5335 70.0029 70.5638 69.3326C71.5702 68.6778 72.1825 71.5297 72.3269 72.0587C72.6761 70.9046 72.6099 68.5371 73.7173 67.8986C75.4695 66.8879 77.4296 69.2768 78.7967 70.1089C79.921 70.793 81.0127 71.4416 82.3373 71.6577C87.2133 72.5727 92.3364 70.539 92.8848 65.0822C92.953 64.4062 92.9549 63.5475 93.0926 62.8846C91.0525 63.1082 89.0605 63.2097 87.0104 63.3096C86.4713 63.3359 85.16 63.5327 85.4673 62.5497C85.9707 61.9118 88.0196 61.991 88.8241 61.9616C89.7486 61.9302 90.672 61.8761 91.5941 61.7993C92.9619 61.693 93.1115 61.8478 93.2667 60.4569C93.4038 59.2237 93.3869 57.6329 93.9128 56.5128C91.2473 55.9765 88.5768 55.4768 85.9188 54.9024C82.7668 54.2209 78.9362 53.0454 75.7198 53.2121C73.7886 53.3122 71.6479 53.6263 70.2887 55.1455C69.8082 55.6825 69.5949 56.1651 69.4338 56.8605C68.8179 59.5182 71.4681 60.3282 71.3769 61.2431C71.3619 61.393 71.2707 61.5067 71.1424 61.5775C70.9655 61.675 70.7365 61.6962 70.5479 61.6274C69.7502 61.3368 68.9797 60.3633 68.6012 59.6309C68.0111 58.4896 67.9288 57.2252 68.3246 56.0031C68.7602 54.6583 69.8068 53.6399 71.0536 53.0184C75.8445 50.6306 82.5973 52.9652 87.5383 53.9975C88.8685 54.2754 90.207 54.5198 91.5403 54.7839C92.3072 54.9358 93.1059 55.058 93.8477 55.308C94.7016 54.0703 95.2963 53.0245 96.798 52.1652C98.7818 51.0364 102.804 50.006 104.34 52.3405C104.951 53.2694 104.317 54.1492 104.081 54.9508C104.047 54.9621 104.012 54.9756 103.979 54.9912L104.03 54.9694C104.047 54.9627 104.064 54.9564 104.081 54.9508C104.748 54.5703 105.072 54.2317 105.812 54.5469L105.907 54.2675C106.398 52.8275 107.201 50.8101 109.075 51.4738C110.57 52.0032 110.531 55.1405 110.418 56.4161C111.464 56.6782 111.19 56.7923 111.815 57.5088C112.338 58.1094 113.901 62.9389 114.093 63.0687C114.176 62.9022 114.229 60.5578 114.255 60.2009ZM123.108 51.2599C116.36 49.3211 115.215 57.4029 115.143 62.1881C115.134 62.7972 115.139 63.4887 114.977 64.0718C114.759 64.8623 114.233 64.6273 113.679 64.4278C112.982 63.2521 111.234 57.6209 110.452 57.2135L110.345 57.2713C110.043 60.5638 108.666 63.5048 107.361 66.4958C107.188 66.8921 106.566 66.9454 106.485 67.1059C106.33 67.4107 106.917 69.2951 107.055 69.6658C107.304 70.3292 107.735 71.289 108.416 71.5869C108.736 71.7268 109.078 71.7176 109.399 71.5847C110.51 71.1245 111.369 69.6721 111.778 68.5996C112.334 67.1461 113.038 65.8783 114.525 65.2041C115.38 64.8163 116.37 64.748 117.254 65.0856C118.002 65.3715 118.648 65.9998 118.969 66.7352C119.163 67.181 119.221 67.6447 119.265 68.1251C119.799 67.8876 120.268 67.6458 120.485 67.0613C120.68 66.5385 120.337 65.484 120.862 65.183C121.162 65.0115 124.946 65.0114 125.335 65.1652C125.468 65.2178 125.577 65.3038 125.637 65.4362C126.19 66.6315 123.358 70.6 125.845 71.7451C126.115 71.8696 126.412 71.8961 126.69 71.7796C127.567 71.4119 128.222 69.9687 128.532 69.1284C128.674 68.7431 128.897 67.6686 129.27 67.4859C129.416 67.4139 129.585 67.4025 129.74 67.4543C130.668 67.774 129.62 69.8766 129.35 70.4179C128.575 71.9747 127.174 73.8004 125.215 72.8377C122.687 71.594 123.691 68.4664 124.322 66.3504C123.453 66.3054 122.676 66.3256 121.827 66.2999C121.808 68.2813 120.925 68.926 119.128 69.3646C118.803 70.1942 118.51 71.1231 117.888 71.7603C115.972 73.7215 113.05 73.6694 111.853 70.9768C111.289 71.7686 110.394 72.7125 109.401 72.8955C108.731 73.0165 108.04 72.8629 107.483 72.47C106.551 71.8206 106.018 70.6098 105.674 69.5387L105.607 69.3265L105.522 69.3546C105.049 70.2468 103.966 70.4502 103.138 71.0508C101.055 72.5726 99.5624 74.4312 98.9433 76.9432C98.355 79.3317 100.349 82.6308 102.756 82.995C106.35 83.539 109.93 79.5961 111.705 76.8979C112.27 76.1596 112.671 74.9776 113.361 74.3728C113.877 73.9216 114.419 74.3921 114.677 74.8164C114.702 78.4829 114.339 82.4511 116.789 85.6675C117.442 86.5123 118.664 87.2362 119.733 87.2851C122.341 87.4042 126.943 85.7138 127.065 82.6182C127.167 80.0285 125.11 77.4156 123.357 75.689C122.719 75.061 121.381 74.2832 121.36 73.3406C121.368 72.8092 122.266 72.6379 122.671 72.7694C123.312 72.9781 123.963 73.3849 124.591 73.6501C127.284 74.8591 131.346 75.9032 133.984 74.0888C135.068 73.3361 135.818 71.5703 135.953 70.2982C136.139 68.5471 136.172 66.3396 134.998 64.8787C133.044 62.4076 128.998 63.2492 126.367 63.9136C125.854 64.0432 124.984 64.5076 124.548 64.45C124.176 64.2285 124.089 63.9291 123.911 63.5354C124.213 62.9246 124.745 62.3038 125.145 61.7604C128.207 57.6289 128.954 52.9396 123.108 51.2599ZM60.534 75.8731C58.8647 77.8254 57.3569 80.4284 57.4752 83.1052C57.4925 83.4969 57.5602 83.747 57.7786 84.0691C58.633 84.6344 59.1294 83.7709 59.4596 83.0513C60.3068 81.2056 60.3058 79.0325 60.4599 77.0426C60.4803 76.763 60.5848 76.068 60.534 75.8731ZM49.9172 75.8016C48.5756 77.6605 47.1783 79.5034 46.9537 81.8725C46.8947 82.4943 46.7711 83.697 47.2312 84.1802C49.7354 85.0331 49.7635 77.3133 50.0164 75.9213L49.978 75.8217L49.9172 75.8016ZM115.747 66.1273C112.692 66.7015 111.489 72.0277 115.258 71.8188C115.541 71.7684 115.83 71.7252 116.093 71.6001C118.123 70.6324 119.096 65.9206 115.747 66.1273ZM105.53 55.288C105.235 55.3261 104.452 55.9553 104.207 56.1923C103.014 57.3496 102.391 58.9797 101.79 60.4883C100.299 64.2278 101.559 66.9151 105.362 68.1261L105.309 67.8631C104.777 65.091 104.929 60.6647 105.153 57.8537C105.191 57.3819 105.349 56.5914 105.484 55.9514L105.606 55.3788L105.53 55.288ZM108.634 52.5711C108.054 52.2721 107.391 53.9561 107.229 54.2817C107.059 54.5058 106.919 55.282 106.841 55.5888C106.231 57.9828 106.164 60.3167 106.195 62.7698C106.207 63.678 106.187 64.7818 106.262 65.6859C107.391 63.8912 108.268 60.9307 108.871 58.8864C109.046 58.2923 109.385 55.4439 109.158 54.9479C109.149 54.7376 109.136 54.5273 109.118 54.3175C109.086 53.9554 108.926 52.7218 108.634 52.5711ZM100.317 62.1014C100.291 62.2167 100.276 62.3034 100.267 62.3832C100.276 62.3035 100.292 62.217 100.317 62.1017L100.317 62.1014ZM103.364 55.5977C103.166 55.6414 103.169 55.6674 103 55.7539C101.096 56.7303 99.1494 56.9167 97.0448 56.8842C96.39 56.8741 94.9878 56.677 94.8581 57.5798C94.6534 59.0104 94.5939 60.4722 94.3241 61.9105C95.4345 61.8785 99.606 61.5732 100.317 62.1014C100.486 61.7067 100.695 60.7038 100.88 60.1952C101.554 58.3471 102.241 57.1794 103.364 55.5977ZM102.977 54.1977C104.346 52.1049 101.321 52.1918 100.416 52.2316C98.0945 52.5069 96.2704 53.7128 95.1085 55.7379C95.816 55.6372 97.3596 55.6628 98.1371 55.6532C99.3866 55.5229 102.294 55.2428 102.977 54.1977Z" fill="white"/>
<path d="M26.2074 50.4789C29.2127 50.5238 32.8039 51.0646 35.0113 53.3396C36.3157 54.6658 37.0179 56.4708 36.9532 58.331C36.8281 63.3398 32.6807 65.6512 28.079 65.7432C27.2585 65.7596 26.3553 65.2939 27.3581 64.5628L27.4206 64.5182C28.4903 64.417 29.1051 64.4966 30.2272 64.2527C31.8602 63.9201 33.9477 62.9335 34.8059 61.42C36.5024 58.4281 35.71 54.8022 32.6692 53.1245C29.1866 51.2032 24.3479 51.5501 20.7101 52.4817C20.4566 52.5744 20.1769 52.6747 19.9049 52.7584C16.0992 53.8853 11.1384 57.4531 12.5556 62.0199C13.5798 64.6184 16.7877 65.0097 19.0928 64.0262C19.5637 63.8252 21.1648 62.7534 21.5077 63.4298C21.8775 64.1593 20.6477 64.7149 20.1428 64.9461C13.1608 68.1424 7.98953 61.4259 12.9945 55.5769C16.0888 52.0305 21.5377 50.5948 26.2074 50.4789Z" fill="white"/>
<path d="M28.3229 54.6488C28.6722 54.6764 28.8229 54.9397 29.0319 55.1922C28.5246 56.0789 27.6969 56.5162 27.1763 57.4175C26.1823 59.1 26.2812 61.0118 26.2548 62.8897C26.2118 65.9408 26.2464 69.7179 23.7759 71.9135C22.5203 73.0296 20.6986 73.4407 19.064 73.3091C17.0172 73.1443 15.5393 72.3552 14.2157 70.7814C13.5107 70.0018 13.4925 69.8152 14.2861 69.1954C15.4308 70.0365 15.5096 70.7114 16.9699 71.4922C18.0445 72.1365 20.2096 72.2894 21.4061 71.8254C27.1866 69.5835 23.4564 61.2088 25.9757 56.9487C26.5132 56.0396 27.3934 54.9314 28.3229 54.6488Z" fill="white"/>
<path d="M94.7685 89.5081C96.1382 89.4141 97.4716 89.8184 97.896 91.2004C98.748 93.9731 96.5858 95.3827 94.0843 95.1201C93.8646 95.0969 93.3068 95.0649 93.1403 95.1652C93.1422 95.2247 93.1434 95.2843 93.1447 95.3438C93.1559 95.8941 93.2655 97.587 92.9306 97.9373C92.6683 97.9718 92.7778 98.0025 92.58 97.896C92.2758 96.9834 92.5569 94.0991 92.4692 92.9716C92.3465 91.3909 93.007 89.7983 94.7685 89.5081ZM93.1403 94.5516C93.9554 94.4877 94.8211 94.5642 95.5773 94.4758C96.9295 94.1329 97.7514 93.0982 97.3996 91.6661C97.2725 91.1283 96.9358 90.6633 96.465 90.3749C96.0293 90.113 95.429 90.0283 94.93 90.0716C92.7378 90.5178 93.0858 92.8149 93.1403 94.5516Z" fill="white"/>
<path d="M52.4495 89.5132C53.0107 89.4931 53.5094 89.4793 54.0428 89.7049C54.672 89.9782 55.1629 90.4959 55.4027 91.139C55.697 91.9161 55.6198 92.8443 55.2853 93.5908C54.6147 95.0881 53.006 95.1364 51.5975 95.095C51.4013 95.0894 50.8902 95.0618 50.7206 95.1251L50.6774 95.3075C50.657 95.8183 50.9173 97.9774 50.3095 98C50.1111 97.8483 50.0401 97.7468 50.0287 97.4729C49.9609 95.8571 50.0071 94.2006 50.0291 92.5886C50.0507 91.0136 50.7321 89.693 52.4495 89.5132ZM50.704 94.5341C51.2274 94.5309 52.8944 94.5779 53.2521 94.4444C56.0526 93.6554 55.3805 89.7131 52.335 90.0685C50.7619 90.5486 50.6433 91.6704 50.6668 93.1264C50.6746 93.6071 50.6488 94.049 50.704 94.5341Z" fill="white"/>
<path d="M126.95 89.5157C129.34 89.1647 130.368 90.9484 130.275 93.0637C130.254 93.5507 130.399 94.5247 130.122 94.9158C129.654 95.174 128.823 95.1119 128.248 95.1314C127.356 95.1502 126.451 95.0342 125.713 94.4758C125.119 94.0195 124.734 93.3426 124.646 92.5987C124.467 91.1101 125.43 89.6918 126.95 89.5157ZM127.716 94.5065L129.605 94.5203L129.596 94.4307C129.472 93.1251 129.914 91.4223 128.812 90.4771C128.451 90.1675 127.653 89.997 127.189 90.0779C124.248 90.5103 124.923 94.702 127.716 94.5065Z" fill="white"/>
<path d="M58.3281 89.5188C60.7864 89.3941 61.5715 90.8337 61.5034 93.1377C61.4902 93.5839 61.5887 94.546 61.4021 94.9252C60.9073 95.1514 59.753 95.1144 59.1683 95.1182C54.8655 95.0618 55.0513 89.9318 58.3281 89.5188ZM59.3973 94.5071C59.8969 94.5128 60.3963 94.5284 60.8952 94.5541C60.7831 92.3599 61.4069 89.9011 58.1934 90.0766C55.6865 90.8318 55.8334 94.5491 59.3973 94.5071Z" fill="white"/>
<path d="M45.4363 94.6463C45.1677 94.9603 45.0818 95.1276 44.6725 95.1627C44.458 95.0981 44.3557 94.9979 44.2574 94.8023C43.734 93.7613 44.3023 91.2869 43.9153 90.5968C43.8241 90.4339 43.6188 90.3104 43.447 90.2546C43.0978 90.1405 42.5518 90.0315 42.2215 90.2577C41.893 90.4828 41.8318 91.0017 41.8051 91.3646C41.7341 92.3273 42.132 94.0772 41.3178 94.761C40.7734 95.2185 39.8101 95.1803 39.1417 95.0944C38.7807 95.048 38.3458 94.917 38.0985 94.6293C37.6717 94.1323 37.7057 88.0854 37.8738 87.1804C37.9094 86.9892 37.9489 86.867 38.0997 86.7429C38.2363 86.7523 38.2954 86.7492 38.3796 86.8783C38.7974 87.5195 38.2107 93.1552 38.5897 94.096C38.6642 94.2809 38.8481 94.3742 39.0267 94.4369C39.4054 94.5698 40.4262 94.5974 40.7872 94.405C40.9489 94.3185 41.0388 94.1843 41.081 94.0089C41.3903 92.7246 40.6143 90.6601 41.9285 89.7494C42.3296 89.4718 42.8932 89.49 43.3491 89.5921C43.7457 89.6818 44.1353 89.8209 44.357 90.1807C44.5346 90.4683 44.6524 90.7805 44.678 91.1183L44.8864 91.1014C45.0364 89.8071 45.8929 89.3345 47.1366 89.5357C48.9584 89.8303 48.1703 92.6544 48.4599 93.8471C48.6385 94.5955 49.3143 94.3736 49.4189 94.9151C49.3271 95.1213 49.3964 95.0417 49.2021 95.1602C48.9457 95.1683 48.3238 94.8901 48.1361 94.7058C47.1404 93.7256 48.6366 90.2333 46.767 90.0315C45.7764 89.9249 45.479 90.8381 45.4866 91.6755C45.4945 92.5492 45.6213 93.7776 45.4363 94.6463Z" fill="white"/>
<path d="M44.8864 91.1014C44.9375 91.8102 45.0861 93.8428 44.8636 94.4087L44.7565 94.4438C44.5061 94.106 44.5557 91.5827 44.678 91.1183L44.8864 91.1014Z" fill="white"/>
<path d="M79.8834 89.4574C80.0793 89.4687 80.0724 89.4724 80.2571 89.5439C80.5157 89.8917 80.3053 93.248 80.4161 94.0715C80.5733 94.2339 80.7366 94.3617 80.91 94.5046C82.8406 94.6387 82.3448 93.4805 82.3586 92.0315C82.3705 90.7197 82.4444 90.2628 83.5599 89.5714C86.7757 89.3991 85.7378 91.6798 85.9832 93.8077C86.0771 94.6243 86.9735 94.3905 87.4355 94.6563C87.5138 94.8506 87.4818 94.8055 87.4149 95.058C86.7863 95.2204 86.3594 95.0455 85.7616 94.8462C84.6542 93.3038 86.253 89.5777 83.7659 90.2057C82.4794 90.531 83.374 93.3313 82.7417 94.6206L82.7042 94.6958C81.4841 95.4416 79.8928 95.3827 79.7144 93.6547C79.6549 93.0819 79.6518 92.5272 79.6649 91.9525C79.6812 91.2242 79.6724 90.4884 79.7238 89.762C79.7319 89.6511 79.8208 89.5395 79.8834 89.4574Z" fill="white"/>
<path d="M110.799 89.458C111.271 89.4304 111.689 89.4549 112.145 89.5551C113.626 89.8679 114.469 92.1756 112.886 92.9503C112.197 93.2881 111.391 93.1853 110.647 93.1997C110.226 93.2079 109.69 93.2492 109.296 93.1082C109.164 92.9866 109.177 92.9916 109.134 92.8149C109.548 92.2051 112.146 92.9333 112.778 92.2734C113.433 91.5896 112.98 90.877 112.468 90.2991C111.692 90.0309 110.706 89.955 109.921 90.2189C109.475 90.3693 109.232 90.6538 108.915 90.9791C108.539 91.7807 108.416 92.6262 108.871 93.3752C109.846 94.9853 111.79 94.3091 113.301 94.5754C113.431 94.598 113.474 94.7089 113.505 94.8199L113.407 94.9741C113.264 95.0587 113.103 95.1276 112.936 95.1301C111.589 95.1477 110.022 95.2862 108.92 94.3824C108.358 93.9192 108.009 93.2467 107.953 92.5203C107.85 91.327 108.46 90.2659 109.52 89.7357C109.96 89.5163 110.323 89.5006 110.799 89.458Z" fill="white"/>
<path d="M114.125 89.4442C115.29 89.3953 116.428 89.4536 117.591 89.421C117.963 89.4104 118.696 89.4166 118.937 89.7344C119.054 89.8873 119.166 90.5153 119.017 90.7115C118.333 91.6134 114.821 93.394 114.649 94.2633C114.97 94.9101 118.868 94.069 119.079 94.8067C119.011 94.9847 118.922 95.0186 118.763 95.1264C117.833 95.137 116.895 95.1514 115.965 95.1539C114.781 95.1571 113.446 95.1307 114.153 93.5645C115.412 92.662 116.696 91.7883 117.944 90.8707C118.156 90.714 118.471 90.4746 118.493 90.207C118.04 89.8316 114.553 90.5153 114.023 89.8234C114.021 89.5589 113.991 89.6811 114.125 89.4442Z" fill="white"/>
<path d="M119.937 89.4473C120.729 89.4311 124.146 89.1866 124.475 89.8798C125.17 91.3433 120.312 93.0938 120.095 94.2345C120.524 94.9565 124.52 93.98 124.436 94.9233C124.288 95.0956 124.181 95.09 123.956 95.1357C122.842 95.1445 121.141 95.2473 120.057 95.0455C119.271 94.9001 119.328 94.1994 119.587 93.5626C120.295 93.0524 123.746 90.7967 123.921 90.2602C123.503 89.7407 119.869 90.536 119.425 89.7438L119.472 89.594C119.604 89.4636 119.746 89.4724 119.937 89.4473Z" fill="white"/>
<path d="M69.1049 90.6689L68.9176 90.6282C68.8628 90.6476 68.8077 90.6658 68.7524 90.6833C68.3145 90.8231 67.2481 91.1095 67.0961 90.4608L67.1832 90.3417C67.4369 90.2433 67.4743 90.2534 67.7571 90.2471L67.8381 90.2458C68.5965 89.7144 67.1838 85.7464 69.2966 86.9378C69.6389 87.1303 69.4961 89.7764 69.4675 90.2233C70.0025 90.2552 71.8484 90.0735 71.6539 90.9566C71.1843 91.5463 70.2443 91.5238 69.5628 91.3947L69.4334 91.3395C69.2656 91.1371 69.2209 90.9102 69.1403 90.6545L69.1049 90.6689Z" fill="white"/>
<path d="M64.026 89.5689C64.7477 89.5295 66.0077 89.8353 66.5075 90.3712C66.5707 90.5968 66.5793 90.4896 66.4756 90.704C66.2555 90.8187 65.0323 90.3185 64.6566 90.2132C64.2305 89.9337 63.0638 90.4163 63.1678 90.9622C63.4403 92.3912 65.4287 91.6291 66.4739 92.9033C66.8315 94.3949 66.2685 94.8299 64.8756 95.0994C64.7246 95.0668 64.574 95.0323 64.4238 94.996C63.8902 94.8663 62.706 94.5002 62.4096 94.0101C62.4069 93.7832 62.3772 93.8885 62.5252 93.6923C62.5722 93.6779 62.6192 93.6629 62.6662 93.6485C63.5192 93.9493 64.066 94.3084 64.9591 94.5579C65.15 94.4965 65.6871 94.3235 65.785 94.1555C66.9465 92.1631 62.8018 93.0148 62.5795 91.3809C62.4356 90.3236 63.0825 89.7614 64.026 89.5689Z" fill="white"/>
<path d="M98.8507 89.4499C99.0091 89.4718 99.0366 89.4825 99.1919 89.5263C99.6282 90.118 98.6892 93.3363 100.179 94.0834C101.521 94.7559 102.272 94.6494 103.173 93.431C103.759 92.6375 103.011 89.96 103.678 89.5025C103.88 89.4912 103.79 89.4687 103.96 89.5652C104.102 89.7582 104.067 89.9212 104.063 90.1681C104.071 91.3533 104.286 92.9985 103.553 93.9875C102.091 95.891 99.0416 95.1539 98.7036 92.7372C98.6354 92.2333 98.6635 91.7024 98.6861 91.1922C98.7117 90.6068 98.4989 89.945 98.8507 89.4499Z" fill="white"/>
<path d="M69.5628 91.3947C69.0829 91.6009 69.3412 93.3276 69.3508 93.6767C69.465 94.672 71.0729 94.7083 71.6765 94.4256C72.6994 93.9474 71.5815 89.8096 72.4612 89.4718C72.5585 89.5094 72.6462 89.5119 72.6937 89.6128C72.8521 89.9488 72.8089 93.7337 72.6743 94.1511C72.5592 94.509 72.3291 94.8061 71.9906 94.9759C71.2134 95.3664 70.0167 95.1107 69.245 94.828C68.4643 93.9011 68.6344 92.3486 68.8354 91.2204C68.8524 91.1252 69.0471 90.7936 69.1049 90.6689L69.1403 90.6545C69.2209 90.9102 69.2656 91.1371 69.4334 91.3395L69.5628 91.3947Z" fill="white"/>
<path d="M38.9703 58.6451C39.8147 58.6817 39.7549 59.2352 39.7364 59.9122C39.6956 60.4321 39.702 61.0018 39.6229 61.5154C39.4993 62.3188 39.6593 63.1141 39.0322 63.7014C38.9105 63.6821 38.5166 63.6138 38.4651 63.5269C38.0632 62.8491 38.3772 60.9888 38.4124 60.213C38.4424 59.5506 38.5467 58.9977 38.9703 58.6451Z" fill="white"/>
<path d="M106.731 89.4492C107.193 89.4317 108.01 89.3765 108.36 89.7369C107.957 90.4069 106.526 89.6504 105.679 90.5229C104.947 91.2768 105.175 93.1828 105.19 94.2733C105.188 94.6074 105.12 95.0173 104.766 95.1483L104.661 95.0906C104.367 94.6995 104.505 91.9287 104.602 91.3452C104.796 90.1763 105.624 89.6103 106.731 89.4492Z" fill="white"/>
<path d="M72.3918 86.6978L72.6387 86.8163C72.9542 87.1867 72.9179 87.8905 72.5271 88.2377C72.4224 88.207 72.3692 88.1713 72.2709 88.1205C71.9669 87.7006 72.0283 87.0632 72.3918 86.6978Z" fill="white"/>
<path d="M79.9554 86.6909L80.2214 86.8363C80.5169 87.2512 80.4493 87.9394 80.0399 88.2716L79.8095 88.1255C79.5291 87.6523 79.6061 87.1052 79.9554 86.6909Z" fill="white"/>
</svg>
