<svg width="148" height="148" viewBox="0 0 148 148" fill="none" xmlns="http://www.w3.org/2000/svg">
<path d="M73.189 31.0881C78.8792 30.3609 83.8532 34.2436 86.7803 38.7646C87.1626 39.3555 87.6571 40.0949 87.9398 40.7327C98.2058 36.5261 108.917 40.7183 108.755 53.118C108.54 69.5908 90.4733 89.9364 73.7453 89.8931C69.9824 89.9491 66.4024 88.9994 62.9875 87.4039C53.0043 82.7401 44.3174 72.9625 40.4517 62.6541C38.5637 57.6196 37.6393 51.1429 39.9704 46.1165C41.2646 43.253 43.6639 41.0418 46.616 39.992C50.9208 38.4285 56.6423 39.3266 60.6968 41.2466C63.2682 36.3297 67.3846 31.746 73.189 31.0881ZM73.872 86.7035C76.667 86.4002 78.7637 85.7065 80.6487 83.4292C82.705 80.9434 83.1437 77.059 82.7581 73.8979C81.5926 64.3427 74.9705 55.0594 67.6675 49.1515C63.2889 45.6094 56.6135 42.0026 50.8388 42.3589C44.1798 42.7019 41.4151 47.9417 41.7922 54.085C42.6733 68.4412 59.0614 87.0274 73.872 86.7035ZM85.4575 70.7439C85.8584 72.728 86.1431 75.0086 86.0037 77.0314C90.2018 68.1116 90.4169 56.1055 87.2044 46.8382C85.1701 40.968 80.7881 33.8864 73.7393 34.2182C68.9027 34.8639 65.7528 38.5103 63.5631 42.6011C73.2913 47.9733 81.7538 57.9528 84.9384 68.7119C85.1442 69.4067 85.2803 70.0478 85.4575 70.7439ZM89.331 43.576C93.5112 52.878 93.5324 66.275 89.9536 75.7999C89.0483 78.2724 87.8297 80.6178 86.3289 82.7788C88.0155 81.6825 89.3509 80.7541 90.9153 79.4602C98.0491 73.5333 104.381 64.3943 105.49 54.955C105.865 51.7637 105.367 48.0772 103.291 45.5259C101.357 43.1512 98.0412 42.0991 95.0458 42.3544C93.1601 42.4533 91.1131 42.9637 89.331 43.576Z" fill="white"/>
<path d="M37.3624 90.6115C40.3476 90.2763 43.0367 92.4382 43.3643 95.4366C43.6919 98.4342 41.5337 101.13 38.5472 101.453C35.5688 101.776 32.893 99.6158 32.5663 96.6262C32.2395 93.6358 34.3853 90.9447 37.3624 90.6115ZM38.4805 98.4962C39.8365 98.2123 40.7076 96.8801 40.4275 95.5179C40.1474 94.1557 38.8217 93.2786 37.4648 93.5579C36.1045 93.8371 35.2283 95.1727 35.5092 96.5375C35.79 97.9031 37.1212 98.7808 38.4805 98.4962Z" fill="white"/>
<path d="M60.8896 104.312C63.8633 103.916 66.5931 106.016 66.9869 109.002C67.3806 111.988 65.289 114.729 62.3153 115.124C59.3418 115.519 56.6123 113.419 56.2186 110.434C55.8249 107.448 57.9162 104.707 60.8896 104.312ZM61.7817 112.234C63.1683 112.134 64.2095 110.921 64.104 109.529C63.9985 108.138 62.7866 107.097 61.4008 107.208C60.0229 107.319 58.9935 108.528 59.0984 109.912C59.2033 111.296 60.4029 112.334 61.7817 112.234Z" fill="white"/>
<path d="M29.0962 81.5579C32.081 81.1653 34.8145 83.2853 35.19 86.2843C35.5654 89.2833 33.4395 92.0164 30.4507 92.3776C27.4844 92.7361 24.7871 90.6208 24.4144 87.6445C24.0418 84.6675 26.1339 81.9484 29.0962 81.5579ZM30.2525 89.4412C31.6126 89.1926 32.5164 87.8864 32.274 86.5202C32.0316 85.1533 30.7341 84.241 29.3721 84.4796C28.0031 84.7195 27.0886 86.0304 27.3324 87.4039C27.5761 88.7775 28.8852 89.6912 30.2525 89.4412Z" fill="white"/>
<path d="M122.81 73.0777C125.772 72.6572 128.514 74.7213 128.943 77.6937C129.372 80.6661 127.326 83.4272 124.367 83.8678C121.394 84.3109 118.628 82.2443 118.197 79.2574C117.766 76.2704 119.834 73.5002 122.81 73.0777ZM123.838 80.9814C125.206 80.835 126.203 79.6098 126.071 78.2343C125.94 76.8588 124.731 75.8458 123.359 75.9628C122.459 76.0396 121.669 76.5962 121.291 77.4201C120.913 78.2441 121.006 79.2085 121.532 79.9453C122.059 80.6822 122.94 81.078 123.838 80.9814Z" fill="white"/>
<path d="M73.0616 106.142C76.0484 105.751 78.7817 107.876 79.1527 110.877C79.5237 113.878 77.3905 116.609 74.3997 116.962C71.4347 117.313 68.7441 115.195 68.3764 112.22C68.0086 109.245 70.1016 106.53 73.0616 106.142ZM74.0619 114.052C75.4364 113.889 76.4194 112.64 76.2608 111.259C76.1015 109.879 74.8597 108.888 73.4844 109.045C72.1044 109.201 71.1136 110.454 71.2732 111.839C71.4329 113.224 72.6826 114.216 74.0619 114.052Z" fill="white"/>
<path d="M104.751 93.4646C107.733 93.0714 110.466 95.1873 110.845 98.183C111.224 101.179 109.104 103.913 106.119 104.281C103.152 104.646 100.449 102.534 100.072 99.5565C99.6959 96.5789 101.787 93.8558 104.751 93.4646ZM105.59 101.39C106.98 101.315 108.045 100.119 107.964 98.7228C107.882 97.3273 106.686 96.2643 105.296 96.3529C103.916 96.4409 102.867 97.6318 102.947 99.018C103.028 100.404 104.209 101.464 105.59 101.39Z" fill="white"/>
<path d="M84.6948 104.862C85.4309 104.722 86.6628 105.007 87.3299 105.349C89.8713 106.65 90.9041 110.006 89.5879 112.54C88.5193 114.597 86.6841 114.942 84.6676 115.571C84.0012 115.797 83.295 116.008 82.622 116.221C81.6702 112.949 80.506 109.669 79.5443 106.386C80.7775 105.964 83.5068 105.003 84.6948 104.862ZM83.3415 108.16C83.7962 109.603 84.2986 111.115 84.7168 112.564L85.6752 112.24C86.2639 112.008 86.8022 111.728 87.0385 111.101C87.6305 109.528 86.6694 107.672 84.8887 107.723C84.3617 107.822 83.8532 107.997 83.3415 108.16Z" fill="white"/>
<path d="M115.75 82.4702C116.086 82.4416 116.533 82.4542 116.878 82.4549C116.726 83.4053 116.566 84.3536 116.397 85.3013C112.706 85.4686 113.171 90.5928 116.719 90.4342C117.899 90.3816 119.226 88.8821 119.027 87.6878C118.997 87.5092 119.019 87.3899 118.88 87.278C118.566 87.5299 117.834 88.4929 117.516 88.8788C116.896 88.4336 116.15 87.7651 115.557 87.2586C116.666 85.9364 117.856 84.5589 118.925 83.2126C119.346 83.5632 119.76 83.9224 120.166 84.289C123.486 87.5065 121.21 92.5942 116.956 93.2866C114.129 93.7465 111.21 91.3466 110.89 88.4889C110.726 87.0614 111.146 85.6285 112.052 84.5169C112.963 83.3653 114.295 82.6288 115.75 82.4702Z" fill="white"/>
<path d="M50.3949 99.5345C51.5982 99.5205 52.775 99.8898 53.7565 100.589C55.1587 101.597 55.7306 102.846 56.0024 104.502C55.0386 104.541 54.0741 104.563 53.1095 104.568C52.9448 103.563 52.3129 103.001 51.4233 102.626C50.8795 102.39 50.2633 102.39 49.7188 102.624C48.6503 103.091 47.9638 104.421 48.1124 105.565C48.2802 106.855 49.7208 107.903 50.9894 107.72C51.2755 107.678 51.5516 107.539 51.8109 107.417C51.1517 107.087 50.5296 106.719 49.8597 106.4C49.9889 106.038 50.8239 104.386 51.1025 104.198L51.231 104.243C52.6838 105.031 54.1766 105.894 55.6392 106.642C54.7137 108.562 53.5987 110.158 51.3151 110.435C48.4963 110.777 45.4912 108.538 45.2133 105.651C45.0609 104.119 45.5351 102.591 46.5271 101.417C47.5982 100.151 48.795 99.6772 50.3949 99.5345Z" fill="white"/>
<path d="M97.9867 98.1024C98.2881 98.3683 99.2266 100.11 99.4715 100.557C99.0879 100.847 97.8686 101.528 97.4 101.804C98.6604 103.87 99.9235 106.126 101.147 108.23C100.438 108.707 99.3474 109.297 98.5974 109.726L97.4644 107.769L94.8719 103.304C94.2825 103.583 93.3234 104.184 92.7426 104.531C92.3039 103.716 91.7868 102.854 91.3288 102.04C93.326 100.727 95.8807 99.3966 97.9867 98.1024Z" fill="white"/>
<path d="M26.5178 72.7889C26.7433 72.9669 30.1584 78.7341 30.5759 79.4302C30.2359 79.7246 28.6243 80.6586 28.1495 80.9427C27.7229 80.256 27.3028 79.5652 26.8894 78.8704L22.8251 81.3373C22.0725 81.8178 21.3081 82.2803 20.5325 82.7221C20.0594 81.8984 19.4997 81.0247 19 80.2093C21.047 78.9035 23.2815 77.5896 25.3637 76.3195C24.983 75.7862 24.4632 74.8567 24.1119 74.2679C24.6829 73.8408 25.865 73.1765 26.5178 72.7889Z" fill="white"/>
</svg>
