<svg width="148" height="148" viewBox="0 0 148 148" fill="none" xmlns="http://www.w3.org/2000/svg">
<path d="M72.7307 43.9176C73.4925 43.5243 73.5675 43.3054 74.4671 43C74.6875 43.178 74.9272 43.4033 75.1421 43.5943C76.8929 43.0383 76.1263 44.1763 76.8337 44.7548L77.0631 45.0027C77.6217 45.8359 78.5508 45.582 79.3236 45.2508L79.449 45.196C79.6997 45.2419 79.9098 45.4573 80.1157 45.6255C80.343 45.423 80.4828 45.27 80.7639 45.1504C81.4657 45.223 81.6166 45.9856 81.9458 46.0351C83.355 46.332 85.0067 46.1997 86.3918 46.3164C88.0256 46.4541 87.8837 47.3282 89.7668 46.5694C90.4026 46.8155 90.8324 47.282 91.5046 47.4152C92.4049 47.0558 92.347 47.7419 93.3636 47.8946L93.8231 48.43L94.5001 48.0884C95.4492 48.6133 95.5498 49.1725 96.3798 49.8051C96.5058 49.9009 97.4398 49.9437 97.6237 50.089C98.8298 51.0419 100.648 53.7151 101.098 55.1276C101.507 56.4135 101.526 58.0343 100.904 59.1238C99.4641 61.6454 96.8351 62.408 94.361 63.1771C94.4416 63.5943 94.6007 64.0452 94.7302 64.4541C95.4789 63.9743 95.627 63.5892 96.5954 63.2847C97.6843 62.9424 97.1822 63.4962 97.6809 63.66C97.7959 63.5713 97.9619 63.4384 98.1065 63.4237C98.5949 63.3737 99.699 63.7626 99.8188 64.268C99.3891 64.5711 98.2822 64.2206 98.0756 64.3633C97.01 65.1002 97.3475 65.4576 96.1835 64.8291C95.9955 64.7278 94.4884 66.0057 94.0462 66.0337C93.3705 66.0763 92.1569 65.7717 91.6114 65.9153C91.1912 66.2232 91.3738 66.6564 90.8303 66.8099C90.3261 66.6775 89.2289 65.3719 88.8535 64.9057C87.5159 65.5166 87.091 64.711 86.4339 65.0546C86.2816 65.2527 86.2934 65.239 86.2672 65.4909C86.4504 65.8208 87.4037 66.0416 87.9264 66.2893C88.2371 66.225 88.7034 66.094 88.9913 66.202C89.3825 66.6738 88.6441 67.5396 88.0973 67.4984C87.4774 66.9354 87.549 67.3297 86.9945 67.2414C86.1239 67.1027 85.1569 66.524 84.4578 65.9943C84.1299 66.4319 83.5073 67.6357 83.3544 67.7409C82.649 67.8598 82.191 66.8221 81.2302 66.4672L81.142 66.4356C80.9512 66.6524 80.757 66.8659 80.5593 67.0761C79.9876 66.6571 79.6281 66.3388 79.1514 65.8213C78.2195 65.9869 77.7326 65.9514 76.7876 65.888C76.6932 66.4964 76.5885 67.4811 75.8791 67.5923C75.4513 67.4525 75.3804 67.276 75.1717 66.8698C74.1372 67.1452 74.0958 66.924 73.0985 66.9715C72.8863 66.9991 72.7954 67.3684 72.6632 67.5361C72.1876 68.1366 71.5047 67.6296 71.0514 67.2693C70.5559 67.2395 69.8839 67.257 69.3754 67.2547C69.3624 67.2729 69.3495 67.2911 69.3366 67.3093L69.2743 67.3926C68.543 68.3822 67.3188 66.8741 66.6606 66.3505C66.3167 66.0733 65.9422 65.8371 65.5446 65.647C65.5183 65.6349 65.492 65.6228 65.4657 65.6106L65.0893 66.2517C64.8833 66.3546 64.5017 66.5705 64.2697 66.5539C63.6384 66.5086 63.6072 65.5401 63.3653 65.097C63.2342 64.8567 63.0387 64.6313 62.8625 64.4233C62.5099 64.5762 62.3654 64.6885 62.0235 64.5681L61.9637 64.4061C62.0033 64.1186 62.1564 63.9472 62.3211 63.7026C60.8502 62.4515 61.5256 62.5667 62.8009 62.1067C63.137 62.3274 63.4449 62.5141 63.7898 62.718C64.1297 62.4872 64.4969 62.1561 64.8795 62.2264C65.6521 63.1583 65.6616 62.6143 66.4639 62.6314C67.242 62.648 67.1607 63.7231 68.231 63.8174C68.5672 63.7322 68.8048 63.1974 68.9747 63.1279C69.9064 62.7468 71.6981 63.203 72.7217 63.2128C73.4594 63.2199 74.266 63.1875 74.8425 63.2449L74.9747 63.2587C75.5519 63.3156 75.7771 63.4167 76.3282 63.6152C77.2552 63.3605 77.4867 63.6654 77.9778 63.5094C78.1396 63.3325 78.1555 63.2955 78.3655 63.1737C78.8684 63.1334 79.5812 63.7086 80.1405 63.9146C81.5711 62.2346 83.1353 63.302 84.7395 63.896C85.9744 61.8048 86.2555 62.4697 88.2598 62.0422C91.3083 61.3918 94.516 60.5138 96.9969 58.525C97.6947 57.9657 98.0625 57.4765 98.1617 56.5606C98.4055 54.6657 97.6127 52.7941 96.136 51.6125C95.1358 50.8125 93.8747 50.1234 92.7417 49.5379C92.6391 49.485 92.3229 49.5744 92.2051 49.5598C91.2973 49.3 90.4598 49.2162 89.5313 49.1051C89.1855 48.7882 89.0843 48.6847 88.7978 48.3095L87.9753 48.6244C87.2301 48.4871 87.2673 48.4926 86.668 47.9982C86.4022 47.7791 86.2169 47.6519 85.8787 47.6943C85.606 47.8219 85.4889 48.0472 85.3063 48.3005L85.006 47.3988C84.5514 47.286 83.8 47.0832 83.3667 47.1968L83.3006 47.3191C83.5575 48.0422 85.2609 48.8382 85.9965 48.9795C84.8958 50.2837 86.3533 49.7778 86.8024 50.526C87.0937 51.0116 88.5808 54.3996 88.5305 54.7792C87.9099 55.0943 84.017 55.0696 83.5534 54.3172C82.5196 52.6386 81.1544 51.6627 80.2755 49.8968C79.7314 49.5537 78.8277 49.3141 78.4634 49.0288C77.2428 48.073 76.2882 47.0098 74.7033 46.5749C73.4167 46.222 71.3658 46.1428 70.1 46.7056C69.6574 46.9024 69.0456 47.3845 68.5611 47.6518C68.0802 47.4297 67.3826 47.2053 67.3953 46.5857C67.593 46.1494 68.1721 45.6802 68.5059 45.3632C69.1133 44.7864 69.1043 44.9662 69.8463 45.0068C70.0306 45.0169 70.1116 44.9258 70.2277 44.8173C70.2438 44.3564 69.8335 44.3002 69.823 43.8407C70.0197 43.6359 70.5625 43.6021 70.8194 43.7197C71.244 43.914 70.8036 44.6529 71.3302 44.7085C71.4861 44.725 71.6966 44.68 71.8188 44.5759C71.9499 44.1133 71.4861 43.7738 71.509 43.2733L71.6242 43.1702C72.2802 43.1058 72.4324 43.4438 72.7307 43.9176ZM93.4422 64.7893L93.5606 64.803C93.7893 64.5137 93.9126 64.2754 93.9429 63.9133C93.8458 63.6815 93.8444 63.6748 93.5716 63.6214C93.2968 63.7666 93.1109 63.8341 92.9166 64.0798C92.8326 64.5043 93.1143 64.5896 93.4422 64.7893ZM72.9504 66.5514C73.1667 65.674 72.9125 65.4955 72.069 65.5129C72.0355 65.6443 71.9664 65.785 72.0287 65.8675C72.2441 66.1528 72.6535 66.3122 72.9504 66.5514Z" fill="white"/>
<path d="M101.132 71.826C105.256 71.4682 107.257 77.2345 103.763 79.0359C105.466 80.1409 106.004 80.0656 107.318 81.7897C110.179 85.5424 109.394 90.35 105.628 93.1358C105.337 93.3645 104.986 93.5806 104.671 93.7723C104.489 93.8832 104.195 93.9871 104.002 94.0407C103.156 94.2771 98.2374 94.4472 97.6616 94.2806C97.581 94.0756 97.5548 93.6455 97.5562 93.4189C97.592 87.6527 97.4949 81.8845 97.5259 76.1183C97.5328 74.8349 97.3978 73.2251 97.5631 71.9871C97.8834 71.7989 100.411 71.8826 101.033 71.8342L101.132 71.826ZM98.7623 93.1344C101.214 93.1728 104.037 93.4461 105.759 91.2912C107.308 89.7602 107.71 88.9278 107.769 86.6488C107.809 85.0565 107.137 83.2133 106.005 82.0915C104.412 80.5132 102.526 80.1284 100.39 80.1381C99.8526 80.1444 99.3153 80.1465 98.7781 80.1444C98.8353 81.0179 98.8187 81.8733 98.8277 82.7462C98.8635 86.2166 98.8263 89.6668 98.7623 93.1344ZM98.7588 78.8777C99.6818 78.8637 100.61 78.8644 101.533 78.8707C102.466 78.877 102.931 78.6427 103.673 78.1331C105.105 76.5959 104.743 73.824 102.484 73.2774C101.61 73.0662 99.8733 73.0062 98.951 73.0746L98.8284 73.0843C98.7836 73.5465 98.8373 74.3873 98.8291 74.9074C98.8084 76.225 98.8112 77.5607 98.7588 78.8777Z" fill="white"/>
<path d="M117.39 79.4333C119.515 79.2423 121.3 79.5929 122.965 80.99C123.294 81.2661 124.033 82.1982 124.365 82.1111C124.574 81.7806 124.462 81.2264 124.657 80.8478C124.831 80.5125 125.324 80.5153 125.596 80.6986C125.903 82.0602 125.618 92.0622 125.628 94.1586C125.629 94.3182 125.47 94.3872 125.349 94.4528C124.036 94.4786 124.549 92.7475 124.474 91.752C123.728 92.1996 123.119 93.0863 122.156 93.6887C121.122 94.2513 119.908 94.6508 118.737 94.7505C116.725 94.9045 114.736 94.2325 113.218 92.8863C110.067 90.1451 109.77 85.0077 112.525 81.8629C113.769 80.4393 115.516 79.5671 117.39 79.4333ZM118.846 93.4649C121.127 93.2355 123.109 91.7813 124.033 89.6591C124.958 87.5363 124.683 85.074 123.312 83.2147C121.942 81.3554 119.688 80.387 117.414 80.6798C113.966 81.1246 111.509 84.2904 111.901 87.7866C112.293 91.2835 115.387 93.8128 118.846 93.4649Z" fill="white"/>
<path d="M14.7187 71.9655C15.8387 71.9769 17.5336 71.8815 18.5856 72.0702C21.2415 72.5461 22.6103 76.0883 20.9042 78.2391C20.553 78.6818 20.2023 78.8784 19.7312 79.1635C23.8981 80.4776 25.9291 84.7721 24.682 88.932C24.4423 89.7316 23.9622 90.4769 23.5057 91.1615L23.4588 91.2201C20.5376 94.8257 17.8215 93.5785 14.1205 93.9682L14.036 93.978C14.0929 92.0525 13.8939 72.5161 14.085 72.0732C14.2686 71.9365 14.4784 71.9694 14.7187 71.9655ZM14.99 92.9818C17.808 92.9344 19.86 93.331 21.9799 91.172C23.3641 89.7295 23.9619 88.4698 23.9873 86.4034C24.0083 84.6829 23.2507 82.834 22.0535 81.6133C20.7992 80.3333 18.9823 79.9847 17.2646 79.9952C16.572 80.0001 15.7263 80.0677 15.0408 79.9708C14.8076 80.5543 14.9884 91.5101 14.99 92.9818ZM14.9894 78.8979C16.3682 78.8707 18.9296 79.1649 19.8859 78.1059C20.391 77.4861 20.6789 77.0846 20.7698 76.2494C20.8778 75.2566 20.4905 74.1858 19.7052 73.5626C18.4018 72.5287 16.4479 73.0369 14.8864 72.8863C15.0076 73.6044 14.9655 74.708 14.9648 75.4616C14.9598 76.607 14.9679 77.7525 14.9894 78.8979Z" fill="white"/>
<path d="M65.6277 79.4054C69.701 78.8672 73.4298 81.7848 73.9409 85.9098C74.4526 90.0356 71.5513 93.7946 67.4728 94.2917C63.4234 94.7853 59.7412 91.874 59.2334 87.7775C58.7257 83.6817 61.5833 79.9401 65.6277 79.4054ZM67.3365 93.2265C70.8259 92.8082 73.323 89.6117 72.9222 86.0786C72.5206 82.5454 69.3712 80.0063 65.8791 80.4002C62.3696 80.7962 59.846 84.0031 60.2494 87.5537C60.6529 91.1043 63.8299 93.6475 67.3365 93.2265Z" fill="white"/>
<path d="M54.8102 44.5128C55.3704 44.5509 55.6268 44.9605 55.8398 45.4486C55.9748 45.7578 55.9061 45.9457 55.845 46.2721C56.198 46.2697 56.9583 46.3376 57.1939 46.0629C57.2086 45.6108 56.7048 45.4446 56.6668 45.0887C56.9145 44.9551 57.8031 45.0068 58.32 44.8351C58.9875 45.1562 59.5146 45.609 60.2677 45.5679C60.4617 45.471 60.5555 45.1652 60.7622 44.9085L60.9153 44.8933C61.2719 45.1358 61.4215 45.6013 61.5791 45.9957C61.8496 45.9507 62.1716 45.8733 62.4447 45.8157C62.9461 46.1159 63.2632 46.2542 63.8044 46.4874C64.4692 47.4854 65.1522 47.9892 66.1055 48.6894C66.4037 48.9083 66.8411 49.9644 67.2718 49.662C67.466 49.2558 67.3632 48.7459 67.3125 48.2947C67.8532 48.5393 68.3988 48.8253 68.93 49.0942C68.4465 49.1983 67.8154 49.2485 67.7217 49.7998C67.7999 50.115 68.0303 50.3157 68.2517 50.567C68.6049 50.3262 68.8334 50.0789 69.274 50.2084C70.5691 51.4864 71.9262 52.625 73.2872 53.822C73.8169 54.2877 76.3343 56.0976 76.5306 56.6639L76.4246 56.8022C75.4327 57.1653 75.7255 56.1717 74.4354 57.6816C73.4808 57.7251 73.2294 57.5767 72.3333 57.265C72.3078 57.5728 72.3195 57.8577 72.1659 58.1131C71.5516 58.2424 69.0182 56.7182 68.773 55.9586C68.5182 55.1693 69.0074 55.0238 68.8425 54.5179C68.0198 54.0238 66.3972 55.9601 67.1505 52.7702C66.5597 52.4433 66.1908 53.4981 65.5235 51.8207C64.7331 51.5602 64.6062 51.3838 64.0372 50.8257C64.0769 50.8647 63.1759 50.7634 62.9219 50.6023C61.8165 49.9013 62.7239 49.396 62.5662 48.7243C62.0385 48.5252 61.462 49.7522 60.4767 49.7896C59.9611 49.5498 60.0939 48.9743 60.1301 48.4865C58.6882 48.1347 56.8952 48.689 55.1428 48.679C54.6 49.1272 53.9669 49.4325 53.3571 49.7827C52.6971 50.1619 52.8388 49.7315 52.4245 49.5917C51.9872 50.0274 50.8992 51.3187 50.54 51.8218C49.6107 53.1234 49.2473 54.3514 48.0232 55.4314C48.0074 55.7622 48.0682 56.2369 47.6955 56.3025C47.3936 56.1556 47.2215 55.904 46.9973 55.6429C46.7344 55.8502 46.5188 56.1204 46.1908 55.9691L46.1642 55.8067C46.2281 55.5265 46.3772 55.3934 46.5644 55.1669C46.3143 54.853 46.0936 54.6923 46.181 54.273C47.2964 53.1605 46.4184 53.1842 46.25 52.4893C45.9514 51.2572 48.9541 51.4241 49.273 50.9284C48.9626 50.3538 48.0808 50.6206 47.8218 49.8914C47.9806 49.1507 49.5327 49.1404 50.1116 49.1916C49.7148 47.2238 50.725 47.3262 51.9994 46.801C52.3115 46.6724 52.3628 45.46 53.4189 45.8677C54.2271 46.1796 54.0157 45.0107 54.8102 44.5128ZM48.0211 53.679C48.1032 53.2541 48.0627 53.014 47.8472 52.6396C47.7233 52.5577 47.7404 52.5535 47.6041 52.51C47.4662 53.0319 47.3651 53.5776 48.0211 53.679ZM51.3414 48.873C51.691 48.5444 52.2401 47.9209 51.8874 47.4425C51.7312 47.6893 51.2529 48.5443 51.2781 48.7996L51.3414 48.873Z" fill="white"/>
<path d="M51.8874 47.4425C52.2401 47.9209 51.691 48.5444 51.3414 48.873L51.2781 48.7996C51.2529 48.5443 51.7312 47.6893 51.8874 47.4425Z" fill="white"/>
<path d="M85.9393 79.4277C88.0587 79.3022 89.8722 79.5741 91.5652 80.9726C91.7891 81.1574 92.0674 81.5018 92.2816 81.7221C90.5645 83.6204 88.5381 85.5369 86.728 87.3941C85.7251 88.4231 83.6264 90.6854 82.6215 91.4843C85.0536 93.9627 88.7915 93.7584 91.2801 91.4787C91.807 90.7579 92.1376 90.9482 92.8842 91.2117C91.911 92.9567 90.0699 93.939 88.1296 94.2241C83.8069 94.8536 80.1495 92.0483 79.6005 87.6611C79.0991 83.6525 81.9224 79.8425 85.9393 79.4277ZM82.0016 90.7237C82.5767 90.1667 83.1284 89.5769 83.6815 88.9968C85.8966 86.9075 88.7185 83.9969 90.8386 81.7513C88.9555 80.4393 88.4513 80.2741 86.0895 80.403C81.5663 80.8297 78.692 87.1229 82.0016 90.7237Z" fill="white"/>
<path d="M45.6043 79.4235C46.6001 79.3692 47.6183 79.404 48.594 79.6362C49.3701 79.8216 52.57 81.5464 52.223 82.445C51.9278 82.5998 51.7509 82.6535 51.4378 82.7601C51.302 82.551 51.1468 82.3558 50.9742 82.1766C50.2043 81.3728 48.9461 80.6798 47.8513 80.4651C41.6174 79.2423 37.4884 87.0037 42.0803 91.4913C43.9602 93.329 45.0779 93.2056 47.5274 93.163C49.4906 92.7371 49.8761 92.3237 51.3573 91.0723C51.5486 90.9105 52.1656 90.9698 52.2694 91.3713C52.2205 91.5429 52.1845 91.6265 52.0689 91.7687C49.6417 94.7532 45.0409 95.1464 41.9892 92.7831C36.8092 88.771 38.9866 80.0482 45.6043 79.4235Z" fill="white"/>
<path d="M133.585 80.295C133.735 80.3068 133.688 80.3019 133.833 80.3633C133.868 80.4407 133.904 80.516 133.928 80.5975C134.008 80.8618 134.061 81.2598 133.862 81.4857C133.639 81.7388 133.128 81.7994 132.827 81.9493C131.71 82.5063 130.478 84.144 130.061 85.3103C129.334 87.3453 130.023 93.3666 129.537 94.16C129.417 94.3559 129.27 94.4353 129.051 94.4869C128.308 94.2854 128.468 93.0124 128.452 92.3432L128.448 92.263C128.375 90.4107 128.428 88.2237 128.407 86.3337C128.387 85.0781 128.387 83.8219 128.411 82.5656C128.415 82.2805 128.203 79.8014 129.467 80.7662C129.85 81.0591 129.668 82.3815 129.61 82.9407C130.197 82.5754 130.469 82.1843 130.947 81.6921C131.739 80.8736 132.563 80.6519 133.585 80.295Z" fill="white"/>
<path d="M76.1876 71.9277C76.468 71.9205 76.78 71.8695 76.9969 72.0229C77.1815 72.3285 77.0975 75.7579 77.0941 76.3972L77.1051 82.2749C77.1333 84.8125 77.1416 87.3502 77.1285 89.8878C77.1251 90.5013 77.1795 93.8316 76.926 94.1237C76.6815 94.0477 76.3777 93.9759 76.1256 93.9083C76.2083 93.3018 76.1539 92.3662 76.1463 91.7262C76.1436 90.9001 76.1498 90.0739 76.1649 89.2478C76.2069 85.2643 76.1064 81.2522 76.169 77.2665C76.1952 75.5732 76.074 73.5967 76.1876 71.9277Z" fill="white"/>
<path d="M32.3548 80.3089L32.5401 80.3312C32.6769 80.4469 32.7103 80.4867 32.7461 80.6749C32.8799 81.3777 31.2315 81.8901 30.7022 82.3174C30.2798 82.6576 29.8798 83.1554 29.5681 83.6009C29.0598 84.3266 28.7599 85.1639 28.5925 86.0332C28.3732 87.1724 28.3248 92.8598 28.513 93.9836C28.1734 93.9871 27.7943 94.0233 27.4524 94.0477C27.5088 93.5109 27.4844 92.857 27.4791 92.3083C27.4862 90.9412 27.3483 80.9893 27.6535 80.5606C28.8293 80.2873 28.4602 82.5286 28.435 83.2063C29.9853 81.5798 30.1311 80.9893 32.3548 80.3089Z" fill="white"/>
<path d="M57.5858 61.2879C59.9151 61.4106 60.1607 62.2633 60.9248 64.215C61.0517 64.5392 61.1116 64.8235 60.968 65.1403C60.2208 65.8599 57.8724 64.1571 57.1947 63.7066C56.7044 63.9591 56.3927 64.309 55.7601 64.6159C55.1593 64.3063 54.198 63.8597 53.5225 63.8201C53.264 63.8049 53.2795 63.8258 53.0347 63.7393C52.8439 63.3505 53.1162 63.0031 53.489 62.8809C53.8493 62.7629 54.0735 63.0149 54.5061 62.7853C55.5948 62.2073 56.4164 61.6972 57.5858 61.2879Z" fill="white"/>
<path d="M35.4116 80.5188C35.7025 80.5034 36.0742 80.4686 36.3256 80.6101C36.4199 81.0137 36.3845 85.1771 36.3847 85.7683L36.3929 90.4894C36.4013 91.5631 36.4373 92.9915 36.3649 94.0484L35.4862 93.9864C35.4269 91.1413 35.4097 88.2955 35.4348 85.4497C35.4388 83.8944 35.4886 82.0525 35.4116 80.5188Z" fill="white"/>
<path d="M79.4676 102.783C79.5199 102.095 79.8884 101.438 80.5414 101.175C81.434 100.815 82.2606 101.241 83.0761 101.584C83.2035 101.977 83.2311 102.073 83.2682 102.483C83.1491 103.091 83.3764 104.139 83.1415 104.52C82.9432 104.625 82.9652 104.638 82.6711 104.552C82.4562 104.583 81.7481 104.893 81.4513 104.992C80.4801 104.817 80.3058 104.715 79.6019 104.029C79.5041 103.57 79.4345 103.254 79.4676 102.783ZM81.6186 104.527C81.9182 104.469 82.1944 104.322 82.4114 104.105C82.8922 103.622 83.0031 102.878 82.6835 102.274C82.3577 101.657 81.6634 101.338 80.9898 101.495C80.3162 101.653 79.8306 102.248 79.8044 102.948C79.7872 103.418 79.9828 103.871 80.3361 104.179C80.6888 104.486 81.1606 104.614 81.6186 104.527Z" fill="white"/>
<path d="M55.5313 80.4985C55.8104 80.502 56.1839 80.4783 56.3852 80.6582C56.4233 81.0856 56.4663 83.1756 56.428 83.5277C56.2562 85.106 56.7983 93.0912 56.2731 94.0763C56.0893 94.0519 55.6136 93.985 55.6064 93.8992C55.3852 91.2417 55.6599 82.5761 55.5313 80.4985Z" fill="white"/>
<path d="M52.336 101.313C53.6611 100.499 54.1786 101.554 55.0751 101.635L55.1487 101.701L55.1771 102.195L55.2331 103.157C55.1818 103.792 55.2818 103.948 55.2675 104.517L55.1596 104.593C55.0085 104.349 55.0662 104.35 54.8601 104.287C54.251 104.695 53.7631 105.022 52.988 104.853C52.5039 104.752 52.0799 104.459 51.8101 104.04C51.2414 103.144 51.398 101.89 52.336 101.313ZM55.1039 103.188C54.5508 101.802 54.6797 101.636 53.1454 101.499C52.6583 101.591 52.4398 101.634 52.1382 102.052C51.6182 102.772 51.8528 103.89 52.5848 104.354C52.9063 104.561 53.298 104.624 53.6671 104.529C54.2852 104.373 54.9497 103.835 55.1039 103.188Z" fill="white"/>
<path d="M52.336 101.313C53.6611 100.499 54.1786 101.554 55.0751 101.635L55.1487 101.701L55.1771 102.195L55.2331 103.157L55.1039 103.188C54.5508 101.802 54.6797 101.636 53.1454 101.499C52.7196 101.55 52.6814 101.553 52.336 101.313Z" fill="white"/>
<path d="M57.5205 101.09C58.5407 100.824 59.5802 101.449 59.8371 102.483C60.094 103.517 59.47 104.565 58.4466 104.819C57.6908 105.006 56.8987 104.708 56.4476 104.066C55.9965 103.424 55.9778 102.569 56.4004 101.907C56.6592 101.502 57.059 101.211 57.5205 101.09ZM58.3055 104.531C59.1479 104.336 59.6726 103.484 59.475 102.633C59.2776 101.781 58.4332 101.255 57.5931 101.46C56.7597 101.663 56.2448 102.509 56.4408 103.354C56.6367 104.198 57.4699 104.725 58.3055 104.531Z" fill="white"/>
<path d="M92.5378 102.104C93.0516 101.079 93.9222 100.754 95.0339 101.187C95.2399 101.268 95.3514 101.412 95.4582 101.602C95.5023 101.923 95.4238 102.028 95.2144 102.266C94.996 102.437 94.7384 102.709 94.527 102.909C94.1475 103.27 93.4387 103.574 93.5599 104.159C94.4257 105.062 94.9933 104.052 95.7241 104.174C95.5601 104.521 94.9416 104.792 94.6041 104.946C92.9938 104.706 91.9248 103.882 92.5378 102.104ZM92.7251 102.718C92.7024 103.097 92.6625 103.34 92.9655 103.589C93.4794 103.648 94.9285 102.131 95.1421 101.676C94.673 101.481 94.102 101.457 93.5944 101.424C93.1701 101.822 92.8911 102.128 92.7251 102.718Z" fill="white"/>
<path d="M92.5378 102.104C93.0516 101.079 93.9222 100.754 95.0339 101.187C95.2399 101.268 95.3514 101.412 95.4582 101.602C95.5023 101.923 95.4238 102.028 95.2144 102.266C95.0553 101.989 95.1083 102.064 95.1421 101.676C94.673 101.481 94.102 101.457 93.5944 101.424C93.1701 101.822 92.8911 102.128 92.7251 102.718C92.6191 102.512 92.5901 102.33 92.5378 102.104Z" fill="white"/>
<path d="M70.6075 101.499C71.2317 101.042 72.544 100.716 73.033 101.447C73.1398 102.035 72.6563 102.358 72.2699 102.741C72.0082 103.129 71.1845 103.703 70.7797 104.002C72.4035 105.229 71.9266 104.157 73.1756 104.032L73.2424 104.108C73.219 104.163 73.2032 104.214 73.1612 104.261C71.3826 106.274 68.6632 103.399 70.6075 101.499ZM71.957 102.584C72.2289 102.328 72.4772 102.179 72.4662 101.778C72.1491 101.258 71.3316 101.455 70.8728 101.666C70.5111 102.112 69.9397 103.199 70.515 103.66C71.0925 103.689 71.5202 102.852 71.957 102.584Z" fill="white"/>
<path d="M55.9057 75.6443C57.4866 75.9155 57.4308 77.4116 56.0393 78.1052C54.6601 77.7057 54.3614 76.2131 55.9057 75.6443Z" fill="white"/>
<path d="M35.6885 75.7056C36.0468 75.7049 36.4767 75.7851 36.7093 76.0702C37.3552 76.8622 36.6932 77.6095 36.1314 78.0815C34.5724 77.8333 34.3095 76.2466 35.6885 75.7056Z" fill="white"/>
<path d="M45.9704 56.982C46.4155 57.032 47.6392 58.172 47.7403 58.6049C47.695 59.0471 47.5191 59.2479 47.2778 59.6334C47.0991 59.8372 46.9075 59.9746 46.6722 59.8111C46.4371 59.3641 46.5849 58.8409 46.6853 58.3666C46.4031 57.9251 46.099 57.4917 45.9704 56.982Z" fill="white"/>
<path d="M77.3344 101.283C77.8166 101.268 78.1665 101.296 78.4082 101.77C78.0852 101.991 77.4385 101.512 77.1733 102.006C77.2745 102.962 80.2039 103.667 77.4564 105C77.1333 104.831 76.8468 104.558 76.7338 104.201C76.9818 103.983 77.3262 104.498 77.7057 104.516C77.975 104.396 77.9984 104.396 78.1865 104.177C78.4861 103.015 75.8722 102.595 77.3344 101.283Z" fill="white"/>
<path d="M90.8379 99.8522C90.9695 99.9066 90.9426 99.9017 91.0576 99.9972C91.3021 100.602 90.8441 100.823 91.3951 101.326C91.4433 101.6 91.1602 101.965 91.1265 102.276C91.0693 102.799 91.3028 104.389 90.9605 104.732L90.7924 104.729C90.7236 103.816 90.8255 102.79 90.7497 101.78C90.5162 101.633 90.2339 101.5 90.1677 101.256L90.2511 101.175C90.4536 101.161 90.5218 101.16 90.7236 101.114C90.873 100.627 90.4673 100.597 90.8379 99.8522Z" fill="white"/>
<path d="M84.1644 99.1174C84.287 99.1941 84.4116 99.2408 84.4275 99.4109C84.5129 100.356 84.7753 104.129 84.4144 104.819L84.2635 104.744C84.2222 104.649 84.112 99.4486 84.1644 99.1174Z" fill="white"/>
<path d="M62.0461 102.043L62.6763 101.415L63.1396 101.552C62.1791 102.076 61.8941 102.959 62.5041 103.916C63.4062 105.332 64.7961 104.018 65.2431 104.087C65.1792 104.29 64.9797 104.481 64.8146 104.608C64.4548 104.889 63.9945 105.003 63.5473 104.922C62.6879 104.767 61.9869 103.947 61.9184 103.071C61.8913 102.726 61.9755 102.379 62.0461 102.043Z" fill="white"/>
<path d="M101.473 62.2722C102.032 62.5448 102.046 63.3718 101.473 63.6514C100.956 63.9039 100.571 63.7073 100.072 63.5366C99.8395 63.3165 99.5943 62.9945 99.3877 62.7418C99.8864 62.8701 100.4 63.0268 100.904 63.1609C101.093 62.7816 101.145 62.5569 101.473 62.2722Z" fill="white"/>
<path d="M85.907 101.672C85.8739 102.035 85.8195 101.974 85.9807 102.195C85.8078 102.69 85.7596 103.192 85.9882 103.682C86.1652 104.057 86.491 104.34 86.885 104.458C87.4781 104.64 87.8369 104.53 88.2991 104.164L88.4961 104.011L88.6627 104.144L88.6338 104.283C88.587 104.329 88.5395 104.375 88.4919 104.421C87.6654 105.204 86.6625 105.024 85.9421 104.182C85.4372 103.592 85.2905 102.213 85.907 101.672Z" fill="white"/>
<path d="M60.6044 99.153C60.8165 99.2039 60.7261 99.1551 60.887 99.3015C61.0559 99.8432 61.1553 104.252 61.0251 104.755L60.8943 104.708C60.6167 104.238 60.8273 100.825 60.6692 100.103C60.6306 99.9261 60.5878 99.3349 60.6044 99.153Z" fill="white"/>
<path d="M76.8337 44.7548C77.2001 44.4442 77.4867 43.7324 77.9454 43.7553C78.338 43.7749 78.6417 44.105 78.7017 44.4994C78.4799 45.109 77.621 44.8454 77.0631 45.0027L76.8337 44.7548Z" fill="white"/>
<path d="M85.907 101.672C86.0075 101.622 86.1659 101.506 86.2541 101.438C87.1667 100.737 87.7412 100.908 88.5856 101.521L88.5298 101.658C88.3941 101.672 88.277 101.681 88.1413 101.688C87.2267 101.224 86.6515 101.486 85.9807 102.195C85.8195 101.974 85.8739 102.035 85.907 101.672Z" fill="white"/>
<path d="M66.2778 101.612C66.6774 101.949 66.6557 104.41 66.5047 104.776C66.41 104.764 66.3471 104.781 66.318 104.712C66.1221 104.251 66.1843 101.995 66.2778 101.612Z" fill="white"/>
<path d="M62.6763 101.415C63.678 100.634 64.8243 101.107 65.5571 102.011L65.4688 101.986C64.4156 101.675 64.3062 101.317 63.1396 101.552L62.6763 101.415Z" fill="white"/>
<path d="M88.5856 101.521C89.5526 101.501 89.3818 102.807 89.231 103.441L89.0739 103.387C89.16 102.575 88.8343 102.106 88.1413 101.688C88.277 101.681 88.3941 101.672 88.5298 101.658L88.5856 101.521Z" fill="white"/>
<path d="M55.0751 101.635C55.0805 101.117 54.9063 99.5392 55.029 99.2638L55.1404 99.2875C55.3986 99.7253 55.2928 101.614 55.1771 102.195L55.1487 101.701L55.0751 101.635Z" fill="white"/>
<path d="M89.0739 103.387L89.231 103.441L89.2241 103.517C89.1903 103.917 89.295 104.268 89.2069 104.522C88.9458 104.597 88.8473 104.448 88.6338 104.283L88.6627 104.144L88.4961 104.011C88.7723 103.763 88.859 103.687 89.0739 103.387Z" fill="white"/>
</svg>
