<svg width="148" height="148" viewBox="0 0 148 148" fill="none" xmlns="http://www.w3.org/2000/svg">
<path d="M86.7727 62.503L88.873 66.2297C90.4039 65.531 91.8962 65.1843 93.3498 65.1843C94.2286 65.1843 94.9029 65.3522 95.3671 65.688C95.8314 66.0239 96.058 66.4681 96.058 67.0043V67.611C95.0134 67.1885 93.8693 66.9826 92.6368 66.9826C90.5421 66.9826 88.8674 67.4972 87.6128 68.5264C86.3582 69.5556 85.7281 70.9206 85.7281 72.6269V96H92.7695C97.705 96 101.707 92.0783 101.707 87.2412V67.3726C101.707 66.311 101.596 65.3793 101.364 64.5776C101.132 63.7759 100.739 63.0339 100.181 62.3676C99.6284 61.6959 98.8325 61.1868 97.8045 60.8347C96.771 60.488 95.5163 60.3092 94.0296 60.3092C91.4043 60.3092 88.989 61.0405 86.7727 62.5084M92.0675 73.6831C91.6143 73.3906 91.3877 72.9735 91.3877 72.4481C91.3877 71.9227 91.6088 71.4948 92.0565 71.1752C92.5042 70.8556 93.0679 70.6931 93.7477 70.6931C94.4275 70.6931 95.03 70.8502 95.4832 71.1589C95.9364 71.4677 96.163 71.901 96.163 72.4481C96.163 72.9952 95.9419 73.3906 95.4998 73.6831C95.0631 73.9756 94.4883 74.1273 93.7809 74.1273C93.0734 74.1273 92.5152 73.981 92.062 73.6831H92.0675Z" fill="white"/>
<path d="M15 60.6505H19.7366L22.3453 69.6693L24.9651 60.6505H29.5579L24.8877 74.2465H19.7642L15 60.6505Z" fill="white"/>
<path d="M34.897 65.818H39.3848C39.3572 65.2493 39.1416 64.7726 38.7382 64.3826C38.3347 63.9926 37.7986 63.7976 37.1354 63.7976C36.4721 63.7976 35.925 63.998 35.5491 64.4043C35.1678 64.8051 34.9522 65.2818 34.8914 65.8235M30.2378 67.4756C30.2378 66.1539 30.5196 64.946 31.0834 63.8572C31.6471 62.7684 32.4485 61.9072 33.4986 61.2626C34.5432 60.6234 35.726 60.3038 37.0525 60.3038C39.2467 60.3038 40.9324 60.9538 42.1096 62.2593C43.2868 63.5593 43.8782 65.3793 43.8782 67.7139C43.8782 68.066 43.8672 68.3531 43.8506 68.5589H34.7533C34.803 69.171 35.107 69.691 35.6652 70.1243C36.2179 70.5577 36.8977 70.7743 37.6991 70.7743C38.4231 70.7743 39.0366 70.6173 39.5396 70.2977C40.0425 69.9781 40.3963 69.6639 40.6063 69.3497L43.5079 71.5273C43.3863 71.7764 43.1874 72.0527 42.9055 72.356C42.6236 72.6594 42.2533 72.9898 41.7835 73.3419C41.3137 73.694 40.7113 73.9919 39.9762 74.2248C39.2411 74.4577 38.4508 74.5769 37.6107 74.5769C36.1239 74.5769 34.8141 74.2627 33.6866 73.6344C32.5591 73.006 31.7024 72.1556 31.1165 71.0885C30.5307 70.016 30.2378 68.8135 30.2378 67.4701" fill="white"/>
<path d="M45.6303 74.241V60.6505H49.9413V62.3676C50.2784 61.723 50.7648 61.2193 51.4004 60.8563C52.036 60.4934 52.7766 60.3092 53.6222 60.3092V64.5072C53.379 64.4747 53.1469 64.4585 52.9148 64.4585C51.008 64.4585 50.0518 65.6772 50.0518 68.1147V74.2465H45.6413L45.6303 74.241Z" fill="white"/>
<path d="M58.8175 67.4756C58.8175 68.456 59.1104 69.2468 59.7018 69.8589C60.2932 70.471 61.0393 70.7743 61.9402 70.7743C62.8411 70.7743 63.6094 70.4602 64.2173 69.8264C64.8253 69.1927 65.1293 68.391 65.1293 67.4214C65.1293 66.4518 64.8253 65.6339 64.2173 65.0272C63.6094 64.4151 62.8522 64.1118 61.9402 64.1118C61.0283 64.1118 60.2822 64.426 59.6963 65.0489C59.1104 65.6718 58.8175 66.4843 58.8175 67.4756ZM55.3577 71.1264C54.7221 70.0431 54.4015 68.8243 54.4015 67.4756C54.4015 66.1268 54.7276 64.9026 55.3908 63.803C56.0485 62.7034 56.9494 61.8476 58.099 61.2301C59.2486 60.6126 60.5253 60.3092 61.9402 60.3092C64.1621 60.3092 65.9859 60.9809 67.4064 62.3188C68.8268 63.6568 69.5398 65.363 69.5398 67.4268C69.5398 68.7756 69.2137 69.9943 68.5615 71.0885C67.9093 72.1827 67.0029 73.0385 65.8478 73.656C64.6871 74.2735 63.3883 74.5877 61.9402 74.5877C60.4922 74.5877 59.1933 74.2844 58.0437 73.6723C56.8886 73.0602 55.9988 72.2152 55.3577 71.1318" fill="white"/>
<path d="M71.3581 74.241V60.6505H75.6691V62.0426C75.9786 61.5768 76.4374 61.1759 77.0453 60.8293C77.6533 60.4826 78.3552 60.3092 79.1566 60.3092C79.7591 60.3092 80.3007 60.3797 80.7815 60.5259C81.2624 60.6667 81.6659 60.8563 81.9919 61.0893C82.318 61.3222 82.6054 61.6147 82.8431 61.9668C83.0863 62.3188 83.2687 62.6709 83.4068 63.023C83.5395 63.3751 83.65 63.7759 83.7274 64.2364C83.8103 64.6968 83.86 65.1085 83.8821 65.4768C83.9043 65.8451 83.9153 66.2568 83.9153 66.7118V74.2465H79.5048V66.1431C79.5048 65.5255 79.339 65.0489 79.0019 64.7076C78.6647 64.3664 78.2281 64.1984 77.6865 64.1984C77.0951 64.1984 76.6253 64.3826 76.2881 64.751C75.9455 65.1193 75.7797 65.5851 75.7797 66.1485V74.2519H71.3692L71.3581 74.241Z" fill="white"/>
<path d="M103.354 68.1852V60.6505H107.764V68.7647C107.764 69.3822 107.93 69.8589 108.267 70.1948C108.604 70.5306 109.041 70.6985 109.582 70.6985C110.174 70.6985 110.644 70.5198 110.981 70.1568C111.318 69.7939 111.489 69.3281 111.489 68.7647V60.6505H115.9V74.2465H111.589V72.8489C111.279 73.3094 110.82 73.7156 110.212 74.0677C109.604 74.4144 108.903 74.5931 108.101 74.5931C107.499 74.5931 106.957 74.5227 106.476 74.3765C105.995 74.2356 105.592 74.046 105.266 73.8131C104.94 73.5802 104.652 73.2877 104.415 72.9356C104.172 72.5835 103.989 72.2314 103.851 71.8794C103.718 71.5273 103.608 71.1264 103.53 70.666C103.447 70.2056 103.398 69.7939 103.376 69.4256C103.354 69.0572 103.342 68.6456 103.342 68.1906" fill="white"/>
<path d="M122.615 67.416C122.615 68.4668 122.891 69.2902 123.438 69.886C123.991 70.4818 124.71 70.7798 125.605 70.7798C126.5 70.7798 127.219 70.471 127.766 69.8481C128.313 69.2252 128.584 68.4181 128.584 67.416C128.584 66.4139 128.308 65.6176 127.76 65.0164C127.208 64.4151 126.489 64.1172 125.605 64.1172C124.721 64.1172 123.958 64.4368 123.416 65.0705C122.88 65.7043 122.609 66.4897 122.609 67.4214M118.332 79.0836V60.6505H122.46V61.723C122.753 61.4034 123.228 61.0838 123.886 60.7751C124.544 60.4663 125.318 60.3092 126.213 60.3092C128.208 60.3092 129.839 60.9755 131.104 62.3026C132.37 63.6351 133 65.3468 133 67.4376C133 69.5285 132.403 71.2889 131.215 72.6052C130.021 73.9215 128.435 74.5823 126.445 74.5823C125.533 74.5823 124.748 74.4252 124.096 74.1056C123.444 73.7915 122.991 73.4881 122.742 73.201V79.0836H118.332Z" fill="white"/>
<path d="M16.3983 53.6467C16.8128 53.6467 17.0671 53.4571 17.0671 53.0021C17.0671 52.6392 16.8681 52.3954 16.3707 52.3954H15.9064V53.6467H16.3983ZM15.503 52.0379H16.3983C17.1168 52.0379 17.4982 52.3954 17.4982 52.9967C17.4982 53.4083 17.2937 53.7821 16.8847 53.9121L17.7635 55.4992H17.3103L16.5144 53.9988H15.9175V55.4992H15.5085V52.0379H15.503Z" fill="white"/>
<path d="M19.3939 55.2067C19.9577 55.2067 20.3611 54.7896 20.3611 54.2154C20.3611 53.6413 19.9577 53.2242 19.3939 53.2242C18.8302 53.2242 18.4378 53.6521 18.4378 54.2154C18.4378 54.7788 18.8357 55.2067 19.3939 55.2067ZM19.3994 52.8667C20.1898 52.8667 20.7646 53.4463 20.7646 54.2154C20.7646 54.9846 20.1787 55.5642 19.3939 55.5642C18.6091 55.5642 18.0288 54.9954 18.0288 54.2154C18.0288 53.4354 18.6201 52.8667 19.3994 52.8667Z" fill="white"/>
<path d="M22.4614 55.2067C23.0251 55.2067 23.4286 54.7896 23.4286 54.2154C23.4286 53.6413 23.0251 53.2242 22.4614 53.2242C21.8976 53.2242 21.5052 53.6521 21.5052 54.2154C21.5052 54.7788 21.9031 55.2067 22.4614 55.2067ZM22.4669 52.8667C23.2572 52.8667 23.832 53.4463 23.832 54.2154C23.832 54.9846 23.2462 55.5642 22.4614 55.5642C21.6765 55.5642 21.0962 54.9954 21.0962 54.2154C21.0962 53.4354 21.6876 52.8667 22.4669 52.8667Z" fill="white"/>
<path d="M27.9993 55.4938H27.6014V53.95C27.6014 53.4679 27.3969 53.2188 27.01 53.2188C26.6397 53.2188 26.3634 53.4733 26.3634 53.9554V55.4938H25.9654V53.8742C25.9654 53.4625 25.7333 53.2188 25.3685 53.2188C25.0203 53.2188 24.7329 53.5058 24.7329 53.9392V55.4938H24.335V52.9263H24.7274V53.2946C24.8269 53.0725 25.1032 52.8613 25.468 52.8613C25.8604 52.8613 26.1368 53.0508 26.2584 53.3325C26.4131 53.0292 26.7281 52.8613 27.0985 52.8613C27.6843 52.8613 27.9938 53.2675 27.9938 53.8309V55.4938H27.9993Z" fill="white"/>
<path d="M28.7455 54.8329C28.856 55.0334 29.0439 55.2284 29.4032 55.2284C29.6629 55.2284 29.8896 55.0821 29.8896 54.8167C29.8896 54.2263 28.5741 54.4267 28.5741 53.56C28.5741 53.1267 28.9444 52.8613 29.4142 52.8613C29.884 52.8613 30.1548 53.1646 30.2267 53.3542L29.9338 53.5167C29.8619 53.3758 29.7293 53.1863 29.3921 53.1863C29.1489 53.1863 28.961 53.3217 28.961 53.5438C28.961 54.1234 30.282 53.9067 30.282 54.8004C30.282 55.2554 29.9006 55.5588 29.3921 55.5588C28.845 55.5588 28.5963 55.2554 28.4802 55.0117L28.7565 54.8329H28.7455Z" fill="white"/>
<path d="M30.9563 55.0063C31.111 55.0063 31.2381 55.1309 31.2381 55.2825C31.2381 55.4342 31.111 55.5588 30.9563 55.5588C30.8015 55.5588 30.6689 55.4342 30.6689 55.2825C30.6689 55.1309 30.8015 55.0063 30.9563 55.0063Z" fill="white"/>
<path d="M33.1726 52.0379H34.8472V52.4008H33.5815V53.5492H34.6869V53.9121H33.5815V55.1309H34.9025V55.4938H33.1726V52.0379Z" fill="white"/>
<path d="M36.4334 54.4592L35.6707 55.4938H35.2175L36.1958 54.1667L35.2894 52.9263H35.7592L36.4334 53.8904L37.1077 52.9263H37.5775L36.6711 54.1667L37.6494 55.4938H37.1906L36.4334 54.4592Z" fill="white"/>
<path d="M39.324 55.2067C39.838 55.2067 40.2083 54.795 40.2083 54.21C40.2083 53.625 39.8159 53.2242 39.313 53.2242C38.7713 53.2242 38.4287 53.6738 38.4287 54.21C38.4287 54.8438 38.8321 55.2067 39.324 55.2067ZM38.0473 52.9263H38.4287V53.3325C38.495 53.2404 38.7713 52.8613 39.3406 52.8613C40.0867 52.8613 40.6229 53.4192 40.6229 54.2046C40.6229 54.99 40.1144 55.5588 39.3738 55.5588C38.8266 55.5588 38.5281 55.2121 38.4452 55.0821V56.42H38.0473V52.9263Z" fill="white"/>
<path d="M43.0658 54.0042C43.0381 53.4733 42.6623 53.1971 42.2312 53.1971C41.8001 53.1971 41.4187 53.5167 41.3911 54.0042H43.0713H43.0658ZM42.2312 52.8667C42.9994 52.8667 43.4748 53.4083 43.4748 54.1775C43.4748 54.1938 43.4748 54.2479 43.4748 54.2967H41.3745C41.3745 54.8709 41.7725 55.2175 42.3141 55.2175C42.7563 55.2175 43.005 54.99 43.1321 54.8167L43.3918 55.0063C43.2481 55.25 42.9055 55.5642 42.3086 55.5642C41.5127 55.5642 40.9655 55.0171 40.9655 54.2263C40.9655 53.4354 41.5403 52.8667 42.2367 52.8667" fill="white"/>
<path d="M45.1549 53.2567C44.5525 53.2567 44.3812 53.7225 44.3812 54.2696V55.4992H43.9832V52.9263H44.3756V53.3542C44.4641 53.0996 44.757 52.8613 45.1549 52.8613V53.2567Z" fill="white"/>
<path d="M45.5971 52.9263H45.995V55.4938H45.5971V52.9263ZM45.7905 52C45.9453 52 46.0669 52.1192 46.0669 52.2654C46.0669 52.4117 45.9453 52.5363 45.7905 52.5363C45.6358 52.5363 45.5197 52.4171 45.5197 52.2654C45.5197 52.1138 45.6413 52 45.7905 52Z" fill="white"/>
<path d="M48.6148 54.0042C48.5872 53.4733 48.2113 53.1971 47.7802 53.1971C47.3491 53.1971 46.9678 53.5167 46.9401 54.0042H48.6203H48.6148ZM47.7802 52.8667C48.5485 52.8667 49.0238 53.4083 49.0238 54.1775C49.0238 54.1938 49.0238 54.2479 49.0238 54.2967H46.9236C46.9236 54.8709 47.3215 55.2175 47.8631 55.2175C48.3053 55.2175 48.554 54.99 48.6811 54.8167L48.9409 55.0063C48.7972 55.25 48.4545 55.5642 47.8576 55.5642C47.0617 55.5642 46.5146 55.0171 46.5146 54.2263C46.5146 53.4354 47.0894 52.8667 47.7858 52.8667" fill="white"/>
<path d="M51.6215 53.8904V55.4938H51.2235V53.8742C51.2235 53.4625 50.9637 53.2188 50.6045 53.2188C50.201 53.2188 49.9247 53.5113 49.9247 53.9338V55.4938H49.5267V52.9263H49.9192V53.2946C50.0463 53.0617 50.3392 52.8613 50.6985 52.8613C51.3064 52.8613 51.6215 53.3054 51.6215 53.8904Z" fill="white"/>
<path d="M54.2357 53.5492C54.1307 53.4408 53.8599 53.2242 53.4619 53.2242C52.9147 53.2242 52.5223 53.6521 52.5223 54.21C52.5223 54.7679 52.9313 55.2013 53.4674 55.2013C53.882 55.2013 54.1417 54.9629 54.2467 54.86L54.3683 55.1904C54.2633 55.2988 53.9428 55.5534 53.4509 55.5534C52.6716 55.5534 52.1078 54.9629 52.1078 54.2046C52.1078 53.4463 52.6881 52.8558 53.4453 52.8558C53.9262 52.8558 54.2302 53.0779 54.3683 53.2079L54.2302 53.5438L54.2357 53.5492Z" fill="white"/>
<path d="M56.8002 54.0042C56.7725 53.4733 56.3967 53.1971 55.9656 53.1971C55.5345 53.1971 55.1532 53.5167 55.1255 54.0042H56.8057H56.8002ZM55.9601 52.8667C56.7283 52.8667 57.2037 53.4083 57.2037 54.1775C57.2037 54.1938 57.2037 54.2479 57.2037 54.2967H55.1034C55.1034 54.8709 55.5014 55.2175 56.043 55.2175C56.4852 55.2175 56.7339 54.99 56.861 54.8167L57.1207 55.0063C56.977 55.25 56.6344 55.5642 56.0375 55.5642C55.2416 55.5642 54.6944 55.0171 54.6944 54.2263C54.6944 53.4354 55.2692 52.8667 55.9656 52.8667" fill="white"/>
<path d="M57.7895 54.8329C57.9 55.0334 58.088 55.2284 58.4472 55.2284C58.707 55.2284 58.9336 55.0821 58.9336 54.8167C58.9336 54.2263 57.6182 54.4267 57.6182 53.56C57.6182 53.1267 57.9885 52.8613 58.4583 52.8613C58.9281 52.8613 59.1989 53.1646 59.2707 53.3542L58.9778 53.5167C58.9059 53.3758 58.7733 53.1863 58.4362 53.1863C58.193 53.1863 58.0051 53.3217 58.0051 53.5438C58.0051 54.1234 59.326 53.9067 59.326 54.8004C59.326 55.2554 58.9446 55.5588 58.4362 55.5588C57.889 55.5588 57.6403 55.2554 57.5242 55.0117L57.8006 54.8329H57.7895Z" fill="white"/>
<path d="M60.0003 55.0063C60.155 55.0063 60.2822 55.1309 60.2822 55.2825C60.2822 55.4342 60.155 55.5588 60.0003 55.5588C59.8455 55.5588 59.7129 55.4342 59.7129 55.2825C59.7129 55.1309 59.8455 55.0063 60.0003 55.0063Z" fill="white"/>
<path d="M62.2166 52.0379H63.8912V52.4008H62.6256V53.5492H63.731V53.9121H62.6256V55.1309H63.9465V55.4938H62.2166V52.0379Z" fill="white"/>
<path d="M68.2133 55.4938H67.8154V53.95C67.8154 53.4679 67.6109 53.2188 67.224 53.2188C66.8537 53.2188 66.5773 53.4733 66.5773 53.9554V55.4938H66.1794V53.8742C66.1794 53.4625 65.9473 53.2188 65.5825 53.2188C65.2343 53.2188 64.9469 53.5058 64.9469 53.9392V55.4938H64.5489V52.9263H64.9414V53.2946C65.0408 53.0725 65.3172 52.8613 65.682 52.8613C66.0744 52.8613 66.3507 53.0508 66.4723 53.3325C66.6271 53.0292 66.9421 52.8613 67.3124 52.8613C67.8983 52.8613 68.2078 53.2675 68.2078 53.8309V55.4938H68.2133Z" fill="white"/>
<path d="M70.0648 55.2067C70.6286 55.2067 71.032 54.7896 71.032 54.2154C71.032 53.6413 70.6286 53.2242 70.0648 53.2242C69.5011 53.2242 69.1087 53.6521 69.1087 54.2154C69.1087 54.7788 69.5066 55.2067 70.0648 55.2067ZM70.0704 52.8667C70.8607 52.8667 71.4355 53.4463 71.4355 54.2154C71.4355 54.9846 70.8496 55.5642 70.0648 55.5642C69.28 55.5642 68.6997 54.9954 68.6997 54.2154C68.6997 53.4354 69.291 52.8667 70.0704 52.8667Z" fill="white"/>
<path d="M71.9771 52.39H72.3751V52.9263H72.9499V53.2567H72.3751V54.5784C72.3751 55.055 72.5188 55.1688 72.8615 55.1688C72.9112 55.1688 72.972 55.1688 72.972 55.1688V55.5155C72.972 55.5155 72.867 55.5317 72.7288 55.5317C72.2037 55.5317 71.9771 55.1959 71.9771 54.6163V53.2567H71.6676V52.9263H71.9771V52.39Z" fill="white"/>
<path d="M73.4307 52.9263H73.8287V55.4938H73.4307V52.9263ZM73.6297 52C73.7844 52 73.906 52.1192 73.906 52.2654C73.906 52.4117 73.7844 52.5363 73.6297 52.5363C73.4749 52.5363 73.3589 52.4171 73.3589 52.2654C73.3589 52.1138 73.4805 52 73.6297 52Z" fill="white"/>
<path d="M75.7023 55.2067C76.266 55.2067 76.6695 54.7896 76.6695 54.2154C76.6695 53.6413 76.266 53.2242 75.7023 53.2242C75.1385 53.2242 74.7461 53.6521 74.7461 54.2154C74.7461 54.7788 75.1441 55.2067 75.7023 55.2067ZM75.7078 52.8667C76.4982 52.8667 77.073 53.4463 77.073 54.2154C77.073 54.9846 76.4871 55.5642 75.7023 55.5642C74.9175 55.5642 74.3371 54.9954 74.3371 54.2154C74.3371 53.4354 74.9285 52.8667 75.7078 52.8667Z" fill="white"/>
<path d="M79.6762 53.8904V55.4938H79.2782V53.8742C79.2782 53.4625 79.0185 53.2188 78.6592 53.2188C78.2557 53.2188 77.9794 53.5113 77.9794 53.9338V55.4938H77.5815V52.9263H77.9739V53.2946C78.101 53.0617 78.3939 52.8613 78.7532 52.8613C79.3611 52.8613 79.6762 53.3054 79.6762 53.8904Z" fill="white"/>
<path d="M80.4223 54.8329C80.5328 55.0334 80.7207 55.2284 81.08 55.2284C81.3398 55.2284 81.5664 55.0821 81.5664 54.8167C81.5664 54.2263 80.251 54.4267 80.251 53.56C80.251 53.1267 80.6213 52.8613 81.091 52.8613C81.5608 52.8613 81.8317 53.1646 81.9035 53.3542L81.6106 53.5167C81.5387 53.3758 81.4061 53.1863 81.0689 53.1863C80.8258 53.1863 80.6378 53.3217 80.6378 53.5438C80.6378 54.1234 81.9588 53.9067 81.9588 54.8004C81.9588 55.2554 81.5774 55.5588 81.0689 55.5588C80.5218 55.5588 80.2731 55.2554 80.157 55.0117L80.4333 54.8329H80.4223Z" fill="white"/>
<path d="M82.6331 55.0063C82.7878 55.0063 82.9149 55.1309 82.9149 55.2825C82.9149 55.4342 82.7878 55.5588 82.6331 55.5588C82.4783 55.5588 82.3457 55.4342 82.3457 55.2825C82.3457 55.1309 82.4783 55.0063 82.6331 55.0063Z" fill="white"/>
</svg>
