<svg width="148" height="148" viewBox="0 0 148 148" fill="none" xmlns="http://www.w3.org/2000/svg">
<path d="M92.6173 64.5104C92.6299 64.496 92.6426 64.4819 92.6559 64.468C94.0185 63.0293 96.8504 63.3447 98.1808 64.7185C98.6648 65.2256 99.003 65.8625 99.1574 66.5577C99.3677 67.4754 99.2963 69.271 99.2963 70.2918L99.298 75.751L95.3656 75.7558C95.2844 74.4888 95.4976 68.5912 95.2388 67.9594C95.1121 67.6503 94.7249 67.5221 94.4472 67.4075C93.8042 67.4905 93.6198 67.5415 93.2511 68.1266C93.2199 70.1087 93.2655 72.1027 93.2539 74.0861C93.2511 74.6136 93.2776 75.1679 93.2297 75.6916C93.1185 75.7783 93.016 75.7505 92.8552 75.7547L89.3757 75.7575C89.1965 73.6038 89.5146 70.2517 89.2691 68.003C89.2398 67.7351 88.7742 67.5217 88.5305 67.4101C87.3332 67.5562 87.2785 67.922 87.2831 69.1037C87.2848 69.6596 87.2825 70.2479 87.2836 70.806L87.2946 75.7508C85.9245 75.7807 84.4587 75.7548 83.0805 75.7557C82.9439 73.1772 83.126 70.4306 83.0563 67.8355C83.0223 66.5463 83.0373 65.1112 83.0776 63.8224C84.3751 63.8281 85.6755 63.81 86.9725 63.8418C86.961 64.2633 86.9547 64.5087 86.8844 64.9243C86.9685 64.7961 87.0572 64.6714 87.1506 64.5505C87.7728 63.7582 88.6618 63.6345 89.567 63.5411C89.6022 63.5394 89.6373 63.5383 89.6725 63.5377C90.9418 63.5199 91.6706 63.5515 92.6173 64.5104Z" fill="white"/>
<path d="M51.8989 59.0181C53.1012 59.1569 55.4266 59.0631 56.7439 59.0863C56.8144 59.3417 56.8721 59.6531 56.9168 59.9164C57.4964 63.3316 58.2044 66.7511 58.7296 70.1734C58.9602 69.0325 59.1655 67.5828 59.3653 66.4149L60.6126 59.0691C62.1939 59.0779 63.8416 59.1099 65.4162 59.026C65.1944 60.2996 64.6941 62.2687 64.3752 63.5611C63.491 67.5498 62.5174 71.6641 61.566 75.6358L55.764 75.6388C54.9238 72.3756 54.1502 68.7517 53.375 65.4418L52.433 61.4221C52.2664 60.7134 52.0047 59.7171 51.8989 59.0181Z" fill="white"/>
<path d="M105.741 63.3033C106.438 63.3054 107.131 63.4224 107.793 63.6498C109.6 64.2917 110.511 65.4973 111.317 67.1988C110.746 67.5946 109.86 68.3536 109.295 68.8087L105.473 71.8817C107.53 72.3792 109.051 71.885 110.707 70.6381C110.708 71.1641 110.789 74.2706 110.616 74.5423C109.395 75.4148 108.581 75.8395 107.077 75.9724C105.194 76.1459 103.438 75.8263 101.949 74.5329C99.3671 72.2931 99.3366 67.8617 101.445 65.2842C102.585 63.89 104.05 63.4346 105.741 63.3033ZM104.131 69.8496C104.401 69.6139 104.785 69.2598 105.068 69.0685C105.619 68.5875 106.454 67.9181 107.046 67.4887C106.666 67.0797 106.431 66.9279 105.87 66.918C105.742 66.9162 105.615 66.9195 105.487 66.928C104.14 67.3456 103.896 68.5592 104.131 69.8496Z" fill="white"/>
<path d="M116.686 63.3587C119.637 63.1139 121.795 64.3791 122.986 67.2132C122.134 67.8141 121.031 68.7542 120.201 69.4236C119.248 70.1929 118.074 71.084 117.167 71.8876C117.322 71.9182 117.478 71.9463 117.634 71.9719C119.533 72.2792 120.849 71.7928 122.346 70.658C122.401 71.671 122.379 72.7976 122.378 73.8208C122.378 74.0378 122.366 74.2779 122.359 74.4968C121.42 75.1667 120.525 75.7199 119.378 75.8921C117.521 76.1709 115.613 76.032 114.051 74.8741C112.789 73.9443 111.941 72.5264 111.7 70.9406C111.119 67.2593 113.04 63.9723 116.686 63.3587ZM115.81 69.827C116.086 69.6004 116.402 69.3529 116.667 69.1187C117.28 68.6076 118.084 67.9453 118.726 67.4843C118.301 67.0527 118.055 66.9086 117.439 66.9165C117.33 66.918 117.22 66.9226 117.111 66.9306C115.789 67.4423 115.582 68.506 115.81 69.827Z" fill="white"/>
<path d="M69.6785 63.304C72.4193 63.4061 74.1515 64.618 75.2843 67.2145C73.9775 68.1271 72.7169 69.3072 71.4372 70.2756C70.8164 70.7456 70.1243 71.3142 69.5415 71.8327C69.9028 72.1127 70.6937 72.0285 71.1269 72.0319C72.5736 72.0437 73.4958 71.5001 74.6499 70.662C74.6649 71.9324 74.6689 73.2029 74.662 74.4734C73.493 75.3828 72.4879 75.8437 71.0278 75.9719C69.1766 76.1345 67.402 75.8419 65.9477 74.5565C64.7658 73.5107 64.0392 72.0162 63.9313 70.4093C63.7154 67.5235 65.0084 64.6146 67.7852 63.6456C68.4573 63.4111 68.9718 63.3599 69.6785 63.304ZM68.1082 69.8115L68.9518 69.1242C69.6345 68.5654 70.3234 68.0149 71.0184 67.4727C70.546 67.0099 70.3034 66.8984 69.6395 66.9186C69.56 66.9211 69.4805 66.9253 69.4012 66.931C68.1285 67.4413 67.8303 68.4966 68.1082 69.8115Z" fill="white"/>
<path d="M123.593 63.8223C124.906 63.847 126.275 63.7836 127.582 63.8465C127.576 64.4161 127.559 64.9856 127.529 65.5544C128.009 63.9353 128.717 63.8707 130.192 63.8218C130.167 65.0337 130.166 66.5717 130.221 67.77C127.46 67.8054 127.487 69.0051 127.511 71.4316L127.517 75.7515L123.571 75.756C123.463 73.6708 123.547 70.7021 123.546 68.5335V65.65C123.547 65.1506 123.531 64.2966 123.593 63.8223Z" fill="white"/>
<path d="M81.5092 63.7719L82.0612 63.7283C82.0716 65.1062 81.9592 66.3472 82.0624 67.7587C79.4149 68.0103 79.7721 69.8315 79.775 72.0047L79.7923 75.751C78.5126 75.7749 77.1666 75.7549 75.8824 75.756L75.8512 75.0839L75.8507 68.1985C75.8501 66.7723 75.8219 65.236 75.8824 63.8244L79.8262 63.832C79.8228 64.4015 79.8251 64.92 79.8493 65.4912C80.1777 64.4379 80.4214 64.0015 81.5092 63.7719Z" fill="white"/>
<path d="M63.7905 81.5709C67.6521 81.2161 66.0657 84.1009 66.5574 86.6612C66.2867 86.6708 65.4485 86.7282 65.2434 86.6485C65.1945 86.5343 65.1577 86.4361 65.1164 86.3187C64.9892 86.3071 64.48 86.5823 64.3096 86.6416C63.4608 86.9367 62.623 86.8349 62.0645 86.0694C61.1578 83.7459 63.5148 83.8827 64.8232 83.5005C65.2108 83.3873 65.109 82.6065 64.6099 82.5171C63.9257 82.3946 63.5703 82.4941 63.3776 83.2307L61.9805 83.2309C62.2577 82.1126 62.6923 81.7515 63.7905 81.5709ZM63.4849 85.7433C64.2228 85.9251 64.5236 85.9284 64.9924 85.2629C65.0306 84.9806 65.0941 84.6356 65.0545 84.3593L65.0078 84.3207C64.4797 84.4465 63.0662 84.5376 63.2557 85.3328C63.2933 85.4893 63.3727 85.6316 63.4849 85.7433Z" fill="white"/>
<path d="M73.8479 81.5722C77.6426 81.132 76.1076 84.1889 76.6049 86.6627C76.1912 86.6765 75.7907 86.6938 75.3771 86.679C75.2111 86.5792 75.237 86.5399 75.1547 86.3253C74.9242 86.3198 73.826 87.0202 73.0775 86.7559C72.5604 86.5734 72.3708 86.472 72.0667 85.9758C71.9419 85.5533 71.8356 85.0898 72.0338 84.6775C72.5395 83.6302 73.8104 83.8619 74.711 83.5444C75.0308 83.4318 75.2025 83.1985 75.07 82.8511C74.9017 82.4099 74.1775 82.4046 73.8243 82.5758C73.5604 82.7038 73.4953 82.968 73.4019 83.2323L72.0281 83.2271C72.3179 82.0831 72.7272 81.7486 73.8479 81.5722ZM73.5517 85.7556C74.6021 85.9765 75.2474 85.5543 75.1045 84.36L75.0475 84.3205C74.5278 84.4471 73.6773 84.5059 73.3351 84.9375C73.1553 85.1633 73.3685 85.5841 73.5517 85.7556Z" fill="white"/>
<path d="M59.2388 80.1964C59.6443 80.181 60.1575 80.2027 60.5709 80.2085C60.5689 80.6854 60.5773 81.2067 60.5315 81.6773L61.5424 81.6684L61.5508 82.6318L60.5509 82.6299C60.5897 83.4728 60.5149 84.3252 60.578 85.1708C60.6213 85.7525 61.1476 85.597 61.5546 85.5453L61.5467 86.5671L61.518 86.6223C61.3412 86.7408 60.9002 86.6906 60.6765 86.7026C58.7437 86.806 59.2591 84.9301 59.208 83.6202C59.1943 83.2694 59.2182 82.9469 59.2235 82.6213L58.4227 82.6281L58.446 81.6919L59.245 81.6733C59.2212 81.1297 59.2134 80.7385 59.2388 80.1964Z" fill="white"/>
<path d="M57.5584 79.7979L57.695 79.7833C57.7137 79.8092 57.7368 79.841 57.7641 79.8785C57.7855 81.7875 57.7743 84.8756 57.7726 86.6634L56.4747 86.6734C56.4403 86.6688 56.3587 86.6677 56.3381 86.6418C56.1717 86.4327 56.2377 80.5849 56.3053 79.7986L57.5584 79.7979Z" fill="white"/>
<path d="M67.4304 79.7878C67.8576 79.8036 68.3623 79.7873 68.7954 79.7843C68.7979 82.0436 68.8343 84.4049 68.7879 86.6562C68.4729 86.691 67.7743 86.6743 67.4308 86.6763C67.3687 85.7686 67.4013 84.328 67.4025 83.3819C67.4039 82.2946 67.3601 80.8354 67.4304 79.7878Z" fill="white"/>
<path d="M69.7907 81.6711C70.2469 81.68 70.7144 81.6689 71.1716 81.6631L71.1725 86.6703L69.8006 86.6766C69.7461 85.0948 69.7863 83.264 69.7907 81.6711Z" fill="white"/>
<path d="M69.8064 79.7888L71.1747 79.7757L71.1689 80.9534L69.8037 80.9595C69.7892 80.5859 69.8021 80.1669 69.8064 79.7888Z" fill="white"/>
<path d="M15 58.5H28.4888L32.2228 65.286L36.0016 58.5H49.5846C48.2158 61.0401 46.7508 63.6002 45.3441 66.1244L34.0019 86.4701C33.4791 87.4077 32.7845 88.5669 32.3217 89.5H32.252L19.9407 67.4227C18.3278 64.5275 16.6662 61.4215 15 58.5751V58.5Z" fill="white"/>
<path d="M16.0319 59.1131C17.3932 59.0727 18.8913 59.104 20.2607 59.104L28.1185 59.1045C28.5374 59.933 29.1018 60.8978 29.5546 61.7205L32.2214 66.5472C32.6931 65.7716 33.2037 64.7983 33.6513 63.9946L36.366 59.1034L48.5452 59.1055C46.0445 63.7206 43.3735 68.3942 40.8104 72.9845C39.8437 74.8063 38.7143 76.7473 37.7021 78.5635L32.2812 88.2778C31.4673 86.9378 30.5611 85.2004 29.7851 83.8084L19.1953 64.811C18.167 62.9691 16.994 60.9641 16.0319 59.1131Z" fill="white"/>
<path d="M17.358 59.8999C20.688 59.8165 24.3339 59.8942 27.6897 59.8939L30.5753 65.1234C31.0777 66.0359 31.6958 67.2332 32.233 68.0839C33.7395 65.5616 35.3398 62.5021 36.7872 59.8967C40.2447 59.8532 43.7877 59.8931 47.2529 59.8983C46.5535 61.105 45.8609 62.3854 45.1776 63.6073C44.6711 64.6262 43.8743 65.9508 43.2985 66.9839L39.4811 73.8282C34.5704 70.4693 27.6617 69.0416 21.9263 68.1656L18.6648 62.3273C18.4592 61.9592 17.4248 60.1625 17.358 59.8999Z" fill="white"/>
<path d="M22.2499 68.7089C22.7656 68.8511 24.4413 69.6393 24.9594 69.8892C29.2276 71.9483 33.7469 74.8657 36.794 78.6438C35.8401 80.2475 34.864 82.0897 33.9462 83.7348C33.388 84.7283 32.8359 85.7255 32.2901 86.7264C31.8461 86.0099 31.3116 84.9874 30.8882 84.2289L28.1441 79.3039C26.2161 75.8408 24.1002 72.1945 22.2499 68.7089Z" fill="white"/>
<path d="M133 63.1942C132.462 64.0998 131.445 64.4997 130.811 63.4843C130.618 63.175 130.552 62.7979 130.631 62.4384C130.793 61.686 131.498 61.4968 132.162 61.6376C132.584 61.7272 132.791 62.0656 133 62.4261V63.1942ZM131.875 63.8014C132.398 63.7575 132.79 63.2848 132.754 62.7416C132.717 62.1983 132.265 61.7868 131.741 61.8189C131.397 61.84 131.09 62.0512 130.938 62.372C130.785 62.6929 130.811 63.0738 131.005 63.3695C131.199 63.6653 131.531 63.8302 131.875 63.8014Z" fill="white"/>
<path d="M131.319 62.0674C132.359 62.0836 132.606 62.1253 132.126 62.9161C132.041 63.056 132.332 63.2501 132.321 63.4721L132.18 63.5543L131.61 62.6948C131.601 62.8799 131.593 63.3324 131.465 63.4723L131.399 63.4189C131.285 62.9573 131.312 62.543 131.319 62.0674Z" fill="white"/>
</svg>
