<svg width="148" height="148" viewBox="0 0 148 148" fill="none" xmlns="http://www.w3.org/2000/svg">
<path d="M58.0321 59.767C58.8946 59.6926 60.2975 59.7334 61.2177 59.7168C61.1335 61.0624 61.1797 62.8276 61.1795 64.2029L61.1726 71.5153C61.1742 72.6518 61.2633 74.8131 61.1352 75.826C60.227 75.8703 59.0925 75.8469 58.1671 75.8505C57.9424 75.4206 56.9959 74.0623 56.6607 73.5441C55.5043 71.7635 54.3328 69.9927 53.1465 68.2317C52.5052 67.2625 51.7634 66.1806 51.1923 65.1881C51.3109 66.5583 51.2288 67.9252 51.2562 69.295C51.2995 71.4599 51.1688 73.6893 51.2604 75.8453C50.3186 75.8108 49.1374 75.8477 48.1774 75.8509C48.1144 74.5695 48.0483 60.2298 48.2331 59.7447C49.0548 59.7302 50.0437 59.6775 50.8577 59.7611C51.0821 59.7824 51.2848 59.9758 51.4077 60.1559C53.6646 63.4631 55.7823 66.9302 58.062 70.2159C58.0083 69.5081 58.0146 68.7291 58.0177 68.0138C58.03 65.2706 57.9741 62.5084 58.0321 59.767Z" fill="white"/>
<path d="M90.9565 59.7539C91.3771 59.7135 93.9497 59.5941 94.1173 59.9487C94.584 60.9342 94.9839 62.0837 95.3705 63.1042L98.6218 71.4764L99.6878 74.2931C99.8796 74.7953 100.055 75.3972 100.337 75.845L97.0714 75.848C96.6029 74.6004 96.21 73.8261 95.8643 72.5267L94.0396 72.5153C92.4286 72.5126 90.7784 72.5433 89.1715 72.5094C88.9105 73.5135 88.317 74.7273 87.9615 75.8225C87.5542 75.8631 85.0749 75.8816 84.7494 75.7905C84.7079 75.426 87.4988 68.5152 87.8221 67.6732L89.618 63.0269C89.8427 62.4412 90.6724 60.0849 90.9565 59.7539ZM90.3284 69.4961C91.0711 69.5204 91.8138 69.5325 92.5565 69.5325C93.2415 69.5251 93.9704 69.5295 94.6514 69.5026C94.4175 68.9656 92.5323 64.1657 92.4931 64.1354C91.9215 65.418 91.5073 66.7271 90.9547 68.0179C90.7588 68.4752 90.5883 69.0838 90.3284 69.4961Z" fill="white"/>
<path d="M119.557 62.3612C119.709 62.3755 119.73 62.3695 119.856 62.4902C120.673 63.2733 121.447 64.1468 122.24 64.9453C123.506 66.2242 124.764 67.5115 126.012 68.8071C126.387 69.1918 128.321 71.0719 128.344 71.3607C128.156 71.8384 126.806 73.173 126.38 73.6093C125.932 73.3087 123.799 71.1036 123.326 70.5956C122.263 69.4545 120.768 68.0959 119.793 66.9546C119.119 67.4841 117.721 68.9908 117.032 69.6763C115.727 70.9726 114.343 72.3093 113.06 73.6195C112.935 73.7376 112.992 73.7179 112.848 73.7167C112.275 73.2815 111.229 72.06 110.655 71.51C109.55 70.4509 108.482 69.2285 107.411 68.1341C106.464 67.2059 105.593 66.2055 104.629 65.2944C104.498 65.1703 104.244 64.7477 104.396 64.6054C104.854 64.1791 105.847 62.7874 106.371 62.5915C106.915 62.7962 110.963 67.2521 111.618 67.7781C111.912 68.0148 112.405 68.7183 112.911 69.0264L112.935 69.0406C113.445 68.3285 115.422 66.4464 116.135 65.7419C116.993 64.8932 118.687 63.0322 119.557 62.3612Z" fill="white"/>
<path d="M73.6264 59.7163L73.711 59.7383C73.7629 60.0166 73.7249 62.3389 73.7191 62.7429C72.0625 62.8514 69.6396 62.7682 67.9179 62.7751C67.9218 63.3255 67.9576 65.1044 67.8689 65.5436C68.7295 65.6121 69.9558 65.5785 70.8359 65.5778C71.6939 65.5772 72.8756 65.6078 73.7122 65.548C73.7738 66.5364 73.6782 67.6378 73.7756 68.6316C71.8313 68.6063 69.851 68.6214 67.9047 68.6206C67.9551 69.1227 67.9345 72.2142 67.8499 72.7109C69.7992 72.7435 71.7489 72.7412 73.6978 72.7039C73.7744 72.9908 73.7122 75.283 73.771 75.8505C73.4426 75.8382 73.0899 75.8411 72.7592 75.845C70.1333 75.8759 67.4801 75.7882 64.8572 75.8642C64.8052 73.8706 64.8363 71.7982 64.8365 69.7958L64.8356 59.7468C67.7001 59.6762 70.8048 59.8383 73.6264 59.7163Z" fill="white"/>
<path d="M45.2536 59.7141L45.3182 59.7301C45.4141 59.915 45.3552 62.3889 45.3481 62.7745C43.4332 62.7307 41.4399 62.8241 39.5358 62.7647C39.5718 63.4165 39.5424 64.8951 39.5092 65.5617C41.4398 65.5745 43.4266 65.5982 45.3546 65.5363L45.3705 68.6459C43.5839 68.5638 41.3419 68.621 39.5118 68.6229C39.5859 69.3283 39.5225 71.921 39.512 72.7123C41.3434 72.6639 43.275 72.7642 45.1655 72.7066L45.2861 72.7189C45.4215 72.8634 45.3602 75.4053 45.3851 75.8517C42.6367 75.8255 39.2219 75.7597 36.5111 75.8627C36.4364 75.2093 36.461 74.3764 36.4609 73.7055L36.4608 59.722C38.6395 59.7874 40.8555 59.7007 43.0376 59.736C43.7646 59.7477 44.5284 59.7443 45.2536 59.7141Z" fill="white"/>
<path d="M19.4993 59.7526C20.0244 59.7365 22.0947 59.6571 22.5326 59.8057C22.8478 59.9128 23.3488 61.7136 23.525 62.1925L25.827 68.5972C26.1346 69.4497 26.329 70.2241 26.6971 71.0675L29.2096 64.2042C29.4644 63.4908 30.5472 60.2721 30.8489 59.8472C31.2846 59.6482 33.4239 59.7386 34.0512 59.7379C33.5619 60.8891 33.1039 62.2638 32.7067 63.4478C32.4204 64.0825 32.1272 65.0077 31.868 65.7013L29.7222 71.5586C29.2777 72.8104 28.6781 74.6309 28.1198 75.8313C27.2218 75.8732 26.1177 75.8486 25.2097 75.8447C23.7393 72.0971 22.5126 68.2043 21.1063 64.4288C20.5403 62.9093 19.9253 61.3122 19.4993 59.7526Z" fill="white"/>
<path d="M83.8234 59.7176C83.8684 59.7151 83.8609 59.7259 83.9145 59.7638C83.8626 60.7086 83.888 61.8066 83.9053 62.758C83.1015 62.8102 81.8241 62.7764 80.9858 62.7791C81.0987 66.33 80.9455 69.9514 81.0037 73.5089C81.0158 74.2615 80.9322 75.1089 81.033 75.848C79.947 75.8516 78.8609 75.8492 77.7748 75.8408C77.8209 75.3344 77.7731 73.9852 77.7684 73.4187L77.7569 62.7765C76.8304 62.7724 75.904 62.7755 74.9775 62.7859C74.9014 61.8585 74.9354 60.6876 74.9567 59.7422C77.8336 59.6847 80.9933 59.8389 83.8234 59.7176Z" fill="white"/>
<path d="M108.896 59.7773C109.348 59.8483 112.126 63.3919 112.91 63.9736C112.931 63.9488 112.952 63.924 112.973 63.8994C113.42 63.3771 116.664 59.8874 117.104 59.8682C117.422 59.8542 118.854 61.538 119.176 61.8396C118.532 62.4221 117.876 63.3007 117.172 63.8481C115.84 65.2117 114.116 66.7719 112.88 68.1426C112.436 67.6297 111.851 67.0864 111.383 66.5762C109.94 65.002 108.28 63.4281 106.892 61.8222C107.233 61.3413 108.439 60.152 108.896 59.7773Z" fill="white"/>
<path d="M119.754 68.0253C120.151 68.2244 125.084 73.5585 125.73 74.2619C125.264 74.8205 124.215 75.8713 123.661 76.3245C122.711 75.566 120.719 73.0721 119.775 72.0696C119.597 72.2742 119.059 72.7948 118.772 73.0573C118.323 73.4678 115.937 76.1206 115.502 76.1765C115.186 76.2172 113.8 74.6282 113.503 74.2606C114.008 73.503 119.127 68.4322 119.754 68.0253Z" fill="white"/>
<path d="M91.8276 78.9878C92.0552 79.1965 92.9523 86.8834 93.1459 87.8131C93.1707 87.9336 93.1367 87.9891 93.0572 88.0737C92.8751 88.1434 92.5945 88.0875 92.3905 88.0643C92.099 87.3801 91.5228 82.5909 91.4646 81.6238C90.9691 82.5025 88.6114 87.8416 88.1534 88.0526C87.7984 87.6686 87.0713 86.0919 86.8097 85.5712C86.1564 84.2711 85.5416 82.9282 84.8588 81.6408C84.845 82.0284 84.7874 82.5005 84.7499 82.8928C84.3702 84.2322 84.5056 86.3738 84.028 87.7627C83.945 88.0032 83.5279 88.221 83.2565 88.04C83.0738 87.6643 84.0562 81.9899 84.0752 81.1389C84.0798 80.9259 84.414 79.3322 84.4808 78.9716C84.6646 79.2301 84.9919 79.9213 85.1509 80.2379L86.5551 83.0938C86.9204 83.8382 87.9477 85.7686 88.177 86.4397C88.5175 85.5432 89.2135 84.2961 89.6347 83.3932C90.3157 81.9349 91.0411 80.3866 91.8276 78.9878Z" fill="white"/>
<path d="M25.0937 78.9829C25.6503 79.5765 26.6519 82.1351 27.0578 82.9994L28.5728 86.2646C28.8673 86.8922 29.1954 87.493 29.4497 88.1381C28.6645 88.1327 28.3213 88.0091 27.9666 87.2355C27.6329 86.5074 27.349 85.7957 26.9662 85.0876C26.4246 85.1032 25.8274 85.0916 25.2813 85.0922C24.6675 85.0896 23.8148 85.0699 23.2243 85.1263C23.0694 85.5264 22.006 87.7969 21.8026 88.0531C21.4557 88.0819 21.1086 88.1067 20.7611 88.1277C21.7583 86.0715 22.6672 83.9232 23.6815 81.8635C24.2193 80.7714 24.4292 80.0499 25.0937 78.9829ZM24.9709 84.1681C25.4217 84.1638 26.1423 84.1375 26.5707 84.1683C26.3328 83.6542 25.368 81.4088 25.1043 81.1099C24.9493 81.445 23.6823 84.0325 23.7368 84.1975C24.1457 84.1843 24.5624 84.1662 24.9709 84.1681Z" fill="white"/>
<path d="M113.833 78.9617L114.463 79.0104C114.552 80.1029 114.497 81.8737 114.492 83.0298C114.486 84.6666 114.549 86.567 114.456 88.1705C113.605 87.4581 112.921 86.585 112.192 85.7485L108.397 81.3453C108.474 82.9628 108.348 84.6883 108.412 86.3193C108.428 86.7248 108.488 87.8394 108.186 88.0917L107.491 88.0532C107.424 86.7076 107.446 85.365 107.441 84.0178C107.435 82.315 107.414 80.6122 107.476 78.9103C109.49 81.2651 111.576 83.5903 113.561 85.9818C113.49 83.8232 113.538 81.5279 113.593 79.3624C113.599 79.1436 113.677 79.0782 113.833 78.9617Z" fill="white"/>
<path d="M97.9938 78.972C99.538 78.9915 101.435 79.0398 102.96 78.9746L103.027 79.9323C101.852 79.9768 99.966 79.9506 98.7907 79.906C98.8016 80.8629 98.797 81.8201 98.778 82.7769C99.1767 82.7289 102.633 82.7588 102.964 82.8064C102.971 82.9999 103.005 83.3129 102.936 83.4903C102.743 83.9913 99.444 83.462 98.82 83.7394L98.7843 83.8758C98.8016 84.9841 98.7993 86.0926 98.778 87.2008C99.7413 87.0301 101.781 87.233 102.825 87.2203C102.992 87.2182 102.989 87.8409 102.907 88.0088C102.72 88.1692 98.4651 88.1054 97.8699 88.1035C97.8302 87.0849 97.7397 79.5029 97.9938 78.972Z" fill="white"/>
<path d="M50.9702 78.9464C52.2726 79.0678 54.7363 78.9938 56.107 78.9846C56.1338 79.2846 56.2156 79.6796 56.0355 79.9075C55.0133 79.996 52.982 79.9284 51.8866 79.9249C51.9264 80.7248 51.8842 81.9263 51.8775 82.7557L56.0681 82.7611C56.082 83.0052 56.1311 83.3605 56.0326 83.5688C55.7148 83.8798 52.7334 83.5302 51.9297 83.7258L51.8927 83.8242C51.9303 84.8365 51.8892 86.1562 51.8914 87.2012C52.418 87.125 55.4448 87.1788 56.082 87.189C56.0898 87.4855 56.0863 87.7986 56.0881 88.0967C55.5472 88.1382 54.7446 88.1047 54.1863 88.0984C53.1157 88.0764 52.0446 88.0905 50.975 88.1407C50.9348 87.1285 50.9661 85.902 50.9658 84.8763L50.9702 78.9464Z" fill="white"/>
<path d="M62.1597 78.8056C63.2169 78.6457 64.1343 79.4676 64.6781 80.2738C64.421 80.5248 64.3256 80.5957 64.0227 80.7915C63.5036 80.4381 63.1384 79.8183 62.4819 79.7592C62.2652 79.7397 61.7855 79.752 61.6286 79.9175C60.2653 81.336 62.0114 82.3339 63.0983 83.1597C64.6966 84.3738 65.7471 86.1047 63.955 87.7252C63.3337 88.2869 62.608 88.3501 61.788 88.2698C60.6787 87.9665 60.1226 87.3487 59.6136 86.3674C59.8278 86.2187 60.0823 86.01 60.2925 85.8467C61.2192 87.0221 61.2489 87.508 62.9118 87.3238C63.0037 87.2441 63.0971 87.1516 63.1887 87.0753C65.0202 85.5489 62.6069 84.0469 61.4585 83.1203C60.8421 82.6316 60.2108 81.945 60.1555 81.1145C60.0705 79.8378 60.9056 78.92 62.1597 78.8056Z" fill="white"/>
<path d="M70.6996 78.9843C71.6247 78.9728 72.7811 79.0545 73.6748 78.9334C73.7041 79.2254 73.6926 79.6348 73.6926 79.9374C73.0168 79.9307 72.3409 79.9292 71.6649 79.9326C71.7211 80.5089 71.6723 82.2629 71.6651 82.9586C71.6485 84.5733 71.7133 86.3155 71.6591 87.911C71.6382 87.9777 71.6089 87.9982 71.5615 88.0543C71.3234 88.1317 71.0176 88.0806 70.7612 88.0585C70.6343 87.0247 70.6712 85.815 70.6708 84.7632L70.6717 79.927C70.028 79.927 69.3843 79.9344 68.7408 79.949C68.7402 79.8983 68.7398 79.8475 68.7397 79.7967C68.7386 79.0752 68.9353 78.9361 69.6896 78.9702C70.0157 78.9851 70.3711 78.9846 70.6996 78.9843Z" fill="white"/>
<path d="M120.583 78.9847C121.575 78.9803 122.535 79.0088 123.534 78.9825L123.582 79.9278C122.947 79.9462 122.238 79.9276 121.597 79.9243C121.647 81.2407 121.548 82.8723 121.583 84.23C121.602 84.9845 121.643 87.4345 121.524 88.0518C121.331 88.1007 120.9 88.0818 120.681 88.0793C120.53 87.053 120.595 84.7547 120.595 83.6462C120.595 82.6358 120.534 80.8705 120.607 79.9359C120.292 79.9411 118.868 80.0443 118.742 79.836C118.072 78.7264 120.023 78.9828 120.583 78.9847Z" fill="white"/>
<path d="M42.8112 78.977C42.9614 78.9906 43.0536 78.9835 43.1622 79.0858C43.3451 79.7631 43.273 86.2124 43.2086 87.22C43.6293 87.1418 45.9003 87.2187 46.6352 87.1536C46.6389 87.6463 46.8754 87.9984 46.3115 88.109C45.6443 88.0416 43.0089 88.0856 42.3325 88.1355C42.2106 87.2923 42.1956 79.8085 42.357 79.1296C42.5279 78.9857 42.5697 79.017 42.8112 78.977Z" fill="white"/>
<path d="M34.0246 78.984C34.2496 78.9634 34.3427 78.949 34.5697 78.9881C34.6777 79.2045 34.6612 86.5052 34.5993 87.2203C34.9109 87.1737 37.8657 87.141 38.0319 87.2666C38.1302 87.5208 38.1484 87.9621 37.877 88.1068C36.502 88.1233 35.1501 88.0561 33.7554 88.1279C33.594 86.1012 33.7215 81.383 33.7765 79.1716C33.779 79.073 33.9377 79.0205 34.0246 78.984Z" fill="white"/>
<path d="M77.9983 78.9623C78.2063 78.97 78.3464 78.9615 78.5365 79.0526C78.6385 79.3612 78.6269 79.8198 78.6195 80.1473C78.5659 82.6081 78.5889 85.0697 78.6218 87.5304C78.6252 87.8092 78.6137 88.0199 78.3354 88.0983L77.7483 88.1153C77.5063 86.8634 77.6993 80.786 77.7379 79.1917C77.7402 79.0843 77.901 79.0178 77.9983 78.9623Z" fill="white"/>
<path d="M128.05 78.9692L128.294 79.0133C128.503 79.1998 128.519 80.1057 128.489 80.3671C128.383 81.2803 128.621 87.7337 128.371 88.0553L128.192 88.0743C127.92 88.0673 127.813 88.0947 127.633 87.9255C127.449 87.0833 127.475 80.0272 127.617 79.1194C127.766 78.9914 127.841 79.0104 128.05 78.9692Z" fill="white"/>
</svg>
