<svg width="148" height="148" viewBox="0 0 148 148" fill="none" xmlns="http://www.w3.org/2000/svg">
<path d="M20.4149 63.0581C26.6629 62.5435 32.1717 66.9481 32.7399 72.9128C33.3082 78.8774 28.7222 84.1592 22.4795 84.73C16.1951 85.3046 10.6197 80.8892 10.0476 74.8846C9.47556 68.88 14.1251 63.5761 20.4149 63.0581ZM17.3186 80.2146C20.7125 80.6009 22.4599 80.4083 25.4213 78.8328C27.2458 77.7617 28.4098 75.8239 29.0478 73.9223C27.2292 68.6937 21.5755 67.3261 16.4145 67.2702C16.2333 67.5442 16.0517 67.8197 15.8819 68.1005C13.4805 72.0715 14.7511 76.6363 17.3186 80.2146Z" fill="white"/>
<path d="M104.91 63.0597C109.719 62.9597 113.706 66.5941 113.825 71.1866C113.946 75.779 110.152 79.5985 105.345 79.7275C100.515 79.857 96.4936 76.2149 96.3734 71.6019C96.2526 66.9889 100.079 63.16 104.91 63.0597ZM105.789 76.4363C108.712 76.0697 110.769 73.5091 110.384 70.718C109.999 67.9269 107.317 65.9631 104.394 66.3325C101.474 66.7016 99.4195 69.261 99.8049 72.0501C100.19 74.8392 102.869 76.8026 105.789 76.4363Z" fill="white"/>
<path d="M120.514 63.057C122.074 62.936 123.112 63.3668 124.309 64.2611C125.184 63.5125 126.305 63.0794 127.48 63.0366C128.822 62.9823 130.13 63.4474 131.109 64.3267C131.807 64.9359 132.305 65.7267 132.539 66.6021C132.842 67.7401 132.708 69.7693 132.73 71.0013C132.781 73.7616 132.652 76.6465 132.759 79.4014C131.623 79.3974 130.488 79.3992 129.353 79.4067C129.252 75.4834 129.454 71.5235 129.294 67.602C129.245 67.1212 128.78 66.5756 128.329 66.4027C127.432 66.0588 126.19 66.5431 126.08 67.5238C125.973 68.4788 126.017 69.4777 126.017 70.4361L126.023 76.1362L126.037 79.4027C124.895 79.3963 123.752 79.3977 122.61 79.4071C122.514 75.5207 122.694 71.5306 122.559 67.6409C122.5 65.9299 119.501 65.8483 119.347 67.5341C119.236 68.7569 119.293 70.1411 119.294 71.3839L119.299 79.4025C118.162 79.3944 117.025 79.3964 115.888 79.4086C115.797 77.0421 115.905 74.4943 115.867 72.0983C115.956 70.4512 115.697 68.6096 115.967 66.9868C116.342 64.738 118.269 63.2636 120.514 63.057Z" fill="white"/>
<path d="M89.5822 63.0584C91.8074 62.8045 94.1711 63.6796 95.8507 65.04C95.4812 65.7572 94.5692 67.1001 94.0917 67.8453C92.9139 66.937 92.098 66.3959 90.538 66.3C85.7723 66.0069 82.9939 71.467 86.2543 74.8413C87.2261 75.8295 88.5634 76.4164 89.9816 76.4771C91.6306 76.5387 92.8687 75.9626 94.0459 74.9161C94.1489 75.0436 94.2748 75.248 94.3676 75.3902C94.6634 75.75 95.5651 77.2633 95.8526 77.7413C94.4643 78.8813 92.7339 79.5721 90.9088 79.7148C88.5863 79.8855 86.288 79.1705 84.5163 77.7263C82.765 76.2969 81.6762 74.2641 81.488 72.0712C81.2998 69.8526 82.0444 67.6538 83.5567 65.9605C85.0696 64.2522 87.2445 63.2046 89.5822 63.0584Z" fill="white"/>
<path d="M67.7096 63.0585C69.885 62.7416 72.326 63.7561 73.9788 65.0428C73.409 65.9764 72.7979 66.9195 72.209 67.8452C71.4497 67.2447 70.8831 66.8174 69.9224 66.5264C68.5741 66.123 67.1138 66.2416 65.8562 66.8567C64.5976 67.4903 63.6501 68.5708 63.2181 69.8655C62.7922 71.1814 62.9029 72.5214 63.5772 73.741C64.2389 74.9527 65.3826 75.8596 66.7513 76.2583C68.2348 76.6968 69.8452 76.4908 71.1557 75.6949C71.4821 75.4957 71.9133 75.093 72.1289 74.9845C72.3343 75.0608 72.354 75.1803 72.4869 75.3925C72.9925 76.1658 73.4879 76.9455 73.9718 77.7311C72.6497 78.878 70.7462 79.5914 68.9735 79.7179C66.6524 79.8767 64.3603 79.1493 62.6004 77.6955C60.9082 76.3007 59.7717 74.2117 59.6129 72.0765C59.425 69.8396 60.1822 67.6239 61.7157 65.9237C63.2264 64.2346 65.3884 63.201 67.7096 63.0585Z" fill="white"/>
<path d="M38.7813 63.273C40.1547 63.222 41.8979 63.2684 43.2957 63.2686L52.2296 63.2632C52.3165 64.1148 52.2704 65.625 52.2709 66.5242C50.6998 66.5547 48.7975 66.5379 47.2243 66.5183C47.1598 69.1272 47.2077 71.9192 47.2079 74.5419L47.2107 79.4091C46.1116 79.3767 44.9495 79.3942 43.8504 79.4114C43.7746 78.1606 43.8343 76.6947 43.8211 75.4287C43.7904 72.4698 43.8695 69.4742 43.8048 66.5173L38.7746 66.5141C38.7223 65.4802 38.7372 64.3051 38.7813 63.273Z" fill="white"/>
<path d="M54.0417 63.2674L57.3788 63.2654C57.4579 63.8287 57.4176 64.7099 57.417 65.3054L57.4154 68.8363C57.4151 69.7958 57.4753 79.1534 57.3466 79.4104C56.2406 79.3926 55.1344 79.3923 54.0286 79.4095C53.9599 78.6209 53.9968 77.3676 53.9971 76.5578L53.9994 71.4216L53.9951 66.2989C53.9945 65.3931 53.9574 64.1364 54.0417 63.2674Z" fill="white"/>
<path d="M75.9057 63.2703L79.2698 63.263C79.3334 63.8144 79.2959 64.7097 79.2953 65.2946L79.2934 68.9704C79.2934 69.9235 79.3544 79.1515 79.2304 79.4109C78.1258 79.3911 77.0212 79.3916 75.9165 79.4123C75.8504 78.6681 75.8784 77.6952 75.8797 76.9363L75.8822 73.0522C75.8803 69.9167 75.7932 66.3766 75.9057 63.2703Z" fill="white"/>
<path d="M54.5727 82.0711C55.398 81.8165 56.2831 82.2491 56.5496 83.0373C56.8161 83.8256 56.363 84.6708 55.5376 84.9253C54.7124 85.1796 53.8275 84.747 53.5611 83.9589C53.2946 83.1708 53.7475 82.3256 54.5727 82.0711ZM55.2607 84.6848C55.9514 84.5732 56.4142 83.9447 56.2905 83.2862C56.167 82.6276 55.5045 82.1918 54.8162 82.3162C54.1372 82.4389 53.6885 83.0611 53.8104 83.7107C53.9323 84.3603 54.5793 84.7949 55.2607 84.6848Z" fill="white"/>
<path d="M78.6816 82.0688C79.5051 81.821 80.384 82.2553 80.6479 83.0408C80.9118 83.8263 80.4616 84.6678 79.6406 84.9241C78.8132 85.1823 77.9242 84.7484 77.6584 83.957C77.3919 83.1656 77.8511 82.3186 78.6816 82.0688ZM79.3347 84.6855C79.7837 84.6203 80.1614 84.3289 80.3223 83.9233C80.4832 83.5176 80.4024 83.0607 80.1112 82.7278C79.8206 82.3948 79.364 82.2376 78.9175 82.3164C78.2415 82.4355 77.7913 83.0503 77.9051 83.6972C78.0196 84.3442 78.6555 84.7842 79.3347 84.6855Z" fill="white"/>
<path d="M65.4365 82.0132C65.7594 82.1714 66.7356 84.5121 66.7062 84.8874L66.6235 84.9056C66.1945 84.3885 66.3661 84.2728 65.6461 84.2742L64.7544 84.2768C64.6614 84.4954 64.5466 84.8237 64.309 84.9247C64.1878 84.5548 65.1833 82.3744 65.4365 82.0132ZM64.8752 83.9936L65.6461 83.9933C65.8512 83.9891 65.9286 84.0234 66.0675 83.9251C65.9949 83.7466 65.5682 82.6701 65.4859 82.5816C65.2843 83.029 65.0398 83.5388 64.8752 83.9936Z" fill="white"/>
<path d="M42.4905 82.0135C42.8787 82.1241 44.2408 84.0042 44.5565 84.4046C44.5497 83.9324 44.5039 82.5185 44.6983 82.1595L44.7757 82.1897C44.9679 82.6972 44.9387 84.4029 44.8541 84.9371L44.7329 84.9355C44.4148 84.793 43.1037 83.0253 42.752 82.6014C42.7544 83.0565 42.7726 84.5244 42.6632 84.9022L42.571 84.8785L42.5943 84.9264C42.3558 84.3807 42.3894 82.6064 42.4905 82.0135Z" fill="white"/>
<path d="M83.7774 81.9982C84.1716 82.1703 85.4957 83.9733 85.8537 84.4335C85.8505 83.956 85.8028 82.5331 85.9733 82.1468L86.0292 82.1714C86.1914 82.7071 86.2175 84.4619 86.1081 84.9792C85.6858 84.8446 84.4228 83.0794 84.0413 82.6056C84.0413 83.0208 84.1074 84.5604 83.8626 84.8012C83.6076 84.4704 83.6782 82.4505 83.7774 81.9982Z" fill="white"/>
<path d="M48.0996 82.0036C48.5302 82.2018 49.8372 83.9977 50.1787 84.4334C50.1727 84.0268 50.1009 82.3506 50.329 82.1218L50.2737 82.1541L50.3002 82.1069L50.3483 82.1243C50.5518 82.6612 50.5068 84.2802 50.4761 84.9027L50.3432 84.9323C50.0095 84.791 48.7259 83.0516 48.3688 82.6193C48.3626 83.1032 48.4497 84.5698 48.2153 84.8904L48.1421 84.8669C48.0026 84.3739 48.0423 82.5439 48.0996 82.0036Z" fill="white"/>
<path d="M106.045 82.0442C106.467 82.0379 107.755 81.9682 108.024 82.1933C107.78 82.4029 106.695 82.3441 106.328 82.3384L106.351 83.3594C106.676 83.3453 107.303 83.2839 107.56 83.4697L107.488 83.5506C107.13 83.6742 106.725 83.6461 106.34 83.646C106.334 83.9799 106.342 84.3264 106.346 84.6615C106.973 84.6553 107.323 84.6499 107.952 84.7367L108.017 84.8328L108.049 84.8292L108.052 84.7552L108.098 84.8227L108.162 84.7948L108.131 84.778L108.114 84.8259C107.554 85.0015 106.634 84.9628 106.028 84.9559C106.024 83.9916 106.008 83.0061 106.045 82.0442Z" fill="white"/>
<path d="M130.652 82.0453C131.068 82.0387 132.367 81.9715 132.628 82.1913C132.376 82.3959 131.315 82.3454 130.946 82.3419L130.956 83.3694C131.276 83.3396 131.929 83.2788 132.178 83.4697L132.098 83.5562C131.769 83.6749 131.338 83.6527 130.978 83.6579C130.928 83.8581 130.948 84.4226 130.95 84.6576C131.325 84.6563 132.471 84.6242 132.716 84.8267C132.185 85.0075 131.229 84.9622 130.644 84.9544C130.631 83.9848 130.634 83.0149 130.652 82.0453Z" fill="white"/>
<path d="M111.591 82.0518C112.039 82.0134 112.561 81.9984 112.896 82.3433C112.95 82.5143 112.964 82.4672 112.912 82.6062C112.463 82.4236 111.429 81.9751 111.348 82.8044C111.658 83.4466 113.459 83.2461 113.025 84.4622C112.919 84.7595 112.585 84.8878 112.306 85C111.857 84.9874 111.372 84.9138 111.045 84.5936C110.968 84.3885 110.972 84.4753 111.029 84.2658C111.273 84.2712 112.206 85.2742 112.793 84.2894C112.826 83.5957 111.453 83.5506 111.114 83.0222C110.838 82.5922 111.231 82.257 111.591 82.0518Z" fill="white"/>
<path d="M100.992 82.0397C101.58 82.0337 102.486 82.0004 103.028 82.1524L103.055 82.2088C102.702 82.3797 101.703 82.345 101.27 82.3436C101.285 82.6567 101.276 83.0355 101.276 83.3544C101.581 83.3308 102.081 83.3547 102.403 83.3622L102.542 83.4119L102.569 83.5006C102.34 83.6756 101.622 83.6442 101.306 83.6497C101.29 83.9853 101.296 84.5612 101.114 84.8389L101.045 84.7697C100.889 84.1833 100.887 82.6188 100.992 82.0397Z" fill="white"/>
<path d="M59.3182 82.016C59.7058 82.1134 60.3933 83.9993 60.5886 84.4588C60.7588 84.1137 61.5395 82.1043 61.8177 82.0978C61.8914 82.2681 61.8705 82.2161 61.8195 82.4233C61.5322 83.1412 61.1175 84.1258 60.7363 84.8113C60.6899 84.8947 60.6714 84.8773 60.567 84.8956C60.2325 84.5828 59.31 82.4629 59.3182 82.016Z" fill="white"/>
<path d="M120.543 82.0183C120.931 82.1445 121.515 83.2202 121.752 83.5999C121.948 83.2713 122.531 82.2524 122.858 82.1207L122.889 82.2302C122.851 82.5317 122.642 82.785 122.467 83.0448C121.73 84.0731 122.106 84.1375 121.752 84.8227L121.684 84.7958C121.581 84.4991 121.592 84.1875 121.583 83.8737C121.317 83.4868 120.487 82.4126 120.543 82.0183Z" fill="white"/>
<path d="M69.0446 82.0661C69.5061 82.0332 71.1122 81.943 71.3874 82.1739L71.3418 82.2641C71.0872 82.347 70.6437 82.3345 70.3606 82.3402C70.3723 82.867 70.3528 83.4689 70.3476 84.0013C70.3446 84.261 70.4181 84.7743 70.1784 84.8975C69.9967 84.7087 70.027 82.7585 70.0115 82.3288C69.6644 82.3339 69.1129 82.4337 69.0446 82.0661Z" fill="white"/>
<path d="M115.652 82.0695C116.101 82.0312 117.579 81.977 117.922 82.1994L117.857 82.181L117.885 82.2465L117.821 82.1848L117.759 82.2779C117.572 82.3358 117.179 82.3331 116.967 82.3399C116.949 82.8672 116.958 83.4679 116.955 84.0005C116.952 84.2715 117.046 84.807 116.769 84.8946C116.597 84.637 116.638 82.7931 116.627 82.3368C116.333 82.3336 115.94 82.3694 115.696 82.2437L115.652 82.0695Z" fill="white"/>
<path d="M92.9718 82.0097C93.3005 82.191 93.1803 84.2323 93.1791 84.6595C93.5174 84.6581 94.5635 84.612 94.7759 84.7899L94.7416 84.9302C94.1451 84.978 93.4589 84.9569 92.8541 84.9524C92.8586 84.3146 92.7708 82.4862 92.9718 82.0097Z" fill="white"/>
<path d="M125.925 82.0251C126.191 82.2943 126.117 84.1369 126.128 84.6604C126.469 84.6589 127.515 84.6078 127.725 84.7922L127.698 84.9375C127.152 84.9812 126.357 84.9571 125.792 84.9554C125.786 84.3435 125.695 82.4742 125.925 82.0251Z" fill="white"/>
<path d="M74.4055 82.0197L74.5041 82.1409C74.6434 82.7659 74.6141 84.3364 74.5009 84.9745C74.3909 84.8873 74.3146 84.8538 74.3006 84.7004C74.2567 84.2225 74.1683 82.3501 74.4055 82.0197Z" fill="white"/>
<path d="M97.8119 82.0218L97.9429 82.1313C98.0987 82.5071 98.0618 84.5107 97.9766 84.9366C97.8895 84.909 97.7985 84.8991 97.7788 84.8022C97.6803 84.3223 97.6834 82.3985 97.8119 82.0218Z" fill="white"/>
<path d="M39.0639 82.0238C39.1181 82.0541 39.1981 82.1229 39.2059 82.1715C39.2815 82.6388 39.3189 84.6511 39.1583 84.9779C39.0979 84.9478 39.0231 84.8857 39.0139 84.8301C38.9312 84.3349 38.9159 82.4004 39.0639 82.0238Z" fill="white"/>
<path d="M138 75.0332C137.507 74.9832 133.931 73.5609 133.667 73.2666C133.873 72.9911 137.531 71.5311 138 71.4834V71.7058C137.633 71.8911 137.302 72.0425 136.925 72.2079L136.925 74.3308C137.253 74.4725 137.692 74.6486 138 74.8052V75.0332ZM134.236 73.2728C134.521 73.3803 134.806 73.4898 135.09 73.6015L136.598 74.1973C136.601 73.8657 136.629 72.6076 136.581 72.3298C135.796 72.6371 135.014 72.9515 134.236 73.2728Z" fill="white"/>
<path d="M133.958 79.0695C133.524 78.4383 133.454 76.7004 134.469 76.9228C134.504 77.1062 134.155 77.3572 134.055 77.6073C133.492 78.9141 135.251 79.6667 135.495 78.0918C135.719 76.6417 137.265 76.0114 138 77.5284V78.5403C137.857 78.8524 137.522 79.4832 137.098 79.3506C137.089 79.2427 137.462 78.6292 137.584 78.4799C138.164 77.8826 137.18 76.7113 136.623 76.9903C135.493 77.5562 136.05 80.009 133.958 79.0695Z" fill="white"/>
</svg>
