<svg width="148" height="148" viewBox="0 0 148 148" fill="none" xmlns="http://www.w3.org/2000/svg">
<path d="M20.9785 61.9912C23.3402 61.0074 25.9392 60.7504 28.4463 61.2519C30.9532 61.7534 33.256 62.991 35.0635 64.8086C36.8709 66.6263 38.1018 68.9426 38.6006 71.4638C39.0993 73.9851 38.8434 76.5986 37.8652 78.9736C36.887 81.3487 35.2309 83.3794 33.1055 84.8076C30.98 86.2358 28.481 86.998 25.9248 86.998H13V74C13 71.4292 13.7585 68.9158 15.1787 66.7783C16.5989 64.641 18.617 62.9749 20.9785 61.9912ZM25.1299 79.1445C24.372 79.1445 23.7568 79.7622 23.7568 80.5244C23.7568 81.2866 24.372 81.9043 25.1299 81.9043C25.8877 81.9042 26.502 81.2865 26.502 80.5244C26.5019 79.7623 25.8877 79.1446 25.1299 79.1445ZM91.292 77.5703C91.4947 77.5682 91.6955 77.6151 91.877 77.706C92.0314 77.7878 92.1599 77.9095 92.2539 78.0566V77.6035H92.5664V79.7431C92.581 79.9104 92.5612 80.0788 92.5088 80.2383C92.4564 80.3977 92.3726 80.5453 92.2617 80.6709C92.0041 80.8853 91.672 80.9886 91.3389 80.959H91.3535C91.1368 80.9598 90.9213 80.9264 90.7148 80.8603C90.531 80.8078 90.3615 80.7129 90.2207 80.583L90.3877 80.331C90.5104 80.4401 90.6543 80.5228 90.8096 80.5752C90.9805 80.6373 91.161 80.6688 91.3428 80.667C91.5884 80.6874 91.832 80.6096 92.0215 80.4512C92.1003 80.3594 92.1608 80.253 92.1982 80.1377C92.2356 80.0223 92.2492 79.9002 92.2393 79.7793V79.4726C92.148 79.6149 92.0253 79.7344 91.877 79.8164C91.6957 79.9067 91.4941 79.9493 91.292 79.9404C91.0748 79.9446 90.86 79.8932 90.668 79.791C90.4875 79.6938 90.3368 79.5482 90.2324 79.3711C90.1279 79.1825 90.0723 78.9698 90.0723 78.7539C90.0723 78.5379 90.1278 78.3253 90.2324 78.1367C90.336 77.9597 90.4868 77.8156 90.668 77.7207C90.8607 77.62 91.0749 77.5678 91.292 77.5703ZM102.877 76.7676C103.013 76.7644 103.148 76.7902 103.272 76.8437C103.379 76.8919 103.472 76.969 103.538 77.0664C103.606 77.1753 103.638 77.3031 103.632 77.4316C103.633 77.5482 103.603 77.6637 103.545 77.7646C103.474 77.8832 103.379 77.985 103.266 78.0635C103.155 78.1435 103.04 78.2165 102.923 78.2861L103.803 79.1972C103.906 79.0067 103.98 78.8008 104.014 78.5859L104.278 78.6699C104.235 78.9309 104.14 79.1797 104.003 79.4053L104.46 79.8779L104.268 80.0976L103.825 79.6396C103.717 79.7557 103.593 79.8558 103.451 79.9297C103.228 80.0304 102.983 80.0749 102.739 80.0605C102.548 80.0646 102.357 80.0305 102.18 79.959C102.028 79.8975 101.895 79.7958 101.795 79.666C101.701 79.5428 101.651 79.3908 101.653 79.2353C101.654 79.1082 101.686 78.9828 101.744 78.8701C101.821 78.737 101.924 78.6207 102.046 78.5273C102.179 78.4183 102.32 78.3193 102.468 78.2314C102.382 78.1425 102.302 78.0486 102.228 77.9502C102.172 77.8772 102.127 77.7957 102.097 77.709C102.072 77.6287 102.06 77.545 102.061 77.4609C102.058 77.3324 102.092 77.2055 102.158 77.0957C102.23 76.9906 102.33 76.9078 102.445 76.8555C102.581 76.7946 102.728 76.7644 102.877 76.7676ZM60.1855 77.5967H60.9414V77.8701H60.1855V79.3271C60.1778 79.4478 60.2173 79.5668 60.2949 79.6592C60.336 79.6993 60.3848 79.7309 60.4385 79.751C60.4922 79.7711 60.5502 79.7797 60.6074 79.7764C60.7399 79.7816 60.8694 79.7356 60.9697 79.6484L61.0859 79.8857C61.0187 79.9454 60.9392 79.9898 60.8535 80.0166C60.7662 80.0417 60.6758 80.0551 60.585 80.0566V80.0605C60.4884 80.0731 60.3902 80.0641 60.2979 80.0332C60.2053 80.0022 60.1206 79.9503 60.0508 79.8818C59.981 79.8134 59.9277 79.7298 59.8945 79.6377C59.8613 79.5454 59.8492 79.4462 59.8594 79.3486V77.8701H59.4385V77.5967H59.8594V77.0556H60.1855V77.5967ZM111.329 77.5967H112.084V77.8701H111.329V79.3271C111.321 79.4477 111.36 79.5669 111.438 79.6592C111.479 79.6993 111.528 79.7308 111.582 79.751C111.636 79.771 111.693 79.7797 111.75 79.7764C111.883 79.7817 112.013 79.7358 112.113 79.6484L112.229 79.8857C112.162 79.9455 112.083 79.9898 111.997 80.0166C111.91 80.0417 111.819 80.0551 111.729 80.0566V80.0605C111.632 80.0732 111.533 80.0642 111.44 80.0332C111.348 80.0022 111.263 79.9503 111.193 79.8818C111.124 79.8134 111.07 79.7298 111.037 79.6377C111.004 79.5454 110.992 79.4462 111.002 79.3486V77.8701H110.581V77.5967H111.002V77.0556H111.329V77.5967ZM116.357 77.5967H117.116V77.8701H116.357V79.3271C116.35 79.4477 116.388 79.5669 116.466 79.6592C116.507 79.6993 116.557 79.7308 116.61 79.751C116.664 79.7709 116.721 79.7797 116.778 79.7764C116.911 79.7817 117.041 79.7359 117.142 79.6484L117.258 79.8857C117.191 79.9455 117.111 79.9898 117.025 80.0166C116.937 80.042 116.845 80.0554 116.753 80.0566L116.757 80.0605C116.66 80.0732 116.561 80.0642 116.469 80.0332C116.376 80.0022 116.292 79.9503 116.222 79.8818C116.152 79.8134 116.099 79.7298 116.065 79.6377C116.032 79.5454 116.02 79.4462 116.03 79.3486V77.8701H115.609V77.5967H116.03V77.0556H116.357V77.5967ZM129.528 77.5674C129.741 77.5624 129.951 77.6161 130.135 77.7236C130.311 77.8277 130.454 77.9799 130.549 78.1621C130.653 78.3624 130.705 78.5864 130.701 78.8125V78.914H128.679C128.686 79.0609 128.724 79.2048 128.795 79.334C128.877 79.4751 128.997 79.59 129.141 79.666C129.282 79.7362 129.436 79.7759 129.594 79.7822C129.751 79.7885 129.908 79.7617 130.055 79.7031C130.183 79.651 130.297 79.568 130.386 79.4619L130.57 79.6777C130.461 79.808 130.321 79.909 130.164 79.9726C129.989 80.0389 129.803 80.0676 129.616 80.0566C129.385 80.0624 129.155 80.0075 128.951 79.8965C128.762 79.7936 128.606 79.6392 128.501 79.4512C128.393 79.2548 128.338 79.0331 128.342 78.8086C128.338 78.5849 128.39 78.3637 128.494 78.166C128.597 77.9819 128.748 77.829 128.93 77.7236C129.112 77.6183 129.318 77.5645 129.528 77.5674ZM50.6777 77.5703C50.8902 77.5662 51.1001 77.6208 51.2842 77.7275C51.461 77.8301 51.6053 77.9809 51.7012 78.1621C51.8054 78.3624 51.8577 78.5864 51.8535 78.8125V78.914H49.8066C49.8171 79.0547 49.8566 79.1919 49.9258 79.3154C50.006 79.4564 50.1248 79.5724 50.2676 79.6484C50.4228 79.7269 50.5948 79.7665 50.7686 79.7646C50.9105 79.7666 51.0516 79.7395 51.1826 79.6846C51.3109 79.6333 51.4245 79.5501 51.5127 79.4433L51.6973 79.6592C51.5885 79.7886 51.4507 79.8904 51.2949 79.9551C51.1257 80.0249 50.9437 80.0591 50.7607 80.0566C50.528 80.0628 50.2975 80.0079 50.0928 79.8965C49.9059 79.7924 49.7514 79.6382 49.6465 79.4512C49.5353 79.2558 49.4791 79.0336 49.4834 78.8086C49.4803 78.5845 49.5341 78.3634 49.6396 78.166C49.7425 77.9813 49.8933 77.8285 50.0762 77.7236C50.2591 77.6188 50.4672 77.5652 50.6777 77.5703ZM58.0859 77.5683C58.2986 77.5684 58.5076 77.6235 58.6934 77.7275C58.8696 77.831 59.0145 77.9815 59.1113 78.1621C59.2156 78.3624 59.2679 78.5864 59.2637 78.8125V78.914H57.2236C57.2331 79.0549 57.2722 79.1924 57.3428 79.3154C57.423 79.4564 57.5418 79.5724 57.6846 79.6484C57.8395 79.7279 58.0116 79.7675 58.1855 79.7646C58.3275 79.7666 58.4686 79.7395 58.5996 79.6846C58.728 79.6333 58.8414 79.5502 58.9297 79.4433L59.1152 79.6592C59.0064 79.7888 58.8679 79.8904 58.7119 79.9551C58.5404 80.0258 58.3562 80.0599 58.1709 80.0566C57.9394 80.0624 57.7105 80.0074 57.5068 79.8965C57.319 79.7935 57.1635 79.6392 57.0596 79.4512C56.9484 79.2558 56.8922 79.0336 56.8965 78.8086C56.8915 78.5844 56.9456 78.3627 57.0527 78.166C57.1522 77.9839 57.2991 77.8322 57.4775 77.7275C57.6634 77.6233 57.8731 77.5683 58.0859 77.5683ZM66.3975 77.5674C66.6218 77.5637 66.8435 77.6187 67.04 77.7275C67.223 77.8282 67.374 77.979 67.4756 78.1621C67.5805 78.3605 67.6357 78.5819 67.6357 78.8066C67.6357 79.0313 67.5805 79.2528 67.4756 79.4512C67.374 79.6372 67.222 79.7904 67.0371 79.8926C66.8427 80.0041 66.6213 80.0606 66.3975 80.0566C66.1776 80.0611 65.9605 80.0061 65.7695 79.8965C65.5837 79.7924 65.4307 79.638 65.3271 79.4512C65.2201 79.2535 65.1631 79.0317 65.1631 78.8066C65.1631 78.5815 65.2201 78.3598 65.3271 78.1621C65.4311 77.9796 65.5825 77.829 65.7656 77.7275C65.9584 77.6191 66.1766 77.5641 66.3975 77.5674ZM76.0479 77.5674C76.271 77.5637 76.4913 77.6187 76.6865 77.7275C76.8715 77.8268 77.0242 77.9778 77.126 78.1621C77.2309 78.3605 77.2852 78.5819 77.2852 78.8066C77.2851 79.0313 77.2309 79.2528 77.126 79.4512C77.0232 79.6365 76.8709 79.7892 76.6865 79.8926C76.492 80.0035 76.2715 80.06 76.0479 80.0566C75.8268 80.0611 75.6084 80.0061 75.416 79.8965C75.2312 79.7921 75.0788 79.6379 74.9766 79.4512C74.8695 79.2535 74.8135 79.0317 74.8135 78.8066C74.8135 78.5815 74.8695 78.3598 74.9766 78.1621C75.0796 77.9788 75.232 77.8281 75.416 77.7275C75.6086 77.6186 75.8269 77.5636 76.0479 77.5674ZM85.3184 77.5683C85.531 77.5684 85.74 77.6235 85.9258 77.7275C86.1027 77.8301 86.2478 77.9808 86.3438 78.1621C86.448 78.3624 86.5003 78.5864 86.4961 78.8125V78.914H84.4561C84.4655 79.0551 84.5055 79.1923 84.5762 79.3154C84.6564 79.4564 84.7743 79.5724 84.917 79.6484C85.0719 79.7279 85.244 79.7675 85.418 79.7646C85.5599 79.7666 85.701 79.7395 85.832 79.6846C85.9604 79.6334 86.0739 79.5502 86.1621 79.4433L86.3477 79.6592C86.2388 79.7888 86.1003 79.8904 85.9443 79.9551C85.7741 80.0254 85.5913 80.0595 85.4072 80.0566C85.1745 80.0629 84.944 80.0079 84.7393 79.8965C84.5516 79.7936 84.3969 79.639 84.293 79.4512C84.1818 79.2558 84.1246 79.0336 84.1289 78.8086C84.124 78.5844 84.178 78.3627 84.2852 78.166C84.3847 77.9839 84.5315 77.8322 84.71 77.7275C84.8959 77.6233 85.1055 77.5683 85.3184 77.5683ZM87.7559 77.5635C87.9149 77.5646 88.0735 77.585 88.2275 77.625C88.364 77.6598 88.4948 77.7165 88.6133 77.793L88.4717 78.0566C88.3609 77.9823 88.2377 77.9274 88.1084 77.8955C87.9899 77.8643 87.8676 77.849 87.7451 77.8486C87.5766 77.8351 87.408 77.874 87.2627 77.9609C87.2143 77.9924 87.1738 78.0358 87.1465 78.0869C87.1192 78.138 87.1058 78.1959 87.1064 78.2539C87.1044 78.2939 87.111 78.334 87.126 78.3711C87.141 78.4082 87.1641 78.4415 87.1934 78.4687C87.2571 78.5278 87.3342 78.5704 87.418 78.5928C87.5189 78.6243 87.6223 78.6489 87.7266 78.666L88.0645 78.7314C88.171 78.7561 88.2747 78.7928 88.373 78.8408C88.465 78.8821 88.5438 78.9483 88.6016 79.0312C88.6622 79.1269 88.6919 79.2393 88.6855 79.3525C88.6893 79.4839 88.6483 79.613 88.5693 79.7178C88.4807 79.8298 88.3618 79.9142 88.2275 79.9619C88.0611 80.0223 87.8859 80.0543 87.709 80.0566C87.5171 80.0572 87.3261 80.0289 87.1426 79.9726C86.9892 79.9285 86.8462 79.8542 86.7217 79.7539L86.8701 79.4951C86.9802 79.5784 87.1031 79.6436 87.2334 79.6885C87.3898 79.7429 87.5543 79.7698 87.7197 79.7685C87.8925 79.7822 88.0655 79.7441 88.2168 79.6592C88.2644 79.6282 88.3034 79.5854 88.3301 79.5351C88.3567 79.4848 88.3702 79.4281 88.3691 79.3711C88.3712 79.3315 88.3647 79.2915 88.3496 79.2549C88.3345 79.2183 88.3115 79.1857 88.2822 79.1592C88.2187 79.1031 88.1425 79.0627 88.0605 79.042C87.958 79.0145 87.854 78.9927 87.749 78.9765L87.4111 78.9101C87.3043 78.8864 87.2006 78.8497 87.1025 78.8008C87.0046 78.7526 86.9231 78.6767 86.8682 78.582C86.8132 78.4871 86.7872 78.3771 86.7939 78.2676C86.7911 78.1375 86.8297 78.0103 86.9033 77.9033C86.9878 77.7923 87.1002 77.7057 87.2295 77.6543C87.397 77.5887 87.5761 77.5581 87.7559 77.5635ZM97.3223 77.5674C97.5348 77.5623 97.745 77.616 97.9287 77.7236C98.1069 77.8256 98.2527 77.9765 98.3496 78.1582C98.4539 78.3585 98.5062 78.5825 98.502 78.8086V78.9101H96.4658C96.4753 79.0508 96.5137 79.1885 96.582 79.3125C96.6686 79.4561 96.795 79.5714 96.9453 79.6445C97.0866 79.7146 97.241 79.7544 97.3984 79.7607C97.556 79.767 97.7129 79.7393 97.8594 79.6806C97.9873 79.6285 98.1014 79.5465 98.1904 79.4404L98.375 79.6553C98.2656 79.7857 98.1262 79.8875 97.9688 79.9512C97.7911 80.027 97.5991 80.0627 97.4062 80.0566C97.1746 80.0624 96.9449 80.0075 96.7412 79.8965C96.5525 79.7936 96.3963 79.6392 96.291 79.4512C96.1874 79.2531 96.1338 79.0324 96.1338 78.8086C96.1338 78.5848 96.1875 78.3641 96.291 78.166C96.3905 77.984 96.5374 77.8322 96.7158 77.7275C96.8996 77.6196 97.1095 77.5646 97.3223 77.5674ZM114.546 77.5635C114.705 77.5643 114.864 77.5847 115.018 77.625C115.155 77.6598 115.287 77.7165 115.406 77.793L115.261 78.0566C115.156 77.9832 115.039 77.9283 114.916 77.8955C114.797 77.8643 114.675 77.849 114.553 77.8486C114.384 77.8356 114.216 77.8744 114.07 77.9609C114.024 77.9941 113.985 78.0382 113.959 78.0889C113.932 78.1396 113.919 78.1966 113.918 78.2539C113.915 78.2935 113.921 78.3331 113.936 78.3701C113.95 78.4073 113.972 78.4413 114.001 78.4687C114.066 78.5264 114.143 78.5687 114.227 78.5928C114.329 78.6242 114.433 78.6489 114.538 78.666L114.876 78.7314C114.982 78.7568 115.086 78.7934 115.185 78.8408C115.276 78.8811 115.354 78.9477 115.409 79.0312C115.471 79.1264 115.502 79.2389 115.497 79.3525C115.5 79.4843 115.457 79.6133 115.377 79.7178C115.29 79.831 115.171 79.9158 115.036 79.9619C114.865 80.0242 114.684 80.0561 114.502 80.0566C114.309 80.0574 114.116 80.0291 113.932 79.9726C113.779 79.9277 113.636 79.8535 113.511 79.7539L113.66 79.4951C113.771 79.5776 113.893 79.6429 114.022 79.6885C114.179 79.7429 114.343 79.7698 114.509 79.7685C114.682 79.7826 114.856 79.7447 115.007 79.6592C115.054 79.6282 115.093 79.5855 115.12 79.5351C115.147 79.4848 115.16 79.4281 115.159 79.3711C115.162 79.3317 115.156 79.2915 115.142 79.2549C115.127 79.2183 115.104 79.1858 115.075 79.1592C115.01 79.1033 114.934 79.0628 114.851 79.042C114.749 79.0144 114.646 78.9927 114.542 78.9765C114.426 78.9583 114.313 78.9357 114.2 78.9101C114.094 78.887 113.992 78.8502 113.896 78.8008C113.805 78.7556 113.728 78.6875 113.671 78.6035C113.609 78.5031 113.577 78.3858 113.583 78.2676C113.581 78.1372 113.622 78.0099 113.696 77.9033C113.779 77.7908 113.892 77.7038 114.022 77.6543C114.189 77.5883 114.367 77.5577 114.546 77.5635ZM118.444 77.5635C118.608 77.5627 118.773 77.5831 118.932 77.625C119.069 77.659 119.2 77.716 119.319 77.793L119.178 78.0566C119.067 77.9827 118.945 77.9278 118.815 77.8955C118.697 77.8641 118.575 77.8487 118.452 77.8486C118.283 77.8346 118.114 77.8733 117.969 77.9609C117.92 77.9923 117.881 78.0359 117.854 78.0869C117.826 78.138 117.813 78.1959 117.813 78.2539C117.812 78.2935 117.818 78.3331 117.832 78.3701C117.846 78.4072 117.868 78.4407 117.896 78.4687C117.962 78.5271 118.04 78.5695 118.125 78.5928C118.226 78.6243 118.329 78.6489 118.434 78.666L118.771 78.7314C118.878 78.7568 118.981 78.7934 119.08 78.8408C119.172 78.8821 119.251 78.9483 119.309 79.0312C119.368 79.1275 119.397 79.2394 119.393 79.3525C119.394 79.4837 119.354 79.6121 119.276 79.7178C119.188 79.8299 119.069 79.9142 118.935 79.9619C118.763 80.0237 118.583 80.0556 118.401 80.0566C118.208 80.0569 118.016 80.0286 117.831 79.9726C117.679 79.9278 117.538 79.8535 117.414 79.7539L117.559 79.4951C117.669 79.5781 117.792 79.6432 117.922 79.6885C118.077 79.7425 118.241 79.7694 118.405 79.7685C118.579 79.7826 118.754 79.7447 118.906 79.6592C118.954 79.6282 118.993 79.5854 119.02 79.5351C119.046 79.4848 119.06 79.4281 119.059 79.3711C119.061 79.3315 119.053 79.2915 119.038 79.2549C119.023 79.2183 119 79.1857 118.971 79.1592C118.907 79.1032 118.832 79.0627 118.75 79.042C118.647 79.0144 118.543 78.9927 118.438 78.9765L118.1 78.9101C117.993 78.8864 117.889 78.8497 117.791 78.8008C117.701 78.7546 117.624 78.6867 117.566 78.6035C117.507 78.502 117.477 78.3852 117.482 78.2676C117.48 78.1376 117.518 78.0102 117.592 77.9033C117.676 77.7923 117.789 77.7057 117.918 77.6543C118.085 77.5884 118.265 77.5578 118.444 77.5635ZM124.544 77.5674C124.767 77.5637 124.987 77.6187 125.183 77.7275C125.367 77.8281 125.519 77.9788 125.622 78.1621C125.727 78.3605 125.782 78.5819 125.782 78.8066C125.782 79.0313 125.727 79.2528 125.622 79.4512C125.519 79.6374 125.366 79.7904 125.18 79.8926C124.986 80.0036 124.767 80.0601 124.544 80.0566C124.323 80.0617 124.104 80.0066 123.912 79.8965C123.727 79.7913 123.574 79.6372 123.47 79.4512C123.365 79.2528 123.31 79.0313 123.31 78.8066C123.31 78.5819 123.365 78.3605 123.47 78.1621C123.574 77.9796 123.725 77.829 123.908 77.7275C124.102 77.6186 124.322 77.5636 124.544 77.5674ZM133.7 77.5635C133.862 77.5635 134.023 77.5838 134.18 77.625C134.317 77.659 134.448 77.716 134.567 77.793L134.427 78.0566C134.316 77.9826 134.193 77.9278 134.063 77.8955C133.945 77.8643 133.823 77.849 133.7 77.8486C133.532 77.8356 133.363 77.8745 133.218 77.9609C133.171 77.9941 133.133 78.0382 133.106 78.0889C133.08 78.1396 133.065 78.1966 133.064 78.2539C133.063 78.2935 133.07 78.3331 133.084 78.3701C133.098 78.4072 133.12 78.4407 133.148 78.4687C133.214 78.5271 133.292 78.5695 133.377 78.5928C133.478 78.6243 133.581 78.6489 133.686 78.666L134.023 78.7314C134.13 78.7568 134.233 78.7934 134.332 78.8408C134.424 78.8821 134.503 78.9483 134.561 79.0312C134.62 79.1275 134.649 79.2395 134.645 79.3525C134.646 79.4836 134.606 79.6121 134.528 79.7178C134.439 79.8308 134.318 79.9152 134.183 79.9619C134.009 80.0249 133.826 80.0569 133.642 80.0566C133.449 80.0569 133.257 80.0285 133.072 79.9726C132.92 79.9278 132.778 79.8536 132.654 79.7539L132.8 79.4951C132.916 79.5797 133.044 79.645 133.181 79.6885C133.336 79.7425 133.5 79.7694 133.664 79.7685C133.838 79.7827 134.013 79.7447 134.165 79.6592C134.213 79.6282 134.252 79.5855 134.278 79.5351C134.305 79.4848 134.318 79.4281 134.317 79.3711C134.319 79.3315 134.313 79.2915 134.298 79.2549C134.283 79.2183 134.26 79.1857 134.23 79.1592C134.165 79.1032 134.088 79.0628 134.005 79.042C133.903 79.014 133.8 78.9923 133.696 78.9765L133.359 78.9101C133.252 78.887 133.149 78.8503 133.051 78.8008C132.96 78.7556 132.882 78.6876 132.825 78.6035C132.766 78.5021 132.737 78.3852 132.742 78.2676C132.739 78.1376 132.777 78.0102 132.851 77.9033C132.934 77.7914 133.048 77.7047 133.178 77.6543C133.344 77.5887 133.522 77.558 133.7 77.5635ZM46.3613 77.0781H45.2314V80.0351H44.8691V77.0781H43.7471V76.7822H46.3613V77.0781ZM47.0469 78.0127C47.1207 77.8939 47.2228 77.7942 47.3447 77.7236C47.5307 77.6156 47.7434 77.5625 47.958 77.5703C48.1385 77.5677 48.318 77.6065 48.4814 77.6836C48.638 77.763 48.7647 77.8914 48.8438 78.0488C48.9356 78.2305 48.9802 78.4331 48.9717 78.6367V80.0351H48.6445V78.6514C48.6522 78.5461 48.6395 78.4401 48.6064 78.3398C48.5734 78.2397 48.5208 78.1472 48.4521 78.0674C48.3805 77.9996 48.2955 77.947 48.2031 77.9131C48.111 77.8793 48.013 77.8647 47.915 77.8701C47.7588 77.8654 47.6039 77.9009 47.4648 77.9726C47.3379 78.0416 47.2341 78.1469 47.167 78.2754C47.095 78.4241 47.0602 78.5885 47.0654 78.7539V80.0351H46.7344V76.5849H47.0469V78.0127ZM55.9453 79.4189V76.7822H56.2832V80.0351H56.0039L53.9229 77.3965V80.0351H53.582V76.7822H53.8613L55.9453 79.4189ZM62.1865 79.6611L62.9707 77.5967H63.25L64.0381 79.668L64.8145 77.5967H65.1162L64.1943 80.0351H63.8857L63.1201 78.0332L62.3496 80.0351H62.0264L61.1113 77.5967H61.4277L62.1865 79.6611ZM69.4111 77.8916H69.2549C69.1719 77.8956 69.0896 77.9131 69.0117 77.9433C68.9079 77.9837 68.8133 78.0461 68.7354 78.126C68.5803 78.3122 68.5021 78.5515 68.5176 78.7939V80.0351H68.1914V77.5967H68.5068V78.0693C68.5729 77.924 68.6785 77.8002 68.8154 77.7168C68.9973 77.6152 69.2032 77.5643 69.4111 77.5703V77.8916ZM70.2207 78.917L71.666 77.5967H72.0645L71.0381 78.5928L72.1738 80.0351H71.7744L70.7939 78.8056L70.2207 79.3389V80.0351H69.8936V76.5849H70.2207V78.917ZM74.4316 76.5596C74.5225 76.5586 74.6138 76.5705 74.7012 76.5957C74.7812 76.6182 74.8558 76.6585 74.9189 76.7129L74.8057 76.957C74.7594 76.9169 74.7051 76.8874 74.6465 76.8701C74.5822 76.848 74.5142 76.8365 74.4463 76.8369C74.388 76.8332 74.3293 76.8412 74.2744 76.8613C74.2195 76.8814 74.1693 76.9136 74.127 76.9541C74.0471 77.0496 74.0069 77.1723 74.0146 77.2969V77.5967H74.7734V77.8701H74.0146V80.0058L73.7061 80.0351V77.8701H73.2705V77.5967H73.7061V77.289C73.6979 77.1914 73.7108 77.0931 73.7441 77.001C73.7777 76.9086 73.8312 76.8244 73.9004 76.7549C73.9695 76.6853 74.0527 76.6314 74.1445 76.5976C74.2363 76.5639 74.3343 76.5513 74.4316 76.5596ZM79.0605 77.8916H78.9121C78.8291 77.8956 78.7469 77.9131 78.6689 77.9433C78.5651 77.9836 78.4706 78.0461 78.3926 78.126C78.2375 78.3122 78.1593 78.5515 78.1748 78.7939V80.0351H77.8408V77.5967H78.1533V78.0771C78.2191 77.9284 78.3263 77.8017 78.4658 77.7168C78.6475 77.6153 78.8528 77.5644 79.0605 77.5703V77.8916ZM82.0596 76.7822C82.3741 76.776 82.686 76.8458 82.9678 76.9863C83.2205 77.1176 83.4314 77.3178 83.5771 77.5635C83.7175 77.8227 83.7909 78.113 83.791 78.4082C83.791 78.7035 83.7176 78.9946 83.5771 79.2539C83.4296 79.4944 83.2188 79.6894 82.9678 79.8164C82.6869 79.9599 82.3745 80.0312 82.0596 80.0244L80.7422 80.0351V76.7822H82.0596ZM89.5166 80.0351H89.1904V77.5967H89.5166V80.0351ZM94.6064 77.5703C94.7858 77.5677 94.9638 77.6066 95.126 77.6836C95.2824 77.7635 95.4098 77.8915 95.4893 78.0488C95.5793 78.2311 95.6229 78.4332 95.6162 78.6367V80.0351H95.2861V78.6514C95.3026 78.4392 95.2341 78.2292 95.0967 78.0674C95.0246 77.9992 94.9397 77.946 94.8467 77.9121C94.7537 77.8782 94.6544 77.8642 94.5557 77.8701C94.3996 77.8659 94.2446 77.9014 94.1055 77.9726C93.98 78.0422 93.8776 78.1475 93.8115 78.2754C93.7383 78.4238 93.7019 78.5883 93.7061 78.7539V80.0351H93.3799V77.5967H93.6924V78.039C93.7671 77.909 93.8733 77.7992 94.0039 77.7236C94.187 77.6183 94.3955 77.5653 94.6064 77.5703ZM100.271 77.8916H100.115C100.032 77.8956 99.9507 77.9131 99.873 77.9433C99.7697 77.9837 99.676 78.0461 99.5986 78.126C99.4435 78.3122 99.3654 78.5514 99.3809 78.7939V80.0351H99.0508V77.5967H99.3662V78.0703C99.433 77.9252 99.5385 77.8013 99.6748 77.7168C99.8566 77.6152 100.063 77.5643 100.271 77.5703V77.8916ZM108.791 80.0351H108.428L108.041 79.166H106.245L105.861 80.0351H105.498L106.976 76.7822H107.313L108.791 80.0351ZM110.374 77.8916H110.218C110.135 77.8957 110.052 77.9132 109.975 77.9433C109.871 77.9836 109.777 78.0461 109.699 78.126C109.544 78.3122 109.466 78.5513 109.481 78.7939V80.0351H109.154V77.5967H109.467V78.0762C109.533 77.9279 109.639 77.8015 109.778 77.7168C109.96 77.6152 110.166 77.5643 110.374 77.5703V77.8916ZM113.05 80.0351H112.72V77.5967H113.05V80.0351ZM121.414 79.7353H123.229V80.0351H121.052V76.7822H121.414V79.7353ZM127.049 79.6738L127.972 77.5967H128.294L127.205 80.0351H126.89L125.8 77.5967H126.142L127.049 79.6738ZM132.495 77.8916H132.339C132.256 77.8957 132.175 77.9132 132.098 77.9433C131.994 77.9837 131.901 78.0461 131.823 78.126C131.668 78.3122 131.59 78.5514 131.605 78.7939V80.0351H131.275V77.5967H131.591V78.0703C131.658 77.9252 131.763 77.8013 131.899 77.7168C132.081 77.6152 132.287 77.5643 132.495 77.5703V77.8916ZM102.664 78.4355C102.53 78.5108 102.4 78.5937 102.278 78.6875C102.185 78.7605 102.105 78.8503 102.042 78.9512C101.995 79.037 101.971 79.1336 101.973 79.2314C101.971 79.3428 102.006 79.4519 102.071 79.542C102.144 79.6349 102.24 79.7064 102.351 79.7471C102.48 79.7959 102.618 79.8195 102.757 79.8164C102.957 79.821 103.157 79.7739 103.335 79.6806C103.449 79.62 103.549 79.5373 103.635 79.4414L102.664 78.4355ZM66.4053 77.8594C66.2365 77.8573 66.0701 77.9023 65.9258 77.9902C65.7898 78.0691 65.678 78.1848 65.6025 78.3232C65.5197 78.4764 65.478 78.6489 65.4824 78.8232C65.479 78.9975 65.5206 79.1697 65.6025 79.3232C65.6789 79.4619 65.7905 79.5778 65.9258 79.6592C66.071 79.7357 66.2337 79.7718 66.3975 79.7646C66.5611 79.7677 66.723 79.728 66.8662 79.6484C67.0012 79.568 67.1117 79.4517 67.1855 79.3125C67.2675 79.159 67.309 78.9866 67.3057 78.8125C67.3101 78.6381 67.2685 78.4648 67.1855 78.3115C67.1125 78.1727 67.0018 78.0575 66.8662 77.9795C66.7264 77.898 66.5669 77.8567 66.4053 77.8594ZM76.0508 77.8594C75.8892 77.8567 75.7297 77.898 75.5898 77.9795C75.454 78.0584 75.342 78.1732 75.2666 78.3115C75.1837 78.4648 75.143 78.6381 75.1475 78.8125C75.1441 78.9866 75.1847 79.159 75.2666 79.3125C75.3429 79.4511 75.4546 79.5671 75.5898 79.6484C75.7295 79.7271 75.8878 79.7668 76.0479 79.7646C76.2111 79.7668 76.3723 79.727 76.5156 79.6484C76.6498 79.5671 76.76 79.4508 76.835 79.3125C76.9169 79.159 76.9584 78.9866 76.9551 78.8125C76.9595 78.6381 76.9179 78.4648 76.835 78.3115C76.7608 78.1735 76.6503 78.0585 76.5156 77.9795C76.3744 77.8981 76.2135 77.8567 76.0508 77.8594ZM124.548 77.8594C124.386 77.8562 124.227 77.8977 124.087 77.9795C123.95 78.0581 123.836 78.1729 123.76 78.3115C123.677 78.4648 123.635 78.6381 123.64 78.8125C123.636 78.9866 123.678 79.159 123.76 79.3125C123.837 79.4513 123.951 79.5674 124.087 79.6484C124.226 79.7269 124.384 79.7668 124.544 79.7646C124.706 79.7672 124.867 79.7275 125.009 79.6484C125.145 79.5681 125.257 79.4519 125.332 79.3125C125.411 79.1581 125.451 78.9861 125.448 78.8125C125.452 78.6386 125.412 78.4657 125.332 78.3115C125.258 78.1724 125.145 78.0573 125.009 77.9795C124.869 77.8979 124.71 77.8567 124.548 77.8594ZM81.083 79.7353H82.042C82.301 79.7419 82.5574 79.6841 82.7891 79.5674C82.9948 79.4572 83.1651 79.2903 83.2793 79.0859C83.3924 78.8737 83.4521 78.6363 83.4521 78.3955C83.4521 78.1548 83.3923 77.9181 83.2793 77.706C83.1602 77.5147 82.9904 77.3606 82.7891 77.2607C82.5577 77.1427 82.3013 77.0834 82.042 77.0889H81.083V79.7353ZM91.3262 77.8769C91.1618 77.877 90.9994 77.9158 90.8525 77.9902C90.7164 78.0631 90.6024 78.172 90.5225 78.3047C90.4434 78.4472 90.4033 78.6083 90.4062 78.7715C90.4031 78.9336 90.4434 79.094 90.5225 79.2353C90.6012 79.3699 90.7153 79.4806 90.8525 79.5537C91.0036 79.6273 91.1714 79.6598 91.3389 79.6484C91.5042 79.6522 91.6683 79.6129 91.8145 79.5351C91.9509 79.461 92.0657 79.3514 92.1455 79.2178C92.2275 79.0775 92.2683 78.9166 92.2646 78.7539C92.2657 78.5959 92.2236 78.4404 92.1416 78.3056C92.0595 78.1708 91.9413 78.0611 91.8008 77.9902C91.6538 77.9157 91.4907 77.8769 91.3262 77.8769ZM106.369 78.8847H107.916L107.139 77.1377L106.369 78.8847ZM50.6738 77.8555C50.516 77.8519 50.3601 77.8927 50.2236 77.9726C50.0924 78.0493 49.9852 78.1615 49.915 78.2969C49.854 78.4128 49.8178 78.5399 49.8066 78.6699H51.5371C51.5268 78.5386 51.4909 78.4106 51.4287 78.2939C51.3573 78.1602 51.2505 78.049 51.1201 77.9726C50.9852 77.8923 50.8306 77.8514 50.6738 77.8555ZM58.0889 77.8555C57.9321 77.8555 57.7776 77.896 57.6406 77.9726C57.5087 78.0484 57.4012 78.1608 57.332 78.2969C57.271 78.4128 57.2348 78.5399 57.2236 78.6699H58.9541C58.9428 78.5385 58.9059 78.4103 58.8428 78.2939C58.7728 78.1606 58.6672 78.0492 58.5381 77.9726C58.401 77.8959 58.2458 77.8555 58.0889 77.8555ZM85.3213 77.8555C85.1645 77.8555 85.01 77.896 84.873 77.9726C84.7411 78.0484 84.6336 78.1608 84.5645 78.2969C84.5034 78.4128 84.4672 78.5399 84.4561 78.6699H86.1865C86.1754 78.539 86.1398 78.411 86.0791 78.2939C86.0078 78.1604 85.9007 78.049 85.7705 77.9726C85.6334 77.8959 85.4782 77.8555 85.3213 77.8555ZM129.751 77.9023C129.53 77.8459 129.295 77.8773 129.097 77.9902C128.964 78.0667 128.856 78.1796 128.784 78.3154C128.728 78.4265 128.693 78.5467 128.681 78.6699H130.392C130.381 78.5387 130.346 78.4105 130.284 78.2939C130.163 78.0994 129.972 77.9588 129.751 77.9023ZM97.5498 77.8818C97.325 77.8217 97.0849 77.8529 96.8828 77.9687C96.7505 78.0452 96.6427 78.1583 96.5713 78.2939C96.5126 78.4104 96.4768 78.5366 96.4658 78.666H98.1934C98.183 78.5348 98.1471 78.4067 98.085 78.29C97.9668 78.0886 97.7745 77.942 97.5498 77.8818ZM102.862 77.0156C102.73 77.0104 102.601 77.0547 102.5 77.1396C102.456 77.1792 102.42 77.2283 102.396 77.2832C102.373 77.338 102.363 77.3975 102.365 77.457C102.365 77.5202 102.375 77.5833 102.395 77.6435C102.422 77.7142 102.461 77.7795 102.511 77.8369C102.565 77.9045 102.637 77.9845 102.729 78.083C102.838 78.02 102.945 77.9539 103.048 77.8808C103.139 77.8208 103.218 77.7437 103.28 77.6543C103.326 77.5851 103.349 77.5038 103.349 77.4209C103.352 77.3654 103.343 77.31 103.321 77.2588C103.3 77.2075 103.267 77.1616 103.226 77.125C103.124 77.0421 102.993 77.0029 102.862 77.0156ZM30.292 68.7861C29.4597 68.7864 28.6285 68.8495 27.8057 68.9756L27.8203 77.9541C28.5255 78.0298 29.2342 78.0663 29.9434 78.0635C31.6896 78.0635 33.088 77.5888 33.9375 76.749C34.7868 75.9093 35.2402 74.6937 35.2402 73.208C35.2402 71.7222 34.7617 70.6667 33.9668 69.9219C33.1717 69.177 31.9729 68.7861 30.292 68.7861ZM24.5703 77.9902H25.7432V68.8633H24.5703V77.9902ZM16.8525 69.8525H19.6074V77.9687H20.791V69.8633H23.5615V68.8633H16.8525V69.8525ZM30.3467 69.7168C32.8227 69.7168 34.0176 71.0868 34.0176 73.2373C34.0174 75.6977 32.6593 77.1034 30.1582 77.1035C29.7627 77.1137 29.3666 77.0919 28.9746 77.0381V69.8408C29.4263 69.7506 29.8863 69.7091 30.3467 69.7168ZM89.3574 76.5849C89.4204 76.5834 89.4814 76.6069 89.5273 76.6504C89.5499 76.671 89.5682 76.6964 89.5801 76.7246C89.5919 76.7528 89.5977 76.7838 89.5967 76.8144C89.5979 76.878 89.5743 76.9398 89.5312 76.9863C89.5085 77.0092 89.4811 77.0271 89.4512 77.039C89.4213 77.0509 89.3895 77.0566 89.3574 77.0556C89.3258 77.0566 89.294 77.051 89.2646 77.039C89.2353 77.0271 89.2086 77.0091 89.1865 76.9863C89.1642 76.9647 89.1466 76.9389 89.1348 76.9101C89.1229 76.8812 89.1165 76.8496 89.1172 76.8183C89.1161 76.7876 89.1219 76.7568 89.1338 76.7285C89.1457 76.7002 89.1639 76.6749 89.1865 76.6543C89.2322 76.6096 89.2937 76.5847 89.3574 76.5849ZM112.887 76.5849C112.918 76.5838 112.949 76.5893 112.979 76.6006C113.008 76.6118 113.034 76.6286 113.057 76.6504C113.079 76.6709 113.097 76.6964 113.109 76.7246C113.121 76.7528 113.127 76.7838 113.126 76.8144C113.127 76.878 113.104 76.9398 113.061 76.9863C113.038 77.0097 113.011 77.028 112.981 77.04C112.951 77.052 112.919 77.0573 112.887 77.0556C112.855 77.0564 112.823 77.051 112.794 77.039C112.765 77.0271 112.738 77.009 112.716 76.9863C112.672 76.9415 112.647 76.8812 112.646 76.8183C112.646 76.7878 112.653 76.7577 112.665 76.7295C112.677 76.7012 112.694 76.6755 112.716 76.6543C112.762 76.6099 112.823 76.5851 112.887 76.5849ZM135 74.4638H43.7256V73.4638H135V74.4638ZM91.3721 65.6426C92.029 65.4042 92.7483 65.4042 93.4053 65.6426C93.7069 65.7612 93.982 65.9396 94.2139 66.167C94.4457 66.3943 94.6293 66.6666 94.7549 66.9668C94.8804 67.267 94.9449 67.5893 94.9443 67.915C94.9437 68.2407 94.8786 68.5635 94.752 68.8633C94.6264 69.1536 94.4435 69.4152 94.2148 69.6328C93.9814 69.8545 93.706 70.0275 93.4053 70.1406C93.0831 70.2641 92.7403 70.3261 92.3955 70.3232C92.0461 70.3263 91.6991 70.2644 91.3721 70.1406C91.0684 70.0272 90.7901 69.8537 90.5547 69.6299C90.3266 69.4123 90.1454 69.1499 90.0215 68.8594C89.7693 68.2393 89.7693 67.5439 90.0215 66.9238C90.1454 66.6324 90.3283 66.3697 90.5586 66.1533C90.7944 65.9319 91.0708 65.7587 91.3721 65.6426ZM117.566 65.4785C117.858 65.4778 118.15 65.5115 118.434 65.5801C118.701 65.6431 118.956 65.7496 119.189 65.8945L118.869 66.6719C118.664 66.5509 118.444 66.4561 118.216 66.3906C118.006 66.3336 117.79 66.3048 117.573 66.3037C117.399 66.2972 117.224 66.3211 117.058 66.376C116.946 66.4107 116.847 66.4772 116.771 66.5664C116.713 66.6454 116.682 66.7415 116.684 66.8398C116.684 66.8968 116.698 66.9532 116.724 67.0039C116.749 67.0546 116.787 67.0982 116.833 67.1318C116.95 67.2143 117.082 67.2743 117.222 67.3076C117.381 67.355 117.555 67.3986 117.751 67.4424C117.947 67.4862 118.136 67.5373 118.332 67.5957C118.518 67.6516 118.696 67.7313 118.862 67.833C119.021 67.929 119.154 68.0623 119.251 68.2207C119.364 68.4148 119.417 68.6388 119.403 68.8633C119.407 69.1237 119.329 69.3786 119.182 69.5928C119.016 69.8283 118.788 70.013 118.524 70.126C118.174 70.2685 117.798 70.3358 117.421 70.3232C117.052 70.3262 116.686 70.2745 116.332 70.1699C116.034 70.0933 115.753 69.9608 115.504 69.7793L115.867 68.958C116.088 69.1179 116.333 69.2415 116.593 69.3232C116.861 69.4145 117.142 69.4612 117.425 69.4619C117.599 69.467 117.773 69.4441 117.94 69.3955C118.053 69.3661 118.154 69.304 118.23 69.2168C118.292 69.1449 118.326 69.053 118.325 68.958C118.326 68.8999 118.313 68.842 118.287 68.79C118.261 68.7379 118.223 68.6925 118.176 68.6582C118.059 68.5754 117.929 68.5134 117.791 68.4756C117.631 68.4281 117.453 68.3848 117.261 68.3447C117.065 68.3019 116.871 68.2477 116.681 68.1836C116.494 68.1249 116.314 68.0437 116.146 67.9424C115.988 67.8464 115.855 67.7139 115.758 67.5556C115.65 67.3674 115.597 67.1517 115.605 66.9346C115.605 66.6751 115.681 66.4212 115.823 66.2051C115.986 65.9689 116.213 65.785 116.477 65.6758C116.822 65.5352 117.194 65.4679 117.566 65.4785ZM125.945 65.4599C126.328 65.4545 126.708 65.5252 127.063 65.668C127.385 65.7999 127.671 66.0065 127.898 66.2705L127.205 66.917C127.049 66.7466 126.86 66.6102 126.649 66.5156C126.443 66.4266 126.221 66.3814 125.996 66.3838C125.784 66.3815 125.573 66.4184 125.375 66.4931C125.194 66.5592 125.03 66.6639 124.893 66.7998C124.757 66.9361 124.651 67.0991 124.58 67.2783C124.43 67.6695 124.43 68.1029 124.58 68.4941C124.651 68.6733 124.757 68.8363 124.893 68.9726C125.029 69.1096 125.192 69.2161 125.372 69.2861C125.569 69.3582 125.776 69.3947 125.985 69.3926C126.197 69.3921 126.407 69.3558 126.606 69.2861C126.682 69.258 126.754 69.2224 126.824 69.1846V67.8008H127.812V69.706L127.604 69.8467C127.39 69.9773 127.159 70.0792 126.918 70.1484C126.597 70.2569 126.262 70.3156 125.924 70.3232C125.577 70.3261 125.232 70.2656 124.907 70.1445C124.606 70.0328 124.33 69.8598 124.098 69.6367C123.869 69.4181 123.687 69.1551 123.563 68.8633C123.435 68.5548 123.371 68.2222 123.375 67.8877C123.37 67.5545 123.434 67.2239 123.563 66.917C123.687 66.6243 123.871 66.3604 124.102 66.1426C124.337 65.9224 124.613 65.7495 124.914 65.6347C125.245 65.5149 125.594 65.456 125.945 65.4599ZM47.8242 66.4092H46.3213V70.2246H45.25V66.4092H43.7539V65.5254H47.8242V66.4092ZM50.1543 67.3769H52.2783V65.5254H53.3682V70.2246H52.2783V68.2969H50.1543V70.2246H49.0654V65.5254H50.1543V67.3769ZM58.665 66.3984H56.2109V67.4023H58.3711V68.249H56.2109V69.3525H58.752V70.2246H55.1211V65.5254H58.665V66.3984ZM63.9258 70.2246H62.8359V65.5254H63.9258V70.2246ZM68.9141 68.376V65.5254H69.9814V70.2246H69.0918L66.7607 67.3681V70.2246H65.6934V65.5254H66.5898L68.9141 68.376ZM75.2998 66.4092H73.8037V70.2246H72.7217V66.4092H71.2295V65.5254H75.2998V66.4092ZM80.085 66.3984H77.627L77.626 67.4023H79.7939V68.249H77.624L77.623 69.3525H80.165V70.2246H76.5342V65.5254H80.085V66.3984ZM83.8555 65.5254C84.1813 65.5332 84.5036 65.6028 84.8047 65.7305C85.0872 65.8509 85.329 66.051 85.501 66.3066C85.6706 66.5799 85.7567 66.8977 85.748 67.2197C85.7639 67.5362 85.6817 67.8497 85.5127 68.1172C85.3437 68.3846 85.0963 68.593 84.8047 68.7129C84.8026 68.7137 84.7999 68.714 84.7979 68.7148L85.8467 70.2246H84.6777L83.7773 68.9121C83.7567 68.912 83.7355 68.9146 83.7148 68.914H82.7715V70.2246H81.6963V65.5254H83.8555ZM88.3584 70.2246H87.2695V65.5254H88.3584V70.2246ZM98.584 65.5254C98.9101 65.5327 99.2321 65.6021 99.5332 65.7305C99.8171 65.8491 100.06 66.0493 100.23 66.3066C100.402 66.5791 100.488 66.8975 100.478 67.2197C100.487 67.5384 100.401 67.8531 100.23 68.1221C100.059 68.381 99.8148 68.5827 99.5293 68.7021C99.5262 68.7034 99.5227 68.7038 99.5195 68.7051L100.571 70.2246H99.3994L98.4971 68.9013C98.4783 68.9012 98.4592 68.9039 98.4404 68.9033H97.5V70.2138L96.4219 70.2246V65.5254H98.584ZM106.679 65.5254C107.143 65.5146 107.603 65.6147 108.021 65.8174C108.395 65.9965 108.709 66.2794 108.929 66.6318C109.143 67.0093 109.256 67.4365 109.256 67.8711C109.256 68.3058 109.143 68.7337 108.929 69.1113C108.709 69.4655 108.395 69.7503 108.021 69.9326C107.603 70.1336 107.143 70.2336 106.679 70.2246H104.558V65.5254H106.679ZM114.255 66.3984H111.797L111.802 67.417H113.982V68.2637H111.806L111.812 69.3525H114.354V70.2246H110.723V65.5254H114.255V66.3984ZM121.901 70.2246H120.812V65.5254H121.901V70.2246ZM132.698 68.3721V65.5254H133.766V70.2246H132.88L130.549 67.3681V70.2246H129.481V65.5254H130.375L132.698 68.3721ZM92.3955 66.3877C92.1979 66.3852 92.0015 66.4223 91.8184 66.4971C91.6437 66.5651 91.4851 66.6696 91.3535 66.8037C91.2194 66.9402 91.1142 67.1034 91.0449 67.2822C90.8951 67.6733 90.895 68.1069 91.0449 68.498C91.1133 68.6776 91.2178 68.8411 91.3506 68.9795C91.4823 69.1141 91.64 69.2201 91.8145 69.29C91.9987 69.3544 92.1937 69.3843 92.3887 69.3779L92.3955 69.3955C92.5927 69.3973 92.7888 69.3617 92.9727 69.29C93.1464 69.2184 93.3045 69.1127 93.4375 68.9795C93.5725 68.8435 93.6776 68.6804 93.7461 68.501C93.8961 68.1086 93.8962 67.6745 93.7461 67.2822C93.6766 67.1043 93.5732 66.9415 93.4414 66.8037C93.3098 66.6696 93.1513 66.5651 92.9766 66.4971C92.792 66.4226 92.5944 66.3856 92.3955 66.3877ZM105.647 69.3301H106.635C106.915 69.3378 107.193 69.2766 107.444 69.1513C107.667 69.0397 107.853 68.8643 107.978 68.6474C108.109 68.4114 108.176 68.1437 108.17 67.873C108.177 67.6024 108.11 67.3352 107.978 67.0996C107.853 66.8827 107.667 66.7074 107.444 66.5957C107.193 66.4705 106.915 66.4092 106.635 66.417H105.647V69.3301ZM83.668 66.4092H82.7861V68.0488H83.668C83.9356 68.071 84.2021 67.9923 84.416 67.8291C84.5741 67.6691 84.663 67.453 84.6631 67.2275C84.6631 67.0019 84.5742 66.785 84.416 66.625C84.2002 66.4658 83.9348 66.389 83.668 66.4092ZM98.3936 66.4092H97.5107V68.0488H98.3936C98.6609 68.0693 98.927 67.9908 99.1416 67.8291C99.2996 67.6691 99.3886 67.453 99.3887 67.2275C99.3887 67.0019 99.2997 66.785 99.1416 66.625C98.9256 66.4664 98.6603 66.3896 98.3936 66.4092Z" fill="white"/>
</svg>
