<svg width="148" height="148" viewBox="0 0 148 148" fill="none" xmlns="http://www.w3.org/2000/svg">
<path d="M31.2313 53.073C33.7666 52.9254 37.4869 53.0472 40.1286 53.0472L57.5145 53.0543C56.6668 54.6129 55.7361 56.4315 54.6506 57.8208C53.9693 58.6927 52.4761 58.6344 51.4483 58.6361C49.8175 58.6387 48.1661 58.6354 46.5257 58.6348L32.5686 58.6399C31.4963 60.4923 30.4358 62.3515 29.3873 64.2175L47.8457 64.2167L49.7245 64.2312C47.8536 67.7827 45.3369 71.9407 43.318 75.4805L36.4694 75.4807L39.6641 69.8708C37.383 69.81 34.8733 69.8569 32.5704 69.8564H19.3282C19.8985 68.7182 20.854 67.1477 21.5044 66.0065L25.7349 58.6011L27.1509 58.5965C28.0121 57.0641 28.9318 55.2096 30.0204 53.8162C30.3074 53.4489 30.8009 53.2366 31.2313 53.073Z" fill="white"/>
<path d="M65.2607 53.0674C67.3037 52.973 69.869 53.0476 71.9759 53.0475L84.7536 53.0548C81.4532 58.9624 82.6264 58.6449 75.8184 58.6372C72.7226 58.6191 69.6273 58.6234 66.5318 58.6503L56.9252 75.4834L50.0975 75.4846C50.4619 74.7913 50.8752 74.0794 51.2711 73.4009C54.1307 68.5017 56.8313 63.4761 59.7264 58.6007L61.1261 58.5995C61.8732 57.3272 62.5529 56.0115 63.311 54.7448C63.8462 53.8506 64.2787 53.4041 65.2607 53.0674Z" fill="white"/>
<path d="M18.2221 76.2977C20.695 76.139 24.5288 76.2647 27.1122 76.2651L44.3775 76.2674C43.5644 77.7246 42.7089 79.3801 41.7587 80.7663C41.3634 81.3429 40.8708 81.5945 40.2237 81.832C39.655 81.929 38.087 81.8968 37.456 81.8961L32.32 81.8885L14.0006 81.8916C14.0324 81.8201 14.0654 81.7492 14.0999 81.6789C14.7215 80.4233 16.1591 77.7887 17.1168 76.843C17.3834 76.5797 17.8679 76.4181 18.2221 76.2977Z" fill="white"/>
<path d="M51.1474 76.2642L71.9003 76.2666L68.6907 81.9004C61.8799 81.7908 54.7975 81.8903 47.9646 81.8892C48.9323 80.0459 50.107 78.0831 51.1474 76.2642Z" fill="white"/>
<path d="M86.5864 76.2408L86.6675 76.2725C86.6908 76.637 84.2572 80.6541 83.8653 81.1261C82.97 82.2038 79.465 81.9011 78.0932 81.898L70.1405 81.8924L70.023 81.8734C69.9861 81.4843 70.8473 80.3446 71.0109 79.9684C72.9238 75.5703 74.3171 76.2402 78.4998 76.2454C81.1959 76.2576 83.8912 76.2561 86.5864 76.2408Z" fill="white"/>
<path d="M75.1839 88.4735C78.6121 88.4561 79.4503 88.2561 79.282 92.0557C79.2406 93.008 79.4011 93.4981 78.865 94.3721C77.8696 95.0977 76.4486 94.9051 75.1735 94.9124L75.1839 88.4735ZM75.7692 94.3548C76.5721 94.3676 77.8334 94.5018 78.4403 94.0012C78.7416 93.3728 78.6984 92.7324 78.7027 92.0509C78.7226 88.8412 78.682 89.042 75.7684 89.0254L75.7692 94.3548Z" fill="white"/>
<path d="M105.039 88.4604C105.33 88.4602 105.606 88.4295 105.857 88.5734C106.113 89.0975 108.033 94.6064 107.978 94.8432C107.783 94.9054 107.742 94.9275 107.548 94.8663C107.294 94.4878 107.058 93.6751 106.904 93.2144L106.097 93.2051L103.978 93.2084C103.827 93.6863 103.634 94.4077 103.368 94.8098C103.155 94.9333 103.228 94.9008 102.953 94.8749C102.823 94.5197 104.725 89.3573 105.039 88.4604ZM104.167 92.6993L105.581 92.699L106.714 92.6911C106.554 92.2044 105.602 89.1757 105.423 88.9452L104.167 92.6993Z" fill="white"/>
<path d="M131.101 88.4601C131.371 88.4634 131.715 88.4287 131.919 88.5842C132.219 89.223 134.094 94.5244 133.996 94.8805C133.336 94.947 133.131 93.7534 132.933 93.2046L131.787 93.2049L130.046 93.2083C129.914 93.6202 129.597 95.0723 129.018 94.9261C128.892 94.4209 130.789 89.3317 131.101 88.4601ZM130.229 92.6996L131.523 92.6989L132.771 92.6911C132.597 92.1585 131.673 89.2695 131.462 88.9274C131.064 90.1889 130.653 91.4463 130.229 92.6996Z" fill="white"/>
<path d="M53.4211 88.4615C54.1237 88.4562 54.2186 88.3946 54.4836 89.0862C55.0633 90.5999 55.6242 92.1207 56.1894 93.64C56.5028 92.9155 57.8871 88.7062 58.3052 88.514C58.5872 88.5079 58.756 88.4524 58.9569 88.591C59.06 89.1773 59.1958 94.6366 59.0592 94.9045L58.8803 94.9263C58.3804 94.6131 58.4903 90.9575 58.4811 90.1992C58.4619 89.832 58.4795 89.3955 58.4854 89.0224C58.1303 90.0045 56.9512 93.6399 56.3885 94.1207C56.3151 94.1435 56.2142 94.1942 56.1439 94.1658C55.4408 93.8819 54.2802 90.0468 53.928 89.1854C53.9498 90.5288 53.8231 93.2501 53.815 94.7107C53.7702 94.7775 53.7325 94.8338 53.7019 94.8796C53.4269 94.9091 53.4475 94.9547 53.274 94.8302C53.1588 93.5523 53.3697 89.9531 53.4211 88.4615Z" fill="white"/>
<path d="M44.8751 88.4858C45.4792 88.4853 48.0523 88.3965 48.4374 88.5665C48.49 88.7764 48.4836 88.7036 48.3643 88.9323C48.1225 89.0946 45.9352 89.0247 45.4629 89.0248L45.4689 91.3689C45.9653 91.3661 47.9744 91.2494 48.2521 91.5055L48.2094 91.7173C47.8173 92.1223 46.3377 91.8032 45.5278 91.914L45.4701 92.0621L45.4714 94.3549C46.2635 94.3679 47.055 94.3475 47.847 94.3466C48.2279 94.3461 48.3943 94.3465 48.526 94.7236L48.4349 94.8384C47.6802 94.9523 45.7562 94.9037 44.8795 94.9042L44.8751 88.4858Z" fill="white"/>
<path d="M114.166 88.3931C114.523 88.3581 115.707 88.4778 116.028 88.624L116.063 88.8573C115.604 89.4558 112.589 87.9209 113.062 90.4363C113.345 91.9387 116.046 91.0319 116.173 92.8175C116.265 94.1092 116.033 94.7404 114.73 94.9305C114.186 94.9338 112.734 95.0213 112.428 94.5708L112.52 94.2942C113.257 94.1019 115.849 95.3393 115.615 92.958C115.481 91.5936 112.532 92.2388 112.446 90.4981C112.368 88.9462 112.679 88.5681 114.166 88.3931Z" fill="white"/>
<path d="M122.704 88.3953C123.14 88.3572 124.237 88.4089 124.53 88.7416L124.452 89.0754C124.034 89.1509 123.234 88.7922 122.62 88.9022C121.935 89.0248 121.266 89.5527 121.415 90.3393C121.693 91.8745 124.543 91.1367 124.635 92.7157C124.71 94.0166 124.578 94.7345 123.19 94.9296C122.615 94.9319 121.266 95.0501 120.924 94.5565L120.969 94.3252C121.249 94.1734 122.389 94.4798 122.901 94.4571C123.685 94.5378 124.213 93.7508 124.101 93.0085C123.874 91.4923 120.957 92.3095 120.895 90.412C120.844 88.8517 121.255 88.5416 122.704 88.3953Z" fill="white"/>
<path d="M29.904 88.3935C30.3432 88.3524 31.5659 88.4096 31.7536 88.8699C31.4737 89.1401 30.3589 88.8713 29.9069 88.9081C29.2199 88.9642 28.5459 89.5432 28.6565 90.2817C28.8465 91.5504 30.6541 91.3237 31.5154 92.0122C31.7655 92.2108 31.9234 92.5033 31.9523 92.8214C32.0705 94.0765 31.5495 94.8405 30.2955 94.9324C29.7492 94.934 28.4366 95.0151 28.1362 94.5523L28.213 94.3073C28.4558 94.165 29.6913 94.5212 30.2303 94.4466C31.2513 94.3054 31.3644 93.8604 31.2596 92.8382C31.1553 91.8207 29.2766 91.952 28.6035 91.4107C27.8879 90.8351 28.1099 89.67 28.4334 88.9363C28.6216 88.5331 29.4677 88.4429 29.904 88.3935Z" fill="white"/>
<path d="M15.75 88.3937C16.1308 88.3605 17.3063 88.4379 17.6134 88.6689C17.6275 88.8535 17.6462 88.9124 17.5407 89.0649C16.9616 89.1132 16.3661 88.7771 15.6688 88.9105C14.9937 89.0397 14.3602 89.6489 14.5285 90.3844C14.8666 91.8609 17.5249 91.1193 17.7461 92.6928C17.8115 93.1571 17.7469 93.9625 17.4939 94.3741C17.2284 94.7816 16.7605 94.864 16.3136 94.9305C15.6246 94.9363 14.3257 95.1029 14 94.4458L14.0908 94.3048C14.8518 94.1189 16.4177 94.9042 16.9023 94.1104C18.1802 91.9737 15.7899 92.2238 14.6224 91.4853C13.8242 90.9805 13.8805 89.6424 14.3117 88.925C14.567 88.5001 15.2927 88.4463 15.75 88.3937Z" fill="white"/>
<path d="M96.9512 88.3951C97.4493 88.3464 98.5241 88.2984 98.6467 88.8731L98.5423 89.0067L97.4899 88.937C97.1998 88.9183 96.0957 88.9223 95.9239 89.2319C95.437 90.1073 95.6157 91.4578 95.5958 92.4388C95.5552 94.4686 96.1242 94.4952 97.868 94.4212C98.1797 94.3787 98.5233 94.2727 98.6804 94.5913L98.6165 94.6799C98.0467 95.0219 96.283 95.1287 95.7348 94.6778C94.7981 93.8938 94.9872 92.4223 94.9898 91.3183C94.995 89.4595 94.9587 88.6174 96.9512 88.3951Z" fill="white"/>
<path d="M36.2146 88.4938C37.1007 88.4849 39.6798 88.4118 40.4358 88.5283C40.4723 88.6797 40.526 88.815 40.4509 88.95C40.0463 89.0553 39.0241 89.028 38.5572 89.0285L38.5627 93.3292C38.563 93.7309 38.6339 94.6178 38.457 94.8845C38.1983 94.946 38.296 94.9575 38.0633 94.852C37.8627 94.3719 37.9672 89.8393 37.9736 89.0164C37.4257 89.0192 36.6625 89.0526 36.1459 88.9313C36.0648 88.9122 36.0255 88.7858 35.973 88.6883C36.0425 88.5705 36.0876 88.57 36.2146 88.4938Z" fill="white"/>
<path d="M64.1778 88.451C64.4261 88.4646 64.5347 88.4283 64.7154 88.5589C64.782 89.2805 64.814 94.6089 64.6502 95L64.2916 94.906C64.0262 94.5942 64.1564 89.2705 64.1778 88.451Z" fill="white"/>
<path d="M84.1458 88.4293C84.3781 88.4449 84.4463 88.446 84.663 88.5253C84.8045 88.8487 84.7191 94.1376 84.7407 94.9459C84.5525 94.9326 84.309 94.9428 84.1769 94.8218C84.0388 93.6892 84.1381 89.8254 84.1458 88.4293Z" fill="white"/>
<path d="M22.6418 88.4551L23.1149 88.4887C23.2981 88.7641 23.2069 94.0913 23.2026 94.9998L22.7651 94.89C22.5191 94.5089 22.6375 89.2936 22.6418 88.4551Z" fill="white"/>
</svg>
