<svg width="148" height="148" viewBox="0 0 148 148" fill="none" xmlns="http://www.w3.org/2000/svg">
<path d="M23.3658 67.2098C23.9788 66.7378 25.8543 67.05 26.6566 67.0082C27.1937 66.9805 27.835 66.9644 28.3735 66.9523C28.5745 66.984 28.5684 66.9981 28.7409 67.1167L28.7466 67.2307C28.5728 67.6077 27.9577 67.6866 27.6499 67.9463C27.3261 68.2194 27.0547 68.7446 26.8655 69.1229C26.0124 70.8297 21.5771 81.4171 20.9645 81.9554C20.8811 82.0282 20.8409 81.9931 20.7402 81.9796C20.3254 81.5487 19.4279 79.2735 19.1385 78.6052L16.3622 72.2223C15.9266 71.2196 15.4311 69.9962 14.9698 69.0178C14.2744 67.5443 13.3557 67.9995 13 67.3555C13.0675 67.1182 13.0852 67.1606 13.2855 66.959C14.1353 66.9158 14.9508 67.0635 15.7872 67.0703C16.9094 67.0791 18.0822 66.7931 19.194 67.0601C19.2903 67.2341 19.2671 67.1404 19.2437 67.3555C18.8564 67.9327 18.2748 67.5153 17.6914 67.8929C17.1198 68.2018 17.328 68.953 17.5332 69.4696C18.3428 71.4562 19.1909 73.445 20.0545 75.4087C20.485 76.3872 20.9921 77.779 21.5444 78.6611C21.9968 77.9604 22.7936 75.9826 23.1612 75.1572C23.8332 73.6486 24.561 72.0099 25.1709 70.4717C25.3889 69.8742 25.5315 69.4089 25.5349 68.8054C25.5425 67.4587 23.322 67.8828 23.3658 67.2098ZM112.901 72.5636C114.026 72.4482 115.017 72.6654 115.931 73.362C116.535 73.8226 117.877 75.617 117.245 76.3272C116.729 76.5362 111.872 76.4169 111.023 76.4135C111.137 79.6039 113.124 81.7821 116.313 80.0969C116.625 79.904 116.897 79.6774 117.253 79.7051L117.34 79.815C117.264 80.6822 115.53 81.5669 114.72 81.7503C110.216 82.7706 107.768 78.2255 109.94 74.5118C110.6 73.3829 111.617 72.84 112.901 72.5636ZM48.1396 72.5703C53.3175 72.2371 51.8272 76.5234 52.0633 79.8743C52.1629 81.2877 53.3093 80.4886 53.7586 80.846C53.7337 81.6559 51.9399 81.8596 51.3606 81.5649C50.7382 81.2479 50.699 81.1151 50.4413 80.5156C49.1445 81.6417 46.6439 82.5508 45.2285 81.2055C44.9706 80.8333 44.8216 80.3821 44.7784 79.9309C44.7228 79.3564 44.8996 78.7839 45.2686 78.3435C46.2101 77.2025 48.8321 76.6205 50.2275 76.5038C50.213 75.1079 50.133 73.3411 48.3864 73.1645C46.8773 73.0114 46.9594 73.8145 46.8347 74.911C46.7385 75.0661 46.5867 75.1726 46.4193 75.234C44.9366 75.7748 44.733 74.6076 45.5562 73.6365C46.183 72.8974 47.24 72.6822 48.1396 72.5703ZM83.0779 72.5723C88.3762 72.3842 86.6288 76.4506 87.0201 80.0361C87.145 81.1832 88.272 80.5514 88.6673 80.8508L88.6821 81.0059C88.3342 81.6546 87.0242 81.8225 86.3785 81.6033C85.7441 81.3889 85.6099 81.0807 85.3455 80.5176C84.4481 81.339 83.2922 81.8138 82.0817 81.859C81.3051 81.8873 80.7142 81.7368 80.1474 81.2034C79.8896 80.8453 79.7013 80.3011 79.6753 79.8621C79.5298 77.452 83.3189 76.6441 85.1278 76.5072C85.1304 75.4154 85.1672 74.0809 84.1222 73.4362C83.4331 73.0107 82.0223 72.9035 81.87 73.9702C81.8366 74.2002 81.7972 74.8658 81.6717 75.0048C81.3531 75.4228 80.0051 75.5941 80.0044 74.8234C80.0024 73.1955 81.9074 72.7092 83.0779 72.5723ZM99.0396 70.3517C99.1438 70.3996 99.1278 70.4022 99.2153 70.4859C99.3328 70.9242 99.278 72.2554 99.268 72.7895C99.8589 72.7963 100.495 72.7862 101.079 72.7943C101.674 72.8024 102.069 72.1589 102.412 72.314C102.456 72.6323 102.088 73.4861 101.96 73.8139L99.27 73.8011C99.2847 75.4499 98.9041 78.8553 99.8422 80.3059C100.573 81.4354 102.364 79.7576 102.846 80.3558C102.169 81.3882 101.102 81.749 99.9457 81.7915C97.2342 81.892 97.4051 79.1129 97.4111 77.187C97.4144 76.0541 97.4244 74.9286 97.4411 73.8044C96.915 73.8091 96.4776 73.7889 95.9515 73.7565C96.316 73.2615 97.1727 72.6769 97.6401 72.1873C98.2043 71.5966 98.5642 71.0146 99.0396 70.3517ZM92.0513 70.3543C92.086 70.3719 92.1742 70.4468 92.2089 70.4744C92.3191 70.9047 92.2797 72.2527 92.2757 72.7841C93.0069 72.7908 93.7307 72.8036 94.4618 72.7739C94.7696 72.577 94.9766 72.2763 95.3618 72.3599C95.4754 72.6964 95.1155 73.4362 94.9659 73.8172L92.267 73.7923C92.3104 75.4141 92.2129 77.0555 92.3124 78.6753C92.3612 79.4676 92.6062 80.3187 93.3794 80.6579C94.3309 81.076 95.0948 79.937 95.8306 80.1966C95.6096 81.3242 93.9076 81.7638 92.9207 81.7901C90.2038 81.8623 90.4468 79.0954 90.4535 77.1815C90.4575 76.0561 90.4635 74.9252 90.4702 73.8051C89.9327 73.8071 89.5133 73.7909 88.9772 73.7532C89.4212 73.1786 90.2411 72.6418 90.7586 72.0794C91.2634 71.5298 91.5973 70.9518 92.0513 70.3543ZM63.5549 66.9193C64.751 68.5716 68.3331 77.7919 69.0653 78.3145C69.7134 77.8033 71.9439 72.5846 72.6116 71.5676C73.3127 70.5001 74.1653 67.9166 75.0353 67.0447C75.3485 66.9604 75.7832 66.9961 76.1103 67.019C76.6825 67.0588 77.8003 66.6913 78.1922 67.2024C78.0146 67.5827 77.0872 67.8424 76.6518 68.0097C75.9668 68.7326 76.2352 70.8245 76.2799 71.7989L76.4689 75.992C76.531 77.2915 76.3414 78.8466 76.774 80.0658C77.0531 80.8528 78.8333 80.6937 79.1524 81.3073C79.1297 81.5481 79.1791 81.4496 78.9942 81.6101C78.7177 81.6863 77.0132 81.6546 76.6172 81.6101C75.6623 81.5022 73.8001 81.7989 72.9804 81.6216C72.7957 81.4644 72.8579 81.5609 72.7958 81.3168C73.0062 80.6937 73.5154 80.8899 73.9245 80.4637C74.5117 79.8514 74.3017 77.8525 74.2774 76.9374C74.233 76.1186 74.2267 71.7388 73.8796 71.4003C73.1339 71.788 69.2118 81.0794 68.3279 81.4638C67.6939 81.2821 63.8602 71.6026 63.3233 71.3295L63.2332 71.4037C62.9403 72.3264 62.7184 78.9026 63.0275 79.7604C63.3125 80.5507 63.9268 80.7456 64.6216 81.072C64.8287 81.1698 64.9231 81.2352 64.9997 81.453L64.917 81.5588C64.1579 81.8353 62.7173 81.5474 61.8549 81.5959C61.3564 81.6242 60.3361 81.8333 60.0157 81.461C60.1042 80.9587 60.913 80.7881 61.2649 80.4044C61.401 80.256 61.561 80.1211 61.618 79.9087C61.9967 78.4993 61.9629 77.0069 62.0085 75.5368C62.0335 74.7337 62.1343 73.9919 62.1371 73.1253C62.1413 71.7854 62.3223 69.6564 61.713 68.4466C61.5978 68.218 61.0451 67.9935 60.8138 67.9159C60.4129 67.781 59.7717 67.715 59.4893 67.4108C59.4345 67.1505 59.4393 67.2483 59.5856 66.9576C61.0451 66.8147 61.5688 67.2726 63.5549 66.9193ZM106.463 72.3336C106.501 72.3667 106.553 72.3876 106.575 72.432C106.716 72.7274 106.611 73.4227 106.608 73.7639C106.6 74.8881 106.4 79.935 106.835 80.5736C107.091 80.9506 107.632 80.9526 108.031 81.041C108.237 81.0868 108.402 81.1528 108.521 81.3376L108.476 81.4624C107.96 81.7841 106.997 81.6114 106.379 81.5898C105.661 81.5669 104.942 81.5797 104.226 81.6289C103.937 81.6411 103.902 81.6559 103.641 81.552C103.497 81.169 104.507 80.9262 104.581 80.4731C104.886 78.6213 104.809 76.3474 104.66 74.4848C104.621 73.9979 103.308 73.8057 103.192 73.5495C103.388 73.3532 103.794 73.2373 104.061 73.1799C104.92 72.9952 105.579 72.7254 106.368 72.333L106.463 72.3336ZM121.718 66.0089C122.018 66.2179 121.863 67.1681 121.861 67.5626C121.829 71.573 121.848 75.5847 121.847 79.5951C121.847 79.8709 121.929 80.1649 122.037 80.4158C122.323 81.0814 123.411 80.8197 123.773 81.3774L123.719 81.5109C123.302 81.6944 120.324 81.5778 119.516 81.6236C119.266 81.6506 119.098 81.6803 118.926 81.4928C119.048 81.1408 120.005 80.6552 120.022 80.0503C120.039 79.4501 120.027 78.8169 120.027 78.2174L120.024 70.6774C120.026 69.9107 120.129 68.8749 119.887 68.1486C119.679 67.5214 118.729 67.6293 118.497 67.3494L118.535 67.1734C118.967 66.9779 119.644 66.8511 120.12 66.7034C120.736 66.5119 121.141 66.3056 121.718 66.0089ZM31.0307 72.3606C31.3786 72.9243 30.6491 79.2431 31.4187 80.6943L31.4476 80.7085C31.9056 80.9384 32.884 81.0288 32.9602 81.3929C32.9482 81.4084 32.9382 81.4253 32.924 81.4388C32.5817 81.7658 29.3769 81.5892 28.6975 81.6357C28.4501 81.6411 28.2759 81.6526 28.1002 81.4746C28.1756 81.1805 29.0224 80.7455 29.0466 80.6215C29.4181 78.7252 29.2286 76.4559 29.1621 74.5097C29.1371 73.7788 28.1031 74.0343 27.704 73.6378L27.7352 73.5022C28.0825 73.097 28.7006 73.2109 29.1968 73.0511C29.7851 72.8616 30.3098 72.6027 30.8668 72.3397L31.0307 72.3606ZM132.876 72.331C133.297 72.331 133.194 72.8933 133.162 73.1921C132.995 74.7296 133.091 76.2955 133.064 77.8425C133.051 78.6355 133.058 79.6639 133.249 80.4205C133.357 80.8528 134.687 80.96 135 81.4112L134.955 81.5137C134.463 81.7383 131.643 81.5804 130.831 81.6216C130.519 81.6418 130.493 81.6472 130.194 81.5757L130.123 81.4598C130.269 81.1442 131.022 80.7396 131.072 80.5237C131.454 79.028 131.15 77.0117 131.241 75.5335C131.382 73.2575 129.924 74.2245 129.687 73.5495C129.917 73.2406 131.324 73.035 131.785 72.828C132.139 72.6688 132.503 72.5164 132.876 72.331ZM42.1074 66C42.1969 66.0688 42.2899 66.1471 42.2899 66.2732C42.2899 67.0224 42.2547 67.9651 42.2507 68.6981L42.25 75.9273C42.2504 77.1539 42.1271 79.2135 42.402 80.4314C42.5109 80.9128 43.8846 80.9176 44.1605 81.4031L44.1057 81.5029C43.6059 81.7018 40.823 81.5744 39.925 81.6277C39.6247 81.6391 39.5756 81.6566 39.3047 81.5508L39.2608 81.4401C39.5775 80.8602 40.3832 80.991 40.3855 79.9033C40.3933 76.1829 40.3923 72.461 40.3868 68.7399C40.3846 67.2469 39.3167 67.8849 38.864 67.3548L38.883 67.1971C39.3645 66.957 40.0527 66.8537 40.5839 66.6791C41.1512 66.4923 41.5778 66.2711 42.1074 66ZM127.291 66.0028C127.399 66.1626 127.432 66.1855 127.432 66.4026C127.433 67.4641 127.411 68.5505 127.407 69.6113L127.406 76.2132C127.403 77.0035 127.42 78.5782 127.397 79.3092C127.329 81.4779 128.973 80.6862 129.312 81.391L129.254 81.5109C128.812 81.6944 125.856 81.5757 124.991 81.6317C124.749 81.6425 124.589 81.6438 124.412 81.4732C124.573 80.9445 125.309 80.9128 125.45 80.5129C125.661 79.9114 125.599 69.9639 125.525 68.6765C125.511 68.4351 125.484 68.1668 125.371 67.9496C125.209 67.6374 124.619 67.6333 124.31 67.5315C124.148 67.4782 124.073 67.4431 123.995 67.286C124.293 66.9549 125.625 66.7688 126.135 66.5342C126.503 66.3649 126.9 66.1976 127.291 66.0028ZM36.5762 66C36.6621 66.0674 36.7803 66.1417 36.7733 66.2725C36.7342 67.0116 36.7071 67.7439 36.7021 68.4844L36.701 75.725C36.7016 76.9995 36.695 78.299 36.7103 79.5735C36.6918 79.8824 36.829 80.1683 36.8899 80.4253C37.0404 81.0591 38.7689 80.8953 38.5884 81.5069C38.1615 81.6896 35.2149 81.5818 34.3925 81.6216C34.1567 81.629 33.8672 81.6843 33.7607 81.4429C34.0207 80.9331 34.8377 80.8953 34.8338 80.0517C34.8312 79.4785 34.8281 78.8715 34.8278 78.2963L34.8295 70.492C34.8301 69.8904 34.8391 69.2147 34.832 68.6172C34.8165 67.3191 33.7717 67.8458 33.3313 67.3548L33.3447 67.2058C33.7604 66.9704 34.5528 66.8389 35.0346 66.6805C35.6337 66.4836 36.0143 66.2913 36.5762 66ZM84.9455 77.0069C83.8138 77.3063 82.5064 77.5835 81.8453 78.682C81.448 79.3408 81.6691 80.2324 82.2333 80.7206C83.3497 81.1907 84.4747 80.8743 85.1111 79.8096C85.1144 79.3726 85.1799 77.2284 85.0397 76.9874L84.9455 77.0069ZM50.1784 76.949C48.5362 77.4183 45.5146 78.2518 47.2063 80.639C48.1451 81.1765 49.5129 80.9425 50.0622 79.9829C50.3013 79.5655 50.2564 77.4575 50.1784 76.949ZM114.255 73.4652C113.743 73.1341 113.365 73.0626 112.792 73.0963C111.41 73.5495 111.183 74.499 111.016 75.8235C111.891 75.8208 112.766 75.8268 113.64 75.8416C114.118 75.8483 114.832 75.9239 115.151 75.5085C115.667 74.8341 114.794 73.8125 114.255 73.4652ZM105.709 67.6718C106.246 67.9024 106.713 68.5977 106.979 69.1034C106.64 69.9073 106.42 70.1602 105.699 70.6127C105.046 70.4036 104.69 69.7886 104.43 69.1958C104.759 68.4797 105.116 68.1371 105.709 67.6718ZM30.202 67.6597C30.4712 67.7959 30.9134 68.1668 31.1006 68.4136C31.8174 69.3597 30.9283 70.1326 30.2487 70.6066C29.9233 70.5689 29.6827 70.3126 29.4607 70.09C28.4642 69.0913 29.447 68.3057 30.202 67.6597ZM132.208 67.6657C132.722 67.837 133.276 68.6462 133.471 69.1426C133.162 69.8715 132.89 70.148 132.263 70.5958C131.813 70.5574 131.593 70.2546 131.315 69.9336C130.506 68.9969 131.569 68.1903 132.208 67.6657Z" fill="white"/>
</svg>
