<svg width="148" height="148" viewBox="0 0 148 148" fill="none" xmlns="http://www.w3.org/2000/svg">
<path d="M72.7381 29.0437C81.3571 28.6679 92.6444 30.7088 99.9233 35.4996C106.862 40.0662 109.595 46.5443 104.772 53.8964C110.394 56.6903 115.026 59.3945 119.393 63.9122C136.331 81.4333 126.248 102.637 106.668 111.854C95.3505 117.18 85.4788 119.13 72.9988 118.993C61.51 118.751 51.246 116.762 40.8381 111.562C38.2042 110.246 36.4471 108.843 34.0768 107.507C32.5087 107.573 30.6801 107.677 29.0857 107.847C25.9564 108.18 23.301 106.396 23.1372 103.066C23.0438 101.164 23.9405 100.058 25.1669 98.7087C14.3968 82.711 21.5502 66.7481 36.6085 57.3351C37.6373 56.692 43.2008 53.8655 43.5692 53.4739C37.7229 44.4711 44.0281 36.984 52.4842 33.1917C59.0928 30.2281 65.5591 29.2879 72.7381 29.0437ZM102.353 39.4405C94.6713 31.9086 80.163 29.7767 69.8495 30.6328C61.7844 31.1284 51.2915 33.6351 45.6707 39.8069C41.2637 44.646 42.2379 49.7388 46.3321 54.2975C44.7598 54.727 43.1682 55.5936 41.6944 56.3015C24.7877 64.4227 14.0458 82.7229 27.8157 99.5504C27.4592 99.9778 25.9987 101.502 25.855 101.83C23.2012 107.874 31.5593 106.02 34.4008 105.717C45.8752 114.298 60.806 117.537 74.8877 117.481C90.0282 117.402 107.188 112.771 118.233 101.793C123.22 96.8368 126.411 90.4539 126.423 83.3642C126.445 69.893 115.009 60.1203 103.659 55.1392C103.153 54.9174 102.569 54.6549 102.092 54.394C106.707 49.851 107.091 44.0866 102.353 39.4405ZM99.8647 56.0159C101.218 55.8593 106.708 58.8287 108.141 59.6833C114.995 63.7702 121.669 69.9901 123.736 77.9503C125.179 83.4731 124.366 89.3472 121.475 94.2625C115.594 104.348 103.37 110.66 92.3954 113.295C74.2333 117.655 54.6999 115.774 38.5192 106.148C38.2064 105.925 38.0137 105.883 37.9424 105.6C38.1952 105.52 38.7082 105.418 38.9412 105.569C41.5029 107.232 44.2113 108.589 47.0639 109.724C64.1167 116.508 84.616 116.436 101.602 109.485C110.017 106.043 118.709 99.8793 122.188 91.1713C127.363 77.8485 118.974 66.9915 108.023 60.3849C106.587 59.5145 105.101 58.7313 103.571 58.0401C102.748 57.6687 100.18 56.7521 99.8647 56.0159ZM53.0463 63.909C53.5441 63.9061 54.0194 63.8551 54.3235 64.2848C54.1052 64.7517 53.5459 65.0419 53.1587 65.3925C50.3047 67.9841 48.4906 71.6715 47.1199 75.2405C44.4051 82.31 42.37 89.7587 39.0287 96.5614C38.3278 97.9889 36.8728 99.6722 35.8535 100.911L35.8893 101.018C36.4961 101.094 41.5806 100.259 42.5473 100.138C57.0218 98.4085 71.6158 97.9052 86.1736 98.6327C91.5585 98.9238 96.826 99.3406 102.165 100.275C103.578 100.523 106.656 101.105 107.876 101.903C108.121 102.063 108.096 102.401 108.103 102.654C107.349 104.243 102.015 106.633 100.252 107.435C94.8356 109.906 87.0144 112.359 81.1589 110.917C80.0392 110.642 77.8505 109.779 76.6395 109.341C75.0219 108.761 73.3846 108.239 71.7305 107.777C65.0959 105.837 58.3084 104.474 51.4422 103.701C43.5167 102.859 36.2535 102.873 28.3816 103.813C28.0782 103.85 27.9877 103.647 27.8355 103.438C27.9435 102.883 29.4657 101.452 29.9021 100.734C34.5792 93.0266 36.7027 83.7434 39.9344 75.3668C42.2153 69.4547 46.436 64.391 53.0463 63.909ZM46.8126 56.1626C47.4064 55.9096 47.5927 55.763 48.2019 55.8431L48.3185 56.0114C47.967 56.5686 47.7493 56.5441 47.0708 56.8001C32.7146 62.7865 18.1256 75.9463 26.7996 93.2487C27.2262 94.0997 29.1671 96.8302 29.1277 97.3873L28.9192 97.5301C28.1018 97.18 25.8756 92.903 25.4701 91.9776C23.1622 86.7118 22.8548 80.7841 25.071 75.4087C29.0002 65.8788 37.7943 60.0566 46.8126 56.1626ZM77.6277 78.5845C87.1929 77.6319 80.5711 84.5973 79.0407 84.153C78.4267 83.0971 80.2217 80.8553 79.3548 79.5245C76.607 78.617 71.7878 88.947 72.8189 91.7028C73.7092 94.0837 76.5483 92.8134 77.9587 92.3108C78.7474 91.9754 79.4318 91.7424 80.2426 91.4679C78.7122 93.3021 74.9281 95.2741 72.656 95.6569C63.2906 97.2365 67.8574 86.3527 70.771 82.5747C72.6768 80.1033 74.6778 78.9388 77.6277 78.5845ZM51.9478 78.4605C52.7862 78.3504 55.3169 78.2399 55.9989 78.7376C56.298 79.6621 51.8031 90.0507 51.4887 91.7588C51.3611 92.4517 51.3467 92.8898 51.9017 93.3771C52.3238 93.4707 52.6003 93.4609 53.0052 93.2635C58.3348 90.6649 60.0722 83.7235 62.0622 78.7679C63.8161 78.4675 65.5128 78.4839 67.2725 78.7004C66.9554 80.2395 64.9499 85.3152 64.3109 87.0254C63.6787 88.8076 62.2272 91.8513 62.381 93.8139C62.4249 94.3753 63.6054 94.5493 64.0947 94.6463C62.5822 95.058 57.8622 96.4252 56.6577 95.4171C56.3127 94.5283 57.0297 92.3442 57.2774 91.3605C55.6245 92.8146 54.2724 93.6577 52.2932 94.5152C50.6499 95.2271 48.489 96.1315 46.8993 95.3882C43.2265 93.6697 50.9217 83.1 49.7854 80.1603C49.6734 79.8709 49.347 79.5694 49.0235 79.4987C48.8174 79.4537 48.6662 79.3617 48.492 79.2123L48.5746 79.06C49.3857 78.5442 50.9356 78.5397 51.9478 78.4605ZM103.183 78.7109C104.538 78.653 106.59 79.0132 108.211 78.9699C109.938 78.9236 112.05 78.815 113.802 78.7727C113.992 78.768 113.996 78.8859 114.112 79.0897C114.223 81.2915 110.232 88.7513 109.658 91.4034C109.144 93.774 108.442 93.629 111.311 94.565C109.791 94.9438 104.35 96.4801 103.323 95.1352C103.15 94.5741 103.301 94.0169 103.388 93.4168C103.641 92.9166 103.967 92.4947 103.705 91.9725C103.254 92.0927 102.289 92.9123 101.789 93.2122C90.6343 99.8963 90.0139 91.1781 95.4417 83.5618C97.324 80.9216 99.6912 79.2006 103.183 78.7109ZM88.1901 81.6034C95.5955 80.9385 86.9779 90.0267 88.0389 93.3784C88.3022 94.2097 88.8263 94.1543 89.4806 94.6686L89.3685 94.8586C88.327 95.3096 86.4695 95.442 85.2846 95.5652C84.3435 95.5796 82.9603 95.6609 82.0909 95.3581C81.1967 94.0324 86.1423 85.8041 85.0657 83.6352C84.7763 83.0546 83.9537 82.8265 83.3619 82.5874C85.0825 82.2038 86.42 81.8089 88.1901 81.6034ZM108.048 81.6123C107.708 80.4837 107.544 79.555 106.076 79.6977C103 81.0203 101.439 83.4374 99.6104 86.1728C98.8648 87.2874 95.2606 94.305 99.3015 93.1815C103.576 90.6722 106.678 86.3609 108.048 81.6123ZM89.1613 76.7261C90.0998 76.669 92.3993 76.3306 92.6079 77.5821C92.8294 78.9154 91.2326 79.9613 90.1533 80.2065C87.2686 80.5695 85.561 80.7582 87.2933 77.3512C88.1198 76.9529 88.2475 76.8979 89.1613 76.7261ZM60.0275 61.7782C61.1586 61.6951 61.5967 61.6412 62.7927 61.9365C65.1112 62.5092 64.9378 64.0431 62.8066 64.6307C62.2875 64.7738 61.6334 63.3336 61.1562 63.0108C59.8673 62.1394 57.2999 63.6676 57.788 65.2963C58.1792 66.2096 59.6771 66.5661 60.5001 66.8722C62.7383 67.646 63.962 69.2707 62.7731 71.5904C60.9757 75.0973 56.8063 76.8249 53.1815 75.1887C49.8196 72.807 53.8932 68.8846 55.7302 70.1188C55.7638 70.2399 55.7976 70.3612 55.8312 70.4824C55.2141 71.1241 54.5717 72.435 54.393 73.0982C55.4574 77.9971 60.9721 72.3403 60.4046 70.7139C59.6627 68.5875 53.4799 68.8616 55.8189 64.5881C56.8022 62.7918 58.2545 62.2512 60.0275 61.7782ZM97.2249 66.5166C99.1985 66.6166 101.094 66.5685 103.069 66.5359C102.512 67.7446 100.281 72.5688 100.201 73.6347L100.611 74.0711L100.514 74.2454C99.7539 74.7531 98.0085 75.0695 97.2576 74.5179C97.1546 74.1112 97.2862 73.8793 97.4244 73.4776C97.5299 73.2871 97.4844 73.3746 97.4597 73.0926C97.242 73.0453 95.0336 74.3799 94.3363 74.565C90.1937 75.6644 91.7398 70.8662 93.2727 69.0428C94.4055 67.6957 95.2879 66.8003 97.2249 66.5166ZM90.1832 62.8089C91.011 62.7963 91.8988 62.8294 92.7304 62.8461C92.4971 63.4424 91.3955 66.028 91.4542 66.4948C92.1112 66.5896 92.4254 66.5145 92.9963 66.8831L92.9128 66.8526L92.7838 67.086C92.1386 67.15 91.9365 67.1448 91.2899 67.0876C90.599 67.9791 88.8146 72.5089 88.9905 73.5299C89.1926 73.8401 89.4533 73.8921 89.8092 74.0428L89.9735 74.1114L89.894 74.3257C89.0493 74.868 86.6951 74.7418 85.677 74.7006C86.0525 72.9241 87.661 69.142 88.4014 67.3914C88.0012 67.1998 87.7626 67.1199 87.442 66.8042C87.6779 66.4655 87.9164 66.6829 88.6242 66.5044C89.0296 65.8437 89.7061 63.785 90.1832 62.8089ZM79.8423 66.6336C81.1419 67.748 83.6383 65.1294 85.2782 66.5529C85.9768 67.8448 83.8377 70.8607 83.5639 72.2945C83.3358 73.4843 83.0777 73.359 83.8963 74.3814C82.452 74.6651 81.7402 74.7136 80.2764 74.6114C80.8082 72.8287 81.7742 70.5361 82.4755 68.7554C82.7062 68.2363 82.9761 67.6994 82.8236 67.147C82.6619 67.0256 82.6019 66.9123 82.4052 66.9719C79.0877 67.9741 78.673 71.887 77.0918 74.399C76.7763 74.8999 75.035 74.6882 74.5526 74.6586C75.2709 72.6428 76.5184 70.1416 77.1376 68.0458C77.1831 67.8937 76.9342 67.143 76.8691 66.9424L76.8078 66.7632L76.9316 66.5871C77.6029 66.2972 77.947 66.3175 78.6691 66.2629C79.0732 66.2566 79.1568 66.2877 79.5452 66.3659C79.643 66.4566 79.742 66.5459 79.8423 66.6336ZM69.1759 66.3736C70.7919 66.3007 73.1878 66.4484 75.0767 66.3909C74.494 68.178 72.5869 71.558 72.274 73.547C72.2505 73.7 72.6482 73.8567 72.845 73.9673L72.8554 74.0754C72.0916 74.659 70.7919 74.7346 69.8547 74.6428C69.4663 74.6048 69.3799 74.214 69.2378 73.909C69.4228 73.4479 69.5157 73.4527 69.4147 73.0687C68.9308 73.0727 67.2079 74.1609 66.4294 74.4278C62.6801 75.7135 63.4887 71.3617 64.9105 69.4523C66.0732 67.8906 67.1107 66.7846 69.1759 66.3736ZM99.4997 67.183C99.0813 66.9359 99.1098 66.9558 98.621 66.9693C97.3123 67.763 96.4129 68.5746 95.5721 69.8826C95.108 70.6053 93.8828 72.7241 94.2438 73.5273C94.5553 73.7458 94.9881 73.7185 95.3335 73.5982C96.6826 72.6134 100.716 69.0656 99.4997 67.183ZM70.9405 66.7093C69.0976 67.4586 66.05 71.0484 66.3336 73.09C66.6033 73.4435 66.6875 73.5305 67.1861 73.573C68.6378 72.5907 72.592 69.0865 71.6588 67.1376C71.3146 66.8453 71.3511 66.804 70.9405 66.7093ZM90.2993 55.3524C89.4442 55.4632 88.649 55.5085 87.8734 55.882C89.16 55.9129 90.1676 55.2347 91.8961 55.6933C90.2719 56.0901 88.2801 56.346 86.5751 56.723C81.7859 57.7821 77.6042 59.13 73.3156 61.5442C71.2026 61.4475 68.7828 61.3263 66.701 61.1114C72.1411 58.4605 84.3292 55.6217 90.2902 55.17L90.2993 55.3524ZM61.3659 57.0657C72.2623 54.3251 85.3785 53.1295 96.598 53.4126C96.8548 53.5696 97.3709 53.6402 97.4022 53.6722C96.8886 53.7167 95.3609 53.8491 94.9151 54.0012C86.5334 54.198 70.7175 56.6145 63.3545 60.5405C60.889 59.9357 58.7095 59.2683 56.2923 58.6275C57.4384 58.0689 60.0645 57.393 61.3659 57.0657ZM71.9781 32.2063C80.3807 31.5726 92.8176 33.8038 99.5608 39.0813C104.562 42.9955 105.471 47.7883 101.338 52.9096C92.2741 52.1773 81.7454 52.6804 72.7133 53.6726C65.6392 54.6059 60.66 55.5419 53.8062 57.4751C51.7546 56.3646 50.1784 55.486 48.4175 53.9683C42.2597 48.6713 43.8514 41.9748 50.3924 37.9125C57.2467 33.6556 64.1567 32.6183 71.9781 32.2063ZM75.5185 39.3319C75.1823 39.1086 75.3621 39.1972 74.8941 39.1828C74.4196 39.4271 73.9647 39.6803 73.4642 39.8635C73.1892 41.4277 72.944 42.8304 72.6247 44.5535C72.4617 45.4337 71.9939 47.93 71.7957 48.9715C71.7123 49.0454 71.6275 49.1195 71.5441 49.1934C71.0135 49.3135 71.0369 49.3186 70.5025 49.2451C69.8312 48.0775 72.6115 39.7295 71.5597 39.4457C71.0435 39.3069 70.2588 39.7033 69.7673 39.8927C69.295 41.7583 69.0856 43.7137 68.7161 45.6021C68.5374 46.5158 68.3095 49.6481 66.9482 49.3053C66.0368 48.054 67.8922 45.2088 67.2965 44.0381C66.5968 43.6027 64.9383 43.8014 64.1099 43.9756C62.8175 44.2475 62.126 44.8269 61.4295 45.8522C60.6303 47.0286 60.8205 48.8903 60.4186 49.5661C59.9744 49.6845 59.9424 49.7209 59.4743 49.671C59.2511 48.2677 60.392 46.5185 59.6426 45.7023C58.9317 45.441 57.0136 45.2347 56.5293 45.9463C56.6558 46.6535 57.3725 46.4951 57.3706 47.3455C57.3672 48.7449 56.2071 52.0163 54.3996 50.1167C52.332 47.9438 53.9781 42.7707 55.9439 40.951C58.6304 38.4711 58.7817 41.9951 59.6858 42.967L59.8729 42.9379C60.2592 42.2848 60.3198 41.0734 60.3735 40.3059C59.3362 39.7733 58.9148 39.6768 57.7567 39.488C52.1328 38.5716 47.3541 48.7629 52.7044 51.607C54.6909 52.6628 58.7978 50.8231 60.7401 50.0565C61.882 51.152 62.7181 51.0913 63.7984 49.8902C64.0904 49.6075 64.1524 49.4331 64.4589 49.4153C64.5279 49.9198 64.5501 50.0413 64.7077 50.5217C65.757 51.2873 66.6352 50.0669 67.8061 49.9605C68.1687 50.3196 68.4353 50.7609 68.9541 50.826C69.7778 50.9293 70.9536 49.6372 71.6575 50.1538L71.7383 50.5742C72.1737 50.8529 74.3545 50.7694 74.8824 50.6506C76.3033 50.331 77.1219 49.2177 78.677 49.0793C79.3391 49.9332 79.1841 50.5918 80.2321 50.9422C81.3023 50.9107 81.9671 50.0054 82.5289 49.1766L82.6332 49.0255C82.6527 48.995 82.6736 48.9645 82.6932 48.934C82.7584 49.6527 82.7245 50.1297 83.1821 50.6818C84.0632 51.0592 84.8649 49.9247 86.2818 49.9988L86.3991 50.119L86.2804 50.5509C86.6819 50.8304 87.8277 50.7482 88.3765 50.7419C88.516 49.6087 89.0818 45.8897 90.5118 45.822L90.6982 45.9526C90.8324 47.2725 89.4703 49.4807 90.4674 50.5796C91.243 50.8448 91.698 50.6063 92.411 50.2841L93.5386 49.7864C93.7811 50.2902 93.8449 50.5773 94.3025 50.8403C94.8018 50.9287 97.2967 49.8774 97.7373 49.5473L97.7268 49.305C97.092 48.7864 96.74 49.5214 95.9852 49.248C95.3374 47.3549 97.4738 44.5243 96.0441 43.7803C95.4848 43.7808 95.1353 43.9703 94.6152 44.1771C94.3258 45.5879 94.3337 49.5087 92.5818 49.4333C91.8414 48.4241 93.274 45.5105 92.7643 43.926C91.6602 42.7413 89.7022 45.0133 89.0074 45.803C89.1717 45.2143 89.3921 44.6704 89.3008 44.0848C88.8642 43.5661 88.6229 43.7654 88.0311 43.9525L87.3612 44.1587C87.1031 45.6289 86.828 47.1792 86.6337 48.6639C86.6794 49.1902 85.0214 49.6314 84.9809 49.119C84.715 45.656 87.7339 42.6051 81.9254 44.1197C79.321 44.7989 79.171 47.9075 78.5466 48.3613L78.1218 48.3909L78.0043 48.245C78.2585 46.8627 78.7618 45.0908 78.1166 43.7831C77.0229 43.0183 75.4859 44.5296 74.6569 45.2465C74.9163 44.0362 75.834 40.306 75.5185 39.3319ZM75.5238 45.3178C77.3331 46.0474 75.9734 49.0728 74.7429 49.8996L74.1316 49.8816C73.33 48.9594 74.8655 46.2034 75.5238 45.3178ZM64.2358 44.7226C64.6763 44.7009 64.7057 44.6757 65.1393 44.8105L65.2182 45.0703C64.9877 46.0733 64.1666 48.2314 63.4798 48.9713C63.0465 48.9976 63.2615 49.0382 62.8403 48.7421C62.2767 47.5628 63.1035 45.4513 64.2358 44.7226ZM82.3465 44.7141C82.7845 44.7238 83.1585 44.6629 83.4765 44.9269C83.3175 45.7609 82.3948 48.1202 81.8968 48.8537C81.451 49.0185 81.4627 49.0294 81.1264 48.787C80.5828 47.5372 81.2294 45.5406 82.3465 44.7141ZM95.5721 40.8469C94.5749 41.739 94.2321 42.9685 95.9228 43.2406C96.5419 42.6672 96.9147 42.0614 96.508 41.2192C96.1587 40.9305 96.1404 40.8641 95.5721 40.8469ZM85.2272 34.8264C84.5442 34.5536 83.985 34.5461 83.504 35.1695C83.5718 35.6503 84.1948 36.0661 84.6471 36.5233L84.5292 36.5136C83.9785 36.4631 83.9916 36.3897 83.5053 36.6288L83.3775 36.9084C83.7112 37.4719 84.5494 37.6405 85.1282 37.4026C85.2937 36.9406 85.2155 36.8327 84.8648 36.4637C85.3706 35.9255 85.7825 35.5001 85.2272 34.8264ZM66.4624 36.6961C67.7691 34.4326 65.112 34.4369 63.7158 34.4548C64.1423 35.9536 64.2017 38.6077 66.4624 36.6961ZM81.434 34.1926C80.2296 35.3703 81.3792 35.1209 80.6935 36.4135C80.8969 36.7917 81.4118 36.8656 81.9123 37.1338C82.3151 36.7999 82.5093 36.7612 82.6462 36.3448L82.6111 36.1952C82.4351 35.4173 82.4742 35.4499 82.688 34.6918C82.4051 34.2646 81.9163 34.2552 81.434 34.1926ZM86.0836 36.4438C86.3991 36.9354 86.8097 36.845 87.3729 36.8738L87.3845 36.5425C87.0417 36.1838 86.682 36.1532 86.1932 36.0247L86.0836 36.4438ZM68.351 33.9786C67.9711 34.3961 68.0892 34.2417 67.9685 34.8689C67.6623 35.4989 67.267 36.1482 67.565 36.8486L67.8606 36.7912C68.5142 35.6307 67.9239 35.5879 68.1805 34.8408L68.2519 34.9439C68.6008 35.4672 68.8383 36.0922 69.2515 36.5645C69.4339 36.773 69.693 36.684 70.0736 36.6788L70.1831 36.546C69.9876 35.792 69.2751 33.927 68.351 33.9786ZM71.0787 33.8313C70.7607 34.5682 70.7346 36.3938 71.6405 36.7832L72.0094 36.5279C72.0772 35.8109 71.9782 34.5955 71.9351 33.847C71.6862 33.659 71.81 33.7141 71.5792 33.6468L71.0787 33.8313ZM64.8006 34.7767C65.2226 34.8382 65.2589 34.8083 65.5891 35.0909C65.8825 35.5902 65.799 36.1314 65.7944 36.7379C65.4173 36.7433 65.5496 36.7778 65.2143 36.6059C64.8878 36.0759 64.8782 35.4173 64.8006 34.7767ZM76.2824 33.7527C75.9461 34.3413 76.023 35.5256 75.9604 36.3976C76.1625 36.7141 76.0413 36.5706 76.5288 36.7225L77.1963 36.5262C77.2171 35.8761 77.3083 34.2868 76.8638 33.808L76.2824 33.7527ZM62.0558 36.217L62.1425 36.4464C62.5866 36.5492 62.6611 36.5212 63.1087 36.4944L63.2838 36.1101L63.189 35.8819C62.7661 35.765 62.7255 35.7761 62.3023 35.7621L62.0558 36.217ZM78.3277 34.2492C78.0767 34.6317 78.0493 34.7086 78.2202 35.0665L78.3056 35.2387L78.4327 35.2901C79.0261 35.5348 79.0101 35.6185 79.4513 36.3201L79.7499 36.4668C80.0953 35.8971 79.961 35.7444 79.7433 35.1487C79.1671 34.9907 78.8999 34.837 78.6822 34.242L78.3277 34.2492Z" fill="white"/>
</svg>
