<svg width="148" height="148" viewBox="0 0 148 148" fill="none" xmlns="http://www.w3.org/2000/svg">
<path d="M24 35C24.0332 35.016 24.0666 35.0316 24.1001 35.047C25.169 35.537 27.2657 36.2261 28.4116 36.6116C32.3795 37.946 36.4081 39.0924 40.4839 40.0471C68.1197 46.592 97.0709 44.8417 123.718 35.015L123.789 35.0319C123.774 35.3557 123.397 36.71 123.298 37.1222C122.988 38.454 122.692 39.7889 122.409 41.1268C121.608 45.0377 120.955 48.9776 120.453 52.938C117.823 73.0028 119.026 93.3847 124 113C121.866 112.315 119.71 111.5 117.541 110.8C114.017 109.673 110.451 108.684 106.85 107.835C79.4309 101.38 50.7208 103.109 24.2735 112.809C24.1533 112.857 24.1618 112.856 24.0323 112.854C24.0252 112.792 25.6816 105.349 25.8073 104.725C26.2865 102.395 26.6915 100.051 27.0218 97.6965C27.5459 93.7316 28.0563 90.0456 28.3522 86.0528C29.3098 73.0703 28.7182 60.0201 26.5899 47.1778C25.9401 43.2811 25.0495 38.8173 24 35ZM47.0098 75.2816C45.9806 74.9168 44.2274 74.6058 43.1411 74.7348C40.7392 74.9132 38.84 75.6471 37.2718 77.4952C34.0422 81.301 34.3246 87.7159 38.2375 90.962C40.045 92.4612 42.3742 92.9361 44.6909 92.747C46.7807 92.5483 48.4241 91.8784 49.7908 90.2169C50.5459 89.3161 51.0548 88.2353 51.2677 87.0788L48.8354 85.9867C48.3576 85.7713 47.4923 85.355 47.0255 85.2153C46.794 86.3343 46.4433 87.1867 45.4454 87.8491C44.7648 88.3019 43.9323 88.4663 43.1307 88.3057C39.8069 87.6181 39.5385 81.0931 42.2268 79.5384C43.9374 78.5491 46.2011 79.2645 46.7265 81.1452C46.8261 81.5019 46.9601 82.2888 47.2107 82.4736C47.5485 82.45 50.7437 79.4867 51.2334 79.0489C50.3802 77.2436 48.8868 75.9469 47.0098 75.2816ZM104.981 74.663C104.408 74.6248 103.689 74.5471 103.132 74.6275C96.0248 75.2394 93.5675 81.8242 95.8267 87.9232L90.1538 87.9237L90.1532 75.4592C89.323 75.4583 83.9299 75.3725 83.6104 75.5874C83.6227 75.9402 84.0668 76.1578 84.273 76.4107C84.8535 77.1218 85.0409 78.1595 85.0463 79.0531L85.006 91.3917L85.0055 92.3801L96.2976 92.3807L96.2987 88.8025C96.7627 89.409 97.1568 89.8995 97.6976 90.4329C100.66 93.3551 106.33 93.4437 109.484 90.9405C115.565 86.114 113.139 75.2066 104.981 74.663ZM73.2032 75.5016C71.3053 75.5346 69.2105 75.4343 67.3399 75.5181C67.2691 75.7421 67.266 75.6533 67.32 75.8719C67.5117 76.0886 67.6143 76.0969 67.8238 76.2571C68.1263 76.4882 68.3635 76.9387 68.4739 77.3059C68.7975 78.382 68.7127 79.7491 68.7127 80.8855L68.7103 92.3807H73.9336L73.9529 88.6103C73.9567 87.9463 73.9379 87.0771 73.9862 86.4266C74.586 86.4347 74.8776 86.4401 75.3373 86.9224C75.7288 87.3334 76.11 88.1322 76.3361 88.6629C77.3607 91.0684 78.3606 92.27 81.0988 92.3742C81.3109 92.3812 81.5236 92.3855 81.7357 92.3866C82.4327 92.3828 83.1786 92.3656 83.8714 92.3828C83.8724 91.7108 83.9729 87.7647 83.7425 87.4892L83.5701 87.4317C83.1405 87.6976 82.909 87.8904 82.4295 88.0285C80.9984 87.1185 81.1922 85.854 79.5871 85.1783C80.7573 84.763 81.8576 84.2022 82.342 83.0189C83.8284 79.3859 81.9585 75.8378 77.9176 75.5536C76.2824 75.4386 74.8298 75.5247 73.2032 75.5016ZM57.2786 75.501C56.2128 75.5011 54.9821 75.4718 53.9268 75.5126C53.8904 75.6871 53.8435 75.7566 53.9821 75.91C55.4236 77.505 54.2028 79.8363 53.7275 81.6754C52.768 85.254 51.7713 88.8225 50.7378 92.3801L55.7961 92.3807C56.1304 91.3031 56.4096 90.2519 56.7063 89.1641C58.4676 89.1963 60.229 89.2156 61.9906 89.2226C62.1643 89.8119 62.3272 90.4039 62.479 90.9985L62.8681 92.3807C64.6716 92.3748 66.4917 92.335 68.2913 92.3431L64.9866 80.9077C64.4748 79.1397 63.899 77.2715 63.4238 75.5017L57.2786 75.501ZM103.504 79.0767C105.725 78.8985 106.906 80.2695 107.301 82.3291C107.757 84.7012 107.104 87.7137 104.396 88.2455C103.618 88.3041 102.852 88.2611 102.193 87.782C99.4745 85.8046 99.7602 79.731 103.504 79.0767ZM59.2311 79.4209C59.4255 79.6166 60.6579 84.5368 60.8209 85.1498L59.3561 85.1509L57.74 85.1503C58.2321 83.2192 58.6969 81.3509 59.2311 79.4209ZM74.6376 79.5233C75.986 79.4541 78.0153 79.5955 77.5557 81.7425C77.4724 82.1325 77.0954 82.5021 76.7394 82.6831C75.7712 83.0365 74.9952 82.9125 73.9787 82.8711L73.9771 79.5485L74.6376 79.5233ZM63.6623 56.9252C61.6545 55.1825 58.8306 54.4043 56.2003 54.5778C56.146 54.5813 56.0919 54.5857 56.0378 54.591C52.4163 54.9399 49.1445 56.9727 49.6202 61.0043C49.7738 62.3062 50.3807 63.44 51.4176 64.2628C53.4241 65.8144 56.0563 65.4705 58.3453 66.1085C59.007 66.2929 59.354 67.249 58.8323 67.7823C57.6667 68.9739 55.3646 68.6709 54.2409 67.5566C53.7708 67.0923 53.5427 66.7475 53.2595 66.1791C51.7734 66.8866 50.3759 67.7047 48.9516 68.3879C50.1722 71.4291 53.4941 72.5029 56.5081 72.6241C58.8611 72.6356 61.2435 72.1614 62.9949 70.4694C64.9294 68.6004 65.1655 64.9799 63.1874 63.059C62.3749 62.2699 61.3113 61.8385 60.2249 61.5794C59.6083 61.4371 58.984 61.3301 58.3553 61.2589C57.4386 61.1504 54.8543 61.0934 54.9544 59.8864C55.092 58.2265 58.4241 58.2598 59.2577 59.4157C59.599 59.8889 59.5909 60.5114 59.9585 60.6685C60.0081 60.6566 60.0576 60.6448 60.1071 60.6329C61.1656 59.6076 62.7003 57.9447 63.6623 56.9252ZM76.791 55.2223C73.7327 55.2225 70.3803 55.1502 67.3488 55.2269C67.298 55.3327 67.2229 55.4257 67.2778 55.5195C67.6305 56.1216 67.9798 56.2471 68.0237 57.0105C68.1151 58.5952 67.4311 60.0565 67.0356 61.5387C66.3958 63.9307 65.7369 66.3174 65.0588 68.6989C64.7596 69.771 64.3719 71.0309 64.1155 72.1009L69.1694 72.1006C69.4922 71.0444 69.784 69.979 70.0441 68.9056C71.8117 68.9135 73.5792 68.9332 75.3464 68.9646C75.5102 69.3581 75.7444 70.3177 75.8636 70.7642L76.2352 72.1027L81.667 72.0783C80.0517 66.5075 78.337 60.8051 76.791 55.2223ZM81.1283 55.1849C80.9071 55.1911 80.8974 55.1884 80.7079 55.2925C80.528 55.6874 81.3496 56.0368 81.5225 56.34C82.4279 57.924 82.1057 60.7029 82.1057 62.509L82.1068 72.0789L87.0359 72.0785L87.0375 63.7838C89.032 66.475 91.021 69.3432 92.9709 72.0791L97.7588 72.0786L97.7813 55.2125L92.9327 55.2229L92.8968 62.9411C92.37 62.3009 91.8861 61.5244 91.3835 60.8558C90.026 59.0502 88.7017 56.9632 87.3361 55.187L81.1283 55.1849ZM72.6079 59.1186C72.9122 59.6139 73.9368 63.9947 74.1913 64.8821L71.1096 64.8825C71.5591 62.9485 72.0587 61.0266 72.6079 59.1186Z" fill="white"/>
</svg>
