<svg width="148" height="148" viewBox="0 0 148 148" fill="none" xmlns="http://www.w3.org/2000/svg">
<path d="M58.5292 37.0046C58.7042 36.9842 60.0891 37.037 60.3619 37.0508C65.1827 37.2946 69.4109 38.5114 73.6835 40.7031C81.4301 44.6031 87.2534 51.4465 89.8256 59.6729C91.2186 64.0323 92.0968 69.7824 90.372 74.2575C90.1085 74.9407 89.2799 75.6375 88.5546 75.8661C87.7495 76.1197 87.4753 75.346 87.3788 74.6902C87.6014 70.7548 88.3602 66.9475 87.543 62.9989C85.9456 55.3662 82.6454 48.1791 75.8877 43.7487C71.7282 41.0216 67.6574 40.0718 62.7518 39.6454C57.6297 39.2002 52.9802 39.9974 48.1746 41.7042C41.4092 44.0578 35.3747 48.1093 30.6596 53.4635C29.4168 54.8318 28.2743 56.2863 27.2409 57.8162C25.2739 60.7891 23.5247 63.7111 22.2405 67.042C20.1736 72.4027 19.2963 78.2838 20.4806 83.9399C21.7061 89.6428 24.8346 94.2594 29.5692 97.6374C31.1953 98.7976 32.8688 100.089 34.7114 100.906C38.1158 102.386 41.9693 103.297 45.6958 103.403C48.8283 103.491 52.101 102.574 55.1812 102.1C56.484 101.899 58.1806 101.19 59.4026 102.053C59.7238 102.28 59.9561 102.795 59.992 103.182C60.0421 105.052 58.1993 105.357 56.7811 105.77C54.0927 106.669 51.2614 107.287 48.4224 107.431C34.3736 108.145 16.2774 99.8169 15.0913 84.2532C14.8036 80.4771 15.214 76.9281 16.0673 73.2282C17.9151 64.9282 21.9088 57.2473 27.6562 50.9396C34.2568 43.7208 42.3627 39.1237 52.1112 37.5796C54.4308 37.2122 56.2041 37.1143 58.5292 37.0046Z" fill="white"/>
<path d="M111.837 71.5947C112.077 71.6144 112.303 71.6893 112.519 71.7899C113.119 72.0689 113.92 72.7341 114.135 73.3644C114.19 73.5261 114.215 73.7014 114.141 73.8615C113.967 74.2372 113.589 74.5612 113.373 74.929C112.847 75.8209 112.407 76.7833 111.935 77.7055C112.663 77.6859 116.264 77.4425 116.664 77.6412C116.753 77.6852 116.753 77.7467 116.784 77.8344C116.724 78.1187 116.537 78.4031 116.36 78.6306C114.994 80.3883 112.181 78.9373 111.286 79.6601C110.849 80.0129 110.579 81.0688 110.36 81.596C108.94 85.0097 107.136 89.4846 106.583 93.0791C108.439 91.6222 109.941 89.7682 110.974 87.6556C112.212 85.1537 112.674 83.3268 114.77 81.2416C115.674 80.3415 116.887 79.4195 118.231 79.4334C119.795 79.4496 120.799 80.5851 121.8 81.6057C122.289 80.8274 122.638 79.251 124.007 80.0836C124.595 80.4409 125.188 81.0408 125.368 81.7195C125.147 82.5341 124.574 83.3253 124.156 84.0796C123.727 84.8636 123.321 85.6597 122.939 86.4668C122.073 88.3094 121.243 91.1466 120.701 93.0979C122.571 92.2455 124.824 88.7747 125.802 87.0004C126.061 86.5302 126.836 84.641 127.243 84.528L127.38 84.6384C128.072 86.0578 126.223 89.121 125.501 90.4299C124.547 92.1563 121.794 96.5342 119.349 96.0596C116.201 95.4485 117.328 92.8414 117.645 90.8481C116.661 92.238 115.544 93.6646 114.404 94.9316C113.469 95.9707 112.149 96.2684 111.098 95.1959C110.157 94.2359 110.197 93.0718 110.209 91.8407C109.434 92.7087 107.571 95.1726 106.74 95.6431C106.154 95.9774 105.7 96.1405 105.005 96.0652C104.326 95.9913 103.705 95.6543 103.276 95.1276C102.624 94.3135 102.733 93.5028 102.841 92.5643C102.115 93.6948 101.006 94.7835 99.9172 95.5959C98.6415 96.548 97.0829 96.0426 96.2396 94.7881C95.6262 93.8742 96.0244 93.011 96.2557 92.0173C94.3217 94.0776 93.2411 95.8077 90.1507 96.208C87.7254 96.5222 85.0171 94.8778 84.9414 92.335C84.8368 88.8096 86.2633 85.3033 88.3227 82.493C89.9677 79.8784 93.2102 78.2985 95.8917 80.4431C99.4747 83.3087 94.5523 89.5266 91.1462 90.1639C90.3183 90.3189 89.5695 90.377 88.8094 90.4321C88.5419 91.5351 88.08 93.3139 89.4261 93.9016C89.9154 94.1154 90.8787 94.0183 91.348 93.7648C94.4672 92.0821 96.4957 88.6534 98.01 85.5803C98.9023 83.6438 99.6175 81.3762 100.405 79.4331C99.8408 79.5162 96.4373 79.781 96.186 79.4532C96.0177 76.3656 100.576 78.1117 101.151 77.3294C102.047 76.1121 102.758 72.6511 104.388 71.7329C105.256 71.2434 106.849 72.8354 107.194 73.5426C107.252 74.0284 106.392 74.6444 106.135 75.1078C105.7 75.8889 105.386 76.7792 104.915 77.5302L104.946 77.6355C105.172 77.6821 108.024 77.6761 108.163 77.6007C108.891 77.2034 110.288 72.9541 111.246 71.9569C111.409 71.7865 111.625 71.6915 111.837 71.5947ZM101.462 91.5513C104.023 88.9962 105.102 85.4359 106.367 82.1488C106.713 81.2516 107.043 80.3167 107.49 79.4639C106.439 79.5559 105.363 79.5091 104.308 79.5114C103.785 80.4307 103.046 83.0895 102.663 84.2246L101.012 89.1034C100.567 90.4031 100.04 91.6882 99.8307 93.0487C100.423 92.5904 100.976 92.1218 101.462 91.5513ZM113.786 92.1623C114.292 91.8927 114.627 91.6047 114.987 91.1617C115.626 90.5121 116.165 89.7673 116.754 89.0735C118.022 87.5789 120.648 84.9303 120.93 83.0537C120.267 82.6558 119.759 82.5233 118.994 82.5776C117.13 83.3572 115.492 86.9398 114.751 88.7542C114.302 89.8541 113.85 90.9672 113.786 92.1623ZM89.5762 88.8877C91.2769 88.3604 92.5707 86.9135 93.3805 85.3907C93.764 84.6694 94.2151 83.4685 94.1917 82.656L94.1172 82.5477L93.9644 82.5568C92.5365 82.9624 91.5062 84.401 90.8211 85.6275C90.5402 86.1299 89.3879 88.4261 89.4254 88.8725C89.4938 88.8943 89.5059 88.9113 89.5762 88.8877Z" fill="white"/>
<path d="M62.3637 85.4047C63.1517 85.156 64.3804 85.2709 64.8011 84.4662C65.3113 83.4903 65.5526 82.2363 65.9892 81.1942C66.9931 78.7973 70.2829 72.6034 72.8597 71.7449C73.3972 71.5658 73.8856 71.641 74.385 71.8902C74.9914 72.193 75.5051 72.5836 75.7251 73.2461C76.3077 75.0002 74.6966 78.4253 73.8656 80.0084C72.5832 82.4515 71.1871 84.7833 69.489 86.9655C69.1036 87.4606 68.6754 87.9456 68.2334 88.3923C67.71 88.921 66.9712 89.4233 66.647 90.102C66.0921 91.2636 66.145 92.8817 65.971 94.1546C70.0025 93.0082 74.2878 86.1967 74.4339 82.156C74.5002 80.3211 74.2814 78.8439 77.134 80.0403C79.1763 80.8968 77.7236 84.7454 77.3551 86.4012C78.206 85.0657 79.1008 83.7878 80.0992 82.5128C81.0379 81.314 82.636 78.8926 84.4715 79.9682C85.2987 80.4527 85.6178 81.2861 85.8115 82.1665C86.3022 85.2979 84.8107 89.2546 83.2072 91.9013C82.1802 93.5969 80.4913 95.6169 78.4996 96.0807C76.7796 96.4812 75.2599 94.9066 74.1013 93.8169C73.2335 96.6257 71.9688 99.3481 71.8297 102.297C71.813 102.651 71.8821 104.046 71.5124 104.11C66.0461 105.064 68.5688 98.6331 69.3089 96.6629C69.604 95.8974 69.9067 95.1348 70.217 94.3753C70.4275 94.0031 70.508 93.7763 70.6548 93.382C70.3838 93.6795 70.0847 93.9828 69.805 94.2751C68.6028 95.5781 67.0725 96.6679 65.2986 95.6623C62.236 93.926 63.3255 89.9989 63.988 87.3731C61.8187 87.432 61.8508 86.8422 61.145 89.0605C60.8181 89.7955 60.4699 90.6941 60.0558 91.3772C58.6077 93.7587 55.8445 97.7727 52.5602 95.8262C51.0922 94.9562 50.9046 93.6904 50.8355 92.1656C50.7086 89.3688 51.3063 86.7651 52.792 84.3773C52.8679 84.3069 53.2488 83.7568 53.3285 83.6388C53.8908 82.8072 54.5702 82.1678 55.2414 81.4366C56.3925 80.3962 57.3759 79.3787 59.0656 79.5265C61.383 79.7291 62.7209 80.8078 62.5609 83.1896C62.5074 83.929 62.4417 84.6675 62.3637 85.4047ZM59.8423 86.592C59.4914 86.0614 58.6449 84.6565 58.1813 84.3402C56.4111 86.429 54.9816 88.5235 54.3385 91.2164C54.1464 92.0205 54.0033 92.8959 54.0748 93.7248C54.0915 93.917 54.1039 94.0186 54.2346 94.1615C54.5748 94.1411 54.8964 93.8162 55.1632 93.6111C57.2598 91.7214 58.7819 89.1779 59.8423 86.592ZM74.9993 92.0908C75.2389 92.3253 75.4723 92.5735 75.7511 92.7626C76.2454 92.9876 76.7284 93.1264 77.2596 92.9292C78.7168 92.3883 80.4147 89.0749 81.0134 87.7228C81.4671 86.6979 82.2915 84.6468 82.2908 83.5531L82.2137 83.4779L82.1554 83.4793C81.7618 83.7327 81.428 84.0031 81.108 84.3446C79.9474 85.5829 78.966 87.0218 77.9098 88.3481C76.9539 89.5486 75.7655 90.7651 74.9993 92.0908ZM67.3703 87.0576C69.5252 84.5773 72.8614 78.7899 73.617 75.5766C73.5546 75.5189 73.5625 75.5117 73.472 75.4981C70.602 77.9492 69.2096 81.3781 67.9871 84.8317C67.8177 85.3104 67.3015 86.4539 67.2729 86.9047C67.271 86.9347 67.2782 86.9832 67.2813 87.0101L67.3703 87.0576Z" fill="white"/>
<path d="M41.3256 87.2963C41.9502 87.0109 42.7243 86.8227 43.3891 86.5553C46.0927 85.468 49.0988 83.4417 51.2262 81.498C53.445 79.4707 57.0566 74.0274 53.1658 71.8464C50.3035 70.2419 46.4678 70.7312 43.3685 71.4983C39.2792 72.6509 34.2377 74.6771 31.8639 78.4001C31.0574 79.6427 30.769 81.7836 32.0587 82.8486C32.498 83.2113 33.5839 83.2788 34.0468 83.6201C33.5132 84.4674 31.6287 84.1251 30.9105 83.7405C27.6193 81.9775 27.6352 78.0613 29.2142 75.1986C34.5043 65.5868 61.7092 61.0387 56.1098 78.8356C55.8712 79.5943 55.1849 80.6653 54.7951 81.4005C54.2255 82.0712 53.7538 82.8185 53.1395 83.4626C53.0198 83.5882 52.4624 84.1775 52.4001 84.2945C51.8309 84.7832 51.3018 85.3492 50.7214 85.8322C48.0599 88.0549 44.9517 89.7933 41.5621 90.6353C40.8204 90.8195 40.0658 90.9352 39.5172 91.4797C39.1914 92.6353 39.0421 93.7171 38.8128 94.8839C38.7405 95.1815 38.5586 95.7617 38.2445 95.8894C37.232 96.301 35.7568 95.1659 35.3657 94.3183C34.8569 93.2156 35.5349 91.6104 35.8971 90.5598C34.7789 89.6295 33.8093 88.5384 34.4917 87.009C34.5912 86.786 34.6623 86.6494 34.9046 86.5518C35.8523 86.4794 36.7415 88.5829 37.5091 86.9171C39.7103 82.14 42.6501 77.7399 45.1561 73.1217C45.259 72.9322 45.4655 72.6716 45.6728 72.5916C46.4856 72.6588 47.8987 74.9359 47.4916 75.9038C46.8271 77.4837 45.9813 79.0031 45.1435 80.5035C43.8772 82.7715 42.5827 85.023 41.3256 87.2963Z" fill="white"/>
<path d="M69.2063 53.5257C69.2974 53.5212 69.2958 53.5209 69.3829 53.5293C69.7336 53.563 70.3767 53.8056 70.5643 54.1112C71.6788 55.9253 68.7691 60.2922 67.7082 61.7733C67.0402 62.7059 65.8024 63.8686 65.2595 64.7785C65.0968 65.0512 64.8772 66.8943 64.8293 67.2435C68.7361 65.7235 68.3559 62.1975 70.7761 59.4745C72.3566 57.6961 73.6648 58.0109 75.2532 59.5055C75.5442 58.8796 75.5991 58.7763 76.186 58.4496C76.8852 58.7865 77.0762 58.8976 77.3841 59.6008C77.1499 60.484 76.5289 61.3228 76.12 62.1837C75.415 63.6682 74.9867 64.9772 74.5809 66.5484C75.398 65.9542 75.8648 65.5145 76.474 64.7201C77.1577 63.9554 78.1454 61.7035 78.6039 61.4202L78.6792 61.4593C78.8197 62.9401 76.5879 66.6163 75.456 67.6399C74.617 68.3986 73.5293 68.8119 72.6842 67.8379C72.1837 67.261 72.4976 66.065 72.5919 65.3769C72.5162 65.4854 72.4393 65.5928 72.3611 65.6993C71.8166 66.4394 70.6774 68.1242 69.7396 68.2358C68.5308 68.3797 68.2554 67.0879 68.1291 66.1717C67.322 67.3368 66.5783 67.9916 65.2021 68.3867C64.9403 68.3155 64.6713 68.2315 64.4218 68.1247C63.9312 67.9146 63.5231 67.5027 63.3311 67.0074C62.6341 65.2093 64.3605 60.332 65.1642 58.5429C65.9608 56.7693 67.298 54.2511 69.2063 53.5257ZM71.0634 65.3759C72.0108 64.1175 74.0541 61.6672 74.7681 60.4791C74.2596 60.2789 73.9839 60.1285 73.434 60.1621C72.3206 60.8427 70.4197 64.4653 70.4653 65.6915L70.5465 65.8023C70.7981 65.7423 70.905 65.5882 71.0634 65.3759ZM65.9566 62.4398C67.4899 60.4075 68.4679 58.6898 69.2854 56.3028C69.236 56.17 69.2799 56.2061 69.1824 56.1561C67.6675 57.6717 66.8728 59.2105 66.2082 61.2375C66.1143 61.5241 65.8833 62.1682 65.879 62.4212L65.9566 62.4398Z" fill="white"/>
<path d="M56.6521 48.7404C57.1347 48.7716 57.4833 48.9718 57.8755 49.2252C58.1479 50.0102 57.9687 50.2862 57.6957 51.0771C58.8966 50.6695 60.4278 49.8917 61.3125 51.2367C61.5817 51.6459 61.4226 52.0708 61.1827 52.4452C59.9933 54.302 59.2241 56.3471 58.7229 58.4831C60.3517 57.4825 61.233 55.8677 62.0902 54.2336C62.2285 53.9699 62.3842 53.5643 62.6208 53.392L62.7335 53.4218C63.1311 54.9174 60.2637 59.8307 58.5324 60.2522C57.8322 60.4227 57.5708 60.3476 56.962 60.0443C56.5189 59.4383 56.389 58.9966 56.5516 58.2398C57.0127 56.0938 58.0875 54.0672 59.0284 52.0881C58.6878 52.1409 57.4357 52.1523 57.3039 52.3897C56.4787 53.8759 55.8149 55.5619 55.0217 57.0673C53.9641 59.3557 51.1383 61.7714 48.4803 59.7546C47.953 59.2896 47.6556 58.4396 47.6734 57.7516C47.7418 55.1163 49.566 50.4924 52.6351 50.2763C53.4906 50.216 54.3558 50.8084 54.9472 51.4062C55.5457 53.7935 53.8548 55.8549 51.7336 56.7279C51.1492 56.9685 50.3164 56.5768 49.9274 57.4545C49.7845 57.7854 49.7837 58.1596 49.9249 58.4911C50.1837 59.0992 50.9713 59.3464 51.5253 59.009C53.5645 57.7669 54.9362 55.3997 55.8182 53.2557C56.3131 52.206 55.8721 52.0852 55.4881 51.2179C54.9543 50.0118 55.5422 49.1775 56.6521 48.7404ZM50.6412 55.9544C51.326 55.6965 51.7697 55.3097 52.232 54.7559C52.6463 54.2597 53.3825 52.9745 53.2447 52.3333C53.1499 52.2693 53.181 52.2722 53.0776 52.2532C51.7852 52.8313 50.7633 54.5241 50.5078 55.8762L50.5946 55.9571L50.6412 55.9544Z" fill="white"/>
<path d="M42.619 54.2673C43.3476 53.1583 44.7077 50.8008 46.0295 50.4C46.8498 50.1512 47.4386 51.2668 47.5435 51.9814C47.8552 54.1057 46.9522 56.5219 45.7707 58.2639C44.9634 59.4542 44.0367 60.226 42.6017 60.494C42.1264 60.3227 41.8007 60.1468 41.3868 59.8681C40.9639 59.5512 40.819 59.3943 40.4887 59.0061C40.274 59.8817 39.8415 60.8616 39.5775 61.8606C39.2655 62.8143 39.4 64.3814 38.8817 65.216C38.49 65.8466 37.2578 65.0689 36.9181 64.7144C36.3008 62.4155 39.5784 56.1467 40.27 53.6858C40.5592 52.6567 40.4585 51.6108 40.7962 50.6564C40.8539 50.4934 41.1134 50.4557 41.2844 50.4092C42.0951 50.4725 42.2922 50.5255 42.868 51.1325C43.1509 52.121 42.8142 53.2341 42.619 54.2673ZM41.5923 58.3909C41.8428 58.493 42.0783 58.6026 42.3402 58.468C43.4182 57.9143 44.3479 55.9924 44.7903 54.9254C44.9766 54.4761 45.4548 53.2936 45.3995 52.8862L45.3135 52.7815C44.679 53.2363 41.6148 57.0614 41.1603 57.9312C41.1457 57.9592 41.1942 58.0964 41.2086 58.1469C41.367 58.2713 41.4112 58.3032 41.5923 58.3909Z" fill="white"/>
<path d="M104.431 99.5373C104.513 99.5466 104.606 99.5529 104.684 99.5784C104.809 99.6189 104.89 99.6903 104.944 99.8073C105.172 100.296 104.345 102.431 104.139 103.017C104.601 102.64 105.596 101.439 106.181 101.446C106.337 101.448 106.364 101.505 106.468 101.608C106.795 102.484 105.951 104.296 105.78 105.27C106.534 104.629 106.992 103.868 107.386 102.977C107.536 102.637 107.684 102.223 107.928 101.94C108.073 101.773 108.218 101.696 108.435 101.678L108.561 101.788C108.838 102.501 107.95 104.523 107.738 105.334C108.492 104.776 109.32 104.095 109.83 103.296C110.104 102.869 110.23 102.158 110.63 101.836C110.793 101.705 110.935 101.661 111.139 101.674C111.231 101.74 111.268 101.793 111.309 101.9C111.426 102.212 111.329 102.396 111.194 102.678C110.861 103.425 110.35 104.306 110.184 105.097C110.357 105.252 110.652 105.148 110.867 105.237C110.99 105.287 110.99 105.352 111.03 105.463C110.998 105.677 110.932 105.881 110.741 106.008C110.522 106.154 110.227 106.125 109.984 106.063C109.524 105.946 109.399 105.717 109.164 105.331C108.691 105.691 108.232 105.919 107.678 106.122C107.313 105.954 107.106 105.768 106.837 105.475L106.791 105.525C106.516 105.82 106.007 106.345 105.56 106.325C105.404 106.317 105.277 106.24 105.185 106.116C104.72 105.486 105.233 103.734 105.389 103.023C105.083 103.378 104.793 103.747 104.522 104.128C104.155 104.648 103.678 105.776 103.053 105.966C102.993 105.984 102.953 105.939 102.902 105.909C102.835 105.782 102.807 105.661 102.799 105.519C102.762 104.863 103.873 100.668 104.197 99.8867C104.252 99.7551 104.338 99.6438 104.431 99.5373Z" fill="white"/>
<path d="M94.6522 103.382C93.77 104.048 93.475 104.962 92.9327 105.875C92.7785 106.135 92.3924 106.743 92.0478 106.523C91.9868 106.363 91.9587 106.224 91.962 106.055C91.9728 105.456 93.4663 100.255 93.8055 99.9561C93.9382 99.8395 94.0998 99.7788 94.2768 99.7832C94.797 100.174 93.7733 102.5 93.538 103.052C95.2857 102.37 95.5156 102.984 95.2944 104.509C95.1784 104.909 95.0852 105.309 94.9874 105.714L95.58 104.774C96.0546 104.11 96.3783 103.276 96.9642 102.695C97.1432 102.518 97.3665 102.705 97.469 102.872C97.5548 103.509 96.9911 104.716 96.7357 105.321C96.9602 105.614 97.1258 105.788 97.1023 106.164C96.79 106.711 96.188 106.309 95.8186 106.053C95.3842 106.35 94.7568 107.16 94.2721 106.787C93.894 106.069 94.4457 104.185 94.6522 103.382Z" fill="white"/>
<path d="M120.834 102.172C120.88 102.167 120.921 102.162 120.967 102.165C121.25 102.178 121.751 102.219 121.936 102.461C122.356 103.009 121.454 104.38 121.241 104.94C121.115 105.273 121.063 105.62 121.012 105.971C121.497 105.705 122.05 105.039 122.638 105.098L122.711 105.196C122.718 105.379 122.695 105.519 122.617 105.685C122.42 106.107 122.034 106.467 121.593 106.624C121.216 106.758 120.989 106.713 120.632 106.55C120.437 106.293 120.324 106.023 120.203 105.729C119.724 106.081 119.225 106.499 118.666 106.715C118.421 106.81 118.105 106.879 117.857 106.755C117.721 106.685 117.639 106.564 117.596 106.422C117.418 105.832 117.824 104.984 118.124 104.471C118.682 103.518 119.75 102.46 120.834 102.172ZM118.683 105.737C119.628 105.059 120.318 104.396 120.801 103.319L120.779 103.18L120.631 103.144C119.79 103.702 118.75 104.575 118.54 105.624C118.536 105.647 118.532 105.669 118.528 105.692C118.602 105.741 118.589 105.753 118.683 105.737Z" fill="white"/>
<path d="M99.1241 102.017C99.344 102.025 99.5532 102.042 99.7657 102.105C100.282 102.257 100.742 102.608 100.995 103.082C101.246 103.56 101.295 104.116 101.132 104.629C100.699 105.942 99.6249 106.076 98.5892 106.603C98.0187 106.893 97.7553 108.742 97.5428 109.387C97.4871 109.528 97.4328 109.674 97.3645 109.809C97.2545 110.028 97.0789 110.204 96.8402 110.276C96.7772 110.296 96.7296 110.249 96.6733 110.22C96.6163 110.104 96.5909 110.001 96.5882 109.872C96.5714 109.068 98.3539 103.561 98.7896 102.529C98.8741 102.33 98.9726 102.173 99.1241 102.017ZM99.2495 105.453C99.7335 105.19 100.153 104.758 100.309 104.219C100.374 103.994 100.38 103.748 100.266 103.535C100.112 103.249 99.8327 103.142 99.5378 103.051C99.2649 103.664 98.7514 104.957 98.7058 105.586C98.8419 105.639 98.9103 105.607 99.0471 105.553C99.1168 105.525 99.1838 105.488 99.2495 105.453Z" fill="white"/>
<path d="M115.162 103.09C114.772 102.962 114.523 102.747 114.102 102.6C112.98 102.799 112.343 106 111.765 106.472C111.545 106.527 111.637 106.537 111.418 106.416C111.012 105.722 112.456 102.794 112.018 101.831C111.964 101.714 112.528 100.896 113.215 101.967C114.058 101.713 114.354 101.627 115.069 102.161C115.293 102.476 115.504 102.745 115.162 103.09Z" fill="white"/>
<path d="M115.374 102.036C115.697 101.19 116.263 101.515 116.699 102.03C117.121 101.898 117.287 101.818 117.738 101.887C118.345 101.978 119.044 102.302 118.737 103.059C118.282 103.33 117.727 102.507 117.317 102.739C116.654 103.114 116.22 103.996 115.97 104.694C115.789 105.196 115.713 106.565 114.947 106.537C114.44 106.032 115.32 103.833 115.463 103.145C115.661 102.642 115.608 102.504 115.374 102.036Z" fill="white"/>
<path d="M123.287 99.3146C123.459 99.2914 123.578 99.3088 123.718 99.406L123.716 99.5643C123.408 100.089 122.689 100.32 122.216 100.67L122.161 100.712C122.078 100.762 122.034 100.752 121.939 100.756L121.82 100.63C121.774 100.43 121.745 100.311 121.866 100.127C122.186 99.642 122.744 99.4441 123.287 99.3146Z" fill="white"/>
<path d="M54.7951 81.4005C55.0929 81.2725 54.9844 81.1558 55.2901 80.9832L55.3781 81.0575C55.2967 81.1894 55.2622 81.2288 55.2254 81.3766L55.2414 81.4366C54.5702 82.1678 53.8908 82.8072 53.3285 83.6388C53.2488 83.7568 52.8679 84.3069 52.792 84.3773C52.5333 84.4979 52.576 84.5321 52.3971 84.817C52.3003 84.7911 52.2517 84.7851 52.1547 84.7701L52.1752 84.745C52.3211 84.5613 52.3851 84.5417 52.4001 84.2945C52.4624 84.1775 53.0198 83.5882 53.1395 83.4626C53.7538 82.8185 54.2255 82.0712 54.7951 81.4005Z" fill="white"/>
<path d="M97.4174 101.112C97.6192 101.033 97.8484 101.13 97.9302 101.33C98.0127 101.529 97.9175 101.757 97.7177 101.841C97.5857 101.896 97.4348 101.877 97.3209 101.79C97.2076 101.704 97.1499 101.564 97.17 101.424C97.1902 101.283 97.284 101.164 97.4174 101.112Z" fill="white"/>
<path d="M87.0114 100.887C87.112 100.881 87.2139 100.874 87.3151 100.88C87.4975 100.891 87.6637 100.918 87.7911 101.059C87.8011 101.252 87.7663 101.266 87.6463 101.423C87.3828 101.475 87.2407 101.488 87.0175 101.34C86.9491 101.164 86.9612 101.067 87.0114 100.887Z" fill="white"/>
<path d="M115.374 102.036C115.608 102.504 115.661 102.642 115.463 103.145L115.162 103.09C115.504 102.745 115.293 102.476 115.069 102.161C115.223 102.132 115.264 102.137 115.374 102.036Z" fill="white"/>
<path d="M69.805 94.2751C70.0847 93.9828 70.3838 93.6795 70.6548 93.382C70.508 93.7763 70.4275 94.0031 70.217 94.3753C70.1178 94.3985 69.9138 94.3117 69.805 94.2751Z" fill="white"/>
<path d="M95.2944 104.509L95.4016 104.589L95.5096 104.542L95.58 104.774L94.9874 105.714C95.0852 105.309 95.1784 104.909 95.2944 104.509Z" fill="white"/>
<path d="M83.7267 104.097C83.1763 104.756 81.4854 107.774 80.736 107.818C80.6378 107.824 80.6081 107.777 80.5347 107.718C80.2814 106.97 82.2646 101.865 82.6052 100.798C82.699 100.505 83.0449 99.9685 83.4693 100.111C83.5832 100.297 83.6047 100.433 83.5377 100.659C83.1247 102.035 82.5656 103.393 82.0863 104.738C82.5107 104.238 83.9855 102.392 84.6967 102.796C85.0889 103.455 84.092 105.943 83.9298 106.859L83.9533 106.837C84.7007 106.13 85.2303 104.766 85.7894 103.893C86.0756 103.446 86.1869 102.844 86.7775 102.805C86.9397 102.886 87.1294 103.003 87.0765 103.206C86.8351 104.132 86.451 105.233 86.1769 106.14C88.1289 105.401 86.9826 103.435 89.0447 102.319L89.0822 102.299C89.8504 102.597 90.4135 102.797 90.7809 103.593C91.2991 104.716 90.5456 105.91 89.4643 106.331C88.8456 106.571 88.2771 106.543 87.6369 106.545C87.5102 107.452 87.1978 110.371 86.7587 111H86.2553L86.2439 110.933C86.1024 110.093 86.7473 107.225 86.6582 106.953C86.3646 106.943 86.1132 107.103 85.841 107.145C85.6419 107.174 85.241 106.733 85.0989 106.807C84.5546 107.093 84.082 107.939 83.4063 107.671C82.6843 106.903 83.5625 105.03 83.7267 104.097ZM89.0487 105.641C89.5803 105.339 89.8906 105.049 90.0509 104.451C90.0777 104.35 90.0998 104.248 90.1172 104.146C89.9409 103.829 89.7438 103.406 89.3611 103.3C89.2531 103.271 89.1351 103.262 89.0239 103.253C88.6123 103.9 88.2409 104.849 88.0492 105.592C88.082 105.667 88.0793 105.677 88.1584 105.707C88.4246 105.81 88.7852 105.711 89.0487 105.641Z" fill="white"/>
<path d="M133 78.69C132.899 78.8327 132.733 79.2369 132.649 79.4126C132.277 80.1817 131.836 80.9165 131.1 81.4039C130.193 82.0048 129.727 82.1663 128.637 81.9652C128.143 81.8995 127.539 81.6582 127.269 81.1936C125.407 77.9779 130.376 72.7351 133 76.8488V78.69ZM129.176 81.3557C130.239 81.081 130.967 80.5796 131.536 79.6208C131.966 78.8974 132.328 77.7308 132.088 76.8889C131.999 76.5771 131.808 76.3263 131.52 76.1707C131.262 76.0315 130.935 75.9626 130.643 75.9849C129.563 76.2851 128.797 76.9962 128.255 77.9516C127.872 78.6241 127.543 79.6498 127.76 80.4216C127.847 80.7291 128.049 81.006 128.332 81.1637C128.58 81.3017 128.897 81.329 129.176 81.3557Z" fill="white"/>
<path d="M129.905 76.5887C130.195 76.6498 130.52 76.6835 130.788 76.8133C131.084 76.9563 131.364 77.2016 131.47 77.5181C131.559 77.7817 131.518 78.0619 131.387 78.3042C131.076 78.8793 130.455 79.0978 129.862 79.2656C130.055 79.6166 130.447 79.88 130.53 80.2739C130.457 80.4116 130.449 80.4297 130.287 80.4755C130.065 80.5384 129.898 80.4487 129.714 80.3393C129.523 79.9837 129.405 79.6279 129.286 79.2447C129.184 79.5154 129.09 79.8091 128.951 80.0632C128.829 80.2862 128.647 80.4528 128.398 80.523L128.291 80.4507C128.237 80.2108 128.28 79.9999 128.345 79.7665C128.535 79.0851 128.948 78.4377 129.225 77.7835C129.349 77.4908 129.413 77.1254 129.566 76.8538C129.636 76.729 129.783 76.6563 129.905 76.5887ZM130.167 78.6283C130.465 78.4215 130.771 78.1369 130.837 77.7609C130.87 77.5752 130.823 77.4926 130.731 77.3415C130.598 77.26 130.5 77.208 130.343 77.1923C130.18 77.4926 129.615 78.345 129.702 78.6538C129.708 78.6741 129.717 78.6935 129.723 78.7133C129.902 78.7508 130.001 78.6887 130.167 78.6283Z" fill="white"/>
</svg>
