<svg width="148" height="148" viewBox="0 0 148 148" fill="none" xmlns="http://www.w3.org/2000/svg">
<path d="M19.4181 64.8122C19.2482 64.7392 19.0699 64.6716 18.9261 64.5508C18.6119 64.2868 18.4855 63.8929 18.4382 63.4951C18.2625 62.0141 19.0671 57.9709 19.5758 56.543C19.7802 55.969 20.0601 55.4229 20.4363 54.944C22.0357 52.908 40.792 43.7085 43.5759 43.4391C44.022 43.3959 44.5106 43.5208 44.8508 43.8254C45.3585 44.2801 45.3991 44.9032 45.4291 45.5457C46.2834 46.5774 45.9138 48.7359 45.8027 50.0891C48.0291 49.7818 48.132 51.1561 48.3606 53.0082C48.3712 53.094 48.3811 53.1799 48.3901 53.2659C53.5921 53.28 55.2824 56.6737 56.5892 61.2214L56.7064 61.1929C57.508 62.6667 57.7291 65.006 57.6286 66.6651C57.8638 67.15 57.8775 67.6923 57.9179 68.2375C57.5608 70.7235 56.7334 74.522 58.1566 76.6864C57.3509 80.0624 54.2103 84.5903 51.2528 86.4561C49.4126 87.616 47.2229 88.0429 45.1122 87.5317C43.934 87.2464 42.6051 86.4072 42.3222 85.1276C41.3785 84.6507 39.7383 83.319 39.2853 82.3361C37.1798 79.762 36.9248 79.0033 36.3347 75.5969C36.3137 75.627 36.296 75.6598 36.2717 75.687C35.618 76.4201 34.178 76.4461 33.5445 77.418C32.546 78.9501 31.6719 92.5679 31.6174 95.0813C31.5975 96.2349 31.6207 97.3875 31.6872 98.5391C30.4765 99.8645 28.8759 100.801 27.3419 101.707C26.316 102.314 24.0422 103.76 22.936 102.796C22.2603 102.208 22.906 100.664 22.2899 100.366C21.6928 100.621 20.9226 100.967 20.2614 100.708C19.9288 100.574 19.6622 100.311 19.5202 99.978C18.2764 99.7999 17.9827 98.1361 18.0008 97.0991C18.0788 92.6251 18.793 88.1834 19.2629 83.7438C19.8924 77.7961 20.901 71.8617 21.5473 65.9244C20.2092 66.4635 20.0822 65.8698 19.4181 64.8122Z" fill="white"/>
<path d="M48.3901 53.2659C53.5921 53.28 55.2824 56.6737 56.5892 61.2214L56.7064 61.1929C57.508 62.6667 57.7291 65.006 57.6286 66.6651C57.8638 67.15 57.8775 67.6923 57.9179 68.2375C57.5608 70.7235 56.7334 74.522 58.1566 76.6864C57.3509 80.0624 54.2103 84.5903 51.2528 86.4561C49.4126 87.616 47.2229 88.0429 45.1122 87.5317C43.934 87.2464 42.6051 86.4072 42.3222 85.1276C41.3785 84.6507 39.7383 83.319 39.2853 82.3361C37.1798 79.762 36.9248 79.0033 36.3347 75.5969C36.0685 73.2229 36.2369 71.6553 36.4171 69.2823C36.2928 68.0627 36.8079 65.3271 36.9318 63.875L37.0099 63.7629C37.0422 63.2709 36.9917 62.9727 37.4226 62.7108C37.8784 62.721 37.9288 62.725 38.3646 62.8458C40.401 58.4474 43.3046 54.0382 48.3901 53.2659Z" fill="white"/>
<path d="M42.3222 85.1276C42.7764 85.2317 43.362 85.3514 43.8164 85.3931C51.2782 86.0751 56.1107 77.0569 57.2071 70.7014C57.4261 69.4324 57.5242 67.9342 57.6286 66.6651C57.8638 67.15 57.8775 67.6923 57.9179 68.2375C57.5608 70.7235 56.7334 74.522 58.1566 76.6864C57.3509 80.0624 54.2103 84.5903 51.2528 86.4561C49.4126 87.616 47.2229 88.0429 45.1122 87.5317C43.934 87.2464 42.6051 86.4072 42.3222 85.1276Z" fill="black"/>
<path d="M56.5892 61.2214L56.7064 61.1929C57.508 62.6667 57.7291 65.006 57.6286 66.6651C57.5242 67.9342 57.4261 69.4324 57.2071 70.7014C56.1107 77.0569 51.2782 86.0751 43.8164 85.3931C43.362 85.3514 42.7764 85.2317 42.3222 85.1276C41.3785 84.6507 39.7383 83.319 39.2853 82.3361L39.3754 82.4038C40.3998 83.1712 41.1985 83.7136 42.4972 83.9385C46.7266 84.6694 50.4583 81.4053 52.7134 78.2062C56.1782 73.2893 57.5725 67.1795 56.5892 61.2214Z" fill="black"/>
<path d="M36.9318 63.875L37.0099 63.7629C37.0422 63.2709 36.9917 62.9727 37.4226 62.7108C37.8784 62.721 37.9288 62.725 38.3646 62.8458C37.6615 64.6738 37.1364 66.318 36.7067 68.2351C36.6621 68.4339 36.5115 69.1381 36.4171 69.2823C36.2928 68.0627 36.8079 65.3271 36.9318 63.875Z" fill="black"/>
<path d="M49.3663 59.3454C50.5747 60.6826 50.752 62.2654 50.5618 64.027C50.3312 66.1639 50.3572 69.4823 48.6647 70.9673C48.3479 72.1508 47.0656 76.5884 45.2695 76.1196L44.9853 75.8877C42.7597 73.6957 44.4447 65.2973 45.9157 62.8306C46.4865 61.8733 46.9086 61.2587 47.8921 60.7163L48.2158 60.6119C48.2112 60.5194 48.2184 60.5635 48.1959 60.4795C48.6546 59.8452 48.7156 59.7926 49.3663 59.3454Z" fill="black"/>
<path d="M47.8921 60.7163C48.8706 61.1439 48.9356 61.7091 49.1808 62.6814C45.8123 63.7553 45.1072 70.107 44.916 73.1318C44.8785 73.7246 45.142 75.5369 44.9853 75.8877C42.7597 73.6957 44.4447 65.2973 45.9157 62.8306C46.4865 61.8733 46.9086 61.2587 47.8921 60.7163Z" fill="black"/>
<path d="M49.3663 59.3454C50.5747 60.6826 50.752 62.2654 50.5618 64.027C50.3312 66.1639 50.3572 69.4823 48.6647 70.9673C49.0602 68.1203 49.4613 65.5682 49.1808 62.6814C48.9356 61.7091 48.8706 61.1439 47.8921 60.7163L48.2158 60.6119C48.2112 60.5194 48.2184 60.5635 48.1959 60.4795C48.6546 59.8452 48.7156 59.7926 49.3663 59.3454Z" fill="white"/>
<path d="M28.8747 95.9798C28.9369 94.619 28.7786 93.2436 28.8257 91.8724C28.9113 89.3871 29.7856 75.1515 30.7721 73.9004C32.3623 71.8837 34.9824 72.9612 36.4171 69.2823C36.2369 71.6553 36.0685 73.2229 36.3347 75.5969C36.3137 75.627 36.296 75.6598 36.2717 75.687C35.618 76.4201 34.178 76.4461 33.5445 77.418C32.546 78.9501 31.6719 92.5679 31.6174 95.0813C31.5975 96.2349 31.6207 97.3875 31.6872 98.5391C30.4765 99.8645 28.8759 100.801 27.3419 101.707C26.316 102.314 24.0422 103.76 22.936 102.796C22.2603 102.208 22.906 100.664 22.2899 100.366C24.0655 99.3606 27.6556 97.4854 28.8747 95.9798Z" fill="black"/>
<path d="M36.1883 61.3968C37.0873 61.7067 36.9215 63.0761 36.9318 63.875C36.8079 65.3271 36.2928 68.0627 36.4171 69.2823C34.9824 72.9612 32.3623 71.8837 30.7721 73.9004C29.7856 75.1515 28.9113 89.3871 28.8257 91.8724C28.7786 93.2436 28.9369 94.619 28.8747 95.9798C27.6556 97.4854 24.0655 99.3606 22.2899 100.366C21.6928 100.621 20.9226 100.967 20.2614 100.708C19.9288 100.574 19.6622 100.311 19.5202 99.978C21.1614 99.4793 27.1465 96.4838 27.9606 94.4857C28.0891 94.1702 27.7926 91.5454 27.836 90.7906C28.1566 85.1984 28.5426 79.6 29.2209 74.0398C29.3046 73.5926 29.4414 72.4986 29.6863 72.1333C30.7453 70.553 34.734 70.094 35.3471 68.2073C35.9869 66.2384 35.9554 63.5038 36.1883 61.3968Z" fill="black"/>
<path d="M45.8027 50.0891C48.0291 49.7818 48.132 51.1561 48.3606 53.0082C48.3712 53.094 48.3811 53.1799 48.3901 53.2659C43.3046 54.0382 40.401 58.4474 38.3646 62.8458C37.9288 62.725 37.8784 62.721 37.4226 62.7108C36.9917 62.9727 37.0422 63.2709 37.0099 63.7629L36.9318 63.875C36.9215 63.0761 37.0873 61.7067 36.1883 61.3968C36.2206 58.7947 33.0963 60.5806 31.8617 61.0485C32.8265 58.7683 41.8297 55.9654 44.0129 54.2871C45.4479 53.1838 45.5741 51.7986 45.8027 50.0891Z" fill="black"/>
<path d="M45.4291 45.5457C46.2834 46.5774 45.9138 48.7359 45.8027 50.0891C45.5741 51.7986 45.4479 53.1838 44.0129 54.2871C41.8297 55.9654 32.8265 58.7683 31.8617 61.0485C31.4312 61.4225 31.074 61.5496 30.5621 61.7784C30.7211 60.8221 30.7985 59.4984 31.3686 58.7084C32.63 56.9603 41.3117 54.2316 43.6168 52.2955C45.3998 50.7979 45.2576 47.687 45.4291 45.5457Z" fill="white"/>
<path d="M19.4181 64.8122C20.2273 64.3027 21.1519 63.7473 21.9347 63.2159C21.8297 64.1428 21.7464 65.0105 21.5473 65.9244C20.2092 66.4635 20.0822 65.8698 19.4181 64.8122Z" fill="black"/>
<path d="M66.7613 53.8439C68.8891 50.7079 73.1964 44.9727 77.1789 49.0761C78.1493 50.0764 78.3395 50.9887 78.3343 52.3195L78.3436 52.5341C79.4764 53.6442 77.844 59.9511 77.6764 61.6352C77.6044 62.3624 77.4112 63.2837 77.3618 64.0639C77.259 65.6914 77.0318 67.3234 76.963 68.9516C76.9157 69.6405 76.9188 71.4268 76.6032 71.8933L76.6422 71.9978C76.9486 72.417 76.9876 73.1254 77.1336 73.6969C77.368 74.3534 77.8059 75.4921 77.5078 76.1357C76.3914 77.1777 70.6131 78.8148 71.1846 75.3276C71.0736 75.239 70.9657 75.1477 70.8588 75.0536C70.3787 74.6243 69.9562 74.1453 69.9079 73.4819C68.7976 71.8272 68.9878 70.068 69.2222 68.1784C69.4607 66.2605 69.7393 64.3499 69.9675 62.4292C69.2325 62.7842 68.9035 63.6606 68.629 64.4439C68.2949 65.4302 68.0354 66.4412 67.8537 67.4677C67.6716 68.4582 66.6592 75.6328 66.4031 75.9808L66.3667 75.8853C66.3274 76.032 66.3033 76.07 66.3008 76.2187C66.7763 76.852 67.2738 77.7489 67.2683 78.5181C67.2639 79.1211 65.0534 79.8704 64.6781 80.0229C63.0819 80.6723 60.4444 81.3064 60.2081 78.8037C59.6427 78.4735 58.986 77.966 58.8149 77.2983L58.1566 76.6864C56.7334 74.522 57.5608 70.7235 57.9179 68.2375C58.6018 64.3743 58.954 59.0651 59.8807 55.3739C60.0799 54.1036 60.3828 51.0833 61.4448 50.4939C65.612 48.1814 67.838 48.8809 66.7613 53.8439Z" fill="white"/>
<path d="M65.7262 74.7206C65.7925 74.3151 65.7529 72.4935 65.8205 71.7833C66.162 68.1912 66.6818 64.2915 67.6754 60.8343C68.0362 59.5792 69.471 58.8482 70.5812 58.3727C70.3941 59.7275 70.1895 61.0797 69.9675 62.4292C69.2325 62.7842 68.9035 63.6606 68.629 64.4439C68.2949 65.4302 68.0354 66.4412 67.8537 67.4677C67.6716 68.4582 66.6592 75.6328 66.4031 75.9808L66.3667 75.8853C66.3274 76.032 66.3033 76.07 66.3008 76.2187C66.7763 76.852 67.2738 77.7489 67.2683 78.5181C67.2639 79.1211 65.0534 79.8704 64.6781 80.0229C63.0819 80.6723 60.4444 81.3064 60.2081 78.8037C59.6427 78.4735 58.986 77.966 58.8149 77.2983C60.279 77.8193 61.7987 76.9926 63.2467 76.4294C63.9313 76.1737 65.4718 75.6471 65.5384 74.8458L65.7262 74.7206Z" fill="black"/>
<path d="M65.5384 74.8458L65.7262 74.7206L66.2549 76.2903C65.8312 77.6275 61.4747 78.6908 60.2081 78.8037C59.6427 78.4735 58.986 77.966 58.8149 77.2983C60.279 77.8193 61.7987 76.9926 63.2467 76.4294C63.9313 76.1737 65.4718 75.6471 65.5384 74.8458Z" fill="black"/>
<path d="M57.9179 68.2375C58.6018 64.3743 58.954 59.0651 59.8807 55.3739C60.0914 55.4125 60.0406 55.3634 60.1696 55.4772C61.349 59.0177 57.4609 70.105 58.9156 74.4826C59.5548 76.4062 62.0072 76.0182 63.2467 76.4294C61.7987 76.9926 60.279 77.8193 58.8149 77.2983L58.1566 76.6864C56.7334 74.522 57.5608 70.7235 57.9179 68.2375Z" fill="white"/>
<path d="M65.5384 74.8458C65.3847 74.5552 65.2874 74.2573 65.2 73.9409C64.9604 73.0729 64.9333 72.1414 64.9662 71.2457C65.0546 68.8353 66.1949 60.1308 67.2404 58.3558C67.7146 57.5509 68.8542 56.5649 69.7835 56.3822C70.1237 56.3152 70.3088 56.407 70.5843 56.5977C70.9451 57.2132 70.7375 57.6568 70.5812 58.3727C69.471 58.8482 68.0362 59.5792 67.6754 60.8343C66.6818 64.2915 66.162 68.1912 65.8205 71.7833C65.7529 72.4935 65.7925 74.3151 65.7262 74.7206L65.5384 74.8458Z" fill="black"/>
<path d="M78.3436 52.5341C79.4764 53.6442 77.844 59.9511 77.6764 61.6352C77.6044 62.3624 77.4112 63.2837 77.3618 64.0639C77.259 65.6914 77.0318 67.3234 76.963 68.9516C76.9157 69.6405 76.9188 71.4268 76.6032 71.8933C75.6656 69.8844 76.9619 60.854 77.3145 58.3277C77.5345 56.7506 78.1174 54.3025 78.3436 52.5341Z" fill="black"/>
<path d="M77.1336 73.6969C77.368 74.3534 77.8059 75.4921 77.5078 76.1357C76.3914 77.1777 70.6131 78.8148 71.1846 75.3276C72.2455 75.7178 76.4757 74.6826 77.1336 73.6969Z" fill="black"/>
<path d="M76.6422 71.9978C76.9486 72.417 76.9876 73.1254 77.1336 73.6969C76.4757 74.6826 72.2455 75.7178 71.1846 75.3276C71.0736 75.239 70.9657 75.1477 70.8588 75.0536C70.3787 74.6243 69.9562 74.1453 69.9079 73.4819C71.2658 74.329 72.4655 73.9329 73.917 73.5481C74.8833 73.2922 76.1138 72.9042 76.6422 71.9978Z" fill="black"/>
<path d="M79.2266 52.467C79.169 51.2734 79.094 47.2418 80.6236 46.8669C83.6449 46.2302 87.1319 46.0743 90.2405 46.0291C93.7922 45.9775 95.0865 49.107 93.9032 52.1293C93.966 52.6934 93.8673 53.2076 93.7018 53.7494C94.7308 58.0798 91.8966 59.0759 90.1778 62.567C89.9424 63.0434 89.7347 63.5433 89.4942 64.0001C90.5777 63.8228 93.4509 62.9975 93.5856 64.7829C93.6935 66.212 93.5003 67.6554 93.1148 69.027L93.2371 69.2915C93.2289 69.6423 93.233 69.888 93.306 70.2397C94.2219 74.6216 89.083 74.057 86.3691 74.5565C84.9412 74.726 83.5318 74.9544 82.0988 75.095C81.2785 75.1756 80.0912 75.3279 79.4137 74.7406C78.9902 74.3729 78.6869 73.9293 78.6808 73.3547C77.9694 72.5482 76.8961 71.0959 77.5541 70.0205L77.4235 69.1125L77.3896 69.2497C77.3526 69.3999 77.3289 69.5147 77.3022 69.6651L77.1562 69.7319C76.9794 69.3719 76.9979 69.3416 76.963 68.9516C77.0318 67.3234 77.259 65.6914 77.3618 64.0639C77.4112 63.2837 77.6044 62.3624 77.6764 61.6352C77.844 59.9511 79.4764 53.6442 78.3436 52.5341L78.3343 52.3195C78.6324 52.0541 78.4751 52.0909 78.7907 52.0766C78.8534 52.2552 78.8339 52.1598 78.8411 52.3641L79.0436 51.6429C79.0765 51.9106 79.0837 52.2758 79.2266 52.467Z" fill="white"/>
<path d="M78.3343 52.3195C78.6324 52.0541 78.4751 52.0909 78.7907 52.0766C78.8534 52.2552 78.8339 52.1598 78.8411 52.3641L79.0436 51.6429C79.0765 51.9106 79.0837 52.2758 79.2266 52.467L79.2245 52.5876C78.7126 53.3283 79.2852 55.247 80.1539 55.8425C80.9279 55.9424 82.4566 55.6331 83.5627 55.6713L81.701 58.8656C80.0295 62.0246 77.9653 65.5805 77.4235 69.1125L77.3896 69.2497C77.3526 69.3999 77.3289 69.5147 77.3022 69.6651L77.1562 69.7319C76.9794 69.3719 76.9979 69.3416 76.963 68.9516C77.0318 67.3234 77.259 65.6914 77.3618 64.0639C77.4112 63.2837 77.6044 62.3624 77.6764 61.6352C77.844 59.9511 79.4764 53.6442 78.3436 52.5341L78.3343 52.3195Z" fill="black"/>
<path d="M80.1539 55.8425C80.9279 55.9424 82.4566 55.6331 83.5627 55.6713L81.701 58.8656C80.234 58.6121 79.4774 57.1257 80.1539 55.8425Z" fill="black"/>
<path d="M93.2371 69.2915C93.2289 69.6423 93.233 69.888 93.306 70.2397C94.2219 74.6216 89.083 74.057 86.3691 74.5565C84.9412 74.726 83.5318 74.9544 82.0988 75.095C81.2785 75.1756 80.0912 75.3279 79.4137 74.7406C78.9902 74.3729 78.6869 73.9293 78.6808 73.3547C80.5784 73.9076 84.0098 73.0271 86.0782 72.7909C87.762 72.5986 89.9342 72.528 91.4494 71.8492C92.2955 71.47 93.0151 70.191 93.2371 69.2915Z" fill="black"/>
<path d="M93.1148 69.027L93.2371 69.2915C93.0151 70.191 92.2955 71.47 91.4494 71.8492C89.9342 72.528 87.762 72.5986 86.0782 72.7909C84.0098 73.0271 80.5784 73.9076 78.6808 73.3547C77.9694 72.5482 76.8961 71.0959 77.5541 70.0205C78.5872 72.3329 80.7275 72.1791 82.7937 71.6911C85.63 71.0214 91.4494 71.5675 93.1148 69.027Z" fill="black"/>
<path d="M93.7018 53.7494C94.7308 58.0798 91.8966 59.0759 90.1778 62.567C89.9424 63.0434 89.7347 63.5433 89.4942 64.0001C88.7941 64.1093 87.8463 64.2858 87.1627 64.3042C87.7055 62.7384 90.7124 58.2607 91.7393 56.6561C92.2852 55.8034 93.2587 54.6738 93.7018 53.7494Z" fill="black"/>
<path d="M80.1539 55.8425C79.2852 55.247 78.7126 53.3283 79.2245 52.5876C79.4949 53.0383 79.8557 53.5246 80.3975 53.6176C81.6105 53.826 83.6871 53.5135 84.9309 53.3432C84.4796 54.1814 84.0685 54.8644 83.5627 55.6713C82.4566 55.6331 80.9279 55.9424 80.1539 55.8425Z" fill="black"/>
<path d="M93.9032 52.1293C93.966 52.6934 93.8673 53.2076 93.7018 53.7494C93.2587 54.6738 92.2852 55.8034 91.7393 56.6561C90.7124 58.2607 87.7055 62.7384 87.1627 64.3042C86.807 64.3965 86.7988 64.4143 86.4174 64.3922C86.3794 63.1787 92.7663 53.7176 93.9032 52.1293Z" fill="black"/>
<path d="M102.625 55.4424C102.904 54.0326 103.113 52.7037 103.616 51.3434C104.867 47.9631 108.055 45.3743 111.717 47.0486C114.538 48.3388 115.717 50.7634 116.785 53.5242L116.98 55.3149C116.977 55.7542 116.977 56.0283 117.019 56.4633C117.158 57.0717 117.355 57.3054 117.467 57.9458C118.132 59.547 118.896 60.3967 120.007 61.7358C119.612 61.9548 119.61 61.9307 119.382 62.3079L119.261 62.3021C118.805 62.5709 118.705 62.6536 118.428 63.1119L118.513 63.35L118.49 63.8744C118.196 64.0881 117.831 64.3718 117.534 64.5647C117.858 65.2517 117.913 65.6294 117.946 66.3917C117.842 67.9998 117.551 68.334 116.76 69.6095C116.752 70.1027 116.659 70.2298 116.341 70.6386C116.724 71.429 116.614 72.3148 116.018 73.0058C113.336 76.1157 105.365 73.434 105.231 69.3116C104.083 67.7804 102.978 65.6068 102.501 63.75C102.455 63.6221 102.412 63.4929 102.374 63.3624C101.9 61.76 101.746 56.7016 102.51 55.3059L102.625 55.4424Z" fill="white"/>
<path d="M102.501 63.75C102.455 63.6221 102.412 63.4929 102.374 63.3624C101.9 61.76 101.746 56.7016 102.51 55.3059L102.625 55.4424C102.48 57.58 102.712 58.3879 102.696 60.2029C102.831 60.8212 103.006 61.7349 103.197 62.3104C103.781 62.6789 104.161 63.5107 104.545 64.0754C105.825 65.9553 107.411 67.8091 109.511 68.7546C111.939 69.9394 113.592 69.0949 115.793 69.8486C115.816 69.8563 116.173 70.0278 116.185 70.0339L116.76 69.6095C116.752 70.1027 116.659 70.2298 116.341 70.6386C116.724 71.429 116.614 72.3148 116.018 73.0058C113.336 76.1157 105.365 73.434 105.231 69.3116C104.083 67.7804 102.978 65.6068 102.501 63.75Z" fill="black"/>
<path d="M105.231 69.3116C108.23 72.1878 112.956 73.9519 116.341 70.6386C116.724 71.429 116.614 72.3148 116.018 73.0058C113.336 76.1157 105.365 73.434 105.231 69.3116Z" fill="black"/>
<path d="M103.197 62.3104C103.781 62.6789 104.161 63.5107 104.545 64.0754C105.825 65.9553 107.411 67.8091 109.511 68.7546C111.939 69.9394 113.592 69.0949 115.793 69.8486C115.816 69.8563 116.173 70.0278 116.185 70.0339C110.493 73.2819 104.537 67.8731 103.197 62.3104Z" fill="white"/>
<path d="M102.501 63.75C102.455 63.6221 102.412 63.4929 102.374 63.3624C101.9 61.76 101.746 56.7016 102.51 55.3059L102.625 55.4424C102.48 57.58 102.712 58.3879 102.696 60.2029L102.681 60.8639L102.622 60.8868C102.562 60.4853 102.498 59.7841 102.317 59.4563C101.958 60.5874 102.678 63.0174 102.501 63.75Z" fill="black"/>
<path d="M117.019 56.4633C117.158 57.0717 117.355 57.3054 117.467 57.9458C118.132 59.547 118.896 60.3967 120.007 61.7358C119.612 61.9548 119.61 61.9307 119.382 62.3079L119.261 62.3021C118.805 62.5709 118.705 62.6536 118.428 63.1119L118.513 63.35L118.49 63.8744C118.196 64.0881 117.831 64.3718 117.534 64.5647C116.765 63.4959 116.478 63.2152 115.26 62.8116C113.749 63.791 113.666 64.3032 111.71 64.1931C113.017 63.6735 116.096 61.8177 115.822 60.1427C116.692 58.6265 116.845 58.2139 117.019 56.4633Z" fill="black"/>
<path d="M117.467 57.9458C118.132 59.547 118.896 60.3967 120.007 61.7358C119.612 61.9548 119.61 61.9307 119.382 62.3079L119.261 62.3021L119.221 61.9305C119.043 61.6692 117.712 60.0666 117.481 59.9605C117.383 59.2281 117.524 58.7431 117.467 57.9458Z" fill="black"/>
<path d="M117.481 59.9605C117.712 60.0666 119.043 61.6692 119.221 61.9305L119.261 62.3021C118.805 62.5709 118.705 62.6536 118.428 63.1119L118.343 63.1147C117.88 62.637 117.595 60.6934 117.481 59.9605Z" fill="black"/>
<path d="M115.822 60.1427C116.096 61.8177 113.017 63.6735 111.71 64.1931C110.494 63.9015 110.212 63.6921 109.459 62.6841C109.919 62.6944 110.38 62.6969 110.841 62.6919C112.964 62.6521 114.411 61.6133 115.822 60.1427Z" fill="black"/>
<path d="M109.816 53.1909C109.828 52.3453 110.601 51.4845 111.305 52.4181C112.393 53.3121 112.056 54.9278 111.264 55.9132C110.736 56.5521 108.999 57.969 108.333 56.9119C108.262 56.4609 108.386 56.1222 108.491 55.6726C108.731 54.6771 109.189 53.9636 109.816 53.1909Z" fill="black"/>
<path d="M108.491 55.6726C108.848 55.5834 109.988 54.5944 110.633 54.2771C110.766 54.6857 111.022 55.6719 111.264 55.9132C110.736 56.5521 108.999 57.969 108.333 56.9119C108.262 56.4609 108.386 56.1222 108.491 55.6726Z" fill="black"/>
<path d="M109.816 53.1909C109.828 52.3453 110.601 51.4845 111.305 52.4181C110.577 52.7007 110.469 52.7638 109.816 53.1909Z" fill="white"/>
<path d="M117.638 51.4847C118.329 48.7534 119.769 46.7525 122.904 47.6972C124.896 48.2972 126.951 49.818 128.017 51.6492C128.519 52.5109 129.042 55.993 127.984 56.3903C127.644 56.2863 127.657 56.2839 127.362 56.0775C127.311 56.9313 127.367 58.0743 126.617 58.6065L126.498 58.6926C128.709 62.0585 132.091 68.1021 128.268 71.5606C128.192 71.9951 127.933 72.3337 127.638 72.6604C127.85 73.2552 127.823 74.3292 127.576 74.9044C126.498 77.418 123.634 76.8867 121.634 76.0484C120.011 75.3678 118.958 74.3923 118.344 72.7214C117.786 71.2024 117.609 69.5715 118.269 68.0679C118.159 67.4489 118.036 67.0662 117.946 66.3917C117.913 65.6294 117.858 65.2517 117.534 64.5647C117.831 64.3718 118.196 64.0881 118.49 63.8744L118.513 63.35L118.428 63.1119C118.705 62.6536 118.805 62.5709 119.261 62.3021L119.382 62.3079C119.61 61.9307 119.612 61.9548 120.007 61.7358C118.896 60.3967 118.132 59.547 117.467 57.9458C117.355 57.3054 117.158 57.0717 117.019 56.4633C116.977 56.0283 116.977 55.7542 116.98 55.3149L116.785 53.5242C117.133 52.8837 117.015 51.7493 117.532 51.322L117.638 51.4847Z" fill="white"/>
<path d="M118.269 68.0679C118.797 69.9305 119.555 71.2811 121.313 72.2005C123.395 73.2904 125.518 74.0912 127.638 72.6604C127.85 73.2552 127.823 74.3292 127.576 74.9044C126.498 77.418 123.634 76.8867 121.634 76.0484C120.011 75.3678 118.958 74.3923 118.344 72.7214C117.786 71.2024 117.609 69.5715 118.269 68.0679Z" fill="black"/>
<path d="M118.513 63.35C118.689 63.945 118.885 64.3001 119.046 64.7946C119.815 67.1637 120.652 69.142 122.894 70.4039C123.862 70.9486 125.181 71.3016 126.021 71.8646C126.459 71.8398 127.099 71.7832 127.52 71.8131C127.683 71.7787 128.09 71.6229 128.268 71.5606C128.192 71.9951 127.933 72.3337 127.638 72.6604C125.518 74.0912 123.395 73.2904 121.313 72.2005C119.555 71.2811 118.797 69.9305 118.269 68.0679C118.159 67.4489 118.036 67.0662 117.946 66.3917C117.913 65.6294 117.858 65.2517 117.534 64.5647C117.831 64.3718 118.196 64.0881 118.49 63.8744L118.513 63.35Z" fill="black"/>
<path d="M118.513 63.35C118.689 63.945 118.885 64.3001 119.046 64.7946C119.815 67.1637 120.652 69.142 122.894 70.4039C123.862 70.9486 125.181 71.3016 126.021 71.8646C126.459 71.8398 127.099 71.7832 127.52 71.8131C127.346 71.8669 127.254 71.8875 127.073 71.9109C124.988 72.183 122.881 71.5858 121.239 70.256C119.411 68.7901 118.748 66.1176 118.49 63.8744L118.513 63.35Z" fill="white"/>
<path d="M116.98 55.3149C117.33 54.558 116.694 54.2086 117.452 53.838C117.523 54.2941 117.572 54.8107 117.753 55.2241L117.866 54.98C118.336 56.5684 118.355 56.4295 119.103 57.7237C120.078 59.4068 124.379 62.9245 124.367 64.5563C123.846 65.2948 122.689 64.6344 122.126 64.2619C121.806 63.583 120.567 62.3501 120.007 61.7358C118.896 60.3967 118.132 59.547 117.467 57.9458C117.355 57.3054 117.158 57.0717 117.019 56.4633C116.977 56.0283 116.977 55.7542 116.98 55.3149Z" fill="black"/>
<path d="M126.498 58.6926C125.877 57.841 123.321 55.5831 123.809 54.4359C124.864 53.7043 126.587 55.3856 127.362 56.0775C127.311 56.9313 127.367 58.0743 126.617 58.6065L126.498 58.6926Z" fill="black"/>
<path d="M116.785 53.5242C117.133 52.8837 117.015 51.7493 117.532 51.322L117.638 51.4847C117.531 52.7104 117.608 53.7718 117.866 54.98L117.753 55.2241C117.572 54.8107 117.523 54.2941 117.452 53.838C116.694 54.2086 117.33 54.558 116.98 55.3149L116.785 53.5242Z" fill="black"/>
<path d="M120.007 61.7358C120.567 62.3501 121.806 63.583 122.126 64.2619C121.129 63.6904 120.459 62.8826 119.382 62.3079C119.61 61.9307 119.612 61.9548 120.007 61.7358Z" fill="black"/>
<path d="M96.2902 40.3468C96.5616 33.2223 104.456 38.9804 102.466 43.6923C103.168 44.0498 103.178 44.1441 103.533 44.8998C104.065 46.0281 104.345 49.5984 102.953 50.112L102.35 50.0112C101.73 55.424 101.177 61.2208 101.342 66.717C101.364 67.4902 102.028 69.4993 101.961 69.9254C101.634 70.1828 101.398 70.2082 100.988 70.3214L100.666 70.4042C101.135 70.5317 101.178 70.8356 101.349 71.2831C101.228 72.1616 102.075 72.8248 101.703 73.5614C100.417 74.2337 95.5018 74.7177 96.061 71.9223C93.1405 69.4744 94.4039 63.86 94.6403 60.5735C94.777 58.6558 94.8572 56.7287 94.9826 54.809C94.9826 53.3792 95.0926 50.2711 95.5275 48.8829C95.6056 48.6347 95.7115 48.6522 95.9253 48.5742C96.1761 47.1358 96.0404 46.7091 97.4056 46.1041C96.391 45.1292 95.7824 43.7981 95.7064 42.3836C95.6642 41.6385 95.7865 40.9068 96.2902 40.3468Z" fill="white"/>
<path d="M96.2902 40.3468C96.5616 33.2223 104.456 38.9804 102.466 43.6923L101.96 44.5277C101.984 45.2817 101.818 45.789 101.293 46.3583C100.145 45.9964 98.6166 46.0873 97.4056 46.1041C96.391 45.1292 95.7824 43.7981 95.7064 42.3836C95.6642 41.6385 95.7865 40.9068 96.2902 40.3468Z" fill="white"/>
<path d="M97.4056 46.1041C96.391 45.1292 95.7824 43.7981 95.7064 42.3836C95.6642 41.6385 95.7865 40.9068 96.2902 40.3468C96.9461 43.0887 98.7009 46.3852 101.96 44.5277C101.984 45.2817 101.818 45.789 101.293 46.3583C100.145 45.9964 98.6166 46.0873 97.4056 46.1041Z" fill="black"/>
<path d="M94.9826 54.809L95.143 54.2906L95.2108 54.2757C95.2746 54.8094 95.2273 55.3598 95.3003 55.8234C95.2509 59.569 94.6218 63.4823 94.9631 67.2076L95.0782 67.2856C95.9695 67.9055 96.5483 68.6536 97.5053 69.1855C98.4573 69.7148 100.342 69.6456 100.988 70.3214L100.666 70.4042C101.135 70.5317 101.178 70.8356 101.349 71.2831C101.228 72.1616 102.075 72.8248 101.703 73.5614C100.417 74.2337 95.5018 74.7177 96.061 71.9223C93.1405 69.4744 94.4039 63.86 94.6403 60.5735C94.777 58.6558 94.8572 56.7287 94.9826 54.809Z" fill="black"/>
<path d="M101.349 71.2831C101.228 72.1616 102.075 72.8248 101.703 73.5614C100.417 74.2337 95.5018 74.7177 96.061 71.9223C97.2052 72.1698 100.425 72.0535 101.349 71.2831Z" fill="black"/>
<path d="M94.9631 67.2076L95.0782 67.2856C95.9695 67.9055 96.5483 68.6536 97.5053 69.1855C98.4573 69.7148 100.342 69.6456 100.988 70.3214L100.666 70.4042C97.4231 70.7806 95.6724 71.1624 94.9631 67.2076Z" fill="white"/>
<path d="M102.466 43.6923C103.168 44.0498 103.178 44.1441 103.533 44.8998C104.065 46.0281 104.345 49.5984 102.953 50.112L102.35 50.0112C102.528 48.1954 102.967 47.3831 101.293 46.3583C101.818 45.789 101.984 45.2817 101.96 44.5277L102.466 43.6923Z" fill="black"/>
<path d="M94.9826 54.809C94.9826 53.3792 95.0926 50.2711 95.5275 48.8829C95.6056 48.6347 95.7115 48.6522 95.9253 48.5742C95.7742 50.3374 95.5542 54.2803 95.3003 55.8234C95.2273 55.3598 95.2746 54.8094 95.2108 54.2757L95.143 54.2906L94.9826 54.809Z" fill="black"/>
<path d="M55.3031 95.4957C54.4845 94.4732 54.3768 93.3331 54.5124 92.0566C54.746 89.7567 55.8717 87.6431 57.6421 86.1823C59.0777 85.0172 61.8633 83.6907 63.2588 85.6294C64.131 86.8414 63.9761 88.3302 63.7938 89.7265C64.0684 90.2804 63.9313 90.953 63.7167 91.6183C62.8156 94.4139 59.4103 97.7186 56.3181 97.0387C55.8464 96.9346 54.9616 96.1516 55.3031 95.4957Z" fill="white"/>
<path d="M63.7938 89.7265C64.0684 90.2804 63.9313 90.953 63.7167 91.6183C62.8156 94.4139 59.4103 97.7186 56.3181 97.0387C55.8464 96.9346 54.9616 96.1516 55.3031 95.4957C57.8805 97.4854 62.2303 93.7507 63.2336 91.3653C63.4801 90.7791 63.6254 90.3408 63.7938 89.7265Z" fill="black"/>
<path d="M56.695 91.1998C56.7754 90.2835 56.961 89.512 57.3694 88.6134C57.7783 87.7139 59.3789 85.6013 60.6103 86.2677C61.1173 86.5425 61.393 87.1922 61.5607 87.7441C62.4238 94.6523 55.8353 96.465 56.695 91.1998Z" fill="black"/>
<path d="M56.695 91.1998C56.7754 90.2835 56.961 89.512 57.3694 88.6134C57.7783 87.7139 59.3789 85.6013 60.6103 86.2677C61.1173 86.5425 61.393 87.1922 61.5607 87.7441C57.6446 86.6779 58.5887 89.891 56.695 91.1998Z" fill="black"/>
<path d="M33.9466 110.109C31.5749 109.791 31.8207 107.14 32.1182 105.307C32.6122 102.123 34.3522 99.2741 36.9451 97.4052C37.5215 96.9877 38.9629 96.1121 39.6522 96.2266C39.8469 96.4858 39.763 96.5764 39.7468 97.0002C41.27 97.9039 39.4126 98.9545 38.5857 99.4064C36.6633 100.455 35.4932 102.408 35.0323 104.525C34.9334 104.979 34.8401 106.283 34.648 106.623L34.0644 106.647C34.9531 108.566 36.1924 107.666 37.3753 106.562C37.4905 105.336 37.5541 104.105 37.5662 102.872C38.2655 102.209 38.7938 101.836 39.5829 101.289L39.5427 102.63C40.0691 102.69 40.0007 102.599 40.3346 102.888C40.3158 103.428 40.0458 106.887 39.8556 107.141C38.8151 108.527 35.1528 112.392 33.3206 110.478L33.32 110.246C33.5893 110.069 33.5809 110.128 33.9466 110.109Z" fill="white"/>
<path d="M39.7468 97.0002C41.27 97.9039 39.4126 98.9545 38.5857 99.4064C36.6633 100.455 35.4932 102.408 35.0323 104.525C34.9334 104.979 34.8401 106.283 34.648 106.623L34.0644 106.647C33.6451 103.65 34.8733 100.379 37.3553 98.6307C38.3112 97.9581 39.0587 98.0799 39.7468 97.0002Z" fill="black"/>
<path d="M39.5427 102.63C40.0691 102.69 40.0007 102.599 40.3346 102.888C40.3158 103.428 40.0458 106.887 39.8556 107.141C38.8151 108.527 35.1528 112.392 33.3206 110.478L33.32 110.246C33.5893 110.069 33.5809 110.128 33.9466 110.109C36.1866 109.537 37.8197 107.7 39.3641 106.083C39.3892 104.838 39.4134 103.87 39.5427 102.63Z" fill="black"/>
<path d="M64.8596 84.8142C64.7717 84.5362 64.7096 84.1072 64.92 83.8761C66.0882 82.5923 69.7228 80.9514 71.307 82.0311C72.1355 82.5954 72.0379 83.9011 71.7994 84.7402C72.3103 85.7294 71.198 86.8486 70.391 87.2651C70.8917 87.8503 72.52 89.5745 72.6218 90.1804C72.4789 90.3991 72.5765 90.3064 72.2476 90.3824C72.4182 90.6687 72.5015 90.9353 72.4316 91.2654C72.2825 91.4122 71.9083 91.7734 71.712 91.8057C69.5954 92.1576 69.179 89.663 67.2668 88.9321C67.211 89.5151 66.9915 91.3986 67.1201 91.8578C67.3849 93.0166 66.1376 94.0911 65.1439 93.7184C64.9485 93.4362 64.9364 93.304 64.948 92.9C64.8516 92.5085 65.4715 86.6227 65.5523 85.7086C65.1612 85.8158 65.0835 85.8325 64.7998 85.6044C64.7125 85.266 64.773 85.1505 64.8596 84.8142Z" fill="white"/>
<path d="M67.2668 88.9321C67.3167 88.5604 67.301 88.2521 67.5521 88.0054C68.4543 87.8367 69.7084 90.0711 70.6501 90.7864C71.1127 90.6292 71.7983 90.3314 72.2476 90.3824C72.4182 90.6687 72.5015 90.9353 72.4316 91.2654C72.2825 91.4122 71.9083 91.7734 71.712 91.8057C69.5954 92.1576 69.179 89.663 67.2668 88.9321Z" fill="black"/>
<path d="M67.1201 91.8578C67.3849 93.0166 66.1376 94.0911 65.1439 93.7184C64.9485 93.4362 64.9364 93.304 64.948 92.9C65.6599 92.6095 66.4245 92.2055 67.1201 91.8578Z" fill="black"/>
<path d="M71.7994 84.7402C72.3103 85.7294 71.198 86.8486 70.391 87.2651L70.0374 86.9371C70.0497 86.3322 71.1805 85.8533 71.7994 84.7402Z" fill="black"/>
<path d="M64.8596 84.8142C65.2514 84.5716 65.2159 84.5018 65.5874 84.5226C65.7253 84.7996 65.5962 85.3691 65.5523 85.7086C65.1612 85.8158 65.0835 85.8325 64.7998 85.6044C64.7125 85.266 64.773 85.1505 64.8596 84.8142Z" fill="black"/>
<path d="M67.7062 83.4825C68.7421 83.0129 69.5614 82.8182 69.875 84.2238C69.7979 85.7752 68.7349 86.3385 67.4618 86.8903C67.5645 85.8158 67.6168 84.5872 67.7062 83.4825Z" fill="black"/>
<path d="M67.7062 83.4825C68.7421 83.0129 69.5614 82.8182 69.875 84.2238C69.5913 84.5258 68.298 84.3904 67.8914 84.3311C67.6705 84.1239 67.7383 83.8927 67.7062 83.4825Z" fill="black"/>
<path d="M98.3781 76.8224C98.9733 76.7587 99.5685 76.7038 100.165 76.6576C100.024 77.8791 99.4575 84.6799 99.1357 85.2588L98.9178 85.4076C99.2025 86.2083 97.7119 87.3932 97.0016 86.529C96.2388 85.6003 95.6323 84.5737 94.9734 83.57C94.4717 82.8057 93.9444 82.0165 93.563 81.1877C93.5054 81.0628 93.5249 80.1653 93.526 79.9935C93.4345 81.0295 93.3101 85.0838 92.9678 85.7356L92.8362 85.8418C92.7282 86.428 92.6861 86.8726 92.1556 87.1995C91.6653 87.5015 91.103 87.438 90.8347 86.9194C90.845 86.579 90.884 86.2916 91.1688 86.0761C91.5142 84.8444 92.0354 79.1498 91.9788 77.8606L91.9511 77.1546C92.6162 77.0483 93.3985 76.9896 94.078 76.9226C95.1677 78.1342 96.2995 80.0486 97.1836 81.4564C97.7202 80.452 97.2103 79.6719 97.5454 78.635C97.6698 78.2503 97.8774 78.2396 98.2208 78.0793L98.3781 76.8224Z" fill="white"/>
<path d="M93.526 79.9935L93.4849 79.3206C93.7676 79.3916 96.7292 84.2811 97.2987 84.8527C98.0132 85.5669 97.7376 85.5524 98.9178 85.4076C99.2025 86.2083 97.7119 87.3932 97.0016 86.529C96.2388 85.6003 95.6323 84.5737 94.9734 83.57C94.4717 82.8057 93.9444 82.0165 93.563 81.1877C93.5054 81.0628 93.5249 80.1653 93.526 79.9935Z" fill="black"/>
<path d="M97.1836 81.4564C97.7202 80.452 97.2103 79.6719 97.5454 78.635C97.6698 78.2503 97.8774 78.2396 98.2208 78.0793C98.1283 79.4973 97.9885 81.0742 97.9381 82.4819C97.7058 82.1727 97.385 81.775 97.1836 81.4564Z" fill="black"/>
<path d="M91.1688 86.0761L92.8362 85.8418C92.7282 86.428 92.6861 86.8726 92.1556 87.1995C91.6653 87.5015 91.103 87.438 90.8347 86.9194C90.845 86.579 90.884 86.2916 91.1688 86.0761Z" fill="black"/>
<path d="M77.4708 85.7419L77.4287 85.5045C76.706 81.7104 79.7293 78.5385 83.2975 78.1164C84.3717 77.9894 84.9268 78.0215 85.999 78.189C85.889 78.6057 85.7831 79.0234 85.6814 79.4422L85.5868 79.8782C85.4583 80.1701 85.412 80.4407 85.1036 80.5065C83.98 80.7463 83.1833 80.4528 82.105 80.9545C81.5375 81.2179 80.0932 82.6683 79.8023 82.5121C79.5443 83.2045 79.498 84.4123 79.7961 85.1036C80.0408 85.6846 80.5188 86.1333 81.1099 86.3353C81.8716 86.6019 82.5748 86.4488 83.3149 86.1802C83.5205 85.1348 83.5195 84.0895 83.573 83.0223C84.3224 82.8265 84.9227 82.6849 85.6834 82.5444C85.6526 83.1701 85.5889 86.2239 85.3401 86.579L85.2815 86.6175C85.2969 86.8965 85.3205 87.491 85.1108 87.6837C84.197 88.5239 82.0752 88.9914 80.894 89.1382C80.0552 89.2423 78.9357 89.1215 78.358 88.5447C77.9694 88.1564 77.1429 87.0235 77.1418 86.429C77.1418 86.0271 77.2467 85.9938 77.4708 85.7419Z" fill="white"/>
<path d="M85.2815 86.6175C85.2969 86.8965 85.3205 87.491 85.1108 87.6837C84.197 88.5239 82.0752 88.9914 80.894 89.1382C80.0552 89.2423 78.9357 89.1215 78.358 88.5447C77.9694 88.1564 77.1429 87.0235 77.1418 86.429C77.1418 86.0271 77.2467 85.9938 77.4708 85.7419C77.9478 86.7122 78.3631 87.4629 79.498 87.8013C81.3196 88.3438 83.6161 87.3088 85.2815 86.6175Z" fill="black"/>
<path d="M82.0824 79.7922C82.8719 79.8566 84.7891 79.9666 85.5868 79.8782C85.4583 80.1701 85.412 80.4407 85.1036 80.5065C83.98 80.7463 83.1833 80.4528 82.105 80.9545C81.5375 81.2179 80.0932 82.6683 79.8023 82.5121C80.2669 81.0867 80.8529 80.5168 82.0824 79.7922Z" fill="black"/>
<path d="M82.0824 79.7922C83.5946 79.1919 84.0972 79.259 85.6814 79.4422L85.5868 79.8782C84.7891 79.9666 82.8719 79.8566 82.0824 79.7922Z" fill="black"/>
<path d="M104.994 76.9512C105.606 76.8636 105.978 76.8099 106.598 76.7971C107.738 79.2904 108.637 82.5163 109.83 85.2806L108.049 85.2796C108.313 85.3368 108.298 85.3264 108.518 85.4826C108.723 85.8491 108.656 86.2562 108.644 86.6893L106.88 86.6831C106.598 85.8835 106.3 85.089 105.984 84.3019C105.189 84.2769 103.257 84.457 102.723 84.2957C102.565 84.5726 102.34 85.0026 102.159 85.2504C101.533 85.2005 101.14 85.1827 100.511 85.1952L100.325 85.0713C100.342 84.9037 104.562 77.5508 104.994 76.9512Z" fill="white"/>
<path d="M103.443 82.9348C104.727 83.0379 105.501 83.0265 106.787 82.9484C106.948 83.4169 107.424 84.9766 107.779 85.2369L108.049 85.2796C108.313 85.3368 108.298 85.3264 108.518 85.4826C108.723 85.8491 108.656 86.2562 108.644 86.6893L106.88 86.6831C106.598 85.8835 106.3 85.089 105.984 84.3019C105.189 84.2769 103.257 84.457 102.723 84.2957C102.961 83.8178 103.163 83.3909 103.443 82.9348Z" fill="black"/>
<path d="M105.511 79.0764C105.986 79.7003 106.249 81.0305 106.502 81.801L104.876 81.7625C104.624 81.7219 104.347 81.7635 104.091 81.777C104.464 80.7983 104.951 79.9583 105.511 79.0764Z" fill="black"/>
<path d="M41.5722 94.6648C42.2895 94.0005 42.7261 93.7777 43.5791 93.3696C43.5723 93.7642 43.5429 94.1755 43.5208 94.5711C43.9903 94.5492 43.9418 94.4732 44.2495 94.6867C44.382 95.8903 44.0663 98.1434 44.008 99.4064C43.9735 100.155 43.94 101.448 43.8383 102.136C44.8563 101.471 45.7547 100.909 46.8064 100.301L46.4226 101.74L46.9074 101.789C47.4234 102.871 45.2136 104.109 44.4353 104.632C43.8704 105.012 42.4288 105.974 41.7981 106.017C41.3831 105.649 41.6732 105.526 41.5486 105.058L41.1647 105.16L41.0096 105.051C40.9374 104.257 41.1093 102.531 41.1584 101.668C41.2838 99.3324 41.4217 96.9981 41.5722 94.6648Z" fill="white"/>
<path d="M46.4226 101.74L46.9074 101.789C47.4234 102.871 45.2136 104.109 44.4353 104.632C43.8704 105.012 42.4288 105.974 41.7981 106.017C41.3831 105.649 41.6732 105.526 41.5486 105.058C42.6618 104.064 44.8172 103.285 46.4226 101.74Z" fill="black"/>
<path d="M43.5208 94.5711C43.9903 94.5492 43.9418 94.4732 44.2495 94.6867C44.382 95.8903 44.0663 98.1434 44.008 99.4064C43.9735 100.155 43.94 101.448 43.8383 102.136L43.0945 102.602C43.1359 100.186 43.2828 96.969 43.5208 94.5711Z" fill="black"/>
<path d="M47.9365 90.9842C48.4292 90.6167 49.2796 89.8202 49.8671 89.9316C50.0697 90.2315 49.9868 90.3023 49.9772 90.7573C50.1925 90.8593 50.4898 90.9405 50.522 91.1966C50.769 93.1676 50.4228 95.4676 50.1573 97.4219C50.0192 98.437 49.6598 99.3585 49.8622 100.162C49.863 101.606 49.088 101.846 47.8919 102.426L47.7095 101.307C47.5352 101.259 47.6185 101.3 47.4655 101.168C47.432 100.204 47.5561 98.6692 47.6101 97.6551C47.7416 95.4332 47.8504 93.2092 47.9365 90.9842Z" fill="white"/>
<path d="M49.9772 90.7573C50.1925 90.8593 50.4898 90.9405 50.522 91.1966C50.769 93.1676 50.4228 95.4676 50.1573 97.4219C50.0192 98.437 49.6598 99.3585 49.8622 100.162L49.4489 100.137C49.3966 97.7384 49.8066 93.3082 49.9772 90.7573Z" fill="black"/>
<path d="M49.4489 100.137L49.8622 100.162C49.863 101.606 49.088 101.846 47.8919 102.426L47.7095 101.307C48.3306 100.944 48.8634 100.554 49.4489 100.137Z" fill="black"/>
<path d="M111.446 77.2894L113.409 77.4569C113.29 79.7074 112.905 82.2664 112.869 84.4216C113.77 84.5049 115.839 84.6122 116.606 84.7496C116.449 85.138 116.346 85.3858 116.151 85.7544C115.496 86.1146 112.569 85.543 111.603 85.4503L111.515 85.4535C110.652 85.4493 110.627 85.3868 109.979 85.9459C109.979 85.898 109.986 85.8501 109.978 85.8033C109.774 84.6434 110.278 80.3871 110.462 78.9625C110.771 78.7227 110.772 78.8034 111.248 78.7751C111.303 78.3034 111.352 77.7472 111.446 77.2894Z" fill="white"/>
<path d="M109.979 85.9459C109.979 85.898 109.986 85.8501 109.978 85.8033C109.774 84.6434 110.278 80.3871 110.462 78.9625C110.771 78.7227 110.772 78.8034 111.248 78.7751C111.14 79.9415 110.676 84.2186 110.751 85.1234C110.952 85.3493 111.212 85.3733 111.515 85.4535C110.652 85.4493 110.627 85.3868 109.979 85.9459Z" fill="black"/>
<path d="M118 78.1927L119.985 78.5298C119.888 79.6309 119.482 85.6502 119.255 86.3104C118.869 86.3832 118.693 86.3187 118.312 86.2416C118.318 86.7497 118.382 87.1933 118.053 87.5743C117.647 87.7618 116.841 87.6431 116.337 87.616C116.36 86.9965 116.465 86.2552 116.151 85.7544C116.346 85.3858 116.449 85.138 116.606 84.7496C116.586 83.8865 116.655 80.5159 117.104 79.8884C117.45 79.7083 117.274 79.7386 117.648 79.7766L117.758 80.1258C117.835 79.4958 117.905 78.8153 118 78.1927Z" fill="white"/>
<path d="M116.606 84.7496C116.586 83.8865 116.655 80.5159 117.104 79.8884C117.45 79.7083 117.274 79.7386 117.648 79.7766L117.758 80.1258C117.597 81.9426 117.324 84.2623 117.263 86.0469L118.312 86.2416C118.318 86.7497 118.382 87.1933 118.053 87.5743C117.647 87.7618 116.841 87.6431 116.337 87.616C116.36 86.9965 116.465 86.2552 116.151 85.7544C116.346 85.3858 116.449 85.138 116.606 84.7496Z" fill="black"/>
<path d="M74.173 80.3468C74.8391 80.1239 75.5084 79.9061 76.1786 79.6934C76.1591 80.5263 75.715 88.8727 75.5351 89.209C75.5484 89.5047 75.6153 89.9982 75.4015 90.2148C74.8484 90.776 74.3848 91.0092 73.6292 90.828C73.329 90.5074 73.3917 90.322 73.4832 89.8847C73.4596 89.0914 73.6148 87.5202 73.6765 86.6831C73.8307 84.5695 73.9962 82.458 74.173 80.3468Z" fill="white"/>
<path d="M73.4832 89.8847L75.5351 89.209C75.5484 89.5047 75.6153 89.9982 75.4015 90.2148C74.8484 90.776 74.3848 91.0092 73.6292 90.828C73.329 90.5074 73.3917 90.322 73.4832 89.8847Z" fill="black"/>
<path d="M87.8782 77.69C88.5094 77.5502 89.3153 77.4415 89.966 77.3368C89.8735 79.5198 89.6011 83.9 89.2783 86.1969C89.2629 86.3062 89.0141 86.3051 88.8424 86.3353C88.2976 86.4322 87.7065 86.5259 87.1678 86.6341C87.4608 85.4243 87.8052 79.172 87.8782 77.69Z" fill="white"/>
<path d="M111.515 85.4535L111.603 85.4503C112.474 86.5696 114.531 85.7856 115.41 86.4759C115.329 87.5608 113.234 87.162 112.492 87.0777C112.007 87.0225 110.317 86.8643 110.002 86.6081C109.941 86.275 109.943 86.2843 109.979 85.9459C110.627 85.3868 110.652 85.4493 111.515 85.4535Z" fill="black"/>
<path d="M100.511 85.1952C101.14 85.1827 101.533 85.2005 102.159 85.2504C101.869 86.8122 100.897 86.6029 99.6415 86.5165C99.8522 86.0209 100.047 85.467 100.511 85.1952Z" fill="black"/>
<path d="M87.1678 86.6341C87.7065 86.5259 88.2976 86.4322 88.8424 86.3353C89.2033 86.6779 89.0532 86.9528 88.9422 87.4296C88.4004 87.6014 87.689 87.8888 87.1504 87.8503C86.7628 87.6066 86.9047 86.8476 87.1678 86.6341Z" fill="black"/>
</svg>
