<svg width="148" height="148" viewBox="0 0 148 148" fill="none" xmlns="http://www.w3.org/2000/svg">
<path d="M35.7643 75.234C36.3519 75.1652 40.1252 75.1325 40.5151 75.3077C40.6125 75.6036 40.5548 76.0491 40.5256 76.3598C39.9474 76.4574 39.2664 76.3941 38.6763 76.3946C37.706 76.3954 36.7096 76.44 35.7438 76.3665C35.715 76.0134 35.6747 75.5775 35.7643 75.234Z" fill="white"/>
<path d="M15.0359 70.3187L17.8162 70.315C18.1088 70.3153 18.3431 70.3061 18.5615 70.5266C18.7053 70.6718 19.136 71.2118 19.1353 71.4142L19.049 71.453C18.4105 71.4596 15.9021 71.6318 15.5168 71.2843C15.3853 71.1658 14.881 70.5712 14.8726 70.4232L15.0359 70.3187Z" fill="white"/>
<path d="M16.4184 72.4527C17.5658 72.3905 18.748 72.4482 19.8991 72.4478C20.0869 72.6375 20.6203 73.1515 20.647 73.4105C20.6548 73.4862 20.6275 73.507 20.5838 73.5625C19.9809 73.5267 17.477 73.6935 17.1562 73.4886C16.8807 73.3127 16.7502 72.9395 16.5164 72.7092C16.4144 72.6088 16.4206 72.5955 16.4184 72.4527Z" fill="white"/>
<path d="M15.5421 76.4375C16.2396 76.4488 18.3863 76.3217 18.9123 76.4981L18.9156 76.5689C18.7339 76.9102 18.4315 77.2677 18.1605 77.5437C17.4166 77.6156 15.6162 77.6011 14.8663 77.5374C14.855 77.5199 14.8304 77.4921 14.8321 77.4719C14.8609 77.1432 15.2959 76.6456 15.5421 76.4375Z" fill="white"/>
<path d="M17.1609 74.3331C17.8191 74.2857 19.9059 74.2616 20.521 74.3698L20.5615 74.4568C20.4012 74.8034 20.0547 75.0905 19.84 75.4155C19.3949 75.4818 16.7922 75.5198 16.447 75.3845C16.4472 75.3769 16.4476 75.3692 16.4482 75.3616C16.4736 75.0467 16.9244 74.5324 17.1609 74.3331Z" fill="white"/>
<path d="M74.5855 80C74.186 79.8022 73.6927 79.8303 73.2703 79.7126C69.5396 78.6794 69.2098 73.2831 72.9897 72.0546C74.1363 71.6819 75.5771 71.8443 76.7822 71.8278C78.497 71.8044 80.2333 72.8041 80.7218 74.5126C81.022 75.5631 80.9555 76.6997 80.4684 77.6712C80.0141 78.581 79.2192 79.2742 78.2567 79.5999C77.8431 79.7372 76.9063 79.8432 76.6562 80H74.5855ZM76.8801 78.464C77.6871 78.345 78.3621 78.0918 78.8679 77.408C79.2909 76.8452 79.4703 76.136 79.3658 75.4395C79.2679 74.7939 78.9218 74.1778 78.3934 73.7895C77.5443 73.165 76.5045 73.1995 75.503 73.207C75.1138 73.2099 74.7152 73.196 74.3283 73.2281C73.5958 73.3032 72.903 73.5974 72.4295 74.1782C71.9724 74.7388 71.7878 75.4404 71.8632 76.1559C71.9316 76.8097 72.2609 77.4521 72.7738 77.8674C73.7593 78.6649 75.6614 78.5071 76.8801 78.464Z" fill="white"/>
<path d="M109.637 80C109.598 79.8986 109.55 79.7761 109.569 79.6662C109.666 79.107 109.884 78.5172 110.05 77.9738L110.78 75.4979L111.389 73.4157C111.497 73.0451 111.586 72.6388 111.741 72.286C111.82 72.1058 111.935 71.8618 112.132 71.7847C112.355 71.6969 112.649 71.7169 112.866 71.8153C113.034 71.8918 113.133 72.0184 113.229 72.1738C113.741 73.0109 114.338 74.4934 114.775 75.4347C115.039 76.0043 115.384 76.577 115.601 77.162C115.673 77.3535 115.706 77.6103 115.913 77.7037C115.923 77.7081 115.933 77.712 115.943 77.7158C116.167 77.5499 117.824 73.8245 118.065 73.3103C118.251 72.9118 118.433 72.3664 118.709 72.0342C118.873 71.8361 119.137 71.6533 119.407 71.6934C119.615 71.7242 119.778 71.8682 119.898 72.0323C120.013 72.1906 120.088 72.3721 120.151 72.5564C120.343 73.1161 120.442 73.6998 120.618 74.2596C120.981 75.4147 121.321 76.5737 121.662 77.7362C121.848 78.3701 122.068 79.0124 122.209 79.6573L122.054 80H120.886C120.846 79.798 120.677 79.6254 120.615 79.4258C120.345 78.5545 120.114 77.6647 119.854 76.7891C119.737 76.3969 119.365 74.8913 119.249 74.6798C119.19 74.5708 119.135 74.51 119.017 74.476C118.827 74.6744 118.367 75.8372 118.216 76.1587C117.72 77.22 117.185 78.5376 116.623 79.5325C116.521 79.7131 116.321 79.8099 116.214 80H115.534C115.436 79.8112 115.24 79.743 115.14 79.5544C114.487 78.3245 113.938 77.0097 113.355 75.744C113.225 75.4624 112.866 74.5121 112.662 74.3756C112.525 74.5195 111.16 79.1612 111.116 79.6312L110.736 80H109.637Z" fill="white"/>
<path d="M103.283 80C103.034 79.8109 102.241 79.7616 101.911 79.6571C97.8529 78.3714 98.2614 72.2918 102.654 71.8692C103.461 71.7916 104.21 71.83 105.016 71.823C105.994 71.8359 107.066 71.7986 108.033 71.835C108.043 72.1616 108.067 72.8762 108.025 73.1952C106.933 73.2461 105.817 73.1903 104.722 73.2063C103.815 73.2196 102.891 73.115 102.047 73.5204C100.406 74.3125 100.148 76.5733 101.468 77.7888C102.426 78.6705 103.735 78.449 104.931 78.4648C105.318 78.4699 106.676 78.527 106.928 78.3972C107.065 78.2199 107.057 76.6735 106.926 76.4598C106.588 76.3108 103.761 76.4195 103.155 76.3869C103.137 76.0274 103.12 75.5698 103.15 75.2094C103.704 75.2103 108.32 75.1726 108.496 75.2699C108.604 75.5412 108.593 79.0033 108.56 79.5011C108.551 79.6415 108.53 79.7659 108.474 79.8953C108.458 79.9314 108.441 79.9661 108.421 80H103.283Z" fill="white"/>
<path d="M92.8965 76.4917C91.1363 76.1683 88.9457 76.6516 87.2108 76.254C84.7377 75.6872 85.0464 71.9773 87.6946 71.8569C89.9063 71.7408 92.1742 71.8841 94.3906 71.8198C94.4187 72.1662 94.422 72.8525 94.3916 73.2122L90.0052 73.2072C89.2927 73.2068 88.0773 73.0704 87.4848 73.454C87.0009 73.7674 86.9696 74.507 87.3738 74.8905C87.4216 74.9399 87.4581 74.9806 87.4988 75.0353C89.1874 75.5427 91.6628 74.9018 93.4094 75.364C95.2679 75.8556 95.304 78.6963 93.7565 79.5449C93.2642 79.815 92.6689 79.7434 92.2262 80H85.9288C85.6042 79.6248 85.6159 79.2804 85.6515 78.8041C85.6586 78.7112 85.6923 78.6205 85.763 78.5586C86.1518 78.2207 92.0141 78.7839 92.9649 78.2848C93.1911 78.1659 93.4286 77.7027 93.4501 77.4525C93.4721 77.1941 93.3349 76.9389 93.1719 76.7476C93.089 76.6508 92.9845 76.5811 92.8965 76.4917Z" fill="white"/>
<path d="M59.7602 79.6791C59.7605 78.8852 59.6882 72.2386 59.8418 71.8818C60.7377 71.7172 62.2857 71.8565 63.2464 71.823C64.266 71.7875 65.6258 71.8087 66.6478 71.8623C67.7742 71.9214 68.941 72.8626 69.1045 74.0486C69.3433 75.7792 68.9152 76.6051 67.4145 77.4899C67.7471 77.7864 69.7424 79.517 69.7822 79.7692C69.7452 79.8925 69.7251 79.9119 69.6304 80H68.0586C68.0019 79.9281 67.7536 79.7695 67.6628 79.6861C67.4272 79.4698 67.0862 79.1121 66.8782 78.905C66.54 78.6072 66.0632 78.0035 65.7204 77.7616C65.2056 77.3984 62.7574 77.9307 62.43 77.5081C62.3522 77.3446 62.3752 76.6779 62.4201 76.5189C62.8258 76.1285 66.8806 76.8513 67.3677 75.8955C67.9864 74.6499 67.6548 73.23 66.0323 73.2228C64.5494 73.2162 62.8646 73.1432 61.3808 73.2646C61.2197 73.2778 61.2759 74.9305 61.2773 75.1566L61.2862 78.3137C61.2871 78.8189 61.3616 79.5681 61.1316 80H60.0099C59.9172 79.8488 59.8874 79.8024 59.7602 79.6791Z" fill="white"/>
<path d="M33.1576 71.8274L40.8433 71.8233C40.8609 72.0358 40.9711 73.1268 40.7468 73.1715C39.9282 73.3346 35 73.0535 34.7275 73.3026C34.4188 74.2476 34.8022 77.0388 34.6493 78.1557C34.586 78.6182 35.7984 78.4762 36.1182 78.4751L39.178 78.4632C39.5334 78.4621 40.5984 78.3855 40.8208 78.5793C40.9818 78.9006 40.9415 79.7131 40.7009 80H33.2765C33.2052 79.8935 33.1487 79.7757 33.1491 79.6473C33.1531 78.522 33.1056 77.2737 33.1387 76.1559C33.1787 74.8031 33.0744 73.1391 33.1576 71.8274Z" fill="white"/>
<path d="M122.958 80C122.87 79.8501 122.847 79.8251 122.85 79.6488C122.936 79.4591 123.11 79.2194 123.229 79.0387C124.687 76.8184 126.108 74.5729 127.568 72.3535C127.652 72.2255 127.908 71.8572 128.043 71.7999C128.395 71.6498 128.846 71.7183 129.088 72.0387C129.371 72.4579 129.637 72.8769 129.904 73.2901L131.609 75.9223L133.188 78.3536C133.412 78.6973 133.829 79.292 134 79.6302V80H132.467C132.358 79.8146 132.197 79.6584 132.076 79.4771C131.77 79.0185 131.493 78.4796 131.141 78.0595C131.093 78.0016 131.025 77.917 130.951 77.8956C130.567 77.786 130.086 77.8368 129.688 77.838C128.782 77.8408 127.844 77.8959 126.941 77.8173C127.115 77.5313 127.351 76.9919 127.611 76.7972C127.932 76.5565 129.697 76.9514 130.149 76.6341C130.18 76.5458 130.177 76.5327 130.136 76.4478C129.858 75.869 129.378 75.2854 129.021 74.7454C128.868 74.5146 128.748 74.2569 128.584 74.0348C128.518 73.9456 128.481 73.8889 128.375 73.852C128.044 74.0875 127.769 74.6592 127.551 75.0024L125.592 78.0914C125.265 78.6062 124.949 79.1911 124.565 79.6632C124.458 79.7952 124.323 79.8992 124.187 80H122.958Z" fill="white"/>
<path d="M45.227 80C45.1508 79.9156 44.9889 79.7625 44.9613 79.6541C44.8744 79.3129 44.9395 78.7887 44.9405 78.4274C44.942 77.8344 45.0447 73.5045 44.8696 73.2992C44.7971 73.2142 44.6507 73.2057 44.5472 73.2005C43.9577 73.1701 42.0816 73.3536 41.6885 73.116C41.5983 72.8515 41.6231 72.1532 41.7213 71.8912C41.8474 71.7712 42.5547 71.8295 42.763 71.826C45.0786 71.7875 47.427 71.882 49.7393 71.8169C49.7741 72.2801 49.759 72.7512 49.7518 73.2161C48.9913 73.2123 47.4241 73.1868 46.6192 73.2305C46.5905 73.2567 46.5658 73.2792 46.5451 73.2981C46.4036 73.7056 46.4841 74.4035 46.4625 74.7813C46.4161 75.5952 46.5793 79.4994 46.3684 80H45.227Z" fill="white"/>
<path d="M24.701 71.8306C24.9803 71.8259 25.954 71.7731 26.1393 71.9013C26.4392 72.5293 25.9411 78.3597 26.3912 78.4171C27.5257 78.5616 29.4559 78.4182 30.6842 78.4602C32.073 78.5077 32.0403 78.1591 32.0594 79.6579L31.7757 80H24.923C24.8298 79.9318 24.6977 79.8259 24.694 79.7074C24.6669 78.8342 24.6812 77.8673 24.6816 76.9995L24.6837 73.6849C24.6842 73.1108 24.663 72.3878 24.701 71.8306Z" fill="white"/>
<path d="M54.1453 80C54.0848 79.8959 54.0195 79.781 53.9979 79.6614C53.8442 78.8077 54.1746 73.5815 53.8712 73.2821C53.8449 73.256 53.7766 73.2368 53.7401 73.227C53.3158 73.1128 50.8585 73.3534 50.7273 73.126C50.6031 72.911 50.6424 72.1667 50.7076 71.9289C50.7215 71.8787 50.7723 71.8627 50.8158 71.8367C51.5164 71.7999 58.5503 71.801 58.7045 71.8835C58.826 72.1396 58.768 72.7404 58.7522 73.035C58.6981 73.1229 58.667 73.1767 58.5417 73.1915C57.6311 73.2991 56.3633 73.1336 55.483 73.2386C55.4385 73.7667 55.4578 74.4821 55.4581 75.0304L55.4628 77.9975C55.4644 78.5073 55.5667 79.6361 55.2668 80H54.1453Z" fill="white"/>
<path d="M14 78.313L20.1348 78.3113C21.0668 78.3113 22.5082 78.2676 23.4082 78.3329C23.5794 78.5359 23.5712 79.583 23.4253 79.8097C23.2433 79.9311 14.9787 79.8756 14 79.8769V78.313Z" fill="white"/>
<path d="M14 68H22.9778C22.9817 68.3319 23.0198 69.2403 22.9204 69.5055C22.6741 69.6185 14.7824 69.5718 14 69.5699V68Z" fill="white"/>
<path d="M96.2478 79.6743C96.2473 78.6429 96.1363 72.4333 96.3204 71.8762C96.5625 71.7852 97.4267 71.8186 97.7377 71.8217C97.8356 73.2592 97.7171 75.0635 97.7625 76.5417C97.7925 77.521 97.7527 78.6684 97.7415 79.6537C97.7396 79.8001 97.6492 79.8858 97.5817 79.9937L97.578 80H96.4525C96.385 79.8857 96.3251 79.7829 96.2478 79.6743Z" fill="white"/>
</svg>
