<svg width="148" height="148" viewBox="0 0 148 148" fill="none" xmlns="http://www.w3.org/2000/svg">
<path d="M23.5518 90.963H16V102.975H19.1641V98.1885H23.0363V95.5133H19.1641V93.5585H23.5518V90.963Z" fill="white"/>
<path d="M33.9004 98.6166C34.7714 97.8134 35.3314 96.6648 35.3314 95.3803C35.3314 92.9472 33.3375 90.9599 30.8963 90.9599H25.8212V102.972H28.9853V99.7859H30.9437L32.8072 102.972H36.4542L33.9004 98.6166ZM30.9466 97.0634H28.9883V93.6204H30.9466C31.9095 93.6204 32.6827 94.3911 32.6827 95.3508C32.6827 96.3105 31.9095 97.0634 30.9466 97.0634Z" fill="white"/>
<path d="M45.357 93.5702V90.9599H37.8704V102.972H45.357V100.394H41.0345V98.1826H44.8593V95.525H41.0345V93.5702H45.357Z" fill="white"/>
<path d="M50.9031 95.5427C50.4054 95.5427 50.0054 95.1411 50.0054 94.6451C50.0054 94.149 50.4054 93.7326 50.9031 93.7326C51.4008 93.7326 51.8215 94.149 51.8215 94.6451H54.6153C54.6153 92.5958 52.9621 90.9629 50.9031 90.9629C48.8441 90.9629 47.2087 92.6135 47.2087 94.6628C47.2087 96.712 48.847 98.345 50.9031 98.345C51.4008 98.345 51.8215 98.7643 51.8215 99.2603C51.8215 99.7564 51.4008 100.155 50.9031 100.155C50.4054 100.155 50.0054 99.7564 50.0054 99.2426H47.1938C47.1938 101.357 48.85 102.975 50.9061 102.975C52.9622 102.975 54.6183 101.342 54.6183 99.2928C54.6183 98.4099 54.3309 97.6097 53.8154 96.9689C53.1399 96.1067 52.0793 95.5457 50.9061 95.5457L50.9031 95.5427Z" fill="white"/>
<path d="M63.9832 98.9828C63.4826 99.4936 62.7774 99.7859 61.9568 99.7859C60.3184 99.7859 59.1304 98.5989 59.1304 96.966C59.1304 95.3331 60.3155 94.146 61.9568 94.146C62.7774 94.146 63.4826 94.4354 63.9832 94.9315L66.1964 92.705C65.1031 91.6155 63.61 90.9599 61.9538 90.9599C58.6297 90.9599 55.9307 93.65 55.9307 96.966C55.9307 100.282 58.6297 102.972 61.9538 102.972C63.6248 102.972 65.1357 102.281 66.2289 101.194L63.9832 98.9828Z" fill="white"/>
<path d="M72.4387 90.9599C69.1116 90.9599 66.4304 93.6677 66.4304 96.9808C66.4304 100.294 69.1146 102.969 72.4387 102.969C75.7628 102.969 78.4618 100.294 78.4618 96.9808C78.4618 93.6677 75.7657 90.9599 72.4387 90.9599ZM72.4387 99.8332C70.8655 99.8332 69.5767 98.5339 69.5767 96.966C69.5767 95.398 70.8625 94.0988 72.4387 94.0988C74.0148 94.0988 75.3125 95.3803 75.3125 96.966C75.3125 98.5517 74.0296 99.8332 72.4387 99.8332Z" fill="white"/>
<path d="M83.8834 99.8037V90.9658H80.7193V102.975H88.2237V99.8037H83.8834Z" fill="white"/>
<path d="M98.1457 93.5732V90.9629H90.659V102.972H98.1457V100.394H93.8232V98.1826H97.6479V95.525H93.8232V93.5732H98.1457Z" fill="white"/>
<path d="M104.104 95.5427C103.606 95.5427 103.203 95.1441 103.203 94.648C103.203 94.1519 103.606 93.7326 104.104 93.7326C104.601 93.7326 105.019 94.1519 105.019 94.648H107.816C107.816 92.5987 106.16 90.9658 104.104 90.9658C102.048 90.9658 100.409 92.6165 100.409 94.6657C100.409 96.715 102.048 98.3479 104.104 98.3479C104.601 98.3479 105.019 98.7643 105.019 99.2603C105.019 99.7564 104.601 100.155 104.104 100.155C103.606 100.155 103.203 99.7564 103.203 99.2426H100.394C100.394 101.357 102.05 102.975 104.107 102.975C106.163 102.975 107.819 101.342 107.819 99.2928C107.819 98.4129 107.528 97.6097 107.013 96.9689C106.34 96.1067 105.277 95.5457 104.107 95.5457L104.104 95.5427Z" fill="white"/>
<path d="M109.383 90.9481V94.087H112.518V102.972H115.682V94.087H118.878V90.9481H109.38H109.383Z" fill="white"/>
<path d="M125.977 90.9629C122.65 90.9629 119.969 93.6706 119.969 96.9808C119.969 100.291 122.653 102.969 125.977 102.969C129.301 102.969 132 100.294 132 96.9808C132 93.6677 129.301 90.9629 125.977 90.9629ZM125.977 99.8332C124.404 99.8332 123.115 98.5339 123.115 96.966C123.115 95.398 124.401 94.1017 125.977 94.1017C127.553 94.1017 128.851 95.3803 128.851 96.966C128.851 98.5517 127.568 99.8332 125.977 99.8332Z" fill="white"/>
<path d="M88.6415 77.4389C85.6344 86.9352 75.2591 85.8692 75.2591 85.8692H75.1584C75.1584 85.8692 65.6868 86.8437 62.2234 78.6466L88.6444 77.4389H88.6415Z" fill="white"/>
<path d="M96.2644 39.1672C95.3282 36.0313 93.9683 36.1997 93.9683 36.1997C93.9683 36.1997 91.8411 35.1809 90.9049 37.7263C89.9687 40.2687 85.8121 56.3734 85.8121 56.3734C85.8121 56.3734 81.0422 54.1676 75.2562 54.1676C75.2384 54.1676 75.2236 54.1676 75.2058 54.1676C75.1851 54.1676 75.1702 54.1676 75.1525 54.1676C69.3694 54.1676 64.5965 56.3734 64.5965 56.3734C64.5965 56.3734 60.4399 40.2687 59.5037 37.7263C58.5675 35.1839 56.4403 36.1997 56.4403 36.1997C56.4403 36.1997 55.0804 36.0284 54.1442 39.1672C53.3414 41.8632 57.3706 60.4424 60.3007 71.9673C62.8337 72.0146 65.9949 72.0766 69.4316 72.1681C69.4731 72.1681 69.5145 72.1888 69.5382 72.2242C69.5619 72.2596 69.5708 72.301 69.559 72.3423C69.5205 72.4988 69.4997 72.6583 69.4997 72.8177C69.4997 74.0786 70.7529 75.1062 72.2905 75.1062C73.4638 75.1062 74.5185 74.4949 74.9155 73.5825C74.9362 73.5323 74.9866 73.4998 75.0429 73.4998C75.0991 73.4998 75.1465 73.5323 75.1702 73.5825C75.5672 74.4949 76.622 75.1062 77.7952 75.1062C79.3358 75.1062 80.583 74.0815 80.583 72.8177C80.583 72.7882 80.583 72.7587 80.5771 72.7321V72.6908C80.5712 72.6524 80.586 72.614 80.6127 72.5844C80.6393 72.5579 80.6778 72.5431 80.7193 72.5431C84.1145 72.6819 87.1601 72.8354 89.8325 73.0038C92.7773 61.594 97.0791 41.9488 96.2525 39.1702L96.2644 39.1672ZM64.0603 65.663C63.3581 65.663 62.7923 65.0961 62.7923 64.4022C62.7923 63.7082 63.3611 63.1383 64.0603 63.1383C64.7595 63.1383 65.3253 63.7053 65.3253 64.4022C65.3253 65.099 64.7565 65.663 64.0603 65.663ZM76.6249 68.5273L76.4353 69.1237C76.3435 69.4013 76.0887 69.5903 75.7954 69.5903H73.9911C73.7037 69.5903 73.4489 69.4102 73.3571 69.1385L73.1497 68.5391C72.9986 68.105 73.3245 67.6503 73.7837 67.6503H75.985C76.4412 67.6503 76.7642 68.0932 76.6249 68.5243V68.5273ZM85.9129 65.663C85.2137 65.663 84.6478 65.0961 84.6478 64.4022C84.6478 63.7082 85.2166 63.1383 85.9129 63.1383C86.6091 63.1383 87.1809 63.7053 87.1809 64.4022C87.1809 65.099 86.612 65.663 85.9129 65.663Z" fill="white"/>
<path d="M52.8466 72.8473C52.6985 73.1425 52.5859 73.5057 52.5118 73.928C51.7534 73.8837 50.8764 73.801 49.9462 73.68C47.1109 73.3108 44.8445 72.7232 44.8919 72.3659C44.9393 72.0116 47.2768 72.0205 50.115 72.3896C51.1253 72.5224 52.0585 72.6819 52.8466 72.8473Z" fill="white"/>
<path d="M53.2555 77.9793C52.4526 78.2598 51.4542 78.5551 50.3669 78.8267C47.5908 79.5236 45.2681 79.8041 45.1792 79.4557C45.0933 79.1073 47.2709 78.2598 50.0469 77.5629C50.4439 77.4625 50.832 77.3739 51.2053 77.2913C50.8972 77.3385 50.5742 77.3858 50.2454 77.43C47.4072 77.8051 45.0696 77.8169 45.0222 77.4596C44.9748 77.1023 47.2353 76.5117 50.0736 76.1397C50.9209 76.0275 51.7238 75.9507 52.4348 75.9034C52.4763 76.3168 52.5681 76.68 52.6925 76.9989C52.6925 77.0107 52.6985 77.0196 52.7044 77.0255C52.8525 77.4064 53.0481 77.7224 53.2555 77.9793Z" fill="white"/>
<path d="M53.1992 76.9192C53.1281 76.9369 53.054 76.9517 52.977 76.9694C52.977 76.9694 52.971 76.9605 52.971 76.9546C53.0481 76.9428 53.1251 76.931 53.1992 76.9192Z" fill="white"/>
<path d="M53.1992 76.9192C53.1281 76.9369 53.054 76.9517 52.977 76.9694C52.977 76.9694 52.971 76.9605 52.971 76.9546C53.0481 76.9428 53.1251 76.931 53.1992 76.9192Z" fill="white"/>
<path d="M50.1595 74.0461C50.9861 74.1376 51.7682 74.2469 52.4555 74.368C52.42 74.7105 52.4052 75.0885 52.4111 75.5019V75.5314C51.6941 75.4989 50.8764 75.4369 50.0173 75.3424C47.1731 75.0324 44.9008 74.489 44.9393 74.1317C44.9778 73.7744 47.3183 73.7361 50.1624 74.0461H50.1595Z" fill="white"/>
<path d="M103.105 75.1859C103.105 75.2656 102.969 75.682 100.359 76.2401C98.8952 76.5501 97.3843 76.7509 97.1325 76.7775C97.0465 76.7834 96.8954 76.7893 96.774 76.7952C96.7177 76.7952 96.6703 76.7952 96.6318 76.8011L54.5798 78.7204C54.4583 78.6643 53.9724 78.4251 53.5221 77.8907C53.3177 77.6486 53.1221 77.3474 52.974 76.9724C53.051 76.9546 53.1251 76.9399 53.1962 76.9222C53.1221 76.934 53.0451 76.9458 52.9681 76.9576C52.8436 76.6535 52.7518 76.2962 52.7103 75.8887C52.6985 75.7794 52.6896 75.6643 52.6896 75.5432C52.6896 75.5284 52.6896 75.5166 52.6896 75.5018C52.6837 75.1091 52.6955 74.7489 52.7281 74.4211C52.7459 74.2557 52.7666 74.0963 52.7933 73.9487C52.8673 73.5323 52.977 73.1868 53.1281 72.9152C53.214 72.7587 53.3088 72.6258 53.4184 72.5195C53.6554 72.2774 53.9546 72.1563 54.3042 72.1563H54.325C54.3635 72.1563 56.7277 72.1829 60.3806 72.2508C62.8574 72.2951 65.9297 72.3571 69.2686 72.4457C69.2479 72.5726 69.236 72.6967 69.236 72.8236C69.236 73.863 69.9797 74.7607 71.0462 75.1623V75.6318C71.0462 75.8887 71.2536 76.0924 71.5084 76.0924H73.3541C73.5852 76.0924 73.7748 75.9034 73.7748 75.6731V75.0678C74.32 74.8168 74.7703 74.427 75.0517 73.9487C75.3865 74.5156 75.9554 74.9556 76.6397 75.1918V75.7026C76.6397 75.9595 76.8471 76.1633 77.1019 76.1633H78.9447C79.1787 76.1633 79.3683 75.9743 79.3683 75.741V75.0264C80.2631 74.5806 80.8674 73.7626 80.8704 72.8295C84.1827 72.9654 87.1542 73.116 89.7732 73.2784C92.6174 73.4555 95.0408 73.6445 97.0199 73.8483C102.67 74.43 103.105 75.0264 103.102 75.1918L103.105 75.1859Z" fill="white"/>
<path d="M53.1992 76.9192C53.1281 76.9369 53.054 76.9517 52.977 76.9694C52.977 76.9694 52.971 76.9605 52.971 76.9546C53.0481 76.9428 53.1251 76.931 53.1992 76.9192Z" fill="white"/>
<path d="M16.6281 111.458H19.176V111.789H16.24V106.433H16.6281V111.461V111.458Z" fill="white"/>
<path d="M19.3241 111.934H16.0918V106.282H16.7762V111.311H19.3241V111.937V111.934ZM16.3881 111.639H19.0278V111.603H16.48V106.575H16.3881V111.639Z" fill="white"/>
<path d="M25.842 111.786H25.5427C25.5072 111.786 25.4776 111.777 25.4568 111.757C25.4331 111.739 25.4153 111.712 25.4035 111.683L24.7695 110.127H22.1297L21.4987 111.683C21.4898 111.709 21.472 111.736 21.4454 111.754C21.4187 111.771 21.3891 111.783 21.3535 111.783H21.0573L23.2556 106.427H23.6437L25.842 111.783V111.786ZM24.6539 109.84L23.5548 107.133C23.537 107.088 23.5192 107.041 23.5015 106.988C23.4837 106.935 23.4659 106.876 23.4481 106.817C23.4304 106.879 23.4126 106.935 23.3948 106.988C23.377 107.041 23.3592 107.091 23.3415 107.138L22.2423 109.84H24.6539Z" fill="white"/>
<path d="M26.0642 111.934H25.5427C25.4746 111.934 25.4094 111.913 25.362 111.872C25.3205 111.836 25.2879 111.792 25.2672 111.742L24.6687 110.277H22.2275L21.635 111.742C21.6172 111.792 21.5846 111.836 21.5372 111.875C21.4868 111.916 21.4217 111.937 21.3535 111.937H20.838L23.1578 106.285H23.7444L26.0642 111.937V111.934ZM21.2765 111.639H21.3535L23.2052 107.082C23.22 107.041 23.2378 106.994 23.2556 106.944C23.2733 106.89 23.2911 106.834 23.3059 106.775L23.3652 106.577H23.3563L21.2795 111.639H21.2765ZM24.8702 109.988L25.5398 111.63H25.6198L23.534 106.577L23.5903 106.775C23.6081 106.834 23.6259 106.89 23.6407 106.944C23.6585 106.994 23.6733 107.038 23.6911 107.079L24.8702 109.991V109.988ZM22.4645 109.693H24.4347L23.4511 107.268L22.4675 109.693H22.4645Z" fill="white"/>
<path d="M32.0043 109.628V111.786H31.6162V106.43H33.0027C33.6338 106.43 34.1078 106.569 34.4277 106.843C34.7477 107.118 34.9077 107.511 34.9077 108.021C34.9077 108.255 34.8633 108.473 34.7773 108.668C34.6914 108.866 34.564 109.034 34.3981 109.176C34.2322 109.318 34.0337 109.43 33.7967 109.51C33.5597 109.589 33.296 109.628 32.9997 109.628H32.0013H32.0043ZM33.0027 109.318C33.2397 109.318 33.453 109.285 33.6397 109.22C33.8263 109.155 33.9863 109.064 34.1167 108.949C34.247 108.833 34.3478 108.695 34.4159 108.538C34.484 108.382 34.5196 108.207 34.5196 108.021C34.5196 107.611 34.3922 107.292 34.1374 107.071C33.8826 106.849 33.5034 106.737 32.9997 106.737H32.0013V109.318H33.0027Z" fill="white"/>
<path d="M31.468 111.934V106.282H33.0027C33.6663 106.282 34.1789 106.433 34.5255 106.731C34.8781 107.035 35.0588 107.469 35.0588 108.021C35.0588 108.275 35.0114 108.515 34.9166 108.727C34.8218 108.943 34.6796 109.132 34.4988 109.288C34.3211 109.442 34.1019 109.566 33.85 109.648C33.6012 109.734 33.3167 109.775 33.0057 109.775H32.1554V111.934H31.468ZM31.7643 111.639H31.8562V109.48H33.0027C33.2812 109.48 33.533 109.442 33.7523 109.368C33.9685 109.294 34.1522 109.194 34.3033 109.064C34.4514 108.937 34.564 108.783 34.644 108.606C34.721 108.429 34.7625 108.231 34.7625 108.018C34.7625 107.549 34.6233 107.201 34.3329 106.952C34.0426 106.701 33.5952 106.575 33.0027 106.575H31.7643V111.639ZM33.0027 109.465H31.8562V106.589H33.0027C33.5419 106.589 33.9567 106.713 34.2381 106.958C34.5255 107.209 34.6707 107.567 34.6707 108.018C34.6707 108.225 34.6322 108.42 34.5522 108.594C34.4751 108.771 34.3596 108.925 34.2144 109.055C34.0693 109.185 33.8945 109.285 33.6871 109.356C33.4856 109.427 33.2545 109.462 32.9997 109.462L33.0027 109.465ZM32.1524 109.17H33.0027C33.2219 109.17 33.4204 109.141 33.5923 109.079C33.7611 109.019 33.9034 108.937 34.0189 108.836C34.1315 108.736 34.2204 108.615 34.2826 108.476C34.3448 108.337 34.3744 108.184 34.3744 108.018C34.3744 107.649 34.2648 107.375 34.0426 107.18C33.8174 106.982 33.4678 106.885 33.0027 106.885H32.1524V109.17Z" fill="white"/>
<path d="M41.2774 111.786H40.9782C40.9426 111.786 40.913 111.777 40.8923 111.757C40.8686 111.739 40.8508 111.712 40.8389 111.683L40.2049 110.127H37.5652L36.9342 111.683C36.9253 111.709 36.9075 111.736 36.8808 111.754C36.8542 111.771 36.8245 111.783 36.789 111.783H36.4927L38.691 106.427H39.0791L41.2774 111.783V111.786ZM40.0894 109.84L38.9902 107.133C38.9725 107.088 38.9547 107.041 38.9369 106.988C38.9191 106.935 38.9014 106.876 38.8836 106.817C38.8658 106.879 38.848 106.935 38.8303 106.988C38.8125 107.041 38.7947 107.091 38.7769 107.138L37.6778 109.84H40.0894Z" fill="white"/>
<path d="M41.4996 111.934H40.9782C40.91 111.934 40.8449 111.913 40.7975 111.872C40.756 111.836 40.7234 111.792 40.7027 111.742L40.1042 110.277H37.663L37.0704 111.742C37.0527 111.792 37.0201 111.836 36.9727 111.875C36.9223 111.916 36.8571 111.937 36.789 111.937H36.2735L38.5932 106.285H39.1799L41.4996 111.937V111.934ZM36.712 111.639H36.789L38.6406 107.082C38.6555 107.041 38.6732 106.994 38.691 106.944C38.7088 106.89 38.7266 106.834 38.7414 106.775L38.8006 106.577H38.7917L36.7149 111.639H36.712ZM40.3057 109.988L40.9752 111.63H41.0552L38.9695 106.577L39.0258 106.775C39.0436 106.834 39.0613 106.89 39.0762 106.944C39.0939 106.994 39.1087 107.038 39.1265 107.079L40.3057 109.991V109.988ZM37.9 109.693H39.8702L38.8866 107.268L37.9029 109.693H37.9Z" fill="white"/>
<path d="M45.5674 111.512C45.8251 111.512 46.0562 111.467 46.2606 111.376C46.465 111.287 46.6369 111.163 46.7791 111.004C46.9213 110.844 47.0279 110.658 47.105 110.443C47.182 110.227 47.2176 109.994 47.2176 109.743V106.43H47.6057V109.743C47.6057 110.038 47.5583 110.313 47.4664 110.57C47.3716 110.827 47.2383 111.048 47.0605 111.24C46.8857 111.432 46.6695 111.58 46.4176 111.689C46.1658 111.798 45.8814 111.851 45.5674 111.851C45.2533 111.851 44.9689 111.798 44.7171 111.689C44.4652 111.58 44.2519 111.432 44.0742 111.24C43.8994 111.048 43.7631 110.827 43.6683 110.57C43.5735 110.313 43.529 110.038 43.529 109.743V106.43H43.9201V109.737C43.9201 109.988 43.9586 110.218 44.0327 110.437C44.1068 110.652 44.2164 110.841 44.3556 110.998C44.4949 111.157 44.6697 111.281 44.8711 111.373C45.0726 111.464 45.3066 111.509 45.5644 111.509L45.5674 111.512Z" fill="white"/>
<path d="M45.5674 111.999C45.2355 111.999 44.9304 111.94 44.6608 111.825C44.3912 111.709 44.1571 111.547 43.9675 111.34C43.7779 111.137 43.6327 110.895 43.532 110.62C43.4342 110.348 43.3839 110.053 43.3839 109.743V106.282H44.0712V109.737C44.0712 109.97 44.1068 110.189 44.1749 110.387C44.243 110.581 44.3408 110.756 44.4682 110.9C44.5926 111.042 44.7497 111.157 44.9333 111.237C45.3007 111.402 45.831 111.399 46.1984 111.237C46.3821 111.157 46.5391 111.042 46.6665 110.9C46.7939 110.756 46.8946 110.584 46.9628 110.39C47.0309 110.189 47.0665 109.97 47.0665 109.74V106.279H47.7508V109.74C47.7508 110.05 47.7005 110.345 47.6027 110.617C47.502 110.892 47.3568 111.134 47.1672 111.337C46.9776 111.541 46.7465 111.707 46.4739 111.822C46.2043 111.937 45.8992 111.996 45.5674 111.996V111.999ZM43.6801 106.577V109.743C43.6801 110.02 43.7246 110.28 43.8105 110.519C43.8964 110.756 44.0238 110.965 44.1838 111.14C44.3438 111.314 44.5452 111.453 44.7763 111.553C45.2415 111.754 45.8932 111.754 46.3554 111.553C46.5865 111.453 46.785 111.314 46.9479 111.14C47.1109 110.965 47.2353 110.756 47.3212 110.519C47.4072 110.28 47.4516 110.02 47.4516 109.743V106.577H47.3598V109.743C47.3598 110.009 47.3183 110.26 47.2383 110.49C47.1583 110.723 47.0398 110.93 46.8828 111.101C46.7287 111.275 46.5361 111.414 46.3139 111.512C45.8695 111.707 45.2503 111.707 44.8089 111.512C44.5867 111.411 44.3971 111.272 44.243 111.098C44.089 110.924 43.9705 110.72 43.8905 110.487C43.8105 110.257 43.769 110.006 43.769 109.74V106.58H43.6742L43.6801 106.577Z" fill="white"/>
<path d="M53.4243 107.082C53.4006 107.127 53.368 107.147 53.3266 107.147C53.294 107.147 53.2525 107.124 53.1992 107.076C53.1458 107.029 53.0777 106.979 52.9888 106.92C52.8999 106.864 52.7874 106.811 52.654 106.763C52.5207 106.716 52.3548 106.693 52.1593 106.693C51.9637 106.693 51.7919 106.719 51.6438 106.775C51.4956 106.831 51.3712 106.905 51.2705 107.003C51.1697 107.1 51.0927 107.209 51.0423 107.336C50.992 107.463 50.9653 107.596 50.9653 107.735C50.9653 107.918 51.0038 108.066 51.0809 108.187C51.1579 108.305 51.2616 108.405 51.386 108.491C51.5134 108.574 51.6556 108.644 51.8186 108.701C51.9815 108.757 52.1445 108.813 52.3163 108.869C52.4852 108.925 52.6511 108.987 52.814 109.052C52.977 109.117 53.1192 109.203 53.2466 109.303C53.374 109.403 53.4747 109.527 53.5517 109.675C53.6287 109.823 53.6673 110.006 53.6673 110.227C53.6673 110.449 53.6287 110.664 53.5517 110.862C53.4747 111.06 53.3621 111.231 53.2169 111.379C53.0688 111.526 52.891 111.642 52.6777 111.724C52.4644 111.81 52.2215 111.851 51.9489 111.851C51.5934 111.851 51.2882 111.789 51.0335 111.665C50.7787 111.541 50.5535 111.37 50.3609 111.151L50.4676 110.986C50.4972 110.948 50.5328 110.93 50.5742 110.93C50.5979 110.93 50.6276 110.945 50.6602 110.974C50.6957 111.004 50.7402 111.042 50.7905 111.086C50.8409 111.131 50.9031 111.178 50.9742 111.231C51.0453 111.284 51.1283 111.332 51.2201 111.376C51.3119 111.42 51.4216 111.458 51.543 111.488C51.6645 111.518 51.8038 111.532 51.9578 111.532C52.1711 111.532 52.3607 111.5 52.5296 111.435C52.6955 111.37 52.8377 111.281 52.9533 111.172C53.0688 111.06 53.1577 110.93 53.2169 110.776C53.2792 110.623 53.3088 110.46 53.3088 110.286C53.3088 110.097 53.2703 109.941 53.1932 109.82C53.1162 109.699 53.0125 109.595 52.8881 109.513C52.7637 109.43 52.6185 109.362 52.4555 109.306C52.2926 109.25 52.1296 109.197 51.9578 109.143C51.7889 109.09 51.623 109.031 51.4601 108.966C51.2971 108.901 51.1549 108.816 51.0275 108.715C50.9001 108.612 50.7994 108.485 50.7224 108.334C50.6453 108.181 50.6068 107.992 50.6068 107.762C50.6068 107.581 50.6424 107.41 50.7105 107.242C50.7787 107.076 50.8794 106.929 51.0098 106.802C51.1401 106.675 51.3031 106.572 51.4986 106.495C51.6912 106.418 51.9134 106.38 52.1622 106.38C52.4407 106.38 52.6925 106.424 52.9147 106.512C53.1369 106.601 53.3384 106.737 53.5221 106.917L53.4302 107.091L53.4243 107.082Z" fill="white"/>
<path d="M51.943 111.996C51.5667 111.996 51.2379 111.928 50.9624 111.792C50.6898 111.659 50.4498 111.476 50.2454 111.246L50.1713 111.163L50.3372 110.903C50.4202 110.797 50.5091 110.779 50.5683 110.779C50.6276 110.779 50.6898 110.806 50.752 110.859L50.8824 110.971C50.9298 111.013 50.989 111.06 51.0542 111.107C51.1164 111.154 51.1934 111.196 51.2764 111.237C51.3623 111.275 51.4601 111.311 51.5727 111.337C51.6823 111.364 51.8097 111.379 51.9519 111.379C52.1445 111.379 52.3193 111.349 52.4703 111.293C52.6185 111.237 52.7429 111.157 52.8436 111.063C52.9444 110.968 53.0214 110.85 53.0718 110.72C53.1251 110.584 53.1518 110.44 53.1518 110.283C53.1518 110.127 53.1192 109.994 53.0599 109.893C52.9947 109.79 52.9059 109.702 52.7992 109.634C52.6837 109.56 52.5474 109.495 52.3992 109.442C52.2393 109.386 52.0763 109.332 51.9074 109.279C51.7356 109.226 51.5638 109.164 51.4008 109.096C51.226 109.025 51.069 108.934 50.9327 108.822C50.7905 108.706 50.675 108.562 50.5861 108.39C50.4972 108.219 50.4528 108.004 50.4528 107.75C50.4528 107.552 50.4913 107.357 50.5654 107.174C50.6424 106.988 50.755 106.823 50.9001 106.684C51.0453 106.545 51.226 106.43 51.4364 106.347C51.6467 106.264 51.8897 106.22 52.1563 106.22C52.4526 106.22 52.7251 106.267 52.9622 106.362C53.2021 106.456 53.4214 106.604 53.6169 106.799L53.6939 106.876L53.5517 107.147C53.4688 107.307 53.288 107.357 53.0955 107.183C53.051 107.141 52.9858 107.094 52.9029 107.041C52.8229 106.991 52.7222 106.944 52.5977 106.899C52.3637 106.817 51.9519 106.811 51.6912 106.911C51.5608 106.958 51.4542 107.026 51.3682 107.106C51.2823 107.189 51.2171 107.283 51.1757 107.389C51.1312 107.496 51.1075 107.611 51.1075 107.732C51.1075 107.883 51.1371 108.01 51.1994 108.101C51.2645 108.202 51.3534 108.29 51.463 108.361C51.5786 108.438 51.7149 108.503 51.863 108.556C52.023 108.612 52.1859 108.668 52.3548 108.724C52.5296 108.78 52.6985 108.845 52.8614 108.913C53.0332 108.984 53.1903 109.076 53.3295 109.185C53.4717 109.297 53.5873 109.439 53.6761 109.604C53.765 109.772 53.8095 109.979 53.8095 110.224C53.8095 110.469 53.768 110.697 53.6821 110.912C53.5991 111.128 53.4747 111.32 53.3117 111.479C53.1518 111.639 52.9533 111.766 52.7222 111.857C52.494 111.949 52.2304 111.993 51.9371 111.993L51.943 111.996ZM50.5387 111.125C50.7016 111.29 50.8883 111.426 51.0927 111.526C51.3268 111.642 51.6112 111.698 51.943 111.698C52.1948 111.698 52.4229 111.659 52.6185 111.583C52.8111 111.506 52.977 111.399 53.1073 111.27C53.2377 111.14 53.3414 110.983 53.4095 110.803C53.4806 110.623 53.5162 110.428 53.5162 110.221C53.5162 110.026 53.4836 109.864 53.4184 109.74C53.3503 109.61 53.2614 109.501 53.1518 109.415C53.0362 109.324 52.9029 109.247 52.7548 109.185C52.6007 109.12 52.4348 109.061 52.2689 109.005C52.0971 108.949 51.9311 108.892 51.7682 108.836C51.5964 108.777 51.4393 108.701 51.306 108.609C51.1638 108.515 51.0453 108.399 50.9564 108.264C50.8646 108.122 50.8172 107.942 50.8172 107.732C50.8172 107.576 50.8468 107.422 50.9061 107.277C50.9653 107.133 51.0542 107.003 51.1697 106.893C51.2853 106.784 51.4275 106.696 51.5934 106.634C51.9223 106.51 52.4052 106.515 52.7044 106.622C52.8466 106.672 52.971 106.731 53.0688 106.793C53.1666 106.855 53.2406 106.911 53.2999 106.961C53.3058 106.967 53.3088 106.97 53.3147 106.973L53.3354 106.932C53.1873 106.802 53.0273 106.701 52.8585 106.634C52.654 106.554 52.42 106.512 52.1622 106.512C51.9341 106.512 51.7297 106.548 51.5519 106.616C51.3771 106.687 51.229 106.778 51.1105 106.89C50.9949 107.003 50.9031 107.136 50.8438 107.28C50.7816 107.428 50.752 107.584 50.752 107.744C50.752 107.951 50.7846 108.119 50.8527 108.252C50.9209 108.385 51.0098 108.497 51.1194 108.585C51.2349 108.677 51.3682 108.757 51.5134 108.816C51.6704 108.881 51.8334 108.937 51.9993 108.99C52.1711 109.043 52.337 109.099 52.5 109.155C52.6718 109.214 52.8288 109.288 52.9651 109.377C53.1103 109.471 53.2288 109.589 53.3147 109.728C53.4065 109.876 53.4539 110.059 53.4539 110.274C53.4539 110.466 53.4184 110.649 53.3532 110.818C53.2851 110.989 53.1843 111.14 53.054 111.264C52.9236 111.388 52.7666 111.488 52.58 111.559C52.3963 111.63 52.1859 111.665 51.9548 111.665C51.7889 111.665 51.6378 111.647 51.5045 111.615C51.3742 111.583 51.2557 111.541 51.1549 111.494C51.0542 111.447 50.9624 111.394 50.8824 111.334C50.8083 111.278 50.7431 111.228 50.6898 111.184L50.5654 111.075L50.5417 111.116L50.5387 111.125ZM53.294 107.014L53.4273 107.082L53.2969 107.014H53.294Z" fill="white"/>
<path d="M60.508 111.786H60.2088C60.1733 111.786 60.1436 111.777 60.1229 111.757C60.0992 111.739 60.0814 111.712 60.0696 111.683L59.4356 110.127H56.7958L56.1648 111.683C56.1559 111.709 56.1381 111.736 56.1115 111.754C56.0848 111.771 56.0552 111.783 56.0196 111.783H55.7234L57.9216 106.427H58.3097L60.508 111.783V111.786ZM59.32 109.84L58.2209 107.133C58.2031 107.088 58.1853 107.041 58.1675 106.988C58.1498 106.935 58.132 106.876 58.1142 106.817C58.0964 106.879 58.0787 106.935 58.0609 106.988C58.0431 107.041 58.0253 107.091 58.0076 107.138L56.9084 109.84H59.32Z" fill="white"/>
<path d="M60.7302 111.934H60.2088C60.1407 111.934 60.0755 111.913 60.0281 111.872C59.9866 111.836 59.954 111.792 59.9333 111.742L59.3348 110.277H56.8936L56.3011 111.742C56.2833 111.792 56.2507 111.836 56.2033 111.875C56.1529 111.916 56.0878 111.937 56.0196 111.937H55.5041L57.8239 106.285H58.4105L60.7302 111.937V111.934ZM55.9426 111.639H56.0196L57.8713 107.082C57.8861 107.041 57.9039 106.994 57.9216 106.944C57.9394 106.89 57.9572 106.834 57.972 106.775L58.0313 106.577H58.0224L55.9455 111.639H55.9426ZM59.5363 109.988L60.2059 111.63H60.2858L58.2001 106.577L58.2564 106.775C58.2742 106.834 58.292 106.89 58.3068 106.944C58.3246 106.994 58.3394 107.038 58.3572 107.079L59.5363 109.991V109.988ZM57.1306 109.693H59.1008L58.1172 107.268L57.1336 109.693H57.1306Z" fill="white"/>
<path d="M70.0715 110.886C70.0982 110.886 70.1189 110.895 70.1367 110.912L70.2878 111.075C70.1752 111.193 70.0537 111.299 69.9234 111.394C69.793 111.488 69.6479 111.568 69.4908 111.636C69.3338 111.704 69.1649 111.754 68.9783 111.792C68.7916 111.828 68.5872 111.848 68.365 111.848C67.9917 111.848 67.651 111.783 67.3399 111.653C67.0289 111.523 66.7652 111.34 66.543 111.101C66.3208 110.862 66.149 110.576 66.0245 110.236C65.9001 109.896 65.8379 109.521 65.8379 109.108C65.8379 108.695 65.903 108.331 66.0304 107.995C66.1578 107.658 66.3386 107.372 66.5696 107.13C66.8007 106.888 67.0792 106.701 67.4022 106.569C67.7251 106.436 68.0806 106.371 68.4717 106.371C68.6672 106.371 68.845 106.386 69.0079 106.415C69.1709 106.445 69.322 106.486 69.4612 106.539C69.6004 106.592 69.7338 106.66 69.8582 106.743C69.9826 106.823 70.1041 106.917 70.2226 107.023L70.1041 107.195C70.0834 107.224 70.0508 107.239 70.0093 107.239C69.9856 107.239 69.956 107.227 69.9234 107.201C69.8878 107.174 69.8434 107.141 69.7871 107.103C69.7338 107.065 69.6656 107.02 69.5886 106.973C69.5116 106.926 69.4197 106.885 69.3131 106.843C69.2064 106.805 69.0849 106.772 68.9457 106.746C68.8065 106.719 68.6494 106.707 68.4717 106.707C68.1458 106.707 67.8436 106.763 67.571 106.876C67.2985 106.988 67.0614 107.147 66.8659 107.357C66.6704 107.567 66.5134 107.818 66.4037 108.113C66.2941 108.408 66.2378 108.742 66.2378 109.111C66.2378 109.48 66.2912 109.829 66.4008 110.127C66.5104 110.425 66.6615 110.676 66.8541 110.883C67.0466 111.089 67.2748 111.246 67.5355 111.355C67.7962 111.464 68.0806 111.52 68.3887 111.52C68.5813 111.52 68.7531 111.509 68.9042 111.482C69.0553 111.456 69.1946 111.42 69.319 111.37C69.4464 111.32 69.5619 111.258 69.6716 111.184C69.7812 111.11 69.8878 111.024 69.9945 110.927C70.0063 110.918 70.0182 110.909 70.03 110.903C70.0419 110.897 70.0537 110.895 70.0686 110.895L70.0715 110.886Z" fill="white"/>
<path d="M68.368 111.996C67.9769 111.996 67.6125 111.925 67.2866 111.789C66.9578 111.65 66.6733 111.453 66.4363 111.202C66.2023 110.951 66.0186 110.641 65.8882 110.286C65.7579 109.935 65.6927 109.536 65.6927 109.108C65.6927 108.68 65.7608 108.293 65.8942 107.942C66.0275 107.59 66.2201 107.28 66.466 107.026C66.7119 106.772 67.0081 106.572 67.3488 106.433C67.6895 106.294 68.0658 106.223 68.4746 106.223C68.6761 106.223 68.8657 106.238 69.0375 106.27C69.2064 106.3 69.3694 106.344 69.5175 106.403C69.6686 106.462 69.8108 106.533 69.9412 106.619C70.0715 106.704 70.1989 106.802 70.3233 106.914L70.4211 107L70.2285 107.277C70.1545 107.389 70.0004 107.44 69.8345 107.319C69.799 107.292 69.7545 107.26 69.7012 107.221C69.6508 107.183 69.5856 107.144 69.5145 107.1C69.4464 107.059 69.3605 107.02 69.2657 106.985C69.1679 106.95 69.0524 106.917 68.922 106.893C68.7916 106.87 68.6435 106.855 68.4746 106.855C68.1695 106.855 67.8851 106.908 67.6303 107.012C67.3785 107.115 67.1563 107.265 66.9755 107.457C66.7918 107.649 66.6467 107.889 66.5459 108.163C66.4423 108.441 66.3889 108.76 66.3889 109.111C66.3889 109.462 66.4423 109.796 66.543 110.074C66.6437 110.351 66.7859 110.587 66.9637 110.779C67.1414 110.968 67.3518 111.116 67.5947 111.216C67.8377 111.317 68.1043 111.37 68.3887 111.37C68.5724 111.37 68.7354 111.358 68.8776 111.334C69.0168 111.311 69.1472 111.275 69.2627 111.228C69.3783 111.181 69.4879 111.125 69.5886 111.057C69.6923 110.989 69.793 110.906 69.8938 110.815C69.9204 110.791 69.9412 110.779 69.9589 110.77C70.0478 110.72 70.1663 110.738 70.2404 110.812L70.4892 111.081L70.3944 111.181C70.2759 111.305 70.1485 111.42 70.0093 111.52C69.8701 111.621 69.716 111.707 69.5501 111.777C69.3842 111.848 69.2034 111.904 69.0079 111.943C68.8124 111.981 68.5961 112.002 68.365 112.002L68.368 111.996ZM68.4746 106.518C68.1073 106.518 67.7636 106.58 67.4614 106.707C67.1592 106.831 66.8955 107.009 66.6793 107.233C66.463 107.457 66.2912 107.732 66.1727 108.048C66.0512 108.367 65.9919 108.721 65.9919 109.108C65.9919 109.495 66.0512 109.864 66.1697 110.186C66.2852 110.505 66.4511 110.779 66.6585 111.001C66.8659 111.222 67.1148 111.396 67.4051 111.518C67.6955 111.639 68.0214 111.701 68.3709 111.701C68.5843 111.701 68.7798 111.683 68.9546 111.647C69.1294 111.612 69.2923 111.565 69.4375 111.503C69.5827 111.441 69.719 111.364 69.8404 111.275C69.9263 111.213 70.0093 111.145 70.0863 111.072L70.0715 111.057C69.9649 111.148 69.8641 111.231 69.7604 111.302C69.6449 111.382 69.5145 111.447 69.3783 111.503C69.242 111.556 69.0938 111.597 68.9309 111.624C68.7739 111.65 68.5902 111.665 68.3917 111.665C68.0658 111.665 67.7606 111.606 67.4821 111.488C67.2007 111.37 66.9548 111.199 66.7504 110.98C66.5459 110.762 66.383 110.49 66.2675 110.174C66.1519 109.861 66.0956 109.504 66.0956 109.108C66.0956 108.712 66.1549 108.37 66.2704 108.06C66.386 107.747 66.5519 107.475 66.7622 107.254C66.9726 107.032 67.2274 106.858 67.5207 106.737C67.811 106.619 68.1339 106.557 68.4776 106.557C68.6643 106.557 68.8331 106.572 68.9813 106.598C69.1294 106.628 69.2597 106.66 69.3723 106.704C69.4849 106.746 69.5886 106.793 69.6716 106.846C69.7515 106.896 69.8227 106.941 69.8789 106.982C69.9323 107.02 69.9767 107.053 70.0093 107.076L70.03 107.047C69.95 106.979 69.8641 106.92 69.7812 106.864C69.6656 106.79 69.5412 106.725 69.4108 106.675C69.2805 106.625 69.1353 106.583 68.9842 106.557C68.8302 106.53 68.6613 106.515 68.4746 106.515V106.518Z" fill="white"/>
<path d="M77.9759 109.108C77.9759 109.521 77.9137 109.896 77.7892 110.233C77.6648 110.57 77.49 110.859 77.2649 111.095C77.0397 111.332 76.7701 111.518 76.456 111.647C76.142 111.777 75.7954 111.842 75.4102 111.842C75.0251 111.842 74.6873 111.777 74.3733 111.647C74.0593 111.518 73.7896 111.334 73.5645 111.095C73.3393 110.856 73.1645 110.57 73.0371 110.233C72.9127 109.896 72.8505 109.521 72.8505 109.108C72.8505 108.695 72.9127 108.323 73.0371 107.986C73.1616 107.649 73.3364 107.36 73.5645 107.124C73.7896 106.885 74.0593 106.701 74.3733 106.569C74.6873 106.436 75.034 106.371 75.4102 106.371C75.7865 106.371 76.142 106.436 76.456 106.566C76.7701 106.696 77.0397 106.882 77.2649 107.121C77.49 107.36 77.6648 107.649 77.7892 107.986C77.9137 108.323 77.9759 108.698 77.9759 109.108ZM77.573 109.108C77.573 108.733 77.5196 108.399 77.4159 108.101C77.3123 107.803 77.1671 107.552 76.9775 107.345C76.7879 107.138 76.5627 106.979 76.2961 106.87C76.0294 106.761 75.7361 106.704 75.4102 106.704C75.0843 106.704 74.7999 106.761 74.5333 106.87C74.2696 106.979 74.0415 107.138 73.8489 107.345C73.6563 107.552 73.5082 107.806 73.4045 108.101C73.3008 108.399 73.2475 108.736 73.2475 109.108C73.2475 109.48 73.3008 109.82 73.4045 110.118C73.5082 110.413 73.6563 110.667 73.8489 110.874C74.0415 111.081 74.2666 111.24 74.5333 111.346C74.797 111.456 75.0903 111.509 75.4102 111.509C75.7302 111.509 76.0294 111.456 76.2961 111.346C76.5627 111.237 76.7879 111.081 76.9775 110.874C77.1671 110.667 77.3123 110.416 77.4159 110.118C77.5196 109.82 77.573 109.486 77.573 109.108Z" fill="white"/>
<path d="M75.4132 111.99C75.0191 111.99 74.6488 111.922 74.32 111.783C73.9882 111.645 73.6978 111.447 73.4608 111.196C73.2238 110.945 73.0342 110.638 72.9038 110.283C72.7735 109.932 72.7053 109.536 72.7053 109.105C72.7053 108.674 72.7705 108.284 72.9038 107.93C73.0342 107.576 73.2238 107.268 73.4608 107.017C73.6978 106.766 73.9882 106.566 74.32 106.427C74.9866 106.149 75.8605 106.152 76.5153 106.427C76.8471 106.566 77.1375 106.763 77.3745 107.017C77.6115 107.271 77.7981 107.578 77.9285 107.933C78.0588 108.284 78.124 108.68 78.124 109.105C78.124 109.53 78.0588 109.929 77.9285 110.283C77.7981 110.638 77.6115 110.945 77.3745 111.196C77.1345 111.45 76.8471 111.647 76.5153 111.783C76.1835 111.919 75.8131 111.99 75.4132 111.99ZM75.4132 106.518C75.0577 106.518 74.7288 106.58 74.4325 106.704C74.1392 106.828 73.8845 107.003 73.6741 107.224C73.4638 107.446 73.2978 107.72 73.1793 108.036C73.0608 108.355 73.0016 108.715 73.0016 109.108C73.0016 109.501 73.0608 109.864 73.1793 110.183C73.2978 110.499 73.4638 110.773 73.6741 110.995C73.8845 111.216 74.1392 111.391 74.4325 111.512C75.0251 111.757 75.8161 111.754 76.3998 111.512C76.6931 111.391 76.9478 111.216 77.1582 110.995C77.3685 110.773 77.5345 110.499 77.65 110.183C77.7685 109.864 77.8278 109.501 77.8278 109.108C77.8278 108.715 77.7685 108.355 77.65 108.036C77.5345 107.72 77.3685 107.446 77.1582 107.221C76.9478 106.997 76.6931 106.823 76.3998 106.701C76.1064 106.58 75.7746 106.518 75.4132 106.518ZM75.4132 111.653C75.0754 111.653 74.7614 111.594 74.4799 111.479C74.1955 111.364 73.9496 111.193 73.7422 110.968C73.5378 110.747 73.3778 110.475 73.2682 110.162C73.1586 109.852 73.1023 109.495 73.1023 109.105C73.1023 108.715 73.1586 108.361 73.2682 108.048C73.3808 107.732 73.5408 107.46 73.7422 107.239C73.9467 107.017 74.1955 106.846 74.477 106.728C75.0458 106.492 75.7894 106.495 76.3524 106.728C76.6368 106.846 76.8856 107.017 77.0871 107.239C77.2886 107.46 77.4456 107.732 77.5552 108.048C77.6648 108.361 77.7181 108.715 77.7181 109.102C77.7181 109.489 77.6618 109.849 77.5552 110.159C77.4456 110.472 77.2886 110.744 77.0871 110.965C76.8827 111.187 76.6368 111.361 76.3524 111.476C76.0709 111.591 75.7539 111.65 75.4102 111.65L75.4132 111.653ZM75.4132 106.849C75.114 106.849 74.8384 106.899 74.5955 107.003C74.3526 107.103 74.1392 107.251 73.9644 107.443C73.7867 107.635 73.6474 107.871 73.5497 108.148C73.4519 108.429 73.4015 108.751 73.4015 109.105C73.4015 109.459 73.4519 109.784 73.5497 110.065C73.6474 110.342 73.7867 110.579 73.9644 110.77C74.1392 110.959 74.3526 111.107 74.5955 111.207C75.0903 111.411 75.7539 111.408 76.2427 111.207C76.4857 111.107 76.699 110.962 76.8708 110.77C77.0456 110.579 77.1819 110.342 77.2797 110.065C77.3774 109.784 77.4278 109.462 77.4278 109.105C77.4278 108.748 77.3774 108.426 77.2797 108.145C77.1819 107.868 77.0456 107.632 76.8708 107.44C76.699 107.251 76.4857 107.103 76.2427 107.003C75.9968 106.902 75.7183 106.849 75.4132 106.849Z" fill="white"/>
<path d="M83.5931 110.455C83.6079 110.413 83.6227 110.375 83.6405 110.336C83.6583 110.298 83.676 110.26 83.6968 110.224L85.8092 106.504C85.8299 106.471 85.8506 106.45 85.8714 106.442C85.8921 106.433 85.9188 106.43 85.9543 106.43H86.2239V111.786H85.8832V107.221C85.8832 107.156 85.8862 107.085 85.8951 107.012L83.7797 110.756C83.7442 110.821 83.6938 110.853 83.6286 110.853H83.5664C83.5042 110.853 83.4538 110.821 83.4153 110.756L81.2437 107.009C81.2526 107.082 81.2556 107.153 81.2556 107.221V111.786H80.9178V106.43H81.1844C81.22 106.43 81.2496 106.433 81.2704 106.442C81.2911 106.45 81.3119 106.468 81.3326 106.504L83.5013 110.23C83.5398 110.301 83.5723 110.378 83.599 110.457L83.5931 110.455Z" fill="white"/>
<path d="M86.3691 111.934H85.7321V107.596L83.9042 110.83C83.8449 110.942 83.7442 111.004 83.6227 111.004H83.5605C83.445 111.004 83.3442 110.942 83.2791 110.832L81.3948 107.581V111.937H80.7608V106.285H81.1756C81.2289 106.285 81.2733 106.291 81.3089 106.306C81.3652 106.326 81.4096 106.365 81.4481 106.427L83.5901 110.106L85.6758 106.433C85.7173 106.365 85.7618 106.326 85.8121 106.306C85.8506 106.291 85.8951 106.285 85.9484 106.285H86.3661V111.937L86.3691 111.934ZM86.0728 111.639V106.687L86.0373 107.029C86.0314 107.097 86.0254 107.162 86.0254 107.221V111.639H86.0728ZM81.06 111.639H81.1015V107.221C81.1015 107.159 81.0985 107.091 81.0896 107.023L81.06 106.719V111.639ZM85.9514 106.577C85.9277 106.577 85.9188 106.577 85.9188 106.577L83.8242 110.292C83.8064 110.322 83.7916 110.354 83.7768 110.387C83.762 110.425 83.7472 110.463 83.7323 110.502L83.7027 110.584L85.9691 106.575H85.9543L85.9514 106.577ZM81.1608 106.577L83.4835 110.581L83.4568 110.502C83.4301 110.428 83.4005 110.36 83.3679 110.295L81.2022 106.577C81.2022 106.577 81.1904 106.577 81.1815 106.577H81.1608Z" fill="white"/>
<path d="M92.7092 106.752H89.8799V108.916H92.2352V109.229H89.8799V111.461H92.7092V111.783H89.4888V106.427H92.7092V106.752Z" fill="white"/>
<path d="M92.8573 111.934H89.3407V106.282H92.8573V106.899H90.028V108.768H92.3833V109.377H90.028V111.314H92.8573V111.934ZM89.6369 111.639H92.5611V111.612H89.7317V109.084H92.087V109.067H89.7317V106.607H92.5611V106.58H89.6369V111.642V111.639Z" fill="white"/>
<path d="M102.833 111.786H102.533C102.498 111.786 102.468 111.777 102.447 111.757C102.424 111.739 102.406 111.712 102.394 111.683L101.76 110.127H99.1204L98.4893 111.683C98.4805 111.709 98.4627 111.736 98.436 111.754C98.4094 111.771 98.3797 111.783 98.3442 111.783H98.0479L100.246 106.427H100.634L102.833 111.783V111.786ZM101.645 109.84L100.545 107.133C100.528 107.088 100.51 107.041 100.492 106.988C100.474 106.935 100.457 106.876 100.439 106.817C100.421 106.879 100.403 106.935 100.385 106.988C100.368 107.041 100.35 107.091 100.332 107.138L99.233 109.84H101.645Z" fill="white"/>
<path d="M103.052 111.934H102.53C102.462 111.934 102.397 111.913 102.35 111.872C102.308 111.836 102.276 111.792 102.255 111.742L101.656 110.277H99.2152L98.6227 111.742C98.6049 111.792 98.5723 111.836 98.5249 111.875C98.4745 111.916 98.4094 111.937 98.3412 111.937H97.8257L100.145 106.285H100.732L103.052 111.937V111.934ZM98.2672 111.639H98.3442L100.196 107.082C100.211 107.041 100.228 106.994 100.246 106.944C100.264 106.89 100.282 106.834 100.297 106.775L100.356 106.577H100.347L98.2701 111.639H98.2672ZM101.861 109.988L102.53 111.63H102.61L100.525 106.577L100.581 106.775C100.599 106.834 100.617 106.89 100.631 106.944C100.649 106.994 100.664 107.038 100.682 107.079L101.861 109.991V109.988ZM99.4552 109.693H101.425L100.442 107.268L99.4581 109.693H99.4552Z" fill="white"/>
<path d="M112.396 110.886C112.423 110.886 112.443 110.895 112.461 110.912L112.612 111.075C112.5 111.193 112.378 111.299 112.248 111.394C112.118 111.488 111.972 111.568 111.815 111.636C111.658 111.704 111.489 111.754 111.303 111.792C111.116 111.828 110.912 111.848 110.69 111.848C110.316 111.848 109.976 111.783 109.664 111.653C109.353 111.523 109.09 111.34 108.868 111.101C108.645 110.862 108.474 110.576 108.349 110.236C108.225 109.896 108.162 109.521 108.162 109.108C108.162 108.695 108.228 108.331 108.355 107.995C108.482 107.658 108.663 107.372 108.894 107.13C109.125 106.888 109.404 106.701 109.727 106.569C110.05 106.436 110.405 106.371 110.796 106.371C110.992 106.371 111.17 106.386 111.332 106.415C111.495 106.445 111.647 106.486 111.786 106.539C111.925 106.592 112.058 106.66 112.183 106.743C112.307 106.823 112.429 106.917 112.547 107.023L112.429 107.195C112.408 107.224 112.375 107.239 112.334 107.239C112.31 107.239 112.281 107.227 112.248 107.201C112.212 107.174 112.168 107.141 112.112 107.103C112.058 107.065 111.99 107.02 111.913 106.973C111.836 106.926 111.744 106.885 111.638 106.843C111.531 106.805 111.41 106.772 111.27 106.746C111.131 106.719 110.974 106.707 110.796 106.707C110.47 106.707 110.168 106.763 109.896 106.876C109.623 106.988 109.386 107.147 109.19 107.357C108.995 107.567 108.838 107.818 108.728 108.113C108.619 108.408 108.562 108.742 108.562 109.111C108.562 109.48 108.616 109.829 108.725 110.127C108.835 110.425 108.986 110.676 109.179 110.883C109.371 111.089 109.599 111.246 109.86 111.355C110.121 111.464 110.405 111.52 110.713 111.52C110.906 111.52 111.078 111.509 111.229 111.482C111.38 111.456 111.519 111.42 111.644 111.37C111.771 111.32 111.886 111.258 111.996 111.184C112.106 111.11 112.212 111.024 112.319 110.927C112.331 110.918 112.343 110.909 112.355 110.903C112.366 110.897 112.378 110.895 112.393 110.895L112.396 110.886Z" fill="white"/>
<path d="M110.69 111.996C110.299 111.996 109.934 111.925 109.608 111.789C109.279 111.65 108.995 111.453 108.758 111.202C108.524 110.951 108.34 110.641 108.21 110.286C108.079 109.935 108.014 109.536 108.014 109.108C108.014 108.68 108.082 108.293 108.216 107.942C108.349 107.59 108.542 107.28 108.788 107.026C109.033 106.772 109.33 106.572 109.67 106.433C110.011 106.294 110.387 106.223 110.796 106.223C110.998 106.223 111.187 106.238 111.359 106.27C111.528 106.3 111.691 106.344 111.839 106.403C111.99 106.462 112.132 106.533 112.263 106.619C112.393 106.704 112.521 106.802 112.645 106.914L112.743 107L112.55 107.277C112.476 107.389 112.322 107.44 112.156 107.319C112.121 107.292 112.076 107.26 112.023 107.221C111.972 107.183 111.907 107.144 111.836 107.1C111.768 107.059 111.682 107.02 111.587 106.985C111.49 106.95 111.374 106.917 111.244 106.893C111.113 106.87 110.965 106.855 110.796 106.855C110.491 106.855 110.207 106.908 109.952 107.012C109.7 107.115 109.478 107.265 109.297 107.457C109.113 107.649 108.968 107.889 108.868 108.163C108.764 108.441 108.711 108.76 108.711 109.111C108.711 109.462 108.764 109.796 108.865 110.074C108.965 110.351 109.108 110.587 109.285 110.779C109.463 110.968 109.673 111.116 109.916 111.216C110.159 111.317 110.426 111.37 110.71 111.37C110.894 111.37 111.057 111.358 111.199 111.334C111.338 111.311 111.469 111.275 111.584 111.228C111.7 111.181 111.809 111.125 111.91 111.057C112.014 110.989 112.115 110.906 112.215 110.815C112.242 110.791 112.263 110.779 112.281 110.77C112.369 110.72 112.488 110.738 112.562 110.812L112.811 111.081L112.716 111.181C112.598 111.305 112.47 111.42 112.331 111.52C112.192 111.621 112.038 111.707 111.872 111.777C111.706 111.848 111.525 111.904 111.33 111.943C111.134 111.981 110.918 112.002 110.687 112.002L110.69 111.996ZM110.796 106.518C110.429 106.518 110.085 106.58 109.783 106.707C109.481 106.831 109.217 107.009 109.001 107.233C108.785 107.457 108.613 107.732 108.494 108.048C108.373 108.367 108.314 108.721 108.314 109.108C108.314 109.495 108.373 109.864 108.491 110.186C108.607 110.505 108.773 110.779 108.98 111.001C109.188 111.222 109.436 111.396 109.727 111.518C110.017 111.639 110.343 111.701 110.693 111.701C110.906 111.701 111.101 111.683 111.276 111.647C111.451 111.612 111.614 111.565 111.759 111.503C111.904 111.441 112.041 111.364 112.162 111.275C112.248 111.213 112.331 111.145 112.408 111.072L112.393 111.057C112.286 111.148 112.186 111.231 112.082 111.302C111.966 111.382 111.836 111.447 111.7 111.503C111.564 111.556 111.415 111.597 111.252 111.624C111.095 111.65 110.912 111.665 110.713 111.665C110.387 111.665 110.082 111.606 109.804 111.488C109.522 111.37 109.276 111.199 109.072 110.98C108.868 110.762 108.705 110.49 108.589 110.174C108.474 109.861 108.417 109.504 108.417 109.108C108.417 108.712 108.476 108.37 108.592 108.06C108.708 107.747 108.873 107.475 109.084 107.254C109.294 107.032 109.549 106.858 109.842 106.737C110.133 106.619 110.456 106.557 110.799 106.557C110.986 106.557 111.155 106.572 111.303 106.598C111.451 106.628 111.581 106.66 111.694 106.704C111.807 106.746 111.91 106.793 111.993 106.846C112.073 106.896 112.144 106.941 112.201 106.982C112.254 107.02 112.298 107.053 112.331 107.076L112.352 107.047C112.272 106.979 112.186 106.92 112.103 106.864C111.987 106.79 111.863 106.725 111.732 106.675C111.602 106.625 111.457 106.583 111.306 106.557C111.152 106.53 110.983 106.515 110.796 106.515V106.518Z" fill="white"/>
<path d="M119.551 111.786H119.252C119.216 111.786 119.186 111.777 119.166 111.757C119.142 111.739 119.124 111.712 119.112 111.683L118.478 110.127H115.839L115.208 111.683C115.199 111.709 115.181 111.736 115.154 111.754C115.128 111.771 115.098 111.783 115.062 111.783H114.766L116.965 106.427H117.353L119.551 111.783V111.786ZM118.363 109.84L117.264 107.133C117.246 107.088 117.228 107.041 117.21 106.988C117.193 106.935 117.175 106.876 117.157 106.817C117.139 106.879 117.122 106.935 117.104 106.988C117.086 107.041 117.068 107.091 117.05 107.138L115.951 109.84H118.363Z" fill="white"/>
<path d="M119.773 111.934H119.252C119.184 111.934 119.118 111.913 119.071 111.872C119.029 111.836 118.997 111.792 118.976 111.742L118.378 110.277H115.936L115.344 111.742C115.326 111.792 115.294 111.836 115.246 111.875C115.196 111.916 115.131 111.937 115.062 111.937H114.547L116.867 106.285H117.453L119.773 111.937V111.934ZM114.985 111.639H115.062L116.914 107.082C116.929 107.041 116.947 106.994 116.965 106.944C116.982 106.89 117 106.834 117.015 106.775L117.074 106.577H117.065L114.988 111.639H114.985ZM118.579 109.988L119.249 111.63H119.329L117.243 106.577L117.299 106.775C117.317 106.834 117.335 106.89 117.35 106.944C117.367 106.994 117.382 107.038 117.4 107.079L118.579 109.991V109.988ZM116.173 109.693H118.144L117.16 107.268L116.176 109.693H116.173Z" fill="white"/>
<path d="M124.676 107.082C124.653 107.127 124.62 107.147 124.579 107.147C124.546 107.147 124.504 107.124 124.451 107.076C124.398 107.029 124.33 106.979 124.241 106.92C124.152 106.864 124.039 106.811 123.906 106.763C123.773 106.716 123.607 106.693 123.411 106.693C123.216 106.693 123.044 106.719 122.896 106.775C122.748 106.831 122.623 106.905 122.522 107.003C122.422 107.1 122.345 107.209 122.294 107.336C122.244 107.463 122.217 107.596 122.217 107.735C122.217 107.918 122.256 108.066 122.333 108.187C122.41 108.305 122.514 108.405 122.638 108.491C122.765 108.574 122.908 108.644 123.071 108.701C123.233 108.757 123.396 108.813 123.568 108.869C123.737 108.925 123.903 108.987 124.066 109.052C124.229 109.117 124.371 109.203 124.499 109.303C124.626 109.403 124.727 109.527 124.804 109.675C124.881 109.823 124.919 110.006 124.919 110.227C124.919 110.449 124.881 110.664 124.804 110.862C124.727 111.06 124.614 111.231 124.469 111.379C124.321 111.526 124.143 111.642 123.93 111.724C123.716 111.81 123.473 111.851 123.201 111.851C122.845 111.851 122.54 111.789 122.285 111.665C122.031 111.541 121.805 111.37 121.613 111.151L121.72 110.986C121.749 110.948 121.785 110.93 121.826 110.93C121.85 110.93 121.88 110.945 121.912 110.974C121.948 111.004 121.992 111.042 122.042 111.086C122.093 111.131 122.155 111.178 122.226 111.231C122.297 111.284 122.38 111.332 122.472 111.376C122.564 111.42 122.674 111.458 122.795 111.488C122.916 111.518 123.056 111.532 123.21 111.532C123.423 111.532 123.613 111.5 123.782 111.435C123.947 111.37 124.09 111.281 124.205 111.172C124.321 111.06 124.41 110.93 124.469 110.776C124.531 110.623 124.561 110.46 124.561 110.286C124.561 110.097 124.522 109.941 124.445 109.82C124.368 109.699 124.264 109.595 124.14 109.513C124.016 109.43 123.87 109.362 123.708 109.306C123.545 109.25 123.382 109.197 123.21 109.143C123.041 109.09 122.875 109.031 122.712 108.966C122.549 108.901 122.407 108.816 122.28 108.715C122.152 108.612 122.051 108.485 121.974 108.334C121.897 108.181 121.859 107.992 121.859 107.762C121.859 107.581 121.894 107.41 121.963 107.242C122.031 107.076 122.131 106.929 122.262 106.802C122.392 106.675 122.555 106.572 122.751 106.495C122.943 106.418 123.165 106.38 123.414 106.38C123.693 106.38 123.945 106.424 124.167 106.512C124.389 106.601 124.59 106.737 124.774 106.917L124.682 107.091L124.676 107.082Z" fill="white"/>
<path d="M123.195 111.996C122.819 111.996 122.49 111.928 122.214 111.792C121.942 111.659 121.702 111.476 121.497 111.246L121.423 111.163L121.589 110.903C121.672 110.797 121.761 110.779 121.82 110.779C121.88 110.779 121.942 110.806 122.004 110.859L122.134 110.971C122.182 111.013 122.241 111.06 122.306 111.107C122.368 111.154 122.445 111.196 122.528 111.237C122.614 111.275 122.712 111.311 122.825 111.337C122.934 111.364 123.062 111.379 123.204 111.379C123.396 111.379 123.571 111.349 123.722 111.293C123.87 111.237 123.995 111.157 124.096 111.063C124.196 110.968 124.273 110.85 124.324 110.72C124.377 110.584 124.404 110.44 124.404 110.283C124.404 110.127 124.371 109.994 124.312 109.893C124.247 109.79 124.158 109.702 124.051 109.634C123.936 109.56 123.799 109.495 123.651 109.442C123.491 109.386 123.328 109.332 123.159 109.279C122.988 109.226 122.816 109.164 122.653 109.096C122.478 109.025 122.321 108.934 122.185 108.822C122.043 108.706 121.927 108.562 121.838 108.39C121.749 108.219 121.705 108.004 121.705 107.75C121.705 107.552 121.743 107.357 121.817 107.174C121.894 106.988 122.007 106.823 122.152 106.684C122.297 106.545 122.478 106.43 122.688 106.347C122.899 106.264 123.142 106.22 123.408 106.22C123.705 106.22 123.977 106.267 124.214 106.362C124.454 106.456 124.673 106.604 124.869 106.799L124.946 106.876L124.804 107.147C124.721 107.307 124.54 107.357 124.347 107.183C124.303 107.141 124.238 107.094 124.155 107.041C124.075 106.991 123.974 106.944 123.85 106.899C123.616 106.817 123.204 106.811 122.943 106.911C122.813 106.958 122.706 107.026 122.62 107.106C122.534 107.189 122.469 107.283 122.428 107.389C122.383 107.496 122.36 107.611 122.36 107.732C122.36 107.883 122.389 108.01 122.451 108.101C122.517 108.202 122.605 108.29 122.715 108.361C122.831 108.438 122.967 108.503 123.115 108.556C123.275 108.612 123.438 108.668 123.607 108.724C123.782 108.78 123.95 108.845 124.113 108.913C124.285 108.984 124.442 109.076 124.581 109.185C124.724 109.297 124.839 109.439 124.928 109.604C125.017 109.772 125.061 109.979 125.061 110.224C125.061 110.469 125.02 110.697 124.934 110.912C124.851 111.128 124.727 111.32 124.564 111.479C124.404 111.639 124.205 111.766 123.974 111.857C123.746 111.949 123.482 111.993 123.189 111.993L123.195 111.996ZM121.788 111.125C121.951 111.29 122.137 111.426 122.342 111.526C122.576 111.642 122.86 111.698 123.192 111.698C123.444 111.698 123.672 111.659 123.867 111.583C124.06 111.506 124.226 111.399 124.356 111.27C124.487 111.14 124.59 110.983 124.659 110.803C124.73 110.623 124.765 110.428 124.765 110.221C124.765 110.026 124.733 109.864 124.667 109.74C124.599 109.61 124.51 109.501 124.401 109.415C124.285 109.324 124.152 109.247 124.004 109.185C123.85 109.12 123.684 109.061 123.518 109.005C123.346 108.949 123.18 108.892 123.017 108.836C122.845 108.777 122.688 108.701 122.555 108.609C122.413 108.515 122.294 108.399 122.205 108.264C122.114 108.122 122.066 107.942 122.066 107.732C122.066 107.576 122.096 107.422 122.155 107.277C122.214 107.133 122.303 107.003 122.419 106.893C122.534 106.784 122.677 106.696 122.842 106.634C123.171 106.51 123.654 106.515 123.953 106.622C124.096 106.672 124.22 106.731 124.318 106.793C124.416 106.855 124.49 106.911 124.549 106.961C124.555 106.967 124.558 106.97 124.564 106.973L124.584 106.932C124.436 106.802 124.276 106.701 124.107 106.634C123.903 106.554 123.669 106.512 123.411 106.512C123.183 106.512 122.979 106.548 122.801 106.616C122.626 106.687 122.478 106.778 122.36 106.89C122.244 107.003 122.152 107.136 122.093 107.28C122.031 107.428 122.001 107.584 122.001 107.744C122.001 107.951 122.034 108.119 122.102 108.252C122.17 108.385 122.259 108.497 122.368 108.585C122.484 108.677 122.617 108.757 122.762 108.816C122.919 108.881 123.082 108.937 123.248 108.99C123.42 109.043 123.586 109.099 123.749 109.155C123.921 109.214 124.078 109.288 124.214 109.377C124.359 109.471 124.478 109.589 124.564 109.728C124.656 109.876 124.703 110.059 124.703 110.274C124.703 110.466 124.667 110.649 124.602 110.818C124.534 110.989 124.433 111.14 124.303 111.264C124.173 111.388 124.016 111.488 123.829 111.559C123.645 111.63 123.435 111.665 123.204 111.665C123.038 111.665 122.887 111.647 122.754 111.615C122.623 111.583 122.505 111.541 122.404 111.494C122.303 111.447 122.211 111.394 122.131 111.334C122.057 111.278 121.992 111.228 121.939 111.184L121.814 111.075L121.791 111.116L121.788 111.125ZM124.543 107.014L124.676 107.082L124.546 107.014H124.543Z" fill="white"/>
<path d="M131.757 111.786H131.458C131.422 111.786 131.393 111.777 131.372 111.757C131.348 111.739 131.33 111.712 131.319 111.683L130.685 110.127H128.045L127.414 111.683C127.405 111.709 127.387 111.736 127.36 111.754C127.334 111.771 127.304 111.783 127.269 111.783H126.972L129.171 106.427H129.559L131.757 111.783V111.786ZM130.569 109.84L129.47 107.133C129.452 107.088 129.434 107.041 129.417 106.988C129.399 106.935 129.381 106.876 129.363 106.817C129.345 106.879 129.328 106.935 129.31 106.988C129.292 107.041 129.274 107.091 129.257 107.138L128.157 109.84H130.569Z" fill="white"/>
<path d="M131.979 111.934H131.458C131.39 111.934 131.325 111.913 131.277 111.872C131.236 111.836 131.203 111.792 131.182 111.742L130.584 110.277H128.143L127.55 111.742C127.532 111.792 127.5 111.836 127.452 111.875C127.402 111.916 127.337 111.937 127.269 111.937H126.753L129.073 106.285H129.66L131.979 111.937V111.934ZM127.195 111.639H127.272L129.123 107.082C129.138 107.041 129.156 106.994 129.174 106.944C129.191 106.89 129.209 106.834 129.224 106.775L129.283 106.577H129.274L127.198 111.639H127.195ZM130.785 109.988L131.455 111.63H131.535L129.449 106.577L129.505 106.775C129.523 106.834 129.541 106.89 129.556 106.944C129.574 106.994 129.588 107.038 129.606 107.079L130.785 109.991V109.988ZM128.383 109.693H130.353L129.369 107.268L128.386 109.693H128.383Z" fill="white"/>
</svg>
