<svg width="148" height="148" viewBox="0 0 148 148" fill="none" xmlns="http://www.w3.org/2000/svg">
<path d="M45.7553 96.6748C50.8572 96.7379 55.9597 96.7554 61.0619 96.7275L96.6078 96.7296C98.2045 96.7282 99.8018 96.7027 101.398 96.7064C101.811 96.7073 102.141 96.8677 102.412 97.1664C102.544 97.3122 102.556 97.2557 102.574 97.4549C101.91 97.584 98.4658 97.5391 97.6086 97.5385L47.5797 97.5728C47.1809 97.5705 46.2647 97.5788 45.9082 97.4724C45.7135 97.2667 45.7474 96.9546 45.7553 96.6748Z" fill="white"/>
<path d="M29.1641 77.7139C29.8036 77.8379 30.6017 78.7574 30.4596 79.4376C30.4086 79.6818 30.095 79.8396 29.8939 79.9604C28.0731 80.5134 28.5781 78.2433 29.1641 77.7139Z" fill="white"/>
<path d="M74.5426 77.8395C75.3371 77.8085 75.8434 79.1408 75.4977 79.7541C75.3811 79.9613 75.1584 79.9946 74.9492 80.0418C74.1805 80.051 73.7539 79.8224 73.8647 78.8992C73.9174 78.4592 74.174 78.0929 74.5426 77.8395Z" fill="white"/>
<path d="M130.012 79.9873C129.86 79.9995 129.69 80.0113 129.539 80.0157C128.661 80.0411 128.874 78.207 129.247 77.8914C129.482 77.8446 129.528 77.8494 129.767 77.8804L129.696 77.9478C129.911 78.4261 130.189 79.4834 130.012 79.9873Z" fill="white"/>
<path d="M129.767 77.8804C129.971 77.895 130.245 77.8901 130.409 77.9965C130.541 78.332 130.551 79.5407 130.491 79.9184L130.434 79.9965C130.269 80.0025 130.176 80.0008 130.012 79.9873C130.189 79.4834 129.911 78.4261 129.696 77.9478L129.767 77.8804Z" fill="white"/>
<path d="M130.221 86.3853C130.358 86.3436 130.525 86.3279 130.647 86.4005C130.566 86.8284 129.979 86.75 129.649 86.7371C129.563 86.7448 129.506 86.7216 129.423 86.6981L129.419 86.5609L129.294 86.4616L129.324 86.4175C129.619 86.3893 129.924 86.3901 130.221 86.3853Z" fill="white"/>
<path d="M69.8303 48H70.6841C70.7442 48.1735 71.0043 48.6443 71.0137 48.7176C71.1833 50.0375 71.1422 51.4419 71.8931 52.6146C72.1271 52.6904 72.4003 52.7721 72.6289 52.8538C72.7736 53.0193 72.9154 53.1844 73.0701 53.3414C73.0918 53.6489 73.1316 53.9786 73.0332 54.2737C72.8217 54.9061 72.536 57.4029 72.9746 57.8137C73.3707 57.878 76.4498 55.6416 77.1195 55.4507C77.293 55.4011 77.542 55.3121 77.7412 55.2648C78.5117 55.0822 79.3689 55.1263 80.0498 54.6846C80.443 54.4293 80.3123 53.9543 80.3686 53.5451C80.5584 53.3044 80.7758 53.014 80.9721 52.7848C81.0295 52.8914 81.1631 53.157 81.2223 53.2439C81.4531 53.5852 81.6219 54.625 81.8762 54.8733C82.5078 55.4904 86.2127 56.3426 86.4131 57.1856C86.2039 57.5741 85.7979 57.6954 85.666 58.078L85.6537 58.1142C85.5705 58.3554 85.5406 58.6145 85.5254 58.8679C85.4797 59.6333 85.4387 65.1072 85.5863 65.4137C85.6314 65.507 85.8418 65.5755 85.9344 65.6042C86.4805 65.7737 87.0693 65.8299 87.6277 65.954C88.1674 66.0738 88.6936 66.2588 89.2385 66.3552C89.7084 66.4383 90.2029 66.4532 90.6646 66.5688C91.0941 66.6762 91.5107 66.8428 91.9373 66.9618C93.2621 67.3309 94.5875 67.6794 95.8959 68.1047C96.8105 68.4019 97.707 68.7549 98.6111 69.0816C99.7906 69.5079 101.165 69.9737 102.292 70.4799C100.133 70.9138 97.4211 69.4858 95.341 68.8338C92.3826 67.9131 89.3715 67.1702 86.3234 66.6091C85.7187 66.4971 84.4977 66.2326 83.917 66.257C79.9039 66.4254 76.0772 68.0007 72.0321 67.9664C69.8347 67.9477 67.9083 67.7448 65.7943 67.1582C64.9774 66.9315 64.1209 66.5524 63.2841 66.4504C62.0465 66.5051 60.7805 66.8336 59.5655 67.0732C55.2361 67.9268 51.1271 69.4234 46.9914 70.9138C46.5329 71.079 45.9396 70.9525 46.255 70.3676C46.8276 70.0646 47.7455 69.7519 48.3755 69.5004C51.2503 68.3342 54.2089 67.3843 57.2264 66.6586C59.1035 66.1922 61.0931 65.767 63.0012 65.5636C64.5258 65.4011 63.3984 63.663 64.2462 62.9444C64.9136 62.3787 65.8072 61.7848 66.4835 61.1845C66.7696 60.9451 67.1699 60.7687 67.45 60.5102L67.6929 60.3611C67.9791 59.9507 68.0025 55.7386 67.7663 55.4313C67.6663 55.6786 67.7521 59.2045 67.6993 59.8334L67.5562 59.8777L67.5673 59.9347L67.684 59.9423L67.5804 59.9936L67.6718 60.0031L67.6398 60.0884L67.5917 60.0777C67.4413 59.7172 67.4679 59.3958 67.4413 58.9991C67.4531 58.15 67.4534 57.3007 67.4419 56.4515C67.4316 55.9158 67.306 55.0566 67.4047 54.5767C67.5393 53.9213 68.4114 53.4944 68.726 52.8968C69.0638 52.2551 69.2252 51.4276 69.2728 50.7068C69.2961 50.355 69.2625 49.7494 69.3489 49.4134C69.4954 48.8438 69.7872 48.6585 69.8303 48ZM64.593 65.8021C67.5014 67.0346 71.4348 67.2163 74.5531 66.8891C75.3336 66.8073 76.2828 66.6013 77.0527 66.438C77.6422 66.3129 79.2383 66.12 79.5963 65.7152C79.7053 65.3863 79.6303 62.5402 79.6648 61.8997C80.3322 61.8599 81.0963 61.8691 81.7379 61.8092C81.7842 63.022 81.7438 64.2422 81.7895 65.4092C82.7486 65.3729 83.7061 65.4076 84.6635 65.3664C84.7162 63.6428 84.735 61.9184 84.7186 60.1941C84.7168 59.4643 84.7273 57.7972 84.6131 57.117C83.9568 56.6418 81.9898 55.8022 81.1824 55.5928C80.2068 55.4897 78.2064 55.8897 77.3609 56.3001C76.1791 56.8733 75.1789 57.722 74.0369 58.3457C73.5172 58.6296 72.6318 59.4489 72.0699 59.0794C71.9401 58.9106 71.9407 58.8585 71.9058 58.6471C72.1091 57.8904 72.1549 55.1822 71.8281 54.4533C71.0447 53.6291 71.0497 52.3941 70.4192 51.2201C69.5165 52.1442 69.9169 52.554 69.4532 53.6406C69.3163 53.9613 68.7906 54.6076 68.5507 54.9307C68.5731 55.6984 68.6939 61.1754 68.478 61.5454C68.1317 61.6049 67.3476 61.6955 67.0783 61.8727C66.5332 62.2314 66.042 62.7598 65.5256 63.1662C65.1323 63.4756 64.8387 63.6864 64.7596 64.2076C64.6796 64.7353 64.6278 65.2698 64.593 65.8021Z" fill="white"/>
<path d="M69.5751 55.2122C70.0031 54.653 70.946 54.8546 70.9689 55.3789C70.9959 55.9991 71.1025 57.1596 70.9356 57.7293C70.7382 57.8992 69.8639 57.9438 69.6277 57.701C69.6926 56.6861 69.7368 56.2012 69.5751 55.2122Z" fill="white"/>
<path d="M80.6961 57.0449C81.7127 57.0061 81.9805 58.2056 81.4379 58.8943C81.2492 59.133 81.1684 59.1172 80.8859 59.151C80.5221 59.0887 80.3199 59.0191 79.9695 58.9026C79.6051 57.903 79.5869 57.4127 80.6961 57.0449Z" fill="white"/>
<path d="M69.6277 57.701C69.6021 57.5878 69.5932 57.2779 69.5694 57.196C69.2895 56.2319 69.3839 56.1366 69.5751 55.2122C69.7368 56.2012 69.6926 56.6861 69.6277 57.701Z" fill="white"/>
<path d="M71.8281 54.4533C72.1549 55.1822 72.1091 57.8904 71.9058 58.6471C71.8593 58.4454 71.7607 58.0345 71.7291 57.8511C71.9281 57.5985 71.8938 55.7206 71.7799 55.3901L71.6626 55.3382C71.6724 55.1348 71.8104 54.9377 71.8281 54.4533Z" fill="white"/>
<path d="M71.6626 55.3382L71.7799 55.3901C71.8938 55.7206 71.9281 57.5985 71.7291 57.8511C71.5854 57.247 71.6468 55.985 71.6626 55.3382Z" fill="white"/>
<path d="M85.5084 70.4228C85.7762 70.3772 86.1365 70.2913 86.3926 70.3427C86.74 70.7132 86.4242 72.0117 86.351 72.4993C86.3147 72.7403 85.6133 74.3625 85.8125 74.4705C86.3973 74.7874 87.5697 74.6443 88.2482 74.6815C89.2736 74.7003 90.3471 74.5979 91.3315 74.6231C91.6162 74.7911 91.9865 74.9727 91.7856 75.3366C91.2975 75.6798 86.5549 75.3561 85.3273 75.5698C84.4437 76.3262 84.1549 78.0672 83.8736 79.1653C83.3434 81.2329 82.3824 85.4237 85.8049 85.3429C87.5334 85.322 89.1348 85.0906 90.602 84.1224L90.6137 84.0945C91.1322 82.8018 90.9746 80.7392 92.5496 80.0773C94.1416 79.4084 94.8277 80.7672 94.2219 82.118C94.0396 82.5243 93.7672 82.8704 93.4695 83.2004C93.118 83.6323 91.9777 84.3475 92.2033 84.9223C92.3217 85.2227 92.7506 85.3938 93.0096 85.5119C93.6799 85.8719 94.2312 85.4835 94.8535 85.486C95.7383 85.4895 96.3951 85.7178 97.2617 85.2984C97.5582 85.1548 98.3398 84.6076 98.0182 84.2021C97.4029 83.4267 95.6867 83.2759 96.0465 81.8682C96.1385 81.4713 96.6441 81.001 97.0654 80.8107C98.1359 80.3266 100.067 79.8601 101.234 80.1764C101.858 80.3457 102.011 80.812 102.397 81.2357C103.385 80.3123 106.283 79.8345 107.574 80.3897C107.738 80.6806 107.925 80.9969 108.072 81.2938C107.807 81.3246 107.523 81.3629 107.259 81.3875C107.091 81.2761 106.82 81.0836 106.649 80.9986C105.804 81.0532 105.166 81.1962 104.455 81.4919C102.598 82.2649 102.409 82.9007 104.472 83.5398C105.313 83.8003 106.031 84.7619 104.95 85.3542C103.988 86.0055 102.836 86.5038 101.67 86.5868C100.809 86.6481 99.4256 86.4326 100.537 85.3711C101.523 85.7011 103.203 85.8767 103.828 84.6637C103.897 84.5307 103.796 84.1121 103.762 83.955C102.53 83.64 101.279 82.961 101.98 81.5089C101.429 81.3415 101.292 81.1809 100.809 80.887C100.073 80.9978 97.1937 81.6278 97.2242 82.5803C97.318 82.8474 97.5277 83.0328 97.7814 83.1402C98.5555 83.4684 98.8754 83.4983 99.5645 84.0154C99.6207 84.3316 99.6857 84.6508 99.7039 84.9709C97.7029 86.2777 96.6148 86.6707 94.2541 86.4904C93.7789 86.4541 93.2557 86.5288 92.6996 86.4447C91.7896 86.307 91.4393 85.1731 90.7853 85.1586C90.2275 85.1462 88.8752 85.7882 88.2857 85.9608C86.4916 86.4863 83.8297 87.105 82.6373 85.1834C82.3648 84.7443 82.3883 84.6982 82.2465 84.2735C82.0408 83.6581 82.5494 81.9235 82.0836 81.6461C81.8287 81.8109 80.9691 82.9527 80.6434 83.3059C79.4844 84.5623 76.0449 86.518 74.2666 86.1532C73.7316 86.047 73.2629 85.7284 72.9693 85.271C72.521 84.5665 72.6395 83.8126 72.4513 83.5543C71.9479 83.5564 71.084 84.9367 70.5845 85.2802C69.5653 85.9811 68.13 86.2048 67.1592 85.2857C66.3231 84.4465 66.4089 83.0218 66.2913 81.9056C66.0291 82.1221 65.7157 82.382 65.5255 82.6571C65.0094 83.4038 63.0675 86.7169 62.04 86.6237C60.8572 85.8845 63.3855 81.8741 61.1912 82.2246C60.0692 82.6006 59.1804 84.0821 58.365 84.7881C56.9207 86.0387 55.0553 86.6697 53.2885 85.7326C51.7978 84.9419 51.7788 83.47 51.6051 81.9886C50.7543 82.8719 50.3323 83.7086 49.6559 84.6825C49.2976 85.1985 48.4263 86.2005 47.9571 86.6693C47.6974 86.6444 47.3166 86.6299 47.0898 86.5262C46.6675 85.6777 48.0127 83.5215 47.175 82.2531C46.3961 82.6118 46.3122 82.6955 45.6243 83.1499C44.8936 83.6083 44.2242 84.4357 43.5252 84.8889C42.1467 85.7828 40.2603 87.2266 38.5236 86.7219C37.548 86.4384 37.3978 85.4326 37.1538 84.6001C36.4256 85.33 34.6859 87.3224 33.5881 86.3393C33.4396 86.2063 33.0975 85.6574 32.9765 85.467C32.3744 85.6694 31.8612 86.0189 31.2933 86.2396C29.8995 86.7813 28.031 86.8286 27.4841 85.1065C27.428 84.9299 27.264 84.2495 27.1773 84.1666C26.8752 84.2219 25.8417 85.2719 25.5648 85.559C24.8691 86.2802 21.9564 87.4817 21.6269 88.1028C19.8669 91.4193 18.5154 94.9254 17.1371 98.4097C16.9161 98.9691 16.3811 99.4593 16.1626 100H14.8631C14.6524 99.4348 14.3951 99.1498 14 98.6907V94.8926L14.0439 94.8684C14.5407 94.5894 14.836 93.5021 15.0921 92.9665C16.078 90.9039 17.6578 89.1257 19.5415 87.8242C20.1846 87.3798 22.0554 86.4185 21.5922 85.3207C21.0284 85.3087 19.3757 87.1882 18.2965 86.2787C17.9923 86.0224 18.0582 85.1778 18.0575 84.7777C18.0558 83.6651 18.7976 82.712 19.5916 81.9523C20.851 80.7474 22.1418 80.506 23.8562 80.4554C24.1065 80.448 24.4061 80.4989 24.583 80.6889C24.9806 81.6148 22.8969 84.7374 22.501 85.6844C22.4238 85.869 22.4202 85.9698 22.4945 86.1472C22.9984 86.3061 23.8239 85.5923 24.2444 85.47C25.4846 85.1094 27.8294 80.8185 28.8209 80.885C28.9741 81.1109 28.841 81.7886 28.8008 82.0562C28.6806 82.8588 28.1086 83.9818 28.6505 84.7382C29.4375 85.8363 31.3852 85.5983 32.38 84.9225C32.83 84.6172 33.1542 84.0876 33.4001 83.6133C34.0511 82.3571 35.2476 81.528 36.5943 81.1423C36.9854 81.0304 38.2204 80.6883 38.5537 81.0031C39.2366 82.3104 36.7106 84.9661 39.0266 85.8019C39.7597 86.0665 40.8593 85.5609 41.4862 85.2133C42.0605 84.9021 42.591 84.5169 43.064 84.0676C44.1434 83.0536 46.1119 80.368 47.7333 80.7595C47.9935 80.8224 48.219 81.0337 48.3283 81.2586C48.8683 82.3701 48.5348 83.2166 48.3242 84.3356C48.306 84.4319 48.3867 84.8613 48.4121 84.9938C48.727 84.5464 51.6867 79.1864 52.3278 80.2469C53.3197 81.8875 52.1445 85.2598 55.5095 85.1894C58.1626 85.1254 59.1815 80.9752 61.7558 80.7687C63.9015 80.5966 62.9571 83.4823 63.3051 84.1504L63.3956 84.206C63.9038 84.0079 65.7741 79.6437 66.9672 80.1938C67.1078 80.2586 67.2089 80.4125 67.2464 80.5658C67.5662 81.8701 67.004 83.4418 68.3852 84.2821C68.674 84.4578 69.1445 84.4786 69.4614 84.3682C71.4277 83.6835 71.9949 81.5885 73.7785 80.43L73.8025 80.4148C73.9484 80.6877 74.0439 80.8649 74.1553 81.1573C73.8729 82.1666 73.3865 83.588 73.9309 84.5345C74.1336 84.8926 74.474 85.1529 74.8742 85.2552C76.7182 85.7327 79.5207 83.2331 80.7008 81.9325C81.6729 80.8616 84.1859 77.1929 83.6234 75.8371C83.4922 75.6795 83.235 75.6646 83.0416 75.6463C81.9916 75.5464 75.974 75.8719 75.5814 75.4233C75.4432 75.2654 75.4385 75.0328 75.4596 74.8351C75.4713 74.7215 75.5088 74.5114 75.6025 74.4408C76.2336 73.9672 82.2289 74.948 83.4945 74.7269C83.726 74.6865 83.8637 74.6075 84.0207 74.4335C84.8322 73.5378 84.9184 71.5633 85.5084 70.4228ZM15.6461 98.5846C15.8688 98.6354 15.9308 98.6603 16.1387 98.5788C16.4982 98.3188 16.9071 96.8466 17.1061 96.3692C17.9857 94.2581 18.779 92.1026 19.8084 90.0567C20.0333 89.6096 20.336 89.1733 20.4692 88.6907C20.5068 88.5542 20.4372 88.4664 20.3746 88.363L20.2958 88.3416C17.7516 90.0335 16.0168 91.8846 15.3791 94.9524C15.2262 95.6879 15.0188 98.0763 15.6461 98.5846ZM19.5418 85.4301C20.9241 85.0939 22.5182 83.0477 23.4236 81.935C23.7065 81.5875 23.5682 81.0314 23.109 81.2391C21.4858 81.7225 19.9068 82.8702 19.0655 84.3637C18.7342 84.9518 18.8897 85.2857 19.5418 85.4301ZM34.7959 85.4711C36.0499 84.9816 36.6112 83.8206 37.3513 82.7752C37.4891 82.5806 37.605 82.3111 37.603 82.0716C37.4875 81.8313 37.2101 81.877 36.9604 81.8718C36.0031 82.105 34.8978 82.9374 34.4025 83.7866C33.9372 84.5845 33.8471 85.1289 34.7959 85.4711ZM92.4699 83.0579C93.0096 82.5207 94.407 80.8962 92.798 80.7746C92.4283 81.0602 91.5664 83.0549 92.2895 83.1829L92.4699 83.0579Z" fill="white"/>
<path d="M110.49 84.6667C109.723 85.4556 107.446 88.0765 106.619 85.7205C106.382 84.7189 106.435 84.0996 106.888 83.129C107.402 82.0296 110.68 80.4607 111.673 80.9399C112.753 81.4602 110.551 84.8239 111.964 85.4885C112.388 85.6879 112.976 85.6776 113.434 85.5351C115.531 84.8908 116.876 82.9215 117.711 81.0145C118.037 80.2685 117.963 78.9802 118.903 78.7166C119.042 78.6777 119.294 78.6744 119.408 78.7743C120.181 79.451 118.861 80.5718 119.012 81.2288C119.889 82.0716 121.067 79.6851 121.764 80.8951C121.914 81.6947 120.985 82.3053 120.593 82.9023C120.422 83.1633 120.314 83.4441 120.389 83.757C120.536 84.377 121.242 84.9707 121.77 85.284C122.107 85.4843 122.732 85.5042 123.113 85.4639C126.262 85.1299 127.459 81.1981 128.804 80.8952C128.936 80.8654 128.96 80.8881 129.071 80.9556C129.345 81.4664 128.802 83.5829 128.677 84.2062C128.805 84.6063 128.861 84.8355 129.213 85.1174C130.047 85.7844 131.841 85.4286 132.726 85.0205C133.24 84.7833 133.275 84.4553 134 84.3531V85.1408C133.013 85.3757 133.03 85.6138 132.233 86.0143C131.288 86.3645 129.845 86.308 128.854 86.3061C127.415 86.3032 127.559 84.2522 127.693 83.3162C126.708 83.8266 126.601 84.4327 125.867 85.1548C124.97 86.0362 123.756 86.5236 122.495 86.5082C121.6 86.4994 120.968 86.2921 120.315 85.6614C119.454 84.8306 119.588 83.8369 119.599 82.7213C118.265 82.1179 118.164 81.9391 117.339 83.3022C116.268 85.0687 113.898 87.416 111.627 86.5143C110.879 85.6502 111.004 85.5958 110.49 84.6667ZM107.843 85.2961C108.487 85.3084 108.826 85.0919 109.285 84.6452C109.844 84.1012 110.847 82.9023 111.148 82.2243C111.14 81.9862 111.148 81.7019 111.06 81.4859L110.975 81.4466L110.956 81.4627C110.71 81.6628 110.476 81.7668 110.182 81.8771C109.002 82.3211 107.692 83.1184 107.591 84.51C107.571 84.7788 107.533 84.9092 107.663 85.162L107.843 85.2961Z" fill="white"/>
<path d="M67.4413 58.9991C67.4679 59.3958 67.4413 59.7172 67.5917 60.0777L67.6398 60.0884L67.6718 60.0031L67.5804 59.9936L67.684 59.9423L67.5673 59.9347L67.5562 59.8777L67.6993 59.8334C67.7521 59.2045 67.6663 55.6786 67.7663 55.4313C68.0025 55.7386 67.9791 59.9507 67.6929 60.3611L67.45 60.5102C67.4125 60.0123 67.3964 59.4963 67.4413 58.9991Z" fill="white"/>
</svg>
