<svg width="148" height="148" viewBox="0 0 148 148" fill="none" xmlns="http://www.w3.org/2000/svg">
<path d="M93.7724 69.9273C93.7952 69.9247 93.8185 69.9222 93.8412 69.9201C95.0205 69.8074 97.3074 69.8553 98.2255 70.6502C98.9064 71.2394 98.8539 71.6861 98.9314 72.5064C99.403 71.8828 99.9131 70.9089 100.487 70.4311C101.567 69.6344 103.383 69.9139 104.641 69.9706C105.775 70.0218 107.221 70.5783 107.247 71.8852C107.269 72.9836 106.877 74.3231 106.616 75.413L105.16 81.4189C104.916 82.3958 104.408 84.2119 104.3 85.1521C104.542 85.3581 104.894 85.5492 104.809 85.878C104.313 86.1041 101.269 85.9216 100.508 85.8956C100.072 85.8807 100.009 85.4707 100.077 85.0995C100.224 84.298 100.442 83.4834 100.633 82.6833L101.944 77.2553C102.177 76.2892 102.43 75.3202 102.602 74.3432C102.768 73.3934 101.982 73.2574 101.268 73.1824C98.5391 72.8958 98.4587 74.6006 97.9323 76.6623C97.6192 77.8481 97.3214 79.0376 97.0369 80.2304C96.7629 81.3665 96.0307 84.1328 95.9398 85.2104C96.2412 85.3627 96.3426 85.4048 96.4948 85.7013C96.4633 85.7876 96.433 85.9191 96.3438 85.9258C95.5854 85.9825 92.4241 86.0263 91.8837 85.8337C91.703 85.6562 91.6931 85.4606 91.7024 85.2171C91.7712 83.4338 94.5606 74.671 94.1986 73.8289C94.0878 73.5713 93.8243 73.3987 93.5678 73.3009C92.8928 73.0434 91.8651 73.0978 91.2093 73.3904C90.6432 73.643 90.424 74.0207 90.2089 74.5789C89.8831 75.4265 87.5332 84.6843 87.5898 85.0149C87.6358 85.2806 88.0293 85.4575 88.1413 85.7112C88.1669 85.7703 88.1424 85.7958 88.1203 85.8533C87.7629 86.0445 84.2204 85.9712 83.6538 85.9017C83.5203 85.7863 83.3676 85.6061 83.2463 85.4716C83.4334 84.7862 83.5815 83.9787 83.7541 83.2744C84.1493 81.6617 84.5165 80.0324 84.9252 78.4232C85.3531 76.8002 85.7646 75.173 86.1604 73.542C86.3557 72.7475 86.6466 71.6921 86.7574 70.9092C86.5539 70.7189 86.2257 70.4427 86.1062 70.209L86.1459 70.1185C86.6023 69.9297 90.5039 69.9885 90.923 70.2674C91.1929 70.7638 90.7995 71.7741 90.6438 72.3089C91.8342 70.9255 91.7228 70.1518 93.7724 69.9273Z" fill="white"/>
<path d="M23.6034 60.4767L23.6819 60.4916C23.7547 60.7631 19.4942 81.743 19.0944 84.1408C18.4513 83.4886 17.8748 82.7048 17.3507 81.9571C17.0662 81.5082 16.8047 81.0454 16.5675 80.5703C14.7803 77.0234 14.5095 72.9125 15.8161 69.1653C17.13 65.3125 19.9429 62.2755 23.6034 60.4767Z" fill="white"/>
<path d="M30.7284 59.0007C31.9042 58.9875 32.8469 59.16 33.9888 59.37C33.8644 59.9089 33.2162 61.2986 32.9731 61.8454C32.2153 63.5043 31.4561 65.1421 30.7927 66.8417C30.2119 68.3298 29.6937 69.9144 31.6426 70.6312C32.0972 70.489 32.7459 70.1619 32.9925 69.7559C33.6313 68.7044 33.8054 67.0426 33.9497 65.8457C34.2035 63.7382 34.3782 61.6338 34.7169 59.5459C35.6521 59.7976 37.1119 60.4073 37.9042 60.954C37.4322 61.9292 37.0463 63.223 36.665 64.2474C35.8144 66.533 34.9585 68.8055 33.8596 70.9887C33.1112 72.4334 31.673 72.3304 31.0336 73.9853C30.192 76.1638 32.3535 77.0281 33.4532 75.1773C33.698 74.7654 33.9061 74.025 34.0728 73.5459L35.0104 70.8467C36.1433 67.6017 37.2543 64.4649 38.3338 61.191C39.0179 61.479 39.5681 61.9252 40.1603 62.3655C40.0108 62.6613 39.8953 62.969 39.7815 63.2897C38.1326 67.9386 36.644 72.7423 34.5864 77.2255C33.7283 78.9979 30.3662 78.7046 29.6836 80.3121C28.5653 82.9454 30.7929 82.7822 32.4766 82.1844C32.2162 82.6394 31.5016 83.7115 31.1539 84.0985C30.416 84.8999 29.2351 85.6367 28.9661 86.7502C28.5694 88.3679 30.9197 88.7245 31.9212 87.9853C32.2843 87.757 32.4481 87.5294 32.6122 87.1315C33.3789 85.2719 33.9371 83.3003 34.5428 81.3777L37.3794 72.4092L39.5352 65.7215C39.7879 64.926 40.3187 63.4015 40.4745 62.6703C41.3034 63.3126 42.0363 64.0397 42.5873 64.932C42.2995 65.8771 41.7564 67.1903 41.3962 68.1551C40.4527 70.6688 39.4842 73.1732 38.4908 75.668C37.5028 78.3178 36.3039 81.0232 35.147 83.6135C34.6211 84.6585 33.2025 88.3006 32.2217 88.7104C29.7411 89.7469 22.4066 87.8303 21.1442 85.6673C20.642 84.8068 21.6576 77.6322 21.8437 76.2945C22.3401 72.6001 22.9132 68.9162 23.5631 65.2452C23.7159 64.3317 24.2642 60.7251 24.5336 60.0744C25.0971 59.7799 26.7849 59.384 27.4458 59.2288L23.4397 76.4717L22.2802 81.4215C22.0704 82.3316 21.8123 83.2274 21.7288 84.1591C21.6678 84.8407 21.817 85.2001 22.242 85.713C23.0942 86.7411 24.9463 87.0544 25.0976 85.2925C25.2027 84.195 24.7262 83.3305 24.5495 82.277C24.4359 81.5997 24.4546 80.7914 24.5008 80.1059C25.3444 81.0176 26.8375 82.5164 27.6098 80.4327C28.4401 78.1927 25.0295 76.7638 25.1319 74.6707C25.1752 73.7848 25.4663 72.5028 25.6291 71.5807C25.9972 69.4763 26.3853 67.3755 26.7932 65.2784L27.4869 61.6984C27.6379 60.9191 27.8146 59.8639 28.0693 59.1288C28.6954 59.0178 29.4429 59.033 30.0839 59.0292C29.8529 59.8362 29.6363 61.0458 29.4566 61.8987C29.0338 63.8431 28.6395 65.7935 28.2739 67.7492C27.9028 69.6549 27.4286 71.551 27.1814 73.4791C27.0649 74.3876 27.5944 75.0095 28.388 75.3599C28.7117 75.2705 29.0419 75.1336 29.2629 74.8867C30.8152 73.2281 29.0333 71.2773 28.9785 69.8787C28.9256 68.5279 30.3697 59.3511 30.7284 59.0007ZM43.1299 65.5931C43.4073 65.8007 43.8007 66.5509 43.9776 66.8749C47.723 73.7347 45.4287 82.3419 38.7984 86.5199C38.1717 86.9148 37.5234 87.2378 36.8495 87.576C36.0274 87.9757 35.7501 88.0784 34.8558 88.2611C35.3355 87.3895 35.726 86.19 36.0565 85.2464L37.1561 82.1484L40.8114 71.9613C41.4301 70.2176 42.3947 67.2334 43.1299 65.5931ZM28.0771 82.0305C27.5046 82.4337 27.3629 82.7785 26.9327 83.242C26.1296 84.1075 25.5966 86.5274 26.78 87.2958C28.4174 86.8866 28.9772 84.2928 28.4846 82.9469C28.4026 82.7228 28.2683 82.1784 28.0771 82.0305ZM29.75 75.4808C28.8924 76.3233 27.826 78.1667 28.6622 79.3798C28.7025 79.4382 28.8706 79.4979 28.9399 79.5207C30.4388 78.8962 30.7604 76.0523 29.75 75.4808Z" fill="white"/>
<path d="M51.3526 66.0534C52.1131 66.0267 55.6307 65.9484 56.1548 66.2951C56.2463 66.5003 56.212 66.9589 56.1607 67.1767C55.0675 71.812 53.8642 76.4239 52.7484 81.0546C52.4533 82.2789 52.0882 83.5228 51.9092 84.7654C51.8465 85.2011 52.4658 85.3855 52.5145 85.822C52.3789 85.963 52.4031 85.9218 52.1734 85.9656C51.2369 85.971 47.8278 86.1296 47.2446 85.6854C46.9618 85.2329 47.9777 81.6632 48.1581 80.9337L50.3251 72.1877C50.6827 70.7376 51.2938 68.4546 51.5161 67.0325C51.3347 66.8246 50.942 66.4524 50.9422 66.1995C51.0841 66.0525 51.1199 66.0879 51.3526 66.0534Z" fill="white"/>
<path d="M68.8829 69.9869C70.5226 70.0413 72.1706 70.0086 73.8114 70.008C74.6596 70.0078 75.541 69.9619 76.3828 70.0687C77.0129 70.1487 77.741 70.3175 78.2773 70.6705C78.7699 70.995 79.1611 71.527 79.2456 72.1142C79.4135 73.2829 77.3755 80.7118 76.9232 82.594C76.764 83.258 76.4102 84.263 76.4271 84.9177C76.4382 85.3612 76.8427 85.398 76.9196 85.7702L76.8486 85.8711C76.2144 86.1314 73.3614 85.8762 72.5325 85.9175C71.6517 85.9613 72.4252 83.5809 72.5272 83.1318C71.8751 83.837 71.5021 84.7542 70.8393 85.5426C70.5357 85.7905 70.106 85.9653 69.7063 86.0086C68.3177 86.1589 66.2287 86.2193 65.048 85.4249C64.503 85.0582 64.1369 84.3142 64.0669 83.709C63.831 81.6687 64.2268 79.298 65.4441 77.6284C67.1358 75.3084 69.5286 75.3762 72.1017 75.3956C72.6939 75.4 73.453 75.4078 74.0266 75.3159C74.2836 75.1368 74.4789 74.961 74.6258 74.6792C74.7849 74.3734 74.926 73.9263 74.8088 73.5897C74.7295 73.3629 74.5273 73.2254 74.304 73.156C73.1749 72.805 69.4211 73.3237 68.5514 72.9027C68.4023 72.8305 68.3032 72.7224 68.2551 72.5635C68.1454 72.2009 68.5186 70.3992 68.7044 70.0633C68.7314 70.0143 68.8276 70.0028 68.8829 69.9869ZM61.6645 67.0298C61.994 67.0257 62.3797 67.0646 62.713 67.0903C62.4828 67.9678 62.2024 69.1034 62.0543 69.9834C63.2167 70.0403 64.6442 70.0012 65.8448 70.0199C65.7225 70.753 65.4167 71.9973 65.0857 72.6689C64.5892 73.6762 61.6322 72.5658 61.2614 73.5845C60.7837 74.8969 58.9575 80.9568 59.1571 82.0935C59.5452 82.6932 61.7481 82.514 62.3976 82.369C62.6986 82.1246 63.1277 81.4019 63.4711 81.3953C63.5804 81.676 62.6895 84.7526 62.5083 85.227C62.2504 85.9 61.518 85.9586 60.8878 85.9609C59.3306 85.9667 57.8297 85.9785 56.2673 85.9716C55.2714 85.9673 54.3343 85.6648 54.3187 84.4906C54.3468 83.53 54.6873 82.3705 54.9141 81.4345L56.222 76.1141C56.432 75.2707 56.8095 73.9469 56.9294 73.1462L55.4968 73.1228C55.6316 72.2872 55.917 71.4961 56.0645 70.5234C58.0964 70.2254 59.4895 69.6878 60.8599 68.0019C61.1378 67.66 61.2455 67.2373 61.6645 67.0298ZM81.5377 66.055C82.3596 65.9712 85.5383 66.0356 86.2822 66.2101C86.3603 67.487 85.423 70.4861 85.0855 71.8384C84.4011 74.5804 83.7184 77.3469 83.0603 80.0964C82.6919 81.6344 82.0722 83.6276 81.9038 85.1595C82.0897 85.316 82.33 85.4637 82.4197 85.6763C82.4133 85.8644 82.4372 85.7963 82.3206 85.9482C81.3605 85.9878 80.3526 85.9429 79.3873 85.9633C78.8941 85.9737 78.1112 86.0025 77.7195 85.671C77.5318 85.201 78.5204 81.5032 78.6906 80.7984L81.048 71.2837C81.3826 69.8978 81.8211 68.211 82.0764 66.824C81.9196 66.6739 81.723 66.5497 81.5248 66.3594C81.4671 66.1678 81.4648 66.2442 81.5377 66.055ZM73.7636 78.0245C72.9825 77.9882 72.2204 77.9714 71.4392 78.0172C69.3255 78.2355 68.6159 79.0252 68.3991 81.1188C68.2411 82.6455 69.6965 82.5298 70.787 82.5532L72.7341 82.554C72.979 81.7332 73.6779 78.838 73.7636 78.0245Z" fill="white"/>
<path d="M115.498 66.1015C116.48 66.0347 119.506 65.9976 120.368 66.2207C120.336 67.5594 119.699 69.5812 119.366 70.9591L117.043 80.3296C116.694 81.7649 116.174 83.7064 115.95 85.1424C116.196 85.3352 116.629 85.5938 116.501 85.9222C115.785 86.0069 112.344 86.0586 111.806 85.7196C111.529 85.3428 112.433 82.1374 112.587 81.5246C113.376 78.3848 114.101 75.2038 114.916 72.0715C115.174 71.0701 115.42 70.0658 115.655 69.0588C115.82 68.3651 116.048 67.5213 116.105 66.8247C115.863 66.5892 115.556 66.4328 115.498 66.1015Z" fill="white"/>
<path d="M121.677 66.0569C122.849 66.0171 125.21 66.0682 126.314 66.1862C126.338 67.5844 125.266 71.3864 124.876 72.9304L122.585 82.1611C122.374 83.0481 122.171 83.9222 121.917 84.7984C121.825 85.1164 122.499 85.4682 122.471 85.8546L122.331 85.9341C122.278 85.9378 122.225 85.941 122.173 85.9438C121.435 85.985 118.256 86.1034 117.775 85.677C117.564 85.1636 118.716 80.9285 118.903 80.1669L121.282 70.5141C121.55 69.4026 121.853 68.2876 122.023 67.1585C122.124 66.4864 121.495 66.6315 121.561 66.139L121.677 66.0569Z" fill="white"/>
<path d="M108.654 70.0428C109.405 69.9927 112.822 69.9518 113.315 70.3449C113.552 70.9704 112.401 74.9069 112.191 75.7639L109.937 85.1062C110.236 85.3719 110.54 85.4961 110.551 85.9163C109.994 86.0032 106.13 86.0434 105.822 85.7546C105.656 85.0663 106.399 82.3712 106.608 81.5011L108.549 73.6647C108.741 72.8684 109.107 71.5144 109.152 70.7403C108.949 70.6363 108.727 70.5491 108.605 70.3629C108.579 70.1532 108.565 70.2323 108.654 70.0428Z" fill="white"/>
<path d="M130.307 61.8304C131.515 61.588 132.695 62.3559 132.951 63.5513C133.207 64.7468 132.443 65.9232 131.239 66.1878C130.02 66.456 128.814 65.6868 128.555 64.4754C128.295 63.2642 129.083 62.076 130.307 61.8304ZM131.158 65.9067C133.993 64.9652 132.55 61.7978 130.378 61.9418C129.227 62.3484 128.538 63.6823 128.973 64.8478C129.132 65.2697 129.456 65.6099 129.872 65.7916C130.317 65.9911 130.689 65.9863 131.158 65.9067ZM129.988 62.5757C131.152 62.5338 132.443 62.5783 131.531 64.1569C131.64 64.4713 131.973 65.4281 131.427 65.5143C131.264 65.4308 131.127 65.1489 131.048 64.9874C131.031 64.7676 131.03 64.6503 130.949 64.4407C130.795 64.3022 130.663 64.1308 130.457 64.2314C130.237 64.6043 130.519 65.2977 130.11 65.5178C129.56 65.4731 129.695 64.8335 129.688 64.4185C129.674 63.7155 129.663 63.2126 129.988 62.5757ZM131.155 63.2148C130.938 62.9169 130.821 62.9715 130.46 62.9681C130.376 63.2619 130.319 63.3976 130.451 63.6636C130.647 63.8162 130.865 63.794 131.121 63.8011C131.159 63.5836 131.197 63.4345 131.155 63.2148Z" fill="white"/>
<path d="M110.457 66.0348C111.038 66.0162 113.866 66.0163 114.293 66.2581C114.508 66.5934 114.045 68.8229 113.82 69.0347C112.653 69.0606 111.167 69.1012 110.03 68.9144C109.577 68.8399 110.308 66.3518 110.457 66.0348Z" fill="white"/>
</svg>
