<svg width="148" height="148" viewBox="0 0 148 148" fill="none" xmlns="http://www.w3.org/2000/svg">
<path d="M15.4982 70.6939C15.3326 69.9884 15.0651 69.9318 14.2561 69.9318C14.0396 69.9318 13.9759 69.8247 14.0077 69.6798C14.0396 69.5349 14.0077 69.4405 14.0523 69.3208C14.0706 69.2694 14.1028 69.2239 14.1455 69.1895C14.1882 69.155 14.2397 69.1329 14.2944 69.1255C15.632 68.8106 16.9718 68.5061 18.3137 68.2122C18.4411 68.2122 18.6003 68.2122 18.5812 68.4515L18.543 68.7476C18.543 68.9428 18.4029 68.9869 18.3009 69.0436C18.0742 69.1252 17.8874 69.2892 17.7785 69.5022C17.6697 69.7151 17.6469 69.9611 17.7149 70.19C18.3222 72.8355 18.9252 75.4873 19.5239 78.1454C19.6895 78.8446 19.9443 78.9076 20.7278 78.9264C20.9317 78.9264 20.989 79.0398 20.9571 79.1847C20.9253 79.3296 20.9253 79.4241 20.9125 79.5374C20.8962 79.5871 20.866 79.6312 20.8254 79.6646C20.7849 79.698 20.7356 79.7195 20.6832 79.7264C19.4093 80.0098 18.1353 80.2996 16.8614 80.6019C16.7403 80.6019 16.5875 80.6019 16.6002 80.3752C16.6002 80.2681 16.6002 80.1736 16.6002 80.0728C16.6002 79.8776 16.734 79.8335 16.8295 79.7768C17.0472 79.6857 17.2229 79.5182 17.3229 79.3064C17.4229 79.0947 17.44 78.8539 17.371 78.6304C16.7467 75.9849 16.1097 73.3394 15.46 70.6939" fill="white"/>
<path d="M27.5689 76.4888C27.7027 77.1943 27.9575 77.2699 28.7346 77.314C28.9384 77.314 28.9958 77.4336 28.9576 77.5785L28.9002 77.9312C28.8831 77.981 28.8517 78.0248 28.8099 78.0572C28.768 78.0897 28.7175 78.1094 28.6645 78.1139C27.3906 78.347 26.1166 78.5989 24.8108 78.8572C24.6898 78.8572 24.5369 78.8572 24.5624 78.6178C24.5624 78.517 24.5624 78.4162 24.5943 78.3155C24.6261 78.2147 24.7344 78.0824 24.8363 78.032C25.0565 77.9482 25.2372 77.7862 25.3432 77.5778C25.4492 77.3693 25.4729 77.1293 25.4096 76.9045L23.6707 68.3004C22.4477 68.5397 21.2247 68.7896 20.0017 69.0499C19.7851 69.1003 19.5622 69.0499 19.7087 68.7539C19.7787 68.5334 19.8552 68.313 19.9252 68.0862C19.9758 67.994 20.049 67.9157 20.138 67.8585C20.227 67.8013 20.329 67.767 20.4348 67.7587C23.4222 67.1288 26.4097 66.5556 29.4034 66.0391C29.6328 66.0013 29.8493 66.0391 29.6901 66.3477L29.448 66.9776C29.3945 67.0672 29.3194 67.1423 29.2293 67.1961C29.1393 67.25 29.0372 67.281 28.9321 67.2863L25.9001 67.8406C26.4606 70.738 27.0169 73.6208 27.5689 76.4888Z" fill="white"/>
<path d="M42.9456 75.7204C42.8882 75.8778 42.7672 75.9093 42.5825 75.9345C41.385 76.0857 40.1875 76.2474 38.9899 76.4195C38.8434 76.4195 38.6969 76.4195 38.7415 76.1802C38.7415 76.0668 38.7988 75.9471 38.8307 75.8337C38.9199 75.481 39.7671 75.5125 39.3148 74.5425C39.0409 74.0071 38.7543 73.478 38.474 72.9489C37.1746 73.1336 35.8794 73.3289 34.5884 73.5347C34.4547 74.196 34.3273 74.8637 34.2062 75.5314C34.0534 76.4573 35.2381 76.0983 35.1044 76.5266L35.0471 76.7219C35.0088 76.8163 34.9961 77.0179 34.7859 77.0557L32.4227 77.4399C32.1361 77.4903 31.824 77.61 31.9004 77.2069C31.9004 77.125 31.9004 77.0431 31.9004 76.9612C31.9004 76.8793 32.0342 76.7534 32.2571 76.6463C32.8622 76.3754 32.9578 76.2558 33.1361 75.3865C33.6075 72.7998 34.1022 70.2152 34.6203 67.6327C34.7018 67.4089 34.7012 67.1639 34.6185 66.9405C34.5358 66.7172 34.3764 66.5296 34.168 66.4107C33.7476 66.1021 33.0151 66.3351 33.168 65.8879L33.2062 65.6108C33.2444 65.4155 33.3845 65.3777 33.5565 65.3525C34.4801 65.2077 35.4038 65.0628 36.3274 64.9305C36.5503 64.899 36.7096 65.1132 36.7987 65.3525C38.3912 68.5019 40.1747 71.708 41.5187 74.1709C41.92 74.9456 42.0156 74.9897 42.7927 75.1094C42.9519 75.1094 43.0539 75.2228 43.0284 75.3676C43.0029 75.5125 42.9519 75.6196 42.9201 75.7519M37.958 72.0356C37.2064 70.612 36.4442 69.1906 35.6713 67.7713C35.3464 69.3523 35.0343 70.9207 34.7286 72.5206C35.8051 72.3505 36.8815 72.1867 37.958 72.0356Z" fill="white"/>
<path d="M46.9967 72.8103C47.156 74.2086 47.4617 74.4984 48.3153 74.4102L49.5892 74.2905C51.0925 74.1394 51.1626 72.571 51.3919 72.615L51.7932 72.7158C51.8505 72.7158 51.8887 72.7914 51.8951 72.8544L52.048 74.4921C52.048 74.7629 51.7932 74.933 51.411 74.9771C49.0075 75.1913 46.6124 75.4453 44.2259 75.7393C44.1049 75.7393 43.9456 75.7393 43.9902 75.481L44.0475 75.185C44.0858 74.996 44.2068 74.9645 44.3087 74.9141C44.5345 74.8493 44.728 74.7038 44.8515 74.506C44.9751 74.3082 45.02 74.072 44.9775 73.8433C44.6123 71.139 44.2662 68.4368 43.9393 65.7368C43.8501 65.025 43.6017 64.9368 42.7927 64.8486C42.5825 64.8486 42.5315 64.7038 42.5825 64.5652C42.6334 64.4266 42.6398 64.3384 42.6653 64.2187C42.6871 64.1694 42.7226 64.1272 42.7677 64.0971C42.8128 64.067 42.8657 64.0502 42.9201 64.0487C44.2768 63.8912 45.64 63.74 46.9967 63.5952C47.1241 63.5952 47.2897 63.5952 47.2388 63.8597C47.2388 63.9542 47.1942 64.055 47.1751 64.1495C47.156 64.2439 47.0031 64.3699 46.8885 64.414C46.6567 64.4724 46.4558 64.6151 46.3259 64.8136C46.196 65.0122 46.1467 65.2519 46.1878 65.4848L46.9967 72.8103Z" fill="white"/>
<path d="M63.9913 68.0295C64.1059 71.3175 61.9912 74.4102 58.405 74.6307C55.6978 74.8007 52.876 72.8166 52.5384 69.1381C52.4357 68.3264 52.5036 67.5025 52.738 66.7179C52.9723 65.9334 53.368 65.2052 53.9002 64.579C54.4325 63.9527 55.0898 63.4419 55.831 63.0786C56.5722 62.7153 57.3813 62.5073 58.2075 62.4677C61.4561 62.2787 63.8766 64.8801 63.9913 68.0295ZM54.8698 68.3634C55.1628 72.0797 56.7807 73.6418 58.6279 73.5284C60.9338 73.3835 61.7236 70.5301 61.6154 68.3508C61.4497 64.8675 59.7044 63.4692 57.9336 63.5826C55.2647 63.7463 54.7488 66.6942 54.8698 68.3634Z" fill="white"/>
<path d="M79.215 73.3394C79.1465 73.5045 79.0396 73.6512 78.9029 73.7677C77.9407 74.1106 76.9165 74.2501 75.8964 74.1771C72.3994 74.1771 69.9597 71.6891 69.8897 68.0232C69.8643 67.2299 70.0028 66.4399 70.2967 65.7013C70.5905 64.9627 71.0335 64.2912 71.5987 63.7276C72.1638 63.164 72.8392 62.7203 73.5836 62.4235C74.328 62.1268 75.1258 61.9832 75.9282 62.0016C77.2611 61.9992 78.567 62.3729 79.6927 63.0787C79.8201 63.1479 79.8201 63.255 79.8138 63.3684C79.8138 63.7274 79.8138 64.0865 79.8138 64.4392C79.8071 64.5118 79.773 64.5793 79.7182 64.6282L79.2787 64.9368C79.043 65.1195 78.5525 63.1165 75.96 63.0913C73.5268 63.0913 72.272 65.1069 72.2974 67.8406C72.2974 71.1978 74.1447 73.0434 76.234 73.0623C76.7966 73.0895 77.359 73.0054 77.8884 72.8151C78.4177 72.6247 78.9034 72.3319 79.3169 71.9537C79.559 71.7269 79.8966 71.9537 79.7501 72.1993L79.2405 73.3142" fill="white"/>
<path d="M84.0688 67.2989C85.2875 67.3451 86.5042 67.4017 87.7187 67.4689C87.9225 67.4689 88.0117 67.5823 87.9098 67.7272L87.5976 68.2311C87.544 68.3145 87.4658 68.3798 87.3736 68.4181C87.2814 68.4563 87.1795 68.4658 87.0817 68.4452C86.0625 68.3886 85.0434 68.3445 84.0306 68.3067L83.8968 71.5569C83.8458 72.8166 84.1134 73.1441 84.9542 73.1756L86.2281 73.2386C87.7441 73.3142 88.0371 71.9222 88.2537 71.9789L88.6359 72.13C88.663 72.1462 88.6851 72.1695 88.6997 72.1972C88.7143 72.225 88.7209 72.2563 88.7187 72.2875C88.7187 72.8355 88.6487 73.3835 88.6168 73.9315C88.6168 74.196 88.2983 74.3346 87.8843 74.3094C86.3046 74.2212 84.7227 74.1478 83.1388 74.089C81.9668 74.0449 81.6292 74.0512 81.661 72.8796C81.7544 69.9947 81.8457 67.1099 81.9349 64.225C81.9349 63.5196 81.6483 63.2235 80.9603 63.085C80.7183 63.0157 80.5782 62.959 80.661 62.7763C80.7438 62.5937 80.7565 62.5685 80.8011 62.4614C80.822 62.4044 80.86 62.3551 80.9102 62.3202C80.9603 62.2852 81.0201 62.2664 81.0814 62.2661C83.4254 62.3291 85.7695 62.4299 88.0881 62.5559C88.3939 62.5559 88.5786 62.77 88.534 62.9968C88.534 63.4503 88.4767 63.8912 88.4512 64.3447C88.4471 64.3736 88.437 64.4013 88.4217 64.4263C88.4064 64.4512 88.3861 64.4727 88.362 64.4896L88.0626 64.7227C87.8142 64.9116 87.6486 63.5385 86.5721 63.4629L84.2153 63.3558C84.1643 64.6534 84.107 65.9509 84.056 67.2485" fill="white"/>
<path d="M96.2478 65.7116C96.1076 65.8186 95.8656 65.0817 95.6936 64.6534C95.6045 64.3575 95.4225 64.0974 95.1741 63.9106C94.9256 63.7238 94.6235 63.6199 94.3114 63.6141C93.9381 63.583 93.5657 63.6836 93.2603 63.898C92.9548 64.1125 92.736 64.4269 92.6425 64.7856C92.3813 65.9761 93.1648 66.6753 94.3878 67.6768C96.0057 69.0373 96.9357 70.0577 96.8465 71.6135C96.6937 74.0764 94.6299 74.996 92.5151 74.8385C91.7782 74.7975 91.052 74.6445 90.3621 74.385C89.5723 74.0638 89.5786 74.0449 89.6041 73.6103C89.6041 73.0686 89.6742 72.5332 89.7124 71.9915C89.7124 71.8025 89.6742 71.5506 89.8334 71.4939L90.3494 71.3238C90.5214 71.286 90.5468 72.0104 90.8781 72.7221C90.9853 73.0316 91.1817 73.3032 91.4432 73.5036C91.7046 73.7039 92.0197 73.8242 92.3495 73.8496C92.615 73.8773 92.8834 73.852 93.1389 73.7752C93.3943 73.6984 93.6315 73.5717 93.8365 73.4025C94.0415 73.2333 94.21 73.0251 94.332 72.7903C94.4541 72.5555 94.5272 72.2988 94.5471 72.0356C94.7509 70.5868 93.4132 69.6357 92.2539 68.6279C91.3813 67.8595 90.171 67.1918 90.2793 65.4785C90.3749 63.9542 91.8081 62.6126 94.3687 62.8078C95.0345 62.8358 95.6863 63.0055 96.2796 63.3054C96.7446 63.5448 96.9867 63.7211 96.9166 64.0046C96.872 64.414 96.8402 64.8234 96.7956 65.2643C96.7956 65.3336 96.7383 65.3777 96.6873 65.4407C96.5217 65.5415 96.3561 65.6423 96.1968 65.7494" fill="white"/>
<path d="M106.796 75.4306C106.708 75.5873 106.584 75.7212 106.433 75.8211C105.437 76.0569 104.402 76.0826 103.395 75.8967C99.9168 75.481 97.7701 72.7473 98.1141 69.1192C98.1827 68.33 98.4128 67.5628 98.7905 66.8643C99.1681 66.1657 99.6854 65.5503 100.311 65.0555C100.936 64.5607 101.657 64.1967 102.429 63.9857C103.201 63.7748 104.009 63.7212 104.802 63.8282C106.133 63.9695 107.394 64.4879 108.433 65.321C108.554 65.4029 108.541 65.5037 108.522 65.6171C108.471 65.9698 108.427 66.3288 108.376 66.6816C108.355 66.7498 108.313 66.8095 108.255 66.8516L107.783 67.1099C107.522 67.2611 107.261 65.2203 104.681 64.9116C102.267 64.6219 100.783 66.5052 100.496 69.22C100.152 72.5584 101.77 74.5992 103.834 74.8511C104.39 74.9392 104.957 74.9172 105.504 74.7864C106.051 74.6556 106.566 74.4185 107.019 74.089C107.28 73.8874 107.592 74.152 107.42 74.3787L106.783 75.4306" fill="white"/>
<path d="M120.23 72.0797C119.593 75.3172 116.841 77.8619 113.281 77.2888C110.599 76.8541 108.287 74.2968 108.783 70.6372C108.867 69.8256 109.118 69.0396 109.522 68.3283C109.926 67.6169 110.473 66.9954 111.131 66.5025C111.788 66.0097 112.541 65.656 113.343 65.4636C114.144 65.2711 114.977 65.2441 115.79 65.384C119.02 65.9131 120.797 68.9869 120.198 72.0797M111.204 70.3979C110.656 74.0827 111.841 75.9534 113.714 76.2558C116 76.6274 117.415 74.0197 117.803 71.8466C118.44 68.4138 117.032 66.6627 115.255 66.3855C112.605 65.9572 111.433 68.7161 111.179 70.3727" fill="white"/>
<path d="M121.924 66.7887C121.962 66.7519 122.009 66.7252 122.06 66.7108C122.111 66.6965 122.165 66.6951 122.217 66.7068C123.13 66.8789 124.041 67.0553 124.95 67.2359C125.338 67.3493 125.491 67.6894 125.702 68.0925C127.128 71.0319 128.489 73.9987 129.785 76.9927L131.313 70.4357C131.479 69.7302 131.269 69.5664 130.536 69.2137C130.339 69.1318 130.339 68.9932 130.428 68.8799L130.632 68.5775C130.67 68.539 130.718 68.5121 130.771 68.4998C130.824 68.4876 130.88 68.4905 130.931 68.5082C131.893 68.7224 132.842 68.9428 133.81 69.1696C133.931 69.1696 134.084 69.2704 133.944 69.4971C133.893 69.5853 133.836 69.6672 133.785 69.7491C133.748 69.8074 133.694 69.8535 133.631 69.8816C133.567 69.9096 133.497 69.9183 133.428 69.9066C133.188 69.8856 132.95 69.9541 132.759 70.0987C132.568 70.2433 132.438 70.4534 132.396 70.6876C131.67 73.7362 130.946 76.7849 130.224 79.8335C130.148 80.161 130.033 80.3626 129.765 80.2933L128.721 80.0602C128.644 80.0602 128.587 79.9091 128.256 79.1784C126.944 76.113 125.561 73.0539 124.109 70.001L122.695 76.9297C122.549 77.6352 122.752 77.799 123.459 78.1265C123.651 78.2021 123.657 78.3407 123.568 78.4603L123.377 78.7627C123.342 78.8025 123.296 78.8311 123.245 78.8446C123.194 78.8581 123.14 78.8559 123.09 78.8383C122.173 78.6556 121.255 78.4729 120.332 78.3029C120.211 78.3029 120.071 78.2147 120.192 77.9816C120.236 77.8934 120.287 77.8053 120.338 77.7171C120.389 77.6289 120.555 77.5596 120.669 77.5407C120.905 77.5487 121.135 77.4691 121.315 77.3175C121.494 77.1659 121.609 76.9534 121.638 76.7219L123.224 68.735C122.916 68.2133 122.477 67.7793 121.95 67.4752C121.657 67.3115 121.644 67.1918 121.74 67.0595C121.797 66.953 121.861 66.85 121.931 66.7509" fill="white"/>
<path d="M39.6715 84.4316C39.5441 84.9229 39.4231 85.4079 39.3021 85.8992L38.6651 86C39.1364 84.1859 39.629 82.374 40.1429 80.5641C41.2087 82.1262 42.2619 83.7072 43.3023 85.3071L42.6653 85.3953L41.85 84.1356C41.1302 84.2426 40.404 84.356 39.6842 84.4757M40.3786 81.868C40.1938 82.5609 40.0091 83.2474 39.8308 83.9403L41.5506 83.6694C41.162 83.0711 40.7735 82.4664 40.3786 81.868Z" fill="white"/>
<path d="M46.8948 84.7843L46.2069 84.8725C45.5699 84.2426 44.9903 83.6128 44.3724 82.9829H44.2323C44.3342 83.6883 44.4361 84.4001 44.5444 85.1056L43.9775 85.1812C43.7291 83.575 43.487 81.9562 43.2449 80.3437L44.0858 80.2303C44.5093 80.1275 44.9548 80.1583 45.3597 80.3185C45.6109 80.4484 45.8148 80.6525 45.9432 80.9024C46.0716 81.1524 46.1179 81.4356 46.0759 81.7128C46.0338 81.99 45.9055 82.2474 45.7086 82.449C45.5117 82.6507 45.2562 82.7867 44.9775 82.838C45.6188 83.4889 46.2557 84.1398 46.8885 84.7906M44.5125 82.4538C45.2451 82.353 45.5954 81.994 45.5126 81.3956C45.4298 80.7972 44.9903 80.6082 44.2386 80.7153L43.8947 80.7657C43.9838 81.3389 44.0667 81.9247 44.1558 82.5042L44.5125 82.4538Z" fill="white"/>
<path d="M48.9395 84.5324L48.3726 84.5954C48.1879 83.1466 47.9968 81.6979 47.8184 80.2429L46.5445 80.4004C46.5445 80.2303 46.4999 80.0665 46.4744 79.8965C47.5 79.7642 48.5319 79.6445 49.5574 79.5248L49.6147 80.0287L48.3408 80.1799C48.5127 81.6286 48.6975 83.0774 48.8822 84.5324" fill="white"/>
<path d="M51.4938 84.2426L50.9269 84.3056C50.7422 82.6805 50.5511 81.0617 50.3727 79.4429L50.9524 79.38C51.1307 81.0009 51.3112 82.6217 51.4938 84.2426Z" fill="white"/>
<path d="M57.3158 81.2444C57.3158 81.2822 57.3158 81.3263 57.3158 81.3641C57.4036 81.913 57.2809 82.4746 56.9718 82.9388C56.7577 83.2333 56.4818 83.4786 56.163 83.658C55.8442 83.8374 55.49 83.9465 55.1246 83.9781C54.4446 84.0389 53.7672 83.8366 53.235 83.4137C52.7028 82.9908 52.3572 82.3803 52.2709 81.7105C52.245 81.1615 52.3918 80.6179 52.6912 80.1548C52.9905 79.6917 53.4277 79.3317 53.9426 79.1245C54.4574 78.9173 55.0246 78.873 55.5659 78.9977C56.1073 79.1224 56.5962 79.41 56.9654 79.8209L56.5769 80.2177C56.2968 79.8755 55.9137 79.6304 55.4833 79.5179C55.0528 79.4054 54.5973 79.4314 54.1828 79.5921C53.7683 79.7528 53.4164 80.0399 53.178 80.4118C52.9396 80.7836 52.8271 81.2208 52.8569 81.6601C52.9226 82.1924 53.1955 82.6784 53.6178 83.0147C54.04 83.3511 54.5783 83.5114 55.1182 83.4616C55.4238 83.4272 55.7169 83.322 55.9737 83.1545C56.2304 82.9871 56.4437 82.7621 56.596 82.4979C56.7057 82.2792 56.7562 82.0361 56.7425 81.7924L55.2329 81.9184C55.2329 81.7546 55.2329 81.5845 55.1819 81.4145L57.3158 81.2444Z" fill="white"/>
<path d="M59.0929 83.575L58.526 83.6128C58.3986 81.9877 58.284 80.3563 58.1566 78.7375L58.7426 78.6934C58.8509 80.3185 58.9719 81.9499 59.0929 83.575Z" fill="white"/>
<path d="M60.9274 82.0632C60.7554 82.542 60.5771 83.0081 60.4051 83.4868L59.8 83.5246C60.4497 81.7651 61.1249 80.0119 61.8256 78.2651C62.6749 79.9448 63.5242 81.6244 64.3735 83.3041H63.7365L63.0677 81.9499L60.9019 82.0695M61.8638 79.55C61.6345 80.2114 61.3797 80.898 61.1376 81.5279C61.7109 81.4901 62.2778 81.4586 62.8511 81.4334L61.8956 79.5437" fill="white"/>
<path d="M64.8703 78.1517C66.2632 79.4115 67.6327 80.7006 68.9788 82.0192C68.9788 80.7594 68.9215 79.4996 68.896 78.2399H69.4756C69.4756 79.9469 69.5457 81.6475 69.5776 83.3545C68.2442 82.0486 66.8853 80.7573 65.5009 79.4807C65.5519 80.7405 65.5965 82.0003 65.6474 83.26H65.0805C65.0168 81.5656 64.9404 79.865 64.8703 78.1706" fill="white"/>
<path d="M75.9219 80.6397C75.9435 81.1635 75.8061 81.6817 75.5274 82.1277C75.2487 82.5736 74.8414 82.9269 74.358 83.142C73.8745 83.3572 73.3371 83.4243 72.8147 83.3349C72.2923 83.2454 71.809 83.0035 71.4268 82.6401C71.0447 82.2768 70.7813 81.8087 70.6704 81.296C70.5595 80.7834 70.6063 80.2497 70.8048 79.7636C71.0032 79.2775 71.3443 78.8612 71.7839 78.5683C72.2236 78.2754 72.7419 78.1194 73.272 78.1202C73.9589 78.1149 74.6207 78.3755 75.1158 78.8463C75.611 79.3172 75.9003 79.9608 75.9219 80.6397ZM71.1891 80.6397C71.1828 81.0497 71.3004 81.4522 71.5269 81.7957C71.7533 82.1392 72.0782 82.4081 72.4601 82.5679C72.842 82.7276 73.2634 82.7711 73.6704 82.6926C74.0774 82.6142 74.4514 82.4174 74.7446 82.1274C75.0378 81.8375 75.2369 81.4676 75.3162 81.0651C75.3956 80.6627 75.3516 80.246 75.19 79.8683C75.0285 79.4907 74.7566 79.1694 74.4092 78.9455C74.0618 78.7216 73.6548 78.6053 73.2402 78.6115C72.9677 78.6064 72.6969 78.6555 72.4439 78.7557C72.1909 78.8559 71.9608 79.0053 71.7672 79.1949C71.5736 79.3846 71.4205 79.6108 71.3168 79.86C71.2131 80.1093 71.161 80.3765 71.1636 80.646" fill="white"/>
<path d="M78.973 78.2462H80.0304C80.7121 78.2187 81.3797 78.4433 81.9031 78.8761C82.174 79.1184 82.3875 79.4168 82.5285 79.7501C82.6694 80.0834 82.7343 80.4433 82.7185 80.8042C82.7026 81.1651 82.6065 81.5181 82.437 81.8381C82.2674 82.158 82.0286 82.4371 81.7375 82.6553C81.1987 83.0432 80.534 83.2204 79.8711 83.1529H78.8392L78.973 78.2651M79.9157 82.6742C80.1874 82.7116 80.464 82.6918 80.7274 82.6161C80.9908 82.5405 81.2351 82.4108 81.4443 82.2354C81.6535 82.06 81.823 81.8429 81.9415 81.5984C82.0601 81.3538 82.1251 81.0872 82.1324 80.8161C82.1833 79.6382 81.3553 78.8383 80.0367 78.8005H79.5399L79.4252 82.6742H79.9157Z" fill="white"/>
<path d="M84.3936 78.9579L84.3172 80.4193L86.3364 80.5263C86.3364 80.6964 86.3364 80.8665 86.3364 81.0302L84.2917 80.898L84.1962 82.7876L86.2409 82.901L86.2027 83.4049C85.3364 83.3545 84.4701 83.3041 83.6038 83.2663C83.6887 81.6412 83.7673 80.0119 83.8395 78.3785C84.7376 78.4225 85.623 78.4729 86.5148 78.5296C86.5148 78.6934 86.5148 78.8635 86.5148 79.0335L84.4255 78.9138" fill="white"/>
<path d="M87.8461 83.0522L89.2283 83.1529L89.1901 83.6568L87.2537 83.5183C87.3683 81.8932 87.4766 80.2618 87.5849 78.6367L88.1645 78.6745L87.8588 83.0837" fill="white"/>
<path d="M93.3941 82.838L95.2159 79.2729L95.8529 79.3422C94.9738 80.9862 94.1012 82.6364 93.2476 84.2867C92.738 82.5021 92.2115 80.7216 91.6679 78.9453L92.3049 78.9957C92.6871 80.2555 93.0502 81.5593 93.4069 82.838" fill="white"/>
<path d="M96.5854 84.3434L96.0185 84.2804L96.5726 79.4178L97.1523 79.487C96.9697 81.1037 96.7807 82.7225 96.5854 84.3434Z" fill="white"/>
<path d="M98.5154 79.4304C99.6917 80.9085 100.843 82.3971 101.968 83.8962C102.15 82.6364 102.329 81.3767 102.503 80.1169L103.083 80.1988C102.84 81.8869 102.592 83.575 102.35 85.2378C101.237 83.7471 100.097 82.2585 98.9295 80.772C98.7766 82.0318 98.6194 83.2789 98.4581 84.5135L97.8912 84.4442C98.1014 82.7624 98.3052 81.0743 98.5282 79.4052" fill="white"/>
<path d="M109.127 83.6317C108.986 84.3011 108.588 84.8906 108.017 85.2767C107.446 85.6629 106.746 85.816 106.064 85.704C105.578 85.5985 105.134 85.3548 104.787 85.0029C104.439 84.651 104.204 84.2063 104.109 83.7235C104.014 83.2408 104.064 82.7412 104.253 82.2863C104.442 81.8314 104.761 81.4411 105.172 81.1635C105.582 80.8859 106.066 80.7331 106.563 80.724C107.06 80.7149 107.549 80.8498 107.97 81.1122C108.39 81.3746 108.724 81.753 108.93 82.2007C109.135 82.6484 109.204 83.1458 109.127 83.6317ZM104.395 82.8947C104.32 83.429 104.463 83.9708 104.791 84.4016C105.119 84.8324 105.606 85.1172 106.146 85.1938C106.685 85.2827 107.238 85.1609 107.687 84.854C108.136 84.5472 108.447 84.0794 108.554 83.5498C108.601 83.0222 108.443 82.4968 108.112 82.0803C107.781 81.6639 107.302 81.3875 106.773 81.3073C106.244 81.2271 105.703 81.3492 105.261 81.6487C104.82 81.9482 104.51 82.4027 104.395 82.9199" fill="white"/>
</svg>
