<svg width="148" height="148" viewBox="0 0 148 148" fill="none" xmlns="http://www.w3.org/2000/svg">
<path d="M73.9966 37C64.182 37 54.7694 40.8982 47.8295 47.837C40.8896 54.7759 36.9907 64.187 36.9907 74C36.9907 83.813 40.8896 93.2241 47.8295 100.163C54.7694 107.102 64.182 111 73.9966 111H74.0108C83.8253 110.998 93.2371 107.098 100.176 100.158C107.114 93.2177 111.011 83.8059 111.009 73.9929C111.008 64.1799 107.107 54.7695 100.166 47.832C93.2244 40.8945 83.8111 36.9981 73.9966 37ZM66.8033 89.372C66.804 90.6117 66.5602 91.8394 66.086 92.9849C65.6119 94.1304 64.9166 95.1712 64.0398 96.0478C63.1631 96.9244 62.1221 97.6196 60.9765 98.0937C59.8308 98.5678 58.6029 98.8115 57.363 98.8108H55.3355V93.4135H57.363C57.8939 93.4139 58.4196 93.3096 58.9102 93.1066C59.4008 92.9036 59.8465 92.6059 60.222 92.2305C60.5974 91.8552 60.8951 91.4095 61.0982 90.919C61.3012 90.4285 61.4055 89.9028 61.4052 89.372V59.8675H66.8033V89.372ZM66.8033 56.0584V58.5247H61.4052V56.0455C61.41 53.5424 62.4084 51.1435 64.1812 49.3761C65.954 47.6086 68.3561 46.6172 70.8597 46.6196H79.95C81.8173 46.6196 83.6426 47.1729 85.1955 48.2095C86.7484 49.2462 87.9593 50.7197 88.6751 52.444C89.3909 54.1683 89.5796 56.0661 89.2173 57.8975C88.855 59.729 87.958 61.412 86.6396 62.7341L82.8183 58.9249C83.3853 58.3589 83.7714 57.6372 83.9277 56.8514C84.084 56.0656 84.0034 55.2512 83.6962 54.5112C83.389 53.7713 82.869 53.1392 82.2021 52.6952C81.5351 52.2511 80.7513 52.015 79.95 52.0169H70.8415C69.7701 52.0176 68.7428 52.4437 67.9855 53.2016C67.2282 53.9595 66.803 54.9871 66.8033 56.0584ZM87.4932 100.722L70.9372 84.1555C70.0586 83.2798 69.3615 82.2394 68.8859 81.0938C68.4103 79.9483 68.1654 78.7201 68.1654 77.4798C68.1654 76.2395 68.4103 75.0114 68.8859 73.8658C69.3615 72.7203 70.0586 71.6799 70.9372 70.8042L81.8626 59.8675L85.684 63.6896L74.7469 74.6133V74.6262C73.9897 75.3855 73.5644 76.414 73.5644 77.4863C73.5644 78.5585 73.9897 79.587 74.7469 80.3463L91.3146 96.8998L87.4932 100.722Z" fill="white"/>
</svg>
