<svg width="148" height="148" viewBox="0 0 148 148" fill="none" xmlns="http://www.w3.org/2000/svg">
<path d="M47.3762 55.5635L47.4045 55.5611C48.2929 55.4885 52.6172 55.4723 53.215 55.9141C53.3834 56.0385 53.5046 56.5625 53.5574 56.7652C53.7047 57.3297 53.767 57.9188 53.8875 58.4898L55.647 66.4863C55.8371 67.318 56.7136 71.4129 57.1503 71.7821L57.2246 71.7683C57.5052 71.3972 57.3099 68.0848 57.2955 67.3466C57.246 64.8564 57.2163 62.366 57.2063 59.8754C57.1989 58.7034 57.1491 57.3726 57.2706 56.2076C57.2852 56.067 57.4064 55.8774 57.4855 55.7545C57.6136 55.7074 57.877 55.6081 58.006 55.5982C59.2548 55.5031 60.5148 55.561 61.7687 55.5539C62.1787 55.5516 62.8329 55.6294 63.1303 55.9511C63.1726 55.9968 63.2433 56.4271 63.2476 56.5042C63.313 57.7018 63.2684 58.9214 63.2616 60.1243L63.1941 68.3889L63.1339 83.7612C63.1328 85.4662 63.1222 87.1712 63.1021 88.876C63.0981 89.7531 63.3067 91.2314 62.8059 91.975C62.6162 92.2568 62.2481 92.3365 61.9231 92.376C60.8628 92.5262 58.658 92.5601 57.6244 92.21C57.4263 92.1429 57.0915 91.902 56.9119 91.7751C56.5719 91.0147 56.4837 90.0864 56.2917 89.267C55.2526 84.832 54.2812 80.377 53.2619 75.9376C53.2341 75.8165 52.8598 75.3775 52.7608 75.2576C52.4911 76.0484 52.5849 77.436 52.5766 78.3378L52.5666 83.2009C52.5575 84.8817 52.5124 86.5588 52.48 88.2427C52.4542 89.1859 52.5742 90.3405 52.4068 91.258C52.1685 92.5641 49.432 92.2709 48.4125 92.2838C47.2858 92.298 46.5049 92.2664 46.4785 90.9404C46.458 89.9135 46.4218 88.8499 46.4012 87.8082C46.3632 85.152 46.3491 82.4956 46.359 79.8391C46.3184 73.3483 46.3989 66.8572 46.6003 60.3693C46.6477 59.0636 46.6289 57.2464 46.8976 55.9674C46.9358 55.7856 47.2141 55.6429 47.3762 55.5635Z" fill="white"/>
<path d="M116.008 55.5656C116.054 55.5585 116.101 55.5525 116.148 55.5478C117.65 55.3943 120.436 55.859 121.587 56.8741C124.367 59.3257 123.844 63.8877 123.843 67.2946V82.4896C123.843 83.4368 123.841 84.4033 123.837 85.349C123.819 89.5596 121.91 92.1886 117.554 92.5763C116.305 92.6498 115.077 92.5945 113.861 92.2674C109.122 90.9931 109.723 85.7656 109.725 81.8593L109.725 66.6732C109.725 63.6537 109.47 60.12 111.399 57.5699C112.505 56.108 114.292 55.7502 116.008 55.5656ZM115.747 86.1494C116.333 86.3457 116.482 86.3827 117.093 86.3725C118.201 86.2385 118.321 85.3567 118.364 84.4201C118.427 83.0275 118.402 81.6216 118.402 80.2265L118.401 67.1856C118.4 65.9456 118.448 64.6722 118.295 63.442C118.142 62.2045 117.756 61.8092 116.508 61.9069C114.824 62.4662 115.154 65.9457 115.156 67.4143L115.157 79.9065C115.157 81.411 114.874 84.9952 115.747 86.1494Z" fill="white"/>
<path d="M88.8717 55.4597C90.4965 55.341 91.9448 55.5721 93.3517 56.4471C96.84 58.6168 96.4303 62.0338 96.4188 65.604L96.4024 71.9745L96.35 80.2591C96.3401 82.2331 96.3844 84.1818 96.1921 86.1491C95.908 89.0549 94.7465 91.3242 91.6695 91.9475C85.9067 93.115 83.3181 90.1299 82.3128 84.8317C82.2129 84.223 82.1609 83.6075 82.1577 82.9907C82.1533 82.6016 82.1446 82.0549 82.4303 81.7625C82.8614 81.6116 86.6557 81.6804 87.1223 81.8433C87.4823 82.2181 87.3698 82.8972 87.3703 83.3829C87.373 85.1632 87.8593 86.665 89.9332 85.9222C90.0752 85.7457 90.2599 85.4467 90.3681 85.2562C90.4976 85.0272 90.6669 84.5132 90.6866 84.2706C90.7817 83.1003 90.9002 77.6437 90.6462 76.8286C90.4047 76.7565 89.6245 77.3419 89.2798 77.4914C87.4173 78.2981 85.3439 78.0196 83.8196 76.6264C82.3183 75.2546 81.8184 73.688 81.7971 71.6985C81.7747 69.6221 81.7763 67.5053 81.7703 65.4234C81.7791 63.9675 81.6512 61.0305 81.955 59.6855C82.1446 58.8526 82.5505 58.0843 83.1312 57.4575C84.4162 56.0927 87.0425 55.5157 88.8717 55.4597ZM87.4463 61.3378C86.5038 63.0743 87.1966 68.232 86.9879 70.319C86.9283 70.9181 87.0534 71.3819 87.3621 71.8973C87.9243 72.1664 88.28 72.2296 88.9099 72.2789C89.8605 72.2346 90.3637 71.0057 90.5347 70.1951C90.6571 69.2645 90.6292 68.2342 90.621 67.2988C90.6107 66.124 90.6533 64.9373 90.5981 63.7713C90.5549 62.8589 90.2692 60.6485 89.0148 60.731C88.9214 60.7376 88.8285 60.7469 88.7356 60.7588C88.2335 60.8464 87.8779 61.0811 87.4463 61.3378Z" fill="white"/>
<path d="M24.5803 55.3952C24.9908 55.3905 26.1488 55.438 26.5534 55.4547C27.3989 55.4896 29.6594 55.3118 30.317 55.503C30.5235 55.8602 30.4906 58.5356 30.497 59.1194C30.5181 61.268 30.5192 63.4167 30.5002 65.5653C30.4632 69.9642 30.4496 74.3633 30.4594 78.7623C30.4567 80.077 30.4645 81.3916 30.4829 82.7062C30.4946 83.312 30.4623 83.9775 30.5781 84.5713C30.6107 84.7389 30.6563 84.9753 30.7924 85.0881C31.5827 85.7434 35.4801 85.0726 36.7461 85.4284C36.9136 85.4754 37.0689 85.5869 37.2119 85.6836C37.5949 86.7301 37.3426 90.1312 37.2783 91.3693C37.2677 91.5729 36.9782 91.7553 36.8081 91.8354C36.2507 92.0004 33.5008 91.9647 32.7061 91.9773C30.5539 92.0112 28.3251 92.0654 26.1713 92.018C25.6855 92.0073 24.9886 91.9467 24.5204 91.8277C24.3261 91.4616 24.2751 91.2032 24.2669 90.791C24.2125 88.0757 24.201 85.3387 24.1788 82.624L24.1269 65.2354L24.1289 59.1725C24.1271 58.1719 24.0762 56.893 24.2044 55.9019C24.2328 55.6823 24.3917 55.5109 24.5803 55.3952Z" fill="white"/>
<path d="M104.095 55.7048C104.192 55.689 104.564 55.6849 104.655 55.6983C105.401 55.8079 107.592 55.4548 108.039 56.0534C108.187 56.7529 108.129 58.303 108.124 59.0788L108.108 63.8912L108.107 83.9619L108.12 89.2885C108.124 89.9683 108.174 90.7878 108.122 91.45C108.09 91.856 107.885 92.0432 107.576 92.2523C106.673 92.2447 102.999 92.3309 102.379 92.1654C102.075 92.071 102.038 91.8473 102.017 91.5583C101.956 90.704 101.979 89.826 101.981 88.9699L101.987 84.581L101.988 66.2287C101.987 65.311 102.023 64.3208 101.889 63.4191C100.927 63.4011 99.2516 63.3511 98.3403 63.1641C98.1665 62.1938 98.1562 60.6386 98.319 59.6679C98.8118 59.1058 103.274 56.1091 104.095 55.7048Z" fill="white"/>
<path d="M65.2877 55.6515C66.278 55.6341 67.2795 55.6602 68.2724 55.6775C68.9239 55.705 69.6005 55.652 70.2443 55.7595C70.449 55.7937 70.778 55.8989 70.89 56.0802C71.0814 56.3899 71.1281 56.7869 71.1287 57.1454C71.1337 59.8411 71.1299 62.5371 71.1297 65.2329L71.1306 88.1685C71.1312 89.2142 71.183 90.5201 71.0486 91.5593C71.0073 91.8783 70.645 92.0934 70.3852 92.2463C69.5468 92.5681 67.0067 92.3912 66.0735 92.2992C65.7439 92.2408 65.2885 92.2001 65.0729 91.9132C64.821 91.5782 64.7195 91.2368 64.711 90.8203C64.6925 89.9075 64.7101 88.9922 64.7154 88.0787L64.7185 83.9828L64.7682 69.9428C64.7685 67.3928 64.7967 64.7801 64.7629 62.2344C64.7437 61.1113 64.7342 59.988 64.7345 58.8647C64.7325 58.1134 64.7135 57.317 64.8028 56.5724C64.8546 56.1407 64.9468 55.9131 65.2877 55.6515Z" fill="white"/>
<path d="M38.8398 55.6565C39.1233 55.6227 39.5989 55.6347 39.8898 55.6451C41.1409 55.6902 42.4063 55.6387 43.652 55.7387C43.8833 55.7573 44.3172 55.9408 44.4409 56.1387C44.6331 56.4462 44.6486 56.8003 44.6567 57.1505C44.6676 59.9264 44.6624 62.709 44.6621 65.4846L44.6615 88.101C44.6646 89.1563 44.7156 90.4313 44.5993 91.4747C44.5656 91.7775 44.233 92.0596 43.971 92.2189C43.7716 92.3048 43.5126 92.3571 43.2776 92.3732C41.8846 92.4689 40.3299 92.4763 38.9714 92.1438C38.8216 92.1071 38.5566 91.8916 38.437 91.7964C38.2282 91.2359 38.2622 90.5345 38.2651 89.9401C38.2761 87.6864 38.2817 85.4327 38.2851 83.1789L38.2917 60.2084C38.2912 59.0478 38.2209 57.2962 38.374 56.1543C38.4086 55.8964 38.6245 55.7698 38.8398 55.6565Z" fill="white"/>
</svg>
