<svg width="148" height="148" viewBox="0 0 148 148" fill="none" xmlns="http://www.w3.org/2000/svg">
<path fill-rule="evenodd" clip-rule="evenodd" d="M126.43 67.0379C129.63 66.6935 132.493 69.0952 132.822 72.3992C133.151 75.7031 130.819 78.6555 127.618 78.9896C124.424 79.3229 121.572 76.923 121.244 73.6264C120.916 70.3298 123.237 67.3816 126.43 67.0379ZM131.174 72.4221C130.861 70.0606 128.755 68.4067 126.466 68.7263C124.174 69.0465 122.569 71.2254 122.882 73.5909C123.195 75.9564 125.308 77.6111 127.599 77.2852C129.886 76.9599 131.486 74.7836 131.174 72.4221Z" fill="white"/>
<path fill-rule="evenodd" clip-rule="evenodd" d="M85.3992 67.0748C86.9173 66.8986 88.3396 67.3408 89.4274 68.4554C90.8244 69.8871 91.0978 71.7736 91.1145 73.7163C88.3327 73.6407 85.0728 73.6818 82.2749 73.7209C82.4162 74.5689 82.6013 75.2226 83.11 75.9196C83.7249 76.772 84.6477 77.3312 85.6686 77.4698C86.7668 77.6152 87.8759 77.3107 88.7595 76.6217C89.064 76.3653 89.3266 76.1224 89.6168 75.8485C89.9213 76.0602 90.516 76.4621 90.5615 76.8448C90.5384 77.0052 90.4801 77.1226 90.3711 77.2412C88.3708 79.4233 84.7399 79.6419 82.5113 77.6537C80.0721 75.4772 79.9395 71.2479 82.0574 68.7636C82.9075 67.7621 84.1113 67.1538 85.3992 67.0748ZM85.7621 68.4974C83.5588 68.828 82.7156 70.1733 82.2663 72.2602C83.4769 72.3036 84.7567 72.2824 85.9726 72.2809C87.0558 72.2796 88.3218 72.3121 89.3894 72.2706C88.9608 70.1408 88.2093 68.5167 85.7621 68.4974Z" fill="white"/>
<path fill-rule="evenodd" clip-rule="evenodd" d="M71.8739 67.1222C72.4631 67.094 73.043 67.0638 73.6243 67.1006C78.4767 67.4073 77.8734 71.7021 77.8578 75.3633C77.8526 76.5289 77.9126 77.6911 77.8538 78.8242C77.2297 78.6801 76.7822 78.7111 76.1478 78.7304C76.1311 78.1971 76.1472 77.5865 76.1489 77.0473C74.4653 79.378 70.7211 79.6879 68.7726 77.6265C67.6471 76.2494 67.7626 73.4792 69.3572 72.4852C71.4614 71.1736 73.8926 71.5722 76.1703 72.0411C76.0341 68.6809 73.716 68.3809 71.0457 68.9354C70.6924 69.0088 69.7902 69.5466 69.4988 69.3914C69.1696 69.0553 68.8343 68.0521 69.4294 67.8203C70.2306 67.5083 71.0387 67.3034 71.8739 67.1222ZM76.1645 73.435C75.2197 73.2117 73.5372 72.9109 72.5699 73.0245C71.1697 73.2261 69.5282 73.7098 69.7869 75.5846C69.8636 76.1317 70.1505 76.6239 70.5831 76.9498C71.3639 77.5485 72.3854 77.6506 73.3215 77.5028L73.34 77.4998C74.1331 77.3666 75.1229 76.7832 75.5877 76.0923C76.2354 75.1297 76.1662 74.5146 76.1645 73.435Z" fill="white"/>
<path d="M96.4428 67.1242C98.3572 66.9201 99.7507 67.3342 101.372 68.3514C101.168 68.739 100.811 69.2968 100.582 69.6835C99.5045 68.8263 96.5848 67.8807 95.5679 69.2295C94.0937 71.1851 97.0474 71.8316 98.2863 72.2505C99.1128 72.53 100.145 72.9115 100.801 73.5323C101.863 74.5351 101.767 76.6123 100.823 77.6703C99.877 78.7296 98.9242 78.8728 97.6288 78.9503C96.1551 78.9243 94.1103 78.3414 93.0507 77.286C93.9915 75.7352 93.4845 75.89 95.1387 76.8128C96.4503 77.5445 99.0584 78.1068 99.8238 76.3008C100.29 75.2009 99.5823 74.5439 98.641 74.1391C97.4251 73.6161 96.042 73.4104 94.8913 72.734C94.3088 72.3915 93.7856 71.8177 93.6419 71.1225C93.4764 70.3528 93.5953 69.3782 93.9875 68.6904C94.6035 67.6879 95.4116 67.3808 96.4428 67.1242Z" fill="white"/>
<path d="M106.877 63.8306C106.868 64.9714 106.871 66.1123 106.884 67.2531C108.012 67.2609 109.268 67.2958 110.384 67.2484C110.377 67.7713 110.373 68.2944 110.374 68.8173C109.371 68.7476 107.904 68.7926 106.872 68.8009C106.898 70.3156 106.867 71.9067 106.866 73.4234C106.866 75.9118 106.549 77.9646 109.83 77.1488L110.336 76.9992C110.343 77.5404 110.348 77.9808 110.305 78.5184C108.577 79.3756 105.613 79.0465 105.276 76.6906C105.129 75.6584 105.172 74.6466 105.172 73.6075V68.7944L103.627 68.7921L103.645 67.2751C104.117 67.2508 104.702 67.267 105.183 67.2673C105.149 66.1626 105.174 64.9449 105.174 63.8318L106.877 63.8306Z" fill="white"/>
<path d="M119.502 67.0799C119.463 67.6778 119.476 68.3136 119.478 68.9157C117.682 68.9791 116.259 69.7249 115.483 71.4834C114.868 72.8779 114.926 74.2971 114.928 75.7873L114.949 78.7848C114.44 78.7532 113.763 78.7703 113.241 78.7678L113.247 77.2462L113.238 67.2738C113.79 67.2541 114.396 67.2633 114.952 67.2599C114.939 68.2321 114.933 69.2045 114.933 70.1769C115.761 68.5067 116.644 67.5912 118.424 67.1187C118.772 67.0951 119.151 67.0906 119.502 67.0799Z" fill="white"/>
<path d="M57.2991 69.2665C58.2072 67.633 59.6578 66.9466 61.4397 67.0366C62.5494 67.0926 63.4078 67.3288 64.201 68.2078C64.663 68.7246 64.9915 69.3533 65.1558 70.0358C65.4284 71.1823 65.3337 73.8499 65.3376 75.1278C65.3408 76.195 65.3795 77.6691 65.3464 78.7073C64.8289 78.7367 64.1427 78.719 63.6123 78.7216L63.6212 74.564C63.6227 73.4878 63.6775 71.6482 63.4254 70.6632C63.3113 70.2062 63.0801 69.7892 62.7562 69.4561C61.6886 68.3499 59.7593 68.4204 58.7251 69.5242C57.4272 70.9093 57.7244 73.4385 57.7318 75.2368L57.749 78.7008C57.3389 78.7427 56.4866 78.7191 56.0441 78.7204L56.0565 74.4691C56.0575 73.2946 56.1228 71.9904 55.9006 70.8644C55.5916 69.2989 54.3372 68.4654 52.842 68.7044C52.1829 68.8098 51.7051 69.0112 51.2312 69.5093C49.8747 70.935 50.1965 72.9907 50.1606 74.7995C50.1436 76.0952 50.1896 77.4048 50.1805 78.705C49.6094 78.7222 49.038 78.7298 48.4668 78.7277C48.4232 77.5478 48.4629 76.1061 48.4634 74.8939L48.4568 67.263C48.9848 67.2852 49.5693 67.2728 50.1018 67.2725C50.2034 67.8603 50.177 68.5662 50.1959 69.1809C50.9232 67.9271 51.6293 67.2529 53.0759 67.0713C55.0794 66.87 56.3243 67.4105 57.2991 69.2665Z" fill="white"/>
<path d="M48.7416 83.4058C48.769 80.2346 48.1256 80.3883 51.5128 80.4367C52.0755 80.4447 56.4514 80.4738 56.511 80.5326C56.3534 80.5658 55.7655 80.5509 55.5935 80.5438C54.5229 80.4995 54.2332 80.5242 53.2234 80.8271C55.0882 80.5239 56.6008 80.5705 58.48 80.5737C59.1443 80.5748 60.0814 80.5413 60.7448 80.6006L60.8737 80.6137L61.0835 80.6188C62.1408 80.641 63.3163 80.6056 64.3705 80.604L72.1591 80.5873C73.0824 80.5865 75.6379 80.5222 76.4408 80.6097C77.9917 80.5947 79.8149 80.5558 81.352 80.611C80.4033 81.4781 80.198 82.6875 81.3791 83.4604C80.7533 83.5462 79.9204 83.517 79.2739 83.5161L76.1206 83.5151C74.1164 83.5149 71.4499 83.6191 69.5215 83.5252C68.7455 83.6215 66.8569 83.5264 65.9917 83.5463C63.0521 83.6139 59.8769 83.4223 56.9521 83.5194C56.3354 83.6224 54.5549 83.5352 53.9384 83.4504L53.896 83.5058C54.0362 83.517 54.3811 83.5914 54.4389 83.5901C54.9582 83.5782 55.3633 83.5625 55.8822 83.6125C55.8153 83.6555 52.8194 83.6634 52.511 83.6254C52.2718 83.5959 52.1074 83.3551 51.8989 83.3645C50.8511 83.4126 49.789 83.4037 48.7416 83.4058ZM132.621 80.4874C132.72 80.531 132.93 80.5977 132.939 80.6807C133.013 81.3446 133.02 82.8097 132.959 83.4158C132.873 83.5385 132.801 83.5414 132.654 83.577C132.585 83.1436 132.626 81.0876 132.621 80.4874ZM115.381 83.5695C115.373 83.5701 115.364 83.5704 115.356 83.5709C115.367 83.5703 115.377 83.5696 115.388 83.5687C115.386 83.5689 115.383 83.5694 115.381 83.5695ZM130.562 81.4309C131.054 82.0552 131.671 83.0035 132.176 83.536C131.871 83.5333 130.882 83.5344 130.592 83.5702C130.632 83.1631 130.577 81.8733 130.562 81.4309ZM125.219 81.2318C125.223 81.9953 125.223 82.7589 125.221 83.5224C125.384 83.5246 125.586 83.5329 125.746 83.5279L125.744 80.5214C126.163 80.695 126.718 80.5464 127.152 80.6511C126.894 80.8016 126.684 81.0262 126.547 81.2974C126.349 81.6885 126.319 82.1472 126.463 82.5624C126.607 82.9777 126.913 83.3121 127.306 83.4849C127.123 83.4929 125.798 83.5398 125.746 83.5699L125.746 83.5617C125.586 83.5667 125.384 83.5585 125.22 83.5563C124.91 83.5212 124.128 83.5481 123.782 83.5508C123.527 83.5685 123.423 83.5772 123.171 83.5387C122.78 83.5564 122.389 83.5587 121.997 83.5455C121.992 83.534 121.988 83.5226 121.983 83.511L121.997 83.5115C121.657 82.6614 121.05 81.3828 120.786 80.5503C121.123 80.5931 121.924 80.593 122.243 80.5238C122.243 80.7579 122.212 80.7618 122.334 80.9444C122.558 81.0623 122.915 80.9816 123.187 80.9902C123.185 81.7761 123.207 82.7328 123.171 83.5048C123.423 83.5434 123.527 83.5346 123.782 83.5169C123.746 82.7393 123.767 81.7759 123.765 80.9844C124.029 80.981 124.304 81.0526 124.545 80.9572C124.689 80.7806 124.643 80.7664 124.658 80.4818L124.811 80.5029C124.947 80.5199 125.045 80.5206 125.214 80.4684L125.219 81.2318ZM114.963 83.5578C114.73 83.5341 114.442 83.5549 114.205 83.5647L114.2 80.5186C114.443 80.573 114.712 80.6012 114.952 80.5141L114.963 83.5578ZM110.001 80.5226C110.018 81.5317 110.017 82.5411 109.998 83.5501C109.759 83.5449 109.519 83.5467 109.278 83.5511L108.558 83.567L108.55 81.0285C108.823 81.022 109.137 81.1036 109.372 80.9955C109.506 80.8254 109.462 80.7865 109.47 80.5248C109.678 80.5625 109.75 80.5783 109.921 80.5417L110.001 80.5226ZM120.164 80.5238C119.951 81.2079 119.22 82.8853 118.897 83.5042C119.101 83.5173 119.327 83.5462 119.523 83.4992C120.111 83.5078 120.896 83.4741 121.436 83.4939L121.979 83.5108C121.985 83.5252 121.991 83.5393 121.997 83.5534L121.436 83.5359C120.896 83.5161 120.111 83.5497 119.523 83.5412C119.327 83.5882 119.101 83.5593 118.897 83.5461L118.547 83.548C118.547 83.397 118.561 83.2703 118.48 83.1441C118.171 82.9575 117.29 83.0627 116.853 83.0653C117.36 82.3607 118.491 81.3363 118.6 80.5476C118.921 80.6002 119.832 80.595 120.164 80.5238ZM105.034 83.5651C105.032 83.5651 105.031 83.5651 105.03 83.5652C105.031 83.5651 105.033 83.565 105.035 83.5649L105.034 83.5651ZM104.505 80.5153C104.503 81.3976 104.51 82.3001 104.502 83.1859L104.497 83.5644C104.247 83.5081 103.306 83.5238 103 83.5228C104.258 82.6971 104.193 81.5753 103.147 80.6042C103.5 80.5992 104.201 80.62 104.505 80.5153ZM111.839 81.4446C112.018 81.7171 112.459 82.4613 112.704 82.605C113.026 82.572 113.469 81.7546 113.683 81.4506C113.681 82.1001 113.699 82.9194 113.67 83.5546C113.459 83.5212 112.155 83.5576 111.887 83.5632C111.866 82.8572 111.85 82.1509 111.839 81.4446ZM111.317 83.5539C111.086 83.5281 110.81 83.5504 110.576 83.5624C110.524 82.61 110.546 81.4923 110.571 80.5397L110.545 80.5266C110.554 80.5306 110.563 80.5349 110.571 80.5395C110.781 80.5978 111.123 80.5874 111.325 80.5168L111.317 83.5539ZM107.089 80.5374C107.105 80.8152 107.06 80.8248 107.208 80.9975C107.445 81.0972 107.755 81.024 108.02 81.0326C108.024 81.8728 108.02 82.7132 108.011 83.5533C107.586 83.493 105.622 83.5519 105.091 83.5596L105.067 82.5715L105.109 82.5725C105.549 82.5816 105.935 82.6169 106.325 82.3594C107.076 81.8638 106.844 81.1509 106.295 80.6019C106.571 80.5974 106.816 80.5681 107.089 80.5374ZM96.5022 80.5105C96.6251 80.9288 97.2796 81.896 97.572 82.2469C97.5847 82.7048 97.5935 83.0956 97.5715 83.5526C97.384 83.5093 96.4711 83.543 96.2374 83.5491C95.9762 83.1948 95.7062 82.7693 95.4593 82.3984C96.3544 81.9171 96.3395 81.3099 95.6607 80.603C95.96 80.5985 96.2156 80.61 96.5022 80.5105ZM90.7016 80.5279C90.7062 81.4449 90.7419 82.6577 90.6865 83.5506C90.5649 83.5202 90.397 83.528 90.2684 83.5282C90.0071 83.035 89.1663 81.0557 89.007 80.5744C89.348 80.608 90.4074 80.6469 90.7016 80.5279ZM116.303 80.511C116.266 80.5142 116.236 80.5176 116.213 80.5211C116.224 80.7694 116.183 80.8043 116.319 80.9626C116.799 81.1244 117.311 81.0091 117.859 81.0215C117.324 81.6854 116.223 82.8106 116.124 83.5495C115.937 83.5332 115.715 83.5457 115.525 83.5506C115.52 82.7961 115.519 82.0415 115.523 81.2871L115.527 80.5324L115.619 80.5478C115.826 80.5802 115.992 80.5844 116.213 80.5211C116.225 80.5194 116.238 80.5176 116.253 80.516L116.303 80.511ZM99.2702 80.536C99.5979 80.6595 101.227 80.5914 101.655 80.5954C100.6 81.5517 100.475 82.6932 101.765 83.512C100.611 83.5626 99.2863 83.5264 98.1102 83.5471C98.1091 83.1361 98.1178 82.7163 98.1218 82.3045C98.4264 81.9597 99.0862 80.9482 99.2702 80.536ZM91.5303 82.4438C92.0199 82.5286 92.2958 83.1362 92.5576 83.5106C92.1193 83.5142 91.6815 83.5259 91.2432 83.5458C91.2184 83.1513 91.0927 82.5998 91.5303 82.4438ZM130.032 80.5219C130.061 81.1698 130.093 82.9313 130.019 83.5456C129.915 83.5005 128.715 83.4763 128.542 83.4693C129.066 83.2229 129.413 82.6932 129.439 82.0985C129.464 81.5038 129.163 80.9445 128.662 80.6513C129.027 80.6344 129.711 80.6265 130.032 80.5219ZM94.5902 82.4335C94.9483 82.4836 95.4201 83.1924 95.5361 83.5181C95.1226 83.5161 94.7096 83.5248 94.2967 83.5445C94.2719 83.1435 94.1531 82.6062 94.5902 82.4335ZM93.7284 83.5423C93.5036 83.5014 93.4405 83.5112 93.2162 83.539C92.9607 83.1893 92.737 82.7547 92.5109 82.4844C92.5322 82.4654 92.5531 82.446 92.5738 82.4266C93.3333 81.7108 93.3449 81.3745 92.6666 80.6052C92.9377 80.6042 93.5098 80.6266 93.7382 80.5218L93.7284 83.5423ZM84.2192 80.5208C84.2168 81.3024 84.1719 82.2718 84.338 83.0199C84.4896 83.1789 84.635 83.3412 84.8057 83.477C84.5098 83.4998 83.8523 83.4883 83.6129 83.5382C83.7777 83.0451 83.4319 83.0753 83.4664 82.9532C83.7877 81.8148 84.0051 81.6904 82.948 80.6288C83.2381 80.6136 84.0219 80.6311 84.2192 80.5208ZM88.4232 80.542C88.0454 81.5374 87.5725 82.5545 87.1556 83.5367C86.9692 83.5074 86.3619 83.5086 86.141 83.5047C86.9829 82.8848 86.7748 81.5462 86.8083 80.5707C87.0644 80.624 88.1808 80.6288 88.4232 80.542ZM89.6063 83.5314C89.1206 83.4992 88.2692 83.5229 87.7864 83.532L88.0483 82.8143L89.42 82.8139L89.6063 83.5314ZM120.178 80.4791C120.409 80.3942 120.551 80.3769 120.774 80.5151C120.778 80.5268 120.782 80.5385 120.786 80.5503C120.782 80.5498 120.778 80.5495 120.774 80.549C121.029 81.3692 121.635 82.6488 121.983 83.511L121.979 83.5108C121.632 82.6488 121.028 81.3747 120.774 80.5571C120.551 80.4189 120.408 80.4362 120.178 80.5211C120.174 80.5222 120.169 80.5227 120.164 80.5238C120.169 80.5083 120.174 80.4935 120.178 80.4791ZM86.1917 80.5218C86.1998 80.8834 86.5942 83.9136 85.003 82.9064C84.6466 82.6809 84.7411 81.211 84.7665 80.6847C84.7682 80.6464 84.7705 80.6078 84.7728 80.5695C85.0445 80.6119 85.958 80.6416 86.1917 80.5218ZM127.513 81.0306C129.006 80.8506 129.354 82.3127 128.23 83.0721C128.086 83.1067 127.938 83.1177 127.792 83.1044C127.429 83.0707 127.181 82.7304 126.964 82.4634C126.915 81.7096 126.905 81.4798 127.513 81.0306ZM101.997 81.0837C102.33 80.9403 102.712 80.9926 102.997 81.2211C103.283 81.4495 103.427 81.8187 103.375 82.1875C103.324 82.5563 103.084 82.868 102.748 83.0036C102.235 83.2097 101.659 82.9526 101.453 82.4267C101.247 81.9009 101.49 81.3021 101.997 81.0837ZM81.7718 81.0316C82.1594 80.9982 82.3637 80.9763 82.7063 81.1902C83.0627 81.4127 83.1861 82.2025 82.9704 82.5221C82.8505 82.506 82.5689 82.1803 82.4645 82.0724C82.336 82.2078 82.2644 82.3149 82.1583 82.467L82.1808 82.5682C82.3399 82.6943 82.4732 82.7662 82.4698 82.9718C81.8526 83.4123 80.2325 82.0792 81.7718 81.0316ZM132.076 80.5117C132.076 81.2062 132.086 81.9009 132.107 82.5951C131.806 82.2725 130.757 80.9401 130.662 80.5594C130.964 80.5718 131.802 80.603 132.076 80.5117ZM88.6644 81.1861C88.8288 81.4763 89.1644 81.977 89.0226 82.2955L88.8005 82.3242C88.5826 82.3049 88.4844 82.339 88.35 82.2141C88.3328 81.992 88.5692 81.4855 88.6644 81.1861ZM105.07 81.0232C105.84 81.0119 106.444 80.9409 106.107 81.9832C105.856 82.0842 105.352 82.0779 105.072 82.0811L105.07 81.0232ZM91.2241 81.0263C91.8268 81.0181 93.0552 80.9099 92.38 81.9381C92.1066 82.0606 91.5275 82.0239 91.2183 82.0164L91.2241 81.0263ZM94.2724 81.0275C94.9363 81.0154 95.9443 80.8829 95.4017 81.9452C95.0747 82.0505 94.6085 82.0232 94.2642 82.0116L94.2724 81.0275ZM111.968 80.5457C112.205 80.607 113.353 80.5901 113.634 80.5588C113.358 81.063 113.072 81.3271 112.807 81.9394C112.552 81.6157 112.085 80.9288 111.968 80.5457ZM98.6692 80.5513C98.495 80.8833 98.112 81.4341 97.8899 81.8235C97.6904 81.5697 97.2648 80.8641 97.1223 80.5692C97.397 80.6065 98.4159 80.6181 98.6692 80.5513ZM122.244 80.4899C122.463 80.4209 124.325 80.4202 124.633 80.4762L124.658 80.4818C124.657 80.4934 124.657 80.5046 124.656 80.5153C124.439 80.4542 122.47 80.4527 122.244 80.5238H122.243C122.243 80.513 122.244 80.5017 122.244 80.4899ZM109.45 80.5181L109.452 80.5185C109.447 80.5173 109.442 80.5164 109.437 80.5153C109.442 80.5163 109.446 80.5171 109.45 80.5181ZM107.261 80.5135C107.29 80.5111 107.32 80.5087 107.353 80.5065L107.377 80.5052C107.335 80.5078 107.296 80.5105 107.261 80.5135ZM117.44 80.4778C117.309 80.4778 117.176 80.479 117.049 80.4811H117.049C117.176 80.479 117.309 80.4778 117.44 80.4778Z" fill="#FBFBFB"/>
<path d="M46.7183 86.4686C46.7343 86.3046 46.7626 85.8936 46.816 85.7616C46.9607 86.0106 46.8226 86.382 46.8822 86.6152C46.9322 86.811 47.5343 87.2804 47.5163 87.4352L47.5092 87.4441C47.2662 87.3366 47.0134 87.1526 46.8639 86.9246L46.8864 86.8824C46.8851 86.7122 46.8083 86.6343 46.7183 86.4686Z" fill="#B9B9B9"/>
<path d="M45.928 85.959C46.3218 85.8618 46.4449 86.1767 46.7183 86.4686C46.8083 86.6343 46.8851 86.7122 46.8864 86.8824L46.8639 86.9246C46.5458 86.6091 46.2338 86.2871 45.928 85.959Z" fill="#B9B9B9"/>
<path d="M28.3635 75.5469C28.9282 75.1835 30.3544 77.0339 30.7119 77.403L34.0841 80.8614L36.4065 83.256C36.8328 83.6894 37.5137 84.3299 37.8745 84.7892C38.2465 84.9887 41.3149 88.2774 41.5306 88.7197C41.4906 89.1419 41.4718 89.614 41.2167 89.9597L41.1016 90C40.8361 89.8394 39.0362 88.0852 38.9174 87.8665C38.5045 87.5036 37.8894 86.8365 37.49 86.4266L34.5977 83.4489C32.4033 81.2197 30.2306 78.962 28.042 76.7264C27.5898 76.419 28.0252 75.7647 28.3635 75.5469Z" fill="white"/>
<path d="M26.1832 70.3456C26.5063 69.9403 26.9715 69.1786 27.5115 69.74C28.6097 70.882 29.739 71.9907 30.8466 73.1238C31.4318 73.7225 31.9935 74.3434 32.5762 74.9405L38.1542 80.6932C39.0026 81.5739 39.8227 82.3757 40.6533 83.2852C41.5968 84.0265 44.1341 86.6228 44.677 87.8132C44.845 88.1816 44.2916 88.4796 44.4753 88.9814C44.325 88.9919 44.2096 88.9223 44.1163 88.8164C43.7534 88.4039 41.5255 86.312 41.4058 86.0415C41.0468 85.76 40.0556 84.672 39.6573 84.2664C38.2371 82.8396 36.8313 81.3978 35.44 79.941L29.631 74.0147C29.0992 73.4757 26.442 70.8224 26.1832 70.3456Z" fill="white"/>
<path d="M27.7326 87.0153C28.6196 87.1793 29.3412 87.195 30.2358 87.2213C30.2668 87.5294 30.3914 88.4997 30.1692 88.6721C29.2828 88.6488 28.3681 88.6271 27.4911 88.4983C27.5474 88.0378 27.5757 87.4258 27.7326 87.0153Z" fill="white"/>
<path d="M33.4725 86.7222C33.8074 86.7257 33.9745 87.7971 34.024 88.0778C33.2395 88.2631 32.5681 88.4198 31.7735 88.5449C31.4976 88.6031 31.4444 88.6432 31.2393 88.4664C31.0698 88.1047 31.1115 87.5673 31.1016 87.1432C31.8985 86.9866 32.6483 86.8963 33.4725 86.7222Z" fill="white"/>
<path d="M24.4773 86.1254C24.7159 86.1592 26.6888 86.804 26.8416 86.9854C26.8754 87.2839 26.8338 88.088 26.5477 88.2261C25.934 88.2077 24.6609 87.7575 24.0923 87.458C23.7837 87.2954 24.3097 86.3253 24.4773 86.1254Z" fill="white"/>
<path d="M35.4706 73.2986C36.1223 73.6604 43.357 81.2296 44.2515 82.2434C44.8711 82.8228 47.7905 85.6448 47.8254 86.288C47.8456 86.6621 47.6717 87.0631 47.6304 87.4361L47.5092 87.4441L47.5163 87.4352C47.5343 87.2804 46.9322 86.811 46.8822 86.6152C46.8226 86.382 46.9607 86.0106 46.816 85.7616C46.7626 85.8936 46.7343 86.3046 46.7183 86.4686C46.4449 86.1767 46.3218 85.8618 45.928 85.959C45.6834 85.76 45.587 85.6669 45.3767 85.4296C45.1751 85.2688 44.6723 84.7129 44.4604 84.5041C43.6554 83.7106 42.8834 82.8466 42.0905 82.0458L37.6208 77.4678C36.7541 76.5875 35.2807 75.1665 34.5211 74.2233C34.8142 73.9139 35.16 73.5953 35.4706 73.2986Z" fill="white"/>
<path d="M31.1828 58C31.7396 58.2152 32.3926 58.1818 32.98 58.3143C34.2065 58.5909 35.4171 59.0225 36.5277 59.6308C36.7254 59.739 37.2038 59.9349 37.3081 60.0882C37.3857 60.4242 36.8605 61.0455 36.656 61.3103C35.757 60.8895 34.8254 60.4112 33.8739 60.0985C25.2253 57.2563 16.4564 64.0115 16.422 73.3584C16.4057 77.7792 18.3646 81.788 21.7996 84.4572C22.393 84.9183 23.2403 85.3134 23.7728 85.773C23.5645 86.1936 23.3596 86.616 23.1578 87.04C19.4545 85.0091 16.8163 81.9501 15.5811 77.7758C15.4265 77.2488 15.3071 76.7115 15.2238 76.1676C15.1732 75.8557 15.0968 75.2057 15 74.9374V71.8249C15.1014 71.529 15.2157 70.5019 15.2778 70.1286C15.4524 69.0908 15.7539 68.0799 16.1749 67.1202C18.1691 62.4943 21.9034 59.309 26.7066 58.3045C27.2289 58.1953 27.8662 58.1947 28.3575 58H31.1828Z" fill="white"/>
<path d="M43.2626 73.7143C43.7862 73.7094 44.2097 73.7194 44.7322 73.7529C44.7051 74.7926 44.5476 75.6479 44.3649 76.6615L42.9474 76.3834C42.9845 75.9794 43.185 74.0469 43.2626 73.7143Z" fill="white"/>
<path d="M44.2714 69.9505C44.4607 70.2316 44.821 72.4886 44.6232 72.7692C44.3514 72.8694 43.7922 72.8686 43.4786 72.8817C43.4488 72.8813 43.3456 72.8556 43.3101 72.8477C43.1609 72.6448 42.9856 70.6018 42.9469 70.2292C43.3616 70.1662 43.7841 70.0333 44.1894 69.9178L44.2714 69.9505Z" fill="white"/>
<path d="M43.0315 66.4277C43.4992 67.0263 43.8474 68.2901 44.106 69.029C43.6863 69.1806 43.4132 69.2918 42.972 69.3541C42.9119 69.3711 42.8282 69.3511 42.7637 69.3411C42.5504 69.1808 41.9345 67.2892 41.8604 66.9351C42.183 66.6928 42.6081 66.5363 42.9851 66.4095L43.0315 66.4277Z" fill="white"/>
<path d="M40.9745 63.2604C41.4858 63.6382 42.227 64.8889 42.5959 65.4868C42.2857 65.7116 42.0442 65.8988 41.6992 66.0663C41.6254 66.0973 41.518 66.1311 41.4397 66.1585C41.2566 66.0815 40.0058 64.2734 39.9638 64.0381C40.0881 63.7792 40.5384 63.4114 40.7626 63.2196L40.9745 63.2604Z" fill="white"/>
<path d="M38.103 60.7106C38.824 60.8273 39.7841 61.9436 40.3156 62.503C40.0199 62.7741 39.7589 63.0712 39.4355 63.3619L39.317 63.402C38.8984 63.1896 37.9386 62.1991 37.3238 61.8099C37.6893 61.3763 37.6157 61.0544 38.103 60.7106Z" fill="white"/>
<path d="M120.448 81.0989C120.612 81.3892 120.948 81.8898 120.806 82.2083L120.584 82.2371C120.366 82.2178 120.268 82.2518 120.134 82.1268C120.116 81.9048 120.353 81.3984 120.448 81.0989Z" fill="white"/>
<path d="M119.832 82.7271L121.203 82.7267L121.39 83.4441C120.904 83.4119 120.053 83.4357 119.57 83.4448L119.832 82.7271Z" fill="white"/>
</svg>
