<svg width="148" height="148" viewBox="0 0 148 148" fill="none" xmlns="http://www.w3.org/2000/svg">
<path d="M115 32.9995V115H33V32.9995H115ZM84.5322 77.7827L84.3506 77.7954C84.2425 77.9271 84.3187 85.475 84.3203 86.3618L84.2969 100.241C84.3249 103.851 84.3214 107.462 84.2861 111.072C84.7677 111.085 85.2504 111.094 85.7324 111.097C85.7933 106.604 85.6861 102.03 85.7686 97.5522C88.3498 101.446 92.0698 103.306 96.7754 102.656C99.7202 102.128 102.112 100.611 103.836 98.1304C105.531 95.6916 105.609 93.363 105.64 90.5483C105.686 86.2517 104.702 82.8479 100.941 80.2573C98.6457 78.7065 95.8347 78.1122 93.1074 78.6011C90.4254 79.0992 87.9429 80.5228 86.3154 82.7769C86.1224 83.0443 85.974 83.3535 85.7822 83.6226C85.6861 81.8578 85.748 79.5758 85.7344 77.7729L84.5322 77.7827ZM59.8574 78.1011C59.6889 78.111 59.6219 78.0828 59.5176 78.1685C59.4523 78.4316 59.4773 81.3898 59.4775 81.8433L59.4717 89.1978C59.4728 90.5654 59.5207 92.3507 59.4375 93.6987C55.7424 93.7816 51.8707 93.7392 48.165 93.73C46.5945 93.7116 45.0236 93.7138 43.4531 93.7378C43.4534 94.2013 43.4673 94.772 43.4443 95.228C47.4951 95.3213 51.5996 95.1835 55.6553 95.2544C56.8206 95.2748 58.3023 95.1806 59.4189 95.2515C59.543 96.9719 59.474 99.3436 59.4736 101.12L59.4551 110.886L60.0459 110.901L60.8623 110.912C60.9347 105.681 60.8657 100.477 60.8984 95.2583C62.1361 95.1883 63.6879 95.2302 64.9541 95.231L72.1582 95.2427C73.4835 95.2495 74.9653 95.2965 76.2773 95.2612C76.333 94.7481 76.3418 94.2249 76.3594 93.7085C74.8861 93.6961 73.4279 93.7287 71.957 93.7339L65.2139 93.7085C63.7781 93.7037 62.3013 93.727 60.8711 93.7046C60.9215 92.919 60.9044 92.0486 60.9053 91.2534L60.9082 87.4116C60.9108 84.3562 60.9665 81.1316 60.8906 78.0942C60.5536 78.0934 60.1923 78.0867 59.8574 78.1011ZM94.4932 79.9419C96.8349 79.8243 99.1338 80.6021 100.924 82.1167C102.845 83.7418 103.932 85.8955 104.14 88.4028C104.229 89.1696 104.155 89.9722 104.196 90.731C104.494 96.1658 101.149 100.857 95.4463 101.297C90.3618 101.427 86.1833 97.9163 85.793 92.7466C85.7377 92.0191 85.7703 91.2984 85.7383 90.5913C85.485 85.0121 88.7093 80.3947 94.4932 79.9419ZM97.4404 40.8853C96.5117 40.663 95.2423 40.5542 94.2822 40.6245C91.297 40.8134 88.7132 42.1012 86.7598 44.3687C86.389 44.7989 86.0767 45.3448 85.7363 45.7212C85.7427 44.2437 85.7641 42.7017 85.7148 41.2251L84.3076 41.2192L84.292 74.1587C84.7604 74.1727 85.2659 74.1967 85.7314 74.1987C85.7875 70.6719 85.7586 67.0607 85.7598 63.5298L85.7607 59.5796C87.2954 62.1594 89.5637 63.9095 92.4824 64.647C95.1694 65.3383 98.0223 64.9147 100.393 63.4722C104.38 61.0939 105.749 57.4303 105.638 53.0181C105.569 50.2787 105.583 48.1467 104.088 45.6782C102.604 43.2543 100.209 41.5274 97.4404 40.8853ZM60.1221 45.5083C58.3989 42.0227 55.2632 40.1842 51.3555 40.5024C49.3276 40.6974 47.0487 41.7362 45.6973 43.3022C45.4703 43.5653 45.3276 43.8208 45.0605 44.0601L45.0205 44.0327C44.9689 43.1773 44.9869 42.1037 44.9619 41.2114L43.5703 41.2271L43.5664 58.1704C43.5688 60.5111 43.5196 63.0664 43.5801 65.3843C44.0671 65.3826 44.5542 65.3881 45.041 65.4009L45.0508 54.4819L45.04 51.2847C45.0206 48.4823 44.9483 46.164 47.1182 44.0386C48.5575 42.6288 50.2773 41.9226 52.2881 41.9282C54.2264 41.9468 56.0809 42.7242 57.4531 44.0933C59.3832 46.0449 59.4761 48.2459 59.4805 50.7974L59.4785 53.8521L59.4609 63.731C59.4553 64.2706 59.4436 64.8107 59.4268 65.3501C59.8879 65.359 60.4161 65.3807 60.8721 65.3716C60.9445 61.9845 60.9198 58.4365 60.915 55.0415L60.9141 51.1685C60.9145 50.245 60.8668 49.1428 60.9775 48.2358C61.1624 46.7223 61.9407 45.0975 63.0361 44.0229C67.0235 40.1121 73.9844 41.9556 75.21 47.5015C75.4382 48.5343 75.3866 49.5456 75.3838 50.5962L75.373 53.604L75.3613 61.1665C75.3609 62.552 75.3368 64.0132 75.3672 65.394C75.8517 65.3994 76.4049 65.3927 76.8838 65.4136C76.9154 61.733 76.9281 58.0523 76.9209 54.3716V51.2212C76.9209 48.1342 76.796 45.4574 74.4531 43.0864C72.7808 41.4016 70.4997 40.462 68.126 40.48C65.7689 40.4758 63.505 41.4026 61.8281 43.0591C60.8132 44.0746 60.8136 44.515 60.1221 45.5083ZM94.4854 42.061C99.6608 41.8317 103.889 45.6958 104.156 50.811C104.35 54.5209 104.256 57.544 101.786 60.3628C100.219 62.1764 97.9844 63.278 95.5918 63.4155C92.9941 63.4781 91.0313 62.9458 89.0098 61.2466C87.1482 59.6661 85.9599 57.3404 85.8018 54.9067C85.5728 51.3831 85.6844 47.9551 88.1123 45.1382C89.7351 43.2557 92.0169 42.2675 94.4492 42.0659C94.4611 42.0644 94.4734 42.0626 94.4854 42.061Z" fill="white"/>
</svg>
