<svg width="148" height="148" viewBox="0 0 148 148" fill="none" xmlns="http://www.w3.org/2000/svg">
<path d="M42.4324 65.5135C44.8259 65.2495 47.693 66.2876 48.9145 68.4544C51.1159 72.3588 48.9741 76.4207 47.2519 80.0074C46.4256 81.7283 45.727 83.5309 44.8732 85.2434C44.4922 86.1974 42.6689 89.3652 44.4688 89.777C45.514 90.0162 47.9349 87.8615 48.8777 87.2052C48.7764 86.8236 48.7155 86.4323 48.6959 86.0381C48.5004 82.3736 49.1783 79.0966 51.654 76.2283C55.526 71.7426 62.8563 74.6276 60.5113 80.7755C59.345 83.833 56.8661 85.4401 54.3867 87.3497C54.2491 87.4555 54.2811 87.4831 54.2828 87.6375C54.5729 87.9284 55.419 87.8898 55.7871 87.7921C57.598 87.3113 59.6098 86.3064 60.6524 84.7169C60.1883 78.9784 66.0589 71.7135 72.0687 72.0194C72.6866 72.0508 74.7219 72.1529 75.1546 72.4614C75.3089 72.5716 75.4099 72.7407 75.4337 72.9282C75.5332 73.7651 71.1526 89.0917 70.5707 90.5057C70.0202 91.8234 69.2723 93.0506 68.3526 94.1457C66.8668 95.8978 64.6258 97.1476 62.3213 97.3417C59.5766 97.573 56.4412 96.0547 57.064 92.8789C57.1372 92.5059 57.1307 92.1408 57.3955 91.8391C57.634 91.877 58.335 92.9234 58.8924 93.2362C61.2238 94.5447 63.7024 93.8305 65.0198 91.5211C65.2615 91.0972 65.9076 90.1009 65.7921 89.6418C63.9776 89.5573 62.5384 88.8784 61.639 87.2867C60.5771 88.4876 58.3843 90.2509 56.9608 91.0168C54.5218 92.3732 52.252 92.2381 50.2707 90.2556C48.5335 92.2828 44.4712 94.6561 41.7426 94.1962C39.0237 93.7379 37.4501 91.0988 37.9634 88.4716C38.3302 86.5942 39.2569 84.9373 40.0422 83.2226L42.9826 76.8087C43.8413 74.8967 45.1927 72.5203 43.8099 70.563C43.4905 70.3474 43.017 70.1755 42.6496 70.0252C42.0414 70.1811 40.9471 70.4028 40.5877 70.8852C40.1197 71.5133 39.604 72.6524 39.365 73.4031C38.6083 75.7803 38.0639 78.2711 37.4147 80.6653C36.6923 83.329 35.8647 85.9475 35.1757 88.6206C34.8082 90.0467 33.975 93.8748 33.2796 94.9505C32.2964 95.1716 27.9413 96.0166 27.2198 95.7883C27.1012 95.3401 28.0005 94.0435 28.2458 93.5152C29.05 91.7831 29.3485 89.9744 29.8477 88.1684L32.2142 79.4965C32.6597 77.8133 33.3169 75.9347 33.5839 74.2094C33.6283 73.9221 33.5343 73.436 33.4747 73.1425C33.0054 70.8327 30.7502 69.847 28.609 70.6254C26.1217 71.5848 25.7323 75.5149 27.5283 77.2869C28.5481 78.2931 29.8953 78.2612 31.2244 78.2559C29.9201 82.9067 25.1693 82.234 22.5667 79.1448C19.8238 75.8889 20.8735 70.0941 24.2315 67.6131C28.4622 64.4873 33.6658 65.2085 36.9059 69.3215C38.1893 67.1439 39.8614 65.8559 42.4324 65.5135ZM65.4098 84.1039C65.5204 84.3316 65.7114 84.7577 65.8398 84.9559C66.3055 85.1115 66.3688 85.193 66.8369 85.0409C67.3978 84.8585 67.8595 83.5513 67.9482 83.0572C68.1526 81.9168 69.8185 76.7858 69.7914 76.0494L69.6348 75.9112C67.0745 77.2459 65.4885 81.3572 65.4098 84.1039ZM53.8103 83.3365C54.3008 82.8612 58.7373 78.6334 56.358 78.2934C54.2462 79.1518 53.5519 81.2121 53.4312 83.3542L53.5168 83.5158C53.6715 83.4508 53.6985 83.4565 53.8103 83.3365Z" fill="white"/>
<path d="M122.016 64.6861L122.278 64.7753C122.492 65.2567 121.112 69.682 120.858 70.5979C119.661 74.8957 118.436 78.763 118.077 83.2454C119.904 82.9827 121.722 82.7319 123.586 82.9401C125.077 83.1067 127.387 84.6753 126.945 86.3891C126.19 89.318 121.78 89.9925 119.243 89.4388C117.291 89.013 116.071 88.1444 114.992 86.4936C114.056 86.8645 113.052 86.9957 112.072 87.2009C108.989 87.8459 105.974 88.7416 102.949 89.6125C94.8772 91.977 86.9753 94.8824 79.2978 98.3088C71.6357 101.771 64.0515 105.402 56.5507 109.198C53.1708 110.916 49.779 112.612 46.3755 114.283C45.6662 114.627 43.619 115.675 42.9987 115.788C42.6938 115.357 43.4195 111.494 43.6176 110.872C44.8493 109.575 65.8988 99.798 68.6826 98.7553C71.6827 97.3167 75.4161 95.8246 78.521 94.5866C89.3972 90.2502 102.21 85.8053 113.791 84.0005C113.502 82.8899 113.55 82.2635 113.586 81.1358C111.625 82.6843 110.055 83.6743 107.533 82.5599C106.791 82.2318 106.292 81.7432 105.998 80.9872C105.784 80.4341 105.712 79.8367 105.788 79.2487C105.955 78.0297 108.091 73.6338 108.719 72.3506C110.56 68.5905 107.414 68.6631 106.967 70.069C105.553 74.512 104.437 79.1924 103.098 83.6745C101.413 84.011 98.526 84.2537 97.164 84.8174C97.5471 84.147 98.1134 83.5557 98.4087 82.842C99.1212 81.1197 102.108 70.8651 101.953 69.6898C101.881 69.1435 100.796 68.5463 100.385 68.2631C101.172 68.2209 102.581 68.1669 103.275 67.8994C105.237 67.1369 106.697 65.4765 108.951 65.4694C111.389 65.4618 113.88 67.3036 114.251 69.7625C114.455 71.1138 113.709 72.6141 113.158 73.8301L111.572 77.2738C111.299 77.8664 110.612 78.9403 111.248 79.4178C111.454 79.4489 111.614 79.4432 111.815 79.3825C115.296 78.3279 115.93 68.4556 117.559 65.4867C117.578 65.4529 117.597 65.4195 117.616 65.3859C118.779 65.0563 120.771 64.8915 122.016 64.6861ZM118.79 85.9034C119.814 86.6358 120.261 87.065 121.547 87.0476C122.694 86.844 123.222 86.6859 124.198 85.9435C122.95 85.3356 122.696 85.357 121.306 85.4552C120.394 85.5719 119.643 85.7815 118.79 85.9034Z" fill="white"/>
<path d="M72.4857 30C73.1425 30.327 83.8667 50.98 85.3062 53.3513C85.6799 53.9669 87.7984 57.7804 87.9719 58.4796C89.5515 58.4065 91.3968 58.7039 93.0399 58.7687C95.7692 58.8762 98.556 59.0594 101.289 59.2069L111.39 59.7481C113.036 59.8227 114.707 59.985 116.396 60.0522C115.478 61.8433 115.209 63.0353 116.523 64.6833C114.745 64.6176 112.884 64.2968 111.114 64.2473C107.456 64.1451 103.818 63.8422 100.167 63.6704C97.0505 63.5497 93.9347 63.4076 90.8199 63.2442C89.1431 63.1647 87.0456 63.1309 85.4221 62.8935C83.0151 58.7217 80.7153 54.2628 78.3662 50.037C76.4166 46.5296 74.423 42.9673 72.5493 39.4209C72.3271 39.9982 71.7286 40.9837 71.3987 41.5596C68.0445 47.9798 64.3057 54.2811 60.9138 60.6899C60.6645 61.1609 59.9438 62.5413 59.6027 62.8768C58.435 63.1153 56.0379 63.1911 54.7708 63.2543L45.2462 63.6667L34.3017 64.1927C32.7882 64.273 29.7743 64.6426 28.4157 64.3954C27.6559 63.8098 25.1906 61.1461 24.7241 60.3322C25.3844 60.3344 26.1604 60.2306 26.8354 60.1932L33.6787 59.7509C38.0339 59.4882 42.5781 59.3963 46.9547 59.0942C49.0773 58.9478 50.8777 58.7821 53.0279 58.7464C54.3989 58.7238 55.397 58.4595 56.9552 58.5442C57.5785 57.2118 58.6775 55.3225 59.4095 53.9733L64.2127 45.1805C66.9735 40.1706 69.6249 34.9389 72.4857 30Z" fill="white"/>
<path d="M94.2126 67.9158C96.2937 67.5998 98.0761 68.9227 98.7962 70.7948C100.004 74.1466 99.1806 77.2901 97.9387 80.5294C96.1125 85.2933 89.2247 88.781 86.5699 82.6745C85.7191 80.7178 86.1543 77.2831 87.0923 75.2532C85.5613 76.7247 84.5468 76.6668 82.4833 76.8798C82.8032 76.4323 83.2532 76.0478 83.5506 75.5717C84.6189 73.9987 82.6471 73.0561 82.0343 74.5812C81.362 76.254 80.8146 78.569 80.3349 80.3159C80.02 81.3858 79.7075 82.4339 79.4186 83.5117C79.0348 84.9428 78.7919 86.3798 78.1679 87.7266C76.4898 88.0542 74.3465 88.4794 72.6819 88.6768C72.9771 88.0911 73.5914 86.9233 73.7923 86.3415C74.5586 84.123 75.1349 81.7327 75.7687 79.4654C76.2267 77.8272 76.652 76.1643 77.0674 74.517C77.4501 73 76.4411 73.318 75.8475 72.4097L75.9594 72.2876C76.4541 72.3027 77.1464 72.4109 77.6226 72.2747C80.0818 71.5832 82.191 69.0118 84.9941 69.6949C87.0904 70.2058 87.7417 71.1919 87.6811 73.2533C88.2009 72.5778 88.6947 71.4063 89.2981 70.6176C90.6635 68.833 92.0848 68.2558 94.2126 67.9158ZM91.4074 82.3352C93.5634 80.7829 95.5896 73.6528 94.2873 71.5291L94.0963 71.4527C93.8755 71.6208 93.356 72.0069 93.2059 72.2252C91.7225 74.3823 91.1659 77.2012 90.7334 79.7388C90.5603 80.7542 90.6127 81.6182 91.4074 82.3352Z" fill="white"/>
<path d="M85.4978 109.429C87.3624 110.194 90.6535 111.961 92.5596 112.912C91.9059 113.181 90.9366 113.721 90.2542 114.042C88.8622 114.689 87.4425 115.274 85.9992 115.797C85.266 116.026 84.5013 116.325 83.7696 116.52C73.1923 119.345 62.1816 118.117 52.6482 112.904C54.0056 112.134 58.1359 110.035 59.5454 109.491C60.0102 109.583 60.7126 109.835 61.1711 109.998C68.5456 112.627 78.2852 112.603 85.4978 109.429Z" fill="white"/>
<path d="M67.1367 36.2704L67.2965 36.3219L67.3663 36.4638C66.4849 37.9627 64.178 42.9591 63.3355 43.2241C56.6642 45.3235 50.7729 48.684 46.1347 54.0421C45.2332 55.0836 44.1828 56.6907 43.1682 57.7764L43.102 57.8465C40.7989 58.112 38.6116 58.0862 36.3087 58.3037C36.0986 58.2234 36.1803 58.2925 36.0763 58.0679C36.0888 57.7467 37.9024 54.7179 38.1982 54.2699C43.3826 46.4198 51.1052 40.781 60.0634 37.8975C62.6151 37.0761 64.6165 36.8225 67.1367 36.2704Z" fill="white"/>
<path d="M97.8078 92.5108L98.0975 92.6089C98.4739 93.1662 99.3279 98.968 99.5138 100.044L101.176 109.824C101.313 110.61 102.193 115.331 102.1 115.854C101.538 115.916 81.4482 105.814 79.3716 104.815C77.5666 103.931 75.9489 103.088 74.0936 102.217C75.0398 101.528 78.1242 100.247 79.2462 99.8144C80.707 100.276 83.7572 101.892 85.3092 102.649C88.8691 104.386 92.805 106.104 96.2705 107.948C96.0782 106.52 95.7651 104.969 95.5331 103.532L93.9727 93.9257C95.1429 93.3299 96.8164 93.0676 97.8078 92.5108Z" fill="white"/>
<path d="M77.9424 36.2171C78.8144 36.5245 79.6166 36.5818 80.5093 36.7702C82.1029 37.1067 83.6892 37.4457 85.2391 37.9468C95.3239 41.2077 103.844 48.3059 108.853 57.6061C109.048 57.9663 109.097 57.9889 108.998 58.296C107.24 58.1545 103.365 58.0717 101.869 57.721C101.011 56.7878 100.335 55.7155 99.5117 54.7357C97.1537 51.889 94.352 49.4372 91.2132 47.4737C89.3348 46.2653 87.336 45.2533 85.2486 44.4535C84.2808 44.0908 81.6937 43.4162 81.2199 42.6871C80.5803 41.7031 77.8442 37.0891 77.9424 36.2171Z" fill="white"/>
<path d="M111.958 88.4851L112.044 88.7759C111.919 89.5989 111.359 90.8634 111.051 91.6788C109.302 96.3111 105.732 102.19 102.059 105.569C101.944 105.325 101.809 104.966 101.703 104.708C101.601 104.373 101.573 103.733 101.479 103.341C101.06 101.598 100.936 99.711 100.601 97.9945C101.548 96.6068 102.423 95.1969 103.305 93.7649C104.14 92.4095 104.277 90.5777 105.945 90.0518C107.726 89.4905 110.177 89.2048 111.859 88.5256L111.958 88.4851Z" fill="white"/>
<path d="M50.3402 92.0556C50.7653 92.2443 50.9893 92.4681 51.3404 92.7696C50.9669 95.5792 50.4416 98.3715 49.9597 101.18C49.8117 102.042 49.2909 106.108 48.7485 106.517C47.9426 107.125 45.8434 108.07 44.7884 108.605C44.551 108.745 44.5114 108.793 44.2475 108.794L44.1325 108.676C44.0771 108.359 44.4213 106.797 44.4897 106.381C44.8297 104.314 45.1508 102.243 45.5726 100.189C45.9247 98.6287 45.9741 96.1949 46.568 94.7745C46.666 94.5401 49.8154 92.4979 50.3402 92.0556Z" fill="white"/>
<path d="M41.3833 95.7693C41.7569 95.7224 42.4267 95.717 42.824 95.7014C43.4415 96.3465 44.0249 97.2676 44.5311 98.0217C44.4523 98.8395 43.4331 105.106 43.0801 105.362C42.5018 105.204 41.7555 104.204 41.3526 103.729C39.1495 101.318 37.9275 99.2994 36.3679 96.5226C37.7286 96.4262 40.0398 96.0426 41.3833 95.7693Z" fill="white"/>
<path d="M121.403 58.6907C123.759 58.4497 124.802 60.6185 123.381 62.4038C122.335 63.7178 121.447 64.2441 119.792 64.5084C118.099 64.5455 117.249 64.0626 116.893 62.3891C117.425 60.0096 119.113 59.0328 121.403 58.6907Z" fill="white"/>
</svg>
