<svg width="148" height="148" viewBox="0 0 148 148" fill="none" xmlns="http://www.w3.org/2000/svg">
<path d="M97.7239 60.0822C101.539 60.1323 105.366 60.0534 109.183 60.0925C110.046 60.1013 110.964 60.1078 111.821 60.0586C111.902 61.3708 111.846 63.9486 111.819 65.2966C111.375 65.0523 110.844 64.6245 110.43 64.3109C110.47 64.704 110.437 65.5681 110.436 65.9952L110.429 69.378C110.843 68.9686 111.37 68.5683 111.83 68.2014C111.81 69.0891 111.831 70.0657 111.83 70.9631C111.827 71.9534 111.845 72.9429 111.836 73.9341C110.313 73.987 108.431 73.937 106.876 73.9341L97.2062 73.946C97.145 73.0756 97.18 71.8214 97.18 70.9291L97.1806 62.0894C97.1806 61.6155 97.1567 60.5844 97.2279 60.1559C97.3431 60.0679 97.568 60.0859 97.7239 60.0822ZM105.184 66.9183C106.08 66.3473 107.563 65.6349 108.547 65.1C109.128 64.81 109.689 64.5018 110.266 64.2063C108.737 62.9921 106.793 61.5874 105.185 60.4224C105.188 62.5663 105.217 64.7816 105.184 66.9183ZM105.219 73.6379C106.056 72.8642 107.154 72.0068 108.052 71.2773C108.761 70.6963 109.67 70.0445 110.321 69.4277C108.851 68.8791 106.74 67.7834 105.24 67.126C105.236 69.1476 105.309 71.6563 105.219 73.6379Z" fill="white"/>
<path d="M81.1065 60.0657C81.436 60.1136 82.6311 60.0945 83.0002 60.0942L86.7898 60.0896L92.2437 60.0916C93.1928 60.0934 94.5955 60.1299 95.5162 60.0582C95.5585 61.7163 95.5513 63.7063 95.5151 65.3611C95.1973 65.1848 94.6751 64.8099 94.3579 64.596C94.4391 65.8243 94.3874 68.3748 94.3617 69.6346C93.4717 69.258 91.9554 68.5566 91.1176 68.0991C90.4825 67.8316 89.7489 67.4522 89.126 67.1421C89.0547 69.3547 89.1661 71.7108 89.1204 73.9363C88.3946 73.9737 87.2763 73.9374 86.5259 73.9364C84.7163 73.9285 82.9072 73.9321 81.0976 73.9472C80.9784 70.3635 81.1426 66.7053 81.0764 63.1122C81.0586 62.1515 81.0408 61.0159 81.1065 60.0657ZM89.0982 66.8999C89.986 66.338 91.3804 65.757 92.3534 65.2307C92.9473 64.9408 93.5112 64.6648 94.0923 64.3482C92.9807 63.5632 91.8853 62.6712 90.7898 61.8601C90.2794 61.482 89.6548 60.9513 89.1204 60.6326C89.1199 62.5754 89.1872 65.0037 89.0982 66.8999Z" fill="white"/>
<path d="M51.5363 60.0828C52.8845 60.0882 55.6145 60.1736 56.9009 60.0545C56.9425 61.576 56.9028 63.1141 56.9189 64.6373C56.9241 65.1325 56.923 65.6468 56.8839 66.1392C56.4078 65.7684 55.8727 65.1928 55.4077 64.7829C53.9301 63.4801 52.3077 61.6957 50.8014 60.4685C50.891 63.0889 50.8038 66.2199 50.8073 68.883L50.8135 71.8127C50.8142 72.2933 50.8378 73.187 50.7569 73.6325C52.3186 72.1978 53.8704 70.5943 55.4613 69.1317C55.9419 68.6665 56.4329 68.2416 56.8898 67.7535C56.9854 69.6306 56.9169 72.0293 56.9129 73.9268L56.8275 73.9274L52.2425 73.937C49.3 73.9392 47.201 74.1636 44.8786 71.9113C43.4851 70.5599 42.7688 68.9156 42.7629 66.9583C42.7511 65.1441 43.4722 63.4015 44.7638 62.1224C45.8705 61.0164 47.5513 60.2815 49.1011 60.1263C49.7487 60.0614 50.853 60.0849 51.5363 60.0828Z" fill="white"/>
<path d="M17.0962 60.0809C17.5288 60.1156 18.2817 60.0938 18.7379 60.0929L21.7318 60.0849C21.997 60.0839 23.1731 60.0502 23.318 60.1149C23.7383 60.3024 24.8675 61.7154 25.1853 62.0793L28.0448 65.3483L29.9418 67.5092C30.2892 67.9044 30.8169 68.4682 31.0924 68.8819C31.165 70.3983 31.1063 72.3773 31.1058 73.9285C30.8654 73.9395 30.5983 73.9364 30.3564 73.9339C28.4968 73.9152 26.6208 73.9749 24.7629 73.9285C24.3561 73.5628 23.6315 72.6743 23.2403 72.2182L18.3554 66.5208C18.0367 66.1493 17.2646 65.2928 17.0491 64.8937L17.0441 61.8074C17.0437 61.4196 17.0244 60.4233 17.0962 60.0809Z" fill="white"/>
<path d="M113.777 60.0585C114.159 60.1219 115.664 60.0901 116.118 60.0945C117.976 60.1123 119.859 60.0584 121.717 60.0899C121.764 60.6123 121.732 61.608 121.73 62.1552L121.725 65.9439L121.727 71.0023C121.73 71.9284 121.767 73.0217 121.724 73.9345C121 73.9742 119.879 73.9378 119.133 73.9368C117.345 73.9278 115.557 73.9314 113.769 73.9477C113.625 70.7279 113.834 67.3398 113.75 64.1034C113.717 62.8466 113.7 61.3035 113.777 60.0585Z" fill="white"/>
<path d="M33.6049 60.0797C35.0682 60.109 36.5843 60.0883 38.0514 60.0932C38.8853 60.096 40.2089 60.1306 40.9949 60.0537C41.0486 63.3928 40.9805 70.1512 40.9982 73.8356C40.9707 73.8692 40.9472 73.8979 40.9278 73.9218L40.6888 73.9331L33.1275 73.9479C33.0175 71.2645 33.1047 68.0022 33.1052 65.2818L33.106 62.0485C33.106 61.5259 33.0795 60.6655 33.1416 60.1757C33.3006 60.0586 33.3762 60.0936 33.6049 60.0797Z" fill="white"/>
<path d="M17.0626 66.8375C17.2731 66.9497 22.9926 73.6292 23.069 73.8343L23.0189 73.9311C21.1946 73.9966 18.9222 73.9345 17.0696 73.9362C17.0125 73.1961 17.0498 71.9819 17.0498 71.204C17.0497 69.7691 17.0167 68.2646 17.0626 66.8375Z" fill="white"/>
<path d="M25.0595 60.0786C26.9179 60.1314 29.2489 60.1737 31.1006 60.0597C31.1408 62.317 31.1114 64.7229 31.0981 66.985L31.0748 67.0175L30.9967 67.0298C30.4269 66.4388 25.1837 60.4923 25.0595 60.0786Z" fill="white"/>
<path d="M76.6138 69.6607C77.3786 69.4597 78.193 69.6849 78.7441 70.2499C79.2957 70.8148 79.4983 71.6319 79.2751 72.3876C79.0519 73.1435 78.4368 73.7207 77.6659 73.8981C76.4997 74.1665 75.333 73.4529 75.0452 72.2954C74.758 71.1378 75.4566 69.9647 76.6138 69.6607Z" fill="white"/>
<path d="M68.4105 80.9041C69.464 80.649 70.5251 81.2953 70.7771 82.3457C71.029 83.3961 70.376 84.4504 69.3205 84.6972C68.2709 84.9427 67.2196 84.2966 66.969 83.2521C66.7184 82.2075 67.3629 81.1578 68.4105 80.9041ZM69.0183 83.8283C69.8973 83.3417 69.8489 81.8005 68.6884 81.7845C67.7661 82.326 67.8516 83.7921 69.0183 83.8283Z" fill="white"/>
<path d="M37.3046 80.9069C37.9948 80.7353 38.7242 80.9506 39.2092 81.4691C39.6941 81.9875 39.8583 82.7273 39.6378 83.4011C39.4173 84.0748 38.847 84.5762 38.1484 84.7103C37.1079 84.9102 36.0968 84.2483 35.8682 83.2176C35.6395 82.187 36.2764 81.1624 37.3046 80.9069ZM37.9511 83.8371C38.9129 83.2307 38.7063 81.7442 37.6141 81.7851C36.7907 82.1829 36.7138 83.7473 37.9511 83.8371Z" fill="white"/>
<path d="M42.973 80.9571C43.8881 80.9943 44.7696 80.8831 45.6895 81.061L45.7063 81.0738C46.2357 81.4795 46.579 82.0684 46.0121 82.6287C45.8609 82.7781 45.6912 82.871 45.5542 83.041C46.0043 83.4099 46.2665 84.0843 46.598 84.6306C46.2809 84.6684 45.884 84.6606 45.5594 84.6634C45.5013 84.6646 45.3809 84.6454 45.3174 84.637C44.9859 84.3555 44.5901 83.2799 44.2604 83.201L44.1811 83.2728C44.0885 83.5942 44.1202 84.2911 44.1203 84.6513C43.7937 84.675 43.2916 84.6619 42.9518 84.6631C42.8876 83.8711 42.8747 81.7455 42.973 80.9571ZM44.9964 82.3203C45.0636 82.1562 45.1001 82.0934 45.0435 81.9196C44.7945 81.6759 44.4934 81.7376 44.1226 81.7376C44.1164 81.943 44.0791 82.2185 44.1939 82.3768C44.437 82.5131 44.6385 82.4268 44.9238 82.3441C44.9484 82.3372 44.9725 82.3293 44.9964 82.3203Z" fill="white"/>
<path d="M76.4457 80.9618C77.6614 80.9429 77.5328 80.8577 77.5317 82.1186C77.5306 82.9525 77.5657 83.8242 77.5089 84.6547C77.1582 84.6741 76.8493 84.6595 76.4986 84.6462C76.0054 84.2059 75.5685 83.2981 75.0742 82.7411L75.0825 84.6554C74.7457 84.6685 74.3555 84.6609 74.0138 84.6624C73.9898 83.559 73.9603 82.0523 74.0266 80.9584C74.9122 80.9434 75.1911 81.002 75.6965 81.8286C75.9208 82.1951 76.1802 82.5894 76.4229 82.9453C76.38 82.3177 76.4012 81.5878 76.4457 80.9618Z" fill="white"/>
<path d="M80.8476 80.941C81.8769 80.9779 82.9072 80.9786 83.9364 80.9431C83.9548 81.2188 83.9442 81.5259 83.9409 81.8044C83.5763 81.8452 82.3183 81.7251 82.1073 81.8655C82.0316 82.4899 82.5932 82.2811 83.0402 82.3112C83.2434 82.325 83.5646 82.2815 83.7767 82.2617L83.7967 83.1224L82.1502 83.122C82.0455 83.2567 82.0784 83.5719 82.0733 83.7779C82.6779 83.7836 83.3965 83.8089 83.9893 83.7516L83.9926 84.653C83.0297 84.6931 81.8384 84.6622 80.8571 84.6641C80.7847 84.089 80.8081 81.5613 80.8476 80.941Z" fill="white"/>
<path d="M50.595 80.9672C51.8184 80.9223 51.8104 80.8988 52.2347 82.1006C52.534 82.9486 52.9026 83.7657 53.1356 84.644C52.7292 84.6718 52.3646 84.6607 51.9575 84.6518L51.7313 84.0598L50.5168 84.0608L50.3422 84.6522C49.9707 84.674 49.5093 84.6554 49.13 84.6491C49.4242 83.9783 50.2778 81.2776 50.595 80.9672ZM51.3206 83.1974L51.4645 83.1794C51.5371 83.0173 51.2444 82.1961 51.111 82.1015C51.0156 82.3852 50.7943 82.8705 50.8578 83.121C51.0079 83.2595 51.0606 83.198 51.3206 83.1974Z" fill="white"/>
<path d="M116.949 80.9484C117.35 80.9549 117.752 80.967 118.154 80.9846C118.64 81.8389 119.12 83.6998 119.588 84.6458C119.213 84.6688 118.753 84.6603 118.37 84.6626L118.163 84.062C117.761 84.0486 117.329 84.0549 116.924 84.0538L116.734 84.6575C116.313 84.667 115.953 84.662 115.531 84.6452C115.795 83.7615 116.579 81.8006 116.949 80.9484ZM117.617 83.1966L117.812 83.1924C117.908 83.0039 117.658 82.261 117.54 82.0882C117.428 82.401 117.215 82.8377 117.227 83.1263L117.305 83.2099L117.617 83.1966Z" fill="white"/>
<path d="M92.5889 80.9509C92.9846 80.9513 93.3804 80.9634 93.7756 80.9873C94.0461 81.4326 94.988 84.0543 95.1811 84.6316C94.8644 84.6724 94.3317 84.6623 93.9949 84.6646L93.7856 84.0556C93.3721 84.059 92.9523 84.0533 92.5382 84.0514L92.3573 84.6601C91.9688 84.6698 91.5696 84.6545 91.1806 84.6446C91.3715 84.0247 92.3066 81.4525 92.5889 80.9509ZM93.1572 83.193L93.4221 83.2027C93.578 82.999 93.2886 82.2631 93.1616 82.0915C93.042 82.4047 92.8316 82.8299 92.8483 83.1402C92.9651 83.2318 92.9802 83.2001 93.1572 83.193Z" fill="white"/>
<path d="M24.2678 80.9518L25.4842 80.9684C25.9497 81.8205 26.4594 83.6595 26.9126 84.6389C26.5606 84.6705 26.0782 84.6601 25.7148 84.6615L25.4697 84.0521C25.0725 84.0609 24.6638 84.0527 24.2656 84.049L24.0412 84.6549C23.682 84.6685 23.261 84.6584 22.8968 84.6585C23.1075 83.8142 23.9171 81.7788 24.2678 80.9518ZM24.8901 83.2102L25.1297 83.1697C25.2334 82.9467 25.0214 82.223 24.8534 82.1C24.7568 82.407 24.546 82.8726 24.5498 83.1312C24.6639 83.2458 24.689 83.2088 24.8901 83.2102Z" fill="white"/>
<path d="M56.1335 80.9739C56.6411 80.9677 59.0252 80.8326 59.2807 81.079C59.3272 81.1239 59.3494 81.2231 59.3473 81.2852C59.327 81.8783 57.7303 83.3752 57.2531 83.7997C57.9712 83.8042 58.6659 83.811 59.3837 83.7807C59.4011 84.054 59.4616 84.4556 59.3065 84.6626L55.838 84.6615C55.8223 84.2881 55.8336 84.1282 55.879 83.7568C56.544 83.2022 57.1381 82.4045 57.8519 81.7955C57.3143 81.7584 56.6173 81.7738 56.068 81.7711C56.0588 81.5051 56.0569 81.2289 56.1335 80.9739Z" fill="white"/>
<path d="M99.3086 80.9189C100.285 80.8271 100.625 80.9024 101.322 81.5873L101.475 82.0979C101.105 82.1459 100.888 82.1808 100.528 82.2734C100.323 82.0494 100.129 81.8193 99.8157 81.7917C99.6749 81.7781 99.5346 81.8223 99.4272 81.9142C98.9852 82.2955 98.9301 83.834 99.7523 83.8234C100.211 83.8175 100.309 83.42 100.582 83.1549L100.748 83.1709C100.982 83.2414 101.262 83.3487 101.497 83.4311C101.339 83.9834 101.125 84.415 100.519 84.601C98.6312 85.1797 97.3259 83.4873 98.133 81.7702C98.3796 81.2457 98.7854 81.0777 99.3086 80.9189Z" fill="white"/>
<path d="M105.9 80.9208C107.103 80.8128 107.624 80.9558 108.111 82.0942C107.772 82.1315 107.488 82.1941 107.156 82.2644C106.821 81.8905 106.357 81.5366 105.915 82.0413C105.47 82.5508 105.611 83.9167 106.533 83.8251C106.78 83.8004 107.026 83.3738 107.17 83.1615L107.325 83.1472L108.148 83.4342C108.09 83.5774 108.027 83.719 107.961 83.8588C107.8 84.1932 107.516 84.481 107.143 84.5964C105.236 85.1878 103.97 83.4901 104.75 81.7614C104.974 81.2652 105.4 81.0756 105.9 80.9208Z" fill="white"/>
<path d="M29.2642 80.9618C29.6469 80.9617 30.0296 80.9639 30.4122 80.9682C30.6551 81.4673 31.0437 82.918 31.2424 83.5391C31.5195 82.7365 31.6901 81.7106 32.0678 80.966L33.1981 80.9609C33.1051 81.2822 33.0269 81.5442 32.9089 81.8582C32.6467 82.5069 32.1045 84.1488 31.8288 84.6525C31.4586 84.6723 31.0158 84.6592 30.6394 84.6569C30.3987 84.2778 29.3963 81.5148 29.2642 80.9618Z" fill="white"/>
<path d="M17.2584 80.9582C17.6278 80.9663 18.0028 80.953 18.3725 80.9443C18.377 81.8428 18.3964 82.7942 18.3672 83.6879C18.9823 83.6756 19.5035 83.7097 20.1416 83.6703L20.148 84.652C19.2638 84.6917 18.1463 84.6634 17.2436 84.6667C17.1762 83.851 17.1719 81.7682 17.2584 80.9582Z" fill="white"/>
<path d="M111.354 80.946C111.725 80.9743 112.146 80.9548 112.523 80.9458C112.534 82.1802 112.534 83.4146 112.522 84.649C112.181 84.6704 111.712 84.6602 111.362 84.6627C111.29 84.1594 111.312 81.4988 111.354 80.946Z" fill="white"/>
<path d="M62.4989 80.9263C62.8885 80.9848 63.2956 80.9581 63.69 80.9454L63.7011 84.6418C63.4021 84.6749 62.8202 84.6606 62.4987 84.661C62.4707 83.4423 62.4907 82.1473 62.4989 80.9263Z" fill="white"/>
<path d="M122.637 80.9614C123.02 80.9726 123.34 80.9583 123.724 80.9387C123.729 81.5722 123.785 84.1734 123.703 84.6555L122.609 84.6633C122.547 83.8266 122.529 81.7827 122.637 80.9614Z" fill="white"/>
<path d="M17.0752 77.8383L130.962 77.8402V79.0081L17.0628 79.011C17.0389 78.5719 17.0499 78.279 17.0752 77.8383Z" fill="white"/>
<path d="M17.0739 86.8796L127.102 86.8761C128.163 86.8757 129.976 86.9389 130.962 86.8534V88H17.0672C17.0284 87.6166 17.0553 87.2637 17.0739 86.8796Z" fill="white"/>
<path d="M122.798 60H127.706C129.636 60.2806 130.421 61.1752 130.962 62.9723V64.0294C130.434 65.7557 129.944 66.3035 128.259 66.9472C128.786 68.385 129.383 69.824 129.929 71.2574C130.079 71.6509 130.767 73.5768 130.962 73.846V73.951C128.358 74.0266 125.423 73.9571 122.786 73.9655C122.689 70.3557 122.827 66.69 122.771 63.0732C122.757 62.0997 122.736 60.9651 122.798 60Z" fill="white"/>
<path d="M67.2817 60H68.5521C68.8608 60.0781 69.337 60.056 69.6869 60.1228C75.0875 61.1547 77.1243 67.9881 73.3575 71.9028C71.6304 73.6979 69.666 74.0222 67.2835 74.0582C67.2143 73.4418 67.2444 72.3777 67.2448 71.7188L67.2472 67.6562L67.2447 62.8195C67.2443 61.989 67.2109 60.7952 67.2817 60Z" fill="white"/>
<path d="M65.2351 60H66.1657C66.1994 61.5338 66.1692 63.1822 66.1692 64.7234L66.1715 74.0405C64.3771 74.1307 62.6565 73.8662 61.1665 72.8154C59.5986 71.7199 58.5405 70.041 58.2314 68.1584C57.9299 66.3746 58.3285 64.4072 59.3872 62.927C60.4057 61.4863 61.9487 60.4988 63.6875 60.1748C64.2233 60.0737 64.7177 60.0866 65.2351 60Z" fill="white"/>
<path d="M130.962 83.0912C130.821 83.8038 130.472 84.4117 129.715 84.6193C127.78 85.1499 126.527 83.5075 127.338 81.7584C127.757 80.8537 129.254 80.6726 130.057 81.1144C130.641 81.4356 130.794 81.8855 130.962 82.4882V83.0912ZM129.198 83.8231C130.145 83.31 129.991 81.7719 128.834 81.7858C128.072 82.2362 128.131 83.6098 128.829 83.7835C128.95 83.8137 129.074 83.8271 129.198 83.8231Z" fill="white"/>
</svg>
