<svg width="148" height="148" viewBox="0 0 148 148" fill="none" xmlns="http://www.w3.org/2000/svg">
<path d="M50.0172 75.066C53.0559 75.1199 55.9008 75.922 58.4278 77.6607C59.3678 78.3077 60.5175 79.0693 60.0757 80.5723C59.9404 81.0328 59.4895 81.6079 59.0747 81.7269C57.7966 82.0909 56.5658 81.9673 55.3846 81.1182C53.0356 79.4287 50.4184 79.3097 47.7809 80.2286C44.8932 81.2372 43.2543 83.4388 42.2939 86.3952C41.3269 89.3719 41.5027 92.2543 42.7719 94.9726C44.6385 98.9646 48.225 100.836 52.4924 99.8925C53.5428 99.6611 54.5594 99.1735 55.5356 98.6816C56.6221 98.1356 57.7267 97.7559 58.9328 97.8144C60.256 97.8796 60.6708 98.6433 60.0667 99.852C59.2123 101.559 57.693 102.534 56.1217 103.332C51.6312 105.612 47.0753 105.56 42.6727 103.141C41.0474 102.247 39.3837 101.097 38.2589 99.6363C36.6447 97.5403 35.4748 95.0893 35.4433 92.2318C35.4162 89.6348 35.4072 87.0558 36.2503 84.5643C37.3255 81.3833 39.1989 78.8537 42.0776 77.2069C44.537 75.8006 47.1813 75.0412 50.0172 75.066Z" fill="white"/>
<path d="M86.9714 96.5541C86.8993 98.0076 86.9038 99.4724 86.7347 100.912C86.4822 103.053 85.3799 103.725 83.3285 103.206C82.3006 102.946 81.2478 102.777 80.2018 102.599C77.9611 102.22 75.8691 102.907 73.7749 103.577C71.1329 104.422 68.5291 104.41 66.081 102.964C64.3002 101.912 63.2451 100.301 63.1009 98.1357C63.0062 96.7092 63.0828 95.3207 63.572 93.9392C64.4467 91.4724 66.3516 90.3694 68.6035 89.7763C71.6378 88.9766 74.7195 88.37 77.7491 87.55C80.0124 86.9389 81.4123 84.8811 81.3651 82.5874C81.3244 80.6644 79.9561 78.8223 77.9971 78.0359C75.6098 77.0812 73.3871 77.2901 71.3515 78.9773C70.8353 79.4064 70.274 79.7748 69.7533 80.1971C68.7027 81.0486 67.5125 81.0396 66.2997 80.7857C65.6369 80.6464 65.3686 80.1522 65.6685 79.5119C65.8759 79.0716 66.1735 78.638 66.5252 78.3123C68.457 76.5353 70.8579 75.9489 73.3263 75.8546C75.443 75.7737 77.6207 75.794 79.6878 76.2095C83.3285 76.9396 85.7203 78.4606 86.5904 82.3718C86.6805 82.7738 86.7302 83.1963 86.7302 83.6073C86.7392 87.9207 86.737 92.234 86.737 96.5474L86.9691 96.5519L86.9714 96.5541ZM74.4263 101.6C74.8456 101.535 75.5038 101.479 76.1419 101.321C77.979 100.87 79.3361 99.6521 80.3461 98.1065C81.4033 96.4868 81.9353 94.6131 81.4214 92.6699C80.7564 90.156 78.6892 89.3046 75.9142 89.4595C73.1256 89.6168 70.8533 90.9266 69.0544 93.1237C67.7109 94.7659 67.5869 97.8526 69.0454 99.4679C70.4499 101.025 72.233 101.487 74.4286 101.6H74.4263Z" fill="white"/>
<path d="M92.4379 90.1582C92.4379 86.7345 92.4311 83.313 92.4469 79.8893C92.4492 79.3591 92.4943 78.8109 92.6296 78.3032C93.0398 76.7734 93.9776 76.0005 95.5173 75.9983C96.3153 75.9983 97.1584 76.05 97.9045 76.3128C100.195 77.1193 102.472 77.4541 104.857 76.7801C106.536 76.3038 107.391 78.0314 107.154 79.2378C106.978 80.1252 106.29 80.5318 105.592 80.9047C104.62 81.4214 103.617 81.8842 102.666 82.4392C99.9559 84.0251 98.5853 86.4716 98.538 89.6639C98.4839 93.355 98.5155 97.0461 98.5019 100.735C98.4929 103.089 97.1652 104.302 94.9018 104.048C93.7995 103.925 92.8392 103.058 92.6137 101.928C92.5145 101.436 92.4627 100.926 92.4605 100.425C92.4469 97.0011 92.4537 93.5796 92.4537 90.156H92.4402L92.4379 90.1582Z" fill="white"/>
<path d="M111.133 90.4884C111.133 87.2422 111.133 83.9983 111.133 80.752C111.133 80.3656 111.128 79.9769 111.088 79.5928C110.961 78.3908 111.475 77.4406 112.602 77.0474C113.921 76.587 115.236 76.7801 116.252 77.7259C116.662 78.1078 116.816 78.9638 116.82 79.6063C116.836 82.5514 116.737 85.4967 116.719 88.4419C116.694 92.6092 116.71 96.7788 116.698 100.946C116.696 101.91 116.613 102.838 115.808 103.536C114.115 105.008 111.816 104.087 111.318 102.17C111.171 101.604 111.142 100.993 111.14 100.402C111.124 97.0977 111.133 93.7931 111.133 90.4884Z" fill="white"/>
<path d="M134 61.1488C133.216 61.8115 132.499 62.5932 131.638 63.1189C126.198 66.428 120.749 69.726 115.251 72.9273C113.22 74.109 112.26 74.392 112.104 71.2087C111.983 68.7217 112.233 66.2753 113.11 63.9322C113.211 63.6581 113.369 63.3952 113.545 63.1661C114.135 62.3978 114.976 62.4023 115.47 63.2447C115.792 63.7952 115.988 64.4354 116.171 65.0577C116.698 66.8415 117.025 67.0616 118.61 66.273C122.941 64.1164 127.526 62.6854 132.075 61.142C132.63 60.9533 133.218 60.8746 133.789 60.7466C133.859 60.8814 133.93 61.0161 134 61.1509V61.1488Z" fill="white"/>
<path d="M43.6331 55.8537C43.8134 52.0638 44.3928 48.3749 45.5041 44.7895C45.7116 44.12 46.2299 43.2978 46.8026 43.0664C47.5938 42.7474 48.0988 43.6482 48.5136 44.275C49.7602 46.1666 50.5537 48.2694 51.0474 50.4844C52.1294 55.337 51.6312 60.1176 50.3193 64.8376C50.0915 65.6575 49.679 66.4303 49.2936 67.1919C48.8269 68.1085 47.7877 68.3174 47.143 67.5109C46.4035 66.5831 45.7566 65.5407 45.2607 64.4534C44.7872 63.4155 44.4446 62.2787 44.2508 61.1465C43.9531 59.3987 43.8292 57.6172 43.6331 55.8492V55.8537Z" fill="white"/>
<path d="M24.7444 52.9287C25.299 53.2005 26.239 53.5779 27.0956 54.0991C30.3598 56.0873 32.8823 58.8348 34.9135 62.1372C36.3133 64.4107 37.4292 66.7988 38.2791 69.3262C38.5316 70.0764 38.6624 70.8853 38.7525 71.6783C38.8652 72.6847 38.3851 73.1272 37.4134 72.9925C35.8603 72.7768 34.6339 71.8378 33.455 70.9032C31.124 69.0565 29.2169 66.7876 27.7809 64.13C26.5343 61.825 25.3057 59.5066 24.1561 57.15C23.721 56.2581 23.4708 55.2538 23.2408 54.2766C23.0222 53.3533 23.4212 52.9174 24.7444 52.9287Z" fill="white"/>
<path d="M28.8406 82.7491C25.8875 82.5244 23.2658 81.5203 20.8357 80.0601C18.8294 78.8537 16.9628 77.4001 15.0467 76.0365C14.7424 75.8209 14.4764 75.5266 14.2509 75.2233C13.7956 74.6054 13.9669 73.9966 14.7085 73.918C15.7568 73.8079 16.8321 73.7922 17.878 73.9022C20.777 74.2055 23.3717 75.4277 25.7793 77.0384C27.1949 77.9864 28.4957 79.1232 29.8032 80.2285C30.2788 80.6307 30.9302 81.2282 30.5064 81.8617C30.1931 82.329 29.4131 82.4638 28.8406 82.7468V82.7491Z" fill="white"/>
<path d="M21.2099 93.546C19.9204 93.382 18.259 93.2022 16.6111 92.9394C16.2707 92.8855 15.9754 92.5193 15.6576 92.2992C15.8717 91.9779 16.0205 91.5533 16.3136 91.3533C18.0787 90.1425 20.0534 89.5022 22.1567 89.3989C23.7639 89.318 25.3803 89.3338 26.9854 89.4235C27.7743 89.4685 28.5655 89.7246 29.3184 89.9942C29.6116 90.0997 30.015 90.5244 29.9947 90.7692C29.9655 91.1085 29.6453 91.5151 29.341 91.7195C27.9073 92.6811 26.2842 93.1012 24.607 93.3011C23.6062 93.4202 22.5962 93.4493 21.2076 93.546H21.2099Z" fill="white"/>
<path d="M43.2971 61.1173C42.1181 61.3038 40.9391 61.506 39.7557 61.6565C39.5889 61.6767 39.2575 61.4655 39.2394 61.3262C39.2078 61.1015 39.307 60.7736 39.4671 60.6208C39.8481 60.2637 40.335 60.0255 40.7092 59.6593C40.9932 59.3808 41.1668 58.9831 41.39 58.6372C41.0271 58.5203 40.6731 58.3518 40.3011 58.3001C39.866 58.2417 39.4198 58.2866 38.9328 58.1227C39.1176 58.0418 39.2935 57.9227 39.4874 57.8868C40.4229 57.7138 41.3607 57.543 42.3052 57.4195C42.5238 57.3903 42.9184 57.4914 42.9612 57.6262C43.0356 57.8598 42.9928 58.2597 42.835 58.4215C42.4314 58.8348 41.9063 59.1201 41.4959 59.5313C41.2615 59.7671 41.16 60.1423 40.9977 60.4568C41.3044 60.5692 41.6019 60.7421 41.9152 60.7826C42.357 60.8387 42.8102 60.7961 43.2611 60.7961L43.2993 61.115L43.2971 61.1173Z" fill="white"/>
<path d="M41.71 49.8891C42.7605 49.8936 43.4278 50.5743 43.4391 51.6571C43.4526 52.8163 42.6997 53.652 41.6672 53.6228C40.6843 53.5959 39.821 52.7107 39.8367 51.7447C39.8525 50.6192 40.5964 49.8824 41.71 49.8869V49.8891ZM41.7461 52.7489C42.4608 52.7355 42.8552 52.3985 42.862 51.7942C42.8665 51.2011 42.3435 50.6686 41.7258 50.7248C41.151 50.7765 40.4273 50.6934 40.3755 51.6055C40.3372 52.2704 40.9503 52.7624 41.7461 52.7467V52.7489Z" fill="white"/>
<path d="M42.3075 47.9324C41.9063 47.6673 41.4847 47.4314 41.1172 47.1259C40.973 47.0068 40.9504 46.7327 40.8715 46.5283C41.079 46.4879 41.3382 46.3418 41.4847 46.4227C42.2444 46.8338 43.0131 47.2495 43.7029 47.7706C44.1561 48.1121 44.014 48.8377 43.4775 48.9658C42.6434 49.1657 41.7823 49.2534 40.928 49.3342C40.7612 49.35 40.574 49.1208 40.3959 49.0062C40.5605 48.8377 40.698 48.5816 40.8941 48.5187C41.3382 48.3795 41.8093 48.3368 42.2692 48.2536L42.3052 47.9324H42.3075Z" fill="white"/>
<path d="M41.6132 45.4207C40.9414 44.5199 41.5365 43.2933 42.5216 43.2775C42.6929 43.2753 42.8688 43.2843 43.0378 43.3045C44.839 43.5202 45.3507 44.5648 44.3971 46.1778C44.2529 46.4204 43.8156 46.6586 43.5676 46.6092C43.2724 46.5507 42.9476 46.225 42.7966 45.9285C42.6637 45.6701 42.8463 45.2433 42.7223 44.9737C42.5713 44.6502 42.2444 44.412 41.9942 44.138C41.8656 44.4278 41.7237 44.7108 41.6177 45.0074C41.5749 45.1287 41.6109 45.2815 41.6109 45.4185L41.6132 45.4207ZM44.5483 45.1511C44.0884 44.8119 43.8404 44.5154 43.5473 44.4615C43.4008 44.4345 42.9815 44.9422 43.0288 45.0478C43.1551 45.3331 43.4324 45.6207 43.7118 45.7285C43.8562 45.7824 44.1356 45.4499 44.5483 45.1511Z" fill="white"/>
<path d="M39.9698 54.0609C40.858 54.0609 41.7462 54.0429 42.6298 54.0811C42.7539 54.0856 42.9455 54.3619 42.9657 54.5304C43.0312 55.0853 43.0672 55.6469 43.0423 56.2041C43.0333 56.4017 42.8418 56.7365 42.6997 56.7567C41.7958 56.8826 40.8738 57.1521 39.9811 56.7792L39.945 56.4984C40.2742 56.44 40.6033 56.386 40.9301 56.3186C41.5343 56.1951 42.4833 56.4601 42.5104 55.5301C42.5374 54.5708 41.6154 54.7798 40.9887 54.6989C40.6394 54.654 40.2967 54.5529 39.9518 54.4765L39.9698 54.0586V54.0609Z" fill="white"/>
</svg>
