<svg width="148" height="148" viewBox="0 0 148 148" fill="none" xmlns="http://www.w3.org/2000/svg">
<path d="M71.5932 24.6313C92.1345 23.2995 109.853 38.9011 111.131 59.4457C112.409 79.9903 96.7623 97.6682 76.2144 98.8932C55.7419 100.114 38.143 84.5362 36.8692 64.0669C35.5955 43.5976 51.1273 25.9582 71.5932 24.6313ZM75.5553 82.3568C86.9433 81.4993 95.4743 71.5632 94.5989 60.1765C93.7236 48.7899 83.774 40.2745 72.3887 41.1679C61.0288 42.0592 52.5365 51.9818 53.4099 63.3431C54.2834 74.7044 64.1926 83.2123 75.5553 82.3568Z" fill="white"/>
<path d="M41.005 106.904C43.3741 106.818 46.019 106.877 48.4126 106.877L107.256 106.862C107.068 109.123 107.15 112.459 107.159 114.778C107.169 117.432 107.073 120.702 107.22 123.319L107.105 123.448L106.73 123.443C103.781 123.36 100.712 123.398 97.7541 123.398L40.7458 123.404C40.6817 122.444 40.7588 121.014 40.7625 120.009L40.7729 113.059C40.7773 111.764 40.7739 110.469 40.7629 109.174C40.7573 108.725 40.7054 107.396 40.7659 107.005L41.005 106.904ZM75.2816 118.681C75.6807 118.653 76.128 118.614 76.5232 118.616C76.4811 117.85 76.3946 114.885 76.5301 114.244L76.6657 114.169C77.1147 114.443 79.2947 117.839 79.9536 118.619L80.967 118.655C81.2087 118.368 80.9586 112.783 81.0687 111.693C80.5819 111.731 80.3559 111.739 79.8714 111.705C79.8627 113.241 79.8825 114.877 79.8393 116.404C79.3062 115.444 77.33 112.734 76.6232 111.765L75.288 111.682C75.2836 113.943 75.3371 116.444 75.2816 118.681ZM47.8642 116.73C48.8267 116.577 49.6217 115.896 49.9208 114.969C50.2199 114.041 49.9723 113.025 49.2802 112.339C48.7117 111.775 47.9142 111.506 47.1205 111.612C46.1966 111.734 45.4098 112.343 45.061 113.208C44.7122 114.072 44.8554 115.057 45.4356 115.786C46.016 116.515 46.9438 116.876 47.8642 116.73ZM84.56 118.735C84.9344 118.695 85.3847 118.633 85.7533 118.632C86.344 117.965 86.4038 117.826 87.2943 117.797C87.6656 117.811 88.1033 117.815 88.4677 117.841C88.6822 118.074 88.9798 118.381 89.1656 118.626L90.2747 118.642C90.0052 117.895 87.7018 111.826 87.4369 111.577C86.4236 113.736 85.5824 116.786 84.56 118.735ZM95.7233 112.878C96.1597 112.859 96.7804 112.909 97.0752 112.636C97.188 112.378 97.1699 112.335 97.0966 112.059C96.742 111.527 95.5342 111.713 94.9308 111.729C94.4914 111.737 93.6355 111.685 93.3038 111.828C92.9832 112.203 93.0385 112.458 93.4066 112.759C93.7716 112.859 94.2331 112.834 94.6193 112.831C94.5623 114.524 94.5058 116.861 94.5685 118.546C94.8252 118.703 95.165 118.63 95.4979 118.607L95.7033 118.596C95.8122 118.325 95.7459 113.592 95.7233 112.878ZM103.082 118.603C103.288 117.891 102.574 117.841 102.524 117.492C102.221 115.373 102.176 113.728 103.169 111.797C102.322 111.756 101.054 111.808 100.338 111.741C100.452 112.577 100.46 112.587 101.174 113.037C101.256 114.431 101.252 115.828 101.161 117.221C100.589 117.751 100.557 117.861 100.346 118.614C101.249 118.612 102.182 118.623 103.082 118.603ZM45.076 117.419L45.1183 118.65C46.565 118.592 48.307 118.602 49.7748 118.624C49.7766 118.235 49.7703 117.815 49.7832 117.428C48.2508 117.398 46.602 117.371 45.076 117.419ZM68.8922 111.761C69.0221 112.463 69.0332 112.616 69.5747 113.082C69.6682 114.566 69.6496 115.732 69.5634 117.209C67.7091 119.168 71.1384 118.782 71.6906 118.495C71.6073 117.892 71.704 117.874 71.0944 117.656C70.6077 116.918 70.7327 114.591 70.8938 113.676C71.0333 112.885 71.3249 112.451 71.7271 111.777C70.7822 111.762 69.8371 111.756 68.8922 111.761ZM62.6643 111.728C62.3948 111.737 61.7548 111.731 61.5421 111.824C61.4351 112.114 61.3633 112.217 61.4423 112.512C62.2131 113.258 63.0843 112.225 63.0028 113.786C62.9237 115.3 63.0731 117.17 63.0004 118.635C63.3597 118.645 63.8741 118.692 64.1934 118.571L64.2532 118.379C64.2561 117.543 64.1304 113.45 64.385 112.956C64.9389 112.564 65.668 113.546 65.6815 111.719C64.6847 111.712 63.6579 111.691 62.6643 111.728ZM55.6529 111.624C55.2886 111.743 54.8724 111.865 54.5385 112.043C53.6181 113.385 53.4633 115.094 55.3692 115.542C55.8789 115.726 56.8386 115.782 56.9521 116.453C57.0339 116.936 56.8225 117.636 56.1745 117.526C55.5787 117.425 54.6944 116.369 54.177 116.469C53.7489 116.941 53.9399 117.737 54.4212 118.12C54.9684 118.554 55.6044 118.734 56.2957 118.677C56.5194 118.656 56.7426 118.632 56.9655 118.604C58.3198 118.152 59.0024 115.765 57.4613 115.029C56.6868 114.66 55.9726 114.421 55.2003 114.08C54.5574 113.276 55.7826 112.587 56.5131 112.999C56.7476 113.109 57.0206 113.43 57.1949 113.62L58.4149 113.529C58.1355 112.901 57.971 112.625 57.6062 112.046C56.8756 111.669 56.4882 111.546 55.6529 111.624Z" fill="white"/>
<path d="M47.1208 112.851C47.6061 112.725 48.1209 112.875 48.463 113.241C48.8051 113.608 48.9199 114.132 48.7622 114.607C48.6044 115.083 48.1995 115.434 47.7063 115.523C46.9814 115.655 46.2826 115.189 46.125 114.469C45.9673 113.749 46.4074 113.034 47.1208 112.851Z" fill="white"/>
<path d="M87.3148 114.878C87.7071 115.064 88.1448 116.24 87.9858 116.647L87.7768 116.676C87.3864 116.703 87.0749 116.806 86.8142 116.491C86.7769 116.232 87.1879 115.28 87.3148 114.878Z" fill="white"/>
</svg>
