<svg width="148" height="148" viewBox="0 0 148 148" fill="none" xmlns="http://www.w3.org/2000/svg">
<path d="M31.0615 100.415C32.1087 100.394 32.9779 100.199 33.6648 99.8428C34.3559 99.4867 34.8647 99.0499 35.1955 98.5411C35.5262 98.0281 35.6788 97.4854 35.6576 96.9003C35.6322 96.3151 35.4287 95.7767 35.0471 95.2763C34.6655 94.7803 34.1058 94.369 33.3765 94.051C32.6472 93.7287 31.7399 93.5761 30.6544 93.5888C30.1117 93.6015 29.6623 93.6143 29.3061 93.627C28.9499 93.6397 28.6489 93.6524 28.4115 93.6736C28.1698 93.6948 27.9747 93.7118 27.8391 93.7287C27.6949 93.7457 27.5762 93.7669 27.4787 93.7754L27.5889 100.309C27.8942 100.36 28.3479 100.398 28.9457 100.419C29.5393 100.445 30.2474 100.445 31.0572 100.419M26.7748 93.1267C27.0547 93.1139 27.3303 93.097 27.5974 93.08C27.8645 93.0631 28.1401 93.0503 28.4369 93.0334C28.7337 93.0207 29.0559 93.0122 29.4079 92.9995C29.7598 92.9867 30.1583 92.974 30.6163 92.9613C31.9349 92.9359 33.0203 93.1097 33.8853 93.4786C34.746 93.8475 35.3947 94.3223 35.823 94.9032C36.2512 95.4799 36.4759 96.1116 36.4887 96.7943C36.4971 97.4769 36.3106 98.1256 35.9247 98.7447C35.5347 99.3552 34.958 99.8852 34.1906 100.322C33.4189 100.759 32.4691 101.022 31.3371 101.106C30.5611 101.17 29.8361 101.174 29.1577 101.132C28.4835 101.089 27.9663 101.038 27.6059 100.979L27.7161 106.733C27.555 106.72 27.4151 106.712 27.2921 106.695C27.1776 106.695 27.0801 106.699 26.9953 106.707C26.9063 106.712 26.8639 106.729 26.8639 106.754C26.8639 106.767 26.8639 106.584 26.8511 106.203C26.8469 105.821 26.8427 105.312 26.8342 104.681C26.8257 104.045 26.8172 103.32 26.8045 102.501C26.7875 101.687 26.7791 100.848 26.7663 99.9955C26.7536 99.139 26.7451 98.2995 26.7409 97.4769C26.7324 96.6543 26.7324 95.9208 26.7324 95.2806C26.7324 94.6403 26.7324 94.1231 26.7409 93.7287C26.7409 93.3387 26.7536 93.1394 26.7663 93.1394" fill="white"/>
<path d="M44.8117 100.487C44.7863 100.118 44.7184 99.7326 44.6124 99.3255C44.5022 98.9227 44.3793 98.5878 44.2436 98.3291C43.9722 97.8246 43.6245 97.4133 43.2005 97.0995C42.7765 96.7858 42.3186 96.578 41.831 96.4805C41.3477 96.3787 40.8473 96.3872 40.347 96.4974C39.8425 96.6077 39.3761 96.8282 38.9436 97.1631C38.5111 97.4938 38.1465 97.9433 37.8369 98.503C37.5274 99.0626 37.3197 99.7368 37.2264 100.525H42.9928C43.527 100.525 43.968 100.525 44.3114 100.517C44.6549 100.508 44.8202 100.5 44.8075 100.487M45.1764 103.697C44.8457 104.426 44.392 105.011 43.8196 105.469C43.2472 105.923 42.6324 106.241 41.9667 106.419C41.301 106.597 40.6353 106.623 39.9612 106.504C39.2785 106.381 38.6765 106.101 38.1422 105.664C37.608 105.228 37.1755 104.63 36.849 103.867C36.5225 103.103 36.3869 102.166 36.4335 101.06C36.4717 100.042 36.6455 99.1644 36.9677 98.4394C37.29 97.7143 37.6885 97.1292 38.1677 96.6925C38.6468 96.2558 39.1853 95.959 39.7831 95.7978C40.3809 95.6367 40.9788 95.6028 41.5724 95.6961C42.166 95.7851 42.7384 96.0056 43.2896 96.349C43.8365 96.6925 44.3072 97.1504 44.7015 97.7186C44.8202 97.8882 44.9432 98.1044 45.0619 98.3715C45.1806 98.6344 45.2824 98.9227 45.3757 99.228C45.4647 99.5375 45.541 99.847 45.5919 100.161C45.6513 100.475 45.6767 100.771 45.6767 101.055L37.167 101.293C37.1543 102.132 37.2857 102.857 37.5613 103.472C37.8369 104.087 38.2016 104.587 38.651 104.965C39.1005 105.346 39.5965 105.601 40.1477 105.724C40.6947 105.847 41.2374 105.838 41.7801 105.698C42.3186 105.554 42.8232 105.27 43.2853 104.838C43.7475 104.409 44.1121 103.828 44.3835 103.103L45.1764 103.693V103.697Z" fill="white"/>
<path d="M53.0078 100.712C52.6262 100.725 52.2276 100.733 51.8121 100.742C51.4008 100.746 50.9853 100.763 50.5698 100.784C50.5698 101.339 50.591 101.908 50.6334 102.484C50.6758 103.065 50.7775 103.595 50.9386 104.079C51.0998 104.566 51.3372 104.973 51.6594 105.308C51.9817 105.639 52.4226 105.83 52.9908 105.881L52.7703 106.601C52.2615 106.576 51.8418 106.444 51.4983 106.203C51.1506 105.965 50.8708 105.656 50.6546 105.287C50.4426 104.918 50.2772 104.511 50.167 104.07C50.0567 103.629 49.9762 103.197 49.9253 102.781C49.8786 102.361 49.8574 101.975 49.8617 101.628C49.8659 101.276 49.8786 101.005 49.8914 100.809C49.4589 100.822 49.0476 100.826 48.6575 100.835C48.2717 100.839 47.9367 100.852 47.6526 100.865C47.3219 100.877 47.0082 100.886 46.7114 100.899C46.7114 100.763 46.7029 100.636 46.6944 100.513C46.6817 100.411 46.6732 100.326 46.669 100.246C46.6605 100.165 46.6647 100.123 46.6774 100.123H49.9253C49.9422 99.8767 49.9507 99.5375 49.955 99.1008C49.9592 98.6641 49.9677 98.1892 49.9846 97.6719C49.9931 97.1546 50.0101 96.6246 50.0186 96.0861C50.0313 95.5434 50.044 95.0516 50.0567 94.6064C50.0652 94.1654 50.0779 93.8008 50.0864 93.5167C50.0864 93.2369 50.0949 93.0885 50.0949 93.0757C50.1076 93.1012 50.1585 93.1097 50.2518 93.1097C50.345 93.1097 50.4426 93.1054 50.557 93.0885C50.6927 93.08 50.8369 93.0673 50.981 93.0503C50.9217 94.0255 50.8666 94.9498 50.8157 95.8402C50.7902 96.2218 50.7648 96.6119 50.7436 97.0105C50.7182 97.4133 50.697 97.7991 50.68 98.1722C50.6588 98.5496 50.6461 98.9015 50.6334 99.2449C50.6206 99.5799 50.6122 99.8725 50.5952 100.118H51.8672C52.287 100.118 52.6643 100.11 52.995 100.101L53.012 100.708L53.0078 100.712Z" fill="white"/>
<path d="M54.1696 104.439C54.1441 104.439 54.1441 104.452 54.1696 104.477V104.439ZM60.4787 97.7185C60.4787 97.744 60.4321 97.7736 60.343 97.8118C60.2497 97.85 60.148 97.8924 60.0377 97.939C59.9021 97.9899 59.7537 98.045 59.5925 98.1044C59.4314 97.6634 59.1982 97.303 58.8802 97.0359C58.5707 96.7645 58.2188 96.578 57.8457 96.472C57.4725 96.366 57.0909 96.3405 56.7009 96.3872C56.315 96.438 55.9546 96.5568 55.6324 96.7476C55.3059 96.9426 55.0388 97.197 54.8268 97.5235C54.619 97.85 54.5088 98.2358 54.4961 98.6768C54.4833 99.1304 54.6317 99.4993 54.937 99.7834C55.2465 100.067 55.6324 100.313 56.0945 100.525C56.5567 100.733 57.057 100.928 57.6082 101.115C58.1552 101.293 58.664 101.513 59.1304 101.772C59.5968 102.018 59.9869 102.336 60.3049 102.709C60.6186 103.086 60.7755 103.561 60.7755 104.138C60.7755 104.456 60.6907 104.765 60.5253 105.062C60.36 105.355 60.1353 105.618 59.8512 105.842C59.5713 106.071 59.2406 106.258 58.8675 106.398C58.4944 106.542 58.0873 106.618 57.6591 106.631C57.0316 106.656 56.4761 106.606 55.997 106.483C55.5179 106.36 55.1151 106.215 54.7971 106.059C54.4749 105.897 54.2247 105.749 54.0466 105.613C53.8685 105.478 53.7753 105.41 53.7583 105.41C53.7371 105.41 53.7413 105.363 53.7795 105.278C53.8177 105.198 53.8601 105.096 53.9194 104.994C53.9745 104.888 54.0254 104.782 54.0763 104.681C54.1229 104.579 54.1569 104.507 54.1696 104.469C54.195 104.532 54.2841 104.638 54.4367 104.799C54.5893 104.96 54.8098 105.126 55.0939 105.3C55.378 105.473 55.7214 105.622 56.1369 105.749C56.5482 105.876 57.0273 105.931 57.5658 105.906C57.8499 105.893 58.1297 105.834 58.4053 105.728C58.6809 105.622 58.9226 105.486 59.1346 105.312C59.3466 105.139 59.512 104.943 59.6392 104.731C59.7706 104.519 59.8257 104.286 59.8173 104.04C59.8045 103.582 59.6561 103.218 59.3636 102.934C59.0753 102.65 58.7149 102.412 58.2866 102.213C57.8541 102.018 57.392 101.84 56.8917 101.674C56.3913 101.518 55.9249 101.327 55.4882 101.106C55.0515 100.882 54.6826 100.61 54.3773 100.284C54.0763 99.9573 53.9067 99.5332 53.8728 99.0032C53.8092 98.2019 53.9279 97.5574 54.2205 97.0656C54.5173 96.5737 54.8989 96.2048 55.3653 95.9674C55.8359 95.73 56.3489 95.6028 56.9213 95.59C57.4937 95.5773 58.0365 95.6579 58.541 95.8275C59.0456 96.0013 59.4823 96.2515 59.8469 96.5737C60.2158 96.9002 60.4278 97.2776 60.4745 97.7058" fill="white"/>
<path d="M67.1652 102.501C67.0931 103.12 67.1567 103.646 67.3687 104.087C67.5764 104.532 67.8732 104.893 68.2548 105.168C68.6364 105.444 69.0732 105.639 69.5735 105.749C70.0738 105.859 70.5826 105.893 71.0956 105.851C71.6172 105.808 72.109 105.681 72.5839 105.461C73.0588 105.245 73.4658 104.956 73.8092 104.587C73.3428 104.18 72.8722 103.765 72.3973 103.349C71.9224 102.934 71.456 102.522 71.0024 102.124C70.5487 101.725 70.1162 101.344 69.7007 100.979C69.2894 100.615 68.9036 100.275 68.5474 99.9531C68.1531 100.224 67.8393 100.576 67.6061 101.013C67.3729 101.45 67.2245 101.946 67.1609 102.497M73.2114 96.2812C73.0545 95.9971 72.8213 95.7682 72.5203 95.5986C72.2192 95.429 71.8843 95.306 71.5239 95.2382C71.1592 95.1703 70.7904 95.1619 70.4088 95.2127C70.0272 95.2594 69.6752 95.3739 69.3445 95.535C69.018 95.7046 68.7382 95.9251 68.5008 96.2091C68.2676 96.4932 68.1234 96.8451 68.064 97.2607C68.0259 97.5575 68.0471 97.8373 68.1361 98.1002C68.2252 98.3631 68.3269 98.592 68.4499 98.7828C68.5728 98.9694 68.7467 99.1856 68.9672 99.4188L68.9841 99.4358L74.246 103.956C74.441 103.587 74.564 103.184 74.6148 102.76C74.6615 102.366 74.6445 102.009 74.5597 101.687C74.4749 101.369 74.3435 101.085 74.1739 100.839C73.928 100.852 73.699 100.86 73.487 100.869C73.2792 100.877 73.1012 100.877 72.957 100.877C72.7832 100.89 72.6305 100.894 72.4948 100.894C72.4821 100.759 72.4736 100.631 72.4736 100.509C72.4609 100.458 72.4567 100.407 72.4567 100.36V100.118H75.9547C76.561 100.118 77.1334 100.11 77.6634 100.101L77.6804 100.708L74.9498 100.801C75.2339 101.331 75.378 101.933 75.378 102.607C75.378 102.963 75.3314 103.303 75.2424 103.612C75.1491 103.926 75.0219 104.219 74.8608 104.49L80.3261 109.179L79.6816 109.752C79.1898 109.307 78.6598 108.84 78.0959 108.348C77.6168 107.916 77.0613 107.428 76.4253 106.881C75.7893 106.334 75.1236 105.745 74.4198 105.117C74.0255 105.55 73.5506 105.889 72.9909 106.143C72.4312 106.394 71.8504 106.555 71.2356 106.623C70.6292 106.69 70.0272 106.661 69.4378 106.529C68.8484 106.402 68.3227 106.169 67.8605 105.838C67.4026 105.503 67.0337 105.062 66.7666 104.507C66.4952 103.951 66.3765 103.29 66.4147 102.51C66.4528 101.772 66.614 101.14 66.898 100.61C67.1779 100.08 67.5383 99.6563 67.9665 99.334C67.7927 99.1135 67.64 98.8337 67.5044 98.4945C67.3687 98.1553 67.3136 97.7695 67.339 97.3412C67.3772 96.7476 67.5256 96.2515 67.7927 95.8445C68.0556 95.4375 68.382 95.1152 68.7721 94.8863C69.1622 94.6488 69.5947 94.4962 70.0738 94.4241C70.5529 94.352 71.0236 94.3563 71.4857 94.4453C71.9479 94.5301 72.3846 94.6912 72.7874 94.9244C73.1944 95.1619 73.5252 95.4587 73.7838 95.8275L73.2284 96.2727L73.2114 96.2812Z" fill="white"/>
<path d="M83.9936 92.9613L84.1251 100.123H88.0598C88.8527 100.123 89.6413 100.123 90.4088 100.114C91.1762 100.11 91.8207 100.106 92.338 100.106C92.338 99.1814 92.338 98.2909 92.3295 97.4302C92.321 96.5653 92.3168 95.8105 92.3168 95.1576C92.3168 94.5046 92.3168 93.9831 92.3295 93.5888C92.3337 93.1945 92.3422 92.9994 92.3549 92.9994L93.0418 92.9613L93.3004 109.701C93.1393 109.688 92.9994 109.675 92.8764 109.663C92.7662 109.663 92.6644 109.663 92.5796 109.671C92.4948 109.675 92.4482 109.697 92.4482 109.718C92.4482 109.73 92.4482 109.472 92.4397 108.95C92.4312 108.429 92.4228 107.742 92.4143 106.89C92.4016 106.042 92.3931 105.079 92.3888 104.002C92.3804 102.925 92.3719 101.831 92.3592 100.725C91.8546 100.737 91.244 100.75 90.5232 100.763C89.8024 100.776 89.0604 100.784 88.293 100.801C87.5213 100.814 86.7751 100.822 86.0373 100.835C85.3038 100.852 84.6763 100.86 84.1463 100.873L84.2565 106.669C84.0996 106.656 83.9555 106.644 83.8325 106.631C83.7223 106.631 83.6205 106.631 83.5357 106.64C83.4467 106.644 83.4043 106.661 83.4043 106.682C83.4043 106.699 83.4043 106.546 83.3958 106.232C83.3873 105.919 83.3788 105.495 83.3704 104.96C83.3576 104.426 83.3492 103.807 83.3407 103.095C83.3322 102.391 83.328 101.653 83.3152 100.89H82.8531C82.8276 100.754 82.8107 100.627 82.798 100.504C82.7852 100.407 82.781 100.318 82.781 100.237C82.781 100.157 82.7937 100.114 82.8149 100.114H83.3152C83.3025 99.2407 83.294 98.3757 83.2856 97.5235C83.2856 96.667 83.2771 95.9038 83.2771 95.2381C83.2771 94.5725 83.2813 94.0255 83.2856 93.6142C83.294 93.2029 83.3025 92.9952 83.3152 92.9952L83.9936 92.957V92.9613Z" fill="white"/>
<path d="M95.2 95.6919C95.2127 95.7555 95.2212 95.9336 95.2254 96.2346C95.2297 96.5356 95.2382 96.9215 95.2382 97.3921V98.9779C95.2382 99.5672 95.2382 100.182 95.2551 100.822C95.2806 101.857 95.4629 102.735 95.7978 103.451C96.137 104.172 96.5568 104.736 97.0656 105.139C97.5702 105.546 98.1214 105.787 98.7192 105.859C99.317 105.936 99.8852 105.83 100.428 105.554C100.971 105.279 101.446 104.821 101.857 104.189C102.268 103.553 102.535 102.735 102.662 101.725L102.531 95.5986C102.679 95.624 102.819 95.6368 102.959 95.6368C103.057 95.6495 103.15 95.6495 103.239 95.6368C103.332 95.624 103.379 95.6071 103.379 95.5816C103.379 95.5732 103.383 95.7216 103.392 96.0268C103.392 96.3364 103.404 96.7476 103.409 97.2734C103.417 97.7949 103.426 98.3928 103.438 99.0542C103.451 99.7199 103.46 100.398 103.464 101.094C103.468 101.789 103.481 102.472 103.489 103.146C103.502 103.816 103.506 104.414 103.506 104.944C103.506 105.474 103.506 105.898 103.498 106.216C103.493 106.538 103.485 106.699 103.468 106.699L102.785 106.733L102.709 104.04C102.387 104.804 101.959 105.397 101.424 105.821C100.89 106.245 100.318 106.508 99.7114 106.606C99.1008 106.703 98.4818 106.652 97.8542 106.449C97.2225 106.245 96.6628 105.91 96.1625 105.431C95.6664 104.961 95.2551 104.35 94.9371 103.604C94.6149 102.857 94.4538 102.001 94.4538 101.03L94.3774 95.6749L95.1915 95.6961L95.2 95.6919Z" fill="white"/>
<path d="M105.223 100.971C105.139 102.026 105.245 102.913 105.537 103.625C105.834 104.337 106.241 104.888 106.758 105.266C107.271 105.647 107.848 105.859 108.484 105.906C109.116 105.948 109.731 105.821 110.32 105.516C110.909 105.215 111.427 104.744 111.872 104.104C112.313 103.464 112.601 102.658 112.737 101.687V99.7326C112.614 98.944 112.359 98.2868 111.965 97.7695C111.567 97.248 111.104 96.8664 110.57 96.6332C110.032 96.4 109.472 96.3109 108.878 96.366C108.289 96.4212 107.734 96.6289 107.216 96.9851C106.699 97.3412 106.258 97.85 105.885 98.5072C105.516 99.1644 105.296 99.987 105.223 100.971ZM112.737 105.249V104.18C112.359 104.804 111.88 105.308 111.316 105.686C110.748 106.059 110.155 106.305 109.527 106.423C108.9 106.542 108.276 106.521 107.653 106.368C107.034 106.216 106.479 105.915 105.995 105.474C105.512 105.033 105.122 104.439 104.833 103.693C104.545 102.951 104.426 102.048 104.473 100.988C104.507 99.9319 104.689 99.033 105.016 98.3037C105.338 97.5744 105.753 96.9893 106.245 96.5611C106.733 96.1328 107.284 95.8445 107.895 95.7046C108.505 95.5604 109.107 95.552 109.701 95.6749C110.299 95.7979 110.867 96.0523 111.41 96.4296C111.948 96.8112 112.398 97.3158 112.754 97.9433C112.754 97.2649 112.758 96.7095 112.771 96.2685C112.783 95.8318 112.805 95.6156 112.826 95.6156L113.508 95.5774L113.581 105.232C113.542 106.067 113.369 106.809 113.046 107.466C112.911 107.746 112.737 108.022 112.521 108.285C112.304 108.552 112.037 108.789 111.723 108.997C111.41 109.205 111.041 109.374 110.604 109.493C110.172 109.616 109.675 109.68 109.112 109.68C108.387 109.68 107.797 109.582 107.348 109.374C106.898 109.171 106.555 108.95 106.305 108.713C106.059 108.471 105.889 108.251 105.796 108.047C105.703 107.844 105.66 107.729 105.66 107.704C105.66 107.683 105.69 107.657 105.753 107.632C105.813 107.606 105.889 107.581 105.974 107.56C106.071 107.521 106.182 107.492 106.305 107.466C106.453 107.759 106.665 108.018 106.932 108.242C107.165 108.437 107.475 108.611 107.857 108.76C108.238 108.908 108.726 108.967 109.315 108.942C110.002 108.921 110.57 108.793 111.015 108.565C111.452 108.336 111.804 108.051 112.058 107.704C112.309 107.356 112.487 106.975 112.584 106.551C112.682 106.127 112.733 105.69 112.733 105.249" fill="white"/>
<path d="M114.929 104.439C114.903 104.439 114.903 104.452 114.929 104.477V104.439ZM121.242 97.7185C121.242 97.744 121.196 97.7736 121.106 97.8118C121.013 97.85 120.911 97.8924 120.801 97.939C120.666 97.9899 120.517 98.045 120.36 98.1044C120.199 97.6634 119.966 97.303 119.648 97.0359C119.334 96.7645 118.991 96.578 118.613 96.472C118.236 96.366 117.854 96.3405 117.469 96.3872C117.083 96.438 116.722 96.5568 116.396 96.7476C116.074 96.9426 115.802 97.197 115.594 97.5235C115.382 97.85 115.276 98.2358 115.264 98.6768C115.255 99.1304 115.399 99.4993 115.709 99.7834C116.014 100.067 116.4 100.313 116.862 100.525C117.329 100.733 117.829 100.928 118.376 101.115C118.923 101.293 119.432 101.513 119.902 101.772C120.369 102.018 120.759 102.336 121.073 102.709C121.386 103.086 121.543 103.561 121.543 104.138C121.543 104.456 121.458 104.765 121.293 105.062C121.128 105.355 120.903 105.618 120.619 105.842C120.335 106.071 120.004 106.258 119.631 106.398C119.254 106.542 118.855 106.618 118.423 106.631C117.795 106.656 117.24 106.606 116.76 106.483C116.281 106.36 115.883 106.215 115.561 106.059C115.238 105.897 114.992 105.749 114.81 105.613C114.636 105.478 114.539 105.41 114.526 105.41C114.501 105.41 114.509 105.363 114.547 105.278C114.585 105.198 114.632 105.096 114.687 104.994C114.742 104.888 114.793 104.782 114.844 104.681C114.891 104.579 114.925 104.507 114.933 104.469C114.958 104.532 115.048 104.638 115.204 104.799C115.357 104.96 115.578 105.126 115.862 105.3C116.141 105.473 116.489 105.622 116.9 105.749C117.316 105.876 117.791 105.931 118.329 105.906C118.613 105.893 118.889 105.834 119.173 105.728C119.449 105.622 119.69 105.486 119.902 105.312C120.11 105.139 120.275 104.943 120.407 104.731C120.534 104.519 120.593 104.286 120.585 104.04C120.572 103.582 120.424 103.218 120.131 102.934C119.843 102.65 119.483 102.412 119.05 102.213C118.622 102.018 118.155 101.84 117.655 101.674C117.159 101.518 116.688 101.327 116.252 101.106C115.815 100.882 115.446 100.61 115.145 100.284C114.844 99.9573 114.679 99.5332 114.64 99.0032C114.577 98.2019 114.696 97.5574 114.992 97.0656C115.285 96.5737 115.667 96.2048 116.133 95.9674C116.599 95.73 117.121 95.6028 117.693 95.59C118.266 95.5773 118.804 95.6579 119.309 95.8275C119.813 96.0013 120.25 96.2515 120.619 96.5737C120.992 96.9002 121.196 97.2776 121.246 97.7058" fill="white"/>
<path d="M59.2744 83.6163C59.0582 84.1972 58.8292 84.7018 58.5918 85.1088C58.5918 85.2784 58.5918 85.4438 58.596 85.6049C58.8504 85.147 59.1303 84.511 59.4228 83.7605C59.372 83.7054 59.3253 83.6587 59.2744 83.6163Z" fill="white"/>
<path d="M58.592 85.1088C58.151 85.8635 57.6719 86.2917 57.1419 86.2536C56.6373 86.2196 55.802 86.0034 54.7675 85.6303V85.7575C54.7675 85.7575 54.4071 85.7575 54.1484 85.944C55.9844 86.6648 57.498 86.9489 58.168 86.2366C58.2994 86.1009 58.4393 85.8847 58.5962 85.6048C58.592 85.4437 58.5877 85.2784 58.5877 85.1088" fill="white"/>
<path d="M40.4193 34.7546C40.4193 34.7546 43.6883 34.1695 45.6345 35.7552C47.5806 37.341 48.8102 39.3889 49.0434 40.3726L49.2766 41.352C49.2766 41.352 49.6455 38.719 47.2117 35.4881C44.7822 32.2615 41.3775 30.5655 38.6469 31.282C35.9164 31.9943 35.3906 33.0586 35.3906 33.0586C35.3906 33.0586 38.0618 30.9852 40.644 31.511C43.2261 32.0367 46.9234 34.6104 48.0131 37.3537C49.1028 40.1012 47.3347 35.1107 43.6332 34.1652C39.9317 33.2197 40.4193 34.7503 40.4193 34.7503" fill="white"/>
<path d="M39.4568 35.9672C39.4568 35.9672 37.6676 36.1199 38.1933 39.4991C38.7233 42.8742 40.1861 45.9058 38.948 48.5643C37.7142 51.2312 37.358 50.6207 37.358 50.6207C37.358 50.6207 38.3332 50.5486 38.524 48.2293C38.7191 45.9058 38.3587 45.2443 38.3587 45.2443C38.3587 45.2443 38.4477 47.305 37.6294 48.9543C36.8111 50.5995 36.1624 50.5825 36.1624 50.5825C36.1624 50.5825 37.1545 50.1839 37.2436 47.5848C37.3368 44.9899 36.2853 48.6872 35.1702 49.5691C34.0551 50.4511 35.3949 49.4165 36.226 47.2795C37.0612 45.1426 34.6656 48.4667 33.5208 48.6491C32.3803 48.8187 32.7068 50.2391 33.5463 51.0277C34.3816 51.8206 31.0574 49.4759 32.8848 48.2971C34.7165 47.1184 35.3228 46.8174 35.6663 46.2874C36.0097 45.7574 34.5088 46.8386 33.4233 46.9107C32.3379 46.9785 31.0362 48.5558 32.1428 49.3529C33.2495 50.15 29.4886 47.9622 32.6728 46.6139C35.8613 45.2698 37.1672 42.1746 36.8577 40.1606C36.5524 38.1466 37.18 35.7849 39.4441 35.9757" fill="white"/>
<path d="M39.0454 50.2984C39.0454 50.2984 39.9952 52.554 42.3738 52.694C44.7482 52.8339 49.073 53.0968 50.0397 51.7781C51.0064 50.4552 50.2093 50.1076 49.8998 49.6581C49.5903 49.2129 49.9889 48.7423 49.9592 47.9833C49.9337 47.2244 50.9598 44.2818 50.1924 43.0607C49.4249 41.8396 48.3056 41.3689 47.89 40.8686C47.4745 40.364 50.0864 43.0056 50.2687 43.985C50.3535 44.4472 50.1288 45.3969 49.904 46.3764C49.6496 47.466 49.391 48.5854 49.5436 49.1069C49.832 50.0906 50.9768 51.4347 49.0052 52.0622C47.0336 52.6982 41.3096 53.7328 39.0496 50.2941" fill="white"/>
<path d="M35.6661 53.9661C35.6661 53.9661 38.9139 58.5792 39.728 60.0674C40.5421 61.5599 42.4671 62.1705 43.2684 63.9852C44.0655 65.7999 40.6608 62.5945 40.0291 62.1874C39.3931 61.7889 40.0248 63.8156 41.6869 64.2523C43.349 64.689 44.3242 66.19 44.5743 66.7412C44.8287 67.2924 45.3715 67.1482 43.65 66.8684C41.9286 66.5928 42.4247 67.8012 43.7857 67.6358C45.1467 67.4662 44.9135 67.8351 45.5835 68.8909C46.2491 69.9424 46.83 71.8589 47.1565 71.8716C47.4787 71.8843 46.5714 73.0969 43.2599 73.2496C39.9527 73.398 36.5904 74.9583 35.2167 75.6664C33.8387 76.3745 32.838 76.9935 33.9319 76.7052C35.0259 76.4169 39.7068 74.1527 42.8147 73.6142C45.9184 73.0757 47.5678 72.4313 47.6483 71.6765C47.7289 70.9218 47.2371 72.5797 45.5453 68.4033C43.8535 64.2269 43.0903 62.8997 41.0382 61.1486C38.9903 59.3975 36.7388 54.3307 35.6661 53.9703" fill="white"/>
<path d="M46.58 53.1688C46.4147 53.2155 45.5921 55.0302 44.6508 57.1078C43.7095 59.1854 41.9669 61.0213 41.4199 61.1612C40.8772 61.3011 43.4509 60.3683 44.8628 57.3325C46.2705 54.2967 46.58 53.1688 46.58 53.1688Z" fill="white"/>
<path d="M43.6839 59.9445C43.6839 59.9445 45.2994 61.7889 46.088 63.8198C46.8809 65.8508 47.1946 64.5661 47.165 65.431C47.1353 66.296 47.0208 66.4529 47.6526 66.9108C48.2843 67.3687 48.0002 67.8436 48.3182 68.0725C48.6362 68.2973 46.5714 68.4965 45.9608 68.8018C45.3545 69.1071 46.5332 67.9538 47.2922 67.9326C48.0511 67.9029 47.7246 68.0005 47.1141 66.8429C46.5035 65.6812 45.1722 62.0602 43.6797 59.9487" fill="white"/>
<path d="M33.4106 76.0861C33.4106 76.0861 30.8623 71.6087 30.061 71.3119C29.2554 71.0108 30.7351 72.1471 31.2354 73.3004C31.7358 74.4579 29.1239 71.7655 27.4067 69.8618C25.6853 67.958 26.457 70.6971 27.9961 71.562C29.531 72.4312 32.7449 74.9243 33.1943 76.0776C33.6395 77.2309 33.7625 76.7475 33.4106 76.0861Z" fill="white"/>
<path d="M47.6696 72.5414C47.6696 72.5414 53.0078 76.1454 53.9448 77.2054C54.8776 78.2696 55.8782 80.6313 55.556 80.6228C55.2295 80.6101 55.5602 78.8929 53.0332 76.9043C50.5062 74.92 47.076 72.4693 47.6696 72.5456" fill="white"/>
<path d="M48.2334 68.929C48.2334 68.929 53.0246 74.1908 53.5588 74.4282C54.0931 74.6657 51.2184 73.2622 48.2334 68.929Z" fill="white"/>
<path d="M37.3664 59.4441C37.3664 59.4441 32.6939 59.9275 31.3201 63.3958C29.9506 66.8641 29.9294 69.0307 29.3358 70.4215C28.7464 71.8079 30.0863 66.1136 30.8071 64.0827C31.5321 62.0517 33.0204 59.8299 37.3664 59.4441Z" fill="white"/>
<path d="M58.5113 57.9346C57.3708 56.6838 56.209 55.5009 55.2423 54.5384C54.3646 53.3385 53.0078 51.1846 53.0078 51.1846L52.6856 53.983C49.7303 53.0247 48.136 56.7771 46.8556 57.3326C45.5793 57.3326 45.8973 57.8117 46.8556 60.2879C46.8556 61.9627 48.9332 61.3266 51.3288 61.916C53.7244 62.5054 53.7244 63.082 53.0078 65.2359C51.1719 70.9854 54.7674 75.378 54.7674 75.378V75.5306C55.5518 73.4658 56.9934 69.3954 57.6633 65.7023C58.4562 61.3224 59.0116 60.3684 58.5113 57.9389" fill="white"/>
<path d="M58.5113 57.9346C57.3708 56.6838 56.209 55.5009 55.2423 54.5384C54.3646 53.3385 53.0078 51.1846 53.0078 51.1846L52.6856 53.983C49.7303 53.0247 48.136 56.7771 46.8556 57.3326C45.5793 57.3326 45.8973 57.8117 46.8556 60.2879C46.8556 61.9627 48.9332 61.3266 51.3288 61.916C53.7244 62.5054 53.7244 63.082 53.0078 65.2359C51.1719 70.9854 54.7674 75.378 54.7674 75.378V75.5306C55.5518 73.4658 56.9934 69.3954 57.6633 65.7023C58.4562 61.3224 59.0116 60.3684 58.5113 57.9389V57.9346Z" stroke="white" stroke-width="0.99" stroke-miterlimit="10"/>
<path d="M87.2671 85.359C86.7879 88.3948 75.7682 88.1531 73.1309 85.359C75.0389 73.4446 66.826 68.2421 63.2051 64.2607C62.8998 66.9404 62.7811 69.8872 62.4631 72.2616C62.0348 75.4501 60.6314 80.6314 59.423 83.7647C59.936 84.3159 60.5466 85.5031 60.9112 86.5631C58.1171 87.2034 59.635 88.2379 59.635 88.2379C59.635 88.2379 73.0503 88.7976 81.2759 88.9587C87.7462 89.0351 89.103 86.4063 88.6239 83.8495C88.9461 81.7762 87.5851 82.9719 87.2671 85.3675" fill="white"/>
<path d="M87.2671 85.359C86.7879 88.3948 75.7682 88.1531 73.1309 85.359C75.0389 73.4446 66.826 68.2421 63.2051 64.2607C62.8998 66.9404 62.7811 69.8872 62.4631 72.2616C62.0348 75.4501 60.6314 80.6314 59.423 83.7647C59.936 84.3159 60.5466 85.5031 60.9112 86.5631C58.1171 87.2034 59.635 88.2379 59.635 88.2379C59.635 88.2379 73.0503 88.7976 81.2759 88.9587C87.7462 89.0351 89.103 86.4063 88.6239 83.8495C88.9461 81.7762 87.5851 82.9719 87.2671 85.3675V85.359Z" stroke="white" stroke-width="0.99" stroke-miterlimit="10"/>
<path d="M66.7241 51.6722C66.7453 52.6474 68.5388 49.4674 69.2172 48.6236C69.8998 47.7799 70.4044 47.2032 70.3026 48.4964C70.2051 49.7938 66.317 55.5009 64.638 58.4731C64.3412 58.9946 64.1037 59.6264 63.9087 60.3302C63.9214 60.6694 63.9341 61.0214 63.9511 61.3987C71.5365 63.4806 75.132 58.5282 75.132 58.5282L74.814 56.7729C76.5057 52.0241 72.3378 48.3904 72.3378 48.3904C71.7018 46.6774 70.68 45.7065 69.5309 45.1892C69.3656 45.8761 68.8865 46.9276 68.1445 48.3692C66.9233 50.7606 66.7071 50.7012 66.7241 51.6764" fill="white"/>
<path d="M66.7241 51.6722C66.7453 52.6474 68.5388 49.4674 69.2172 48.6236C69.8998 47.7798 70.4044 47.2032 70.3026 48.4964C70.2051 49.7938 66.317 55.5009 64.638 58.4731C64.3412 58.9946 64.1037 59.6264 63.9087 60.3303C63.9214 60.6695 63.9341 61.0214 63.9511 61.3987C71.5365 63.4806 75.132 58.5283 75.132 58.5283L74.814 56.7729C76.5057 52.0241 72.3378 48.3904 72.3378 48.3904C71.7018 46.6774 70.68 45.7065 69.5309 45.1892C69.3656 45.8761 68.8865 46.9276 68.1445 48.3692C66.9233 50.7606 66.7071 50.7012 66.7241 51.6764V51.6722Z" stroke="white" stroke-width="0.23" stroke-miterlimit="10"/>
<path d="M63.2474 48.95C63.6374 48.314 64.4727 46.4484 65.2995 44.8457C64.867 44.9263 64.4685 45.0195 64.1123 45.1213C63.9851 45.4775 63.841 45.8675 63.6671 46.3127C62.6495 48.9288 62.4969 50.1669 63.2474 48.95Z" fill="white"/>
<path d="M63.2474 48.95C63.6374 48.314 64.4727 46.4484 65.2995 44.8457C64.867 44.9263 64.4685 45.0195 64.1123 45.1213C63.9851 45.4775 63.841 45.8675 63.6671 46.3127C62.6495 48.9288 62.4969 50.1669 63.2474 48.95Z" stroke="white" stroke-width="0.23" stroke-miterlimit="10"/>
<path d="M57.922 47.9452C58.4944 48.6194 58.5198 50.9472 58.7064 51.6552C58.9014 52.3676 59.6519 51.0404 60.9536 47.9452C61.2801 47.1736 61.6362 46.4273 61.9924 45.7404C60.8349 45.8549 58.1213 46.033 55.0006 45.6726C54.2078 45.7532 54.123 46.474 55.0006 47.428C55.3102 49.6412 56.226 50.9387 57.4217 51.7443C57.3581 50.2603 57.3666 49.0392 56.9426 48.0216C56.1497 46.0966 57.3496 47.2753 57.922 47.9452Z" fill="white"/>
<path d="M57.922 47.9452C58.4944 48.6194 58.5198 50.9472 58.7064 51.6552C58.9014 52.3676 59.6519 51.0404 60.9536 47.9452C61.2801 47.1736 61.6362 46.4273 61.9924 45.7404C60.8349 45.8549 58.1213 46.033 55.0006 45.6726C54.2078 45.7532 54.123 46.474 55.0006 47.428C55.3102 49.6412 56.226 50.9387 57.4217 51.7443C57.3581 50.2603 57.3666 49.0392 56.9426 48.0216C56.1497 46.0966 57.3496 47.2753 57.922 47.9452Z" stroke="white" stroke-width="0.23" stroke-miterlimit="10"/>
<path d="M63.0524 61.9372C63.01 62.4418 62.9591 63.0396 62.9082 63.6883C62.9972 63.8579 63.082 64.0318 63.1499 64.1929C63.1711 64.2141 63.188 64.2353 63.205 64.2522C63.3661 62.8276 63.5781 61.4793 63.9046 60.3302C63.8834 59.7748 63.8664 59.2702 63.8537 58.8038C63.4679 59.6222 63.1626 60.627 63.0481 61.933" fill="white"/>
<path d="M39.5924 75.6578C39.232 75.3101 39.02 75.0981 39.02 75.0981C39.02 75.0981 39.1939 75.2847 39.5924 75.6578Z" fill="white"/>
<path d="M54.7674 85.6303C52.2446 84.7272 48.4964 82.8743 45.1723 80.2964C42.0644 77.888 40.3853 76.3956 39.5967 75.6536C41.2418 77.2478 46.0754 81.81 49.1197 83.4721C50.82 84.3964 52.6008 85.325 54.1526 85.9398C54.4112 85.7575 54.7716 85.7532 54.7716 85.7532V85.6303H54.7674Z" fill="white"/>
<path d="M63.2049 64.2564C63.2049 64.2564 63.1667 64.2183 63.1498 64.1971C63.0819 64.0317 62.9971 63.8621 62.9123 63.6925C62.6452 67.0718 62.2467 72.1725 61.2291 76.4931C60.5931 79.2024 59.974 81.7888 59.2744 83.6163C59.3253 83.6587 59.3719 83.7053 59.4228 83.7604C60.6355 80.6271 62.0347 75.4458 62.4629 72.2573C62.7809 69.8787 62.8996 66.9361 63.2049 64.2564Z" fill="white"/>
<path d="M66.5462 52.1555C67.3645 51.9181 69.4506 48.1487 69.9254 48.4328C70.4046 48.7211 66.7115 54.9794 65.6939 56.1878C65.0961 56.8916 64.3965 57.6675 63.8538 58.8081C63.8665 59.2745 63.8834 59.779 63.9046 60.3387C64.1039 59.6349 64.3414 58.9989 64.6339 58.4774C66.313 55.5051 70.201 49.7981 70.2986 48.5006C70.4003 47.2074 69.8958 47.7841 69.2131 48.6278C68.5347 49.4716 66.7412 52.6516 66.72 51.6764C66.6988 50.7012 66.915 50.7606 68.1404 48.3692C68.8824 46.9276 69.3573 45.8761 69.5269 45.1892C69.4802 45.1722 69.4633 45.1129 69.4166 45.0917C69.3615 45.4648 69.1665 45.9778 68.8018 46.6054C67.5892 48.6745 65.7236 52.3972 66.5462 52.1555Z" fill="white"/>
<path d="M57.6421 51.8884C57.5658 51.8418 57.4895 51.7951 57.4216 51.7443C57.4768 53.0587 57.587 54.5766 58.1085 56.3489C58.2866 56.951 58.418 57.4725 58.5113 57.9347C58.6936 58.1339 58.876 58.3332 59.054 58.5325C58.8717 57.5276 57.7651 54.1653 57.6421 51.8884Z" fill="white"/>
<path d="M54.229 76.8916C54.3647 76.8408 54.5512 76.5779 54.7675 76.1708V75.5264C54.441 76.3786 54.229 76.8916 54.229 76.8916Z" fill="white"/>
<path d="M64.0148 44.1038C64.0487 44.3328 63.9427 44.7356 63.7731 45.2232C63.8833 45.1892 63.9936 45.1553 64.1123 45.1214C64.7271 43.4042 64.8034 42.7258 64.4557 42.4417C64.1886 42.2255 63.3872 43.2388 62.5011 44.7907C62.3357 45.0875 62.1619 45.4055 61.988 45.7362C62.1661 45.7235 62.3018 45.7023 62.3993 45.6938C63.8494 42.641 63.8833 43.1795 64.0105 44.1038" fill="white"/>
<path d="M65.7276 44.655C67.059 42.2636 67.1014 42.535 67.0632 43.6713C67.0548 43.9002 66.9784 44.2649 66.8724 44.6846C66.9657 44.6846 67.059 44.6846 67.148 44.6846C67.5 43.4593 67.6356 42.4078 67.165 42.2636C66.7834 42.1491 66.0414 43.383 65.2952 44.8415C65.4139 44.8203 65.5326 44.8034 65.6556 44.7864C65.681 44.744 65.7022 44.6974 65.7276 44.655Z" fill="white"/>
<path d="M59.0581 58.5453C59.0581 58.5453 59.0581 58.5368 59.0581 58.5325C58.8758 58.3333 58.6977 58.1297 58.5154 57.9347C59.0157 60.3642 58.4603 61.3182 57.6674 65.6981C56.9975 69.3912 55.5559 73.4616 54.7715 75.5265V76.1667C55.5983 74.5979 56.9 70.7098 57.8964 66.8429C59.1556 61.9627 59.2404 59.5841 59.0624 58.5453" fill="white"/>
<path d="M66.8725 44.6888C66.4527 46.3594 65.5114 48.9119 66.1729 47.377C66.5206 46.5672 66.8937 45.5792 67.1481 44.6888C67.0548 44.6888 66.9615 44.6888 66.8725 44.6888Z" fill="white"/>
<path d="M57.6292 51.5619C57.6038 49.2892 56.7516 47.3643 57.4936 47.8222C58.2356 48.2844 58.1592 51.9053 58.9055 52.1512C59.656 52.3929 60.9237 48.8144 62.3865 45.7276C62.3908 45.7149 62.395 45.7064 62.3992 45.6937C62.2975 45.7064 62.1618 45.7234 61.988 45.7361C61.6318 46.423 61.2756 47.1735 60.9492 47.9409C59.6475 51.0361 58.897 52.3675 58.702 51.6509C58.5154 50.9428 58.4857 48.6108 57.9176 47.9409C57.3452 47.271 56.1452 46.0923 56.9381 48.0172C57.3621 49.0391 57.3536 50.256 57.4172 51.74C57.4851 51.7866 57.5656 51.8375 57.6377 51.8841C57.6377 51.7781 57.625 51.6636 57.625 51.5619" fill="white"/>
<path d="M107.39 76.8959C104.197 68.5898 92.8595 64.4388 85.6727 62.9209C78.4859 61.403 75.5264 59.3296 75.5264 59.3296C71.3754 64.6762 64.0317 62.8446 64.0317 62.8446L63.9512 64.0402C71.6171 71.227 74.0932 75.1363 74.2501 80.8094C86.6267 77.8584 92.304 79.6901 92.304 79.6901L92.3804 80.8094C89.5862 81.3691 89.5862 82.9634 93.1817 83.523C90.1459 86.3978 98.5326 85.8381 102.043 85.3589C105.075 84.9604 104.278 84.477 107.793 81.6871C114.098 88.2337 120.648 86.5589 120.487 85.7575C112.499 85.1173 110.345 81.526 107.39 76.8959Z" fill="white"/>
<path d="M107.39 76.8959C104.197 68.5898 92.8595 64.4388 85.6727 62.9209C78.4859 61.403 75.5264 59.3296 75.5264 59.3296C71.3754 64.6762 64.0317 62.8446 64.0317 62.8446L63.9512 64.0402C71.6171 71.227 74.0932 75.1363 74.2501 80.8094C86.6267 77.8584 92.304 79.6901 92.304 79.6901L92.3804 80.8094C89.5862 81.3691 89.5862 82.9634 93.1817 83.523C90.1459 86.3978 98.5326 85.8381 102.043 85.3589C105.075 84.9604 104.278 84.477 107.793 81.6871C114.098 88.2337 120.648 86.5589 120.487 85.7575C112.499 85.1173 110.345 81.526 107.39 76.8959Z" stroke="white" stroke-width="0.23" stroke-miterlimit="10"/>
<path d="M118.609 81.7804C118.859 81.7804 119.042 81.8058 119.156 81.8525C119.368 81.9373 119.47 82.1069 119.47 82.3613C119.47 82.5394 119.402 82.6708 119.271 82.7598C119.198 82.8022 119.105 82.8362 118.978 82.8574C119.135 82.8786 119.249 82.9464 119.326 83.0524C119.398 83.1584 119.436 83.2644 119.436 83.3619V83.5103C119.436 83.5569 119.436 83.6078 119.436 83.6587C119.436 83.7138 119.444 83.7478 119.457 83.7647L119.47 83.7859H119.139C119.139 83.7859 119.135 83.7732 119.135 83.7647C119.131 83.7605 119.131 83.752 119.126 83.7435V83.6799L119.122 83.523C119.122 83.2898 119.059 83.1372 118.931 83.0609C118.859 83.0185 118.724 82.993 118.537 82.993H118.257V83.7859H117.905V81.7804H118.605H118.609ZM118.991 82.0984C118.902 82.0475 118.762 82.0221 118.562 82.0221H118.261V82.7471H118.584C118.732 82.7471 118.842 82.7344 118.919 82.7005C119.054 82.6454 119.126 82.5394 119.126 82.3867C119.126 82.2341 119.08 82.145 118.991 82.0942M119.94 84.0827C119.584 84.4389 119.156 84.6212 118.647 84.6212C118.138 84.6212 117.71 84.4431 117.358 84.0827C117.006 83.7266 116.833 83.2941 116.833 82.7853C116.833 82.2765 117.011 81.8525 117.367 81.4963C117.723 81.1401 118.151 80.9663 118.651 80.9663C119.152 80.9663 119.589 81.1444 119.945 81.4963C120.301 81.8525 120.479 82.2807 120.479 82.7853C120.479 83.2898 120.301 83.7223 119.945 84.0827M117.541 81.6744C117.235 81.9839 117.083 82.3528 117.083 82.7895C117.083 83.2262 117.235 83.5993 117.536 83.9089C117.842 84.2184 118.211 84.371 118.647 84.371C119.084 84.371 119.457 84.2184 119.762 83.9089C120.068 83.6036 120.22 83.2262 120.22 82.7895C120.22 82.3528 120.068 81.9839 119.762 81.6744C119.453 81.3649 119.084 81.2122 118.647 81.2122C118.211 81.2122 117.846 81.3649 117.541 81.6744Z" fill="white"/>
<path d="M67.9791 45.4733C69.3105 43.0819 69.6751 43.3321 69.5267 44.515C69.497 44.744 69.3699 45.2952 69.2639 45.7192H69.5395C69.8914 44.4896 69.9083 43.4253 69.4419 43.2812C69.0603 43.1625 68.2038 44.5447 67.4534 46.0033C67.5721 45.9821 67.606 45.9227 67.729 45.9057C67.7544 45.8633 67.8477 45.7022 67.8731 45.6598" fill="white"/>
<path d="M68.2421 44.5575C67.4153 46.1093 65.9821 48.5728 66.9192 47.1905C67.411 46.4612 67.9622 45.5581 68.3735 44.7313C68.2845 44.7101 68.4413 44.46 68.3523 44.443" fill="white"/>
<path d="M27.5593 112.889H26.8215V116.782H27.5593V112.889Z" fill="white"/>
<path d="M31.104 112.889H31.8121L33.4784 115.454V112.889H34.2204V116.782H33.5038L31.8418 114.233V116.782H31.104V112.889Z" fill="white"/>
<path d="M37.4343 112.889H39.584V113.623H38.8759V116.782H38.1254V113.623H37.4343V112.889Z" fill="white"/>
<path d="M42.8064 112.889H44.9349V113.619H43.5442V114.322H44.9349V115.03H43.5442V116.057H44.9349V116.782H42.8064V112.889Z" fill="white"/>
<path d="M49.1238 114.411H49.357C49.5902 114.411 49.7556 114.377 49.8446 114.318C49.9337 114.255 49.9761 114.153 49.9761 114.009C49.9761 113.924 49.9549 113.852 49.9082 113.788C49.8616 113.725 49.8065 113.678 49.7302 113.648C49.6538 113.623 49.5224 113.61 49.3231 113.61H49.1196V114.411H49.1238ZM48.3818 112.889H49.1662C49.5945 112.889 49.904 112.927 50.0821 113.004C50.2686 113.08 50.417 113.207 50.5273 113.385C50.6375 113.563 50.6926 113.775 50.6926 114.017C50.6926 114.276 50.6333 114.488 50.5103 114.657C50.3916 114.831 50.205 114.963 49.9591 115.047L50.8834 116.777H50.0736L49.2002 115.132H49.1323V116.777H48.3903V112.885L48.3818 112.889Z" fill="white"/>
<path d="M54.1907 112.889H54.8988L56.5693 115.454V112.889H57.3071V116.782H56.5948L54.9284 114.233V116.782H54.1907V112.889Z" fill="white"/>
<path d="M62.4757 113.924L61.9542 115.259H62.993L62.4757 113.924ZM62.0941 112.894H62.8446L64.3456 116.786H63.5739L63.2686 115.985H61.6829L61.3649 116.786H60.5974L62.0984 112.894H62.0941Z" fill="white"/>
<path d="M67.2415 112.889H69.3954V113.623H68.6873V116.782H67.9326V113.623H67.2415V112.889Z" fill="white"/>
<path d="M73.2961 112.889H72.5583V116.782H73.2961V112.889Z" fill="white"/>
<path d="M78.6682 113.521C78.3078 113.521 78.0068 113.644 77.7609 113.894C77.5149 114.144 77.392 114.462 77.392 114.852C77.392 115.281 77.5489 115.624 77.8584 115.87C78.1001 116.065 78.3757 116.163 78.6852 116.163C79.0371 116.163 79.3381 116.035 79.5841 115.785C79.8342 115.531 79.9529 115.217 79.9529 114.844C79.9529 114.471 79.83 114.161 79.5798 113.903C79.3297 113.644 79.0244 113.517 78.6682 113.517M78.6767 112.792C79.2321 112.792 79.7028 112.991 80.0971 113.39C80.4914 113.788 80.6907 114.276 80.6907 114.848C80.6907 115.421 80.4999 115.895 80.1056 116.29C79.7155 116.68 79.2406 116.879 78.6809 116.879C78.1213 116.879 77.6125 116.68 77.2266 116.277C76.8408 115.87 76.6458 115.391 76.6458 114.835C76.6458 114.462 76.7348 114.119 76.9129 113.809C77.0952 113.496 77.3411 113.25 77.6549 113.067C77.9686 112.885 78.3121 112.796 78.6725 112.796" fill="white"/>
<path d="M84.104 112.889H84.8163L86.4784 115.454V112.889H87.2204V116.782H86.5081L84.846 114.233V116.782H84.104V112.889Z" fill="white"/>
<path d="M92.3888 113.924L91.8673 115.259H92.9061L92.3888 113.924ZM92.0072 112.894H92.7619L94.2587 116.786H93.4912L93.1859 115.985H91.5959L91.2779 116.786H90.5105L92.0115 112.894H92.0072Z" fill="white"/>
<path d="M97.5405 112.889H98.2825V116.078H99.3595V116.782H97.5405V112.889Z" fill="white"/>
<path d="M108.904 113.419L108.357 113.907C108.166 113.636 107.967 113.504 107.767 113.504C107.67 113.504 107.593 113.53 107.53 113.58C107.466 113.631 107.437 113.695 107.437 113.758C107.437 113.822 107.458 113.886 107.5 113.945C107.56 114.021 107.742 114.187 108.043 114.445C108.327 114.683 108.497 114.831 108.556 114.895C108.709 115.043 108.815 115.192 108.878 115.327C108.938 115.467 108.971 115.616 108.971 115.781C108.971 116.103 108.861 116.362 108.641 116.574C108.42 116.782 108.132 116.883 107.776 116.883C107.496 116.883 107.259 116.816 107.051 116.68C106.847 116.544 106.669 116.332 106.521 116.04L107.144 115.662C107.331 116.006 107.547 116.18 107.793 116.18C107.92 116.18 108.022 116.146 108.111 116.069C108.196 115.997 108.242 115.912 108.242 115.811C108.242 115.722 108.208 115.637 108.14 115.548C108.077 115.459 107.933 115.323 107.708 115.141C107.288 114.797 107.013 114.53 106.885 114.339C106.758 114.149 106.703 113.962 106.703 113.775C106.703 113.504 106.805 113.275 107.013 113.08C107.216 112.889 107.471 112.792 107.772 112.792C107.967 112.792 108.153 112.838 108.327 112.927C108.501 113.016 108.692 113.182 108.895 113.419" fill="white"/>
<path d="M113.127 114.411H113.364C113.551 114.411 113.678 114.399 113.75 114.373C113.822 114.344 113.881 114.301 113.924 114.242C113.962 114.182 113.983 114.106 113.983 114.021C113.983 113.873 113.924 113.763 113.809 113.691C113.725 113.64 113.568 113.614 113.339 113.614H113.131V114.416L113.127 114.411ZM112.385 112.889H113.169C113.597 112.889 113.903 112.927 114.089 113.008C114.276 113.084 114.424 113.211 114.534 113.385C114.645 113.563 114.7 113.771 114.7 114.017C114.7 114.293 114.628 114.517 114.488 114.695C114.348 114.874 114.153 115.001 113.911 115.073C113.767 115.111 113.508 115.132 113.131 115.132V116.777H112.389V112.885L112.385 112.889Z" fill="white"/>
<path d="M119.703 113.924L119.181 115.259H120.224L119.703 113.924ZM119.326 112.894H120.08L121.577 116.786H120.81L120.504 115.985H118.919L118.601 116.786H117.829L119.33 112.894H119.326Z" fill="white"/>
</svg>
