<svg width="148" height="148" viewBox="0 0 148 148" fill="none" xmlns="http://www.w3.org/2000/svg">
<path d="M60.0055 63.5041C62.4348 63.3471 63.8369 63.8622 65.1491 66.0164C65.1754 65.3106 65.1706 64.5532 65.1842 63.8405C66.7654 63.7892 68.7551 63.7962 70.3333 63.845C70.4205 67.5396 70.3408 71.527 70.3421 75.2431L70.3457 80.7275C70.3475 84.0474 70.8642 88.4179 67.2564 90.1303C64.3627 91.5038 57.8495 91.5162 56.1789 88.2066C55.578 87.02 55.5229 86.4338 55.4664 85.1172C55.8722 85.0638 56.913 85.086 57.3625 85.086C58.4929 85.0782 59.6234 85.087 60.7535 85.1126C60.7514 85.1571 60.7499 85.2017 60.7491 85.2463C60.7366 85.9229 60.8438 86.7755 61.3247 87.2924C61.8914 87.9998 63.5931 88.0818 64.1528 87.3369C65.251 85.875 64.9501 82.6098 64.9381 80.818C64.7684 81.063 64.6037 81.3264 64.4313 81.5732C62.9618 83.6765 59.0137 83.6387 57.167 82.1136C55.124 80.4262 55.0866 76.2627 55.1225 73.7033C55.1771 69.8189 54.9489 64.0247 60.0055 63.5041ZM63.0794 79.704C63.5037 79.5894 64.0437 79.3919 64.24 78.9224C65.0378 77.0133 64.9625 74.9997 64.9512 72.8971C64.9433 71.4319 64.9937 68.1189 63.6416 67.1164C63.3536 66.9028 62.6106 66.9234 62.246 66.9619C61.8177 67.0319 61.4893 67.2041 61.2257 67.5658C60.2581 68.8932 60.2689 75.6476 60.5344 77.271C60.6489 77.9712 60.91 78.9271 61.5076 79.3622C61.9371 79.6749 62.564 79.7702 63.0794 79.704Z" fill="white"/>
<path d="M20.8151 63.5043C23.044 63.2788 25.0682 63.9319 26.0749 66.0886C26.4245 66.9361 26.872 68.3246 26.9203 69.2506C27.1101 72.8899 27.4352 77.0055 26.3965 80.5229C25.4717 83.6544 22.5042 84.3499 19.743 83.5609C18.8955 83.3186 17.7778 82.3535 17.3856 81.5368L17.3838 89.7411L17.3816 90.536C15.6565 90.5752 13.7488 90.5553 12.0234 90.5322C12.0729 88.3121 12.0032 85.9595 12.0219 83.7248C12.0773 77.1163 11.9383 70.4315 12.0357 63.831C13.7004 63.8115 15.3997 63.8202 17.0654 63.8284C17.0653 64.5568 17.0813 65.2851 17.1133 66.0128C18.1508 64.4033 18.8682 63.7098 20.8151 63.5043ZM18.4626 80.1343C19.0598 80.4176 19.4054 80.4333 20.0632 80.3532C20.6891 80.0962 20.9931 79.7487 21.2557 79.1196C21.9249 77.517 22.0186 69.8775 21.3499 68.2181C21.161 67.7493 20.9098 67.2829 20.427 67.0811C19.9938 66.9001 19.4884 66.9268 19.0315 66.9645C18.5444 67.0902 18.2411 67.3421 17.9854 67.7831C17.0781 69.3474 17.2713 76.8646 17.7558 78.7516C17.8809 79.239 18.1652 79.7325 18.4626 80.1343Z" fill="white"/>
<path d="M45.743 63.5078C47.7651 63.2722 50.6235 63.7538 52.1688 65.164C53.7658 66.6184 54.343 69.1747 54.3924 71.2836C54.5208 76.7664 54.8856 83.4749 47.6668 83.8249C45.3218 83.8861 43.0502 83.8968 41.1383 82.2598C39.6856 81.0158 38.899 78.2612 38.8335 76.3369C38.7209 73.0309 38.3788 68.2482 40.6341 65.5753C41.9204 64.0508 43.9036 63.6338 45.743 63.5078ZM45.545 80.1411C46.2018 80.2895 46.4993 80.3058 47.1713 80.2518C49.5854 79.6382 48.8624 74.6874 49.0229 72.73C49.1149 71.6076 48.9589 70.03 48.7722 68.9155C48.4039 67.2545 47.5647 66.9737 46.0642 67.0785C45.0757 67.2547 44.4728 68.2436 44.3584 69.2058C44.0181 72.0684 44.078 75.1161 44.3933 77.9796C44.4997 78.9051 44.8966 79.5804 45.545 80.1411Z" fill="white"/>
<path d="M94.511 63.5082C94.7761 63.4789 95.1133 63.483 95.3777 63.4832C98.5703 63.4848 102.277 64.0272 102.908 67.9015C103.244 69.9665 103.077 71.9325 103.105 74.0205C103.133 76.1851 103.073 78.3507 103.118 80.5151C103.145 81.4931 103.249 82.5318 103.316 83.5131L98.3303 83.5313C98.3196 82.8505 98.183 81.5503 98.0852 80.8641C96.5422 83.2841 95.0882 84.0635 92.2516 83.8185C90.7556 83.6893 89.8958 83.0761 88.9588 81.9249C88.2425 80.4208 87.8771 79.232 87.8984 77.548C87.9805 71.0016 92.9435 70.8994 97.7944 70.9441C97.8157 70.3601 97.8201 69.7443 97.8094 69.1672C97.7825 67.7658 97.4647 66.7418 95.9474 66.6632C93.8228 66.5531 93.7044 67.8716 93.663 69.6171C91.9013 69.6295 90.1396 69.6252 88.3785 69.6041C88.2913 65.4054 90.6836 63.7394 94.511 63.5082ZM94.3493 80.2625C98.1849 81.2735 97.817 76.4334 97.8151 74.0437C97.5174 74.0442 97.132 74.0343 96.8424 74.0583C94.1832 74.2365 93.1077 74.6774 93.2218 77.8627C93.2544 78.7876 93.5245 79.7611 94.3493 80.2625Z" fill="white"/>
<path d="M78.1196 63.5072C86.0991 63.0665 87.4308 67.408 87.0749 74.5467C83.8585 74.612 80.0875 74.6073 76.863 74.5618C76.8291 76.1078 76.8611 78.3799 77.8726 79.6589C78.5238 80.4817 79.9396 80.4613 80.6785 79.7401C81.5202 78.9185 81.4907 77.9021 81.539 76.7917C83.3183 76.7821 85.0969 76.7837 86.8762 76.7964L86.984 76.864C86.9921 76.8992 86.9984 76.9349 87.0022 76.9709C87.0203 77.1274 86.9652 77.4963 86.9501 77.6661C86.5396 81.3927 84.0459 83.5113 80.5425 83.7907C75.9831 84.1543 72.441 82.9336 71.7313 77.8307C71.6595 77.3136 71.519 76.7298 71.4998 76.1824C71.2999 70.4972 70.9003 64.0773 78.1196 63.5072ZM76.8592 71.471C77.83 71.4846 78.8014 71.4897 79.7722 71.4863C80.3551 71.4887 81.0965 71.4702 81.6662 71.5008C81.7145 69.2649 81.8173 66.6411 78.8315 66.9593C76.8592 67.256 76.8404 69.8967 76.8592 71.471Z" fill="white"/>
<path d="M105.822 63.7383C115.82 63.8768 125.975 63.6751 135.99 63.7471C136.007 64.007 136 64.3201 135.987 64.5812C135.906 66.1921 136.04 67.8481 135.971 69.4506C134.684 69.3158 132.457 69.3814 131.101 69.383C129.076 69.3795 126.786 69.4432 124.783 69.3693C124.505 69.1131 123.72 68.0599 123.453 67.7124L120.926 64.4124C119.725 65.837 118.286 68.1264 116.996 69.3986C114.386 69.3131 111.709 69.4314 109.092 69.3829C108.074 69.3641 106.831 69.3439 105.833 69.4291C105.84 67.5716 105.883 65.5842 105.822 63.7383Z" fill="white"/>
<path d="M37.7868 63.5046C38.0704 63.494 38.354 63.4802 38.6373 63.463C38.6567 65.1049 38.6528 66.747 38.6254 68.3887C35.1023 68.4448 33.8265 69.1669 33.8646 72.9906C33.873 73.837 33.8624 74.762 33.8626 75.6133C33.8726 78.2483 33.8695 80.8833 33.8534 83.5184C32.0654 83.5282 30.2773 83.5251 28.4894 83.509L28.4919 81.994C28.4907 75.9762 28.4326 69.859 28.5029 63.8493C29.9969 63.7908 32.0688 63.7857 33.5617 63.8504C33.5729 64.7176 33.5685 65.5849 33.5483 66.4519C34.6423 64.5204 35.5447 63.7256 37.7868 63.5046Z" fill="white"/>
<path d="M106.067 70.9284C109.316 70.9173 112.566 70.9231 115.815 70.9462C114.955 72.1496 113.992 73.3384 113.082 74.5038C112.826 74.9227 111.905 76.0087 111.504 76.5891C110.822 76.6524 109.911 76.6237 109.203 76.6213C108.078 76.6154 106.953 76.6199 105.827 76.6348C105.848 75.2584 105.799 72.4721 105.864 70.9918C105.865 70.9684 106.021 70.9394 106.067 70.9284Z" fill="white"/>
<path d="M126.99 70.9284L132.667 70.9235C133.123 70.9239 135.736 70.8559 135.955 71.0506C136.029 71.4642 135.973 72.5317 135.969 73.0291C135.956 74.2274 135.964 75.4258 135.991 76.6239L135.383 76.6248C134.631 76.6117 130.73 76.7999 130.34 76.4556C130.333 76.4487 130.325 76.4417 130.317 76.4349C129.59 75.7937 128.97 74.7869 128.375 74.0069C127.593 72.9824 126.783 71.9817 126.003 70.9554L126.99 70.9284Z" fill="white"/>
<path d="M105.822 78.0493C107.196 78.0795 108.836 78.0777 110.203 78.0397C109.862 78.6825 108.334 80.5874 107.828 81.2092C107.216 81.8455 106.68 82.8572 105.812 83.6784C105.892 82.0333 105.877 79.7022 105.822 78.0493Z" fill="white"/>
<path d="M131.624 78.0708C132.523 77.9914 135.023 78.0465 135.99 78.0624C136.019 78.5298 135.973 79.3126 135.97 79.8222L135.955 83.5519C135.696 83.4622 131.872 78.5205 131.624 78.0708Z" fill="white"/>
<path d="M107.628 57.0979C108.295 57.0461 108.509 57.1158 109.063 57.4751C109.221 58.1326 109.341 59.8287 109.002 60.4507C108.827 60.7723 108.662 60.8076 108.346 60.913C107.799 60.9366 107.625 60.8953 107.101 60.7276C106.676 59.7885 106.37 57.5112 107.628 57.0979ZM108.17 60.4929C108.442 60.3001 108.562 60.1461 108.594 59.8012C108.662 59.0442 108.921 57.5046 107.835 57.4519C107.549 57.6716 107.408 57.8509 107.386 58.2323C107.344 58.9698 107.075 60.4838 108.17 60.4929Z" fill="white"/>
<path d="M91.2764 57.1028C92.6396 56.9906 92.894 57.6856 92.8733 58.9361C92.8614 59.6699 92.874 60.637 92.0567 60.8926C90.6767 61.0195 90.4498 60.5201 90.4523 59.1937C90.4536 58.3332 90.3514 57.4344 91.2764 57.1028ZM91.7678 60.483C92.3268 60.1349 92.2836 59.6069 92.3024 58.9673C92.3212 58.3469 92.2911 57.4232 91.4688 57.4609C91.284 57.6028 91.1429 57.7247 91.0922 57.973C90.97 58.5689 90.7124 60.6006 91.7678 60.483Z" fill="white"/>
<path d="M69.9763 57.0926C71.4006 57.0144 71.5083 57.8377 71.4703 59.0656C71.4476 59.7974 71.477 60.7432 70.6257 60.9137C69.7628 60.9415 69.1918 60.9119 69.1575 59.8742C69.1329 59.1259 69.0511 58.2704 69.2374 57.544C69.2891 57.3426 69.8017 57.1571 69.9763 57.0926ZM70.5492 60.4338C71.1428 59.8304 71.3349 57.4659 70.0554 57.4515C69.8539 57.667 69.7379 57.8788 69.7295 58.1771C69.7108 58.8394 69.3784 60.7638 70.5492 60.4338Z" fill="white"/>
<path d="M20.4144 57.1015C20.797 57.1095 21.8674 57.0859 22.1445 57.2955C23.0112 57.9513 22.7374 59.8511 22.264 60.6571C21.8482 60.8874 20.8516 60.8432 20.3552 60.8482C20.3694 60.3715 20.3261 57.3394 20.4144 57.1015ZM20.9136 60.3974C21.2312 60.3522 21.5893 60.3132 21.8897 60.2086C22.3331 59.8228 22.5858 57.6921 21.2393 57.6043C21.1296 57.5974 21.0198 57.5921 20.9098 57.5882C20.9342 58.108 20.9634 59.9146 20.9136 60.3974Z" fill="white"/>
<path d="M75.3877 60.3029C75.4604 59.7778 75.978 57.7333 76.2764 57.197C76.3635 57.041 76.9545 57.0888 77.1688 57.0976C77.1463 58.1001 77.1507 59.088 77.1638 60.0904C77.1688 60.4509 77.1644 60.91 76.747 60.8949C76.5697 60.6783 76.6092 58.8162 76.6073 58.4125C76.6104 58.2502 76.611 58.2235 76.5647 58.0671C76.1491 58.5585 76.0927 60.3254 75.5262 60.8007C75.4315 60.8151 75.3469 60.8461 75.2717 60.7805C74.7378 60.3154 74.3774 58.2698 74.222 57.5792C74.0697 58.6651 74.2119 59.5625 74.0716 60.6103C74.0515 60.7615 73.9876 60.8083 73.8798 60.8661L73.7619 60.7938C73.6159 60.5544 73.698 59.7706 73.698 59.4442C73.6986 58.6682 73.641 57.865 73.6786 57.0933C73.9575 57.0813 74.2696 57.0388 74.4965 57.199C74.7973 57.669 75.2861 59.7006 75.3877 60.3029Z" fill="white"/>
<path d="M120.821 58.5975C120.783 59.0158 120.488 60.484 120.195 60.8126C120.105 60.9133 120.063 60.8876 119.938 60.8886C119.406 60.6272 119.337 59.3719 119.18 58.7988C119.104 58.5209 118.827 57.3477 118.877 57.1549L119.007 57.0809C119.277 57.1052 119.237 57.038 119.377 57.2557C119.559 57.5415 119.953 60.0022 120.013 60.0675C120.338 59.3902 120.295 57.211 121.102 57C121.15 57.0131 121.195 57.0315 121.235 57.0627C121.606 57.3581 121.839 59.6876 121.935 60.2858C122.068 59.7311 122.526 57.0977 123.078 57.0566L123.208 57.1936C123.216 57.4819 122.456 60.4433 122.34 60.8613C122.116 60.8722 121.866 60.897 121.64 60.9146C121.544 60.3056 121.381 59.1906 121.199 58.6314C121.111 58.269 121.072 58.0439 121.025 57.6733C120.96 57.962 120.871 58.311 120.821 58.5975Z" fill="white"/>
<path d="M129.503 57.199C130.431 57.1775 131.943 56.9516 131.72 58.2287C131.633 58.7226 131.464 58.5719 131.263 58.8703L131.571 59.2941C131.6 59.7389 131.89 60.6686 131.537 60.9312C131.07 60.9456 131.071 60.5259 131.057 60.2036L130.993 59.2407C130.689 59.2203 130.31 59.2238 130 59.2178C130.024 59.6045 130.136 60.5615 129.949 60.8658C129.789 60.9181 129.767 60.9263 129.608 60.87C129.432 60.61 129.509 57.7424 129.503 57.199ZM131 58.6713C131.55 57.6472 130.736 57.5802 130.018 57.6164C130.026 57.9595 130.048 58.3718 130.041 58.709C130.285 58.7062 130.782 58.7135 131 58.6713Z" fill="white"/>
<path d="M95.0481 57.0769C95.1935 57.0758 95.5062 57.0722 95.6128 57.1409C96.2119 57.5287 96.9402 59.611 97.1815 60.2727C97.1407 59.7103 97.0348 57.6525 97.1432 57.1852L97.2573 57.1184C97.4403 57.1219 97.5086 57.093 97.6471 57.1796C97.7023 57.423 97.6722 60.4819 97.6634 60.925C97.4478 60.9148 97.1144 60.8304 96.8944 60.7825C96.5403 60.1345 95.8609 58.4611 95.6021 57.7525C95.6077 58.2636 95.7331 60.6161 95.4266 60.8943C95.2004 60.8853 95.2562 60.9221 95.1126 60.7881C94.9835 60.1314 95.0443 57.8775 95.0481 57.0769Z" fill="white"/>
<path d="M37.7677 57.2041C38.4886 57.1832 39.6585 56.9792 39.9749 57.7114C40.1999 58.2323 39.577 58.8437 39.5761 58.841C39.7205 59.2883 40.3386 60.4511 39.8486 60.8596C39.6506 60.8903 39.6242 60.8932 39.4415 60.8122C39.3514 60.6982 39.3558 60.3368 39.3461 60.1706C39.2815 59.8597 39.4165 59.5866 39.1376 59.2803C38.9248 59.1759 38.5503 59.2035 38.2988 59.204C38.3122 59.6631 38.374 60.4686 38.2182 60.8747L38.0777 60.9252L37.9726 60.8624C37.6631 60.3738 37.8699 58.0696 37.7677 57.2041ZM38.3003 58.7133C38.5952 58.7027 39.0174 58.6993 39.2993 58.6611C39.6792 57.6883 39.0583 57.5846 38.3142 57.6118L38.3003 58.7133Z" fill="white"/>
<path d="M125.857 57.0877C125.995 57.0808 126.378 57.07 126.432 57.2171C126.655 57.8252 127.641 60.3038 127.581 60.8273C127.435 60.9509 127.489 60.9155 127.297 60.9537C126.825 60.7763 127.069 60.0648 126.573 59.9771C126.198 59.9911 125.809 59.9912 125.432 59.9965C125.357 60.3669 125.271 60.7569 124.897 60.8855L124.802 60.8248C124.633 60.3879 125.6 57.482 125.857 57.0877ZM126.012 59.5231L126.502 59.5046L126.537 59.4552C126.475 59.2068 126.189 57.9396 126.065 57.8277C125.884 58.1597 125.64 59.0892 125.588 59.4738C125.713 59.5504 125.862 59.5274 126.012 59.5231Z" fill="white"/>
<path d="M56.8566 57.0946C57.065 57.0807 57.1366 57.0871 57.3448 57.1148C57.5915 57.2747 58.5185 60.4185 58.6278 60.9073C58.3957 60.8967 58.1898 60.8507 57.9625 60.8068C57.8675 60.3499 57.9249 60.0101 57.4433 59.9769C57.0473 59.9959 56.8269 60.005 56.4353 59.9637C56.3675 60.2578 56.3102 60.6873 56.0923 60.8727C55.9268 60.9055 55.8918 60.8839 55.7356 60.825L55.6872 60.7027C55.7387 60.3419 56.6792 57.3016 56.8566 57.0946ZM57.3138 59.5186L57.5387 59.4976C57.6564 59.2663 57.2122 57.9262 57.0804 57.8325C56.9341 58.3782 56.7767 58.9207 56.6083 59.4597C56.7468 59.5403 57.1337 59.5174 57.3138 59.5186Z" fill="white"/>
<path d="M80.3438 57.0733C80.4065 57.0788 80.6553 57.0928 80.6772 57.1148C81.2231 57.6593 81.8918 60.2171 82.093 60.9302C81.8643 60.8982 81.6111 60.8438 81.3817 60.8C81.3077 60.3692 81.3892 60.0478 80.9436 59.9734C80.5544 59.9938 80.2818 60.0056 79.8945 59.9813C79.803 60.2413 79.7002 60.6067 79.5241 60.801C79.3774 60.8708 79.353 60.8654 79.1963 60.8445L79.1556 60.742C79.1975 60.1882 79.9891 57.425 80.3438 57.0733ZM80.6967 59.514L80.896 59.5066C81.0063 59.2535 80.6465 58.0261 80.4961 57.8205C80.3263 58.2306 80.0737 59.0355 80.0549 59.4788C80.2172 59.5412 80.5124 59.5174 80.6967 59.514Z" fill="white"/>
<path d="M45.8972 57.0976C45.9896 57.0889 46.3867 57.0693 46.42 57.1267C46.6694 57.5566 47.6932 60.5096 47.5282 60.8343C46.6169 61.1747 47.2642 60.0902 46.6027 59.9784C46.2371 59.9882 45.8527 59.9789 45.4857 59.9758C45.4173 60.2536 45.3653 60.6581 45.16 60.8185C44.9598 60.8677 44.8254 60.879 44.7354 60.6721C44.7833 60.3523 45.7339 57.3036 45.8972 57.0976ZM45.6196 59.5403C45.8781 59.5273 46.1576 59.5073 46.4147 59.5093L46.613 59.5026C46.709 59.2569 46.2666 57.9538 46.1111 57.832C45.9893 58.4671 45.8261 58.9268 45.6196 59.5403Z" fill="white"/>
<path d="M15.5612 57.0549C16.4969 57.1031 16.5517 57.7204 16.9006 58.5182C17.1596 59.1109 17.3958 59.718 17.6517 60.3137C17.6344 59.6741 17.4271 57.39 17.8598 57.0826L17.9914 57.1132C18.138 57.448 18.073 60.4114 18.0414 60.9231C17.8406 60.9132 17.5206 60.8395 17.3141 60.7989C16.8405 59.6416 16.4895 58.8274 15.923 57.7186C15.9983 58.5819 16.0083 59.4972 16.0068 60.3665C16.0065 60.5465 15.9516 60.7654 15.811 60.8774C15.7423 60.9321 15.7621 60.9136 15.647 60.9049C15.4904 60.6577 15.5579 57.5829 15.5612 57.0549Z" fill="white"/>
<path d="M60.4782 57.0688C61.3057 57.0857 61.0549 57.1428 61.0819 57.9249C61.106 58.6265 60.9005 59.6955 61.2481 60.3223C61.7064 60.7521 62.1736 60.3702 62.3051 59.8376C62.4702 59.1688 62.046 57.4506 62.5491 57.0855C62.7543 57.0856 62.7364 57.0544 62.8886 57.1487L62.8912 57.3254C62.8976 59.0135 63.4096 61.562 60.8519 60.7519C60.3005 59.948 60.4735 58.1081 60.4782 57.0688Z" fill="white"/>
<path d="M30.4677 57.1009C31.0403 57.0626 31.8193 57.5067 31.5959 58.1278C30.9764 58.5819 31.0961 57.44 30.4809 57.5233C30.0901 57.5762 29.8867 58.0724 30.0762 58.3405C30.4595 58.8829 31.5941 58.9275 31.6654 59.7518C31.6644 60.6287 31.2745 60.9179 30.5013 60.9699C29.872 60.9359 29.17 60.6518 29.3232 59.858C29.4917 59.7234 29.4245 59.7608 29.6526 59.7285C30.0023 59.8527 30.005 60.4658 30.482 60.4852C30.6397 60.492 30.7933 60.433 30.9072 60.3216C31.0569 60.174 31.0878 60.0488 31.0921 59.8477C30.9125 59.163 29.5738 59.1594 29.4752 58.2788C29.3817 57.4441 29.7083 57.2248 30.4677 57.1009Z" fill="white"/>
<path d="M103.496 57.0981C104.075 57.0724 104.847 57.4216 104.655 58.1034C104.464 58.2494 104.545 58.2244 104.319 58.2413C103.937 58.0462 104.104 57.5831 103.515 57.5233C103.279 57.6097 103.23 57.6297 103.053 57.809C102.847 58.5785 104.624 58.8859 104.658 59.8555C104.692 60.7852 104.388 60.8645 103.58 60.9708C103.001 60.9339 102.219 60.7063 102.438 59.9231C102.608 59.7491 102.527 59.7934 102.774 59.7582C103.083 59.8898 103.038 60.165 103.301 60.3961C103.585 60.645 103.957 60.3836 104.121 60.1213C104.216 59.3131 102.623 59.0865 102.509 58.2138C102.401 57.3854 102.84 57.2291 103.496 57.0981Z" fill="white"/>
<path d="M24.9335 57.0617C25.0127 57.0648 25.1085 57.0683 25.1832 57.0795C25.2106 57.0837 25.3542 57.1114 25.3544 57.1129C25.5139 58.0639 25.1639 59.4373 25.6265 60.2958C25.7124 60.415 25.8736 60.5022 26.0137 60.4954C26.7377 60.4601 26.7345 59.6555 26.7233 59.1177C26.7116 58.5611 26.6764 58.0759 26.6676 57.5282C26.6643 57.3258 26.6765 57.2126 26.8128 57.0812C27.0663 57.0612 27.1684 57.0797 27.2456 57.3255C27.2246 57.9218 27.4168 60.3478 26.9387 60.6243C24.3753 62.1071 24.967 58.4533 24.9335 57.0617Z" fill="white"/>
<path d="M133.809 57.075C134.283 57.1294 135.569 57.0551 135.768 57.2327C135.759 57.4446 135.79 57.3754 135.664 57.532C135.351 57.6742 134.715 57.6091 134.339 57.5974C134.356 57.9911 134.346 58.329 134.333 58.7206C134.729 58.704 135.439 58.6278 135.714 58.8809L135.697 59.0562C135.392 59.3777 134.927 59.1519 134.391 59.2208L134.341 59.324C134.356 59.7071 134.373 59.9779 134.329 60.3577C134.677 60.3503 135.52 60.2818 135.774 60.4622C135.761 60.6923 135.797 60.6377 135.671 60.7915C135.451 60.8354 134.193 60.8473 133.823 60.8696C133.793 59.6421 133.819 58.3179 133.809 57.075Z" fill="white"/>
<path d="M111.423 57.0959C111.748 57.1203 113.085 57.0721 113.215 57.2009C113.221 57.3804 113.254 57.434 113.177 57.5609C112.891 57.6383 112.229 57.6064 111.905 57.6027C111.928 58.0405 111.933 58.2778 111.899 58.7129C112.311 58.7002 112.93 58.6162 113.23 58.8789C113.254 59.0863 113.268 59.0066 113.14 59.2047L113.003 59.2172L111.902 59.2049C111.933 59.6694 112.109 60.5816 111.712 60.8564C111.494 60.8416 111.57 60.8739 111.406 60.7352C111.329 60.3911 111.349 57.362 111.423 57.0959Z" fill="white"/>
<path d="M67.0369 57.1271C67.1737 57.1476 67.1215 57.1229 67.2321 57.2517C67.2104 57.3748 67.2127 57.3986 67.1495 57.5028C66.8894 57.6622 66.5868 57.6146 66.2815 57.6006C66.29 58.6097 66.3422 59.7227 66.2549 60.7287C66.2412 60.8856 66.1616 60.9201 66.0352 60.9649L65.8883 60.8814C65.7227 60.6806 65.7518 60.5176 65.7565 60.2571C65.7587 59.3749 65.7562 58.4927 65.7492 57.6106C65.4197 57.6147 64.8452 57.7042 64.6966 57.3474C64.9612 57.0315 66.5677 57.1224 67.0369 57.1271Z" fill="white"/>
<path d="M83.2318 57.1499C83.866 57.1325 84.9628 57.0675 85.562 57.1753C85.7017 57.3087 85.6654 57.2418 85.7061 57.4257L85.6165 57.5207C85.3388 57.6294 85.0411 57.6033 84.7416 57.6018C84.7046 58.3294 84.7253 59.1984 84.7259 59.9364C84.7309 60.2276 84.7817 60.6647 84.6106 60.8703C84.4765 60.89 84.4194 60.9099 84.2978 60.8418C84.1111 60.4714 84.1838 58.2377 84.1775 57.6289C83.9143 57.6315 83.5978 57.6601 83.3603 57.5616C83.2086 57.3874 83.255 57.4346 83.2318 57.1499Z" fill="white"/>
<path d="M117.183 57.1251L117.227 57.1162L117.292 57.2048C117.317 57.4369 117.338 57.3583 117.232 57.5412C116.959 57.6693 116.586 57.6208 116.279 57.6052C116.281 58.1042 116.367 60.5466 116.196 60.8413C116.001 60.8873 116.066 60.9008 115.897 60.8259C115.776 60.631 115.813 60.3471 115.818 60.1072C115.821 59.2898 115.807 58.4725 115.777 57.6557C115.491 57.6459 115.022 57.673 114.804 57.5197C114.779 57.3506 114.771 57.4141 114.879 57.2513C115.303 57.0289 116.613 57.1276 117.183 57.1251Z" fill="white"/>
<path d="M49.5761 57.0677C49.7602 57.0746 50 57.0663 50.1114 57.1881C50.1764 57.5765 50.1559 59.9479 50.1177 60.3609C50.4992 60.3655 51.0091 60.2706 51.3431 60.3878C51.5237 60.5447 51.4697 60.489 51.5091 60.7947C51.2558 60.8337 49.9416 60.8535 49.5877 60.8728L49.5761 57.0677Z" fill="white"/>
<path d="M33.3754 57.1468C33.747 57.1388 35.7452 57.0039 35.9318 57.2618C35.9221 57.4602 35.9544 57.438 35.8509 57.5617C35.6026 57.6495 35.166 57.6092 34.8879 57.5995C34.8599 58.2908 34.883 59.1288 34.8842 59.8311C34.8916 60.1556 34.9152 60.5186 34.8407 60.831C34.6804 60.9155 34.7479 60.9075 34.5856 60.8741C34.3585 60.4803 34.4337 58.2305 34.4315 57.6023C34.1123 57.6061 33.7662 57.6868 33.4817 57.5684C33.3416 57.3877 33.3852 57.423 33.3754 57.1468Z" fill="white"/>
<path d="M42.1324 57.0908C42.3383 57.0812 42.5506 57.052 42.6999 57.1744C42.7722 57.6042 42.7469 60.4044 42.706 60.8919C42.5413 60.8935 42.2977 60.8715 42.1266 60.8618C42.1372 59.6048 42.1391 58.3477 42.1324 57.0908Z" fill="white"/>
<path d="M87.6151 57.0816C87.7987 57.0809 88.0187 57.0523 88.1553 57.1655C88.213 57.4977 88.1723 58.2214 88.1691 58.5865C88.1654 59.339 88.1698 60.0916 88.1835 60.844C87.9661 60.8935 87.8232 60.9369 87.6521 60.7837C87.5806 60.3396 87.617 57.6787 87.6151 57.0816Z" fill="white"/>
<path d="M12.6585 57.0692C12.8699 57.0756 13.0506 57.0611 13.1772 57.1964C13.2398 57.5956 13.2234 60.2958 13.1997 60.814C13.011 60.8858 12.9648 60.9111 12.7712 60.8709C12.5785 60.6428 12.6586 57.5488 12.6585 57.0692Z" fill="white"/>
<path d="M121.025 57.6733C121.072 58.0439 121.111 58.269 121.199 58.6314C120.996 58.6799 121.043 58.6605 120.821 58.5975C120.871 58.311 120.96 57.962 121.025 57.6733Z" fill="white"/>
</svg>
