<svg width="148" height="148" viewBox="0 0 148 148" fill="none" xmlns="http://www.w3.org/2000/svg">
<path d="M39.3743 62.0249L51.0881 62.0264C52.916 62.0262 54.9128 61.9881 56.7207 62.0407L56.7257 67.0877C53.1895 67.128 49.5683 67.086 46.0256 67.0886C45.9726 68.5021 46.0306 69.873 46.0156 71.2713C47.2507 71.35 48.4994 71.3133 49.7372 71.3215C52.048 71.3369 54.3808 71.2906 56.6893 71.3325C56.9719 70.512 57.5964 69.6906 57.9738 68.8964C58.2964 68.2177 58.7093 67.546 59.071 66.8838L60.5639 64.1571C60.9478 63.4398 61.2784 62.6882 61.7728 62.0377C62.5264 62.0089 63.7328 62.0118 64.4724 62.0445C64.8096 63.2716 65.3533 64.6147 65.7713 65.8198C66.5219 67.9841 67.2369 70.227 67.9979 72.3821L69.3837 76.3796C69.6109 77.0362 69.8309 77.548 70.0337 78.2255C70.3047 77.0096 71.0123 75.3599 71.4098 74.157C72.749 70.1047 74.2129 66.0739 75.5859 62.0324C76.4365 62.0028 77.4663 62.0289 78.3286 62.0286L83.3473 62.0345C83.2322 63.8768 83.3395 66.4245 83.3212 68.3183C83.2767 72.9865 83.3763 77.69 83.3067 82.3592C83.7184 80.9193 84.1907 79.7449 84.697 78.3565L86.0806 74.4696L90.5302 62.0258L98.6354 62.0326L104.532 78.5934C104.873 79.5443 105.181 80.2766 105.482 81.2639C105.783 80.7382 106.252 80.0895 106.595 79.5534C107.887 77.5308 109.212 75.3988 110.568 73.4192C109.985 72.4713 109.244 71.4208 108.622 70.4842L106.412 67.0999C105.309 65.4399 104.145 63.7373 103.113 62.0378C105.039 61.9884 106.998 62.0588 108.926 62.0253C109.459 62.0161 110.078 62.009 110.605 62.0551C111.852 64.419 113.604 66.9742 114.854 69.3404C115.055 69.0341 115.344 68.4417 115.545 68.0875C115.802 67.7771 116.312 66.797 116.539 66.3976C117.342 64.9844 118.326 63.459 119.075 62.0355C121.28 61.9733 124.009 62.0046 126.227 62.0404C125.999 62.5768 125.23 63.7135 124.886 64.2364L123.312 66.6565C121.81 68.9396 120.309 71.3297 118.824 73.6338C119.091 74.1478 119.399 74.5053 119.728 74.9772L120.986 76.8108L124.417 81.8436L125.998 84.1473C126.442 84.7888 126.82 85.2805 127.211 85.9573C125.934 86.0343 124.24 85.9245 122.917 85.9699C122.457 85.9858 120.152 85.9952 119.791 85.9343C119.419 85.6701 117.573 82.5054 117.201 81.921L115.605 79.3582C115.294 78.8612 114.813 78.1412 114.568 77.6326C114.424 77.9367 114.143 78.3342 113.96 78.6449L112.72 80.7767L109.678 85.9696C106.598 85.9674 103.337 86.0183 100.271 85.9561C99.8549 84.6802 99.4733 83.3944 99.0293 82.1262C98.9448 81.8843 98.8736 81.6498 98.8296 81.3975C96.0713 81.3192 92.9269 81.3854 90.143 81.3867C90.1096 81.5343 90.0645 81.677 90.0122 81.8193C89.5082 83.1862 89.1382 84.5929 88.6631 85.9687C84.8684 86.0043 80.8944 85.8847 77.1236 85.983C77.0869 85.3096 77.0936 84.5814 77.1036 83.9057C77.1609 79.8967 77.0212 75.8511 77.1153 71.8461L72.3569 85.9615C71.8994 85.9939 71.1404 85.9709 70.6653 85.9706L67.4612 85.9625C66.777 83.777 65.9322 81.4345 65.1722 79.2665C64.3182 76.8304 63.5584 74.2619 62.6912 71.8472L62.7007 85.9727C60.8254 86.0564 58.6334 85.9142 56.6781 85.9876C56.6043 82.2973 56.7072 78.5766 56.6664 74.8827C56.6535 73.719 56.6499 72.5188 56.6864 71.3559C56.456 71.8206 56.1421 72.3142 55.8903 72.7794L53.954 76.3435C52.9221 76.3807 51.8331 76.351 50.7973 76.3522C49.2076 76.3539 47.6121 76.3691 46.023 76.3522C45.9898 77.8821 45.9889 79.4125 46.0203 80.9425C47.7914 80.9095 49.6489 80.9387 51.4263 80.9415C51.1098 81.6536 50.7957 82.1344 50.4302 82.8113C49.8704 83.8736 49.2962 84.9289 48.7079 85.977C43.3037 85.9152 37.8385 85.9826 32.4276 85.9573C32.292 85.7296 32.1286 85.3876 32.0093 85.1437C30.7961 82.6629 29.4052 80.2063 28.2268 77.7129C27.0251 77.7511 25.5696 77.7273 24.3543 77.7185C24.4095 80.4025 24.3594 83.2696 24.3654 85.9657L18.0319 85.9601C17.9833 84.3003 18.0104 82.5482 18.0106 80.8824L18.0096 65.802C18.0094 64.6222 17.9735 63.1856 18.0417 62.0253L25.0334 62.0268C27.7545 62.0271 29.8154 61.8938 32.5125 62.5373C37.2124 63.6586 38.8208 67.8824 37.7425 72.0924C37.2454 74.0331 35.9062 75.4104 34.1496 76.3982C35.4776 78.7315 36.7686 81.084 38.0219 83.4548C38.4794 84.3105 38.9446 85.0709 39.3835 85.9505C39.3355 84.7017 39.3605 83.3557 39.3605 82.0989L39.3616 75.6346C39.3618 71.155 39.2878 66.4904 39.3743 62.0249ZM24.3539 72.9343C25.9214 72.9451 29.5916 73.2373 30.7201 72.2048C30.7391 72.1874 30.7571 72.1691 30.7743 72.15C31.194 71.7331 31.4103 71.3221 31.5052 70.7527C32.3262 65.8281 27.3921 67.0897 24.3535 66.8767C24.3702 68.6883 24.4345 71.1612 24.3539 72.9343ZM94.5041 76.2656L97.2529 76.2641C96.4401 73.9063 95.8204 71.4927 94.9809 69.1484C94.8685 68.8348 94.5864 67.6829 94.4718 67.4827C93.8326 69.3837 93.2462 71.2727 92.6771 73.1939C92.3806 74.1947 91.9622 75.2467 91.7185 76.2613L94.5041 76.2656Z" fill="white"/>
<path d="M128.832 62.0499C129.406 61.991 129.923 62.3838 129.992 62.9316C130.062 63.4794 129.658 63.979 129.086 64.053C128.71 64.1017 128.334 63.9527 128.105 63.6628C127.875 63.373 127.826 62.9873 127.977 62.6533C128.127 62.3193 128.454 62.0888 128.832 62.0499ZM129.234 63.8788C129.724 63.6089 129.954 63.103 129.647 62.6122C129.53 62.4275 129.344 62.2936 129.125 62.2391C128.965 62.2005 128.839 62.2105 128.679 62.2403C127.696 62.8595 128.014 63.9848 129.234 63.8788Z" fill="white"/>
<path d="M128.495 62.4973C128.743 62.5038 129.093 62.5011 129.326 62.5532C129.426 62.7001 129.285 63.0969 129.423 63.5385L129.362 63.6204L129.194 63.5899C129.1 63.4369 129.052 63.3341 128.894 63.2369C128.681 63.3513 128.844 63.5323 128.654 63.6852L128.54 63.6069C128.476 63.4052 128.495 62.7456 128.495 62.4973Z" fill="white"/>
</svg>
