<svg width="148" height="148" viewBox="0 0 148 148" fill="none" xmlns="http://www.w3.org/2000/svg">
<path d="M34.9936 73.7016C36.4636 73.9179 38.6872 73.3996 40.0303 73.7016C40.1646 73.7315 40.243 73.9999 40.4034 74.0745C40.5191 74.1267 40.6944 74.026 40.7765 74.0745C40.9817 74.1975 41.9592 75.1744 42.0823 75.3795C42.1308 75.4615 42.0301 75.6368 42.0823 75.7523C42.1569 75.9127 42.4256 75.991 42.4554 76.1252C42.5412 76.5167 42.5412 78.3437 42.4554 78.7352C42.4256 78.8694 42.1569 78.9477 42.0823 79.1081C42.0301 79.2236 42.1308 79.3989 42.0823 79.4809C41.0601 81.196 39.0827 81.3154 37.2321 81.1588V83.023H34.9936V73.7016ZM37.2321 78.9216C38.2096 78.8135 39.6087 79.3094 40.2169 78.3623C40.2206 77.8031 40.7877 77.5421 40.59 76.8709C40.5638 76.7814 39.3737 75.592 39.2841 75.5659C38.7581 75.4205 37.844 75.6666 37.2321 75.5659V78.9216Z" fill="#FDFDFD"/>
<path d="M33.1281 73.7016V75.5659C32.9901 75.7039 29.9196 75.469 29.2107 75.5659C28.0728 75.7188 27.9198 76.7553 28.8376 77.4302C29.5614 77.1729 30.274 76.8784 31.0761 77.0573C31.2142 77.0872 31.2888 77.3668 31.4492 77.4302C31.7029 77.5309 32.4043 77.6987 32.5685 77.8031C33.4415 78.3661 33.2737 79.5443 33.8743 80.2266C33.3147 80.5324 33.6057 80.9798 33.5012 81.3452C33.4677 81.4608 31.9417 83.023 31.8223 83.023H26.4125V81.1588C28.222 81.0245 30.2889 81.6919 31.6358 80.2266C32.0872 78.8582 28.6734 79.425 28.0914 79.2945C27.9571 79.2646 27.8788 78.9962 27.7183 78.9216C27.6027 78.8694 27.4273 78.9701 27.3452 78.9216C26.2036 78.243 25.8753 76.6584 26.0394 75.3795C26.3864 75.1409 27.5691 73.7016 27.7183 73.7016H33.1281Z" fill="#FDFDFD"/>
<path d="M39.8438 90.1073C39.7804 90.1707 39.4856 90.0253 39.2841 90.1073C39.1237 90.1744 39.0416 90.4578 38.9111 90.4802C37.4709 90.7412 36.9971 90.1632 36.1129 89.1752C36.0383 88.2095 35.9711 86.3154 37.0456 86.0059C37.4112 85.9015 37.8589 86.1923 38.1649 85.633H38.538C39.0454 86.073 39.8139 86.2632 40.2169 86.938C40.2654 87.0201 40.1646 87.1953 40.2169 87.3109C40.2915 87.4712 40.5601 87.5495 40.59 87.6837C40.881 88.9477 40.1833 88.9403 39.8438 89.548C39.7468 89.7233 39.9147 90.0365 39.8438 90.1073ZM39.4707 86.7516L37.7918 86.3787L36.8591 86.7516L36.486 88.4295C36.8926 88.6942 36.9523 89.6077 37.4187 89.7344C38.1723 89.9395 39.6311 89.5667 39.8438 88.8023C40.0714 87.9895 39.4856 87.4712 39.4707 86.7516Z" fill="#F5F5F5"/>
<path d="M27.1587 86.0059V87.8702H29.7703C30.0427 87.598 29.1361 85.5995 30.5165 86.0059C30.4829 86.9306 30.565 87.8739 30.5165 88.8023C30.4792 89.5182 30.6956 89.9917 29.9569 90.4802L29.2107 88.243H27.7183C26.8975 88.7911 27.1885 89.6189 27.1587 90.4802L26.4125 89.9209C26.4498 88.806 26.3565 87.68 26.4125 86.5652C26.4424 85.9574 26.7296 85.4951 27.1587 86.0059Z" fill="#E8E8E8"/>
<path d="M76.5932 34.1789C80.6002 33.765 87.5472 34.0894 91.1438 34.9246C105.258 38.1983 117.51 50.3795 120.804 64.5667C121.323 66.8001 121.185 69.0857 121.551 71.2781C121.707 72.2214 122.185 73.8098 121.924 75.3795C121.577 77.4638 121.387 80.7039 120.804 83.2095C117.685 96.6323 106.127 108.873 92.6361 112.479C89.4574 113.329 86.6853 113.28 83.3089 113.597C82.7157 113.653 81.9247 114.123 80.6972 113.97C80.5592 113.951 80.4585 113.608 80.3241 113.597C79.1228 113.485 77.7834 113.72 76.5932 113.597C75.3396 113.467 73.3884 112.796 72.1161 112.479C63.8261 110.42 55.2935 105.48 50.2903 98.1237C50.1187 97.8702 49.5926 97.5495 49.5441 97.378C49.089 95.7262 50.4396 94.906 51.5961 94.2087H52.3423C52.6408 94.7792 53.1482 94.466 53.4616 94.5816C54.2227 94.8649 55.3009 95.7673 56.0732 96.073C57.9573 96.8187 60.1586 97.1617 62.0427 97.5644C66.0086 98.4145 70.3216 99.1826 74.3547 97.9373C74.836 98.6569 74.8546 97.9783 75.1009 97.9373C78.5072 97.3519 80.839 96.7814 84.055 95.3273C85.6855 94.589 87.1741 93.2169 88.3456 91.7851C91.2557 88.2281 93.2182 83.8992 94.315 79.4809C94.427 79.0297 95.0165 77.6092 95.0612 77.2438C95.1433 76.5689 95.1732 74.891 95.0612 74.2609C95.0314 74.1006 94.3934 73.0156 94.315 72.7695C87.3196 50.6218 57.1552 48.3064 46.5594 68.2952C46.4027 68.5338 45.3991 69.1938 45.2536 69.2274C44.0299 69.5107 42.9479 68.6121 42.4554 67.5495C42.239 66.8113 42.8099 66.5391 42.8285 66.4309C42.9106 65.9761 42.7315 65.3646 42.8285 64.9395C43.515 61.9753 44.8469 58.8769 46.1863 55.991C51.126 45.3497 63.0388 36.4496 74.3547 34.5517C75.0151 34.4399 76.2015 34.2199 76.5932 34.1789ZM97.6729 38.2803C97.6094 38.2169 97.3147 38.3661 97.1132 38.2803C96.8633 38.1759 96.2327 37.6278 95.994 37.5346C92.3078 36.1177 88.9388 35.6815 84.8012 35.2975C84.6669 35.2863 84.5625 34.9358 84.4281 34.9246C82.9022 34.8127 80.7308 34.8127 79.2049 34.9246C79.0706 34.9358 78.9661 35.2863 78.8318 35.2975C76.5335 35.51 74.6681 35.5286 72.4892 36.0432C69.5306 36.7441 65.102 38.545 62.4158 40.1446C61.7629 40.5324 61.1286 41.2445 60.3638 41.2632C60.278 41.9157 61.2144 41.6286 61.6696 41.636C63.2813 41.6658 64.8409 41.0693 66.1467 41.2632C67.5383 41.4682 68.8143 41.457 70.2507 41.636C71.6013 41.8038 73.7428 42.6763 75.1009 43.1274C78.2572 44.1752 81.2755 45.6479 84.055 47.6017C97.311 58.0454 100.411 77.2699 90.211 91.0394C89.7895 91.6062 88.9761 92.0201 88.7187 92.7173C89.4462 92.9112 89.5917 92.2475 90.0245 91.9716C98.919 86.3042 103.986 77.2885 105.508 67.1767C105.53 67.035 105.866 66.938 105.881 66.8038C106.291 62.8254 106.015 57.6576 105.135 54.1267C104.023 49.6524 102.586 45.413 99.9114 41.4496C99.3742 40.6517 98.0198 39.4585 97.6729 38.8396C97.5759 38.6643 97.7438 38.3511 97.6729 38.2803ZM65.587 109.496L67.266 109.869C98.5198 122.602 130.397 91.8448 118.193 59.7195C115.272 52.0312 109.522 45.5659 102.71 40.8903L101.404 40.7039C101.706 41.0954 102.273 41.4384 102.523 41.8224C105.019 45.6368 108.019 51.5353 109.239 55.6181C112.958 68.0678 109.821 79.6077 103.642 90.6666C95.2515 105.681 84.2192 111.069 66.8929 109.123C66.516 109.082 65.4789 108.881 65.587 109.496ZM95.0612 69.6002L94.8747 67.7359C91.9385 50.9201 77.2014 40.428 60.1772 42.7546C60.0392 42.7732 59.9459 43.1013 59.8041 43.1274C59.0206 43.2654 58.3565 43.0305 57.5656 43.5003C57.2037 43.7165 56.8306 44.3206 56.4463 44.6189C56.368 44.6822 56.1478 44.5592 56.0732 44.6189C54.9652 45.5063 54.0026 46.8485 52.902 47.7881L54.2078 47.6017C58.9274 44.9805 65.1393 46.196 69.8776 47.6017C79.9995 50.6069 91.4087 57.2587 94.315 68.2952L95.0612 69.6002ZM91.7034 64.7531C91.3303 62.8254 89.8678 61.4943 88.7187 60.0924C83.876 54.1714 74.5823 49.507 67.266 47.9746C66.7101 47.859 65.1319 47.2773 64.6543 47.2289C63.1396 47.0723 59.3825 47.0163 57.9387 47.2289C57.8006 47.2475 57.7111 47.5719 57.5656 47.6017C56.9127 47.7322 55.9538 47.7434 55.327 47.9746C50.1747 49.8687 47.7645 54.7121 45.8132 59.3467C44.9962 61.293 43.9217 64.1565 43.5747 66.0581C43.4926 66.5018 43.6307 67.0723 43.5747 67.5495C45.5819 69.3504 45.7535 66.8001 46.9325 65.6852C54.3906 54.1528 69.7246 50.249 81.8165 56.5503C83.2081 57.2773 85.5138 58.6047 86.6667 59.5331C88.4575 60.9723 90.0581 63.1386 91.7034 64.7531ZM104.762 48.3474L105.135 50.3981C114.947 80.5212 85.3646 108.467 55.327 96.8187C54.6518 96.5577 53.8272 95.9723 53.0885 95.7001C52.6259 95.5286 52.0401 95.1968 51.5961 95.3273C51.5327 95.3459 50.6821 96.196 50.6634 96.2594C50.3388 97.3593 51.9282 98.5152 52.5289 99.2423C54.5286 101.662 56.8381 103.985 59.431 105.767C59.7034 105.954 61.5353 107.221 61.6696 107.259C62.1397 107.393 62.5016 107.549 62.7889 107.632C63.0761 107.714 63.5612 107.561 63.9081 107.632C64.0536 107.661 64.1432 107.986 64.2812 108.004C65.0834 108.12 66.0609 107.919 66.8929 108.004C69.4299 108.273 72.3773 108.705 74.3547 108.377C76.2239 108.068 78.6751 108.336 80.6972 108.004C81.5703 107.859 83.1223 107.162 84.055 106.886C97.7027 102.859 106.224 86.9865 108.866 74.2609C109.351 71.9231 109.463 69.4138 109.985 67.1767C110.134 66.5465 109.38 62.1543 109.239 61.211C108.578 56.8187 107.612 53.4108 105.508 49.2796L104.762 48.3474Z" fill="#FBFBFB"/>
<path d="M47.6787 73.7016H49.7307L52.5289 78.3623L53.275 79.2945V73.7016H55.1405V83.023H52.902L50.6634 78.7352L49.9172 77.8031V83.023H47.6787V73.7016Z" fill="#FDFDFD"/>
<path d="M63.7216 73.7016V75.5659H59.2445V77.4302C61.2256 76.5242 62.6434 76.9007 62.2292 79.2945H59.2445V81.1588H63.7216V83.023H57.006V73.7016H63.7216Z" fill="#FCFCFC"/>
<path d="M67.0794 73.7016V81.1588C68.2957 81.0208 69.8366 81.3526 70.9969 81.1588C71.1386 81.1364 71.2468 80.7859 71.37 80.7859C72.1796 81.3191 71.9072 82.1282 71.9296 83.023H65.4005C65.3595 83.023 64.8409 82.5048 64.8409 82.4637V73.7016H67.0794Z" fill="#F8F8F8"/>
<path d="M74.9143 73.7016V81.1588H79.3914V83.023H72.6758V73.7016H74.9143Z" fill="#FCFCFC"/>
<path d="M82.7492 73.7016H80.5107V83.023H82.7492V73.7016Z" fill="#F9F9F9"/>
<path d="M45.8132 73.7016V83.023C45.2275 83.1013 43.5747 83.064 43.5747 82.4637V73.7016H45.8132Z" fill="#F8F8F8"/>
<path d="M73.0489 88.9887V86.0059C73.4779 85.4951 73.7652 85.9574 73.795 86.5652C73.8324 87.3444 73.9517 89.3355 73.795 89.9209C73.7689 90.0178 73.2354 90.6629 73.0489 90.2937L70.8103 87.4973C70.6723 88.4779 71.3103 90.0402 70.0641 90.4802V86.0059C71.0416 85.7635 71.0192 86.7367 71.1834 86.938C71.7356 87.6054 72.3997 88.4556 73.0489 88.9887Z" fill="#EBEBEB"/>
<path d="M83.1223 86.7516C82.3388 86.994 81.7531 86.1774 81.0703 86.3787C80.9808 86.4048 79.7906 87.5943 79.7645 87.6837C79.5929 88.2729 80.2047 89.287 80.6972 89.7344H82.3761V88.6159L81.2569 87.8702L83.1223 88.4295C83.5066 89.9209 82.0366 90.8493 80.6972 90.4802C80.6077 90.4541 79.4175 89.2646 79.3914 89.1752C79.2869 88.8098 79.578 88.3623 79.0183 88.0566C79.578 87.7509 79.2869 87.3034 79.3914 86.938C79.619 86.1438 81.0032 86.0767 81.4434 85.633H81.8165L83.1223 86.7516Z" fill="#ECECEC"/>
<path d="M54.3943 90.4802V86.0059C55.7225 86.032 56.9873 85.6554 57.7521 86.938C57.8193 87.0499 57.7036 87.4936 58.1252 87.6837V88.4295C57.2447 90.0439 56.4463 90.812 54.3943 90.4802ZM57.006 86.7516L55.1405 86.3787V89.7344C55.8531 89.947 57.1888 89.4921 57.379 88.8023C57.6066 87.9895 57.0209 87.4712 57.006 86.7516Z" fill="#EDEDED"/>
<path d="M46.5594 89.7345H49.1711C49.6822 90.1632 49.2196 90.4503 48.6114 90.4802C47.8055 90.5212 46.9885 90.4541 46.1863 90.4802V86.0059C46.8392 85.9201 46.5482 86.856 46.5594 87.3109C46.5781 88.12 46.5482 88.9291 46.5594 89.7345Z" fill="#F0F0F0"/>
<path d="M64.0947 90.4802C62.9642 90.1409 63.6843 89.85 63.7216 89.548C63.8596 88.4444 63.6246 87.1394 63.7216 86.0059C64.3745 85.9201 64.0872 86.856 64.0947 87.3109C64.1171 88.3661 64.0798 89.4287 64.0947 90.4802Z" fill="#F7F7F7"/>
</svg>
