<svg width="148" height="148" viewBox="0 0 148 148" fill="none" xmlns="http://www.w3.org/2000/svg">
<path d="M35.7204 87.7878C33.9807 86.7626 32.0574 86.0888 30.0591 85.8047V103.345H25.303V85.8047C23.2902 86.1148 21.3569 86.8145 19.6109 87.8646L18 84.0522C19.4283 83.1638 20.9791 82.4905 22.6027 82.0537C24.2565 81.5957 25.9653 81.3681 27.681 81.3773C29.4069 81.3671 31.126 81.5947 32.79 82.0537C34.4157 82.4844 35.9674 83.1582 37.3927 84.0522L35.7204 87.7878Z" fill="white"/>
<path d="M43.6524 94.1828V103.407H39.1725V82.269L43.6524 79.8862V88.249C44.219 87.5762 44.9231 87.0332 45.7171 86.6566C46.5112 86.28 47.3767 86.0786 48.2551 86.066C49.0623 86.0544 49.8626 86.2172 50.6013 86.5435C51.34 86.8699 51.9997 87.3519 52.5356 87.9569C53.7355 89.3538 54.3559 91.1581 54.2693 92.9991V103.345H49.7587V94.1214C49.7587 91.508 48.8535 90.2013 47.0277 90.2013C46.5858 90.2007 46.1483 90.2904 45.7421 90.4648C45.3359 90.6392 44.9694 90.8948 44.665 91.2159C44.2978 91.6333 44.0187 92.1209 43.8447 92.6493C43.6706 93.1778 43.6052 93.736 43.6524 94.2905" fill="white"/>
<path d="M68.461 99.3481C69.1065 99.052 69.6857 98.6285 70.164 98.1029L72.6035 100.87C71.7935 101.787 70.7848 102.507 69.6546 102.973C68.5244 103.439 67.3026 103.64 66.083 103.56C64.4452 103.592 62.8257 103.211 61.3728 102.453C60.0421 101.755 58.9397 100.687 58.197 99.3788C57.4787 98.0438 57.1192 96.5446 57.1537 95.0283C57.133 93.4933 57.5082 91.9789 58.243 90.6317C58.9646 89.344 60.0262 88.2802 61.3115 87.5572C62.6149 86.8469 64.0777 86.4818 65.5613 86.4965C66.9935 86.4822 68.4066 86.8256 69.6731 87.4957C70.9195 88.1696 71.9511 89.1819 72.6495 90.4165C73.4142 91.7859 73.7959 93.3367 73.7541 94.9054L62.0786 97.2728C62.3621 98.0507 62.9038 98.7074 63.6128 99.1329C64.4207 99.5586 65.3238 99.7702 66.2364 99.7478C66.9857 99.7637 67.7309 99.6331 68.4303 99.3635M62.7537 91.3235C61.9865 92.227 61.5771 93.3812 61.603 94.5672L69.2742 93.0299C69.0858 92.2108 68.6194 91.4827 67.9547 90.9699C67.2639 90.4439 66.4132 90.1725 65.546 90.2013C65.0216 90.1815 64.4991 90.2757 64.0144 90.4773C63.5298 90.679 63.0944 90.9834 62.7383 91.3696" fill="white"/>
<path d="M89.2192 102.269C87.5442 101.342 86.1622 99.9622 85.2302 98.2874C84.2741 96.5224 83.7734 94.5461 83.7734 92.538C83.7734 90.5298 84.2741 88.5535 85.2302 86.7885C86.1622 85.1137 87.5442 83.7343 89.2192 82.807C90.8305 81.9546 92.611 81.4723 94.4315 81.3952C96.252 81.3181 98.0667 81.6481 99.7441 82.3612C101.163 83.0023 102.405 83.9781 103.365 85.2051L100.296 88.1567C99.6931 87.3626 98.9126 86.7209 98.0175 86.2832C97.1224 85.8454 96.1374 85.6236 95.1414 85.6356C93.948 85.6151 92.7713 85.9178 91.7354 86.5118C90.7453 87.0922 89.9374 87.939 89.4033 88.9561C88.8586 90.0713 88.5754 91.2964 88.5754 92.538C88.5754 93.7795 88.8586 95.0047 89.4033 96.1198C89.9351 97.1426 90.7432 97.9949 91.7354 98.5795C92.7713 99.1735 93.948 99.4762 95.1414 99.4557C96.1411 99.4611 97.1281 99.2317 98.0234 98.7858C98.9186 98.34 99.6971 97.6902 100.296 96.8885L103.365 99.8554C102.398 101.086 101.152 102.067 99.7287 102.715C98.2057 103.382 96.5583 103.718 94.8959 103.699C92.9092 103.73 90.95 103.231 89.2192 102.254" fill="white"/>
<path d="M121.776 94.8439C121.813 97.1345 120.941 99.3464 119.352 100.993C118.547 101.804 117.591 102.447 116.538 102.886C115.485 103.325 114.355 103.551 113.215 103.551C112.074 103.551 110.945 103.325 109.891 102.886C108.838 102.447 107.882 101.804 107.078 100.993C106.286 100.18 105.662 99.2186 105.244 98.1631C104.825 97.1077 104.619 95.9795 104.638 94.8439C104.612 93.6935 104.814 92.5494 105.233 91.4779C105.652 90.4065 106.279 89.4291 107.078 88.6025C107.882 87.7919 108.838 87.1486 109.891 86.7097C110.945 86.2707 112.074 86.0447 113.215 86.0447C114.355 86.0447 115.485 86.2707 116.538 86.7097C117.591 87.1486 118.547 87.7919 119.352 88.6025C120.145 89.4323 120.768 90.4106 121.183 91.4815C121.599 92.5525 121.801 93.695 121.776 94.8439ZM109.226 94.8439C109.171 96.0756 109.569 97.2847 110.346 98.2413C110.704 98.6524 111.146 98.9819 111.643 99.2077C112.139 99.4335 112.677 99.5503 113.222 99.5503C113.767 99.5503 114.306 99.4335 114.802 99.2077C115.298 98.9819 115.74 98.6524 116.099 98.2413C116.835 97.2591 117.232 96.0642 117.232 94.8362C117.232 93.6082 116.835 92.4133 116.099 91.4311C115.743 91.0154 115.302 90.6818 114.805 90.453C114.309 90.2242 113.769 90.1058 113.222 90.1058C112.676 90.1058 112.136 90.2242 111.639 90.453C111.143 90.6818 110.701 91.0154 110.346 91.4311C109.569 92.3937 109.171 93.6075 109.226 94.8439Z" fill="white"/>
<path d="M125.397 102.792C124.889 102.258 124.613 101.545 124.629 100.809C124.62 100.446 124.683 100.085 124.815 99.747C124.946 99.4091 125.144 99.101 125.397 98.8408C125.644 98.595 125.939 98.4027 126.264 98.2758C126.588 98.1488 126.935 98.09 127.284 98.1029C127.635 98.1002 127.983 98.1713 128.306 98.3116C128.628 98.4519 128.918 98.6584 129.155 98.9177C129.414 99.1608 129.622 99.4532 129.767 99.7779C129.912 100.103 129.991 100.453 129.999 100.809C130.008 101.175 129.943 101.539 129.809 101.88C129.674 102.22 129.473 102.53 129.217 102.792C128.976 103.047 128.686 103.249 128.364 103.387C128.042 103.524 127.695 103.594 127.345 103.591C126.982 103.602 126.622 103.536 126.286 103.398C125.951 103.261 125.647 103.054 125.397 102.792Z" fill="white"/>
<path d="M71.4221 65.8201C71.0152 65.4624 70.6916 65.0196 70.4742 64.5228C70.2568 64.0261 70.1509 63.4876 70.164 62.9454V51.9846H64.5027V62.9761C64.4967 64.3288 64.7878 65.6661 65.3552 66.8935C65.9226 68.1209 66.7524 69.2082 67.786 70.0783L71.4221 65.8201Z" fill="white"/>
<path d="M83.4352 45.8355V41.3313C83.4352 38.8565 82.454 36.483 80.7075 34.7331C78.961 32.9831 76.5923 32 74.1224 32H73.8155C71.3456 32 68.9768 32.9831 67.2304 34.7331C65.4839 36.483 64.5027 38.8565 64.5027 41.3313V51.9846H70.164V41.3313C70.1681 40.3514 70.5594 39.413 71.2524 38.7215C71.9454 38.03 72.8835 37.6418 73.8615 37.6418H74.1684C75.141 37.6499 76.0714 38.0417 76.7577 38.7323C77.4441 39.4229 77.8312 40.3567 77.8352 41.3313V45.8355H83.4352Z" fill="white"/>
<path d="M67.786 70.0476C69.4633 71.4923 71.6037 72.2836 73.8155 72.2767H74.1224C76.591 72.2726 78.9574 71.2882 80.703 69.5391C82.4486 67.79 83.4311 65.4189 83.4352 62.9454V58.9946H77.8352V62.9454C77.8372 63.4305 77.7434 63.9111 77.5591 64.3597C77.3747 64.8082 77.1036 65.2158 76.7612 65.5588C76.4189 65.9018 76.0122 66.1735 75.5645 66.3581C75.1169 66.5428 74.6371 66.6369 74.153 66.6348H73.8462C72.9672 66.6607 72.1077 66.3719 71.4221 65.8201L67.786 70.0476Z" fill="white"/>
<path d="M83.4352 58.9946H77.8352V41.3313C77.8372 40.8462 77.7434 40.3655 77.5591 39.917C77.3747 39.4684 77.1036 39.0609 76.7612 38.7179C76.4189 38.3749 76.0122 38.1032 75.5645 37.9185C75.1169 37.7338 74.6372 37.6398 74.153 37.6418H73.8462C72.9697 37.6392 72.1211 37.9499 71.4528 38.5181L67.8166 34.2137C69.4923 32.7885 71.6176 32.0042 73.8155 32H74.1224C76.591 32.0041 78.9574 32.9885 80.703 34.7376C82.4486 36.4866 83.4311 38.8577 83.4352 41.3313V58.9946Z" fill="white"/>
<path d="M26.2082 112.861H27.3128V113.645H26.2082V115.905H25.349V110.416H27.6197V111.2H26.2082V112.861Z" fill="white"/>
<path d="M31.9462 110.416H32.8054V115.121H34.2169V115.905H31.9462V110.416Z" fill="white"/>
<path d="M39.3719 112.738H40.5533V113.506H39.3719V115.121H40.8448V115.905H38.4974V110.416H40.8448V111.2H39.3719V112.738Z" fill="white"/>
<path d="M48.1631 110.416L47.2579 113.076L48.2244 115.905H47.3192L46.6135 113.737L45.9078 115.905H45.0946L46.0612 113.076L45.156 110.416H46.0458L46.7056 112.446L47.3653 110.416H48.1631Z" fill="white"/>
<path d="M53.4255 110.416H52.5663V115.905H53.4255V110.416Z" fill="white"/>
<path d="M59.2556 110.401C59.4279 110.372 59.6046 110.385 59.7712 110.438C59.9377 110.491 60.0894 110.582 60.2136 110.706C60.3379 110.829 60.4313 110.979 60.4861 111.146C60.541 111.312 60.5557 111.489 60.529 111.662V111.938C60.5339 112.175 60.4922 112.41 60.4063 112.63C60.3161 112.815 60.164 112.962 59.9767 113.045C60.1905 113.118 60.3668 113.273 60.4677 113.476C60.5791 113.705 60.6318 113.959 60.6211 114.214V114.659C60.6405 114.836 60.6202 115.014 60.5616 115.182C60.5029 115.349 60.4074 115.501 60.2822 115.627C60.157 115.752 60.0053 115.848 59.8382 115.906C59.6711 115.965 59.493 115.986 59.317 115.966H57.9668V110.401H59.2556ZM58.826 111.185V112.63H59.1635C59.23 112.636 59.297 112.628 59.3603 112.607C59.4236 112.586 59.482 112.552 59.5318 112.507C59.5849 112.447 59.6247 112.376 59.6486 112.299C59.6724 112.222 59.6796 112.141 59.6698 112.061V111.754C59.6873 111.602 59.6491 111.449 59.5625 111.323C59.5254 111.274 59.4762 111.236 59.4197 111.211C59.3632 111.187 59.3013 111.178 59.2403 111.185H58.826ZM58.826 113.414V115.105H59.317C59.3763 115.109 59.4358 115.1 59.4914 115.079C59.547 115.058 59.5974 115.025 59.6392 114.982C59.7316 114.865 59.7755 114.716 59.7619 114.567V114.091C59.7835 113.905 59.7342 113.718 59.6238 113.568C59.5723 113.511 59.5077 113.467 59.4356 113.44C59.3634 113.413 59.2859 113.404 59.2096 113.414H58.826Z" fill="white"/>
<path d="M65.0397 110.416H65.9142V115.121H67.3257V115.905H65.0397V110.416Z" fill="white"/>
<path d="M72.4654 112.738H73.6467V113.506H72.4654V115.121H73.9536V115.905H71.6062V110.416H73.9536V111.2H72.4654V112.738Z" fill="white"/>
<path d="M83.4045 111.739C83.3841 111.367 83.4986 111.002 83.7267 110.709C83.8509 110.585 84.0001 110.49 84.1641 110.429C84.3282 110.368 84.5033 110.343 84.6779 110.355C84.8523 110.344 85.0273 110.369 85.1912 110.43C85.3551 110.491 85.5043 110.586 85.6291 110.709C85.8518 111.004 85.9607 111.369 85.936 111.739V111.938H85.1228V111.708C85.1408 111.561 85.1024 111.412 85.0154 111.293C84.9726 111.252 84.922 111.22 84.8667 111.199C84.8114 111.178 84.7524 111.168 84.6932 111.17C84.6363 111.167 84.5794 111.177 84.5265 111.198C84.4736 111.219 84.4258 111.251 84.3864 111.293C84.2939 111.41 84.25 111.559 84.2636 111.708C84.2642 111.884 84.3063 112.058 84.3864 112.215C84.4805 112.359 84.5884 112.492 84.7086 112.615L85.1075 112.999C85.2518 113.126 85.3853 113.265 85.5064 113.414C85.6348 113.575 85.743 113.75 85.8286 113.937C85.9133 114.152 85.955 114.382 85.9513 114.613C85.9717 114.984 85.8572 115.35 85.6291 115.643C85.502 115.767 85.3501 115.863 85.1836 115.924C85.017 115.984 84.8394 116.009 84.6626 115.997C84.4881 116.008 84.3132 115.983 84.1493 115.922C83.9854 115.861 83.8361 115.766 83.7113 115.643C83.4832 115.35 83.3688 114.984 83.3891 114.613V114.244H84.2023V114.644C84.192 114.718 84.1976 114.793 84.2187 114.865C84.2399 114.936 84.2762 115.003 84.325 115.059C84.418 115.129 84.531 115.167 84.6472 115.167C84.7634 115.167 84.8764 115.129 84.9694 115.059C85.0619 114.942 85.1058 114.793 85.0921 114.644C85.0916 114.468 85.0495 114.294 84.9694 114.137C84.8753 113.993 84.7674 113.859 84.6472 113.737L84.2483 113.353C84.104 113.226 83.9705 113.087 83.8494 112.938C83.721 112.777 83.6128 112.602 83.5272 112.415C83.444 112.199 83.4024 111.97 83.4045 111.739Z" fill="white"/>
<path d="M91.6433 110.401C91.819 110.387 91.9957 110.41 92.162 110.469C92.3284 110.527 92.4809 110.619 92.6099 110.739C92.8437 111.023 92.9591 111.387 92.9321 111.754V112.476C92.9583 112.839 92.8427 113.197 92.6099 113.476C92.4845 113.602 92.333 113.699 92.1659 113.76C91.9989 113.821 91.8205 113.845 91.6433 113.829H91.2444V115.889H90.3853V110.401H91.6433ZM91.2444 111.185V113.045H91.6433C91.7599 113.048 91.8737 113.01 91.9655 112.938C92.0525 112.818 92.0909 112.67 92.0729 112.523V111.708C92.0909 111.561 92.0525 111.412 91.9655 111.293C91.9219 111.254 91.8709 111.224 91.8155 111.206C91.7601 111.187 91.7015 111.18 91.6433 111.185H91.2444Z" fill="white"/>
<path d="M99.9282 115.905H99.069L98.9156 114.905H97.857L97.7036 115.905H96.9211L97.7803 110.401H99.0383L99.9282 115.905ZM97.9644 114.167H98.7929L98.3786 111.385L97.9644 114.167Z" fill="white"/>
<path d="M106.74 113.86V114.583C106.761 114.954 106.646 115.319 106.418 115.612C106.29 115.735 106.138 115.829 105.971 115.89C105.805 115.951 105.628 115.977 105.451 115.966C105.277 115.977 105.102 115.952 104.938 115.891C104.774 115.83 104.625 115.735 104.5 115.612C104.267 115.322 104.147 114.956 104.163 114.583V111.739C104.147 111.366 104.267 110.999 104.5 110.709C104.629 110.594 104.78 110.508 104.944 110.455C105.107 110.402 105.28 110.384 105.451 110.401C105.628 110.39 105.805 110.416 105.971 110.477C106.138 110.538 106.29 110.632 106.418 110.755C106.646 111.048 106.761 111.414 106.74 111.785V112.307H105.927V111.723C105.941 111.574 105.897 111.426 105.804 111.308C105.715 111.229 105.601 111.186 105.482 111.185C105.358 111.183 105.238 111.227 105.145 111.308C105.058 111.428 105.019 111.576 105.037 111.723V114.69C105.019 114.837 105.058 114.985 105.145 115.105C105.24 115.182 105.36 115.22 105.482 115.213C105.599 115.218 105.714 115.18 105.804 115.105C105.897 114.988 105.941 114.839 105.927 114.69V113.906L106.74 113.86Z" fill="white"/>
<path d="M112.033 112.738H113.215V113.506H112.033V115.121H113.522V115.905H111.174V110.416H113.522V111.2H112.033V112.738Z" fill="white"/>
<path d="M117.848 111.739C117.828 111.367 117.942 111.002 118.17 110.709C118.294 110.584 118.443 110.488 118.607 110.427C118.771 110.366 118.947 110.342 119.121 110.355C119.294 110.343 119.467 110.368 119.628 110.429C119.79 110.49 119.936 110.585 120.057 110.709C120.285 111.002 120.4 111.367 120.38 111.739V111.938H119.566V111.708C119.584 111.561 119.546 111.412 119.459 111.293C119.37 111.215 119.255 111.172 119.137 111.172C119.018 111.172 118.904 111.215 118.815 111.293C118.728 111.412 118.689 111.561 118.707 111.708C118.708 111.884 118.75 112.058 118.83 112.215C118.919 112.362 119.028 112.496 119.152 112.615C119.278 112.75 119.411 112.879 119.551 112.999C119.695 113.126 119.829 113.265 119.95 113.414C120.079 113.571 120.182 113.748 120.257 113.937C120.353 114.149 120.401 114.38 120.395 114.613C120.422 114.988 120.3 115.358 120.057 115.643C119.786 115.858 119.451 115.974 119.106 115.974C118.761 115.974 118.426 115.858 118.155 115.643C117.912 115.358 117.791 114.988 117.817 114.613V114.244H118.631V114.644C118.617 114.793 118.661 114.942 118.753 115.059C118.848 115.136 118.969 115.174 119.091 115.167C119.214 115.159 119.33 115.104 119.413 115.013C119.505 114.895 119.549 114.747 119.536 114.598C119.537 114.419 119.489 114.244 119.398 114.091C119.314 113.944 119.211 113.81 119.091 113.691L118.692 113.307C118.544 113.184 118.41 113.045 118.293 112.892C118.159 112.735 118.051 112.559 117.971 112.369C117.888 112.153 117.846 111.924 117.848 111.692" fill="white"/>
</svg>
