<svg width="148" height="148" viewBox="0 0 148 148" fill="none" xmlns="http://www.w3.org/2000/svg">
<path d="M92.8125 69.1602C93.0937 68.7867 94.7856 68.8777 95.3312 68.8954C97.0819 68.9521 99.2344 68.6717 100.792 69.5599C101.193 69.8053 101.394 70.1971 101.807 70.5302C101.824 71.012 101.892 72.0986 101.773 72.5166C101.651 72.9442 100.785 73.2243 101.005 73.9378C102.527 74.7521 101.752 74.6655 102.53 75.7316C102.604 76.9654 102.267 76.6321 102.141 77.5608L102.179 77.4456C101.871 77.7929 101.521 78.1742 101.108 78.4146C100.707 78.6475 100.405 78.4543 100.074 78.8538L98.2456 78.9019C96.5531 78.8926 94.86 78.8939 93.1669 78.9058L92.9356 78.9158C92.9287 78.8959 92.865 78.7005 92.865 78.7005C93.0444 77.7998 93.0319 77.1762 93.0144 76.2169C92.9756 74.1078 93.1069 71.863 92.9425 69.7598C92.9287 69.5844 92.8219 69.457 92.8125 69.1602ZM95.21 74.6987C95.195 75.5071 95.1919 76.3157 95.2012 77.1242C96.2231 77.1294 97.2462 77.1374 98.2681 77.137C98.7525 77.1368 99.1525 77.1744 99.5394 76.8612C99.8312 76.5998 99.9656 76.4736 99.9725 76.0779C99.9781 75.7772 99.9519 75.4263 99.6975 75.2133C98.7594 74.4261 96.4056 74.688 95.21 74.6987ZM95.1962 72.9793C96.3137 73.0647 97.5394 72.9934 98.6587 72.9552L99.2456 72.5671C99.415 72.1283 99.5394 71.7934 99.33 71.3388C99.1912 71.0378 98.9456 70.8601 98.6025 70.8713C98.4212 70.8274 98 70.5847 97.9744 70.5814C97.2619 70.491 96.0644 70.4551 95.3469 70.5953C95.23 70.6181 95.2081 70.7583 95.1706 70.8568C95.2287 71.4614 95.2012 72.3527 95.1962 72.9793Z" fill="white"/>
<path d="M95.1706 70.8568C95.2081 70.7583 95.23 70.6181 95.3469 70.5953C96.0644 70.4551 97.2619 70.491 97.9744 70.5814C98 70.5847 98.4212 70.8274 98.6025 70.8713C97.4762 70.8743 96.2919 70.8938 95.1706 70.8568Z" fill="white"/>
<path d="M80.42 71.2041C81.8262 71.1941 82.8388 71.3359 83.9413 72.2696C84.245 72.527 84.1944 72.5959 84.3313 72.9385L84.5663 72.9946C84.695 73.2591 84.8806 73.5968 84.9681 73.8697C85.0431 74.1035 84.92 74.6111 85.07 74.8328L85.2262 74.8164L85.2925 74.9207C85.2944 75.1102 85.3337 75.1809 85.2262 75.2992L85.1087 75.271L85.0456 75.167L85.0094 75.2237C85.0163 75.2444 85.0238 75.2714 85.025 75.2904C85.1294 76.6666 84.4 77.7836 83.1606 78.4522C82.8469 78.6214 82.7419 78.5338 82.5019 78.8305C82.2656 78.8518 81.6175 78.8763 81.4644 78.9792C80.7262 79.5445 79.0094 78.6992 78.1363 78.5277C78.0025 78.5401 78.035 78.1717 77.9837 78.1733C77.36 78.1933 77.0488 77.2581 76.6125 76.9147C76.6963 76.9809 76.3537 76.1178 76.36 76.1408C75.6544 73.4974 77.53 71.2262 80.42 71.2041ZM78.7581 74.7408L78.5088 74.7113C78.2594 74.9588 78.3806 75.383 78.4775 75.6645C78.5844 75.7462 78.6231 75.7526 78.7562 75.7844C78.7537 75.8122 78.7525 75.8399 78.7525 75.8678C78.7531 76.3272 79.3394 76.9083 79.7825 77.0365C83.8337 78.2077 83.6269 72.0783 79.8944 73.0539C79.8931 73.0802 79.7931 73.3067 79.7862 73.3068C78.9881 73.3099 78.7406 74.0478 78.7581 74.7408Z" fill="white"/>
<path d="M78.7562 75.7844C78.6231 75.7526 78.5844 75.7462 78.4775 75.6645C78.3806 75.383 78.2594 74.9588 78.5088 74.7113L78.7581 74.7408L78.7562 75.7844Z" fill="white"/>
<path d="M123.662 71.2032C124.868 71.2018 125.653 71.2392 126.655 72.0608C126.967 72.3171 126.978 72.5179 127.374 72.5994C127.392 72.745 127.398 72.8052 127.453 72.9421L127.684 72.9915C127.831 73.2445 127.659 73.389 127.781 73.6529L128.054 73.6668C128.125 73.7659 128.128 73.8329 128.14 73.9502C128.174 74.2823 128.18 76.3119 128.058 76.4503C128.044 76.4664 127.894 76.4696 127.863 76.4723C127.621 76.6614 127.854 76.9203 127.632 77.1506C127.331 77.4624 127.045 77.8055 126.762 78.1335C126.654 78.1557 126.474 78.1681 126.379 78.2123C126.312 78.2436 126.309 78.4533 126.264 78.4884C126.04 78.6609 125.8 78.5834 125.554 78.8459C124.697 78.879 124.79 78.8589 124.057 79.1877C123.889 79.1891 123.668 79.2128 123.514 79.1997C123.326 79.1838 123.168 79.034 122.936 78.9941C121.418 78.7336 120.751 78.2479 119.821 77.1039C119.598 76.8306 119.757 76.6541 119.372 76.2307C119.361 75.8512 119.354 75.4716 119.351 75.0919C119.349 72.6057 121.128 71.2031 123.662 71.2032ZM121.875 74.6756L121.695 74.5171L121.606 74.5467C121.458 74.8611 121.446 75.2793 121.571 75.5941C121.586 75.6314 121.604 75.6675 121.626 75.702C121.74 75.7304 121.765 75.7361 121.884 75.7191L121.883 75.7453C121.864 76.4175 121.944 76.4737 122.525 76.7388C122.544 76.7476 122.688 76.9503 122.749 77.0105C122.911 77.1686 123.091 77.1471 123.316 77.1507C124.032 77.1623 124.627 77.1675 125.181 76.6649C125.621 76.2656 125.78 75.6918 125.798 75.1282C125.8 75.0367 125.79 74.8923 125.784 74.7952L125.642 74.6494C125.574 74.3762 125.629 73.9989 125.471 73.762L125.202 73.6684C125.186 73.6067 125.203 73.4242 125.121 73.3764C124.381 72.951 123.813 72.9482 123.058 72.984C122.34 73.6987 121.85 73.3383 121.875 74.6756Z" fill="white"/>
<path d="M121.884 75.7191C121.765 75.7361 121.74 75.7304 121.626 75.702C121.604 75.6675 121.586 75.6314 121.571 75.5941C121.446 75.2793 121.458 74.8611 121.606 74.5467L121.695 74.5171L121.875 74.6756L121.884 75.7191Z" fill="white"/>
<path d="M53.9203 78.8266C53.7659 78.8368 53.2794 78.8713 53.1713 78.9045C52.7222 79.0424 52.2445 79.2211 51.7659 79.2026C51.4665 79.183 51.4237 79.2242 51.2831 78.9571C51.2843 78.9595 50.8846 78.8944 50.8322 78.8862C50.7886 78.8795 50.6812 78.8603 50.6322 78.8548C49.5115 78.7284 49.0231 78.2727 48.2564 77.5409C47.6764 76.9872 47.3097 75.817 47.3343 75.0284C47.5031 72.5796 49.4545 70.9751 52.042 71.1955C52.8242 71.2622 53.4236 71.3437 54.1624 71.6775C54.155 71.7161 54.1876 71.9134 54.2306 71.9202C54.4084 71.948 54.4405 71.8963 54.586 72.0238C55.353 72.696 55.7776 73.3764 55.7411 74.3594C55.7225 74.6494 55.7007 75.4925 55.7532 75.7583C54.2108 75.71 51.4665 75.7008 49.9416 75.7633L49.8682 75.871C49.8799 76.6938 50.1182 76.0775 50.264 76.6963C50.8814 77.3081 52.4477 77.2675 53.2674 77.087C53.3272 77.0738 53.9729 76.6349 54.1457 76.555C54.239 77.0944 54.898 76.9303 54.9171 77.3729C54.9192 77.4232 54.9564 77.4565 54.9827 77.4939L55.2657 77.5075C55.3512 77.5893 55.3831 77.7109 55.4215 77.8213C55.3226 78.2292 54.9867 78.0569 54.6589 78.2125C54.6712 78.2066 54.6014 78.4956 54.583 78.4994C54.2855 78.5613 54.1377 78.6287 53.9203 78.8266ZM49.8726 74.3578C51.1099 74.4047 52.3783 74.3433 53.5776 74.3918C53.5225 73.7687 53.1468 73.0823 52.4546 72.942C52.0126 72.865 51.8848 72.5857 51.5923 72.6068C51.3555 72.7472 51.4219 72.6929 51.3142 72.9599C50.7864 72.9383 50.7756 72.9521 50.3586 73.2872C50.2052 73.4104 49.8807 73.8285 49.8729 74.0167C49.8691 74.1303 49.869 74.2441 49.8726 74.3578Z" fill="white"/>
<path d="M51.3142 72.9599C51.4219 72.6929 51.3555 72.7472 51.5923 72.6068C51.8848 72.5857 52.0126 72.865 52.4546 72.942C52.1562 72.9748 51.63 72.9601 51.3142 72.9599Z" fill="white"/>
<path d="M107.856 71.2036C109.302 71.1955 109.991 71.4103 111.052 72.3646L111.197 72.3559C111.352 72.4952 111.288 72.9033 111.477 72.973C111.846 73.1098 111.552 73.453 111.74 73.6732L111.95 73.6722C112.089 73.9356 112.04 75.3812 112.037 75.7524C111.142 75.7535 106.439 75.6516 105.907 75.8272L105.897 75.9067C106.131 76.3818 106.549 76.7983 106.987 77.109C107.605 77.1305 108.214 77.2443 108.83 77.1553C109.032 77.1261 109.238 77.1248 109.442 77.1151C110.334 76.3221 110.281 76.8504 110.936 77.2038C110.959 77.4437 111.059 77.4337 111.262 77.49C111.329 77.6259 111.282 77.9289 111.267 78.0924C110.382 78.7341 109.016 79.0724 107.895 79.2206C107.674 79.2498 106.984 78.7612 106.443 78.7949C105.941 78.8262 104.962 78.093 104.624 77.7388C103.103 76.3999 103.22 73.6531 104.692 72.3139C105.672 71.4229 106.536 71.1981 107.856 71.2036ZM108.822 74.3834C109.075 74.3864 109.426 74.4227 109.621 74.2875C109.682 74.2018 109.781 74.0832 109.729 73.9676C109.156 72.6844 108.05 72.9523 106.886 72.9729C106.504 73.3096 106.324 73.3196 106.17 73.8122C106.129 73.9426 105.967 73.9808 105.841 74.0884C105.85 74.2411 105.826 74.203 105.92 74.314C106.511 74.4201 108.157 74.3866 108.822 74.3834Z" fill="white"/>
<path d="M68.4981 71.2286C68.5014 71.4192 68.5034 71.7451 68.6278 71.882C69.0706 71.8175 69.5503 71.4513 69.9713 71.3158C71.4611 70.8362 74.4531 71.4161 74.3662 73.3193C74.4194 75.3115 74.205 76.9277 74.5638 78.8877C73.9175 78.9115 72.8088 78.9397 72.1824 78.8599L72.1791 75.6658C72.1774 74.5913 72.4514 73.4309 71.181 73.2129C70.9637 73.1756 70.9259 73.0035 70.591 72.9922C70.5801 72.9918 70.5691 72.9916 70.5581 72.9916C70.2269 72.9944 70.4247 73.2281 70.2832 73.2521C69.9354 73.3018 69.5893 73.267 69.2989 73.4637C68.3536 74.1041 69.1856 78.3628 68.7061 78.802C68.2699 78.9926 66.8541 78.9076 66.3138 78.897L66.3082 74.1363C66.308 73.4866 66.2671 71.9694 66.3969 71.3915C66.7259 71.1377 68.0007 71.2231 68.4981 71.2286Z" fill="white"/>
<path d="M47.6218 68.8625C47.7301 69.103 47.6822 70.5295 47.6774 70.8752L44.378 70.8761L44.3787 78.8854C43.5262 78.9108 42.6731 78.9141 41.8204 78.8954L41.8173 75.9033L41.8209 70.8757L38.548 70.8754C38.5063 70.4678 38.435 69.3348 38.605 68.9993C38.9523 68.8649 40.1496 68.8987 40.5837 68.8987L45.2161 68.9063C45.7766 68.9071 47.1313 68.9383 47.6218 68.8625Z" fill="white"/>
<path d="M61.4136 71.2036C62.2316 71.1623 62.9651 71.3143 63.7137 71.6318C63.7141 71.632 63.7614 71.829 63.7621 71.8295C63.938 71.9488 64.1892 71.9738 64.356 72.1087C64.5021 72.1734 64.4877 72.3891 64.5688 72.4711C64.8624 72.7681 64.9415 72.7527 64.8837 73.1967C64.7724 73.336 64.5556 73.3428 64.3402 73.3911C64.3286 73.4713 64.3321 73.4924 64.3442 73.5728L63.1437 73.9365C62.5632 73.5299 62.4345 73.0107 61.6239 72.9641C60.8731 72.881 60.2871 73.1874 59.7491 73.6704C59.1953 74.1676 59.3621 75.3448 59.374 76.0601C59.6599 76.3441 59.7486 76.6489 59.8712 76.7533C60.4366 77.2348 61.5354 77.1393 62.2467 77.1171C62.6085 76.8786 62.8462 76.6306 63.1524 76.3329C64.1182 76.4846 63.8551 76.6352 64.4717 76.8115C64.6541 76.8789 64.8116 77.0079 64.8835 77.182C64.9658 77.9512 63.3612 78.551 63.1326 78.8273C62.6682 78.857 62.0075 78.9822 61.5893 79.1537C61.0062 79.3929 60.4082 78.9172 60.4401 78.9156C59.6333 78.9577 59.4263 78.7186 58.7381 78.3791C58.3824 78.2035 58.3181 78.2062 58.2427 77.8435C58.1076 77.834 58.0327 77.8307 57.9021 77.796C57.8924 77.6709 57.8881 77.6108 57.854 77.4895L57.6154 77.4649C57.2927 77.073 56.7417 75.7406 56.7873 75.2217C57.0281 72.4866 58.6958 71.2092 61.4136 71.2036Z" fill="white"/>
<path d="M113.89 69.6943C114.323 69.5551 115.758 69.3282 116.059 69.632C116.035 70.1993 115.865 71.3617 116.573 71.5736C116.785 71.5632 116.933 71.5617 117.101 71.4242C117.519 71.4131 117.825 71.416 118.242 71.4402C118.253 71.7647 118.357 72.8965 118.136 73.1007C117.801 73.4099 116.887 73.233 116.432 73.3264C116.328 73.3169 116.261 73.3178 116.169 73.2666L116.086 73.3128C116.002 73.7212 116.025 76.2031 116.067 76.7269L116.159 76.7584C116.262 76.7005 116.299 76.6841 116.372 76.5902L116.411 76.6954C116.418 76.8356 116.429 76.8931 116.462 77.03C117.322 77.5709 118.799 76.2186 118.593 78.8329C118.332 78.851 117.953 78.871 117.731 78.9729C116.808 79.3952 115.98 79.0342 115.147 78.6274C115.01 78.5604 114.723 78.557 114.644 78.4509C114.37 78.083 114.192 77.4025 113.877 77.0873C113.879 76.1144 113.94 74.2504 113.846 73.3466C113.75 73.2559 113.083 73.2833 112.889 73.2808C112.798 73.0781 112.719 72.9486 112.601 72.7584C112.598 72.6163 112.596 72.4743 112.594 72.3322C112.588 71.3103 112.948 71.4037 113.87 71.4134C113.871 70.8403 113.877 70.2673 113.89 69.6943Z" fill="white"/>
<path d="M87.1875 74.0054C88.2762 73.9916 89.365 73.9956 90.4531 74.0175C90.46 74.3201 90.5344 75.5863 90.3856 75.7539L90.2881 75.7702C89.3737 75.7577 88.0656 75.7235 87.1812 75.8027C87.175 75.2032 87.1631 74.6046 87.1875 74.0054Z" fill="white"/>
<path d="M92.8125 69.1602C92.8219 69.457 92.9287 69.5844 92.9425 69.7598C93.1069 71.863 92.9756 74.1078 93.0144 76.2169C93.0319 77.1762 93.0444 77.7998 92.865 78.7005C92.865 78.7005 92.9287 78.8959 92.9356 78.9158C92.7275 78.8616 92.7781 78.9024 92.6587 78.7632C92.5494 77.246 92.6794 75.3304 92.635 73.7523C92.5975 72.4239 92.645 70.9465 92.655 69.6043C92.6562 69.4437 92.7187 69.2948 92.8125 69.1602Z" fill="white"/>
<path d="M74.3662 73.3193C74.4431 73.4113 74.7037 73.7363 74.7031 73.8271C74.6925 75.1337 74.8362 77.5484 74.7062 78.7427C74.6637 78.8161 74.6481 78.8569 74.5638 78.8877C74.205 76.9277 74.4194 75.3115 74.3662 73.3193Z" fill="white"/>
<path d="M93.1669 78.9058C94.86 78.8939 96.5531 78.8926 98.2456 78.9019C98.3775 78.9934 98.3644 78.9552 98.3894 79.0846C98.2387 79.2468 93.4287 79.3092 93.1069 79.0278L93.1669 78.9058Z" fill="white"/>
<path d="M116.411 76.6954L116.372 76.5902C116.299 76.6841 116.262 76.7005 116.159 76.7584L116.067 76.7269C116.025 76.2031 116.002 73.7212 116.086 73.3128L116.169 73.2666C116.261 73.3178 116.328 73.3169 116.432 73.3264C116.439 73.8336 116.514 76.3804 116.411 76.6954Z" fill="white"/>
<path d="M116.059 69.632L116.316 69.6152C116.716 70.0493 116.149 70.6574 116.542 71.2804C116.686 71.4103 116.901 71.4058 117.101 71.4242C116.933 71.5617 116.785 71.5632 116.573 71.5736C115.865 71.3617 116.035 70.1993 116.059 69.632Z" fill="white"/>
<path d="M87.1812 75.8027C88.0656 75.7235 89.3737 75.7577 90.2881 75.7702C90.1344 75.8018 90.0662 75.8223 89.92 75.8768L89.9931 75.8996C89.5431 76.1331 88.4337 76.0975 87.92 76.0475C87.5081 76.0073 87.6287 75.858 87.1812 75.8027Z" fill="white"/>
<path d="M55.7411 74.3594L55.9814 74.3715C56.1536 74.6529 56.168 75.4295 55.9816 75.7096C55.9199 75.7247 55.8125 75.7547 55.7532 75.7583C55.7007 75.4925 55.7225 74.6494 55.7411 74.3594Z" fill="white"/>
<path d="M24.2696 66H30.4692L30.4815 66.2331C30.9232 66.4804 31.4335 66.5484 31.8588 66.7584C31.9378 66.7974 31.902 66.9643 31.9214 67.0392C31.9311 67.0765 32.2299 67.1824 32.2141 67.1658C32.6663 67.6403 32.954 68.2227 33.1056 68.7734C33.2119 68.767 33.2715 68.7541 33.3616 68.8092C33.4289 69.3577 33.4609 71.1248 33.3436 71.6147C33.2364 71.6854 33.241 71.6589 33.0776 71.6461C33.0539 71.7891 33.0514 72.1718 33.0223 72.2256C32.6369 72.9408 31.9934 73.0017 32.4829 73.8909C32.7016 73.9945 33.0576 75.001 33.1126 75.2562L33.3165 75.1416C33.4575 75.3146 33.4662 78.2379 33.2859 78.3919L33.1261 78.3976L33.1264 78.3985C33.0332 78.7121 32.7682 79.6432 32.5492 79.8734L32.3509 79.8741C32.2785 79.9829 32.2792 80.1279 32.2851 80.1219C31.7644 80.6628 30.9282 81.276 30.2409 81.6406C30.0996 81.7156 29.9304 81.55 29.6749 81.7451L29.6684 82H17.9447C18.0336 81.2843 18.7259 79.4298 19.1343 78.8429C19.132 78.7754 19.1326 78.4771 19.1538 78.4465C19.7722 77.5593 20.3981 75.114 20.9901 74.3323C20.9788 73.5542 21.6217 73.0487 21.7204 72.2778C21.7797 71.8845 21.8054 72.0514 22.0041 71.6765L21.972 71.6154C21.5251 71.5361 18.6807 71.5367 18.0999 71.6554C18.067 71.6622 17.9886 71.8475 17.9641 71.8982L17.7252 71.8992C17.6083 72.1906 17.7637 72.3543 17.6286 72.5837L17.4141 72.5996C17.1864 72.9287 17.5041 73.4297 17.1159 73.5107C16.7602 73.585 17.048 74.1163 16.8902 74.3358L16.6605 74.3719C16.5209 74.7895 16.6284 75.0151 16.2616 75.3411C16.2093 75.3876 16.2671 75.976 16.1567 76.1143C15.5484 76.2625 16.0651 76.7935 15.7652 77.1211L15.5532 77.1415C15.3921 77.641 15.1921 78.3382 15.0784 78.844L14.8558 78.8906C14.7466 79.0599 14.4115 80.3236 14.326 80.6056C14.2206 80.6267 14.1748 80.6309 14.0683 80.636C13.9347 80.8936 14.0091 81.2757 13.9564 81.4154C13.8705 81.6434 13.6419 81.4694 13.6339 82H10.333C10.3779 81.7452 10.5907 81.4513 10.7351 81.2228C10.7375 81.1797 10.7567 80.8447 10.7568 80.8446C11.336 80.1244 12.1029 77.3435 12.56 76.8071C12.543 76.3226 12.9351 75.4386 13.2418 75.0979C13.2825 74.5871 13.9995 72.5785 14.3485 72.2947C14.3847 72.2653 14.4176 71.9379 14.429 71.8717L14.3765 71.6505C14.1713 71.4856 10.7424 71.6311 10 71.5143V71.2387C10.1975 71.1477 10.2434 71.1258 10.3188 70.9217C10.4338 70.6103 10.9584 68.9219 11.1675 68.8226C11.2804 68.7691 22.7972 68.7215 23.0343 68.8081C23.0889 68.828 23.1375 68.8592 23.1804 68.8967C23.2082 69.0781 23.2115 69.014 23.1391 69.1947C22.3521 69.5296 23.2449 70.0817 22.4919 70.276C22.4014 70.2993 22.4202 71.0032 22.4082 71.0734C22.4044 71.0961 22.0835 71.2872 22.0432 71.408L22.0405 71.4159C22.0351 71.4319 22.0324 71.4423 22.0294 71.4587C22.1406 71.577 22.1393 71.569 22.3626 71.581C22.3852 71.5822 22.4079 71.5825 22.4305 71.582L22.4151 71.7874C22.6031 71.946 23.5076 71.9242 23.7752 71.908C25.4303 71.8075 27.1936 71.9869 28.8341 71.8951C28.9346 71.8887 29.035 71.8792 29.1349 71.8665L29.2013 71.7949L29.1127 71.5864C30.3341 71.5682 29.7439 71.207 30.4335 70.8756C30.6663 70.2815 30.4298 69.0609 29.6745 68.8503C29.1946 68.7165 28.4129 68.8024 27.8951 68.7807C26.3642 68.7167 24.6226 68.9126 23.1091 68.7271C23.3153 68.4277 24.2666 66.3 24.2696 66ZM22.4038 79.2108L28.6406 79.2089C28.7342 79.2023 28.9191 79.2158 28.9666 79.1376C29.1306 78.8671 29.398 78.8903 29.6853 78.711C30.0518 78.4821 30.0345 77.9215 30.3986 77.7362C30.4746 77.6975 30.5461 76.7933 30.5079 76.6823C30.4379 75.8548 30.0336 75.2794 29.4505 74.7137C29.3398 74.7078 28.9574 74.6868 28.8746 74.6486C28.5785 74.5118 28.6774 74.3863 28.3096 74.3724C27.002 74.323 25.6247 74.3505 24.3144 74.3541C24.2749 74.5068 24.259 74.6128 24.1177 74.6732C23.8651 74.7811 23.8846 75.2343 23.7719 75.5054C23.6761 75.7359 23.5874 76.1341 23.5067 76.3805C23.4016 76.5529 23.2679 76.3714 23.2281 76.5633C23.2107 76.6476 23.166 77.0566 23.1317 77.0872C22.7037 77.4666 22.8946 77.6234 22.7657 78.1008C22.7558 78.1373 22.7236 78.1616 22.6893 78.1716C22.6491 78.1834 22.4846 78.24 22.4848 78.2388C22.4169 78.5555 22.4161 78.8881 22.4038 79.2108Z" fill="white"/>
<path d="M129.753 71.4584C130.087 71.0645 131.617 71.212 132.093 71.3557C132.174 71.6332 132.032 71.6614 132.192 71.8389C132.479 71.8553 133.109 71.2674 133.597 71.2297C134.352 71.1711 135.061 71.2094 135.814 71.2393C136.274 71.5616 136.789 71.6778 137.199 71.9774C137.266 72.0265 137.686 72.8833 137.714 73.0267C137.722 73.0686 137.941 73.1077 138 73.1185V78.8986C137.338 78.8953 136.632 78.8792 135.975 78.9242C135.894 78.921 135.837 78.8905 135.78 78.8374C135.451 78.53 135.64 75.6979 135.605 75.0826C135.579 74.6134 135.435 74.1912 135.429 73.7058C135.193 73.4034 134.063 72.7325 133.772 73.1224L133.969 73.2095C133.891 73.3024 133.043 73.2406 132.866 73.3461C132.859 73.3659 132.826 73.5595 132.823 73.5628C132.643 73.7052 132.231 73.9547 132.194 74.1958C132.086 74.8921 132.141 75.614 132.135 76.3208C132.128 77.1731 132.137 78.0314 132.139 78.8854C131.512 78.9052 130.306 78.9455 129.706 78.8622C130.044 77.7074 129.952 76.758 129.952 75.5754C129.952 74.5596 129.963 73.5361 129.916 72.5221C129.899 72.1595 129.782 71.841 129.753 71.4584Z" fill="white"/>
<path d="M129.753 71.4584C129.782 71.841 129.899 72.1595 129.916 72.5221C129.963 73.5361 129.952 74.5596 129.952 75.5754C129.952 76.758 130.044 77.7074 129.706 78.8622C129.602 78.7505 129.586 78.2966 129.602 78.1527C129.725 77.0283 129.366 72.1683 129.753 71.4584Z" fill="white"/>
<path d="M22.4305 71.582C24.4741 71.5656 27.0893 71.5106 29.1127 71.5864L29.2013 71.7949L29.1349 71.8665C29.035 71.8792 28.9346 71.8887 28.8341 71.8951C27.1936 71.9869 25.4303 71.8075 23.7752 71.908C23.5076 71.9242 22.6031 71.946 22.4151 71.7874L22.4305 71.582Z" fill="white"/>
<path d="M10 71.5143C10.7424 71.6311 14.1713 71.4856 14.3765 71.6505L14.429 71.8717C13.9742 71.949 10.559 71.906 10 71.8727V71.5143Z" fill="white"/>
<path d="M17.9641 71.8982C17.9886 71.8475 18.067 71.6622 18.0999 71.6554C18.6807 71.5367 21.5251 71.5361 21.972 71.6154L22.0041 71.6765C21.8054 72.0514 21.7797 71.8845 21.7204 72.2778C21.7 72.1278 21.6815 72.0597 21.6355 71.9147C20.6283 71.826 19.0867 71.9553 17.9641 71.8982Z" fill="white"/>
<path d="M135.975 78.9242C136.632 78.8792 137.338 78.8953 138 78.8986L138 79.0769C137.631 79.199 136.164 79.3126 135.908 79.0242L135.975 78.9242Z" fill="white"/>
</svg>
