<svg width="148" height="148" viewBox="0 0 148 148" fill="none" xmlns="http://www.w3.org/2000/svg">
<path d="M14 67.507L14.0109 67.4932C14.2365 67.204 14.292 66.8333 14.4613 66.5311C14.9758 65.6131 16.2046 64.6698 17.2909 64.5649C18.2052 64.4766 19.4543 64.5142 20.3977 64.5162L26.109 64.5214L128.306 64.5203C129.364 64.5154 130.454 64.403 131.458 64.7645C132.501 65.1404 133.25 65.9657 133.718 66.9328C133.804 67.1099 133.896 67.4229 134 67.5726V80.3872L133.989 80.4028C133.77 80.7122 133.777 80.9959 133.619 81.3173C133.166 82.2391 131.878 83.268 130.837 83.4213C130.055 83.5363 128.767 83.4922 127.92 83.4893L123.063 83.4848L19.9249 83.4899C19.1057 83.4925 18.2478 83.5245 17.4337 83.4458C16.0584 83.3128 14.903 82.3419 14.3232 81.1501C14.2245 80.947 14.1184 80.606 14 80.4398V67.507ZM130.408 82.7716C131.762 82.4303 133.183 81.5182 133.289 79.9899C133.387 78.5872 133.312 77.0486 133.313 75.6274L133.316 70.9783C133.316 69.8689 133.395 68.5521 133.167 67.4744C133.033 66.8426 132.375 66.208 131.897 65.8129C131.237 65.2461 130.443 65.1912 129.597 65.1882C126.722 65.178 123.845 65.1853 120.969 65.1859L21.3092 65.1847C20.5429 65.1841 18.3116 65.1356 17.627 65.2239C16.5508 65.4107 15.961 65.7248 15.302 66.6112C14.536 67.6415 14.6842 68.8606 14.6917 70.0626L14.6942 73.1208L14.6893 77.6358C14.6884 78.3112 14.6856 78.9834 14.6915 79.6593C14.7064 81.3632 16.2603 82.7785 17.9886 82.7852C20.4218 82.7947 22.889 82.7883 25.3389 82.7885L125.289 82.7876C126.714 82.7879 129.048 82.8577 130.408 82.7716Z" fill="white"/>
<path d="M59.1403 69.8165L62.8195 69.8061C64.8846 69.8005 68.4819 69.6153 68.1056 72.7343C68.0142 73.491 67.4084 74.033 66.8077 74.4542C67.677 74.8057 68.109 75.1631 68.3925 76.0815C68.6432 76.894 68.4624 77.6491 68.0499 78.3834C67.43 79.1985 66.8051 79.5065 65.7696 79.6511C64.2901 79.8578 62.7608 79.7557 61.266 79.7779C60.5845 79.788 59.7117 79.8339 59.0523 79.7772C58.9968 79.3405 59.0211 78.5919 59.0214 78.1311L59.0271 71.772C59.0282 71.2667 59.007 70.3614 59.0537 69.8814L59.1403 69.8165ZM62.4506 77.4563C63.2519 77.4671 64.3749 77.585 65.0145 77.1373C65.1502 76.9154 65.2294 76.7825 65.3362 76.5426C65.2132 76.1885 65.1528 75.9802 64.7755 75.8032C64.1899 75.5284 63.1225 75.6296 62.4549 75.6519C62.4655 76.2672 62.4747 76.8416 62.4506 77.4563ZM62.4616 73.7744C63.0862 73.7803 63.9727 73.8606 64.5372 73.6009C66.0184 72.0039 63.3121 72.1416 62.4606 72.157C62.4663 72.6843 62.4836 73.2502 62.4616 73.7744Z" fill="white"/>
<path d="M95.1758 69.8111C96.9893 69.8075 101.57 69.5703 103.103 70.2347C103.692 70.4896 104.175 70.8957 104.408 71.4932C104.694 72.2269 104.66 73.2092 104.332 73.9252C104.067 74.5011 103.625 74.7596 103.042 74.9762C103.583 75.5234 104.176 75.4938 104.439 76.3544C104.713 77.2243 104.653 78.1149 104.714 79.0077C104.73 79.2426 104.912 79.5834 104.824 79.7479C104.482 79.8128 103.48 79.7821 103.077 79.778C102.583 79.7735 102.039 79.7958 101.537 79.7985C100.649 77.3088 102.666 76.288 98.6041 76.3167C98.6275 77.384 98.6322 78.7406 98.6012 79.7973C97.6725 79.8348 96.176 79.7863 95.1852 79.7915C95.0527 77.6524 95.2244 75.3548 95.1594 73.1999C95.126 72.1107 95.143 70.9028 95.1758 69.8111ZM98.6053 74.0525C99.4197 74.0452 100.453 74.1426 101.151 73.8154C101.538 73.3401 101.427 72.8934 101.119 72.425C100.194 72.0445 99.6072 72.1302 98.6064 72.156C98.6064 72.7821 98.6152 73.4285 98.6053 74.0525Z" fill="white"/>
<path d="M83.2971 69.8115C85.1691 69.8088 89.5818 69.573 91.1223 70.2579C91.7668 70.5443 92.133 71.0376 92.375 71.6746C92.6855 72.4923 92.5777 73.1299 92.2156 73.8994C91.9426 74.4796 91.5658 74.7624 90.9664 74.9794C91.1691 75.1659 91.4404 75.3146 91.6678 75.4904C92.9287 76.4675 92.4178 77.7446 92.5666 79.1889L92.8789 79.6321L92.859 79.6873C92.549 79.8344 90.8381 79.7813 90.3869 79.7792C90.3131 79.7839 90.2398 79.7882 90.166 79.792C89.5074 79.8256 89.2156 79.6439 89.2777 78.9266C89.5033 76.3025 88.7416 76.2538 86.4389 76.3321C86.3826 77.3781 86.4184 78.7227 86.4189 79.791C85.6074 79.7743 83.7154 79.8468 83.0563 79.749C83.1078 76.7128 83.0264 73.6585 83.0621 70.6207C83.0644 70.4316 83.0398 70.0279 83.0973 69.8672L83.2971 69.8115ZM86.44 74.0459C87.0676 74.0496 88.4926 74.1189 88.9906 73.8814C89.2279 73.6573 89.3287 73.4715 89.3352 73.1416C89.3598 71.9485 87.5041 72.1186 86.6908 72.1557L86.481 72.2331C86.3381 72.5853 86.4195 73.632 86.44 74.0459Z" fill="white"/>
<path d="M113.016 69.7991C113.628 69.8221 115.663 69.6904 116.244 69.9409C116.582 70.2355 116.964 70.9756 117.201 71.2793C118.09 72.4165 118.857 74.0103 119.801 75.0523C119.817 73.2986 119.7 71.6434 119.755 69.8232C120.79 69.7902 121.906 69.813 122.947 69.8167C123.044 71.8246 122.901 74.16 122.96 76.2036C122.976 76.7477 122.988 79.4386 122.925 79.8016C121.92 79.773 120.914 79.7745 119.909 79.8061C119.214 79.3438 116.997 75.4453 116.196 74.5401C116.175 75.1688 116.229 75.9201 116.244 76.5622C116.262 77.6358 116.27 78.7095 116.266 79.7832C115.541 79.8341 113.836 79.7847 113.02 79.7917C112.957 76.5283 113.016 73.0777 113.016 69.7991Z" fill="white"/>
<path d="M50.6166 69.8096L53.6898 69.8145C53.8663 70.12 54.0896 70.8111 54.2206 71.1794L55.0965 73.646C55.8323 75.6908 56.6916 77.7203 57.3323 79.8091C56.4652 79.7659 54.6308 79.8568 53.9814 79.7662C53.8809 79.4146 53.7665 78.9863 53.6371 78.6429C53.592 78.5231 53.4816 78.5148 53.3609 78.4779C52.6301 78.3953 51.03 78.4456 50.3063 78.5035C50.1685 78.963 50.0441 79.3602 49.8764 79.8119C48.7643 79.7556 47.6996 79.8155 46.6026 79.7723C46.8532 78.7056 47.6831 76.6929 48.0826 75.6332L50.1703 69.9482C50.2792 69.8209 50.4461 69.8265 50.6166 69.8096ZM50.945 76.3567L51.9474 76.3761L52.929 76.376C52.8872 76.1458 52.0119 72.9898 52.0108 72.9884C51.6165 73.5896 51.1757 75.5645 50.945 76.3567Z" fill="white"/>
<path d="M73.9701 69.8097C74.5314 69.806 76.7463 69.7453 77.1658 69.8798C77.4301 70.1851 78.3758 73.0066 78.5914 73.5861L80.0463 77.5073C80.1934 77.9151 80.8092 79.4134 80.699 79.7396C80.3902 79.8241 77.8601 79.7941 77.4564 79.749C77.3633 79.3368 77.2719 78.8836 77.0885 78.5024L76.8658 78.4562C75.8814 78.4294 74.7582 78.4304 73.7809 78.4961C73.7006 79.0125 73.6086 79.3376 73.3514 79.7974C72.2919 79.7706 71.1956 79.7864 70.1316 79.7782C70.3392 78.7298 71.173 76.8024 71.5688 75.7063L73.0848 71.6023C73.2758 71.1002 73.4451 70.5592 73.6596 70.0656C73.7457 69.867 73.8008 69.865 73.9701 69.8097ZM74.4811 76.3725L75.5299 76.376L76.434 76.366C76.3484 75.9721 75.6178 73.1432 75.4408 73.0358C75.1039 74.2863 74.7652 75.0215 74.4811 76.3725Z" fill="white"/>
<path d="M36.2852 69.8125C39.3375 69.8105 42.5185 69.7639 45.5607 69.8258L45.5712 72.4672C44.9547 72.4115 43.2921 72.4545 42.6114 72.4562C42.5514 73.9949 42.5864 75.6986 42.5868 77.2494C42.5847 77.7242 42.7125 79.5153 42.428 79.7504C42.192 79.8183 39.3937 79.8093 39.1535 79.7188C39.0249 79.4715 39.0758 73.3016 39.072 72.4446C38.0704 72.4543 37.0688 72.4554 36.0672 72.4479C36.064 72.0627 36.0123 70.0498 36.1402 69.8459L36.2852 69.8125Z" fill="white"/>
<path d="M107.152 69.8084L110.55 69.8137C110.575 73.0088 110.625 76.607 110.542 79.781C109.411 79.772 108.281 79.7779 107.151 79.7987C107.112 76.5011 107.137 73.1093 107.152 69.8084Z" fill="white"/>
<path d="M125.439 69.8131C126.556 69.8029 127.674 69.807 128.791 69.8253L128.797 77.1899C128.797 77.5653 128.849 79.5607 128.712 79.7834C127.716 79.823 126.493 79.7803 125.444 79.8038C125.325 77.6491 125.487 75.3541 125.424 73.1852C125.392 72.1006 125.406 70.8998 125.439 69.8131Z" fill="white"/>
<path d="M21.3534 74.1589C21.4213 74.0067 21.9825 73.747 22.1807 73.6292C24.03 72.5297 25.968 71.5611 27.797 70.4326C27.9045 70.3662 27.9361 70.2726 27.9402 70.1571L27.752 69.9048L27.7667 69.8307C28.0879 69.9475 29.1377 71.7776 29.3258 72.1599C28.7249 72.5412 27.6984 73.0877 27.0446 73.4209C27.6011 74.4072 28.3265 75.7834 28.9826 76.6745C29.1528 76.6869 29.4728 76.7194 29.6314 76.7092L30.7904 76.7415C30.5248 76.7639 29.0977 76.7773 29.0312 76.8194C29.1834 77.1657 29.2585 77.2919 29.4729 77.6064L29.6311 77.9141L29.6845 77.9643L29.676 78.2521C29.8766 78.2617 30.0772 78.2695 30.2779 78.2755C30.4719 78.2806 31.0388 78.2911 31.1643 78.1566C31.1756 78.1445 31.172 77.9643 31.1722 77.9294L31.1632 77.8855L31.1861 77.5341L31.1933 76.7748L31.2142 76.7839L31.2723 76.7567C31.277 76.2362 31.2243 73.5748 31.3107 73.275C31.4492 74.3267 31.2795 76.2015 31.3343 77.3379C31.3491 77.6462 31.3072 78.3805 31.3846 78.6559C31.303 78.9934 30.8219 79.1011 30.8996 79.619C30.7612 79.5272 30.8044 79.5667 30.7269 79.4128C30.7605 79.2542 30.779 79.2222 30.8645 79.0834L30.9772 78.9679C31.1614 78.773 31.1698 78.5939 31.2096 78.3447C30.8738 78.2892 30.0317 78.3226 29.6921 78.3747C28.7443 78.4958 28.2599 79.0818 27.4475 79.4416L27.0188 78.552L26.8589 78.3397L26.7742 78.1427C26.7117 77.998 26.6342 77.9134 26.535 77.7915C26.4563 77.7196 26.3876 77.5431 26.3399 77.4397C25.9671 76.8809 25.0045 75.2805 24.7893 74.7139C24.2683 74.9654 22.1256 76.3428 21.7408 76.3268C21.7654 76.299 22.1621 76.0712 22.2664 75.9802C22.4001 75.5895 21.6968 74.3809 21.3534 74.1589Z" fill="white"/>
<path d="M27.9857 70.581C28.2379 70.6805 28.8911 71.8521 29.0059 72.1408C28.2714 72.5103 27.4912 72.8763 26.8128 73.343C27.1612 73.9082 29.4216 77.5312 29.3784 77.9794C29.3584 78.1869 27.8514 78.9485 27.584 79.1708C27.1867 78.6116 26.5928 77.6311 26.2537 77.0322C25.7226 76.1766 25.2461 75.3344 24.7378 74.4682C24.1234 74.8124 23.2189 75.4153 22.6338 75.6725C22.3761 75.3309 21.8983 74.4683 21.6618 74.0665C23.0158 73.4288 24.4157 72.4779 25.7645 71.7879C26.5163 71.4032 27.1873 70.922 27.9857 70.581Z" fill="white"/>
<path d="M19.3403 68.1017C19.8205 68.1205 20.3553 68.1227 20.8379 68.1123C24.1089 68.0418 27.4761 68.2195 30.7393 68.0835C30.7556 68.4801 30.7531 68.7771 30.7347 69.1738C30.6583 69.3578 30.6864 69.3125 30.7803 69.5491C29.9919 69.5773 29.2109 69.5572 28.4289 69.5823C27.7117 69.6053 27.0242 69.7312 26.2925 69.6559C26.1907 69.6454 25.9627 69.7058 25.873 69.6929L25.8156 69.6731C25.6545 69.6257 25.407 69.5637 25.2409 69.5861C23.8967 69.7677 22.5846 69.5073 21.2401 69.587C21.1225 69.594 20.9831 69.5867 20.865 69.5834C20.8476 70.0367 20.8397 70.4903 20.8413 70.9439L20.9012 71.2218L20.8658 71.4295L20.9378 71.4913C21.1089 71.4323 21.2337 71.3764 21.3979 71.3008L21.4426 71.3952C21.2255 71.5054 21.1712 71.4879 21.07 71.6789C21.1103 71.8829 21.1995 72.0772 21.2248 72.223C20.999 72.1072 21.0418 71.9357 20.8754 71.8692C20.6811 72.0978 20.7755 72.3692 20.9957 72.5474L20.8532 72.7541L20.8868 72.8472C21.1244 72.9197 21.0939 72.8697 21.1934 73.04L21.1858 73.1659C21.0554 73.1642 21.0044 73.1443 20.8836 73.107C20.8037 73.2287 20.8355 73.6187 20.8617 73.7587L20.9701 73.8667C20.8775 74.0421 20.8494 74.0209 20.8936 74.1705C21.055 74.2219 21.1129 74.2211 21.281 74.2272C20.7493 74.5826 20.8302 74.8568 20.8858 75.4658C20.923 75.4789 21.0059 75.5113 21.0408 75.5142L21.142 75.5704C20.9875 75.7081 20.8897 75.7715 20.8623 75.972C20.9487 76.1615 20.938 76.1139 21.1327 76.2484C21.0594 76.325 20.816 76.5224 20.8139 76.573C20.9506 76.6246 21.0526 76.6229 21.1863 76.5579C21.2517 76.6003 21.3476 76.6562 21.3951 76.713L21.3717 76.7683C21.1205 76.815 21.0328 76.7897 20.8618 76.9439C20.7924 77.1086 20.8556 77.3603 20.8846 77.5441C20.9254 77.7725 20.8989 77.8645 20.8087 78.0841C21.0151 78.3207 21.4569 78.2778 21.7588 78.2864L21.6781 78.38L20.9387 78.3441C20.8855 78.4732 20.8772 78.4996 20.9115 78.6341C21.0586 78.7046 21.3996 78.6309 21.5975 78.633L21.5637 78.7218C21.3053 78.8039 21.1202 78.7107 20.9128 78.81L20.8603 78.9979C20.6133 78.9932 20.3505 78.9726 20.1174 79.0493C20.0164 79.0647 19.4638 79.0548 19.3302 79.0543L19.3403 68.1017Z" fill="white"/>
<path d="M29.6921 78.3747C30.0647 78.3784 30.8669 78.3996 31.2096 78.3447C31.1698 78.5939 31.1614 78.773 30.9772 78.9679C30.7966 78.7834 30.7806 78.7367 30.4824 78.7246C30.2086 78.7136 29.3375 78.642 29.119 78.7636C28.5855 79.0606 27.7776 79.8941 27.1025 79.4485C26.8702 79.2613 27.1228 78.6789 26.3069 78.7116C25.6013 78.74 23.6125 78.6529 23.0197 78.7844L22.9764 78.827L23.1477 78.8917C23.3351 79.3366 23.219 79.9516 23.7161 79.9902C25.9107 80.1611 28.2066 80.0029 30.4063 80.0418C30.3976 79.6559 30.3258 79.3209 30.582 79.0576C30.7665 79.0214 30.7087 79.0068 30.8645 79.0834C30.779 79.2222 30.7605 79.2542 30.7269 79.4128C30.8044 79.5667 30.7612 79.5272 30.8996 79.619C30.8219 79.1011 31.303 78.9934 31.3846 78.6559C31.6579 78.316 31.9725 78.2335 32.1693 78.7049C32.308 78.9391 32.3048 78.8589 32.2713 79.0907L32.0868 79.2128C32.1602 79.2682 32.2223 79.3167 32.2919 79.3766C32.3066 79.5358 32.3113 79.5734 32.2439 79.721L32.0615 79.8124L32.0772 79.8876L32.2837 79.999L32.3004 80.1092C32.1678 80.2263 31.8003 80.198 31.5774 80.2071C31.4428 79.9981 31.6305 79.7869 31.4927 79.642L31.42 79.6939C31.4029 79.8663 31.4264 80.1362 31.3432 80.22L31.1411 80.2035C31.0166 80.0396 31.1377 79.8464 31.0244 79.6905C30.9829 79.8663 30.9435 80.0425 30.9064 80.2191L30.7278 80.221C30.6108 80.071 30.6651 79.9315 30.6628 79.6999L30.5731 79.7042C30.5 79.8474 30.5553 80.1955 30.4122 80.1963C28.44 80.2076 25.1321 80.2838 23.2955 80.2062L23.2189 80.1517L23.1822 79.5754L23.1731 79.4965L23.0676 79.4653C22.9794 79.2017 22.8215 79.0388 22.6435 78.8248C22.6796 78.7518 22.7138 78.6775 22.773 78.6196C22.9329 78.4634 26.4781 78.5508 27.0188 78.552L27.4475 79.4416C28.2599 79.0818 28.7443 78.4958 29.6921 78.3747ZM31.2983 79.4863C31.4864 79.2253 31.5805 79.1447 31.8229 78.9314L31.7792 78.8855L31.6717 78.893C31.5236 79.0357 31.2468 79.2787 31.1585 79.4478L31.1884 79.5283L31.2983 79.4863Z" fill="white"/>
<path d="M31.6717 78.893L31.7792 78.8855L31.8229 78.9314C31.5805 79.1447 31.4864 79.2253 31.2983 79.4863L31.1884 79.5283L31.1585 79.4478C31.2468 79.2787 31.5236 79.0357 31.6717 78.893Z" fill="white"/>
<path d="M32.2787 75.7859C32.2613 75.7509 32.2368 75.6858 32.2093 75.6675L32.2911 75.6096C32.4944 75.8305 32.4456 75.821 32.4683 76.1647C32.4852 77.4579 32.543 79.0908 32.4845 80.3663C31.3217 80.2703 28.7463 80.3191 27.5219 80.3335C25.3425 80.3591 22.8671 80.2675 20.7207 80.344C20.7557 79.5946 21.0587 79.0172 20.1174 79.0493C20.3505 78.9726 20.6133 78.9932 20.8603 78.9979C21.0169 79.3157 20.8621 79.6282 20.9968 79.9232C21.2295 79.9923 21.3305 79.9039 21.5152 79.7639C21.6776 79.9091 21.9704 80.1745 22.1888 80.1999L22.2163 80.1856C22.232 79.7573 21.6949 79.4256 21.7315 79.3036C22.2604 79.4461 22.1409 79.8909 22.3268 80.1562C22.364 80.2093 22.9287 80.1901 23.0858 80.1994C23.086 80.0145 23.0515 79.6831 23.1389 79.5568L23.1822 79.5754L23.2189 80.1517L23.2955 80.2062C25.1321 80.2838 28.44 80.2076 30.4122 80.1963C30.5553 80.1955 30.5 79.8474 30.5731 79.7042L30.6628 79.6999C30.6651 79.9315 30.6108 80.071 30.7278 80.221L30.9064 80.2191C30.9435 80.0425 30.9829 79.8663 31.0244 79.6905C31.1377 79.8464 31.0166 80.0396 31.1411 80.2035L31.3432 80.22C31.4264 80.1362 31.4029 79.8663 31.42 79.6939L31.4927 79.642C31.6305 79.7869 31.4428 79.9981 31.5774 80.2071C31.8003 80.198 32.1678 80.2263 32.3004 80.1092L32.2837 79.999L32.0772 79.8876L32.0615 79.8124L32.2439 79.721C32.3113 79.5734 32.3066 79.5358 32.2919 79.3766C32.2223 79.3167 32.1602 79.2682 32.0868 79.2128L32.2713 79.0907C32.3048 78.8589 32.308 78.9391 32.1693 78.7049C32.3684 78.4334 32.284 76.2466 32.2787 75.7859Z" fill="white"/>
<path d="M20.8617 73.7587C20.9591 73.7229 21.6855 73.2863 21.7419 73.1827C21.6622 72.9924 21.5323 72.954 21.3363 72.8209L21.3298 72.7438C21.7313 72.5202 24.1502 71.1077 24.3039 71.1374C24.1824 71.3477 24.2934 71.5881 24.3511 71.8801C24.6569 71.6174 24.7836 71.5092 25.1561 71.3537L25.1507 71.5259L22.2053 73.1712C22.0026 73.2855 21.1276 73.8094 20.9701 73.8667L20.8617 73.7587ZM21.9012 73.1592C22.4753 72.8669 23.0596 72.5785 23.6198 72.263C23.9548 72.0744 24.4206 71.7726 24.0926 71.3527L24.0478 71.3485C23.6377 71.5722 21.9161 72.5075 21.66 72.7239C21.6443 72.8375 21.8189 73.0389 21.9012 73.1592Z" fill="white"/>
<path d="M26.3399 77.4397C26.3876 77.5431 26.4563 77.7196 26.535 77.7915C25.7237 78.1877 22.3025 77.8715 21.2398 77.9176C20.9576 77.9299 21.0136 77.8378 20.8087 78.0841C20.8989 77.8645 20.9254 77.7725 20.8846 77.5441C21.6032 77.4882 26.0419 77.6549 26.3399 77.4397Z" fill="white"/>
<path d="M21.3534 74.1589C21.6968 74.3809 22.4001 75.5895 22.2664 75.9802C22.1621 76.0712 21.7654 76.299 21.7408 76.3268L21.6298 76.668L21.5462 76.4914C21.3663 76.4353 21.4052 76.4612 21.1863 76.5579C21.0526 76.6229 20.9506 76.6246 20.8139 76.573C20.816 76.5224 21.0594 76.325 21.1327 76.2484C20.938 76.1139 20.9487 76.1615 20.8623 75.972C20.8897 75.7715 20.9875 75.7081 21.142 75.5704C21.2807 75.5 21.7099 75.296 21.764 75.1704C21.5261 75.1965 21.2524 75.3881 21.0408 75.5142C21.0059 75.5113 20.923 75.4789 20.8858 75.4658C20.8302 74.8568 20.7493 74.5826 21.281 74.2272L21.3534 74.1589Z" fill="white"/>
<path d="M26.535 77.7915C26.6342 77.9134 26.7117 77.998 26.7742 78.1427C26.4063 78.346 23.1827 78.1258 22.4786 78.2573C22.228 78.2692 22.0188 78.3444 21.7588 78.2864C21.4569 78.2778 21.0151 78.3207 20.8087 78.0841C21.0136 77.8378 20.9576 77.9299 21.2398 77.9176C22.3025 77.8715 25.7237 78.1877 26.535 77.7915Z" fill="white"/>
<path d="M32.4671 72.6856C32.5444 73.0979 32.5456 75.7101 32.4683 76.1647C32.4456 75.821 32.4944 75.8305 32.2911 75.6096L32.2093 75.6675C32.2368 75.6858 32.2613 75.7509 32.2787 75.7859C32.2003 75.7908 32.1556 75.7601 32.0858 75.7248C31.9319 75.3741 32.026 74.2785 32.0161 73.8626C32.009 73.5605 32.1114 73.6128 32.3005 73.4305C32.2915 73.5079 32.2901 73.5893 32.2873 73.6674L32.3422 73.6615C32.4606 73.2665 32.4577 73.1004 32.4671 72.6856Z" fill="white"/>
<path d="M30.7803 69.5491C30.6864 69.3125 30.6583 69.3578 30.7347 69.1738L30.7696 69.3181C31.0145 69.4524 32.1454 69.3802 32.5099 69.3914C32.44 70.4277 32.4675 71.6338 32.4671 72.6856C32.4577 73.1004 32.4606 73.2665 32.3422 73.6615L32.2873 73.6674C32.2901 73.5893 32.2915 73.5079 32.3005 73.4305L32.2576 73.0518L32.2499 72.9337C32.3193 72.5714 32.2878 70.0212 32.2864 69.4908C31.7943 69.5158 31.2663 69.4707 30.7803 69.5491Z" fill="white"/>
<path d="M25.8156 69.6731L25.873 69.6929C25.635 70.0981 24.7202 70.3955 24.5493 70.5531C24.163 70.4797 24.1397 70.7422 23.7943 70.6896C23.7741 70.6865 23.6981 70.4666 23.552 70.4267C23.1542 70.2926 21.8667 71.1797 21.4426 71.3952L21.3979 71.3008C21.6874 71.0801 23.7762 69.9047 24.0526 69.9001C24.0291 70.0554 24.0728 70.252 24.2162 70.3339C24.6124 70.5602 25.4765 69.8976 25.8156 69.6731Z" fill="white"/>
<path d="M21.1863 76.5579C21.4052 76.4612 21.3663 76.4353 21.5462 76.4914L21.6298 76.668C22.0107 76.6682 25.561 76.6435 25.7185 76.7195C25.199 76.8808 22.0997 76.9251 21.549 76.7798C22.746 76.7404 24.047 76.8418 25.2393 76.7482C24.9537 76.7099 24.1991 76.725 23.8764 76.7242L21.3951 76.713C21.3476 76.6562 21.2517 76.6003 21.1863 76.5579Z" fill="white"/>
<path d="M26.7742 78.1427L26.8589 78.3397C26.4634 78.4143 22.8778 78.4004 22.4649 78.3578C22.7178 78.3089 23.4216 78.3232 23.7106 78.3212C24.7024 78.3143 25.5893 78.3768 26.58 78.2788C25.4892 78.2012 23.6617 78.2842 22.4786 78.2573C23.1827 78.1258 26.4063 78.346 26.7742 78.1427Z" fill="white"/>
<path d="M31.1722 77.9294C31.172 77.9643 31.1756 78.1445 31.1643 78.1566C31.0388 78.2911 30.4719 78.2806 30.2779 78.2755C30.0772 78.2695 29.8766 78.2617 29.676 78.2521L29.6845 77.9643C29.8806 77.9336 30.823 77.9565 31.1722 77.9294Z" fill="white"/>
<path d="M22.623 71.4634L22.76 71.5397C22.2665 71.8398 21.3948 72.264 20.9957 72.5474C20.7755 72.3692 20.6811 72.0978 20.8754 71.8692C21.0418 71.9357 20.999 72.1072 21.2248 72.223C21.4007 72.1912 22.4164 71.5833 22.623 71.4634Z" fill="white"/>
<path d="M31.1861 77.5341L31.1632 77.8855C30.8042 77.7226 29.9755 77.686 29.6311 77.9141L29.4729 77.6064C29.8819 77.506 30.739 77.5324 31.1861 77.5341Z" fill="white"/>
<path d="M22.4786 78.2573C23.6617 78.2842 25.4892 78.2012 26.58 78.2788C25.5893 78.3768 24.7024 78.3143 23.7106 78.3212C23.4216 78.3232 22.7178 78.3089 22.4649 78.3578C22.1936 78.3502 22.2129 78.5015 21.8816 78.5956C21.7164 78.5222 21.7644 78.5555 21.6781 78.38L21.7588 78.2864C22.0188 78.3444 22.228 78.2692 22.4786 78.2573Z" fill="white"/>
<path d="M20.8413 70.9439L20.8594 70.9424C21.3195 70.9011 22.689 70.0274 23.2483 69.7855C23.1568 70.0168 21.3355 70.9286 20.9012 71.2218L20.8413 70.9439Z" fill="white"/>
<path d="M31.1833 76.6695C31.2251 75.9109 31.1263 73.455 31.217 72.9288L31.3807 73.0636L31.3107 73.275C31.2243 73.5748 31.277 76.2362 31.2723 76.7567L31.2142 76.7839L31.1933 76.7748L31.0886 76.7865L30.9723 76.7478L31.1833 76.6695Z" fill="white"/>
<path d="M23.552 70.4267C23.6981 70.4666 23.7741 70.6865 23.7943 70.6896C24.1397 70.7422 24.163 70.4797 24.5493 70.5531C23.8755 70.8691 23.3995 71.2026 22.76 71.5397L22.623 71.4634C22.8423 71.345 23.0621 71.239 23.2836 71.1255C23.7083 70.9079 23.7022 70.7952 23.552 70.4267Z" fill="white"/>
<path d="M29.6311 77.9141C29.9755 77.686 30.8042 77.7226 31.1632 77.8855L31.1722 77.9294C30.823 77.9565 29.8806 77.9336 29.6845 77.9643L29.6311 77.9141Z" fill="white"/>
<path d="M27.1627 70.264L27.1954 70.368C26.6342 70.6855 26.0688 70.9959 25.4995 71.2992L25.463 71.1796C26.0255 70.8673 26.5921 70.5621 27.1627 70.264Z" fill="white"/>
<path d="M21.3717 76.7683L21.3951 76.713L23.8764 76.7242C24.1991 76.725 24.9537 76.7099 25.2393 76.7482C24.047 76.8418 22.746 76.7404 21.549 76.7798L21.3717 76.7683Z" fill="white"/>
<path d="M31.1833 76.6695L30.9723 76.7478L31.0886 76.7865C30.8738 76.8545 29.2992 76.8548 29.0312 76.8194C29.0977 76.7773 30.5248 76.7639 30.7904 76.7415L29.6314 76.7092C29.944 76.6629 30.8223 76.6725 31.1833 76.6695Z" fill="white"/>
<path d="M31.217 72.9288C31.4306 72.862 32.0199 72.8855 32.2499 72.9337L32.2576 73.0518C31.9521 73.042 31.6861 73.0514 31.3807 73.0636L31.217 72.9288Z" fill="white"/>
<path d="M23.0676 79.4653C22.9315 79.4387 22.3949 78.8039 22.2758 78.6535C22.4148 78.6464 22.5253 78.7446 22.6435 78.8248C22.8215 79.0388 22.9794 79.2017 23.0676 79.4653Z" fill="white"/>
<path d="M21.0408 75.5142C21.2524 75.3881 21.5261 75.1965 21.764 75.1704C21.7099 75.296 21.2807 75.5 21.142 75.5704L21.0408 75.5142Z" fill="white"/>
<path d="M27.1627 70.264C27.3603 70.1192 27.3051 70.1865 27.3879 69.9418C27.5225 69.9748 27.5306 70.0256 27.6385 70.1446C27.5786 70.2491 27.331 70.3017 27.1954 70.368L27.1627 70.264Z" fill="white"/>
<path d="M31.2096 78.3447C30.8738 78.2892 30.0317 78.3226 29.6921 78.3747C30.0647 78.3784 30.8669 78.3996 31.2096 78.3447Z" fill="white"/>
<path d="M25.463 71.1796L25.4995 71.2992L25.1507 71.5259L25.1561 71.3537C25.1901 71.3279 25.4123 71.2079 25.463 71.1796Z" fill="white"/>
</svg>
