<svg width="148" height="148" viewBox="0 0 148 148" fill="none" xmlns="http://www.w3.org/2000/svg">
<path d="M99.6455 69.2734H95.3579L99.6455 73.4198H93.5826V65.6L99.6455 69.2734ZM94.8826 70.5764L94.4503 70.2609L94.5159 70.7842L93.975 70.7181L94.3037 71.1387L93.8003 71.3467L94.3037 71.5523L93.975 71.9706L94.5163 71.9068L94.4503 72.4325L94.8852 72.1146L95.0978 72.6017L95.3106 72.1146L95.7455 72.4325L95.6769 71.909L96.2205 71.9753L95.892 71.5547L96.3931 71.3489L95.892 71.1409L96.2182 70.7181L95.6746 70.7797L95.7455 70.2609L95.3106 70.5786L95.0955 70.0917L94.8826 70.5764ZM95.1049 67.9041L94.9537 67.7099L94.8898 67.9385L94.6724 67.8128L94.7102 68.0573L94.4572 68.0207L94.5872 68.2334L94.3508 68.295L94.5519 68.4414L94.4526 68.5167C94.2043 68.3754 94.0128 68.1571 93.909 67.8972C93.9087 68.0507 93.9396 68.2027 94.0002 68.3446C94.0608 68.4864 94.1498 68.6153 94.2619 68.7238C94.3742 68.8323 94.5074 68.9186 94.6541 68.9772C94.8008 69.0358 94.958 69.0656 95.1167 69.0654L95.0978 69.0631C95.4181 69.0631 95.7253 68.94 95.9518 68.7209C96.1783 68.5019 96.3057 68.2048 96.3057 67.895C96.2008 68.1537 96.0095 68.371 95.7621 68.5122L95.6603 68.439L95.8613 68.2928L95.625 68.2309L95.7549 68.0184L95.5019 68.055L95.5398 67.8128L95.32 67.9385L95.2561 67.7099L95.1049 67.9041Z" fill="white"/>
<path d="M25.4084 69.1865C25.0304 68.9846 24.6349 68.8148 24.2265 68.6791C23.8271 68.5534 23.4725 68.4345 23.17 68.3271C22.9135 68.2474 22.6763 68.1183 22.4727 67.9476C22.3959 67.8758 22.336 67.7888 22.2972 67.6926C22.2585 67.5963 22.2417 67.493 22.2482 67.3899C22.2394 67.2695 22.2616 67.1489 22.3128 67.0388C22.3639 66.9287 22.4424 66.8326 22.5413 66.759C22.7671 66.6027 23.0418 66.5268 23.3189 66.5441C23.4725 66.5335 23.6267 66.5536 23.7718 66.6031C23.917 66.6527 24.0501 66.7306 24.1627 66.8321C24.3541 67.013 24.4644 67.2592 24.47 67.5179V67.6459H26.4176V67.5087C26.4126 67.0347 26.2666 66.572 25.9969 66.1761C25.7264 65.7954 25.3527 65.494 24.9167 65.3052C24.4247 65.1038 23.8958 65 23.3615 65C22.8271 65 22.2982 65.1038 21.8062 65.3052C21.3734 65.4916 21.0016 65.7888 20.7307 66.1647C20.4605 66.5586 20.3257 67.025 20.3455 67.4973C20.3331 67.766 20.3758 68.0344 20.4711 68.287C20.5664 68.5397 20.7125 68.7716 20.9009 68.9694C21.3464 69.3782 21.8847 69.6804 22.4727 69.8517L23.6191 70.2311C23.9178 70.3199 24.1945 70.467 24.4322 70.6632C24.527 70.7513 24.6011 70.8582 24.6492 70.9765C24.6973 71.0949 24.7185 71.2219 24.7111 71.3489C24.7165 71.4768 24.6906 71.604 24.6356 71.7204C24.5805 71.8368 24.4979 71.939 24.3944 72.0187C24.1343 72.2032 23.8159 72.2945 23.4938 72.2769C23.3057 72.2877 23.1173 72.2617 22.9398 72.2004C22.7623 72.1391 22.5995 72.0439 22.4609 71.9204C22.2163 71.686 22.0756 71.3687 22.0685 71.0358V70.9077H20.1375V71.0426C20.1262 71.5757 20.2811 72.0998 20.5818 72.5467C20.8779 72.9604 21.2871 73.2865 21.7636 73.4884C22.3056 73.7124 22.8904 73.8231 23.4796 73.813C24.0773 73.8324 24.6709 73.7116 25.2098 73.461C25.6497 73.2513 26.0192 72.9256 26.2758 72.5215C26.5147 72.1372 26.6398 71.6968 26.6375 71.2483C26.6561 70.8015 26.5377 70.3593 26.2971 69.9774C26.0712 69.6483 25.7663 69.3769 25.4084 69.1865Z" fill="white"/>
<path d="M35.7162 71.2849L34.0735 65.1452H32.1424L30.4524 71.2941L29.0224 65.1795L29.0129 65.1452H27.0535L29.384 73.6713H31.4356L33.076 67.9225L34.6667 73.6713H36.7325L39.1245 65.1452H37.1509L35.7162 71.2849Z" fill="white"/>
<path d="M41.7789 65.1452H39.9424V73.6713H41.7789V65.1452Z" fill="white"/>
<path d="M48.1276 69.1865C47.7496 68.9846 47.3542 68.8148 46.9458 68.6791C46.5558 68.5579 46.2013 68.4505 45.8893 68.3271C45.6372 68.2454 45.4043 68.1165 45.2038 67.9476C45.127 67.8758 45.0671 67.7888 45.0283 67.6926C44.9896 67.5963 44.9728 67.493 44.9793 67.3899C44.9705 67.2695 44.9927 67.1489 45.0438 67.0388C45.095 66.9287 45.1735 66.8326 45.2724 66.759C45.4983 66.6031 45.773 66.5272 46.05 66.5441C46.2018 66.5337 46.3541 66.5539 46.4973 66.6035C46.6406 66.6531 46.7716 66.731 46.882 66.8321C47.073 67.0134 47.184 67.2592 47.1916 67.5179V67.6459H49.1393V67.5087C49.1301 67.0361 48.9808 66.576 48.7091 66.183C48.4386 65.8022 48.0649 65.5009 47.6289 65.3121C47.1368 65.1107 46.608 65.0069 46.0736 65.0069C45.5393 65.0069 45.0104 65.1107 44.5184 65.3121C44.0856 65.4985 43.7137 65.7957 43.4429 66.1715C43.1736 66.5658 43.0396 67.0321 43.06 67.5042C43.0476 67.7728 43.0903 68.0412 43.1857 68.2939C43.281 68.5465 43.4271 68.7784 43.6155 68.9762C44.0582 69.3838 44.5932 69.6859 45.1778 69.8586L46.3242 70.238C46.6229 70.3268 46.8996 70.4738 47.1373 70.67C47.2321 70.7581 47.3062 70.865 47.3543 70.9834C47.4024 71.1018 47.4235 71.2288 47.4162 71.3558C47.4216 71.4836 47.3957 71.6109 47.3406 71.7273C47.2856 71.8436 47.203 71.9458 47.0995 72.0255C46.8081 72.2096 46.4637 72.2993 46.1161 72.2816C45.7686 72.264 45.4358 72.1399 45.166 71.9272C44.9214 71.6928 44.7807 71.3756 44.7736 71.0426V70.9146H42.8544V71.0495C42.8481 71.5814 43.007 72.103 43.3105 72.5467C43.6067 72.9604 44.0158 73.2865 44.4924 73.4884C45.0343 73.7124 45.6191 73.8231 46.2084 73.813C46.8028 73.8309 47.393 73.7102 47.9291 73.461C48.3694 73.252 48.7391 72.9261 48.9951 72.5215C49.2339 72.1372 49.359 71.6968 49.3567 71.2483C49.3753 70.8015 49.2569 70.3593 49.0164 69.9774C48.7912 69.6477 48.4861 69.3762 48.1276 69.1865Z" fill="white"/>
<path d="M55.4124 69.1865C55.0347 68.984 54.6392 68.8142 54.2305 68.6791C53.8405 68.5579 53.4836 68.4505 53.174 68.3271C52.9217 68.246 52.6886 68.117 52.4885 67.9476C52.4117 67.8758 52.3518 67.7888 52.3131 67.6926C52.2743 67.5963 52.2576 67.493 52.264 67.3899C52.2552 67.2695 52.2774 67.1489 52.3286 67.0388C52.3797 66.9287 52.4582 66.8326 52.5571 66.759C52.7815 66.6017 53.0559 66.5256 53.3324 66.5441C53.4844 66.5349 53.6367 66.5557 53.7802 66.6052C53.9236 66.6547 54.0551 66.7319 54.1667 66.8321C54.357 67.0137 54.4672 67.2595 54.474 67.5179V67.6459H56.4216V67.5087C56.4166 67.0347 56.2706 66.572 56.0009 66.1761C55.7304 65.7954 55.3567 65.494 54.9207 65.3052C54.4287 65.1038 53.8998 65 53.3655 65C52.8311 65 52.3022 65.1038 51.8102 65.3052C51.3768 65.4906 51.0047 65.788 50.7347 66.1647C50.4656 66.5591 50.3308 67.0251 50.3495 67.4973C50.3375 67.7661 50.3807 68.0346 50.4764 68.2872C50.5721 68.5398 50.7186 68.7717 50.9073 68.9694C51.35 69.377 51.885 69.6791 52.4696 69.8517L53.616 70.2311C53.9147 70.3199 54.1914 70.467 54.4291 70.6632C54.5236 70.7514 54.5973 70.8584 54.6451 70.9767C54.6928 71.0951 54.7135 71.2221 54.7056 71.3489C54.7115 71.4785 54.6852 71.6076 54.6288 71.7253C54.5725 71.843 54.4878 71.946 54.3818 72.0255C54.0904 72.2096 53.7461 72.2993 53.3985 72.2816C53.0509 72.264 52.7182 72.1399 52.4484 71.9272C52.2038 71.6928 52.063 71.3756 52.056 71.0426V70.9146H50.1367V71.0495C50.1314 71.5823 50.2929 72.1043 50.6 72.5467C50.8961 72.9604 51.3053 73.2865 51.7818 73.4884C52.3237 73.7124 52.9086 73.8231 53.4978 73.813C54.09 73.8304 54.6777 73.7097 55.2115 73.461C55.6422 73.2612 56.0053 72.9471 56.2585 72.5554C56.5117 72.1636 56.6445 71.7103 56.6415 71.2483C56.6589 70.8016 56.5406 70.3598 56.3011 69.9774C56.0759 69.6477 55.7708 69.3762 55.4124 69.1865Z" fill="white"/>
<path d="M66.0298 68.5785H62.4725V65.1452H60.636V73.6713H62.4725V70.0734H66.0298V73.6713H67.8664V65.1452H66.0298V68.5785Z" fill="white"/>
<path d="M69.2515 73.6713H75.1015V72.1901H71.088V70.0734H74.7351V68.6265H71.088V66.6264H75.1015V65.1452H69.2515V73.6713Z" fill="white"/>
<path d="M78.1411 65.1452H76.3022V73.6713H81.9229V72.2244H78.1411V65.1452Z" fill="white"/>
<path d="M88.0825 65.4904C87.5323 65.2441 86.93 65.1258 86.324 65.1452H83.0267V73.6713H84.8727V70.4712H86.3335C86.9501 70.4926 87.5627 70.3678 88.118 70.1077C88.5597 69.8912 88.9238 69.5511 89.1627 69.1317C89.3864 68.726 89.501 68.2725 89.496 67.8128C89.5042 67.3346 89.3854 66.8624 89.1509 66.4413C88.9033 66.0264 88.5306 65.6946 88.0825 65.4904ZM87.6264 67.815C87.6341 67.9695 87.6098 68.1238 87.555 68.269C87.5002 68.4143 87.416 68.5475 87.3073 68.6608C87.0945 68.8665 86.7305 68.9717 86.2271 68.9717H84.8727V66.6379H86.2365C86.74 66.6379 87.104 66.743 87.3167 66.9487C87.4255 67.0658 87.5089 67.2028 87.5621 67.3516C87.6153 67.5004 87.6371 67.658 87.6264 67.815Z" fill="white"/>
<path d="M108.046 70.6563L104.243 65.1452H102.47V73.6713H104.307V68.1716L108.095 73.6507L108.11 73.6713H109.882V65.1452H108.046V70.6563Z" fill="white"/>
<path d="M111.267 73.6713H117.12V72.1901H113.104V70.0734H116.753V68.6265H113.104V66.6264H117.12V65.1452H111.267V73.6713Z" fill="white"/>
<path d="M124.78 67.815C124.789 67.3369 124.67 66.8646 124.435 66.4436C124.192 66.0258 123.823 65.69 123.376 65.4812C122.825 65.2381 122.223 65.123 121.618 65.1452H118.321V73.6713H120.157V70.4712H121.618C122.233 70.4929 122.845 70.369 123.4 70.11C123.842 69.8935 124.206 69.5534 124.445 69.134C124.669 68.7285 124.785 68.2749 124.78 67.815ZM120.157 66.6379H121.521C122.024 66.6379 122.388 66.743 122.601 66.9487C122.713 67.0645 122.799 67.2009 122.855 67.3498C122.911 67.4986 122.936 67.6569 122.927 67.815C122.934 67.9699 122.909 68.1246 122.853 68.2698C122.797 68.4151 122.711 68.548 122.601 68.6608C122.388 68.8665 122.024 68.9717 121.521 68.9717H120.157V66.6379Z" fill="white"/>
<path d="M127.418 65.1452L124.215 73.6027L124.194 73.6622H126.123L126.818 71.7512H129.954L130.637 73.6622H132.592L129.378 65.1452H127.418ZM129.432 70.3134H127.34L128.38 67.4173L129.432 70.3134Z" fill="white"/>
<path d="M135.202 72.2244V65.1452H133.365V73.6713H138.983V72.2244H135.202Z" fill="white"/>
<path d="M18.0174 73.7696H9V65.0469H18.0174V73.7696ZM12.6636 66.6836V68.5899H10.6901V70.2266H12.6636V72.1329H14.3537V70.2266H16.3273V68.5899H14.3537V66.6836H12.6636Z" fill="white"/>
<path d="M9.12527 77.9709L9.01655 79.1001L9.43018 79.1367L9.55073 78.3686H10.508V81.3013H9.85091V81.6991H11.6685V81.3013H10.9925V78.3686H11.9451L12.0656 79.1367L12.484 79.1001L12.3705 77.9709H9.12527Z" fill="white"/>
<path d="M15.5331 80.0327C15.5495 79.9117 15.5379 79.7887 15.4991 79.6725C15.4604 79.5564 15.3955 79.45 15.3092 79.361C15.2228 79.272 15.1171 79.2027 14.9997 79.158C14.8823 79.1132 14.7561 79.0943 14.6302 79.1024C14.4475 79.0912 14.2654 79.131 14.1054 79.2168C13.9453 79.3027 13.8141 79.4312 13.7273 79.587L13.6658 79.6898V77.7492H12.7818V78.0875H13.2167V81.3653H12.7818V81.6899H14.1149V81.3653H13.6753V80.179C13.6839 79.9893 13.7617 79.8087 13.8951 79.6693C13.9638 79.5949 14.0485 79.5359 14.1432 79.4964C14.2379 79.457 14.3404 79.4379 14.4435 79.4407C14.5273 79.4375 14.6109 79.4515 14.6887 79.4819C14.7665 79.5122 14.8368 79.5582 14.8949 79.6167C15.0257 79.7842 15.0872 79.9928 15.0675 80.2019V81.3585H14.6278V81.6899H15.968V81.3653H15.5331V80.0327Z" fill="white"/>
<path d="M18.1 81.2442C17.961 81.3551 17.7835 81.4107 17.6036 81.3996C17.0836 81.3996 16.8047 81.1116 16.7811 80.5402V80.5082H18.6436C18.6638 80.4095 18.6741 80.3093 18.6744 80.2087C18.6767 79.9199 18.568 79.6405 18.3695 79.4247C18.2624 79.315 18.1318 79.2293 17.9868 79.1736C17.8419 79.1179 17.6861 79.0936 17.5304 79.1024C17.3587 79.0943 17.1874 79.1248 17.0299 79.1914C16.8725 79.258 16.7331 79.359 16.6227 79.4864C16.3958 79.7659 16.2786 80.1142 16.2918 80.4693C16.2794 80.6438 16.3042 80.8189 16.3648 80.9836C16.4254 81.1484 16.5204 81.2994 16.644 81.4271C16.7678 81.5385 16.9132 81.625 17.0719 81.6815C17.2305 81.738 17.3993 81.7634 17.5682 81.7562C17.8541 81.7741 18.1372 81.693 18.3671 81.5276C18.5416 81.3918 18.6571 81.1977 18.6909 80.9836L18.308 80.9082C18.2714 81.0363 18.1995 81.1525 18.1 81.2442ZM16.8 80.1927C16.8181 80.0002 16.89 79.8161 17.008 79.6601C17.0693 79.5838 17.1489 79.5231 17.2399 79.4833C17.3309 79.4435 17.4306 79.4257 17.5304 79.4315C17.6349 79.423 17.7399 79.4418 17.8343 79.486C17.9287 79.5303 18.0091 79.5983 18.0669 79.683C18.1703 79.8341 18.2178 80.0145 18.2016 80.195V80.2224H16.7835L16.8 80.1927Z" fill="white"/>
<path d="M23.0164 77.7492H21.9362V78.0875H22.5555V79.6578L22.4964 79.5527C22.4119 79.4049 22.2857 79.2835 22.1325 79.2025C21.9793 79.1216 21.8055 79.0844 21.6313 79.0955C21.4559 79.0822 21.2801 79.1147 21.1221 79.1894C20.9641 79.2642 20.8298 79.3786 20.7331 79.5207C20.5461 79.808 20.4485 80.1413 20.4518 80.4807C20.4315 80.8173 20.54 81.1493 20.7567 81.4133C20.8582 81.5245 20.9841 81.6123 21.1252 81.6705C21.2663 81.7286 21.419 81.7555 21.5722 81.7494C21.7785 81.7589 21.9822 81.7018 22.1513 81.5871C22.2945 81.4824 22.4116 81.3481 22.494 81.1939L22.5555 81.0819V81.6899H23.4513V81.3653H23.0164V77.7492ZM22.5555 80.5287C22.5436 80.7433 22.4608 80.9484 22.3191 81.1139C22.2522 81.204 22.1637 81.2771 22.0612 81.3268C21.9587 81.3766 21.8452 81.4016 21.7305 81.3996C21.6243 81.4013 21.519 81.3802 21.4222 81.338C21.3253 81.2957 21.2393 81.2332 21.1704 81.155C21.006 80.9629 20.9217 80.7184 20.934 80.4693C20.9266 80.2188 20.9992 79.9721 21.142 79.763C21.2098 79.6649 21.3027 79.5853 21.4116 79.5321C21.5205 79.4788 21.6417 79.4536 21.7636 79.459C21.9665 79.4553 22.1628 79.5293 22.3096 79.6647C22.3853 79.736 22.4452 79.8213 22.4858 79.9156C22.5265 80.0099 22.5469 80.1112 22.546 80.2133L22.5555 80.5287Z" fill="white"/>
<path d="M24.704 79.155H23.7798V79.4933H24.2384V81.3653H23.7987V81.6991H25.1389V81.3653H24.704V79.155Z" fill="white"/>
<path d="M24.6875 77.9412H24.2029V78.4784H24.6875V77.9412Z" fill="white"/>
<path d="M27.6278 79.6533L27.5664 79.5458C27.481 79.4002 27.3546 79.2812 27.2018 79.2026C27.049 79.1241 26.8762 79.0893 26.7036 79.1024C26.5307 79.0923 26.3581 79.1262 26.2029 79.2008C26.0478 79.2754 25.9157 79.3881 25.8196 79.5275C25.6245 79.812 25.5216 80.1463 25.5242 80.4876C25.5129 80.6537 25.5363 80.8203 25.5932 80.9774C25.6501 81.1345 25.7391 81.2789 25.8551 81.4019C25.9595 81.5037 26.0841 81.5841 26.2213 81.6383C26.3586 81.6925 26.5058 81.7194 26.654 81.7174C26.8587 81.7274 27.0613 81.6746 27.2331 81.5665C27.3715 81.4688 27.4854 81.3422 27.5664 81.1962L27.6278 81.0842V81.6488C27.6477 81.9114 27.5631 82.1713 27.3915 82.3757C27.3128 82.4588 27.2166 82.5247 27.1093 82.5689C27.0021 82.613 26.8863 82.6344 26.7698 82.6317C26.5887 82.6322 26.4107 82.5856 26.2545 82.4968C26.0957 82.4032 25.9729 82.2619 25.9047 82.0945L25.5502 82.2705C25.6213 82.5038 25.7842 82.7008 26.004 82.8191C26.2367 82.9389 26.4968 83.0003 26.7604 82.9974C26.9429 83.0088 27.1258 82.9825 27.2969 82.9202C27.4681 82.858 27.6236 82.7611 27.7531 82.6363C27.9905 82.3661 28.113 82.0189 28.0958 81.6648V79.4933H28.5118V79.155H27.6373L27.6278 79.6533ZM27.6278 80.5539C27.616 80.7595 27.5327 80.9552 27.3915 81.1093C27.3168 81.1931 27.2237 81.2596 27.119 81.3039C27.0143 81.3482 26.9006 81.3692 26.7864 81.3653C26.686 81.3658 26.5868 81.3456 26.4951 81.3062C26.4034 81.2668 26.3214 81.2091 26.2545 81.1368C26.0947 80.9432 26.017 80.698 26.0371 80.451C26.0282 80.2023 26.0975 79.9569 26.2356 79.747C26.3047 79.6521 26.3975 79.5757 26.5054 79.5249C26.6133 79.4741 26.7327 79.4506 26.8525 79.4567C27.0562 79.4529 27.2532 79.5268 27.4009 79.6624C27.4783 79.7324 27.5394 79.8175 27.5801 79.9121C27.6209 80.0067 27.6404 80.1086 27.6373 80.211L27.6278 80.5539Z" fill="white"/>
<path d="M29.7527 77.9412H29.2682V78.4784H29.7527V77.9412Z" fill="white"/>
<path d="M29.7693 79.155H28.8451V79.4933H29.3036V81.3653H28.864V81.6991H30.2042V81.3653H29.7693V79.155Z" fill="white"/>
<path d="M32.0762 81.2922C31.9927 81.3482 31.8941 81.3792 31.7925 81.3813C31.4947 81.3813 31.3435 81.2145 31.3435 80.883V79.4818H32.374V79.155H31.3435V78.3321H30.8849V79.155H30.4665V79.4818H30.8849V80.9608C30.878 81.0679 30.8942 81.1752 30.9325 81.2759C30.9707 81.3766 31.0302 81.4686 31.1071 81.5459C31.1915 81.6192 31.2901 81.6756 31.3973 81.7117C31.5044 81.7478 31.6179 81.7629 31.7311 81.7562C31.8391 81.7659 31.9481 81.7542 32.0513 81.7217C32.1545 81.6892 32.2497 81.6367 32.3312 81.5674C32.4126 81.498 32.4786 81.4133 32.525 81.3184C32.5713 81.2235 32.5972 81.1205 32.6009 81.0156L32.27 80.9127C32.2573 81.0584 32.188 81.1939 32.0762 81.2922Z" fill="white"/>
<path d="M35.3262 81.4453C35.2151 81.4453 35.0898 81.3951 35.0898 81.1573V79.9504C35.0996 79.8319 35.0814 79.7127 35.0368 79.6019C34.9922 79.491 34.9223 79.3914 34.8322 79.3104C34.629 79.1617 34.3775 79.0879 34.1231 79.1024C33.9505 79.101 33.7783 79.1194 33.6102 79.1572C33.4441 79.1953 33.2848 79.2569 33.1375 79.3401L33.0382 79.9184L33.4022 79.9573L33.5015 79.5458H33.5156C33.6725 79.473 33.8452 79.4377 34.0191 79.443C34.1111 79.43 34.2049 79.4414 34.2907 79.4761C34.3764 79.5107 34.4509 79.5672 34.506 79.6396C34.5811 79.7807 34.6177 79.9381 34.6124 80.0967V80.3253H34.5745C34.4177 80.3077 34.2597 80.3 34.1018 80.3024C33.8124 80.3006 33.5253 80.3518 33.2556 80.4533C33.1512 80.5083 33.0622 80.5871 32.9964 80.6829C32.9306 80.7788 32.89 80.8887 32.8781 81.0031C32.8662 81.1175 32.8834 81.2331 32.9282 81.3396C32.973 81.4462 33.044 81.5405 33.1351 81.6145C33.2943 81.7145 33.4794 81.7692 33.6693 81.7722C33.8597 81.7779 34.0467 81.7224 34.2011 81.6145C34.3464 81.5136 34.4674 81.3833 34.5556 81.2328L34.6171 81.1299V81.2488C34.636 81.5848 34.7944 81.7471 35.1016 81.7471C35.227 81.7501 35.351 81.7209 35.4609 81.6625V81.4202C35.4175 81.4349 35.3721 81.4433 35.3262 81.4453ZM34.6171 80.7276C34.6137 80.8262 34.5888 80.923 34.544 81.0117C34.4992 81.1003 34.4355 81.1788 34.3571 81.2419C34.2159 81.3566 34.038 81.4205 33.8536 81.4225C33.7361 81.4246 33.6209 81.3902 33.5251 81.3242C33.4732 81.2753 33.4336 81.2155 33.4094 81.1495C33.3851 81.0835 33.3769 81.0129 33.3854 80.9433C33.3939 80.8738 33.4187 80.807 33.4581 80.7482C33.4975 80.6894 33.5503 80.6401 33.6125 80.6042C33.7735 80.5427 33.9453 80.5124 34.1184 80.515C34.2011 80.515 34.2815 80.515 34.3547 80.515C34.428 80.515 34.5107 80.515 34.5911 80.5356H34.6218L34.6171 80.7276Z" fill="white"/>
<path d="M36.6498 77.7492H35.7327V78.0875H36.1842V81.3653H35.7493V81.6991H37.0847V81.3653H36.6498V77.7492Z" fill="white"/>
<path d="M40.5285 79.1024C40.3222 79.0924 40.1186 79.1513 39.9518 79.2692C39.8127 79.3774 39.6991 79.513 39.6185 79.667L39.5571 79.7858V79.155H38.6376V79.4933H39.0962V82.6042H38.6565V82.9494H40.1409V82.6042H39.5571V81.251L39.6162 81.3448C39.704 81.4813 39.8289 81.5919 39.9773 81.6645C40.1257 81.737 40.2919 81.7688 40.4576 81.7562C40.6376 81.7715 40.8186 81.7394 40.9813 81.6633C41.144 81.5873 41.2824 81.4701 41.3818 81.3242C41.5742 81.0371 41.6753 80.7017 41.6725 80.3596C41.6931 80.0236 41.5807 79.6926 41.3582 79.4338C41.2536 79.3229 41.1251 79.2357 40.9817 79.1784C40.8383 79.1212 40.6835 79.0952 40.5285 79.1024ZM40.9682 81.1093C40.8983 81.2056 40.804 81.2829 40.6943 81.3337C40.5846 81.3846 40.4632 81.4073 40.3418 81.3996C40.2373 81.4005 40.1336 81.3807 40.0373 81.3414C39.9409 81.3021 39.8539 81.2441 39.7816 81.171C39.7072 81.0976 39.6489 81.0103 39.6103 80.9144C39.5717 80.8186 39.5536 80.7161 39.5571 80.6133V80.3093C39.5701 80.095 39.6528 79.8902 39.7935 79.7241C39.8609 79.6371 39.9488 79.5668 40.0499 79.5191C40.1511 79.4714 40.2624 79.4477 40.3749 79.4498C40.4837 79.4471 40.5918 79.4675 40.6915 79.5098C40.7912 79.5521 40.88 79.6151 40.9516 79.6944C41.1118 79.8942 41.1908 80.1439 41.1738 80.3962C41.1836 80.6488 41.1117 80.8981 40.9682 81.1093Z" fill="white"/>
<path d="M42.9442 77.7492H42.0271V78.0875H42.4785V81.3653H42.046V81.6991H43.3791V81.3653H42.9442V77.7492Z" fill="white"/>
<path d="M46.2155 81.4453C46.1044 81.4453 45.9791 81.3951 45.9791 81.1573V79.9504C45.9888 79.8319 45.9707 79.7127 45.9261 79.6019C45.8815 79.491 45.8115 79.3914 45.7215 79.3104C45.5184 79.1613 45.2668 79.0875 45.0124 79.1024C44.839 79.101 44.666 79.1194 44.4971 79.1572C44.331 79.1953 44.1717 79.2569 44.0244 79.3401L43.9251 79.9184L44.2891 79.9573L44.3884 79.5458H44.4025C44.5595 79.4733 44.7321 79.438 44.906 79.443C44.9984 79.4279 45.0933 79.4377 45.1804 79.4711C45.2675 79.5046 45.3434 79.5604 45.4 79.6327C45.4751 79.7738 45.5117 79.9312 45.5064 80.0899V80.3184H45.4685C45.3164 80.3013 45.1632 80.2937 45.01 80.2956C44.7198 80.2935 44.4319 80.3447 44.1615 80.4464C44.057 80.5014 43.968 80.5803 43.9022 80.6761C43.8364 80.7719 43.7958 80.8818 43.7839 80.9962C43.7721 81.1107 43.7893 81.2262 43.834 81.3327C43.8788 81.4393 43.9498 81.5337 44.0409 81.6076C44.2003 81.7073 44.3853 81.7619 44.5751 81.7654C44.7655 81.771 44.9525 81.7156 45.1069 81.6076C45.2455 81.507 45.3607 81.3793 45.4449 81.2328L45.5064 81.1299V81.2488C45.5253 81.5848 45.6836 81.7471 45.9933 81.7471C46.1179 81.7497 46.241 81.7205 46.3502 81.6625V81.4202C46.3068 81.4349 46.2614 81.4433 46.2155 81.4453ZM45.5064 80.7276C45.503 80.8262 45.4781 80.923 45.4333 81.0117C45.3885 81.1003 45.3248 81.1788 45.2464 81.2419C45.1052 81.3566 44.9273 81.4205 44.7429 81.4225C44.6254 81.4243 44.5103 81.3899 44.4144 81.3242C44.3646 81.2865 44.325 81.2377 44.2991 81.182C44.2731 81.1262 44.2616 81.0652 44.2655 81.0042C44.2566 80.9232 44.2747 80.8415 44.3172 80.7712C44.3598 80.7009 44.4244 80.6455 44.5018 80.6133C44.6635 80.5517 44.8362 80.5214 45.01 80.5242C45.0904 80.5242 45.1707 80.5242 45.2464 80.5242C45.322 80.5242 45.4024 80.5242 45.4827 80.5447H45.5111L45.5064 80.7276Z" fill="white"/>
<path d="M48.2056 81.2922C48.1222 81.3482 48.0235 81.3792 47.922 81.3813C47.6242 81.3813 47.4729 81.2145 47.4729 80.883V79.4818H48.5035V79.155H47.4729V78.3321H47.0144V79.155H46.5984V79.4818H47.0144V80.9608C47.0075 81.0679 47.0237 81.1752 47.0619 81.2759C47.1002 81.3766 47.1596 81.4686 47.2365 81.5459C47.3209 81.6192 47.4196 81.6756 47.5267 81.7117C47.6338 81.7478 47.7473 81.7629 47.8605 81.7562C47.9686 81.7659 48.0776 81.7542 48.1808 81.7217C48.284 81.6892 48.3792 81.6367 48.4607 81.5674C48.5421 81.498 48.608 81.4133 48.6544 81.3184C48.7008 81.2235 48.7266 81.1205 48.7304 81.0156L48.3995 80.9127C48.3889 81.0589 48.3193 81.1952 48.2056 81.2922Z" fill="white"/>
<path d="M51.0018 77.8749C50.9138 77.8064 50.8113 77.7572 50.7016 77.7309C50.5872 77.7039 50.4696 77.6909 50.3518 77.692C50.2247 77.6878 50.0981 77.7097 49.9804 77.7561C49.8627 77.8026 49.7564 77.8727 49.6687 77.9618C49.5788 78.0556 49.5089 78.1657 49.463 78.2857C49.4172 78.4058 49.3963 78.5334 49.4016 78.6612V79.155H49.0282V79.4818H49.4016V81.3653H48.962V81.6899H50.4275V81.3653H49.8602V79.4818H50.5551V79.155H49.8602V78.6041C49.8602 78.2269 50.0162 78.0349 50.3211 78.0349C50.4205 78.0344 50.5195 78.049 50.6142 78.0783H50.6331L50.7442 78.5058L51.1035 78.4624L51.0018 77.8749Z" fill="white"/>
<path d="M52.2545 79.0955C52.0675 79.0829 51.8799 79.1122 51.7065 79.1812C51.533 79.2502 51.3784 79.357 51.2547 79.4933C51.028 79.7645 50.9082 80.1047 50.9167 80.4533C50.9012 80.8008 51.0267 81.1404 51.2665 81.3996C51.3896 81.5197 51.5373 81.6134 51.7002 81.6749C51.863 81.7363 52.0374 81.764 52.212 81.7562C52.3942 81.7638 52.576 81.7348 52.7461 81.671C52.9161 81.6073 53.0707 81.5102 53.2 81.3859C53.3253 81.2585 53.423 81.1081 53.4871 80.9436C53.5512 80.7791 53.5806 80.6038 53.5735 80.4282C53.5799 80.0872 53.4629 79.7549 53.2425 79.4887C53.1203 79.354 52.9675 79.2484 52.7961 79.1802C52.6248 79.112 52.4394 79.083 52.2545 79.0955ZM52.8667 81.123C52.7948 81.2133 52.7019 81.2858 52.5955 81.3346C52.4891 81.3835 52.3723 81.4073 52.2545 81.4042C52.1332 81.4118 52.0118 81.3891 51.9021 81.3383C51.7924 81.2875 51.6981 81.2102 51.6282 81.1139C51.4868 80.9118 51.414 80.6721 51.4202 80.4282C51.4095 80.1784 51.4852 79.9322 51.6353 79.7287C51.7076 79.6372 51.8016 79.5639 51.9094 79.515C52.0172 79.4661 52.1356 79.4429 52.2545 79.4475C52.3715 79.4425 52.4881 79.4633 52.5954 79.5085C52.7027 79.5537 52.7979 79.6219 52.8738 79.7081C53.0375 79.9077 53.1214 80.1576 53.1102 80.4122C53.1166 80.6678 53.0342 80.9181 52.8762 81.123H52.8667Z" fill="white"/>
<path d="M55.5802 79.1138C55.4358 79.1101 55.2954 79.16 55.1878 79.2532C55.0795 79.3521 54.9983 79.4754 54.9515 79.6121L54.8876 79.7904V79.155H54.006V79.4933H54.4575V81.3653H54.0273V81.6899H55.5045V81.3653H54.9255V80.1081C54.9178 79.9439 54.9696 79.7822 55.072 79.651C55.1158 79.5967 55.1717 79.5527 55.2355 79.5222C55.2994 79.4917 55.3695 79.4756 55.4407 79.475C55.5215 79.4736 55.6018 79.4876 55.6771 79.5161H55.6913L55.7905 79.955L56.1451 79.9138L56.0435 79.2281C55.905 79.1445 55.7431 79.1045 55.5802 79.1138Z" fill="white"/>
<path d="M61.0756 80.0327C61.0873 79.9044 61.0708 79.7751 61.0272 79.6534C60.9836 79.5317 60.914 79.4203 60.8227 79.3264C60.6601 79.192 60.4562 79.1131 60.2426 79.102C60.029 79.0908 59.8176 79.148 59.6409 79.2647C59.4891 79.3745 59.3701 79.5212 59.2958 79.6898L59.258 79.7698L59.2344 79.6853C59.1894 79.507 59.0784 79.3508 58.9224 79.2464C58.7659 79.1496 58.5834 79.0995 58.3976 79.1024C58.2162 79.0965 58.0373 79.1444 57.8847 79.2395C57.7449 79.3309 57.6304 79.4541 57.5515 79.5984L57.49 79.7081V79.155H56.5847V79.4933H57.0244V81.3653H56.5895V81.6899H57.9911V81.3653H57.49V80.2087C57.4977 80.0245 57.5628 79.8468 57.6767 79.699C57.7385 79.6161 57.821 79.5496 57.9164 79.5056C58.0118 79.4617 58.1172 79.4417 58.2227 79.4475C58.3032 79.4443 58.3834 79.4582 58.4578 79.4882C58.5321 79.5182 58.5987 79.5636 58.6529 79.6213C58.7797 79.7912 58.8377 80.0002 58.816 80.2087V81.3653H58.5418V81.6899H59.7236V81.3653H59.2911V80.2224C59.2977 80.0373 59.3611 79.8583 59.4731 79.7081C59.5338 79.6231 59.6162 79.5547 59.7123 79.5095C59.8083 79.4642 59.9148 79.4437 60.0215 79.4498C60.1032 79.4463 60.1848 79.4603 60.2604 79.4907C60.3359 79.5211 60.4037 79.5673 60.4587 79.6258C60.5842 79.7955 60.6421 80.0033 60.6218 80.211V81.3676H60.3453V81.6899H61.5271V81.3653H61.0851L61.0756 80.0327Z" fill="white"/>
<path d="M64.4675 79.0955C64.2804 79.083 64.0929 79.1124 63.9195 79.1814C63.7461 79.2504 63.5915 79.3571 63.4676 79.4933C63.2427 79.7652 63.1239 80.1051 63.132 80.4533C63.1154 80.801 63.2411 81.1409 63.4818 81.3996C63.6047 81.5199 63.7524 81.6138 63.9153 81.6753C64.0782 81.7367 64.2526 81.7643 64.4273 81.7562C64.6091 81.7637 64.7906 81.7347 64.9602 81.671C65.1299 81.6072 65.284 81.5102 65.4129 81.3859C65.5382 81.2585 65.6359 81.1081 65.7 80.9436C65.7642 80.7791 65.7935 80.6038 65.7864 80.4282C65.7925 80.0877 65.6764 79.7557 65.4578 79.4887C65.3349 79.3542 65.1816 79.2488 65.0099 79.1807C64.8382 79.1125 64.6526 79.0834 64.4675 79.0955ZM65.082 81.123C65.0076 81.2157 64.9112 81.2897 64.8009 81.3387C64.6906 81.3876 64.5697 81.4101 64.4485 81.4042C64.3272 81.4118 64.2058 81.3891 64.0961 81.3383C63.9864 81.2875 63.8921 81.2102 63.8222 81.1139C63.6808 80.9118 63.608 80.6721 63.6142 80.4282C63.6059 80.1762 63.684 79.9287 63.8364 79.7241C63.91 79.6327 64.0054 79.5598 64.1145 79.5116C64.2235 79.4635 64.343 79.4415 64.4627 79.4475C64.5796 79.443 64.696 79.4641 64.8032 79.5092C64.9105 79.5543 65.0058 79.6223 65.082 79.7081C65.2458 79.9076 65.3298 80.1576 65.3184 80.4122C65.3241 80.668 65.2409 80.9184 65.082 81.123Z" fill="white"/>
<path d="M67.9491 77.7309C67.8338 77.7041 67.7155 77.691 67.5969 77.692C67.469 77.6872 67.3415 77.7087 67.2229 77.7552C67.1043 77.8017 66.9973 77.8721 66.9091 77.9618C66.8183 78.0551 66.7477 78.1651 66.7014 78.2852C66.6551 78.4053 66.6341 78.5332 66.6396 78.6612V79.155H66.2662V79.4818H66.6396V81.3653H66.2V81.6899H67.6655V81.3653H67.0982V79.4818H67.7931V79.155H67.0982V78.6041C67.0982 78.2269 67.2542 78.0349 67.5591 78.0349C67.6585 78.0344 67.7575 78.049 67.8522 78.0783H67.8711L67.9822 78.5058L68.3415 78.4624L68.2422 77.8703C68.1552 77.8052 68.0555 77.7577 67.9491 77.7309Z" fill="white"/>
<path d="M71.0573 81.2922C70.9749 81.3485 70.8769 81.3796 70.776 81.3813C70.4782 81.3813 70.3269 81.2145 70.3269 80.883V79.4818H71.3575V79.155H70.3269V78.3321H69.866V79.155H69.45V79.4818H69.866V80.9608C69.8597 81.0678 69.8762 81.175 69.9144 81.2756C69.9526 81.3763 70.0117 81.4683 70.0882 81.5459C70.1732 81.6191 70.2722 81.6753 70.3797 81.7114C70.4872 81.7475 70.601 81.7627 70.7145 81.7562C71.218 81.7562 71.5016 81.5139 71.582 81.0156L71.2535 80.9127C71.2413 81.059 71.171 81.195 71.0573 81.2922Z" fill="white"/>
<path d="M74.5105 80.0327C74.5269 79.9119 74.5153 79.7891 74.4767 79.6731C74.4381 79.5572 74.3735 79.4509 74.2874 79.362C74.2013 79.273 74.0959 79.2036 73.9788 79.1587C73.8617 79.1139 73.7357 79.0946 73.61 79.1024C73.4286 79.0934 73.2484 79.1341 73.0899 79.2198C72.9314 79.3056 72.8012 79.4328 72.7142 79.587L72.6527 79.6898V77.7492H71.7593V78.0875H72.1942V81.3653H71.7593V81.6899H73.0947V81.3653H72.6527V80.179C72.6613 79.9893 72.7392 79.8087 72.8725 79.6693C72.9413 79.5949 73.0259 79.5359 73.1206 79.4964C73.2153 79.457 73.3178 79.4379 73.4209 79.4407C73.5051 79.4377 73.5889 79.4519 73.6671 79.4822C73.7453 79.5125 73.816 79.5583 73.8747 79.6167C74.0047 79.7845 74.0654 79.9931 74.0449 80.2019V81.3585H73.6053V81.6899H74.9455V81.3653H74.5105V80.0327Z" fill="white"/>
<path d="M77.0727 81.2442C76.9337 81.3551 76.7562 81.4107 76.5764 81.3996C76.0564 81.3996 75.7798 81.1116 75.7538 80.5402V80.5082H77.6164C77.6366 80.4095 77.6468 80.3093 77.6471 80.2087C77.6517 79.9195 77.5428 79.6393 77.3422 79.4247C77.2356 79.315 77.1054 79.2293 76.9608 79.1737C76.8163 79.118 76.6608 79.0936 76.5055 79.1024C76.3334 79.0941 76.1617 79.1245 76.0038 79.1911C75.846 79.2577 75.7062 79.3588 75.5955 79.4864C75.3685 79.7659 75.2513 80.1142 75.2645 80.4693C75.2521 80.6438 75.2769 80.8189 75.3375 80.9836C75.3981 81.1484 75.4931 81.2994 75.6167 81.4271C75.7406 81.5383 75.8861 81.6246 76.0447 81.6811C76.2034 81.7376 76.372 81.7631 76.5409 81.7562C76.8268 81.7741 77.11 81.693 77.3398 81.5276C77.514 81.3948 77.6311 81.2042 77.6684 80.9928L77.2878 80.9173C77.2475 81.0429 77.1732 81.1557 77.0727 81.2442ZM75.7609 80.1927C75.779 80.0002 75.8509 79.8161 75.9689 79.6601C76.0307 79.5838 76.1107 79.5231 76.2021 79.4833C76.2935 79.4435 76.3936 79.4257 76.4936 79.4315C76.5981 79.4235 76.7029 79.4425 76.7973 79.4867C76.8916 79.5309 76.972 79.5987 77.0302 79.683C77.1336 79.8341 77.1811 80.0145 77.1649 80.195V80.2224H75.7609V80.1927Z" fill="white"/>
<path d="M81.4502 79.6921C81.2398 79.6304 81.0578 79.5847 80.8924 79.5504C80.6974 79.5071 80.5074 79.445 80.3251 79.3653C80.2365 79.3255 80.1628 79.2603 80.1142 79.1784C80.0655 79.0965 80.0442 79.0021 80.0533 78.9081C80.0482 78.8226 80.066 78.7374 80.1049 78.6605C80.1438 78.5836 80.2026 78.5178 80.2755 78.4692C80.441 78.3653 80.6361 78.3142 80.8333 78.3229C80.9507 78.3237 81.0679 78.3352 81.1831 78.3572C81.3107 78.3834 81.4334 78.4281 81.5471 78.4898H81.5613L81.6274 79.0041L82.0056 78.9698L81.9702 78.2383C81.8201 78.1314 81.6499 78.0538 81.4691 78.0098C81.2506 77.9463 81.0236 77.9139 80.7955 77.9138C80.4804 77.9085 80.1713 77.9963 79.9091 78.1652C79.781 78.2559 79.6792 78.3769 79.6134 78.5166C79.5476 78.6563 79.52 78.81 79.5333 78.963C79.5188 79.1654 79.581 79.3661 79.7082 79.5275C79.8259 79.6558 79.9768 79.7512 80.1455 79.8041C80.327 79.8622 80.5117 79.9111 80.6985 79.9504C80.9222 79.9918 81.1403 80.0578 81.3485 80.147C81.4392 80.2047 81.5142 80.2827 81.5671 80.3743C81.6201 80.466 81.6494 80.5686 81.6526 80.6736C81.6559 80.7785 81.6329 80.8826 81.5858 80.9772C81.5386 81.0717 81.4686 81.1539 81.3816 81.2168C81.1817 81.3164 80.9588 81.3651 80.734 81.3585C80.6104 81.3579 80.487 81.3472 80.3653 81.3265C80.2283 81.3007 80.096 81.2552 79.9729 81.1916H79.954V80.7345L79.5758 80.6979L79.4907 81.4545C79.6513 81.5613 79.8308 81.6387 80.0202 81.6831C80.2594 81.7435 80.5057 81.7735 80.7529 81.7722C81.1283 81.7866 81.4976 81.6769 81.8 81.4613C81.9285 81.3646 82.0308 81.2392 82.0983 81.0959C82.1658 80.9526 82.1965 80.7957 82.1876 80.6385C82.2058 80.4036 82.1296 80.1711 81.9749 79.9893C81.8291 79.8485 81.6485 79.7462 81.4502 79.6921Z" fill="white"/>
<path d="M85.7733 79.4933H86.2365L85.8016 81.0088H85.7189L84.9105 79.155H84.6175L83.8705 81.0156H83.7949L83.2773 79.4933H83.7618V79.155H82.5115V79.4933H82.7785L82.788 79.5138L83.5822 81.6991H83.9155L84.6766 79.8384H84.7498L84.7593 79.8567L85.5345 81.6991H85.8867L86.6644 79.4933H86.9456V79.155H85.7733V79.4933Z" fill="white"/>
<path d="M88.1487 77.9412H87.6665V78.4784H88.1487V77.9412Z" fill="white"/>
<path d="M88.1676 79.155H87.2458V79.4933H87.702V81.3653H87.2624V81.6991H88.6025V81.3653H88.1676V79.155Z" fill="white"/>
<path d="M90.6376 80.3184C90.4769 80.2773 90.3138 80.243 90.1531 80.2179C90.0085 80.199 89.8675 80.1597 89.7347 80.1013C89.6775 80.0782 89.629 80.0386 89.596 79.9879C89.563 79.9371 89.5471 79.8777 89.5504 79.8178C89.5461 79.7588 89.5589 79.6997 89.5872 79.6473C89.6156 79.5948 89.6585 79.551 89.7111 79.5207C89.8287 79.4602 89.9609 79.431 90.094 79.4361C90.2776 79.4353 90.4592 79.4735 90.6258 79.5481H90.6424L90.7015 79.9413L91.0607 79.9024L91.004 79.3195C90.8699 79.2522 90.7289 79.1985 90.5833 79.1595C90.4165 79.1139 90.2437 79.0916 90.0704 79.0932C89.8236 79.0908 89.58 79.1473 89.3613 79.2578C89.2553 79.3132 89.1687 79.3977 89.1124 79.5006C89.056 79.6035 89.0324 79.7203 89.0445 79.8361C89.0378 79.9145 89.0485 79.9934 89.0758 80.0675C89.1031 80.1416 89.1464 80.2092 89.2029 80.2659C89.3178 80.3642 89.4557 80.434 89.6047 80.4693C89.7678 80.5082 89.9333 80.5424 90.0987 80.5699C90.2464 80.591 90.3904 80.6317 90.5266 80.691C90.5856 80.7167 90.6352 80.7591 90.669 80.8125C90.7027 80.8659 90.719 80.9279 90.7156 80.9905C90.716 81.0611 90.6933 81.13 90.6509 81.1874C90.6085 81.2448 90.5484 81.2879 90.4793 81.3105C90.3307 81.3754 90.1696 81.409 90.0065 81.4088C89.9106 81.4083 89.815 81.3999 89.7206 81.3836C89.6261 81.3686 89.5345 81.3401 89.4487 81.2991H89.4322V80.9699L89.08 80.9356L89.002 81.5139C89.3123 81.6832 89.6646 81.767 90.0207 81.7562C90.3127 81.767 90.6014 81.6938 90.8504 81.5459C90.9521 81.4851 91.0354 81.3994 91.0919 81.2975C91.1483 81.1955 91.1759 81.0809 91.1718 80.9653C91.1785 80.8861 91.1681 80.8063 91.1413 80.7312C91.1144 80.656 91.0717 80.5871 91.0158 80.5287C90.9089 80.4305 90.7792 80.3584 90.6376 80.3184Z" fill="white"/>
<path d="M93.3156 80.3184C93.1549 80.2773 92.9918 80.243 92.8311 80.2179C92.6858 80.1986 92.5441 80.1594 92.4104 80.1013C92.3533 80.078 92.3051 80.0383 92.2721 79.9876C92.2391 79.9369 92.223 79.8777 92.226 79.8178C92.2217 79.7588 92.2345 79.6997 92.2629 79.6473C92.2913 79.5948 92.3341 79.551 92.3867 79.5207C92.5052 79.4602 92.6381 79.431 92.772 79.4361C92.9556 79.4353 93.1372 79.4735 93.3038 79.5481H93.3204L93.3794 79.9413L93.7364 79.9024L93.682 79.3195C93.5477 79.2525 93.4068 79.1989 93.2613 79.1595C93.0944 79.1139 92.9217 79.0916 92.7484 79.0932C92.5016 79.0906 92.2579 79.1472 92.0393 79.2578C91.9322 79.314 91.8451 79.4001 91.7894 79.5049C91.7337 79.6097 91.7121 79.7284 91.7273 79.8453C91.7208 79.9235 91.7314 80.0021 91.7583 80.0761C91.7851 80.1501 91.8277 80.2179 91.8833 80.275C91.9988 80.3737 92.1376 80.4435 92.2875 80.4784C92.4482 80.5173 92.616 80.5516 92.7814 80.579C92.929 80.6008 93.0729 80.6415 93.2093 80.7002C93.2681 80.726 93.3174 80.7684 93.3507 80.8218C93.3841 80.8753 93.3998 80.9373 93.396 80.9996C93.3967 81.0703 93.3742 81.1394 93.3317 81.1969C93.2893 81.2544 93.229 81.2974 93.1596 81.3196C93.0113 81.3851 92.85 81.4187 92.6869 81.4179C92.591 81.4175 92.4953 81.4091 92.4009 81.3928C92.3064 81.378 92.2148 81.3495 92.1291 81.3082H92.1102L92.122 80.979L91.7675 80.9447L91.6895 81.5231C92.0007 81.6921 92.3537 81.7758 92.7105 81.7654C93.0025 81.7761 93.2912 81.703 93.5402 81.5551C93.6417 81.4942 93.7246 81.4084 93.7807 81.3064C93.8367 81.2044 93.8639 81.0899 93.8593 80.9745C93.866 80.8952 93.8556 80.8155 93.8287 80.7403C93.8019 80.6652 93.7591 80.5962 93.7033 80.5379C93.5948 80.4349 93.4616 80.3595 93.3156 80.3184Z" fill="white"/>
<path d="M97.2936 80.3184C97.134 80.2768 96.9723 80.2432 96.8091 80.2179C96.6646 80.1987 96.5237 80.1594 96.3907 80.1013C96.3335 80.0782 96.285 80.0386 96.252 79.9879C96.219 79.9371 96.2031 79.8777 96.2064 79.8178C96.2021 79.7588 96.2149 79.6997 96.2433 79.6473C96.2716 79.5948 96.3145 79.551 96.3671 79.5207C96.4856 79.4602 96.6185 79.431 96.7524 79.4361C96.936 79.4356 97.1174 79.4738 97.2842 79.5481H97.3007L97.3575 79.9413L97.7167 79.9024L97.6624 79.3195C97.5275 79.2522 97.3857 79.1985 97.2393 79.1595C97.0725 79.1136 96.8997 79.0913 96.7264 79.0932C96.4796 79.0908 96.236 79.1473 96.0173 79.2578C95.9113 79.3132 95.8247 79.3977 95.7683 79.5006C95.712 79.6035 95.6884 79.7203 95.7005 79.8361C95.6944 79.9145 95.7054 79.9932 95.7326 80.0672C95.7599 80.1412 95.8029 80.2089 95.8589 80.2659C95.9738 80.3642 96.1117 80.434 96.2607 80.4693C96.4238 80.5082 96.5893 80.5424 96.7571 80.5699C96.9046 80.5916 97.0485 80.6324 97.1849 80.691C97.2435 80.7171 97.2926 80.7595 97.3259 80.813C97.3592 80.8664 97.3752 80.9282 97.3716 80.9905C97.3724 81.0611 97.3499 81.1302 97.3074 81.1877C97.2649 81.2452 97.2046 81.2882 97.1353 81.3105C96.9868 81.3757 96.8256 81.4092 96.6625 81.4088C96.5667 81.4082 96.471 81.3998 96.3765 81.3836C96.2828 81.369 96.1919 81.3405 96.1071 81.2991H96.0882L96.1 80.9699L95.7455 80.9356L95.6675 81.5139C95.9793 81.6836 96.3333 81.7675 96.6909 81.7562C96.9822 81.7672 97.2702 81.694 97.5182 81.5459C97.6203 81.4855 97.7039 81.3998 97.7604 81.2978C97.8169 81.1958 97.8442 81.081 97.8396 80.9653C97.8463 80.8861 97.8359 80.8063 97.8091 80.7312C97.7822 80.656 97.7395 80.5871 97.6836 80.5287C97.5733 80.4289 97.4394 80.3567 97.2936 80.3184Z" fill="white"/>
<path d="M100.945 79.155H99.9551V79.4933H100.473V80.6362C100.467 80.8313 100.392 81.0186 100.26 81.1665C100.192 81.2424 100.107 81.3025 100.012 81.3421C99.9164 81.3817 99.813 81.3998 99.7093 81.3951C99.6254 81.399 99.5416 81.3858 99.4634 81.3563C99.3852 81.3267 99.3143 81.2815 99.2555 81.2236C99.1252 81.0568 99.0645 80.8488 99.0853 80.6407V79.155H98.1871V79.4933H98.6196V80.819C98.6077 80.949 98.6252 81.0799 98.671 81.2027C98.7167 81.3255 98.7895 81.4371 98.8844 81.5299C99.0622 81.6817 99.2925 81.7633 99.5296 81.7585C99.712 81.7676 99.8931 81.7243 100.05 81.634C100.207 81.5436 100.333 81.4104 100.411 81.251L100.473 81.1345V81.6899H101.39V81.3653H100.945V79.155Z" fill="white"/>
<path d="M103.505 79.1024C103.299 79.0924 103.095 79.1513 102.929 79.2692C102.791 79.378 102.679 79.5135 102.6 79.667L102.539 79.7858V79.155H101.621V79.4933H102.08V82.6042H101.631V82.9494H103.118V82.6042H102.531V81.251L102.591 81.3448C102.678 81.4813 102.803 81.5919 102.952 81.6645C103.1 81.737 103.266 81.7688 103.432 81.7562C103.61 81.7694 103.789 81.7362 103.949 81.6603C104.109 81.5843 104.246 81.4683 104.344 81.3242C104.537 81.0371 104.638 80.7017 104.635 80.3596C104.657 80.0234 104.544 79.6921 104.321 79.4338C104.218 79.3245 104.092 79.2382 103.951 79.181C103.81 79.1237 103.658 79.0969 103.505 79.1024ZM103.945 81.1093C103.874 81.207 103.778 81.2851 103.667 81.3361C103.555 81.387 103.432 81.4089 103.309 81.3996C103.204 81.4008 103.101 81.3811 103.004 81.3418C102.908 81.3025 102.821 81.2443 102.749 81.171C102.672 81.0986 102.612 81.0118 102.571 80.9158C102.53 80.8199 102.51 80.717 102.513 80.6133V80.3093C102.524 80.0948 102.607 79.8896 102.749 79.7241C102.816 79.6374 102.904 79.5673 103.004 79.5196C103.105 79.472 103.216 79.448 103.328 79.4498C103.437 79.4471 103.545 79.4675 103.645 79.5098C103.744 79.5521 103.833 79.6151 103.905 79.6944C104.066 79.8937 104.145 80.1437 104.127 80.3962C104.143 80.6462 104.079 80.895 103.945 81.1093Z" fill="white"/>
<path d="M106.855 79.1024C106.648 79.0924 106.445 79.1513 106.278 79.2692C106.139 79.3779 106.024 79.5134 105.942 79.667L105.881 79.7858V79.155H104.964V79.4933H105.436V82.6042H104.997V82.9494H106.481V82.6042H105.895V81.251L105.956 81.3448C106.044 81.4815 106.169 81.5922 106.317 81.6648C106.466 81.7374 106.632 81.769 106.798 81.7562C106.976 81.7694 107.154 81.7362 107.315 81.6603C107.475 81.5843 107.612 81.4683 107.71 81.3242C107.902 81.0366 108.003 80.7016 108.001 80.3596C108.021 80.0236 107.909 79.6926 107.687 79.4338C107.582 79.3226 107.453 79.2353 107.309 79.1779C107.165 79.1206 107.01 79.0948 106.855 79.1024ZM107.294 81.1093C107.224 81.2056 107.13 81.2829 107.02 81.3337C106.911 81.3846 106.789 81.4073 106.668 81.3996C106.563 81.4005 106.46 81.3807 106.363 81.3414C106.267 81.3021 106.18 81.2441 106.108 81.171C106.031 81.0983 105.971 81.0114 105.931 80.9155C105.89 80.8197 105.87 80.7169 105.871 80.6133V80.3093C105.883 80.0948 105.966 79.8896 106.108 79.7241C106.175 79.6371 106.263 79.5668 106.364 79.5191C106.465 79.4714 106.577 79.4477 106.689 79.4498C106.798 79.4471 106.906 79.4675 107.006 79.5098C107.105 79.5521 107.194 79.6151 107.266 79.6944C107.426 79.8942 107.505 80.1439 107.488 80.3962C107.502 80.6473 107.435 80.8964 107.297 81.1093H107.294Z" fill="white"/>
<path d="M109.781 79.0955C109.594 79.083 109.406 79.1124 109.233 79.1814C109.059 79.2504 108.905 79.3571 108.781 79.4933C108.556 79.7652 108.437 80.1051 108.445 80.4533C108.43 80.8008 108.555 81.1404 108.795 81.3996C108.918 81.5199 109.066 81.6138 109.229 81.6753C109.391 81.7367 109.566 81.7643 109.741 81.7562C109.923 81.7638 110.105 81.7348 110.275 81.671C110.445 81.6073 110.599 81.5102 110.729 81.3859C110.855 81.2591 110.954 81.109 111.019 80.9444C111.085 80.7799 111.115 80.6043 111.109 80.4282C111.116 80.0872 110.998 79.7549 110.778 79.4887C110.655 79.353 110.5 79.2468 110.327 79.1786C110.154 79.1104 109.967 79.082 109.781 79.0955ZM110.395 81.123C110.321 81.2156 110.225 81.2894 110.115 81.3384C110.005 81.3873 109.885 81.4099 109.764 81.4042C109.643 81.4118 109.521 81.3891 109.412 81.3383C109.302 81.2875 109.208 81.2102 109.138 81.1139C108.995 80.9123 108.923 80.6722 108.93 80.4282C108.919 80.1783 108.994 79.9321 109.145 79.7287C109.218 79.6374 109.313 79.5646 109.422 79.5165C109.531 79.4683 109.65 79.4462 109.769 79.4521C109.887 79.4452 110.006 79.4647 110.115 79.5091C110.225 79.5535 110.322 79.6216 110.4 79.7081C110.564 79.9077 110.648 80.1576 110.636 80.4122C110.642 80.668 110.559 80.9184 110.4 81.123H110.395Z" fill="white"/>
<path d="M113.099 79.1138C112.955 79.1101 112.814 79.16 112.707 79.2532C112.599 79.3526 112.518 79.4758 112.471 79.6121L112.409 79.7904V79.155H111.527V79.4933H111.979V81.3653H111.544V81.6899H113.024V81.3653H112.445V80.1081C112.437 79.9439 112.489 79.7822 112.591 79.651C112.635 79.5967 112.691 79.5527 112.755 79.5222C112.818 79.4917 112.889 79.4756 112.96 79.475C113.036 79.4749 113.111 79.4889 113.182 79.5161H113.199L113.298 79.955L113.652 79.9138L113.551 79.2281C113.416 79.1467 113.258 79.1069 113.099 79.1138Z" fill="white"/>
<path d="M115.619 81.2922C115.535 81.3482 115.437 81.3792 115.335 81.3813C115.037 81.3813 114.886 81.2145 114.886 80.883V79.4818H115.919V79.155H114.891V78.3321H114.418V79.155H114.002V79.4818H114.418V80.9608C114.411 81.0679 114.427 81.1752 114.466 81.2759C114.504 81.3766 114.563 81.4686 114.64 81.5459C114.725 81.6192 114.824 81.6755 114.932 81.7116C115.039 81.7477 115.153 81.7628 115.267 81.7562C115.77 81.7562 116.054 81.5139 116.134 81.0156L115.803 80.9127C115.795 81.0576 115.729 81.1937 115.619 81.2922Z" fill="white"/>
<path d="M118.625 79.155H117.701V79.4933H118.16V81.3653H117.72V81.6991H119.06V81.3653H118.625V79.155Z" fill="white"/>
<path d="M118.609 77.9412H118.124V78.4784H118.609V77.9412Z" fill="white"/>
<path d="M122.178 80.0327C122.19 79.8222 122.127 79.614 121.999 79.4434C121.871 79.2727 121.686 79.1501 121.475 79.0963C121.264 79.0425 121.041 79.0608 120.842 79.1482C120.644 79.2355 120.483 79.3865 120.386 79.5755L120.325 79.6807V79.155H119.408V79.4933H119.855V81.3653H119.422V81.6899H120.755V81.3653H120.327V80.195C120.335 80.0017 120.413 79.8172 120.547 79.6738C120.617 79.598 120.704 79.5381 120.801 79.4985C120.897 79.459 121.002 79.4408 121.107 79.4453C121.19 79.4422 121.272 79.4563 121.348 79.4867C121.424 79.5171 121.493 79.563 121.549 79.6213C121.675 79.7908 121.734 79.9985 121.715 80.2064V81.3631H121.273V81.6899H122.606V81.3653H122.173L122.178 80.0327Z" fill="white"/>
<path d="M126.759 78.3686H127.343V80.7002H127.272L127.26 80.6865L125.111 77.9709H124.256V78.3686H124.761V81.3013H124.317V81.6991H125.813V81.3013H125.215V78.8807H125.289L125.298 78.8944L127.513 81.6991H127.796V78.3686H128.267V77.9709H126.759V78.3686Z" fill="white"/>
<path d="M130.387 81.2442C130.248 81.3551 130.07 81.4107 129.891 81.3996C129.371 81.3996 129.094 81.1116 129.068 80.5402V80.5082H130.931C130.951 80.4095 130.961 80.3093 130.961 80.2087C130.966 79.9195 130.857 79.6393 130.656 79.4247C130.55 79.315 130.42 79.2293 130.275 79.1737C130.13 79.118 129.975 79.0936 129.82 79.1024C129.648 79.0941 129.476 79.1245 129.318 79.1911C129.16 79.2577 129.02 79.3588 128.91 79.4864C128.683 79.7659 128.565 80.1142 128.579 80.4693C128.566 80.6438 128.591 80.8189 128.652 80.9836C128.712 81.1484 128.807 81.2994 128.931 81.4271C129.055 81.5383 129.2 81.6246 129.359 81.6811C129.518 81.7376 129.686 81.7631 129.855 81.7562C130.141 81.7741 130.424 81.693 130.654 81.5276C130.829 81.3951 130.946 81.2044 130.983 80.9928L130.602 80.9173C130.562 81.0429 130.487 81.1557 130.387 81.2442ZM129.073 80.1927C129.091 80.0002 129.163 79.8161 129.281 79.6601C129.343 79.5838 129.423 79.5231 129.514 79.4833C129.605 79.4435 129.705 79.4257 129.805 79.4315C129.91 79.4235 130.015 79.4425 130.109 79.4867C130.203 79.5309 130.284 79.5987 130.342 79.683C130.445 79.8341 130.493 80.0145 130.477 80.195V80.2224H129.059L129.073 80.1927Z" fill="white"/>
<path d="M133.195 79.1024C132.989 79.0924 132.785 79.1513 132.618 79.2692C132.479 79.3774 132.366 79.513 132.285 79.667L132.221 79.7858V79.155H131.304V79.4933H131.763V82.6042H131.323V82.9494H132.807V82.6042H132.221V81.251L132.283 81.3448C132.37 81.4813 132.495 81.5919 132.644 81.6645C132.792 81.737 132.958 81.7688 133.124 81.7562C133.302 81.7694 133.481 81.7362 133.641 81.6603C133.801 81.5843 133.938 81.4683 134.036 81.3242C134.229 81.0371 134.33 80.7017 134.327 80.3596C134.348 80.0236 134.235 79.6926 134.013 79.4338C133.909 79.3245 133.783 79.2381 133.642 79.1809C133.5 79.1237 133.348 79.0969 133.195 79.1024ZM133.637 81.1093C133.567 81.206 133.472 81.2834 133.362 81.3343C133.252 81.3852 133.13 81.4077 133.008 81.3996C132.904 81.4008 132.801 81.381 132.705 81.3417C132.609 81.3024 132.522 81.2443 132.45 81.171C132.374 81.0986 132.313 81.0118 132.272 80.9158C132.232 80.8199 132.212 80.717 132.214 80.6133V80.3093C132.227 80.095 132.31 79.8902 132.45 79.7241C132.518 79.6371 132.606 79.5668 132.707 79.5191C132.808 79.4714 132.919 79.4477 133.032 79.4498C133.141 79.4471 133.249 79.4675 133.348 79.5098C133.448 79.5521 133.537 79.6151 133.609 79.6944C133.769 79.8942 133.848 80.1439 133.831 80.3962C133.843 80.6474 133.775 80.8963 133.637 81.1093Z" fill="white"/>
<path d="M137.241 81.4453C137.13 81.4453 137.005 81.3951 137.005 81.1573V79.9504C137.015 79.8318 136.997 79.7125 136.953 79.6016C136.908 79.4907 136.838 79.3911 136.747 79.3104C136.545 79.1611 136.293 79.0873 136.038 79.1024C135.865 79.1011 135.692 79.1196 135.523 79.1572C135.357 79.1953 135.198 79.2569 135.05 79.3401L134.951 79.9184L135.315 79.9573L135.414 79.5458H135.429C135.585 79.4733 135.758 79.438 135.932 79.443C136.18 79.443 136.346 79.5093 136.419 79.6396C136.494 79.7807 136.531 79.9381 136.525 80.0967V80.3253H136.49C136.337 80.3082 136.183 80.3006 136.029 80.3024C135.739 80.3003 135.451 80.3515 135.18 80.4533C135.076 80.5083 134.987 80.5871 134.921 80.6829C134.855 80.7788 134.815 80.8887 134.803 81.0031C134.791 81.1175 134.808 81.2331 134.853 81.3396C134.898 81.4462 134.969 81.5405 135.06 81.6145C135.219 81.7142 135.404 81.7688 135.594 81.7722C135.784 81.7782 135.972 81.7227 136.126 81.6145C136.268 81.5133 136.386 81.3829 136.471 81.2328L136.532 81.1299V81.2488C136.551 81.5848 136.71 81.7471 137.019 81.7471C137.145 81.7501 137.269 81.7209 137.379 81.6625V81.4202C137.334 81.4348 137.288 81.4432 137.241 81.4453ZM136.532 80.7276C136.529 80.8262 136.504 80.923 136.459 81.0117C136.414 81.1003 136.351 81.1788 136.272 81.2419C136.132 81.3566 135.955 81.4205 135.771 81.4225C135.653 81.4243 135.537 81.3899 135.44 81.3242C135.389 81.2856 135.349 81.2353 135.323 81.1779C135.297 81.1204 135.286 81.0576 135.291 80.995C135.283 80.914 135.301 80.8324 135.343 80.762C135.386 80.6917 135.45 80.6364 135.528 80.6042C135.69 80.5425 135.862 80.5122 136.036 80.515C136.116 80.515 136.197 80.515 136.272 80.515C136.348 80.515 136.426 80.515 136.509 80.5356H136.537L136.532 80.7276Z" fill="white"/>
<path d="M138.565 81.3653V77.7492H137.648V78.0875H138.099V81.3653H137.667V81.6991H139V81.3653H138.565Z" fill="white"/>
</svg>
