<svg width="148" height="148" viewBox="0 0 148 148" fill="none" xmlns="http://www.w3.org/2000/svg">
<path d="M14.0217 62.4401L17.9529 62.4225C20.1663 62.4139 21.8204 62.3047 23.7829 63.602C27.7686 66.2367 28.457 71.4811 25.0841 75.0056L25.0302 75.0613C22.8437 77.2765 20.634 77.2545 17.812 77.2461L14.0282 77.2474C13.9686 72.3546 14.022 67.3424 14.0217 62.4401ZM17.2574 74.5068C19.4081 74.4647 20.8562 74.849 22.5241 73.2879C24.3493 71.3656 24.4253 68.1894 22.5334 66.2513C21.1267 64.8104 19.0587 65.1844 17.2272 65.1443C17.3118 68.2143 17.1566 71.3847 17.2574 74.5068Z" fill="#F7F7F1"/>
<path d="M101.803 61.9367C102.014 62.0543 103.651 63.6074 103.944 63.879L108.696 68.2725C109.542 69.0558 110.605 70.0921 111.474 70.7984C111.395 68.1314 111.45 65.1102 111.462 62.43C112.545 62.4348 113.628 62.4279 114.711 62.4093C114.628 67.4657 114.725 72.6073 114.686 77.6764C114.432 77.5651 112.395 75.6196 112.044 75.3071C109.679 73.196 107.355 70.9006 104.981 68.8097L104.99 77.1982C103.927 77.1859 102.864 77.1866 101.802 77.2008C101.747 75.1881 101.79 72.9909 101.789 70.9668C101.775 67.9568 101.78 64.9467 101.803 61.9367Z" fill="#F7F7F1"/>
<path d="M74.355 62.4315C75.4159 62.4092 76.5174 62.4238 77.5852 62.4129C77.5299 64.435 77.596 66.4413 77.5439 68.4407L83.8937 68.4381C83.9363 66.469 83.8943 64.4043 83.9083 62.4187L87.1392 62.4236L87.1258 77.1639C86.426 77.2435 84.7124 77.1963 83.9299 77.2002C83.8397 75.3492 83.8994 73.0498 83.8912 71.1583C81.9176 71.0856 79.5512 71.1374 77.5585 71.1455C77.5916 72.8434 77.617 75.5452 77.5426 77.1931C76.4894 77.1885 75.4362 77.1905 74.3836 77.1995C74.3105 75.5691 74.3569 73.592 74.3569 71.9353L74.355 62.4315Z" fill="#F7F7F1"/>
<path d="M60.2984 62.4421L63.8193 62.4225C65.9722 62.4125 68.0092 62.2174 69.7143 63.9135C70.4969 64.681 70.9437 65.737 70.9539 66.8434C70.971 69.1655 69.0778 70.8232 66.9439 71.1797C66.3501 71.2789 65.8097 71.2779 65.2079 71.2764C64.6334 71.2699 64.0588 71.2709 63.4844 71.2793L63.4974 77.2519C62.433 77.2403 61.3685 77.239 60.3041 77.2474C60.2206 72.4067 60.2869 67.3015 60.2984 62.4421ZM63.4682 68.5363C64.7317 68.5637 66.1922 68.7806 67.2161 68.0402C67.6089 67.5081 67.7029 67.0906 67.6062 66.4292C67.3449 64.6416 64.7248 65.2328 63.4813 65.1284L63.4682 68.5363Z" fill="#F7F7F1"/>
<path d="M45.8817 62.4328C49.0487 62.3325 52.7115 62.4242 55.9181 62.4242L55.9126 65.1541L49.1118 65.1353C49.0998 66.1911 49.0978 67.247 49.1056 68.3028C50.9655 68.3262 52.8517 68.3116 54.7136 68.313L54.7036 71.0344C52.8518 71.0024 50.9688 71.0377 49.1117 71.02L49.0964 71.9629L49.1058 74.5256C51.1286 74.4072 53.8925 74.4984 55.9878 74.4932C56.044 75.2256 56.0273 76.4516 55.9938 77.1859C52.6507 77.2248 49.24 77.1898 45.8894 77.195C45.8322 75.397 45.8715 73.3998 45.8713 71.5894L45.8817 62.4328Z" fill="#F7F7F1"/>
<path d="M119.741 62.426L129.779 62.4229L129.773 65.139C127.594 65.1508 125.197 65.1907 123.028 65.1356C122.955 66.158 122.98 67.273 122.983 68.3056L128.515 68.3207C128.575 69.088 128.579 70.2614 128.53 71.0283C126.712 71.0485 124.816 71.0352 122.997 71.0207C123.003 71.2726 122.987 71.5628 122.979 71.818L122.983 74.5294C123.789 74.4693 124.847 74.4951 125.667 74.4958L129.88 74.4861C129.896 75.3602 129.875 76.3145 129.86 77.1924L119.746 77.1963C119.685 75.1939 119.728 72.9799 119.728 70.9644C119.718 68.1182 119.722 65.272 119.741 62.426Z" fill="#F7F7F1"/>
<path d="M31.5028 62.4279L41.4852 62.4203L41.4799 65.1503C39.2337 65.1734 36.9412 65.1461 34.6912 65.1431C34.6814 66.1957 34.6859 67.2484 34.7047 68.3009C36.5535 68.3275 38.4328 68.3134 40.2839 68.3162L40.2804 71.0297L34.6888 71.0223L34.6875 71.7946C34.6821 72.6946 34.6876 73.5945 34.7037 74.4945C36.9948 74.5036 39.2859 74.4997 41.577 74.4835C41.6148 75.3019 41.5722 76.363 41.5528 77.1872L31.5082 77.1963C31.4618 75.223 31.4903 73.1417 31.49 71.1613L31.5028 62.4279Z" fill="#F7F7F1"/>
<path d="M92.7389 62.4286L96.0339 62.4264L96.0359 71.8399C96.0359 73.5758 96.0708 75.4611 96.0162 77.1866L92.7389 77.2002C92.6563 75.0089 92.723 72.3445 92.7237 70.1289C92.7243 67.6582 92.6633 64.8783 92.7389 62.4286Z" fill="#F7F7F1"/>
<path d="M94.04 81.7912C95.3894 81.6009 96.6352 82.5604 96.8227 83.934C97.0096 85.3081 96.0676 86.5762 94.7176 86.7671C93.3675 86.958 92.1211 85.9985 91.9342 84.6243C91.7467 83.2501 92.69 81.9814 94.04 81.7912ZM94.6508 85.9021C95.5331 85.7436 96.121 84.8863 95.9647 83.989C95.8083 83.0916 94.9661 82.4931 94.0845 82.6536C93.2036 82.8134 92.6169 83.6693 92.7732 84.5654C92.9296 85.4621 93.7699 86.0599 94.6508 85.9021Z" fill="#F7F7F1"/>
<path d="M50.6841 81.5667C50.765 81.9865 50.7147 86.0289 50.711 86.7224L49.8769 86.7127C49.8584 85.6789 49.8601 84.645 49.882 83.6111C49.4471 84.1488 48.8772 84.7653 48.4143 85.2894C47.962 84.8365 47.3661 84.1229 46.9301 83.626L46.9178 85.2195C46.9338 85.7436 46.9194 86.2094 46.9016 86.7341C46.6759 86.7406 46.3612 86.7218 46.1281 86.716C46.0294 85.116 46.0842 83.1472 46.1159 81.5252C46.5982 82.1496 47.8628 83.5742 48.4147 84.1345C49.1561 83.265 49.9127 82.4084 50.6841 81.5667Z" fill="#F7F7F1"/>
<path d="M82.756 81.6165C83.0687 81.775 85.5393 84.5272 85.9588 84.9717L85.9594 81.8371L86.8048 81.828C86.7851 83.0146 86.8881 85.9998 86.7565 87C85.7039 85.8626 84.5967 84.7181 83.5753 83.5587C83.5854 84.5188 83.6331 85.7888 83.581 86.7237C83.3172 86.7244 83.0299 86.7121 82.7636 86.7063C82.6918 85.1192 82.728 83.2106 82.756 81.6165Z" fill="#F7F7F1"/>
<path d="M75.6549 81.6184C75.8411 81.8002 77.7505 86.168 77.8624 86.5963L77.7613 86.6836C76.818 86.7846 76.8587 86.3608 76.6267 85.5391L75.6708 85.5404L74.7936 85.5462C74.6525 85.9648 74.5057 86.2928 74.3277 86.6959H73.4436C73.5719 86.2488 74.0499 85.2124 74.247 84.7653C74.7053 83.7114 75.175 82.662 75.6549 81.6184ZM75.8862 84.7595L76.1532 84.7382C76.2301 84.4341 75.8792 83.7599 75.6987 83.5095C75.5811 83.7754 75.2538 84.3765 75.2684 84.6249L75.3485 84.7427C75.571 84.7847 75.665 84.7705 75.8862 84.7595Z" fill="#F7F7F1"/>
<path d="M132.124 61.0333C132.972 60.8545 133.802 61.4142 133.97 62.2798C134.138 63.1452 133.581 63.9846 132.729 64.1486C131.888 64.3108 131.075 63.752 130.909 62.8969C130.743 62.0417 131.285 61.2099 132.124 61.0333ZM132.785 63.7431C133.414 63.5518 133.77 62.876 133.58 62.2361C133.39 61.5961 132.724 61.2358 132.096 61.4325C131.472 61.628 131.121 62.3004 131.31 62.9366C131.499 63.5727 132.158 63.9332 132.785 63.7431Z" fill="#F7F7F1"/>
<path d="M131.929 61.8511C133.446 61.8123 132.937 62.0917 132.811 62.7548C132.815 62.7341 132.995 63.2435 133.015 63.3066L132.949 63.3699L132.752 63.3101C132.625 63.0438 132.607 62.9831 132.42 62.7657L132.333 62.7934L132.144 63.3068L132.001 63.3568C131.872 63.1839 131.926 62.1522 131.929 61.8511Z" fill="#F7F7F1"/>
<path d="M65.5419 81.8442C65.7985 81.8241 66.1332 81.8358 66.3966 81.8377C66.3855 83.1847 66.3912 84.5318 66.4135 85.8781L68.6115 85.8736C68.6189 86.1596 68.6 86.4184 68.5835 86.7037C67.6223 86.7406 66.5118 86.7127 65.5394 86.7108C65.4693 85.2506 65.5196 83.3187 65.5419 81.8442Z" fill="#F7F7F1"/>
<path d="M57.6914 81.8474L58.5774 81.8248L58.5694 86.6991C58.3215 86.7114 57.9569 86.6966 57.6995 86.6953C57.6743 85.0791 57.6717 83.4629 57.6914 81.8474Z" fill="#F7F7F1"/>
</svg>
