<svg width="148" height="148" viewBox="0 0 148 148" fill="none" xmlns="http://www.w3.org/2000/svg">
<path d="M23.013 62.3317C28.9317 58.2808 38.5606 59.5716 42.6419 65.7098L42.6776 65.7645L42.7288 65.7746C43.3604 65.8745 47.1275 65.8335 47.7304 65.8334L128.424 65.8297C129.149 65.8294 130.322 65.7932 131 65.844V76.3849C130.37 76.534 126.967 76.4264 126.145 76.4263L50.0082 76.4256C49.2734 76.4248 45.94 76.3718 45.4766 76.508C45.342 79.2989 43.3669 83.131 41.2618 84.9401C39.4676 86.4823 37.5834 87.3858 35.2407 87.8103C34.7136 87.9058 33.6916 87.9227 33.3599 88H32.6064C32.2999 87.931 31.6901 87.9516 31.3548 87.9125C28.3211 87.5876 25.6678 86.241 23.5884 83.9788C19.8984 79.9646 19.8385 71.7105 24.0042 68.0169C27.1688 65.211 32.8584 65.3327 35.6267 68.6957C37.303 70.732 37.8046 73.9905 37.6305 76.5796L26.2488 76.5809C26.3324 77.5729 26.4092 78.17 26.8508 79.081C29.3355 84.2061 37.4694 83.2329 39.5817 78.2627C39.8319 77.674 39.9586 77.1102 40.1579 76.5175C39.8436 76.4618 39.387 76.4725 39.0546 76.4703C39.2062 72.6168 37.9457 67.5489 34.141 65.8442C34.6561 65.8753 35.9843 65.8484 36.5925 65.7903L36.7042 65.7784L36.6028 65.6927C32.2978 62.0954 25.4066 62.4969 21.7572 66.884C20.2978 68.6386 19.3761 70.9805 19.1801 73.2656C18.3303 73.0563 17.8268 72.8984 17 72.5619C17.2236 71.3868 17.4178 70.3796 17.8026 69.2433C18.7547 66.4283 20.5833 64.0027 23.013 62.3317ZM72.8692 78.9876C73.3785 78.6031 73.8901 78.959 74.4095 78.8263C74.463 78.8127 74.5166 78.8095 74.5717 78.8049C74.692 78.9299 74.663 79.5922 74.653 79.7885C74.5934 80.966 74.9555 82.2297 73.2247 81.9912C72.9857 81.8873 72.6509 81.711 72.6586 81.4042L72.7589 81.3482C72.9394 81.3641 73.1 81.5507 73.2393 81.6811C73.772 81.7252 74.2367 81.7193 74.2724 81.0501C74.2752 80.9882 74.2752 80.9261 74.2724 80.8642C74.1565 80.8301 73.8215 81.0184 73.6772 81.0843C73.2565 81.0118 72.9996 80.9844 72.7305 80.6053C72.5296 80.3184 72.4499 79.9619 72.5094 79.6153C72.5521 79.357 72.662 79.1444 72.8692 78.9876ZM76.1219 78.7512C76.4807 79.1265 76.5249 79.3631 76.6832 79.8546L77.0114 80.6202C77.1368 80.329 77.6565 78.889 77.8822 78.8045C77.9313 78.7861 77.9777 78.8086 78.0273 78.8215C78.0405 79.2019 77.3491 80.5835 77.2477 81.0202C77.2087 81.1245 77.1674 81.228 77.1234 81.3304C76.9567 81.7167 76.2937 82.3268 76.0874 81.7517C76.2892 81.4459 76.6992 81.9557 76.8374 80.9536C76.6541 80.8488 76.4714 80.1989 76.4012 79.9826C76.2535 79.5608 76.0378 79.2639 76.0099 78.8136L76.1219 78.7512ZM96.5125 78.8001C96.863 78.7843 97.389 78.714 97.5974 79.0731C97.5959 79.0803 97.5945 79.0876 97.5931 79.0947C97.5945 79.097 97.5961 79.0992 97.5974 79.1015C97.7178 79.4 97.7729 80.7332 97.769 81.1076C97.4693 81.2039 97.2803 80.8216 97.1605 80.9316C96.6461 81.4043 95.1322 81.1073 95.6977 80.1514C96.0421 79.5697 96.9789 80.0923 97.3595 79.4975C97.1143 78.9271 96.6255 78.9572 96.163 79.2408C96.165 79.2296 96.1672 79.2187 96.1693 79.2084C96.1672 79.2097 96.1651 79.211 96.163 79.2123C96.07 79.4264 96.0321 79.4824 95.8171 79.4476L95.7551 79.3278C95.8265 78.9185 96.1487 78.8649 96.5125 78.8001ZM113.436 78.81C113.878 78.7751 114.214 78.7765 114.645 78.8728C114.934 79.2254 115.017 80.6696 114.918 81.0752C114.779 81.1395 114.772 81.1099 114.604 81.0807C114.566 81.0081 114.532 80.9436 114.492 80.873C114.075 80.8617 113.24 81.4957 112.892 80.8611C112.171 79.5472 114.302 80.0227 114.491 79.4822C114.466 79.3873 114.441 79.2639 114.39 79.1837C113.361 78.7141 113.743 79.3864 112.885 79.4507L112.847 79.3772C112.954 79.138 113.227 78.9498 113.436 78.81ZM105.783 78.7609C107.23 78.9162 107.283 81.0259 105.657 81.1391C104.168 80.9157 104.097 78.9189 105.783 78.7609ZM109.866 79.0046C110.431 79.0793 110.47 78.5731 111.121 78.8083C111.509 79.1225 111.559 80.6072 111.397 81.025C111.271 81.1221 111.304 81.1304 111.182 81.1164C110.805 80.6536 111.503 78.112 110.069 79.3807C109.975 79.921 110.171 80.808 109.927 81.1032C109.757 81.1465 109.814 81.1579 109.676 81.086C109.465 80.6385 109.923 79.4839 109.343 79.0535C108.181 78.8806 108.788 80.5599 108.565 81.0649C108.39 81.1327 108.462 81.1227 108.267 81.0904C108.164 80.9273 108.211 79.076 108.212 78.7604C108.877 79.0233 108.657 78.816 109.286 78.7591C109.396 78.7492 109.761 78.9906 109.866 79.0046ZM121.391 78.7573C121.978 78.8157 122.397 79.1832 122.467 79.7927C122.507 80.1259 122.412 80.4615 122.203 80.7223C121.95 81.0372 121.692 81.0949 121.315 81.1363C120.262 80.9814 119.818 80.1514 120.42 79.1625C120.618 78.8382 121.038 78.7958 121.391 78.7573ZM65.0193 78.758C66.5294 78.9756 66.4895 80.994 64.9124 81.1349C63.87 80.9824 63.4516 80.0703 64.0655 79.1456C64.2726 78.8338 64.6686 78.788 65.0193 78.758ZM67.7332 77.882C67.8579 78.0108 67.8099 80.6776 67.7872 81.0528C67.6915 81.1264 67.5166 81.114 67.3748 81.1255C67.42 80.5429 67.2852 78.3255 67.4519 77.9611L67.7332 77.882ZM86.2546 78.8327C86.6502 78.6909 87.0905 78.7754 87.407 79.0542C87.7235 79.3331 87.8672 79.7629 87.7842 80.1794C87.7006 80.5959 87.4025 80.9349 87.0035 81.0666C86.5694 81.2099 86.0929 81.0827 85.7842 80.7414C85.3708 80.2833 85.3781 79.5786 85.8015 79.1297C85.9275 78.9961 86.0829 78.8944 86.2546 78.8327ZM69.8425 78.8136C70.6251 78.7232 70.8624 78.7599 71.315 79.4419C71.4229 80.3118 71.3919 80.6974 70.5853 81.0933C69.0213 81.3643 68.5108 79.4388 69.8425 78.8136ZM60.5597 78.7375C60.7214 78.7731 60.9258 78.981 60.981 78.9649C61.4211 78.8351 62.0322 78.5258 62.3531 79.085C62.5611 79.4476 62.5869 80.6463 62.47 81.0552C62.3283 81.1398 62.3907 81.1274 62.2122 81.088C62.0694 80.8938 62.1247 80.0558 62.125 79.7425C62.1127 79.6665 62.0517 79.3108 62.003 79.2687C60.9377 78.3504 60.886 79.9718 60.8867 80.6518C60.8868 80.7986 60.8568 81.0125 60.7323 81.116L60.6087 81.1006C60.5248 80.8987 60.559 79.0934 60.5597 78.7375ZM118.463 78.7948C118.625 78.7899 118.686 78.7843 118.846 78.8321C118.889 78.8992 118.874 80.7844 118.902 81.0819C118.894 81.0846 118.887 81.0874 118.88 81.09C118.751 81.1348 118.61 81.1238 118.49 81.0598C118.428 80.6185 118.461 79.3033 118.463 78.7948ZM50.7868 78.979C51.5662 78.4162 52.7073 79.1633 52.6238 79.9066L52.5471 80.0247C52.1854 80.0479 51.8692 80.04 51.5073 80.0326C51.4573 80.0306 51.4031 80.0266 51.3477 80.0238C51.2922 80.0209 51.2355 80.0191 51.1802 80.0212C51.0695 80.0255 50.9647 80.0455 50.8881 80.1047C50.6851 80.407 50.9164 80.6169 51.1621 80.8049C51.3215 80.8133 51.5705 80.8332 51.721 80.8212C51.9374 80.6458 52.0934 80.4591 52.3516 80.4372L52.4539 80.4887C52.4494 80.7806 52.1409 80.9502 51.9069 81.0788C51.6235 81.1351 51.3644 81.1298 51.0863 81.0543C51.0715 81.0491 51.0567 81.0437 51.0424 81.038C51.0137 81.0267 50.9859 81.0144 50.9589 81.0012C50.9454 80.9946 50.9321 80.9879 50.919 80.9809C50.6314 80.8262 50.4471 80.566 50.3619 80.2801C50.3595 80.272 50.3575 80.2636 50.3552 80.2554C50.3538 80.2571 50.3524 80.2589 50.3509 80.2605C50.3517 80.2564 50.3526 80.2522 50.3534 80.2481C50.3492 80.2326 50.3448 80.2172 50.3411 80.2016C50.28 79.938 50.3006 79.6591 50.3997 79.4249C50.4145 79.3898 50.4312 79.3556 50.4495 79.3227C50.4557 79.3117 50.462 79.3008 50.4685 79.2901C50.475 79.2794 50.4818 79.2688 50.4887 79.2584C50.5647 79.144 50.6643 79.0475 50.7868 78.979ZM84.2238 77.9012C84.3938 77.8975 84.4931 77.9075 84.6597 77.926L84.7054 78.0336C84.5633 78.4933 84.3861 78.1292 84.1014 78.3916C84.0819 78.5371 84.0461 78.6812 84.1057 78.8129C84.2885 78.8101 84.3276 78.8144 84.5053 78.8587L84.541 78.9294C84.4302 79.0382 84.2373 79.0231 84.0752 79.0315C84.0596 79.669 84.0701 80.353 84.0707 80.9939L84.0568 81.04C83.9325 81.1466 83.9413 81.1126 83.7446 81.0977C83.4911 80.8763 83.7652 79.5212 83.6064 79.1315C83.5635 79.0256 83.3501 79.0689 83.2186 78.9047L83.2688 78.8292L83.592 78.8008C83.7926 78.4942 83.6349 78.3815 83.7903 78.0948C83.9201 77.9495 84.0355 77.9417 84.2238 77.9012ZM124.252 78.9977C125.821 78.0779 125.91 79.9744 125.632 80.9889C125.627 81.0087 125.621 81.0286 125.615 81.0481L125.511 81.0629C125.248 80.6658 125.78 78.494 124.455 79.1615C123.933 79.6222 124.416 80.5871 124.084 81.0569C123.911 81.1312 123.982 81.1245 123.799 81.0825C123.736 80.8655 123.752 79.1132 123.776 78.8398L123.868 78.786C124.048 78.8207 124.112 78.8852 124.252 78.9977ZM116.647 78.0301C116.701 78.0352 116.783 78.064 116.837 78.0805C116.891 78.2461 116.853 78.6159 116.853 78.8266C116.953 78.8217 117.059 78.8213 117.159 78.8193L117.247 78.9316C117.265 78.9174 117.283 78.9031 117.302 78.8889C117.25 78.9677 116.994 79.0405 116.892 79.0777C116.771 79.2719 116.852 80.1743 116.852 80.4239C116.852 80.8781 117.186 80.6586 117.383 81.0497C116.051 81.426 116.568 80.0034 116.448 79.256C116.424 79.1062 116.261 78.9985 116.145 78.9083C116.134 78.7498 116.322 78.8397 116.415 78.7629C116.415 78.7629 116.492 78.2291 116.647 78.0301ZM48.7707 78.068C48.852 78.18 48.7868 78.4651 48.8115 78.6941C48.9519 78.8602 48.9769 78.7882 49.2599 78.8347L49.2819 78.933C49.1413 79.083 48.8591 78.9694 48.8413 79.0632C48.7971 79.2976 48.7294 80.5179 48.9096 80.6817C49.1423 80.8931 49.3373 80.6984 49.2806 81.1081C48.1127 81.1435 48.476 80.1225 48.473 79.1808C48.3372 79.0878 48.2415 79.0248 48.119 78.9118L48.1264 78.8382L48.4011 78.8093C48.4863 78.4462 48.4473 78.3623 48.6388 78.0287L48.7707 78.068ZM89.1173 78.7816C89.6928 78.974 89.9654 78.7209 90.3799 78.8854C90.2406 79.3826 90.1765 79.0033 89.5463 79.3664L89.5067 80.043C89.4928 80.3226 89.5607 80.9174 89.4108 81.1081L89.2515 81.1047C89.0927 80.8325 89.1613 79.2766 89.1173 78.7816ZM57.2019 77.8476C57.5948 77.9679 57.4965 78.6537 57.4965 79.0052C58.6679 78.4214 59.1351 78.9206 59.0612 80.1461C59.0463 80.3935 59.1544 80.933 58.9732 81.09C58.8212 81.1108 58.7815 81.1228 58.6519 81.0464C58.582 80.812 58.6183 79.8029 58.6192 79.5146C58.6207 78.6838 57.8831 79.0873 57.5326 79.4139C57.491 79.7555 57.5158 80.9642 57.416 81.0911L57.2415 81.1067L57.1492 81.0118C57.0667 80.7173 57.0906 78.1971 57.2019 77.8476ZM103.101 78.0631C103.172 78.2379 103.136 78.4434 103.134 78.6441C103.129 78.9711 103.412 78.7091 103.611 78.8814C103.503 78.9984 103.305 79.0169 103.142 79.0517C103.131 79.6107 103.13 80.1699 103.141 80.7289C103.31 80.781 103.513 80.8162 103.613 80.954L103.57 81.0772C103.286 81.114 102.909 81.1696 102.785 80.8393C102.621 80.397 102.694 79.6694 102.697 79.1835C102.579 79.0902 102.46 78.9979 102.341 78.9065L102.355 78.8477L102.63 78.8034C102.825 78.5529 102.523 78.315 103.002 77.986L103.101 78.0631ZM100.982 78.7638C101.111 78.9659 101.075 78.9157 101.084 79.1756C101.08 79.5516 101.175 80.8896 101.006 81.0984C100.54 80.7886 100.476 81.0627 99.9486 81.0995C98.8782 81.1742 99.1762 79.5585 99.1366 78.7864C99.719 78.7978 99.5595 78.812 99.5785 79.3613C99.5935 79.7836 99.4939 80.4477 99.7819 80.7879C99.9167 80.8496 99.9415 80.8815 100.091 80.8487C101.199 80.6052 100.445 79.2541 100.81 78.7362L100.982 78.7638ZM53.9 79.3269C54.4977 78.4462 55.9417 78.7105 55.7929 79.4913C55.4856 79.5449 55.248 78.9849 54.8171 79.0341C54.2156 79.1028 54.165 79.6922 54.1715 80.1607C54.2806 80.4819 54.3402 80.6204 54.6004 80.7934L54.6551 80.8285L54.7451 80.8293C54.8581 80.8292 55.022 80.8253 55.0677 80.8029C55.2995 80.6889 55.5741 80.2245 55.8453 80.3131C55.979 80.9824 55.0629 81.1594 54.5424 81.0633L54.4933 81.0532L54.4071 81.0193C53.9993 80.8504 53.9306 80.6807 53.8298 80.2157C53.8191 79.8748 53.8539 79.6613 53.9 79.3269ZM86.5427 79.007C85.6617 79.5691 85.7403 80.7642 86.8091 80.8538C87.6544 80.3959 87.5256 79.0357 86.5427 79.007ZM121.213 79.0021C120.33 79.4926 120.39 80.7323 121.413 80.8457C122.418 80.342 122.111 79.0245 121.213 79.0021ZM105.615 79.0119C104.712 79.5724 104.772 80.7199 105.799 80.8452C106.833 80.4353 106.528 78.9784 105.615 79.0119ZM70.1078 79.0054C69.253 79.5431 69.2989 80.7413 70.3819 80.8432C71.2866 80.3155 71.0843 79.0257 70.1078 79.0054ZM97.2804 79.9698C96.8229 80.0881 96.3001 80.1005 96.0833 80.4295C96.0833 80.6136 96.089 80.6461 96.1563 80.817C96.7303 80.8983 97.4637 80.7239 97.2804 79.9698ZM114.311 79.9844C113.996 80.0579 113.491 80.1385 113.247 80.3175C113.142 80.5601 113.259 80.6898 113.467 80.8316C113.965 80.8491 114.615 80.6082 114.444 79.9928L114.311 79.9844ZM64.8307 79.0151C63.8358 79.6251 64.1039 80.9164 65.1466 80.8133C65.8988 80.2422 65.8135 79.1286 64.9626 79.022C64.9189 79.0164 64.8748 79.0141 64.8307 79.0151ZM73.4834 79.0076C72.5748 79.5945 72.8821 80.9168 73.743 80.8012C74.6724 80.1698 74.3454 79.0042 73.4834 79.0076ZM51.5966 79.0337C51.3004 78.9754 51.0521 79.1929 50.8281 79.3688L50.8097 79.6711C50.9135 79.773 50.8697 79.7443 51.0249 79.7735C51.3301 79.7496 51.9427 79.8009 52.1784 79.6761C52.1525 79.3625 51.9091 79.0953 51.5966 79.0337ZM94.8803 71.2068C94.8129 69.1566 92.5405 69.453 91.1395 69.498C89.1752 69.6595 89.2008 70.8071 89.2632 72.472C89.3335 74.3599 91.7791 74.1102 93.0786 74.0115C94.946 73.8746 94.9327 72.7963 94.8803 71.2068ZM73.519 69.5319L72.6436 69.5361L72.6414 70.3324L73.5201 70.3346C73.5134 71.1088 73.3513 73.058 73.8512 73.599C74.4101 74.2041 76.3499 74.2579 76.9406 73.619C77.2911 73.2485 77.2454 72.7302 77.2421 72.2494L77.237 71.852C77.0369 71.8479 76.6536 71.8154 76.4892 71.8945L76.4568 71.9674C76.4607 72.8709 76.5661 73.2903 75.5029 73.2938C75.2493 73.2946 74.7728 73.2504 74.5744 73.0047C74.3449 72.5823 74.4395 70.8049 74.444 70.3295L77.1239 70.3343L77.1178 69.5337L74.4418 69.5317L74.4445 68.5682L73.524 68.5629L73.519 69.5319ZM71.2346 69.9941C70.5532 69.3048 68.9119 69.4422 68.0134 69.4956C66.315 69.636 66.282 70.9527 66.3502 72.3598C66.4639 74.7042 68.9465 73.9415 70.4859 74.0004C71.1289 74.0249 72.1649 73.0356 71.5141 72.5057C70.6844 72.2761 71.0173 73.0239 70.2484 73.252C69.5179 73.2708 68.0933 73.4209 67.4975 72.9737C67.285 72.8142 67.1727 72.2803 67.3053 72.0542C67.7503 71.9552 71.1049 72.0302 71.7047 72.0633C71.7149 71.3491 71.7739 70.5396 71.2346 69.9941ZM115.717 69.5304L114.821 69.531L114.823 70.3427L115.713 70.3333C115.712 71.0669 115.542 73.0801 116.018 73.5952C116.564 74.1872 118.476 74.2456 119.081 73.681C119.447 73.3261 119.411 72.3778 119.401 71.8495C119.19 71.8445 118.835 71.8138 118.652 71.8901L118.618 72.0033C118.601 72.9798 118.693 73.2881 117.531 73.2841C117.345 73.2834 116.917 73.2299 116.75 73.0596C116.496 72.5785 116.599 70.8771 116.607 70.3295L119.27 70.3425L119.283 69.5313L116.602 69.5326L116.608 68.5706L115.721 68.5592L115.717 69.5304ZM78.6503 68.5635C78.6486 68.884 78.6419 69.2136 78.6442 69.5332L77.7643 69.5313L77.7692 70.3409L78.6375 70.3299C78.638 71.0739 78.4775 73.0804 78.9601 73.599C79.5074 74.1868 81.4255 74.2495 82.0278 73.6649C82.395 73.3057 82.3459 72.3592 82.3414 71.8496C82.1364 71.8421 81.8243 71.8061 81.6521 71.8938C81.6321 71.9572 81.6059 72.0187 81.6104 72.0836C81.6059 72.2596 81.5992 72.4627 81.5864 72.6092C81.5027 73.5494 80.0673 73.4651 79.6494 72.938C79.4416 72.6763 79.5458 70.6108 79.5508 70.329L82.2294 70.339L82.2334 69.533L79.5436 69.5312L79.5492 68.5669L78.6503 68.5635ZM125.757 73.9921C125.774 70.1776 126.421 69.255 122.057 69.4947C121.003 69.6047 120.668 69.8936 120.684 70.9976L121.56 70.9799C121.579 70.7824 121.578 70.5636 121.692 70.4086C122.107 70.1833 123.808 70.2267 124.307 70.3517C124.869 70.4926 124.919 70.9216 124.853 71.4453C124.658 71.4335 124.449 71.2807 124.214 71.2595C123.8 71.2223 123.39 71.2096 122.975 71.2236C121.531 71.2724 120.449 70.9759 120.48 72.8377C120.646 73.9711 121.216 74.0663 122.268 74.0679C123.034 74.0692 123.805 74.0341 124.571 74.0072C124.635 73.9605 124.75 73.8712 124.826 73.8936C125.197 74.0032 125.371 74.0075 125.757 73.9921ZM114.07 73.9923C114.106 70.2278 114.736 69.1864 110.411 69.4964C109.833 69.548 109.562 69.577 109.167 70.0543C109.126 70.1022 109.088 70.1527 109.054 70.2052C109.043 70.4488 109.02 70.7644 109.031 71.0022C109.272 71.0068 109.599 71.0417 109.8 70.9264C109.955 70.7636 109.922 70.636 109.961 70.5404C110.068 70.2787 110.821 70.2603 111.058 70.2654C111.593 70.2769 112.645 70.1797 113.055 70.5511C113.214 70.6956 113.208 71.2582 113.215 71.4831C112.623 71.2414 112.015 71.1806 111.381 71.2122C109.878 71.2874 108.784 70.936 108.824 72.84C108.87 73.1196 108.976 73.7202 109.252 73.8349C110.284 74.2614 112.125 73.9728 113.253 73.9672C113.602 73.9655 113.785 73.9976 114.07 73.9923ZM106.861 67.7384C106.843 68.4422 106.844 69.1465 106.863 69.8503C106.214 69.3736 105.886 69.4913 105.103 69.4768C104.14 69.4588 102.649 69.4351 102.433 70.7072C102.248 71.7912 102.171 73.3595 103.341 73.9116C104.264 74.0973 105.104 74.0678 106.039 74.0103C106.447 73.9851 106.764 73.5984 106.866 73.7199L106.89 73.9292C107.042 74.0336 107.506 73.9944 107.724 73.992C107.724 71.9567 107.765 69.7696 107.715 67.747L106.861 67.7384ZM61.798 67.7074C59.8443 67.6654 57.8236 67.6931 55.865 67.6961L55.7265 67.7309C55.6253 68.0321 55.6907 73.1958 55.6909 73.9954C57.7396 74.0085 59.7882 74.0101 61.8368 74L61.8385 73.1389C60.1295 73.1229 58.4203 73.1199 56.7113 73.1299L56.7102 71.2201L61.6262 71.2238L61.6246 70.3183L56.7118 70.3165L56.7071 68.5865L61.7949 68.5876L61.798 67.7074ZM99.1545 69.4671C98.7784 69.4727 98.4017 69.4821 98.0256 69.4951C97.8573 69.5091 97.7512 69.5204 97.5846 69.5559C97.4169 69.5919 97.0013 69.8918 96.8926 69.8375V69.578C96.7739 69.5078 96.2122 69.5306 96.0472 69.5312L96.0427 73.9877L96.9466 73.9896C96.9455 73.3562 96.9677 72.5704 96.9226 71.948C96.8056 70.3313 97.6082 70.2721 98.9829 70.2738C99.7608 70.3264 100.274 70.2833 100.305 71.2749C100.334 72.1757 100.306 73.085 100.296 73.9868L101.198 73.9916C101.202 73.0304 101.221 72.0627 101.205 71.1022C101.181 69.7436 100.294 69.4604 99.1545 69.4671ZM63.9116 67.7525L63.8262 67.8173C63.7691 68.2647 63.7962 69.4312 63.7968 69.9439L63.7991 73.9879L64.6233 73.9909C64.6413 73.9696 64.6636 73.9434 64.6896 73.9125C64.7084 72.137 64.73 69.4329 64.6936 67.7521L63.9116 67.7525ZM86.0718 69.4812L85.515 69.4945C85.0381 69.5505 85.066 69.6431 84.6592 69.8457L84.5961 69.791L84.5857 69.5823C84.4603 69.5076 83.963 69.5314 83.7786 69.5312C83.7513 71.0173 83.7468 72.5038 83.7652 73.9901L84.6691 73.9855C84.6674 73.0389 84.639 71.9295 84.683 70.9956C84.7911 70.7368 84.9261 70.4931 85.2036 70.393C85.7174 70.2077 87.0013 70.053 87.2493 70.7169C87.3329 70.9398 87.3295 71.4267 87.3322 71.6786L88.2006 71.6784C88.1955 69.8912 87.9068 69.4449 86.0718 69.4812ZM110.263 72.0397C111.102 72.0072 112.112 71.9649 112.935 72.1406C113.241 72.206 113.226 72.7549 113.141 72.9937C113.026 73.1523 112.829 73.1739 112.635 73.2227C111.955 73.2875 110.637 73.401 109.981 73.1403C109.867 73.0949 109.721 72.896 109.703 72.7657C109.629 72.2195 109.79 72.1481 110.263 72.0397ZM104.156 70.2896C104.893 70.2661 105.587 70.2354 106.319 70.363C106.549 70.5491 106.624 70.6399 106.813 70.8704C106.861 71.8623 107.139 72.9337 105.991 73.2502C105.168 73.2782 103.256 73.5742 103.256 72.3942C103.256 71.4896 102.99 70.4569 104.156 70.2896ZM122.684 72.0208C123.372 72.0662 125.234 71.7225 124.805 72.9783C124.697 73.1298 124.588 73.1496 124.416 73.2074C123.87 73.2839 123.301 73.2722 122.751 73.2901C121.968 73.3156 121.107 73.2737 121.493 72.2215C121.59 72.0834 121.732 72.0761 121.898 72.0417C122.132 72.0345 122.457 72.0059 122.684 72.0208ZM91.062 70.2861C91.8867 70.2661 93.8878 69.9514 93.9491 71.0861C93.9982 71.9869 94.2528 73.024 93.1366 73.2524C92.4941 73.2684 91.0302 73.397 90.5002 73.0799C89.9642 72.7593 90.02 71.0248 90.4061 70.5741C90.6056 70.3411 90.7789 70.3175 91.062 70.2861ZM49.6479 69.1463C47.5493 68.55 46.1455 68.897 44.2228 69.6055C44.0664 69.7411 43.8633 69.8531 43.812 70.0072C43.5548 70.305 43.492 70.4299 43.3104 70.7785C42.1392 70.7516 41.7522 70.6017 40.8073 71.3051L43.3205 71.3053C43.8322 72.1853 44.6355 72.7043 45.6081 72.9159C47.6103 73.3513 50.6293 73.3164 51.8193 71.3241C52.6565 71.274 53.4666 71.3208 54.2788 71.2842C53.5536 70.7243 53.4319 70.7626 52.4974 70.7382C52.3738 70.7386 51.9156 70.7518 51.8457 70.6554C52.2176 70.5552 52.5584 70.5909 52.9354 70.6259L52.9578 70.524C52.8598 70.3571 52.6343 70.2451 52.4636 70.1422C52.248 70.1511 51.573 70.2063 51.4409 70.0387C51.6349 69.9649 51.8814 69.9833 52.0919 69.986C51.9582 69.8819 51.8002 69.7341 51.6705 69.6189C50.6886 69.6603 50.5333 69.3979 49.6479 69.1463ZM32.7045 72.6297C32.1539 71.0808 31.2291 69.8565 29.4258 70.0016C27.953 70.2192 26.9317 71.1213 26.6973 72.6445C27.8158 72.6334 28.9344 72.6307 30.053 72.6363C30.9307 72.6344 31.8287 72.643 32.7045 72.6297ZM47.0039 69.3431C47.337 69.284 47.9297 69.2688 48.2133 69.3541L48.1901 69.4341L48.1222 69.4314C47.9735 69.4229 47.8884 69.4043 47.7669 69.483C47.7183 69.9698 47.8335 71.3666 47.8579 71.9511L48.8738 71.9306L48.7709 71.3109C49.3284 71.3181 49.9478 71.3126 50.5001 71.3428C49.257 72.1459 47.7475 72.4088 46.3113 72.0721C45.6737 71.9272 45.1657 71.6809 44.6103 71.3448C45.5042 71.3131 46.3987 71.2974 47.2931 71.2978L47.3162 70.3485C47.1188 70.3371 46.8627 70.2957 46.7042 70.3994C46.5765 70.598 46.5572 70.7193 46.3323 70.7484C45.7393 70.8254 45.0346 70.7775 44.4334 70.7719C44.6612 69.9938 44.7672 69.8986 45.5718 69.9444C45.9083 69.9805 47.3222 70.1138 47.4184 69.7156C47.3133 69.4266 47.2914 69.4141 47.0704 69.425L46.9625 69.4305C46.6664 69.5493 46.3619 69.5597 46.0453 69.5881C45.9236 69.582 45.8579 69.5715 45.738 69.5484C45.885 69.4296 46.7215 69.3751 46.9408 69.3556L47.0039 69.3431ZM68.1019 70.2863C68.8503 70.2686 70.4698 70.0715 70.8497 70.8821C70.8557 71.0592 70.8724 70.9935 70.776 71.1471C70.6158 71.2639 70.3648 71.2293 70.1615 71.2227C69.7732 71.2214 67.4578 71.2974 67.2986 71.1491C67.2162 70.5599 67.6148 70.3581 68.1019 70.2863ZM48.5463 70.6322C48.7319 70.5839 50.5206 70.594 50.7792 70.6342C50.5237 70.7831 48.7839 70.801 48.5463 70.6322ZM48.3368 69.4843C48.619 69.5376 49.1777 69.577 49.4674 69.5678C49.6358 69.8661 49.7384 69.8973 50.0211 69.9521L50.154 69.9779C49.8184 69.9888 49.5475 69.9772 49.231 70.1012C49.1064 70.1345 48.5987 70.1245 48.4414 70.1248C48.4256 69.9255 48.3741 69.6844 48.3368 69.4843Z" fill="white"/>
</svg>
