<svg width="148" height="148" viewBox="0 0 148 148" fill="none" xmlns="http://www.w3.org/2000/svg">
<path d="M53.529 90.2863C50.391 88.6087 49.9508 85.9951 52.2552 82.5931C53.2022 81.1459 53.3167 80.3731 52.5987 80.2747C51.0315 80.0299 50.5412 79.3387 51.2748 78.4495C51.7149 77.9059 52.842 77.7115 55.6867 77.7115C59.0681 77.7115 59.6549 77.8591 61.3725 79.1407C64.6573 81.5563 65.7343 82.9855 65.7343 85.1059C65.7343 87.3739 64.7038 88.6051 61.8627 90.0379C59.4116 91.2223 55.54 91.3195 53.5326 90.2863H53.529ZM61.029 87.5755C63.3799 86.3911 63.8701 85.3075 62.6463 83.6299C61.7625 82.4455 58.8248 80.1775 58.1378 80.1775C57.4043 80.1775 53.6793 84.4183 53.3823 85.5523C52.6953 88.2631 57.3041 89.4979 61.029 87.5755Z" fill="white"/>
<path d="M28.7284 89.8399C23.9265 88.4575 18.4375 85.2535 18.4375 83.8243C18.4375 82.3951 19.7113 82.5931 22.5524 84.3175C26.9644 86.9779 29.8556 87.8167 34.7076 87.8167C39.5597 87.8167 41.0303 87.0787 42.5976 84.0691C43.6746 81.9487 43.578 81.0595 40.1966 68.1931C38.726 62.5735 37.6489 57.7387 37.7956 57.4939C37.9924 57.1987 38.4827 57.0007 38.9729 57.0007C39.7064 57.0007 40.2467 58.5307 42.1575 65.6803C45.4888 78.1075 46.0792 81.1639 45.6856 83.4319C45.1954 85.8979 41.9607 89.2495 39.2663 89.9911C36.7186 90.6823 31.523 90.6319 28.7284 89.8435V89.8399Z" fill="white"/>
<path d="M72.9838 88.1155C69.9459 86.6863 69.1623 84.8611 69.2589 79.5835C69.3555 75.5407 69.309 75.2455 68.3751 75.2455C67.8347 75.2455 66.9545 75.4939 66.4142 75.7891C65.4338 76.2823 64.0132 75.6919 64.0132 74.7055C64.0132 74.0647 66.7577 72.7831 68.1317 72.7831C69.2589 72.7831 69.3555 72.5851 69.6024 69.7267C70.6329 57.2527 70.5828 57.7459 71.6133 57.7459C72.5437 57.7459 72.5938 57.9943 72.397 64.9927L72.2503 72.2395L76.8089 72.3871C81.024 72.5347 81.4176 72.6319 81.4176 73.5211C81.4176 74.4103 81.0276 74.5075 76.6622 74.6551L71.8602 74.8027V79.3891C71.8602 83.6803 71.9568 84.0259 73.1341 85.1563C74.2612 86.2399 74.8015 86.3407 78.6732 86.3407C82.2013 86.3407 83.2318 86.1427 84.7991 85.2067C86.513 84.1699 86.81 84.1231 87.4469 84.8107C88.134 85.5019 88.134 85.6495 87.3002 86.5855C85.1426 88.9507 76.8626 89.8399 72.9874 88.1155H72.9838Z" fill="white"/>
<path d="M93.6659 86.3875C90.3811 84.9079 88.9104 81.9991 89.0607 77.4631L89.1573 74.5039L87.3432 74.5543C86.3627 74.6047 85.139 74.9971 84.5987 75.4903C83.5682 76.4263 82.1476 76.1815 82.1476 75.0475C82.1476 73.3231 84.3518 72.1387 88.5204 71.6959C89.5974 71.5483 89.7442 71.2531 90.2845 67.6531C91.1683 61.9831 91.3615 61.4395 92.392 61.4395C93.716 61.4395 93.8126 62.1307 93.1256 66.0727C92.7821 67.9951 92.4886 70.1659 92.4886 70.9543C92.4553 71.8423 93.5669 72.2863 95.8235 72.2863C98.2746 72.2863 99.3517 72.4843 99.7918 73.0243C100.969 74.4031 99.595 74.9971 95.6267 74.7991L91.9984 74.6515L91.6549 76.4767C90.331 83.6767 96.4104 87.1759 101.212 81.9487C102.633 80.4187 104.2 80.2243 104.2 81.6031C104.2 82.7875 101.506 85.4983 99.4447 86.3839C97.4838 87.2227 95.5731 87.2227 93.6623 86.3839L93.6659 86.3875Z" fill="white"/>
<path d="M111.557 85.9951C109.056 84.7135 107.145 82.1503 107.145 80.1775C107.145 78.6475 108.812 75.9871 110.577 74.6551C111.264 74.1619 112.781 73.6183 114.008 73.4707C115.822 73.2223 116.509 73.3735 117.93 74.3599C120.184 75.8899 121.851 78.4531 121.851 80.3755C121.851 82.6435 120.184 85.0087 117.783 86.0959C115.135 87.3271 114.205 87.3271 111.561 85.9987L111.557 85.9951ZM118.123 82.8883C119.887 81.2107 119.79 79.4863 117.729 77.4163C116.799 76.4803 115.718 75.7387 115.278 75.7387C113.758 75.7387 111.163 77.1175 110.33 78.3523C107.782 82.2979 114.495 86.2903 118.123 82.8883Z" fill="white"/>
<path d="M129.198 71.6887C128.954 71.2495 128.614 70.9039 128.178 70.6519C127.741 70.3999 127.237 70.2739 126.661 70.2739C126.084 70.2739 125.576 70.4035 125.143 70.6591C124.707 70.9147 124.367 71.2603 124.124 71.6959C123.88 72.1315 123.759 72.6247 123.759 73.1755C123.759 73.7263 123.88 74.2123 124.124 74.6515C124.367 75.0907 124.707 75.4363 125.143 75.6919C125.58 75.9475 126.084 76.0771 126.661 76.0771C127.237 76.0771 127.745 75.9511 128.178 75.6919C128.614 75.4363 128.951 75.0871 129.198 74.6515C129.441 74.2123 129.563 73.7227 129.563 73.1755C129.563 72.6283 129.441 72.1279 129.198 71.6923V71.6887ZM128.672 74.3635C128.478 74.7199 128.21 75.0007 127.866 75.2095C127.519 75.4183 127.119 75.5227 126.661 75.5227C126.203 75.5227 125.809 75.4183 125.462 75.2095C125.115 75.0007 124.843 74.7199 124.653 74.3635C124.46 74.0071 124.363 73.6111 124.363 73.1719C124.363 72.7327 124.46 72.3367 124.653 71.9803C124.846 71.6239 125.115 71.3431 125.462 71.1343C125.809 70.9255 126.21 70.8211 126.661 70.8211C127.111 70.8211 127.519 70.9255 127.866 71.1343C128.21 71.3431 128.478 71.6239 128.672 71.9803C128.865 72.3367 128.961 72.7327 128.961 73.1719C128.961 73.6111 128.865 74.0071 128.672 74.3635Z" fill="white"/>
<path d="M127.609 73.3555C127.831 73.1755 127.938 72.9307 127.938 72.6175C127.938 72.4051 127.888 72.2287 127.791 72.0811C127.691 71.9335 127.555 71.8183 127.376 71.7355C127.197 71.6527 126.99 71.6131 126.754 71.6131H125.465V74.7703H126.034V73.6255H126.607L127.366 74.7703H128.01L127.176 73.5715C127.34 73.5283 127.487 73.4599 127.609 73.3591V73.3555ZM126.031 72.0451H126.743C126.947 72.0451 127.101 72.0919 127.208 72.1855C127.315 72.2791 127.369 72.4231 127.369 72.6175C127.369 72.8119 127.315 72.9559 127.208 73.0495C127.101 73.1431 126.947 73.1899 126.743 73.1899H126.031V72.0451Z" fill="white"/>
<path d="M53.529 90.2863C50.391 88.6087 49.9508 85.9951 52.2552 82.5931C53.2022 81.1459 53.3167 80.3731 52.5987 80.2747C51.0315 80.0299 50.5412 79.3387 51.2748 78.4495C51.7149 77.9059 52.842 77.7115 55.6867 77.7115C59.0681 77.7115 59.6549 77.8591 61.3725 79.1407C64.6573 81.5563 65.7343 82.9855 65.7343 85.1059C65.7343 87.3739 64.7038 88.6051 61.8627 90.0379C59.4116 91.2223 55.54 91.3195 53.5326 90.2863H53.529ZM61.029 87.5755C63.3799 86.3911 63.8701 85.3075 62.6463 83.6299C61.7625 82.4455 58.8248 80.1775 58.1378 80.1775C57.4043 80.1775 53.6793 84.4183 53.3823 85.5523C52.6953 88.2631 57.3041 89.4979 61.029 87.5755Z" fill="white"/>
<path d="M28.7284 89.8399C23.9265 88.4575 18.4375 85.2535 18.4375 83.8243C18.4375 82.3951 19.7113 82.5931 22.5524 84.3175C26.9644 86.9779 29.8556 87.8167 34.7076 87.8167C39.5597 87.8167 41.0303 87.0787 42.5976 84.0691C43.6746 81.9487 43.578 81.0595 40.1966 68.1931C38.726 62.5735 37.6489 57.7387 37.7956 57.4939C37.9924 57.1987 38.4827 57.0007 38.9729 57.0007C39.7064 57.0007 40.2467 58.5307 42.1575 65.6803C45.4888 78.1075 46.0792 81.1639 45.6856 83.4319C45.1954 85.8979 41.9607 89.2495 39.2663 89.9911C36.7186 90.6823 31.523 90.6319 28.7284 89.8435V89.8399Z" fill="white"/>
<path d="M72.9838 88.1155C69.9459 86.6863 69.1623 84.8611 69.2589 79.5835C69.3555 75.5407 69.309 75.2455 68.3751 75.2455C67.8347 75.2455 66.9545 75.4939 66.4142 75.7891C65.4338 76.2823 64.0132 75.6919 64.0132 74.7055C64.0132 74.0647 66.7577 72.7831 68.1317 72.7831C69.2589 72.7831 69.3555 72.5851 69.6024 69.7267C70.6329 57.2527 70.5828 57.7459 71.6133 57.7459C72.5437 57.7459 72.5938 57.9943 72.397 64.9927L72.2503 72.2395L76.8089 72.3871C81.024 72.5347 81.4176 72.6319 81.4176 73.5211C81.4176 74.4103 81.0276 74.5075 76.6622 74.6551L71.8602 74.8027V79.3891C71.8602 83.6803 71.9568 84.0259 73.1341 85.1563C74.2612 86.2399 74.8015 86.3407 78.6732 86.3407C82.2013 86.3407 83.2318 86.1427 84.7991 85.2067C86.513 84.1699 86.81 84.1231 87.4469 84.8107C88.134 85.5019 88.134 85.6495 87.3002 86.5855C85.1426 88.9507 76.8626 89.8399 72.9874 88.1155H72.9838Z" fill="white"/>
<path d="M93.6659 86.3875C90.3811 84.9079 88.9104 81.9991 89.0607 77.4631L89.1573 74.5039L87.3432 74.5543C86.3627 74.6047 85.139 74.9971 84.5987 75.4903C83.5682 76.4263 82.1476 76.1815 82.1476 75.0475C82.1476 73.3231 84.3518 72.1387 88.5204 71.6959C89.5974 71.5483 89.7442 71.2531 90.2845 67.6531C91.1683 61.9831 91.3615 61.4395 92.392 61.4395C93.716 61.4395 93.8126 62.1307 93.1256 66.0727C92.7821 67.9951 92.4886 70.1659 92.4886 70.9543C92.4553 71.8423 93.5669 72.2863 95.8235 72.2863C98.2746 72.2863 99.3517 72.4843 99.7918 73.0243C100.969 74.4031 99.595 74.9971 95.6267 74.7991L91.9984 74.6515L91.6549 76.4767C90.331 83.6767 96.4104 87.1759 101.212 81.9487C102.633 80.4187 104.2 80.2243 104.2 81.6031C104.2 82.7875 101.506 85.4983 99.4447 86.3839C97.4838 87.2227 95.5731 87.2227 93.6623 86.3839L93.6659 86.3875Z" fill="white"/>
<path d="M111.557 85.9951C109.056 84.7135 107.145 82.1503 107.145 80.1775C107.145 78.6475 108.812 75.9871 110.577 74.6551C111.264 74.1619 112.781 73.6183 114.008 73.4707C115.822 73.2223 116.509 73.3735 117.93 74.3599C120.184 75.8899 121.851 78.4531 121.851 80.3755C121.851 82.6435 120.184 85.0087 117.783 86.0959C115.135 87.3271 114.205 87.3271 111.561 85.9987L111.557 85.9951ZM118.123 82.8883C119.887 81.2107 119.79 79.4863 117.729 77.4163C116.799 76.4803 115.718 75.7387 115.278 75.7387C113.758 75.7387 111.163 77.1175 110.33 78.3523C107.782 82.2979 114.495 86.2903 118.123 82.8883Z" fill="white"/>
</svg>
