<svg width="148" height="148" viewBox="0 0 148 148" fill="none" xmlns="http://www.w3.org/2000/svg">
<path d="M130.648 66.2063C131.949 66.1639 133.178 66.0629 134.239 66.9697C134.737 67.3948 134.911 67.809 135.299 68.2909C135.305 68.6071 135.342 68.8115 135.453 69.1105C135.647 69.6343 135.641 75.1014 135.564 75.9139C135.524 76.3423 135.422 76.8172 135.235 77.2084C134.714 78.3025 133.697 78.7469 132.608 79.131C130.592 79.3493 130.28 79.0238 128.574 78.1221C128.388 77.5617 127.774 76.7357 127.797 76.062C127.877 73.6048 127.455 70.6731 128.089 68.2998C128.465 66.89 129.543 66.7511 130.648 66.2063ZM129.993 68.0128C128.735 69.3269 129.27 73.2353 129.201 75.0143C129.179 75.6069 129.43 76.3364 129.574 76.9079C130.157 77.5212 130.865 77.7668 131.701 77.8026C134.634 77.5531 134.111 75.0155 134.132 72.8309C134.144 71.6003 134.369 69.1907 133.427 68.2245C133.164 67.9556 132.041 67.6044 131.627 67.5692C130.977 67.7018 130.592 67.8571 129.993 68.0128Z" fill="white"/>
<path d="M63.6932 66.502C64.6577 66.4634 65.711 66.4942 66.6883 66.4811C67.3791 66.5326 68.338 66.3885 69.0032 66.5251C71.6828 67.0756 71.893 70.0013 71.5571 72.168C71.4041 73.1547 70.9082 73.8647 70.176 74.3972C70.357 75.1469 71.5999 78.4287 71.5575 78.8576C71.366 79.0033 70.4268 78.916 70.1411 78.8998C70.0396 78.4535 70.015 78.2964 69.8193 77.8803C69.713 77.4621 69.0264 75.3867 68.8401 75.0708C68.4077 74.8352 65.73 74.9393 65.0766 74.945C65.1163 76.2445 65.1002 77.5967 65.0998 78.9011C64.7708 78.9189 63.9457 78.9799 63.7116 78.7888C63.6919 75.817 63.6877 72.8452 63.6989 69.8733C63.6958 69.1937 63.5842 66.9866 63.6932 66.502ZM65.0895 73.5465C66.1682 73.5529 68.8378 73.8239 69.5614 72.9733C69.7703 72.6401 69.9705 72.3684 70.0316 71.9819C70.813 67.0386 68.1344 67.9636 65.0823 67.8919C65.1075 69.6359 65.1513 71.8107 65.0895 73.5465Z" fill="white"/>
<path d="M21.7683 62C21.8003 62.0197 22.0136 62.3671 22.0515 62.4267C21.3476 64.0534 21.3065 64.3042 21.855 66.0755C22.5997 68.4804 24.804 70.154 24.3452 72.8213C24.0571 74.4957 23.0009 75.6702 21.6988 76.6589C21.5803 76.7304 21.396 76.7019 21.2785 76.6399C21.1817 76.508 20.9946 74.9555 20.7694 74.5042C20.3297 73.6231 19.7544 72.8097 19.3392 71.9358C18.2555 69.6551 18.1122 66.7195 19.2883 64.4458C19.5832 63.8736 20.0745 63.3524 20.4232 62.7899C20.7454 62.6417 21.5304 62.2345 21.7683 62Z" fill="white"/>
<path d="M55.0361 66.4851C55.414 66.4809 56.4006 66.4143 56.6657 66.6073C56.8599 67.1913 57.0052 67.7791 57.187 68.3669C57.9257 70.7676 58.761 73.1559 59.4279 75.5748C59.5899 76.1621 60.5222 78.4797 60.3642 78.8839C60.0812 78.9592 59.3592 78.9788 59.0792 78.8989C58.4727 78.7257 58.0271 75.7888 57.6536 75.1438C57.2799 74.8416 57.0708 74.924 56.5578 74.9498C55.7067 74.9762 54.8507 74.9485 53.9991 74.9291C53.9409 75.5904 53.111 78.2753 52.8261 78.9017C52.4651 78.9177 51.66 79.0225 51.3994 78.8167C51.335 78.5674 54.696 67.2209 55.0361 66.4851ZM55.7514 73.554C56.1882 73.5505 56.7889 73.564 57.2121 73.5375C57.1941 73.3493 55.8907 69.0519 55.9079 69.0719C55.3161 70.0205 55.1654 71.2136 54.7923 72.2637C54.7326 72.4318 54.3555 73.3998 54.3831 73.4874C54.6756 73.5958 55.4197 73.5587 55.7514 73.554Z" fill="white"/>
<path d="M94.1452 66.3255C95.313 66.303 96.3759 66.2935 97.34 66.9652C97.2308 67.3041 97.0374 68.0759 96.5147 68.0239C95.8999 67.9627 95.3718 67.6526 94.7194 67.6247C94.0427 67.5958 93.6262 67.8799 92.9725 67.932C92.0091 68.6842 92.0012 68.8999 92.1322 70.0723C93.4091 71.2388 93.7383 71.1339 95.3403 71.7693C96.659 72.2847 98.0985 72.9443 98.6775 74.3247C99.4015 76.0516 98.4508 78.1305 96.7003 78.8277C95.1632 79.44 93.708 79.3006 92.2055 78.6992C92.0637 78.6144 91.4228 78.2657 91.2651 78.1178C90.8637 77.7413 89.89 76.3337 90.2756 75.7518C90.3732 75.604 91.3482 75.6224 91.6453 75.5981C91.9933 78.0068 95.4955 78.52 96.8616 76.8477C97.1738 76.4593 97.3169 75.9657 97.2593 75.4744C96.8816 72.2249 90.9413 73.3573 90.5181 69.7394C90.4199 68.9656 90.6467 68.1859 91.1469 67.5797C91.9242 66.624 92.9992 66.4489 94.1452 66.3255Z" fill="white"/>
<path d="M24.0269 65.2537C24.6577 65.0257 30.5998 65.3804 31.6653 65.275C32.7227 65.1703 34.6505 66.9405 34.7829 68.0196C34.8699 68.7292 34.8683 69.7725 34.867 70.599L34.8573 75.1084L34.8685 80.2976C34.8712 81.2229 34.9166 82.3172 34.8038 83.2318C34.6648 84.3599 33.1836 85.7787 32.0459 85.9199C31.0293 86.046 29.7351 85.9857 28.6983 85.9849L17.8565 85.9873C17.2887 85.9873 15.7658 86.0196 15.2745 85.9408C15.2241 85.8032 15.2199 85.7761 15.2394 85.6312C15.5891 85.216 18.4633 85.4308 19.1557 85.4299L27.7552 85.4159C29.7645 85.4041 32.3786 85.7923 33.6143 83.9336C33.888 83.5298 34.0582 83.0671 34.1103 82.5849C34.1738 81.9952 34.1392 80.9736 34.1373 80.3385L34.132 76.3916L34.1439 71.1434C34.1443 70.3742 34.2264 68.9823 34.054 68.2723C33.4068 65.6055 30.3896 65.8614 28.434 65.8648C27.2644 65.8632 26.0949 65.87 24.9254 65.8855C24.4808 65.893 23.4226 66.0478 23.3169 65.5168C23.4471 65.2733 23.7839 65.2617 24.0269 65.2537Z" fill="white"/>
<path d="M121.442 66.3257C122.722 66.2929 123.326 66.3945 124.465 66.926C124.333 67.4452 124.307 67.5305 124.016 67.9585C123.495 67.9245 123.326 67.864 122.825 67.7302C121.902 67.4829 121.472 67.7546 120.657 67.9368C120.308 68.2558 120.093 68.4709 119.825 68.8563C119.568 71.1399 119.827 73.9087 119.769 76.2447C119.745 77.2787 121.042 77.8016 121.948 77.804C122.827 77.8063 123.483 77.4996 124.345 77.3947C124.602 77.4772 124.582 77.4311 124.741 77.6069C124.789 77.8129 124.857 78.3553 124.753 78.542C124.394 78.833 122.919 79.0846 122.44 79.1536C120.479 79.4361 118.491 78.591 118.314 76.4599C118.227 75.415 118.228 73.9276 118.284 72.8511C118.372 71.1616 117.873 68.9277 118.894 67.5294C119.562 66.6534 120.429 66.4486 121.442 66.3257Z" fill="white"/>
<path d="M73.6766 66.4964C76.0322 66.4448 78.5516 66.4857 80.9199 66.4833C80.9217 66.9774 80.9108 67.3456 80.878 67.8393C80.0534 67.7608 78.8929 67.7594 78.0386 67.7359C77.9913 68.5657 78.0271 69.7437 78.0271 70.5953L78.0283 76.0242L78.0337 78.885C77.4759 78.9207 77.117 78.9302 76.5543 78.9138C76.4694 78.0004 76.541 76.4825 76.527 75.5288C76.4888 72.9612 76.5828 70.3289 76.5149 67.7637C75.6254 67.704 74.5867 67.8248 73.8143 67.7533C73.5815 67.4405 73.6597 66.8924 73.6766 66.4964Z" fill="white"/>
<path d="M40.2132 66.4908L41.6882 66.4868C41.6657 66.7163 41.6625 67.0011 41.6639 67.2342C41.6852 70.7284 41.604 74.2397 41.6521 77.7326C43.3444 77.7329 45.0956 77.7539 46.7826 77.7073C46.8323 78.1181 46.8314 78.5332 46.7802 78.9438C46.3044 78.9619 45.424 78.9256 44.91 78.9247L40.2003 78.9225C40.1557 78.389 40.184 77.494 40.184 76.9402L40.185 68.994C40.1849 68.2247 40.1599 67.2431 40.2132 66.4908Z" fill="white"/>
<path d="M101.126 66.5018C103.375 66.4008 106.351 66.4868 108.643 66.488C108.618 66.8464 108.626 67.2968 108.623 67.6626C107.593 68.0121 106.445 67.5584 105.553 67.856C105.382 68.1299 105.448 75.1294 105.448 75.9796C105.445 76.4622 105.568 78.6768 105.33 78.9068C105.045 78.9668 104.458 78.907 104.142 78.8862C104.197 77.8211 104.248 68.1866 104.091 67.9494C103.756 67.4419 102.174 67.9019 101.585 67.7733C101.411 67.7352 101.254 67.6668 101.157 67.5136C101.012 67.2861 101.066 66.7579 101.126 66.5018Z" fill="white"/>
<path d="M24.2688 79.274C25.6094 78.8752 27.027 79.6118 27.443 80.9235C27.859 82.2352 27.1174 83.6302 25.7825 84.047C25.307 84.1956 24.7974 84.2039 24.317 84.071C23.2276 83.7697 22.4713 82.8 22.4601 81.6902C22.449 80.5804 23.1856 79.5963 24.2688 79.274Z" fill="white"/>
<path d="M30.1742 73.7457C31.0685 73.5918 31.9787 73.9161 32.5637 74.597C33.1486 75.2779 33.3198 76.2125 33.0131 77.0505C32.6983 77.9107 31.9295 78.5337 31.0085 78.675C29.6272 78.8868 28.3298 77.9678 28.101 76.6156C27.8721 75.2633 28.7972 73.9828 30.1742 73.7457Z" fill="white"/>
<path d="M29.909 79.2711C30.3742 79.1384 30.8684 79.1387 31.3335 79.2719C32.4238 79.5844 33.1707 80.5678 33.1636 81.6815C33.1566 82.7952 32.3972 83.7694 31.3031 84.0685C30.8351 84.1965 30.3395 84.1904 29.875 84.0509C28.7997 83.728 28.0682 82.7512 28.076 81.6486C28.0839 80.546 28.8292 79.5792 29.909 79.2711Z" fill="white"/>
<path d="M83.7878 66.4975C84.3014 66.4876 85.9191 66.4372 86.3647 66.5157C86.4424 69.3913 86.3532 72.3359 86.3866 75.2158C86.3932 75.762 86.3411 78.2497 86.4411 78.6456C86.4163 78.7041 86.3726 78.8306 86.3314 78.8609C86.0925 79.0357 85.2352 78.908 84.929 78.8793L84.9411 70.8023C84.9423 69.8396 84.9581 68.8676 84.9217 67.9065C84.9089 67.5583 84.0085 67.8505 83.8309 67.8949C83.7757 67.4981 83.7903 66.9116 83.7878 66.4975Z" fill="white"/>
<path d="M111.472 66.49C112.315 66.4776 113.18 66.4875 114.024 66.4876C113.95 67.3046 113.995 68.8696 113.995 69.7416L114.003 76.1243C114.004 76.6131 114.035 78.6093 113.963 78.8918C113.547 78.9202 112.99 78.9372 112.584 78.8961C112.573 77.8651 112.673 68.0837 112.538 67.788C111.919 67.5412 111.325 68.5178 111.472 66.49Z" fill="white"/>
<path d="M111.448 81.77C112.676 81.6995 112.887 82.2945 113.175 83.3004C112.99 84.0473 112.763 84.6949 111.878 84.8189C111.187 84.8785 111.119 84.7612 110.494 84.4187C110.047 83.467 109.998 83.0312 110.544 82.0982C110.885 81.9534 111.092 81.8721 111.448 81.77ZM111.922 84.1225C112.491 83.7694 112.321 82.9541 112.113 82.4296C111.845 82.4215 111.539 82.4046 111.275 82.4197C111.094 82.6877 110.902 82.912 110.881 83.2422C110.833 83.9672 111.253 84.1638 111.922 84.1225Z" fill="white"/>
<path d="M115.301 81.9065C116.125 81.8318 116.571 81.8192 117.347 82.0631C117.36 82.0765 117.373 82.0901 117.386 82.1041C117.851 82.618 117.966 83.006 117.926 83.652C117.72 83.9361 117.524 84.1855 117.303 84.4584C116.128 85.0739 114.955 85.1733 115.124 83.4753C115.167 83.0373 115.03 82.2206 115.301 81.9065ZM116.875 83.8744C117.48 83.0989 116.951 82.3914 115.949 82.4925C115.911 82.978 115.82 83.4924 116.004 83.9385C116.284 84.1944 116.592 84.0925 116.875 83.8744Z" fill="white"/>
<path d="M92.1697 81.8008C93.2866 81.8797 92.7706 82.7878 93.5667 83.225C93.9342 83.1724 94.0639 82.1767 94.3168 82.0045C95.6295 81.1094 95.3027 83.883 95.3008 84.3457C95.1711 84.4762 95.0395 84.6045 94.9055 84.7306C94.6909 84.7853 94.7709 84.791 94.5635 84.6852C94.3877 84.3296 94.3374 84.0405 94.2901 83.6549L94.1967 83.7882C93.9754 84.1022 93.8808 84.3416 93.5188 84.4065C93.2975 84.3359 92.8494 83.714 92.6797 83.5069C92.5342 83.6048 92.8585 84.1909 92.5499 84.667C92.362 84.7916 92.4238 84.7594 92.1916 84.7749C91.8854 84.5375 91.9545 82.1761 92.1697 81.8008Z" fill="white"/>
<path d="M106.265 83.3367C106.766 82.9709 107.263 81.6151 107.825 81.8702C108.06 82.2069 108.106 84.4795 107.805 84.7372C107.584 84.8271 107.668 84.8187 107.432 84.7844L107.4 84.6908C107.109 84.3771 107.195 83.9644 107.204 83.516C107.07 83.7427 106.825 84.3646 106.586 84.4337C106.222 84.4157 105.913 83.9093 105.594 83.6499C105.557 83.8169 105.673 84.1208 105.727 84.2986C105.522 84.545 105.464 84.6851 105.126 84.6694C104.645 84.3893 104.911 82.654 104.906 82.1385C104.905 81.975 105.053 81.8895 105.173 81.8045C105.853 81.8618 106.158 82.7702 106.265 83.3367Z" fill="white"/>
<path d="M86.8049 81.806C87.7769 81.9316 87.6126 82.9114 87.9539 83.2575C88.4633 83.0901 88.5942 82.1244 89.2084 81.8019C89.534 81.7867 89.6444 82.0674 89.6365 82.3433C89.6195 82.9293 89.8184 84.259 89.4176 84.7251C89.0763 84.7939 88.9968 84.3777 88.9065 84.1067C88.9786 83.9354 89.0969 83.7281 89.0096 83.5594C88.8319 83.6412 88.4075 84.2382 88.1953 84.4633C87.7363 84.6005 87.5774 83.6981 87.2518 83.5537C87.2676 83.7519 87.3628 84.4106 87.2263 84.549C87.056 84.7221 86.8929 84.8562 86.6746 84.6879C86.4102 84.175 86.5182 82.8413 86.5103 82.2274C86.5078 82.0112 86.6576 81.9251 86.8049 81.806Z" fill="white"/>
<path d="M130.463 83.5198C130.562 82.9827 130.347 82.1058 130.773 81.8375C131.482 81.8652 131.259 83.2732 131.284 83.757C131.316 84.4188 131.201 84.4424 130.754 84.8567C130.695 84.8391 130.622 84.8176 130.535 84.7921C130.125 84.3437 129.596 83.5484 129.284 83.0896C129.195 83.6281 129.408 84.3359 129.01 84.6909C128.74 84.7249 128.743 84.68 128.473 84.5669C128.482 83.8552 128.36 82.739 128.514 82.065C128.548 81.9205 128.798 81.8679 128.938 81.8219C129.003 81.8227 129.068 81.831 129.132 81.8468C129.571 81.9517 130.221 83.1272 130.463 83.5198Z" fill="white"/>
<path d="M51.2295 81.8156C51.9531 81.9072 52.3188 83.2452 52.7226 83.4252C52.8906 82.9366 52.5889 82.1172 52.9993 81.8602C53.2 81.8365 53.3598 81.9777 53.5254 82.093C53.5409 82.7924 53.5729 83.5289 53.5296 84.2281C53.5133 84.4904 53.3065 84.584 53.1192 84.7843C52.3499 84.7666 51.8053 83.3023 51.5676 83.1802C51.4133 83.6524 51.6447 84.2935 51.3414 84.6939C51.1885 84.7615 51.1595 84.7665 50.9957 84.7253C50.6133 84.4546 50.712 83.7038 50.7386 83.2902C50.7838 82.5883 50.3642 82.051 51.2295 81.8156Z" fill="white"/>
<path d="M124.331 81.9041C124.948 81.8597 126.318 81.7321 126.378 82.736C126.399 83.0985 126.124 83.406 125.862 83.6409C126.059 83.9117 126.488 84.4026 126.266 84.7161C126.09 84.7737 125.865 84.6536 125.687 84.582C125.45 84.3643 125.151 83.871 125.004 83.8115C124.836 84.0341 124.943 84.5117 124.631 84.7874C123.96 84.7411 124.014 82.2238 124.331 81.9041ZM125.432 83.083C125.526 82.9581 125.531 82.8643 125.556 82.7129C125.405 82.3576 125.168 82.4077 124.817 82.4208C124.809 82.6155 124.778 82.8773 124.858 83.0486C125.07 83.1996 125.179 83.136 125.432 83.083Z" fill="white"/>
<path d="M134.323 81.8169C134.492 81.8138 135.084 81.8505 135.164 82.02C135.519 82.7677 135.964 83.6835 136 84.5132C136.005 84.6406 135.946 84.6811 135.859 84.7474C135.375 84.7976 135.314 84.5527 135.16 84.1486L135.039 84.1385L134.3 84.0692C134.116 84.3025 133.731 84.8885 133.394 84.7485C133.126 84.3182 134.045 82.2435 134.323 81.8169Z" fill="white"/>
<path d="M98.3786 81.8206C98.6369 81.8229 98.8831 81.8608 99.085 82.0241C99.2966 82.3757 100.202 84.4869 99.8411 84.7894C99.3736 84.7929 99.319 84.4209 99.0098 84.1434C98.8897 84.1222 98.7891 84.1044 98.7085 84.0902C97.9602 84.0449 97.845 84.8684 97.3284 84.787C97.0241 84.4162 97.4618 83.7163 97.6037 83.3078C97.8129 82.7059 97.9178 82.2673 98.3786 81.8206Z" fill="white"/>
<path d="M83.0511 81.8203C83.8054 81.8831 83.9079 83.2146 84.1589 83.7343C84.3754 84.1831 84.7428 84.2756 84.2262 84.753C83.7636 84.8401 83.6939 84.2508 83.3046 84.0723C83.0615 84.08 82.754 84.1227 82.5073 84.1503C82.386 84.4497 82.232 84.8729 81.8627 84.8667C81.4292 84.4954 82.292 82.5632 82.4964 82.1027C82.5782 81.9195 82.8626 81.8676 83.0511 81.8203Z" fill="white"/>
<path d="M68.1522 81.8365C68.2497 81.8325 68.7845 81.8089 68.8261 81.8672C69.1519 82.323 70.061 84.2758 69.6974 84.7543C69.2958 84.8164 69.0734 84.4955 68.9696 84.1465L68.8943 84.1182C68.6697 84.1214 68.196 84.0571 68.0358 84.1364C68.0112 84.227 67.9845 84.317 67.9555 84.4064C67.8797 84.6465 67.5328 84.8383 67.2796 84.7591C67.1953 84.6559 67.1588 84.6168 67.1667 84.4677C67.1899 84.0285 67.9569 82.0432 68.1522 81.8365Z" fill="white"/>
<path d="M47.2448 81.8321C47.4948 81.8151 47.5328 81.7695 47.7117 81.8827C47.9571 82.3442 48.9341 84.3622 48.5553 84.7264C48.1601 84.7925 47.87 84.458 47.7563 84.1207L47.6577 84.0864C47.5244 84.0867 47.1418 84.0799 47.034 84.1059C46.5994 84.2107 46.7465 84.7488 46.1754 84.8482C46.1139 84.8105 46.009 84.7675 46.0091 84.6849C46.0102 83.8736 46.5383 82.7933 46.8386 82.0267C46.8943 81.8845 47.1239 81.8615 47.2448 81.8321Z" fill="white"/>
<path d="M121.701 81.856L121.867 81.8776C121.966 82.0539 121.931 82.1399 121.93 82.3567C121.76 82.4953 120.992 82.3424 120.772 82.4747C120.763 82.6681 120.743 82.777 120.835 82.9486C121.279 83.2126 121.562 82.7774 121.845 83.203C121.795 83.5965 121.088 83.384 120.764 83.7695C120.721 83.9373 120.698 83.9163 120.758 84.0608C121.156 84.1424 121.531 84.1341 121.935 84.138C121.939 84.3193 121.967 84.6624 121.835 84.7781C121.525 84.7844 120.353 84.8269 120.155 84.7083C119.961 84.2372 119.924 82.4568 120.065 82.0076C120.285 81.8017 121.268 81.8934 121.701 81.856Z" fill="white"/>
<path d="M64.1802 81.7697C64.5072 81.7129 65.0574 81.8634 65.2238 82.1692C65.2049 82.9045 64.1933 82.0854 63.8884 82.5468C63.2829 83.4634 63.7134 84.4485 64.8977 83.9906C65.0089 83.9476 65.1624 84.1284 65.2543 84.2121L65.2683 84.2657C65.2275 84.4365 65.0027 84.6435 64.8735 84.7823C64.3539 84.8469 63.9713 84.9021 63.4947 84.5987C62.7852 84.1469 62.6304 83.0699 63.0717 82.3893C63.3503 81.9595 63.7024 81.8651 64.1802 81.7697Z" fill="white"/>
<path d="M48.4201 66.3035C48.4427 66.2994 48.4542 66.2963 48.4781 66.2993C49.543 66.4298 49.3325 67.1948 49.1972 68.0791C48.8962 68.3886 48.3521 69.2527 47.9402 69.2558C47.7342 69.0354 47.5162 68.9891 47.2251 68.852C47.119 68.5527 48.1769 68.0185 48.1055 67.8169C47.8729 67.1593 47.2059 66.7698 48.4201 66.3035Z" fill="white"/>
<path d="M74.7978 81.8855C74.8099 81.8845 74.822 81.8836 74.8335 81.8829C75.3835 81.8507 76.37 81.7665 76.7944 82.1364L76.7483 82.249C76.4185 82.4519 75.8382 82.4094 75.4435 82.4051L75.4944 83.0478C76.0995 83.0189 76.4573 82.8674 76.6725 83.4643C76.4433 83.8204 75.871 83.7279 75.4847 83.7219L75.4768 84.585L74.8432 84.8556C74.6922 84.2271 74.6959 82.5186 74.7978 81.8855Z" fill="white"/>
<path d="M57.6439 81.8496L57.723 81.8482C57.9237 81.9533 57.8922 81.9012 57.9823 82.0841C57.9175 82.5459 57.5293 82.4839 57.1591 82.478C57.147 83.1091 57.244 83.7694 57.1228 84.3853C57.0569 84.7199 56.8617 84.7669 56.5648 84.7806C56.4625 84.709 56.4191 84.4618 56.3841 84.33L56.3852 82.4995C56.1232 82.4847 55.7803 82.482 55.5389 82.398C55.3727 82.2462 55.378 82.2985 55.3603 82.1117C55.6779 81.7715 57.0916 81.8829 57.6439 81.8496Z" fill="white"/>
<path d="M40.387 81.7804C40.4832 81.8092 40.528 81.8552 40.6052 81.9188C40.7638 82.2416 40.6978 83.5422 40.7412 84.0507C41.1227 84.0734 41.71 83.9452 41.9668 84.1636C42.0706 84.3245 42.0208 84.5435 41.999 84.7363L41.8958 84.8036C41.6542 84.787 40.3683 84.8461 40.2795 84.693C39.9248 84.0807 40.0952 83.0593 40.0896 82.3646C40.0871 82.0468 40.1722 81.9762 40.387 81.7804Z" fill="white"/>
<path d="M86.3647 66.5157C86.6212 66.7545 86.6497 67.0358 86.6412 67.368C86.5697 70.329 86.6224 73.2877 86.5903 76.2485C86.5867 76.5894 86.777 77.7911 86.6054 78.0108L86.4915 77.9913C86.4508 78.0842 86.5206 78.3786 86.4411 78.6456C86.3411 78.2497 86.3932 75.762 86.3866 75.2158C86.3532 72.3359 86.4424 69.3913 86.3647 66.5157Z" fill="white"/>
<path d="M78.885 81.9018C79.1506 81.8601 79.241 81.8299 79.4574 81.9379C79.6903 82.2069 79.5484 83.9408 79.5659 84.3678C79.569 84.434 79.4544 84.6666 79.4144 84.7409C79.1724 84.8163 79.113 84.8045 78.9214 84.6509C78.7365 84.3303 78.7056 82.1091 78.885 81.9018Z" fill="white"/>
<path d="M60.2585 81.7859C60.4574 81.8286 60.5495 81.8392 60.7168 81.952C60.8009 82.4212 60.7443 83.8996 60.7334 84.4715C60.7313 84.5803 60.4988 84.6671 60.375 84.731L60.2594 84.7922L60.1415 84.7542C60.0623 84.6263 60.0237 84.4369 60.0244 84.2182C60.0263 83.5179 59.955 82.6557 60.0852 81.9717C60.1565 81.8952 60.2143 81.8333 60.2585 81.7859Z" fill="white"/>
<path d="M43.9167 81.7441C44.4508 81.7824 44.3357 82.5712 44.1129 82.8674C43.9805 83.0434 43.8065 83.0351 43.6061 83.0749L43.5493 82.9203C43.572 82.8892 43.5945 82.8579 43.6167 82.8265C43.9046 82.4163 43.6051 82.5025 43.5386 82.1517C43.5695 81.9819 43.7726 81.8571 43.9167 81.7441Z" fill="white"/>
<path d="M12 71.6766C12.2554 71.0703 12.3174 70.1828 12.6069 69.4961C13.4442 67.5097 14.6439 65.1248 16.6278 64.0353C16.9389 63.8645 17.3499 63.8814 17.574 64.1768C17.4026 65.3154 16.2916 66.5475 16.5654 67.9097C16.7789 68.9714 17.0025 70.3266 17.4766 71.3001C19.0177 74.465 21.2165 77.4155 19.4607 81.0374C18.9379 82.1227 18.3989 83.0639 17.409 83.8213C16.7108 84.3555 16.3112 84.1592 15.8349 83.5918C15.8076 83.1809 15.7518 82.6364 15.7691 82.2322C15.8343 80.7037 14.7765 80.1919 13.8358 79.1851C12.9585 78.2358 12.3287 77.0924 12 75.8525V71.6766Z" fill="white"/>
</svg>
