<svg width="148" height="148" viewBox="0 0 148 148" fill="none" xmlns="http://www.w3.org/2000/svg">
<path d="M55.6729 63.4411H49.5482V71.8348H43.1726V63.4411H37.0479V84.5589H43.1726V76.2522H49.5482V84.5589H55.6729V63.4411ZM76.9782 80.3155V63.4411H70.8535V84.5589H81.9282L82.8492 80.3155H76.9782ZM66.3256 63.4411H60.2009V84.5589H66.3256V63.4411ZM91.1552 63.4411H85.0333V84.5589H91.1552V63.4411ZM121.351 68.8309C121.351 67.6815 122.443 67.1503 124.202 67.1503C126.133 67.1503 128.231 67.5945 129.657 68.2157L129.155 63.6182C127.558 63.2641 126.133 63 123.535 63C118.585 63 115.229 65.0557 115.229 69.362C115.229 76.7834 124.795 75.2829 124.795 78.728C124.795 80.0514 123.869 80.7567 121.605 80.7567C119.595 80.7567 116.487 80.0514 114.642 79.0791L115.315 83.9407C117.16 84.6489 119.674 85 121.69 85C126.806 85 131 83.2324 131 77.9298C131 70.8655 121.351 72.1889 121.351 68.8309ZM104.075 79.5233C109.775 79.5233 113.384 76.4293 113.384 71.0396C113.384 65.1217 109.526 63 103.234 63C100.801 63 97.8644 63.1771 95.7687 63.4411V84.5589H101.893V79.5233H104.075ZM107.345 71.1296C107.345 73.8665 106.088 75.724 102.897 75.724H101.893V66.9973C102.25 66.9763 102.583 66.9763 102.897 66.9763C105.917 66.9763 107.345 68.4767 107.345 71.1296ZM25.306 79.5233C31.0087 79.5233 34.6157 76.4293 34.6157 71.0396C34.6157 65.1217 30.7578 63 24.4677 63C22.0326 63 19.0986 63.1771 17 63.4411V84.5589H23.1247V79.5233H25.306ZM28.5794 71.1296C28.5794 73.8665 27.3191 75.724 24.1312 75.724H23.1247V66.9973C23.4811 66.9763 23.8176 66.9763 24.1312 66.9763C27.1508 66.9763 28.5794 68.4767 28.5794 71.1296Z" fill="white"/>
</svg>
