<svg width="148" height="148" viewBox="0 0 148 148" fill="none" xmlns="http://www.w3.org/2000/svg">
<path d="M90.487 53.1364L95.8136 53.1472C96.2047 53.8639 96.7171 55.228 97.043 56.0227L104.791 74.8787C105.747 77.21 106.737 79.7671 107.747 82.0609C107.019 81.9776 105.216 82.009 104.475 82.0662C104.243 81.3259 103.587 79.8537 103.266 79.0743L93.855 56.1956C93.6586 55.6061 93.3626 55.039 93.1497 54.4369C92.8513 55.2563 92.3794 56.2854 92.0288 57.1071L84.3783 75.0348C83.3976 77.3351 82.3277 79.733 81.4037 82.0483C80.464 81.9846 79.0916 82.0188 78.1202 82.012C79.1432 79.7491 80.1339 77.3219 81.1118 75.0307L89.1592 56.1479C89.5291 55.2786 90.0585 53.9224 90.487 53.1364Z" fill="white"/>
<path d="M63.8329 54.5948C65.5093 54.4511 67.5609 54.739 69.1217 55.3554C72.7461 56.7867 74.8853 59.0541 76.4681 62.5643C75.6468 62.7466 74.2645 63.0695 73.4842 63.3187L73.4666 63.2778C72.4803 60.9822 70.4846 59.1294 68.196 58.2221C65.8502 57.3066 63.2442 57.3615 60.9377 58.3752C58.5914 59.4216 56.7454 61.364 55.7997 63.7819C54.8795 66.1705 54.9425 68.8342 55.9744 71.1754C57.0118 73.5533 58.9367 75.4161 61.3264 76.3544C63.7801 77.3028 66.3562 77.1648 68.7406 76.076C71.0344 74.9236 72.2455 73.6561 73.4337 71.3699C74.282 71.6013 75.5665 71.9207 76.4171 72.0555C75.9276 73.2624 75.2634 74.3887 74.4474 75.3971C72.3472 77.971 69.329 79.5968 66.0519 79.9194C62.6827 80.2837 59.3114 79.2519 56.7022 77.0579C54.1215 74.8835 52.504 71.7525 52.2093 68.3614C51.9283 65.0017 52.9721 61.6661 55.1116 59.0868C57.3514 56.348 60.3813 54.9187 63.8329 54.5948Z" fill="white"/>
<path d="M110.304 53.0121C111.679 53.0738 113.201 53.0417 114.59 53.0414L121.759 53.0389C123.384 53.0384 126.254 52.9045 127.736 53.3151C135.042 55.3385 135.707 67.5993 131.031 72.4219C130.11 73.3672 128.952 74.0386 127.683 74.3634C126.478 74.665 124.328 74.5734 122.998 74.5724C120.937 74.5639 118.876 74.5669 116.815 74.5815C116.895 76.152 116.801 77.9476 116.835 79.546C116.842 79.9231 116.867 81.7411 116.835 82.023L116.739 82.0666C115.926 82.0588 114.596 82.0152 113.821 82.1051C113.859 81.1906 113.818 79.8905 113.817 78.9492C113.806 76.474 113.81 73.9986 113.827 71.5234C115.212 71.5944 117.235 71.5856 118.609 71.5533C120.927 71.4989 123.946 71.6547 126.169 71.5438C132.498 71.2282 132.608 57.004 126.506 56.1349C125.736 56.0253 124.505 56.0479 123.681 56.0492L119.255 56.0543L113.274 56.0508C112.369 56.0492 111.172 55.9926 110.301 56.0472C110.286 55.0355 110.287 54.0237 110.304 53.0121Z" fill="white"/>
<path d="M110.297 56.5627C110.884 56.6622 113.683 56.6207 114.435 56.6206L122.912 56.6189C123.745 56.6141 125.906 56.5489 126.604 56.701C127.324 56.8594 127.984 57.2254 128.505 57.755C131.109 60.3756 131.114 67.2583 128.523 69.8944C128.023 70.4109 127.384 70.7656 126.686 70.9138C125.933 71.0682 123.085 70.9929 122.113 70.9902L113.269 71.001L113.277 79.6846C113.277 80.0059 113.324 81.9041 113.214 82.0688C112.245 82.0518 111.276 82.0557 110.307 82.0809C110.208 77.3664 110.271 72.6567 110.168 67.9699C110.625 68.0364 111.659 68.0192 112.136 68.0194L115.476 68.0182C118.984 68.0191 122.584 68.0609 126.085 68.0094C126.138 67.9666 126.189 67.9203 126.237 67.871C127.305 66.7737 127.395 65.2264 127.471 63.7666C127.517 62.9014 127.008 59.7304 125.965 59.6579C124.212 59.5359 122.229 59.616 120.444 59.6318C117.072 59.6617 113.67 59.5771 110.299 59.6525L110.297 56.5627Z" fill="white"/>
<path d="M93.1175 55.9859C93.3749 56.165 102.88 79.6818 103.917 82.0628C102.854 82.0597 101.749 82.0405 100.691 82.0837C99.9244 80.3158 93.2905 63.8855 93.0782 63.6887L93.036 63.7556C92.1408 65.6572 91.2175 68.0101 90.3762 69.9802L85.2243 82.064L81.98 82.0535C82.1594 81.5257 82.5745 80.6259 82.8019 80.0922L92.0376 58.4193C92.1854 58.0731 92.9504 56.2087 93.1175 55.9859Z" fill="white"/>
<path d="M64.2417 58.1661C68.0354 57.8927 71.2667 60.0565 72.9559 63.42C72.2213 63.5226 70.7954 63.9082 70.0276 64.097C69.7922 63.7694 69.5503 63.4299 69.2829 63.1298C67.2368 60.8337 63.965 60.4193 61.4257 62.1021C60.0587 62.9965 59.0994 64.4072 58.7604 66.0218C58.425 67.6268 58.7426 69.3013 59.641 70.6652C60.5532 72.0655 61.9778 73.0386 63.5992 73.3691C65.4673 73.7477 66.9169 73.2361 68.446 72.2071C69.1485 71.6051 69.3899 71.3373 69.9422 70.5903C70.9138 70.834 71.8895 71.0605 72.8686 71.2698C68.7275 79.6866 56.3833 77.158 55.737 67.8999C55.577 65.4447 56.3909 63.0265 57.9974 61.1839C59.5958 59.3244 61.8395 58.3331 64.2417 58.1661Z" fill="white"/>
<path d="M92.1467 90.2929C95.0844 89.9841 97.0284 92.7352 95.5493 95.439C95.0603 96.3338 94.0813 96.7321 93.1327 96.9493C92.0558 97.0562 91.204 96.9117 90.3047 96.2374C88.9253 95.2031 88.7435 92.8868 89.7759 91.5479C90.3921 90.7491 91.1612 90.4148 92.1467 90.2929ZM92.8467 96.0596C94.1722 95.9063 95.1225 94.6885 94.9653 93.3439C94.8082 91.9993 93.6041 91.0405 92.2803 91.2058C90.9648 91.3701 90.0274 92.5828 90.1833 93.9189C90.3393 95.255 91.5294 96.2118 92.8467 96.0596Z" fill="white"/>
<path d="M83.7194 90.3863C84.9669 90.3656 87.1841 90.0856 87.5112 91.733C87.6959 92.6639 87.3952 93.3636 86.5732 93.8078C87.6742 94.735 88.0172 96.0302 88.8924 96.9209L87.6772 96.9249C87.5622 96.8125 87.4022 96.575 87.3025 96.4369C86.4566 95.3596 86.3645 94.1376 84.7705 94.0809C84.7664 95.0249 84.7729 95.9689 84.7911 96.9127C84.4387 96.9176 84.0864 96.9191 83.7341 96.9171C83.7434 94.7402 83.7388 92.5632 83.7194 90.3863ZM84.7659 93.1923C85.3351 93.1789 85.7185 93.2182 86.2215 92.9221C86.5521 92.5227 86.7679 91.9862 86.2954 91.5881C85.8592 91.2205 85.3105 91.2291 84.7735 91.1985C84.7735 91.7495 84.8028 92.6711 84.7659 93.1923Z" fill="white"/>
<path d="M79.1643 90.2939C80.0014 90.1448 81.0121 90.5265 81.7854 90.8194L81.769 91.8708C80.9459 91.407 79.91 91.0195 78.9591 91.2468C78.3207 91.3981 77.7678 91.8007 77.4226 92.3658C77.0872 92.9366 76.9864 93.6182 77.1417 94.2638C77.283 94.8641 77.6565 95.3818 78.177 95.7007C79.1238 96.2846 80.0026 96.0675 80.9934 95.8195C80.9576 95.3961 80.9676 94.9646 80.9705 94.5392C80.6534 94.5446 79.9639 94.6693 79.7253 94.5115C79.6995 94.4944 79.6907 94.3254 79.6849 94.2742C79.6814 94.063 79.689 93.9254 79.7083 93.715C79.917 93.5699 81.5808 93.6197 81.9542 93.62C81.9191 94.4994 81.9402 95.559 81.9372 96.4524C81.4043 96.6893 80.8421 96.8505 80.2658 96.9317C79.1977 97.0747 78.1167 96.9386 77.2449 96.2524C76.5819 95.7321 76.1527 94.9633 76.0531 94.1185C75.8039 92.0285 77.1628 90.533 79.1643 90.2939Z" fill="white"/>
<path d="M104.752 90.3867C105.769 90.3734 107.522 90.1592 108.336 90.8602C108.663 91.1407 108.886 91.6856 108.882 92.1331C108.865 94.0864 107.388 94.0805 105.935 94.109C105.885 94.1053 105.867 94.1202 105.817 94.1397C105.759 94.5779 105.806 96.4168 105.824 96.9193L104.76 96.9175C104.849 95.0691 104.784 92.2817 104.752 90.3867ZM105.791 93.2294C106.365 93.2108 107.014 93.2748 107.485 92.9806C107.828 92.6152 108.137 92.039 107.669 91.6293C107.105 91.1366 106.446 91.3245 105.795 91.2453C105.798 91.7893 105.83 92.722 105.791 93.2294Z" fill="white"/>
<path d="M97.821 90.3508L98.5344 90.3915C98.5866 91.8572 98.4095 93.399 98.5954 94.8485C98.7713 96.2198 100.804 96.436 101.622 95.577C101.81 95.3771 101.941 95.1286 102.001 94.8586C102.114 94.3632 102.031 91.0966 102.023 90.385C102.361 90.3574 102.746 90.374 103.089 90.3809L103.075 91.4478C103.056 93.7995 103.648 96.2608 101.175 96.8913C99.5533 97.3046 97.6058 96.5293 97.5425 94.7336C97.5196 94.0911 97.4112 90.6341 97.5618 90.394L97.821 90.3508Z" fill="white"/>
<path d="M28.923 51H31.2828C31.6712 51.1386 32.5769 51.1521 33.0648 51.2501C34.8168 51.6019 36.5896 52.2308 38.1344 53.1406C41.871 55.3012 44.5952 58.8955 45.6945 63.1154C46.7612 67.2543 46.1908 71.6526 44.105 75.3702C41.9781 79.1357 38.4584 81.884 34.3271 83.005C30.1493 84.1393 25.6983 83.5368 21.9593 81.3309C18.2492 79.1334 15.561 75.5192 14.4951 71.2956C13.4579 67.1507 14.0642 62.7583 16.1836 59.0622C18.3076 55.3636 21.7868 52.668 25.8619 51.5639C26.3362 51.4326 26.8433 51.3068 27.3284 51.2284C27.844 51.145 28.4216 51.1321 28.923 51ZM31.2875 80.5127C38.491 79.8519 43.8022 73.3879 43.1491 66.0766C42.496 58.7653 36.1261 53.3763 28.923 54.0413C21.7228 54.706 16.4161 61.1683 17.0689 68.4767C17.7217 75.785 24.087 81.1732 31.2875 80.5127Z" fill="white"/>
<path d="M29.1321 54.5657C36.0472 54.0181 42.0905 59.2635 42.631 66.2822C43.1715 73.3009 38.0047 79.4357 31.0897 79.9854C24.1733 80.5353 18.1276 75.2894 17.5869 68.2692C17.0463 61.249 22.2156 55.1133 29.1321 54.5657ZM31.169 76.927C36.4114 76.3335 40.1915 71.5453 39.6197 66.2229C39.0477 60.9004 34.3395 57.0518 29.0943 57.6194C23.831 58.1888 20.0234 62.9878 20.5973 68.3286C21.1712 73.6695 25.9084 77.5225 31.169 76.927Z" fill="white"/>
<path d="M63.5288 51H65.8929C66.0978 51.0796 67.3439 51.2081 67.6697 51.2635C69.0054 51.4958 70.3042 51.9095 71.5312 52.4935C75.4252 54.3073 78.4414 57.6292 79.9047 61.7167C78.9872 61.9876 77.8581 62.1708 77.0063 62.4626C75.5143 59.1492 73.5381 56.7805 70.2191 55.2132C67.0856 53.7543 63.5124 53.6055 60.2718 54.7992C56.9664 56.036 54.2801 58.5547 52.8038 61.8013C51.3886 64.9393 51.2443 68.516 52.402 71.761C53.6228 75.136 56.1189 77.8777 59.3377 79.3788C62.4698 80.8128 66.0317 80.9406 69.2559 79.7345C72.9706 78.3348 75.3285 75.7891 76.953 72.1993C77.8704 72.4284 78.9427 72.7138 79.8678 72.8675C79.6503 73.586 79.2516 74.4375 78.8952 75.094C76.8504 78.8995 73.3904 81.7159 69.2865 82.9147C65.1516 84.1265 60.7123 83.6294 56.9372 81.5319C53.2122 79.4494 50.4562 75.9488 49.2766 71.8018C48.084 67.6475 48.57 63.1821 50.6273 59.3922C52.7058 55.5754 56.211 52.769 60.352 51.6061C60.954 51.4343 61.654 51.2781 62.2681 51.1675C62.7101 51.0879 63.0428 51.1436 63.5058 51.007L63.5288 51Z" fill="white"/>
</svg>
