<svg width="148" height="148" viewBox="0 0 148 148" fill="none" xmlns="http://www.w3.org/2000/svg">
<path d="M17.0312 67.8564C17.5759 67.8274 18.1728 67.8195 18.7168 67.8425C20.6819 67.9253 20.8851 70.9257 18.9051 71.2202C18.1291 71.2179 16.666 71.379 16.117 70.87C15.0453 69.8764 15.5354 68.0378 17.0312 67.8564ZM18.7409 70.1602C18.8621 70.1138 19.0797 70.0617 19.1257 69.9145C19.5474 68.5665 17.8904 68.8598 17.1245 68.8955C16.9605 68.9598 16.7351 69.0623 16.6694 69.256C16.2639 70.45 18.0594 70.2577 18.7409 70.1602Z" fill="white"/>
<path d="M16.6544 71.9954C17.689 71.9299 19.2504 71.9776 20.324 71.977L20.3312 72.9358C19.3641 73.0257 18.3359 72.8644 17.345 72.9739C16.5965 73.0566 16.232 73.897 17.0257 74.1821C17.3462 74.2973 18.1237 74.2514 18.4971 74.2457L20.3276 74.2334L20.3324 75.2917C19.82 75.2788 19.3073 75.3022 18.8023 75.2938C18.0954 75.2665 17.335 75.3885 16.645 75.2019C15.6906 74.9439 15.402 73.8868 15.6417 72.9936C15.7801 72.4778 16.2375 72.2195 16.6544 71.9954Z" fill="white"/>
<path d="M17.1534 77.7446L17.2311 77.7707C17.6502 78.1945 17.0045 78.7927 16.8108 79.0806C15.6366 80.8249 21.0143 80.2083 18.5897 78.6832C18.5771 78.2534 18.4559 77.9071 18.81 77.6894C19.4144 77.6093 20.0892 78.4838 20.2709 79.0284L20.2725 79.0455C20.3797 80.3297 19.7587 81.0047 18.5392 81.1272C17.1403 81.2679 15.3273 81.0466 15.5819 79.0885C15.6976 78.1991 16.3511 77.7998 17.1534 77.7446Z" fill="white"/>
<path d="M20.2716 75.9997C20.362 76.169 20.33 76.8214 20.3312 77.0665C18.8882 76.9977 17.0822 77.0497 15.6116 77.0546C15.492 76.8518 15.4796 76.279 15.6239 76.0852C16.0264 75.9848 16.8511 76.0233 17.2933 76.0202C18.2883 76.0134 19.2746 76.05 20.2716 75.9997Z" fill="white"/>
<path d="M20.2739 81.7982C20.3638 81.9113 20.3323 82.5915 20.3315 82.7845L15.5956 82.7857L15.5198 82.6675C15.5175 82.4551 15.4921 82.0936 15.5689 81.9118C15.8889 81.76 19.5998 81.8361 20.2739 81.7982Z" fill="white"/>
<path d="M41.2713 67.788C42.1279 67.7935 43.6742 67.7518 44.4581 67.8122C44.3836 69.5106 44.4254 71.4407 44.4261 73.1544L44.4308 85.4268C44.4312 85.8529 44.4604 86.6069 44.4305 87H37.259C37.087 86.9031 36.4471 86.707 36.236 86.6348C35.1506 86.2635 34.4918 85.773 33.7574 84.8797C32.8508 86.0724 31.4639 86.5564 30.147 87H28.0677C27.5317 86.7772 27.0041 86.6237 26.4656 86.3803C24.712 85.5879 23.188 83.4887 23.1057 81.4827C22.9198 76.9518 23.2027 72.3232 23.0597 67.7985C23.9215 67.7965 25.4581 67.749 26.262 67.8182C26.2408 70.8296 26.235 73.8411 26.2444 76.8526C26.2442 78.3885 26.1821 79.9873 26.3306 81.5102C26.365 81.8635 26.7668 82.4734 27.0089 82.7304C28.2 83.9949 29.9918 84.014 31.2165 82.7902C32.0117 81.9957 32.164 81.1382 32.1597 80.034C32.1649 75.9521 32.1604 71.8698 32.1583 67.789L35.3316 67.8025L35.3278 77.0761C35.3265 78.1048 35.3482 79.2736 35.3177 80.2911C35.2485 82.6031 36.6255 83.7037 38.7257 83.713L41.2838 83.7033C41.1862 78.4512 41.3122 73.0573 41.2713 67.788Z" fill="white"/>
<path d="M97.6092 67.795L101.51 67.7934C104.2 67.7861 106.058 67.6077 108.112 69.7493C108.178 69.8186 108.243 69.8901 108.305 69.9636C108.529 69.5959 109.095 69.1188 109.445 68.8685C111.366 67.4901 114.143 67.4624 116.108 68.7703C117.514 69.7162 118.506 71.2007 118.869 72.9026C119.053 73.7756 119.002 74.9746 119.001 75.8913L118.995 79.4078C118.992 81.7194 119.083 84.7518 118.987 87H115.844C115.796 85.6955 115.83 84.1643 115.83 82.8435L115.836 74.6443C115.834 73.6008 115.651 72.7807 114.913 72.0179C114.37 71.4504 113.633 71.1313 112.864 71.131C112.019 71.1371 111.307 71.4533 110.708 72.0704C109.988 72.8119 109.865 73.816 109.866 74.8241C109.868 75.9189 109.865 77.0152 109.865 78.1106L109.883 87H106.753C106.578 83.0049 106.842 78.8392 106.727 74.8216C106.607 70.6603 103.824 71.0453 100.765 71.1306C100.818 72.2952 100.779 73.7721 100.779 74.9554L100.774 81.9921C100.771 83.0216 100.776 84.0511 100.787 85.0805C100.793 85.5644 100.833 86.5568 100.755 87H97.6643C97.5383 86.5009 97.6004 82.1967 97.6045 81.3783C97.6256 76.8628 97.5629 72.3075 97.6092 67.795Z" fill="white"/>
<path d="M87.7842 87C87.4865 86.8728 87.1443 86.7543 86.8308 86.671C85.2312 86.2461 83.781 84.7313 83.1594 83.1796C82.9478 82.6571 82.8084 82.1063 82.7439 81.5433C82.6062 80.3259 82.7094 78.2891 82.6894 76.9761C82.6777 76.2221 82.6531 74.1269 82.7217 73.4263C82.7797 72.8252 82.9191 72.2357 83.1359 71.6755C83.6967 70.2594 85.0074 68.8951 86.3656 68.3113C87.9312 67.6401 89.6896 67.6465 91.2512 68.329C93.1221 69.1426 94.7539 71.2832 94.8787 73.4409C94.9174 74.7662 94.9484 76.1665 94.9162 77.4875C94.8828 78.8441 95.0064 80.4172 94.8582 81.7393C94.6285 83.7843 93.0506 85.7431 91.2371 86.4889C90.7725 86.6801 90.2129 86.7964 89.8033 87H87.7842ZM89.1219 83.7007C92.1424 82.8989 91.7832 80.8766 91.758 78.1491C91.7445 76.6831 91.8869 74.5758 91.598 73.1725C91.3426 71.9286 89.8736 71.0976 88.6379 71.1496C87.7461 71.2713 87.0816 71.4974 86.5098 72.2766C86.198 72.7042 85.9894 73.2031 85.901 73.7318C85.7012 74.915 85.8799 76.6414 85.8435 77.8813C85.7697 80.4244 85.4873 83.2371 88.6221 83.6967C88.7644 83.7185 88.9695 83.7043 89.1219 83.7007Z" fill="white"/>
<path d="M126.698 87C126.4 86.8582 125.754 86.6618 125.408 86.531C124.329 86.1213 123.402 85.3684 122.756 84.379C122.248 83.6138 121.899 82.7464 121.73 81.8323C121.492 80.5648 121.481 74.3433 121.711 73.0541C122.035 71.2409 122.936 69.8778 124.388 68.843C125.647 67.9447 127.37 67.6162 128.864 67.9111C130.047 68.1448 131.014 68.6562 131.906 69.4974C134.266 71.7241 133.856 74.2121 133.884 77.1846C133.886 77.4347 133.852 77.8121 133.992 78.0208C133.995 78.0244 133.998 78.028 134 78.0316V78.6036C133.972 78.627 133.872 78.699 133.844 78.7007C131.149 78.87 127.321 78.569 124.74 78.771C124.731 80.189 124.588 81.6596 125.64 82.7644C126.817 83.9988 128.724 83.993 129.905 82.7577C130.501 82.1345 130.771 81.4582 130.811 80.5836C131.33 80.5399 133.627 80.4663 134 80.6661V80.9386C133.815 81.4618 133.827 81.9506 133.671 82.4787C133.153 84.2461 131.946 85.6063 130.357 86.4034C129.767 86.6998 129.308 86.7816 128.772 87H126.698ZM124.749 76.1351L127.994 76.1396C128.855 76.1395 129.927 76.1695 130.772 76.1197C130.814 74.6102 130.943 73.2054 129.852 72.0336C129.266 71.404 128.497 71.0759 127.649 71.1609C126.741 71.2259 126.226 71.4179 125.589 72.1474C124.611 73.2682 124.721 74.7089 124.749 76.1351Z" fill="white"/>
<path d="M52.1589 87C51.6561 86.7777 51.093 86.6555 50.6134 86.4549C48.8377 85.712 47.2011 83.4901 47.1205 81.4494C47.0173 78.8409 46.9923 75.825 47.1362 73.2137C47.2471 71.202 48.9702 69.0424 50.7652 68.2973C52.3433 67.6321 54.1108 67.6496 55.6764 68.3457C57.8023 69.3018 59.1994 71.5568 59.3452 73.9033C59.3872 74.5805 59.5166 78.1082 59.3253 78.5595C59.3084 78.5999 59.287 78.6381 59.2617 78.6733C58.7598 78.7697 57.3498 78.7333 56.7835 78.7329L52.7389 78.7291C51.9506 78.7286 50.9752 78.7058 50.205 78.7627C50.165 80.0203 50.0899 81.8362 51.0297 82.7259C53.186 84.7674 55.8812 83.4072 56.2474 80.5702C56.7701 80.5598 58.9835 80.4622 59.2751 80.6514C59.4566 80.9826 59.1333 82.2412 59.0308 82.6064C58.4244 84.7683 56.672 86.2616 54.6267 86.8449C54.5084 86.8786 54.2875 86.9497 54.1778 87H52.1589ZM50.2236 76.1365L53.4629 76.1396C53.9815 76.1443 55.7851 76.2419 56.1212 76.006C56.3101 75.6696 56.2364 75.0859 56.2343 74.6993C56.224 72.7576 55.0477 71.0724 53.0874 71.159C50.3334 71.4048 50.0599 73.7349 50.2236 76.1365Z" fill="white"/>
<path d="M72.7889 87C72.3922 86.8064 71.9776 86.699 71.5682 86.5438C69.9823 85.9426 68.7087 84.5057 68.1398 82.8732C67.9423 82.2979 67.815 81.699 67.761 81.0907C67.6645 80.0339 67.7418 78.2512 67.7298 77.1326C67.7196 76.1812 67.6835 74.3259 67.7917 73.4489C67.8811 72.7358 68.0728 72.0406 68.3602 71.3867C70.6254 66.3479 77.8191 66.7573 79.6473 71.9721C79.7551 72.2792 80.1834 73.9518 80.0352 74.1944C79.5711 74.3178 77.5707 74.2709 76.952 74.2849C76.5986 72.1863 75.4174 70.7996 73.2576 71.2062C69.8341 71.8507 71.0869 77.5618 70.8733 80.1091C70.5271 84.2364 76.4902 85.251 76.9467 80.5696C77.4488 80.5583 79.7129 80.4738 80.0545 80.6363C80.1945 80.8848 79.956 81.6654 79.901 81.9536C79.4346 84.3949 77.7447 86.1682 75.4531 86.8115C75.3025 86.8538 75.0734 86.9324 74.9305 87H72.7889Z" fill="white"/>
<path d="M62.0859 61H65.1088C65.1915 61.7384 65.1498 63.5275 65.1494 64.3259L65.1464 81.4086C65.1464 83.1772 65.1957 85.2636 65.1364 87H62.0303C61.9691 86.6287 61.9944 84.9808 61.9942 84.5223L61.9932 79.3301C61.9926 73.344 61.9868 67.3571 62.0018 61.3712C62.0022 61.2238 62.0152 61.1294 62.0859 61Z" fill="white"/>
<path d="M15.5256 85.8802C15.5758 85.2324 15.56 84.7643 15.5071 84.1167C15.4476 83.3876 16.0813 83.4481 16.5325 83.4583L16.536 85.8899C17.0443 85.8918 18.2782 85.9772 18.6784 85.8266C19.5838 85.4857 19.272 84.8427 18.5682 84.5194C18.5794 84.2018 18.5839 83.7368 18.6231 83.4343C19.248 83.6332 19.7828 83.8118 20.1209 84.4682C20.3178 84.8572 20.3577 85.3119 20.2317 85.7317C20.0062 86.477 19.4259 86.7451 18.79 87H14V85.8979L15.5256 85.8802Z" fill="white"/>
<path d="M14 76.0806C14.3913 76.0111 14.6627 76.0148 15.0611 76.0119L15.0736 77.0658C14.8039 77.0581 14.2409 77.0561 14 77.0073V76.0806Z" fill="white"/>
<path d="M14 81.895C14.4028 81.8304 14.6522 81.8182 15.0613 81.8069L15.0677 82.784C14.7589 82.7804 14.2959 82.7892 14 82.7619V81.895Z" fill="white"/>
</svg>
