<svg width="148" height="148" viewBox="0 0 148 148" fill="none" xmlns="http://www.w3.org/2000/svg">
<path d="M13.4328 75.7497C12.6748 74.399 12.203 72.9786 12.0337 71.4557C11.7522 68.9057 13.2565 66.6914 15.6616 66.117C16.5787 65.8983 17.4755 65.9977 18.3411 66.3469C18.5876 66.4463 18.82 66.6297 19.0071 66.8268C19.6591 67.5134 20.1441 68.3161 20.4647 69.2189C20.5115 69.3512 20.545 69.4881 20.577 69.6251C20.6698 70.0161 20.5653 70.3157 20.2276 70.5512C19.6957 70.9221 19.2676 71.406 18.9058 71.9492C18.4862 72.5796 18.3583 73.2774 18.5891 74C18.7552 74.5192 18.9837 75.0223 19.2302 75.5086C19.617 76.2712 20.0186 77.0251 20.18 77.8791C20.2526 78.2644 20.2869 78.6569 20.3415 79.0687C20.3882 79.0503 20.4358 79.0407 20.4732 79.0158C21.8567 78.109 22.9898 76.9618 23.7034 75.422C24.0902 74.5873 24.2992 73.7108 24.2017 72.7783C24.091 71.7201 23.5981 70.8957 22.7411 70.3013C22.6833 70.2612 22.6116 70.2412 22.4923 70.1883C22.7254 71.7008 22.6342 73.1404 22.0797 74.5264C21.8824 75.0199 21.6508 75.4949 21.3046 75.9171C21.3607 75.3908 21.4208 74.8652 21.4722 74.3389C21.5853 73.1645 21.6516 71.9892 21.5144 70.81C21.4161 69.964 21.2172 69.1461 20.8562 68.3786C20.623 67.8835 20.637 67.5879 21.1424 67.1881C21.8629 66.6185 22.6358 66.1771 23.5583 66.0465C26.2839 65.6612 28.689 67.7898 28.7919 70.6137C28.8644 72.5917 28.3185 74.3461 27.2696 75.974C25.9525 78.0169 24.2345 79.6319 22.2583 80.9746C21.8013 81.2854 21.3256 81.5682 20.8577 81.8622C20.5785 82.0385 20.3048 82.0513 20.0147 81.8678C18.48 80.9033 16.9897 79.8779 15.6756 78.6033C14.8092 77.7629 14.0543 76.8296 13.4328 75.7505V75.7497Z" fill="#F2F4F5"/>
<path d="M60.5342 75.3771C60.5342 74.5055 60.5373 73.6731 60.5316 72.8399C60.5301 72.61 60.5247 72.3769 60.4864 72.151C60.3445 71.3194 59.801 71.2121 59.2254 71.3395C59.0405 71.3803 58.8637 71.5077 58.7076 71.6279C58.5189 71.7729 58.4573 71.9764 58.4596 72.2335C58.476 73.7452 58.4714 75.2569 58.4721 76.7686C58.4721 76.8167 58.4573 76.8648 58.4465 76.9297H56.6332C56.6332 76.7791 56.6332 76.6533 56.6332 76.5275C56.6332 75.2593 56.6378 73.9904 56.6293 72.7222C56.6278 72.469 56.5998 72.2087 56.5374 71.9643C56.4219 71.5133 56.1429 71.3002 55.6928 71.3058C55.4969 71.3082 55.292 71.3347 55.1087 71.4027C54.707 71.5518 54.5768 71.7729 54.5768 72.2119C54.5768 73.6467 54.5768 75.0823 54.5768 76.5171C54.5768 76.6445 54.5768 76.7718 54.5768 76.9265H52.8136C52.7371 76.6725 52.7191 70.3869 52.7995 69.9511H54.4325C54.4631 70.2067 54.4911 70.443 54.5262 70.7386C54.6212 70.6497 54.6828 70.5992 54.7368 70.5415C55.3614 69.867 56.1295 69.6755 56.9944 69.8598C57.4514 69.9575 57.8177 70.2171 58.0683 70.6313C58.1197 70.7162 58.1736 70.8003 58.2452 70.9165C58.3356 70.8059 58.4128 70.7114 58.4901 70.6176C59.1014 69.8766 59.8844 69.6579 60.7822 69.867C61.4099 70.0128 61.8263 70.443 62.082 71.0398C62.2918 71.5285 62.3652 72.0517 62.3698 72.578C62.3824 73.9743 62.3744 75.3715 62.3736 76.7678C62.3736 76.8167 62.3606 76.8656 62.3495 76.9337H60.5488C60.5442 76.6837 60.5373 76.4346 60.535 76.1846C60.5324 75.9283 60.535 75.6719 60.535 75.3771H60.5342Z" fill="#F2F4F5"/>
<path d="M86.513 67.3867C86.8696 67.3988 87.2003 67.3731 87.513 67.438C88.4098 67.6223 89.05 68.3689 89.1476 69.303C89.248 70.2659 88.887 71.027 88.1587 71.6174C87.9543 71.7833 87.7415 71.9371 87.5035 72.1189C88.0542 72.7879 88.5892 73.4392 89.142 74.1121C89.4937 73.5578 89.5786 72.9665 89.6403 72.3601H91.0731C91.0731 73.4696 90.8607 74.4951 90.1855 75.3995C90.5973 75.905 90.995 76.3937 91.4263 76.9241C91.2859 76.9377 91.1929 76.9529 91.1003 76.9537C90.6394 76.9561 90.1768 76.9401 89.7168 76.9609C89.4664 76.9721 89.2862 76.8992 89.1484 76.6861C89.0875 76.5924 89 76.5155 88.9119 76.4162C88.7748 76.4883 88.6436 76.5563 88.5135 76.6268C87.6011 77.1211 86.6355 77.2165 85.6445 76.9801C84.2446 76.6453 83.4428 75.3451 83.7103 73.899C83.7976 73.4272 84.0287 73.0402 84.3545 72.7102C84.6282 72.4322 84.9183 72.1702 85.2294 71.8738C85.1647 71.7656 85.0969 71.6487 85.0253 71.5349C84.6564 70.9533 84.431 70.3357 84.4646 69.6219C84.519 68.4682 85.1593 67.6687 86.2573 67.434C86.3308 67.418 86.4047 67.4068 86.5123 67.3891M86.7806 73.8069C86.5811 73.5698 86.3821 73.3334 86.1606 73.0699C85.9921 73.2605 85.8417 73.3983 85.7303 73.5634C85.2335 74.298 85.5539 75.3595 86.3511 75.5678C86.9148 75.7152 87.4552 75.5846 87.9854 75.2737C87.5831 74.7835 87.1988 74.3164 86.7806 73.8069ZM87.6088 69.4232C87.5464 69.2053 87.4288 69.0306 87.2275 68.9265C86.7636 68.6854 86.2402 68.9706 86.1287 69.5345C86.0163 70.1001 86.252 70.5463 86.6052 70.9741C86.8111 70.8356 87.0029 70.7186 87.1823 70.5832C87.5464 70.31 87.6945 69.9399 87.6088 69.4224V69.4232Z" fill="#F2F4F5"/>
<path d="M98.9908 71.3979C99.6747 71.6174 100.317 71.857 100.906 72.2303C102.063 72.9649 102.311 74.0408 102.091 75.0935C101.932 75.8521 101.465 76.3905 100.792 76.6805C99.2855 77.3294 97.7952 77.2878 96.393 76.3665C95.5953 75.8426 95.3068 75.0366 95.3317 74.0945C95.5999 74.0064 96.662 73.9888 97.0933 74.0633C97.109 74.1706 97.1239 74.2836 97.1408 74.3957C97.222 74.9397 97.5177 75.313 98.0153 75.4989C98.5213 75.6879 99.0422 75.7023 99.5577 75.5349C99.9874 75.3955 100.262 75.0983 100.317 74.6305C100.371 74.1762 100.235 73.7708 99.8455 73.5353C99.4945 73.323 99.1053 73.174 98.7264 73.0138C98.1968 72.7903 97.6533 72.5988 97.1308 72.3601C96.8602 72.2367 96.6061 72.0613 96.3712 71.8738C95.3191 71.0318 95.2046 69.3976 96.1155 68.3953C96.4009 68.0813 96.7362 67.8346 97.1247 67.6815C98.2576 67.2345 99.4026 67.2201 100.512 67.7312C101.475 68.1742 102.035 68.9481 102.063 70.0689C102.065 70.1298 102.052 70.1915 102.043 70.2732H100.302C100.291 70.2099 100.278 70.1506 100.27 70.0905C100.175 69.3687 99.7923 68.9417 99.093 68.8648C98.7777 68.8296 98.4401 68.852 98.1328 68.9313C97.6846 69.0474 97.4186 69.3839 97.3547 69.863C97.2931 70.3252 97.491 70.6705 97.8748 70.882C98.225 71.0751 98.5985 71.2217 98.99 71.3979H98.9908Z" fill="#F2F4F5"/>
<path d="M103.292 73.762C103.292 71.4444 103.292 69.166 103.292 66.83C103.906 66.8268 104.494 66.8284 105.118 66.8292V70.7442C105.252 70.604 105.327 70.5295 105.399 70.451C106.378 69.3711 108.517 69.573 108.986 71.3843C109.078 71.74 109.146 72.1141 109.151 72.4811C109.169 73.9159 109.158 75.3507 109.157 76.7863C109.157 76.8239 109.146 76.8616 109.132 76.9545H107.354C107.348 76.8007 107.339 76.6653 107.339 76.5307C107.338 75.3523 107.346 74.173 107.333 72.9946C107.33 72.6517 107.301 72.3016 107.227 71.9683C107.126 71.5181 106.836 71.3178 106.386 71.3002C106.068 71.2882 105.765 71.337 105.485 71.5013C105.243 71.6439 105.112 71.8249 105.116 72.1454C105.133 73.6058 105.124 75.0663 105.124 76.5275C105.124 76.6541 105.124 76.7807 105.124 76.9313H103.31C103.272 76.598 103.298 76.2559 103.294 75.9162C103.289 75.5574 103.293 75.1984 103.293 74.8403C103.293 74.4822 103.293 74.1482 103.293 73.7644L103.292 73.762Z" fill="#F2F4F5"/>
<path d="M122.659 70.7787C122.122 71.5678 121.6 72.3336 121.056 73.1316C121.865 74.3813 122.676 75.6343 123.511 76.9257C123.369 76.9377 123.274 76.9521 123.179 76.9529C122.705 76.9553 122.231 76.9409 121.758 76.9593C121.518 76.9689 121.373 76.896 121.242 76.6805C120.759 75.8882 120.242 75.1167 119.761 74.3236C119.603 74.0625 119.427 73.9735 119.124 74.0721V76.9305H117.328V66.8508H119.113V72.5155C119.391 72.6253 119.537 72.5387 119.668 72.3152C120.086 71.6022 120.531 70.9053 120.951 70.1931C121.069 69.992 121.206 69.9207 121.431 69.9271C122.002 69.9423 122.573 69.9319 123.185 69.9319C123.054 70.2668 122.841 70.4975 122.658 70.7795L122.659 70.7787Z" fill="#F2F4F5"/>
<path d="M36.8898 69.1925C36.0406 71.7929 35.2023 74.3661 34.3639 76.9393H32.472C31.459 73.8181 30.4467 70.7002 29.4345 67.5806C29.6973 67.4973 30.8827 67.4789 31.3584 67.551C32.0369 69.9391 32.7192 72.3409 33.4195 74.8067C34.1245 72.3336 34.8092 69.9327 35.4924 67.5349H37.4209C37.24 68.1013 37.0708 68.6325 36.8898 69.1916V69.1925Z" fill="#F2F4F5"/>
<path d="M110.363 73.9895C110.812 73.2021 111.535 72.9505 112.323 72.852C112.742 72.7999 113.168 72.8135 113.592 72.8007C113.753 72.7959 113.915 72.8007 114.127 72.8007C114.142 72.4194 114.175 72.0541 114.024 71.7056C113.861 71.3314 113.476 71.1552 112.98 71.2097C112.555 71.2561 112.344 71.4484 112.237 71.8874C112.229 71.9235 112.213 71.9587 112.194 72.0164H110.456C110.411 71.5221 110.572 71.1135 110.876 70.7546C111.23 70.3365 111.68 70.0697 112.198 69.9303C112.848 69.7564 113.504 69.7396 114.159 69.903C115.322 70.1938 115.96 71.0262 115.964 72.2535C115.966 72.8808 115.963 73.5081 115.964 74.1354C115.967 75.0663 115.906 76.0036 116.26 76.9297H114.425C114.341 76.6637 114.251 76.3769 114.15 76.0597C114.093 76.1157 114.029 76.1654 113.982 76.2263C113.262 77.1436 112.052 77.3799 111.056 76.7935C110.635 76.5459 110.358 76.175 110.232 75.6984C110.082 75.1271 110.083 74.5592 110.363 73.9895ZM113.774 73.8862C113.464 73.8942 113.153 73.8862 112.845 73.9143C112.502 73.9455 112.239 74.1306 112.075 74.447C111.757 75.0607 112.107 75.6679 112.783 75.6751C113.258 75.6799 113.657 75.4949 113.963 75.1255C114.046 75.0246 114.121 74.8852 114.132 74.757C114.158 74.4822 114.14 74.2043 114.14 73.9038C114.017 73.8966 113.933 73.8918 113.775 73.8862H113.774Z" fill="#F2F4F5"/>
<path d="M49.2879 71.4404C49.0515 71.2361 48.7958 71.1936 48.5291 71.2025C48.0433 71.2185 47.8133 71.4123 47.6844 71.9026C47.6752 71.9379 47.6549 71.9707 47.6338 72.0164H45.9181C45.8604 71.5013 46.0383 71.0927 46.3456 70.7338C46.5959 70.4414 46.8999 70.2171 47.2523 70.0721C48.0813 69.7324 48.9316 69.6948 49.7816 69.9543C50.8391 70.2772 51.4029 71.0775 51.4106 72.2111C51.4144 72.7366 51.4067 73.2621 51.4121 73.7869C51.4239 74.8315 51.3241 75.8866 51.7053 76.9289H49.8751C49.7916 76.6669 49.7013 76.3817 49.5968 76.0532C49.5023 76.159 49.4291 76.2367 49.3603 76.3192C48.6454 77.1788 47.3212 77.3671 46.4064 76.7302C45.7887 76.3 45.5782 75.6615 45.5898 74.9317C45.6039 74.0232 46.0555 73.4143 46.8626 73.0787C47.3781 72.864 47.924 72.8031 48.4762 72.8007C48.8348 72.7991 49.1927 72.8007 49.5834 72.8007C49.5842 72.3056 49.6576 71.8426 49.2872 71.4412M48.5799 75.6423C48.891 75.567 49.1655 75.4204 49.376 75.1712C49.4633 75.0679 49.5662 74.9421 49.5788 74.8171C49.6083 74.5183 49.5881 74.2139 49.5881 73.9079C49.1326 73.9079 48.7216 73.8806 48.3155 73.9151C47.8539 73.9543 47.5378 74.2587 47.4398 74.6817C47.3188 75.2016 47.6261 75.6367 48.1478 75.6727C48.271 75.6815 48.3958 75.6631 48.5807 75.6415L48.5799 75.6423Z" fill="#F2F4F5"/>
<path d="M129.071 75.1952C129.223 75.5597 129.364 75.901 129.518 76.2775C129.396 76.3665 129.285 76.4666 129.158 76.5363C128.15 77.0907 127.075 77.2445 125.97 76.9793C124.845 76.7102 124.159 75.9219 123.869 74.8035C123.6 73.7676 123.621 72.7126 124.013 71.708C124.535 70.3741 125.544 69.7525 126.877 69.7949C128.411 69.8438 129.329 70.6962 129.544 72.2631C129.619 72.8143 129.596 73.3799 129.619 73.9856H125.629C125.588 74.9333 126.131 75.5662 126.987 75.6134C127.596 75.6471 128.176 75.5365 128.727 75.2577C128.825 75.2081 128.917 75.0639 129.071 75.1952ZM126.504 72.7206C126.932 72.707 127.363 72.7502 127.837 72.6901C127.798 72.4282 127.791 72.1983 127.729 71.9844C127.522 71.269 126.654 71.0214 126.108 71.5221C125.776 71.8257 125.654 72.2287 125.622 72.7206C125.914 72.7206 126.172 72.7206 126.503 72.7206H126.504Z" fill="#F2F4F5"/>
<path d="M72.2818 70.3589C72.7152 70.7979 72.8533 71.3379 72.9313 71.9043C72.9455 72.0052 72.9547 72.1085 72.9547 72.2103C72.9562 73.7709 72.9555 75.3322 72.9555 76.9233H71.1391C71.1391 76.7943 71.1391 76.6709 71.1391 76.5467C71.1391 75.2657 71.144 73.9856 71.1353 72.7046C71.1337 72.4506 71.1057 72.1919 71.0464 71.9459C70.9497 71.5446 70.6611 71.3259 70.2619 71.3002C69.8899 71.2762 69.5451 71.3499 69.2347 71.5758C69.0273 71.7272 68.9269 71.9066 68.9292 72.1862C68.9423 73.6202 68.9354 75.0551 68.9354 76.4899V76.9289H67.1182V69.9527H68.8052C68.8324 70.2315 68.8596 70.5063 68.8956 70.87C69.418 70.165 70.0475 69.7733 70.8631 69.7941C71.3856 69.8077 71.8747 69.9431 72.28 70.3589H72.2818Z" fill="#F2F4F5"/>
<path d="M132.451 72.3833C132.812 72.5227 133.144 72.6709 133.49 72.7582C134.06 72.9024 134.62 73.0571 135.14 73.3559C136.227 73.9815 136.188 75.4909 135.55 76.1846C135.289 76.469 134.989 76.6981 134.634 76.8319C133.686 77.1868 132.724 77.2141 131.781 76.8423C131.032 76.5475 130.503 76.0084 130.328 75.1696C130.3 75.0358 130.302 74.8948 130.286 74.7274H131.96C131.974 74.773 131.994 74.8187 131.999 74.866C132.059 75.3947 132.383 75.6847 132.928 75.752C133.181 75.7833 133.451 75.752 133.703 75.6951C134.011 75.6246 134.192 75.3955 134.218 75.0655C134.242 74.7603 134.088 74.5359 133.832 74.4222C133.526 74.286 133.2 74.1939 132.879 74.0937C132.569 73.9968 132.252 73.9271 131.946 73.8205C131.748 73.7516 131.559 73.6475 131.372 73.5449C130.214 72.9097 130.266 71.4388 130.949 70.6833C131.216 70.3877 131.523 70.1466 131.895 70.0152C132.814 69.6908 133.739 69.6908 134.632 70.0873C135.359 70.4102 135.864 70.9501 135.935 71.8153C135.939 71.8658 135.935 71.9171 135.928 71.9675C135.925 71.9908 135.906 72.0116 135.885 72.0509H134.199C134.177 71.9796 134.147 71.8994 134.128 71.8169C134.043 71.4556 133.816 71.2297 133.47 71.1608C133.094 71.0855 132.719 71.0927 132.423 71.4035C132.16 71.6799 132.166 72.002 132.453 72.3833H132.451Z" fill="#F2F4F5"/>
<path d="M74.0715 75.4292C74.0294 75.188 73.9957 74.9765 73.9575 74.7298H75.6475C75.6617 74.7851 75.6835 74.8444 75.6912 74.9052C75.7559 75.3947 76.0601 75.6639 76.5037 75.732C76.7915 75.7761 77.1004 75.7512 77.3882 75.6943C77.6775 75.6367 77.8585 75.4164 77.8949 75.0999C77.9332 74.7739 77.7774 74.5407 77.5098 74.4198C77.2041 74.2812 76.8765 74.193 76.5553 74.0929C76.2457 73.9968 75.9276 73.9263 75.6219 73.8189C75.4229 73.7492 75.235 73.6427 75.0486 73.5401C73.8897 72.9032 73.9513 71.4284 74.6399 70.6761C75.0019 70.2812 75.4347 70.0176 75.9479 69.9007C76.733 69.7228 77.5098 69.7484 78.2623 70.0617C78.7622 70.27 79.1693 70.5992 79.4258 71.0975C79.5742 71.3851 79.6481 71.6912 79.6006 72.0444H77.8849C77.87 72.0164 77.8444 71.986 77.8351 71.9507C77.6618 71.2449 77.0529 70.9261 76.3977 71.2033C76.1084 71.3259 75.9258 71.5421 75.912 71.8706C75.8986 72.1926 76.0716 72.4098 76.3517 72.5163C76.6192 72.618 76.9016 72.6797 77.1746 72.7663C77.6385 72.912 78.1142 73.0298 78.5604 73.2213C79.2014 73.4953 79.6163 73.9815 79.673 74.729C79.7339 75.5317 79.4345 76.1534 78.7747 76.5852C78.6079 76.6941 78.4276 76.7911 78.2413 76.8592C77.3789 77.1748 76.5006 77.1884 75.6319 76.9088C74.9066 76.6757 74.37 76.1991 74.0715 75.4292Z" fill="#F2F4F5"/>
<path d="M41.8724 69.7476C41.8731 69.2245 41.8731 68.739 41.8731 68.2319H43.7113V69.9151H44.8186C44.8684 70.3733 44.8296 70.8011 44.8465 71.2762H43.7347C43.7259 71.4332 43.7151 71.5446 43.7151 71.6559C43.7136 72.6813 43.7151 73.706 43.7151 74.7314C43.7151 74.757 43.7151 74.7827 43.7151 74.8083C43.7259 75.4364 43.9552 75.6407 44.5534 75.5597C44.6252 75.5501 44.6984 75.5509 44.7914 75.5461C44.8412 75.9908 44.8894 76.421 44.941 76.8776C44.8247 76.9209 44.7267 76.9689 44.6222 76.9953C44.13 77.1203 43.6348 77.1396 43.1426 77.0034C42.5671 76.8439 42.1694 76.4706 42.022 75.8786C41.9309 75.5101 41.8862 75.1215 41.8793 74.741C41.8605 73.7292 41.8731 72.7166 41.8731 71.704V71.2954H40.9091C40.8804 70.8364 40.8976 70.4094 40.8968 69.9287C41.1689 69.9287 41.4138 69.9287 41.6585 69.9287C41.7591 69.9287 41.8677 69.9359 41.8716 69.7468L41.8724 69.7476Z" fill="#F2F4F5"/>
<path d="M40.0614 72.3777C40.0614 73.9127 40.0614 75.4083 40.0614 76.9297H38.2407V69.9575H40.0614V72.3777Z" fill="#F2F4F5"/>
<path d="M63.8452 72.8392C63.8452 71.8554 63.8452 70.9101 63.8452 69.9495H65.6554V76.9305H63.8624C63.8257 76.4939 63.8516 76.05 63.8468 75.607C63.8421 75.1456 63.846 74.6841 63.846 74.2227C63.846 73.7741 63.846 73.3254 63.846 72.8383L63.8452 72.8392Z" fill="#F2F4F5"/>
<path d="M55.1804 80.4209C55.2435 80.5884 55.2959 80.7254 55.348 80.8632C55.3737 80.8632 55.4004 80.8616 55.4261 80.8608C55.6225 80.2711 55.8199 79.6815 56.0235 79.0711H56.681C56.3339 79.9643 55.9986 80.8271 55.6592 81.6979H55.1501C55.0253 81.3959 54.9013 81.0963 54.7421 80.7101C54.583 81.0955 54.459 81.3943 54.3327 81.7003H53.8243C53.4873 80.8327 53.1527 79.9691 52.8033 79.0711H53.4554C53.6541 79.6567 53.8577 80.2567 54.0793 80.912C54.2875 80.5643 54.392 80.2848 54.2313 79.9379C54.1096 79.6767 54.0418 79.3891 53.9396 79.0815H54.4731C54.5488 79.2898 54.6284 79.5093 54.7421 79.8225C54.852 79.5165 54.9301 79.2978 55.0112 79.0719H55.5478C55.4402 79.3939 55.3349 79.6895 55.2435 79.99C55.2045 80.1189 55.1937 80.2575 55.1811 80.4218L55.1804 80.4209Z" fill="#F2F4F5"/>
<path d="M70.2331 79.8425C70.4116 80.0676 70.573 80.2711 70.7345 80.4746C70.7594 80.4666 70.7836 80.4586 70.8085 80.4514C70.8133 80.2303 70.8203 80.0092 70.8226 79.7881C70.8249 79.5589 70.8226 79.3306 70.8226 79.0743H71.4066V81.6779C71.1345 81.766 70.9114 81.7292 70.7181 81.4488C70.4537 81.065 70.1482 80.711 69.8393 80.3168C69.6958 80.5611 69.772 80.7919 69.7589 81.0082C69.7456 81.2237 69.7559 81.4408 69.7559 81.6867H69.1734V79.0831C69.4375 78.9925 69.6575 79.027 69.826 79.3082C69.9358 79.4916 70.084 79.6519 70.2324 79.8433L70.2331 79.8425Z" fill="#F2F4F5"/>
<path d="M96.128 81.1524C96.2276 81.3318 96.3144 81.4872 96.4125 81.6635C96.2276 81.754 96.0413 81.7148 95.8652 81.7035C95.7981 81.6995 95.7193 81.6178 95.6749 81.5513C95.5758 81.4047 95.4978 81.2429 95.4051 81.0915C95.2513 80.8391 95.2498 80.8407 94.8934 80.9192V81.6883H94.3022V79.0671C94.7389 79.0671 95.1781 79.019 95.603 79.0783C96.2058 79.1632 96.4905 79.9363 96.1473 80.4626C96.0857 80.5571 96.0022 80.6357 95.9026 80.7518C95.9681 80.8688 96.0413 80.9977 96.128 81.1516M95.4618 80.3048C95.6865 80.1173 95.7535 79.9467 95.6359 79.7704C95.4392 79.474 95.1617 79.6222 94.9011 79.6278V80.3152C95.0814 80.3152 95.239 80.3152 95.4611 80.3056L95.4618 80.3048Z" fill="#F2F4F5"/>
<path d="M105.079 79.043C106.031 78.9429 106.798 80.0444 106.329 80.9954C106.077 81.5065 105.545 81.8013 105 81.7228C104.46 81.645 104.026 81.2141 103.916 80.6477C103.806 80.0732 104.06 79.4844 104.556 79.2121C104.706 79.1295 104.884 79.1007 105.079 79.043ZM104.879 79.6655C104.514 79.9803 104.408 80.3937 104.592 80.7855C104.812 81.2525 105.412 81.3238 105.693 80.9064C105.901 80.5964 105.917 80.2599 105.738 79.9275C105.581 79.6367 105.356 79.5605 104.879 79.6647V79.6655Z" fill="#F2F4F5"/>
<path d="M92.376 79.7921C92.7082 80.5403 92.3511 81.2164 91.9557 81.4961C91.3716 81.9102 90.6097 81.7821 90.1971 81.1924C89.7666 80.5788 89.879 79.7576 90.4538 79.3042C91.0107 78.8652 91.7827 78.9669 92.2232 79.5389C92.2771 79.6086 92.3169 79.6903 92.376 79.7913M91.7226 80.9345C91.909 80.6805 91.9377 80.3945 91.8581 80.0997C91.7398 79.6623 91.2797 79.458 90.9139 79.6687C90.5552 79.8754 90.4351 80.4562 90.6682 80.8519C90.8913 81.2293 91.2787 81.2781 91.7218 80.9345H91.7226Z" fill="#F2F4F5"/>
<path d="M108.255 79.4099C108.259 79.2761 108.264 79.1776 108.269 79.0678H108.863C108.863 79.4836 108.858 79.8786 108.865 80.2727C108.868 80.4378 108.878 80.6068 108.917 80.7654C108.983 81.0314 109.162 81.1732 109.392 81.1788C109.637 81.1852 109.835 81.037 109.902 80.7598C109.941 80.6012 109.947 80.4313 109.95 80.2655C109.956 79.8722 109.952 79.4788 109.952 79.0655H110.581C110.561 79.6559 110.577 80.2311 110.511 80.7967C110.442 81.3959 110.012 81.7316 109.42 81.7404C108.836 81.7492 108.4 81.4215 108.311 80.8199C108.244 80.3689 108.27 79.9026 108.255 79.4091V79.4099Z" fill="#F2F4F5"/>
<path d="M75.0915 79.0759C75.122 79.2465 75.1289 79.3963 75.1382 79.587H73.9842V80.1005H74.9518V80.6092H73.9811V81.166H75.1562V81.6915H73.3765V79.0558C73.9341 79.0558 74.5012 79.0558 75.0922 79.0759H75.0915Z" fill="#F2F4F5"/>
<path d="M58.352 79.8409C58.352 79.563 58.352 79.3226 58.352 79.0646H60.1216V79.5886H58.9907V80.1029H59.9663V80.6012H58.9815V81.1668H60.1558V81.6859H58.352V79.8409Z" fill="#F2F4F5"/>
<path d="M81.2188 79.7608C81.2399 79.9843 81.3957 80.0148 81.5369 80.062C81.7263 80.1253 81.9238 80.1694 82.1063 80.2503C82.4313 80.3937 82.5648 80.6292 82.5484 80.9777C82.532 81.3222 82.3394 81.573 82.0088 81.6827C81.5636 81.8293 80.9623 81.7212 80.4817 81.3903C80.5544 81.2405 80.6299 81.0851 80.7182 80.904C80.8319 80.9553 80.9264 81.013 81.0293 81.0402C81.2329 81.0947 81.4388 81.15 81.6462 81.1676C81.7202 81.174 81.8029 81.0739 81.8817 81.0218C81.8301 80.9433 81.7928 80.8471 81.724 80.7911C81.6601 80.7382 81.5636 80.7254 81.4817 80.6965C81.3405 80.6469 81.197 80.602 81.0573 80.5483C80.7783 80.441 80.5896 80.2535 80.5824 79.9275C80.5747 79.5918 80.7056 79.3242 80.9995 79.1688C81.1292 79.0999 81.2804 79.0502 81.4255 79.0382C81.7944 79.0078 82.1366 79.1007 82.4665 79.3362C82.3861 79.4948 82.3122 79.6391 82.2257 79.8089C82.0922 79.7528 81.9736 79.6879 81.8473 79.6527C81.6344 79.5918 81.4121 79.5045 81.2211 79.7616L81.2188 79.7608Z" fill="#F2F4F5"/>
<path d="M78.7257 79.3779C78.6523 79.5365 78.5837 79.6695 78.5095 79.8145C78.3825 79.7568 78.2857 79.6967 78.1804 79.6695C78.0377 79.6326 77.888 79.5982 77.7437 79.6062C77.6657 79.6102 77.5458 79.6935 77.5301 79.7616C77.5152 79.8257 77.5956 79.9403 77.6634 79.9916C77.7391 80.0492 77.8474 80.0612 77.9419 80.0933C78.0954 80.1453 78.2546 80.1838 78.4012 80.2511C78.7185 80.3961 78.862 80.6428 78.8441 80.9777C78.8253 81.3198 78.6351 81.585 78.3029 81.6779C77.7712 81.8277 77.2734 81.7236 76.7674 81.4127C76.8462 81.2437 76.9194 81.0883 77.0036 80.9088C77.1761 80.9785 77.3288 81.0626 77.4919 81.1003C77.6698 81.1412 77.86 81.1684 78.0377 81.146C78.2071 81.1243 78.2336 80.9425 78.0916 80.8375C78.0135 80.779 77.9144 80.747 77.8218 80.7126C77.658 80.6517 77.4903 80.6028 77.3273 80.5411C76.6706 80.2928 76.8149 79.5069 77.1792 79.2385C77.3797 79.0911 77.6033 79.0158 77.8444 79.0318C78.1658 79.0534 78.4862 79.0967 78.7249 79.3787L78.7257 79.3779Z" fill="#F2F4F5"/>
<path d="M87.6088 79.0462C87.8927 79.0462 88.1392 79.0462 88.3987 79.0462V79.5958H87.2804V80.1582H88.1977V80.6605H87.265V81.6931H86.6668V79.0462C86.9795 79.0462 87.2758 79.0462 87.6088 79.0462Z" fill="#F2F4F5"/>
<path d="M100.711 80.1606C100.523 79.7969 100.348 79.4588 100.158 79.0943C100.362 79.0054 100.557 79.0646 100.782 79.0438C100.957 79.4115 101.134 79.7873 101.347 80.2351C101.552 79.8089 101.73 79.442 101.912 79.063H102.548C102.474 79.2193 102.413 79.3522 102.347 79.482C102.254 79.6631 102.167 79.849 102.06 80.0204C101.766 80.4938 101.558 80.9881 101.642 81.5682C101.647 81.6018 101.627 81.6395 101.614 81.6931H101.04C101.068 81.1484 101.061 80.626 100.71 80.1598L100.711 80.1606Z" fill="#F2F4F5"/>
<path d="M65.6795 67.6567C65.6795 67.8682 65.6795 68.0453 65.6795 68.2792C65.0729 68.2824 64.484 68.2816 63.8686 68.2792V66.8444H65.6795C65.6795 67.116 65.6795 67.3691 65.6795 67.6575V67.6567Z" fill="#F2F4F5"/>
<path d="M38.4535 68.2824C38.3092 68.284 38.2186 68.2608 38.2186 68.1206C38.2186 67.7016 38.2186 67.2818 38.2186 66.8436H40.0444V68.28C39.5225 68.2808 39.0055 68.2816 38.4535 68.2824Z" fill="#F2F4F5"/>
<path d="M66.719 81.1708C66.9545 81.1708 67.1526 81.1708 67.3804 81.1708V81.6883H65.5671V79.0662H66.1514V81.1596C66.3455 81.1636 66.5139 81.1668 66.719 81.1708Z" fill="#F2F4F5"/>
<path d="M62.4199 79.0462C62.6178 79.035 62.617 79.1512 62.6163 79.2738C62.6147 79.7472 62.6155 80.2199 62.6155 80.6933C62.6155 80.8327 62.6155 80.9729 62.6155 81.158H63.8406V81.6955H62.0322V79.0462C62.149 79.0462 62.2692 79.0462 62.4199 79.0462Z" fill="#F2F4F5"/>
</svg>
