<svg width="148" height="148" viewBox="0 0 148 148" fill="none" xmlns="http://www.w3.org/2000/svg">
<path d="M18.0099 89.9516C18.0014 88.6087 18.0457 87.2305 18.0266 85.8784C18.0174 85.2308 17.9951 83.6224 18.0961 83.0859C18.2041 82.986 18.6804 83.0064 18.8527 83.0062C21.9455 83.0018 25.0385 83.0027 28.1312 83.0024L101.491 83.0032C110.816 83.0029 120.271 83.094 129.582 82.99C129.835 83.2711 129.748 85.572 129.729 86.1365C129.684 87.3845 129.778 88.6018 129.795 89.8367C129.688 89.9427 129.625 89.9521 129.479 89.996C128.923 89.9465 127.602 89.9844 127 89.9846L21.336 89.9879C20.3651 89.9883 18.9362 90.0317 18.0099 89.9516ZM80.4204 84.3247C80.014 84.3555 79.5501 84.3612 79.1381 84.3748C79.1197 84.8909 79.0911 85.8849 78.7787 86.291C78.6932 86.402 78.5249 86.405 78.3908 86.4154C78.2102 86.2491 78.26 86.2971 78.2041 86.0285C78.1504 85.5467 78.0995 84.9526 78.0185 84.4835C77.516 84.2861 77.3555 84.3326 76.8122 84.3799C76.8144 84.9417 76.6507 88.341 76.8698 88.5803C76.9033 88.6168 77.0151 88.6276 77.0626 88.6276C77.1884 88.6277 77.3935 88.5868 77.4802 88.4919C77.5003 88.4702 77.5115 88.4514 77.526 88.4252C77.7625 88.1955 77.4847 87.3384 77.744 87.0253C78.4835 87.552 77.9793 88.1316 78.4388 88.5274C79.3678 88.897 78.9078 87.3603 79.374 86.7839L79.4534 86.7796C79.6976 87.1712 79.5428 87.9018 79.6451 88.3363C79.7066 88.598 80.1336 88.6744 80.36 88.5831C80.5545 88.31 80.4433 84.8525 80.4204 84.3247ZM38.828 88.4756C39.3906 88.6653 39.6283 88.6291 40.2064 88.585C40.4474 88.5482 40.6647 88.2623 40.8556 88.0719C40.9557 87.5375 41.1099 87.0399 41.2089 86.5114C41.2479 86.3035 41.1065 86.1251 41.0586 85.9372C40.986 85.4924 40.9851 85.0965 40.7279 84.7016C40.4405 84.2607 39.861 84.0882 39.3641 84.1524C38.908 84.3822 38.5124 84.6762 38.3942 85.2053C38.1356 86.3616 38.0884 87.5264 38.828 88.4756ZM87.3148 88.517C87.7133 88.5783 88.085 88.6456 88.4903 88.6061C89.8592 88.3064 89.5389 86.8147 89.5261 85.7483C89.5205 85.2725 89.2555 84.8205 89.0001 84.4443C88.6362 84.2794 88.3209 84.0878 87.9252 84.1456C87.4305 84.3969 87.1063 84.5516 86.924 85.1575C86.7167 85.8457 86.7916 87.4434 86.9514 88.1155L87.3148 88.517ZM92.5233 88.5303C93.1482 88.4748 93.5814 87.7854 93.5501 87.1754C93.5367 86.9145 93.3869 86.8616 93.2097 86.7167C92.8838 86.4037 93.3344 85.6655 93.4836 85.3783L93.0588 84.4118C92.7514 84.3763 92.3584 84.3167 92.0571 84.34C91.6256 84.3574 91.1907 84.379 90.7592 84.3799C90.8363 85.0701 90.9492 87.7737 90.7307 88.3791C90.9246 88.7339 92.1605 88.5992 92.5233 88.5303ZM106.399 84.3573C106.404 85.7568 106.427 87.2072 106.411 88.6027C106.635 88.6223 106.93 88.6718 107.129 88.5872C107.439 88.2469 106.982 87.0584 107.517 86.7378C107.694 86.7368 107.968 86.8206 108.095 86.9459C108.494 87.8025 107.767 88.5566 108.96 88.6318L109.033 88.5878C109.106 88.2838 109.077 87.2172 108.976 86.8803C108.945 86.7763 108.76 86.734 108.715 86.4768C109.279 85.2745 109.426 84.3352 107.732 84.3402C107.273 84.3579 106.859 84.3755 106.399 84.3573ZM61.5218 84.3448C61.2365 84.3635 61.1607 84.3208 60.9557 84.4607C60.8705 84.6171 60.8893 88.0879 60.957 88.4803C61.1489 88.6585 61.5163 88.6206 61.7154 88.4674C61.8393 88.1527 61.6102 87.1873 61.9633 86.7772C62.3361 86.9509 62.3832 88.1329 62.8925 88.6212L63.5922 88.6308C63.5975 87.4732 63.6683 85.3716 63.5793 84.2776L62.8467 84.4213C62.8427 84.804 62.8921 85.7527 62.6061 86.0236C62.1892 85.9031 62.2325 84.6237 61.7698 84.3694C61.7058 84.3607 61.5795 84.3381 61.5218 84.3448ZM42.3079 84.3771C42.4126 85.4874 42.2723 86.7264 42.3278 87.8495C42.3406 88.1069 42.2491 88.379 42.3862 88.5789C42.5775 88.6654 43.0311 88.6552 43.1044 88.4216C43.2788 87.8655 42.9074 87.0356 43.44 86.6061L43.6368 86.6953C43.6334 87.4647 43.875 87.9901 44.2478 88.6281L45.0729 88.6069C45.1202 88.1479 45.115 84.6639 45.0125 84.3619C44.8562 84.2921 44.6462 84.3539 44.4709 84.3854C44.1054 84.7793 44.4778 85.4764 44.2996 85.9791L44.2145 86.0664C44.0746 86.0564 43.9862 85.9899 43.8668 85.9172C43.2422 84.9384 43.9403 84.2411 42.3079 84.3771ZM104.247 87.7021C104.513 87.9055 104.574 88.2635 104.673 88.5952C104.873 88.5961 105.197 88.6081 105.388 88.5942C105.23 87.0558 104.559 85.9652 104.46 84.4464C104.139 84.3995 103.654 84.3153 103.342 84.2914C103.227 84.7518 102.257 88.3566 102.298 88.5337C102.413 88.6433 102.448 88.6908 102.6 88.719C103.167 88.5634 103.095 87.8317 103.403 87.6678C103.66 87.6336 103.984 87.6771 104.247 87.7021ZM69.0147 88.5994C69.1063 88.3057 69.188 88.0125 69.3291 87.7393L70.0824 87.6452C70.3504 87.6933 70.3537 87.7122 70.4453 87.9844C70.5467 88.2861 70.8199 88.6623 71.1443 88.7317C71.3302 88.6573 71.2673 88.703 71.3912 88.5224C71.3704 88.0836 71.1881 87.7849 71.1226 87.3976C70.9671 86.4778 70.4702 85.2721 70.4265 84.3888C70.2003 84.3524 69.9706 84.3031 69.7435 84.3212C69.5633 84.3689 69.3848 84.392 69.2733 84.5399C69.0288 85.3579 68.9093 86.721 68.5747 87.6104C68.432 87.9899 68.2089 88.2439 68.3471 88.5882C68.5869 88.6022 68.7744 88.6047 69.0147 88.5994ZM50.0644 84.3644C50.0566 85.3549 50.0248 86.3696 50.1258 87.3563C50.1467 87.5605 50.1568 87.6612 50.1361 87.8693C50.2731 88.0668 50.4408 88.3232 50.5933 88.5008C51.2899 88.6597 51.5192 88.6245 52.228 88.547C52.4565 88.322 52.6362 88.1671 52.6992 87.8409C52.8536 87.0416 52.7993 86.1348 52.7987 85.3216L52.7899 84.3288L51.9125 84.4018C51.9189 85.0432 52.0062 87.5159 51.8321 88.0059C50.3541 89.2151 51.275 84.5086 50.782 84.347C50.5516 84.353 50.2919 84.3661 50.0644 84.3644ZM67.2611 88.5864C67.3755 88.5017 67.3942 88.4898 67.4549 88.3612C67.2299 87.8219 66.3979 88.2877 66.0194 87.9901C65.7236 87.271 67.5114 85.2426 67.3571 84.5008C67.1226 84.2824 65.4586 84.3623 64.9923 84.3659C64.966 84.5639 64.9422 84.651 65.0215 84.838C65.4167 85.1804 65.7544 84.7909 66.1763 84.9403C66.2425 85.0212 66.3027 85.0693 66.2722 85.1912C66.0744 85.9796 65.1167 87.8027 64.6984 88.438C65.4447 88.6597 66.4818 88.6364 67.2611 88.5864ZM81.8139 84.3679C81.8134 84.9734 81.7709 88.1455 81.886 88.5396C82.0565 88.628 82.3846 88.6092 82.5182 88.5213C82.6865 88.41 82.6909 87.1731 82.706 86.9714C82.9291 86.9312 82.8737 86.9113 83.0627 86.9778C83.1616 87.1124 83.1683 87.1461 83.208 87.311C83.2002 87.5454 83.303 88.2866 83.3902 88.5147C83.5098 88.6006 83.5495 88.5994 83.6977 88.615C84.3578 88.3341 83.9592 87.4006 84.5037 86.9103L84.5193 86.8961C84.7167 87.0888 84.8743 87.0794 84.9447 87.1443C84.9375 87.6326 84.6664 88.4029 85.1264 88.6288C85.3539 88.6096 85.2751 88.6414 85.4528 88.5122C85.6585 88.1067 85.5411 84.8789 85.4411 84.3634C84.0621 84.3276 84.2555 84.3047 84.0487 85.6131L83.8883 86.1998C83.7731 86.189 83.6792 86.1097 83.5668 86.162C83.5199 86.1694 83.44 86.1667 83.3897 86.1668L83.3025 86.0239C83.2069 85.4532 83.1554 84.9592 83.0995 84.382C82.649 84.3588 82.2656 84.36 81.8139 84.3679ZM56.3 88.6099C56.3835 88.4833 56.3837 88.4123 56.4045 88.2596C56.1344 87.7352 55.1252 88.3683 54.8805 87.8731C54.5839 87.2731 55.0799 84.7985 54.7011 84.4331C54.4433 84.3526 54.3115 84.3662 54.0405 84.3719C53.7948 84.7189 54.0159 87.4462 53.8246 88.4305C54.5897 88.6955 55.4795 88.6149 56.3 88.6099ZM98.9487 88.5997C99.16 88.5431 99.2304 88.5617 99.3662 88.417C99.3724 88.2422 99.3908 88.3055 99.269 88.162C98.847 87.9789 98.184 88.0622 97.7128 88.0555C97.6698 87.4657 97.7463 84.6199 97.5976 84.3343C97.4758 84.3115 97.459 84.3085 97.3388 84.3412L96.8945 84.3807C96.8374 84.4879 96.8425 88.1671 96.885 88.5034C97.099 88.6919 98.577 88.6112 98.9487 88.5997ZM94.7704 87.7008C94.772 87.9609 94.6753 88.2177 94.7732 88.4334C94.9621 88.6329 95.3126 88.6576 95.5132 88.4611C95.5703 87.9951 95.5647 84.7764 95.4735 84.4092C95.3019 84.3284 95.0756 84.3672 94.8805 84.3806C94.8553 84.4167 94.8246 84.4603 94.7888 84.5113C94.7497 85.1736 94.7016 87.1638 94.7704 87.7008ZM101.265 84.3884L100.43 84.365L100.437 86.9952C100.436 87.3318 100.405 88.2231 100.458 88.5121C100.675 88.6419 100.951 88.5809 101.192 88.5402C101.298 88.332 101.246 84.9275 101.265 84.3884ZM74.5417 84.3683C74.5361 85.2748 74.4796 87.7017 74.5713 88.5011C74.7809 88.6936 75.0749 88.6158 75.3304 88.5386C75.4478 88.1868 75.3751 85.0006 75.3846 84.3828C75.1202 84.3771 74.8005 84.3613 74.5417 84.3683ZM36.3868 85.7367C36.6182 85.7451 36.9108 85.7845 37.0992 85.665C37.3716 85.2743 36.965 84.8161 36.7421 84.4564C36.1815 84.1267 36.1039 84.0851 35.4495 84.1707C34.5343 84.4148 34.4629 85.783 34.4749 86.552C34.4949 87.8333 34.7298 88.8883 36.2592 88.5761C37.2114 88.3818 37.6869 86.6772 36.5855 86.9929C36.4342 87.1302 36.4123 87.2615 36.3619 87.4767C36.27 88.0132 35.9181 88.5038 35.4976 87.9643C35.2315 87.6228 35.222 86.0453 35.3405 85.6218C35.6562 84.4935 36.1797 84.6136 36.3868 85.7367ZM110.466 84.1437C110.273 84.9399 110.535 87.4476 110.358 88.544C110.745 88.5789 112.465 88.6974 112.716 88.5168C112.78 88.4352 112.846 88.3382 112.825 88.2251C112.678 87.4334 111.732 88.1767 111.355 87.761C111.327 87.7302 111.255 87.2372 111.246 87.1663C111.276 86.9225 111.236 86.9691 111.378 86.8014C111.764 86.6258 112.298 86.7158 112.73 86.7465C112.702 86.5026 112.661 86.2174 112.656 85.9757C112.418 85.9969 111.534 86.1238 111.436 85.9465C110.692 84.5942 112.377 84.9527 112.806 84.9378C112.787 84.6921 112.77 84.3851 112.727 84.1481C111.973 84.1338 111.22 84.1323 110.466 84.1437ZM47.4145 84.2661C46.9929 84.3898 46.7496 84.444 46.5448 84.8612C46.2203 85.5225 46.4152 86.1402 46.8723 86.6418C47.4427 86.8112 48.517 87.0948 48.064 87.9231C47.9944 88.0503 47.9285 88.1137 47.8096 88.1967C47.2696 88.2639 47.1612 87.6045 46.7121 87.3953C46.5785 87.4134 46.5359 87.41 46.4538 87.5444C45.9112 88.4321 47.3091 88.9482 47.9676 88.7733C48.5342 88.4962 48.6736 88.4804 49.0365 87.9623C49.0752 87.5785 49.0864 87.358 49.0833 86.9698C48.8854 86.8109 48.6754 86.6374 48.4668 86.4945C47.906 86.1106 46.9825 85.874 47.3196 84.9931C47.7835 84.5815 48.4033 85.8669 48.8294 85.5339C48.9088 85.4713 48.9616 85.3801 48.9767 85.2792C49.0121 85.0282 48.6746 84.6866 48.5108 84.4816C48.1016 84.338 47.8501 84.2134 47.4145 84.2661ZM57.3552 84.1308C57.2676 85.1903 57.3281 87.4267 57.3262 88.5929C57.8294 88.5741 59.7549 88.8185 59.8016 88.2568C59.4999 87.6305 58.8318 87.9045 58.2571 87.9029C58.2355 87.6329 58.2082 87.3486 58.1963 87.0794C58.2309 86.8449 58.1892 86.9024 58.3338 86.7629C58.8518 86.569 59.3272 86.9405 59.6167 86.5829C59.7954 85.3735 58.2438 86.5845 58.2104 85.6316C58.2004 85.346 58.1733 85.125 58.4104 84.9311C58.8535 84.8396 59.5611 85.0501 59.823 84.8241C59.9106 84.5009 59.6811 84.3767 59.466 84.1572C58.8338 84.1397 57.9463 84.174 57.3552 84.1308Z" fill="#FCFCFC"/>
<path d="M39.5464 84.8842C40.122 84.8421 40.1124 84.9931 40.3779 85.4539C40.4072 86.059 40.3758 86.7771 40.4017 87.4291C40.2484 87.6897 40.1913 88.0037 39.9797 88.1531C38.9657 88.1857 39.0825 87.5107 39.0741 86.7038C39.0674 86.0534 39.0069 85.3034 39.5464 84.8842Z" fill="#F5F4F5"/>
<path d="M87.815 84.8962C88.1588 84.863 88.3327 84.8024 88.5875 85.0126C88.8011 85.5095 88.8352 87.6638 88.4802 88.1008C88.2125 88.1411 87.9995 88.1915 87.7726 88.0415C87.7334 87.9542 87.7049 87.8626 87.6865 87.7687C87.5982 87.3092 87.5518 85.2889 87.815 84.8962Z" fill="#FCFCFC"/>
<path d="M91.9805 86.7098C93.1057 86.8053 92.8268 87.4299 92.2796 88.0399C92.0957 88.088 92.0554 88.1023 91.8715 88.0649C91.4791 87.822 91.473 87.2544 91.6211 86.8607C91.772 86.7235 91.7692 86.7558 91.9805 86.7098Z" fill="#F5F4F5"/>
<path d="M91.7681 84.937C92.2443 84.8905 92.5993 85.0859 92.5742 85.6112C92.5742 85.6193 92.3875 86.0094 92.3668 86.0531C92.2824 86.085 92.1968 86.1149 92.1108 86.1429C91.8928 86.2115 91.8514 86.1948 91.6815 86.1053C91.4674 85.7832 91.5339 85.2275 91.7681 84.937Z" fill="#F5F4F5"/>
<path d="M107.357 84.9364C107.69 84.9163 108.157 84.8454 108.238 85.3882C108.26 85.5318 108.2 86.0524 108.116 86.1569C106.955 86.4578 107.182 85.7835 107.357 84.9364Z" fill="#F5F4F5"/>
<path d="M62.0648 85.9831C62.3493 86.0293 62.4049 86.3396 62.3461 86.5837L62.2437 86.591C62.1156 86.4359 62.0997 86.1899 62.0648 85.9831Z" fill="black" fill-opacity="0.886275"/>
<path d="M103.74 85.7838L104.002 85.8437C104.045 86.1553 104.203 86.8854 103.728 86.9073C103.386 86.6408 103.626 86.117 103.74 85.7838Z" fill="#F7F5F8" fill-opacity="0.988235"/>
<path d="M103.74 85.7838C103.784 85.6082 103.763 85.5614 103.885 85.4665C104.007 85.6229 103.976 85.6295 104.002 85.8437L103.74 85.7838Z" fill="#F7F5F8" fill-opacity="0.870588"/>
<path d="M69.7713 85.6473C69.9896 85.7653 70.0741 86.3164 70.0762 86.5554C70.0785 86.8115 70.0316 86.8274 69.8682 86.9924C69.7231 86.9187 69.6469 86.9161 69.5993 86.7569C69.5104 86.4594 69.6461 85.9151 69.7713 85.6473Z" fill="#FCFCFC" fill-opacity="0.980392"/>
<path d="M94.7704 87.7008C94.7016 87.1638 94.7497 85.1736 94.7888 84.5113C94.8246 84.4603 94.8553 84.4167 94.8805 84.3806C95.0605 84.8462 95.0012 87.5857 94.9509 88.1958C94.9213 88.0207 94.8928 87.8455 94.8654 87.67L94.8318 87.6463L94.7704 87.7008Z" fill="#F5F4F5" fill-opacity="0.223529"/>
<path d="M43.8668 85.9172C43.9862 85.9899 44.0746 86.0564 44.2145 86.0664L44.2996 85.9791C44.4778 85.4764 44.1054 84.7793 44.4709 84.3854C44.5533 84.9558 44.468 86.2831 44.3807 86.8812C44.216 86.4666 44.164 86.2567 43.8668 85.9172Z" fill="#F5F4F5" fill-opacity="0.694118"/>
<path d="M83.3025 86.0239L83.3897 86.1668C83.44 86.1667 83.5199 86.1694 83.5668 86.162C83.5395 86.8502 83.2572 86.4874 83.208 87.311C83.1683 87.1461 83.1616 87.1124 83.0627 86.9778C82.8737 86.9113 82.9291 86.9312 82.706 86.9714C82.6786 86.8499 82.6725 86.8986 82.7295 86.7881L83 86.786L83.0095 86.7758C83.1767 86.5915 83.1716 86.41 83.1616 86.1668L83.3025 86.0239Z" fill="#F7F5F8" fill-opacity="0.0470588"/>
<path d="M84.5193 86.8961C84.6322 86.7294 84.7513 86.2026 84.8044 85.9845C84.981 86.2183 84.9956 86.8015 84.9559 87.083C84.9531 87.1036 84.9492 87.1241 84.9447 87.1443C84.8743 87.0794 84.7167 87.0888 84.5193 86.8961Z" fill="#F7F5F8" fill-opacity="0.0509804"/>
<path d="M77.5232 88.369C77.5249 87.9624 77.4025 86.2016 77.5232 85.9891C77.6445 86.1416 77.649 86.6542 77.6663 86.8787L77.5797 86.9085C77.502 87.3463 77.6495 87.9809 77.5232 88.369Z" fill="#F7F5F8" fill-opacity="0.819608"/>
<path d="M78.2041 86.0285C78.26 86.2971 78.2102 86.2491 78.3908 86.4154L78.3265 86.4753C78.2639 86.6637 78.317 87.1753 78.3298 87.3995L78.1392 86.7831C78.0207 86.4003 78.0442 86.3405 78.2041 86.0285Z" fill="black" fill-opacity="0.968627"/>
<path d="M43.44 86.6061L43.5297 86.5445C43.5199 86.3701 43.5018 86.2771 43.4685 86.1091L43.5417 86.0395C43.8265 86.0831 43.7358 86.5115 43.6368 86.6953L43.44 86.6061Z" fill="black" fill-opacity="0.509804"/>
<path d="M84.0487 85.6131C84.0302 86.1189 84.1219 86.2783 83.9559 86.7438L83.8419 86.5364L83.8883 86.1998L84.0487 85.6131Z" fill="black" fill-opacity="0.976471"/>
<path d="M77.5232 88.369C77.6495 87.9809 77.502 87.3463 77.5797 86.9085L77.6663 86.8787L77.744 87.0253C77.4847 87.3384 77.7625 88.1955 77.526 88.4252L77.5232 88.369Z" fill="#F5F4F5" fill-opacity="0.941176"/>
<path d="M83.8419 86.5364L83.9559 86.7438C83.9414 86.8538 83.9402 86.8724 83.867 86.9601C83.7837 86.817 83.8178 86.7004 83.8419 86.5364Z" fill="black" fill-opacity="0.854902"/>
<path d="M27.0876 58.2418C28.614 58.0675 30.6577 58.3621 32.1324 58.8209C34.2135 59.4683 36.239 61.3184 37.2392 63.2688C37.6486 64.0671 38.5314 66.2446 38.3072 67.1677C38.2954 67.2163 38.2246 67.4025 38.1589 67.4056C36.8159 67.4614 35.3264 67.5484 33.9979 67.3485C33.8956 67.3331 33.5051 66.1204 33.4248 65.9543C32.8735 64.8145 31.9164 63.7563 30.7178 63.3353C29.2786 62.8296 27.9056 62.6232 26.4507 63.1686C25.5252 63.4983 24.7575 63.5903 24.0812 64.4372C22.3721 66.5772 21.8531 69.583 22.9917 72.0218C23.5519 73.2393 24.5736 74.1753 25.8245 74.6169C27.8735 75.3561 29.1414 75.2116 31.1717 74.3475C31.9053 74.0353 32.9413 73.0238 33.2091 72.2522C33.5314 71.6561 33.8193 70.8008 34.1106 70.3777C34.6981 70.3215 35.6594 70.3833 36.2954 70.358C36.6903 70.3423 37.767 70.294 38.1015 70.3424C38.2005 70.4138 38.3013 70.5419 38.3095 70.6568C38.5653 74.1968 34.9157 78.4128 31.7974 79.1598C28.662 79.9109 25.1879 79.7025 22.6956 78.2296C20.9557 77.192 19.6005 75.6027 18.839 73.7067C17.6312 70.6198 17.6818 66.0422 19.2891 63.1221C20.4557 61.0026 22.4958 59.3138 24.8161 58.6998C25.5596 58.5031 26.3395 58.4403 27.0876 58.2418Z" fill="#FCFCFC"/>
<path d="M59.0617 64.0764C59.0977 64.6202 59.0636 66.2551 59.2276 66.6209L59.2966 66.6412C59.4543 66.4904 59.4735 66.2246 59.5847 66.0435C61.431 63.0352 66.3522 63.3329 67.4893 66.7874C68.5369 64.8841 69.8609 64.0174 72.1012 63.9977C74.663 63.9751 76.6445 65.7876 76.8351 68.3943C76.9145 69.4886 76.8608 70.825 76.8592 71.9762C76.8647 74.4454 76.8558 76.9146 76.8323 79.3837C76.2247 79.3929 73.076 79.514 72.7719 79.3202C72.5707 78.9603 72.6501 76.8297 72.6518 76.2527L72.6624 70.8186C72.6613 70.0779 72.5892 68.7581 72.0106 68.2307C70.9323 67.248 68.4826 67.5589 68.2471 69.268C68.1744 69.795 68.2189 70.3692 68.203 70.9017C68.2382 73.6853 68.1409 76.5234 68.2104 79.2993C66.8615 79.3187 65.1967 79.3717 63.8663 79.2949C63.8881 77.1182 63.8977 74.9414 63.8951 72.7647C63.8971 71.599 64.079 69.1684 63.4269 68.2981C62.3728 66.8911 59.8126 67.6382 59.5669 69.4243C59.4885 69.5987 59.3259 69.9555 59.3154 70.1318C59.2648 70.9721 59.2759 71.9039 59.2914 72.7465C59.324 74.5279 59.1819 76.3427 59.4144 78.105C59.4437 78.3267 59.4488 78.6996 59.5002 78.8851C59.5106 79.0183 59.498 79.0854 59.4797 79.2175C59.2242 79.4057 55.5767 79.315 55.0394 79.285C55.1559 78.3253 55.083 76.3544 55.0856 75.3138L55.117 67.913C55.1156 67.1472 55.0379 64.9004 55.2375 64.3143C55.3951 64.1611 58.396 64.228 59.0617 64.0764Z" fill="#FCFCFC"/>
<path d="M120.726 66.7291C121.473 63.443 128.673 62.2184 129.712 68.0517C129.79 68.8688 129.739 70.1704 129.733 71.0296L129.721 76.0225C129.722 76.6333 129.691 78.0092 129.773 78.544C129.816 78.7761 129.78 78.6922 129.949 78.8814C129.807 79.0703 129.723 79.1778 129.615 79.3895C128.936 79.4049 126.042 79.4962 125.585 79.2914C125.275 78.9212 125.673 70.0787 125.398 68.9359C125.041 67.4466 123.049 67.6382 122.004 67.9407C121.569 68.4117 121.462 68.5513 121.289 69.1712C121.144 69.3464 120.982 69.6153 120.972 69.8419C120.911 71.1383 120.936 72.5545 120.936 73.8456L120.937 77.12C120.938 77.6227 120.892 78.6797 120.987 79.138L120.99 79.2158C120.597 79.4176 117.391 79.3184 116.805 79.2693C117.017 77.7102 116.843 75.3018 116.892 73.6683C116.844 72.3413 116.964 70.9882 116.886 69.6647C116.791 68.0574 116.033 67.7891 114.737 67.5099C114.258 67.7197 113.576 67.8419 113.218 68.2327C112.962 68.512 112.45 69.5366 112.405 69.8955C112.284 70.8933 112.331 72.1205 112.332 73.1336C112.328 75.183 112.337 77.2324 112.361 79.2816C111.085 79.3662 109.461 79.321 108.167 79.3067C108.124 78.6005 108.153 77.7119 108.154 76.9855L108.162 72.949L108.157 67.9244C108.155 67.391 108.07 64.5088 108.293 64.2014C108.619 64.1463 109.375 64.1773 109.755 64.1808C110.524 64.1878 111.451 64.1219 112.203 64.1983C112.266 64.9149 112.175 65.6571 112.258 66.3429L112.367 66.3694C112.497 66.2695 112.618 66.108 112.696 65.9665C113.759 64.0244 116.496 63.5373 118.406 64.3928C119.557 64.9087 119.993 65.7081 120.726 66.7291Z" fill="#FCFCFC"/>
<path d="M53.8619 73.1483C53.769 73.4907 53.7478 73.8311 53.6693 74.175C53.1677 76.3749 51.81 78.43 49.6266 79.1693C49.3551 79.2613 48.858 79.3006 48.6581 79.3907C46.9141 80.2779 43.549 79.4646 42.0588 78.3274C37.1915 74.6129 38.5111 64.8951 45.1831 64.1094C50.0466 63.5366 53.1668 65.8218 53.8598 70.7619C53.872 71.4462 53.8304 72.5531 53.8619 73.1483ZM46.724 76.3164C47.0889 76.0869 47.5901 76.1079 47.8154 75.9719C49.5962 74.8978 49.7536 72.31 49.5247 70.4707C49.3708 69.2348 48.4824 67.769 47.3108 67.3877C47.1869 67.3503 46.6216 67.2849 46.4974 67.3291C45.7211 67.3933 45.0816 67.5348 44.55 68.2143C43.5103 69.5573 43.5054 71.2627 43.6053 72.887C43.6713 73.9603 43.9625 74.8485 44.7653 75.5976C45.1131 75.9222 46.2689 76.3093 46.724 76.3164Z" fill="#FCFCFC"/>
<path d="M83.8005 64.0371C83.9257 63.9948 84.1649 64.0101 84.3069 64.0028C86.2544 63.9157 88.35 64.2338 89.8514 65.5901C91.7379 67.2938 91.3696 69.6292 91.3679 71.9387C91.3567 74.394 91.3606 76.8492 91.3796 79.3044C90.0152 79.3269 88.6507 79.3297 87.2863 79.3129C87.2605 78.6896 87.2488 77.9344 87.1443 77.3305C86.1325 79.065 84.5238 79.6665 82.5914 79.7368C82.407 79.7239 82.2091 79.6822 82.0325 79.6379C80.7161 79.3076 79.7597 79.1172 78.8485 78.0294C78.839 78.0187 78.8295 78.008 78.8206 77.997C78.1331 77.1743 77.7099 75.7559 77.8307 74.697C78.1839 70.8657 81.8284 70.5272 84.8648 70.1807C86.0772 70.0423 87.9693 69.816 86.6334 67.9277C86.2315 67.3596 85.7396 67.3518 85.1074 67.3004C83.8318 67.1965 83.2002 67.4985 82.4355 68.5407C82.36 68.6415 82.0336 68.8006 81.8994 68.8064C80.7507 68.8241 79.5741 68.7115 78.4215 68.6452C78.8877 65.7623 81.0923 64.3514 83.8005 64.0371ZM82.6932 76.271C83.6948 76.984 85.8922 76.4993 86.5506 75.4493C87.1113 74.5548 87.0716 73.6662 87.0817 72.6646L87.0358 72.6066L86.6462 72.5947C85.3729 73.2525 82.6037 72.8513 82.023 74.4604C81.7345 75.2598 82.0878 75.7835 82.6932 76.271Z" fill="#FCFCFC"/>
<path d="M98.2164 58.1975C98.596 58.1933 98.9755 58.1934 99.3551 58.198C99.9129 58.2097 100.934 58.1271 100.938 58.8474C100.94 59.3414 101.135 61.4981 100.804 61.7758C100.528 61.826 100.164 61.6947 99.8788 61.6716C98.0107 61.5205 98.2148 62.7898 98.07 64.0677C99.0051 64.0972 100.011 64.0821 100.951 64.084C100.981 64.7976 101.035 66.8145 100.906 67.4614C99.9582 67.462 99.1007 67.4431 98.1399 67.4618C98.1203 67.9315 98.132 68.4714 98.1438 68.9456C98.2271 72.3737 98.0437 75.8826 98.1644 79.3005L97.6966 79.3084C96.5294 79.3259 95.0174 79.3533 93.8654 79.2879C93.971 77.6809 93.9017 75.3269 93.9012 73.6614C93.9006 71.7897 93.9738 69.3597 93.8821 67.5259C93.2634 67.4155 92.1907 67.5078 91.8279 67.3802C91.5976 67.0969 91.6837 64.6665 91.8458 64.2602C92.0426 64.0654 93.2365 64.2574 93.8939 64.0743C93.8587 60.6802 94.4685 58.8036 98.2164 58.1975Z" fill="#FCFCFC"/>
<path d="M106.281 64.1006C106.435 64.2929 106.376 77.8448 106.35 79.3173C105.361 79.3045 103.094 79.3963 102.235 79.2837C102.159 78.7094 102.183 77.7424 102.183 77.1389L102.182 68.4068C102.18 67.6702 102.081 64.8054 102.33 64.2127C103.331 64.0631 105.017 64.2815 106.281 64.1006Z" fill="#FCFCFC"/>
<path d="M103.923 58.0134C103.945 58.0104 103.967 58.0082 103.989 58.0067C106.62 57.8285 107.552 61.2655 105.043 62.2413C104.899 62.2972 104.757 62.3098 104.605 62.32C101.775 62.757 100.555 58.78 103.923 58.0134Z" fill="#FCFCFC"/>
<path d="M111.479 58.7516C112.242 58.7863 112.117 59.0096 112.375 59.6071C112.768 60.5147 113.066 61.3288 113.169 62.3232C112.917 62.3093 112.545 62.2543 112.285 62.2245C112.22 61.9806 112.209 61.8622 112.052 61.6598C111.494 60.9684 111.036 61.6996 110.7 62.1452C110.433 62.5003 110.006 62.0686 109.842 61.9381C109.642 61.9793 109.592 62.0707 109.418 62.2204C109.052 62.261 108.229 62.306 107.904 62.1908C107.69 61.8161 107.077 61.7628 107.395 61.1387C107.87 60.9176 108.344 61.765 108.912 61.4693C109.039 61.3107 109.03 61.1324 109.046 60.9275C107.586 60.8462 108.341 60.8253 107.25 60.1665C107.279 59.9227 107.332 59.5245 107.464 59.3248C107.943 58.5989 109.033 58.5967 109.673 59.0941C109.815 59.2021 109.921 59.2762 109.936 59.4713C109.948 59.6359 109.945 59.7531 109.84 59.8887C109.278 60.0391 108.729 59.1678 108.394 59.5721C108.381 59.6618 108.347 59.8777 108.397 59.9203C108.626 60.1163 109.564 60.3752 109.881 60.499L110.199 61.6462C110.457 60.9237 110.551 59.7335 111.002 58.9933C111.114 58.8101 111.274 58.7947 111.479 58.7516ZM111.605 60.972C111.74 60.842 111.774 60.8495 111.784 60.6486C111.791 60.4997 111.69 60.0975 111.562 60.0212C111.462 60.253 111.284 60.5862 111.317 60.8219C111.432 60.9524 111.409 60.9149 111.605 60.972Z" fill="#FCFCFC"/>
<path d="M25.0917 67.1291C26.1209 67.0428 27.0937 67.2101 27.4105 68.3867C27.4102 68.6445 27.3941 69.1427 27.444 69.3756C27.326 69.8406 27.1047 70.2501 26.7064 70.5313C26.3599 70.7762 25.9307 70.8692 25.5158 70.7892C24.0473 70.5075 23.4765 68.5426 24.5835 67.5052C24.7291 67.3688 24.9257 67.2411 25.0917 67.1291Z" fill="#FCFCFC"/>
<path d="M129.712 68.0517C129.791 68.0746 129.821 68.0726 129.897 68.0431C129.972 68.2098 129.982 68.3985 129.983 68.5796C129.994 71.8095 129.982 75.0397 129.998 78.2698C130 78.5562 130.009 78.8444 129.964 79.1282C129.895 79.2833 129.768 79.3196 129.615 79.3895C129.723 79.1778 129.807 79.0703 129.949 78.8814C129.958 78.7126 129.92 78.2221 129.92 77.9895C129.91 78.1804 129.903 78.3005 129.869 78.4914L129.773 78.544C129.691 78.0092 129.722 76.6333 129.721 76.0225L129.733 71.0296C129.739 70.1704 129.79 68.8688 129.712 68.0517Z" fill="#FCFCFC" fill-opacity="0.462745"/>
<path d="M121.289 69.1712C121.295 69.659 121.171 70.2608 121.188 70.8425C121.229 72.283 121.222 73.7341 121.228 75.1754C121.229 75.3696 121.243 76.3994 121.212 76.5317C120.906 76.8495 121.187 78.4757 120.987 79.138C120.892 78.6797 120.938 77.6227 120.937 77.12L120.936 73.8456C120.936 72.5545 120.911 71.1383 120.972 69.8419C120.982 69.6153 121.144 69.3464 121.289 69.1712Z" fill="#FCFCFC" fill-opacity="0.027451"/>
<path d="M59.5002 78.8851C59.4488 78.6996 59.4437 78.3267 59.4144 78.105C59.1819 76.3427 59.324 74.5279 59.2914 72.7465C59.2759 71.9039 59.2648 70.9721 59.3154 70.1318C59.3259 69.9555 59.4885 69.5987 59.5669 69.4243C59.4514 70.1551 59.5228 71.5872 59.5107 72.3778C59.4779 74.5204 59.5674 76.7463 59.5002 78.8851Z" fill="#FCFCFC" fill-opacity="0.701961"/>
<path d="M129.582 82.99C129.758 83.022 129.883 83.007 129.973 83.1251C130.026 85.1848 129.968 87.2575 129.991 89.3185C129.993 89.5162 129.992 89.6979 129.959 89.8939C129.831 90.0042 129.652 89.9886 129.479 89.996C129.625 89.9521 129.688 89.9427 129.795 89.8367C129.778 88.6018 129.684 87.3845 129.729 86.1365C129.748 85.572 129.835 83.2711 129.582 82.99Z" fill="#FCFCFC" fill-opacity="0.470588"/>
<path d="M53.8598 70.7619L53.9478 70.7056C53.9582 70.6347 53.9585 70.6553 54.0331 70.5954C54.1643 70.8516 54.138 73.035 54.012 73.2802C53.9679 73.2248 53.9221 73.1851 53.8619 73.1483C53.8304 72.5531 53.872 71.4462 53.8598 70.7619Z" fill="#FCFCFC" fill-opacity="0.407843"/>
<path d="M121.212 76.5317C121.219 76.9711 121.296 78.9168 121.168 79.1733L120.99 79.2158L120.987 79.138C121.187 78.4757 120.906 76.8495 121.212 76.5317Z" fill="#FCFCFC" fill-opacity="0.0705882"/>
<path d="M27.5618 68.4506C27.7155 68.6504 27.7351 69.2471 27.6019 69.4666L27.5189 69.4332C27.5054 69.2504 27.5411 68.6322 27.5618 68.4506Z" fill="#FCFCFC" fill-opacity="0.0784314"/>
<path d="M27.4105 68.3867L27.5618 68.4506C27.5411 68.6322 27.5054 69.2504 27.5189 69.4332L27.444 69.3756C27.3941 69.1427 27.4102 68.6445 27.4105 68.3867Z" fill="#FCFCFC" fill-opacity="0.0117647"/>
<path d="M129.773 78.544L129.869 78.4914C129.903 78.3005 129.91 78.1804 129.92 77.9895C129.92 78.2221 129.958 78.7126 129.949 78.8814C129.78 78.6922 129.816 78.7761 129.773 78.544Z" fill="#FCFCFC" fill-opacity="0.501961"/>
</svg>
