<svg width="148" height="148" viewBox="0 0 148 148" fill="none" xmlns="http://www.w3.org/2000/svg">
<path d="M24.3397 63.2521L24.3099 63.3111L24.2802 63.2816L24.3099 63.2521H24.3397Z" fill="#FBFBFB"/>
<path d="M127 64.5476L124.918 81.3893H121.023L123.015 64.5476H127Z" fill="#FEFEFE"/>
<path d="M117.306 66.3433C114.296 63.8008 109.826 64.7193 106.19 64.5553L104.101 81.3887C108.498 81.2093 114.144 82.2824 117.454 78.6809C120.309 75.575 120.688 69.2003 117.306 66.3433ZM115.573 73.4613C115.069 77.3507 112.064 78.2562 108.531 78.0881L109.761 67.8541C113.735 67.542 116.106 69.3496 115.573 73.4613Z" fill="#FEFEFE"/>
<path d="M87.09 67.4329C87.2191 66.4761 87.2287 65.4874 87.4768 64.5476H96.904L96.4868 67.8441H90.9558L90.5994 71.0839H95.6548L95.2293 74.3727L90.1899 74.3893L89.2907 81.3893H85.3058C85.9551 76.7684 86.408 72.1163 87.0305 67.4925L87.09 67.4329Z" fill="#FEFEFE"/>
<path d="M103.09 64.5476L101.008 81.3893H97.0825L99.1047 64.5476H103.09Z" fill="#FEFEFE"/>
<path d="M42.1835 84.4509C42.2287 84.4097 42.2835 84.4049 42.3007 84.3931C42.3013 84.3925 42.3019 84.392 42.3025 84.392L42.1835 84.4509Z" fill="#FDFDFD"/>
<path d="M87.0305 67.4925C87.0352 67.4559 87.0894 67.437 87.09 67.4329L87.0305 67.4925Z" fill="#818181"/>
<path d="M42.243 82.2724L42.4198 82.1243C42.3769 82.1916 42.2972 82.2222 42.243 82.2724Z" fill="#FEFEFE"/>
<path d="M24.2207 65.4897L24.1915 65.5487L24.1618 65.5192L24.1915 65.4897H24.2207Z" fill="#FCFCFC"/>
<path d="M24.2207 65.4897L24.2802 65.4307C24.2742 65.4372 24.2873 65.4992 24.2207 65.4897Z" fill="#FEFEFE"/>
<path d="M24.2802 65.4307C24.2998 65.4113 24.3189 65.3906 24.3397 65.3717C24.3213 65.393 24.2986 65.4101 24.2802 65.4307Z" fill="#FEFEFE"/>
<path d="M24.3397 65.3717C24.3605 65.3529 24.3784 65.3322 24.3992 65.3133L24.3397 65.3717Z" fill="#FEFEFE"/>
<path d="M110.584 83.7442C110.465 84.2421 110.158 87.8259 109.951 87.9173C109.798 87.9846 109.488 87.9274 109.333 87.8389C108.92 87.6029 107.702 85.6567 107.252 85.2173L106.81 87.8695L105.944 87.9256C106.079 87.4318 106.272 83.8952 106.42 83.7442C106.457 83.7065 107.067 83.7484 107.168 83.7997C107.562 83.9979 108.78 86.0638 109.334 86.3947C109.439 86.1735 109.557 83.7448 109.692 83.7448L110.584 83.7442Z" fill="#FEFEFE"/>
<path d="M121.931 83.6433C118.895 83.9289 118.806 88.4258 122.374 87.9675C125.04 87.6247 125.282 83.3277 121.931 83.6433ZM121.632 87.2041C120.069 86.9723 120.304 84.3377 122.272 84.4268C124.22 84.5152 123.654 87.5032 121.632 87.2041Z" fill="#FEFEFE"/>
<path d="M112.071 85.9818C112.161 85.2391 112.227 84.4881 112.309 83.7442H114.807C114.762 83.8357 114.783 84.4509 114.748 84.4509H113.142C113.096 84.4509 113.101 85.2438 113.023 85.3341H114.51C114.517 85.4001 114.486 86.0408 114.45 86.0408H112.993L112.785 87.1599H114.331C114.359 87.2743 114.32 87.9256 114.182 87.9256H111.863C111.83 87.305 111.942 86.6602 112.011 86.0414L112.071 85.9818Z" fill="#FEFEFE"/>
<path d="M104.874 83.7442C105.047 85.0332 103.605 84.1666 103.205 84.4763C103.125 84.5383 103.109 85.1842 103.09 85.3341H104.577C104.513 85.4367 104.554 86.0408 104.518 86.0408H102.971C102.915 86.0408 102.91 87.0501 102.852 87.1599H104.399C104.407 87.2678 104.352 87.9256 104.25 87.9256H101.93L102.377 83.7448L104.874 83.7442Z" fill="#FEFEFE"/>
<path d="M97.8556 83.7442C97.9793 83.8144 98.4673 86.1505 98.6584 86.4537C98.9012 86.1635 99.9896 83.7442 100.146 83.7442H101.127C100.761 84.2262 98.95 87.7793 98.6881 87.8955C98.5304 87.9651 98.2912 87.9686 98.1626 87.8271C97.8454 87.4784 97.2396 84.3748 96.904 83.7442C97.0771 83.7832 97.7639 83.6917 97.8556 83.7442Z" fill="#FEFEFE"/>
<path d="M119.03 83.7442C119.17 84.9276 118.11 84.1955 117.91 84.5483C117.76 84.8108 117.656 87.925 117.484 87.925H116.592L117.009 84.4509H116.057C116.082 84.3819 116.081 83.7442 116.117 83.7442H119.03Z" fill="#FEFEFE"/>
<path d="M112.011 86.0414C112.016 86.0048 112.07 85.9859 112.071 85.9818L112.011 86.0414Z" fill="#8D8D8D"/>
<path d="M45.0811 67.8329C42.6382 59.3781 30.4188 57.6349 24.3397 63.2521L24.3992 65.3133C27.9508 61.8936 34.6018 59.8471 38.4367 63.9589L38.451 63.9736C38.4563 63.9789 38.4611 63.9836 38.4664 63.9884L38.4962 64.0179C39.4121 65.0361 39.8679 66.0649 40.2208 67.3745C40.2423 67.4542 40.3297 67.5397 40.2798 67.6683V69.4947C40.3321 69.6215 40.2387 69.7141 40.2208 69.7885C39.3032 73.5681 36.2193 75.7868 32.2809 75.5019L29.81 79.767C38.0332 84.3731 47.7038 76.91 45.0811 67.8329ZM39.8941 65.7239L39.8638 65.6968L39.8334 65.6095L39.8941 65.6667V65.7239Z" fill="white"/>
<path d="M42.243 82.2724C41.6598 82.8068 41.0718 83.3401 40.4178 83.792C35.5885 87.131 28.1895 87.1953 26.4208 80.6241L26.3036 77.9146C26.2643 77.8102 26.344 77.743 26.3625 77.6792C27.4218 73.9887 30.3587 71.9676 34.2477 72.2077L36.7085 67.9078C28.349 63.2976 18.5743 71.0751 21.5439 80.1829C24.2326 88.4294 36.133 89.9785 42.1835 84.4509C42.0859 84.3748 42.0609 82.5024 42.243 82.2724ZM26.8082 71.8496L26.838 71.8791L26.8082 71.9086V71.8496ZM26.2732 80.1522V80.0938L26.303 80.1233L26.2732 80.1522ZM26.2732 78.1506V78.0916L26.303 78.1211L26.2732 78.1506ZM26.3613 80.5645C26.2917 80.6696 26.2845 80.2837 26.3613 80.3882C26.3672 80.3964 26.3684 80.5539 26.3613 80.5645ZM26.7487 82.2134V82.1544L26.7785 82.1839L26.7487 82.2134ZM26.8677 82.3904V82.3314L26.8975 82.3609L26.8677 82.3904Z" fill="white"/>
<path d="M40.2798 67.6683C40.1714 67.6707 40.2238 67.45 40.2208 67.3745C40.2423 67.4542 40.3297 67.5397 40.2798 67.6683Z" fill="#FEFEFE"/>
<path d="M40.2208 69.7885C40.2238 69.713 40.1714 69.4923 40.2798 69.4947C40.3321 69.6215 40.2387 69.7141 40.2208 69.7885Z" fill="#FEFEFE"/>
<path d="M26.3036 77.9146C26.2643 77.8102 26.344 77.743 26.3625 77.6792C26.3589 77.7489 26.4083 77.9258 26.3036 77.9146Z" fill="#FDFDFD"/>
<path d="M26.3613 80.5645C26.2917 80.6696 26.2845 80.2837 26.3613 80.3882C26.3672 80.3964 26.3684 80.5539 26.3613 80.5645Z" fill="#FEFEFE"/>
<path d="M26.303 78.1211L26.2732 78.1506V78.0916L26.303 78.1211Z" fill="#FEFEFE"/>
<path d="M26.303 80.1233L26.2732 80.1522V80.0938L26.303 80.1233Z" fill="#FEFEFE"/>
<path d="M64.7251 69.4941C61.3485 66.3557 55.4503 67.7167 54.9796 72.6531C54.4678 78.0202 60.1071 79.5487 63.8331 76.6197C63.6277 77.2221 63.5046 80.6058 63.2374 80.8872C62.9023 81.2406 60.6076 81.7019 60.0547 81.7409C47.9745 82.5921 48.0632 65.8218 58.7062 64.2709C60.8105 63.9642 63.4748 64.1819 65.2012 65.4638L64.7251 69.4941Z" fill="#FEFEFE"/>
<path d="M74.945 64.1535C62.6399 64.547 62.1412 82.5738 75.5199 81.7409C86.724 81.0436 87.6435 63.7477 74.945 64.1535ZM80.0713 73.2631C80.0689 73.2932 80.0254 73.3121 80.0141 73.3191L80.0117 73.3215C79.281 80.3728 68.9546 79.4525 69.7235 72.5281C70.4263 66.1982 80.6646 65.8979 80.0713 73.2631Z" fill="#FEFEFE"/>
<path d="M80.0117 73.3215L80.0713 73.2631C80.0683 73.2973 80.0123 73.3174 80.0117 73.3215Z" fill="#8D8D8D"/>
</svg>
