<svg width="148" height="148" viewBox="0 0 148 148" fill="none" xmlns="http://www.w3.org/2000/svg">
<path d="M120.576 71.2219C121.952 71.0702 122.237 71.8653 122.511 72.9941C122.757 72.4441 122.937 72.0296 123.246 71.5154C124.586 71.4294 125.658 71.391 127 71.4204C125.415 74.7149 123.542 77.8842 121.853 81.1229C120.76 83.2185 119.696 84.9661 119.091 87.261C121.193 86.1749 123.487 82.3661 124.882 80.4827L125.059 80.4601C126.008 81.7282 118.994 90.5442 116.719 90.2277C116.041 90.1331 116.087 90.2035 115.568 89.7314C115.548 89.6791 115.528 89.6268 115.509 89.5743C115.024 88.2399 115.326 87.4914 115.895 86.3046C114.489 87.7635 112.377 90.5822 110.019 90.2354C109.465 90.1523 108.967 89.8526 108.639 89.4039C107.967 88.5002 108.071 87.3529 108.24 86.3191C107.151 87.4886 106.211 88.9599 104.869 89.818C102.519 91.3203 100.681 90.1364 101.651 87.4432C102.02 86.4197 102.448 85.5442 102.898 84.5736C104.035 82.146 105.221 79.7409 106.456 77.3598C106.807 76.6758 107.191 75.9749 107.492 75.2667C107.581 75.0567 107.622 74.92 107.464 74.7543C106.779 74.6355 105.984 75.4716 105.561 75.911C102.545 79.0396 100.841 83.1529 98.6895 86.8591C98.0819 87.9055 97.5351 89.0597 96.841 90.0491C95.8987 90.3542 93.9105 90.266 92.87 90.2633C94.3912 86.4714 96.5171 82.8366 98.3424 79.162C98.8858 78.0665 100.335 76.0767 100.363 74.7823C100.366 74.6395 100.216 74.5703 100.099 74.5156C99.0154 74.585 97.8678 77.1601 97.2992 78.0195C94.7273 81.9204 92.5979 86.253 88.884 89.2552C87.9723 89.9924 86.0359 91.4794 85.2961 89.5241C84.9061 88.4937 85.3234 87.4831 85.8075 86.5423C84.4704 87.9559 82.208 90.7125 80.0623 90.4415C79.5133 90.3732 79.0172 90.0842 78.6917 89.6426C78.043 88.7742 78.1347 87.8884 78.2759 86.9355L78.2104 86.8994C77.2276 87.6745 75.9947 89.2202 74.9039 90.073C74.2543 90.5809 72.8083 91.4474 72.415 91.9567C71.7848 92.773 71.1924 93.9708 70.5415 94.91C68.0867 98.452 65.0045 101.934 60.942 103.684C59.6814 104.227 57.7621 104.78 56.3586 104.342C56.0244 104.237 55.7657 103.934 55.6225 103.617C55.3348 102.981 55.6918 101.676 56.0007 101.045C57.6109 97.7559 61.2117 95.2423 64.4652 93.7296C66.0774 92.9799 67.6979 92.5753 69.2581 91.9819C69.7142 91.4752 72.2191 87.4037 72.6009 86.6324C70.9745 88.1742 69.6452 90.7225 66.879 90.4174C64.6612 90.1728 65.3423 87.319 65.1185 87.0028C64.2619 87.2878 62.5949 90.0552 60.8325 90.4087C56.5557 91.2666 58.813 86.9506 59.8437 85.1562C59.3822 85.5159 58.9862 86.0556 58.5795 86.4902C57.5932 87.5735 56.8686 88.4002 55.7462 89.3796C54.7916 90.2125 52.9149 91.1536 51.7963 90.0223C51.3138 89.5343 51.3667 88.4964 51.4429 87.8225C52.2175 85.6102 53.1426 84.2448 54.1995 82.1691C55.9838 78.6969 57.7377 75.2095 59.461 71.7073C60.8646 71.8726 62.0246 71.5835 63.4336 71.7479C63.2425 72.2251 63.0254 72.6526 62.7972 73.1113C60.5761 77.5748 57.9751 81.8553 55.8023 86.339C55.6743 86.6031 55.5828 87.1441 55.5233 87.4477C59.4416 86.4584 64.8039 75.3352 66.8462 71.8931C67.0698 71.5163 70.0932 71.6678 70.6241 71.6684C70.1488 73.2759 69.2308 74.768 68.4319 76.2436L64.558 83.3075C64.1731 84.024 62.4731 86.8975 62.5872 87.5177L62.7201 87.5544C63.5307 87.3975 65.3577 85.1638 65.8437 84.4574C66.3559 83.6284 66.645 82.5582 67.1163 81.7217C68.9626 78.4443 74.2064 70.6511 78.5995 71.7047C79.2124 72.2431 79.2575 72.534 79.4207 73.3106C79.6911 72.6743 79.9132 72.1228 80.383 71.6006C81.6009 71.5971 82.8188 71.6107 84.0363 71.6412C83.0791 73.311 82.0118 75.4447 81.0865 77.1714C78.9955 81.1167 76.8534 85.0355 74.6608 88.9267C75.3127 88.4204 78.5135 85.3416 78.7663 84.7104C80.6096 80.1064 83.2597 76.0198 87.2469 72.9299C88.4967 71.9613 90.4372 70.754 92.0231 71.8295C92.2945 72.248 92.3934 72.6188 92.5107 73.0885C92.7336 72.5491 92.9907 72.0242 93.2804 71.5169C94.4662 71.5288 95.6376 71.4979 96.8349 71.5168C96.5151 72.8059 95.4507 74.5465 94.7853 75.7896L92.1315 80.8067C90.7508 83.3806 89.9067 84.6897 89.0653 87.4704C91.9665 85.8256 95.1596 79.2571 97.156 76.5137C98.9376 74.0666 99.9113 71.2301 103.601 71.412C105.548 72.6051 104.244 75.1461 103.53 76.7106C105.227 75.1517 107.347 71.5421 110.011 71.5009C110.545 71.4943 111.059 71.7042 111.432 72.0815C113.013 73.6752 110.377 77.8408 109.546 79.4228C108.687 81.0942 107.796 82.7503 106.876 84.3902C106.494 85.0797 105.539 86.6073 105.528 87.334L105.595 87.4015C106.238 87.3832 108.528 84.3711 108.997 83.746C109.37 83.2479 109.859 82.1102 110.211 81.4958C112.086 78.2308 116.747 71.8043 120.576 71.2219ZM90.7672 73.3574C89.0442 73.7424 87.6751 75.8725 86.7689 77.2817C85.7741 78.8276 80.9567 85.6858 82.6411 87.331C85.307 87.1053 90.0983 78.3137 90.8313 75.8921C91.0004 75.3323 91.1395 74.2465 91.0924 73.6498C91.087 73.5844 91.0788 73.5192 91.0679 73.4544C90.9097 73.3409 90.9772 73.373 90.7672 73.3574ZM112.794 87.0634C112.95 87.0352 113.216 86.9776 113.357 86.9284C115.952 86.0209 122.261 75.3918 120.983 73.2524C120.853 73.1959 120.86 73.1929 120.71 73.2039C118.242 73.9763 114.991 80.2186 113.587 82.4999C112.809 83.7644 112.22 85.517 112.591 87.0119L112.695 87.0879L112.794 87.0634ZM69.8396 87.4099C70.3626 87.1153 70.7961 86.8644 71.2205 86.4285C73.5089 84.0784 75.1517 81.1679 76.6492 78.2861C77.403 76.8355 78.2708 75.3218 77.9549 73.628C77.9335 73.515 77.5638 73.5595 77.4836 73.569C75.9971 73.8498 75.0186 75.4698 74.2264 76.621C72.8007 78.6931 68.9017 84.4284 69.3758 86.8789C69.4091 87.0512 69.4484 87.1852 69.564 87.3224C69.6794 87.3722 69.7187 87.4048 69.8396 87.4099ZM57.0117 103.031C57.2929 103.013 58.2314 103.004 58.348 102.972C60.2723 102.432 62.7584 100.249 63.9701 98.8304C64.4355 98.2854 68.1865 93.6687 68.2497 93.4805L68.2423 93.4008C66.845 93.94 65.2268 94.5093 63.8791 95.1831C61.3402 96.4524 58.536 98.4327 57.2853 101.04C57.1189 101.387 56.769 102.712 57.0117 103.031Z" fill="white"/>
<path d="M63.7535 43.5101C64.4919 43.4907 65.2947 43.4744 65.9904 43.7124L66.0469 43.8418L65.9592 43.976C65.0156 44.2226 62.0767 44.2093 60.9086 44.3004C53.2949 44.8942 46.2372 47.8084 41.1958 53.6167C39.5156 55.5524 38.3819 57.8545 38.6004 60.4592C38.7962 62.7921 40.3132 65.0567 42.08 66.5497C44.2131 68.3522 47.2453 69.4276 50.0648 69.1693C51.6568 68.9595 53.5669 68.6552 55.0608 68.1165C55.2762 68.0389 56.8097 65.4112 57.0048 65.0838C58.5334 62.5174 60.0942 60.0942 62.0431 57.8153C66.1778 52.9804 70.9725 48.4255 76.8997 45.8252C78.6255 45.0223 80.3814 44.4576 82.2861 44.2497C83.8212 44.0158 86.3789 44.7633 86.37 46.6511C86.28 50.0368 83.4526 53.1895 81.2543 55.5859C76.7947 60.4473 71.1289 64.0121 65.1052 66.6854C64.3288 67.0299 59.6264 68.8076 59.4242 69.0439L59.396 69.0773C59.0217 69.5134 58.5263 70.3997 58.2092 70.9154C57.7319 71.6993 57.2235 72.4643 56.6852 73.2087C53.7366 77.334 48.2978 83.971 44.0057 86.8019C43.2227 87.3579 41.6652 88.4052 40.7993 88.7838C45.1343 90.8785 49.7132 92.441 54.4335 93.4365C55.7502 93.7082 57.0763 93.9442 58.3978 94.1899C58.7413 94.2537 60.6381 94.4565 60.7696 94.6629C60.5411 95.1074 58.7726 96.3417 58.2882 96.6381C57.7183 96.4597 56.7855 96.3003 56.1734 96.1697C55.2219 95.966 54.2763 95.7362 53.3378 95.4806C49.1442 94.387 45.082 92.8515 41.2212 90.9006C40.4635 90.5147 39.6046 90.0964 38.8884 89.6551L38.8225 89.6817C34.5759 91.3845 27.1918 91.947 23.0119 90.0065C22.4268 89.7771 21.2534 89.0431 21.0809 88.4012C20.2602 85.3477 25.9183 85.1371 27.5146 85.091C31.0384 84.9892 34.2802 85.7248 37.376 87.1857C38.5438 86.2785 40.341 85.3275 41.6911 84.2984C45.1769 81.641 47.8765 78.5848 50.5082 75.1127C51.3518 73.9998 52.7509 72.2385 53.4663 71.0898C53.2926 71.0203 52.6066 71.2167 52.376 71.2632C51.2691 71.4809 50.1447 71.6001 49.0162 71.6195C42.1835 71.7356 35.4661 67.733 35.2781 60.2903C35.1486 55.1648 40.1399 50.9936 44.0764 48.3188C50.1313 44.2047 56.601 43.5657 63.7535 43.5101ZM60.9254 66.3686C61.1803 66.2698 62.6744 65.6605 62.8047 65.6359C70.554 62.6386 77.8903 58.3309 82.9039 51.6202C83.8631 50.3365 85.1441 48.7057 85.4782 47.1214C85.0745 45.824 84.4516 45.2021 83.0117 45.3062C73.6463 47.4644 67.3023 56.5613 62.3894 64.0482C61.9038 64.7881 61.4627 65.685 60.9254 66.3686ZM30.4017 89.285C32.7309 88.9507 33.5277 88.5854 35.657 87.9065C33.0343 87.0532 29.7629 85.9878 26.9853 86.0981C25.959 86.2149 22.1369 86.6964 21.9448 87.8618C22.0849 88.5596 23.3213 88.686 23.8979 88.8384C25.8739 89.3607 28.3858 89.6373 30.4017 89.285Z" fill="white"/>
<path d="M71.1525 96.1876C71.5633 96.2605 72.0323 96.3005 72.4554 96.3482C79.4032 97.132 86.4389 97.3155 93.4209 97.6045C95.3921 97.686 97.4022 97.456 99.2983 97.9094C98.7167 98.0671 98.1249 98.1184 97.5249 98.1924C96.5342 98.0639 95.8728 98.1446 94.9087 98.1545C93.3139 98.1709 91.7068 98.2996 90.1215 98.3227C86.1075 98.3989 82.0931 98.4066 78.0792 98.3457C75.5538 98.3239 72.8873 98.2487 70.3572 98.1593C70.1626 98.1524 70.0762 98.1123 69.9554 97.9756C69.9242 97.4926 70.7483 96.4313 71.1525 96.1876Z" fill="white"/>
<path d="M112.43 92.353C112.635 92.3928 112.826 92.3845 113.027 92.3903C116.189 92.4814 115.376 96.1315 113.681 97.5794C113.043 98.1241 112.75 98.3175 111.964 98.512C108.967 99.158 108.718 95.9054 109.962 94.0241C110.532 93.17 111.418 92.5702 112.43 92.353ZM111.528 98.1776C112.128 98.0281 112.36 97.823 112.677 97.2718C113.152 96.4439 114.784 92.6016 112.746 92.7327C112.505 92.8053 112.245 92.8704 112.052 93.0422C111.189 93.8112 109.424 98.0579 111.528 98.1776Z" fill="white"/>
<path d="M101.283 92.4225C103.162 92.2511 104.944 92.2193 106.316 93.6467C106.916 95.7284 106.332 97.0563 104.356 98.0015C102.795 98.4819 101.542 98.5909 99.9243 98.3215C100.737 97.6282 100.862 96.9996 101.113 95.9973C101.36 95.014 101.689 94.0371 101.887 93.0434C101.653 92.887 101.293 92.7072 101.283 92.4225ZM103.421 97.8269C105.065 96.8 106.246 93.1032 103.644 92.7882C103.041 93.1996 102.684 95.6767 102.37 96.4363C102.247 96.7332 102.073 97.5801 102.133 97.8969C102.498 98.1521 103.027 97.9681 103.421 97.8269Z" fill="white"/>
<path d="M121.283 98.3255C120.809 98.5459 119.813 98.5777 119.363 98.4065C116.282 97.2381 118.036 92.704 120.822 92.368C121.167 92.3264 123.301 92.3693 123.499 92.4386C123.63 92.7668 123.371 93.9965 122.961 94.1918C122.703 93.9583 122.679 93.0134 122.204 92.815C119.628 91.7404 117.55 98.8425 121.269 97.8495L121.371 98.0957C121.318 98.1444 121.264 98.1937 121.211 98.2438L121.283 98.3255Z" fill="white"/>
<path d="M107.145 97.0983C108.059 97.0998 108.673 98.0813 107.544 98.5238C106.621 98.7379 106.245 97.7927 107.145 97.0983Z" fill="white"/>
<path d="M123.979 97.0162C125.013 97.0773 124.85 98.0509 124.129 98.5725C123.641 98.5543 123.244 98.0865 123.399 97.6262C123.517 97.2756 123.691 97.1986 123.979 97.0162Z" fill="white"/>
<path d="M115.866 97.0147C116.815 97.2433 116.927 98.178 115.99 98.5479C114.944 98.468 115.169 97.5215 115.866 97.0147Z" fill="white"/>
<path d="M121.269 97.8495C121.785 97.6469 122.002 97.2451 122.595 97.032L122.676 97.0907C122.434 97.6314 121.907 98.2333 121.283 98.3255L121.211 98.2438C121.264 98.1937 121.318 98.1444 121.371 98.0957L121.269 97.8495Z" fill="white"/>
</svg>
