<svg width="148" height="148" viewBox="0 0 148 148" fill="none" xmlns="http://www.w3.org/2000/svg">
<path d="M99.7787 73.3033C103.972 72.8568 108.848 73.7088 109.817 78.5434C110.557 82.233 109.536 86.5779 107.346 89.6178C105.347 92.3927 102.804 93.1938 99.6201 93.7547C99.5255 93.7678 99.4303 93.7781 99.3351 93.7857C96.764 94.0063 93.5021 93.6918 91.452 91.9786C90.1099 90.9195 89.2827 88.8725 89.2215 87.1458C88.9777 80.2368 92.303 73.8147 99.7787 73.3033ZM99.4308 89.8996C101.661 89.3641 102.569 88.6221 103.735 86.627C104.682 85.0071 105.466 82.4492 104.966 80.5765C104.61 79.2464 104.306 78.3403 103.081 77.5704C102.231 77.0362 100.947 76.9223 99.9864 77.0712C98.145 77.3547 96.897 78.3042 95.8294 79.7711C93.8906 82.4352 92.8886 88.883 97.2215 89.8066C98.0832 89.9903 98.5658 90.1594 99.4308 89.8996Z" fill="white"/>
<path d="M21.7881 73.7852C24.2649 73.7184 26.8955 73.7828 29.3866 73.7704C30.7004 73.7637 32.8313 73.6905 34.0582 73.7812C34.5845 73.8152 35.1048 73.9125 35.6078 74.0708C38.8599 75.1131 38.2329 79.9904 36.5966 82.1451C36.0469 82.8689 35.4407 83.2524 34.6316 83.6593C37.2892 86.035 34.9414 89.5942 35.4321 92.5414C35.4851 92.86 35.8171 92.8416 35.6151 93.235C35.3168 93.3539 30.9749 93.3901 30.8126 93.2139C30.6111 92.9953 30.6852 91.3997 30.7447 90.9323C30.8308 90.0418 31.1196 89.1098 31.1291 88.2194C31.1548 85.8092 29.3353 86.1284 27.6128 86.1339L23.9725 86.1416C23.4652 87.5594 23.4892 89.5477 23.09 91.048C22.9361 91.6261 22.9483 92.7138 22.628 93.2105C22.1878 93.3945 18.4319 93.4257 18.135 93.1586C18.147 92.7572 18.3129 92.1155 18.3854 91.6948L18.9863 88.2079C19.8115 83.6774 20.5514 79.1154 21.4288 74.5911C21.4962 74.2437 21.4903 74.0002 21.7881 73.7852ZM24.5907 82.3329C25.4529 82.4341 26.7387 82.4115 27.62 82.4006C28.58 82.3888 30.7928 82.5854 31.5136 81.9573C32.2451 81.3508 32.7451 80.6059 32.8383 79.6468C32.9351 78.6522 32.6642 78.2756 31.9409 77.6749C30.4168 77.5038 28.5199 77.6414 26.9546 77.5987C26.4334 77.5845 25.9091 77.6336 25.377 77.5934C25.3654 78.4889 25.1816 78.9335 25.0243 79.7902C24.8701 80.6303 24.7377 81.4891 24.5907 82.3329Z" fill="white"/>
<path d="M44.8266 73.7006C44.8823 73.7493 44.937 73.8727 44.9254 73.944C44.701 75.3252 44.5491 76.8723 44.2462 78.2317C43.8418 80.0464 43.4941 81.6791 43.2652 83.5344C42.9988 85.264 41.9561 88.4678 43.9765 89.5233C45.1788 90.1514 46.6382 90.1469 47.8999 89.6847C51.0208 88.5413 51.0815 84.4904 51.5754 81.7326L52.564 76.3438C52.6628 75.7808 52.7714 74.4465 52.9902 73.9948C53.4409 73.5027 56.4644 73.9533 57.4988 73.6567C57.5008 74.5953 57.3223 75.1457 57.2136 76.0211C57.015 77.6213 56.5333 79.223 56.3562 80.8014C56.2447 81.6514 56.0508 82.4741 55.9087 83.3171C55.5425 85.4903 55.2657 88.3664 53.9566 90.1632C52.2844 92.4585 50.3492 93.2767 47.6211 93.7003C45.2297 94.0716 41.7773 93.8692 39.7702 92.3941C38.6526 91.5728 38.2003 90.4398 37.9978 89.0981C37.9138 88.5417 37.9009 88.0494 37.9651 87.4925C38.0999 86.323 40.2854 74.0922 40.4049 73.9477C40.6543 73.646 44.2399 73.7618 44.8266 73.7006Z" fill="white"/>
<path d="M89.8956 73.7461C90.1026 73.722 90.411 73.7268 90.6264 73.7235C90.6164 74.4439 90.3325 76.9702 89.9067 77.5146C89.7219 77.5819 89.4853 77.6097 89.2872 77.6096C86.8435 77.6077 84.3999 77.5896 81.9568 77.5994C81.281 77.6021 80.6058 77.6244 79.9311 77.5805C79.8749 78.7203 79.3879 80.3852 79.2387 81.7339C79.6656 81.6991 80.4783 81.7273 80.9359 81.7288L86.784 81.7281C87.364 81.7267 87.9713 81.6905 88.5441 81.7616C88.76 82.436 88.1444 84.6904 87.9596 85.4216C87.3122 85.5209 85.7391 85.4639 85.015 85.474C82.8786 85.5036 80.6787 85.425 78.5451 85.4851C78.4444 86.6255 78.0876 87.5714 78.018 88.4821C77.7931 89.8278 77.6645 91.2335 77.3155 92.554C77.2593 92.7658 77.139 93.1695 76.9314 93.2682C76.6642 93.3957 73.119 93.3675 72.8234 93.2422C72.7778 93.2228 72.7594 93.2137 72.7444 93.1622C72.574 92.5717 73.861 86.2083 74.0758 85.0091L75.4057 77.4167C75.5771 76.4482 75.7185 74.6328 76.1421 73.799C77.5164 73.7314 78.9587 73.7799 80.3392 73.7671C83.5065 73.7378 86.7355 73.8253 89.8956 73.7461Z" fill="white"/>
<path d="M60.2101 73.7804C64.7029 73.6953 69.2312 73.8293 73.7279 73.7553C73.9261 73.752 74.1577 73.7435 74.3464 73.7979C74.4544 73.9003 74.579 74.0459 74.5518 74.1944C74.4538 74.7194 74.2412 77.2155 73.9907 77.4964C73.8025 77.5635 73.522 77.603 73.3188 77.6036C70.7801 77.61 68.2411 77.5871 65.7024 77.6009C65.0754 77.6043 64.4402 77.6322 63.8161 77.5774C63.8172 78.9317 63.3202 80.488 63.1937 81.7747C64.041 81.6484 66.0503 81.7394 66.9624 81.7299C67.7203 81.7221 72.0118 81.6283 72.4226 81.8776C72.6085 82.37 72.0695 84.4636 71.9711 85.1994L71.9942 85.3529L71.9277 85.4417C71.3737 85.5189 69.5351 85.4752 68.8588 85.4749L62.4577 85.4715C62.4832 86.0126 62.2005 86.8392 62.1014 87.4391L61.4866 91.2533C61.4408 91.539 61.2631 93.2526 60.9782 93.264C60.1102 93.2988 57.3483 93.4877 56.6252 93.2126C56.4618 92.96 56.6601 92.4737 56.7113 92.1794C57.28 88.9114 57.8101 85.6371 58.495 82.3889C58.6124 81.8323 58.6501 81.239 58.7607 80.6792C59.1972 78.5077 59.4723 76.313 59.9495 74.1483C59.9876 73.9754 60.0809 73.8914 60.2101 73.7804Z" fill="white"/>
<path d="M106.771 54.1881C109.685 53.9498 112.755 54.5635 112.971 58.0544C113.231 62.2538 111.273 65.8696 106.794 66.3447C105.323 66.4983 103.301 66.4157 102.09 65.5041C99.4058 63.4813 100.497 58.9328 102.188 56.5955C103.326 55.023 104.957 54.4637 106.771 54.1881ZM106.361 64.175C107.725 63.7922 108.496 63.3682 109.19 62.0866C110.368 59.9089 110.476 56.3715 107.121 56.5279C106.177 56.6566 105.293 57.0346 104.726 57.8301C103.586 59.4275 102.761 62.2095 104.58 63.6579C105.014 64.0036 105.824 64.2051 106.361 64.175Z" fill="white"/>
<path d="M36.8292 54.1889C38.2191 54.0422 40.5155 54.1759 41.5929 55.0945C42.5767 55.8997 43.1228 57.1612 43.1314 58.4573C43.1586 62.5865 41.1804 65.844 36.9472 66.3423C35.5761 66.5941 33.1741 66.3119 32.0673 65.4198C29.6823 63.497 30.6749 58.7629 32.272 56.6034C33.41 55.0647 35.012 54.4564 36.8292 54.1889ZM36.4481 64.162C37.3885 63.892 37.8297 63.7612 38.5404 63.0651C40.5328 61.1133 41.1119 56.3229 37.1915 56.5273C36.2438 56.655 35.3762 57.0505 34.8146 57.8447C33.7104 59.4064 32.8385 62.2105 34.6313 63.6314C35.0862 63.9919 35.893 64.2095 36.4481 64.162Z" fill="white"/>
<path d="M65.693 54.4168C67.6938 54.3936 69.7043 54.4449 71.7066 54.4193C72.3636 54.4109 73.1858 54.4348 73.7847 54.7157C74.3013 54.9538 74.7009 55.3892 74.8941 55.9245C75.2298 56.8571 74.9826 58.7994 74.2573 59.5262C74.0625 59.7213 73.4813 60.2144 73.3934 60.3712C73.2654 60.5981 73.7496 61.2115 73.7625 61.643C73.7914 62.3524 73.768 63.0651 73.7034 63.7719C73.6244 64.6336 73.409 65.2443 73.7346 66.0797C72.7366 66.0497 71.7374 66.0596 70.7402 66.1095C70.5879 65.5127 70.578 65.0763 70.7152 64.4773C70.8352 63.4884 71.0576 62.791 70.4839 61.9722C69.8955 61.8734 67.4879 61.9516 66.7291 61.9687C66.2827 63.4002 66.3626 64.5947 65.917 66.0429C65.4914 66.076 63.5971 66.1155 63.2772 66.0064C63.2521 65.8309 63.2848 65.4603 63.3138 65.2864C63.7341 62.7639 64.2105 60.2483 64.6467 57.7282C64.7674 57.0311 65.0224 55.0745 65.2228 54.5731C65.3473 54.4458 65.5128 54.4441 65.693 54.4168ZM67.0574 59.5532C67.8475 59.4759 70.635 59.7388 71.0283 59.4325C71.5156 59.0706 71.726 59.0198 71.8491 58.3826C72.0085 57.5576 71.9273 56.8661 70.8779 56.8051C69.8554 56.7458 68.7556 56.7915 67.7056 56.7942C67.6085 56.9207 67.1525 59.1844 67.0574 59.5532Z" fill="white"/>
<path d="M121.68 62.4142C121.892 60.6921 122.123 59.1707 122.461 57.4952C123.189 53.8784 122.261 54.4975 125.743 54.391C125.65 55.7904 125.339 56.5889 125.125 57.8417L124.179 63.1441C124.043 63.9301 123.89 65.3785 123.622 66.0441L122.883 66.0621C122.06 66.0803 121.479 66.111 120.663 65.947C120.034 65.1329 117.235 59.1807 116.987 58.2252C116.357 60.8204 116.155 63.4807 115.53 66.0155C115.112 66.0039 113.061 66.1594 112.915 65.9952C112.806 65.059 113.307 63.3243 113.4 62.3092C113.453 61.7352 113.761 60.9465 113.834 60.338C113.937 59.8242 113.935 59.238 114.048 58.7327C114.332 57.4502 114.494 55.69 114.925 54.4927C115.204 54.444 115.683 54.4331 115.982 54.4182C116.536 54.4077 117.855 54.2642 118.142 54.8107C118.553 55.5929 118.883 56.4334 119.256 57.2361L121.68 62.4142Z" fill="white"/>
<path d="M48.0737 54.1896C49.1236 54.1275 50.2084 54.1075 51.242 54.2916C53.4853 54.6911 54.0295 55.844 53.9065 57.9175C53.0091 57.9488 51.8669 57.9126 50.9588 57.8945C50.7377 57.21 50.8068 56.5723 49.9043 56.376C48.8295 56.1421 48.1661 56.3014 47.2296 56.8514C46.9642 57.2883 46.5979 58.1465 47.2913 58.4284C48.4686 58.9071 49.778 58.9212 51.0396 59.208C52.1369 59.4576 53.4048 60.1154 53.5757 61.3846C53.7172 64.4903 51.7198 66.0726 48.8038 66.359C47.7768 66.4648 46.5264 66.4476 45.5229 66.2422C43.2944 65.7859 42.4716 64.6216 42.9059 62.4308C43.6137 62.4174 44.335 62.3958 45.0414 62.3662C45.7026 62.3386 45.8945 62.4722 46.0528 63.136C46.4927 64.9808 50.5932 64.4082 50.3052 62.4526C50.1994 61.7338 48.8574 61.563 48.2854 61.4606C46.7398 61.2075 44.2948 60.981 43.8435 59.131C43.7312 58.1568 43.9846 56.7825 44.5685 55.9773C45.4245 54.7968 46.7371 54.423 48.0737 54.1896Z" fill="white"/>
<path d="M24.8248 54.1893C24.9839 54.1663 25.1617 54.1738 25.3314 54.1635C27.5209 54.0314 30.1148 54.541 30.6883 57.0141C30.7904 57.4542 30.8423 58.3776 30.7067 58.8181C30.5176 59.0217 28.1594 58.9849 28.0119 58.845C27.5268 58.3854 27.7814 57.4446 27.0297 56.9407C25.786 56.1073 23.8259 56.518 22.9977 57.7616C22.2748 58.7996 22.1898 59.4241 21.9082 60.5751C21.1707 63.5897 23.9441 65.2698 26.2814 63.2254C26.7046 62.8544 27.0225 62.1501 27.3572 61.6652C27.7407 61.4694 29.7723 61.4873 30.3287 61.4668C30.1529 62.6306 29.7576 63.2604 29.0622 64.2318C27.3486 66.6253 22.506 67.0782 20.2154 65.4845C17.8196 63.8178 18.8333 58.6948 20.2919 56.6742C21.3968 55.1437 22.9981 54.4289 24.8248 54.1893Z" fill="white"/>
<path d="M79.1658 54.4272C79.0934 55.9753 78.5746 57.8067 78.3931 59.3937C78.2451 60.6928 77.173 62.6974 78.5173 63.7429C78.9531 64.0821 79.556 64.206 80.0992 64.147C82.5919 63.8058 82.7021 61.4097 83.035 59.4236L83.5744 56.3196C83.6629 55.7834 83.7452 54.9368 84.072 54.518C84.3175 54.3521 86.1822 54.4092 86.7333 54.3707C86.6771 55.2058 86.4255 55.7946 86.3169 56.6073C86.1488 57.7313 86.0046 58.755 85.7619 59.8732C85.6117 60.5652 85.5538 61.621 85.3512 62.293C84.8674 63.8942 84.4945 64.7932 83.001 65.6534C81.4129 66.5403 78.883 66.5844 77.1769 66.1377C74.2412 65.3693 74.888 62.3851 75.3578 60.1511C75.6116 58.9454 75.6717 57.6609 76.0196 56.4562C76.1677 55.9431 76.1226 54.6753 76.5924 54.4189L79.1658 54.4272Z" fill="white"/>
<path d="M87.8438 54.4137C88.0642 54.4392 88.7005 54.4204 88.9604 54.4205L91.2749 54.4217C92.8552 54.4224 95.7676 54.5023 97.261 54.3611C97.1954 55.0612 97.1063 56.3449 96.5992 56.8361C95.28 58.1149 93.9585 59.3998 92.5819 60.6191C91.5254 61.5547 90.3342 62.9831 89.1625 63.7144C89.8895 63.8557 91.6768 63.8007 92.4806 63.8016C93.2716 63.8024 94.8035 63.8436 95.5494 63.7577C95.4776 64.3567 95.4085 65.3734 95.1658 65.8965L95.1252 65.969C95.0445 66.0245 94.956 66.0682 94.8558 66.0684C91.806 66.0723 88.7561 66.0745 85.7063 66.0813C85.4987 66.0818 85.4146 66.0859 85.2788 65.9417C85.1502 65.5028 85.4397 63.9728 85.7542 63.6684C86.5129 62.9343 87.3228 62.2138 88.096 61.4898L91.3445 58.4344C91.9462 57.8714 92.4261 57.3758 93.0773 56.8465C91.266 56.7178 89.1575 56.904 87.4686 56.7582C87.0717 56.4088 87.5337 54.8358 87.8438 54.4137Z" fill="white"/>
<path d="M55.7229 54.4191C56.376 54.3793 57.3791 54.4306 58.0727 54.4212C60.3012 54.3908 62.5925 54.4898 64.8151 54.3745C64.718 55.346 64.4308 55.7035 64.4261 56.7842L60.7368 56.7938C60.6588 57.7988 60.3945 58.8121 60.2393 59.7872C60.014 61.2024 59.8939 62.1829 59.5107 63.5725C59.4482 64.1652 59.2764 65.4429 59.1397 65.9885C58.6723 65.9974 56.6372 66.191 56.3576 65.9916C56.3407 65.2618 56.6721 63.8931 56.8155 63.116L57.4808 59.3277C57.6265 58.5215 57.6946 57.5849 57.8684 56.805C56.7834 56.7563 55.4937 56.7913 54.3869 56.7803C54.5192 55.9423 54.4969 55.0899 54.9713 54.4384L55.7229 54.4191Z" fill="white"/>
<path d="M98.4645 54.4202C99.1859 54.3963 100.112 54.3888 100.821 54.4581C100.47 55.379 100.468 56.7191 100.276 57.7041C100.177 58.2148 100.036 58.768 99.958 59.2715C99.7598 60.5522 99.5872 61.8112 99.2555 63.0669C99.0378 63.9629 99.1614 65.0633 98.7116 65.9169C98.6449 66.0445 98.4528 66.046 98.3315 66.0657C97.8283 66.0682 96.5502 66.1062 96.1094 66.0306C95.8115 65.7549 96.229 64.7175 96.2953 64.325L97.6134 56.4548C97.6841 56.0263 97.8105 54.979 98.0125 54.5798C98.0821 54.4416 98.3109 54.4312 98.4645 54.4202Z" fill="white"/>
<path d="M127.956 54.4233C128.593 54.4147 129.229 54.4007 129.865 54.3813C129.821 55.04 129.86 55.724 129.792 56.3897C129.724 57.0435 129.489 57.752 129.41 58.3871C129.201 60.0806 128.834 61.7008 128.505 63.3707C128.335 64.2333 128.25 65.14 128.069 66.0176C127.807 66.0381 127.5 66.0341 127.234 66.0372C126.823 66.0564 125.755 66.1556 125.424 65.9883C125.18 65.6015 125.939 62.1475 126.052 61.5106L126.796 57.2944C126.928 56.5169 127.038 55.7351 127.173 54.9579C127.265 54.4296 127.493 54.4368 127.956 54.4233Z" fill="white"/>
<path d="M115.846 87.1598C116.789 87.1063 118.615 86.9224 118.875 88.1323C118.929 88.3822 118.998 88.8037 118.859 89.0234C118.584 89.2255 117.986 89.089 117.627 89.0468C117.446 88.7684 117.22 88.5413 116.993 88.299C116.653 88.2958 115.517 88.2664 115.745 88.9786C115.992 89.7459 117.754 89.3871 118.309 89.9858C118.541 90.2361 118.765 90.3882 118.795 90.7999C118.894 92.3715 118.059 93.1853 116.589 93.3691C116.347 93.4092 116.079 93.4247 115.831 93.4291C115.02 93.4432 114.068 93.3176 113.705 92.4722C113.486 91.9631 113.636 91.395 114.239 91.3091C114.448 91.2794 114.882 91.2975 115.057 91.4532C115.319 92.0693 115.336 92.0075 116.001 92.2903C116.099 92.2765 116.197 92.2605 116.294 92.2423C117.868 91.9432 117.032 90.9342 115.925 90.8459C115.42 90.8057 114.685 90.4622 114.243 90.2056C113.646 88.7248 114.356 87.5418 115.846 87.1598Z" fill="white"/>
<path d="M124.415 88.6518C124.693 88.6068 124.781 88.5869 124.989 88.7821C125.088 89.0914 124.959 90.0162 124.715 89.9905C122.237 89.7282 123.292 91.9051 122.415 93.1797C122.317 93.3228 122.015 93.2878 121.861 93.2792C121.57 93.2348 121.296 93.1485 121.362 92.8069C121.521 91.9908 121.593 91.1338 121.725 90.3162C121.816 89.754 121.882 88.534 122.72 88.7202C122.98 88.778 123.126 88.885 123.302 89.077C123.675 88.9183 124.024 88.7606 124.415 88.6518Z" fill="white"/>
<path d="M128.037 87.2109C128.19 87.187 128.547 87.1972 128.717 87.1973C128.593 88.1867 128.451 89.2245 128.292 90.2091C128.159 91.0305 128.11 92.8465 127.396 93.2899C127.125 93.2743 126.702 93.3155 126.566 93.065C126.591 91.9697 127.144 88.7083 127.476 87.4895C127.522 87.3207 127.852 87.2581 128.037 87.2109Z" fill="white"/>
<path d="M119.361 91.8848C119.754 91.8161 120.192 91.8612 120.585 91.9C120.498 92.4234 120.691 92.913 120.234 93.24C120.017 93.2992 119.537 93.3458 119.331 93.2245C119.212 93.1537 119.126 93.0383 119.092 92.9038C119.014 92.6031 119.205 92.141 119.361 91.8848Z" fill="white"/>
<path d="M125.527 91.8334L125.652 91.8431C125.911 92.1648 125.828 92.9555 125.455 93.1968C125.207 93.3582 124.98 93.2942 124.706 93.2644C124.194 93.1262 124.442 92.4396 124.515 92.0275C124.927 91.9165 125.105 91.8755 125.527 91.8334Z" fill="white"/>
</svg>
