<svg width="148" height="148" viewBox="0 0 148 148" fill="none" xmlns="http://www.w3.org/2000/svg">
<path d="M119.369 61.1669C126.764 61.1669 132.78 66.9237 132.78 74C132.78 81.0763 126.764 86.8331 119.369 86.8331H28.6306C21.2356 86.8331 15.2195 81.0763 15.2195 74C15.2195 66.9237 21.2356 61.1669 28.6306 61.1669H119.369ZM119.369 60H28.6306C20.5499 60 14 66.2676 14 74C14 81.7324 20.5499 88 28.6306 88H119.369C127.45 88 134 81.7324 134 74C134 66.2676 127.45 60 119.369 60Z" fill="white"/>
<path d="M119.131 63.3939C125.26 63.3939 130.248 68.1659 130.248 74.0315C130.248 79.8972 125.26 84.669 119.131 84.669H28.8881C22.7583 84.669 17.7713 79.8972 17.7713 74.0315C17.7713 68.1659 22.7583 63.3939 28.8881 63.3939H119.131ZM119.131 63.005H28.8881C22.5241 63.005 17.3649 67.9416 17.3649 74.0315C17.3649 80.1212 22.5241 85.0582 28.8881 85.0582H119.131C125.495 85.0582 130.654 80.1212 130.654 74.0315C130.654 67.9416 125.495 63.005 119.131 63.005Z" fill="white"/>
<path d="M40.7655 81.1698H37.4321V66.8744H42.4216C43.1818 66.8744 43.8945 67.0105 44.5596 67.2828C45.8796 67.8175 46.931 68.8216 47.4926 70.0835C47.7784 70.7228 47.924 71.4115 47.9202 72.1069C47.9202 72.9758 47.7197 73.7764 47.3188 74.5088C46.9319 75.2262 46.3773 75.8484 45.6981 76.3272L48.5911 81.1898H44.761L42.4778 77.3584H40.7655V81.1698ZM40.7655 74.1681H42.4121C42.702 74.1697 42.9892 74.114 43.2555 74.0042C43.513 73.899 43.7475 73.7483 43.9466 73.5601C44.1444 73.3721 44.3029 73.15 44.4139 72.9054C44.5294 72.6534 44.5883 72.3809 44.5867 72.1057C44.5889 71.8336 44.53 71.5644 44.4139 71.316C44.1855 70.8262 43.7716 70.4373 43.2555 70.2276C42.9891 70.1182 42.702 70.0625 42.4121 70.064H40.7655V74.1681Z" fill="white"/>
<path d="M107.156 77.3579H105.445L103.162 81.1893H99.3314L102.224 76.3267C101.545 75.8482 100.99 75.2263 100.604 74.5093C100.203 73.777 100.002 72.9763 100.002 72.1074C99.9979 71.412 100.144 70.7233 100.429 70.084C100.991 68.8221 102.043 67.818 103.362 67.2833C104.028 67.0109 104.741 66.8747 105.501 66.8749H110.49V81.1698H107.156V77.3579ZM107.156 70.0642H105.51C105.22 70.0627 104.933 70.1184 104.667 70.2278C104.151 70.4375 103.737 70.8264 103.508 71.3163C103.392 71.5646 103.333 71.8339 103.335 72.1059C103.334 72.3811 103.393 72.6536 103.508 72.9056C103.619 73.1503 103.778 73.3725 103.976 73.5605C104.175 73.7487 104.409 73.8994 104.667 74.0047C104.933 74.1145 105.22 74.1702 105.51 74.1686H107.156V70.0642Z" fill="white"/>
<path d="M119.346 66.8744C120.375 66.8744 121.345 67.0624 122.253 67.4385C123.138 67.8004 123.945 68.3182 124.631 68.9652C125.308 69.6067 125.843 70.3621 126.236 71.2311C126.629 72.1003 126.826 73.0272 126.826 74.0121C126.826 75.011 126.629 75.9447 126.236 76.813C125.843 77.6815 125.308 78.4368 124.631 79.079C123.945 79.7258 123.138 80.2437 122.253 80.6057C121.345 80.9817 120.376 81.1698 119.346 81.1698C118.317 81.1698 117.347 80.9817 116.44 80.6057C115.554 80.2439 114.747 79.7261 114.061 79.079C113.383 78.4374 112.848 77.6821 112.456 76.813C112.063 75.944 111.867 75.0104 111.866 74.0121C111.866 73.0274 112.063 72.1004 112.456 71.2311C112.849 70.3619 113.384 69.6066 114.061 68.9652C114.739 68.3236 115.532 67.8147 116.44 67.4385C117.347 67.0623 118.317 66.8743 119.346 66.8744ZM119.346 77.98C119.891 77.9818 120.432 77.8801 120.936 77.6808C121.441 77.4814 121.898 77.1884 122.283 76.8187C122.659 76.4533 122.959 76.0232 123.168 75.5511C123.385 75.0648 123.495 74.541 123.492 74.0121C123.496 73.4861 123.385 72.9652 123.168 72.4822C122.957 72.014 122.657 71.5872 122.283 71.2237C121.898 70.8545 121.44 70.5615 120.936 70.3617C120.432 70.1618 119.891 70.0589 119.346 70.0589C118.801 70.0589 118.26 70.1618 117.757 70.3617C117.253 70.5615 116.794 70.8545 116.409 71.2237C116.035 71.5871 115.735 72.0138 115.525 72.4822C115.307 72.9651 115.196 73.4861 115.2 74.0121C115.197 74.541 115.307 75.0647 115.524 75.5511C115.732 76.0233 116.032 76.4534 116.408 76.8187C116.793 77.1885 117.251 77.4815 117.755 77.6808C118.259 77.8801 118.801 77.9818 119.346 77.98Z" fill="white"/>
<path d="M31.5611 76.8019C30.7764 77.5512 29.7131 77.9721 28.6045 77.9721C27.4959 77.9721 26.4326 77.5512 25.6479 76.8019C25.2696 76.433 24.9674 75.9992 24.7572 75.5232C24.5414 75.0338 24.4303 74.5079 24.4303 73.9766C24.4303 73.4454 24.5414 72.9196 24.7572 72.4301C24.9697 71.9587 25.2717 71.5291 25.6482 71.1633C26.0291 70.7968 26.4818 70.5058 26.9803 70.3068C27.7462 69.9971 28.5913 69.9132 29.4074 70.0658C30.2234 70.2183 30.9733 70.6005 31.5611 71.1633C31.8515 71.4421 32.0966 71.761 32.2883 72.1093H35.8846C35.7948 71.789 35.6801 71.4756 35.5414 71.1717C35.1451 70.296 34.6071 69.5348 33.9274 68.8882C33.2448 68.2389 32.4441 67.7267 31.5328 67.3474C30.6173 66.9681 29.642 66.7789 28.6067 66.7799C27.5689 66.7799 26.5936 66.9691 25.6809 67.3474C24.7655 67.7268 23.9672 68.2403 23.2863 68.8882C22.6037 69.5332 22.0643 70.2944 21.6682 71.1717C21.2721 72.0575 21.0702 73.0118 21.0751 73.9753C21.0751 74.9803 21.2751 75.9227 21.6682 76.7947C22.0483 77.6499 22.5978 78.4267 23.2863 79.0822C23.9773 79.7331 24.7898 80.2541 25.6816 80.6182C26.5928 80.9974 27.5681 81.1878 28.6075 81.1892C29.6133 81.194 30.6093 80.9996 31.5328 80.6182C32.4441 80.239 33.2448 79.7267 33.9274 79.0814C34.6132 78.4247 35.1611 77.6482 35.5414 76.794C35.6239 76.6169 35.6962 76.4357 35.758 76.2511H32.0353C31.8945 76.4477 31.7358 76.632 31.5611 76.8019Z" fill="white"/>
<path d="M58.6142 66.9055H53.6546L51.866 74.1796H55.2768L56.1345 70.6981L56.9922 74.1796H60.4111L58.6142 66.9055ZM60.9232 76.249H57.5002L58.3295 79.6256L58.7361 81.2211H62.1509L60.9232 76.249ZM51.3579 76.249L50.1382 81.2211H53.5529L53.9398 79.6263L54.7693 76.249H51.3579Z" fill="white"/>
<path d="M72.1758 66.9055H67.215L65.4264 74.1796H68.8369L69.6946 70.6981L70.5513 74.1796H73.9701L72.1758 66.9055ZM74.4846 76.249H71.0605L71.8899 79.6256L72.2962 81.2211H75.7112L74.4846 76.249ZM64.9194 76.249L63.6987 81.2211H67.1134L67.5002 79.6263L68.3295 76.2497L64.9194 76.249Z" fill="white"/>
<path d="M80.9226 66.9055H75.9634L74.1744 74.1796H77.5851L78.4418 70.6981L79.2998 74.1796H82.7187L80.9226 66.9055ZM73.6664 76.249L72.4469 81.2211H75.8616L76.2484 79.6263L77.0777 76.2497L73.6664 76.249ZM83.2319 76.249H79.8089L80.6382 79.6256L81.0443 81.2211H84.4591L83.2319 76.249Z" fill="white"/>
<path d="M96.7915 76.249H93.3685L94.1978 79.6256L94.6045 81.2211H98.0193L96.7915 76.249ZM94.4816 66.9055H89.523L87.7346 74.1796H91.1447L92.0026 70.6981L92.8606 74.1796H96.2788L94.4816 66.9055ZM86.0064 81.2211H89.4212L89.808 79.6263L90.6367 76.249H87.226L86.0064 81.2211Z" fill="white"/>
</svg>
