<svg width="148" height="148" viewBox="0 0 148 148" fill="none" xmlns="http://www.w3.org/2000/svg">
<path d="M52.7213 51.0069C53.2269 50.979 54.0242 51.0403 54.5719 51.1121C55.1534 51.1882 56.6314 51.3472 57.0225 51.8458C57.096 51.9395 57.0375 52.7107 57.0046 52.8781C56.7173 54.338 56.4498 55.8068 56.1648 57.2675L54.568 65.6025C54.37 66.6924 54.2811 67.8387 54.0844 68.9344L49.8491 91.7676C49.132 91.9178 42.9882 91.9246 42.3349 91.7604C42.2453 91.599 42.2726 91.2378 42.3129 91.0485C43.1476 87.1065 43.9018 83.1507 44.7792 79.2171C45.0703 77.9117 45.4911 76.3409 45.6409 75.0314C44.8032 74.7627 43.889 74.402 43.0484 74.2094C42.2089 74.0171 41.2961 73.9055 40.4356 73.7462C40.037 74.5417 39.7326 75.5197 39.37 76.3551C37.88 79.8138 36.7062 83.1028 35.876 86.7871C35.2393 89.4329 34.4884 92.3288 34.7848 95.0638C34.819 95.3792 35.6231 96.7389 35.1945 96.8662C34.2958 97.1331 32.5438 96.9506 31.646 96.7534C30.9272 96.6012 30.2569 96.2767 29.6937 95.8083C26.5445 93.1999 29.0582 86.261 30.1045 82.9707C30.6834 81.1502 31.9166 78.9807 32.688 77.2224C33.1482 76.1736 33.7728 74.6711 34.5114 73.7979C33.2963 73.9955 31.5477 74.0571 30.2716 74.1725C27.8263 74.3864 25.4155 74.8891 23.0904 75.6701C23.3755 76.6425 23.69 77.5517 22.9917 78.4449C21.8233 79.8629 19.4824 79.8032 18.105 78.7993C16.9899 77.9865 16.5552 75.8874 17.5768 74.9266C20.0743 72.5775 24.4765 71.4803 27.7769 70.7712C29.3698 70.429 31.6058 70.2003 33.1729 70.0811C33.8439 70.0359 34.5169 70.0285 35.1887 70.059C36.6263 70.1136 36.6658 70.378 37.1852 69.092C37.1901 69.0799 37.6158 68.5324 37.6717 68.4469C38.1277 67.7402 38.578 67.0299 39.0226 66.3161C39.48 65.5787 39.8595 64.7679 40.31 64.0532C41.2565 62.5513 42.2263 61.0551 43.2117 59.5781C43.6414 58.9569 43.9917 58.2102 44.4639 57.6225C46.3281 55.3017 47.9563 52.914 50.6826 51.5053C51.4204 51.1241 51.9137 51.0775 52.7213 51.0069ZM41.8516 70.9082C42.347 70.9628 42.6903 71.0169 43.1787 71.1165C44.178 71.4082 45.4684 71.7278 46.3769 72.1876C46.4044 71.4887 46.8064 70.1774 46.9466 69.4341C47.3001 67.5602 47.6391 65.6863 48.0606 63.826C48.1251 63.5418 48.5931 61.7506 48.572 61.6227L48.4954 61.5794C46.7668 63.3256 45.304 65.0031 44.0397 67.1083C43.2865 68.3625 42.6178 69.6482 41.8516 70.9082Z" fill="white"/>
<path d="M37.1265 71.0821C38.0754 70.223 39.199 67.8624 39.9804 66.7226C40.7011 65.6714 41.3599 63.9714 42.2641 63.0264C43.3605 63.0191 44.6151 63.0429 45.6942 63.0062L45.6658 63.055C45.41 63.4874 44.6423 64.246 44.465 64.5495C43.9199 65.4822 40.4415 70.7208 40.6106 71.4657C40.8364 71.7294 41.9895 71.9128 42.3804 71.9989C42.7602 72.0736 42.8459 72.1 43.2008 72.2611C43.2145 72.5737 43.2327 72.8915 43.2312 73.2038C42.9845 73.1654 42.5822 73.1169 42.3609 73.0326C41.861 72.981 40.3134 72.6652 39.9845 72.8025C39.2857 73.4314 37.813 77.5625 37.2171 78.6919C36.9347 78.6927 36.2516 78.7099 36.004 78.6713L34.9367 78.6657C34.9199 77.6062 34.7626 75.767 35.1225 74.7614C35.2849 74.3078 35.7739 73.715 35.9865 73.1806L35.9858 73.0976C35.6139 72.7357 35.4157 72.7335 34.9253 72.7204C34.9192 72.142 34.9273 71.546 34.9287 70.9661C35.2987 70.9641 35.6367 70.9966 36.0048 71.0271C36.378 71.0581 36.7521 71.0765 37.1265 71.0821Z" fill="white"/>
<path d="M35.9865 73.1806C36.0631 73.521 36.0241 74.9131 36.0211 75.3307C36.023 76.4443 36.0173 77.5578 36.004 78.6713L34.9367 78.6657C34.9199 77.6062 34.7626 75.767 35.1225 74.7614C35.2849 74.3078 35.7739 73.715 35.9865 73.1806Z" fill="white"/>
<path d="M34.9287 70.9661C35.2987 70.9641 35.6367 70.9966 36.0048 71.0271C36.0119 71.3698 36.0688 72.8457 35.9858 73.0976C35.6139 72.7357 35.4157 72.7335 34.9253 72.7204C34.9192 72.142 34.9273 71.546 34.9287 70.9661Z" fill="white"/>
<path d="M42.3804 71.9989C42.7602 72.0736 42.8459 72.1 43.2008 72.2611C43.2145 72.5737 43.2327 72.8915 43.2312 73.2038C42.9845 73.1654 42.5822 73.1169 42.3609 73.0326C42.3497 72.7234 42.3715 72.3161 42.3804 71.9989Z" fill="white"/>
<path d="M42.2641 63.0264C42.5387 62.5735 43.1271 61.5291 43.5012 61.2201C44.3503 60.5188 45.5304 59.9905 46.4515 59.3724L53.0526 55.0136C54.0428 54.3576 54.9254 53.6812 55.9458 53.0413C55.8727 53.3531 55.796 53.664 55.7157 53.974C55.7177 54.2807 55.172 56.989 55.0497 57.219C54.9378 58.1105 54.944 59.2062 54.2078 59.7223C53.1427 60.4689 51.4212 61.361 50.5063 62.2298C51.7264 62.093 53.0241 62.1342 54.2528 62.1341C54.2283 62.3546 54.1926 62.8043 54.1268 62.996C52.6071 63.0375 50.8639 63.0139 49.3355 62.9935C49.5448 62.3382 49.6247 61.3567 49.8789 60.7274C49.8604 60.5526 49.8427 60.1898 49.6894 60.1074C48.6933 59.5716 47.0589 61.7919 46.4725 62.1607C46.2872 62.4268 45.9433 62.7934 45.6942 63.0062C44.6151 63.0429 43.3605 63.0191 42.2641 63.0264Z" fill="white"/>
<path d="M55.0497 57.219C54.9378 58.1105 54.944 59.2062 54.2078 59.7223C53.1427 60.4689 51.4212 61.361 50.5063 62.2298C51.7264 62.093 53.0241 62.1342 54.2528 62.1341C54.2283 62.3546 54.1926 62.8043 54.1268 62.996C52.6071 63.0375 50.8639 63.0139 49.3355 62.9935C49.5448 62.3382 49.6247 61.3567 49.8789 60.7274C50.1563 60.5731 50.6834 60.1794 51.0121 59.9808C52.4457 59.1143 53.7319 58.2446 55.0497 57.219Z" fill="white"/>
<path d="M42.2641 63.0264C42.5387 62.5735 43.1271 61.5291 43.5012 61.2201C44.3503 60.5188 45.5304 59.9905 46.4515 59.3724L53.0526 55.0136C54.0428 54.3576 54.9254 53.6812 55.9458 53.0413C55.8727 53.3531 55.796 53.664 55.7157 53.974C54.8306 54.3805 53.9081 55.1782 53.07 55.7038C52.4381 56.1001 51.6725 56.4786 51.0681 56.8833C49.7196 57.7864 48.3687 58.7152 47.0064 59.5984C45.9733 60.2682 44.8697 60.8706 43.8612 61.5959C43.667 61.7356 43.4665 61.876 43.3598 62.0927L43.3989 62.1813C43.6433 62.1989 43.996 62.1499 44.2749 62.1464C44.9998 62.1375 45.7482 62.1175 46.4725 62.1607C46.2872 62.4268 45.9433 62.7934 45.6942 63.0062C44.6151 63.0429 43.3605 63.0191 42.2641 63.0264Z" fill="white"/>
<path d="M47.9162 69.3113L51.1472 69.3095C51.6631 69.3093 52.4035 69.285 52.8976 69.3259L52.7974 70.1291C52.2368 70.1316 51.1138 70.1063 50.5981 70.158C49.9216 70.1004 48.4902 70.1476 47.7416 70.1315L47.9162 69.3113Z" fill="white"/>
<path d="M33.9722 85.2171L34.0365 85.2295L34.072 85.297C33.5076 86.156 32.4749 87.9668 31.8291 88.6162C32.4676 89.0531 33.3444 89.5095 33.9498 89.9885C34.0865 90.0967 33.9328 90.7441 33.8937 90.9349C33.1991 91.0542 32.0003 91.1182 31.2534 91.1825C31.4572 92.4613 31.622 93.7471 31.8327 95.0264L31.8361 95.1715C31.5143 95.0717 29.501 92.6981 29.2183 92.2514C29.1368 90.2607 29.4851 88.6558 29.8954 86.729C30.7893 86.627 33.0413 85.6178 33.9722 85.2171Z" fill="white"/>
<path d="M47.7416 70.1315C48.4902 70.1476 49.9216 70.1004 50.5981 70.158C50.7613 70.3389 52.2127 71.1887 52.5475 71.3884C52.4013 71.927 52.1331 73.8515 51.9752 74.1376C51.8833 74.7183 51.7874 75.2982 51.6878 75.8776C50.5504 74.8489 48.5928 73.8779 47.2181 72.8872C47.3331 72.4681 47.4337 71.6298 47.5267 71.1508C47.6035 70.8159 47.6715 70.4689 47.7416 70.1315Z" fill="white"/>
<path d="M47.5267 71.1508C48.2333 71.6614 49.1293 72.1997 49.8686 72.7005C50.3167 73.0039 51.5901 73.9518 51.9752 74.1376C51.8833 74.7183 51.7874 75.2982 51.6878 75.8776C50.5504 74.8489 48.5928 73.8779 47.2181 72.8872C47.3331 72.4681 47.4337 71.6298 47.5267 71.1508Z" fill="white"/>
<path d="M18.8243 78.0755C17.8131 77.3316 18.0768 76.8395 18.9687 76.265C20.7583 75.1123 22.6001 73.7784 24.4463 72.7383C25.0101 72.4208 27.8841 71.7285 28.5433 71.7077C28.1133 72.1203 26.9954 72.77 26.4703 73.1444C26.201 73.3364 25.5875 73.7864 25.3276 73.9449C24.3393 74.2738 21.7704 74.604 21.8962 76.0067C22.0753 76.1468 22.1403 76.3282 22.2296 76.5295C23.1435 78.5884 19.9998 78.829 18.8243 78.0755Z" fill="white"/>
<path d="M21.8962 76.0067C22.0753 76.1468 22.1403 76.3282 22.2296 76.5295C23.1435 78.5884 19.9998 78.829 18.8243 78.0755C19.3947 77.7006 21.636 76.5087 21.8962 76.0067Z" fill="white"/>
<path d="M33.2378 71.0575C33.6585 70.951 33.923 70.9345 34.3564 70.8978C33.3395 71.7317 31.4354 73.3182 30.11 73.2431C29.4642 73.3525 25.6852 74.0174 25.3276 73.9449C25.5875 73.7864 26.201 73.3364 26.4703 73.1444C26.9954 72.77 28.1133 72.1203 28.5433 71.7077C29.2708 71.5061 32.6427 70.9184 33.2378 71.0575Z" fill="white"/>
<path d="M33.2378 71.0575C33.6585 70.951 33.923 70.9345 34.3564 70.8978C33.3395 71.7317 31.4354 73.3182 30.11 73.2431C30.811 72.5775 32.4416 71.8263 33.2378 71.0575Z" fill="white"/>
<path d="M111.943 71.3216C112.102 71.3016 112.124 71.2984 112.274 71.3524C112.506 71.8281 109.094 85.2939 108.847 86.6854C108.779 87.068 108.602 87.5862 108.723 88.0353C108.87 88.5769 110.136 88.7425 110.504 88.6426C110.51 88.6367 110.603 88.544 110.603 88.544C111.085 86.2731 111.602 83.6607 112.099 81.423C112.361 80.2423 112.41 79.8104 112.741 78.997C113.693 79.0439 115.642 79.0816 116.555 78.94C116.488 79.4936 116.394 80.0439 116.276 80.5891C115.989 81.8627 114.319 87.8801 114.761 88.6733C114.863 88.8556 115.035 88.9761 115.237 89.0278C115.711 89.1493 116.243 88.9428 116.646 88.7066C116.944 88.5323 117.295 88.2893 117.472 87.9912C117.733 87.5501 117.795 85.8778 117.981 85.175C118.643 82.6752 119.487 80.9553 121.829 79.6121C122.838 79.0335 124.371 78.6844 125.514 79.0027C126.147 79.1789 126.48 79.6633 126.789 80.1968C126.791 79.9043 126.736 79.367 126.938 79.1289C127.076 78.9676 130.263 78.9959 130.784 78.9537C130.737 80.2959 130.061 81.9667 129.84 83.3336C129.58 84.9335 129.104 86.6204 128.89 88.214C128.777 89.0566 129.808 89.0273 130.435 89.0162C130.31 89.4017 130.153 89.7762 129.965 90.1358C129.151 91.7249 128.014 91.8389 126.437 91.2629C125.515 90.9261 125.347 89.4778 125.174 89.3915C124.992 89.4756 124.526 90.0756 124.308 90.2909C123.982 90.6142 123.606 90.8833 123.195 91.0877C122.087 91.6311 120.851 91.6836 119.687 91.2916C119.576 91.2473 119.466 91.1991 119.358 91.1472C118.571 90.7635 118.255 90.0454 117.991 89.2817C116.537 90.9525 114.74 91.9894 112.35 91.4062C111.557 91.2125 111.071 90.2247 110.748 89.5365L110.708 89.614C110.269 90.4704 109.741 91.1126 108.782 91.3706C106.88 91.882 105.029 91.4746 104.394 89.4466C103.713 90.9719 102.824 92.0971 100.804 91.3983C99.9262 91.0949 99.4878 90.1384 99.1472 89.3294C98.0414 90.977 96.4376 91.8654 94.4136 91.4687C93.5779 91.2992 92.8447 90.8054 92.3771 90.0971C91.5694 88.8871 91.6215 87.2074 91.8894 85.8324C92.6117 82.1121 95.2522 78.3385 99.5319 78.987C100.19 79.0867 100.566 79.5308 100.903 80.0454C100.913 79.7454 100.892 79.3672 101.045 79.1202C101.319 78.9816 104.252 79.0106 104.845 78.9611C104.662 80.6825 104.056 82.8939 103.704 84.6105C103.458 85.6103 103.165 86.5947 103.029 87.6183C102.853 88.9371 103.084 88.9569 104.271 89.1028C104.134 86.7094 104.639 85.051 105.182 82.764L106.604 76.8388C106.956 75.3785 107.262 73.9042 107.659 72.4543C107.743 72.1487 107.816 71.9033 108.163 71.8343C109.363 71.5955 110.763 71.6265 111.943 71.3216ZM96.1319 88.7169C96.4055 88.8374 96.6665 88.9707 96.9727 88.9536C97.196 88.9354 97.4696 88.9208 97.6876 88.8916C99.0654 87.8277 99.1198 87.3739 99.4895 85.7095C99.8255 84.1955 100.306 82.6745 100.483 81.1284C100.179 80.7547 99.7849 80.4502 99.2669 80.5014C98.0666 80.9136 97.5829 81.4295 97.0311 82.5577C96.2922 84.0697 95.1852 87.1489 96.1319 88.7169ZM122.895 88.993C123.704 88.996 124.713 88.2909 124.921 87.5581C125.445 85.7135 126.198 83.0562 126.276 81.1667C125.957 80.691 125.896 80.4856 125.269 80.5126C123.973 80.8726 123.678 81.4005 122.959 82.4278C122.298 83.3721 120.586 89.2906 122.895 88.993Z" fill="white"/>
<path d="M65.0473 68.8415C65.1858 68.7764 65.3231 68.7089 65.4593 68.6393C66.0523 68.3365 67.2996 67.2362 67.5463 66.6117C67.8074 65.8917 67.7727 65.0478 67.9244 64.3018C68.2992 62.443 68.5702 60.9586 69.8625 59.4838C71.1925 57.9663 72.9795 56.8648 75.0865 57.3633C75.6583 57.4986 75.9622 57.9502 76.2061 58.4514C76.2295 58.1865 76.2444 57.7186 76.3543 57.4966C76.6891 57.3435 79.7634 57.3016 79.9552 57.5034C79.966 57.8914 79.8235 58.6133 79.7577 59.033C79.4497 60.9873 78.9501 62.9476 78.5202 64.88C78.2248 66.2072 78.005 67.5511 77.5311 68.8369C79.7222 68.0863 80.3438 66.1749 80.8338 64.1683C81.0312 63.3847 81.2104 62.5968 81.3712 61.8051C81.5802 60.7795 81.8452 59.7628 82.0604 58.7468C82.1434 58.5494 82.105 57.6036 82.3523 57.5279C83.2052 57.2666 85.1776 57.3863 86.0253 57.4033C85.9045 59.1189 83.7707 66.316 84.228 67.2433C84.5892 67.6272 85.5995 67.1067 85.9194 67.5247C85.7294 68.7926 85.1307 69.3362 84.0128 69.8304C83.9613 69.8533 83.9081 69.8729 83.8537 69.889C83.129 70.1041 82.342 69.9518 81.6946 69.5875C80.9557 69.1717 80.6787 68.6123 80.4697 67.8516C79.6936 68.8769 79.092 69.4741 77.819 69.8247C77.1442 70.0887 77.1156 71.1648 76.9885 71.7527C76.8002 72.6235 76.5375 73.5943 75.9817 74.2814C74.8575 75.6699 73.0007 76.2773 71.2962 75.6865C69.6989 75.133 69.3611 73.8355 69.9041 72.3663C70.4975 70.7608 72.2682 70.4325 73.6544 69.8051C73.8266 69.3482 73.9033 69.1291 74.0029 68.6543C73.4105 68.9723 73.0946 69.4464 72.4548 69.7021C71.5154 70.0776 70.4534 70.0147 69.533 69.616C68.7164 69.2623 68.303 68.5176 68.0019 67.7354C67.4001 68.6657 66.8868 69.0449 65.8833 69.5244C65.4833 69.7156 65.2025 69.839 64.8739 70.1434C64.1075 72.3144 64.5167 74.1232 61.9756 75.4528C59.7618 76.6113 56.3684 75.61 57.2985 72.595C57.9227 70.5713 59.4915 70.5682 61.1373 69.8097C61.1903 69.6819 61.2423 69.5538 61.2934 69.4254C61.3767 69.2154 61.5114 68.945 61.4193 68.7344C61.0411 68.7869 60.1636 69.9003 59.1384 69.9458C53.1311 70.2265 55.0472 62.5018 57.253 59.5926C58.3119 58.1962 59.3852 57.4647 61.1894 57.2484C61.2557 57.2408 61.3223 57.2359 61.3891 57.2337C61.7816 57.2208 62.714 57.319 62.9926 57.5779C63.1853 57.7568 63.4299 58.0572 63.6487 58.2593C63.7932 58.0893 63.704 57.8434 63.8527 57.519C64.1093 57.3276 67.1734 57.3166 67.3807 57.4824C67.4675 57.8018 67.3593 58.3798 67.2813 58.7126C66.496 62.0644 65.8389 65.4948 65.0473 68.8415ZM60.1662 67.4361C60.7035 67.283 61.2421 67.1915 61.5335 66.6683C61.7316 66.3127 61.8744 65.9214 61.9933 65.5336C62.2805 64.5969 63.397 60.0465 63.1487 59.3264C63.0998 59.1844 63.0085 59.1005 62.873 59.0366C62.5743 58.8957 62.1646 58.923 61.8436 58.9603C59.6737 60.4521 59.1353 63.4144 58.9431 65.8642C58.9195 66.1648 59.0459 66.7934 59.1449 67.0734C59.4861 67.3684 59.6941 67.4913 60.1662 67.4361ZM72.6658 67.4387C73.2743 67.2688 74.1466 66.9495 74.3389 66.2766C74.9216 64.2357 75.8208 61.2597 75.7287 59.1675C75.2416 58.9467 75.1391 58.9089 74.5868 58.9516C72.3521 59.4058 71.087 65.3623 71.8527 67.1821C72.1014 67.3096 72.3924 67.4987 72.6658 67.4387ZM58.8682 73.8559C59.9582 74.2123 60.3294 73.0824 60.6325 72.259C60.7159 72.0324 60.9364 71.2501 60.8721 71.0551L60.7487 71.0028C59.9723 71.5222 57.5573 72.5971 58.8682 73.8559ZM71.5503 73.875C72.7036 74.3221 73.5164 71.4656 73.3762 71.0487L73.2571 71.0144C72.5023 71.4755 70.123 72.831 71.5503 73.875Z" fill="white"/>
<path d="M81.2305 75.192C81.4216 75.1621 81.3678 75.1424 81.5155 75.2145C81.622 75.6283 80.8029 78.3869 80.685 79.0671C81.1 79.032 81.9345 78.8632 82.2081 79.1917C82.3306 79.5446 82.1823 79.7839 82.0432 80.13C81.6426 80.1315 80.8962 80.0082 80.5396 80.1381C80.3438 80.3953 80.0639 81.6345 79.9935 82.0108C79.6055 84.0918 79.0743 86.1488 78.7143 88.2316C78.6971 88.3295 78.7286 88.4729 78.7749 88.5638C79.653 89.8845 81.5424 88.3229 81.9408 87.2806C82.7971 84.5891 83.0289 81.7052 83.8737 79.0017C84.3116 79.0032 87.5238 78.9796 87.6732 79.0996C87.7614 79.5019 87.4672 80.2151 87.3258 80.6314C88.3578 79.9254 89.6228 78.7336 91.0308 79.0658C91.5288 79.1785 91.9598 79.4864 92.226 79.9194C93.1384 81.4322 91.7978 82.9982 90.1557 82.7113C89.4905 82.5951 89.5552 81.2745 89.0034 81.1531C88.5398 81.0511 87.1987 81.7133 87.0493 82.1619C86.6704 83.3041 86.5525 84.6039 86.2989 85.7833C85.8507 87.6493 85.4341 89.527 84.9876 91.3942C84.556 91.4267 81.4949 91.4436 81.2001 91.3778C80.8636 91.0456 81.4983 90.5601 81.3026 90.0812C80.9477 90.3282 80.3793 90.8366 80.0319 91.0025C77.5397 92.1925 74.4466 91.5891 74.7934 88.2129C73.6464 88.9439 72.402 90.0932 71.2155 90.7288C69.0679 91.8792 65.7157 92.1038 64.3179 89.7554C64.2947 89.7979 64.2707 89.8399 64.2457 89.8814C63.3451 91.3725 60.5005 92.0123 59.0098 91.1662C58.2569 90.7389 58.1012 90.0115 57.9231 89.2536C57.0318 90.8391 55.7447 91.491 53.9576 91.5389C49.5937 91.3098 51.427 86.6873 52.0114 84.1002C52.2379 83.0493 52.4748 82.0006 52.7221 80.9543C52.861 80.3535 53.0084 79.6161 53.215 79.0448C54.0454 78.9705 56.1489 79.0135 57.1157 78.9971C57.0487 79.6061 56.7718 80.5536 56.6238 81.1856C56.2758 82.6907 55.9181 84.1937 55.5506 85.6943C55.4381 86.1514 55.0022 87.7146 55.0481 88.0795C55.2628 89.7869 57.0649 88.8567 57.5653 87.9356C58.0296 87.0808 58.0317 86.1577 58.2359 85.2978L59.735 79.0278C60.1827 79.0031 63.222 78.9976 63.5174 79.0555C63.7663 79.3466 63.3688 80.4565 63.272 80.8509L62.3203 84.8282C62.1338 85.5951 61.9291 86.376 61.7741 87.1484C61.6777 87.6288 61.4333 88.9222 62.1336 89.0327C62.7062 89.1231 63.2899 88.9927 63.7791 88.6934C63.988 88.2171 64.01 87.5861 64.3075 87.0539C64.5274 86.6142 65.0332 86.3043 65.3107 85.9227C66.4076 84.4141 67.1128 82.6975 67.8554 81.0039C68.094 80.4597 68.3475 79.2807 68.6661 78.8704C68.9891 78.6488 72.0631 78.3 72.6278 78.2395C72.5703 79.9385 72.9011 82.3836 73.0041 84.1127C73.0843 85.4531 73.4025 86.8884 73.0952 88.2115C73.3579 88.1011 74.7923 87.1836 74.8976 86.889C75.6245 84.8582 75.9393 82.3427 76.4339 80.2159C76.4545 80.1265 76.0418 80.1442 75.854 79.9931C75.6812 79.6132 75.8489 79.3294 75.9863 78.9204C76.1958 78.993 76.3658 79.0727 76.585 79.045C76.842 78.8557 77.3211 76.3004 77.6908 75.5767C78.6049 75.5514 80.294 75.3167 81.2305 75.192ZM66.8045 85.9789C67.1211 86.3317 67.3811 86.6543 67.3442 87.1718C67.3243 87.4607 67.1829 87.7281 66.9547 87.9086C66.446 88.3191 65.9549 88.2039 65.3804 88.0679C65.464 88.4084 65.531 88.7538 65.745 89.04C66.9997 90.3662 69.5682 88.9157 69.2154 87.1654C69.0436 86.3134 69.0558 82.1988 68.826 81.6754C68.5274 82.1771 68.237 83.2243 67.9788 83.7893C67.6551 84.4976 67.0891 85.2957 66.8045 85.9789Z" fill="white"/>
<path d="M24.9082 51.3479C25.3753 51.3234 26.4957 51.207 26.8853 51.4408C27.264 51.937 27.1517 55.8662 27.1562 56.8033C27.189 59.1379 27.2088 61.4728 27.2158 63.8077C27.2138 64.3501 27.1202 65.6916 27.1682 66.088L27.2455 66.1079C27.4761 65.9115 27.5904 65.3968 27.673 65.1007C28.0458 63.6444 28.7039 62.2428 29.1351 60.8077C30.0609 57.7063 31.1755 54.6031 32.3849 51.601C32.441 51.4617 33.8279 51.1069 34.0285 51.5452C34.0168 52.1661 33.5905 52.8439 33.384 53.46C33.159 54.0531 33.0756 54.7499 32.8447 55.3345C31.6825 58.2763 30.3885 61.2119 29.4212 64.2201C29.3289 64.5073 29.2563 64.8063 29.1318 65.0793C28.4787 66.4912 28.1217 68.4064 27.2056 69.6887C27.0944 69.8444 23.6583 69.9114 23.366 69.6151C23.3036 69.0602 23.3578 67.6448 23.3581 67.0039L23.3576 55.9231C23.3491 54.8886 23.2621 53.8881 23.3503 52.8529C21.2591 54.043 19.8869 55.1832 19.7137 57.7037C19.6313 58.9037 19.6113 58.8762 19.8803 60.0063C19.8171 60.0684 19.7355 60.1015 19.6461 60.1012C15.5094 60.0869 17.4542 54.9812 19.4833 53.5419C20.8833 52.5489 23.2071 51.4968 24.9082 51.3479Z" fill="white"/>
<path d="M93.9935 56.2182C95.567 54.924 97.655 53.1269 99.6063 54.9699C99.7048 55.0631 99.8238 55.4369 99.8616 55.5748C100.06 56.2976 99.4237 56.5652 98.8611 56.8824C97.971 57.3844 95.9081 57.626 96.1972 59.0655C97.0283 59.6245 100.757 57.4026 101.687 56.9898C105.349 55.3652 109.411 53.9251 113.028 56.5195C114.239 57.389 114.806 58.186 115.566 59.4452C116.596 61.0354 117.275 62.7128 118.138 64.3872C118.486 65.0615 118.786 66.0752 119.092 66.6589C120.063 68.5066 121.609 71.306 123.321 72.5275C124.802 73.5848 126.997 73.7733 128.715 73.4249C129.041 73.359 130.822 72.8885 130.997 72.9576C131.006 73.0957 131 73.0997 130.92 73.2195C129.133 74.3699 125.938 74.6896 123.89 74.266C121.855 73.845 119.846 71.7445 118.791 70.0689C117.075 67.3461 115.655 64.4023 114.401 61.47C113.588 59.5685 111.644 57.2127 109.527 56.7792C107.88 56.3999 106.43 56.8419 104.871 57.3035C101.915 58.1787 99.0173 60.7006 95.808 60.1223C94.2551 59.8425 95.1635 57.2728 96.156 56.7777C96.8113 56.4504 98.497 56.3813 98.9017 55.7711C98.9498 55.407 98.6235 55.3449 98.3511 55.2075C97.0678 54.5596 95.8972 55.7477 94.8584 56.3278C94.6323 56.4543 94.3684 56.5502 94.1263 56.6545C94.1086 56.4542 94.1171 56.3775 93.9935 56.2182Z" fill="white"/>
<path d="M34.2614 57.4099C34.8126 57.3835 37.0476 57.3432 37.4652 57.4556C37.575 57.619 37.5716 57.8543 37.5375 58.0491C37.169 60.1541 36.6582 62.2304 36.3199 64.3462C36.1951 65.1269 35.8049 65.9781 35.8325 66.7636C35.8657 67.7114 37.1133 67.1875 37.4699 67.4719C37.7643 67.9439 36.9605 68.9444 36.6283 69.3046C35.9562 69.9231 34.5841 70.029 33.7591 69.7116C31.0991 68.6883 32.479 65.0968 32.865 63.1099C33.102 61.7792 33.2123 60.442 33.6053 59.1404C33.763 58.6181 33.7356 57.6462 34.2614 57.4099Z" fill="white"/>
<path d="M95.6334 64.0476C96.1142 63.6327 96.9979 63.3722 97.5457 63.7459C99.0866 64.7968 97.4873 66.9561 97.6493 68.3149C97.6722 68.5036 98.2091 68.7277 98.3745 68.8017C98.2223 69.2522 98.1948 69.3697 97.8141 69.6442C97.4015 69.886 97.0363 69.9546 96.5864 69.7462C94.8795 68.9552 96.7695 66.2695 96.3099 64.9489C96.2962 64.9099 96.1949 64.7646 96.1542 64.7601C95.2825 64.7249 95.2023 65.7704 94.9814 66.4388C94.6912 67.3161 94.6666 69.0369 94.0902 69.7464C93.9843 69.8763 92.8647 69.7974 92.6604 69.7303C92.5305 69.6141 92.5196 69.4299 92.487 69.2552C91.3828 69.6762 91.4298 70.0547 90.0892 69.7163C90.028 69.6217 89.9679 69.5265 89.9084 69.4306C89.783 69.2281 89.5048 68.7306 89.5306 68.5092C89.6388 67.5636 89.9238 66.6046 90.0469 65.6555C90.123 65.0718 90.17 64.534 90.2718 63.9627C90.3079 63.7609 90.4155 63.6957 90.5741 63.6063C91.1081 63.576 91.7646 63.603 92.3015 63.6246C92.2002 64.3684 92.0663 65.1075 91.8991 65.8396C91.8155 66.1909 90.9089 68.8407 91.8253 68.6678C93.1269 68.4221 93.5625 64.7611 93.717 63.6225C94.1846 63.591 94.7364 63.6282 95.2109 63.6482L95.6334 64.0476Z" fill="white"/>
<path d="M115.121 73.8797C116.342 73.8689 117.472 74.3766 117.566 75.7301C117.598 76.2356 117.422 76.7324 117.078 77.107C116.694 77.5313 116.271 77.7321 115.711 77.7654C113.791 77.9424 112.584 76.4561 113.59 74.6348C113.876 74.1161 114.567 73.9768 115.121 73.8797Z" fill="white"/>
<path d="M84.5984 52.2526C85.2475 52.2003 85.8897 52.5132 86.4266 52.8457C86.948 54.3306 86.9801 55.8646 85.1044 56.2695C83.9773 56.2976 82.9843 55.7849 82.7851 54.6139C82.5412 53.1815 83.2544 52.4808 84.5984 52.2526Z" fill="white"/>
<path d="M35.9937 52.3106C36.815 52.0892 37.6882 52.4028 38.1761 53.0944C38.6864 53.8177 38.6586 54.7871 38.1076 55.4804C37.8321 55.8271 37.4487 56.0738 37.0172 56.1819C35.9436 56.4509 34.852 55.8116 34.5711 54.7492C34.2903 53.6869 34.9251 52.5986 35.9937 52.3106Z" fill="white"/>
<path d="M91.5643 61.0988C92.7726 61.0779 93.3765 62.5522 91.843 63.1362C91.02 62.9509 90.8099 62.8902 90.633 62.0435C90.8791 61.4206 90.8889 61.3006 91.5643 61.0988Z" fill="white"/>
<path d="M89.2479 58.1578C89.3114 58.3298 89.277 58.3147 89.399 58.4168C89.4722 58.4062 89.8094 58.3452 89.8351 58.3485C89.6617 58.5552 88.2594 58.7532 88.0258 59.6547C88.1586 60.3743 89.6829 60.371 89.9473 60.664L89.9061 60.7305C88.0722 61.1536 86.5983 59.0826 89.2479 58.1578Z" fill="white"/>
<path d="M91.8877 56.333C91.9335 56.4991 91.8957 56.4464 92.021 56.5427L92.0594 56.5399C92.2294 56.529 92.2678 56.5335 92.4389 56.5583C91.6765 56.9536 90.5002 58.0854 89.8351 58.3485C89.8094 58.3452 89.4722 58.4062 89.399 58.4168C89.277 58.3147 89.3114 58.3298 89.2479 58.1578C89.6531 57.9494 89.8174 57.853 90.1814 57.5961C90.5998 57.3007 91.4492 56.5096 91.8877 56.333Z" fill="white"/>
<path d="M91.8877 56.333C92.6581 56.0549 93.2191 56.1865 93.9935 56.2182C94.1171 56.3775 94.1086 56.4542 94.1263 56.6545C93.7571 56.6653 92.8075 56.6154 92.4389 56.5583C92.2678 56.5335 92.2294 56.529 92.0594 56.5399L92.021 56.5427C91.8957 56.4464 91.9335 56.4991 91.8877 56.333Z" fill="white"/>
</svg>
