<svg width="148" height="148" viewBox="0 0 148 148" fill="none" xmlns="http://www.w3.org/2000/svg">
<path d="M68.5067 21H78.602C78.8782 21.1501 79.6589 21.2414 80.0159 21.2986C87.8152 22.5498 95.1356 26.3339 100.747 31.8552C101.084 32.1878 101.522 32.598 101.804 32.9724C102.232 32.6167 102.823 32.0107 103.235 31.6149L105.251 29.6932L111.144 24.0057C111.958 23.2238 113.136 21.9581 114 21.291V98.2815L36.4905 98.2809C35.9002 98.2804 34.5291 98.241 34 98.296V98.1715C34.8462 97.4617 36.0036 96.2759 36.8387 95.481L43.2455 89.316C44.0484 88.5419 45.3912 87.1684 46.1817 86.5291C45.711 86.3144 45.0907 85.5729 44.739 85.1763C42.593 82.7953 40.7458 80.1639 39.2379 77.3396C34.3554 68.1071 33.4271 57.3042 36.6636 47.3812C40.317 36.2002 48.8974 27.2878 59.9681 23.1748C62.5196 22.2479 65.0102 21.5734 67.7001 21.1961C67.957 21.1601 68.287 21.1305 68.5067 21ZM46.2233 86.5316C46.7002 86.6073 47.6884 86.5861 48.2012 86.5861L88.5449 86.5851C92.9165 86.5856 97.4517 86.6478 101.813 86.5736C101.853 82.8606 101.817 79.0807 101.817 75.3636L101.815 40.3441C101.815 38.0198 101.879 35.3444 101.795 33.0464C101.483 33.4431 101.07 33.8306 100.698 34.1767C99.2738 35.4999 97.9156 36.8831 96.5324 38.2475C95.5307 39.2355 94.4248 40.1673 93.4496 41.1795C92.1431 39.8711 91.317 39.0364 89.8447 37.9037C85.1736 34.337 79.4522 32.3989 73.5638 32.3887C66.5403 32.3955 59.7971 35.1304 54.7706 40.0107C49.6229 45.0428 46.7029 51.9082 46.6568 59.088C46.6435 65.9315 49.4637 72.9422 54.3333 77.7881C54.4915 77.9468 54.6548 78.0997 54.8231 78.248C54.2337 79.0839 52.5062 80.4558 51.7066 81.2776C50.4273 82.5931 49.0179 83.8899 47.6791 85.1498C47.4427 85.3598 46.3805 86.4456 46.2233 86.5316Z" fill="white"/>
<path d="M68.5067 21H78.602C78.8782 21.1501 79.6589 21.2414 80.0159 21.2986C87.8152 22.5498 95.1356 26.3339 100.747 31.8552C101.084 32.1878 101.522 32.598 101.804 32.9724L101.795 33.0464C101.483 33.4431 101.07 33.8306 100.698 34.1767C99.2738 35.4999 97.9156 36.8831 96.5324 38.2475C95.5307 39.2355 94.4248 40.1673 93.4496 41.1795C92.1431 39.8711 91.317 39.0364 89.8447 37.9037C85.1736 34.337 79.4522 32.3989 73.5638 32.3887C66.5403 32.3955 59.7971 35.1304 54.7706 40.0107C49.6229 45.0428 46.7029 51.9082 46.6568 59.088C46.6435 65.9315 49.4637 72.9422 54.3333 77.7881C54.4915 77.9468 54.6548 78.0997 54.8231 78.248C54.2337 79.0839 52.5062 80.4558 51.7066 81.2776C50.4273 82.5931 49.0179 83.8899 47.6791 85.1498C47.4427 85.3598 46.3805 86.4456 46.2233 86.5316L46.1817 86.5291C45.711 86.3144 45.0907 85.5729 44.739 85.1763C42.593 82.7953 40.7458 80.1639 39.2379 77.3396C34.3554 68.1071 33.4271 57.3042 36.6636 47.3812C40.317 36.2002 48.8974 27.2878 59.9681 23.1748C62.5196 22.2479 65.0102 21.5734 67.7001 21.1961C67.957 21.1601 68.287 21.1305 68.5067 21Z" fill="white"/>
<path d="M84.4127 102.998C86.6718 102.93 88.0644 103.794 89.1489 105.754C88.7612 106.03 87.2466 106.841 86.8323 106.977C86.7765 106.883 86.7197 106.789 86.6629 106.696C85.9581 105.548 84.8755 105.13 83.5514 105.823C83.0501 106.085 82.908 106.53 82.7906 107.062C82.8716 107.292 82.9439 107.496 83.103 107.685C84.1935 108.982 87.3472 108.971 88.7367 111.19C89.3683 112.198 89.4945 113.551 89.2214 114.696C88.941 115.871 88.1806 116.833 87.1523 117.462C85.866 118.25 84.2633 118.419 82.8085 118.074C82.2832 117.857 81.7004 117.72 81.2446 117.36C79.8853 116.288 79.4514 115.142 79.2122 113.524C80.146 113.392 81.0874 113.176 82.0235 113.01C82.1275 113.721 82.2149 114.629 82.772 115.139C84.1979 116.444 86.7005 115.478 86.5587 113.458C86.4982 112.598 85.9452 112.08 85.2162 111.688C83.8505 111.017 82.3852 110.677 81.2134 109.644C80.5059 109.024 80.0779 108.148 80.0253 107.212C79.8784 104.633 82.0262 103.135 84.4127 102.998Z" fill="white"/>
<path d="M41.4854 102.893C43.136 102.765 45.3326 102.958 46.6625 103.988L46.6604 107.194C45.5119 106.355 44.7045 105.724 43.2546 105.449C40.4202 104.913 37.8728 106.822 37.317 109.532C37.051 110.823 37.314 112.165 38.0475 113.262C39.0854 114.793 40.8768 115.603 42.7099 115.495C43.9441 115.423 44.6808 115.02 45.6641 114.347C46.0584 114.081 46.2589 113.907 46.6115 113.597C46.7089 114.372 46.6603 116.002 46.6796 116.87C45.6234 117.545 44.3617 117.89 43.1187 118.01C38.86 118.421 34.8783 115.601 34.4171 111.259C34.2201 109.275 34.8292 107.295 36.1086 105.76C37.5357 104.029 39.2473 103.112 41.4854 102.893Z" fill="white"/>
<path d="M62.7016 102.659C62.9245 102.908 64.1856 105.713 64.4286 106.226L70.0813 118.204C68.9756 118.194 67.8438 118.211 66.736 118.215C66.3654 117.457 66.0024 116.495 65.66 115.694C64.9414 113.989 64.2121 112.288 63.4719 110.593C63.3523 110.314 62.7833 108.829 62.6808 108.683L62.6162 108.717C62.4791 108.97 62.3685 109.245 62.2502 109.508C60.9463 112.412 59.6759 115.344 58.3202 118.224C57.2361 118.198 56.1082 118.206 55.0223 118.202C55.4943 117.46 56.3855 115.484 56.813 114.597C57.8829 112.378 59.0263 110.146 60.0844 107.928C60.6246 106.778 61.18 105.635 61.7506 104.499C62.0494 103.898 62.3546 103.225 62.7016 102.659Z" fill="white"/>
<path d="M106.348 102.694C106.55 102.896 107.537 105.147 107.745 105.585L111.643 113.815C112.25 115.096 113.093 117.047 113.764 118.222C112.701 118.18 111.405 118.217 110.334 118.224C110.066 117.344 109.277 115.703 108.902 114.814L107.101 110.537C106.958 110.201 106.436 108.913 106.267 108.7L106.212 108.746C105.876 109.65 105.425 110.559 105.033 111.449L101.972 118.221C100.872 118.225 99.7715 118.223 98.6713 118.214C99.2821 117.107 99.8465 115.818 100.408 114.681L104.281 106.782C104.65 106.027 105.954 103.24 106.348 102.694Z" fill="white"/>
<path d="M97.3652 121.647L98.2559 121.64C98.2637 123.395 98.2335 125.176 98.2767 126.928L97.2667 126.921C97.0739 126.548 95.0048 123.461 94.7489 123.22C94.8021 124.445 94.7682 125.683 94.7958 126.915C94.493 126.929 94.1683 126.921 93.8635 126.918C93.9255 125.192 93.8692 123.397 93.8843 121.662C94.1381 121.641 94.4519 121.649 94.7114 121.648C95.4859 122.577 96.6397 124.42 97.3746 125.441C97.3913 124.19 97.3741 122.901 97.3652 121.647Z" fill="white"/>
<path d="M66.4961 121.561C66.9579 121.572 67.3745 121.623 67.813 121.768C67.8157 122.053 67.8076 122.332 67.7998 122.617C66.8065 122.38 65.7899 122.256 65.0359 123.086C64.3797 123.807 64.3492 125.106 65.1184 125.761C65.6921 126.249 66.3535 126.23 67.0613 126.17C67.1026 125.81 67.0934 125.313 67.0971 124.94L65.9573 124.951C65.9309 124.693 65.9254 124.354 65.9133 124.089L67.0554 124.085L68.0562 124.089C68.0231 124.727 68.1196 126.249 68.004 126.758C67.8556 126.899 67.6217 126.916 67.4145 126.932C66.4153 127.011 65.3184 127.152 64.4889 126.467C63.3334 125.523 63.3708 123.523 64.3079 122.445C64.8914 121.774 65.6499 121.616 66.4961 121.561Z" fill="white"/>
<path d="M80.5444 121.649C80.7651 121.637 81.0647 121.648 81.2928 121.65C81.5034 122.008 82.0709 123.484 82.2401 123.917C82.6259 124.902 83.0959 125.93 83.4605 126.91C83.1077 126.925 82.7454 126.924 82.3916 126.927C82.2656 126.476 82.0048 125.971 81.8439 125.487L81.3355 125.481H80.0821C79.8758 125.779 79.5316 126.569 79.4401 126.925C79.0376 126.93 78.7358 126.925 78.3325 126.9C79.1327 125.489 79.8308 123.119 80.5444 121.649ZM80.3144 124.605L80.9394 124.601L81.5066 124.626C81.4228 124.403 81.0093 123.171 80.9239 123.079C80.7468 123.599 80.5636 124.114 80.3144 124.605Z" fill="white"/>
<path d="M48.6422 121.65L49.564 121.638C49.615 122.837 49.4735 124.083 49.6091 125.276C49.7288 126.189 50.9262 126.5 51.5457 125.925C52.1093 125.402 51.9738 124.326 51.979 123.628C51.9839 122.967 51.9727 122.309 51.9786 121.65L52.8551 121.641L52.8621 122.406C52.8521 123.323 52.8999 124.281 52.8478 125.193C52.7997 126.036 52.5112 126.383 51.9004 126.9C48.7332 127.225 48.6011 126.462 48.6122 123.536C48.6089 122.907 48.6188 122.279 48.6422 121.65Z" fill="white"/>
<path d="M34.6548 121.647L35.5549 121.642L35.5614 126.109L37.9975 126.099C38.0598 126.445 38.0586 126.565 38.0509 126.92C36.9203 126.928 35.7897 126.93 34.6591 126.925C34.6986 125.273 34.7036 123.295 34.6548 121.647Z" fill="white"/>
<path d="M112.579 126.913C111.276 127.037 109.973 127.182 109.327 125.744C108.304 123.467 109.936 120.761 112.573 121.757C113.355 122.052 113.721 122.779 114 123.501V125.163C113.585 126.142 113.45 126.314 112.579 126.913ZM111.682 126.211C111.9 126.159 112.106 126.118 112.301 125.997C113.44 125.285 113.408 123.252 112.221 122.603C111.978 122.471 111.735 122.451 111.457 122.435C111.198 122.476 110.931 122.512 110.724 122.678C109.422 123.728 109.766 126.178 111.682 126.211Z" fill="white"/>
</svg>
