<svg width="148" height="148" viewBox="0 0 148 148" fill="none" xmlns="http://www.w3.org/2000/svg">
<path d="M123.119 89.2037H37.9165C37.7863 88.8862 37.5637 88.6154 37.2779 88.4266C36.9921 88.2378 36.6563 88.1397 36.3142 88.1451H23.3405C23.1227 88.1362 22.9052 88.1716 22.7013 88.2492C22.4974 88.3267 22.3112 88.4448 22.1539 88.5963C21.9966 88.7479 21.8715 88.9298 21.786 89.1311C21.7005 89.3324 21.6564 89.549 21.6564 89.7678C21.6564 89.9866 21.7005 90.2032 21.786 90.4045C21.8715 90.6058 21.9966 90.7877 22.1539 90.9392C22.3112 91.0908 22.4974 91.2089 22.7013 91.2864C22.9052 91.3639 23.1227 91.3993 23.3405 91.3904H36.3222C36.6641 91.3964 36.9999 91.2989 37.2857 91.1105C37.5715 90.9222 37.7942 90.6518 37.9246 90.3346H123.116L123.119 89.2037ZM36.3222 90.2756H23.3405C23.269 90.2887 23.1954 90.2858 23.125 90.2672C23.0547 90.2486 22.9893 90.2147 22.9334 90.1679C22.8776 90.1211 22.8326 90.0626 22.8018 89.9965C22.7709 89.9303 22.755 89.8582 22.755 89.7852C22.755 89.7122 22.7709 89.6401 22.8018 89.5739C22.8326 89.5078 22.8776 89.4493 22.9334 89.4025C22.9893 89.3557 23.0547 89.3218 23.125 89.3032C23.1954 89.2846 23.269 89.2817 23.3405 89.2948H36.3222C36.3938 89.2817 36.4674 89.2846 36.5377 89.3032C36.6081 89.3218 36.6735 89.3557 36.7293 89.4025C36.7852 89.4493 36.8301 89.5078 36.861 89.5739C36.8918 89.6401 36.9078 89.7122 36.9078 89.7852C36.9078 89.8582 36.8918 89.9303 36.861 89.9965C36.8301 90.0626 36.7852 90.1211 36.7293 90.1679C36.6735 90.2147 36.6081 90.2486 36.5377 90.2672C36.4674 90.2858 36.3938 90.2887 36.3222 90.2756Z" fill="white"/>
<path d="M58.4319 79.4596C57.4028 77.6013 56.0136 75.9685 54.3459 74.6573C52.5893 73.2948 50.6466 72.1928 48.5775 71.3852C46.4116 70.5356 44.187 69.7424 41.901 69.0269C39.615 68.3113 37.4091 67.6226 35.246 66.9607C33.2507 66.3674 31.3186 65.5784 29.4775 64.6051C27.9189 63.7876 26.5316 62.6767 25.3915 61.3329C24.3527 60.0654 23.8319 58.4547 23.8319 56.5306C23.8429 55.232 24.1605 53.9545 24.7586 52.8029C25.4268 51.5235 26.344 50.3917 27.4559 49.4745C28.7479 48.4192 30.2164 47.6026 31.7929 47.0626C33.7109 46.4289 35.7213 46.1227 37.7403 46.1568C40.4963 46.1568 42.7636 46.6231 44.5716 47.561C46.3076 48.4515 47.8316 49.7075 49.0395 51.2432C50.235 52.799 51.2118 54.5123 51.9424 56.335C52.6982 58.2109 53.4219 60.119 54.0975 62.0565H55.1925V46.339H53.8385C53.6562 46.8371 53.3847 47.2976 53.0373 47.6977C52.7881 47.9461 52.2682 48.0702 51.4777 48.0702C50.7086 48.0488 49.9507 47.8796 49.2451 47.5718C48.4439 47.2448 47.4932 46.9045 46.4223 46.5427C45.3514 46.1809 44.1176 45.8272 42.7076 45.5002C41.1027 45.148 39.463 44.9807 37.8204 45.0018C35.0413 44.9784 32.2818 45.4699 29.6805 46.4516C27.3269 47.3381 25.1453 48.6294 23.2337 50.2677C21.4829 51.7799 20.0518 53.6288 19.0249 55.7052C18.0235 57.6812 17.5011 59.8665 17.5 62.0833C17.5 65.0633 17.9967 67.5422 18.9795 69.536C19.9178 71.4648 21.2531 73.1719 22.8972 74.5447C24.5759 75.9219 26.4522 77.0368 28.4627 77.8517C30.5583 78.7091 32.6978 79.4543 34.8721 80.084C37.062 80.7201 39.1984 81.3391 41.2815 81.9412C43.2107 82.4886 45.0764 83.2405 46.8469 84.1842C47.6216 84.5943 48.3519 85.0838 49.0261 85.6448H59.9755C59.9007 83.2329 59.3693 81.164 58.4319 79.4596Z" fill="white"/>
<path d="M109.435 46.339L95.2805 85.6448H96.6692L110.361 47.4941H110.529V85.6448H122.755V47.4941H130.5V46.339H109.435ZM58.1728 46.339V47.4941H65.9175V85.6448H67.2528V47.4941H67.421L81.1718 85.6448H93.7235L79.8365 46.339H58.1728Z" fill="white"/>
<path d="M123.402 102.582L120.998 93.395H119.879L117.598 102.582H116.843V102.796H118.56V102.582H117.759L118.763 98.5618H120.942L121.992 102.582H121.158V102.796H124.203V102.582H123.402ZM118.795 98.3447L119.812 94.2552L120.881 98.3447H118.795Z" fill="white"/>
<path d="M113.499 97.4496C113.503 98.092 113.442 98.733 113.318 99.3631C113.216 99.8579 113.053 100.338 112.831 100.791C112.654 101.163 112.418 101.504 112.132 101.799C111.895 102.043 111.625 102.252 111.331 102.421C111.068 102.566 110.787 102.674 110.495 102.74C110.244 102.8 109.986 102.83 109.728 102.828H109.461V102.638C109.812 102.649 110.159 102.566 110.468 102.399C110.749 102.248 110.992 102.035 111.178 101.775C111.37 101.495 111.522 101.191 111.63 100.869C111.737 100.518 111.82 100.16 111.878 99.7972C111.938 99.422 111.976 99.0434 111.99 98.6636C112.014 98.2884 112.025 97.9374 112.025 97.6104C112.025 96.8065 111.99 96.0695 111.934 95.4129C111.887 94.837 111.766 94.2695 111.574 93.7246C111.531 93.6163 111.482 93.5107 111.427 93.4084H112.385C112.552 93.6244 112.7 93.8549 112.826 94.0971C113.051 94.5501 113.218 95.0301 113.323 95.5255C113.446 96.1593 113.505 96.8039 113.499 97.4496Z" fill="white"/>
<path d="M109.456 102.627V102.817C109.189 102.817 108.938 102.817 108.689 102.817C108.35 102.817 108.011 102.817 107.661 102.817H106.828V102.603H107.661V93.395H108.981V102.582C109.137 102.611 109.296 102.626 109.456 102.627Z" fill="white"/>
<path d="M102.515 97.4255C102.522 98.15 102.427 98.8718 102.232 99.5694C102.072 100.196 101.821 100.796 101.487 101.349C101.216 101.821 100.853 102.233 100.419 102.56C100.047 102.844 99.5929 102.997 99.1261 102.997C98.6592 102.997 98.2053 102.844 97.8335 102.56C97.3968 102.25 97.0279 101.853 96.7493 101.394C96.4177 100.854 96.1658 100.268 96.0015 99.6552C95.8063 98.943 95.7111 98.207 95.7184 97.4684C95.7071 96.6869 95.8134 95.9081 96.0336 95.1584C96.2092 94.5321 96.4794 93.9365 96.8347 93.3923H97.5905C97.5665 93.4486 97.5451 93.5156 97.5211 93.5826C97.3712 94.1422 97.2817 94.7163 97.254 95.295C97.2086 95.9623 97.1873 96.6886 97.1873 97.4684C97.1776 98.3345 97.215 99.2005 97.2994 100.063C97.3405 100.623 97.4545 101.175 97.6386 101.705C97.742 102.043 97.952 102.337 98.2368 102.544C98.4951 102.712 98.7972 102.798 99.1047 102.793C99.2999 102.805 99.4953 102.774 99.6772 102.702C99.859 102.629 100.023 102.518 100.157 102.375C100.442 102.049 100.64 101.655 100.731 101.231C100.868 100.666 100.948 100.089 100.969 99.5078C101.004 98.8405 101.025 98.1143 101.025 97.3451C101.025 96.643 101.025 95.973 100.979 95.3406C100.965 94.7714 100.89 94.2053 100.755 93.6523C100.731 93.5611 100.696 93.47 100.675 93.3843H101.455C101.786 93.9193 102.041 94.4985 102.211 95.1048C102.418 95.8606 102.52 96.6416 102.515 97.4255Z" fill="white"/>
<path d="M91.3841 102.582V102.796H88.4037V102.582H89.237V93.395H90.5482V102.582H91.3841Z" fill="white"/>
<path d="M88.9913 93.395L86.9803 102.796H86.8334L84.8252 93.395H86.2005L87.4984 99.5801H87.5225L88.8444 93.395H88.9913Z" fill="white"/>
<path d="M85.41 102.582V102.796H83.6047V102.582H84.4406V93.395H84.5768V102.582H85.41Z" fill="white"/>
<path d="M79.2704 97.4255C79.2782 98.1499 79.1838 98.8717 78.99 99.5694C78.8304 100.196 78.5793 100.796 78.2449 101.349C77.9738 101.821 77.6104 102.233 77.1767 102.56C76.8049 102.844 76.3509 102.997 75.8841 102.997C75.4172 102.997 74.9632 102.844 74.5915 102.56C74.1562 102.248 73.7875 101.852 73.5073 101.394C73.1772 100.852 72.9263 100.264 72.7622 99.6498C72.5691 98.9373 72.4747 98.2014 72.4818 97.463C72.4705 96.6815 72.5767 95.9027 72.7969 95.153C72.9725 94.5267 73.2427 93.9311 73.5981 93.387H74.3539C74.3325 93.4432 74.3085 93.5102 74.2871 93.5772C74.1347 94.1363 74.0451 94.7106 74.02 95.2897C73.9746 95.957 73.9506 96.6832 73.9506 97.463C73.9403 98.3292 73.9786 99.1953 74.0654 100.057C74.104 100.618 74.2181 101.17 74.4046 101.7C74.5068 102.038 74.717 102.333 75.0028 102.539C75.2608 102.707 75.5631 102.794 75.8707 102.788C76.0655 102.799 76.2604 102.768 76.4417 102.696C76.623 102.624 76.7864 102.512 76.9203 102.37C77.2056 102.043 77.4041 101.65 77.4971 101.226C77.6331 100.661 77.7118 100.083 77.7321 99.5024C77.7668 98.8351 77.7909 98.1089 77.7909 97.3398C77.7909 96.6376 77.7775 95.9677 77.7455 95.3352C77.7306 94.7659 77.6545 94.1998 77.5185 93.6469C77.4971 93.5558 77.4624 93.4647 77.441 93.3789H78.2182C78.5494 93.9139 78.8039 94.4931 78.9739 95.0994C79.1791 95.8574 79.2789 96.6401 79.2704 97.4255Z" fill="white"/>
<path d="M68.094 102.582V102.796H65.1137V102.582H65.9496V93.395H67.2581V102.582H68.094Z" fill="white"/>
<path d="M60.6778 97.4496C60.6825 98.0919 60.6226 98.7329 60.4989 99.3631C60.3965 99.8576 60.2332 100.337 60.0129 100.791C59.834 101.164 59.5959 101.504 59.3078 101.799C59.0701 102.042 58.8006 102.251 58.5067 102.421C58.016 102.692 57.4643 102.832 56.9043 102.828H56.6373V102.638C56.9871 102.649 57.3337 102.567 57.6414 102.399C57.9239 102.249 58.168 102.036 58.3544 101.775C58.55 101.498 58.7022 101.192 58.8058 100.869C58.9184 100.519 59.0015 100.161 59.0541 99.7972C59.1145 99.422 59.152 99.0434 59.1663 98.6636C59.1903 98.2884 59.201 97.9374 59.201 97.6104C59.201 96.8065 59.1663 96.0695 59.1102 95.4129C59.0628 94.837 58.9416 94.2695 58.7497 93.7246C58.7072 93.6163 58.6582 93.5107 58.6028 93.4084H59.5749C59.7418 93.6244 59.8893 93.8549 60.0155 94.0971C60.2444 94.5486 60.4115 95.0291 60.5123 95.5255C60.6317 96.1597 60.6871 96.8043 60.6778 97.4496Z" fill="white"/>
<path d="M56.6373 102.627V102.817C56.3702 102.817 56.1299 102.817 55.8708 102.817C55.5317 102.817 55.1925 102.817 54.8426 102.817H54.0067V102.603H54.8426V93.395H56.1646V102.582C56.3204 102.611 56.4786 102.626 56.6373 102.627Z" fill="white"/>
<path d="M49.0288 93.395V99.3524C49.0288 99.5105 49.0288 99.7141 49.0288 99.9634C49.0276 100.222 49.0053 100.48 48.962 100.735C48.919 101.008 48.8547 101.277 48.7698 101.539C48.6907 101.802 48.564 102.048 48.3959 102.265C48.2336 102.482 48.0257 102.659 47.787 102.785C47.5003 102.931 47.1814 103.001 46.8603 102.989C46.3705 103.013 45.8834 102.903 45.4502 102.673C45.1037 102.47 44.8185 102.176 44.625 101.823C44.4318 101.456 44.306 101.056 44.2538 100.644C44.1948 100.2 44.1645 99.7523 44.163 99.3041V93.3816H45.4983V99.0442C45.4983 99.5078 45.4983 99.9741 45.5303 100.416C45.5547 100.817 45.6191 101.215 45.7226 101.603C45.8038 101.916 45.9544 102.207 46.1633 102.453C46.2653 102.563 46.3897 102.649 46.528 102.706C46.6663 102.762 46.8151 102.789 46.9644 102.783C47.2437 102.789 47.5199 102.723 47.7656 102.59C47.9848 102.467 48.1737 102.297 48.3184 102.091C48.4694 101.882 48.5832 101.648 48.6549 101.4C48.7333 101.152 48.7905 100.899 48.8258 100.641C48.8606 100.373 48.8819 100.143 48.8926 99.9178V93.395H49.0288Z" fill="white"/>
<path d="M39.0115 93.395V94.8555H38.9047C38.8346 94.4249 38.7319 94.0002 38.5975 93.5853C38.5762 93.5183 38.5548 93.462 38.5308 93.395H39.0115Z" fill="white"/>
<path d="M37.6708 102.582V102.796H34.6798V102.582H35.5157V93.395H36.8376V102.582H37.6708Z" fill="white"/>
<path d="M33.8225 93.395C33.8012 93.462 33.7798 93.5183 33.7558 93.5853C33.6237 94.0007 33.522 94.4252 33.4513 94.8555H33.3392V93.395H33.8225Z" fill="white"/>
<path d="M28.225 93.395V94.9574H28.0995C28.0327 94.6063 27.9526 94.2552 27.8752 93.9149C27.8298 93.7327 27.7737 93.5638 27.7176 93.395H28.225Z" fill="white"/>
<path d="M28.7324 99.3631C28.7377 99.8374 28.6766 100.31 28.5508 100.767C28.4519 101.181 28.2801 101.573 28.0434 101.925C27.8327 102.238 27.5599 102.503 27.2423 102.705C26.9415 102.904 26.5876 103.007 26.2274 103C26.0362 102.997 25.8463 102.966 25.6639 102.909C25.4823 102.852 25.3114 102.785 25.1298 102.729C24.9482 102.673 24.8361 102.592 24.7132 102.536C24.6247 102.49 24.529 102.459 24.4301 102.445C24.3968 102.442 24.3631 102.446 24.3317 102.458C24.3002 102.469 24.2718 102.488 24.2485 102.512C24.1991 102.6 24.1648 102.696 24.1471 102.796H24.0002V99.4542H24.1364C24.1604 99.5801 24.1711 99.7383 24.2031 99.9312C24.2352 100.124 24.2833 100.339 24.3393 100.564C24.4093 100.802 24.4931 101.035 24.5904 101.263C24.673 101.489 24.7796 101.706 24.9082 101.909C25.0232 102.102 25.1593 102.282 25.3141 102.445C25.4282 102.548 25.5536 102.638 25.688 102.713C25.7925 102.767 25.9072 102.798 26.0245 102.804C26.126 102.804 26.2274 102.804 26.3182 102.804C26.6057 102.815 26.8882 102.727 27.1194 102.555C27.3204 102.386 27.4856 102.178 27.6055 101.944C27.7227 101.704 27.8063 101.448 27.8538 101.185C27.8958 100.954 27.9182 100.719 27.9206 100.483C27.9343 100.173 27.8806 99.8626 27.763 99.5748C27.6735 99.3444 27.5307 99.1386 27.3464 98.9745C27.1589 98.8093 26.9506 98.6697 26.7268 98.5591L26.0378 98.2188C25.7969 98.1031 25.5664 97.9668 25.3488 97.8114C25.1115 97.6533 24.9081 97.4492 24.7506 97.2111C24.5537 96.9382 24.4088 96.6311 24.3233 96.3053C24.2012 95.8696 24.1445 95.418 24.1551 94.9654C24.1527 94.5741 24.2094 94.1846 24.3233 93.8104C24.3589 93.6701 24.4081 93.5337 24.4702 93.403H24.9108C24.8661 93.5845 24.8437 93.7708 24.8441 93.9578C24.8344 94.2585 24.8938 94.5574 25.0177 94.8314C25.1215 95.0569 25.2716 95.2578 25.4583 95.421C25.6457 95.5919 25.855 95.7369 26.0806 95.8524C26.3049 95.9757 26.5426 96.1017 26.7909 96.2249C27.0393 96.3482 27.277 96.4929 27.5147 96.6564C27.7478 96.8227 27.9563 97.0212 28.1342 97.246C28.3293 97.5076 28.475 97.8027 28.5642 98.1169C28.6848 98.521 28.7415 98.9414 28.7324 99.3631Z" fill="white"/>
</svg>
