<svg width="148" height="148" viewBox="0 0 148 148" fill="none" xmlns="http://www.w3.org/2000/svg">
<path d="M13.9384 86.6346L21.0018 95.8088V97.8873H20.4936L12.8894 88.0418C11.873 86.7637 11.4126 86.8752 11 86.8424V86.6346H13.9384ZM15.8267 97.6796V97.8873H11.2389V97.6796C13.541 97.6796 13.5246 95.33 13.5246 93.8911H13.7473C13.7473 95.3136 13.7473 97.6796 15.8267 97.6796ZM18.7161 86.6346H23.256V86.8424C20.954 86.8259 21.0018 89.1286 21.0018 90.6144H20.7955C20.7955 89.1286 20.8118 86.8259 18.7161 86.8424V86.6346Z" fill="white"/>
<path d="M26.6514 97.8873H24.1745V97.6796C24.8412 97.6796 25.0161 97.1045 25.0161 96.0166V88.3446C25.0161 87.3541 24.8727 86.8424 24.1745 86.8424V86.6346H26.6514V97.8873ZM27.8904 86.8588V86.6346H31.9384V89.5124H31.7321C31.5887 87.1945 29.6049 86.9069 27.8904 86.8588ZM27.8904 92.3255V92.0861C28.6841 92.0544 29.7949 91.8948 29.9068 90.4876H30.1131V93.924H29.9068C29.7961 92.5333 28.669 92.3572 27.8904 92.3255ZM32.1447 97.8873H27.8904V97.6632C29.6527 97.615 31.668 97.3275 31.9384 94.5625H32.1447V97.8873Z" fill="white"/>
<path d="M36.1275 96.2255C36.1275 97.3287 36.4923 97.6796 37.159 97.6796V97.8873H33.6029V97.6796C34.2859 97.6796 34.5866 97.3604 34.5866 96.0166V88.0571C34.5866 87.0665 34.301 86.8424 33.6029 86.8424V86.6346H36.1263V96.2255H36.1275ZM43.255 97.6796V97.8873H42.0486C40.0007 97.8873 40.2548 97.8709 39.334 94.4028C39.017 93.14 38.0169 92.8361 37.3653 92.7562V92.5004C38.778 92.4523 39.7781 92.1166 39.7781 89.6872C39.7781 87.2578 38.7302 86.8905 37.3653 86.8424V86.6511C40.0322 86.7156 41.5404 87.2426 41.5404 89.6884C41.5404 91.8619 40.2863 92.5016 38.588 92.6131C39.6359 92.6612 40.8108 92.7574 41.5404 96.2736C41.8575 97.4883 42.8424 97.6479 43.255 97.6808V97.6796Z" fill="white"/>
<path d="M48.2716 97.7758V98C45.2237 97.7125 43.748 95.3148 43.748 92.342C43.748 89.3692 45.2248 86.8271 48.2716 86.5243V86.7485C46.6841 87.0196 45.5733 88.4584 45.5733 92.3431C45.5733 96.2278 46.6841 97.5376 48.2716 97.777V97.7758ZM49.5095 98V97.7758C51.097 97.5364 52.2241 96.2419 52.2241 92.342C52.2241 88.442 51.097 87.0196 49.5095 86.7473V86.5231C52.5738 86.8271 54.0657 89.368 54.0657 92.3408C54.0657 95.3136 52.5738 97.7113 49.5095 97.9988V98Z" fill="white"/>
<path d="M61.8902 95.6973C61.8902 97.615 62.4614 97.6796 63.4614 97.6796V97.8873H59.2863V97.6796C60.0486 97.6796 60.3342 97.2477 60.3342 95.729V88.3282C60.3342 87.225 60.1116 86.8259 59.3027 86.8259V86.6346H61.8902V95.6973ZM63.1281 86.6511C65.7471 86.7309 67.4454 87.3224 67.4454 89.8644C67.4454 92.4065 65.7471 92.9652 63.1281 93.045V92.8372C64.62 92.7574 65.7157 92.342 65.7157 89.8644C65.7157 87.3869 64.5886 86.9069 63.1281 86.8435V86.6511Z" fill="white"/>
<path d="M70.9689 97.8873H68.4921V97.6796C69.1588 97.6796 69.3336 97.1045 69.3336 96.0166V88.3446C69.3336 87.3541 69.1902 86.8424 68.4921 86.8424V86.6346H70.9689V97.8873ZM72.2068 86.8588V86.6346H76.2548V89.5124H76.0485C75.9051 87.1945 73.9213 86.9069 72.2068 86.8588ZM72.2068 92.3255V92.0861C73.0005 92.0544 74.1113 91.8948 74.2232 90.4876H74.4295V93.924H74.2232C74.1125 92.5333 72.9854 92.3572 72.2068 92.3255ZM76.4611 97.8873H72.2068V97.6632C73.9691 97.615 75.9844 97.3275 76.2548 94.5625H76.4611V97.8873Z" fill="white"/>
<path d="M80.4451 96.2255C80.4451 97.3287 80.8099 97.6796 81.4766 97.6796V97.8873H77.9204V97.6796C78.6034 97.6796 78.9042 97.3604 78.9042 96.0166V88.0571C78.9042 87.0665 78.6186 86.8424 77.9204 86.8424V86.6346H80.4439V96.2255H80.4451ZM87.5726 97.6796V97.8873H86.3662C84.3183 97.8873 84.5724 97.8709 83.6516 94.4028C83.3345 93.14 82.3344 92.8361 81.6829 92.7562V92.5004C83.0956 92.4523 84.0956 92.1166 84.0956 89.6872C84.0956 87.2578 83.0478 86.8905 81.6829 86.8424V86.6511C84.3497 86.7156 85.858 87.2426 85.858 89.6884C85.858 91.8619 84.6038 92.5016 82.9056 92.6131C83.9534 92.6612 85.1283 92.7574 85.858 96.2736C86.175 97.4883 87.1599 97.6479 87.5726 97.6808V97.6796Z" fill="white"/>
<path d="M90.6508 95.9532C90.6508 97.52 91.159 97.6796 91.8572 97.6796V97.8873H88.174V97.6796C88.8407 97.6796 89.0155 97.1045 89.0155 96.0166V88.3446C89.0155 87.3541 88.8733 86.8424 88.174 86.8424V86.6346H90.6497V95.9532H90.6508ZM91.8898 86.6346H96.0172V89.5124H95.8108C95.5882 87.1146 93.5729 86.8752 91.8898 86.8424V86.6346ZM91.8898 92.3255V92.0861C92.6836 92.0544 93.8422 91.8948 93.9541 90.4876H94.1604V93.924H93.9541C93.8434 92.5333 92.6684 92.3572 91.8898 92.3255Z" fill="white"/>
<path d="M99.2376 97.8873H96.7608V97.6796C97.4275 97.6796 97.6023 97.1045 97.6023 96.0166V88.3446C97.6023 87.3541 97.459 86.8424 96.7608 86.8424V86.6346H99.2376V97.8873ZM100.477 86.8588V86.6346H104.525V89.5124H104.318C104.176 87.1945 102.191 86.9069 100.477 86.8588ZM100.477 92.3255V92.0861C101.27 92.0544 102.381 91.8948 102.493 90.4876H102.699V93.924H102.493C102.382 92.5333 101.255 92.3572 100.477 92.3255ZM104.731 97.8873H100.477V97.6632C102.239 97.615 104.254 97.3275 104.525 94.5625H104.731V97.8873Z" fill="white"/>
<path d="M115.731 86.6346V89.4478H115.524C115.46 86.8741 112.81 86.8424 112.588 86.8424H111.651V96.337C111.651 97.3921 112.143 97.6796 112.81 97.6796V97.8873H108.936V97.6796C109.603 97.6796 110.08 97.3921 110.08 96.337V86.8424H109.144C108.652 86.8424 106.286 86.8741 106.223 89.4478H106.017V86.6346H115.732H115.731Z" fill="white"/>
<path d="M126.079 86.6346V89.4478H125.872C125.808 86.8741 123.158 86.8424 122.936 86.8424H121.999V96.337C121.999 97.3921 122.491 97.6796 123.158 97.6796V97.8873H119.284V97.6796C119.951 97.6796 120.428 97.3921 120.428 96.337V86.8424H119.492C119 86.8424 116.634 86.8741 116.571 89.4478H116.365V86.6346H126.08H126.079Z" fill="white"/>
<path d="M131.206 97.7758V98C128.158 97.7125 126.681 95.3148 126.681 92.342C126.681 89.3692 128.158 86.8271 131.206 86.5243V86.7485C129.618 87.0196 128.508 88.4584 128.508 92.3431C128.508 96.2278 129.618 97.5376 131.206 97.777V97.7758ZM132.444 98V97.7758C134.031 97.5364 135.158 96.2419 135.158 92.342C135.158 88.442 134.031 87.0196 132.444 86.7473V86.5231C135.508 86.8271 137 89.368 137 92.3408C137 95.3136 135.508 97.7113 132.444 97.9988V98Z" fill="white"/>
<path d="M73.9516 51.6712C74.0449 51.6712 74.1381 51.6736 74.2279 51.6795L74.2896 51.683L74.3514 51.6795C74.4423 51.6736 74.5344 51.6712 74.6277 51.6712C76.8854 51.6712 80.121 53.1911 82.4837 54.3013C83.8322 54.9351 84.8976 55.435 85.6295 55.6005C86.0468 55.6944 86.4816 55.7554 86.928 55.7836C85.8976 60.0662 85.7531 69.1793 85.7379 70.4844C85.4337 74.3315 77.7199 78.5402 74.2861 80.067C70.8629 78.5683 63.1759 74.4067 62.8658 70.4844C62.8507 69.1793 62.7085 60.0662 61.6781 55.7836C62.1245 55.7554 62.5593 55.6944 62.9766 55.6005C63.7085 55.435 64.7715 54.9339 66.1178 54.3002C68.4711 53.1911 71.6951 51.6712 73.9516 51.6712ZM74.6288 50.6431C74.5134 50.6431 74.4015 50.6467 74.2896 50.6537C74.1789 50.6467 74.0659 50.6431 73.9505 50.6431C70.2078 50.6431 64.6037 54.1793 62.7528 54.5971C62.1362 54.7356 61.5569 54.7731 61.1105 54.7731C60.593 54.7731 60.2573 54.7227 60.2573 54.7227C61.7014 57.6121 61.8448 70.529 61.8448 70.529C62.2318 76.0533 73.6812 80.932 74.2885 81.1855C74.2885 81.1855 86.372 76.0521 86.7578 70.529C86.7578 70.529 86.9047 57.6133 88.3477 54.7227C88.3477 54.7227 88.012 54.7731 87.4945 54.7731C87.048 54.7731 86.4688 54.7356 85.8522 54.5971C84.0001 54.1793 78.3715 50.6431 74.6277 50.6431H74.6288Z" fill="white"/>
<path d="M74.292 81.8826L74.0449 81.7794C73.7104 81.6397 70.6845 80.3534 67.6389 78.3735C63.5489 75.7141 61.3855 73.0899 61.2095 70.5736V70.536C61.1687 66.9847 60.8179 57.2729 59.6885 55.0114L59.136 53.9058L60.3517 54.0866C60.3517 54.0866 60.6547 54.13 61.1116 54.13C61.6361 54.13 62.142 54.076 62.6141 53.9692C63.1689 53.8436 64.2097 53.353 65.4149 52.7862C67.9093 51.6102 71.3267 50 73.9516 50C74.0659 50 74.1789 50.0035 74.2908 50.0094C74.4027 50.0035 74.5146 50 74.63 50C77.256 50 80.684 51.6114 83.1877 52.7874C84.3952 53.3554 85.4384 53.8448 85.9944 53.9704C86.4664 54.076 86.9723 54.13 87.4968 54.13C87.9537 54.13 88.2556 54.0877 88.2591 54.0866L89.4689 53.9117L88.9211 55.0114C87.7917 57.2729 87.4397 66.9847 87.3989 70.536V70.5736C86.9886 76.4241 75.0473 81.5622 74.5391 81.777L74.2931 81.8815L74.292 81.8826ZM63.5046 70.4551C63.7785 73.5886 69.9992 77.4452 74.285 79.3664C78.5871 77.4111 84.8323 73.5253 85.1015 70.4551C85.1225 68.7697 85.2647 60.8173 86.1529 56.3505C85.9279 56.3176 85.7076 56.2777 85.492 56.2296C84.6924 56.0489 83.5991 55.536 82.2156 54.8858C79.818 53.7591 76.5101 52.1912 74.391 52.3226L74.2908 52.3285L74.1882 52.3226C74.1113 52.3179 74.0321 52.3156 73.9516 52.3156C71.8384 52.3156 68.689 53.8002 66.3894 54.8834C65.0082 55.5348 63.9172 56.0489 63.1164 56.2296C62.9008 56.2777 62.6793 56.3188 62.4555 56.3505C63.3449 60.822 63.4847 68.7709 63.5046 70.4551Z" fill="white"/>
<path d="M70.8559 58.8726L78.4892 68.7862V71.0313H77.9402L69.7241 60.3924C68.6261 59.0111 68.1284 59.132 67.6832 59.0968V58.8726H70.8559ZM72.8968 70.806V71.0301H67.9396V70.806C70.4269 70.806 70.4094 68.2674 70.4094 66.7124H70.6495C70.6495 68.2498 70.6496 70.806 72.8968 70.806ZM76.0194 58.8726H80.9253V59.0968C78.4379 59.0791 78.4892 61.5661 78.4892 63.1727H78.2666C78.2666 61.5661 78.2841 59.0791 76.0194 59.0968V58.8726Z" fill="white"/>
</svg>
