<svg width="148" height="148" viewBox="0 0 148 148" fill="none" xmlns="http://www.w3.org/2000/svg">
<path d="M52.3971 80.7251C52.3971 78.1389 52.3971 77.6755 52.3645 77.1441C52.3288 76.5802 52.1982 76.3145 51.6457 76.1994C51.5121 76.1669 51.2299 76.1492 51.0784 76.1492C51.0131 76.1492 50.9448 76.1167 50.9448 76.0488C50.9448 75.9484 51.0279 75.916 51.2121 75.916C51.9635 75.916 53.012 75.9661 53.0981 75.9661C53.499 75.9661 54.1495 75.916 54.9158 75.916C57.6512 75.916 58.2512 77.5751 58.2512 78.4046C58.2512 79.7656 57.4671 80.5774 56.683 81.3893C57.9185 81.7701 59.5669 82.948 59.5669 84.8876C59.5669 86.6619 58.165 88.5011 55.3138 88.5011C55.1296 88.5011 54.598 88.4686 54.1138 88.4509C53.6297 88.4184 53.1634 88.4007 53.0951 88.4007C53.0624 88.4007 52.7773 88.4007 52.4268 88.4184C52.0942 88.4184 51.7111 88.4509 51.4586 88.4509C51.2745 88.4509 51.1913 88.4184 51.1913 88.318C51.1913 88.2679 51.224 88.2177 51.325 88.2177C51.4764 88.2177 51.6754 88.1852 51.8269 88.1527C52.1595 88.0848 52.2427 87.7217 52.311 87.2405C52.3942 86.5438 52.3942 85.233 52.3942 83.6418V80.7221L52.3971 80.7251ZM53.7337 81.0911C53.7337 81.2063 53.7664 81.2417 53.8495 81.2742C53.9505 81.2919 54.2505 81.3421 54.8683 81.3421C55.8038 81.3421 56.0355 81.3096 56.386 80.911C56.7364 80.5125 56.9859 79.9162 56.9859 79.2372C56.9859 77.8614 56.3681 76.3854 54.7346 76.3854C54.5505 76.3854 54.2 76.4031 53.9327 76.468C53.7842 76.5005 53.7337 76.5507 53.7337 76.6511V81.0941V81.0911ZM53.7337 82.8477C53.7337 84.126 53.7337 86.1807 53.7515 86.4287C53.802 87.2405 53.802 87.4737 54.3188 87.7217C54.7673 87.9372 55.486 87.9697 55.786 87.9697C56.6889 87.9697 58.1383 87.4885 58.1383 85.6139C58.1383 84.619 57.8057 83.1754 56.5196 82.2986C55.9523 81.9177 55.5365 81.8675 55.1356 81.8174C54.9187 81.7849 54.0842 81.7849 53.8347 81.7849C53.7693 81.7849 53.7337 81.8174 53.7337 81.9V82.8477Z" fill="white"/>
<path d="M66.1783 76.3322C66.3773 75.7861 66.4456 75.6857 66.5466 75.6857C66.6476 75.6857 66.7129 75.7684 66.9119 76.282C67.1614 76.9138 69.781 83.7599 70.7997 86.281C71.3997 87.7571 71.8838 88.0228 72.2343 88.1203C72.4838 88.2029 72.7333 88.2206 72.8996 88.2206C73.0006 88.2206 73.0659 88.2383 73.0659 88.321C73.0659 88.4214 72.9144 88.4538 72.7303 88.4538C72.4808 88.4538 71.2631 88.4539 70.1107 88.4214C69.7959 88.4037 69.6117 88.4037 69.6117 88.3062C69.6117 88.2413 69.6622 88.2059 69.7275 88.1911C69.8285 88.1586 69.9265 88.0081 69.8285 87.7424L68.2781 83.6625C68.2455 83.5946 68.2128 83.5621 68.1267 83.5621H64.5388C64.4557 83.5621 64.4052 83.6123 64.3725 83.6949L63.3716 86.6294C63.2201 87.0427 63.1369 87.4413 63.1369 87.7394C63.1369 88.0701 63.4874 88.2206 63.7696 88.2206H63.9359C64.0517 88.2206 64.1022 88.2531 64.1022 88.321C64.1022 88.4214 64.0012 88.4538 63.8527 88.4538C63.4518 88.4538 62.736 88.4037 62.5518 88.4037C62.3677 88.4037 61.4499 88.4538 60.6658 88.4538C60.449 88.4538 60.348 88.4214 60.348 88.321C60.348 88.2561 60.4134 88.2206 60.4965 88.2206C60.6124 88.2206 60.847 88.2029 60.9807 88.1882C61.7499 88.0878 62.0826 87.459 62.3825 86.6294L66.1694 76.3322H66.1783ZM67.9158 82.9628C67.999 82.9628 67.999 82.9126 67.9811 82.8477L66.3951 78.3692C66.312 78.1212 66.2288 78.1212 66.1456 78.3692L64.6784 82.8477C64.6457 82.9303 64.6784 82.9628 64.7289 82.9628H67.9158Z" fill="white"/>
<path d="M75.4568 80.7251C75.4568 78.1389 75.4568 77.6755 75.4241 77.1441C75.3915 76.5802 75.2578 76.3145 74.7084 76.1994C74.5747 76.1669 74.2896 76.1492 74.1411 76.1492C74.0757 76.1492 74.0074 76.1167 74.0074 76.0488C74.0074 75.9484 74.0906 75.916 74.2747 75.916C75.0262 75.916 76.0746 75.9661 76.1607 75.9661C76.3449 75.9661 77.6131 75.916 78.1299 75.916C79.1813 75.916 80.298 76.0163 81.1831 76.6451C81.6019 76.9433 82.3355 77.7552 82.3355 78.9006C82.3355 80.1287 81.8187 81.3539 80.3188 82.7325C81.688 84.4743 82.8196 85.9504 83.7879 86.9778C84.6878 87.9225 85.4066 88.1055 85.8224 88.1704C86.1402 88.2206 86.3718 88.2206 86.4728 88.2206C86.556 88.2206 86.6243 88.2708 86.6243 88.321C86.6243 88.4214 86.5233 88.4538 86.2234 88.4538H85.0383C84.1057 88.4538 83.6869 88.3712 83.2533 88.138C82.5345 87.7571 81.9524 86.9453 81.002 85.6995C80.301 84.7872 79.5169 83.6772 79.1843 83.2462C79.1189 83.1813 79.0684 83.1458 78.9675 83.1458L76.9151 83.1134C76.832 83.1134 76.7993 83.1636 76.7993 83.2462V83.6448C76.7993 85.236 76.7993 86.5467 76.8825 87.2435C76.9329 87.7247 77.031 88.0878 77.5329 88.1557C77.7675 88.1882 78.1329 88.2206 78.2843 88.2206C78.3853 88.2206 78.418 88.2708 78.418 88.321C78.418 88.4037 78.3348 88.4538 78.1507 88.4538C77.2329 88.4538 76.1815 88.4037 76.0984 88.4037C76.0805 88.4037 75.0291 88.4538 74.5302 88.4538C74.346 88.4538 74.2629 88.4214 74.2629 88.321C74.2629 88.2708 74.2955 88.2206 74.3965 88.2206C74.545 88.2206 74.747 88.1882 74.8955 88.1557C75.2281 88.0878 75.3113 87.7247 75.3796 87.2435C75.4628 86.5467 75.4628 85.236 75.4628 83.6448V80.7251H75.4568ZM76.7904 82.1687C76.7904 82.2513 76.8231 82.3192 76.9062 82.3665C77.1557 82.517 77.925 82.6322 78.6586 82.6322C79.0595 82.6322 79.5258 82.582 79.909 82.3163C80.4911 81.9177 80.9277 81.0232 80.9277 79.7626C80.9277 77.6902 79.8258 76.4474 78.0408 76.4474C77.5388 76.4474 77.0874 76.4975 76.924 76.5477C76.8409 76.5802 76.7904 76.6481 76.7904 76.7455V82.1687Z" fill="white"/>
<path d="M96.2117 84.2234C96.2117 82.8801 96.1286 82.6971 95.4603 82.517C95.3266 82.4846 95.0415 82.4668 94.893 82.4668C94.8277 82.4668 94.7593 82.4344 94.7593 82.3665C94.7593 82.2661 94.8425 82.2336 95.0267 82.2336C95.7781 82.2336 96.8295 82.2838 96.9127 82.2838C96.9958 82.2838 98.0472 82.2336 98.5492 82.2336C98.7333 82.2336 98.8165 82.2661 98.8165 82.3665C98.8165 82.4344 98.7482 82.4668 98.6828 82.4668C98.567 82.4668 98.466 82.4846 98.267 82.517C97.8156 82.5997 97.6849 82.8831 97.6492 83.4617C97.6166 83.9931 97.6166 84.4891 97.6166 85.1858V87.0427C97.6166 87.7896 97.6017 87.8221 97.3997 87.9372C96.3335 88.5011 94.8306 88.6841 93.8624 88.6841C92.5942 88.6841 90.227 88.5188 88.3737 86.9099C87.3549 86.0301 86.3897 84.2559 86.3897 82.1834C86.3897 79.5294 87.6906 77.6577 89.1756 76.7278C90.6755 75.7979 92.3298 75.6827 93.6129 75.6827C94.6643 75.6827 95.8494 75.8982 96.1642 75.9661C96.5147 76.0488 97.0968 76.1167 97.5156 76.1315C97.6819 76.1492 97.7146 76.2141 97.7146 76.282C97.7146 76.5153 97.5987 76.9787 97.5987 78.6379C97.5987 78.9036 97.5631 78.9862 97.4473 78.9862C97.3641 78.9862 97.3463 78.8859 97.3314 78.7382C97.3136 78.505 97.2305 78.0415 96.981 77.643C96.5652 77.0142 95.2138 76.2997 93.0605 76.2997C92.0091 76.2997 90.7587 76.4001 89.4904 77.395C88.5222 78.1567 87.8391 79.6652 87.8391 81.6078C87.8391 83.9459 89.0241 85.6375 89.6063 86.2013C90.925 87.4796 92.4427 87.9756 93.9753 87.9756C94.5752 87.9756 95.4454 87.8752 95.8791 87.6272C96.0959 87.5121 96.2117 87.3291 96.2117 87.0457V84.2234Z" fill="white"/>
<path d="M105.071 76.3322C105.27 75.7861 105.339 75.6857 105.437 75.6857C105.535 75.6857 105.603 75.7684 105.802 76.282C106.055 76.9138 108.671 83.7599 109.69 86.281C110.29 87.7571 110.774 88.0228 111.124 88.1203C111.374 88.2029 111.623 88.2206 111.793 88.2206C111.894 88.2206 111.959 88.2383 111.959 88.321C111.959 88.4214 111.808 88.4538 111.623 88.4538C111.374 88.4538 110.156 88.4539 109.004 88.4214C108.686 88.4037 108.505 88.4037 108.505 88.3062C108.505 88.2413 108.555 88.2059 108.621 88.1911C108.722 88.1586 108.823 88.0081 108.722 87.7424L107.171 83.6625C107.139 83.5946 107.106 83.5621 107.02 83.5621H103.432C103.349 83.5621 103.298 83.6123 103.266 83.6949L102.265 86.6294C102.113 87.0427 102.03 87.4413 102.03 87.7394C102.03 88.0701 102.381 88.2206 102.663 88.2206H102.829C102.945 88.2206 102.995 88.2531 102.995 88.321C102.995 88.4214 102.894 88.4538 102.746 88.4538C102.345 88.4538 101.629 88.4037 101.445 88.4037C101.261 88.4037 100.343 88.4538 99.559 88.4538C99.3422 88.4538 99.2412 88.4214 99.2412 88.321C99.2412 88.2561 99.3065 88.2206 99.3897 88.2206C99.5055 88.2206 99.7402 88.2029 99.8738 88.1882C100.64 88.0878 100.976 87.459 101.276 86.6294L105.063 76.3322H105.071ZM106.806 82.9628C106.889 82.9628 106.889 82.9126 106.871 82.8477L105.288 78.3692C105.205 78.1212 105.122 78.1212 105.039 78.3692L103.572 82.8477C103.539 82.9303 103.572 82.9628 103.622 82.9628H106.809H106.806Z" fill="white"/>
<path d="M115.752 83.6448C115.752 85.236 115.752 86.5467 115.835 87.2435C115.886 87.7247 115.986 88.0878 116.485 88.1557C116.72 88.1882 117.085 88.2206 117.237 88.2206C117.338 88.2206 117.371 88.2708 117.371 88.321C117.371 88.4037 117.287 88.4538 117.103 88.4538C116.185 88.4538 115.137 88.4037 115.051 88.4037C114.965 88.4037 113.916 88.4538 113.414 88.4538C113.23 88.4538 113.147 88.4214 113.147 88.321C113.147 88.2708 113.18 88.2206 113.281 88.2206C113.432 88.2206 113.631 88.1882 113.783 88.1557C114.115 88.0878 114.199 87.7247 114.267 87.2435C114.35 86.5467 114.35 85.236 114.35 83.6448V80.7251C114.35 78.1389 114.35 77.6755 114.317 77.1441C114.285 76.5802 114.118 76.2997 113.75 76.2141C113.566 76.1639 113.352 76.1462 113.233 76.1462C113.168 76.1462 113.1 76.1138 113.1 76.0459C113.1 75.9455 113.183 75.913 113.367 75.913C113.916 75.913 114.968 75.9632 115.051 75.9632C115.134 75.9632 116.185 75.913 116.684 75.913C116.869 75.913 116.952 75.9455 116.952 76.0459C116.952 76.1138 116.886 76.1462 116.818 76.1462C116.702 76.1462 116.601 76.1639 116.402 76.1964C115.951 76.2791 115.82 76.5625 115.785 77.1411C115.752 77.6725 115.752 78.136 115.752 80.7221V83.6448Z" fill="white"/>
<path d="M122.14 86.1984C122.173 87.5593 122.339 87.9904 122.791 88.1203C123.109 88.2029 123.474 88.2206 123.626 88.2206C123.709 88.2206 123.759 88.2531 123.759 88.321C123.759 88.4214 123.658 88.4538 123.459 88.4538C122.509 88.4538 121.841 88.4037 121.692 88.4037C121.544 88.4037 120.843 88.4538 120.091 88.4538C119.925 88.4538 119.824 88.4361 119.824 88.321C119.824 88.2561 119.874 88.2206 119.957 88.2206C120.091 88.2206 120.391 88.2029 120.641 88.1203C121.056 88.0051 121.143 87.5239 121.143 86.0154L121.157 76.5153C121.157 75.8687 121.208 75.6857 121.342 75.6857C121.475 75.6857 121.757 76.0518 121.927 76.2171C122.176 76.5005 124.662 79.1693 127.231 81.9059C128.883 83.6625 130.7 85.6877 131.235 86.2338L131.051 77.8113C131.036 76.7337 130.917 76.3676 130.4 76.2348C130.1 76.1698 129.717 76.1521 129.583 76.1521C129.468 76.1521 129.45 76.1019 129.45 76.037C129.45 75.9366 129.583 75.9219 129.782 75.9219C130.534 75.9219 131.333 75.9721 131.517 75.9721C131.701 75.9721 132.251 75.9219 132.934 75.9219C133.118 75.9219 133.234 75.9396 133.234 76.037C133.234 76.1019 133.168 76.1521 133.05 76.1521C132.966 76.1521 132.848 76.1521 132.649 76.2023C132.099 76.3175 132.031 76.6835 132.031 77.6784L131.998 87.397C131.998 88.4922 131.963 88.5749 131.847 88.5749C131.713 88.5749 131.514 88.3919 130.629 87.5151C130.445 87.3497 128.042 84.9112 126.275 83.0218C124.338 80.9494 122.455 78.8593 121.921 78.2629L122.138 86.2043L122.14 86.1984Z" fill="white"/>
<path d="M60.5649 69.9998C60.5649 71.1128 60.0926 71.9719 59.1481 72.5741C58.3314 73.1084 57.3334 73.3741 56.1573 73.3741C54.6514 73.3741 53.4723 73.014 52.6229 72.2966C51.7259 71.532 51.2745 70.4072 51.2745 68.9223H51.6249C51.6249 71.6589 53.1367 73.0287 56.1573 73.0287C57.2295 73.0287 58.1472 72.7955 58.9046 72.332C59.7808 71.777 60.2174 70.9917 60.2174 69.985C60.2174 68.6979 59.4748 67.8004 57.9957 67.2897C56.6206 66.9413 55.2425 66.5989 53.8673 66.2623C52.3853 65.7398 51.6457 64.8128 51.6457 63.4784C51.6457 62.3537 52.0942 61.5064 52.9941 60.9396C53.7396 60.4761 54.7138 60.2429 55.9167 60.2429C58.7501 60.2429 60.2233 61.5123 60.3273 64.0512H59.9768C59.9085 61.7426 58.5541 60.5883 55.9167 60.5883C54.8326 60.5883 53.9446 60.7979 53.2555 61.2141C52.415 61.713 51.9962 62.4659 51.9962 63.4755C51.9962 64.6829 52.7357 65.5214 54.2178 65.9967C55.593 66.345 56.9711 66.6934 58.3462 67.0388C59.8283 67.5967 60.5678 68.5828 60.5678 69.9969L60.5649 69.9998Z" fill="white"/>
<path d="M77.9784 60.8835H73.4817V73.0789H73.1313V60.8835H68.6346V60.5351H77.9784V60.8835Z" fill="white"/>
<path d="M97.5779 66.7967C97.5779 68.6418 97.0938 70.171 96.1256 71.3903C95.0653 72.7129 93.6277 73.3741 91.8219 73.3741C90.0161 73.3741 88.5786 72.7129 87.5153 71.3903C86.5471 70.174 86.063 68.6418 86.063 66.7967C86.063 64.9516 86.5471 63.4224 87.5153 62.2031C88.5757 60.8923 90.0132 60.237 91.8219 60.237C93.6307 60.237 95.0653 60.8923 96.1256 62.2031C97.0938 63.4194 97.5779 64.9516 97.5779 66.7967ZM97.2275 66.7967C97.2275 65.0461 96.779 63.5965 95.8791 62.4481C94.8871 61.2082 93.5357 60.5853 91.819 60.5853C90.1023 60.5853 88.7509 61.2053 87.7589 62.4481C86.8589 63.5965 86.4105 65.0461 86.4105 66.7967C86.4105 68.5473 86.8589 69.9969 87.7589 71.1452C88.7509 72.397 90.1052 73.0228 91.819 73.0228C93.5327 73.0228 94.8871 72.397 95.8791 71.1452C96.776 69.9969 97.2275 68.5473 97.2275 66.7967Z" fill="white"/>
<path d="M115.764 73.0789H115.238L106.699 60.9721H106.663V73.0789H106.313V60.5351H106.839L115.378 72.642H115.413V60.5351H115.764V73.0789Z" fill="white"/>
<path d="M124.707 73.0789V60.5351H133.002V60.8835H125.057V66.3627H132.53V66.7111H125.057V72.7306H133.073V73.0789H124.707Z" fill="white"/>
<path d="M134 74.4989H50.8171V74.6642H134V74.4989Z" fill="white"/>
<path d="M36.9735 76.0429L34.9569 74.7203L30.2998 74.9329L36.9735 76.0429Z" fill="white"/>
<path d="M35.6726 74.6879L37.9952 76.2141L45.0135 77.6223L46.9946 74.1683L35.6726 74.6879Z" fill="white"/>
<path d="M17.8581 62.9884L22.1172 65.7841L20.2639 62.3005L17.8581 62.9884Z" fill="white"/>
<path d="M29.4266 78.5316L26.3466 75.1159L17.4364 75.2842L29.4266 78.5316Z" fill="white"/>
<path d="M30.8255 79.3552L31.0304 79.6918L38.8536 88.3712L42.2306 82.4846L30.8255 79.3552Z" fill="white"/>
<path d="M26.112 74.2391L27.3683 74.4458L22.6221 66.6196L17.3235 63.1389L16.3523 63.4135L26.112 74.2391Z" fill="white"/>
<path d="M25.4586 74.1299L15.9098 63.5375L15.7137 63.5936L14.6415 72.4235L25.4586 74.1299Z" fill="white"/>
<path d="M26.8812 75.0923L29.5691 78.074L27.7366 75.0539L26.8812 75.0923Z" fill="white"/>
<path d="M38.8744 76.7898L43.5107 80.2173L44.9155 77.7965L38.8744 76.7898Z" fill="white"/>
<path d="M27.9 74.5343L28.292 74.5993L34.351 74.3218L23.4181 67.1421L27.9 74.5343Z" fill="white"/>
<path d="M36.2281 89L30.7512 79.9575L29.9939 79.1161L16.9879 75.5469L14.2198 75.6739L14 77.4127L21.6717 88.4509L38.4051 88.445L32.2125 81.5753" fill="white"/>
<path d="M22.9102 66.3066L35.0638 74.2893L46.4392 73.2738L32.0195 59L20.454 62.2592L22.9102 66.3066Z" fill="white"/>
<path d="M37.8497 76.6215L28.2682 75.0274L28.2029 75.0303L30.5047 78.8268L42.4474 82.1037L43.4721 80.3118L37.8497 76.6215Z" fill="white"/>
<path d="M16.9879 75.1189L25.9783 74.7085L25.9159 74.6347L14.5524 72.7453L14.3445 74.3926L16.9879 75.1189Z" fill="white"/>
<path d="M15.6157 75.1838L14.2881 74.8178L14.2346 75.2458L15.6157 75.1838Z" fill="white"/>
</svg>
