<svg width="148" height="148" viewBox="0 0 148 148" fill="none" xmlns="http://www.w3.org/2000/svg">
<path d="M64.8261 79.7006C64.5235 80.2239 64.031 80.4513 63.4342 80.459C62.1705 80.4752 60.9028 80.4389 59.6371 80.439C57.675 80.4293 55.7106 80.4919 53.7496 80.4412C52.9832 80.4214 52.449 80.0073 52.4022 79.2156C52.34 78.1614 52.4157 77.0988 52.4081 76.0417C52.4033 75.3731 52.3544 74.6995 52.3921 74.0346C52.4254 73.5565 52.6342 73.2216 53.0054 72.9284C54.2972 72.631 57.2338 72.8511 58.6898 72.7896C59.3333 72.7625 63.5821 72.7558 63.8138 72.8406C63.9556 72.9151 64.1603 73.0127 64.2765 73.1126C64.6973 73.4088 64.7128 73.5758 64.842 74.063C64.8593 74.2306 64.8853 74.4279 64.895 74.5931L64.8848 75.8469C64.8766 76.4057 64.828 77.9257 64.9522 78.3869L64.9727 78.4972C64.944 78.8888 64.9269 79.3243 64.8261 79.7006ZM56.5712 75.7292L56.487 75.6913L56.4579 75.6283C56.134 75.9569 56.2939 76.3055 56.295 76.7551C56.2959 77.0998 56.1972 77.734 56.4319 77.9709C56.9848 78.0844 59.9377 78.0839 60.4962 77.9984L60.6602 77.8856L60.7145 77.8602L60.6773 77.6457L60.6755 75.5782C59.4701 75.5704 58.2494 75.5585 57.043 75.5724C56.7868 75.5754 56.7131 75.5721 56.5712 75.7292Z" fill="white"/>
<path d="M64.8261 79.7006C64.5235 80.2239 64.031 80.4513 63.4342 80.459C62.1705 80.4752 60.9028 80.4389 59.6371 80.439C57.675 80.4293 55.7106 80.4919 53.7496 80.4412C52.9832 80.4214 52.449 80.0073 52.4022 79.2156C52.34 78.1614 52.4157 77.0988 52.4081 76.0417C52.4033 75.3731 52.3544 74.6995 52.3921 74.0346C52.4254 73.5565 52.6342 73.2216 53.0054 72.9284C54.2972 72.631 57.2338 72.8511 58.6898 72.7896C59.3333 72.7625 63.5821 72.7558 63.8138 72.8406C63.5956 72.884 61.9115 72.8571 61.6008 72.8596C59.6616 72.8757 57.6901 72.8158 55.7533 72.8697C55.2857 72.859 53.7621 72.8049 53.3492 72.9312L53.1913 72.9776C53.1671 73.0481 53.1332 73.1177 53.1439 73.1886C53.0061 73.4349 52.9338 73.5379 52.7647 73.759C52.7096 75.3072 52.7534 76.8628 52.736 78.4086C52.7188 79.9372 52.9484 80.1026 54.4598 80.1062L60.2284 80.0981C61.3001 80.0971 62.3828 80.1046 63.4537 80.0883C63.9301 80.081 64.0868 79.9282 64.471 79.6907C64.4746 79.6886 64.6283 79.7336 64.6644 79.7319L64.8261 79.7006Z" fill="white"/>
<path d="M64.842 74.063C64.8593 74.2306 64.8853 74.4279 64.895 74.5931L64.8848 75.8469C64.8766 76.4057 64.828 77.9257 64.9522 78.3869L64.9727 78.4972C64.944 78.8888 64.9269 79.3243 64.8261 79.7006L64.6644 79.7319C64.464 79.4514 64.6173 78.7893 64.6875 78.476C64.877 77.6289 64.8198 76.7865 64.7428 75.9301L64.7155 76.0034C64.6473 75.5367 64.5561 75.0661 64.7182 74.6122L64.7651 74.6396L64.7821 74.5567L64.842 74.063Z" fill="white"/>
<path d="M53.3492 72.9312C53.7621 72.8049 55.2857 72.859 55.7533 72.8697C56.1153 72.9093 56.4778 72.9432 56.8408 72.9714C56.2417 73.0664 53.9787 73.2778 53.4919 73.0807L53.3492 72.9312Z" fill="white"/>
<path d="M64.4819 73.4035C64.3907 73.3166 64.2994 73.2247 64.2093 73.1362L64.2765 73.1126C64.6973 73.4088 64.7128 73.5758 64.842 74.063L64.7821 74.5567L64.6575 74.5177C64.4892 74.2918 64.4986 73.7085 64.4819 73.4035Z" fill="white"/>
<path d="M56.4579 75.6283L56.2939 75.461C56.3147 75.2972 56.2828 75.3583 56.4336 75.2376C57.0081 75.1343 60.4033 75.1205 60.9383 75.3202C61.0911 75.5886 61.108 77.6695 60.9234 77.9178C60.7747 77.9153 60.8264 77.9342 60.7145 77.8602L60.6773 77.6457L60.6755 75.5782C59.4701 75.5704 58.2494 75.5585 57.043 75.5724C56.7868 75.5754 56.7131 75.5721 56.5712 75.7292L56.487 75.6913L56.4579 75.6283Z" fill="white"/>
<path d="M56.487 75.6913L56.5712 75.7292C56.6105 76.3685 56.598 77.0191 56.595 77.6602C57.7936 77.6737 59.5051 77.7268 60.6773 77.6457L60.7145 77.8602L60.6602 77.8856L60.3697 77.7913C60.0774 77.6789 57.1389 77.7569 56.6513 77.7706C56.3923 77.4204 56.5177 76.2727 56.487 75.6913Z" fill="white"/>
<path d="M60.3697 77.7913C60.0774 77.6789 57.1389 77.7569 56.6513 77.7706C57.1197 77.8526 59.8444 77.8518 60.3697 77.7913Z" fill="white"/>
<path d="M65.2818 73.277C65.2765 73.1627 65.3 72.9848 65.312 72.8647L65.4155 72.8001C66.307 72.784 74.2901 72.7408 74.556 72.8568C74.8395 72.9194 75.3565 73.0082 75.5684 73.1736C76.1458 73.4134 76.4088 73.6676 76.8684 74.093C77.3468 74.4176 77.7291 75.4537 77.8182 75.9943C78.1606 78.0643 76.7554 80.0913 74.6374 80.3737C73.5037 80.5247 72.1448 80.4544 70.9788 80.4512C69.0888 80.446 67.1895 80.4665 65.2999 80.445C65.2959 79.9 65.3002 79.3376 65.2665 78.7948C65.1638 78.5596 65.2221 78.6353 64.9727 78.4972L64.9522 78.3869C64.828 77.9257 64.8766 76.4057 64.8848 75.8469C65.2327 75.4279 65.3353 74.9725 64.895 74.5931C64.8853 74.4279 64.8593 74.2306 64.842 74.063C64.7128 73.5758 64.6973 73.4088 64.2765 73.1126C64.1603 73.0127 63.9556 72.9151 63.8138 72.8406C64.5563 72.9385 64.4624 73.2223 64.8783 73.4672L65.2098 73.4771L65.2818 73.277ZM69.517 75.5985L69.383 75.607L69.154 75.3122C69.1498 76.1744 69.1235 77.1549 69.1721 78.0068C69.7581 78.0104 72.5559 78.0858 72.8765 77.9078L72.906 77.8105L72.8232 77.7503L72.8246 77.6839L72.7615 77.6259C72.8695 77.5877 73.2133 77.4274 73.2666 77.342C74.6837 75.0666 70.7424 75.5846 69.517 75.5985Z" fill="white"/>
<path d="M65.2818 73.277C65.2765 73.1627 65.3 72.9848 65.312 72.8647L65.4155 72.8001C66.307 72.784 74.2901 72.7408 74.556 72.8568C73.6104 72.868 65.8218 72.7925 65.5787 72.9434C65.6702 74.001 65.6283 74.8021 65.6264 75.8496L65.6244 80.0937C68.0757 80.0988 70.5025 80.0967 72.9783 80.1031C73.6167 80.1047 75.3313 80.0165 76.0321 79.5162C76.1198 79.4534 75.9998 79.7111 76.3464 79.5325C77.257 77.8415 78.1031 76.8894 77.0599 74.923C76.9631 74.7396 76.761 74.4789 76.78 74.292C76.8754 74.2211 76.8452 74.2501 76.8684 74.093C77.3468 74.4176 77.7291 75.4537 77.8182 75.9943C78.1606 78.0643 76.7554 80.0913 74.6374 80.3737C73.5037 80.5247 72.1448 80.4544 70.9788 80.4512C69.0888 80.446 67.1895 80.4665 65.2999 80.445C65.2959 79.9 65.3002 79.3376 65.2665 78.7948C65.1638 78.5596 65.2221 78.6353 64.9727 78.4972L64.9522 78.3869C64.828 77.9257 64.8766 76.4057 64.8848 75.8469C65.2327 75.4279 65.3353 74.9725 64.895 74.5931C64.8853 74.4279 64.8593 74.2306 64.842 74.063C64.7128 73.5758 64.6973 73.4088 64.2765 73.1126C64.1603 73.0127 63.9556 72.9151 63.8138 72.8406C64.5563 72.9385 64.4624 73.2223 64.8783 73.4672L65.2098 73.4771L65.2818 73.277Z" fill="white"/>
<path d="M63.8138 72.8406C64.5563 72.9385 64.4624 73.2223 64.8783 73.4672L65.2098 73.4771L65.2818 73.277C65.3241 73.9322 65.3947 78.3641 65.2665 78.7948C65.1638 78.5596 65.2221 78.6353 64.9727 78.4972L64.9522 78.3869C64.828 77.9257 64.8766 76.4057 64.8848 75.8469C65.2327 75.4279 65.3353 74.9725 64.895 74.5931C64.8853 74.4279 64.8593 74.2306 64.842 74.063C64.7128 73.5758 64.6973 73.4088 64.2765 73.1126C64.1603 73.0127 63.9556 72.9151 63.8138 72.8406Z" fill="white"/>
<path d="M64.9522 78.3869C64.9761 77.3742 64.7774 76.3988 65.2136 75.5591C65.2311 76.0234 65.3558 78.1216 65.1345 78.3594L64.9522 78.3869Z" fill="white"/>
<path d="M64.8783 73.4672L65.2098 73.4771C65.2548 73.7173 65.2953 74.2741 65.1978 74.4992L65.1005 74.5332C64.8878 74.3331 64.8267 73.7419 64.8783 73.4672Z" fill="white"/>
<path d="M75.5684 73.1736C76.1458 73.4134 76.4088 73.6676 76.8684 74.093C76.8452 74.2501 76.8754 74.2211 76.78 74.292C76.4474 73.7865 75.8041 74.0267 75.5684 73.1736Z" fill="white"/>
<path d="M69.154 75.3122C69.3573 75.1527 70.7635 75.2367 71.1297 75.2363C71.8537 75.2357 73.101 75.0317 73.5795 75.7098C74.0769 76.4142 74.0629 77.6073 73.0659 77.829C72.9341 77.6914 72.9874 77.7065 72.8246 77.6839L72.7615 77.6259C72.8695 77.5877 73.2133 77.4274 73.2666 77.342C74.6837 75.0666 70.7424 75.5846 69.517 75.5985L69.383 75.607L69.154 75.3122Z" fill="white"/>
<path d="M69.383 75.607L69.517 75.5985L69.513 77.6478C70.0928 77.7539 72.3441 77.582 72.6331 77.7353C71.7407 77.8006 70.2997 77.7501 69.3763 77.7436L69.383 75.607Z" fill="white"/>
<path d="M69.513 77.6478C70.0233 77.5879 72.2465 77.5805 72.7615 77.6259L72.8246 77.6839L72.8232 77.7503L72.6331 77.7353C72.3441 77.582 70.0928 77.7539 69.513 77.6478Z" fill="white"/>
<path d="M39.4001 72.8458C39.528 72.8031 39.7398 72.7789 39.8666 72.7911C41.2285 72.922 49.5416 72.5349 50.2164 72.9931L50.8858 73.3548C51.2786 73.5555 51.7262 74.1348 51.863 74.5556C52.0821 75.2534 52.015 76.0091 51.6763 76.6579C51.2832 77.4025 50.7231 77.8048 49.9497 78.0932C50.7067 78.8342 51.5715 79.6453 52.2987 80.4019L47.806 80.402L45.5619 78.2416C45.2176 78.2397 43.965 78.2118 43.7104 78.2896L43.6322 78.2982L43.3621 77.9608C43.3595 78.6433 43.3382 79.4402 43.393 80.1104L43.6169 80.1951L43.7093 80.2167C43.7359 80.2907 43.7227 80.3153 43.7046 80.391C43.4344 80.5084 39.9941 80.4561 39.4068 80.4544C39.3937 78.4934 39.4944 75.3297 39.3492 73.5016L39.1853 73.6746C38.9483 73.4574 39.0151 73.5298 38.9495 73.1731L38.7667 72.9381L38.9141 72.8626L39.4001 72.8458ZM43.5502 75.1367L43.2683 74.8617C43.2526 75.3305 43.2389 75.7739 43.2444 76.2441C43.9477 76.2463 48.2406 76.3282 48.6334 76.1856L48.6139 76.0455L48.4808 75.9745L48.7045 75.8727L48.9002 75.7619C49.0377 75.541 49.0157 75.6326 49.0179 75.3812C48.5877 74.7917 44.8618 75.1732 44.0212 75.0798C43.8912 75.0655 43.6785 75.0925 43.5502 75.1367Z" fill="white"/>
<path d="M50.8858 73.3548C51.2786 73.5555 51.7262 74.1348 51.863 74.5556C52.0821 75.2534 52.015 76.0091 51.6763 76.6579C51.2832 77.4025 50.7231 77.8048 49.9497 78.0932C50.7067 78.8342 51.5715 79.6453 52.2987 80.4019L47.806 80.402L45.5619 78.2416C45.2176 78.2397 43.965 78.2118 43.7104 78.2896L43.6322 78.2982L43.3621 77.9608C43.6339 77.8633 45.3327 77.8995 45.7349 77.9016L47.9105 80.0132C49.0719 80.0178 50.2334 80.0151 51.3948 80.0052C50.6609 79.2726 49.92 78.5469 49.1724 77.8282C49.6086 77.7159 50.7072 77.6552 50.9175 77.4218C51.4479 76.8336 51.7198 75.6387 51.5578 74.8583C51.5036 74.597 51.1871 74.197 51.2178 73.966L51.2935 73.9129C51.284 73.7503 51.0353 73.5461 50.8858 73.3548Z" fill="white"/>
<path d="M39.4001 72.8458C39.528 72.8031 39.7398 72.7789 39.8666 72.7911C41.2285 72.922 49.5416 72.5349 50.2164 72.9931C49.8469 72.941 49.475 72.8973 49.1019 72.8849C48.2953 72.8584 39.9201 72.7689 39.704 72.9395C39.698 72.9442 39.6925 72.9497 39.6867 72.9548L39.7732 73.0732L39.776 80.0957C40.8816 80.0946 42.3043 80.0549 43.393 80.1104L43.6169 80.1951L43.7093 80.2167C43.7359 80.2907 43.7227 80.3153 43.7046 80.391C43.4344 80.5084 39.9941 80.4561 39.4068 80.4544C39.3937 78.4934 39.4944 75.3297 39.3492 73.5016L39.1853 73.6746C38.9483 73.4574 39.0151 73.5298 38.9495 73.1731L38.7667 72.9381L38.9141 72.8626L39.4001 72.8458Z" fill="white"/>
<path d="M38.9141 72.8626L39.4001 72.8458C39.4038 73.0404 39.4337 73.3392 39.3492 73.5016L39.1853 73.6746C38.9483 73.4574 39.0151 73.5298 38.9495 73.1731L38.7667 72.9381L38.9141 72.8626Z" fill="white"/>
<path d="M39.7732 73.0732L39.6867 72.9548C39.6925 72.9497 39.698 72.9442 39.704 72.9395C39.9201 72.7689 48.2953 72.8584 49.1019 72.8849C49.475 72.8973 49.8469 72.941 50.2164 72.9931L50.8858 73.3548C51.0353 73.5461 51.284 73.7503 51.2935 73.9129L51.2178 73.966C51.0255 73.9118 50.5445 73.53 50.311 73.3839C49.7752 73.0489 48.9629 73.2142 48.4647 73.1407C47.2153 72.9561 40.5851 73.4263 39.7732 73.0732Z" fill="white"/>
<path d="M43.2683 74.8617L43.3487 74.7598C44.9556 74.6687 46.6399 74.7849 48.2531 74.7312C49.0859 74.7035 49.6386 75.146 49.2105 75.9879C48.8285 76.2229 48.8199 75.9978 48.6139 76.0455L48.4808 75.9745L48.7045 75.8727L48.9002 75.7619C49.0377 75.541 49.0157 75.6326 49.0179 75.3812C48.5877 74.7917 44.8618 75.1732 44.0212 75.0798C43.8912 75.0655 43.6785 75.0925 43.5502 75.1367L43.2683 74.8617Z" fill="white"/>
<path d="M43.2683 74.8617L43.5502 75.1367C43.5598 75.3503 43.5462 75.6553 43.6561 75.8257C44.757 76.0241 47.4459 75.8467 48.7045 75.8727L48.4808 75.9745L48.6139 76.0455L48.6334 76.1856C48.2406 76.3282 43.9477 76.2463 43.2444 76.2441C43.2389 75.7739 43.2526 75.3305 43.2683 74.8617Z" fill="white"/>
<path d="M82.9466 72.7922L95.4468 72.7942C95.3822 73.4944 95.4159 74.5856 95.4194 75.3145C92.623 75.3238 89.8239 75.3095 87.0282 75.3312C87.0282 75.3312 86.9384 75.4042 86.93 75.4114L86.9222 75.6686L86.8865 75.7705C86.8409 75.4773 86.8296 75.3471 86.6956 75.0755C86.5631 75.4168 86.5848 75.6548 86.5869 76.0201L90.8201 76.0074C90.8271 76.2988 90.8257 76.9092 90.8755 77.1693L90.9842 77.2212C91.0824 77.0997 91.0642 76.3573 91.0747 76.1317L91.1449 76.144C91.1372 76.6137 91.1343 76.9915 91.1659 77.4638C90.1241 77.4618 88.0111 77.3932 87.038 77.4729C86.937 77.6248 86.9693 77.615 86.9594 77.8247L86.8907 77.9181C86.8654 77.6266 86.8745 77.3964 86.6956 77.165C86.6087 77.4936 86.6332 77.873 86.6402 78.2157C89.1483 78.0866 91.7594 78.2831 94.2752 78.1759C94.5916 78.1624 94.9241 78.1345 95.1781 78.3311C95.2076 78.5154 95.1935 78.6683 95.3121 78.7657L95.3584 78.6819C95.4692 78.8791 95.4299 79.2714 95.4257 79.5164C95.4377 79.7376 95.4503 80.1585 95.4861 80.362L95.4047 80.4439C94.8484 80.4546 94.2808 80.4517 93.7245 80.4459C90.1318 80.4076 86.5308 80.4815 82.9388 80.4402C82.9262 77.8909 82.9283 75.3416 82.9466 72.7922ZM94.2541 73.0307C94.238 73.0138 94.2296 73.0039 94.2113 72.9878C94.0486 72.8464 90.2609 72.8494 89.7572 72.8899C89.612 72.9984 89.558 73.0579 89.3777 73.0524L89.3166 73.139C89.9578 73.143 94.0682 73.2147 94.252 73.0551L94.2541 73.0307ZM88.7021 72.9254C87.4968 72.9061 86.2916 72.8987 85.0856 72.903C84.5868 72.9028 83.5822 72.8777 83.1255 72.9377L83.1121 72.9988L83.2258 73.1332C84.0424 73.0657 88.4685 73.1128 88.7021 72.9254ZM95.1079 74.9952L95.2651 75.1058C95.4285 74.8785 95.3247 73.3256 95.3065 72.9641C94.9837 73.4529 95.1269 74.3733 95.1079 74.9952Z" fill="white"/>
<path d="M89.7572 72.8899C90.2609 72.8494 94.0486 72.8464 94.2113 72.9878C94.2296 73.0039 94.238 73.0138 94.2541 73.0307L94.252 73.0551C94.0682 73.2147 89.9578 73.143 89.3166 73.139L89.3777 73.0524C89.558 73.0579 89.612 72.9984 89.7572 72.8899Z" fill="white"/>
<path d="M83.2258 73.1332L83.1121 72.9988L83.1255 72.9377C83.5822 72.8777 84.5868 72.9028 85.0856 72.903C86.2916 72.8987 87.4968 72.9061 88.7021 72.9254C88.4685 73.1128 84.0424 73.0657 83.2258 73.1332Z" fill="white"/>
<path d="M82.9466 72.7922L95.4468 72.7942C95.3822 73.4944 95.4159 74.5856 95.4194 75.3145C92.623 75.3238 89.8239 75.3095 87.0282 75.3312C87.0282 75.3312 86.9384 75.4042 86.93 75.4114L86.9222 75.6686L86.8865 75.7705C86.8409 75.4773 86.8296 75.3471 86.6956 75.0755L86.6795 75.0391L86.7293 74.9718C89.2465 74.9965 92.6904 74.8464 95.1079 74.9952L95.2651 75.1058C95.4285 74.8785 95.3247 73.3256 95.3065 72.9641C94.9999 73.0344 94.5776 73.0257 94.2541 73.0307C94.238 73.0138 94.2296 73.0039 94.2113 72.9878C94.0486 72.8464 90.2609 72.8494 89.7572 72.8899C89.5306 72.8861 88.8718 72.8502 88.7021 72.9254C87.4968 72.9061 86.2916 72.8987 85.0856 72.903C84.5868 72.9028 83.5822 72.8777 83.1255 72.9377L83.1121 72.9988L83.2258 73.1332C83.3324 73.509 83.2833 74.8908 83.2889 75.373C83.3072 76.9341 83.2524 78.5341 83.2805 80.0946L95.183 80.0976C95.2033 79.8452 95.2096 79.5438 95.298 79.3112L95.3731 79.6687L95.4257 79.5164C95.4377 79.7376 95.4503 80.1585 95.4861 80.362L95.4047 80.4439C94.8484 80.4546 94.2808 80.4517 93.7245 80.4459C90.1318 80.4076 86.5308 80.4815 82.9388 80.4402C82.9262 77.8909 82.9283 75.3416 82.9466 72.7922Z" fill="white"/>
<path d="M91.0747 76.1317L91.1449 76.144C91.1372 76.6137 91.1343 76.9915 91.1659 77.4638C90.1241 77.4618 88.0111 77.3932 87.038 77.4729C86.937 77.6248 86.9693 77.615 86.9594 77.8247L86.8907 77.9181C86.8654 77.6266 86.8745 77.3964 86.6956 77.165C86.9005 77.0433 90.5135 77.0916 90.8755 77.1693L90.9842 77.2212C91.0824 77.0997 91.0642 76.3573 91.0747 76.1317Z" fill="white"/>
<path d="M105.522 77.724C105.43 77.2501 104.206 77.4024 103.785 77.4057C102.603 77.4091 101.419 77.4187 100.236 77.4346C98.8731 77.4647 97.3606 77.7778 96.3455 76.5786C95.2784 75.3184 96.0368 73.1293 97.6777 72.8781C98.7455 72.7147 100.211 72.7936 101.344 72.7951L108.449 72.7925C108.435 73.6606 108.435 74.5288 108.449 75.3968C107.373 75.3939 99.1425 75.2781 98.8752 75.4734C98.8317 75.5054 98.8184 75.6827 98.8072 75.7421L98.777 75.8004L98.6276 75.5228L98.4768 75.6417C98.4761 75.7901 98.4747 75.8336 98.582 75.9384C98.857 76.2053 99.6911 76.1581 100.059 76.1587C101.429 76.1612 106.033 75.9417 106.933 76.3202C107.661 76.6269 108.07 77.241 108.096 78.0223C108.111 78.4832 107.639 79.299 107.755 79.557L107.968 79.3624L108.041 79.4042C107.183 80.8373 104.395 80.4542 102.889 80.4517L95.8382 80.4522L95.8319 79.2441C95.8789 79.0669 95.8502 78.9427 95.827 78.7604C95.8277 78.3649 95.8382 78.2045 95.9056 77.8155L96.0256 77.9587L96.2458 78.1859C97.2827 78.1993 105.277 78.2849 105.679 78.0573C105.848 77.83 105.819 77.9243 105.844 77.6587L105.703 77.5572L105.578 77.7554L105.522 77.724Z" fill="white"/>
<path d="M105.522 77.724C105.43 77.2501 104.206 77.4024 103.785 77.4057C102.603 77.4091 101.419 77.4187 100.236 77.4346C98.8731 77.4647 97.3606 77.7778 96.3455 76.5786C95.2784 75.3184 96.0368 73.1293 97.6777 72.8781C98.7455 72.7147 100.211 72.7936 101.344 72.7951L108.449 72.7925C108.435 73.6606 108.435 74.5288 108.449 75.3968C107.373 75.3939 99.1425 75.2781 98.8752 75.4734C98.8317 75.5054 98.8184 75.6827 98.8072 75.7421L98.777 75.8004L98.6276 75.5228L98.5343 75.3603C98.737 74.9007 99.5677 75.0207 100.033 75.0199C102.721 75.0152 105.41 75.0391 108.099 75.0239L108.094 73.1382L101.62 73.1376C100.523 73.1364 99.3846 73.1193 98.314 73.165C97.9955 73.1787 96.5868 73.5776 96.5159 73.7654C96.1476 74.7405 96.0101 76.1217 97.0175 76.7136C98.0537 77.3228 99.0205 77.1247 100.008 77.1181L103.794 77.0935C104.297 77.0893 105.46 76.9433 105.773 77.3339C105.772 77.4918 105.792 77.4334 105.703 77.5572L105.578 77.7554L105.522 77.724Z" fill="white"/>
<path d="M95.9056 77.8155L96.0256 77.9587L96.2458 78.1859C96.1504 78.4082 96.1946 79.7517 96.1981 80.1L102.525 80.1099C103.68 80.1112 104.836 80.1246 105.992 80.0946C106.418 80.0836 106.695 80.0293 107.07 79.8126C107.349 79.6514 107.433 79.4816 107.706 79.6207L107.755 79.557L107.968 79.3624L108.041 79.4042C107.183 80.8373 104.395 80.4542 102.889 80.4517L95.8382 80.4522L95.8319 79.2441C95.8789 79.0669 95.8502 78.9427 95.827 78.7604C95.8277 78.3649 95.8382 78.2045 95.9056 77.8155Z" fill="white"/>
<path d="M13.5841 80.4458C13.5853 79.5687 13.4788 73.2855 13.6162 72.852L13.8229 72.8046L13.8128 72.8681L13.7548 72.9391L13.9166 73.1457C17.7036 73.1468 21.9658 73.2353 25.7201 73.1346L25.7326 74.9591L25.9912 75.1933L26.0544 75.3264L20.1268 75.3281C19.7669 75.3279 17.8812 75.2996 17.6209 75.3517L17.5659 75.6475L17.5476 75.7612C17.5202 75.3759 17.4858 75.2906 17.2312 75.0209C17.2228 75.3744 17.2231 75.6636 17.2403 76.0166L21.4051 76.0066C21.4315 76.3757 21.4664 76.7449 21.4446 77.1143L21.6594 77.2529L21.7992 77.3283C21.6554 77.4875 21.5352 77.4642 21.3277 77.4753C20.8148 77.5028 17.8513 77.3186 17.6147 77.5634C17.5963 77.5824 17.5973 77.5839 17.5812 77.6084L17.53 77.609C17.515 77.4141 17.3812 77.2647 17.2654 77.1037C17.2524 77.4825 17.2428 77.833 17.2494 78.2119C18.7902 78.1597 20.4542 78.1882 22.0047 78.1857C23.1226 78.1838 24.5931 78.1467 25.6803 78.2194C25.8712 78.4994 25.7641 79.6617 25.7775 80.0933C25.8668 80.1774 25.8826 80.199 26.0015 80.2251L26.0337 79.9301L26.0985 80.4464L13.5841 80.4458Z" fill="white"/>
<path d="M13.5841 80.4458C13.5853 79.5687 13.4788 73.2855 13.6162 72.852L13.8229 72.8046L13.8128 72.8681L13.7548 72.9391L13.9166 73.1457C13.9151 75.4104 13.8654 77.8542 13.917 80.1034C17.8199 80.1011 21.8881 80.1568 25.7775 80.0933C25.8668 80.1774 25.8826 80.199 26.0015 80.2251L26.0337 79.9301L26.0985 80.4464L13.5841 80.4458Z" fill="white"/>
<path d="M17.2312 75.0209C17.4866 74.9147 24.8541 74.979 25.7326 74.9591L25.9912 75.1933L26.0544 75.3264L20.1268 75.3281C19.7669 75.3279 17.8812 75.2996 17.6209 75.3517L17.5659 75.6475L17.5476 75.7612C17.5202 75.3759 17.4858 75.2906 17.2312 75.0209Z" fill="white"/>
<path d="M17.2654 77.1037C18.4419 77.1699 20.2209 77.1134 21.4446 77.1143L21.6594 77.2529L21.7992 77.3283C21.6554 77.4875 21.5352 77.4642 21.3277 77.4753C20.8148 77.5028 17.8513 77.3186 17.6147 77.5634C17.5963 77.5824 17.5973 77.5839 17.5812 77.6084L17.53 77.609C17.515 77.4141 17.3812 77.2647 17.2654 77.1037Z" fill="white"/>
<path d="M108.995 80.4398C109.02 78.6441 108.977 76.8197 108.996 75.0229C109.001 74.5918 108.959 73.1897 109.006 72.8504L109.21 72.7966L109.21 72.8675L109.146 72.9427L109.346 73.1467L121.119 73.1466C121.138 73.7561 121.143 74.366 121.133 74.9757L121.372 75.1705L121.492 75.2972C118.766 75.4226 115.708 75.2016 113.042 75.3384C113.014 75.448 112.987 75.5306 112.98 75.6445L112.963 75.7571C112.927 75.3445 112.917 75.3107 112.638 75.0216C112.64 75.3492 112.635 75.6863 112.667 76.0117L116.841 76.0074C116.85 76.3639 116.87 76.7652 116.859 77.1178L117.094 77.262L117.226 77.4319C116.507 77.4961 113.319 77.3758 112.989 77.5305L112.927 77.5224C112.897 77.381 112.77 77.2348 112.68 77.1132C112.666 77.498 112.659 77.8277 112.668 78.2124C115.442 78.1042 118.377 78.2473 121.168 78.1771C121.166 78.7491 121.141 79.5256 121.175 80.0811L121.426 80.3162L121.514 80.469C121.02 80.3976 118.263 80.44 117.633 80.4401L108.995 80.4398Z" fill="white"/>
<path d="M108.995 80.4398C109.02 78.6441 108.977 76.8197 108.996 75.0229C109.001 74.5918 108.959 73.1897 109.006 72.8504L109.21 72.7966L109.21 72.8675L109.146 72.9427L109.346 73.1467L109.351 80.0974L116.883 80.1026C118.26 80.1032 119.814 80.1406 121.175 80.0811L121.426 80.3162L121.514 80.469C121.02 80.3976 118.263 80.44 117.633 80.4401L108.995 80.4398Z" fill="white"/>
<path d="M121.133 74.9757L121.372 75.1705L121.492 75.2972C118.766 75.4226 115.708 75.2016 113.042 75.3384C113.014 75.448 112.987 75.5306 112.98 75.6445L112.963 75.7571C112.927 75.3445 112.917 75.3107 112.638 75.0216C112.875 74.9142 120.265 74.9741 121.133 74.9757Z" fill="white"/>
<path d="M116.859 77.1178L117.094 77.262L117.226 77.4319C116.507 77.4961 113.319 77.3758 112.989 77.5305L112.927 77.5224C112.897 77.381 112.77 77.2348 112.68 77.1132L116.859 77.1178Z" fill="white"/>
<path d="M34.8007 72.7963C35.2538 72.7939 38.7119 72.7278 38.9141 72.8626L38.7667 72.9381L38.9495 73.1731L38.8222 73.4097L38.7097 73.488C38.6795 74.0004 38.6083 79.7272 38.6478 79.7877L38.6315 79.9792L38.6985 80.0371C37.9707 80.6468 36.6797 80.4519 35.7323 80.4524L31.8654 80.454C30.5138 80.454 28.903 80.4891 27.5489 80.4036C27.2911 80.3873 26.9132 80.1147 26.7714 79.8991C26.6616 79.7322 26.5325 79.2316 26.544 79.0474C26.6014 78.1215 26.4608 73.3862 26.5962 72.8521L26.7648 72.7981L26.776 72.8735L26.7668 72.9484L26.9408 73.1267C28.0268 73.1783 29.2717 73.1491 30.3731 73.1452C30.3702 73.8721 30.2921 77.3093 30.4804 77.7635C30.8175 77.9356 34.5548 77.9641 34.965 77.8177L34.8447 77.6817L34.7448 77.5969L34.7472 77.5469C34.894 77.0802 34.7902 73.5859 34.8007 72.7963Z" fill="white"/>
<path d="M38.6985 80.0371C37.9707 80.6468 36.6797 80.4519 35.7323 80.4524L31.8654 80.454C30.5138 80.454 28.903 80.4891 27.5489 80.4036C27.2911 80.3873 26.9132 80.1147 26.7714 79.8991C26.6616 79.7322 26.5325 79.2316 26.544 79.0474C26.6014 78.1215 26.4608 73.3862 26.5962 72.8521L26.7648 72.7981L26.776 72.8735L26.7668 72.9484L26.9408 73.1267C26.9068 73.7054 26.7998 79.5365 27.0943 79.7865C27.7553 80.347 31.1304 80.0209 32.1506 80.1046C33.7405 80.1105 35.4257 80.0995 37.0218 80.0939C37.4293 80.091 38.4317 79.9037 38.6315 79.9792L38.6985 80.0371Z" fill="white"/>
<path d="M34.8007 72.7963C35.2538 72.7939 38.7119 72.7278 38.9141 72.8626L38.7667 72.9381C38.4185 72.839 35.7435 72.8086 35.2158 72.9356C35.1835 72.9433 35.1657 73.0247 35.1492 73.0703C35.1703 73.6491 35.252 77.5218 35.0637 77.7788L34.965 77.8177L34.8447 77.6817L34.7448 77.5969L34.7472 77.5469C34.894 77.0802 34.7902 73.5859 34.8007 72.7963Z" fill="white"/>
<path d="M35.1492 73.0703C35.1657 73.0247 35.1835 72.9433 35.2158 72.9356C35.7435 72.8086 38.4185 72.839 38.7667 72.9381L38.9495 73.1731L38.8222 73.4097L38.7097 73.488C38.6767 73.3993 38.6437 73.3106 38.6106 73.2219C37.8549 72.9254 35.8027 73.374 35.1492 73.0703Z" fill="white"/>
<path d="M121.95 80.4573C121.91 78.8583 121.971 77.1815 121.941 75.5733C121.932 75.1397 121.911 73.1683 121.978 72.8453L122.191 72.7962L122.194 72.8685L122.202 72.94L122.295 73.1482C123.377 73.1453 124.503 73.158 125.58 73.136C125.678 74.3735 125.606 76.901 125.579 78.2143C128.361 78.0935 131.33 78.2727 134.123 78.1727C134.125 78.5444 134.092 79.906 134.212 80.1604C134.256 80.1687 134.321 80.1609 134.368 80.1581C134.447 79.8497 134.405 79.2154 134.396 78.872L134.48 78.8945L134.487 80.4538C130.357 80.4003 126.086 80.4426 121.95 80.4573Z" fill="white"/>
<path d="M121.95 80.4573C121.91 78.8583 121.971 77.1815 121.941 75.5733C121.932 75.1397 121.911 73.1683 121.978 72.8453L122.191 72.7962L122.194 72.8685L122.202 72.94L122.295 73.1482C122.292 75.4219 122.248 77.8409 122.296 80.1028L130.562 80.1009C131.191 80.1008 133.746 80.0604 134.212 80.1604C134.256 80.1687 134.321 80.1609 134.368 80.1581C134.447 79.8497 134.405 79.2154 134.396 78.872L134.48 78.8945L134.487 80.4538C130.357 80.4003 126.086 80.4426 121.95 80.4573Z" fill="white"/>
<path d="M78.1234 72.7932L82.4443 72.7926C82.386 75.3018 82.4436 77.9284 82.4204 80.452L78.148 80.4424C78.1389 77.9723 78.2104 75.2302 78.1234 72.7932ZM82.1026 72.9861C82.0437 75.2675 82.0549 77.7873 82.0907 80.0748L82.3418 80.2504C82.398 79.5594 82.3629 78.3784 82.3622 77.65L82.3552 72.8811C82.0444 72.9321 80.9913 72.9271 80.5837 72.9481C81.0896 73.0332 81.5905 73.0109 82.1026 72.9861Z" fill="white"/>
<path d="M78.491 80.0921L78.4903 75.8302C78.4896 75.0039 78.4581 73.9477 78.5338 73.1554C78.8215 72.9466 80.005 73.0388 80.5837 72.9481C81.0896 73.0332 81.5905 73.0109 82.1026 72.9861C82.0437 75.2675 82.0549 77.7873 82.0907 80.0748C80.9731 80.1301 79.6268 80.0966 78.491 80.0921Z" fill="white"/>
<path d="M31.7413 68.1011L16.7944 68.1038C14.3623 68.1029 11.9318 68.0694 9.49864 68.1213C7.32328 68.2169 7.67153 69.6107 7.55724 71.1236C7.49523 71.9444 7.71236 74.8428 7.5355 75.4138C7.33478 75.5276 7.35085 75.488 7.0844 75.4823C6.9262 75.2659 7.0301 70.1741 7.07788 69.4782C7.12811 68.7451 7.78083 67.8263 8.58003 67.6918C10.1023 67.4358 11.8063 67.5417 13.3708 67.5413L60.3172 67.5394C61.0403 67.5384 63.7346 67.4365 64.2135 67.6952C63.604 67.5772 62.3983 67.6181 61.7146 67.6214L57.9526 67.6417C57.3324 67.6996 54.6586 67.6351 54.4271 67.8528L54.4555 67.9378C54.8908 68.0812 55.5524 67.9931 55.958 68.0233C56.8663 68.0909 60.8342 67.9245 61.4879 68.1018C60.1859 68.1594 58.5154 68.1111 57.1902 68.1112L49.269 68.1075C45.3905 68.1801 41.2864 68.1091 37.3909 68.1004C35.7125 68.1737 33.4481 68.1206 31.7413 68.1011Z" fill="white"/>
<path d="M49.1622 67.6419C51.7635 67.6261 55.3931 67.5302 57.9526 67.6417C57.3324 67.6996 54.6586 67.6351 54.4271 67.8528L54.4555 67.9378C54.8908 68.0812 55.5524 67.9931 55.958 68.0233C56.8663 68.0909 60.8342 67.9245 61.4879 68.1018C60.1859 68.1594 58.5154 68.1111 57.1902 68.1112L49.269 68.1075C48.8748 67.7955 45.8183 68.1159 45.237 67.8896C45.4446 67.6107 48.7455 67.8975 49.1622 67.6419Z" fill="white"/>
<path d="M31.7413 68.1011C31.285 68.003 30.3327 68.0592 30.1341 67.9886L30.2286 67.9879C30.4967 67.986 31.1586 68.0137 31.322 67.8486C31.152 67.7024 31.0631 67.7045 30.8361 67.672C32.8145 67.6338 36.0486 67.5447 37.9422 67.6474C38.7724 67.8138 41.5674 67.6705 41.8638 67.9113C41.2157 68.0914 37.6985 67.8314 37.3909 68.1004C35.7125 68.1737 33.4481 68.1206 31.7413 68.1011Z" fill="white"/>
<path d="M37.9422 67.6474L45.2951 67.6305C46.3684 67.6283 48.1238 67.5723 49.1622 67.6419C48.7455 67.8975 45.4446 67.6107 45.237 67.8896C45.8183 68.1159 48.8748 67.7955 49.269 68.1075C45.3905 68.1801 41.2864 68.1091 37.3909 68.1004C37.6985 67.8314 41.2157 68.0914 41.8638 67.9113C41.5674 67.6705 38.7724 67.8138 37.9422 67.6474Z" fill="white"/>
<path d="M57.9526 67.6417L61.7146 67.6214C62.3983 67.6181 63.604 67.5772 64.2135 67.6952C65.2066 68.3091 65.829 69.7059 66.92 70.1014C67.6795 70.3768 80.3859 70.3519 81.0573 70.1004C82.2598 69.6496 82.7971 68.1729 84.0185 67.6091C85.3431 67.6514 86.7455 67.6378 88.0763 67.6462C89.7355 67.626 92.442 67.5551 94.0367 67.6459L95.578 67.7467C95.2595 67.7491 94.5614 67.7337 94.3061 67.8527L94.3397 67.9436C95.0567 67.9435 95.6706 67.9228 96.3904 67.9991C95.4706 68.0644 92.8335 67.9464 92.2056 68.1005C91.396 68.1608 89.6478 68.1064 88.7856 68.1121C87.922 68.1178 85.8552 68.165 85.0681 68.0617C84.2402 68.0611 83.9196 68.1335 83.2931 68.7598C82.2464 69.8049 81.7904 70.7565 80.1123 70.7524C77.3447 70.7456 74.589 70.7701 71.82 70.758C70.2794 70.7513 68.4916 70.8372 66.9672 70.6363C66.5495 70.5813 66.098 70.2381 65.803 69.9637C64.9099 69.1331 64.4893 68.0003 63.0978 68.0627C62.6353 68.0835 61.9372 68.1187 61.4879 68.1018C60.8342 67.9245 56.8663 68.0909 55.958 68.0233C55.5524 67.9931 54.8908 68.0812 54.4555 67.9378L54.4271 67.8528C54.6586 67.6351 57.3324 67.6996 57.9526 67.6417Z" fill="white"/>
<path d="M88.0763 67.6462C89.7355 67.626 92.442 67.5551 94.0367 67.6459L95.578 67.7467C95.2595 67.7491 94.5614 67.7337 94.3061 67.8527L94.3397 67.9436C95.0567 67.9435 95.6706 67.9228 96.3904 67.9991C95.4706 68.0644 92.8335 67.9464 92.2056 68.1005C91.396 68.1608 89.6478 68.1064 88.7856 68.1121C87.922 68.1178 85.8552 68.165 85.0681 68.0617C86.1814 67.9328 88.4313 68.0838 89.6765 68.0156C90.4132 67.9753 92.7542 67.8539 93.3239 67.9264C93.0327 67.7551 88.815 67.6925 88.0763 67.6462Z" fill="white"/>
<path d="M120.691 67.557C121.75 67.4909 123.172 67.5351 124.266 67.5379L130.653 67.5463L135.869 67.5407C136.433 67.5404 137.005 67.531 137.56 67.5407C138.492 67.557 139.508 67.488 140.265 68.131C140.797 68.5833 140.942 69.4015 140.971 70.0656C140.957 70.9391 141.071 74.9094 140.925 75.4627L140.843 75.5139C140.721 75.4847 140.58 75.4609 140.535 75.3374C140.001 73.8718 141.332 68.6546 139.316 68.2305C138.292 68.0151 135.051 68.1036 133.725 68.1054L125 68.1021C123.446 68.1022 121.736 68.1377 120.2 68.0989L120.686 67.9971C120.355 67.7767 117.455 68.2492 116.678 67.6843C116.856 67.5151 120.045 67.7781 120.691 67.557Z" fill="white"/>
<path d="M84.0185 67.6091C84.5384 67.4099 98.1049 67.5444 100.015 67.5445L113.267 67.5435C115.682 67.5421 118.29 67.4935 120.691 67.557C120.045 67.7781 116.856 67.5151 116.678 67.6843C117.455 68.2492 120.355 67.7767 120.686 67.9971L120.2 68.0989C117.355 68.164 114.159 68.1345 111.307 68.1047C110.232 68.1701 108.481 68.1147 107.363 68.1158C105.072 68.128 102.781 68.1248 100.49 68.1062C99.6799 68.1453 98.5869 68.1141 97.7598 68.1152C95.9084 68.12 94.057 68.1151 92.2056 68.1005C92.8335 67.9464 95.4706 68.0644 96.3904 67.9991C95.6706 67.9228 95.0567 67.9435 94.3397 67.9436L94.3061 67.8527C94.5614 67.7337 95.2595 67.7491 95.578 67.7467L94.0367 67.6459C92.442 67.5551 89.7355 67.626 88.0763 67.6462C86.7455 67.6378 85.3431 67.6514 84.0185 67.6091Z" fill="white"/>
<path d="M103.749 67.6475C106.848 67.4817 110.206 67.6911 113.317 67.7375C114.637 67.7572 115.74 67.4642 116.941 67.9803C114.941 67.9762 113.307 67.9583 111.307 68.1047C110.232 68.1701 108.481 68.1147 107.363 68.1158C105.072 68.128 102.781 68.1248 100.49 68.1062C101.163 68.0236 103.214 68.0309 103.969 68.0145C103.535 67.936 102.543 68.0512 102.353 67.8551C102.85 67.7082 103.451 67.8633 103.749 67.6475Z" fill="white"/>
<path d="M94.0367 67.6459C97.254 67.6057 100.558 67.7098 103.749 67.6475C103.451 67.8633 102.85 67.7082 102.353 67.8551C102.543 68.0512 103.535 67.936 103.969 68.0145C103.214 68.0309 101.163 68.0236 100.49 68.1062C99.6799 68.1453 98.5869 68.1141 97.7598 68.1152C95.9084 68.12 94.057 68.1151 92.2056 68.1005C92.8335 67.9464 95.4706 68.0644 96.3904 67.9991C95.6706 67.9228 95.0567 67.9435 94.3397 67.9436L94.3061 67.8527C94.5614 67.7337 95.2595 67.7491 95.578 67.7467L94.0367 67.6459Z" fill="white"/>
<path d="M86.9594 77.8247L95.5183 77.8165C95.5155 78.0748 95.4826 78.407 95.5983 78.6268L95.827 78.7604C95.8502 78.9427 95.8789 79.0669 95.8319 79.2441C95.3661 79.4755 95.5583 79.8632 95.4861 80.362C95.4503 80.1585 95.4377 79.7376 95.4257 79.5164C95.4299 79.2714 95.4692 78.8791 95.3584 78.6819C95.3773 78.4442 95.4131 78.2077 95.3486 77.9792C94.8035 77.9009 93.8606 77.9412 93.2713 77.9424L89.2563 77.9485C88.5912 77.95 87.5249 77.9826 86.8907 77.9181L86.9594 77.8247Z" fill="white"/>
<path d="M112.927 77.5224L112.989 77.5305L113.054 77.7893C113.559 77.8613 115.348 77.8236 115.933 77.8197C117.802 77.8073 119.697 77.8346 121.564 77.8119C121.57 78.2937 121.623 80.1221 121.514 80.469L121.426 80.3162L121.433 77.9398L116.077 77.9539C115.15 77.9552 113.905 77.9923 113 77.9298C112.887 77.7621 112.926 77.7633 112.927 77.5224Z" fill="white"/>
<path d="M125.847 73.353L125.909 73.3522C125.934 74.0567 125.865 77.4874 125.973 77.8188L134.503 77.8096C134.496 78.1507 134.5 78.5601 134.48 78.8945L134.396 78.872L134.39 77.9549C131.576 77.9099 128.662 77.9497 125.84 77.9519C125.901 76.5696 125.84 74.7839 125.847 73.353Z" fill="white"/>
<path d="M17.53 77.609L17.5812 77.6084L17.6524 77.7711C18.0295 77.8522 19.8418 77.8209 20.3094 77.8206L26.1385 77.8148C26.1311 78.2766 26.1606 80.1776 26.0985 80.4464L26.0337 79.9301C25.9827 79.3372 26.0103 78.5617 26.0172 77.9515C23.4912 77.9396 20.0243 78.0707 17.5905 77.9333C17.484 77.8132 17.5213 77.8219 17.53 77.609Z" fill="white"/>
<path d="M86.5869 76.0201C86.5848 75.6548 86.5631 75.4168 86.6956 75.0755C86.8296 75.3471 86.8409 75.4773 86.8865 75.7705C88.0763 75.8889 89.6906 75.7243 91.0067 75.8162L91.0747 76.1317C91.0642 76.3573 91.0824 77.0997 90.9842 77.2212L90.8755 77.1693C90.8257 76.9092 90.8271 76.2988 90.8201 76.0074L86.5869 76.0201Z" fill="white"/>
<path d="M95.9056 77.8155C97.0239 77.8126 105.098 77.9112 105.522 77.724L105.578 77.7554C105.441 77.887 105.416 77.9305 105.19 77.9389C104.239 77.9742 103.234 77.9599 102.283 77.9594L96.0256 77.9587L95.9056 77.8155Z" fill="white"/>
<path d="M109.21 72.7966L121.512 72.7839L121.492 75.2972L121.372 75.1705C121.373 74.4157 121.377 73.6608 121.386 72.906C121.039 72.8325 118.309 72.8587 117.796 72.859L109.21 72.8675L109.21 72.7966Z" fill="white"/>
<path d="M98.8072 75.7421L98.8261 75.7467C99.2913 75.8552 99.9823 75.7745 100.48 75.7954C102.515 75.881 104.736 75.5964 106.738 75.8838C108.228 76.0978 108.966 78.2521 108.041 79.4042L107.968 79.3624C108.793 78.112 108.307 76.6374 106.931 76.0424C105.788 75.5476 99.3747 76.1605 98.777 75.8004L98.8072 75.7421Z" fill="white"/>
<path d="M13.8229 72.8046C14.949 72.7864 25.9258 72.754 26.0723 72.8373C26.0844 72.9538 26.101 73.085 26.1087 73.2005L25.9862 72.928C25.5133 72.8236 22.8993 72.8618 22.2282 72.8622L13.8128 72.8681L13.8229 72.8046Z" fill="white"/>
<path d="M109.21 72.8675L117.796 72.859C118.309 72.8587 121.039 72.8325 121.386 72.906C120.813 72.9835 118.234 72.9349 117.544 72.9346L109.146 72.9427L109.21 72.8675Z" fill="white"/>
<path d="M13.8128 72.8681L22.2282 72.8622C22.8993 72.8618 25.5133 72.8236 25.9862 72.928C22.0125 73.0088 17.7505 72.9314 13.7548 72.9391L13.8128 72.8681Z" fill="white"/>
<path d="M17.5659 75.6475L21.8162 75.6562C21.8134 76.1096 21.8332 76.9013 21.7992 77.3283L21.6594 77.2529L21.6653 75.8028C20.8491 75.7847 18.1906 75.8672 17.5476 75.7612L17.5659 75.6475Z" fill="white"/>
<path d="M38.9495 73.1731C39.0151 73.5298 38.9483 73.4574 39.1853 73.6746C38.6105 74.2826 39.4133 78.9952 38.6985 80.0371L38.6315 79.9792L38.6478 79.7877C38.6644 79.7735 38.6812 79.7594 38.6974 79.7447C39.0719 79.4035 38.8549 76.344 38.8705 75.686C38.9973 75.2935 38.9359 74.3748 38.8661 73.966C38.8623 73.7901 38.8385 73.5872 38.8222 73.4097L38.9495 73.1731Z" fill="white"/>
<path d="M86.9222 75.6686C87.5536 75.6525 90.5436 75.6047 91.1021 75.6758C91.2059 75.816 91.1645 75.9662 91.1449 76.144L91.0747 76.1317L91.0067 75.8162C89.6906 75.7243 88.0763 75.8889 86.8865 75.7705L86.9222 75.6686Z" fill="white"/>
<path d="M112.98 75.6445C113.778 75.6656 116.608 75.5404 117.173 75.6754L117.076 75.7955C116.439 75.7974 113.418 75.8528 112.963 75.7571L112.98 75.6445Z" fill="white"/>
<path d="M30.7696 72.7941C30.8458 73.9829 30.8252 76.3053 30.799 77.5292L30.7237 77.5375L30.7156 72.9079L30.7696 72.7941Z" fill="white"/>
<path d="M30.654 72.9116L30.7156 72.9079L30.7237 77.5375L30.6734 77.6322C30.5941 77.1728 30.6496 73.6129 30.654 72.9116Z" fill="white"/>
<path d="M30.799 77.5292C32.0739 77.534 33.4843 77.5081 34.7472 77.5469L34.7448 77.5969C34.1333 77.6139 31.333 77.5372 30.9465 77.6573L30.6734 77.6322L30.7237 77.5375L30.799 77.5292Z" fill="white"/>
<path d="M125.935 72.7896C126.041 73.2858 126.041 77.1716 125.973 77.8188C125.865 77.4874 125.934 74.0567 125.909 73.3522C125.896 73.1888 125.922 72.9581 125.935 72.7896Z" fill="white"/>
<path d="M26.7648 72.7981L30.7696 72.7941L30.7156 72.9079L30.654 72.9116C30.2594 72.7982 27.3903 72.8717 26.776 72.8735L26.7648 72.7981Z" fill="white"/>
<path d="M25.9862 72.928L26.1087 73.2005C26.1038 73.6482 26.113 74.9111 26.0544 75.3264L25.9912 75.1933C25.9089 74.7479 25.9487 73.3977 25.9862 72.928Z" fill="white"/>
<path d="M122.191 72.7962L125.935 72.7896C125.922 72.9581 125.896 73.1888 125.909 73.3522L125.847 73.353L125.853 72.903C125.572 72.8357 122.681 72.867 122.194 72.8685L122.191 72.7962Z" fill="white"/>
<path d="M26.776 72.8735C27.3903 72.8717 30.2594 72.7982 30.654 72.9116C29.3381 72.978 28.061 72.9017 26.7668 72.9484L26.776 72.8735Z" fill="white"/>
<path d="M64.8848 75.8469C65.2327 75.4279 65.3353 74.9725 64.895 74.5931L64.8848 75.8469Z" fill="white"/>
<path d="M34.7448 77.5969L34.8447 77.6817C33.5452 77.6884 32.2457 77.6804 30.9465 77.6573C31.333 77.5372 34.1333 77.6139 34.7448 77.5969Z" fill="white"/>
<path d="M122.194 72.8685C122.681 72.867 125.572 72.8357 125.853 72.903C124.617 72.9922 123.364 72.8768 122.202 72.94L122.194 72.8685Z" fill="white"/>
<path d="M117.076 75.7955L117.173 75.6754C117.253 76.1094 117.228 76.9555 117.226 77.4319L117.094 77.262L117.076 75.7955Z" fill="white"/>
<path d="M43.6322 78.2982L43.7104 78.2896L43.7093 80.2167L43.6169 80.1951C43.6121 79.5627 43.6172 78.9303 43.6322 78.2982Z" fill="white"/>
<path d="M38.8705 75.686C38.9973 75.2935 38.9359 74.3748 38.8661 73.966L38.8705 75.686Z" fill="white"/>
</svg>
