<svg width="148" height="148" viewBox="0 0 148 148" fill="none" xmlns="http://www.w3.org/2000/svg">
<path d="M73.425 47.3011C73.9808 47.3 74.3172 47.3516 74.7034 47.793C75.9583 49.2275 77.1024 50.763 78.3071 52.2429L114.817 97.4237C115.382 98.1346 115.937 98.8535 116.482 99.5802C116.691 99.8636 116.88 100.169 117.085 100.451C117.138 100.524 117.288 100.592 117.42 100.743L117.374 100.802C116.68 101.031 112.526 100.857 111.536 100.892C111.273 100.902 110.975 100.742 110.777 100.553C110.027 99.8364 109.41 98.9101 108.764 98.093C107.621 96.6596 106.467 95.2355 105.302 93.8208C104.84 93.1566 104.139 92.3826 103.631 91.7464C102.787 90.7032 102.065 89.7667 101.161 88.7376C100.918 88.5049 99.4521 86.531 99.2769 86.4933C98.0512 86.23 93.9621 86.3393 92.8187 86.3394L77.2748 86.3402C76.3053 86.3402 74.7166 86.3024 73.7815 86.4554C73.6858 87.7112 73.7589 89.6398 73.7634 90.9603L73.762 98.3621C73.7643 99.2099 73.8172 100.056 73.8097 100.893C73.2015 100.949 69.2524 100.966 68.7772 100.852C68.577 100.278 68.6624 96.9206 68.6626 96.1319L68.66 57.6005C68.6599 56.737 68.601 47.5956 68.7467 47.415C69.2827 47.2436 72.6005 47.3175 73.425 47.3011ZM74.3338 80.8817C76.3952 81.0018 78.6267 80.9115 80.7035 80.9374C85.2193 80.9937 89.8168 80.8657 94.3273 80.9338C94.2291 80.5673 88.9853 74.3887 88.3058 73.5605L78.0307 61.0304C77.6529 60.5694 74.6523 56.7765 74.3878 56.6081C74.3028 57.1101 74.3303 58.5777 74.3304 59.1423L74.3338 80.8817Z" fill="white"/>
<path d="M35.2317 47.0303C38.6555 47.0284 42.0941 46.9609 45.524 47.0338C53.809 47.2099 60.1286 54.2064 60.1028 62.4399C60.0943 65.1367 58.0467 70.2609 56.1085 72.1142C58.5635 72.8646 61.5856 75.1802 63.0299 77.199C68.0619 84.3819 66.6974 94.0059 59.0452 98.7421C54.7504 101.4 53.0545 100.975 48.2997 100.973L27.4057 100.969C26.3271 100.971 23.5591 101.062 22.6175 100.923C22.5236 100.33 22.3694 96.2298 22.7101 95.8657C23.2408 95.6683 26.5143 95.7479 27.3175 95.7507L47.9181 95.7565C51.8216 95.7582 53.9362 95.8485 57.2055 93.0114C63.0605 87.9306 60.6515 79.4796 53.6438 77.192C51.9 76.6228 48.7409 76.8827 46.7575 76.837C42.9359 76.7488 38.997 76.9473 35.1446 76.8118C35.1492 74.9458 35.1078 73.3401 35.1606 71.445L42.3811 71.4444C44.8149 71.4462 46.8634 71.6127 49.1057 70.3663C51.2242 69.1887 53.2104 66.9787 54.0131 64.6602C54.8491 62.246 54.2125 59.6809 53.1914 57.44C52.2445 55.5969 49.294 53.3869 47.3426 52.7943C46.584 52.5639 44.3527 52.6512 43.4305 52.6525L37.9624 52.663C37.5342 52.6642 35.2403 52.8051 35.2046 52.4776C35.1112 51.6205 34.9751 47.6507 35.2317 47.0303Z" fill="white"/>
<path d="M114.126 85.4189C114.682 85.3761 115.191 85.359 115.727 85.5677C117.038 86.0786 118.065 87.8251 117.481 89.204C116.945 90.4727 115.946 91.0377 114.756 91.5572C112.545 92.3059 110.264 88.9968 111.743 87.1476C112.359 86.3772 113.114 85.6018 114.126 85.4189ZM112.527 89.2286C112.688 89.4978 112.872 89.7857 112.995 90.0716C113.287 90.1762 113.64 90.3311 113.942 90.321C115.149 89.9542 116.081 89.259 116.416 87.9725C116.218 87.4587 115.721 86.4987 115.054 86.5983C113.738 86.9267 112.596 87.7478 112.527 89.2286Z" fill="white"/>
<path d="M119.123 89.6811C119.259 89.7223 119.426 89.8207 119.521 89.9308C120.624 91.2148 123.142 93.8603 120.102 94.7021C118.921 94.4306 119.55 94.6984 119.027 95.5413C118.712 96.0485 118.01 96.7262 117.572 97.1475C117.501 97.0949 117.433 97.0389 117.366 96.98C116.78 96.4553 116.496 96.0431 117.201 95.3848C117.459 95.1298 117.933 94.7005 118.001 94.3568C118.055 94.0779 117.507 93.2549 117.326 93.0195C117.134 93.0644 116.198 93.9459 115.93 94.1489C115.236 94.6758 114.931 94.0191 114.487 93.4492C115.613 92.4872 117.969 90.4331 119.123 89.6811ZM118.173 92.3932C118.623 92.9592 118.745 93.1306 119.35 93.5238C120.424 93.7996 120.117 91.749 119.182 91.4572C118.864 91.7566 118.437 92.0822 118.173 92.3932Z" fill="white"/>
<path d="M111.605 80.564C112.2 80.5034 113 81.8569 113.412 82.3471C114.644 83.8112 113.424 86.1107 111.455 85.4663C110.777 85.2443 110.201 84.594 109.774 84.0347C109.754 84.0286 109.622 84.0241 109.621 84.0254C109.287 84.315 108.262 85.1359 107.983 85.3464C107.708 85.0514 107.346 84.5115 107.097 84.1636C107.506 83.9503 108.432 83.138 108.847 82.7963C109.757 82.0406 110.676 81.2965 111.605 80.564ZM111.653 84.2556C111.969 84.3749 112.47 83.7818 112.557 83.5291C112.65 83.259 112.083 82.3328 111.835 82.2212C111.503 82.5079 110.843 82.9221 110.799 83.2948C110.889 83.7148 111.31 83.9716 111.653 84.2556Z" fill="white"/>
<path d="M107.736 76.7003C109.228 76.4907 110.78 78.2051 110.427 79.6711C110.072 81.146 109.379 80.5333 108.863 79.6059C109.064 79.2543 109.333 78.758 108.982 78.3821C108.853 78.2451 108.537 77.9667 108.349 77.9638C108.175 77.9598 108.006 78.0249 107.879 78.145C107.81 78.2104 107.657 78.4095 107.685 78.5084C108.036 79.7275 109.167 81.2388 108.058 82.4063C107.82 82.656 107.056 82.8093 106.699 82.7817C105.32 82.4401 103.934 81.056 104.196 79.4933C104.281 78.988 104.632 78.6657 105.041 78.4022C106.497 79.5248 105.121 79.5844 105.607 80.7477C105.876 81.461 107.341 81.8833 107.099 80.7773C106.779 79.3122 106.251 79.1416 106.429 77.51C106.879 76.9702 107.086 76.8512 107.736 76.7003Z" fill="white"/>
<path d="M122.588 93.8126C122.818 93.9041 123.336 94.6512 123.529 94.8885C124.165 95.6799 124.825 96.4596 125.392 97.3042C125.56 97.5559 125.533 97.9244 125.302 98.1234C125.214 98.1991 125.046 98.2741 124.934 98.2318C124.444 98.047 123.968 97.3121 123.69 96.8775C123.223 97.5519 122.1 98.2036 121.456 98.8079C121.113 99.1218 120.332 99.9523 119.907 99.9813C119.791 99.99 119.677 99.9496 119.592 99.8699C119.431 99.7211 119.167 99.2279 119.176 99.0085C119.197 98.4474 122.216 96.4178 122.78 95.8765L122.819 95.8389C122.677 95.666 122.498 95.4456 122.35 95.2834C121.626 94.4874 121.556 94.2374 122.588 93.8126Z" fill="white"/>
</svg>
