<svg width="148" height="148" viewBox="0 0 148 148" fill="none" xmlns="http://www.w3.org/2000/svg">
<path d="M17.3646 83.5895C17.1637 83.4727 16.9405 83.3814 16.7098 83.3047C17.0372 83.1587 17.3051 82.9688 17.5097 82.7206C17.759 82.4212 17.8817 82.0597 17.8817 81.6398C17.8817 81.2966 17.811 81.0009 17.666 80.749C17.5209 80.4971 17.3237 80.2853 17.0707 80.1101C16.8177 79.9348 16.5127 79.8034 16.1555 79.723C15.7984 79.6391 15.4152 79.5953 15.0022 79.5953H12V87.602H15.192C15.8281 87.602 16.3862 87.5254 16.8661 87.3684C17.3423 87.2114 17.7106 86.9741 17.9673 86.6491C18.224 86.3242 18.3505 85.897 18.3505 85.3639C18.3505 84.9514 18.2612 84.6009 18.0901 84.3051C17.9152 84.013 17.6734 83.7757 17.3683 83.5968M14.7753 81.0922C15.1176 81.0922 15.3817 81.1652 15.5677 81.3113C15.7537 81.4573 15.8467 81.6581 15.8467 81.9173C15.8467 82.0926 15.8058 82.2459 15.7203 82.3737C15.6347 82.5051 15.5156 82.6037 15.3594 82.6731C15.2031 82.7425 15.0097 82.7753 14.7753 82.7753H13.9606V81.0922H14.7753ZM16.1295 85.6779C16.0104 85.8313 15.8505 85.9371 15.6533 86.0029C15.4561 86.0686 15.2255 86.0978 14.9613 86.0978H13.9569V84.1189H14.9613C15.1473 84.1189 15.3222 84.1372 15.4896 84.17C15.657 84.2029 15.8021 84.2613 15.9286 84.3343C16.0514 84.411 16.1481 84.5059 16.2151 84.6191C16.2783 84.7323 16.3118 84.882 16.3118 85.0645C16.3118 85.3165 16.2523 85.5173 16.1295 85.6706" fill="white"/>
<path d="M25.5752 79.5953V87.5984H30.9845V86.0102H27.4651V84.181H30.7501V82.6001H27.4651V81.1835H30.9845V79.5953H25.5752Z" fill="white"/>
<path d="M49.7458 79.5953H47.7517V87.602H49.7458V79.5953Z" fill="white"/>
<path d="M56.4906 81.3441H58.7153V87.5984H60.6982V81.3441H62.9341V79.5953H56.4906V81.3441Z" fill="white"/>
<path d="M67.6328 87.5984H69.8575L70.6164 86.054H73.202L73.9572 87.5984H76.208L71.9334 79.0914L67.6328 87.5984ZM72.8337 84.579H71.0219L71.9297 82.5453L72.8337 84.579Z" fill="white"/>
<path d="M84.8539 79.5953H82.897V87.5984H88.1388V85.9298H84.8539V79.5953Z" fill="white"/>
<path d="M96.8703 79.5953H94.8762V87.602H96.8703V79.5953Z" fill="white"/>
<path d="M105.78 87.5984L106.539 86.054H109.125L109.88 87.5984H112.131L107.853 79.0914L103.552 87.5984H105.78ZM108.76 84.579H106.948L107.856 82.5453L108.76 84.579Z" fill="white"/>
<path d="M124.437 84.0751L118.82 79.1936V87.5984H120.71V83.1149L126.35 88V79.5953H124.437V84.0751Z" fill="white"/>
<path d="M135.691 86.0649C135.487 85.8605 135.219 85.7546 134.891 85.7546C134.564 85.7546 134.311 85.8568 134.106 86.0649C133.902 86.2694 133.798 86.525 133.798 86.8317C133.798 87.1128 133.902 87.3574 134.106 87.5619C134.311 87.7663 134.571 87.8722 134.88 87.8722C135.215 87.8722 135.483 87.77 135.691 87.5619C135.896 87.3538 136 87.1128 136 86.8317C136 86.525 135.896 86.2694 135.691 86.0649Z" fill="white"/>
<path d="M74.4892 61.2779L76.0145 62.8004L74.2251 62.8077L74.2474 68.2952L77.3947 71.4862L82.4208 66.5975L75.8173 60L74.4892 61.2779ZM79.798 66.5829L77.4245 68.8903L76.1075 67.554L76.0889 62.8734L79.8017 66.5829H79.798Z" fill="white"/>
</svg>
