<svg width="148" height="148" viewBox="0 0 148 148" fill="none" xmlns="http://www.w3.org/2000/svg">
<path d="M79.7789 123.983H80.8576L80.3182 122.717L79.7789 123.983Z" fill="#13100D"/>
<path d="M73.1139 122.133C72.9983 122.073 72.8717 122.046 72.7121 122.046H72.1343V123.344H72.7121C72.8662 123.344 72.9983 123.323 73.1139 123.263C73.224 123.204 73.3065 123.133 73.3671 123.036C73.4276 122.944 73.4551 122.83 73.4551 122.706C73.4551 122.576 73.4276 122.463 73.3671 122.365C73.3065 122.263 73.224 122.187 73.1139 122.138V122.133Z" fill="#13100D"/>
<path d="M86.818 65.5948H86.8346C89.8726 65.1621 93.0647 64.5833 96.3834 63.8531C96.5375 63.8153 96.6971 63.7828 96.8567 63.745C96.8567 63.745 96.8567 63.745 96.8567 63.7395C96.5705 63.799 96.2238 63.8748 96.1963 63.8802L96.0587 63.9126C92.9381 64.5779 89.8231 65.135 86.785 65.5623C87.2418 61.1433 87.3959 54.9341 87.0547 49.2602C86.9226 49.1034 86.796 48.9465 86.6639 48.7951C87.0217 54.2525 86.9336 60.6403 86.4273 65.5299L86.4163 65.6597C86.4163 65.6597 86.4328 65.6597 86.4383 65.6597C86.5594 65.6434 86.6915 65.6272 86.8236 65.6056L86.818 65.5948Z" fill="white"/>
<path d="M90.8853 54.1552C92.4923 56.4215 93.9398 58.7094 95.2166 61.0027C95.3597 61.2677 95.5249 61.5274 95.69 61.7924C95.8716 62.0845 96.0642 62.3873 96.2183 62.6848C96.2678 62.7822 96.4495 63.0905 96.6531 63.4258C96.4109 63.4799 96.1578 63.534 96.1137 63.5394L95.9762 63.5719C92.9546 64.2155 89.9992 64.7456 87.1813 65.1512C87.6216 60.5862 87.7151 54.8259 87.4345 49.7308C87.3079 49.574 87.1758 49.4225 87.0492 49.2657C87.3904 54.9395 87.2363 61.1487 86.7795 65.5677C89.8175 65.1458 92.9326 64.5833 96.0532 63.918L96.1908 63.8856C96.1908 63.8856 96.565 63.8045 96.8512 63.745C96.5981 63.2528 96.2678 62.6199 95.8936 61.9546C94.4296 59.3314 92.7455 56.7244 90.8853 54.1606V54.1552Z" fill="white"/>
<path d="M100.599 71.6688C100.599 71.6688 100.616 71.6472 100.627 71.6364C100.616 71.6472 100.61 71.658 100.599 71.6688Z" fill="#13100D"/>
<path d="M104.898 62.5226C104.898 62.5226 104.898 62.5388 104.892 62.5496C104.248 64.8754 103.329 67.0876 102.19 69.17C103.34 67.0822 104.259 64.8592 104.903 62.5226H104.898Z" fill="#13100D"/>
<path d="M100.665 71.658C101.21 70.8521 101.711 70.0191 102.184 69.17C101.716 70.0245 101.21 70.8575 100.665 71.658Z" fill="#13100D"/>
<path d="M100.66 71.5877C101.353 70.5654 101.981 69.5161 102.542 68.4398C101.981 69.5161 101.359 70.5654 100.66 71.5877C100.66 71.5931 100.654 71.5931 100.654 71.6039C100.649 71.6147 100.638 71.6255 100.627 71.6364C100.638 71.6255 100.643 71.6147 100.654 71.6039C100.654 71.5985 100.66 71.5985 100.66 71.5877Z" fill="#13100D"/>
<path d="M102.614 68.31C103.571 66.4493 104.331 64.5184 104.892 62.5442C104.892 62.5334 104.892 62.528 104.898 62.5172C104.336 64.4968 103.577 66.4385 102.614 68.3046V68.31Z" fill="#13100D"/>
<path d="M102.542 68.4398C101.981 69.5161 101.359 70.5654 100.66 71.5877C100.66 71.5931 100.654 71.5931 100.654 71.6039C100.649 71.6147 100.638 71.6255 100.627 71.6364C100.616 71.6472 100.61 71.658 100.599 71.6688V71.6796L100.665 71.658C101.21 70.8521 101.711 70.0191 102.184 69.17C103.329 67.0876 104.243 64.8754 104.887 62.5496C104.325 64.5184 103.566 66.4493 102.608 68.3154C102.586 68.3586 102.559 68.4019 102.537 68.4452L102.542 68.4398Z" fill="#13100D"/>
<path d="M60.7031 48.5733C60.7031 48.5733 60.6811 48.595 60.6756 48.6004C60.56 48.7194 60.4445 48.8438 60.3289 48.9628C60.1363 53.8415 60.3014 60.2292 60.9618 66.0815C57.6706 65.7029 54.4785 65.135 51.468 64.394C50.9011 64.2588 49.0133 63.7287 48.2153 63.5016C48.2153 63.5016 48.2153 63.5016 48.2153 63.507C49.1674 63.799 50.1746 64.0803 51.2313 64.3507C54.0987 65.0809 57.3844 65.7137 61.0444 66.141H61.0609C61.1544 66.1519 61.248 66.1627 61.3416 66.1681L61.3251 66.0437C60.6976 60.5159 60.472 54.0037 60.7141 48.5679L60.7031 48.5733Z" fill="white"/>
<path d="M60.5545 65.6813C57.445 65.3081 54.4179 64.7618 51.5505 64.0587C51.0222 63.9343 49.2885 63.4475 48.43 63.2041C48.5896 62.9823 48.7657 62.7335 48.8372 62.6362C48.6226 62.9282 48.4134 63.2203 48.2098 63.507C49.0078 63.7341 50.8956 64.2642 51.4625 64.3994C54.4785 65.1404 57.6706 65.7083 60.9563 66.087C60.2904 60.2347 60.1308 53.8469 60.3234 48.9682C60.1968 49.098 60.0757 49.2332 59.9491 49.363C59.7675 54.5122 59.9877 60.4997 60.549 65.6867L60.5545 65.6813Z" fill="white"/>
<path d="M52.1669 58.3308C53.4658 56.6649 54.8032 55.0422 56.1681 53.4629C54.5996 55.2532 53.053 57.1138 51.5505 59.0339C50.5929 60.2671 49.7068 61.4462 48.8592 62.6091C49.6132 61.549 50.4223 60.5321 51.2038 59.5477C51.5285 59.1421 51.8477 58.7364 52.1614 58.3362L52.1669 58.3308Z" fill="white"/>
<path d="M86.5704 47.4537L86.5814 47.6052C86.6144 47.643 86.6474 47.6755 86.6805 47.7133L87.1868 48.2975C88.6508 50.0175 90.0322 51.7645 91.3256 53.5332C90.0707 51.7699 88.7278 50.0229 87.2859 48.3029L86.5759 47.4483L86.5704 47.4537Z" fill="#13100D"/>
<path d="M59.03 25.4508H59.041C59.0961 25.4292 59.1456 25.4021 59.2006 25.3697L59.0355 25.4508H59.03Z" fill="white"/>
<path d="M66.1903 23.2386C66.3389 23.2007 66.482 23.1683 66.6361 23.1413C66.7847 23.1034 66.9388 23.0709 67.0874 23.0331C68.9256 22.6545 70.8244 22.4273 72.7672 22.3732C73.0919 22.3678 73.4111 22.357 73.7358 22.357H73.9119C76.4546 22.3732 78.9258 22.6761 81.2924 23.244C81.4465 23.2819 81.5896 23.3143 81.7382 23.3576C81.8868 23.3846 82.0299 23.4279 82.1674 23.4658C83.2352 23.747 84.2754 24.0878 85.299 24.4718C84.2809 24.0878 83.2352 23.747 82.1674 23.4658C82.0299 23.4279 81.8813 23.3901 81.7382 23.3576C81.5896 23.3143 81.4465 23.2819 81.2924 23.244L81.2703 23.1899C81.4244 23.2224 81.5786 23.2602 81.7216 23.2981C81.8372 23.3252 81.9528 23.3522 82.0684 23.3846C82.0959 23.3901 82.1234 23.3955 82.1509 23.4063C82.1509 23.3955 82.1454 23.3846 82.1454 23.3738C83.037 23.6172 83.9286 23.8985 84.8037 24.223L85.2935 24.4718L84.7982 24.223C87.1758 25.083 89.4708 26.2405 91.6393 27.6846L91.5347 27.6305L91.6338 27.6792C91.7658 27.7603 91.8869 27.8523 92.019 27.9497H92.0245C92.1456 28.0308 92.2777 28.1227 92.4098 28.2147C92.4098 28.2201 92.4153 28.2201 92.4153 28.2201C92.5254 28.2958 92.6409 28.3715 92.7565 28.4635C92.9381 28.5933 93.1197 28.7285 93.2959 28.8637C93.472 28.9936 93.6481 29.1288 93.8242 29.2748C101.26 35.0784 106.026 44.0462 106.026 54.1119C106.026 56.719 105.701 59.2503 105.096 61.668H105.074C105.035 61.8086 104.997 61.9384 104.958 62.0682L105.398 61.9492L105.448 61.7545C106.075 59.2719 106.389 56.6973 106.389 54.1119C106.389 44.2733 101.893 35.1163 94.0554 28.999C93.8738 28.8529 93.6921 28.7123 93.516 28.5879C93.3344 28.4473 93.1528 28.3066 92.9822 28.1876C92.9106 28.1336 92.8391 28.0795 92.773 28.0308L92.6189 27.9226C92.4868 27.8307 92.3547 27.7387 92.2282 27.6576L92.1511 27.6089C92.041 27.5332 91.931 27.4575 91.8209 27.3871C88.8654 25.4508 85.6403 24.0121 82.2445 23.1142C82.1014 23.0763 81.9473 23.0331 81.8262 23.0114C81.7161 22.9736 81.6006 22.9519 81.485 22.9249L81.3529 22.8924C78.9368 22.3137 76.4271 22.0162 73.8844 22H73.7083C73.4056 22 73.0974 22.0054 72.7892 22.0162H72.7287C70.8079 22.0703 68.8706 22.2921 66.9718 22.6869L66.7792 22.7302C66.6911 22.7518 66.5976 22.7735 66.5315 22.7897C66.3719 22.8221 66.2178 22.8546 66.0747 22.8924C63.9503 23.3846 61.8314 24.1257 59.762 25.0884L60.1032 25.321C62.024 24.4394 64.0439 23.7254 66.1518 23.2332L66.1903 23.2386Z" fill="white"/>
<path d="M97.5832 63.5773C97.6383 63.5665 97.6878 63.5502 97.7428 63.5394H97.7483C98.4913 63.3663 99.2453 63.1878 99.9993 62.9985C99.1903 63.1933 98.3813 63.3934 97.5777 63.5719L97.5832 63.5773Z" fill="white"/>
<path d="M74.6054 36.8471L74.677 36.9066C74.7705 36.9877 74.8696 37.0634 74.9742 37.1608C78.9423 40.5575 82.5747 44.1273 85.7779 47.7782C85.9044 47.9135 86.0145 48.0433 86.1356 48.1731L86.6364 48.7572C86.6364 48.7572 86.6529 48.7735 86.6584 48.7843C86.6584 48.7085 86.6474 48.6274 86.6419 48.5517L86.6199 48.1893C86.5759 48.1352 86.5264 48.0811 86.4823 48.027C86.3337 47.8594 86.1961 47.7025 86.042 47.5348C83.0205 44.0895 79.4376 40.5088 75.2108 36.885C75.1117 36.793 75.0127 36.7119 74.9136 36.6307L74.8586 36.6686C74.7815 36.7227 74.6935 36.7822 74.6164 36.8417L74.6054 36.8471Z" fill="white"/>
<path d="M91.6558 27.6846L91.5567 27.6359C91.5897 27.6576 91.6172 27.6738 91.6503 27.6954H91.6558V27.6846Z" fill="white"/>
<path d="M82.1509 23.3792C82.1509 23.3792 82.1564 23.4009 82.1564 23.4117C82.1619 23.4333 82.1619 23.4496 82.173 23.4712C82.0354 23.4333 81.8868 23.3955 81.7437 23.363C81.8923 23.3955 82.0354 23.4333 82.173 23.4712C83.2407 23.7524 84.2809 24.0932 85.3045 24.4772L84.8147 24.2284C83.9396 23.9039 83.048 23.6226 82.1564 23.3792H82.1509Z" fill="white"/>
<path d="M87.429 49.6118C87.429 49.6497 87.429 49.6821 87.429 49.72C88.6398 51.1804 89.79 52.6624 90.8798 54.1552C89.7955 52.6299 88.6453 51.11 87.4235 49.6118H87.429Z" fill="white"/>
<path d="M97.4071 63.6151C97.3466 63.6314 97.275 63.6422 97.2145 63.6584C97.2145 63.6584 97.0494 63.6963 96.8512 63.7341C96.8512 63.7341 96.8512 63.7341 96.8512 63.7395C96.8898 63.7287 96.9283 63.7233 96.9668 63.7125C97.0879 63.6909 97.22 63.6584 97.3466 63.626C97.4236 63.6097 97.5007 63.5881 97.5777 63.5719C97.5172 63.5827 97.4621 63.5989 97.4016 63.6097L97.4071 63.6151Z" fill="white"/>
<path d="M96.5375 62.5226C96.5761 62.6145 97.2035 63.6476 97.2145 63.6584C96.9008 63.0472 96.5705 62.4198 96.2073 61.7816C94.7819 59.2286 93.0427 56.481 90.9238 53.5981C92.6354 55.9888 94.182 58.4065 95.5359 60.8404C95.8441 61.3975 96.2403 61.9492 96.543 62.5226H96.5375Z" fill="white"/>
<path d="M86.9116 48.5355C86.8125 48.4219 86.719 48.3083 86.6199 48.2001L86.6419 48.5625C86.6419 48.6382 86.6529 48.7194 86.6584 48.7951C86.7905 48.9519 86.9171 49.1088 87.0492 49.2602C87.0382 49.0601 87.0272 48.8546 87.0107 48.6599C86.9777 48.622 86.9446 48.5787 86.9116 48.5409V48.5355Z" fill="white"/>
<path d="M96.5375 62.5226C96.2403 61.9492 95.8386 61.3975 95.5304 60.8404C94.1765 58.4119 92.6354 55.9888 90.9183 53.5981C89.735 51.9917 88.4361 50.342 87.0052 48.6545C87.0162 48.8546 87.0327 49.0547 87.0437 49.2548C87.1758 49.4117 87.3024 49.5631 87.429 49.72C87.429 49.6821 87.429 49.6497 87.429 49.6118C88.6508 51.11 89.801 52.6299 90.8853 54.1552C92.7455 56.719 94.4241 59.3206 95.8936 61.9492C96.2678 62.6145 96.5981 63.2473 96.8512 63.7395C97.0494 63.6963 97.2145 63.6638 97.2145 63.6638C97.2035 63.6476 96.5816 62.6199 96.5375 62.528V62.5226Z" fill="white"/>
<path d="M91.6558 27.6846C89.4873 26.2405 87.1868 25.083 84.8147 24.223L85.31 24.4718C87.517 25.3048 89.6139 26.3649 91.5567 27.6305L91.6613 27.6846H91.6558Z" fill="white"/>
<path d="M81.2759 23.1953L81.2979 23.2494C81.452 23.2873 81.5951 23.3197 81.7437 23.363L81.7272 23.3035C81.5786 23.2657 81.43 23.2278 81.2759 23.1953Z" fill="white"/>
<path d="M82.1619 23.4063C82.1344 23.4009 82.1069 23.3955 82.0794 23.3846C82.1069 23.3901 82.1344 23.3955 82.1619 23.4063Z" fill="white"/>
<path d="M82.173 23.4658C82.173 23.4658 82.1674 23.4279 82.1564 23.4063C82.1289 23.4009 82.1014 23.3955 82.0739 23.3846C81.9583 23.3522 81.8427 23.3252 81.7272 23.2981L81.7437 23.3576C81.8868 23.3901 82.0354 23.4279 82.173 23.4658Z" fill="white"/>
<path d="M64.5997 28.2958C64.6438 28.3283 64.7703 28.4148 64.8969 28.5014L65.1281 28.6582C65.2216 28.7177 67.203 30.1294 68.6174 31.1679C67.4396 30.2862 66.2343 29.4154 65.0345 28.5879C64.9189 28.4959 64.7979 28.4148 64.7098 28.3607C64.5942 28.2688 64.4787 28.1876 64.3631 28.1119C63.1137 27.2465 61.8204 26.3811 60.5215 25.5373C62.4093 24.6882 64.3466 24.0337 66.2894 23.5794C66.427 23.5415 66.5645 23.5145 66.7352 23.482C66.8122 23.4604 66.8948 23.4441 66.9773 23.4279L67.1699 23.3846C69.0192 23.006 70.9069 22.7843 72.7892 22.7356H72.8497C73.1469 22.7248 73.4496 22.7194 73.7468 22.7194H73.923C76.4051 22.7356 78.8597 23.0277 81.2208 23.5902L81.3529 23.6226C81.452 23.6443 81.5455 23.6659 81.6776 23.7092C81.8152 23.7362 81.9528 23.7741 82.0904 23.8119C85.4146 24.6882 88.5682 26.0944 91.4576 27.9875C91.5842 28.0687 91.7108 28.1552 91.8374 28.2471L91.9365 28.312C91.9805 28.3445 92.03 28.377 92.0796 28.4094V28.5825H92.3272C92.4043 28.6312 92.4813 28.6853 92.5694 28.761C92.751 28.8854 92.9216 29.0206 93.1032 29.1558C93.2738 29.2802 93.4445 29.41 93.6261 29.5561C101.293 35.5436 105.69 44.4951 105.69 54.1173C105.69 56.5783 105.398 59.0231 104.821 61.3921L104.38 61.5057C102.014 62.1602 99.6691 62.7443 97.4126 63.2528C97.1704 62.7822 96.8677 62.2089 96.5265 61.6085C95.0075 58.8879 93.2628 56.1889 91.3256 53.5386C93.0042 55.8968 94.5232 58.2767 95.8496 60.6619C95.9872 60.9162 96.1468 61.165 96.3009 61.4138C96.4935 61.7167 96.6916 62.0304 96.8567 62.3549L96.8677 62.3711C96.9118 62.4577 97.2365 62.9985 97.5282 63.4745L97.5832 63.5665C98.3868 63.388 99.1958 63.1878 100.005 62.9931C101.601 62.5983 103.224 62.171 104.881 61.695H104.892C104.969 61.6734 105.046 61.6572 105.118 61.6301C105.118 61.6409 105.112 61.6572 105.107 61.668H105.129C105.734 59.2449 106.059 56.7135 106.059 54.1065C106.059 44.0408 101.293 35.073 93.8572 29.2694C93.6811 29.1234 93.505 28.9881 93.3289 28.8583C93.1528 28.7231 92.9767 28.5879 92.7895 28.4581C92.674 28.3661 92.5584 28.2904 92.4483 28.2147C92.4483 28.2147 92.4428 28.2147 92.4428 28.2093C92.3107 28.1173 92.1841 28.0254 92.0575 27.9442H92.052C91.9199 27.8523 91.7879 27.7603 91.6613 27.6792C91.6283 27.6576 91.6007 27.6414 91.5677 27.6197L85.321 24.461C84.3029 24.077 83.2572 23.7362 82.1895 23.455C82.0519 23.4171 81.9033 23.3792 81.7602 23.3468C81.6116 23.3035 81.4685 23.2711 81.3144 23.2332C78.9478 22.6653 76.4767 22.3624 73.934 22.3462H73.7578C73.4331 22.3462 73.1139 22.3516 72.7892 22.3624C70.8464 22.4165 68.9476 22.6436 67.1094 23.0223C66.9553 23.0601 66.8012 23.0872 66.6581 23.1304C66.504 23.1629 66.3609 23.1899 66.2123 23.2278C64.1044 23.7146 62.0846 24.434 60.1638 25.3156L60.2188 25.3534C60.2188 25.3534 63.1853 27.2898 64.6162 28.2796L64.5997 28.2958Z" fill="white"/>
<path d="M70.8244 32.8446C70.4116 32.5255 69.9988 32.2064 69.5861 31.8927C70.0043 32.2118 70.4226 32.5255 70.8244 32.8446Z" fill="white"/>
<path d="M69.0687 31.5086C69.1788 31.5898 69.2834 31.6655 69.3769 31.7412C69.3274 31.7033 69.2834 31.6655 69.2338 31.633C69.1788 31.5898 69.1238 31.5519 69.0687 31.514V31.5086Z" fill="white"/>
<path d="M75.2108 36.8958C79.4376 40.5142 83.0205 44.1003 86.042 47.5457C86.1961 47.7133 86.3337 47.8702 86.4823 48.0379C86.5319 48.0919 86.5759 48.146 86.6199 48.2001L86.5814 47.6106C86.4933 47.5132 86.4053 47.4104 86.3172 47.3131C83.0976 43.6405 79.4431 40.0491 75.453 36.6362C75.3704 36.5604 75.2879 36.4955 75.2053 36.4252L74.9026 36.6362C75.0017 36.7173 75.1007 36.8038 75.1998 36.8904L75.2108 36.8958Z" fill="white"/>
<path d="M86.6749 47.7133C86.6419 47.6755 86.6089 47.643 86.5759 47.6052L86.6144 48.1947C86.7135 48.3083 86.807 48.4219 86.9061 48.5301C86.9391 48.5679 86.9721 48.6112 87.0052 48.6491C87.0052 48.6112 87.0052 48.5679 86.9997 48.5301C88.3921 50.196 89.6965 51.8889 90.9183 53.5927C93.0372 56.481 94.7764 59.2286 96.2018 61.7762C96.5595 62.4198 96.8898 63.0418 97.209 63.653C97.2695 63.6368 97.3411 63.6206 97.4016 63.6097C97.4621 63.5989 97.5172 63.5827 97.5777 63.5665L97.5227 63.4745C97.231 62.9931 96.9063 62.4523 96.8622 62.3711L96.8512 62.3549C96.6806 62.0304 96.488 61.7167 96.2954 61.4138C96.1358 61.165 95.9817 60.9162 95.8441 60.6619C94.5177 58.2767 92.9987 55.8914 91.32 53.5386C90.0267 51.7699 88.6508 50.0229 87.1813 48.3029L86.6749 47.7187V47.7133Z" fill="white"/>
<path d="M87.0052 48.5355C87.0052 48.5733 87.0052 48.6166 87.0107 48.6545C88.4416 50.3366 89.7405 51.9863 90.9238 53.5981C89.702 51.8943 88.3976 50.2014 87.0052 48.5355Z" fill="white"/>
<path d="M91.5512 27.6305C89.6084 26.3649 87.5115 25.3048 85.3045 24.4718L91.5512 27.6305Z" fill="white"/>
<path d="M92.041 27.9551C91.9089 27.8577 91.7879 27.7658 91.6558 27.6846H91.6503C91.7824 27.7766 91.9089 27.8631 92.041 27.9551Z" fill="#13100D"/>
<path d="M48.2538 62.2197C48.2538 62.2197 48.2318 62.2467 48.2208 62.2629C48.2428 62.2305 48.2648 62.198 48.2924 62.1656C48.2814 62.1818 48.2648 62.2034 48.2538 62.2197Z" fill="#13100D"/>
<path d="M60.0922 48.0974C58.5677 49.6713 57.0707 51.3156 55.6067 53.0085C57.0982 51.3048 58.6172 49.6659 60.1528 48.1082C60.2904 47.9621 60.4335 47.8269 60.571 47.6863C60.6261 47.6268 60.6866 47.5673 60.7472 47.5078V47.405L60.0867 48.0919L60.0922 48.0974Z" fill="#13100D"/>
<path d="M68.9972 32.347C68.9972 32.347 68.9752 32.3308 68.9641 32.32C69.0137 32.3578 69.0577 32.3957 69.1072 32.4281C69.0687 32.4011 69.0357 32.374 68.9972 32.3416V32.347Z" fill="#13100D"/>
<path d="M74.055 36.3657C72.8993 35.3921 71.6499 34.3915 70.3291 33.3693C71.5729 34.3374 72.8167 35.3435 74.044 36.3765C74.044 36.3765 74.055 36.3711 74.055 36.3657Z" fill="#13100D"/>
<path d="M68.2707 31.8061C68.3642 31.8764 68.4523 31.9413 68.5459 32.0117C68.4578 31.9467 68.3642 31.8764 68.2707 31.8061Z" fill="#13100D"/>
<path d="M60.8297 47.9459C60.7967 47.9784 60.7637 48.0162 60.7252 48.0487L60.7086 48.3624C60.7086 48.4327 60.7086 48.5084 60.7031 48.5733C60.8297 48.4435 60.9563 48.3191 61.0884 48.1839C61.226 48.0433 61.3581 47.9026 61.4957 47.7674C66.5315 42.7481 71.771 38.8321 74.5999 36.8471L74.3687 36.6524C74.3687 36.6524 74.3357 36.6253 74.3192 36.6145C70.3676 39.3946 65.5409 43.2349 61.237 47.524C61.0994 47.6592 60.9618 47.8053 60.8242 47.9459H60.8297Z" fill="white"/>
<path d="M59.795 25.0938L59.762 25.0722L59.5694 25.1695C59.4428 25.2344 59.3217 25.3048 59.1951 25.3697L59.6024 25.175C59.6629 25.1425 59.729 25.1209 59.795 25.0884V25.0938Z" fill="white"/>
<path d="M46.4596 62.9553C45.5515 62.647 44.5554 62.2792 43.8729 62.0304C44.6765 62.3441 45.5405 62.6524 46.4596 62.9553Z" fill="white"/>
<path d="M41.4623 57.8278C41.4843 58.0171 41.5063 58.2064 41.5394 58.3903C41.688 59.4612 41.8916 60.5267 42.1448 61.5544L42.1833 61.7221L42.6236 61.9222C42.5796 61.7707 42.53 61.6247 42.4915 61.4733L42.475 61.4679C42.2273 60.4456 42.0292 59.4071 41.8916 58.347C41.8586 58.1523 41.8366 57.9521 41.8145 57.7574C41.776 57.4383 41.743 57.13 41.7155 56.8109C41.6439 55.9239 41.6054 55.026 41.6054 54.1227C41.6054 41.9963 49.1895 31.0327 59.3823 25.6726L59.041 25.4508C48.2153 31.2166 41.2477 42.4019 41.2477 54.1173C41.2477 54.999 41.2862 55.913 41.3577 56.8379C41.3908 57.1571 41.4183 57.4708 41.4623 57.8223V57.8278Z" fill="white"/>
<path d="M48.8482 62.6199C48.8482 62.6199 48.8372 62.6307 48.8372 62.6362C48.8427 62.6253 48.8537 62.6145 48.8592 62.6091C48.8592 62.6091 48.8537 62.6199 48.8482 62.6199Z" fill="white"/>
<path d="M59.9546 49.2765C58.6723 50.6287 57.4064 52.0241 56.1681 53.4629C57.4119 52.0458 58.6778 50.6828 59.9546 49.363C59.9546 49.336 59.9546 49.3035 59.9546 49.2765Z" fill="white"/>
<path d="M48.0777 63.4799C48.1162 63.4907 48.1603 63.507 48.2043 63.5178C48.2043 63.5178 48.2043 63.5178 48.2043 63.5124C48.0777 63.4745 47.9787 63.4475 47.9181 63.4312C47.9731 63.4475 48.0227 63.4691 48.0777 63.4799Z" fill="white"/>
<path d="M55.97 53.1383C54.4069 54.9124 52.8384 56.8055 51.2643 58.8176C50.6534 59.6072 50.037 60.4186 49.4206 61.2407C50.2407 60.1643 51.0772 59.1367 51.8753 58.1144C53.2126 56.3998 54.5776 54.7393 55.9645 53.1383H55.97Z" fill="white"/>
<path d="M60.7252 48.0487C60.6206 48.1514 60.516 48.2542 60.4114 48.3624C60.3894 48.384 60.3674 48.4057 60.3454 48.4273C60.3399 48.6058 60.3289 48.7897 60.3234 48.9682C60.439 48.8492 60.5545 48.7248 60.6701 48.6058C60.6811 48.595 60.6921 48.5841 60.6976 48.5787C60.6976 48.5084 60.6976 48.4327 60.7031 48.3678L60.7196 48.0541L60.7252 48.0487Z" fill="white"/>
<path d="M55.97 53.1383C54.5831 54.7393 53.2126 56.3998 51.8808 58.1144C51.0827 59.1367 50.2407 60.1698 49.4261 61.2407C48.8978 61.9492 48.3749 62.6632 47.8466 63.3988C47.8741 63.4096 47.8961 63.415 47.9236 63.4258C47.9842 63.4421 48.0832 63.4691 48.2098 63.507C48.4189 63.2149 48.6281 62.9282 48.8372 62.6362C48.8372 62.6362 48.8482 62.6253 48.8482 62.6199C48.8482 62.6199 48.8537 62.6091 48.8592 62.6091C49.7068 61.4462 50.5929 60.2725 51.5505 59.0339C53.053 57.1138 54.5941 55.2532 56.1681 53.4629C57.4119 52.0295 58.6723 50.6287 59.9546 49.2765C59.9546 49.3035 59.9546 49.336 59.9546 49.363C60.0812 49.2332 60.2023 49.098 60.3289 48.9682C60.3344 48.7843 60.3454 48.6058 60.3509 48.4273C58.9034 49.8985 57.445 51.467 55.97 53.1383Z" fill="white"/>
<path d="M74.8751 36.1223C73.6258 35.0676 72.2718 33.9696 70.8244 32.85C72.1728 33.8993 73.5212 34.9919 74.8476 36.1169L75.1448 36.3711C75.1448 36.3711 75.1888 36.409 75.2108 36.4252L75.2273 36.4144L74.8806 36.1223H74.8751Z" fill="white"/>
<path d="M69.3769 31.7358C69.4485 31.7899 69.5145 31.844 69.5861 31.8927C69.5365 31.8548 69.4925 31.8169 69.443 31.7845C69.4209 31.7683 69.3989 31.752 69.3769 31.7358Z" fill="white"/>
<path d="M69.0687 31.5086C68.9256 31.4005 68.7715 31.2869 68.6119 31.1679C68.766 31.2815 68.9201 31.395 69.0687 31.5086Z" fill="white"/>
<path d="M68.733 31.7033C68.9091 31.8332 69.0742 31.9576 69.2228 32.0711C69.7347 32.4606 70.2465 32.85 70.7528 33.2449C70.186 32.8013 69.6081 32.3578 69.0137 31.9143C68.9201 31.844 68.8266 31.7737 68.733 31.7088V31.7033Z" fill="white"/>
<path d="M59.74 25.4833L59.9932 25.6563C59.9932 25.6563 62.9431 27.5819 64.3906 28.5825C64.4511 28.6258 64.8034 28.8691 64.9134 28.9449C65.0125 29.0098 67.1204 30.508 68.5459 31.5627C67.3406 30.6595 66.0967 29.7562 64.8089 28.8637C64.6988 28.7772 64.5942 28.7069 64.4842 28.6366C64.3741 28.55 64.2695 28.4797 64.1539 28.404C62.7725 27.4466 61.3306 26.4839 59.8501 25.5319C59.8134 25.5211 59.7859 25.5103 59.7675 25.4995C59.8941 25.44 60.0207 25.3913 60.1473 25.3318L59.806 25.0992C59.7455 25.1263 59.6795 25.1533 59.6134 25.1858L59.2061 25.3805C59.1511 25.4075 59.1016 25.4346 59.0465 25.467L59.3878 25.6888C59.5088 25.6239 59.6244 25.559 59.7455 25.4995L59.74 25.4833Z" fill="white"/>
<path d="M74.6054 36.8471C74.688 36.793 74.7705 36.7281 74.8476 36.674L74.9026 36.6362C74.809 36.5604 74.7155 36.4739 74.6219 36.3982C74.5229 36.4685 74.4183 36.5442 74.3247 36.6091C74.3412 36.6253 74.3577 36.6362 74.3743 36.647L74.6054 36.8417V36.8471Z" fill="white"/>
<path d="M69.0137 31.9089C69.6026 32.3524 70.1805 32.7959 70.7528 33.2394C72.0902 34.2779 73.3946 35.3326 74.6439 36.3874C74.6439 36.3874 74.6329 36.3928 74.6329 36.3982C74.7265 36.4739 74.82 36.5604 74.9136 36.6362L75.2163 36.4252C75.2163 36.4252 75.1723 36.3874 75.1503 36.3711L74.8531 36.1169C73.5322 34.9919 72.1838 33.8993 70.8299 32.85C70.4226 32.5363 70.0098 32.2172 69.5916 31.8981C69.52 31.844 69.454 31.7899 69.3824 31.7412C69.2889 31.6709 69.1843 31.5898 69.0742 31.5086C68.9256 31.395 68.7715 31.2815 68.6174 31.1679C67.203 30.124 65.2216 28.7177 65.1281 28.6582L64.8969 28.5014C64.7759 28.4148 64.6438 28.3283 64.5997 28.2958C63.1688 27.306 60.2243 25.3859 60.2023 25.3697L60.1473 25.3318C60.0207 25.3913 59.8941 25.44 59.7675 25.4995C59.7675 25.4995 59.795 25.5103 59.8501 25.5319C61.3361 26.4839 62.7725 27.4412 64.1539 28.404C64.2695 28.4797 64.3796 28.5554 64.4842 28.6366C64.5942 28.7015 64.6988 28.7772 64.8089 28.8637C66.0967 29.7562 67.3406 30.6595 68.5459 31.5627C68.6119 31.6114 68.6724 31.6547 68.733 31.7033C68.8266 31.7737 68.9201 31.844 69.0137 31.9089Z" fill="white"/>
<path d="M42.475 61.4624H42.4915C42.2383 60.4348 42.0402 59.3855 41.8916 58.3416C42.0292 59.4017 42.2273 60.4402 42.475 61.4624Z" fill="white"/>
<path d="M48.2979 62.1656C49.0629 61.1001 49.8609 60.0886 50.6424 59.1096C50.9671 58.704 51.2864 58.3037 51.5946 57.8981C52.8989 56.2267 54.2363 54.5987 55.6067 53.0139C54.0327 54.8097 52.4862 56.6757 50.9782 58.6012C50.0205 59.8344 49.1399 61.0081 48.2979 62.1656Z" fill="white"/>
<path d="M42.6236 61.5274H42.6456C43.0364 61.7004 43.4491 61.8627 43.8729 62.0304C44.5554 62.2846 45.5515 62.647 46.4596 62.9553C46.7348 63.0472 47.01 63.1392 47.3017 63.2257L47.3182 63.2311C47.3732 63.2473 47.4338 63.269 47.4888 63.2852L47.5549 63.1933C47.5549 63.1933 48.0722 62.4901 48.2318 62.2575C48.0557 62.5009 47.8796 62.7443 47.7035 62.9823C46.1349 62.4955 43.207 61.3921 43.185 61.3813L42.8052 61.2082C42.5796 60.2563 42.3924 59.2719 42.2493 58.2767C42.2218 58.0982 42.1998 57.9143 42.1723 57.6979C42.1338 57.3842 42.1062 57.0759 42.0732 56.7676C42.0017 55.8644 41.9631 54.9665 41.9631 54.1065C41.9686 42.721 49.0904 31.4059 59.7125 25.8943L59.795 25.9484C59.8225 25.97 62.7615 27.8848 64.176 28.8637C64.2145 28.8908 64.3466 28.9827 64.4787 29.0747L64.7153 29.2369C64.8199 29.3073 66.8562 30.7514 68.2762 31.8007C67.0709 30.8974 65.8436 30.005 64.6052 29.1504C64.4897 29.0639 64.3961 28.9936 64.297 28.9341C64.1704 28.8367 64.0659 28.7664 63.9613 28.6961C62.5744 27.7333 61.1434 26.776 59.7015 25.8511C59.6574 25.8348 59.6244 25.824 59.5749 25.7916L59.3933 25.6726C49.1895 31.0327 41.6054 41.9963 41.6054 54.1173C41.6054 55.026 41.6439 55.9239 41.7155 56.8055C41.743 57.1246 41.776 57.4329 41.8145 57.752C41.8366 57.9467 41.8586 58.1469 41.8916 58.3416C42.0402 59.3855 42.2383 60.4348 42.4915 61.4679C42.5355 61.4841 42.574 61.5057 42.6236 61.5219V61.5274Z" fill="white"/>
<path d="M60.7527 47.5132L60.7252 48.0487C60.7582 48.0162 60.7912 47.9784 60.8297 47.9459C60.9673 47.7999 61.1049 47.6592 61.2425 47.524C65.5464 43.2349 70.3731 39.3946 74.3247 36.6145C74.2312 36.5334 74.1321 36.4577 74.0385 36.3765C71.1601 38.4048 65.9701 42.31 60.9838 47.2752C60.9013 47.3564 60.8242 47.4375 60.7472 47.5186L60.7527 47.5132Z" fill="white"/>
<path d="M68.7935 32.1901C68.711 32.1306 68.6284 32.0711 68.5459 32.0062C68.7 32.1198 68.8376 32.228 68.9696 32.32C68.9091 32.2767 68.8541 32.2334 68.7935 32.1847V32.1901Z" fill="white"/>
<path d="M69.1127 32.4335C69.5255 32.7472 69.9328 33.0555 70.3291 33.3638C69.9218 33.0501 69.5145 32.7364 69.1127 32.4335Z" fill="white"/>
<path d="M47.8466 63.4042C47.8466 63.4042 48.4355 62.5929 48.5565 62.4198C48.8427 62.0196 49.1289 61.6301 49.4261 61.2461C50.0425 60.4186 50.6534 59.6126 51.2698 58.823C52.8439 56.8109 54.4124 54.9178 55.9755 53.1437C57.4174 51.4778 58.8814 49.8768 60.3564 48.3516C60.3564 48.3786 60.3564 48.4057 60.3564 48.4327C60.3784 48.4111 60.4004 48.3894 60.4224 48.3678C60.527 48.2596 60.6316 48.1569 60.7362 48.0541L60.7637 47.5186C60.7031 47.5781 60.6426 47.6376 60.5876 47.6971C60.4445 47.8377 60.3069 47.973 60.1693 48.119C58.6338 49.6767 57.1147 51.3156 55.6232 53.0193C54.2528 54.6041 52.9099 56.2376 51.6111 57.9035C51.2974 58.3037 50.9782 58.7094 50.6589 59.115C49.8829 60.094 49.0794 61.1055 48.3144 62.171C48.2924 62.2034 48.2703 62.2359 48.2428 62.2684C48.0832 62.4955 47.5659 63.2041 47.5659 63.2041L47.4998 63.296C47.5659 63.3177 47.6374 63.3393 47.709 63.3609C47.7585 63.3772 47.8135 63.3934 47.8631 63.4096L47.8466 63.4042Z" fill="white"/>
<path d="M49.4206 61.2407C49.1289 61.6247 48.8372 62.0141 48.551 62.4144C48.43 62.5875 47.8521 63.3826 47.8411 63.3988C48.3639 62.6632 48.8923 61.9438 49.4206 61.2407Z" fill="white"/>
<path d="M60.3509 48.3408C58.8759 49.866 57.4119 51.4724 55.97 53.1329C57.4395 51.4616 58.9034 49.8931 60.3509 48.4219C60.3509 48.3948 60.3509 48.3678 60.3509 48.3408Z" fill="white"/>
<path d="M59.6905 25.8511C61.1324 26.776 62.5634 27.7333 63.9503 28.6961C64.0604 28.7664 64.1594 28.8367 64.286 28.9341C64.3851 28.9936 64.4842 29.0639 64.5942 29.1504C65.8326 30.005 67.0654 30.8974 68.2652 31.8007C68.3587 31.871 68.4523 31.9359 68.5404 32.0062C68.6229 32.0657 68.7055 32.1252 68.788 32.1901C68.8486 32.2334 68.9036 32.2767 68.9641 32.3254C68.9752 32.3308 68.9862 32.3416 68.9972 32.3524C69.0357 32.3794 69.0687 32.4065 69.1072 32.4389C69.5145 32.7472 69.9218 33.0555 70.3235 33.3693C71.6444 34.3915 72.8938 35.3975 74.0495 36.3657C74.0495 36.3657 74.0385 36.3711 74.0385 36.3765C74.1321 36.4577 74.2312 36.5334 74.3247 36.6145C74.4238 36.5442 74.5284 36.4685 74.6219 36.4036C74.6164 36.4036 74.6109 36.3928 74.6054 36.3874C73.3726 35.3435 72.0847 34.2942 70.7418 33.2449C70.2355 32.85 69.7236 32.4606 69.2118 32.0711C69.0687 31.963 68.9036 31.8386 68.722 31.7033C68.6614 31.6547 68.5954 31.6114 68.5349 31.5627C67.1094 30.508 65.0015 29.0098 64.9024 28.9449C64.7924 28.8691 64.4401 28.6258 64.3796 28.5825C62.9321 27.5873 59.9822 25.6563 59.9822 25.6563L59.729 25.4833C59.6079 25.5428 59.4923 25.6077 59.3712 25.6726L59.5529 25.7916C59.6024 25.824 59.6354 25.8402 59.6795 25.8511H59.6905Z" fill="white"/>
<path d="M70.7473 33.2394C72.0902 34.2887 73.3781 35.338 74.6109 36.3819C74.6164 36.3819 74.6219 36.3928 74.6274 36.3982C74.6274 36.3982 74.6384 36.3928 74.6384 36.3874C73.3891 35.3272 72.0847 34.2779 70.7473 33.2394Z" fill="white"/>
<path d="M68.5404 31.5627C68.6009 31.6114 68.6669 31.6547 68.7275 31.7033C68.6669 31.6601 68.6009 31.6114 68.5404 31.5627Z" fill="white"/>
<path d="M41.8916 58.3416C42.0402 59.3855 42.2383 60.4348 42.4915 61.4679C42.2383 60.4348 42.0402 59.3801 41.8916 58.3416Z" fill="white"/>
<path d="M97.7759 63.8964L97.3466 63.9938L97.0219 64.0749V64.0641C96.7192 64.129 96.2789 64.2209 96.2513 64.2263L96.1303 64.2534C92.9216 64.9349 89.7955 65.492 86.8291 65.9085L86.3723 65.9734L86.4053 65.6543C86.2732 65.6759 86.1521 65.6921 86.0255 65.7083C80.742 66.4277 75.8878 66.736 71.4518 66.736C67.9955 66.736 64.7814 66.5467 61.8314 66.233C61.6993 66.2168 61.5617 66.2005 61.4296 66.1843C61.3966 66.1843 61.3636 66.1789 61.3306 66.1735L61.3691 66.4926L60.9178 66.4385C57.6211 66.0599 54.4069 65.492 51.3799 64.7456C50.7745 64.5995 48.7106 64.0154 47.9952 63.8153L47.797 63.7612C47.775 63.7558 47.7585 63.7504 47.7475 63.7504L47.2577 63.6097V63.5989C45.6341 63.0797 42.9483 62.0628 42.9208 62.052C42.8547 62.025 42.8107 62.0033 42.7832 61.9925L42.6291 61.9222C43.185 63.891 43.9169 65.8111 44.8361 67.6501C44.8966 67.7853 44.9681 67.9151 45.0342 68.0503C46.8449 71.5715 49.3105 74.8167 52.4311 77.586C56.1406 80.88 60.3839 83.1733 64.8364 84.466C64.974 84.5038 65.1171 84.5471 65.2602 84.585C68.056 85.3584 70.9345 85.7479 73.8074 85.7479C76.3281 85.7479 78.8377 85.4504 81.2979 84.8716L81.7602 84.7527C87.9518 83.1787 93.7362 79.7387 98.2602 74.503C98.9922 73.6484 99.6746 72.7776 100.302 71.8743C100.401 71.7391 100.489 71.6093 100.572 71.4741C100.649 71.3713 100.726 71.2632 100.797 71.1496V71.1388C100.797 71.1388 100.836 71.0901 100.852 71.0684C100.852 71.063 100.858 71.063 100.858 71.0522C102.713 68.2396 104.083 65.2053 104.986 62.0736L104.562 62.1926C102.267 62.8255 99.9828 63.3988 97.7814 63.8964H97.7759ZM100.313 71.7932V71.777L100.319 71.7662C100.319 71.777 100.319 71.7824 100.313 71.7878V71.7932Z" fill="white"/>
<path d="M96.8567 63.745C96.6971 63.7828 96.5375 63.8153 96.3834 63.8531C93.0592 64.5833 89.8671 65.1621 86.8346 65.5948H86.818C86.686 65.6164 86.5539 65.6326 86.4328 65.6488C86.4273 65.6488 86.4163 65.6488 86.4108 65.6488L86.3778 65.968L86.8346 65.9031C89.801 65.4866 92.9326 64.9349 96.1358 64.248L96.2568 64.2209C96.2844 64.2209 96.7247 64.1236 97.0219 64.0587L96.8953 63.8153C96.8953 63.8153 96.8677 63.7666 96.8567 63.7395V63.745Z" fill="white"/>
<path d="M97.3521 63.9938L97.7814 63.9018C97.6878 63.918 97.5887 63.9397 97.4897 63.9613L97.3521 63.9938Z" fill="white"/>
<path d="M100.313 71.7932C100.313 71.7932 100.319 71.777 100.319 71.7716L100.302 71.7824V71.7986L100.313 71.7932Z" fill="white"/>
<path d="M61.0389 66.1465C57.3734 65.7246 54.0932 65.0863 51.2258 64.3561C50.1636 64.0857 49.1619 63.8045 48.2098 63.5124C48.1878 63.5448 48.1658 63.5719 48.1438 63.6043L47.9952 63.8099C48.7106 64.01 50.7745 64.5941 51.3799 64.7402C54.4124 65.4866 57.6211 66.0545 60.9178 66.4331L61.3691 66.4872L61.3306 66.1681C61.237 66.1573 61.1434 66.1519 61.0499 66.141H61.0334L61.0389 66.1465Z" fill="white"/>
<path d="M47.2632 63.5935V63.6043L47.7475 63.745C47.753 63.745 47.7695 63.7504 47.797 63.7558L47.5218 63.6746C47.4393 63.6476 47.3567 63.6205 47.2687 63.5935H47.2632Z" fill="white"/>
<path d="M104.887 61.7437L104.688 61.7978L104.573 61.8302L104.474 61.8519C102.988 62.263 101.491 62.6416 99.9993 63.004C99.2453 63.1879 98.4968 63.3717 97.7483 63.5448H97.7428C97.6878 63.5556 97.6383 63.5719 97.5832 63.5827L97.7759 63.8964C99.9773 63.3988 102.261 62.8309 104.556 62.1926L104.98 62.0736C105.019 61.9438 105.063 61.8086 105.096 61.6788L104.887 61.7383V61.7437Z" fill="white"/>
<path d="M97.0219 64.0641V64.0749L97.3521 63.9938L97.297 64.0046C97.297 64.0046 97.176 64.0316 97.0274 64.0641H97.0219Z" fill="white"/>
<path d="M96.9723 63.7233C96.9338 63.7341 96.8953 63.7395 96.8567 63.7504C96.8677 63.772 96.8843 63.799 96.8953 63.8261L97.0219 64.0695C97.176 64.037 97.2915 64.01 97.2915 64.01L97.3466 63.9992L97.4842 63.9667C97.5777 63.9451 97.6768 63.9234 97.7759 63.9018L97.5832 63.5881C97.5062 63.6043 97.4291 63.626 97.3521 63.6422C97.231 63.6746 97.0989 63.7071 96.9723 63.7287V63.7233Z" fill="white"/>
<path d="M104.887 61.7058H104.876C103.219 62.1818 101.595 62.6091 99.9993 63.004C101.491 62.6416 102.982 62.263 104.474 61.8519L104.573 61.8302L104.688 61.7978L104.887 61.7437L105.096 61.6842C105.096 61.6842 105.101 61.6572 105.107 61.6463C105.035 61.668 104.958 61.6842 104.881 61.7113L104.887 61.7058Z" fill="white"/>
<path d="M47.9897 63.8153C47.9016 63.7882 47.8301 63.7666 47.7915 63.7558L47.9897 63.8153Z" fill="white"/>
<path d="M42.9153 62.0466C42.9428 62.0574 45.6286 63.0689 47.2577 63.5935L47.4778 63.2906C47.1696 63.1933 46.8229 63.0797 46.4541 62.9499C45.535 62.647 44.6709 62.3387 43.8674 62.025C43.3721 61.8411 43.0419 61.7167 43.0419 61.7167C43.0419 61.7167 42.9648 61.6842 42.9428 61.6734L42.4915 61.4679C42.53 61.6193 42.5796 61.7653 42.6236 61.9168L42.7777 61.9871C42.7777 61.9871 42.8437 62.0196 42.9153 62.0466Z" fill="white"/>
<path d="M48.2043 63.5124C48.1658 63.5016 48.1162 63.4853 48.0777 63.4745C48.0227 63.4583 47.9731 63.4421 47.9181 63.4258C47.8741 63.415 47.8411 63.4042 47.8411 63.4042C47.764 63.3826 47.6925 63.3609 47.6154 63.3339C47.5714 63.3231 47.5218 63.3068 47.4778 63.2906L47.2577 63.5935C47.3457 63.6205 47.4338 63.6476 47.5108 63.6746L47.786 63.7558C47.8301 63.7666 47.8961 63.7882 47.9842 63.8099L48.1328 63.6043C48.1548 63.5719 48.1768 63.5448 48.1988 63.5124H48.2043Z" fill="white"/>
<path d="M47.8411 63.4042C47.8411 63.4042 47.8741 63.415 47.9181 63.4258C47.8906 63.4204 47.8686 63.4096 47.8411 63.3988V63.4042Z" fill="white"/>
<path d="M47.3127 63.2365H47.2962C47.01 63.1392 46.7348 63.0472 46.4541 62.9553C46.8229 63.0797 47.1696 63.1987 47.4778 63.296C47.4228 63.2744 47.3622 63.2582 47.3072 63.2365H47.3127Z" fill="white"/>
<path d="M43.0474 61.7167C43.0474 61.7167 43.3776 61.8411 43.8729 62.025C43.4491 61.8627 43.0364 61.695 42.6456 61.5328H42.6236C42.574 61.5111 42.541 61.4841 42.4915 61.4679L42.9428 61.6734L43.0419 61.7167H43.0474Z" fill="white"/>
<path d="M47.8411 63.4042C47.7915 63.388 47.7365 63.3717 47.687 63.3555C47.6154 63.3339 47.5494 63.3123 47.4778 63.2906C47.5218 63.3123 47.5714 63.3231 47.6154 63.3393C47.6925 63.3609 47.764 63.3826 47.8411 63.4096V63.4042Z" fill="white"/>
<path d="M73.7413 50.2176C71.6224 50.2176 69.9053 51.9051 69.9053 53.9875C69.9053 56.0699 71.6224 57.752 73.7413 57.752C75.8602 57.752 77.5719 56.0699 77.5719 53.9875C77.5719 51.9051 75.8547 50.2176 73.7413 50.2176Z" fill="white"/>
<path d="M41.4733 121.132C41.3467 121.132 41.2312 121.181 41.1431 121.262C41.055 121.348 41.0055 121.462 41.0055 121.586V125.465C41.0055 125.589 41.055 125.697 41.1431 125.789C41.2257 125.87 41.3467 125.919 41.4733 125.919C41.5999 125.919 41.71 125.87 41.8035 125.789C41.8916 125.703 41.9356 125.589 41.9356 125.465V121.586C41.9356 121.462 41.8861 121.354 41.8035 121.262C41.7155 121.181 41.5999 121.132 41.4733 121.132Z" fill="white"/>
<path d="M50.059 121.132C49.9325 121.132 49.8169 121.181 49.7288 121.262C49.6408 121.348 49.5912 121.462 49.5912 121.586V124.166L47.3347 121.278C47.2467 121.186 47.1201 121.132 46.988 121.132C46.8559 121.132 46.7513 121.181 46.6578 121.262C46.5752 121.343 46.5202 121.462 46.5202 121.586V125.465C46.5202 125.589 46.5697 125.697 46.6578 125.789C46.7458 125.87 46.8614 125.919 46.988 125.919C47.1146 125.919 47.2246 125.87 47.3182 125.789C47.4063 125.703 47.4503 125.589 47.4503 125.465V122.885L49.7123 125.778C49.8004 125.865 49.9214 125.919 50.059 125.919C50.1801 125.919 50.2847 125.876 50.3727 125.794C50.4663 125.708 50.5158 125.589 50.5158 125.465V121.586C50.5158 121.462 50.4663 121.343 50.3727 121.257C50.2847 121.175 50.1746 121.132 50.059 121.132Z" fill="white"/>
<path d="M56.757 122.966C56.3938 122.906 56.2066 122.809 56.1241 122.739C56.025 122.663 55.981 122.576 55.981 122.463C55.981 122.268 56.058 122.181 56.1241 122.127C56.2397 122.041 56.4158 121.992 56.6414 121.992C56.9496 121.992 57.1753 122.095 57.3294 122.327C57.4174 122.463 57.5605 122.538 57.7312 122.538C57.8137 122.538 57.8798 122.528 57.9348 122.495C58.0118 122.463 58.0724 122.409 58.1164 122.344C58.1659 122.273 58.1935 122.192 58.1935 122.095C58.1935 122.014 58.1714 121.938 58.1274 121.862C57.9953 121.646 57.7917 121.457 57.533 121.311C57.2633 121.159 56.9661 121.083 56.6524 121.083C56.3552 121.083 56.0856 121.138 55.8544 121.24C55.6067 121.354 55.4141 121.511 55.2765 121.716C55.1389 121.922 55.0674 122.16 55.0674 122.425C55.0674 122.809 55.216 123.123 55.5132 123.388C55.7884 123.631 56.1626 123.782 56.6249 123.847C56.9111 123.891 57.1202 123.966 57.2523 124.08C57.3679 124.183 57.4174 124.307 57.4174 124.469C57.4174 124.734 57.3239 124.843 57.2523 124.902C57.1258 125.01 56.9386 125.059 56.702 125.059C56.4818 125.059 56.2892 125.021 56.1406 124.945C55.9975 124.875 55.8929 124.772 55.8324 124.664C55.7498 124.496 55.5957 124.394 55.4031 124.394C55.2435 124.394 55.1389 124.459 55.0784 124.518C54.9903 124.599 54.9353 124.713 54.9353 124.837C54.9353 124.907 54.9518 124.972 54.9848 125.037C55.1334 125.329 55.3646 125.562 55.6728 125.73C55.9645 125.886 56.3167 125.968 56.7075 125.968C57.0267 125.968 57.2964 125.908 57.544 125.8C57.7972 125.675 57.9953 125.492 58.1384 125.264C58.276 125.037 58.3476 124.767 58.3476 124.469C58.3476 124.058 58.21 123.723 57.9348 123.469C57.6816 123.22 57.2909 123.058 56.7735 122.971L56.757 122.966Z" fill="white"/>
<path d="M66.1573 121.132C66.0307 121.132 65.9206 121.175 65.8326 121.257C65.7665 121.316 65.6895 121.419 65.6895 121.586V124.253C65.6895 124.41 65.6454 124.55 65.5684 124.675C65.4858 124.805 65.3647 124.902 65.2161 124.972C65.062 125.048 64.8749 125.091 64.6658 125.091C64.4566 125.091 64.2805 125.048 64.1154 124.972C63.9668 124.902 63.8567 124.799 63.7742 124.68C63.6916 124.55 63.6531 124.415 63.6531 124.253V121.586C63.6531 121.43 63.5816 121.321 63.521 121.262C63.4605 121.202 63.3559 121.132 63.1853 121.132C63.0587 121.132 62.9541 121.175 62.8606 121.257C62.7945 121.316 62.723 121.419 62.723 121.586V124.253C62.723 124.588 62.8055 124.891 62.9762 125.156C63.1413 125.427 63.3779 125.638 63.6806 125.784C63.9668 125.924 64.3025 126 64.6603 126C65.018 126 65.3537 125.924 65.6454 125.784C65.9426 125.638 66.1848 125.427 66.3499 125.162C66.5205 124.897 66.6086 124.588 66.6086 124.253V121.586C66.6086 121.43 66.537 121.321 66.4765 121.262C66.4159 121.202 66.3114 121.132 66.1463 121.132H66.1573Z" fill="white"/>
<path d="M73.6037 124.037C73.7909 123.939 73.945 123.804 74.066 123.636C74.2752 123.371 74.3743 123.058 74.3743 122.701C74.3743 122.403 74.3027 122.133 74.1596 121.889C74.0165 121.651 73.8129 121.462 73.5542 121.327C73.3065 121.197 73.0203 121.132 72.7066 121.132H71.6609C71.5399 121.132 71.4298 121.175 71.3362 121.257C71.2757 121.316 71.1986 121.419 71.1986 121.586V125.465C71.1986 125.589 71.2482 125.697 71.3362 125.789C71.4188 125.876 71.5344 125.919 71.6609 125.919C71.8316 125.919 71.9416 125.843 72.0022 125.784C72.0847 125.697 72.1288 125.589 72.1288 125.465V124.253H72.6406L73.5597 125.697C73.6037 125.762 73.6478 125.816 73.7028 125.849C73.7743 125.897 73.8624 125.919 73.9615 125.919C74.0881 125.919 74.1871 125.892 74.2697 125.832C74.3798 125.757 74.4348 125.638 74.4348 125.502C74.4348 125.421 74.4128 125.324 74.3467 125.227L73.5927 124.042L73.6037 124.037ZM73.3616 123.031C73.301 123.128 73.2185 123.198 73.1084 123.258C72.9928 123.317 72.8662 123.339 72.7066 123.339H72.1288V122.041H72.7066C72.8607 122.041 72.9928 122.068 73.1084 122.127C73.2185 122.181 73.301 122.257 73.3616 122.354C73.4221 122.452 73.4496 122.565 73.4496 122.695C73.4496 122.825 73.4221 122.928 73.3616 123.025V123.031Z" fill="white"/>
<path d="M80.753 121.424C80.6705 121.24 80.5163 121.138 80.3182 121.138C80.1201 121.138 79.955 121.251 79.8889 121.43L78.2378 125.264C78.2103 125.329 78.1883 125.394 78.1883 125.465C78.1883 125.578 78.2323 125.686 78.3094 125.767C78.3974 125.859 78.5185 125.913 78.6561 125.913C78.8597 125.913 79.0193 125.8 79.0854 125.632L79.4156 124.864H81.2428L81.5731 125.632C81.6446 125.805 81.8042 125.913 81.9968 125.913C82.1234 125.913 82.2335 125.865 82.3271 125.778C82.4151 125.697 82.4646 125.578 82.4646 125.465C82.4646 125.389 82.4481 125.324 82.4206 125.275L80.764 121.424H80.753ZM79.7789 123.983L80.3182 122.717L80.8631 123.983H79.7789Z" fill="white"/>
<path d="M90.0982 121.132C89.9716 121.132 89.8616 121.181 89.768 121.262C89.6855 121.348 89.6359 121.462 89.6359 121.586V124.166L87.3794 121.284C87.2914 121.186 87.1648 121.132 87.0327 121.132C86.9006 121.132 86.785 121.181 86.7025 121.262C86.6144 121.348 86.5649 121.462 86.5649 121.586V125.465C86.5649 125.589 86.6144 125.697 86.7025 125.789C86.785 125.87 86.9006 125.919 87.0327 125.919C87.1648 125.919 87.2693 125.87 87.3629 125.789C87.4455 125.703 87.495 125.589 87.495 125.465V122.885L89.757 125.767C89.8396 125.859 89.9661 125.913 90.0982 125.913C90.2303 125.913 90.3294 125.87 90.423 125.789C90.511 125.703 90.566 125.589 90.566 125.459V121.581C90.566 121.457 90.511 121.338 90.423 121.251C90.3349 121.17 90.2248 121.127 90.0982 121.127V121.132Z" fill="white"/>
<path d="M96.6311 122.198C96.8622 122.057 97.1044 121.992 97.3686 121.992C97.7483 121.992 98.051 122.084 98.2767 122.284C98.3868 122.376 98.4913 122.419 98.6069 122.419C98.7445 122.419 98.8711 122.365 98.9591 122.263C99.0307 122.181 99.0747 122.073 99.0747 121.965C99.0747 121.824 99.0142 121.705 98.9151 121.63C98.4748 121.267 97.952 121.083 97.3741 121.083C96.9338 121.083 96.521 121.197 96.1468 121.419C95.7835 121.635 95.4863 121.943 95.2717 122.311C95.057 122.69 94.9415 123.09 94.9415 123.523C94.9415 123.955 95.057 124.367 95.2717 124.745C95.4918 125.113 95.789 125.421 96.1578 125.638C96.5265 125.859 96.9393 125.973 97.3741 125.973C98.0345 125.973 98.5629 125.789 98.9426 125.41C99.0197 125.329 99.0582 125.221 99.0582 125.108C99.0582 124.983 99.0032 124.864 98.9096 124.778C98.8216 124.696 98.7115 124.648 98.5904 124.648C98.4968 124.648 98.4033 124.675 98.3152 124.74C98.0455 124.956 97.7373 125.064 97.3741 125.064C97.1044 125.064 96.8567 124.999 96.6201 124.859C96.3889 124.724 96.2073 124.534 96.0642 124.302C95.9266 124.064 95.8606 123.809 95.8606 123.528C95.8606 123.247 95.9266 123.014 96.0697 122.776C96.2073 122.533 96.3944 122.349 96.6311 122.203V122.198Z" fill="white"/>
<path d="M106.538 122.041C106.659 122.041 106.774 121.992 106.862 121.906C106.95 121.824 107 121.705 107 121.586C107 121.467 106.95 121.343 106.862 121.257C106.774 121.175 106.659 121.132 106.538 121.132H103.912C103.78 121.132 103.665 121.181 103.577 121.262C103.494 121.348 103.445 121.462 103.445 121.586V125.465C103.445 125.589 103.494 125.697 103.577 125.789C103.665 125.87 103.78 125.919 103.912 125.919H106.538C106.659 125.919 106.769 125.876 106.857 125.794C106.95 125.708 107 125.594 107 125.465C107 125.335 106.95 125.232 106.868 125.14C106.78 125.053 106.659 125.005 106.538 125.005H104.375V123.983H105.883C106.015 123.983 106.125 123.928 106.218 123.842C106.301 123.755 106.351 123.642 106.351 123.517C106.351 123.393 106.301 123.285 106.213 123.193C106.13 123.112 106.009 123.063 105.883 123.063H104.375V122.035H106.538V122.041Z" fill="white"/>
<path d="M58.9585 98.426C58.4191 97.5336 57.7807 96.7223 57.0432 95.9921C56.3057 95.2565 55.4802 94.6237 54.5665 94.1044C53.6584 93.5744 52.6788 93.1741 51.6386 92.882C50.5984 92.6008 49.5142 92.4548 48.3859 92.4548H41V116.529H48.3804C49.5087 116.529 50.5929 116.389 51.6331 116.102C52.6788 115.815 53.6529 115.41 54.561 114.88C55.4747 114.36 56.3002 113.722 57.0377 112.992C57.7807 112.256 58.4191 111.45 58.953 110.558C59.4923 109.671 59.8996 108.708 60.1858 107.691C60.4775 106.664 60.6206 105.603 60.6206 104.495C60.6206 103.386 60.4775 102.32 60.1858 101.293C59.8996 100.27 59.4868 99.3185 58.953 98.426H58.9585ZM55.1554 107.302C54.7757 108.183 54.2473 108.952 53.5869 109.601C52.9209 110.255 52.1394 110.774 51.2423 111.147C50.3507 111.526 49.3986 111.705 48.3804 111.705H45.9423V97.274H48.3804C49.3931 97.274 50.3507 97.4633 51.2423 97.8419C52.1394 98.2205 52.9209 98.7398 53.5869 99.3942C54.2528 100.043 54.7757 100.811 55.1554 101.688C55.5352 102.558 55.7278 103.494 55.7278 104.489C55.7278 105.485 55.5352 106.42 55.1554 107.296V107.302Z" fill="white"/>
<path d="M106.411 107.621C106.703 106.593 106.851 105.533 106.851 104.43C106.851 103.326 106.703 102.255 106.411 101.228C106.119 100.195 105.712 99.2428 105.184 98.3503C104.65 97.4633 104.017 96.652 103.269 95.9164C102.515 95.1754 101.689 94.548 100.786 94.0287C99.8838 93.5149 98.9096 93.1092 97.8639 92.8225C96.8127 92.5359 95.7285 92.3953 94.6057 92.3953C93.483 92.3953 92.3988 92.5359 91.3531 92.8225C90.3129 93.1092 89.3387 93.5149 88.4306 94.0287C87.5225 94.548 86.6915 95.1754 85.943 95.9164C85.1945 96.6574 84.5505 97.4633 84.0167 98.3503C83.4828 99.2428 83.0756 100.2 82.7839 101.228C82.4922 102.255 82.3436 103.321 82.3436 104.43C82.3436 105.539 82.4922 106.593 82.7839 107.621C83.0756 108.643 83.4883 109.601 84.0167 110.493C84.556 111.391 85.2 112.208 85.943 112.938C86.697 113.679 87.5225 114.306 88.4306 114.831C89.3387 115.356 90.3184 115.761 91.3531 116.053C92.3988 116.34 93.4775 116.481 94.6057 116.481C95.734 116.481 96.8127 116.34 97.8639 116.053C98.9096 115.767 99.8838 115.361 100.786 114.831C101.689 114.301 102.52 113.673 103.269 112.938C104.012 112.202 104.65 111.391 105.184 110.493C105.712 109.601 106.119 108.638 106.411 107.621ZM101.546 107.296C101.15 108.189 100.616 108.968 99.9333 109.644C99.2563 110.315 98.4583 110.845 97.5392 111.234C96.6146 111.629 95.6349 111.818 94.6057 111.818C93.5766 111.818 92.5749 111.623 91.6613 111.234C90.7422 110.85 89.9496 110.315 89.2617 109.644C88.5737 108.968 88.0399 108.189 87.6436 107.296C87.2418 106.399 87.0492 105.441 87.0492 104.43C87.0492 103.418 87.2473 102.45 87.6436 101.547C88.0399 100.644 88.5737 99.8594 89.2617 99.1887C89.9496 98.518 90.7422 97.9933 91.6613 97.6039C92.5749 97.2091 93.5545 97.0198 94.6057 97.0198C95.6569 97.0198 96.6146 97.2145 97.5392 97.6039C98.4583 97.9933 99.2563 98.518 99.9333 99.1887C100.616 99.8594 101.15 100.644 101.546 101.547C101.948 102.45 102.14 103.413 102.14 104.43C102.14 105.447 101.942 106.399 101.546 107.296Z" fill="white"/>
<path d="M79.3716 101.98H74.4513V108.611C74.4513 111.158 73.4716 112.397 71.4518 112.397C70.8574 112.397 70.3456 112.305 69.9273 112.126C69.52 111.953 69.1788 111.721 68.9146 111.429C68.6504 111.142 68.4523 110.807 68.3147 110.412C68.1826 110.022 68.1166 109.59 68.1166 109.141C68.1166 108.048 68.4303 107.275 69.0852 106.772C69.7567 106.253 70.7363 105.988 71.9912 105.988H72.3544V101.985H71.9912C70.5987 101.985 69.6136 101.774 69.0522 101.352C68.5128 100.957 68.2542 100.335 68.2542 99.4645C68.2542 98.4369 68.5183 97.6905 69.0357 97.2578C69.5695 96.8142 70.5657 96.5871 71.9967 96.5871H72.3599V92.0599H71.9967C70.6978 92.0599 69.5035 92.2222 68.4633 92.5467C67.4011 92.8712 66.471 93.3418 65.6895 93.9368C64.9079 94.5425 64.297 95.2727 63.8788 96.1111C63.4495 96.9549 63.2293 97.9068 63.2293 98.9399C63.2293 101.147 63.9943 102.786 65.4968 103.813C65.2657 103.981 65.0455 104.186 64.8309 104.424C64.4732 104.825 64.1649 105.29 63.9173 105.804C63.6696 106.328 63.4825 106.869 63.3394 107.47C63.2018 108.075 63.1303 108.643 63.1303 109.211C63.1303 110.277 63.3174 111.294 63.6916 112.224C64.0714 113.16 64.6217 113.976 65.3317 114.658C66.0527 115.35 66.9388 115.891 67.957 116.275C68.9807 116.664 70.1639 116.865 71.4793 116.865C72.6461 116.865 73.7193 116.664 74.677 116.275C75.6346 115.891 76.4711 115.323 77.1701 114.593C77.8636 113.868 78.4084 112.992 78.7937 111.986C79.179 110.974 79.3716 109.844 79.3716 108.616V101.98ZM76.9059 114.349C76.2455 115.042 75.453 115.577 74.5394 115.945C73.6202 116.324 72.6021 116.508 71.4793 116.508C70.208 116.508 69.0742 116.318 68.0891 115.945C67.1039 115.577 66.2673 115.058 65.5849 114.404C64.9024 113.755 64.3851 112.981 64.0274 112.094C63.6696 111.202 63.488 110.244 63.488 109.217C63.488 108.676 63.554 108.124 63.6861 107.551C63.8237 106.977 64.0108 106.447 64.242 105.955C64.4787 105.463 64.7648 105.036 65.1006 104.657C65.4363 104.284 65.794 103.997 66.1738 103.813C64.4511 102.877 63.5816 101.255 63.5816 98.9399C63.5816 97.9555 63.7852 97.0684 64.1925 96.2734C64.5942 95.4837 65.1666 94.7968 65.9041 94.218C66.6416 93.6501 67.5277 93.2012 68.5624 92.8875C69.5861 92.5683 70.7363 92.4169 71.9857 92.4169V96.2355C70.4611 96.2355 69.3934 96.4897 68.7935 96.9927C68.1881 97.4957 67.8854 98.3179 67.8854 99.4699C67.8854 100.449 68.1991 101.179 68.8266 101.639C69.454 102.109 70.5052 102.342 71.9857 102.342V105.636C70.6428 105.636 69.5971 105.923 68.8596 106.496C68.1221 107.064 67.7533 107.951 67.7533 109.141C67.7533 109.633 67.8249 110.098 67.968 110.525C68.1166 110.958 68.3367 111.342 68.6449 111.667C68.9421 111.997 69.3274 112.262 69.7842 112.451C70.2465 112.651 70.7969 112.748 71.4518 112.748C73.6918 112.748 74.8145 111.369 74.8145 108.611V102.337H79.0138V108.611C79.0138 109.806 78.8267 110.888 78.458 111.861C78.0892 112.83 77.5664 113.663 76.9114 114.349H76.9059Z" fill="white"/>
<path d="M79.0083 102.337H74.809V108.611C74.809 111.375 73.6863 112.748 71.4463 112.748C70.7969 112.748 70.241 112.651 69.7787 112.451C69.3219 112.256 68.9366 111.991 68.6394 111.667C68.3367 111.337 68.1166 110.958 67.9625 110.525C67.8194 110.098 67.7478 109.633 67.7478 109.141C67.7478 107.951 68.1111 107.064 68.8541 106.496C69.5916 105.923 70.6373 105.636 71.9802 105.636V102.342C70.4997 102.342 69.4485 102.109 68.821 101.639C68.1936 101.174 67.8799 100.449 67.8799 99.4699C67.8799 98.3233 68.1826 97.5011 68.788 96.9927C69.3879 96.4897 70.4611 96.2355 71.9802 96.2355V92.4169C70.7253 92.4169 69.5806 92.5683 68.5569 92.8875C67.5222 93.2012 66.6416 93.6501 65.8986 94.218C65.1611 94.7913 64.5832 95.4783 64.187 96.2734C63.7797 97.0684 63.5761 97.9555 63.5761 98.9399C63.5761 101.255 64.4401 102.883 66.1683 103.813C65.783 104.003 65.4253 104.284 65.0951 104.657C64.7593 105.03 64.4732 105.463 64.2365 105.955C64.0053 106.447 63.8182 106.977 63.6806 107.551C63.5485 108.124 63.4825 108.676 63.4825 109.217C63.4825 110.25 63.6641 111.207 64.0219 112.094C64.3796 112.981 64.8969 113.755 65.5794 114.404C66.2673 115.058 67.0984 115.577 68.0836 115.945C69.0687 116.324 70.2025 116.508 71.4738 116.508C72.5966 116.508 73.6147 116.318 74.5339 115.945C75.453 115.577 76.24 115.042 76.9004 114.349C77.5554 113.663 78.0782 112.83 78.447 111.861C78.8157 110.888 79.0028 109.812 79.0028 108.611V102.337H79.0083ZM78.6506 108.611C78.6506 109.752 78.469 110.807 78.1167 111.737C77.7645 112.657 77.2692 113.452 76.6473 114.106C76.0198 114.761 75.2658 115.269 74.4018 115.615C73.5322 115.972 72.547 116.151 71.4793 116.151C70.2575 116.151 69.1568 115.972 68.2211 115.61C67.291 115.264 66.4875 114.771 65.8381 114.144C65.1996 113.533 64.7043 112.797 64.3631 111.959C64.0163 111.099 63.8512 110.201 63.8512 109.211C63.8512 108.697 63.9118 108.178 64.0384 107.626C64.1704 107.075 64.3411 106.577 64.5667 106.101C64.7869 105.641 65.051 105.241 65.3702 104.884C65.6729 104.543 65.9977 104.289 66.3334 104.121L66.9443 103.819L66.3444 103.494C64.7263 102.618 63.9393 101.125 63.9393 98.9291C63.9393 97.9933 64.1264 97.1712 64.5117 96.4194C64.8859 95.6784 65.4308 95.0293 66.1243 94.4885C66.8342 93.9422 67.6873 93.5149 68.6669 93.2174C69.542 92.947 70.5382 92.7955 71.6224 92.7685V95.8785C70.186 95.9164 69.1788 96.1922 68.5569 96.7169C67.8689 97.2902 67.5222 98.2151 67.5222 99.4591C67.5222 100.552 67.8854 101.379 68.6064 101.909C69.2503 102.391 70.241 102.645 71.6224 102.683V105.284C70.3676 105.333 69.3659 105.647 68.6339 106.215C67.8084 106.848 67.3901 107.832 67.3901 109.141C67.3901 109.671 67.4671 110.174 67.6212 110.639C67.7864 111.126 68.0395 111.553 68.3697 111.905C68.7055 112.273 69.1293 112.565 69.6301 112.776C70.1309 112.997 70.7418 113.105 71.4408 113.105C73.1359 113.105 75.1613 112.327 75.1613 108.611V102.688H78.6451V108.611H78.6506Z" fill="white"/>
</svg>
