<svg width="148" height="148" viewBox="0 0 148 148" fill="none" xmlns="http://www.w3.org/2000/svg">
<path d="M61.5777 35.3296C61.5777 35.3296 61.6012 35.311 61.6154 35.3063C61.573 35.2503 61.5307 35.1896 61.4836 35.1383C61.4789 35.1523 61.4695 35.1616 61.4601 35.171C61.5024 35.2223 61.5401 35.2736 61.5777 35.3296Z" fill="white"/>
<path d="M59.8505 41.2282C59.9729 41.1862 60.0388 41.1302 60.0199 41.0649C59.9023 41.1162 59.7752 41.1535 59.6575 41.2048C59.5493 41.3075 59.3563 41.3262 59.1963 41.3635C59.1963 41.3775 59.1963 41.3868 59.201 41.4008C59.4175 41.3588 59.6387 41.3122 59.8458 41.2282H59.8505Z" fill="white"/>
<path d="M53.2664 38.2649L53.257 38.1529C53.2993 38.0409 53.2805 37.8869 53.2758 37.7376L53.0876 37.6069L53.1064 38.0176C53.0687 38.0269 53.0217 38.0036 53.0311 38.1809L53.0593 38.4329L52.9322 38.4702C52.9558 38.6616 52.9981 38.8436 53.0499 39.0302C53.0923 39.2169 53.1534 39.3942 53.224 39.5762C53.2335 39.6835 53.2193 39.7395 53.144 39.6042C53.0781 39.4782 53.0217 39.2916 52.9511 39.2076C52.9228 39.1142 52.8946 39.0162 52.8758 38.9229C52.8052 38.5729 52.7252 38.4142 52.6169 38.2649C52.584 38.2182 52.551 38.2789 52.5604 38.3722C52.5887 38.7222 52.6593 39.0722 52.7769 39.4129C52.9134 39.8562 53.0781 40.2949 53.3135 40.7009L53.4029 41.0229C53.3935 41.0882 53.4688 41.1955 53.5535 41.2982C53.6523 41.4288 53.7511 41.5548 53.8641 41.6715C54.0665 41.9095 54.2971 42.1195 54.5324 42.3295C54.6359 42.4228 54.7395 42.4788 54.8289 42.5068C54.9889 42.6328 55.163 42.7402 55.3419 42.8428C55.5301 42.9595 55.7325 43.0528 55.9349 43.1462C56.109 43.2348 56.3067 43.2581 56.4761 43.3655L56.6408 43.3841C56.6926 43.4075 56.7491 43.4168 56.8008 43.4355L56.9467 43.4728L57.102 43.5148C57.2291 43.5475 57.342 43.5801 57.4032 43.6221L57.5538 43.6455L57.5632 43.5988L57.7138 43.6268V43.6688L57.8645 43.6921C57.8645 43.6781 57.8692 43.6641 57.8739 43.6501H57.9492L58.0245 43.6595C58.0574 43.6548 58.0951 43.6548 58.1374 43.6595C58.1609 43.6455 58.1751 43.6361 58.1845 43.6221C58.4904 43.6501 58.7963 43.6221 59.1022 43.6035C59.314 43.5801 59.5258 43.5475 59.7329 43.5148L59.8929 43.4775C60.1423 43.4168 60.3917 43.3468 60.6318 43.2488C60.7165 43.1648 60.82 43.1368 60.9377 43.1275L61.2153 43.0015C61.493 42.8568 61.813 42.7028 62.0013 42.4835C61.9401 42.5208 61.8883 42.5628 61.8224 42.5908C61.8836 42.5582 61.9401 42.5208 62.0013 42.4835L62.2272 42.3108C62.3354 42.2408 62.4249 42.1615 62.5002 42.1475C62.7355 41.9468 62.9473 41.7228 63.1543 41.4895L63.1073 41.4615C63.1355 41.4148 63.1543 41.3588 63.1732 41.3075C63.4649 41.0322 63.7332 40.6729 63.8885 40.2809C64.0109 39.9915 64.105 39.7395 64.2274 39.4595C64.3027 39.2822 64.3403 39.0769 64.3874 38.8809C64.4721 38.3676 64.5145 37.8449 64.5239 37.3269C64.538 37.3269 64.5521 37.3223 64.5615 37.3223C64.5521 36.9629 64.4909 36.5989 64.4109 36.2489C64.3591 36.0529 64.3215 35.8476 64.2368 35.6609C64.1615 35.465 64.218 35.5256 64.2462 35.4976C64.2744 35.4696 64.1944 35.2923 64.1474 35.185C64.0862 35.1383 64.025 35.0356 63.9685 34.9236C63.785 34.695 63.6344 34.429 63.4885 34.1583C63.4132 34.0276 63.432 33.9763 63.4602 33.9343L63.3661 33.8083C63.1261 33.5097 62.8625 33.239 62.6084 32.9683C62.5237 32.861 62.3778 32.7677 62.2554 32.6743C62.1331 32.6557 61.9495 32.4877 61.7895 32.4317C61.8413 32.5157 61.9307 32.6043 61.8883 32.637V32.6603L61.7566 32.5623C61.6954 32.469 61.606 32.413 61.493 32.4037C61.3659 32.287 61.1965 32.1983 61.1071 32.1003C61.0177 32.0023 60.853 31.9323 60.6882 31.8763C60.4294 31.8437 60.1517 31.783 59.8646 31.671C59.6387 31.573 59.3799 31.5497 59.1257 31.5077C58.8669 31.4984 58.608 31.4657 58.3445 31.4844L58.1751 31.447L57.855 31.461L57.6809 31.4797L57.695 31.4984L57.3844 31.5357C57.3279 31.545 57.2668 31.5544 57.2103 31.5684L56.9091 31.643H56.9138C56.7538 31.6804 56.5985 31.7224 56.4479 31.783C56.3914 31.8437 56.2784 31.8903 56.1561 31.937C55.9584 32.0117 55.7749 32.1097 55.5819 32.1983C55.5725 32.189 55.5631 32.175 55.5537 32.161C55.4595 32.2077 55.3701 32.2683 55.276 32.3197C55.2854 32.329 55.2854 32.343 55.2854 32.3617L55.1677 32.441C54.9795 32.5437 54.8195 32.6837 54.6453 32.805C54.5606 32.8657 54.4806 32.9357 54.4006 33.0103C54.3818 33.071 54.3394 33.1083 54.2782 33.1223C54.1606 33.225 54.0476 33.3323 53.9441 33.4537C53.9064 33.575 53.77 33.6963 53.6664 33.8316C53.6523 33.8316 53.6382 33.8223 53.6241 33.8176L53.3417 34.1956L53.0923 34.597C53.0923 34.597 53.1158 34.6156 53.1252 34.6296C53.0123 34.8163 52.9275 35.0216 52.8287 35.2176C52.744 35.4183 52.6734 35.6283 52.5981 35.8336C52.5557 35.9876 52.5134 36.1323 52.4475 36.2256C52.4334 36.3283 52.424 36.4356 52.424 36.5429L52.4428 36.7016C52.4051 36.9209 52.3816 37.1543 52.4804 37.1729C52.4804 37.1123 52.4804 37.0516 52.4899 36.9909L52.5793 36.7436C52.5793 36.7436 52.6028 36.7436 52.6169 36.7436C52.6546 36.9956 52.7534 36.8836 52.8428 36.7949C52.8569 37.0329 52.8946 37.0516 52.9558 36.8509C52.984 36.7529 53.0075 36.6316 53.0311 36.5243L53.1487 36.4169C53.1158 36.5476 53.1064 36.6829 53.1017 36.8089C53.097 36.9583 53.1252 37.0189 53.1817 36.9863C53.177 37.0236 53.177 37.0609 53.1817 37.0889C53.1534 37.2663 53.1534 37.4529 53.1534 37.6302C53.2052 37.6302 53.2476 37.5976 53.2382 37.4109C53.2287 37.2896 53.2523 37.2056 53.2758 37.1169V37.0983C53.3135 37.1543 53.3558 37.1636 53.4029 37.1029C53.4641 37.0329 53.5064 37.0703 53.5488 37.1356V37.3596L53.5346 37.4996L53.5817 37.5322C53.6147 37.5182 53.657 37.5323 53.6711 37.4856C53.7323 37.2943 53.7982 37.3689 53.8641 37.3923C53.8594 37.4296 53.8547 37.4669 53.8594 37.5042L53.85 37.6256H54.0335L54.0853 37.5136V37.3783C54.1041 37.2429 54.1371 37.1123 54.1794 36.9863C54.1982 36.8043 54.2453 36.6316 54.2924 36.4543C54.2453 36.6269 54.1982 36.8043 54.1794 36.9863C54.2406 36.9769 54.283 36.9163 54.3018 36.7716H54.3488L54.4383 36.7856C54.5136 36.6736 54.5653 36.5523 54.6077 36.4216C54.6689 36.2956 54.7112 36.1603 54.7771 36.0343C54.7677 36.0109 54.7395 35.9829 54.7536 35.9549C54.7865 35.8616 54.8242 35.7589 54.8759 35.6796C55.1301 35.311 55.3983 34.9563 55.7278 34.6483C55.869 34.5083 56.0384 34.3963 56.1984 34.275C56.2925 34.2236 56.349 34.1163 56.4714 34.107L56.4949 34.1536C56.589 34.107 56.6926 34.0883 56.7914 34.0556C56.942 33.911 56.9608 33.9203 57.1726 33.9016C57.2809 33.855 57.4032 33.8316 57.5162 33.8036C57.6291 33.771 57.7515 33.7477 57.8692 33.7337C57.9539 33.7197 58.0292 33.715 58.0762 33.743L58.2739 33.7337C58.3068 33.701 58.3445 33.701 58.3821 33.729C58.448 33.7243 58.5139 33.7243 58.5845 33.729C58.7257 33.7477 58.8904 33.715 58.9845 33.8036L59.2763 33.8503L59.3752 33.8736C59.4128 33.8503 59.4458 33.8596 59.474 33.897C59.6058 33.925 59.7281 33.9716 59.8552 34.0183C60.227 34.163 60.5847 34.345 60.8953 34.6016L60.9377 34.6296C60.9377 34.6296 60.9659 34.6483 60.9753 34.6623C61.1212 34.723 61.1259 34.7276 61.1965 34.863C61.2483 34.905 61.2906 34.961 61.3377 35.0076L61.4601 35.1476C61.5071 35.199 61.5495 35.2596 61.5918 35.3156L61.6483 35.3903C61.6483 35.3903 61.6248 35.409 61.6154 35.4183C61.6577 35.4696 61.6954 35.5256 61.7236 35.5816C61.7895 35.6983 61.8978 35.8149 61.8789 35.9409L61.9636 36.1136C61.9919 36.1369 62.0201 36.1603 62.0436 36.1883L62.0766 36.2769C62.1425 36.3236 62.1707 36.3889 62.1472 36.4683C62.1613 36.4963 62.1613 36.5289 62.1707 36.5616H62.1801C62.2037 36.6876 62.246 36.8043 62.2601 36.9303C62.2695 37.0143 62.2695 37.0843 62.246 37.1403C62.279 37.3969 62.2837 37.6582 62.2648 37.9149V38.0129L62.2554 38.0596V38.1062L62.2272 38.2929H62.2178C62.2037 38.4236 62.1566 38.5449 62.1284 38.6756V38.6849C62.1284 38.7129 62.1189 38.7409 62.1048 38.7642H62.0625L61.9966 38.9322L62.0389 38.9509C62.0107 39.0442 61.973 39.1329 61.926 39.2169L61.8836 39.1982C61.7048 39.5715 61.4742 39.9262 61.173 40.2155L61.1965 40.2482C61.1589 40.2995 61.1118 40.3369 61.0694 40.3789C60.9047 40.5375 60.7165 40.6682 60.5235 40.7895L60.3541 40.8922C60.3258 40.9109 60.3023 40.9295 60.2694 40.9435C60.3023 40.9855 60.3588 41.0042 60.4529 40.9155C60.5894 40.8082 60.7306 40.7149 60.8671 40.6075C60.9565 40.6215 61.0459 40.4909 61.1636 40.4582C61.0836 40.5515 61.0036 40.6262 60.9141 40.6869C60.8059 40.7662 60.7024 40.8502 60.6035 40.9342C60.5141 41.0135 60.3964 41.0555 60.307 41.1022C60.067 41.2515 59.794 41.3402 59.5258 41.4195C59.4034 41.4522 59.2999 41.4708 59.1916 41.4568L59.0975 41.5128C58.9281 41.5455 58.7586 41.5502 58.5845 41.5595C58.3821 41.5595 58.1751 41.5595 57.9727 41.5268L57.7656 41.4942C57.6997 41.4895 57.6338 41.4708 57.568 41.4568L57.4456 41.4755C57.3091 41.4615 57.1773 41.4288 57.0456 41.3915C57.0691 41.4102 57.0973 41.4288 57.1209 41.4475C57.0926 41.4288 57.0691 41.4102 57.0456 41.3915C56.9326 41.3588 56.8196 41.3075 56.7114 41.2562C56.6032 41.2095 56.4996 41.1489 56.4149 41.0602C56.3161 40.9715 56.1937 40.9015 56.0808 40.8502C55.9255 40.7942 55.7937 40.7195 55.6854 40.5655C55.6525 40.5189 55.5819 40.4722 55.5395 40.4302C55.3513 40.2855 55.196 40.0942 55.0454 39.8982C54.9701 39.7815 54.8854 39.6649 54.8054 39.5622C54.7489 39.4829 54.7253 39.6042 54.65 39.4922L54.5889 39.4129C54.5183 39.2822 54.4759 39.1422 54.4194 39.0022L54.3818 38.8996L54.2971 38.9322C54.3112 39.0116 54.2971 39.0209 54.25 38.9416C54.2265 38.8762 54.2124 38.8016 54.1935 38.7362L54.0429 38.8809C54.0571 38.9602 54.09 39.0302 54.1135 39.1049C54.0853 39.0302 54.0571 38.9602 54.0429 38.8809L53.9723 38.7362C53.9488 38.6942 53.9253 38.6242 53.9064 38.6569C53.9017 38.6662 53.9065 38.7176 53.9112 38.7502C53.9441 38.8856 53.9818 39.0209 54.0382 39.1469L54.0288 39.1376C54.0006 39.1516 54.0194 39.2916 53.9441 39.1656C53.8782 39.0629 53.8217 38.9649 53.7935 38.8249C53.7417 38.8249 53.7229 38.9089 53.6947 38.9742L53.6241 38.7549C53.5723 38.6709 53.5252 38.5822 53.4876 38.4936C53.4876 38.4702 53.4829 38.4469 53.4782 38.4282C53.4499 38.3302 53.4405 38.2229 53.4311 38.1156C53.4311 38.0082 53.4311 37.9056 53.3982 37.8076C53.3652 37.9009 53.3699 38.0082 53.3793 38.1202C53.4029 38.2276 53.4264 38.3396 53.4311 38.4422C53.4311 38.4609 53.4358 38.4842 53.4405 38.5076C53.4405 38.5962 53.4405 38.6849 53.4499 38.7736C53.3323 38.6989 53.2946 38.4796 53.257 38.2556L53.2664 38.2649Z" fill="white"/>
<path d="M86.3376 37.8356C86.3376 37.8356 86.3376 37.8122 86.347 37.7982L86.0787 37.7889C86.0787 37.7889 86.0928 37.8122 86.0881 37.8216L86.3376 37.8356Z" fill="white"/>
<path d="M90.4979 44.4528C90.5544 44.2988 90.5685 44.1961 90.5215 44.1681C90.4603 44.3221 90.4179 44.4808 90.3426 44.6255C90.3238 44.8028 90.1967 45.0081 90.0885 45.1854C90.0979 45.1948 90.1073 45.1994 90.1167 45.2041C90.272 44.9708 90.3897 44.7141 90.4979 44.4528Z" fill="white"/>
<path d="M82.4596 47.6307L82.3607 47.5514C82.2807 47.4441 82.1348 47.3461 82.0031 47.2341L81.7866 47.2481C81.9042 47.3507 82.0266 47.4534 82.1537 47.5467C82.1443 47.5747 82.0925 47.5934 82.2572 47.7147C82.3325 47.7707 82.4125 47.8314 82.4925 47.8827L82.4455 47.9854C82.8078 48.2187 83.1985 48.4194 83.6032 48.5734C83.702 48.6341 83.7444 48.6807 83.575 48.6387C83.4197 48.5967 83.222 48.4941 83.1043 48.4847C83.0008 48.4427 82.902 48.3914 82.8078 48.3354C82.4596 48.1301 82.2713 48.0741 82.0831 48.0227C82.0219 48.0041 82.0595 48.0741 82.1395 48.1347C82.4596 48.3634 82.8031 48.5687 83.1749 48.7227C83.6409 48.9467 84.1397 49.1147 84.6527 49.2267L84.9916 49.362C85.0433 49.404 85.1845 49.4274 85.3351 49.4367C85.514 49.4507 85.6928 49.46 85.8716 49.46C86.2152 49.446 86.5682 49.4507 86.907 49.3854C87.0623 49.3667 87.1847 49.334 87.2788 49.292L87.9377 49.124C88.1683 49.04 88.3989 48.956 88.6248 48.8627C88.8178 48.7694 89.0013 48.6481 89.2037 48.5827L89.3402 48.4614L89.5002 48.3681L89.6461 48.2794C89.6979 48.2514 89.7449 48.2141 89.792 48.1814C89.9049 48.0974 90.0132 48.0227 90.0979 47.9994L90.2344 47.8967L90.2108 47.8641L90.3426 47.7567L90.3709 47.7801L90.4979 47.6634C90.4979 47.6634 90.4838 47.6447 90.4791 47.6354L90.6015 47.5234C90.625 47.4954 90.6532 47.4627 90.6862 47.4347C90.6956 47.4114 90.7003 47.3927 90.7003 47.3741C90.9309 47.1267 91.1662 46.8794 91.3592 46.5994C91.5098 46.4174 91.6274 46.2121 91.7498 46.0114L91.8439 45.8574C91.9616 45.6008 92.1075 45.3534 92.1969 45.0828C92.1969 44.9568 92.244 44.8448 92.324 44.7421C92.3663 44.6395 92.3899 44.5275 92.4228 44.4201C92.5122 44.0841 92.6016 43.7061 92.5875 43.3935C92.6016 43.2908 92.5969 43.1835 92.6016 43.0808C92.6111 42.9408 92.6252 42.8102 92.6581 42.7355C92.6487 42.3948 92.6487 42.0495 92.5828 41.7135L92.5405 41.7275L92.4793 41.5548C92.4605 41.1115 92.3381 40.6309 92.1404 40.2062C92.0745 40.0429 91.9851 39.9075 91.9192 39.7582C91.8486 39.6135 91.7828 39.4642 91.698 39.3195C91.5945 39.1282 91.4768 38.9369 91.3309 38.7596C90.9874 38.2882 90.5544 37.8916 90.1355 37.4902C90.1403 37.4809 90.145 37.4716 90.1544 37.4622C89.9944 37.3409 89.8343 37.2196 89.6649 37.1029L89.1472 36.7903C88.9401 36.6923 88.7378 36.5896 88.5307 36.4963C88.3048 36.4169 88.4036 36.4216 88.3942 36.3889C88.3895 36.3516 88.1777 36.2956 88.0554 36.2443C87.9754 36.2443 87.8483 36.2163 87.7071 36.1836C87.3871 36.1509 87.0482 36.0763 86.7141 36.0063C86.5493 35.9643 86.5164 35.9363 86.507 35.8943L86.3329 35.8849C85.9093 35.8523 85.4904 35.8849 85.0763 35.8896C84.9257 35.8989 84.7421 35.9363 84.5727 35.9596C84.4645 36.0296 84.1962 36.0809 84.0221 36.1463C84.1303 36.1556 84.2621 36.1463 84.2621 36.1883L84.2715 36.2023L84.0927 36.2303C83.9703 36.2163 83.8573 36.2489 83.7679 36.3283C83.5844 36.3703 83.3773 36.4263 83.2361 36.4403C83.0996 36.4589 82.9208 36.5476 82.7467 36.6316C82.5255 36.8136 82.2619 36.9816 81.9654 37.1449C81.7301 37.2756 81.5042 37.4436 81.2971 37.6442C81.0759 37.8309 80.8877 38.0456 80.6947 38.2602C80.6429 38.2976 80.5959 38.3349 80.5488 38.3769L80.337 38.6569L80.2147 38.8109H80.2335C80.1629 38.8996 80.1064 39.0022 80.0405 39.0956L79.9417 39.2589L79.8617 39.3849C79.8288 39.4409 79.8052 39.4969 79.7723 39.5529V39.5435C79.697 39.7069 79.617 39.8655 79.5464 40.0289C79.5464 40.1129 79.504 40.2435 79.457 40.3789C79.3675 40.5935 79.3111 40.8175 79.2546 41.0369C79.2405 41.0369 79.231 41.0369 79.2169 41.0369C79.1887 41.1489 79.151 41.2608 79.1369 41.3775C79.1463 41.3775 79.1605 41.3868 79.1699 41.4008L79.151 41.5548C79.1134 41.7882 79.0757 42.0168 79.071 42.2502L79.0569 42.6002C79.0805 42.6608 79.0805 42.7215 79.0569 42.7822C79.0569 42.9548 79.0663 43.1275 79.0852 43.2955C79.1369 43.4168 79.1605 43.6128 79.1887 43.8041C79.1793 43.8135 79.1699 43.8228 79.1558 43.8275C79.2122 44.1728 79.3064 44.5088 79.4146 44.8401C79.4287 44.8401 79.4381 44.8401 79.4522 44.8401C79.6076 45.2974 79.8193 45.7408 80.0688 46.1514C80.1629 46.3008 80.2476 46.4408 80.29 46.5574C80.3653 46.6461 80.4453 46.7301 80.53 46.8141L80.6618 46.9261C80.8218 47.1174 81.0006 47.3041 81.0665 47.2621L80.9253 47.1174L80.77 46.8701C80.77 46.8701 80.7841 46.8561 80.7888 46.8421C81.0194 47.0101 80.9771 46.8608 80.9536 46.7348C81.1606 46.9074 81.1936 46.8981 81.0618 46.7021C80.9865 46.5994 80.9112 46.4968 80.8406 46.3894L80.8124 46.2261C80.9018 46.3474 81.0053 46.4688 81.1042 46.5761C81.2265 46.6928 81.2924 46.7254 81.2971 46.6648C81.3254 46.6974 81.3536 46.7254 81.3818 46.7488C81.5136 46.9121 81.6689 47.0521 81.8289 47.1874C81.8572 47.1547 81.8525 47.1034 81.683 46.9727C81.5748 46.8841 81.5183 46.8001 81.4524 46.7161L81.4383 46.7021C81.5042 46.7208 81.5324 46.7021 81.5089 46.6274C81.4854 46.5341 81.5371 46.5341 81.6171 46.5621L81.8054 46.7488L81.9231 46.8608H81.9795C81.9795 46.8281 82.0219 46.8094 81.9842 46.7628C81.843 46.5714 81.9513 46.5901 82.0031 46.5714C82.036 46.6041 82.069 46.6368 82.1019 46.6648L82.2101 46.7674L82.3137 46.6508L82.2384 46.5294L82.116 46.4174C82.0125 46.2914 81.9136 46.1608 81.8195 46.0254C81.6783 45.8528 81.5465 45.6754 81.4289 45.4888C81.3348 45.3814 81.2501 45.2741 81.17 45.1574C81.2548 45.2741 81.3395 45.3814 81.4289 45.4888C81.5465 45.6754 81.683 45.8528 81.8195 46.0254C81.843 45.9788 81.8148 45.8948 81.7019 45.7594L81.7254 45.7268L81.7819 45.6754C81.6548 45.3861 81.4571 45.0781 81.3206 44.7515C81.2924 44.7375 81.2642 44.7328 81.2453 44.7001C81.1889 44.5928 81.1277 44.4668 81.0947 44.3548C80.9441 43.8228 80.8312 43.2768 80.8171 42.7215C80.8312 42.4742 80.8218 42.2222 80.8688 41.9795C80.8924 41.8488 80.8547 41.7088 80.9347 41.5875L80.9771 41.6015L81.1089 41.2375C81.1371 40.9902 81.1512 40.9762 81.283 40.7569L81.476 40.3509C81.5466 40.2202 81.6313 40.0942 81.7066 39.9682C81.7583 39.8749 81.8289 39.8095 81.8854 39.7769L82.036 39.5809C82.0407 39.5295 82.0737 39.4922 82.1207 39.4782L82.2901 39.2916C82.4078 39.1562 82.5537 39.0209 82.6855 38.9649C82.7749 38.8762 82.8831 38.8109 82.982 38.7316L83.0808 38.6569C83.0996 38.6102 83.1326 38.5822 83.1843 38.5822C83.3302 38.4982 83.4714 38.4002 83.622 38.3302C84.0691 38.0876 84.5586 37.9429 85.0527 37.8496L85.1751 37.8309C85.3587 37.7562 85.3634 37.7516 85.5563 37.7889L85.8105 37.7749C85.8905 37.7656 85.9705 37.7749 86.0505 37.7842L86.3187 37.7936H86.3799C86.3799 37.7936 86.4176 37.8029 86.4364 37.8029C86.4364 37.8169 86.4364 37.8262 86.4364 37.8402L86.6858 37.8776C86.86 37.8962 87.0529 37.9336 87.1659 38.0176C87.2459 38.0409 87.3306 38.0502 87.4059 38.0876L87.5377 38.0969L87.6506 38.1342C87.7495 38.1249 87.8342 38.1576 87.8953 38.2322L88.0036 38.2882H88.013C88.1589 38.3489 88.3001 38.4282 88.4366 38.5216C88.526 38.5776 88.606 38.6289 88.6389 38.6896C88.9072 38.8809 89.1661 39.0956 89.3967 39.3336L89.5661 39.5202C89.6226 39.5762 89.6743 39.6369 89.7214 39.7022H89.712C89.8108 39.8422 89.9238 39.9729 90.0038 40.1222H90.0132L90.0649 40.2202L90.0367 40.2482C90.0791 40.3182 90.1261 40.3835 90.1544 40.4582L90.1873 40.4442L90.3473 40.7755L90.3144 40.7895C90.5215 41.2795 90.6438 41.8022 90.6815 42.3342H90.7144C90.7144 42.2128 90.705 42.0822 90.6862 41.9562C90.705 42.0822 90.7191 42.2128 90.7144 42.3435L90.7332 42.5768C90.7332 42.8662 90.7191 43.1602 90.6627 43.4448C90.6485 43.5288 90.6438 43.6128 90.6203 43.6921L90.5921 43.8088C90.6344 43.8088 90.6862 43.7668 90.7003 43.6081C90.7003 43.3888 90.7662 43.1788 90.7568 42.9595C90.7991 42.8848 90.8038 42.6935 90.8321 42.5582C90.8603 42.7122 90.8321 42.8475 90.8321 42.9782C90.8321 43.1462 90.7944 43.3141 90.7944 43.4728C90.7991 43.6221 90.7285 43.7668 90.705 43.8881C90.6768 44.0655 90.6203 44.2335 90.5544 44.3968C90.5026 44.5648 90.4179 44.7188 90.3473 44.8775C90.2862 45.0268 90.1967 45.1248 90.112 45.2321L90.0744 45.3628C89.9567 45.5401 89.8249 45.7128 89.6884 45.8761L89.4296 46.1608L89.1472 46.4174C89.086 46.4781 89.0154 46.5294 88.9449 46.5808L88.7425 46.7348C88.7142 46.7768 88.6813 46.8141 88.6484 46.8468C88.5072 46.9401 88.3754 47.0521 88.2248 47.1314C88.2624 47.1221 88.3048 47.1174 88.3377 47.0987C88.3048 47.1127 88.2624 47.1221 88.2248 47.1314C88.0883 47.1921 87.9565 47.2714 87.82 47.3274C87.6789 47.3787 87.5377 47.4207 87.3965 47.4534C87.2271 47.4721 87.0576 47.5187 86.9212 47.5841C86.7376 47.6447 86.5541 47.7054 86.3234 47.6961C86.2529 47.6914 86.1493 47.7007 86.074 47.7101C85.7822 47.7567 85.4716 47.7427 85.1704 47.7101C85.001 47.6867 84.8268 47.6634 84.6621 47.6401C84.5445 47.6214 84.6433 47.7101 84.4833 47.6867L84.3656 47.6681C84.1915 47.6167 84.0174 47.5561 83.8526 47.4814L83.7303 47.4254H83.7256L83.7067 47.4954C83.7915 47.5467 83.7915 47.5607 83.6879 47.5281C83.6079 47.4907 83.5279 47.4581 83.4526 47.4161L83.495 47.6074C83.5797 47.6494 83.6644 47.6867 83.7538 47.7241C83.6644 47.6914 83.5797 47.6494 83.495 47.6074C83.4338 47.5887 83.3726 47.5654 83.3161 47.5467C83.2596 47.5281 83.1843 47.4907 83.2032 47.5281C83.2079 47.5421 83.2596 47.5747 83.2926 47.5934C83.4385 47.6727 83.5938 47.7381 83.7444 47.7987H83.7256L83.7397 47.8034H83.7256C83.7256 47.8034 83.862 47.9061 83.6973 47.8687C83.5608 47.8314 83.4291 47.7987 83.2832 47.7194C83.2549 47.7521 83.3161 47.8221 83.3585 47.8781C83.2738 47.8454 83.1938 47.8034 83.109 47.7661C83.0008 47.7334 82.8926 47.6961 82.7843 47.6587C82.7608 47.6447 82.742 47.6307 82.7184 47.6167C82.5019 47.5094 82.3231 47.3134 82.116 47.2061C82.2478 47.3881 82.5113 47.5141 82.7043 47.6587C82.7231 47.6727 82.7467 47.6867 82.7702 47.7007L83.0149 47.8827C82.8784 47.8921 82.6525 47.7707 82.436 47.6214L82.4596 47.6307Z" fill="white"/>
<path d="M62.2178 47.8967C62.3025 47.9527 62.3778 47.9947 62.4343 48.0041C62.5802 48.1114 62.6555 48.1254 62.759 48.1674C62.7496 48.1207 62.7308 48.0694 62.7308 48.0274C62.7308 47.9947 62.7166 47.9621 62.6555 47.9061C62.6413 47.8874 62.6178 47.8687 62.5943 47.8454C62.5943 47.8361 62.5943 47.8221 62.5943 47.8081L62.4813 47.7334C62.4813 47.7334 62.4343 47.6914 62.406 47.6727C62.406 47.6587 62.406 47.6494 62.406 47.6354L62.2884 47.5654C62.2884 47.5654 62.2413 47.5234 62.2131 47.5047C62.2131 47.4954 62.2131 47.4814 62.2131 47.4674L62.0954 47.4021C62.0954 47.4021 62.1237 47.4394 62.1519 47.4627C62.1237 47.4394 62.1048 47.4207 62.0954 47.4021L61.9872 47.3414L61.893 47.2481C61.8554 47.2247 61.8177 47.2061 61.7801 47.1874H61.7707L61.6907 47.1034H61.6954C61.7142 47.0801 61.5918 47.0194 61.5683 46.9821C61.3283 46.8794 61.0836 46.7908 60.8341 46.7161C60.3729 46.5714 59.8929 46.4734 59.3987 46.4781C59.2716 46.4781 59.1446 46.4921 59.0175 46.5014C58.8716 46.5154 58.7257 46.5341 58.5892 46.5248L58.1421 46.5854C57.9962 46.6134 57.8503 46.6554 57.6997 46.6881C57.5915 46.7114 57.4927 46.7441 57.4079 46.7534C56.9985 46.9214 56.5796 47.0661 56.2125 47.3087C56.269 47.2901 56.3255 47.2667 56.3867 47.2387C56.3255 47.2667 56.2643 47.2901 56.2125 47.3087C56.1372 47.3554 56.0572 47.3974 55.9866 47.4487C55.7325 47.6307 55.4831 47.8221 55.2572 48.0367C55.1301 48.1441 55.0218 48.2701 54.9042 48.3914C54.8854 48.3961 54.8665 48.4054 54.843 48.4147C54.8242 48.4474 54.7959 48.4707 54.7724 48.4941C54.4477 48.9 54.1653 49.3387 53.9347 49.8054C53.8594 49.936 53.7982 50.0714 53.7417 50.2067V50.1974C53.7417 50.2627 53.7135 50.3374 53.6805 50.4214C53.6288 50.566 53.6052 50.7153 53.5676 50.8647C53.4499 51.1447 53.4217 51.476 53.3888 51.784L53.3793 51.9193C53.3558 52.2087 53.3746 52.4933 53.3888 52.7826C53.3982 52.9133 53.4264 53.0486 53.4688 53.128C53.4735 53.17 53.4829 53.212 53.4923 53.254C53.4876 53.2773 53.4923 53.3006 53.497 53.338C53.5347 53.59 53.6194 53.9866 53.7653 54.3553C53.9065 54.7239 54.09 55.0646 54.2171 55.2326C54.2265 55.2466 54.2406 55.2513 54.25 55.2653C54.283 55.3213 54.3347 55.3866 54.3535 55.4239C54.4853 55.7179 54.7253 55.9839 54.9512 56.2313C55.0548 56.3479 55.1207 56.3713 55.1913 56.3946L55.3654 56.5859C55.4595 56.7026 55.5819 56.7959 55.7137 56.8846C56.1937 57.2486 56.7302 57.5332 57.3044 57.7292C57.3138 57.7246 57.3279 57.7199 57.342 57.7152C57.4879 57.7712 57.6385 57.8086 57.7891 57.8459C57.9821 57.8972 58.1892 57.9346 58.3774 57.9672C58.641 58.0232 58.7398 57.9532 58.9704 57.9672H59.0363C59.0881 58.0046 59.1493 57.9999 59.2152 57.9812C59.4034 57.9672 59.587 57.9439 59.7752 57.9579C59.7893 57.9579 59.8176 57.9579 59.8364 57.9532C59.8552 57.9532 59.8693 57.9626 59.8882 57.9579C60.067 57.9392 60.3823 57.9252 60.6882 57.8366C60.9988 57.7712 61.2953 57.6452 61.4742 57.5612C61.493 57.5519 61.5024 57.5426 61.5165 57.5332C61.766 57.4446 62.0201 57.3512 62.2225 57.1786C62.4343 57.0946 62.6084 56.9592 62.7637 56.8099C62.9849 56.6606 63.1732 56.4739 63.3708 56.2966C63.6673 56.0119 63.9262 55.6899 64.1332 55.3399C64.298 55.0646 64.4391 54.7706 64.5803 54.4859C64.7639 54.0706 64.891 53.6366 64.9474 53.1933C65.0274 52.8806 65.0086 52.5586 65.0227 52.2413C65.0227 52.2087 65.0086 52.176 64.9992 52.1433C64.9992 52.0593 65.0086 51.9753 64.9851 51.896C64.971 51.7047 64.9521 51.5087 64.9192 51.3173C64.891 51.168 64.8486 51.098 64.8015 51.0747C64.8392 50.8507 64.7545 50.51 64.6368 50.244C64.4815 49.8707 64.3027 49.516 64.0862 49.1754C63.9215 48.914 63.7379 48.6527 63.5073 48.4801C63.2955 48.2887 63.3708 48.5174 63.1873 48.3821L63.2155 48.5407C63.2155 48.5407 63.1779 48.5034 63.1732 48.5034C63.0508 48.4987 62.919 48.4801 62.8202 48.5034C62.7637 48.5174 62.7166 48.5501 62.7966 48.6854C62.7825 48.7554 62.6037 48.6434 62.5802 48.7087C62.5613 48.7601 62.519 48.7974 62.4813 48.83C62.4484 48.8627 62.486 48.9607 62.3684 48.9094C62.2225 48.8487 62.4013 49.068 62.2837 49.026C62.2366 48.9887 62.2084 48.9794 62.2037 49.012L62.1707 49.026C62.0625 49.012 62.0342 49.0727 62.0625 49.1707C62.086 49.2547 62.0484 49.2687 61.9636 49.25C61.9166 49.2407 61.893 49.2594 61.8554 49.264C61.8977 49.3434 61.8836 49.376 61.8601 49.4134C61.8789 49.3807 61.8977 49.3434 61.8554 49.264L61.7613 49.3807C61.7613 49.4134 61.7848 49.446 61.8224 49.488C61.893 49.558 61.8883 49.6 61.8695 49.628C61.8507 49.6094 61.8319 49.5907 61.8083 49.572L61.7142 49.502C61.7142 49.502 61.6954 49.5347 61.7048 49.5534C61.7377 49.6234 61.7754 49.7027 61.8083 49.7774C61.9025 49.9174 62.0201 50.0667 62.0578 50.2114L62.0248 50.2347C62.0813 50.3047 62.1284 50.3887 62.1942 50.426C62.2648 50.4634 62.2743 50.5427 62.3072 50.608C62.3966 50.7293 62.4907 50.8507 62.5237 51.0093C62.5002 51.0093 62.4484 50.9627 62.4672 51.028C62.5425 51.28 62.5566 51.5367 62.6319 51.798C62.6366 51.8213 62.646 51.8447 62.646 51.868C62.6413 52.1807 62.6649 52.498 62.599 52.8013C62.5378 53.1093 62.4531 53.4126 62.3072 53.6973C62.2601 53.8093 62.1707 53.912 62.1754 54.024C62.1754 54.052 62.1519 54.08 62.1236 54.0986C62.0625 54.1406 62.0295 54.2433 61.9589 54.2853C61.9166 54.304 61.9025 54.3553 61.8836 54.3973L61.8224 54.5419C61.7519 54.6399 61.6624 54.6586 61.5777 54.7146C61.4789 54.7333 61.4083 54.8453 61.3142 54.8919C61.1918 54.9666 61.1306 55.0786 60.9894 55.1346C60.82 55.2093 60.7776 55.2979 60.6788 55.3913C60.5047 55.4193 60.3494 55.4566 60.1988 55.5593C60.1799 55.5733 60.1235 55.5779 60.0858 55.5873V55.6013H60.0811V55.5873C59.7893 55.5826 59.7658 55.5873 59.5211 55.6339C59.4364 55.6386 59.3563 55.6526 59.281 55.6713C59.2057 55.6806 59.1304 55.6946 59.0504 55.7086C59.0128 55.6899 58.9751 55.6619 58.9375 55.6619C58.6457 55.6153 58.3633 55.5593 58.0951 55.5499C57.8315 55.4286 57.5727 55.2886 57.3232 55.1393C57.3138 55.1439 57.3044 55.1533 57.2997 55.1626C57.1962 55.1253 57.1114 55.0599 57.0408 54.9713C56.975 54.9573 56.9138 54.9059 56.8526 54.8546C56.7632 54.7846 56.7302 54.7193 56.7491 54.6633L56.7067 54.6119L56.6361 54.4906C56.5985 54.5046 56.542 54.4906 56.4902 54.4626L56.4714 54.4346L56.4479 54.4113C56.4102 54.3553 56.3726 54.2993 56.3678 54.248L56.3396 54.2106L56.2596 54.1453C56.2596 54.1453 56.2408 54.1546 56.2267 54.1593L56.2172 54.0753L56.1278 53.9353C56.0619 53.786 55.9725 53.6413 55.9255 53.4873C55.9396 53.4873 55.949 53.4873 55.9584 53.478C55.9066 53.3566 55.8737 53.2353 55.8407 53.1093C55.8031 52.9926 55.8031 52.8853 55.8125 52.778L55.8407 52.764L55.7984 52.694C55.789 52.6426 55.7796 52.5913 55.7796 52.5353C55.7796 52.5353 55.8078 52.498 55.8125 52.456C55.8125 52.3487 55.7937 52.246 55.8078 52.1387C55.7701 52.0827 55.7701 52.0033 55.7937 51.9193C55.8172 51.8447 55.8502 51.77 55.8549 51.6813C55.8643 51.6767 55.8784 51.672 55.8878 51.672C55.8972 51.6207 55.8972 51.5693 55.916 51.518C55.9066 51.5133 55.8925 51.5087 55.8831 51.5087C55.949 51.28 56.0525 51.0747 56.1466 50.8553C56.1608 50.8273 56.189 50.8087 56.2125 50.7853L56.222 50.762L56.2361 50.7387C56.2361 50.6174 56.302 50.524 56.3961 50.4587C56.4243 50.4167 56.4479 50.3747 56.4808 50.3374C56.4949 50.3374 56.509 50.3327 56.5232 50.3327L56.542 50.3047C56.5467 50.2534 56.5796 50.202 56.622 50.146C56.6314 50.1274 56.6455 50.0994 56.6596 50.0854C56.6455 50.104 56.6314 50.132 56.622 50.146H56.6596C56.6596 50.146 56.6832 50.118 56.702 50.1087L56.8055 49.9967L56.8244 49.9734L56.8479 49.95C56.9232 49.8007 57.0456 49.6887 57.2009 49.6327C57.2856 49.5767 57.3609 49.5067 57.4503 49.46L57.648 49.334C57.7468 49.278 57.855 49.236 57.9539 49.1847C58.0245 49.1567 58.0998 49.138 58.1609 49.1474L58.2974 49.096L58.4339 49.0587C58.3821 49.04 58.3586 49.0074 58.3445 48.9747C58.3586 49.0074 58.3868 49.0354 58.4339 49.0587L58.5186 49.04L58.5045 48.97C58.5516 48.9607 58.5939 48.9467 58.641 48.942C58.6786 48.956 58.7304 48.97 58.7728 48.9514C58.8904 48.9 59.0128 48.886 59.1399 48.886C59.2622 48.8767 59.3893 48.8907 59.5117 48.9187C59.5587 48.928 59.6105 48.928 59.6623 48.9374C59.714 48.9374 59.7611 48.9467 59.8129 48.9514C59.8223 48.942 59.8364 48.9374 59.8505 48.9327C59.7423 48.9094 59.634 48.8907 59.5211 48.8814C59.6293 48.8907 59.7423 48.9094 59.8505 48.9327C59.9258 48.9327 59.9964 48.942 60.0717 48.9514C60.0293 48.886 60.0999 48.9 60.1894 48.9187L60.4153 48.9887C60.5235 49.0167 60.4764 48.9654 60.4764 48.9374C60.3964 48.886 60.3964 48.8207 60.2694 48.7834L60.2082 48.7367C60.2082 48.7274 60.2082 48.7181 60.2082 48.7087C60.2317 48.7087 60.2552 48.7087 60.2788 48.7087L60.4623 48.7647C60.5517 48.8207 60.6929 48.844 60.7635 48.9234C60.8718 48.9514 60.8812 48.9047 60.9235 48.8814C61.0224 48.8347 61.013 48.802 60.7682 48.6621C60.7541 48.6481 60.7353 48.6387 60.7118 48.6341C60.7635 48.6201 60.8341 48.6481 60.9 48.6807C61.0177 48.7414 61.1306 48.8067 61.2436 48.8814C61.3565 48.8767 61.3612 48.8814 61.2436 48.7601V48.6947C61.2153 48.6807 61.1918 48.6714 61.173 48.6574C61.0977 48.6154 61.0224 48.5734 60.9471 48.5407C61.0224 48.5781 61.0977 48.6154 61.173 48.6574L61.1353 48.5594C61.22 48.5734 61.2624 48.5594 61.173 48.4894C61.1212 48.4474 61.0553 48.4101 60.9988 48.3727C60.9471 48.2934 60.8341 48.2001 60.8953 48.1487C61.0459 48.2001 61.1918 48.2607 61.333 48.3307C61.4271 48.3821 61.5212 48.4334 61.6107 48.4941C61.7236 48.5594 61.7942 48.5781 61.8224 48.5407C61.7895 48.5127 61.7848 48.4987 61.8036 48.4987C61.813 48.4987 61.8272 48.5081 61.8413 48.5127L61.8554 48.4754C61.8789 48.4567 61.9119 48.4427 61.8883 48.3961C61.8695 48.3541 61.8883 48.3401 61.9683 48.3914C62.0672 48.4474 62.1142 48.4661 62.0625 48.3914C62.0201 48.3307 61.9495 48.2607 61.9542 48.2141L62.0813 48.3121C62.1613 48.3821 62.2225 48.4101 62.2743 48.4101C62.3166 48.4101 62.3213 48.3867 62.2743 48.3354C62.2178 48.2654 62.1613 48.1954 62.1001 48.1301C62.0954 48.1067 62.0672 48.0741 62.0154 48.0367C62.0013 47.9947 61.9354 47.9434 61.8601 47.8921L61.9542 47.9154L62.0013 47.9481L62.0484 47.9761C62.0954 47.9994 62.1566 48.0414 62.1848 48.0507C62.2272 48.0601 62.1942 48.0181 62.1613 47.9854C62.1425 47.9621 62.1095 47.9387 62.086 47.9154L62.006 47.8221C62.0672 47.8314 62.1472 47.8687 62.2319 47.9247L62.2178 47.8967Z" fill="white"/>
<path d="M62.086 47.3554C62.0154 47.3134 61.9448 47.2714 61.8742 47.2341L61.9683 47.3274L62.0766 47.3834C62.0766 47.3834 62.086 47.3647 62.086 47.3507V47.3554Z" fill="white"/>
<path d="M82.4408 57.7479C82.4408 57.7479 82.4643 57.7619 82.4737 57.7712C82.5019 57.7246 82.5302 57.6779 82.5537 57.6266C82.5396 57.6266 82.5302 57.6266 82.5208 57.6172C82.5019 57.6639 82.4737 57.7059 82.4455 57.7526L82.4408 57.7479Z" fill="white"/>
<path d="M77.6403 58.3125C77.7062 58.3919 77.7721 58.4105 77.8145 58.3779C77.7344 58.3172 77.678 58.2332 77.6027 58.1585C77.485 58.1212 77.4238 57.9812 77.3438 57.8832C77.3344 57.8832 77.325 57.8926 77.3156 57.9019C77.4144 58.0466 77.518 58.1865 77.6403 58.3079V58.3125Z" fill="white"/>
<path d="M77.7486 52.652L77.8286 52.6146C77.9227 52.6053 78.0309 52.5446 78.1392 52.498L78.1768 52.316L77.8756 52.456C77.8568 52.4327 77.8568 52.386 77.7297 52.456C77.6686 52.4887 77.6074 52.5166 77.5509 52.5493L77.4803 52.4606C77.2215 52.6193 76.9814 52.806 76.7555 53.0113C76.6802 53.0533 76.6332 53.058 76.7085 52.96C76.7791 52.8713 76.9061 52.778 76.9391 52.694C77.0003 52.6473 77.0614 52.5913 77.1226 52.5493C77.3626 52.3953 77.4474 52.274 77.5274 52.1527C77.5556 52.1153 77.4944 52.106 77.4285 52.1387C77.1791 52.2693 76.9344 52.428 76.7273 52.624C76.4308 52.8526 76.172 53.1186 75.9366 53.4126C75.866 53.464 75.7907 53.5153 75.7249 53.576C75.6684 53.59 75.6166 53.674 75.5601 53.7673C75.4943 53.8793 75.4378 53.996 75.3766 54.1126C75.2683 54.3366 75.1742 54.5699 75.0989 54.8079C75.066 54.9153 75.0519 55.0086 75.0613 55.0833C75.0236 55.2419 74.9954 55.4006 74.9718 55.5639C74.953 55.7413 74.9342 55.9139 74.9342 56.0913C74.9248 56.2452 74.9718 56.3993 74.9389 56.5532L74.9813 56.6792C74.9813 56.7259 74.9813 56.7679 74.9907 56.8146L75.0095 56.9359L75.0283 57.0619C75.0424 57.1646 75.0519 57.2579 75.0377 57.3186L75.066 57.4352L75.1083 57.4259C75.1177 57.4632 75.1272 57.5052 75.1366 57.5426L75.1036 57.5566L75.1366 57.6779C75.1366 57.6779 75.1601 57.6732 75.1695 57.6732C75.1742 57.6919 75.1836 57.7106 75.1883 57.7292L75.2072 57.7852C75.2072 57.7852 75.2354 57.8366 75.2448 57.8646C75.2589 57.8786 75.2731 57.8832 75.2872 57.8879C75.3625 58.1212 75.4801 58.3359 75.5884 58.5552C75.6778 58.6999 75.7578 58.8492 75.8519 58.9892L75.9272 59.0919C76.0449 59.2599 76.1814 59.4139 76.3226 59.5585C76.412 59.5959 76.4685 59.6565 76.5061 59.7452L76.6849 59.9132C76.8873 60.0625 77.085 60.2632 77.3156 60.3238L77.1791 60.2258L77.3156 60.3192L77.5133 60.4312C77.6027 60.4825 77.6874 60.5245 77.7203 60.5805C77.9415 60.6925 78.1768 60.7718 78.4122 60.8558L78.4216 60.8138H78.5581C78.8498 60.9445 79.2028 61.0285 79.5417 61.0145C79.7911 61.0145 80.0123 61.0005 80.257 61.0052C80.4123 61.0052 80.5771 60.9678 80.7371 60.9398C81.1465 60.8465 81.5466 60.7112 81.9372 60.5572L81.956 60.5852C82.0878 60.5245 82.2196 60.4592 82.3419 60.3798C82.469 60.3052 82.5913 60.2305 82.709 60.1418C82.8408 60.0438 82.9726 59.9505 83.0902 59.8339C83.2126 59.7172 83.1843 59.7825 83.2173 59.7965C83.2502 59.8105 83.3538 59.6939 83.4197 59.6239C83.4338 59.5632 83.4902 59.4885 83.5608 59.4139C83.6597 59.2039 83.8338 59.0219 83.9797 58.8259C84.055 58.7279 84.1021 58.7279 84.1397 58.7372L84.2056 58.6299C84.3515 58.3592 84.4692 58.0839 84.5962 57.8086C84.648 57.7106 84.6668 57.5752 84.7045 57.4586C84.6809 57.3606 84.7468 57.1786 84.7374 57.0432C84.6904 57.1086 84.6527 57.1972 84.6151 57.1786H84.5962L84.6292 57.0572C84.6809 56.9826 84.6951 56.9032 84.6668 56.8146C84.7092 56.6886 84.7233 56.5346 84.7751 56.4412C84.8221 56.3479 84.8221 56.2033 84.8127 56.0679C84.7515 55.8673 84.7139 55.6526 84.7092 55.4053C84.7186 55.2093 84.6527 55.0133 84.6009 54.8126C84.5303 54.6166 84.4692 54.4206 84.375 54.234L84.3515 54.0986C84.3139 54.024 84.2809 53.9446 84.2386 53.87L84.1727 53.7486L84.1633 53.7626L84.0409 53.5433C84.0174 53.5013 83.9891 53.464 83.9609 53.4313L83.895 53.3426L83.815 53.2306H83.8197C83.7444 53.128 83.655 53.03 83.5656 52.9366C83.5044 52.9133 83.4338 52.848 83.3585 52.7733C83.2361 52.6613 83.1138 52.5446 82.9867 52.4373C82.9914 52.428 82.9961 52.414 83.0055 52.4047L82.7984 52.2507C82.7984 52.2507 82.7843 52.2693 82.7702 52.2693L82.6761 52.2087C82.5349 52.1107 82.389 52.0267 82.2431 51.938C82.1678 51.896 82.0925 51.8633 82.0125 51.826C81.9607 51.826 81.9231 51.812 81.8948 51.77C81.7819 51.714 81.6642 51.6767 81.5465 51.63C81.443 51.6393 81.3112 51.5787 81.1748 51.5507C81.1748 51.5367 81.1748 51.5273 81.1748 51.5133C80.93 51.4433 80.6806 51.4013 80.4264 51.3687C80.4264 51.3827 80.417 51.392 80.4123 51.4013C80.0641 51.3687 79.7111 51.3547 79.3581 51.392C79.231 51.406 79.1087 51.42 79.0193 51.4013L78.7745 51.4853L78.6616 51.5507C78.4875 51.5927 78.3086 51.6533 78.3227 51.728L78.4639 51.6813L78.6757 51.6673C78.6757 51.6673 78.6804 51.686 78.6898 51.6953C78.5157 51.8073 78.6286 51.8447 78.7228 51.8867C78.5533 51.9753 78.5533 52.0127 78.7181 51.9893C78.8122 51.9753 78.8969 51.9613 78.9863 51.9473L79.104 51.9987C79.0004 52.022 78.8922 52.05 78.7981 52.0827C78.6851 52.1247 78.6522 52.1667 78.6945 52.204C78.6663 52.2133 78.6381 52.2227 78.6192 52.2367C78.4733 52.2647 78.3416 52.3207 78.2098 52.3813C78.2286 52.4187 78.2616 52.442 78.3933 52.372C78.478 52.33 78.5486 52.3207 78.6239 52.3113H78.6381C78.6098 52.3533 78.6145 52.386 78.6757 52.4047C78.7463 52.428 78.7322 52.4746 78.6945 52.526L78.5251 52.5867L78.4216 52.624L78.4122 52.6706C78.4122 52.6706 78.4357 52.7266 78.478 52.722C78.6381 52.708 78.6051 52.7826 78.6098 52.8386C78.5816 52.848 78.5533 52.8573 78.5251 52.8713L78.4357 52.9086L78.4969 53.0486H78.591L78.6898 53.0066C78.7934 52.9833 78.9016 52.9693 79.0051 52.96C79.1416 52.9273 79.2828 52.8993 79.4287 52.8806C79.5134 52.8526 79.6028 52.8246 79.697 52.8013C79.6076 52.8246 79.5181 52.848 79.4334 52.8806C79.2922 52.8993 79.151 52.9273 79.0099 52.96C79.0334 53.002 79.0946 53.016 79.2028 52.9926L79.2169 53.03L79.2358 53.1046C79.4381 53.1373 79.6687 53.1046 79.8899 53.1233C79.9041 53.1093 79.9135 53.0813 79.937 53.0766C80.0123 53.072 80.1017 53.0673 80.177 53.0766C80.5206 53.1513 80.8594 53.2306 81.1842 53.3706C81.3301 53.4313 81.4665 53.5106 81.5983 53.5993C81.6689 53.6413 81.763 53.66 81.8054 53.744L81.7772 53.7766C81.8383 53.8326 81.8901 53.898 81.9372 53.9586C82.0878 54.024 82.0972 54.0333 82.1631 54.1826C82.229 54.248 82.2901 54.3226 82.3419 54.3973C82.3984 54.4719 82.4549 54.5466 82.4972 54.6259C82.5302 54.6819 82.5584 54.7333 82.549 54.7799C82.5725 54.8266 82.5914 54.8733 82.6149 54.9153C82.6478 54.9293 82.6619 54.9526 82.6525 54.9899C82.6761 55.0366 82.6949 55.0833 82.7137 55.1346C82.7467 55.2373 82.8125 55.3446 82.7796 55.4426C82.7984 55.5173 82.822 55.5919 82.8361 55.6666L82.8455 55.7413C82.8737 55.7646 82.8784 55.7879 82.8596 55.8206C82.8784 55.9233 82.8784 56.0259 82.8831 56.1286C82.8926 56.4366 82.869 56.7539 82.7796 57.0479L82.7608 57.1226C82.7655 57.2486 82.7608 57.2486 82.6808 57.3419C82.6666 57.3932 82.6431 57.4399 82.6196 57.4866L82.5537 57.6172C82.5349 57.6686 82.5066 57.7152 82.4737 57.7619L82.436 57.8272C82.436 57.8272 82.4125 57.8179 82.4031 57.8086C82.3749 57.8506 82.356 57.8972 82.3184 57.9392C82.2478 58.0186 82.2007 58.1352 82.1019 58.1585L81.9984 58.2705L81.9748 58.3545L81.9184 58.4059C81.9042 58.4712 81.8619 58.5085 81.8007 58.5132C81.7819 58.5319 81.763 58.5459 81.7442 58.5599C81.6595 58.6205 81.5842 58.6859 81.4995 58.7372C81.443 58.7699 81.3912 58.7932 81.3442 58.7885C81.17 58.8912 80.9818 58.9705 80.7888 59.0359C80.7653 59.0452 80.7418 59.0592 80.7182 59.0639L80.6429 59.0825L80.5018 59.1245V59.1152C80.4029 59.1432 80.2947 59.1479 80.1958 59.1712V59.1805C80.1723 59.1805 80.1488 59.1805 80.1252 59.1805L80.1158 59.1432H79.9652V59.1852C79.8899 59.1945 79.8146 59.1945 79.7393 59.1852V59.1479C79.4146 59.1385 79.0899 59.0732 78.7887 58.9519L78.7698 58.9799C78.7228 58.9705 78.6757 58.9519 78.6334 58.9332C78.4686 58.8585 78.318 58.7699 78.1721 58.6672L78.0451 58.5739L77.9839 58.5319C77.9651 58.5692 77.9651 58.6159 78.0592 58.6579C78.1863 58.7325 78.2945 58.7932 78.4074 58.8585C78.4263 58.9239 78.5439 58.9472 78.6004 59.0265C78.511 58.9939 78.431 58.9565 78.3604 58.9192C78.271 58.8632 78.1815 58.8119 78.0874 58.7745C78.0027 58.7372 77.9415 58.6579 77.8756 58.6159C77.6968 58.4852 77.5509 58.3172 77.4097 58.1539C77.3485 58.0746 77.3062 58.0046 77.2779 57.9252L77.2073 57.8786C77.132 57.7666 77.0756 57.6499 77.0191 57.5286C76.9532 57.3839 76.8967 57.2346 76.8591 57.0852L76.8214 56.9266C76.8026 56.8752 76.8026 56.8239 76.7932 56.7726L76.7414 56.6932C76.7085 56.5906 76.6944 56.4879 76.6802 56.3806C76.6708 56.4039 76.6661 56.4272 76.6614 56.4552C76.6661 56.4319 76.6708 56.4086 76.6802 56.3806C76.6614 56.1939 76.6661 56.0026 76.7273 55.8299C76.765 55.7319 76.7838 55.6246 76.7744 55.5266C76.7744 55.4006 76.7791 55.2839 76.8591 55.1579C76.8779 55.1206 76.9014 55.0599 76.9156 55.0133C76.9579 54.8313 77.0567 54.6633 77.1509 54.4999C77.2073 54.4066 77.2685 54.3133 77.3203 54.2246C77.3579 54.1593 77.2638 54.178 77.3203 54.0893C77.3297 54.066 77.3438 54.0426 77.3579 54.0193C77.4427 53.9353 77.518 53.8466 77.6074 53.7766L77.6733 53.7206L77.6168 53.6646C77.5603 53.6973 77.5462 53.688 77.5933 53.632C77.6356 53.5946 77.6827 53.562 77.725 53.5246L77.565 53.4546C77.5133 53.492 77.4709 53.534 77.4238 53.576C77.4709 53.534 77.518 53.492 77.565 53.4546L77.6497 53.3613C77.6733 53.3333 77.7156 53.2913 77.6827 53.2866C77.6733 53.2866 77.6356 53.3053 77.6168 53.3193C77.5274 53.3846 77.4427 53.4593 77.3674 53.534V53.5246L77.3627 53.534L77.3721 53.5246C77.3721 53.5246 77.2544 53.562 77.3203 53.4686C77.3815 53.394 77.4285 53.3146 77.5227 53.254C77.5038 53.2166 77.438 53.226 77.3768 53.226L77.5133 53.1046C77.5603 53.0393 77.6121 52.9833 77.6639 52.9226C77.678 52.9133 77.6968 52.904 77.7062 52.8946C77.8333 52.792 78.0121 52.7453 78.1345 52.6426C77.9698 52.6426 77.8286 52.7966 77.678 52.862C77.6639 52.8666 77.6497 52.8806 77.6356 52.89C77.5697 52.918 77.5038 52.9413 77.4427 52.9786C77.4615 52.8713 77.6074 52.7686 77.7627 52.6753L77.7486 52.652Z" fill="white"/>
<path d="M72.1151 70.609C72.1151 70.609 72.1151 70.6323 72.1151 70.6463L72.341 70.609C72.341 70.609 72.3269 70.5903 72.3222 70.5763L72.1104 70.609H72.1151Z" fill="white"/>
<path d="M67.4182 65.9377C67.3947 66.0731 67.4041 66.1617 67.4606 66.1757C67.4747 66.0357 67.5029 65.9004 67.5171 65.7651C67.4935 65.6111 67.5641 65.4198 67.6112 65.2564C67.6018 65.2518 67.5924 65.2471 67.583 65.2471C67.5124 65.4711 67.4418 65.7044 67.4135 65.9377H67.4182Z" fill="white"/>
<path d="M73.5129 61.6445L73.6117 61.6958C73.6964 61.7752 73.8423 61.8312 73.9788 61.9012L74.1671 61.8312C74.0447 61.7658 73.9223 61.7005 73.7953 61.6445C73.8 61.6118 73.8423 61.5885 73.6776 61.5138L73.4423 61.4158L73.4658 61.3085C73.1082 61.1778 72.7317 61.0845 72.3551 61.0285C72.2563 60.9912 72.214 60.9585 72.3693 60.9585C72.5105 60.9585 72.7034 61.0145 72.807 60.9912C72.9011 61.0145 72.9999 61.0285 73.094 61.0612C73.4376 61.1685 73.6117 61.1778 73.7906 61.1778C73.847 61.1778 73.8047 61.1218 73.72 61.0845C73.3952 60.9445 73.0564 60.8372 72.7081 60.7812C72.2563 60.6832 71.7951 60.6225 71.3339 60.6365L71.0138 60.5758C70.9621 60.5385 70.835 60.5525 70.7032 60.5758C70.5479 60.6038 70.3832 60.6178 70.2326 60.6598C69.9314 60.7298 69.6302 60.8092 69.3431 60.9258C69.2113 60.9678 69.1125 61.0238 69.0419 61.0892C68.8631 61.1778 68.6748 61.2572 68.5054 61.3692C68.3171 61.4858 68.1336 61.5932 67.9642 61.7332C67.8089 61.8451 67.6771 61.9852 67.5171 62.0878L67.4229 62.2185L67.3006 62.3305L67.197 62.4378L67.0888 62.5545C67.0041 62.6478 66.9194 62.7271 66.8535 62.7645L66.7641 62.8811L66.7923 62.9091L66.6982 63.0258L66.6652 63.0071L66.5758 63.1285C66.5758 63.1285 66.5946 63.1425 66.5993 63.1518L66.5146 63.2731C66.5005 63.3058 66.4864 63.3385 66.4629 63.3711C66.4629 63.3945 66.4629 63.4131 66.4676 63.4271C66.3028 63.6791 66.1711 63.9498 66.044 64.2251C65.964 64.4164 65.8934 64.6124 65.8228 64.8084L65.7804 64.9624C65.7146 65.2051 65.6581 65.4524 65.6298 65.7044C65.6581 65.8164 65.6298 65.9191 65.5875 66.0217L65.5687 66.3204C65.5545 66.6284 65.5545 66.9737 65.6393 67.2397C65.6298 67.1744 65.6298 67.1044 65.6298 67.0344C65.6298 67.1044 65.6298 67.1697 65.6393 67.2397L65.6863 67.515C65.7051 67.641 65.7146 67.7577 65.7004 67.823C65.771 68.1217 65.851 68.411 65.9687 68.6957L66.0063 68.6724L66.0958 68.8077C66.1522 68.9944 66.2323 69.1904 66.317 69.3817C66.4205 69.5637 66.5287 69.7457 66.6558 69.909C66.8535 70.147 67.0182 70.357 67.2159 70.5857C67.3335 70.7397 67.4935 70.8657 67.6441 70.9963C68.0442 71.323 68.4819 71.6076 68.9337 71.855C68.9337 71.8643 68.929 71.8783 68.9243 71.8876C69.2443 72.051 69.5878 72.1723 69.9314 72.2703C70.1291 72.317 70.322 72.3823 70.5244 72.401C70.7315 72.429 70.6515 72.443 70.6609 72.4756C70.675 72.5083 70.868 72.527 70.9809 72.5363C71.0515 72.5083 71.1645 72.5083 71.2915 72.513C71.5739 72.4803 71.8798 72.4663 72.1857 72.4756C72.3363 72.4663 72.3693 72.5036 72.3881 72.5363L72.5434 72.513C72.7317 72.4896 72.9152 72.443 73.094 72.3963C73.2776 72.359 73.4564 72.3076 73.6353 72.2563C73.7623 72.219 73.9223 72.163 74.0588 72.0976C74.1341 72.0043 74.3647 71.925 74.4965 71.827C74.4024 71.841 74.28 71.8643 74.2753 71.827L74.2612 71.813C74.3083 71.7943 74.36 71.7756 74.4118 71.757C74.52 71.743 74.6095 71.6916 74.6706 71.603C74.826 71.5423 74.9907 71.449 75.1083 71.407C75.226 71.365 75.3719 71.267 75.499 71.1503C75.6496 70.9403 75.8425 70.749 76.0684 70.5483C76.2567 70.399 76.4026 70.1937 76.5579 69.9883C76.6991 69.7783 76.8355 69.559 76.9532 69.335L77.0567 69.2044L77.1932 68.9244L77.2591 68.7657H77.2403L77.3532 68.4857C77.3721 68.4297 77.3956 68.3784 77.405 68.3224L77.4379 68.1917L77.485 68.0284C77.5274 67.879 77.565 67.725 77.5838 67.571C77.565 67.4964 77.5744 67.3797 77.5933 67.2491C77.6215 67.0484 77.6215 66.8431 77.6356 66.6377C77.6497 66.6377 77.6591 66.6331 77.6733 66.6331C77.6827 66.5304 77.6733 66.4231 77.6733 66.3204C77.6639 66.3204 77.6497 66.3204 77.6403 66.3064L77.6309 66.1711C77.6121 65.9657 77.6027 65.7557 77.5603 65.5504C77.5415 65.4478 77.5274 65.3451 77.4991 65.2471C77.4615 65.2004 77.4474 65.1491 77.4615 65.0884C77.4285 64.9391 77.3815 64.7898 77.3344 64.6451C77.2638 64.5471 77.2026 64.3838 77.1415 64.2251C77.1509 64.2158 77.1603 64.2064 77.1697 64.1971C77.0473 63.9124 76.9061 63.6371 76.7414 63.3711C76.732 63.3758 76.7179 63.3805 76.7038 63.3805C76.4779 63.0118 76.2049 62.6758 75.9037 62.3678C75.7955 62.2558 75.6919 62.1485 75.6354 62.0551C75.5507 61.9945 75.466 61.9338 75.3766 61.8825L75.2354 61.8172C75.0613 61.6772 74.8683 61.5605 74.8118 61.6118L74.9624 61.7145C75.0236 61.7752 75.0848 61.8358 75.146 61.9012C75.1366 61.9105 75.1366 61.9198 75.1366 61.9291C74.906 61.8312 74.9624 61.9571 75.0048 62.0738C74.793 61.9665 74.7601 61.9898 74.9154 62.1298C74.9907 62.2045 75.0848 62.2791 75.1648 62.3538L75.2119 62.4938C75.1083 62.4051 75.0001 62.3258 74.8918 62.2558C74.7695 62.1718 74.6989 62.1718 74.7036 62.2278C74.6706 62.2045 74.6377 62.1905 74.6095 62.1765C74.4683 62.0551 74.3036 61.9711 74.1435 61.8825C74.1247 61.9198 74.1341 61.9665 74.3036 62.0458C74.4165 62.0971 74.4824 62.1578 74.5483 62.2231L74.5624 62.2325C74.5012 62.2325 74.4777 62.2605 74.5059 62.3211C74.5436 62.3958 74.4965 62.4145 74.4165 62.4098C74.3506 62.3678 74.2894 62.3211 74.2188 62.2838L74.0965 62.2091L74.0447 62.2278C74.0447 62.2558 74.0165 62.2838 74.0541 62.3165C74.2047 62.4565 74.1106 62.4658 74.0635 62.5031C74.0306 62.4798 73.9976 62.4611 73.9647 62.4425L73.8565 62.3771L73.7812 62.5125L73.8612 62.6058L73.9835 62.6758C74.0918 62.7645 74.2047 62.8531 74.3036 62.9511C74.4542 63.0678 74.6001 63.1891 74.7365 63.3245C74.6001 63.1938 74.4542 63.0678 74.3036 62.9511C74.2894 63.0025 74.3318 63.0631 74.4495 63.1611L74.4306 63.1938L74.3836 63.2545C74.5389 63.4785 74.7554 63.6978 74.9342 63.9404C74.9577 63.9451 74.9907 63.9404 75.0095 63.9638C75.0801 64.0384 75.1554 64.1318 75.2025 64.2204C75.4284 64.6358 75.626 65.0651 75.7437 65.5271C75.7955 65.7324 75.8284 65.9424 75.8425 66.1524C75.8566 66.2644 75.9037 66.3764 75.8613 66.4931H75.819C75.8096 66.6051 75.7813 66.7124 75.7672 66.8197C75.8143 67.0344 75.7955 67.0437 75.7154 67.2537C75.7013 67.3797 75.6637 67.5011 75.6307 67.6224C75.6025 67.7484 75.5648 67.865 75.5131 67.9817C75.4801 68.0657 75.4519 68.1357 75.4048 68.173L75.3107 68.3597C75.3154 68.4064 75.3013 68.439 75.2636 68.4624C75.2354 68.5277 75.193 68.5884 75.1601 68.649C75.0801 68.775 75.0095 68.929 74.8871 68.9897C74.8212 69.0737 74.7648 69.1624 74.6895 69.237L74.6189 69.3164C74.6189 69.3584 74.5906 69.3863 74.5483 69.3957C74.4542 69.5077 74.3365 69.587 74.233 69.6897C73.9035 69.965 73.5364 70.189 73.1458 70.3617L73.0423 70.399C72.9058 70.497 72.9058 70.5017 72.7364 70.5063L72.5293 70.5623C72.4634 70.5763 72.3975 70.5997 72.3316 70.6043L72.1057 70.6417L72.0116 70.6603C72.0116 70.6603 72.0022 70.637 72.0022 70.623C71.9316 70.637 71.861 70.6323 71.7904 70.637C71.6445 70.6417 71.4751 70.6697 71.3668 70.6043L71.155 70.595C71.1174 70.609 71.0797 70.6137 71.0468 70.6183L70.948 70.6043C70.868 70.6323 70.7927 70.623 70.7268 70.5717C70.6938 70.5717 70.6609 70.553 70.6279 70.5437H70.6232C70.4915 70.5063 70.3597 70.4877 70.2326 70.4363C70.1479 70.4037 70.0773 70.371 70.0349 70.3243C69.7714 70.2217 69.5267 70.091 69.2866 69.9417C69.2537 69.9277 69.2255 69.9043 69.1972 69.881L69.1125 69.8157L68.9478 69.699H68.9572L68.6372 69.4097H68.6278L68.5713 69.335L68.5948 69.307L68.4583 69.1577L68.4301 69.181C68.3548 69.1064 68.303 69.0177 68.2371 68.9337L68.2654 68.9104C68.0018 68.5464 67.7947 68.1404 67.663 67.7157H67.63C67.6536 67.823 67.6959 67.9257 67.7289 68.0284C67.6959 67.921 67.6583 67.823 67.63 67.7157L67.5735 67.5244C67.5359 67.4077 67.5171 67.2864 67.5029 67.1651C67.4841 67.0437 67.4653 66.9224 67.4653 66.8011L67.4512 66.5864C67.4465 66.5537 67.4512 66.5164 67.4512 66.4837C67.4088 66.4931 67.3665 66.5351 67.3947 66.6704C67.4229 66.8524 67.4277 67.0344 67.47 67.2164C67.4277 67.2864 67.4841 67.4404 67.47 67.5617C67.4182 67.4404 67.4041 67.3237 67.39 67.2164C67.3665 67.0764 67.3476 66.9504 67.3241 66.8011C67.3006 66.6797 67.3147 66.5444 67.3194 66.4417C67.31 66.1384 67.3618 65.8444 67.4277 65.5551C67.4606 65.4244 67.4935 65.3218 67.5547 65.2191V65.1071C67.6112 64.9344 67.6959 64.7711 67.7712 64.6078C67.8795 64.4211 67.9783 64.2298 68.1195 64.0618L68.2513 63.8844L68.3924 63.7258L68.4442 63.6091C68.5289 63.4925 68.6372 63.3991 68.736 63.2871C68.7078 63.3011 68.6748 63.3198 68.6466 63.3338C68.6748 63.3151 68.7031 63.3011 68.736 63.2871C68.929 63.1238 69.1313 62.9558 69.3666 62.8718C69.4937 62.8111 69.6302 62.7505 69.7337 62.6711C69.8655 62.5591 70.0114 62.5031 70.2044 62.4565C70.2608 62.4425 70.3456 62.4238 70.4067 62.3958C70.6421 62.2978 70.9009 62.2605 71.155 62.2231C71.3009 62.2138 71.4562 62.1951 71.5927 62.1765C71.6916 62.1671 71.5927 62.1018 71.7339 62.0878L71.8375 62.0738C71.9928 62.0831 72.1481 62.1018 72.3034 62.1298L72.4163 62.1485H72.421V62.0738C72.341 62.0458 72.3363 62.0318 72.4304 62.0365L72.6516 62.0831L72.5858 61.9105L72.7505 61.9245C72.8022 61.9291 72.8728 61.9431 72.8493 61.9152C72.8446 61.9058 72.7928 61.8825 72.7599 61.8778C72.6187 61.8451 72.4775 61.8172 72.3363 61.7938H72.3504L72.3363 61.7892H72.3504C72.3504 61.7658 72.214 61.7192 72.3646 61.7192C72.4869 61.7238 72.6046 61.7192 72.7458 61.7612C72.7646 61.7238 72.6987 61.6725 72.6516 61.6258L72.8822 61.6725C72.9811 61.6725 73.0799 61.6865 73.1788 61.6958C73.1976 61.7005 73.2211 61.7098 73.2399 61.7145C73.447 61.7612 73.6353 61.8965 73.8329 61.9478C73.6917 61.8078 73.4376 61.7612 73.2446 61.6725C73.2258 61.6632 73.2023 61.6585 73.1835 61.6492C73.1034 61.6118 73.0234 61.5698 72.9387 61.5372C73.0564 61.4905 73.2729 61.5512 73.4894 61.6398L73.5129 61.6445Z" fill="white"/>
<path d="M84.4503 23.3178H84.4456L84.4409 23.3225L84.4503 23.3178Z" fill="white"/>
<path d="M92.5687 21.8852L92.5734 21.8899H92.5781L92.5687 21.8852Z" fill="white"/>
<path d="M77.9086 27.7371L77.9039 27.7418V27.7464L77.9086 27.7371Z" fill="white"/>
<path d="M75.3154 31.251V31.2464L75.3107 31.237L75.3154 31.251Z" fill="white"/>
<path d="M78.6757 33.589H78.671L78.6569 33.5937L78.6757 33.589Z" fill="white"/>
<path d="M72.021 36.9863L72.0163 36.9909L72.021 37.0096V36.9863Z" fill="white"/>
<path d="M70.995 32.721L70.9997 32.707V32.6977L70.995 32.721Z" fill="white"/>
<path d="M85.0433 23.0518H85.0386L85.0339 23.0565L85.0433 23.0518Z" fill="white"/>
<path d="M80.9441 22.9585L80.9536 22.9538H80.9583L80.9441 22.9585Z" fill="white"/>
<path d="M92.051 21.6612L92.0557 21.6659H92.0651L92.051 21.6612Z" fill="white"/>
<path d="M76.9814 26.1971H76.9861L76.9909 26.1878L76.9814 26.1971Z" fill="white"/>
<path d="M77.2356 25.8985H77.2403V25.8938L77.2356 25.8985Z" fill="white"/>
<path d="M90.5168 22.7812H90.5638L90.6109 22.7998L90.6909 22.7905C90.5262 22.7532 90.3567 22.7158 90.1873 22.6925C90.2626 22.7298 90.4132 22.7392 90.5121 22.7765L90.5168 22.7812Z" fill="white"/>
<path d="M94.5642 23.7892C94.4653 23.6818 94.3665 23.5745 94.2677 23.4672C94.1641 23.3505 94.2112 23.3505 94.4136 23.4672C94.5501 23.5465 94.5971 23.5325 94.4842 23.4298C94.2677 23.2152 94.0794 23.0425 93.7971 22.8465L93.9618 22.8558C94.0888 22.9352 94.2018 23.0052 94.2818 23.0285C94.3289 23.0565 94.3759 23.0985 94.423 23.1312C94.4418 23.1218 94.4042 23.0752 94.3147 23.0098C94.2253 22.9072 94.0465 22.7952 93.8723 22.6832C93.8676 22.6692 93.8629 22.6552 93.8629 22.6458C93.8112 22.6085 93.7594 22.5805 93.7029 22.5525H93.6982C93.6982 22.5525 93.6841 22.5198 93.6653 22.4965C93.6182 22.4732 93.5853 22.4545 93.5617 22.4312L93.237 22.2539L93.077 22.1465C92.8887 22.0625 92.7052 21.9739 92.5687 21.8899L92.0934 21.7079L92.051 21.6659C91.7875 21.5772 91.5145 21.5072 91.2933 21.4139C91.2415 21.4045 91.2039 21.3952 91.1756 21.3812C90.7474 21.2925 90.385 21.1759 89.952 21.1245L89.8767 21.0919C89.8202 21.0919 89.7732 21.0872 89.7261 21.0732C89.359 21.0312 88.9919 21.0172 88.6248 21.0079C88.2389 20.9845 87.8106 21.0219 87.4435 21.0079H87.42C87.2647 21.0499 87.1094 21.0499 86.9588 21.0452C86.7235 21.0732 86.4835 21.0919 86.2481 21.1339L86.0646 21.1899L85.8622 21.1992C85.6269 21.2319 85.3963 21.2879 85.161 21.3345C85.1233 21.3485 85.081 21.3579 85.0339 21.3672C84.9586 21.3905 84.888 21.4232 84.8174 21.4512C84.5821 21.5025 84.3515 21.5632 84.1256 21.6425C83.815 21.7312 83.4902 21.8432 83.2079 21.9085C83.1843 21.9225 83.1561 21.9319 83.1232 21.9412C82.9867 22.0205 82.8408 22.0719 82.6855 22.1045C82.6572 22.1185 82.6243 22.1325 82.5961 22.1419C82.3702 22.2679 82.0737 22.3845 81.8148 22.5105C81.5183 22.6458 81.2312 22.8045 80.9441 22.9538C80.883 23.0145 80.7653 23.0892 80.6335 23.1592L80.337 23.3412C80.337 23.3412 80.3276 23.3645 80.3276 23.3738L80.1817 23.4672C80.0452 23.5092 79.8664 23.6398 79.697 23.7425C79.4852 23.8872 79.264 24.0598 79.0616 24.1672C79.0334 24.1905 79.0099 24.2138 78.9769 24.2325C78.8122 24.4051 78.5863 24.5638 78.3886 24.7458C77.9792 25.1005 77.5933 25.4831 77.2309 25.8938C77.165 26.0058 77.0897 26.1085 76.9767 26.1925L76.7508 26.4724C76.4684 26.7991 76.2096 27.1631 75.9884 27.5504C75.7719 27.9378 75.5648 28.3297 75.4095 28.8244C75.2401 29.3844 75.1883 29.9397 75.1978 30.523C75.2072 30.747 75.2448 31.0037 75.306 31.2417C75.3813 31.4097 75.4519 31.643 75.5507 31.8763C75.7343 32.3477 76.0731 32.8003 76.5579 33.0943C76.7508 33.225 76.9767 33.3183 77.1791 33.4163C77.485 33.5377 77.8427 33.617 78.1815 33.6123C78.2427 33.6123 78.2898 33.6123 78.3557 33.6123C78.4592 33.589 78.5581 33.5797 78.6569 33.589C79.104 33.533 79.5417 33.393 79.9417 33.1643C79.9935 33.127 80.0452 33.0897 80.1064 33.057C80.3794 32.833 80.6429 32.595 80.8783 32.2917C80.9112 32.2357 80.9394 32.1983 80.9724 32.1423C81.0618 31.9977 81.1277 31.839 81.1842 31.671C81.2548 31.4237 81.2924 31.167 81.3018 30.9104C81.2877 30.4857 81.1983 30.1124 81.0665 29.7624C81.0053 29.6364 80.9536 29.5057 80.883 29.3891L80.8218 29.3331C80.4829 28.7917 80.0594 28.3251 79.537 27.9844C79.4993 27.9704 79.4617 27.9471 79.4146 27.9144L79.3252 27.8911L79.3346 27.9004C79.1981 27.8164 79.0334 27.7324 78.9628 27.6718C78.6475 27.5224 78.2992 27.4151 77.9415 27.3544C77.7627 27.3218 77.5744 27.3124 77.3909 27.3031C77.2168 27.3031 77.0473 27.3078 76.8779 27.3311L76.8073 27.3638L76.7226 27.3731L76.6567 27.3918C76.2614 27.4524 75.8849 27.5551 75.5272 27.6904C75.5178 27.7044 75.5084 27.7184 75.4895 27.7324C74.8212 27.9798 74.2377 28.3624 73.6823 28.7731L73.4188 28.9784C73.1882 29.2351 72.8917 29.4824 72.6563 29.7624C72.4257 30.005 72.2328 30.285 72.0304 30.551C72.0304 30.5697 72.0304 30.5884 72.0304 30.6024C71.9128 30.7797 71.7951 30.9664 71.6821 31.1017L71.6586 31.139C71.5786 31.3444 71.4468 31.5544 71.3433 31.783C71.2021 32.0863 71.075 32.3943 70.9762 32.7117C70.948 32.8657 70.8962 33.0103 70.835 33.155L70.8209 33.2017V33.2763C70.755 33.505 70.7127 33.7383 70.6703 33.9716C70.6562 34.2423 70.5715 34.6576 70.5809 34.9516C70.5997 35.269 70.5526 35.6329 70.5809 35.9736C70.5903 35.9829 70.595 35.9969 70.6044 36.0203C70.6044 36.1323 70.6185 36.2396 70.6326 36.3516L70.6609 36.3749L70.6797 36.5383C70.6797 36.5383 70.7126 36.5803 70.7315 36.6736L70.8538 36.7156C70.8633 36.7623 70.8727 36.7669 70.8774 36.7296C70.8868 36.7716 70.8962 36.8183 70.9103 36.8649H71.0044C71.0186 36.9116 71.028 36.9209 71.0327 36.8976C71.0468 36.9443 71.0562 36.9909 71.0703 37.0329H71.1315C71.1409 37.0749 71.1503 37.1123 71.1597 37.1543L71.2162 37.1683L71.1974 37.0376H71.2586C71.348 37.2009 71.3951 37.0889 71.4609 37.0889L71.4939 37.0983L71.5927 37.2523L71.6821 37.2383C71.6539 37.1263 71.6304 37.0096 71.6068 36.8976C71.6257 37.0143 71.6539 37.1263 71.6821 37.2383C71.781 37.3596 71.8139 37.1543 71.8939 37.1916V37.1636L71.908 37.1916C71.9269 37.0609 71.9598 37.0049 72.0069 36.9909L71.9833 36.8743V36.8276L71.9739 36.7623C71.9645 36.5103 71.9363 36.2349 71.9269 35.9549C71.9363 35.9456 71.941 35.9409 71.9457 35.9316C71.9316 35.6329 71.9504 35.3343 71.9739 35.0356C71.9833 35.0356 71.9881 35.0263 71.9975 35.0123L72.0539 34.5923C72.0539 34.5923 72.0728 34.555 72.0822 34.5456C72.1716 33.995 72.3316 33.4583 72.5199 32.931C72.6281 32.693 72.7269 32.4223 72.8728 32.2217C73.4094 31.237 74.1388 30.355 75.0613 29.7577C75.5601 29.4357 76.1061 29.1884 76.6426 29.0624C76.9861 28.9971 77.3721 28.9691 77.6497 29.0111C78.2051 29.0857 78.7934 29.4311 79.1699 29.8931H79.1605C79.3769 30.0984 79.5228 30.3644 79.5511 30.6304C79.6029 30.845 79.6028 31.0084 79.5558 31.1624C79.4993 31.4844 79.0946 31.825 78.6098 31.895H78.5957L78.4686 31.9417C78.4545 31.937 78.4357 31.9323 78.4216 31.9277C78.2333 31.951 78.0451 31.9463 77.8803 31.8997C77.6027 31.825 77.405 31.6897 77.2356 31.4844C77.0662 31.279 76.9438 30.9757 76.892 30.635C76.845 30.579 76.8073 30.5557 76.7885 30.5697C76.812 30.551 76.845 30.579 76.892 30.635L76.9108 30.607C76.9061 30.5277 76.8873 30.453 76.892 30.3737C76.8544 30.2664 76.8732 30.0984 76.8685 29.963C76.8826 29.9117 76.9014 29.8604 76.9203 29.8091V29.8184C76.9203 29.7764 76.925 29.7391 76.9344 29.7017V29.7111C76.9485 29.5431 76.9814 29.3844 77.0379 29.2304L77.1367 29.0111C77.1838 28.9317 77.2309 28.8477 77.2779 28.7637L77.2968 28.7124L77.325 28.6704C77.3674 28.5444 77.4332 28.4277 77.518 28.2924C77.6309 28.1104 77.758 27.9331 77.8851 27.7558C77.9086 27.6904 77.9792 27.5878 78.0357 27.5131C78.0827 27.4431 78.1204 27.3778 78.1486 27.3218C78.1204 27.3778 78.0827 27.4384 78.0357 27.5131L78.1062 27.4618L78.1439 27.4104L78.1815 27.3731C78.5016 26.9578 78.8734 26.5798 79.2593 26.2204C79.3675 26.1038 79.4899 26.0011 79.617 25.9078C79.8852 25.6931 80.1535 25.4831 80.4359 25.2871C80.7747 25.0398 81.1512 24.8298 81.476 24.5965C82.0972 24.2512 82.7325 23.9012 83.4102 23.6912L83.462 23.6632L83.5138 23.6492C83.8197 23.5418 84.1162 23.4252 84.4268 23.3365C84.5398 23.2712 84.8174 23.1825 84.7751 23.1405L85.0198 23.0658C85.1422 23.0052 85.321 22.9538 85.5045 22.9212L85.6646 22.8885C85.8716 22.8418 86.0787 22.8045 86.2858 22.7718C86.4882 22.7345 86.2387 22.8418 86.5023 22.7905C86.6293 22.7625 86.7658 22.7578 86.8929 22.7438C87.0482 22.7298 87.2082 22.7065 87.3635 22.6972C87.6083 22.6832 87.82 22.6785 87.9518 22.7205C87.9942 22.7205 88.0318 22.7205 88.0695 22.7205H88.0601C88.3519 22.6785 88.686 22.6878 89.0107 22.7018C89.0154 22.6925 89.0296 22.6878 89.0437 22.6785C89.2555 22.6878 89.4672 22.7158 89.679 22.7345C89.7355 22.7298 89.7967 22.7298 89.8532 22.7252C90.0273 22.7485 90.0132 22.7205 90.0414 22.7018L90.0979 22.7112H90.1591V22.7158C90.3285 22.7345 90.4932 22.7765 90.6627 22.8138H90.6532L90.8086 22.8418C90.9074 22.8605 91.0015 22.8885 91.0956 22.9165L91.1333 22.9025C91.3309 22.9585 91.5286 23.0052 91.7169 23.0798H91.8016C91.698 23.0472 91.5992 23.0005 91.4957 22.9678C91.5992 23.0005 91.7028 23.0472 91.8016 23.0845L92.0416 23.1592C92.0887 23.1778 92.1357 23.2058 92.1828 23.2292L92.2251 23.2385L92.2769 23.2665L92.4887 23.3272C92.7475 23.4578 92.9311 23.5558 93.0817 23.5698C93.2135 23.6258 93.2511 23.6398 93.3029 23.6398C93.3641 23.6445 93.4064 23.6398 93.5476 23.7145L93.7029 23.7798C93.7735 23.7798 93.8394 23.7798 93.91 23.7798C93.7971 23.6725 93.7312 23.6118 93.6888 23.5465L93.8865 23.5745C94.2441 23.8218 94.2441 23.8265 94.3053 23.7845C94.343 23.7612 94.3383 23.7098 94.5171 23.8078C94.5124 23.7938 94.5171 23.7892 94.5406 23.7938L94.5642 23.7892Z" fill="white"/>
<path d="M94.5359 23.2385C94.5359 23.2385 94.5783 23.2618 94.6018 23.2712L94.4371 23.1358C94.4371 23.1358 94.4701 23.1872 94.5359 23.2385Z" fill="white"/>
<path d="M94.423 23.1265L94.4371 23.1358V23.1312L94.4277 23.1265H94.423Z" fill="white"/>
<path d="M66.4958 48.83H66.4911V48.8207L66.4958 48.83Z" fill="white"/>
<path d="M69.0843 46.9821L69.1313 46.8794C69.1313 46.8794 69.1078 46.8654 69.0984 46.8561L69.0466 46.9681C69.0466 46.9681 69.0701 46.9727 69.0843 46.9821Z" fill="white"/>
<path d="M76.0449 49.1007C76.0449 49.1007 76.0919 49.0774 76.1108 49.0494C76.1437 49.0027 76.172 48.9887 76.1908 49.04C76.2802 49.2967 76.4355 49.3294 76.6096 49.3107C76.6332 49.2407 76.6567 49.1707 76.6944 49.1287C76.7179 49.026 76.7367 48.914 76.7885 48.8534L76.7979 48.7507C76.7979 48.7507 76.8167 48.6994 76.8214 48.6714C76.892 48.6201 76.9061 48.4381 76.9626 48.3541C76.9673 48.2981 76.9861 48.2701 77.0097 48.2561C77.0097 48.2281 77.0097 48.2001 77.0097 48.1721C77.0238 48.1627 77.0332 48.1581 77.0473 48.1534L77.0379 48.0507L77.0803 48.0181C77.0803 47.9947 77.0803 47.9714 77.0803 47.9481L77.0709 47.8407C77.1132 47.4347 77.0238 47.0054 76.925 46.5994C76.8497 46.3614 76.7838 46.0768 76.6049 45.8854C76.5955 45.8528 76.5814 45.8248 76.5626 45.7968C76.5532 45.7081 76.5155 45.6101 76.4543 45.5168C76.3696 45.3814 76.2943 45.2414 76.1955 45.1154C75.8566 44.6488 75.4613 44.1868 74.953 43.9208C74.9154 43.9021 74.873 43.8555 74.8307 43.8228C74.5059 43.5848 74.153 43.3935 73.7812 43.2301L73.5788 43.1602C73.5458 43.1462 73.5129 43.1322 73.48 43.1228C73.4188 43.0482 73.2917 43.0202 73.1835 42.9875C73.1505 42.9875 73.1223 42.9735 73.0893 42.9642L73.0517 42.9922C72.1198 42.7542 71.1315 42.7775 70.2091 43.0482C70.0067 43.1042 69.809 43.1835 69.6067 43.2581C69.4184 43.3515 69.2255 43.4401 69.0607 43.5661C68.9901 43.5755 68.9195 43.6128 68.8395 43.6548C68.5148 43.8321 68.2701 44.0888 68.0159 44.3408C67.9077 44.4341 67.8183 44.5415 67.7194 44.6441C67.503 44.8448 67.3571 45.0921 67.2394 45.3394C66.9711 45.7034 66.8064 46.1328 66.6558 46.5574C66.6417 46.7954 66.5287 47.0381 66.5146 47.2854C66.4582 47.5934 66.444 47.9014 66.4346 48.2141C66.444 48.4194 66.444 48.6247 66.4723 48.83C66.5758 49.0354 66.5805 49.2454 66.5899 49.4694C66.5993 49.488 66.6088 49.5067 66.604 49.5254C66.637 49.5674 66.6511 49.614 66.6417 49.67C66.6558 49.7214 66.6699 49.768 66.6888 49.8147C66.7735 49.922 66.8205 50.0714 66.877 50.2067C66.9288 50.3094 66.9758 50.4214 67.0511 50.4867L67.1123 50.6873L67.2017 50.8413L67.3006 50.9253C67.3006 50.9253 67.3288 50.9393 67.3382 50.944C67.3288 50.9347 67.3147 50.93 67.3006 50.9253L67.4135 51.0933C67.4135 51.0933 67.4135 51.0513 67.4041 51.0373C67.4041 51.056 67.4088 51.0747 67.4135 51.0933C67.5406 51.2567 67.6536 51.434 67.7947 51.5833C67.8136 51.5927 67.8324 51.6113 67.8465 51.6347C68.0065 51.7373 68.143 51.8867 68.2983 52.0173C68.4348 52.148 68.5854 52.2553 68.7313 52.3673C68.7548 52.3767 68.7784 52.3907 68.8019 52.414C68.8442 52.428 68.8866 52.4326 68.929 52.442C69.009 52.5026 69.089 52.5633 69.1831 52.6006C69.2866 52.6846 69.409 52.736 69.5267 52.764C69.5878 52.778 69.6396 52.7966 69.7008 52.8293C69.8608 52.904 70.0302 52.9693 70.195 53.0346C70.402 53.0393 70.6091 53.1093 70.8209 53.1373C70.9856 53.1606 71.1503 53.2026 71.3151 53.1933C71.7716 53.198 72.2281 53.1606 72.6799 53.072C72.9105 52.9833 73.1552 52.918 73.3905 52.8293C73.5082 52.7826 73.6306 52.736 73.7153 52.6613C73.7435 52.6613 73.767 52.6473 73.7859 52.6286C73.9929 52.5306 74.1906 52.4187 74.3789 52.2973C74.4495 52.1993 74.5483 52.12 74.6612 52.0407C74.7271 51.9567 74.8024 51.882 74.906 51.84C75.2872 51.462 75.5837 51.028 75.8472 50.5707C75.8284 50.3794 75.7154 50.342 75.5837 50.328L75.3578 50.1087C75.2966 50.146 75.2589 50.118 75.2213 50.0994C75.1883 50.0807 75.1554 50.0714 75.1225 50.0574C74.906 49.9034 74.6424 49.8754 74.3647 49.8707L74.2894 49.9454C74.1718 49.992 74.0871 50.0854 74.0024 50.1927C73.8612 50.3094 73.7294 50.468 73.5505 50.51C73.527 50.5287 73.5082 50.5474 73.4847 50.566C73.0987 50.804 72.6752 50.958 72.2422 51.028C72.1245 51.0513 71.9975 51.0373 71.8892 51.0933C71.7433 51.0373 71.5974 51.042 71.4421 51.0513C71.3857 51.0513 71.3339 51.042 71.2774 51.0327C71.1221 51 70.9715 50.944 70.8209 50.8927C70.7879 50.8787 70.7503 50.874 70.7126 50.8693C70.6562 50.86 70.6421 50.8833 70.6421 50.93C70.6421 51.0093 70.6185 51.014 70.5244 50.9673C70.5009 50.9487 70.4773 50.93 70.4538 50.9113C70.4209 50.832 70.3267 50.8087 70.2656 50.748C70.2044 50.6874 70.162 50.6874 70.1102 50.7247C70.0679 50.7573 70.002 50.7247 69.9596 50.6827C69.9549 50.678 69.9455 50.664 69.9455 50.6594C69.9455 50.6454 69.9549 50.6314 69.9643 50.6267C69.9785 50.6267 69.9973 50.6267 70.0161 50.6314C70.0444 50.636 70.0961 50.6547 70.0961 50.608C70.0961 50.5754 70.0632 50.5474 70.0302 50.5287C70.002 50.5054 69.9643 50.4914 69.9314 50.496C69.8279 50.5007 69.7667 50.44 69.7196 50.3467C69.6631 50.244 69.5878 50.174 69.4749 50.1367C69.4325 49.9967 69.329 49.894 69.2396 49.782C69.2113 49.7447 69.1596 49.712 69.1502 49.6747C69.0937 49.474 68.9713 49.32 68.8913 49.1334C68.849 49.04 68.8631 48.9234 68.7737 48.8534C68.7407 48.802 68.7031 48.7834 68.6607 48.7554C68.6372 48.7134 68.6042 48.7134 68.5713 48.7041C68.5572 48.6387 68.5383 48.5687 68.5807 48.5221C68.6183 48.5874 68.6466 48.5781 68.6654 48.5127C68.6654 48.3961 68.6466 48.2794 68.6513 48.1581C68.6607 48.0741 68.6607 47.9761 68.7501 47.9761V47.9201H68.7972C68.8207 47.7521 68.849 47.5841 68.9007 47.4207C68.9101 47.3647 68.929 47.3087 68.9478 47.2527C68.9243 47.2154 68.9337 47.1734 68.9478 47.1267C68.8678 47.1501 68.7925 47.1267 68.7172 47.1081C68.7925 47.1314 68.8631 47.1501 68.9478 47.1267L68.9901 47.1407C69.0043 47.1034 69.0137 47.0661 69.0325 47.0334L68.9995 47.0147L69.009 46.9914L69.0231 46.9681L69.0749 46.8561L69.0843 46.8094C69.1078 46.6881 69.1596 46.5574 69.2537 46.4781C69.4419 46.3054 69.5973 46.1094 69.7949 45.9461L69.7667 45.9134C69.7667 45.9134 69.7337 45.9134 69.7243 45.9134C69.7337 45.9228 69.7479 45.9228 69.7667 45.9134C69.7902 45.8854 69.8232 45.8668 69.8514 45.8388L69.8326 45.8061L69.8655 45.7734L69.9267 45.7361L69.9549 45.7734C69.9926 45.7454 70.0349 45.7221 70.0773 45.7408C70.1808 45.6848 70.275 45.6148 70.3832 45.5681L70.3644 45.5308L70.4726 45.4748L70.4915 45.5168C70.5244 45.4981 70.562 45.4841 70.5997 45.4701L70.5715 45.4234C70.562 45.3721 70.6044 45.3348 70.6609 45.3021C70.7079 45.2928 70.7597 45.2741 70.7974 45.3021C70.9715 45.3208 71.1315 45.2648 71.3056 45.2508C71.3951 45.2321 71.4986 45.2134 71.5786 45.2648H71.6257C71.7857 45.2554 71.9457 45.2648 72.0492 45.1481L72.0586 45.1574C72.1198 45.1714 72.1904 45.1668 72.2234 45.2228C72.2845 45.2274 72.341 45.2414 72.4022 45.2601L72.4728 45.2321L72.4634 45.2741L72.5199 45.2928C72.5858 45.3068 72.6564 45.3208 72.6752 45.3861L72.8399 45.4514C72.887 45.4654 72.9293 45.4794 72.9717 45.4561C73.0564 45.4281 73.1317 45.4841 73.207 45.5214H73.287C73.367 45.5868 73.4188 45.6801 73.5411 45.6848C73.6117 45.7081 73.6917 45.7221 73.6964 45.8154C73.6964 45.8434 73.7294 45.8761 73.7482 45.9088L73.72 45.9414C73.7106 45.9554 73.7011 45.9648 73.6917 45.9741C73.7341 46.0208 73.7953 46.0628 73.7906 46.1281L73.8659 46.2121C74.0306 46.2914 74.0777 46.3708 74.1247 46.5294C74.153 46.5574 74.1671 46.5948 74.1859 46.6274L74.28 46.7768C74.3694 46.8001 74.3789 46.8981 74.4212 46.9681C74.4495 47.0194 74.473 47.0754 74.4918 47.1314C74.5153 47.2061 74.553 47.2761 74.5671 47.3554L74.5812 47.4114C74.6377 47.4394 74.6471 47.4767 74.6142 47.5281L74.6283 47.5841C74.6706 47.6027 74.6801 47.6494 74.6942 47.6961C74.7271 47.8361 74.7507 47.9714 74.8636 48.0414C74.8918 48.1067 74.9154 48.1861 74.9577 48.2374C74.9671 48.3401 74.9954 48.4241 75.0377 48.4987C75.1083 48.5921 75.1836 48.6667 75.2966 48.6014C75.3201 48.6341 75.3295 48.6761 75.3295 48.7274C75.4048 48.6901 75.4566 48.746 75.4848 48.844L75.5695 48.8674C75.5695 48.8674 75.5695 48.9047 75.5695 48.9234L75.6919 48.8954C75.7531 49.1007 75.866 49.138 76.0025 49.1007H76.0449Z" fill="white"/>
<path d="M21 88.7433H31.0103C34.46 88.7433 36.7049 90.8153 36.7049 94.2639C36.7049 97.7125 34.4553 99.8591 31.0103 99.8591H27.5606C26.304 99.8591 25.0239 100.013 23.852 100.638V108.077H21V88.7433ZM31.0103 97.0079C32.8646 97.0079 33.8858 96.1259 33.8858 94.2592C33.8858 92.3926 32.8928 91.5666 31.0103 91.5666H23.8473V97.7872C25.0239 97.1152 26.2758 97.0079 27.5559 97.0079H31.0103Z" fill="white"/>
<path d="M43.3173 88.4073H46.4517L55.8313 108.072H52.6452L51.365 105.249H45.4351C41.8819 105.249 39.9711 106.364 39.5287 107.167L39.0298 108.072H35.9472L44.3903 90.7873L43.3173 88.4027V88.4073ZM50.0849 102.398L45.8257 94.2359L41.5148 103.485C42.2207 102.888 43.8161 102.398 46.4799 102.398H50.0849Z" fill="white"/>
<path d="M68.0395 100.064H65.7663C64.5097 100.064 63.2579 100.195 62.0813 100.816V108.072H59.234V88.7433H69.4796C73.0329 88.7433 75.6213 90.792 75.6213 94.4459C75.6213 97.3719 73.9506 99.2665 71.1268 99.9665L72.6422 103.051C73.8706 104.838 74.313 105.226 75.5695 105.226H75.8566L76.4826 105.202V108.077C74.2094 108.077 71.908 108.077 70.4209 105.02L68.0442 100.069L68.0395 100.064ZM62.0813 97.9925C63.2579 97.3205 64.4862 97.2412 65.7663 97.2412H69.4749C71.4374 97.2412 72.7928 96.3592 72.7928 94.2872C72.7928 92.2153 71.3292 91.5666 69.4749 91.5666H62.0813V97.9925Z" fill="white"/>
<path d="M89.2366 108.072H85.8669L77.8192 88.7433H80.9018L87.5659 104.913L94.2818 88.7433H97.4162L89.2366 108.072Z" fill="white"/>
<path d="M101.073 108.072V88.7433H103.869V108.072H101.073Z" fill="white"/>
<path d="M107.921 88.7433H111.606L124.124 103.513V88.7433H127V108.072H124.176L112.989 94.7772V108.072H110.194V91.464L107.921 88.7433Z" fill="white"/>
<path d="M46.9835 115.273L46.6258 115.245C46.847 114.657 47.247 114.083 47.8871 113.892C48.3483 113.98 48.3907 114.419 48.3907 114.89C48.3765 116.58 48.0518 118.082 48.0518 119.697C48.0518 120.005 48.0659 120.327 48.0942 120.653V121.283C48.0942 121.563 48.1224 121.811 48.2448 121.918C48.9695 120.859 50.2638 117.331 50.2638 115.054C50.2638 114.54 50.132 114.083 50.132 113.626C50.132 113.551 50.1461 113.495 50.1461 113.42C50.1461 113.29 50.1038 113.201 50.0567 113.112L50.1132 113.07C50.6167 113.304 50.8097 113.836 50.8097 114.526C50.7062 117.48 49.8308 119.333 48.9131 121.876C48.8236 122.095 48.6448 122.361 48.4095 122.361H48.3813C48.3201 122.361 48.2307 122.375 48.1742 122.375C47.6565 122.301 47.6094 121.787 47.6094 121.288V120.523C47.6094 118.465 47.8306 116.435 47.8447 114.363C47.4447 114.554 47.1906 114.909 46.9835 115.273Z" fill="white"/>
<path d="M52.3204 119.328C52.424 119.062 52.5557 118.945 52.6781 118.945C52.8428 118.945 52.9605 119.137 52.9605 119.417C52.9605 119.533 52.9464 119.65 52.8993 119.785C52.7816 120.107 52.7063 120.359 52.7063 120.537C52.7063 120.756 52.8099 120.873 52.9887 120.873C53.5535 120.873 54.5747 120.005 54.9889 119.594L55.1395 119.771C54.7112 120.196 53.417 121.316 52.4569 121.316C52.2357 121.316 52.071 121.199 52.071 120.803C52.071 120.597 52.0992 120.317 52.2028 119.949C52.2169 119.874 52.231 119.58 52.3204 119.333V119.328ZM52.5322 116.818C52.5322 116.818 52.5604 116.79 52.5746 116.79L52.9322 116.29C53.1534 116.407 53.304 116.673 53.3182 116.939C53.3182 117 53.304 117.042 53.304 117.102C53.2005 117.41 53.2758 117.265 53.097 117.559L53.0217 117.573C52.8146 117.41 52.6499 117.266 52.5322 116.822V116.818Z" fill="white"/>
<path d="M56.2078 113.682C56.3255 113.532 56.4761 113.271 56.6832 113.271C57.022 113.271 57.0832 113.523 57.0832 113.77C57.0832 114.036 56.8479 114.816 56.8008 114.993L56.4431 116.23C56.8902 116.216 57.3185 116.216 57.4079 116.216C57.6621 116.216 57.7939 116.23 58.7116 116.276V116.29C57.0644 116.645 57.808 116.542 56.3114 116.687C55.9396 118.026 55.6148 119.379 55.2713 120.733C55.1677 121.143 55.1207 121.484 55.1207 121.745C55.1207 122.305 55.3419 122.525 55.6713 122.525C56.6079 122.525 58.5327 120.761 59.7046 119.599L59.8552 119.776C58.7728 120.849 56.6079 122.935 55.4078 122.935C54.9042 122.935 54.5606 122.553 54.5606 121.582C54.5606 121.33 54.5889 121.022 54.6359 120.686C54.8006 119.981 54.9607 119.277 55.1395 118.567C54.9183 117.816 54.2218 117.112 53.3746 116.715C52.9275 116.687 52.4993 116.64 52.0851 116.538C51.8169 116.477 51.5533 116.524 51.5533 116.169C51.5533 116.006 51.6145 115.833 51.6145 115.67C51.671 115.67 51.7604 115.656 51.8216 115.656C52.0898 115.656 52.4899 115.8 52.6969 115.889C52.8287 115.95 52.9652 116.006 53.1111 116.08C53.8217 116.183 54.6077 116.244 55.3795 116.244H55.7372L56.0478 115.096C56.0761 114.596 56.0478 113.892 56.2125 113.686L56.2078 113.682ZM55.6007 116.729C55.2007 116.743 54.8759 116.743 54.5042 116.743H54.1182C54.5936 117.126 55.0077 117.597 55.2619 118.096C55.3795 117.639 55.4831 117.186 55.6054 116.729H55.6007Z" fill="white"/>
<path d="M59.8411 120.448C59.8411 120.803 60.1235 120.947 60.4623 120.947C61.3377 120.947 62.7778 120.051 63.2343 119.594L63.3849 119.771C62.8955 120.257 61.2624 121.288 60.2129 121.288C59.7658 121.288 59.2622 121.069 59.2622 120.569C59.2622 119.701 59.9588 118.759 60.6412 118.6C60.6976 118.586 60.7447 118.572 60.8059 118.572C61.0741 118.572 61.1777 118.735 61.1777 118.941C61.1777 119.001 61.1636 119.071 61.1494 119.146C60.9706 119.762 60.3917 120.056 59.9352 120.056C59.8929 120.159 59.8458 120.336 59.8458 120.453L59.8411 120.448ZM60.7023 119.183C60.7023 119.109 60.6741 119.081 60.627 119.081C60.5094 119.081 60.2411 119.375 60.0482 119.757C60.387 119.743 60.7023 119.594 60.7023 119.183Z" fill="white"/>
<path d="M65.9922 119.328C66.0958 119.062 66.2275 118.945 66.3499 118.945C66.5146 118.945 66.6323 119.137 66.6323 119.417C66.6323 119.533 66.6182 119.65 66.5711 119.785C66.4534 120.107 66.3781 120.359 66.3781 120.537C66.3781 120.756 66.4817 120.873 66.6605 120.873C67.2253 120.873 68.2465 120.005 68.6607 119.594L68.8066 119.771C68.3783 120.196 67.0888 121.316 66.124 121.316C65.9028 121.316 65.7381 121.199 65.7381 120.803C65.7381 120.597 65.7663 120.317 65.8699 119.949C65.884 119.874 65.8981 119.58 65.9875 119.333L65.9922 119.328ZM66.1993 116.818C66.1993 116.818 66.2275 116.79 66.2417 116.79L66.5993 116.29C66.8205 116.407 66.9711 116.673 66.9853 116.939C66.9853 117 66.9711 117.042 66.9711 117.102C66.8676 117.41 66.9429 117.265 66.7641 117.559L66.6888 117.573C66.4817 117.41 66.317 117.266 66.1993 116.822V116.818Z" fill="white"/>
<path d="M70.8444 119.034C70.8868 119.034 70.9197 119.034 70.9621 119.048C71.348 119.197 71.3904 119.547 71.3904 119.888C71.3904 120.107 71.3292 120.387 71.3292 120.593C71.3292 120.77 71.3762 120.887 71.5221 120.887C72.2187 120.887 73.9082 120.005 74.3271 119.594L74.4777 119.771C74.0494 120.196 71.9692 121.433 71.0374 121.433C70.7127 121.433 70.6232 121.283 70.6232 121.008C70.6232 120.775 70.6844 120.434 70.6844 120.023C70.6844 119.981 70.6703 119.832 70.6562 119.729C69.9879 120.084 69.5878 120.378 69.2349 120.817C69.2207 120.831 68.8631 121.274 68.8207 121.316C68.7031 121.419 68.5666 121.479 68.4489 121.568C68.3171 121.493 68.0771 121.479 68.0771 121.274C68.0771 121.171 68.1054 121.041 68.1195 120.994C68.3407 119.995 68.4583 119.127 68.5807 118.259C68.6231 118.259 68.6842 118.245 68.7266 118.245C69.1266 118.245 69.2772 118.614 69.2772 118.95C69.2772 119.319 69.1266 119.743 69.0419 120.023C68.9996 120.201 68.9243 120.378 68.8631 120.551C69.2631 120.196 69.7243 119.935 70.0961 119.538C70.275 119.375 70.5715 119.039 70.8538 119.039L70.8444 119.034Z" fill="white"/>
<path d="M76.9344 121.139C76.9767 120.387 76.9485 120.317 76.9956 119.608C77.0238 119.197 76.9061 118.665 77.3956 118.665C77.6497 118.665 77.7062 118.885 77.7062 119.137V119.239C77.6639 120.107 77.5886 120.387 77.5415 121.195C77.5415 121.223 77.5133 121.358 77.5133 121.475C77.5133 121.517 77.5274 121.563 77.5274 121.591C77.9415 121.031 78.3416 120.252 78.3416 119.473C78.3416 119.384 78.3416 119.295 78.3274 119.207C78.3416 118.899 78.5204 118.339 79.0522 118.339C79.184 118.339 79.2452 118.441 79.2452 118.591C79.2452 118.913 79.024 119.445 78.9346 119.706C79.1558 119.883 79.5887 120.061 80.0923 120.061C80.5206 120.061 80.9677 119.944 81.3254 119.589L81.4713 119.767C81.0712 120.163 80.5535 120.327 80.0641 120.327C79.5746 120.327 79.1605 120.177 78.831 119.972C78.3416 120.957 78.3839 121.941 77.2732 122.147C76.9909 122.147 76.9156 121.689 76.9156 121.353C76.9156 121.279 76.9297 121.19 76.9297 121.134L76.9344 121.139Z" fill="white"/>
<path d="M81.3677 119.328C81.4713 119.062 81.603 118.945 81.7254 118.945C81.8901 118.945 82.0078 119.137 82.0078 119.417C82.0078 119.533 81.9937 119.65 81.9466 119.785C81.8289 120.107 81.7536 120.359 81.7536 120.537C81.7536 120.756 81.8572 120.873 82.036 120.873C82.6008 120.873 83.622 120.005 84.0362 119.594L84.1821 119.771C83.7538 120.196 82.4596 121.316 81.4995 121.316C81.2783 121.316 81.1136 121.199 81.1136 120.803C81.1136 120.597 81.1418 120.317 81.2453 119.949C81.2595 119.874 81.2736 119.58 81.363 119.333L81.3677 119.328ZM81.5748 116.818C81.5748 116.818 81.603 116.79 81.6171 116.79L81.9748 116.29C82.196 116.407 82.3466 116.673 82.3607 116.939C82.3607 117 82.3466 117.042 82.3466 117.102C82.2431 117.41 82.3184 117.265 82.1395 117.559L82.0642 117.573C81.8572 117.41 81.6925 117.266 81.5748 116.822V116.818Z" fill="white"/>
<path d="M84.1444 120.784C83.7867 120.784 83.5373 120.653 83.5373 120.313C83.5373 119.739 85.081 118.605 86.4458 118.605C86.8741 118.605 87.2176 118.754 87.3494 119.09C87.5847 119.118 87.66 119.323 87.66 119.575C87.66 119.706 87.6459 119.855 87.5989 120C87.3918 120.737 87.1706 122.133 86.8129 123.486C87.1094 123.355 87.3777 123.234 87.5989 123.164C88.046 123.001 89.2743 122.651 89.9708 122.651C90.1214 122.651 90.225 122.665 90.3097 122.693L90.1779 122.795C89.3308 123.047 88.3707 123.206 87.5659 123.5C87.3306 123.589 87.0153 123.733 86.6764 123.925C86.187 125.558 85.4904 127 84.3044 127C83.9938 127 83.815 126.678 83.815 126.398C83.815 125.399 84.9116 124.499 86.0081 123.883C86.5117 122.263 86.8364 120.341 86.9117 119.837C86.5117 120.042 85.001 120.779 84.1397 120.779L84.1444 120.784ZM86.3517 119.053C85.241 119.053 83.9515 120.201 83.9515 120.392C83.9515 120.495 84.0268 120.541 84.1444 120.541C84.7233 120.541 86.427 119.51 86.6341 119.365L86.8553 119.235C86.7376 119.118 86.5588 119.057 86.3517 119.057V119.053ZM84.455 126.314C84.455 126.342 84.4692 126.342 84.4833 126.342C84.9727 126.342 85.4481 125.549 85.8199 124.489C85.0951 125.017 84.455 125.679 84.455 126.314Z" fill="white"/>
<path d="M91.5851 119.034C91.6274 119.034 91.6604 119.034 91.7027 119.048C92.0887 119.197 92.131 119.547 92.131 119.888C92.131 120.107 92.0698 120.387 92.0698 120.593C92.0698 120.77 92.1122 120.887 92.2628 120.887C92.9593 120.887 94.6489 120.005 95.0678 119.594L95.2183 119.771C94.7901 120.196 92.7099 121.433 91.778 121.433C91.4533 121.433 91.3639 121.283 91.3639 121.008C91.3639 120.775 91.4251 120.434 91.4251 120.023C91.4251 119.981 91.411 119.832 91.3968 119.729C90.7285 120.084 90.3285 120.378 89.9755 120.817C89.9614 120.831 89.6037 121.274 89.5614 121.316C89.4437 121.419 89.3072 121.479 89.1896 121.568C89.0578 121.493 88.8178 121.479 88.8178 121.274C88.8178 121.171 88.846 121.041 88.8601 120.994C89.0813 119.995 89.199 119.127 89.3214 118.259C89.3637 118.259 89.4249 118.245 89.472 118.245C89.872 118.245 90.0226 118.614 90.0226 118.95C90.0226 119.319 89.872 119.743 89.7873 120.023C89.7449 120.201 89.6696 120.378 89.6084 120.551C90.0085 120.196 90.4697 119.935 90.8415 119.538C91.0203 119.375 91.3168 119.039 91.5992 119.039L91.5851 119.034Z" fill="white"/>
<path d="M98.2586 120.742C98.2586 120.975 98.3339 121.153 98.4516 121.153C99.1481 121.153 100.871 120.005 101.285 119.594L101.435 119.771C101.181 120.023 99.0916 121.666 98.0704 121.666C97.7268 121.666 97.4915 121.475 97.4915 120.989C97.4915 120.798 97.5339 120.546 97.6233 120.238C97.6374 120.163 97.6845 120.061 97.7127 119.958C97.7409 119.869 97.8162 119.767 97.8162 119.725C97.8162 119.711 97.8021 119.697 97.788 119.697C96.6773 120.285 96.2161 120.784 95.1478 120.961C94.8654 120.961 94.5971 120.709 94.5971 120.401C94.5971 119.739 95.9478 118.46 97.3127 118.46C97.7409 118.46 98.0845 118.609 98.2163 118.945C98.4375 118.987 98.5269 119.179 98.5269 119.431C98.5269 119.902 98.2586 120.271 98.2586 120.737V120.742ZM97.2185 118.903C96.1078 118.903 94.9783 120.271 94.9783 120.49C94.9783 120.621 95.1572 120.639 95.2607 120.639C96.2537 120.462 96.5785 119.888 97.5009 119.211L97.7221 119.081C97.6045 118.964 97.4256 118.903 97.2185 118.903Z" fill="white"/>
<path d="M101.337 84.3428L104 87.6747H101.944L98.268 84.3428H101.337Z" fill="white"/>
</svg>
