<svg width="148" height="148" viewBox="0 0 148 148" fill="none" xmlns="http://www.w3.org/2000/svg">
<path d="M14.0183 62.0218L28.1803 62.0043C31.5801 61.9904 34.9799 62.0102 38.3792 62.0639C38.3032 62.7628 38.3442 64.4764 38.3459 65.217L38.3887 72.0442C37.3038 73.0006 36.336 73.8517 35.177 74.726C31.5125 77.3431 27.5553 78.6053 23.0428 77.8033C19.2811 77.1348 16.8836 75.5036 14.013 73.1825C13.9745 69.4558 14.0355 65.7478 14.0183 62.0218Z" fill="white"/>
<path d="M38.3377 73.531C38.4359 73.769 38.3386 85.0253 38.3318 85.9975C34.9831 85.9257 31.68 85.9917 28.3326 86L14.0249 85.9856C13.983 83.2583 14.0226 80.4984 14.0082 77.7651C14.0038 76.7423 13.9887 75.7044 14.0297 74.6837C14.5311 75.2748 15.0036 76.111 15.4638 76.7652C18.4792 81.0516 23.0699 84.5346 28.6743 82.8047C33.4462 81.3317 36.0421 77.6457 38.3377 73.531Z" fill="white"/>
<path d="M62.2988 69.0255C62.7466 69.2465 63.5421 77.2805 64.0428 78.2121C64.299 78.6888 65.0211 78.3108 65.262 78.7385C64.9694 78.8772 62.5755 78.7601 62.0374 78.7576C62.1255 77.421 61.5859 74.0001 61.3066 72.6101C60.5207 73.9389 58.7078 78.0366 57.9338 78.809C57.2465 78.1663 55.1007 73.6253 54.5643 72.5453C54.4958 73.0772 54.4359 73.6101 54.3848 74.1438C54.1879 75.2531 54.0742 76.655 53.9386 77.7946C53.8188 78.8016 54.6454 78.3206 54.9464 78.6432L54.9093 78.7383C54.5582 78.8915 52.1032 78.9229 51.9489 78.6329C52.1005 78.501 52.3782 78.4726 52.5842 78.434C52.9786 77.5002 53.0933 76.272 53.2697 75.2737C53.6168 73.3082 53.8106 70.8657 54.3601 68.9816C55.1487 69.7768 57.779 75.214 58.3076 76.4423C59.2111 74.9561 59.9149 73.2431 60.7263 71.6965C61.1784 70.8347 61.6349 69.7304 62.2988 69.0255Z" fill="white"/>
<path d="M109.745 69.1213C110.303 69.293 116.383 75.422 117.354 76.4485L117.252 72.4059C117.231 71.6366 117.234 70.5298 117.129 69.7923C116.854 69.7344 116.395 69.6517 116.173 69.4935L116.203 69.4271C116.825 69.2432 118.946 69.3912 119.638 69.4363C119.341 69.5812 118.87 69.7215 118.614 69.8501C118.243 70.0367 118.317 71.4417 118.305 71.8216C118.259 73.2251 118.237 74.6293 118.24 76.0335C118.234 76.7622 118.273 78.3463 118.111 78.9777C118.086 78.9787 118.062 78.9792 118.037 78.9792C117.594 78.9768 116.381 77.6191 115.951 77.2537C114.004 75.5984 112.318 73.7495 110.522 71.9464C110.496 73.3551 110.523 76.5876 110.762 78.1126C110.799 78.3533 111.831 78.4855 111.976 78.7336C111.783 78.892 108.795 78.9113 108.474 78.7107L108.499 78.634C108.742 78.4869 109.145 78.4398 109.435 78.3875C109.576 76.0258 109.475 73.6221 109.554 71.2551C109.578 70.5167 109.509 69.8347 109.745 69.1213Z" fill="white"/>
<path d="M130.296 69.1964C131.471 69.1716 132.766 69.3617 133.936 69.5127C133.942 70.0687 133.981 71.4899 133.755 71.9333L133.65 71.921C133.369 71.6522 133.478 70.6014 132.688 70.2939C131.004 69.6391 128.339 69.5696 127.378 71.4064C125.573 74.8583 128.218 79.2067 132.376 78.0101C133.487 77.5978 133.262 77.1609 133.876 76.5709L133.953 76.5928C134.119 77.243 133.809 78.0562 133.598 78.6597C130.173 79.6129 125.155 78.6598 124.873 74.3841C124.65 71.0184 127.099 69.3342 130.296 69.1964Z" fill="white"/>
<path d="M91.3001 69.197C92.6556 69.2143 93.6322 69.3448 94.9734 69.5101C94.9734 70.4354 94.95 71.3006 94.819 72.2189C94.4641 71.5305 94.365 70.7285 93.601 70.263C92.6995 69.7423 91.3631 69.8301 90.3907 69.998C88.1709 70.3814 87.479 72.9729 87.933 74.8974C88.1829 76.003 88.8724 76.9636 89.8472 77.5644C90.9433 78.2324 92.1733 78.3672 93.4148 78.0789C94.3073 77.8463 94.3722 77.0323 94.9506 76.3163C94.9632 76.4757 94.9728 76.6355 94.9806 76.7952C95.0677 78.7204 94.4028 78.8945 92.6568 78.9858C90.7103 79.0876 88.8129 78.7399 87.3234 77.4239C85.494 75.8079 85.3744 72.5221 87.1168 70.8041C88.3565 69.5557 89.6069 69.2607 91.3001 69.197Z" fill="white"/>
<path d="M78.3647 69.377C80.5179 69.3182 82.6309 69.4554 84.8405 69.3706C84.7756 70.0314 84.7744 70.5909 84.6693 71.2665C84.4141 70.8587 84.3252 70.6337 84.154 70.1842C83.1516 70.1361 82.3468 70.1272 81.3383 70.1374C81.3023 71.2702 81.3107 72.2171 81.3401 73.3466C82.5095 73.3857 83.5804 73.4434 84.7126 73.1204C84.6297 73.5514 84.6237 74.6894 84.4087 74.9576L84.3138 74.9464C84.1348 74.7526 84.0603 74.4085 83.9828 74.1496C83.1005 74.1319 82.2182 74.1293 81.3353 74.1419L81.3167 76.1985C81.3281 76.6491 81.3425 77.0996 81.3594 77.5501C82.0867 78.2824 83.0621 78.3129 84.0537 78.1342C84.6795 78.0213 84.9258 77.2451 85.2111 76.7316C85.1738 77.433 85.0741 78.1298 84.9126 78.814C83.5318 78.8273 79.2969 78.9402 78.2236 78.6887C78.5425 78.5906 79.0542 78.5613 79.2891 78.3134C79.8098 77.7638 79.5647 70.9713 79.5095 69.8045C79.2176 69.7318 78.3953 69.5453 78.1737 69.4192L78.3647 69.377Z" fill="white"/>
<path d="M49.2115 69.1932C49.8171 69.0648 50.8391 69.2855 51.4505 69.4119C51.481 70.1512 51.4511 70.7079 51.3916 71.4338C50.8203 70.6985 50.6416 69.8439 49.4485 69.7842C48.6677 69.745 47.5394 70.2752 47.4922 71.139C47.4829 71.9304 48.6464 72.6718 49.2899 73.0053C51.4524 74.126 52.8034 76.1338 50.8016 78.1838C50.0332 78.9709 48.9041 79.006 47.8187 78.9679C46.9547 78.9105 46.6764 78.9028 45.8772 78.6135C45.8398 78.1099 45.7168 76.711 45.9239 76.311C46.2494 76.3566 46.3831 77.619 46.9013 77.9493C47.369 78.2663 47.968 78.4156 48.5343 78.3569C49.4767 78.2591 50.3943 77.475 50.2327 76.4686C50.0331 75.2252 48.5647 74.9414 47.6946 74.2446C46.9761 73.6692 46.2465 72.9591 46.1103 72.0014C45.8747 70.0742 47.6519 69.3906 49.2115 69.1932Z" fill="white"/>
<path d="M95.8251 69.3793C96.4599 69.3157 99.1783 69.2977 99.6768 69.5056L99.6744 69.5728C99.4587 69.7037 99.1062 69.7358 98.8479 69.7764C98.7296 70.8951 98.7746 72.2438 98.7458 73.3874C98.714 74.6403 98.684 76.0465 98.7981 77.2997C98.8299 77.6544 99.0834 77.7999 99.3602 77.9961C100.244 78.1225 101.985 78.3296 102.429 77.4069C102.557 77.1406 102.575 76.9856 102.871 76.8851L102.938 76.949C102.986 77.1929 102.916 77.4878 102.874 77.737C102.798 78.0855 102.653 78.4947 102.539 78.84C101.641 78.9328 100.291 78.882 99.371 78.86C98.1524 78.8301 96.9338 78.8106 95.7145 78.8015C96.0437 78.6001 96.4239 78.4363 96.777 78.275C96.9284 77.5774 96.9536 76.1437 96.9644 75.402C96.9902 73.6104 97.0173 71.6186 96.8695 69.8398C96.5434 69.7466 96.0154 69.6394 95.8251 69.3793Z" fill="white"/>
<path d="M70.8948 69.4169C71.1128 69.3767 72.0762 69.401 72.342 69.4033L75.3959 69.4273C74.8962 69.5441 74.3917 69.674 73.8926 69.7973C73.8127 70.5141 73.7701 71.9664 73.7785 72.9101C73.7887 74.0043 73.6613 76.8442 74.1316 77.7543C74.48 78.1188 75.3412 78.1048 75.713 78.1241C77.5215 78.2179 77.1857 77.5368 78.0146 76.7188L78.0386 76.9396C77.9377 77.6649 77.8638 78.0895 77.6992 78.7964C76.9347 78.8556 71.2935 78.8734 70.974 78.7459C71.1432 78.5071 72.0283 78.4304 72.0169 77.8353C71.9667 75.215 72.1896 72.3652 71.9687 69.766C71.6381 69.6402 71.2691 69.5599 70.8948 69.4169Z" fill="white"/>
<path d="M103.61 69.3727C104.119 69.3216 106.882 69.2703 107.189 69.4824C107.026 69.697 106.611 69.7428 106.345 69.7847C105.967 71.9964 106.328 75.7577 106.351 78.0617C106.356 78.5589 107.494 78.319 107.613 78.7857C107.115 78.8944 103.966 78.8235 103.318 78.7726C103.594 78.595 104.039 78.3841 104.344 78.2299C104.501 77.2446 104.452 76.0074 104.464 75.0123C104.487 73.2556 104.435 71.5583 104.345 69.8051L104.289 69.7928C104.034 69.7359 103.641 69.6833 103.505 69.4712L103.61 69.3727Z" fill="white"/>
<path d="M120.546 69.3702C121.547 69.2932 123.445 69.3255 124.441 69.3641C124.137 69.4894 123.628 69.6515 123.419 69.9045C122.979 70.4381 123.231 77.3575 123.344 78.3765C123.615 78.4131 124.284 78.4853 124.471 78.6662L124.421 78.7474L124.137 78.8061C123.597 78.8386 120.78 78.9133 120.457 78.737L120.471 78.6482C120.706 78.4898 121.037 78.4472 121.32 78.3906C121.458 76.7455 121.457 75.2044 121.427 73.5647C121.404 72.2611 121.534 71.0986 121.288 69.785C121.032 69.7379 120.538 69.6985 120.419 69.4661L120.546 69.3702Z" fill="white"/>
<path d="M68.1384 69.3781C68.7464 69.3666 69.3691 69.3852 69.9782 69.3963C69.5873 69.5227 69.1938 69.6405 68.7977 69.7497C68.6705 70.5462 68.6144 77.6103 68.8247 78.179C69.0082 78.6753 69.7308 78.4382 70.1108 78.6202C70.1555 78.6416 70.1574 78.6832 70.1725 78.7277C69.8813 78.8616 68.3064 78.819 67.8727 78.8174C67.196 78.8213 66.4979 78.8391 65.8254 78.7762C66.0998 78.6 66.5195 78.4313 66.8289 78.297C66.9587 77.4346 66.9403 75.7543 66.9462 74.8382C66.9567 73.2095 66.9773 71.4189 66.8638 69.7998C66.3818 69.6773 66.0162 69.5723 65.5464 69.4116L68.1384 69.3781Z" fill="white"/>
</svg>
