<svg width="148" height="148" viewBox="0 0 148 148" fill="none" xmlns="http://www.w3.org/2000/svg">
<path d="M77.3972 97.2181C77.816 97.342 77.7994 98.7596 77.6998 99.0923C77.5098 99.7244 76.5117 99.2198 76.5191 99.5747L78.2698 104.846L78.4562 104.981L80.2106 99.5747L79.3786 99.2975V97.2181H84.2673C84.7064 97.9149 84.8632 99.6265 83.6216 99.4361C83.4574 99.8039 83.7821 99.9961 83.8006 100.059C84.2673 101.654 84.9222 103.294 85.376 104.889L87.3112 99.4823L86.2043 99.2975V97.2181H91.0469C91.3698 97.2181 91.6926 99.1958 90.9344 99.4158C90.6724 99.4915 90.2205 99.3307 90.0304 99.5267C89.8109 99.7522 89.3958 101.349 89.2372 101.763C88.4974 103.693 87.8204 106.118 87.0105 108.053C86.8666 108.395 86.6083 109.057 86.2467 109.136C85.5863 109.28 84.4997 109.251 84.1326 108.58C83.3098 107.077 82.7121 104.325 82.0461 102.63C82 102.512 82.0074 102.377 81.8229 102.392C81.1791 104.606 80.3618 106.755 79.469 108.881C79.1756 109.252 77.7367 109.227 77.4046 109.034C76.9803 108.79 76.5855 107.003 76.4029 106.526C75.534 104.273 74.5821 102.026 73.8755 99.7078C73.7538 99.2383 72.551 99.5914 72.551 99.2014V97.3531L72.6893 97.2144H77.3936L77.3972 97.2181Z" fill="white"/>
<path d="M22.9295 108.816C22.734 109.393 20.3321 109.541 20.2822 108.513C19.9871 107.449 20.5756 99.7559 20.2546 99.4361C20.2251 99.4065 19.6716 99.4712 19.4908 99.4158C18.906 99.2402 18.7455 97.3605 19.5591 97.2144C19.8616 97.159 23.1085 97.1645 23.2782 97.2422L26.5269 101.867L26.7593 101.933L30.0339 97.2181H32.7549L32.8933 97.3568V108.955C32.1628 109.204 31.2145 109.273 30.4951 108.955V101.331L30.3106 101.236C30.1796 101.551 29.8641 101.758 29.6815 101.989C29.2332 102.554 27.1301 105.861 26.5822 105.816C26.0657 105.774 23.5162 101.682 22.9332 101.19V108.814L22.9295 108.816Z" fill="white"/>
<path d="M57.9346 97.2181C63.5686 98.1201 64.1996 108.513 56.8351 109.147C55.8777 109.23 52.9979 109.284 52.1198 109.145C51.915 109.112 51.8043 109.001 51.6162 108.957V99.7614C51.6162 99.3788 50.738 99.4768 50.572 99.4213C50.0555 99.2476 50.1403 97.5859 50.5093 97.22H57.9346V97.2181ZM57.2889 99.6209C56.4329 99.4527 55.0678 99.7448 54.1528 99.6209L54.0144 99.7596V106.552H57.4734C57.5251 106.552 58.2796 106.131 58.3958 106.051C60.2222 104.809 60.1668 101.399 58.394 100.177C58.298 100.111 57.3498 99.632 57.2889 99.6209Z" fill="white"/>
<path d="M100.642 97.2181L105.649 108.097C106.029 109.524 104.204 109.177 103.328 109.036L102.3 107.016L96.6016 106.938L95.3951 109.051C92.4932 109.456 92.8198 108.842 93.6905 106.718L96.8986 99.8353C96.9208 99.3733 95.9855 99.4675 95.9855 99.2956V97.2163H100.644L100.642 97.2181ZM101.149 104.519L99.3061 100.36L97.4594 104.519H101.149Z" fill="white"/>
<path d="M40.6396 99.4361V102.024C41.4569 101.968 45.5708 101.739 45.9858 102.074C46.3566 102.371 46.3917 103.918 46.0117 104.149C45.7239 104.325 41.8369 104.02 41.0492 104.146C40.7282 104.197 40.6396 104.262 40.6396 104.567V106.739H46.5891C47.1425 106.739 47.2827 109.027 46.5651 109.118C45.2092 108.925 39.0439 109.511 38.2451 108.999C38.0827 108.896 37.9591 108.753 37.9591 108.546L37.9628 99.6708L37.8115 99.4527L36.8559 99.3474V97.3605L36.9943 97.2218H46.864L47.0023 97.3605V99.2088L46.7717 99.4398H40.6378L40.6396 99.4361Z" fill="white"/>
<path d="M126.353 97.1959C126.58 97.281 126.902 97.3087 127.152 97.4603C127.683 97.7856 128.851 98.8446 128.227 99.5322C128.19 99.5729 127.332 100.048 127.279 100.061C126.336 100.318 126.061 99.4842 125.24 99.1884C124.06 98.7633 121.261 98.8853 121.831 100.756C122.073 101.551 125.32 101.739 126.153 101.97C130.177 103.087 129.793 108.271 125.897 109.212C123.849 109.707 120.685 109.441 119.335 107.6C118.245 106.112 119.318 105.739 120.652 105.349C120.94 105.399 121.429 106.232 121.767 106.456C122.739 107.101 124.746 107.29 125.744 106.702C126.53 106.24 126.725 105.262 125.995 104.622C124.558 103.367 120.401 104.417 119.411 101.608C117.928 97.4067 123.047 96.0389 126.181 96.952C126.294 96.9852 126.31 97.1756 126.351 97.1923L126.353 97.1959Z" fill="white"/>
<path d="M109.036 97.2181L111.895 101.745L114.821 97.2385L117.435 97.305L117.424 98.1367C116.19 100.072 114.491 101.994 113.406 104.003C113.334 104.138 113.14 104.134 113.14 104.149V108.955C112.41 109.204 111.461 109.273 110.742 108.955V104.288C110.196 103.802 107.79 99.5914 107.493 99.4583C107.307 99.3751 106.222 99.5525 106.222 99.1126V97.403L106.407 97.2181H109.036Z" fill="white"/>
<path d="M66.6808 108.927C66.2362 108.273 66.7325 101.053 66.6125 99.7559C66.4299 99.2882 65.9761 99.523 65.6403 99.388C65.098 99.1718 65.0592 97.3383 65.6828 97.2181C66.0462 97.1479 68.8392 97.1867 68.9684 97.3475L69.0514 108.724C68.8872 109.365 66.8782 109.217 66.6808 108.927Z" fill="white"/>
<path d="M27.6338 116.995H29.9859L30.1243 117.827H26.7575L26.6191 117.688V113.437C26.6191 113.313 26.9106 113.224 27.0305 113.202C27.2777 113.154 29.4786 113.158 29.7073 113.21C30.3899 113.367 30.0394 114.13 29.8033 114.13H27.774C27.5563 114.333 27.5544 114.847 27.774 115.054H29.8033C30.5098 116.505 28.4805 115.792 27.7223 116.019L27.6356 116.995H27.6338Z" fill="white"/>
<path d="M70.018 113.206C70.0642 113.212 70.8482 113.474 70.9146 113.509C71.7983 113.977 71.4773 115.768 70.4331 115.84C70.7154 116.008 71.9477 117.614 71.7245 117.827C69.9516 118.272 70.4405 115.524 68.5883 115.978V117.827H67.7582V113.345L67.8965 113.206C68.5625 113.271 69.3724 113.119 70.018 113.206ZM70.2025 114.13H68.5883V115.239C69.1049 114.977 70.6693 115.5 70.5069 114.474L70.2025 114.13Z" fill="white"/>
<path d="M106.13 114.13V115.054H108.205C108.425 115.261 108.423 115.775 108.205 115.978H106.13V116.995H108.528C108.573 116.995 108.733 117.738 108.482 117.827H105.254L105.115 117.688V113.529C105.115 113.463 105.412 113.236 105.534 113.21C105.752 113.16 107.986 113.16 108.204 113.21C108.886 113.367 108.536 114.13 108.299 114.13H106.13Z" fill="white"/>
<path d="M75.392 113.136C75.879 113.071 76.7479 113.419 77.1242 113.759C78.1997 114.736 78.0245 117.206 76.6114 117.777C73.1579 119.174 72.1414 113.57 75.392 113.136ZM74.8035 114.258C74.012 114.956 74.1338 116.842 75.3182 117.05C78.1444 117.546 76.7553 112.535 74.8035 114.258Z" fill="white"/>
<path d="M80.6884 114.237C80.6441 114.311 80.6441 114.686 80.6884 114.76C80.8064 114.956 82.9667 115.041 83.2951 116.075C83.867 117.875 80.9706 118.535 79.9338 117.317C79.7365 117.084 79.3398 116.428 79.7199 116.182C80.4467 115.712 80.4098 116.664 80.8028 116.908C81.2529 117.185 82.3967 117.174 82.5018 116.5C81.965 115.653 80.0833 116.045 79.8453 114.91C79.5095 113.321 81.3709 112.735 82.5645 113.48C83.6216 114.139 83.1272 115.332 82.417 114.829C82.2601 114.718 82.3745 114.119 81.596 113.986C81.3728 113.947 80.764 114.11 80.6865 114.239L80.6884 114.237Z" fill="white"/>
<path d="M116.71 113.422C116.974 113.581 117.647 114.581 117.201 114.825L116.549 114.831C116.631 113.738 114.59 113.786 114.797 114.624C114.913 115.097 117.988 114.962 117.455 116.93C117.038 118.472 113.791 118.152 113.694 116.481C113.668 116.051 114.456 116.082 114.623 116.206C114.762 116.307 114.631 116.721 114.933 116.912C115.339 117.169 116.728 117.208 116.636 116.415C116.47 115.893 114.079 116.008 113.882 114.727C113.672 113.363 115.729 112.833 116.71 113.424V113.422Z" fill="white"/>
<path d="M120.427 115.054C120.986 114.733 122.342 112.683 123.108 113.247C123.215 113.326 123.231 113.537 123.174 113.65C123.11 113.781 121.538 115.027 121.538 115.193L123.379 117.598C122.281 118.594 121.464 116.59 120.977 115.795C120.883 115.729 120.425 116.265 120.425 116.302V117.688C120.189 117.932 119.544 117.91 119.429 117.577C119.361 117.378 119.354 114.141 119.403 113.801C119.444 113.52 119.457 113.358 119.756 113.223L120.425 113.437V115.054H120.427Z" fill="white"/>
<path d="M87.7484 114.25C86.8703 113.363 85.6158 114.646 86.6471 114.936C87.7669 115.254 89.3977 115.413 88.7428 117.178C88.3074 118.35 85.0956 118.145 85.1989 116.472C85.2247 116.051 85.8446 116.034 86.0254 116.208C86.184 116.359 86.0383 116.72 86.3408 116.91C86.7983 117.198 88.2391 117.187 87.9624 116.324C87.872 116.043 86.2541 115.807 85.8538 115.546C84.3023 114.535 86.1693 112.393 88.0417 113.448C88.9236 113.943 89.0195 115.293 88.0528 114.823C87.8093 114.705 87.8425 114.345 87.7484 114.25Z" fill="white"/>
<path d="M21.7304 114.962H23.6675V113.345L24.3131 113.252C24.5087 113.359 24.481 113.526 24.5031 113.709C24.5493 114.091 24.5566 117.49 24.4847 117.675C24.3814 117.941 23.8944 117.795 23.6675 117.827V115.794H21.7304V117.688C21.4961 117.932 20.8486 117.912 20.7342 117.577C20.6604 117.361 20.6844 113.675 20.7637 113.487C20.9482 113.045 21.7304 113.199 21.7304 113.439V114.964V114.962Z" fill="white"/>
<path d="M48.3878 114.962H50.2326V113.437C50.2326 113.237 50.9188 113.062 51.0627 113.345V117.827L50.2326 117.688V115.794H48.3878V117.688L47.5724 117.812C47.3916 117.701 47.4063 113.936 47.506 113.57C47.6867 112.907 48.3878 113.234 48.3878 113.529V114.962Z" fill="white"/>
<path d="M100.227 114.962H102.071V113.437C102.071 113.237 102.758 113.062 102.902 113.345V117.827L102.071 117.688V115.794H100.273L100.186 117.74L99.3965 117.827V113.345C99.3965 113.123 100.227 113.126 100.227 113.529V114.962Z" fill="white"/>
<path d="M64.8213 114.853C64.7677 114.82 64.5685 114.086 63.9985 113.962C62.3363 113.605 61.9821 117.01 63.659 117.089C65.074 117.156 64.5501 115.655 65.5444 116.119C65.9761 116.32 65.4522 117.13 65.2253 117.368C64.5076 118.121 63.0539 118.124 62.3123 117.415C60.914 116.076 61.6482 113.186 63.7586 113.121C64.5113 113.097 66.0628 114.01 65.4854 114.857C65.3913 114.892 64.895 114.899 64.8213 114.853Z" fill="white"/>
<path d="M36.0295 117.827C34.6514 118.267 35.1089 116.757 34.4208 116.62C34.2603 116.588 33.3859 116.599 33.2364 116.646C32.8324 116.771 32.8066 117.699 32.6 117.81C32.4856 117.871 31.9156 117.858 31.8252 117.742C31.6776 117.553 33.3213 113.354 33.539 113.254C33.8655 113.106 34.1736 113.261 34.4116 113.489L36.0313 117.827H36.0295ZM34.3673 115.886L33.8157 114.409C33.9264 114.969 33.3859 115.333 33.3545 115.886H34.3673Z" fill="white"/>
<path d="M57.359 113.415C57.669 112.951 58.2187 113.248 58.4475 113.618C58.7869 114.171 59.4603 115.927 59.7075 116.607C59.7665 116.771 60.1262 117.712 60.0137 117.784C58.6633 118.274 59.2536 116.764 58.4013 116.622C58.18 116.585 57.276 116.598 57.11 116.723C56.7336 117.01 57.038 118.405 55.767 117.686L57.359 113.415ZM58.4419 115.886L57.8903 114.502L57.4273 115.886H58.4419Z" fill="white"/>
<path d="M44.237 114.13V117.688C42.4401 118.758 43.5212 114.531 43.2777 114.219C42.6929 113.988 41.4864 114.435 41.9291 113.343C42.0749 113.178 45.0764 113.125 45.3715 113.226C45.5302 113.282 45.5855 113.378 45.6187 113.535C45.8198 114.465 44.8162 114.047 44.237 114.132V114.13Z" fill="white"/>
<path d="M96.0758 114.13V117.688C95.9135 117.897 95.2752 117.917 95.1664 117.675L95.1129 114.217L93.8621 114.084C92.6574 112.868 96.7289 113.125 97.1163 113.226C98.2084 113.511 96.9005 114.542 96.0758 114.13Z" fill="white"/>
<path d="M126.238 115.84C126.179 115.563 124.834 114.069 124.715 113.663C124.567 113.158 125.231 113.093 125.552 113.293C125.794 113.444 126.635 115.232 126.882 115.054C127.139 114.476 127.853 112.919 128.664 113.202C129.242 113.402 127.52 115.283 127.375 115.594C127.323 115.707 127.159 116.034 127.159 116.117V117.688C127.043 117.925 126.236 117.862 126.236 117.688C126.159 117.15 126.342 116.335 126.236 115.84H126.238Z" fill="white"/>
<path d="M38.6103 117.087C39.2634 117.002 41.2871 116.612 40.5935 117.827H37.7802L37.7931 113.358C37.9222 113.03 38.6103 113.215 38.6103 113.529V117.087Z" fill="white"/>
<path d="M94.5484 78.4985C89.8626 83.0084 83.2102 86.0895 76.6575 86.4037C76.4859 86.4111 75.8439 86.4776 75.783 86.2651C76.7645 85.0932 77.8566 84.0379 78.8251 82.8457C79.2236 82.3559 80.146 80.7479 80.5297 80.4873C81.0297 80.1472 82.8948 79.748 83.6401 79.4448C97.4004 73.8629 102.302 56.8012 93.5835 44.6837C87.5639 36.3165 76.5136 33.1207 66.8837 36.7804C66.2694 37.0133 63.5539 38.4993 63.3583 38.5123C63.0521 38.5344 62.0596 38.1278 61.7109 38.0798C59.8348 37.8228 57.9328 37.6787 56.0437 37.7951C55.7559 37.5197 57.4955 36.1741 57.7114 36.0004C66.7491 28.7661 79.7623 28.025 89.632 34.0394C105.457 43.682 107.951 65.5973 94.5484 78.4985Z" fill="white"/>
<path d="M61.2091 39.4604C61.2423 39.6268 61.2018 39.6637 61.1132 39.7802C60.6299 40.4068 59.1522 41.3069 58.4991 41.9667C50.6292 49.9329 49.8876 62.8988 56.468 71.889C60.6188 77.5577 67.1549 80.8791 73.8866 81.4225C75.3643 81.5408 76.6095 81.1434 77.9968 81.234C78.2625 81.5759 74.1799 85.8788 73.5951 86.0192C72.8092 86.2078 70.1988 85.7549 69.2912 85.5646C62.1592 84.0767 55.2781 79.2212 51.4483 73.0368C44.8052 62.3092 46.0855 48.6262 54.4756 39.3218C56.7336 39.185 58.9843 39.2904 61.2091 39.4604Z" fill="white"/>
<path d="M84.8779 38.9448C95.456 44.3289 99.5883 57.4426 94.2975 67.9428C91.7701 72.9573 87.1894 76.7962 81.9244 78.6538L81.6384 78.5558L81.6108 78.3377C82.6771 76.4672 83.2895 74.4082 83.9574 72.3695C88.6247 69.3383 91.4085 64.5752 91.6465 59.0026C92.1224 47.8573 83.2065 40.4012 72.3185 41.7634C70.9847 41.9298 70.0328 40.976 68.854 40.4456C68.1382 40.124 67.3966 39.7802 66.6734 39.4882C66.3395 39.3532 65.6643 39.3532 65.5444 39.0464C65.5352 38.7747 66.6421 38.3163 66.9151 38.198C72.5491 35.7879 79.4505 36.1852 84.8798 38.9466L84.8779 38.9448Z" fill="white"/>
<path d="M69.1916 41.9057C69.3023 41.9778 69.6841 42.1645 69.5605 42.3272C65.4208 43.9389 61.9803 46.8851 60.0543 50.9162C53.7266 64.1723 66.0573 78.1917 80.0501 74.1845C80.7659 73.9794 81.5647 73.4674 82.3321 73.3768C82.594 73.6393 80.3286 78.7443 79.8638 79.1066C79.7401 79.2027 79.5409 79.297 79.3878 79.3432C76.331 80.2525 71.5068 79.6223 68.5164 78.6704C54.0255 74.0533 48.8231 56.1839 58.5379 44.4065C60.0045 42.6284 61.8548 41.1202 63.7734 39.8449C64.2789 39.7488 68.5883 41.5084 69.1916 41.9057Z" fill="white"/>
</svg>
