<svg width="148" height="148" viewBox="0 0 148 148" fill="none" xmlns="http://www.w3.org/2000/svg">
<path d="M76.6676 66.7283L74.2456 72.8749H74.8977L75.5244 71.2617H78.4376L79.0812 72.8749H79.7248L77.3028 66.7283H76.6676ZM75.7445 70.7075L76.9894 67.5556L78.2259 70.7075H75.7445Z" fill="white"/>
<path d="M84.8823 68.6145C84.8823 67.6714 84.4165 66.7366 83.1377 66.7366H80.8004V72.8832H81.4101V70.4841H82.4687L84.2048 72.8832H84.9416L83.2055 70.4841C84.425 70.451 84.8738 69.5493 84.8738 68.6228L84.8823 68.6145ZM81.4186 69.8885V67.324H83.1462C83.9846 67.324 84.2895 67.9692 84.2895 68.6145C84.2895 69.2598 83.9846 69.8885 83.1038 69.8885H81.4186Z" fill="white"/>
<path d="M86.9656 70.4758H88.0242L89.7602 72.8749H90.497L88.7609 70.4758C89.9804 70.4428 90.4293 69.541 90.4293 68.6145C90.4293 67.688 89.9635 66.7366 88.6847 66.7366H86.3474V72.8832H86.9571V70.4841L86.9656 70.4758ZM86.9656 67.324H88.6932C89.5316 67.324 89.8365 67.9692 89.8365 68.6145C89.8365 69.2598 89.5316 69.8885 88.6508 69.8885H86.974V67.324H86.9656Z" fill="white"/>
<path d="M92.4956 70.1532H95.1124V69.5659H92.4956V67.324H95.4851V66.7283H91.8943V72.8749H95.5867V72.2876H92.4956V70.1532Z" fill="white"/>
<path d="M99.3553 66.7283H96.9925V72.8749H99.3553C101.134 72.8749 102.141 71.5596 102.141 69.814C102.141 68.0685 101.134 66.7283 99.3553 66.7283ZM99.3553 72.2876H97.5938V67.324H99.3553C100.803 67.324 101.54 68.3994 101.54 69.8223C101.54 71.2452 100.812 72.2958 99.3553 72.2958V72.2876Z" fill="white"/>
<path d="M105.122 66.7283L102.7 72.8749H103.344L103.971 71.2617H106.884L107.519 72.8749H108.171L105.749 66.7283H105.114H105.122ZM104.208 70.7075L105.444 67.5556L106.681 70.7075H104.199H104.208Z" fill="white"/>
<path d="M115.827 72.8749H116.42L115.649 66.7283H115.048L112.668 71.5182L110.28 66.7283H109.679L108.908 72.8749H109.501L110.144 67.7872L112.372 72.2048H112.973L115.192 67.7872L115.827 72.8749Z" fill="white"/>
<path d="M118.486 70.1532H121.094V69.5659H118.486V67.324H121.475V66.7283H117.885V72.8749H121.577V72.2876H118.486V70.1532Z" fill="white"/>
<path d="M126.811 71.8408L123.635 66.7283H122.983V72.8749H123.593V67.7293L126.794 72.8749H127.412V66.7283H126.811V71.8408Z" fill="white"/>
<path d="M128.589 67.324H130.605V72.8749H131.206V67.324H133.222V66.7283H128.589V67.324Z" fill="white"/>
<path d="M135 66.7283H134.399V72.8749H135V66.7283Z" fill="white"/>
<path d="M77.108 80.188L76.2527 79.9977C75.3635 79.7991 75.2449 79.3441 75.2449 79.0298C75.2449 78.3762 75.9224 77.9461 76.6084 77.9461C77.3875 77.9461 77.9803 78.4011 77.9803 79.1125H78.5816C78.5816 78.0453 77.7262 77.3587 76.6084 77.3587C75.6091 77.3587 74.6436 78.0371 74.6436 79.0381C74.6436 79.551 74.813 80.2955 76.1172 80.5768L76.964 80.7588C77.6754 80.916 78.2767 81.3048 78.1581 82.0576C78.0565 82.5374 77.5653 83.0668 76.6168 83.0668C75.7446 83.0668 75.1856 82.4133 75.1856 81.8011H74.5843C74.5843 82.7029 75.3804 83.6542 76.6168 83.6542C77.8533 83.6542 78.607 82.8766 78.7509 82.1651C78.9372 80.9904 78.1073 80.4113 77.0995 80.188H77.108Z" fill="white"/>
<path d="M83.9507 81.495C83.9507 82.4629 83.2139 83.0751 82.3247 83.0751C81.4355 83.0751 80.6987 82.4629 80.6987 81.495V77.4332H80.0975V81.495C80.0975 82.8187 81.1137 83.6625 82.3247 83.6625C83.5358 83.6625 84.552 82.8187 84.552 81.495V77.4332H83.9507V81.495Z" fill="white"/>
<path d="M92.0976 77.4249L89.7179 82.2148L87.3297 77.4249H86.7284L85.9578 83.5715H86.5506L87.1942 78.4755L89.413 82.9014H90.0228L92.2331 78.4755L92.8767 83.5715H93.4695L92.6989 77.4249H92.0976Z" fill="white"/>
<path d="M95.5359 77.4249H94.9346V83.5632H95.5359V77.4249Z" fill="white"/>
<path d="M99.4908 80.188L98.6354 79.9977C97.7462 79.7991 97.6361 79.3441 97.6361 79.0298C97.6361 78.3762 98.3136 77.9461 98.9996 77.9461C99.7787 77.9461 100.372 78.4011 100.372 79.1125H100.973C100.973 78.0453 100.117 77.3587 98.9996 77.3587C98.0003 77.3587 97.0264 78.0371 97.0264 79.0381C97.0264 79.551 97.1958 80.2955 98.5084 80.5768L99.3553 80.7588C100.067 80.916 100.668 81.3048 100.549 82.0576C100.448 82.5374 99.9565 83.0668 99.008 83.0668C98.1273 83.0668 97.5768 82.4133 97.5768 81.8011H96.9756C96.9756 82.7029 97.7716 83.6542 99.008 83.6542C100.244 83.6542 100.998 82.8766 101.142 82.1651C101.328 80.9904 100.49 80.4113 99.4908 80.188Z" fill="white"/>
<path d="M106.333 81.495C106.333 82.4629 105.597 83.0751 104.707 83.0751C103.818 83.0751 103.081 82.4629 103.081 81.495V77.4332H102.48V81.495C102.48 82.8187 103.496 83.6625 104.707 83.6625C105.919 83.6625 106.935 82.8187 106.935 81.495V77.4332H106.333V81.495Z" fill="white"/>
<path d="M112.77 79.3111C112.77 78.368 112.304 77.4332 111.025 77.4332H108.688V83.5715H109.298V81.1724H110.356L112.092 83.5715H112.829L111.093 81.1724C112.312 81.1393 112.761 80.2376 112.761 79.3111H112.77ZM109.306 80.585V78.0205H111.034C111.872 78.0205 112.177 78.6658 112.177 79.3111C112.177 79.9563 111.872 80.585 110.991 80.585H109.306Z" fill="white"/>
<path d="M115.92 77.4249L113.506 83.5632H114.15L114.777 81.95H117.69L118.334 83.5632H118.977L116.564 77.4249H115.92ZM114.997 81.404L116.242 78.2522L117.487 81.404H114.997Z" fill="white"/>
<path d="M33.4858 71.0963C30.1914 71.0963 27.6424 73.3547 27.6424 76.9037C27.6424 80.4527 30.1914 82.8104 33.4858 82.8104C36.7801 82.8104 39.4647 80.7174 39.4647 76.9037C39.4647 73.09 36.3397 71.0963 33.4858 71.0963Z" fill="white"/>
<path d="M46.9764 76.9037C46.9764 80.7174 49.7287 82.8104 52.9553 82.8104C56.1819 82.8104 58.7987 80.3534 58.7987 76.9037C58.7987 73.454 56.2496 71.0963 52.9553 71.0963C50.1013 71.0963 46.9764 73.09 46.9764 76.9037Z" fill="white"/>
<path d="M38.5924 49C24.4581 49 13 60.1929 13 74C13 87.8071 24.4581 99 38.5924 99C52.7266 99 64.1848 87.8071 64.1848 74C64.1848 60.1929 52.7266 49 38.5924 49ZM21.7312 84.6966H19.4531V71.1873H16.3621V69.1936H19.4531V67.3984C19.4531 63.684 20.8166 60.7968 24.9917 60.7968H26.6939V62.8898H24.9917C21.9683 62.8898 21.6973 65.3468 21.7312 67.4067V69.2019H25.6353V71.1956H21.7312V84.7048V84.6966ZM41.7427 84.6966H39.4647V82.041C38.2791 83.9934 35.7977 85.0275 33.4858 85.0275C28.972 85.0275 25.3643 81.8094 25.3643 76.8954C25.3643 71.9815 28.9635 68.8627 33.4858 68.8627C35.7977 68.8627 38.2791 69.7892 39.4647 71.7498V69.1936H41.7427V84.6966ZM61.0768 76.9037C61.0768 81.8177 57.4776 85.0357 52.9553 85.0357C50.6433 85.0357 48.162 84.0017 46.9764 82.0493V84.7048H44.6983V60.8051H46.9764V71.7581C48.162 69.7975 50.6433 68.8709 52.9553 68.8709C57.4776 68.8709 61.0768 71.9897 61.0768 76.9037Z" fill="white"/>
<path d="M70.5255 64.9961L67.0831 84.3034L67.7005 84.4084L71.1429 65.1011L70.5255 64.9961Z" fill="white"/>
</svg>
