<svg width="148" height="148" viewBox="0 0 148 148" fill="none" xmlns="http://www.w3.org/2000/svg">
<path d="M11 66.3238H20.3805V67.8531H12.77V72.8426H18.7604V74.3268H12.77V80.1139H20.5708V81.7061H11V66.3238Z" fill="white"/>
<path d="M22.8395 77.1454C23.4334 79.2504 24.9497 80.4018 27.0599 80.4018C29.1701 80.4018 30.5509 79.1844 30.5509 77.7451C30.5509 75.8831 29.32 75.3733 26.8206 74.6837C25.4167 74.3088 24.0503 74.087 22.8597 72.9595C22.1765 72.3148 21.796 71.4093 21.796 70.4108C21.796 67.8861 23.7707 66 26.7399 66C29.4843 66 31.3668 67.3733 32.1509 69.8801L30.4212 70.2998C29.9138 68.5517 28.6108 67.5952 26.7399 67.5952C24.869 67.5952 23.6698 68.6807 23.6698 70.1469C23.6698 70.8516 23.9869 71.4513 24.5029 71.8051C25.4398 72.4498 26.541 72.6477 27.6999 72.9805C30.8882 73.934 32.4449 74.9985 32.4449 77.5442C32.4449 80.09 30.3578 82 27.0974 82C24.0099 82 21.8997 80.4018 21.0666 77.5022L22.8366 77.1484L22.8395 77.1454Z" fill="white"/>
<path d="M38.9225 81.7091H37.089V67.922H32.9379V66.3238H43.0794V67.922H38.9225V81.7091Z" fill="white"/>
<path d="M44.3334 66.3238H54.7921V69.0975H47.6515V72.4438H53.4113V75.0405H47.6515V78.8936H54.9046V81.7091H44.3363V66.3238H44.3334Z" fill="white"/>
<path d="M62.6131 81.7091H59.1624V69.1214H55.7492V66.3238H66.0147V69.1214H62.6102V81.7061L62.6131 81.7091Z" fill="white"/>
<path d="M67.2803 66.3238H70.7972V81.7091H67.2803V66.3238Z" fill="white"/>
<path d="M79.3331 68.7616C77.4363 68.7616 76.3668 70.5367 76.3668 74.015C76.3668 77.4933 77.3728 79.1814 79.3331 79.1814C80.737 79.1814 81.6509 78.1409 81.9766 76.1229L85.1275 76.4528C84.6201 80.003 82.484 81.994 79.287 81.994C75.3664 81.994 72.7892 79.0015 72.7892 74.012C72.7892 69.0225 75.3895 66.015 79.3072 66.015C82.5676 66.015 84.7181 68.078 85.1246 71.7331L81.8873 72.021C81.7374 69.937 80.737 68.7616 79.3331 68.7616Z" fill="white"/>
<path d="M89.8696 66.3238H93.623L98.3277 81.7091H94.7905L93.7268 78.033H89.0999L88.0621 81.7091H85.1823L89.8696 66.3238ZM93.0666 75.4363L91.4004 69.7421L89.7803 75.4363H93.0666Z" fill="white"/>
<path d="M116.426 71.5622L116.322 70.9175L111.825 81.7481L111.427 81.7451L116.204 70.2969L116.094 69.6162L111.07 81.7451L110.698 81.7481H109.19L105.174 71.8831L103.566 81.7481H103.249L104.898 71.2684L104.667 70.6567L102.865 81.7481H102.565L104.445 70.1079L104.185 69.4783L102.208 81.7481H101.185L103.462 67.6822L103.176 67.0285L100.827 81.7481H100.487L102.969 66.4318H103.326L109.38 81.3313L109.556 80.9235L103.678 66.4318L104.041 66.4288L104.439 66.4318H104.834L110.127 79.5622L110.326 79.0885L105.16 66.4318L105.526 66.4288L110.493 78.6507L110.683 78.2129L105.898 66.4228L106.247 66.4288L110.856 77.7481L115.601 66.4318H116.521L116.529 72.2099L112.499 81.7361L112.174 81.7541L116.426 71.5622Z" fill="white"/>
<path d="M109.596 81.7481L115.538 67.4543L115.647 68.045L110 81.7481H109.596Z" fill="white"/>
<path d="M116.864 81.7481H116.524V66.4318H116.864V81.7481ZM117.879 81.7481H117.204V66.4318H117.879V81.7481ZM118.219 81.7481H117.879V66.4318H118.219V81.7481ZM118.902 81.7481H118.562V66.4318H118.902V81.7481ZM119.585 75.3163H123.656V75.6672H119.585V78.5757H125.083V78.9265H119.585V79.2774H125.083V79.976V80.3478H119.585V80.7016H125.083V81.0495H119.585V81.4003H125.083V81.7511H119.242V66.4318H125.083V66.7826H119.585V67.1544H125.083V67.8561V68.2069H119.585V68.5577H125.083V68.9025H119.585V69.2534H125.083V69.5832H119.585V72.4918H123.656V72.8426H119.585V73.1934H123.656V74.09H119.585V73.8951H123.656V74.2429H119.585V74.5937H123.656V74.9655H119.585V75.3163Z" fill="white"/>
<path d="M125.423 66.4318H125.083V81.7481H125.423V66.4318Z" fill="white"/>
<path d="M126.034 66.4318H125.694V81.7481H126.034V66.4318Z" fill="white"/>
<path d="M126.648 66.4318H125.973V81.7481H126.648V66.4318Z" fill="white"/>
<path d="M127.311 66.4318H126.971V81.7481H127.311V66.4318Z" fill="white"/>
<path d="M134.844 68.6117C133.405 67.1604 129.978 66.4318 127.844 66.4318H127.654V81.7481C129.805 81.7481 133.264 81.0255 134.754 79.5742C136.245 78.1229 137 76.3028 137 74.1139C137 71.925 136.276 70.063 134.844 68.6087V68.6117ZM127.994 69.5832C129.185 69.5832 131.834 70.03 132.685 70.9145C133.532 71.8051 133.962 72.8636 133.962 74.087C133.962 75.3103 133.541 76.4228 132.699 77.2804C131.849 78.1439 129.199 78.5727 127.991 78.5727V69.5832H127.994ZM127.994 78.9265C129.257 78.9265 131.978 78.4618 132.906 77.5262C133.835 76.5907 134.302 75.4453 134.302 74.09C134.302 72.7346 133.849 71.5892 132.944 70.6567C132.033 69.7241 129.294 69.2534 127.991 69.2534V68.9025C129.395 68.9025 132.206 69.4093 133.172 70.4138C134.132 71.4213 134.616 72.6537 134.616 74.1139C134.616 75.5742 134.132 76.7766 133.166 77.7781C132.189 78.7766 129.381 79.2744 127.991 79.2744V78.9235L127.994 78.9265ZM127.994 79.6282C129.479 79.6282 132.373 79.0945 133.405 78.03C134.437 76.9655 134.962 75.6522 134.962 74.09C134.962 72.5277 134.437 71.2174 133.405 70.1529C132.373 69.0885 129.479 68.5547 127.994 68.5547V68.2039C129.574 68.2039 132.558 68.7826 133.653 69.946C134.749 71.1064 135.296 72.4918 135.296 74.1139C135.296 75.7361 134.749 77.1664 133.653 78.2909C132.558 79.4123 129.574 79.973 127.994 79.973V79.6282ZM134.581 79.2654C133.195 80.6897 129.908 81.4003 127.997 81.4003V81.0495C129.854 81.0495 133.059 80.3808 134.368 79.0345C135.668 77.6972 136.32 76.051 136.32 74.1169C136.32 72.1829 135.668 70.5097 134.368 69.1694C133.059 67.8291 129.854 67.1574 127.997 67.1574V66.7856C129.949 66.7856 133.244 67.4963 134.607 68.9175C135.98 70.3418 136.663 72.069 136.663 74.1169C136.663 76.1649 135.965 77.8441 134.584 79.2684L134.581 79.2654Z" fill="white"/>
</svg>
