<svg width="148" height="148" viewBox="0 0 148 148" fill="none" xmlns="http://www.w3.org/2000/svg">
<path d="M49.7502 57.302L49.8485 57.4235C49.7749 58.0093 49.5261 58.3433 49.0349 58.6675C48.5495 58.0923 49.3172 57.6435 49.7502 57.302Z" fill="white"/>
<path d="M72.8911 30.0128C74.3316 29.9527 76.1104 30.1156 77.5398 30.2688C83.9829 30.9207 90.1998 33.0036 95.7381 36.3661C104.246 41.5506 110.753 49.466 114.203 58.8257C114.547 59.7793 114.957 60.8722 115.203 61.8414C113.012 61.3919 111.095 61.3798 109.009 62.2632C105.436 63.7766 104.198 66.0466 102.828 69.4366C101.278 66.6338 99.7272 64.5311 96.8009 63.0125C94.1765 61.6507 90.8992 60.6603 87.9435 60.4955C85.301 60.348 84.207 63.5563 84.3448 65.712C84.413 66.866 84.706 67.243 85.4868 67.9964C85.3907 68.7236 85.4041 69.7447 85.3985 70.4918C85.3839 71.7478 85.3817 73.0039 85.3908 74.2599C85.4068 75.2467 85.4693 76.3188 85.4262 77.2924C85.1249 76.4771 84.8237 74.8904 84.6135 73.9914C84.008 71.2743 83.3761 68.5632 82.7198 65.8582C81.71 61.6385 81.8825 59.7245 76.6234 61.8624C75.3498 62.38 74.4785 62.9395 73.6023 64.0082C73.12 64.7316 72.8116 65.5256 72.5137 66.3378C72.3174 65.1395 71.927 62.8177 71.2766 61.8258C70.8271 61.1405 70.255 61.003 69.522 60.8767C67.8619 61.4733 66.1986 63.9009 64.9875 65.1891C64.1381 66.0927 63.3213 67.0224 62.4094 67.8769C62.2442 65.4196 63.2858 60.1433 58.8817 61.6853C57.4675 62.1804 55.6441 63.5549 54.6568 64.6743C54.3233 59.8743 51.5596 60.8101 48.4964 62.86C47.9374 63.234 47.474 63.658 46.9716 64.1012C46.8743 62.9361 47.1196 60.7581 45.9772 60.0539C44.5907 59.1995 42.2939 60.1301 41.271 61.2381C40.4148 62.1654 39.7986 63.5989 39.1322 64.6816C38.0234 66.5892 37.0064 68.5452 35.8418 70.4275C34.9103 68.6593 33.9915 66.8845 33.0853 65.1032C32.4476 63.8403 31.8346 62.3895 30.9714 61.2731C31.1774 60.7977 31.3652 59.9466 31.5494 59.4122C31.8649 58.4966 32.2075 57.632 32.5761 56.7353C34.6346 51.8151 37.5997 47.3274 41.3163 43.5072C48.2873 36.2047 57.5645 31.5433 67.5742 30.3136C69.379 30.0973 71.0805 30.0427 72.8911 30.0128ZM54.4132 50.2112C53.5895 49.8248 52.7422 50.6821 52.5171 51.4428C52.1819 52.5762 52.2827 53.841 52.793 54.9099C52.3201 55.2744 51.252 56.1728 50.6498 55.9226C49.9632 55.1719 51.8291 52.3073 49.9684 52.8229C49.461 54.3311 49.1601 55.0779 47.5097 55.5493C45.207 54.7908 45.9968 51.5924 48.1029 51.427C48.7426 51.3769 49.2507 52.0327 49.6474 52.4664C49.8517 52.304 50.1169 52.0874 50.1459 51.8049C50.2451 50.8416 49.1333 50.2835 48.3149 50.2511C45.5904 50.1432 43.8312 53.875 45.8202 55.8323C46.47 56.4717 47.2058 56.6032 48.0786 56.4963C48.7177 56.2404 49.1922 56.0092 49.8044 55.7041C49.5877 55.9454 48.8766 56.7355 48.6176 56.912C48.147 57.5116 47.6219 58.2897 48.1751 59.0349C48.3675 59.2925 48.6557 59.4612 48.9741 59.5027C50.3118 59.6791 50.6236 58.0566 50.6742 57.0765C51.7627 56.9344 52.4684 56.4553 53.2946 55.7859C54.3372 56.7542 55.0892 56.6045 56.188 55.8048C56.7776 56.855 57.5364 56.6814 58.3478 55.9806C59.5198 57.3586 60.2813 56.5921 61.7463 56.0652C62.8767 57.1657 63.958 56.3972 64.8898 55.5346C65.3701 55.8233 65.3818 55.7771 65.9356 55.8083C66.4715 55.8385 69.5217 55.6506 69.0315 54.7418C68.4661 54.3914 66.1929 54.614 65.325 54.6169C65.3364 54.1521 65.3131 53.3927 64.8469 53.1628C62.7 52.1043 61.6555 55.2367 59.8421 55.5569C59.6104 55.5978 59.5117 55.5633 59.3768 55.4596C59.3515 55.141 59.5995 54.4394 59.878 54.2627C59.9865 54.3195 60.0602 54.3606 60.166 54.4257L60.2618 54.4854C61.3416 54.3468 61.0816 52.965 59.7591 53.062C58.5178 53.1531 58.1611 55.3427 57.1552 55.3739C56.9784 55.3015 56.9789 55.3162 56.8798 55.1565C56.8853 55.1342 56.8909 55.1119 56.8963 55.0897L56.9215 54.9775C57.0354 54.4872 57.0978 53.6561 56.5897 53.3727C55.9634 53.5672 55.7509 55.0829 54.8907 55.2666C54.6043 55.3277 54.3108 55.3412 54.0807 55.1624C54.1601 54.8573 54.6407 54.4619 54.7997 54.0906C55.2652 53.0037 55.7746 50.8499 54.4132 50.2112ZM64.0891 53.8064C64.2238 53.8377 64.2027 53.84 64.328 53.9094L64.3695 54.0722C64.1985 54.5435 63.0246 55.3103 62.5966 55.6138C62.5003 55.6174 62.5628 55.6211 62.4142 55.5674L62.4362 55.4256C62.8441 54.9754 63.6021 54.0822 64.0891 53.8064ZM53.7394 51.2084C54.6988 51.729 54.0886 53.0903 53.7323 53.7879L53.6221 53.8663L53.5265 53.8054C53.2679 52.9806 53.3548 51.9833 53.7394 51.2084ZM56.4591 51.1216C55.9456 51.3495 56.0675 51.7744 56.0769 52.282C56.3154 52.3647 56.6853 52.5078 56.9223 52.5442C57.1471 52.1706 57.3701 51.8956 57.3112 51.4634C57.0669 51.1018 56.8889 51.158 56.4591 51.1216Z" fill="white"/>
<path d="M38.3759 80.0373C38.7147 80.6391 38.2405 85.809 38.8603 87.1362C39.4202 88.335 39.8299 88.8525 41.0867 89.4181C42.1201 89.8903 43.3029 89.9105 44.3515 89.4732C45.4335 89.0304 46.2047 88.2304 46.6616 87.1606C48.5712 90.8248 52.6248 90.3938 54.4857 86.9611C55.5486 89.9182 58.9567 90.6135 61.1995 88.5673C62.7417 87.1606 62.3941 84.6116 62.4213 82.7021C62.6728 83.1128 63.3817 84.0467 63.7089 84.4874C64.9594 86.1368 66.41 88.886 68.4634 89.6162C72.0754 90.9008 73.2954 85.8718 74.1806 83.5278C75.0262 83.1184 76.9671 82.5493 77.9234 82.2711C78.05 82.7488 78.1342 83.2223 78.2574 83.698C78.9179 86.2616 78.8852 90.2585 82.6753 89.7062C84.2216 89.4802 85.2328 88.764 86.521 88.0038C89.1733 90.2857 92.7101 90.0758 95.8147 88.8707C99.1141 87.5902 101.414 84.8968 102.739 81.658C104.089 85.5712 106.647 88.4843 110.893 89.1615C111.964 89.3323 113.213 89.1838 114.276 89.0213C114.145 89.3093 114.023 89.6504 113.917 89.9523C113.385 91.4608 112.672 92.8585 111.946 94.2812C111.894 94.3844 111.842 94.4876 111.789 94.5901C106.474 104.777 97.3548 112.445 86.4201 115.92C71.5705 120.622 55.1845 117.257 43.5483 106.789C38.3798 102.14 33.6788 95.404 31.5879 88.7249C33.2318 87.2038 32.9471 85.348 32.9204 83.3172C32.9024 82.2285 32.8974 81.1392 32.9054 80.0505C32.9994 80.1447 33.0961 80.2367 33.1954 80.3253C35.0004 81.9489 36.7681 82.02 38.3759 80.0373Z" fill="white"/>
<path d="M80.2527 62.3982C80.9194 63.2977 81.7678 67.6196 82.0532 68.9211L83.3629 74.6554C83.6816 76.0955 83.9648 77.6124 84.3093 79.0386C84.6218 80.335 84.9524 81.6266 85.301 82.914C85.626 84.0877 85.9753 85.2029 86.2043 86.399C85.0859 87.3858 81.5151 89.7326 80.5603 87.4012C79.8901 85.7651 79.7 83.592 79.2797 81.8492C79.1906 81.4796 79.1956 80.8916 79.0439 80.5813L78.8948 80.5848C78.1513 80.8046 73.7247 82.0145 73.4199 82.2893C72.4157 83.1939 71.8871 87.2458 70.4054 88.1692C70.0298 88.4063 69.5753 88.4829 69.143 88.3818C66.8594 87.835 62.4742 79.8866 61.1676 77.6221C61.0076 79.5567 61.1354 81.5262 61.1038 83.4656C61.0828 84.7607 61.3361 86.1696 60.4867 87.2464C59.9841 87.8873 59.2476 88.301 58.44 88.3958C57.4158 88.5074 56.1127 87.6565 55.8897 86.7903C55.5207 85.3564 55.6032 82.746 55.6007 81.303L55.568 69.2969C55.5674 68.2887 55.5856 67.5017 55.6373 66.2657C55.7009 64.7473 59.5825 62.173 60.7095 63.0191C61.3195 63.4771 61.1512 66.3392 61.1238 67.4149C61.0801 68.7732 61.0655 70.1322 61.0802 71.491C61.9576 70.704 62.8855 69.5721 63.6772 68.6644C64.6414 67.565 65.6136 66.4727 66.5936 65.3874C67.5037 64.3708 68.5773 63.0422 69.7635 62.4039C71.0409 62.7484 71.362 67.7344 71.2489 68.8377C69.8021 70.9362 65.32 72.5108 63.2883 73.9C65.4896 76.4776 66.7926 78.1704 69.364 80.4977C69.8842 79.4962 70.5228 77.3585 70.8858 76.2252L72.8881 69.9187C73.25 68.7469 74.1862 65.258 74.9309 64.5186C76.0625 63.3941 78.611 62.4586 80.2527 62.3982ZM76.8349 69.5578C76.329 70.51 76.1669 71.6369 75.8524 72.6579C75.313 74.407 74.8606 76.3717 74.2997 78.0922C74.7875 77.989 75.212 77.8935 75.6922 77.761C76.6345 77.5071 77.4126 77.3279 78.3917 77.1766C78.2748 76.5733 78.2045 76.2161 78.0438 75.3667C77.7 73.5541 77.2066 71.5499 76.9491 69.6989C76.9108 69.6519 76.8731 69.6048 76.8349 69.5578Z" fill="white"/>
<path d="M111.924 62.9186C113.914 62.7138 116.566 63.4766 118.156 64.7375C120.497 66.5945 121.449 69.7743 121.818 72.6246C122.338 76.627 121.821 81.241 119.222 84.4951C117.794 86.3055 115.697 87.4618 113.407 87.7031C111.334 87.8935 108.989 87.4285 107.3 86.1676C105.126 84.5454 103.837 81.1818 103.54 78.57C102.816 72.1947 104.298 63.9273 111.924 62.9186ZM114.652 68.1084C114.027 67.4196 113.398 67.176 112.482 67.2442C107.749 68.3499 107.644 80.8921 111.701 83.2271C112.045 83.4252 112.373 83.5669 112.771 83.5788C117.583 82.4601 117.437 71.1803 114.652 68.1084ZM112.524 68.6176C115.729 68.4851 116.364 80.4081 112.784 82.0869C109.846 82.1106 108.959 70.8387 112.524 68.6176Z" fill="white"/>
<path d="M44.3481 61.1066C45.7526 61.0628 45.5483 62.3184 45.5195 63.3674C45.3188 70.6795 45.5131 78.0001 45.3767 85.3139C45.3316 85.8864 45.4085 86.4479 45.1382 86.9674C44.204 88.7626 41.7264 88.8881 40.5268 87.2827C40.2387 86.8977 40.1249 86.807 40.0677 86.3188C39.8693 84.6255 39.9858 82.8939 39.9365 81.1908C39.9683 79.0511 39.8166 76.5202 39.9837 74.4461C38.6976 75.7552 37.8233 79.1006 36.351 79.8845C36.0205 80.0603 35.6557 80.1314 35.2924 80.0191C34.0921 79.6474 32.1467 75.5397 31.5327 74.2941C31.495 74.723 31.4904 75.1296 31.4837 75.5599C31.4348 78.6759 31.5093 81.7864 31.4875 84.9031C31.4813 85.7142 31.5738 86.4165 31.0876 87.1585C29.8758 89.0081 26.4372 88.7486 26.1007 86.3697C25.9367 85.21 26.0225 83.5808 26.0219 82.3464L26.0135 68.1363C26.0127 66.8003 25.9752 65.4562 26.0773 64.1233C26.143 63.2647 26.7436 62.5891 27.3813 62.0629C27.972 61.5754 28.5344 61.4185 29.2758 61.3247C29.8206 61.7412 30.342 62.6041 30.6335 63.2284C32.2018 66.5863 34.1843 69.8918 35.7244 73.2508C36.5177 72.4167 37.2495 70.819 37.8214 69.7947C38.7578 68.094 39.7143 66.401 40.6802 64.7165C41.5788 63.1493 42.3902 61.4384 44.3481 61.1066Z" fill="white"/>
<path d="M87.716 61.8659C88.066 61.8516 88.6631 61.886 89.0083 61.9535C92.9278 62.7142 97.0909 63.965 99.7738 67.1053C104.016 72.0685 103.055 81.8442 98.0759 85.9952C95.6178 87.9738 90.5122 89.6239 87.8078 87.1258C87.3923 86.7415 87.0654 86.0042 87.0125 85.4331C86.8197 83.3339 86.8404 81.1657 86.8376 79.0547L86.8508 66.9486C86.6741 66.849 86.4988 66.7456 86.3255 66.6387C85.036 65.8268 85.8237 62.2444 87.716 61.8659ZM92.2222 68.1083C92.1616 69.1906 92.179 70.371 92.1922 71.4599C92.2444 75.723 92.113 80.0205 92.2348 84.2796C93.6802 83.9986 94.3399 83.4957 95.2585 82.3491C97.0868 79.6697 97.6248 76.0098 96.7083 72.9028C96.2274 71.2711 95.4388 69.8835 94.0121 68.9389C93.5298 68.6196 92.7956 68.1889 92.2222 68.1083Z" fill="white"/>
<path d="M93.5187 70.5295C96.599 72.6573 96.0721 77.9039 94.5174 80.7884C94.1931 81.3163 93.9335 81.6894 93.5278 82.1518C93.5779 81.658 93.5842 81.2061 93.5855 80.7123C93.5974 77.3118 93.6287 73.9279 93.5187 70.5295Z" fill="white"/>
<path d="M51.8293 62.6316C52.1687 62.5934 52.8602 62.5148 52.986 62.9678C53.1076 63.46 53.1384 64.0652 53.136 64.5748C53.104 71.47 53.1426 78.3684 53.0808 85.263C53.0779 85.5942 53.0031 86.618 52.8498 86.8886C52.1905 88.054 50.6928 88.7549 49.428 88.1433C47.3215 86.7575 47.7174 85.401 47.7099 83.1456L47.6762 70.5044C47.6728 68.9631 47.624 67.0629 47.7489 65.5564C48.7678 64.0127 50.0786 63.2631 51.8293 62.6316Z" fill="white"/>
<path d="M71.0353 71.0584L71.067 71.0914C71.0511 71.3508 70.868 71.7058 70.7923 71.9718C70.2123 74.0095 69.4912 76.0014 68.8063 78.0064C68.3463 77.4847 67.6268 76.7915 67.1253 76.2789C66.5332 75.638 65.9593 74.9538 65.3394 74.3436C66.3452 73.9266 70.2252 71.7589 71.0353 71.0584Z" fill="white"/>
</svg>
