<svg width="148" height="148" viewBox="0 0 148 148" fill="none" xmlns="http://www.w3.org/2000/svg">
<path d="M36.3569 70.433L30.0928 82.2214L24.4005 70.1484H19L19.0379 71.2609L20.3888 71.6575L20.6076 85.9612L19.1809 86.8005L19 87.683H24.6894C24.7681 87.683 24.9811 87.3525 25.1212 87.2519L23.0847 85.8146V73.5978L28.8178 85.6852L30.9155 85.6249L36.8004 73.5978C37.842 73.4254 37.0892 73.7416 37.0892 74.029V85.5271C36.6778 86.3981 36.0418 86.835 35.0469 86.8264V87.683H42.0492V86.8264C41.0134 86.7287 40.4153 86.6482 40.2811 85.5415C39.7939 81.4769 40.675 76.4752 40.2957 72.3014C40.4124 71.4764 41.3431 71.327 42.0463 71.2925C43.3329 69.7719 37.0776 69.9098 36.3511 70.4301L36.3569 70.433Z" fill="white"/>
<path d="M125.055 86.2458H118.783V79.3469L122.882 79.4763C124.39 79.9362 123.804 82.2962 125.791 80.9308L125.948 76.4551L124.317 76.32L123.013 77.9096H118.783V71.5857H123.888C125.338 71.5857 126.946 72.9482 126.984 74.4286L128.869 74.1929L128.705 70.1513H113.971L113.534 70.8671L115.13 71.8846C115.386 72.1778 115.497 72.5228 115.559 72.8993C115.929 75.2018 115.818 82.2099 115.591 84.6792C115.544 85.1937 115.561 85.6105 115.258 86.0762C114.791 86.789 113.472 86.6827 113.537 87.6859H128.708L129 83.0867C126.196 82.4313 127.241 85.4409 125.061 86.2486L125.055 86.2458Z" fill="white"/>
<path d="M61.5447 84.1445C59.549 79.8873 58.2332 74.9431 56.3222 70.6055C55.7999 69.9012 53.7109 69.8696 53.1682 70.6112C50.767 75.0265 49.1273 79.9592 46.6707 84.3285C46.0755 85.3892 45.3315 86.6683 44.004 86.8207L43.8027 87.6859H50.6591L50.9567 87.1081C50.6503 86.7143 49.7108 86.7574 49.3374 86.401C48.5555 85.6536 49.3899 82.851 50.2214 82.2214H57.5155L58.3441 86.056C58.0611 86.9069 56.258 86.5332 56.3484 87.683H64.226V86.8264C62.5659 86.8983 62.1311 85.3892 61.5476 84.1416L61.5447 84.1445ZM54.1573 73.0201L56.929 80.7842H50.802L54.1573 73.0201Z" fill="white"/>
<path d="M74.8724 70.1484L74.4347 70.8642L76.337 71.8674L76.41 73.3851L71.806 84.2336C71.4033 84.202 71.3421 83.8139 71.2108 83.5293C70.4726 81.9369 67.5871 74.4976 67.45 73.1351C67.3012 71.6748 67.7563 71.4764 69.148 71.2637L69.1859 70.1484H61.8919L61.9415 71.2522L63.8613 72.6636L69.6207 87.6888L72.1356 87.7923C74.6302 83.2706 76.3925 77.7343 78.995 73.342C79.5406 72.4222 80.2174 71.373 81.3932 71.2551L81.4428 70.1484H74.8724Z" fill="white"/>
<path d="M105.108 71.2666C106.645 71.4477 107.033 71.9019 106.806 73.4369L102.006 84.2393L97.7844 72.5573C97.4431 71.3528 99.6867 71.4305 99.818 70.8671L99.3804 70.1513H92.6698L92.2322 71.2982L93.5159 71.6173L100.078 87.8038L102.596 87.6888L109.682 72.8246L111.734 71.2551L111.783 70.1513H105.073L105.111 71.2666H105.108Z" fill="white"/>
<path d="M90.1899 71.2954L89.7522 70.1484H83.6252L83.1876 71.2954C83.8907 71.3298 84.8214 71.4793 84.9382 72.3043C84.5589 76.4781 85.44 81.4798 84.9527 85.5444C84.8214 86.6511 84.2204 86.7316 83.1876 86.8293V87.6859H90.1899V86.8293C89.1541 86.7316 88.556 86.6511 88.4218 85.5444C87.9345 81.4798 88.8157 76.4781 88.4364 72.3043C88.5531 71.4793 89.4838 71.3298 90.1869 71.2954H90.1899Z" fill="white"/>
<path d="M48.608 63.537L62.7643 59.8001C64.2581 59.5874 65.7869 58.932 67.2457 59.4897C68.3311 60.2543 66.703 66.4547 71.6192 66.1068L110.905 51.7514L117.324 49.449C117.152 48.8367 116.953 49.012 116.518 49.0609C115.025 49.2334 112.912 50.0325 111.491 50.6016C100.369 53.1686 89.5509 56.9342 78.5223 59.8001C78.2831 59.8634 78.0467 59.9496 77.8688 60.0157L77.647 60.0876C77.2648 60.1824 75.8235 60.4814 75.631 60.352C75.0503 58.3772 75.5726 56.0719 73.5419 54.7927C72.3574 54.2063 71.2837 54.4391 70.07 54.7783C65.2413 56.1179 59.4265 58.8544 54.6008 60.6625C54.5599 60.6769 54.5045 60.697 54.4461 60.72C52.2958 61.522 50.0843 62.2866 47.8902 62.965L48.6167 63.537H48.608ZM112.361 50.8862C112.361 50.8862 112.349 50.8862 112.343 50.892C112.343 50.892 112.349 50.8862 112.352 50.8862H112.361Z" fill="white"/>
<path d="M58.3878 96.5969H60.7248V95.5937L58.3878 95.4471V94.3002H61.3084V93.4378H57.2208V98.4682C60.1676 100.069 64.7716 97.5225 58.3878 97.7496V96.5969Z" fill="white"/>
<path d="M74.7265 96.5969H77.0635V95.5937L74.7265 95.4471V94.3002H77.647V93.4378H73.5594V98.4682C76.5062 100.069 81.1102 97.5225 74.7265 97.7496V96.5969Z" fill="white"/>
<path d="M94.6013 93.4723L92.524 98.8937C93.7348 99.0662 93.7493 98.2297 94.1607 97.4392L96.5649 97.5024L96.9296 98.428L98.0674 98.8966L96.1768 93.7224L94.6042 93.4752L94.6013 93.4723ZM94.858 96.3066L95.1527 94.8722L96.0251 96.3037H94.861L94.858 96.3066Z" fill="white"/>
<path d="M80.8535 93.4321V94.2944L83.7711 94.2973C83.0971 95.4787 81.2707 96.916 80.7105 98.0342C80.5501 98.3533 80.3517 98.8247 80.8535 98.8937C81.1423 98.9052 81.4399 98.8764 81.7288 98.8937C82.5049 98.9425 85.2328 99.1179 85.5188 98.4596L85.3729 97.741H82.6041L85.5217 93.4321H80.8535Z" fill="white"/>
<path d="M52.2579 97.169C51.8115 97.4995 50.6882 93.6132 50.4636 93.4838C50.1835 93.3228 49.6904 93.4723 49.3461 93.435C49.6058 94.4928 51.0471 99.2674 52.3717 98.8764C52.9844 98.6953 54.5599 94.3059 54.8867 93.435L53.5738 93.7195L52.2579 97.169Z" fill="white"/>
<path d="M68.5966 96.5941C68.2494 96.3267 67.6892 95.7748 67.4324 95.4443C66.6184 94.4065 66.5455 92.9894 64.8066 93.4321V98.8937L65.927 98.4165L65.9766 95.4443C66.4405 95.6512 66.8343 96.1974 67.1407 96.5941C67.8409 97.5082 68.5849 99.802 70.0583 98.4625V93.4321H68.5966V96.5941Z" fill="white"/>
<path d="M88.7311 98.4625C89.1833 99.0719 89.7376 99.0719 90.1899 98.4625V93.4321H88.7311V98.4625Z" fill="white"/>
</svg>
