<svg width="148" height="148" viewBox="0 0 148 148" fill="none" xmlns="http://www.w3.org/2000/svg">
<path d="M119.557 46.1397C122.45 45.831 124.635 47.2354 124.481 50.4665C124.38 52.5897 122.805 54.5518 121.315 55.9092C121.865 56.7329 123.831 60.313 124.287 60.7398C124.636 60.0868 125.361 59.1098 125.803 58.3727C126.462 58.6517 127.071 59.1195 127.62 59.5795C127.113 60.7741 126.01 61.9152 125.58 62.981C126.09 63.847 127.321 65.6847 127.614 66.5097C127.264 66.4858 126.85 66.4864 126.493 66.4786C125.901 66.4718 125.236 66.5053 124.662 66.5108C124.268 66.5145 123.777 65.5175 123.489 65.1076C121.716 66.9536 118.342 67.4386 116.348 65.6584C115.341 64.7704 114.73 63.5005 114.655 62.1408C114.526 60.0504 115.406 58.5993 116.7 57.0466C117.071 56.6012 117.528 56.1819 117.918 55.7259C117.207 54.4686 116.55 53.419 116.231 51.9644C115.628 49.2241 116.708 46.7406 119.557 46.1397ZM122.234 63.0311C121.982 62.5629 119.365 58.2246 119.168 58.0826C118.339 59.2024 117.355 60.3491 117.572 61.8672C117.756 63.1475 118.887 64.3168 120.209 64.0945C120.29 64.0805 120.37 64.0642 120.451 64.0453C121.262 63.7488 121.535 63.5237 122.234 63.0311ZM120.21 53.4163C121.077 52.2918 122.789 49.9984 121.268 48.7362C120.947 48.4692 120.558 48.4024 120.154 48.4479C118.69 48.9126 118.403 50.1136 118.865 51.5225C119.017 51.9859 119.58 53.3376 119.984 53.5664L120.101 53.5643C120.128 53.5278 120.189 53.4512 120.21 53.4163Z" fill="white"/>
<path d="M71.8886 76.5872C71.9835 76.5811 72.0785 76.5757 72.1735 76.5711C73.3802 76.5128 75.5689 76.463 76.7443 76.6475C78.342 76.8985 79.0008 79.0629 77.7241 80.3841C77.4537 80.6629 77.1079 80.8524 76.7319 80.9285C76.2126 81.0328 73.7875 81.0499 73.1685 81.0564L65.0519 81.0681C64.9048 81.5709 73.1599 88.8864 73.5284 90.1019C74.247 92.4722 72.0847 93.7032 70.1158 92.5676C69.2412 91.7751 66.9133 89.3334 66.1789 88.5733C64.9864 87.3391 54.6364 77.1167 54.6366 76.8947C54.967 76.6968 58.7555 76.7421 59.4277 76.7339L68.5471 76.6041C69.6559 76.5856 70.783 76.6308 71.8886 76.5872Z" fill="white"/>
<path d="M44.0174 43C44.8938 43.0109 45.6826 43.424 45.981 44.271C46.3433 45.2992 46.2015 47.1529 46.2017 48.2545L46.1966 64.0805C46.1935 64.6573 46.269 66.9105 46.1329 67.2782L46.0471 67.2794C45.6487 66.9712 45.0949 66.3663 44.7209 65.9843L42.5256 63.7373L35.0103 56.0247L32.1744 53.1264C31.6537 52.5933 31.0681 52.0393 30.6102 51.4617C29.6953 50.2345 30.2999 48.4112 31.7641 48.0206C33.2477 47.6248 34.1195 48.9276 35.0767 49.9092L39.0982 54.0414C39.7752 54.7376 41.1317 56.2374 41.8814 56.7052C41.952 52.7112 41.7213 48.6664 41.9737 44.6771C41.9933 44.3686 42.309 43.8492 42.5018 43.621C42.9256 43.1193 43.4147 43.0309 44.0174 43Z" fill="white"/>
<path d="M55.543 45.3129C56.1631 45.2401 56.939 45.2749 57.5845 45.3985C59.2107 45.7098 60.5483 46.6534 61.5387 48.0003C61.6206 48.1117 61.6872 48.3481 61.6316 48.4365C61.417 48.7779 60.0172 49.5998 59.6909 49.7911C59.1149 48.8428 58.5833 48.1691 57.4896 47.7882C56.6022 47.4817 55.6328 47.5471 54.7922 47.9701C53.7718 48.4889 53.0933 49.3259 52.733 50.4269C52.368 51.5464 52.4474 52.7681 52.9538 53.8281C53.4074 54.7584 54.2519 55.5721 55.2217 55.8969C56.1029 56.1876 57.0603 56.1117 57.8875 55.6854C58.9209 55.1462 59.4502 54.2232 59.7942 53.1411C58.6513 53.1531 57.5082 53.154 56.3652 53.1437L55.433 51.1114C55.3582 50.9688 55.3519 50.9483 55.331 50.7878C55.7208 50.6288 61.7635 50.7036 62.5105 50.7228C62.5696 52.7632 62.4833 54.1971 61.2898 55.9207C59.3064 58.7849 55.1501 59.1297 52.484 57.1606C51.1602 56.1948 50.2707 54.724 50.0154 53.0789C49.4218 49.1863 51.7421 45.9065 55.543 45.3129Z" fill="white"/>
<path d="M97.1414 64.9934C98.1029 63.3137 100.336 62.8706 101.735 64.2605C102.952 65.4701 102.729 67.6361 102.73 69.2513L102.717 72.835C102.04 72.7694 101.081 72.7935 100.377 72.7935C100.326 71.5465 100.378 70.2572 100.363 69.0055C100.35 68.2815 100.411 67.6247 100.285 66.9048C100.116 65.8942 98.7391 65.5094 98.0668 66.2294C97.6752 66.6484 97.5842 67.1693 97.5836 67.7287C97.5815 68.8156 97.5869 69.9019 97.5917 70.9886L97.5804 72.8197C96.8543 72.7773 95.9444 72.7966 95.2043 72.794C95.1736 71.5229 95.2075 70.2376 95.1973 68.9662C95.193 68.4791 95.2274 67.4476 95.1386 67.0042C95.0842 66.7365 94.9603 66.4889 94.7793 66.2881C94.0445 65.4782 92.7301 65.9274 92.498 66.9443C92.3633 67.5335 92.4231 68.539 92.4242 69.1615C92.4328 70.3792 92.4312 71.5969 92.4193 72.8145C91.6571 72.7801 90.8146 72.7995 90.0448 72.8035C89.9715 70.7027 90.1886 68.5725 89.8574 66.5191C89.8019 66.1743 90.8792 64.3711 91.1496 64.1625C91.4578 64.2223 91.7961 64.7406 91.9932 64.9981C92.0201 64.9522 92.0476 64.9068 92.0762 64.8619C92.5195 64.1626 93.1745 63.653 93.9772 63.4798C95.6352 63.3681 96.1206 63.6797 97.1414 64.9934Z" fill="white"/>
<path d="M50.0646 59.9307L53.9783 59.929C54.8082 59.9285 56.0844 59.8737 56.8522 60.0732C57.5725 60.2632 58.2337 60.6383 58.7734 61.163C61.4101 63.7218 60.1511 68.1965 56.5906 68.9016C55.919 69.0346 55.0388 69.0057 54.3473 69.0191C54.0538 68.474 53.2089 66.919 53.0772 66.3831C53.75 66.3932 54.431 66.4054 55.1032 66.4081C56.2799 66.4127 56.9168 66.1939 57.4763 65.1174C58.3714 61.6411 54.6396 62.1659 52.6 62.202L52.5938 72.8141C51.7552 72.7838 50.8926 72.799 50.0513 72.804L50.0646 59.9307Z" fill="white"/>
<path d="M75.2737 63.4859C76.0628 63.3816 77.0411 63.5119 77.7419 63.9242C78.0042 64.0785 78.4648 64.6125 78.7298 64.6372C78.6081 64.231 78.6512 64.0011 78.6674 63.578C79.4377 63.5759 80.2365 63.5867 81.0031 63.5378L81.009 72.8143C80.2909 72.7745 79.3725 72.7954 78.6399 72.792C78.6437 71.8619 78.7099 68.3992 78.5666 67.7465C78.4729 67.3327 78.2887 66.9459 78.029 66.6152C77.0702 65.382 75.5931 65.4286 74.4473 66.3594C73.8623 66.988 73.5952 67.7034 73.7174 68.5797C73.8144 69.2284 74.1575 69.8115 74.6725 70.2012C75.5317 70.859 76.2309 70.7057 77.1925 70.5707C77.3891 71.0024 77.8103 71.5989 77.9304 71.9901C78.0872 72.4989 77.0158 72.8102 76.6306 72.8658C75.3523 73.0503 74.0239 72.7663 72.9816 71.9576C72.0405 71.2225 71.4245 70.1327 71.27 68.93C71.0875 67.5972 71.4395 66.2454 72.2456 65.1831C72.9789 64.2162 74.0983 63.6348 75.2737 63.4859Z" fill="white"/>
<path d="M107.631 63.4829C107.825 63.4647 108.019 63.456 108.214 63.4567C109.46 63.4519 110.29 63.9034 111.142 64.7738C111.006 64.3107 111.008 64.0482 111.02 63.5804C111.777 63.552 112.598 63.5716 113.376 63.5497C113.429 66.5944 113.389 69.7612 113.388 72.8149C112.66 72.7766 111.754 72.796 111.006 72.786L111.019 69.7561C111.02 69.1325 111.071 68.3165 110.958 67.7142C110.575 65.6631 108.348 65.0574 106.859 66.3581C106.291 66.9874 105.985 67.7078 106.114 68.5791C106.211 69.2318 106.555 69.819 107.071 70.2132C107.922 70.8523 108.642 70.7141 109.586 70.5595C110.222 71.9016 111.107 72.4473 108.899 72.872C108.688 72.9061 108.471 72.924 108.258 72.924C102.482 72.9226 101.969 64.3539 107.631 63.4829Z" fill="white"/>
<path d="M103.879 48.9612C105.445 48.8249 106.046 49.2957 107.182 50.227C107.153 49.8126 107.143 49.4899 107.145 49.0745C107.938 49.0842 108.656 49.0873 109.448 49.0534C109.522 52.016 109.455 55.2836 109.452 58.2694C108.863 58.2184 107.722 58.2393 107.113 58.2554C107.121 57.3181 107.18 53.8831 107.02 53.1466C106.941 52.7784 106.778 52.4345 106.545 52.1437C105.57 50.9096 104.083 50.8641 102.925 51.8609C102.35 52.3936 102.046 53.3235 102.177 54.1038C102.291 54.7492 102.65 55.3216 103.176 55.6948C104.007 56.2845 104.724 56.218 105.638 56.0421C106.32 57.4419 107.169 58.0868 104.794 58.3759C103.568 58.5274 102.335 58.1713 101.367 57.3864C98.2387 54.8531 99.6753 49.4457 103.879 48.9612Z" fill="white"/>
<path d="M67.2628 48.9617C69.5221 48.7081 71.5525 50.151 72.1417 52.3536C72.3847 53.2623 72.3319 53.8929 72.2627 54.8118C70.7384 54.7273 69.1424 54.8318 67.6095 54.7733C67.2641 54.1688 66.8624 53.5502 66.5729 52.9211C67.5493 52.8665 68.81 52.8931 69.7987 52.9185C69.2334 49.6596 63.8002 51.3947 65.8507 55.111C65.9923 55.3186 66.1583 55.5145 66.3529 55.6718C66.8383 56.0698 67.4594 56.251 68.0765 56.1746C68.6285 56.1026 68.9294 55.8782 69.2514 55.4421C70.0729 55.7217 70.7064 56.0244 71.4756 56.4096C71.4119 56.518 71.3371 56.6374 71.2603 56.736C70.5319 57.6529 69.4805 58.2386 68.3338 58.3662C67.9491 58.4128 67.473 58.4318 67.09 58.3784C61.6335 57.6177 61.7519 49.5813 67.2628 48.9617Z" fill="white"/>
<path d="M87.3207 48.9604C88.8646 48.8002 90.4677 49.4948 91.3974 50.7723C92.2776 51.9819 92.4807 53.2998 92.29 54.7683C91.1098 54.8599 88.871 54.7893 87.6315 54.7905C87.3083 54.2772 86.824 53.4396 86.5558 52.9041L89.9101 52.9058C89.6677 52.1581 89.1506 51.5108 88.4018 51.2673C87.84 51.0887 87.2313 51.1495 86.7131 51.4358C86.1502 51.7455 85.7311 52.2732 85.5495 52.9013C85.319 53.6988 85.4693 54.3707 85.8393 55.08C85.8927 55.1695 85.9455 55.2399 86.0096 55.3213C86.3958 55.8133 86.9603 56.1232 87.5739 56.1796C88.4169 56.2578 88.8716 55.9549 89.4749 55.449C90.0173 55.6931 91.0548 56.1192 91.5186 56.4273C90.7876 57.4439 89.6467 58.1857 88.4218 58.3564C87.1155 58.5454 85.7898 58.1899 84.741 57.3695C81.9802 55.1869 82.7996 50.3937 86.0645 49.2477C86.5278 49.0851 86.8348 49.0225 87.3207 48.9604Z" fill="white"/>
<path d="M78.0678 48.9599C78.1659 48.9503 78.2639 48.945 78.3625 48.9442C82.444 48.8968 82.304 51.9307 82.2997 55.0649L82.2937 58.2717C81.6123 58.223 80.5199 58.2284 79.8304 58.2544C79.8525 57.0879 80.0001 53.1259 79.6812 52.2102C79.5486 51.8313 79.3084 51.5148 78.9475 51.3429C78.3382 51.0525 77.6961 51.2531 77.1063 51.4805C76.5261 51.7045 76.1695 51.8677 75.6486 52.2048C75.6357 54.169 75.6136 56.3051 75.6701 58.2583C75.041 58.218 73.8257 58.2341 73.1917 58.251C73.2569 55.3068 73.2089 52.0672 73.1858 49.1077C73.927 49.071 74.909 49.0689 75.6491 49.094C75.6481 49.3375 75.6125 49.6438 75.591 49.8913C76.6075 49.3276 76.8946 49.1178 78.0678 48.9599Z" fill="white"/>
<path d="M86.7982 63.4823C87.7209 63.3319 88.6814 63.6359 89.5503 63.895C89.3246 64.4641 88.7525 65.4114 88.4395 65.9956C87.5297 65.5276 86.1959 65.5044 85.4369 66.345C84.1263 67.7974 84.8466 70.6763 84.6844 72.507C84.6672 72.6964 84.7108 72.6732 84.5853 72.8009L84.3553 72.7995C83.6512 72.801 82.9472 72.7963 82.2437 72.7855C82.2 69.7549 82.2302 66.609 82.2415 63.572C83.0474 63.5755 83.8538 63.5695 84.6602 63.5539C84.6726 63.929 84.6569 64.371 84.651 64.7521C85.2823 63.989 85.821 63.6225 86.7982 63.4823Z" fill="white"/>
<path d="M97.9537 48.9624C99.0262 48.8973 99.4496 49.0493 100.477 49.3299C100.277 50.0501 99.7647 50.8954 99.3553 51.5135C98.877 51.2797 98.4337 51.1392 97.8944 51.1803C97.2491 51.2317 96.6506 51.5462 96.2332 52.0533C95.9956 52.3324 95.8275 52.6668 95.744 53.0275C95.5997 53.6754 95.6546 57.5354 95.7096 58.2608L95.1019 58.2452C94.476 58.2442 93.8436 58.2368 93.2187 58.2634C93.2306 55.211 93.1756 52.1336 93.2279 49.0857C93.6286 49.084 95.4375 49.0236 95.6368 49.185C95.7279 49.4889 95.625 49.8527 95.5517 50.1553C96.6625 49.5376 96.3344 49.1265 97.9537 48.9624Z" fill="white"/>
<path d="M61.3428 59.9358C62.1327 59.9454 62.9226 59.9383 63.7121 59.9142C63.8653 64.0157 63.7134 68.668 63.7084 72.8226C63.0472 72.7682 62.0366 72.7948 61.3469 72.7942L61.3428 59.9358Z" fill="white"/>
<path d="M110.71 45.4224C111.419 45.3805 112.371 45.4014 113.099 45.3952C113.152 46.5948 113.088 48.3062 113.088 49.5497L113.083 58.2722C112.389 58.2234 111.426 58.2429 110.712 58.2367C110.804 55.1067 110.664 51.8089 110.719 48.6638C110.727 48.1536 110.66 45.7411 110.71 45.4224Z" fill="white"/>
<path d="M66.0167 63.5437C66.2613 63.5057 66.5592 63.5127 66.8072 63.5149C70.2123 63.5446 70.3765 66.3594 70.374 69.0989C70.3729 70.3214 70.363 71.5932 70.3485 72.811C69.7643 72.7843 69.1077 72.7991 68.5181 72.7993C68.3043 72.8084 68.2137 72.8181 68.0017 72.778C67.9077 72.4716 67.9688 70.4238 67.9656 69.9555C67.9503 67.7143 68.4146 64.7421 65.0046 66.0089C64.1272 64.4342 63.802 63.7432 66.0167 63.5437Z" fill="white"/>
<path d="M127.293 45.4141C128.168 45.3327 128.412 45.6521 128.986 46.261C129.012 47.2798 129.096 47.7521 128.136 48.288C127.238 48.3071 126.839 48.2559 126.321 47.454C126.301 46.9775 126.311 46.6861 126.354 46.2145C126.675 45.8318 126.833 45.6264 127.293 45.4141ZM126.611 46.2772C126.568 46.7062 126.526 47.1857 126.665 47.5997C126.868 47.7541 126.927 47.5484 126.945 47.6734C126.964 47.8049 126.969 47.8233 127.05 47.9209C127.401 48.079 127.905 48.1332 128.273 47.9976L128.35 47.8941C128.309 47.6841 128.297 47.727 128.125 47.5479C127.957 47.3581 127.924 47.2125 127.704 47.081L127.577 47.1028C127.393 47.4029 127.479 47.4982 127.251 47.6791L127.177 47.6466C127.126 47.3366 127.105 46.3438 127.262 46.0815L127.439 46.0762L127.464 45.9824C127.324 45.8943 127.227 45.8474 127.081 45.7776C126.88 45.9658 126.783 46.0627 126.611 46.2772ZM128.659 47.8499C128.742 47.432 128.905 46.5805 128.65 46.2277C128.293 45.8442 128.333 46.0249 128.003 45.8289L128.07 45.6873C127.902 45.5213 127.476 45.5073 127.271 45.6036L127.247 45.6849C127.487 45.904 128.122 46.0927 128.307 46.2906C128.209 46.3109 128.204 46.3239 128.125 46.3832C128.146 46.4726 128.168 46.5344 128.198 46.6197C128.08 46.8651 128.036 46.7565 127.866 46.9489C128.098 47.0496 128.44 47.5843 128.659 47.8499ZM127.754 46.9262C127.884 46.6367 127.882 46.1741 127.568 46.0261C127.536 46.2576 127.478 46.5091 127.555 46.7246C127.637 46.8243 127.654 46.8488 127.754 46.9262Z" fill="white"/>
<path d="M128.307 46.2906C128.122 46.0927 127.487 45.904 127.247 45.6849L127.271 45.6036C127.476 45.5073 127.902 45.5213 128.07 45.6873L128.003 45.8289C128.333 46.0249 128.293 45.8442 128.65 46.2277L128.307 46.2906Z" fill="white"/>
<path d="M44.3235 105C43.6263 104.68 42.8407 104.348 42.5602 103.545C42.2935 102.782 42.3768 97.549 42.3755 96.39C42.3734 95.3082 42.3593 94.2265 42.3335 93.145C42.3286 92.8344 42.3702 91.5167 42.3229 91.3374C41.985 91.4432 40.9746 92.7867 40.635 93.1338C39.1817 94.6196 37.7449 96.1274 36.2879 97.6109C35.7228 98.1856 34.6688 99.3946 34.0174 99.7702C33.4767 100.082 32.3328 100.092 31.7593 99.715C31.1569 99.319 31.0242 99.1787 30.7711 98.48C30.6216 98.0674 30.7336 96.8318 30.9223 96.6184C31.4989 95.9665 32.3008 95.2187 32.9087 94.5642C35.8196 91.3758 38.7993 88.2541 41.8456 85.2016C43.0074 84.014 44.1652 82.8214 45.3332 81.6404C45.6282 81.3421 46.2662 80.6449 46.6619 80.5666C46.739 80.6293 46.7489 80.609 46.7517 80.7144C46.7743 81.5614 46.7493 82.4513 46.7559 83.2972C46.7746 85.6158 46.7805 87.9345 46.7735 90.2532L46.7849 98.7313C46.7864 100.163 46.8076 101.589 46.7678 103.024C46.742 103.957 46.076 104.47 45.3016 104.813C45.1596 104.876 44.9777 104.918 44.8484 105H44.3235Z" fill="white"/>
<path d="M19 78.1096C19.6475 76.9963 20.1044 76.5415 21.465 76.5415C25.1662 76.5415 28.8679 76.6056 32.5687 76.6188C33.1348 76.621 33.7098 76.6875 34.2829 76.6933L38.555 76.7305C39.2554 76.7311 42.3099 76.7148 42.7834 76.8559L42.8 76.9337C42.6013 77.2495 41.5372 78.2769 41.2342 78.5822L38.2421 81.6127C37.2379 82.6292 36.2625 83.6869 35.2662 84.7132C33.6742 86.3749 32.1632 87.9453 30.4147 89.4374C29.4377 90.2712 28.5198 91.4692 27.5033 92.3439C26.5519 93.1627 25.7026 93.2696 24.6116 92.522C23.601 91.8294 23.5824 90.2143 24.3063 89.3085C24.77 88.7179 25.4495 88.1656 25.956 87.6034C27.455 86.0025 29.1028 84.6584 30.5988 83.0555C31.1271 82.4895 31.9949 81.7399 32.4178 81.1063C31.454 81.1394 30.6105 81.0836 29.6509 81.0676L25.5468 81.025C23.9601 81.0024 22.3256 81.0777 20.7518 80.8656C19.9244 80.7541 19.3972 79.9687 19 79.3041V78.1096Z" fill="white"/>
<path d="M32.4907 66.8618C29.8718 63.8844 26.8855 61.3588 24.2288 58.4521C23.5521 57.7117 23.7628 56.1425 24.4799 55.4815C25.0754 54.9326 26.3878 54.6804 27.023 55.2127C27.8951 55.9432 28.688 56.8281 29.4976 57.6335L35.29 63.5003C36.1704 64.3829 37.0472 65.1827 37.9206 66.0385C38.9765 67.0918 40.024 68.1541 41.0629 69.2252C41.3606 69.5304 42.5867 70.7118 42.7672 70.9319C42.8479 71.0323 42.919 71.1405 42.9793 71.2549C41.3053 71.1212 38.8389 71.2439 37.1129 71.2535C33.6923 71.2408 30.2716 71.2624 26.8514 71.3182L23.1513 71.3581C22.3122 71.367 21.532 71.4549 20.6966 71.3046C19.7893 71.1414 19.4362 70.4296 19 69.6996V68.5903L19.0313 68.5542C19.2253 68.3273 19.3489 68.0804 19.5097 67.8381C19.91 67.2351 20.7185 66.9942 21.4054 66.9721C22.4831 66.9374 23.5857 66.9558 24.6673 66.9491L28.4873 66.891C29.8171 66.8828 31.1637 66.9092 32.4907 66.8618Z" fill="white"/>
<path d="M52.9506 105C51.5042 104.306 51.2506 103.936 51.2455 102.298C51.2235 95.3026 51.2474 88.3062 51.2398 81.3106C51.2395 81.0404 51.1715 80.6853 51.4455 80.5731C51.6529 80.6775 51.7644 80.9906 51.9219 81.1648C53.0433 82.4063 54.2561 83.5943 55.4221 84.7929L63.2715 92.8473C64.3319 93.9368 65.3775 95.0304 66.5017 96.1369C67.7893 97.4042 67.4789 99.2693 65.7604 99.9259C65.3549 100.081 64.7227 100.082 64.3254 99.8591C63.3805 99.2582 62.4984 98.2199 61.7196 97.4163L56.7172 92.2802C56.4095 91.9635 55.8442 91.4132 55.6024 91.0686C55.5385 92.0209 55.5735 93.3294 55.574 94.3084L55.5771 99.8713C55.5773 100.47 55.5727 101.095 55.5774 101.692C55.5904 103.363 55.4892 104.417 53.7436 105H52.9506Z" fill="white"/>
</svg>
