<svg width="148" height="148" viewBox="0 0 148 148" fill="none" xmlns="http://www.w3.org/2000/svg">
<path d="M81.3271 62.1629C81.8404 62.137 82.252 62.4165 82.0306 62.9748C81.341 64.7122 79.8346 66.0937 78.5463 67.3869C77.8289 68.1067 76.9873 68.7323 76.3449 69.5364C75.7759 70.25 75.345 71.1998 74.9205 72.0137C74.637 72.6345 74.2249 73.3567 74.0109 73.9941C73.8694 74.4153 73.3119 76.0457 73.583 76.3714C74.075 76.9627 75.2303 75.5084 75.5207 75.1814L77.3756 73.0966C77.7167 72.7198 78.5155 71.7115 79.013 71.7742L79.0631 71.8769C79.0586 71.966 79.0457 72.0527 79.0155 72.1365C78.6297 73.2047 75.2104 76.6215 74.1162 77.1261C73.8441 77.2514 73.5234 77.3352 73.2344 77.2173C73.014 77.1274 72.8655 76.9289 72.7787 76.7107C72.373 75.6934 73.1793 73.8327 73.575 72.862C72.3269 73.3433 68.8018 74.2821 67.9831 72.793C67.0458 73.3134 64.543 74.6818 64.0997 72.9517C63.2457 73.3812 60.9147 74.5052 60.0182 74.566C57.9929 74.7033 60.1311 71.8532 59.6722 71.4047C58.9331 71.1849 56.7202 72.8541 56.0843 73.332C55.7852 73.5094 55.2108 74.1534 54.8917 74.1719C53.8249 74.2337 54.6222 73.2486 54.8112 72.9724C54.1364 73.2839 52.7573 73.9157 52.1807 73.1197C51.8749 72.6976 52.0341 71.9719 52.1203 71.4847C51.168 72.1061 50.1345 72.8263 49.1042 73.3148C48.6804 73.5159 48.1916 73.5385 47.7702 73.3096C46.6747 71.8547 49.7954 70.3667 50.9047 70.3057C51.3325 70.2834 51.668 70.3862 52.0806 70.2607C52.426 70.1555 53.4329 68.5705 53.7721 69.0105C54.306 69.7032 52.5995 71.6448 52.9282 72.5288C53.3005 73.3588 55.034 72.1369 55.4882 71.8345C55.9549 71.524 56.7321 69.526 57.2971 69.8427C57.6723 70.4834 55.859 72.5375 55.4202 73.0598C56.1057 72.5194 60.9614 68.487 60.5175 71.9747C60.4684 72.3605 59.4721 73.6268 59.9832 73.9452C60.7534 73.9964 63.2537 72.3898 64.1687 72.0386C64.5107 71.4793 65.3875 69.4314 65.8026 69.2907C65.9118 69.2538 66.031 69.2633 66.1333 69.3171C66.2638 69.3839 66.3631 69.5014 66.4083 69.6434C66.585 70.196 65.2555 71.6464 65.0579 72.244C64.9849 72.4649 64.682 73.1891 65.1045 73.2774C65.9292 73.4501 67.1034 72.6389 67.7185 72.1192C68.2855 71.5878 68.4275 70.7689 69.2829 70.5392C69.6667 70.4088 71.0618 70.0738 71.39 70.323C72.6128 71.2503 70.4998 71.9043 69.8827 72.0098C69.3063 72.1083 69.0794 72.0656 68.6916 72.1698C68.5824 72.2812 68.6092 72.2263 68.6008 72.4013C69.0367 73.493 72.0985 72.7128 72.8928 72.3728C73.3273 72.1868 73.7021 71.9172 74.1177 71.7501C74.3441 71.2712 74.5844 70.8591 74.8386 70.3969C75.0471 70.0182 74.993 69.9447 74.8728 69.5472C75.0645 69.2367 75.5813 68.9766 75.8027 68.6687C77.033 66.9581 79.4489 62.945 81.3271 62.1629ZM77.2912 67.9924C77.883 67.3865 80.9036 64.2101 81.1245 63.5418C81.0947 63.4868 81.1056 63.4851 81.0605 63.464C80.1023 64.0087 77.74 66.9379 77.2376 67.9585L77.252 68.0097L77.2912 67.9924ZM48.6067 72.5791C49.5471 72.3087 50.8125 71.6871 51.495 70.9794L51.5026 70.929L51.4003 70.9311C50.336 71.1044 49.2666 71.5647 48.5335 72.4647C48.5158 72.4863 48.5056 72.5367 48.5022 72.5651C48.5267 72.5693 48.5858 72.5819 48.6067 72.5791ZM69.1459 71.705C69.6672 71.6478 70.8161 71.3726 71.0822 70.8778C70.9546 70.7969 70.9134 70.8065 70.76 70.817C70.2838 70.9429 69.3832 71.318 68.9915 71.6165L68.9543 71.6995L69.1459 71.705Z" fill="white"/>
<path d="M101.527 58.0234C101.809 58.0059 102.092 57.9863 102.374 58.0134C103.224 58.0875 104.008 58.5126 104.544 59.1901C105.21 60.0246 105.362 60.8134 105.303 61.894C105.273 62.4482 104.619 64.517 103.898 64.4206C103.75 64.1067 104.457 62.5968 104.561 62.0706C104.834 60.7012 103.772 59.0345 102.398 58.8182C100.795 58.566 98.2561 59.9989 96.994 60.9326C93.1999 63.7597 89.588 67.7261 88.538 72.5148C88.1552 74.2625 88.5678 76.7532 90.6038 77.0097C93.5594 77.3822 97.5675 75.0052 99.8414 73.3788C100.372 72.9911 100.888 72.5821 101.387 72.1527C102.066 71.5643 103.909 69.8495 104.566 69.5533L104.615 69.5852C104.573 69.7577 104.343 70.1183 104.23 70.277C101.507 73.9569 96.8972 76.7385 92.5461 77.8126C91.2547 78.0908 89.6109 78.0423 88.6571 77.0125C86.1772 74.3343 88.5424 69.1503 90.2295 66.7238C92.7933 63.0349 97.144 58.8512 101.527 58.0234Z" fill="white"/>
<path d="M24.517 83.7553H25.2098L26.645 88.9783L28.1492 83.7553H28.8875C29.2887 85.3652 29.9159 87.3277 30.3847 88.9516C30.8751 87.3919 31.3679 85.371 31.7997 83.7553H32.4915L32.2757 84.5106L30.7296 89.8439H30.0024C29.6096 88.24 28.9763 86.2591 28.5103 84.6277L27.0029 89.8439H26.2799C25.7703 87.8959 25.0869 85.6973 24.517 83.7553Z" fill="white"/>
<path d="M105.684 83.7552L106.621 83.7553L108.63 88.6843L110.638 83.7553H111.575V89.8411L110.963 89.8443V85.1046C110.961 84.9555 110.987 84.7897 110.914 84.6936C110.568 85.62 110.066 86.6521 109.718 87.6027C109.592 87.9454 108.934 89.5692 108.771 89.8211C108.684 89.8254 108.592 89.8357 108.509 89.8019C108.354 89.7382 106.521 85.1203 106.297 84.5765V89.8441L105.684 89.8439V83.7552Z" fill="white"/>
<path d="M66.8095 83.7552L67.5845 83.7553C68.7318 85.4721 69.9696 87.2162 71.1447 88.9208V83.7553H71.7658V89.8439H70.9854L67.438 84.6462V89.8439L66.8095 89.8441V83.7552Z" fill="white"/>
<path d="M123.243 83.7553H124.014C125.156 85.4678 126.398 87.2146 127.57 88.9144V83.7553L128.191 83.7552V89.8439H127.421C126.225 88.189 125.067 86.2668 123.855 84.6531V89.8439H123.243V83.7553Z" fill="white"/>
<path d="M40.5785 83.7553H41.3426C42.5234 85.4643 43.7573 87.2061 44.9062 88.9323V83.7553L45.5273 83.7552V89.8439H44.7542C43.578 88.2291 42.3253 86.2955 41.1909 84.6304V89.8439H40.5785V83.7553Z" fill="white"/>
<path d="M115.713 83.7552L119.428 83.7553V84.3287H116.326V86.3948H119.221V86.9598H116.326V89.2704H119.527V89.8439H115.713V83.7552Z" fill="white"/>
<path d="M83.5737 83.7553H87.2814V84.3287H84.1863V86.3948H87.0823L87.0828 86.9598H84.1863V89.2704H87.3966V89.8439H83.5737V83.7553Z" fill="white"/>
<path d="M49.6641 83.7553H53.3717V84.3287H50.2765V86.3948H53.1728L53.1731 86.9598H50.2765V89.2704H53.471V89.8439H49.6641V83.7553Z" fill="white"/>
<path d="M92.3683 83.6226C92.4095 83.6189 92.4507 83.6156 92.492 83.6128C93.4268 83.5498 93.8166 83.7249 94.4903 84.3276L93.9342 84.776C93.193 83.7569 91.4111 84.0671 91.5263 85.4102C91.6142 86.4372 93.401 86.4444 94.0598 87.0564C94.6065 87.5641 94.6894 88.019 94.4699 88.7638C94.2401 89.5659 93.4715 89.9162 92.7243 89.9997C92.6404 90.0006 92.557 89.9994 92.4731 89.9965C91.6737 89.966 91.219 89.6799 90.6942 89.1033L91.2493 88.6909C91.3937 88.8788 91.575 89.0693 91.7755 89.1942C92.1345 89.4134 92.5639 89.4794 92.9706 89.3779C93.5778 89.2274 94.0519 88.6642 93.8583 88.0152C93.5956 87.1336 92.2397 87.1266 91.5809 86.6777C91.286 86.4959 90.9246 86.1816 90.8665 85.7998C90.6753 84.547 91.279 83.8917 92.3683 83.6226Z" fill="white"/>
<path d="M75.0511 83.7553H75.7451L77.6417 88.9145C78.3119 87.2803 78.9683 85.4271 79.6073 83.7553H80.272L80.0352 84.384L77.9515 89.8439L77.3264 89.8441L75.0511 83.7553Z" fill="white"/>
<path d="M136.25 83.7553V84.3287H134.249V89.8439H133.627V84.3287H131.633V83.7553H136.25Z" fill="white"/>
<path d="M102.241 83.7553V84.3287H100.24V89.8439H99.6185V84.3287H97.6241V83.7553H102.241Z" fill="white"/>
<path d="M35.8206 83.7553L36.4417 83.7552V89.8439H35.8206V83.7553Z" fill="white"/>
<path d="M62.0591 83.7553H62.6802V89.8439L62.0591 89.844V83.7553Z" fill="white"/>
<path d="M130.344 67.183C130.587 67.1582 130.748 67.1528 130.954 67.3029C131.257 67.8199 130.475 68.3965 130.11 68.6428C129.954 68.7235 129.918 68.7403 129.745 68.7661C129.413 68.6258 129.526 68.2325 129.629 67.953C129.783 67.5389 129.942 67.3601 130.344 67.183Z" fill="white"/>
<path d="M67.4028 67.1797C67.6758 67.1562 68.1793 67.1968 68.0685 67.6191C67.9529 68.0632 67.4876 68.4194 67.1232 68.6538C66.9817 68.7264 66.948 68.7361 66.7916 68.7685C66.7072 68.7353 66.6064 68.701 66.5925 68.6001C66.5006 67.9418 66.871 67.402 67.4028 67.1797Z" fill="white"/>
<path d="M32.2894 61.8573C31.829 61.8446 31.2512 61.807 30.8006 61.8431C27.7029 62.091 24.5989 62.4849 21.5769 63.2331C21.4742 63.2585 21.3939 63.2015 21.3079 63.1566C21.0622 62.8363 21.2556 62.4098 21.5464 62.1945C21.942 61.9016 22.4566 61.8302 22.918 61.6974C25.2472 61.076 27.601 60.9236 30.0016 60.8987C30.8892 60.8537 31.8329 60.9783 32.7053 60.8513C32.7853 60.8397 32.9915 60.6416 33.0531 60.5804C33.538 60.0995 34.5075 57.9634 35.2344 58.0434C35.6877 58.5267 34.4292 60.3589 34.0938 60.8845C37.4253 61.1945 40.3045 61.6104 43.4916 62.6568C47.7846 64.0664 49.0796 66.9921 45.2529 70.1763C42.3796 72.5672 39.4321 73.8563 36.0966 75.3664C33.3244 76.6425 30.5032 77.805 27.6398 78.8511L24.0442 80.1703C21.4926 81.1063 21.5783 80.8105 20.1761 83.2027L17.8642 87.1346C17.2692 88.1321 16.7199 89.2466 15.8043 89.9634C16.0477 88.8792 16.6024 87.9076 17.0773 86.9151C17.9043 85.187 18.9589 83.4441 19.7772 81.7315C18.0624 82.4833 12.5625 85.202 10.8775 84.5107C10.6779 84.4288 10.5987 84.3498 10.5186 84.1506C10.5122 84.135 10.506 84.1192 10.5 84.1034V83.8913C10.8882 83.4754 11.579 83.2252 12.1131 83.0481C14.8866 82.1284 17.9022 81.4206 20.5586 80.1935C20.9818 79.998 23.2018 76.3453 23.5918 75.7303L30.7199 64.4539C31.2108 63.677 31.9031 62.6571 32.2894 61.8573ZM22.5445 79.5282C25.7347 78.3772 28.8734 77.2715 32.0099 75.946C35.7877 74.3811 44.2139 71.0725 46.3359 67.0878C46.5147 66.752 46.5044 66.2457 46.3676 65.8772C46.0556 65.037 44.4168 64.1957 43.6038 63.8963C40.9937 62.935 38.1001 62.3709 35.3418 62.0748C34.8999 62.0273 34.0149 61.9323 33.6218 61.9646C33.4845 62.0413 33.3331 62.1232 33.2516 62.2603C32.7784 63.0562 32.3166 63.8697 31.8376 64.6614C30.8171 66.3292 29.7866 67.9906 28.7461 69.6455L25.0829 75.4185C24.2036 76.8011 23.3549 78.1002 22.5445 79.5282Z" fill="white"/>
<path d="M109.028 71.4923C108.341 71.9383 105.484 74.0692 104.727 73.33C103.424 72.0574 106.799 70.2321 107.826 70.3265C108.683 70.4053 109.263 70.2744 109.771 69.525C110.022 69.196 110.389 68.7467 110.804 69.1144C110.952 69.5045 110.546 70.2061 110.376 70.5784C108.98 73.6337 110.376 72.993 112.383 71.9251C112.655 71.4048 113.749 68.9848 114.296 69.0559C114.664 69.4812 113.826 70.888 113.635 71.4063C114.266 70.8624 115.164 69.9751 115.984 69.9431C116.984 69.9039 116.688 71.3998 117.144 71.8587C117.324 72.0395 118.152 71.9356 118.445 71.9171C118.781 71.4719 119.668 69.8114 120.15 69.8012C120.313 69.864 120.263 69.8196 120.345 69.9775C120.355 70.7531 118.871 72.4769 118.351 73.0834C118.737 72.7854 119.23 72.3591 119.597 72.1053C120.388 71.5583 123.318 69.3837 123.535 71.4664C123.608 72.1637 122.548 73.4343 122.869 73.9103C123.417 74.1844 126.387 72.3016 127.135 72.0413C127.239 71.8314 127.424 71.523 127.566 71.2731C127.925 70.6535 128.137 69.7447 128.723 69.3175C128.923 69.1712 129.309 69.3666 129.332 69.5573C129.454 70.5389 128.254 71.4689 127.962 72.3948C127.898 72.5971 127.77 72.8603 127.867 73.0866C128.386 73.864 130.495 72.3665 130.86 71.9808C131.751 71.0382 132.381 70.1503 133.537 69.5695C134.023 69.3254 134.695 69.3655 134.916 69.9376C135.111 70.4973 134.711 71.3845 134.471 71.8969C135.296 71.7776 136.219 71.5609 137.045 71.5398C137.242 71.5348 137.373 71.6235 137.5 71.7702V72.0226C137.009 72.4656 134.574 72.4878 133.892 72.828C133.369 73.0885 132.809 73.8995 132.265 74.2462C131.927 74.4731 131.537 74.6869 131.114 74.5956C130.228 74.4046 130.308 73.7492 130.451 73.0603C129.492 73.5362 127.516 74.5148 127.056 72.9562C125.954 73.4915 124.796 73.9797 123.66 74.4327C123.323 74.5669 122.635 74.6709 122.324 74.4231C121.49 73.7602 123.154 71.844 122.566 71.3892C121.882 71.2465 119.965 72.6707 119.322 73.11C119.052 73.294 118.142 74.15 117.838 74.1697C116.793 74.2379 117.618 73.1862 117.865 72.8275C115.819 72.9105 116.562 71.7555 115.757 70.9044C115.302 70.4237 113.292 72.5103 112.993 72.9233C112.777 73.2222 112.226 74.2339 111.816 74.364C110.813 74.5617 111.681 73.229 111.862 72.9044C111.198 73.2225 109.696 73.9505 109.116 73.1539C108.8 72.7196 108.949 71.9951 109.028 71.4923ZM132.91 71.9035C133.124 71.9321 133.304 71.9727 133.483 71.815C133.823 71.5176 134.261 70.681 134.128 70.235L134.039 70.1935C133.519 70.4356 132.111 71.2593 132.91 71.9035ZM105.488 72.5878C106.429 72.3157 107.737 71.7024 108.408 70.9768L108.404 70.9307L108.345 70.9283C107.413 71.0712 105.824 71.6849 105.396 72.565L105.488 72.5878ZM132.312 73.4898C132.573 73.2353 132.674 73.1055 132.851 72.7823C132.458 72.7519 132.192 72.7536 131.925 72.4227C131.874 72.3593 131.746 72.1337 131.714 72.1084C131.47 72.4612 131.344 72.6375 131.32 73.0702C131.281 73.7737 131.868 73.7875 132.312 73.4898Z" fill="white"/>
</svg>
