<svg width="148" height="148" viewBox="0 0 148 148" fill="none" xmlns="http://www.w3.org/2000/svg">
<path d="M116.313 90.4189L80.5899 28.2078C78.8297 25.7518 76.6543 24.6474 73.5913 25.0989C68.9134 25.7884 66.5471 31.5272 69.0709 35.469L104.61 97.4085C109.624 104.056 119.716 98.2079 116.313 90.4189Z" fill="#FEFEFE"/>
<path d="M43.2213 97.7289L68.471 51.9134C70.3252 46.9465 66.6411 41.8271 61.3481 42.4586C59.4758 42.6813 57.7821 43.7644 56.6763 45.2868L31.7265 90.4891C28.2604 98.0767 38.0434 104.13 43.2243 97.7289H43.2213Z" fill="#FEFEFE"/>
<path d="M73.1429 69.6361C58.0063 70.7741 63.0811 94.501 77.3542 89.1772C88.034 85.1927 84.4771 68.7849 73.1429 69.6361Z" fill="#FEFEFE"/>
<path d="M94.9448 114.906C95.7689 115.406 95.4447 116.05 96.7657 115.226C94.8751 111.113 88.031 112.199 87.122 116.593C86.1313 121.38 90.9031 124.315 95.0296 122.273C95.4932 122.045 97.1717 120.962 96.5415 120.379C95.5659 119.479 95.1054 120.644 94.2904 121.071C92.827 121.84 91.1667 121.74 89.8579 120.714C86.2404 117.883 89.9124 111.855 94.9448 114.906Z" fill="#FEFEFE"/>
<path d="M56.3582 113.011C55.6856 113.279 55.2978 113.987 54.5979 114.094V109.298H53.2375V122.542C53.5193 122.493 54.5282 122.615 54.5979 122.542C54.6979 122.441 54.4313 121.392 54.713 121.398C59.4667 125.907 65.9806 119.564 62.0783 114.436C60.8028 112.758 58.2578 112.248 56.3582 113.011ZM59.194 121.349C53.7587 122.478 53.2345 114.936 57.0308 114.146C62.5843 112.993 63.1054 120.537 59.194 121.349Z" fill="#FEFEFE"/>
<path d="M107.37 112.779C101.71 113.746 102.48 123.396 108.869 122.987C115.523 122.56 114.923 111.488 107.37 112.779ZM108.642 121.547C104.101 121.74 103.764 114.89 107.821 114.149C112.738 113.249 113.617 121.34 108.642 121.547Z" fill="#FEFEFE"/>
<path d="M78.4055 112.95C78.3055 113.051 78.5721 114.1 78.2904 114.094C73.7094 109.908 67.2864 115.632 70.7342 120.791C72.543 123.494 76.1181 123.509 78.4025 121.401C78.251 122.853 78.4661 122.563 79.7659 122.542V112.953C79.4841 113.002 78.4752 112.88 78.4055 112.953V112.95ZM72.3885 120.498C69.0527 117.188 73.8579 111.684 77.4208 115.089C80.693 118.216 76.0635 124.147 72.3885 120.498Z" fill="#FEFEFE"/>
<path d="M44.1665 112.95C44.0665 113.051 44.3332 114.103 44.0514 114.094C41.6185 111.958 38.0859 112.16 36.3619 115.025C33.1838 120.309 39.6825 125.596 44.1635 121.398C44.012 122.85 44.2271 122.56 45.5269 122.539V112.95C45.2451 112.999 44.2362 112.877 44.1665 112.95ZM37.5466 119.735C35.3379 115.806 40.2733 112.151 43.1879 115.082C46.9872 118.911 40.3097 124.647 37.5466 119.735Z" fill="#FEFEFE"/>
</svg>
