<svg width="148" height="148" viewBox="0 0 148 148" fill="none" xmlns="http://www.w3.org/2000/svg">
<path d="M79.8883 99.6465C79.682 99.4717 79.4756 99.2919 79.2889 99.117C75.0882 95.216 73.9779 90.9204 73.8158 87.8934C73.6585 90.9204 72.5482 95.211 68.3475 99.117C68.1804 99.2719 67.9987 99.4317 67.8169 99.5866L67.7383 99.4917C67.92 99.3368 68.1018 99.177 68.2689 99.0221C72.6022 94.9962 73.6241 90.5557 73.7126 87.5388C73.7126 87.3989 73.7126 87.2591 73.7126 87.1192V86.9843L73.9189 86.9893V87.1192C73.9189 87.2541 73.9189 87.3989 73.9189 87.5388C74.0123 90.5557 75.0293 94.9962 79.3626 99.0221C79.5493 99.197 79.7508 99.3718 79.9571 99.5466L79.8785 99.6415L79.8883 99.6465Z" fill="#9D9D9C"/>
<path d="M105.053 106.42V106.295C105.181 106.295 105.304 106.24 105.392 106.14C105.481 106.04 105.515 105.91 105.5 105.775C105.117 102.948 102.941 88.5128 97.546 81.6947C97.3495 81.445 97.148 81.2102 96.9515 80.9904C93.5664 77.2242 89.8767 76.2452 87.3562 76.0904C86.919 78.3581 85.9118 80.4909 84.4379 82.2691C83.6026 83.2731 82.6397 84.1422 81.5686 84.8665C80.7039 85.4509 79.7753 85.9304 78.8025 86.29C77.8248 86.6547 76.8078 86.9044 75.7712 87.0293C75.7613 89.8215 76.5966 93.9073 80.6155 97.6385C80.7924 97.8034 80.9889 97.9732 81.2149 98.163L81.1363 98.2579C80.9103 98.0681 80.7088 97.8983 80.532 97.7285C78.8419 96.16 77.5645 94.3719 76.7391 92.4238C75.9972 90.6806 75.6336 88.8475 75.6483 86.9694V86.9144L75.7024 86.9094C77.761 86.6647 79.7655 85.9204 81.4998 84.7566C82.5611 84.0423 83.5142 83.1782 84.3396 82.1842C85.8135 80.411 86.8158 78.2782 87.2432 76.0105L87.2531 75.9555H87.3071C89.0169 76.0554 90.6873 76.49 92.2595 77.2492C94.0037 78.0884 95.6151 79.3171 97.0399 80.9055C97.2365 81.1253 97.4379 81.365 97.6393 81.6148C98.8774 83.1832 100.042 85.2661 101.093 87.8035C101.963 89.9014 102.769 92.3339 103.481 95.0262C104.744 99.7914 105.397 104.122 105.618 105.76C105.643 105.925 105.594 106.095 105.486 106.22C105.377 106.345 105.22 106.42 105.053 106.42Z" fill="#9D9D9C"/>
<path d="M105.053 106.42C105.024 106.42 104.999 106.42 104.975 106.415C103.171 106.165 96.8189 105.196 90.7659 103.153L90.8052 103.033C96.8532 105.076 103.196 106.045 104.994 106.29C105.014 106.29 105.034 106.29 105.058 106.29V106.415L105.053 106.42Z" fill="#9D9D9C"/>
<path d="M42.5783 106.42V106.295C42.5783 106.295 42.6225 106.295 42.6422 106.295C44.4305 106.05 50.7291 105.086 56.7477 103.063L56.787 103.183C54.2223 104.047 51.3433 104.806 48.2284 105.451C45.6932 105.975 43.6494 106.28 42.6569 106.42C42.6324 106.42 42.6078 106.425 42.5783 106.425V106.42Z" fill="#9D9D9C"/>
<path d="M42.5783 106.42C42.4113 106.42 42.259 106.345 42.146 106.22C42.0379 106.095 41.9887 105.925 42.0133 105.76C42.2344 104.137 42.878 99.8563 44.1259 95.1211C44.8285 92.4488 45.6244 90.0362 46.4793 87.9434C47.516 85.4159 48.6607 83.333 49.8841 81.7546C50.1297 81.44 50.3606 81.1602 50.5916 80.9055C52.1146 79.2122 53.844 77.9235 55.7257 77.0844C57.4159 76.3301 59.1944 75.9455 61.0122 75.9405H61.0614L61.0712 75.9905C61.4839 78.2082 62.4518 80.3011 63.8667 82.0493C64.5497 82.8985 65.3358 83.6577 66.1955 84.3121C67.8758 85.5908 69.8607 86.4549 71.9291 86.8095L71.9783 86.8195V86.8695C72.0077 88.7625 71.6491 90.6157 70.9121 92.3739C70.0867 94.3419 68.8044 96.1451 67.0946 97.7285C66.8637 97.9382 66.623 98.148 66.3528 98.3678L66.2742 98.2679C66.5444 98.0481 66.7851 97.8433 67.0111 97.6335C70.1801 94.6865 71.8997 90.8854 71.8554 86.9194C69.787 86.5548 67.8021 85.6857 66.1219 84.407C65.2572 83.7476 64.4661 82.9784 63.7734 82.1243C62.3584 80.376 61.3856 78.2782 60.9631 76.0604C58.2609 76.0804 54.3009 76.9545 50.68 80.9854C50.454 81.2402 50.2231 81.5149 49.9823 81.8296C44.6664 88.7026 42.5144 102.983 42.1361 105.775C42.1165 105.91 42.1558 106.035 42.2442 106.14C42.3277 106.24 42.4506 106.295 42.5832 106.295V106.42H42.5783Z" fill="#9D9D9C"/>
<path d="M99.2607 80.8705C98.9561 80.461 98.6367 80.0763 98.3174 79.7167C95.6152 76.7098 92.2595 74.8466 88.614 74.3272L88.1816 74.2672L88.614 74.2073C92.2595 73.6878 95.6152 71.8247 98.3174 68.8178C98.6613 68.4331 99.015 67.9986 99.3589 67.5291L99.3884 67.4891L99.4326 67.5141C101.108 68.3632 102.862 69.3872 104.66 70.556L104.596 70.6609C102.823 69.5071 101.083 68.4931 99.4277 67.6489C99.0887 68.1085 98.7448 68.528 98.4107 68.9027C97.0596 70.4061 95.5267 71.6399 93.8661 72.559C92.3332 73.4081 90.707 73.9825 89.0316 74.2722C90.707 74.5569 92.3332 75.1314 93.8661 75.9855C95.5316 76.9096 97.0596 78.1383 98.4107 79.6418C98.735 80.0014 99.0543 80.391 99.3589 80.8006L99.2607 80.8755V80.8705Z" fill="#9D9D9C"/>
<path d="M60.8698 72.5939H60.8108C59.0224 72.559 57.2783 72.1594 55.6226 71.4001C53.7802 70.556 52.0851 69.2873 50.5916 67.624C50.3901 67.4042 50.1936 67.1644 49.9922 66.9147C48.7541 65.3463 47.5897 63.2634 46.5383 60.726C45.6686 58.6281 44.8629 56.1955 44.1505 53.5033C42.8878 48.7381 42.2344 44.4075 42.0133 42.7692C41.9887 42.6043 42.0379 42.4345 42.146 42.3096C42.254 42.1847 42.4113 42.1098 42.5783 42.1098C42.6078 42.1098 42.6324 42.1098 42.6569 42.1148C44.2782 42.3396 48.5625 42.9989 53.279 44.2876C55.9419 45.0169 58.3395 45.836 60.4079 46.7251C62.9087 47.8041 64.9575 48.9928 66.4903 50.2666C66.7163 50.4564 66.9178 50.6262 67.0946 50.796C69.8853 53.3884 71.5459 56.5852 71.9095 60.0466V60.1066L71.8603 60.1166C69.6151 60.5162 67.4975 61.5052 65.7337 62.9737C64.6479 63.8778 63.7144 64.9467 62.948 66.1555C61.7394 68.0635 61.0221 70.2713 60.8698 72.534V72.5939ZM42.5783 42.2347C42.4506 42.2347 42.3277 42.2896 42.2393 42.3895C42.1509 42.4894 42.1165 42.6193 42.1312 42.7542C42.5144 45.5813 44.6909 60.0217 50.0855 66.8348C50.282 67.0845 50.4786 67.3193 50.68 67.539C54.2322 71.49 58.1086 72.3991 60.7518 72.4641C60.914 70.2014 61.6362 67.9936 62.8448 66.0855C63.6162 64.8668 64.5595 63.7879 65.6551 62.8788C67.4189 61.4103 69.5365 60.4163 71.7817 60.0067C71.4133 56.6001 69.7625 53.4483 67.0111 50.8959C66.8343 50.7311 66.6377 50.5563 66.4117 50.3714C59.7447 44.8371 45.4426 42.6293 42.6422 42.2447C42.6225 42.2447 42.6029 42.2447 42.5783 42.2447V42.2347Z" fill="#9D9D9C"/>
<path d="M87.4545 72.564V72.499C87.2826 70.0765 86.4768 67.7438 85.111 65.7459C84.3101 64.5771 83.3422 63.5481 82.2319 62.684C80.3551 61.2254 78.1245 60.3014 75.7859 60.0117L75.727 60.0017V59.9417C75.9136 58.3234 76.3853 56.75 77.1272 55.2715C77.9428 53.6431 79.0924 52.1397 80.5369 50.796C80.7629 50.5862 81.0036 50.3764 81.2787 50.1517C82.8215 48.8979 84.8702 47.7241 87.3661 46.6602C89.4296 45.7811 91.8124 44.9719 94.4508 44.2526C99.128 42.9789 103.368 42.3296 104.975 42.1048C104.999 42.1048 105.024 42.0998 105.053 42.0998C105.22 42.0998 105.377 42.1748 105.486 42.2996C105.594 42.4245 105.643 42.5943 105.618 42.7592C105.402 44.3775 104.758 48.6582 103.506 53.3984C102.803 56.0707 102.007 58.4832 101.152 60.5761C100.116 63.1035 98.9708 65.1864 97.7474 66.7648C97.4969 67.0895 97.2659 67.3642 97.0399 67.614C93.6745 71.3602 89.9995 72.3642 87.5135 72.549H87.4545V72.564ZM75.8596 59.8968C78.1982 60.1965 80.4239 61.1256 82.3056 62.5841C83.4258 63.4532 84.4035 64.4921 85.2092 65.6709C86.5751 67.6689 87.3906 70.0065 87.5675 72.4241C90.0339 72.2293 93.6401 71.2203 96.9515 67.5341C97.1726 67.2893 97.4035 67.0096 97.6541 66.6899C102.975 59.8119 105.122 45.5363 105.5 42.7492C105.52 42.6143 105.481 42.4894 105.397 42.3845C105.314 42.2846 105.191 42.2297 105.058 42.2297C105.034 42.2297 105.014 42.2297 104.994 42.2297C102.228 42.6093 88.0834 44.7871 81.3574 50.2466C81.092 50.4614 80.8415 50.6761 80.6204 50.8809C77.8985 53.4084 76.2527 56.5202 75.8596 59.8868V59.8968Z" fill="#9D9D9C"/>
<path d="M48.2382 81.0504L48.194 81.0254C46.5284 80.1762 44.7695 79.1523 42.9664 77.9835C42.3425 77.5789 41.8512 77.0394 41.5073 76.3901C41.1879 75.7807 41.0159 75.0914 41.011 74.3921V74.3372C41.011 73.6379 41.1879 72.9486 41.5073 72.3392C41.8463 71.6898 42.3376 71.1504 42.9664 70.7408C43.6297 70.3112 44.2488 69.7318 44.9071 69.1224C45.7964 68.2933 46.72 67.4392 47.8304 66.8747L47.8746 66.8497L47.9041 66.8897C48.0073 67.0246 48.1547 67.2394 48.3315 67.4841C48.6705 67.9636 49.098 68.568 49.3142 68.8078C52.0164 71.8147 55.372 73.6778 59.0175 74.1973L59.4499 74.2572L59.0175 74.3172C55.372 74.8367 52.0164 76.7048 49.3142 79.7067C48.9702 80.0913 48.6214 80.5259 48.2726 80.9954L48.2431 81.0354L48.2382 81.0504ZM41.1388 74.3372V74.3921C41.1486 75.8107 41.8561 77.1093 43.0352 77.8786C44.8138 79.0374 46.553 80.0514 48.2038 80.8905C48.5428 80.431 48.8867 80.0064 49.2208 79.6318C50.5719 78.1283 52.0999 76.8996 53.7654 75.9755C55.2983 75.1264 56.9245 74.5519 58.5999 74.2622C56.9245 73.9775 55.2983 73.4031 53.7654 72.549C52.0999 71.6249 50.5719 70.3962 49.2208 68.8927C48.9997 68.6479 48.5723 68.0435 48.2284 67.559C48.0711 67.3393 47.9336 67.1445 47.8353 67.0096C46.7594 67.564 45.8603 68.4032 44.9857 69.2124C44.3274 69.8267 43.6985 70.4061 43.0303 70.8457C41.8512 71.6149 41.1437 72.9186 41.1339 74.3372H41.1388Z" fill="#9D9D9C"/>
<path d="M73.6929 59.9218V59.8668H73.688C73.4129 57.1795 72.2485 53.2036 68.264 49.5023C67.9446 49.2026 67.5909 48.9029 67.2175 48.6082L67.1782 48.5783L67.2027 48.5333C68.0724 46.7351 69.1434 44.8321 70.3815 42.8691C70.7795 42.2347 71.3101 41.7402 71.9488 41.4005C72.5482 41.0809 73.2262 40.911 73.9091 40.911C75.3634 40.911 76.6997 41.6553 77.4809 42.904C78.6797 44.8121 79.7213 46.6702 80.5762 48.4284L80.6007 48.4734L80.5614 48.5033C80.134 48.833 79.736 49.1677 79.3774 49.4973C75.4469 53.1486 74.2874 57.1446 74.0074 59.8568V59.9118H73.9484C73.8551 59.9118 73.7765 59.9118 73.7028 59.9168L73.6929 59.9218ZM67.3256 48.5433C67.6891 48.828 68.033 49.1227 68.3426 49.4124C72.3271 53.1137 73.5111 57.0896 73.801 59.7969C73.8256 59.7969 73.8551 59.7969 73.8796 59.7969C74.0614 58.0886 74.5232 56.4253 75.2504 54.8669C76.174 52.8789 77.5301 51.0458 79.284 49.4174C79.6329 49.0927 80.021 48.7681 80.4337 48.4434C79.5837 46.7002 78.552 44.862 77.3679 42.9739C76.6064 41.7652 75.3093 41.0409 73.8993 41.0409C72.4892 41.0409 71.2266 41.7502 70.4749 42.939C69.2515 44.877 68.1903 46.7651 67.3256 48.5433Z" fill="#9D9D9C"/>
<path d="M99.3393 80.8855L99.2852 80.7756C100.98 79.9165 102.769 78.8726 104.601 77.6788L104.665 77.7837C102.832 78.9775 101.039 80.0214 99.3393 80.8855Z" fill="#878787"/>
<path d="M39.3701 54.2176V38.5085H109.185V61.2704L110.684 60.2015V37H37.793V55.721L39.3701 54.2176Z" fill="white"/>
<path d="M109.205 79.1573V109.507H39.3946V94.5717L37.9551 95.5257V111H110.639V77.6988L109.205 79.1573Z" fill="white"/>
<path d="M58.3395 107.568L58.423 107.169L59.5383 106.884L61.0368 99.6665L60.0444 99.3818L60.1279 98.9822H63.7488C66.2889 98.9822 67.4435 100.74 67.4435 102.828C67.4435 105.66 65.2571 107.573 62.1619 107.573H58.3297L58.3395 107.568ZM61.2481 106.934H62.2307C64.3531 106.934 64.982 106.06 65.5323 103.488C65.6895 102.763 65.7632 102.139 65.7632 101.639C65.7632 100.206 65.1098 99.6315 63.6653 99.6315H62.7564L61.2481 106.934Z" fill="white"/>
<path d="M67.8463 107.568L69.1581 102.589L67.9692 103.887L67.7727 103.697C69.0255 101.874 69.6151 101.39 70.0179 101.39C70.4208 101.39 70.6321 101.689 70.5191 102.349L70.4454 102.783L69.4628 105.366L69.5021 105.376C70.804 102.554 71.4182 101.395 72.386 101.395C72.9609 101.395 73.3195 101.794 73.3195 102.329C73.3195 102.863 72.9265 103.253 72.499 103.253C71.8603 103.253 71.6884 102.653 71.8603 102.354L71.8358 102.329C71.3838 102.569 70.5829 103.787 69.9442 105.136L69.2957 107.558H67.8463V107.568Z" fill="white"/>
<path d="M74.0123 107.668C73.6438 107.668 73.4227 107.519 73.4227 107.094C73.4227 106.959 73.4473 106.784 73.4964 106.584L74.5527 102.579L73.349 103.887L73.1427 103.697C74.3808 101.889 75.044 101.39 75.5353 101.39C75.8645 101.39 76.1347 101.6 76.1347 102.049C76.1347 102.174 76.1102 102.324 76.061 102.489L74.8819 106.52L76.0709 105.396L76.2576 105.585C74.931 107.369 74.479 107.668 74.0123 107.668ZM75.84 100.506C75.3486 100.506 74.9409 100.056 74.9409 99.5966C74.9409 99.137 75.3585 98.6725 75.84 98.6725C76.3214 98.6725 76.7341 99.122 76.7341 99.5966C76.7341 100.071 76.3165 100.506 75.84 100.506Z" fill="white"/>
<path d="M80.8169 107.668C80.4386 107.668 80.2273 107.504 80.2273 107.094C80.2273 106.959 80.2519 106.794 80.301 106.594L81.1363 103.273C81.2738 102.723 81.2591 102.574 81.0282 102.574C80.7236 102.574 80.1831 102.923 79.0875 104.771L78.3407 107.568H76.8914L78.2032 102.589L77.0142 103.887L76.8177 103.697C78.0705 101.874 78.6601 101.39 79.0629 101.39C79.4658 101.39 79.6869 101.714 79.5641 102.364L79.4806 102.813L78.6109 104.946L78.6502 104.956C79.8146 102.773 80.8218 101.385 81.829 101.385C82.3695 101.385 82.7232 101.709 82.7232 102.419C82.7232 102.703 82.6642 103.043 82.5365 103.453L81.603 106.584L82.8411 105.386L83.0376 105.575C81.7013 107.359 81.2837 107.658 80.8169 107.658V107.668Z" fill="white"/>
<path d="M83.2587 107.568L85.2731 99.9162L84.4133 99.4767L84.4624 99.2669L86.8207 98.4178H87.1155L85.6317 104.087C87.3612 103.762 86.9828 101.39 88.5796 101.39C89.0955 101.39 89.4001 101.789 89.4001 102.189C89.4001 102.648 89.0562 102.938 88.7221 102.938C88.2701 102.938 88.0343 102.638 88.049 102.179L88.0244 102.169C87.5429 102.569 87.4594 103.752 86.3933 104.202C87.1155 104.352 87.4742 104.786 87.8426 106.525L88.9727 105.416L89.1594 105.6C88.1276 106.999 87.5626 107.673 86.9878 107.673C86.5554 107.673 86.4228 107.199 86.3736 106.714C86.2017 105.091 86.2901 104.432 85.5138 104.517L84.7179 107.573H83.2685L83.2587 107.568Z" fill="white"/>
<path d="M100.076 60.6261C100.464 60.691 100.98 60.726 101.481 60.676C102.39 60.5761 103.417 60.1565 104.321 59.6421C105.097 59.0527 105.864 58.3534 106.257 57.6041C105.476 57.689 104.822 57.6491 104.071 57.6391C103.417 57.6241 102.641 57.6041 101.865 57.4842C101.368 58.0587 100.848 58.5182 100.342 58.9877C99.8208 59.5372 99.2951 60.0017 98.7988 60.3713C99.1821 60.5212 99.6881 60.676 100.076 60.6211" fill="white"/>
<path d="M62.3683 82.419C62.2749 82.2891 60.8747 82.8685 60.7224 82.8835C60.403 82.9185 60.0542 82.8435 59.8233 82.6088C59.5187 82.3041 59.4941 81.8046 59.6022 81.385C60.2458 78.9475 61.7345 76.5249 62.8497 74.2822C63.3853 73.2083 63.9306 72.1444 64.4907 71.0855C65.0311 70.0665 65.8664 68.9576 66.2005 67.8687C65.1441 68.0286 63.739 68.2633 62.8301 68.8727C61.7934 69.567 61.3218 71.1054 60.7125 72.1594C59.9854 73.4181 59.2091 74.6518 58.369 75.8356C56.7231 78.1483 54.8021 80.2811 52.5322 81.9794C52.1834 82.2392 51.7658 82.5039 51.3482 82.399C50.1396 82.1043 52.6698 77.7037 53.0137 77.0045C54.0799 74.8416 55.1951 72.6988 56.0009 70.4161C56.1974 69.8517 56.3153 68.8727 55.5096 68.7578C55.1362 68.7029 54.7677 68.8777 54.4336 69.0525C52.8811 69.8617 51.3973 70.8107 50.0118 71.8896C49.7711 72.0745 49.5402 72.474 49.8006 72.6339C50.1297 72.519 50.5326 72.4141 50.7979 72.6439C51.0829 72.8886 51.0141 73.3482 50.9109 73.7128C49.83 77.6738 47.8648 81.3401 45.4574 84.6267C43.3693 87.4838 40.6376 90.0762 36.9921 90.4059C34.0246 90.7455 31.6614 90.0912 30.0794 88.5827C28.517 87.2691 27.7211 84.9414 27.7211 81.9594C27.7211 80.6508 27.9029 79.1473 28.3156 77.419C28.6988 75.8806 29.2933 74.1174 30.0794 72.3642C31.6565 69.3972 33.2385 66.4002 35.2038 63.7679C36.9872 61.1305 38.9475 58.678 41.124 56.75C42.7011 55.2665 44.2832 53.9728 45.6588 53.0737C47.968 51.5702 51.8935 50.3814 53.9226 53.0188C54.6154 53.9179 54.8365 55.1316 54.6989 56.2705C54.5613 57.4043 54.0995 58.4782 53.5492 59.4772C52.0114 62.2794 49.7563 64.632 47.2163 66.5351C44.6762 68.4381 41.8512 69.9166 38.9574 71.2003C39.1441 71.7198 39.3357 72.2443 39.5224 72.7638C45.3444 70.0265 50.3803 65.7708 54.6891 60.9407C56.7133 58.678 58.6048 56.2555 59.9608 53.5233C60.5848 52.2695 61.1007 50.9009 61.0172 49.4973C60.968 48.6532 60.6732 47.7941 60.0591 47.2196C59.2927 46.5054 58.1626 46.3505 57.1211 46.3955C54.9544 46.4904 52.8712 47.2746 50.9109 48.2286C43.4774 51.84 37.395 57.8289 32.2461 64.2624C31.6418 65.0166 31.0522 65.7758 30.4626 66.5401C27.3035 70.6309 24.955 74.4221 23.3681 78.1583C21.7861 81.8695 21 85.1412 21 88.308C21 91.0952 21.7861 93.243 23.3681 94.7465C24.9501 96.25 27.2986 96.9143 30.0597 96.6046C33.4252 96.215 36.9725 94.3269 40.7162 91.31C42.5341 89.8464 43.9933 87.9034 45.7718 86.4599C46.0126 87.0593 46.946 87.1042 47.4717 86.9943C48.0515 86.8745 48.5674 86.5548 49.0489 86.2101C52.2374 83.9474 54.7923 81.0104 57.3962 78.1083C57.0032 78.5429 56.7771 79.452 56.5462 79.9964C56.2564 80.6707 55.9812 81.355 55.7405 82.0493C55.4457 82.9135 54.581 84.9114 55.1755 85.7856C55.4997 86.2601 56.1925 86.29 56.7329 86.1052C58.6245 85.4359 60.4571 84.2521 62.0636 83.0533C62.27 82.8985 62.496 82.6288 62.3437 82.414" fill="white"/>
<path d="M76.1446 78.1733C75.8793 79.0174 75.4911 79.7866 74.9802 80.3411C74.4643 80.8156 73.8207 81.0753 73.0493 81.1652C72.4057 81.2452 71.5017 81.0454 70.5977 80.5409C69.5708 79.9315 68.9321 79.6068 68.544 79.447C69.5708 78.6178 70.863 77.3641 72.4057 75.7607C74.0762 74.0524 76.3951 71.6499 79.3479 68.4781C80.3797 68.0585 81.1461 67.569 81.7946 66.9696C82.3154 66.5051 82.7035 66.0605 82.7035 65.651C82.7035 65.5511 82.5611 65.3663 82.4481 65.3812C82.3154 65.2963 82.0599 65.2314 81.7946 65.2414C81.4065 65.2963 81.0233 65.5511 80.6351 65.7958C80.1291 66.0605 79.6083 66.4152 78.9647 66.9896C77.8101 66.7149 76.7931 66.5351 76.0168 66.4152C75.103 66.3103 74.4692 66.1754 73.8256 66.2603C72.671 66.3952 71.5066 67.0196 70.0965 68.2034C68.8044 69.2623 67.64 70.6009 66.7507 72.2443L68.8044 71.5999C68.9911 71.0155 69.4235 69.8767 69.9835 69.552C70.0523 69.512 70.1309 69.4871 70.2095 69.4621C71.089 69.2074 72.273 69.2124 73.1721 69.3722C73.6684 69.4621 74.1695 69.557 74.6805 69.572C75.2455 69.587 75.7712 69.3722 76.3214 69.3073C75.7024 70.4011 74.6805 71.4101 73.8649 72.3642C73.1034 73.2483 72.3222 74.1124 71.5066 74.9465C69.959 76.5399 68.4114 78.0434 67.0013 79.2222C66.7507 79.2372 66.6132 79.2572 66.4756 79.2772C66.3577 79.2871 66.225 79.3071 66.0924 79.3221C65.5863 79.3721 64.928 79.6418 64.5644 79.9964C64.0387 80.3511 63.5179 81.0304 62.8792 82.0094C62.496 82.6587 62.2454 83.2082 61.9752 83.6327C61.8622 84.0523 61.7148 84.382 61.7148 84.6717C61.7148 84.7816 61.7148 84.8815 61.8573 84.8615C61.8573 84.9664 61.9703 84.9664 62.1079 84.9514C62.3633 84.9164 62.8743 84.6617 63.4049 84.1822C64.0387 83.7077 64.6823 83.1183 65.4488 82.3291C66.225 82.4389 67.134 82.8485 68.2885 83.5278C69.4382 84.317 70.4749 84.6117 71.2511 84.5218C72.2829 84.402 73.2999 83.7776 74.3218 82.5488C75.4862 81.395 76.3951 79.8715 77.0289 77.9685L76.1397 78.1683L76.1446 78.1733Z" fill="white"/>
<path d="M88.894 78.7527C88.3683 79.2272 87.7296 79.4969 86.9534 79.5818C86.3098 79.6618 85.4057 79.467 84.5017 78.9625C83.4651 78.3481 82.8362 78.0234 82.4481 77.8586C83.47 77.0294 84.767 75.7807 86.3098 74.1773C87.9851 72.474 90.2992 70.0715 93.2569 66.8897C94.2886 66.4701 95.0551 65.9856 95.6987 65.3912C95.9935 65.1265 96.3521 64.8718 96.529 64.5021C96.5978 64.3673 96.6272 64.2024 96.5781 64.0576C96.5192 63.8728 96.3423 63.7429 96.1556 63.6979C95.5365 63.5381 95.0551 63.9427 94.5441 64.2124C94.0282 64.4821 93.5173 64.8368 92.8786 65.4162C91.7191 65.1515 90.6873 64.9567 89.916 64.8368C88.7958 64.7169 87.6707 64.5571 86.5898 64.9766C85.6367 65.3463 84.7867 65.9706 84.0055 66.625C82.7134 67.6889 81.5539 69.0225 80.6548 70.6659L82.7085 70.0265C82.9885 69.1424 83.4847 67.8987 84.5116 67.7688C85.4205 67.6539 86.3245 67.6639 87.2285 67.8138C87.8967 67.9237 88.6042 68.0236 89.2822 67.9536C89.3952 67.9386 89.6605 67.8038 89.9111 67.7738C90.0093 67.7738 90.1567 67.7588 90.2402 67.7089C88.5845 69.8917 86.9386 71.7897 85.4057 73.3681C83.8581 74.9515 82.3154 76.45 80.9004 77.6338C80.6499 77.6538 80.5172 77.6738 80.3797 77.6838C80.2568 77.7037 80.1242 77.7187 79.9915 77.7387C79.4855 77.7787 78.832 78.0584 78.4586 78.408C77.9428 78.7527 77.4171 79.442 76.7882 80.416C76.3951 81.0703 76.1397 81.6148 75.8743 82.0394C75.7515 82.4539 75.6238 82.7836 75.6238 83.0933C75.6238 83.1882 75.6238 83.2881 75.7564 83.2681C75.7564 83.373 75.8793 83.373 76.0168 83.358C76.2625 83.328 76.7931 83.0733 77.309 82.5838C77.9477 82.1143 78.5815 81.5349 79.3528 80.7307C80.1291 80.8506 81.0429 81.2502 82.1975 81.9345C83.3422 82.7237 84.3838 83.0134 85.1601 82.9235C86.182 82.8086 87.2089 82.1792 88.2357 80.9555C89.3952 79.8016 90.3041 78.2832 90.9428 76.3751L90.0535 76.5749C89.7882 77.414 89.4001 78.1833 88.899 78.7377" fill="white"/>
<path d="M96.4749 78.7976C96.1359 78.8326 95.8706 78.6028 95.851 78.2132C95.8313 77.7887 96.0229 77.3741 96.1605 76.9845C96.3226 76.515 96.5044 76.0504 96.696 75.5909C97.0645 74.7068 97.4576 73.8327 97.8752 72.9685C98.9167 70.8257 99.9534 68.7778 101.093 66.7149C101.398 66.1604 101.712 65.611 102.012 65.0566C102.164 64.7719 102.317 64.4821 102.469 64.1924C102.543 64.0526 102.842 63.653 102.759 63.4882C102.646 63.2584 102.253 63.603 102.135 63.668C101.757 63.8927 101.373 64.1025 100.98 64.3023C99.9583 64.8168 98.7939 65.3463 97.7523 65.8707C96.7255 68.4182 95.453 71.4101 93.7727 74.8616C92.2202 78.1683 91.3309 80.2162 91.3309 80.9205C91.3309 81.3251 91.4488 81.6098 91.7191 81.8845C91.9696 82.0593 92.2202 82.1393 92.6083 82.0843C92.8786 82.0593 93.5173 81.7796 94.4114 81.2751C95.3204 80.6657 96.6125 79.8066 98.2731 78.5079L98.9168 76.0804C98.5925 76.5749 98.2879 77.0844 97.9341 77.5589C97.6197 77.9735 97.1923 78.5279 96.7009 78.7277C96.6223 78.7627 96.5486 78.7777 96.4749 78.7877" fill="white"/>
<path d="M116.427 63.9727C116.427 63.4282 116.368 62.8488 116.211 62.3243C116.019 61.7 115.518 61.2804 114.874 61.2005L109.981 64.9916L110.237 65.1665C110.374 65.0466 110.487 64.9467 110.625 64.9267C110.752 64.8168 111.008 64.7818 111.145 64.7619C111.524 64.7319 111.986 64.8718 112.187 65.2164C112.388 65.566 112.428 66.0556 112.428 66.4551C112.428 67.6639 112.04 69.2423 111.263 71.2553C110.61 72.9486 109.853 74.7667 108.615 76.1154C107.593 77.2342 105.712 77.7787 104.454 76.6898C103.928 76.2352 103.678 75.5609 103.678 74.6468C103.678 72.8237 104.454 70.7158 105.864 68.4182C107.274 66.1155 109.21 63.9727 111.529 61.9797H110.752C107.274 64.4921 104.454 67.2493 102.523 70.0016C100.459 72.8786 99.4228 75.3312 99.4228 77.5689C99.4228 78.6878 99.8158 79.5469 100.337 80.1013C100.975 80.6508 101.752 80.8456 102.636 80.7457C103.417 80.6558 104.567 80.1263 106.119 79.0424C107.662 77.9585 109.21 76.6548 110.87 74.9565C112.56 73.2333 113.966 71.3552 114.987 69.4171C115.891 67.3892 116.422 65.596 116.422 63.9777" fill="white"/>
<path d="M118.874 75.476C118.613 75.5909 118.348 75.6608 118.063 75.6408C117.351 75.5859 117.395 74.9765 117.478 74.4371C117.542 74.0175 117.68 73.6179 117.808 73.2183C118.107 72.2892 118.466 71.3802 118.834 70.4811C119.679 68.4232 120.638 66.4252 121.576 64.4072C123.757 59.702 125.56 55.8209 127 52.739C125.477 53.4883 123.856 54.2525 122.22 54.7021C120.692 58.8179 118.746 63.5181 116.304 68.7478C115.331 70.8107 114.354 72.8786 113.494 74.9915C113.003 76.1953 111.882 78.2732 113.278 79.2572C113.902 79.6967 114.761 79.6418 115.449 79.3171C116.678 78.7427 117.758 77.5089 118.751 76.5999C119.395 76.0105 119.92 75.5609 120.303 75.2013L120.028 74.8267C119.66 75.0165 119.282 75.3012 118.884 75.476" fill="white"/>
<path d="M123.674 71.535C123.551 71.6149 123.394 71.6299 123.158 71.6299H122.48V70.6809C122.48 70.6809 123.079 70.6809 123.138 70.6809C123.241 70.6809 123.34 70.6859 123.443 70.7058C123.536 70.7208 123.649 70.7758 123.723 70.8407C123.816 70.9206 123.861 71.0555 123.861 71.1804C123.861 71.3552 123.772 71.4651 123.679 71.54M124.278 71.1504C124.278 71.0255 124.254 70.9006 124.195 70.7958C124.165 70.7458 124.131 70.7008 124.091 70.6609C123.959 70.536 123.782 70.4811 123.605 70.4411C123.384 70.3962 123.163 70.3862 122.937 70.3862C122.716 70.3862 122.49 70.3862 122.269 70.3862H122.038V73.1184H122.475V71.9146H123.138L123.743 73.1184H124.249L123.585 71.8597L123.797 71.8147C123.861 71.7947 123.929 71.7648 123.988 71.7248C124.17 71.5999 124.268 71.3702 124.273 71.1454" fill="white"/>
<path d="M123.094 73.8027C121.969 73.8027 121.05 72.8736 121.05 71.7298C121.05 70.586 121.969 69.6569 123.094 69.6569C124.219 69.6569 125.133 70.591 125.133 71.7298C125.133 72.8686 124.214 73.8027 123.094 73.8027ZM123.094 69.0425C121.63 69.0425 120.441 70.2513 120.441 71.7298C120.441 73.2083 121.63 74.4221 123.094 74.4221C124.558 74.4221 125.742 73.2183 125.742 71.7298C125.742 70.2413 124.553 69.0425 123.094 69.0425Z" fill="white"/>
</svg>
