<svg width="148" height="148" viewBox="0 0 148 148" fill="none" xmlns="http://www.w3.org/2000/svg">
<path d="M72.73 36.037C73.4136 36.022 74.8019 35.8764 75.3251 36.289C76.5458 37.2513 76.7111 39.2638 75.6272 40.3985C75.3898 40.6472 75.2175 41.6026 75.4036 41.8757C76.1227 42.9301 77.4214 43.4401 77.8782 44.7671C78.4111 46.1238 77.2556 46.5039 77.1009 47.7794C77.0566 48.1485 77.1 48.3903 77.166 48.7569C78.2458 48.7762 78.2056 48.5547 79.1861 48.3005C79.6849 48.1711 80.6566 48.1958 81.1046 48.5356C82.7667 49.7975 81.8985 52.1085 82.1954 53.6186C82.5367 53.479 82.5658 53.4615 82.8762 53.2498C83.0577 52.4367 83.0951 51.0266 83.4793 50.4524C83.6405 50.2114 84.2723 49.7152 84.5605 49.2652C85.6684 47.5342 82.1516 45.6471 81.8583 44.1479C81.6726 43.1999 82.1589 42.6707 82.6443 41.9708C83.1302 41.2709 82.4873 40.3446 82.3081 39.5868C82.1395 38.9059 82.3903 37.995 82.6808 37.3797C82.9367 36.8377 84.3545 37.1266 84.857 37.1718C86.7824 37.3449 88.8071 37.651 90.381 38.8731C90.7251 39.1402 91.2119 39.6668 91.2276 40.1373C91.223 40.8975 90.8082 40.9255 90.3713 41.3186C90.1755 41.4949 90.2416 41.9563 90.2743 42.2131C90.8004 42.8528 91.1814 43.2354 91.4557 44.0202C90.4794 46.0191 86.6124 45.3382 88.5965 48.7485C89.1073 48.3125 89.3521 47.7212 89.8305 47.2746C90.3044 46.8326 90.6895 46.8712 91.2728 46.9039C92.1642 47.4856 91.9637 48.1927 92.173 49.095C92.348 49.8499 92.9742 50.6265 93.5705 51.0949C93.8702 51.3303 94.4023 51.6522 94.7468 51.371C95.0086 50.7389 93.9691 49.9515 93.7811 49.4365C93.449 48.526 92.941 46.374 93.6596 45.5646C94.454 44.6701 95.2811 44.189 96.3032 45.0904C97.7751 46.3891 98.8678 47.8208 96.9618 49.4108C96.5295 49.7686 95.5762 50.2682 96.3974 50.8437C98.26 52.113 99.3125 50.1149 100.819 49.7986C101.064 49.9118 101.256 49.9986 101.501 50.146C102.139 50.5314 103.079 51.4387 103.852 51.4187C104.225 51.409 104.661 50.3377 104.851 50.0426C104.96 49.8723 105.07 49.7341 105.202 49.5725L105.848 49.3256C105.962 49.6926 106.003 49.9754 106.065 50.3519C106.369 50.2815 106.717 50.1963 106.994 50.0614C108.323 49.4128 110.038 49.4398 111.464 49.701C111.783 49.7595 112.086 50.008 112.326 50.23C112.678 51.4939 112.193 51.9648 111.88 53.0705C111.57 54.163 112.683 54.7448 113.375 53.3344C113.574 53.2177 113.799 53.0359 114.021 53.1338C114.375 53.5669 114.464 55.3657 114.621 56.0851C115.071 56.1169 115.811 56.0827 116.274 56.0725C115.972 56.7781 115.836 57.2165 115.088 57.5232C114.541 57.7532 114.312 57.9926 113.947 58.4077C113.384 59.0497 111.928 59.1401 111.231 58.6448C110.223 57.9295 110.291 56.879 109.393 56.1014C108.703 55.5038 107.922 55.3841 107.26 54.7716C106.385 53.9626 106.394 53.1546 106.344 52.0457C105.703 51.7982 104.894 51.767 104.328 52.2384C103.39 53.0193 103.422 54.0762 103.288 55.1803C102.542 55.1656 101.796 55.1611 101.05 55.1669L101.087 55.8777C101.513 56.1847 101.6 56.3687 101.927 56.7216C102.626 57.4739 102.387 58.1709 102.375 59.1118C102.35 59.4152 102.51 60.5435 102.393 60.7874C101.905 61.8035 100.234 62.1023 99.7536 63.0684C99.6053 63.3669 100.328 63.7517 100.523 64.0243C101.13 64.8724 99.8233 65.7011 100.279 66.4688C101.068 67.485 102.467 65.8483 103.461 66.0721C103.866 66.1632 103.931 66.2828 104.171 66.5949C104.227 66.9675 104.197 67.441 104.255 67.7729C104.403 68.32 105.352 68.2325 105.756 68.3499C107.868 68.9644 107.79 71.3352 108.534 72.9655C108.959 73.8979 110.343 74.9238 111.225 75.4411C111.487 75.3026 111.613 75.2038 111.851 75.0235C111.859 74.7812 111.889 74.5055 111.839 74.2678C111.657 73.4066 110.808 73.0854 110.156 72.6579C108.642 71.6655 109.288 70.6787 108.941 69.2367C108.815 68.7111 108.46 68.2476 108.364 67.7126C108.232 66.9761 109.411 66.2798 109.748 65.7069C109.973 65.3261 109.993 64.8157 110.255 64.4638C110.365 64.3149 110.514 64.209 110.701 64.1866C111.471 64.0943 112.887 66.805 113.455 67.256C114.353 67.5356 115.556 65.2413 116.077 64.6759C116.607 64.0997 118.285 62.3669 118.92 62.2073C118.946 62.2177 118.979 62.2172 118.998 62.2384C119.027 62.2716 119.359 65.6602 119.923 66.2493C119.934 66.261 119.946 66.2724 119.958 66.2839C120.021 66.9621 119.993 67.8921 119.976 68.5739C119.698 68.8775 119.511 69.2609 119.255 69.5301C118.511 70.3157 116.768 69.7749 115.722 69.8396C115.036 69.8519 113.486 69.8942 113.018 70.4612C112.136 71.532 113.393 73.3361 114.68 73.2605C115.39 73.2188 115.648 73.0022 116.094 72.5397C116.733 72.3631 117.296 72.584 117.926 72.6227C118.955 72.6859 119.108 73.0534 118.702 73.9853C118.307 73.9735 117.475 73.8634 117.27 74.2402C117.26 74.6723 118.167 75.2494 118.431 75.6049C118.659 75.9122 118.853 76.5563 118.481 76.8207C118.193 76.8273 117.908 76.5794 117.723 76.5653C116.647 76.4836 116.501 76.5353 115.666 75.8065C115.378 76.207 115.113 76.6308 114.804 77.0219C114.319 77.6361 114.355 77.8864 114.656 78.5576C114.934 78.7509 115.226 78.9593 115.546 79.0615C115.944 79.188 116.102 79.1873 116.47 79.3988C116.378 79.4827 116.275 79.571 116.177 79.6484C115.559 80.139 114.349 79.8036 113.569 79.7059C111.776 79.4813 111.011 77.593 110.077 76.2991C109.229 75.1222 108.393 74.6769 106.941 74.6834C106.597 74.685 105.996 74.6825 105.655 74.6289L105.593 74.6184C105.105 73.4654 105.462 72.1841 105.5 70.9649C105.511 70.5953 105.563 70.2456 105.458 69.8793L105.395 69.8448C105.091 69.9743 104.659 70.6996 104.508 70.9945C103.9 71.1104 102.674 71.0488 101.986 71.0555C101.802 72.7039 102.41 71.8629 102.979 72.7409C103.214 73.1038 102.741 74.3198 102.553 74.7245C101.997 75.9191 101.364 77.0441 99.8409 76.6612C97.6171 76.2339 97.2924 73.8811 95.4372 72.9954C94.829 73.3012 94.6479 73.5565 94.2078 74.0349C92.3785 76.0233 91.7786 71.8286 92.1277 70.6977C92.5669 69.2773 92.9627 69.3053 94.1344 68.6044C94.3842 68.1054 94.7066 67.639 94.5935 67.0079C94.411 65.9902 92.9955 65.8189 92.2843 65.2613C91.6908 64.7959 91.6072 64.5447 91.4881 63.8347C90.8623 63.1155 90.7274 63.182 89.8291 63.5987C89.3442 63.8237 89.1863 63.9838 88.9396 64.4517C89.1539 64.5585 89.3687 64.6803 89.577 64.7993C90.5196 65.3378 91.096 65.51 91.3888 66.6244C91.3038 66.8347 91.174 67.0928 91.0756 67.3024C90.0051 67.8281 90.0457 67.6486 88.984 67.9265L89.371 68.7349C89.7363 68.9197 90.5838 68.9504 90.6591 69.1946C91.1962 70.9429 91.0331 72.5172 90.2374 74.167C88.07 74.5193 88.2326 74.0431 86.6106 72.8771C86.442 72.7558 85.8204 72.658 85.6989 72.9516C85.7687 73.526 86.485 74.0459 86.7972 74.5365C86.8618 75.345 85.583 75.9571 84.9115 76.0254C82.4827 76.2724 82.1123 73.8766 81.9724 72.0109C81.922 71.3408 81.7285 70.372 81.6361 69.6621C80.3462 68.5382 78.3372 67.1672 77.3161 69.4062C77.5895 70.234 77.777 71.0981 77.6089 71.999C77.3254 73.5202 74.7414 74.9786 73.4672 75.6193C72.6269 76.0418 72.3065 75.9482 71.3774 76.5772C71.1725 77.6229 71.5247 78.273 72.1051 79.1379C72.2018 79.282 72.3802 79.5266 72.5169 79.6307C74.4864 81.1268 76.5107 82.556 78.5012 84.0246C79.3219 84.6297 80.035 85.0448 81.0778 84.9434C81.1 84.7761 81.1332 84.567 81.1147 84.3974C81.0635 83.9293 80.3652 82.5235 80.9249 82.2442C81.4052 82.2655 81.5655 82.4087 81.8246 82.8019C82.1322 83.268 82.3728 83.6231 82.7764 84.019C83.4715 83.7355 83.5772 83.3019 84.4016 83.1435C85.7627 82.8818 86.1174 84.758 86.2638 85.8283L86.9741 85.9557C87.0891 85.4184 87.4239 84.389 87.5874 83.7788C88.2256 83.4618 88.3411 83.5176 89.0195 83.6379C89.6864 84.309 89.7987 84.9843 90.3935 85.5472C90.9006 86.0268 92.1088 85.76 92.7595 85.6647C92.9789 85.7572 93.2052 85.8497 93.2661 86.0951C93.4532 86.8447 93.3645 87.6581 93.492 88.4314C93.5742 88.4481 93.9072 88.5248 93.957 88.5039C94.5565 88.2562 94.9043 87.3983 95.3966 87.013C95.4954 86.9358 95.5947 86.9702 95.6908 86.9953C95.9877 87.2519 96.1157 87.8588 96.184 88.2376C96.4583 88.3682 96.9932 88.5151 97.2943 88.5067C98.0083 88.4872 97.7811 89.604 98.1381 89.5143C98.5302 89.4153 99.6626 88.0526 100.07 88.6285C100.313 88.971 99.8875 90.0525 99.7937 90.4559C99.9549 90.5456 100.17 90.646 100.339 90.7301C100.44 90.6362 100.552 90.4912 100.654 90.4094C101.426 89.7908 102.15 89.6449 101.967 90.8588C102.374 90.7733 103.821 90.4201 104.147 90.5135C104.59 90.9666 103.994 91.0754 105.164 91.0824C107.12 91.094 109.055 90.9899 111.007 91.1474C111.941 91.1628 112.852 91.0624 113.786 91.1377C116.375 91.3463 118.562 92.9367 119.46 95.418C119.829 96.4396 120.034 97.1241 119.995 98.2368C119.962 99.2076 120.071 100.01 119.65 100.956C118.987 103.073 117.687 104.752 115.542 105.484C113.721 106.101 111.453 106 109.732 105.105C105.622 102.969 105.052 96.652 107.907 93.2862C108.336 92.7801 109.401 92.1806 109.631 91.7525L109.603 91.6991C109.131 91.6233 108.547 91.6968 108.05 91.7L104.693 91.7014C104.17 91.6972 102.401 91.509 102.046 91.5787L102.005 91.6401C103.04 92.4659 103.813 92.794 104.298 94.1646C104.434 94.5494 104.67 95.1977 104.499 95.5635C104.315 95.748 103.566 95.6843 103.293 95.6848L101.177 95.6973C100.741 95.2293 100.766 94.9133 100.378 94.535C99.8676 94.0744 99.1587 94.0052 98.5029 94.0405C97.7824 94.0791 97.4384 94.1832 96.9511 94.7204C96.9105 95.2252 96.9008 95.3293 97.0832 95.7959C97.5857 96.0668 97.9399 96.2462 98.4877 96.4052C100.287 96.9382 102.822 97.2176 104.119 98.7247C105.957 100.858 104.816 104.402 102.233 105.303C99.1347 106.384 94.4692 106.166 93.0671 102.642C92.9198 102.271 92.7221 101.274 92.868 100.939C92.9479 100.908 93.1248 100.858 93.2527 100.855C94.2771 100.831 95.3278 100.798 96.3494 100.864C96.4011 100.867 96.6819 101.804 96.7729 101.945C96.8994 102.142 97.074 102.424 97.2716 102.551C97.9395 102.993 98.7398 102.988 99.4834 102.965C100.217 102.942 101.603 102.255 101.326 101.378C100.904 100.047 98.2512 99.8769 97.1363 99.4646C96.2958 99.1542 95.4968 98.9692 94.7592 98.4208C92.9821 97.2059 92.7383 94.937 93.8808 93.1821C94.2946 92.5965 94.7671 92.359 95.3208 91.9333C95.4552 91.8306 95.6529 91.72 95.7545 91.601C95.5744 91.4858 94.4669 91.6335 94.1838 91.6331C91.2322 91.6243 88.2704 91.6749 85.3193 91.6317C85.2135 92.4292 85.2593 94.6921 85.263 95.5798C85.2717 97.8069 85.2302 100.124 85.2814 102.345L89.0546 102.341C89.5548 102.339 91.3555 102.247 91.725 102.482C91.8875 102.835 91.821 104.977 91.8146 105.512C91.3186 105.564 90.6175 105.546 90.1086 105.545L87.4576 105.542C85.6897 105.54 83.3436 105.617 81.6338 105.532C81.5858 105.15 81.6043 104.475 81.6061 104.071L81.614 101.653L81.6135 95.365C81.6131 94.1539 81.6361 92.8452 81.5946 91.6438C80.9184 91.6442 80.1199 91.6665 79.4604 91.5908C79.2466 92.6518 79.5071 93.4326 79.2997 94.4016C78.0606 94.3747 76.7933 94.3933 75.551 94.3891C74.3206 94.3849 73.0483 94.3719 71.8234 94.4365C71.7756 95.2033 71.841 96.019 71.7857 96.7988C73.8888 96.9875 76.567 96.7012 78.667 96.8629C78.7155 97.2031 78.7293 99.308 78.6287 99.5897C78.3543 99.7398 72.7051 99.6556 71.8266 99.7096C71.7881 100.529 71.8096 101.477 71.7862 102.321C72.298 102.345 72.7997 102.347 73.312 102.347C75.2766 102.347 77.2413 102.352 79.206 102.331C79.3039 102.33 79.3477 102.353 79.4198 102.414C79.5805 102.722 79.5172 104.809 79.502 105.262C79.5006 105.302 79.472 105.453 79.4212 105.484C79.3514 105.527 79.0318 105.544 78.9686 105.542C77.941 105.497 68.5795 105.63 68.1989 105.489C68.0776 105.294 68.1341 102.194 68.1345 101.673L68.1359 94.6396C68.137 93.994 68.1879 92.2145 68.1063 91.7042L68.0951 91.6377C66.5664 91.6019 65.015 91.7172 63.4922 91.5815C63.2433 91.5592 62.5968 91.4486 62.4234 91.6345C62.8233 91.8269 62.9731 92.0825 63.3055 92.2591C64.3598 92.8089 65.1654 93.935 65.493 95.069C65.5922 95.4125 65.7777 95.9678 65.4941 96.2597C65.1623 96.3118 64.6201 96.2732 64.2672 96.2699C63.6483 96.2709 63.0295 96.275 62.4106 96.2825C62.2267 96.1839 62.1171 96.0905 61.9554 95.9627C61.3962 94.4104 59.729 94.0038 58.2881 94.4764C56.0256 95.2187 55.7178 98.201 56.258 100.183C56.993 102.879 59.8324 103.488 61.8346 101.749C62.1748 101.451 62.3346 101.026 62.5338 100.612C61.8311 100.536 61.1973 100.55 60.4948 100.546C60.403 100.545 60.0488 100.539 60.0286 100.475C59.876 99.9912 59.9506 98.2507 60.0159 97.8055C60.6027 97.7427 65.38 97.7111 65.7745 97.8571C65.9255 98.3055 65.8893 104.678 65.8506 105.531C65.244 105.543 64.1372 105.621 63.5746 105.469C63.3271 105.402 63.4271 104.585 63.3097 104.313C62.9491 104.35 62.3135 105.003 61.8796 105.237C60.4082 106.031 58.8401 106.022 57.2767 105.579C55.6002 105.09 54.1828 103.956 53.3317 102.422C51.5162 99.1444 52.1959 94.2757 55.5084 92.2275C55.8652 92.0067 56.1266 91.772 56.5108 91.5629C55.9404 91.5206 55.2013 91.627 54.6057 91.6331C53.6156 91.6424 52.6258 91.6401 51.6359 91.6396L43.3968 91.6991L40.5397 91.7009C39.874 91.7019 39.1255 91.6693 38.4769 91.786C38.2961 92.1006 38.3913 101.176 38.3835 102.348C40.3969 102.313 42.4177 102.381 44.431 102.319C44.6483 102.316 44.8904 102.485 44.9216 102.717C45.0301 103.526 44.861 104.368 44.9565 105.19C44.9669 105.28 44.9247 105.402 44.8841 105.478C44.7126 105.558 35.2634 105.604 34.7893 105.493C34.6506 105.22 34.7248 102.507 34.7246 101.972L34.7223 94.6033C34.7229 93.724 34.7483 92.7727 34.6864 91.8957C34.6692 91.6521 34.0729 91.6842 33.8823 91.6847C33.2392 91.6856 32.7746 91.6684 32.1566 91.8831C32.2103 93.0752 32.1885 94.2915 32.1884 95.4873L32.188 100.918L32.1909 103.429C32.1942 103.981 32.2372 104.983 32.1219 105.482C31.9157 105.61 28.9184 105.538 28.5083 105.514C28.4606 104.857 28.5023 103.572 28.5031 102.873L28.504 93.5181C28.5038 92.9586 28.4717 91.8436 28.538 91.3421C28.8223 91.0582 30.8108 91.1437 31.2994 91.1418L35.4079 91.1497C38.4096 91.1697 41.4297 91.0071 44.4375 91.0749C44.5281 91.0768 44.8296 90.8783 44.9198 90.8216C45.0083 89.1202 45.7126 90.1951 46.5779 90.5256C46.9574 90.6706 47.5815 90.7826 47.9857 90.7793L48.0622 90.7784C48.1228 90.4679 48.1975 89.8247 48.474 89.7099C48.9226 89.524 49.2599 89.6542 49.719 89.2698C49.989 89.0439 50.0556 88.6731 50.2019 88.5457C50.8341 87.9964 51.2 89.2182 51.8002 89.1253C52.2785 89.0714 52.5324 88.6206 52.8831 88.5081C53.4328 88.3315 54.0414 88.2172 54.5963 88.0796C54.9517 87.9917 55.4818 87.9996 55.8232 87.9364C57.0264 87.7148 58.1869 87.619 59.4043 87.7989C60.1601 87.9099 60.1668 88.1293 61.1064 88.1391C61.2935 88.048 61.5734 87.8491 61.7551 87.7278C61.7601 86.8917 61.903 85.9812 61.9045 85.1595C61.9051 84.8486 61.2573 84.1441 61.4776 83.7295C62.303 83.4014 64.1756 84.9625 64.792 85.4988C64.9273 85.3338 65.3359 84.752 65.529 84.6539C66.0534 84.3881 66.7887 86.0932 67.5383 86.1011C67.6206 86.1397 68.0138 86.0774 68.062 85.9854C68.4614 85.1967 67.9962 83.782 67.5215 83.1123C66.5971 81.8087 65.2943 80.7448 64.3396 79.4555C64.078 79.1021 63.734 78.692 63.6161 78.2833C63.2897 77.151 64.49 76.1659 64.4274 75.0388C64.0368 73.6253 61.6013 72.0045 61.0197 70.7288C60.5313 69.6577 60.4461 67.384 59.4634 66.5651C59.1695 66.3201 58.7342 66.3127 58.3807 66.3762C57.7221 66.4948 57.4266 66.8459 57.0654 67.3669C56.4825 66.576 56.238 66.178 55.2202 66.5173C55.0379 66.8207 54.8863 67.223 54.7704 67.556C55.2735 69.2579 56.5201 70.3363 57.0604 72.1116L56.7778 72.7545C56.043 72.8084 55.226 72.7109 54.5278 72.6083C52.8416 72.2434 53.0729 73.5191 52.2059 74.2245C51.2837 74.9747 47.8264 74.3997 48.2242 72.6457C48.37 72.0029 49.3585 71.6003 49.8907 71.2319C49.3616 70.4314 49.0882 70.0975 49.105 69.0837C49.1162 68.4056 48.992 67.9906 48.374 67.6729C48.249 68.1479 48.246 68.6162 48.2166 69.106C48.1612 70.0274 48.0438 70.5599 47.7153 71.4004C46.8675 71.383 46.2691 70.9879 45.5534 70.5772C45.0669 70.2981 45.0171 69.7439 44.9843 69.2287C44.9324 68.4134 44.8071 67.6699 44.6407 66.8712C44.4057 66.8919 44.1131 66.9428 43.8748 66.9781C43.7449 67.5682 43.5377 68.009 43.4203 68.6751C43.2654 69.554 43.5148 70.5873 43.2288 71.342C41.2103 72.7349 42.0282 70.8792 40.265 70.9267C39.9472 70.9352 39.7572 71.531 39.5922 71.8137C39.0007 72.1674 38.565 70.5236 37.7845 70.4547C35.8204 70.2814 35.1952 71.8601 33.9909 72.9966C33.6663 73.3028 30.8694 73.4897 31.1967 72.3716C31.2797 72.0883 32.025 71.831 32.2978 71.699C32.4942 71.0557 32.5352 69.6142 32.3984 68.9572C32.1628 68.7455 32.0588 68.6801 31.7861 68.5131C30.5031 68.7635 30.8282 69.5042 30.5864 70.5183C30.4131 71.245 29.9096 71.1348 29.3758 70.9713C29.0857 70.0347 29.2874 69.1244 28.923 68.2439C28.8105 67.9719 28.1707 67.4005 28.0566 67.1653C27.8102 66.6578 28.4392 66.098 28.5879 65.4292L28.6023 65.3629C28.418 64.9942 28.235 64.6517 28.2382 64.1918C28.2426 63.5454 29.6271 62.1697 30.1523 62.9978C30.6339 63.7573 30.6809 65.6832 31.3315 66.3625C32.5272 67.611 34.4713 68.6541 35.9558 69.5515C36.0263 69.5931 36.3588 69.6215 36.4467 69.6293C36.4683 69.5922 36.5358 69.4772 36.5578 69.4438C37.5094 68.0013 36.2082 68.0219 35.9754 66.7453C35.8313 65.955 35.8275 64.8576 36.16 64.1201C36.7359 62.8427 37.3573 62.1811 36.9901 60.6676L36.6922 60.5204C36.317 59.9757 37.5531 59.2556 37.4596 58.5173C37.4213 58.2143 36.7327 57.8836 36.447 57.5996C35.7036 56.8609 35.6371 56.6322 35.5788 55.6432C35.1297 55.0111 34.2136 54.6347 34.0303 54.1141C33.7059 53.1923 36.0687 52.7867 36.4392 52.702C36.6631 51.5953 36.1166 51.3659 36.1429 50.7395C36.184 49.7634 38.355 47.6885 39.4252 47.8281C40.3295 47.9461 40.5547 49.0043 40.8243 49.7052C40.8647 49.8105 41.0535 50.0234 41.1256 50.1093C42.4941 50.3899 43.2717 49.6223 43.3007 51.4595C43.8191 51.5422 44.8791 51.7461 45.2791 51.3541C45.4003 51.1053 45.3433 50.8703 45.3831 50.6153C45.5877 49.2199 44.4522 47.9882 43.6203 47.0062C43.0633 46.3487 42.676 45.9196 43.272 45.0746C43.9467 44.1786 44.9923 43.1252 45.9656 42.5585C46.9439 41.9889 48.1543 41.8408 49.1145 42.4608C49.9389 44.2527 51.1742 45.5539 53.0205 46.2858C53.8365 45.9086 53.8854 45.3055 54.3326 44.5773C54.6099 44.1258 54.6921 43.9937 55.0614 43.6067C55.068 43.3782 55.0531 43.1598 55.0414 42.9318C54.545 42.3534 54.0242 42.0163 53.4016 41.5881C51.6131 40.3582 54.9821 38.1443 56.0471 39.2123C56.8842 40.0518 56.7789 42.1423 56.8636 43.2444C57.731 43.3234 58.9849 43.2176 58.7042 44.5076C58.5146 45.3788 58.2843 46.1879 58.7261 46.9994C58.9314 47.0495 59.1295 47.0683 59.3386 47.0929C60.2829 46.2558 59.7933 45.3996 60.0786 44.21C61.2602 44.1146 62.0586 44.8036 62.6215 43.0825C62.369 42.676 62.1154 42.3022 61.7875 41.9509C61.0255 41.1344 59.1427 39.7836 59.0693 38.6562C59.0528 38.4036 59.1729 38.1783 59.3447 38.0028C60.6361 36.6829 66.8858 36.4029 68.8974 36.2694C70.1801 36.1842 71.4424 36.0653 72.73 36.037ZM113.344 102.701C115.89 102.303 116.569 99.6984 116.243 97.4448C115.973 95.5867 114.762 94.159 112.783 94.3138C111.836 94.508 111.021 94.812 110.516 95.6987C109.059 98.2581 109.721 102.793 113.344 102.701ZM63.6108 70.5011C65.5188 69.9847 64.8722 67.2217 64.797 65.7988C64.7835 65.5454 64.9197 64.9788 64.9686 64.7186C64.215 64.4675 63.6732 63.8838 62.8595 63.7483C62.4739 64.4368 61.8877 65.1484 61.5765 65.8567C61.1617 66.8008 61.5438 68.3021 61.7746 69.2657C62.0253 70.3123 62.6194 70.523 63.6108 70.5011ZM71.4988 61.5227C71.0599 62.182 70.4667 62.9965 70.187 63.7223C70.048 64.0828 69.9931 64.6921 69.8769 65.0949C69.784 65.4171 69.674 65.6195 69.565 65.9195C69.9497 66.7194 70.7785 67.284 71.678 67.0646C73.3425 66.5808 74.5192 65.8941 73.9004 63.9032C73.6939 63.2399 73.5521 62.7108 73.4713 62.0231C72.9541 61.4834 72.7751 61.3286 72.011 61.3979L71.4988 61.5227ZM71.8552 74.1224C72.2033 74.1427 72.3557 74.1549 72.6968 74.1089C73.5295 73.8105 74.4361 73.2798 74.8157 72.4461C75.1307 71.7552 75.2212 70.4597 74.371 70.1187C74.1345 70.024 73.8907 70.035 73.6422 70.0383C73.2487 70.235 72.8977 70.9101 72.5977 71.2608C72.2167 71.7062 71.6113 72.1364 71.4325 72.7C71.3327 73.0159 71.3622 73.3587 71.5146 73.6526C71.5734 73.7669 71.7686 74.0147 71.8552 74.1224Z" fill="white"/>
<path d="M31.6296 55.9676C32.736 55.9335 32.7381 56.7687 33.2495 57.5643C33.8081 58.4335 34.7802 59.1863 34.8008 60.2918C34.8148 61.0513 34.4554 61.414 33.977 61.9218C33.4022 62.0191 32.8151 62.0176 32.2408 61.9172C31.5193 61.6645 31.0697 61.0917 30.4731 60.6744C30.2326 60.5061 29.6807 60.4399 29.4324 60.1739C29.2469 59.9754 29.0559 59.6597 29.0484 59.385C29.2202 59.1481 29.8159 59.0615 30.1254 58.9948C31.6046 58.6758 29.84 56.3791 31.6296 55.9676Z" fill="white"/>
<path d="M99.8676 42.6253C101.116 42.793 101.409 43.496 102.344 44.2158C102.848 44.6042 103.578 44.9036 103.997 45.3836C104.342 45.7797 104.492 46.847 104.171 47.2947C103.889 47.6509 103.046 47.8253 102.634 47.8861C101.66 48.0812 101.358 48.2119 100.282 48.348C99.9115 47.7154 99.3531 47.3753 98.8728 46.6395C99.2354 46.3945 99.3915 46.2773 99.7018 45.9689C99.8381 44.9804 99.5051 44.1799 99.5508 43.2141C99.5633 42.9565 99.6737 42.7856 99.8676 42.6253Z" fill="white"/>
<path d="M104.228 57.9846C104.252 57.9836 104.346 57.9816 104.369 57.9864C105.938 58.3127 107.768 59.2036 108.916 60.334C109.077 60.4921 109.209 60.8135 109.171 61.0062C108.999 61.888 107.846 61.8153 107.267 62.2556L107.221 62.2907C106.127 63.0093 106.031 63.8306 104.474 63.6454C103.874 63.0609 103.74 62.9074 104.087 62.0841C104.644 60.7665 104.08 59.3195 104.228 57.9846Z" fill="white"/>
<path d="M51.4949 110.389C51.3381 110.384 50.177 110.344 50.1445 110.384C49.8991 110.68 50.1378 111.432 49.8367 111.746L49.7393 111.729C49.6254 111.436 49.6031 108.89 49.7226 108.529C49.9946 108.212 51.1529 108.361 51.5754 108.401C52.9349 109.51 51.4073 109.796 51.982 110.504L51.8815 110.647L51.7905 110.642C51.6896 110.516 51.6507 110.433 51.4949 110.389ZM50.1182 110.074C50.5438 110.094 50.8743 110.079 51.2976 110.06L51.604 109.719C51.7416 109.593 51.8531 109.52 51.9125 109.346C51.859 109.067 51.5413 108.936 51.3391 108.621C50.9229 108.604 50.5064 108.597 50.0899 108.597C50.0233 109.249 49.9957 109.418 50.1182 110.074Z" fill="white"/>
<path d="M50.4926 109.284C50.6652 109.231 51.0395 109.228 51.2013 109.329C51.0347 109.365 50.6111 109.403 50.4926 109.284Z" fill="white"/>
<path d="M88.6376 108.362C88.8588 108.503 89.9469 111.271 89.8065 111.605L89.728 111.584C89.5941 111.439 89.4878 111.336 89.401 111.156L89.2251 110.786C88.9373 110.802 88.5868 110.796 88.294 110.799C87.0105 110.865 87.8021 111.707 87.2341 111.744L87.1833 111.652C87.1722 110.734 87.9744 109.715 88.1993 108.769L88.6376 108.362ZM88.2935 110.562C88.4921 110.558 88.6736 110.576 88.8487 110.493C89.0292 110.264 88.9516 109.509 88.8186 109.258C88.7757 109.224 88.7124 109.169 88.6667 109.144C88.3323 109.437 87.7583 109.994 88.0811 110.463C88.1702 110.514 88.1947 110.532 88.2935 110.562Z" fill="white"/>
<path d="M77.6103 108.386C78.3677 108.359 78.5612 108.373 79.1884 108.752C79.2979 108.992 79.478 109.366 79.5325 109.612C79.6507 110.16 79.5422 110.731 79.2327 111.196C79.1256 111.355 79.0392 111.474 78.8531 111.512L78.788 111.466C78.8393 111.157 79.2891 110.344 79.4258 109.906C79.1422 109.563 79.0753 109.518 78.999 109.085C78.7547 108.918 78.7072 108.882 78.5127 108.661C78.2047 108.561 77.8791 108.588 77.5586 108.598C75.8202 110.305 77.2173 110.298 77.0861 111.448L77.015 111.465L77.0958 111.435L76.9896 111.447C76.8663 111.327 76.7388 111.153 76.6742 110.998C76.0747 109.575 76.3546 110.007 76.8002 108.815C77.1083 108.6 77.2464 108.469 77.6103 108.386Z" fill="white"/>
<path d="M38.4316 108.396C39.1181 108.36 39.3866 108.375 39.974 108.733C40.3864 109.475 40.6062 110.104 40.2091 110.943C40.1166 111.138 39.8661 111.45 39.6511 111.513C39.5346 111.246 40.3047 110.479 40.1622 109.859C40.0597 109.413 39.7551 108.967 39.3863 108.715L39.3362 108.681C38.9835 108.563 38.7508 108.589 38.3842 108.605C37.0097 110 37.6968 109.816 37.9907 111.379L37.9445 111.436C37.4837 111.387 37.2896 110.441 37.1626 110.023C37.2739 109.629 37.4497 109.337 37.5737 108.863C37.9206 108.663 38.0612 108.468 38.4316 108.396Z" fill="white"/>
<path d="M43.7515 110.342C43.3247 110.404 42.8268 110.322 42.4611 110.402C42.3554 110.685 42.3017 111.637 42.0987 111.731C41.9279 111.404 41.8601 108.885 42.1121 108.498C42.2532 108.282 42.9471 108.329 43.2449 108.332L43.291 108.457C43.0331 108.641 42.7219 108.488 42.4317 108.569C42.2699 109.965 42.1096 110.283 43.7051 110.059L43.7265 109.987C43.8269 109.653 43.8605 109.623 44.0821 109.356C44.0231 109.118 43.9373 109.167 43.7981 108.957C43.9479 108.968 44.0382 109.031 44.1725 109.015C44.1571 108.914 44.1406 108.814 44.1231 108.713C44.7158 109.342 44.2159 109.874 43.7515 110.342Z" fill="white"/>
<path d="M101.729 108.437C102.033 108.408 102.629 108.43 102.957 108.433C103.251 108.651 103.417 108.735 103.581 109.068C103.949 109.817 103.95 111.077 103.093 111.49L103.028 111.46C103.019 111.185 103.106 111.123 103.294 110.943L103.344 110.896C103.484 110.104 103.501 109.912 103.33 109.13C103.295 109.111 103.259 109.092 103.224 109.073L103.182 109.049C103.004 108.95 102.889 108.791 102.756 108.635C102.409 108.539 102.104 108.576 101.752 108.613C101.159 109.125 100.755 109.839 101.075 110.642C101.188 110.929 101.501 111.123 101.461 111.44C100.677 111.445 100.086 109.185 101.729 108.437Z" fill="white"/>
<path d="M33.7883 108.435C34.4584 108.342 34.89 108.406 35.4778 108.705C35.9808 109.564 36.2399 110.406 35.5153 111.275C35.4358 111.371 35.3857 111.402 35.2719 111.399C35.1963 111.146 35.5388 110.744 35.6906 110.537C35.7207 110.181 35.7133 109.997 35.693 109.637C35.5708 109.427 35.2289 108.974 35.0759 108.776C34.6238 108.532 34.4231 108.577 33.9165 108.599C33.7085 108.839 33.6448 108.905 33.3961 109.098C32.922 110.302 33.2528 110.328 33.5687 111.367L33.5074 111.41C32.5735 111.322 32.9171 109.454 33.1098 108.863C33.3851 108.723 33.489 108.554 33.7883 108.435Z" fill="white"/>
<path d="M46.4942 108.345C47.1662 108.343 47.4351 108.36 48.082 108.508C47.5442 108.622 46.9861 108.618 46.4343 108.64C46.3035 108.907 46.1617 109.018 46.0229 109.316C46.0376 109.677 46.6281 109.691 46.8297 110.037C46.7601 110.168 46.7628 110.132 46.5856 110.206C45.6513 110.947 46.3653 111.128 45.943 111.49L45.882 111.472C45.5061 110.932 45.81 110.517 45.8053 110.061C45.7967 109.248 45.3751 108.613 46.4942 108.345Z" fill="white"/>
<path d="M105.326 108.755C105.441 108.677 105.577 108.599 105.697 108.526C106.215 109.011 106.256 109.098 106.587 109.715L106.554 110.142C106.478 109.996 105.965 109.414 105.808 109.32C105.183 109.309 105.884 111.403 105.469 111.794C104.969 111.56 105.278 109.292 105.326 108.755Z" fill="white"/>
<path d="M68.1046 109.8C67.7911 109.392 66.9954 109.04 67.3557 108.537C67.4776 108.471 67.5665 108.438 67.7038 108.482C68.0869 108.61 68.05 109.088 68.1762 109.397C68.3039 109.71 68.5572 110.026 68.6136 110.361C68.6789 110.75 69.1437 111.447 68.8693 111.795C68.3562 111.598 69.063 110.828 67.6741 110.79C67.7404 110.773 67.8851 110.617 67.9853 110.554C68.1705 110.403 68.1118 110.032 68.1046 109.8Z" fill="white"/>
<path d="M57.9078 108.404C58.5348 108.306 58.9724 108.348 59.5627 108.546L58.6775 108.611C58.4683 109.736 58.6514 110.67 58.5247 111.691C58.3542 111.724 58.397 111.742 58.2591 111.686C58.1281 110.766 58.3221 109.485 58.1129 108.705L57.4218 108.551L57.3934 108.485L57.3202 108.516L57.4385 108.549L57.3123 108.498C57.5188 108.396 57.6657 108.426 57.9078 108.404Z" fill="white"/>
<path d="M82.1275 108.39C82.5409 108.393 82.7649 108.4 83.1796 108.451C83.2641 108.516 83.3459 108.585 83.4244 108.658C83.5634 108.786 83.6313 108.868 83.6401 109.057C83.3874 109.262 83.042 108.786 82.9108 108.611C82.5691 108.584 82.3525 108.592 82.0065 108.608C81.5683 109.005 81.2029 109.474 81.1609 110.081C81.2427 110.624 81.5877 110.937 81.6431 111.393L81.5964 111.451C81.5613 111.445 81.5161 111.442 81.487 111.417C80.4996 110.568 80.7199 108.653 82.1275 108.39Z" fill="white"/>
<path d="M29.8827 108.393C30.4266 108.402 31.2193 108.443 31.3198 109.144L31.2697 109.199C30.7792 109.183 30.7818 108.511 30.0994 108.546C29.2608 108.591 28.8579 109.368 28.8517 110.128C28.8658 110.881 29.307 110.96 29.3036 111.452L29.2265 111.475C28.223 111.026 28.1675 108.599 29.8827 108.393Z" fill="white"/>
<path d="M107.209 110.603C107.984 110.453 106.954 108.862 107.88 108.619L107.955 108.639C108.263 109.718 107.982 110.721 107.99 111.652C107.931 111.744 107.961 111.717 107.87 111.775C107.961 111.538 107.934 111.072 107.912 110.811L107.863 110.771C107.497 110.833 107.526 110.813 107.209 110.603Z" fill="white"/>
<path d="M63.8471 110.968C63.9509 110.864 64.2947 110.523 64.3531 110.416C64.5363 110.079 64.8604 108.696 65.214 108.496C65.4101 108.886 64.4117 110.7 64.4218 111.165C64.4334 111.693 63.9634 112.014 63.6988 111.66L63.677 111.19L63.7161 111.026L63.8471 110.968Z" fill="white"/>
<path d="M95.156 108.38C95.1042 108.66 95.113 108.8 95.143 109.085C95.1209 109.377 95.1144 109.42 95.2012 109.711C95.3038 109.83 95.3827 109.915 95.495 110.024C95.3952 110.152 95.2996 110.144 95.2123 110.286C95.1052 110.722 95.1301 111.329 94.9888 111.618L94.9301 111.614C94.7357 111.246 94.714 108.936 94.8502 108.522C94.9754 108.384 94.9371 108.427 95.156 108.38Z" fill="white"/>
<path d="M66.7842 110.199L66.8085 110.016C66.8381 109.802 66.854 109.478 67.0331 109.342C67.2083 109.519 67.1428 110.06 67.2306 110.429L67.2449 110.487C67.5713 110.549 67.6558 110.563 67.9853 110.554C67.8851 110.617 67.7404 110.773 67.6741 110.79L66.8174 110.809C66.709 111.108 66.6358 111.486 66.3704 111.69L66.3115 111.662C66.2006 111.185 66.4763 110.557 66.7842 110.199Z" fill="white"/>
<path d="M85.4329 108.409C85.825 108.639 85.7456 111.513 85.5756 111.808L85.4371 111.742C85.3045 111.283 85.2593 108.774 85.4329 108.409Z" fill="white"/>
<path d="M91.2553 108.559C91.4548 108.622 91.5541 108.715 91.5721 108.93C91.6432 109.791 91.5601 110.731 91.5361 111.589L91.4003 111.568C91.1149 111.293 91.1403 108.942 91.2553 108.559Z" fill="white"/>
<path d="M55.1195 108.658C55.3331 108.975 56.1467 110.894 56.0864 111.291L56.0146 111.326C55.7618 111.206 55.5696 111.025 55.4255 110.786C55.4291 110.616 55.4344 110.446 55.4414 110.277C55.2219 109.938 55.1213 109.61 55.0629 109.211C54.989 108.953 54.8694 108.817 55.1195 108.658Z" fill="white"/>
<path d="M54.1621 109.93C54.2339 109.536 54.4191 108.581 54.8674 108.451C55.0353 108.509 54.9876 108.498 55.1195 108.658C54.8694 108.817 54.989 108.953 55.0629 109.211C54.9313 109.163 54.7907 109.089 54.6646 109.127C54.3677 109.768 54.1531 110.815 55.288 110.49C55.3564 110.47 55.4089 110.338 55.4414 110.277C55.4344 110.446 55.4291 110.616 55.4255 110.786C54.9429 110.777 54.7368 110.812 54.2426 110.738C54.2857 110.33 54.2242 110.313 54.1621 109.93Z" fill="white"/>
<path d="M109.714 111.798C109.647 111.342 109.587 108.813 109.778 108.492L109.841 108.466C110.067 108.808 109.967 110.635 109.987 111.147C109.995 111.346 110.074 111.623 110.084 111.769L109.714 111.798Z" fill="white"/>
<path d="M117.572 108.618C117.735 108.7 117.687 108.638 117.741 108.794C117.29 110.387 119.625 109.593 119.532 110.472L119.438 110.533C119.365 110.532 117.679 109.928 117.379 109.836C117.329 109.408 117.204 108.909 117.572 108.618Z" fill="white"/>
<path d="M61.0565 108.439C61.106 108.472 61.1598 108.501 61.1739 108.563C61.2923 109.085 61.3902 111.38 61.1872 111.787C61.1041 111.763 61.1236 111.767 61.048 111.72C60.9176 111.333 60.9094 108.769 61.0565 108.439Z" fill="white"/>
<path d="M115.597 108.634C115.743 108.776 115.81 109.271 115.814 109.473C115.835 110.328 115.792 110.925 115.217 111.573C115.144 111.596 115.183 111.592 115.098 111.56C115.011 111.179 115.332 110.899 115.42 110.407C115.523 109.837 115.363 109.079 115.597 108.634Z" fill="white"/>
<path d="M113.422 108.516C113.61 109.482 113.444 110.283 113.59 110.994C113.455 110.862 113.465 110.822 113.327 110.818C113.259 110.965 113.284 111.108 113.29 111.275C113.195 110.993 113.106 110.769 112.991 110.495C113.215 109.924 113.167 109.589 113.104 108.973C113.2 108.821 113.318 108.663 113.422 108.516Z" fill="white"/>
<path d="M106.587 109.715C106.751 110.219 106.809 110.257 107.209 110.603C107.526 110.813 107.497 110.833 107.863 110.771L107.912 110.811C107.934 111.072 107.961 111.538 107.87 111.775C107.74 111.775 107.619 111.768 107.489 111.76C107.36 111.656 107.345 111.395 107.244 111.2C107.086 110.895 106.624 110.424 106.554 110.142L106.587 109.715Z" fill="white"/>
<path d="M63.677 111.19C63.6267 111.034 63.469 110.886 63.4114 110.742C63.325 110.525 63.2395 110.252 63.1762 110.028C63.0464 109.568 62.667 109.051 62.821 108.569L62.8887 108.567C63.0628 108.778 63.351 109.469 63.4569 109.758C63.5932 110.129 63.4505 110.734 63.8471 110.968L63.7161 111.026L63.677 111.19Z" fill="white"/>
<path d="M54.1621 109.93C54.2242 110.313 54.2857 110.33 54.2426 110.738C54.163 110.92 53.6741 111.56 53.528 111.734L53.473 111.732C53.4218 111.361 53.7535 110.641 53.874 110.273C53.8904 110.223 54.1131 109.982 54.1621 109.93Z" fill="white"/>
<path d="M95.156 108.38C95.8986 108.31 96.3327 108.287 97.043 108.51L96.9839 108.526C96.5327 108.645 95.3583 108.608 95.2382 108.685C95.1717 108.853 95.1698 108.903 95.143 109.085C95.113 108.8 95.1042 108.66 95.156 108.38Z" fill="white"/>
<path d="M72.765 108.793C72.8642 108.759 72.9541 108.705 73.0321 108.731C73.0164 108.819 72.9966 108.901 72.9975 108.99C73.0381 109.449 73.0021 109.593 73.4565 109.782L73.4986 109.911C73.4062 110.003 73.4612 109.969 73.3194 109.999C72.5341 109.805 72.6651 109.519 72.765 108.793Z" fill="white"/>
<path d="M73.4565 109.782C73.8897 109.955 74.1895 109.96 74.5312 110.084C74.7049 110.235 74.8564 110.303 74.9233 110.482C74.903 110.506 74.8467 110.575 74.8264 110.593C74.3105 110.322 73.8653 110.174 73.3194 109.999C73.4612 109.969 73.4062 110.003 73.4986 109.911L73.4565 109.782Z" fill="white"/>
<path d="M43.2449 108.332C43.6168 108.37 43.8805 108.393 44.1231 108.713C44.1406 108.814 44.1571 108.914 44.1725 109.015C44.0382 109.031 43.9479 108.968 43.7981 108.957C43.7884 108.842 43.7755 108.841 43.7164 108.738C43.4138 108.532 42.8255 108.637 42.4317 108.569C42.7219 108.488 43.0331 108.641 43.291 108.457L43.2449 108.332Z" fill="white"/>
<path d="M74.5312 110.084C75.309 110.182 75.1256 111.324 74.7645 111.577L74.6804 111.562C74.4814 111.259 74.7783 110.964 74.9109 110.679C74.8933 110.66 74.8444 110.604 74.8264 110.593C74.8467 110.575 74.903 110.506 74.9233 110.482C74.8564 110.303 74.7049 110.235 74.5312 110.084Z" fill="white"/>
<path d="M51.4949 110.389C51.6507 110.433 51.6896 110.516 51.7905 110.642L51.8815 110.647L51.982 110.504C52.117 110.667 52.2121 111.437 52.168 111.646C52.0542 111.73 52.1135 111.719 51.9893 111.702C51.8995 110.718 51.6477 110.995 51.4949 110.389Z" fill="white"/>
<path d="M95.2012 109.711C95.6718 109.893 96.0704 109.864 96.3683 109.999L96.3886 110.061C96.0963 110.258 95.609 110.18 95.2123 110.286C95.2996 110.144 95.3952 110.152 95.495 110.024C95.3827 109.915 95.3038 109.83 95.2012 109.711Z" fill="white"/>
<path d="M72.765 108.793C73.0607 108.314 74.086 108.326 74.5238 108.516L74.3368 108.555L74.2966 108.628L74.335 108.71C73.7808 108.485 73.3314 108.412 72.9975 108.99C72.9966 108.901 73.0164 108.819 73.0321 108.731C72.9541 108.705 72.8642 108.759 72.765 108.793Z" fill="white"/>
<path d="M117.572 108.618C117.957 108.354 118.738 108.342 119.166 108.49L118.896 108.547L118.873 108.616L118.934 108.7C118.573 108.572 118.016 108.451 117.741 108.794C117.687 108.638 117.735 108.7 117.572 108.618Z" fill="white"/>
<path d="M31.3148 110.641L31.3728 110.695C31.4008 110.967 31.071 111.355 30.9017 111.598C30.7967 111.551 30.8449 111.586 30.7834 111.446C30.7901 111.168 31.12 110.863 31.3148 110.641Z" fill="white"/>
<path d="M46.2438 111.827C46.5774 111.799 47.7988 111.72 48.0042 111.894C47.4272 111.991 46.8039 112.012 46.2438 111.827Z" fill="white"/>
<path d="M83.6909 110.586C83.8525 110.929 83.4405 111.421 83.1861 111.618C83.0877 111.173 83.4364 110.971 83.6909 110.586Z" fill="white"/>
<path d="M109.714 111.798L110.084 111.769C110.682 111.845 111.209 111.733 111.885 111.875C110.833 112.053 110.666 111.897 109.714 111.798Z" fill="white"/>
<path d="M119.166 108.49C119.415 108.749 119.43 108.805 119.472 109.158L119.444 109.221C119.173 109.151 119.119 108.83 118.934 108.7L118.873 108.616L118.896 108.547L119.166 108.49Z" fill="white"/>
<path d="M95.2728 111.834C95.5268 111.794 96.7738 111.739 96.9447 111.884C96.5193 112.002 95.6875 112.007 95.2728 111.834Z" fill="white"/>
<path d="M117.648 111.839C117.953 111.811 118.785 111.774 119.067 111.83L119.079 111.889C119.036 111.903 118.992 111.915 118.948 111.926C118.563 112.015 117.996 112.061 117.648 111.839Z" fill="white"/>
<path d="M73.0252 111.836C73.2967 111.807 74.1193 111.77 74.3774 111.823L74.3881 111.9C73.935 112.019 73.4459 112.069 73.0252 111.836Z" fill="white"/>
<path d="M91.6963 111.831C92.0252 111.802 93.1026 111.722 93.31 111.895C92.7877 112.001 92.2071 111.988 91.6963 111.831Z" fill="white"/>
<path d="M113.29 111.275C113.284 111.108 113.259 110.965 113.327 110.818C113.465 110.822 113.455 110.862 113.59 110.994C113.624 111.169 113.677 111.314 113.617 111.474L113.549 111.512C113.405 111.454 113.387 111.406 113.29 111.275Z" fill="white"/>
<path d="M74.335 108.71L74.2966 108.628L74.3368 108.555L74.5238 108.516C74.722 108.715 74.8051 108.901 74.8273 109.182L74.7866 109.244C74.5474 109.112 74.4984 108.891 74.335 108.71Z" fill="white"/>
<path d="M102.316 111.792C102.522 111.783 102.562 111.772 102.756 111.823L102.743 111.871C102.477 111.974 102.335 111.961 102.049 111.965C101.95 111.958 101.664 111.941 101.613 111.862C101.841 111.785 102.073 111.798 102.316 111.792Z" fill="white"/>
<path d="M38.1035 111.84L38.1536 111.834C38.4037 111.81 39.2269 111.741 39.3993 111.883C39.0328 112.017 38.4556 112.021 38.1035 111.84Z" fill="white"/>
<path d="M77.2704 111.841L77.3424 111.834C77.6006 111.81 78.3806 111.729 78.5645 111.883C78.2135 112.016 77.6177 111.995 77.2704 111.841Z" fill="white"/>
<path d="M114.337 111.793C114.53 111.782 114.618 111.766 114.808 111.815L114.82 111.867C114.633 111.964 114.509 111.955 114.303 111.965C114.164 111.957 113.889 111.949 113.793 111.858C113.943 111.779 114.158 111.796 114.337 111.793Z" fill="white"/>
<path d="M82.6406 111.791C82.7635 111.782 82.8023 111.771 82.9187 111.818L82.878 111.872C82.5529 111.967 82.4504 111.959 82.1063 111.954C81.9682 111.925 81.8851 111.934 81.8024 111.851C82.0324 111.792 82.3917 111.797 82.6406 111.791Z" fill="white"/>
<path d="M33.7824 111.84C34.0447 111.808 34.7673 111.749 34.969 111.883C34.5807 112.016 34.1559 112.022 33.7824 111.84Z" fill="white"/>
</svg>
