<svg width="148" height="148" viewBox="0 0 148 148" fill="none" xmlns="http://www.w3.org/2000/svg">
<path d="M82.9859 68.9122L80.1682 78.2687L74.1844 85L76.335 75.5909L82.9859 68.9122Z" fill="#EEEEEE"/>
<path d="M18 63.378H28.2253C30.4555 63.378 32.1182 63.9346 33.2334 65.0582C34.3485 66.1818 34.8961 67.7675 34.8961 69.8257C34.8961 71.884 34.2887 73.6062 33.084 74.7928C31.8793 75.9899 30.0274 76.578 27.5482 76.578H24.1829V84.3699H18V63.3675V63.378ZM25.6864 72.325C26.8712 72.325 27.7075 72.1045 28.1854 71.6739C28.6633 71.2434 28.9023 70.6763 28.9023 70.0043C28.9023 69.3322 28.6932 68.7861 28.275 68.3241C27.8569 67.862 27.0803 67.6415 25.9253 67.6415H24.173V72.325H25.6864Z" fill="white"/>
<path d="M38.2017 84.3804V63.378H48.4568C50.3585 63.378 51.8121 63.546 52.8177 63.8926C53.8233 64.2391 54.6298 64.8692 55.2471 65.8038C55.8644 66.7384 56.173 67.8725 56.173 69.2062C56.173 70.3718 55.9341 71.3799 55.4661 72.22C54.9982 73.0706 54.351 73.7532 53.5246 74.2782C52.9969 74.6143 52.2801 74.8873 51.3641 75.1078C52.1008 75.3599 52.6285 75.6224 52.9671 75.8849C53.1961 76.053 53.5246 76.431 53.9527 76.9876C54.3809 77.5546 54.6696 77.9852 54.809 78.2897L57.786 84.3699H50.8364L47.5508 77.9537C47.1326 77.1241 46.7642 76.578 46.4356 76.3365C45.9876 76.0109 45.4898 75.8534 44.9322 75.8534H44.3846V84.3804H38.2017ZM44.3747 71.884H46.9733C47.2521 71.884 47.7997 71.7895 48.6061 71.6004C49.0143 71.5164 49.3429 71.2959 49.6018 70.9389C49.8606 70.5818 49.9901 70.1828 49.9901 69.7207C49.9901 69.0382 49.781 68.5236 49.3827 68.1561C48.9745 67.799 48.2079 67.61 47.0928 67.61H44.3946V71.884H44.3747Z" fill="white"/>
<path d="M86.5103 77.4286L92.3647 77.0401C92.4941 78.0482 92.753 78.8043 93.1413 79.3293C93.7785 80.1799 94.6846 80.6 95.8594 80.6C96.7356 80.6 97.4126 80.3795 97.8905 79.9489C98.3684 79.5184 98.6074 79.0143 98.6074 78.4367C98.6074 77.8592 98.3784 77.4076 97.9304 76.9771C97.4823 76.5465 96.4269 76.1475 94.7841 75.7589C92.0859 75.1184 90.1643 74.2678 89.0094 73.2071C87.8445 72.1465 87.267 70.7919 87.267 69.1537C87.267 68.0721 87.5657 67.0535 88.1531 66.0978C88.7505 65.1422 89.6366 64.3862 90.8314 63.8296C92.0262 63.2835 93.6491 63 95.73 63C98.2788 63 100.21 63.5041 101.545 64.5017C102.879 65.4993 103.675 67.085 103.924 69.2692L98.1195 69.6262C97.9702 68.6811 97.6416 67.9881 97.1438 67.568C96.646 67.1375 95.9689 66.9274 95.1027 66.9274C94.3859 66.9274 93.8482 67.085 93.4898 67.4105C93.1314 67.736 92.9422 68.1141 92.9422 68.5761C92.9422 68.9122 93.0915 69.2062 93.3902 69.4792C93.679 69.7523 94.366 70.0148 95.4512 70.2563C98.1394 70.8654 100.071 71.485 101.236 72.115C102.401 72.7451 103.247 73.5222 103.775 74.4463C104.302 75.3704 104.571 76.41 104.571 77.5546C104.571 78.8988 104.213 80.1379 103.506 81.2826C102.799 82.4167 101.813 83.2778 100.549 83.8658C99.2844 84.4539 97.6814 84.7479 95.7599 84.7479C92.3747 84.7479 90.0249 84.0654 88.7207 82.6897C87.4164 81.3141 86.6796 79.5709 86.5103 77.4496V77.4286Z" fill="white"/>
<path d="M107.608 63.378H115.703L118.819 76.158L121.915 63.378H130V84.3804H124.962V68.3661L121.079 84.3804H116.519L112.646 68.3661V84.3804H107.608V63.378Z" fill="white"/>
<path d="M72.2923 73.1336L76.335 75.5909L82.9859 68.9122L81.1037 67.7675L72.3022 73.1231L72.2923 73.1336Z" fill="white"/>
<path d="M72.2923 73.1336L76.335 75.5909L74.1844 85L72.3022 83.8554V73.1337L72.2923 73.1336Z" fill="#D7D7D7"/>
<path d="M63.4909 65.4678L72.5811 63.3675L81.0939 65.4678L72.2924 68.2086L63.4909 65.4678Z" fill="white"/>
<path d="M72.2923 73.1336L72.2924 68.2086L63.4909 65.4678V67.7675L72.2924 73.1231L72.2923 73.1336Z" fill="#CDCDCD"/>
<path d="M72.2923 73.1336L72.2924 68.2086L81.0939 65.4678L81.0937 67.7675L72.2924 73.1231L72.2923 73.1336Z" fill="#EEEEEE"/>
<path d="M70.4105 85L64.1379 77.7437L61.609 68.9122L68.2599 75.5909L70.4105 85Z" fill="#CDCDCD"/>
<path d="M72.2923 73.1336L68.2504 75.5909L70.401 85L72.2827 83.8554V73.1337L72.2923 73.1336Z" fill="#EEEEEE"/>
<path d="M72.2923 73.1336L68.2504 75.5909L61.5993 68.9121L63.4811 67.7675L72.2825 73.1231L72.2923 73.1336Z" fill="white"/>
</svg>
