<svg width="148" height="148" viewBox="0 0 148 148" fill="none" xmlns="http://www.w3.org/2000/svg">
<path d="M128.558 97.4636C127.76 97.4636 127.11 96.8162 127.11 96.0198C127.11 95.2239 127.76 94.5759 128.558 94.5759C129.353 94.5759 130 95.2239 130 96.0198C130 96.8162 129.353 97.4636 128.558 97.4636ZM128.558 94.8122C127.889 94.8122 127.346 95.3539 127.346 96.0198C127.346 96.6862 127.889 97.2273 128.558 97.2273C129.223 97.2273 129.764 96.6862 129.764 96.0198C129.764 95.3539 129.223 94.8122 128.558 94.8122ZM128.769 96.1016L129.263 96.8532H129.003L128.528 96.1253H128.206V96.8532H127.973V95.1909H128.696C128.995 95.1909 129.286 95.2728 129.286 95.6304C129.286 95.9577 129.064 96.0937 128.769 96.1016ZM128.649 95.3889H128.206V95.9261H128.641C128.976 95.9261 129.053 95.7901 129.053 95.6265C129.053 95.4087 128.824 95.3889 128.649 95.3889ZM121.813 103C119.206 103 116.806 102.681 116.812 100.013L116.806 97.5837C116.81 95.0807 118.806 94.5924 121.816 94.5924C124.827 94.5924 126.836 95.1005 126.811 97.5929V100.029C126.811 102.643 124.531 103 121.813 103ZM124.044 97.8265C124.013 96.5252 123.56 96.2751 121.794 96.2751C119.985 96.2751 119.577 96.5932 119.575 97.8397V99.7705C119.577 101.195 120.287 101.301 121.829 101.301C123.372 101.301 124.013 101.173 124.044 99.7573V97.8265ZM106.144 101.211L111.397 96.6354V96.351H106.487V94.6505H114.947V96.3649L109.622 100.956V101.236H114.947V102.935H106.144V101.211ZM95.9048 96.351H95.5451L95.5484 102.935H93.0534V94.6518H97.8286L101.012 101.236H101.378L101.376 94.6518H103.873V102.935H99.0508L95.9048 96.351ZM71.1222 46.9033C74.979 44.1813 75.8513 45.1784 75.8882 45.1777C79.5553 47.1864 86.5843 51.8868 90.0281 58.6994C93.512 65.5919 93.3874 73.0505 92.4875 78.3553C90.7699 56.3344 71.0234 47.001 71.1222 46.9033ZM63.7605 75.4888C66.2311 78.7994 92.39 78.484 92.39 78.484L54.5506 81.344L70.9905 47.2207C70.9905 47.2207 61.1304 71.965 63.7605 75.4888ZM54.2917 81.3769C50.01 79.3927 50.4356 78.1369 50.4165 78.1052C50.3203 73.9203 50.8803 65.4797 55.0382 59.0782C59.2587 52.579 65.7962 48.9107 70.8323 47.0386C52.6526 59.5388 54.4255 81.4139 54.2917 81.3769ZM50.485 94.6518V102.935H45.6624L42.5171 96.351H42.1574L42.1607 102.935H39.665V94.6518H44.4409L47.6244 101.236H47.99L47.9887 94.6518H50.485ZM34.3687 101.457H30.1772L29.6205 102.935H26.8521L30.0803 94.6518H34.3871L37.6529 102.935H34.9412L34.3687 101.457ZM32.3915 96.0772H32.1616L30.7056 100.083H33.8798L32.3915 96.0772ZM18 94.6518H20.6749V101.237H25.3176V102.935H18V94.6518ZM62.6266 97.8364V99.6267C62.6266 101.831 61.6752 102.935 58.6907 102.935H52.8021V94.6518H58.2902C61.3149 94.6518 62.6266 95.5281 62.6266 97.8364ZM55.4803 96.351V101.239H58.219C59.372 101.239 59.8654 100.622 59.8654 99.6267V97.8364C59.8654 96.6651 59.3496 96.351 58.219 96.351H55.4803ZM67.8617 102.935H65.1881V94.6518H67.8617V102.935ZM79.9209 96.7872C79.9275 98.068 79.9209 98.6679 77.8403 98.9826V99.335C78.9854 99.3304 79.8201 99.7138 79.8201 100.524V102.918H77.1775V100.98C77.1775 100.318 76.7842 99.8972 75.8217 99.8972H73.4064V102.918H70.7592V94.6518H76.2829C78.822 94.6815 79.9117 95.0451 79.9209 96.7872ZM73.4064 96.1128V98.4422H75.8217C77.2 98.4422 77.1894 98.0298 77.1894 97.1191C77.1894 96.3695 76.8646 96.0963 75.8217 96.1128H73.4064ZM90.2402 96.2375H85.185V98.0891H89.9253V99.3904H85.185V101.345L90.343 101.348V102.935H82.5049V94.6518H90.2402V96.2375ZM72.8062 89.2249C65.0814 88.8072 58.6571 84.9581 54.5203 81.5254C74.419 91.0456 92.4236 78.5889 92.4585 78.7229C92.8841 83.4298 91.5855 83.6879 91.5671 83.7202C87.9969 85.8965 80.4197 89.6367 72.8062 89.2249Z" fill="white"/>
</svg>
