<svg width="148" height="148" viewBox="0 0 148 148" fill="none" xmlns="http://www.w3.org/2000/svg">
<path d="M71.265 70.4109C69.1966 70.4109 67.4918 72.031 67.4918 74.0155C67.4918 76 69.1804 77.6202 71.265 77.6202C73.3496 77.6202 75.0382 76.0698 75.0382 74.0155C75.0382 71.9612 73.3253 70.4109 71.265 70.4109ZM71.265 76.814C69.7056 76.814 68.3886 75.5969 68.3886 74.0155C68.3886 72.4341 69.5763 71.2171 71.265 71.2171C72.9537 71.2171 74.1414 72.4884 74.1414 74.0155C74.1414 75.5426 72.8244 76.814 71.265 76.814Z" fill="white"/>
<path d="M47.6802 72.5349C47.6802 71.876 47.3328 71.2248 46.7349 70.8837C46.1612 70.5736 45.4744 70.5659 44.8361 70.5659H43.7454V77.4806H44.6422V74.5504H45.0139L47.1389 77.4806H48.2296L45.9511 74.4729C46.9934 74.3566 47.6802 73.5271 47.6802 72.5349ZM44.925 73.8372H44.6341V71.3333H44.8765C45.7653 71.3333 46.8399 71.4884 46.8399 72.5736C46.8399 73.6589 45.8461 73.8372 44.925 73.8372Z" fill="white"/>
<path d="M83.1503 70.5581H82.1161V77.4729H83.013V74.5736H83.5301C84.8955 74.5736 86.051 74.0155 86.051 72.5581C86.051 71.2946 85.3642 70.5581 83.1422 70.5581H83.1503ZM83.3038 73.8062H83.013V71.3256H83.2554C84.1441 71.3256 85.2107 71.4574 85.2107 72.5349C85.2107 73.6124 84.2168 73.7985 83.2958 73.7985L83.3038 73.8062Z" fill="white"/>
<path d="M39.5681 73.7907V73.7752C40.0529 73.5581 40.3438 72.969 40.3438 72.4651C40.3438 70.907 39.0591 70.5659 37.7017 70.5659H36.821V77.4806H38.5016C39.7701 77.4806 41.0063 76.9302 41.0063 75.5426C41.0063 74.7364 40.4165 73.938 39.56 73.7907H39.5681ZM37.7259 71.3333H37.9764C38.8167 71.3333 39.5035 71.4961 39.5035 72.4729C39.5035 73.4496 38.8086 73.6279 37.9522 73.6279H37.7259V71.3333ZM38.4127 76.7054H37.7259V74.3101H38.2834C39.0833 74.3101 40.1175 74.5116 40.1175 75.4806C40.1175 76.4496 39.2449 76.6977 38.4127 76.6977V76.7054Z" fill="white"/>
<path d="M64.0902 75.6667L58.6848 70.2326V77.4806H59.5817V72.3256L64.9951 77.7597V70.5581H64.0902V75.6667Z" fill="white"/>
<path d="M54.9035 74.6434C54.9035 75.7752 54.548 76.814 53.1664 76.814C51.7847 76.814 51.4292 75.7674 51.4292 74.6434V70.5581H50.5323V74.938C50.5323 76.4574 51.5181 77.6279 53.1744 77.6279C54.8308 77.6279 55.8165 76.4651 55.8165 74.938V70.5581H54.9197V74.6434H54.9035Z" fill="white"/>
<path d="M122.66 70.5581V71.3488H125.795L122.143 77.4806H127.258V76.6899H123.606L127.258 70.5581H122.66Z" fill="white"/>
<path d="M115.655 70.5581V71.3488H118.798L115.146 77.4806H120.261V76.6899H116.609L120.261 70.5581H115.655Z" fill="white"/>
<path d="M130.611 70.5581H129.714V77.4729H130.611V70.5581Z" fill="white"/>
<path d="M95.48 77.4806H99.3583V76.6899H96.385V74.0698H99.2694V73.2868H96.385V71.3488H99.3583V70.5581H95.48V77.4806Z" fill="white"/>
<path d="M109.038 77.4806H112.916V76.6899H109.943V74.0698H112.827V73.2868H109.943V71.3488H112.916V70.5581H109.038V77.4806Z" fill="white"/>
<path d="M92.5067 72.5349C92.5067 71.876 92.1673 71.2248 91.5613 70.8837C90.9877 70.5736 90.3009 70.5659 89.6626 70.5659H88.5718V77.4806H89.4687V74.5504H89.8404L91.9653 77.4806H93.0561L90.7776 74.4729C91.8199 74.3566 92.5067 73.5271 92.5067 72.5349ZM89.7596 73.8372H89.4687V71.3333H89.7111C90.5999 71.3333 91.6745 71.4884 91.6745 72.5736C91.6745 73.6589 90.6806 73.8372 89.7596 73.8372Z" fill="white"/>
<path d="M104.546 73.3876L104.028 73.1938C103.576 73.031 103.027 72.7442 103.027 72.2016C103.027 71.5969 103.657 71.2171 104.23 71.2171C104.772 71.2171 105.119 71.4341 105.386 71.8682L106.105 71.4574C105.717 70.7907 105.055 70.4109 104.247 70.4109C103.156 70.4109 102.122 71.0775 102.122 72.2016C102.122 73.1628 102.865 73.6124 103.689 73.9535L104.19 74.155C104.812 74.4031 105.434 74.7209 105.434 75.4651C105.434 76.2093 104.877 76.814 104.109 76.814C103.342 76.814 102.703 76.2636 102.711 75.5039L101.806 75.6899C101.96 76.7985 102.865 77.6279 104.036 77.6279C105.329 77.6279 106.339 76.7287 106.339 75.4729C106.339 74.3178 105.572 73.7752 104.554 73.3876H104.546Z" fill="white"/>
<path d="M133.495 73.938V74.3488L134.101 74.6977V76.1085L133.495 76.4574V76.8682L136 75.4031L133.495 73.938ZM134.368 74.8605L135.337 75.4031L134.368 75.9457V74.8527V74.8605Z" fill="white"/>
<path d="M135.2 74.2558C135.644 74.2558 135.895 73.9612 135.895 73.0233V72.5814H133.487V72.9612H134.497V73.1783C134.497 73.7597 134.691 74.2481 135.2 74.2481V74.2558ZM134.772 72.9612H135.636V73.062C135.636 73.4419 135.588 73.8915 135.216 73.8915C134.845 73.8915 134.78 73.4651 134.78 73.0775V72.9535L134.772 72.9612Z" fill="white"/>
<path d="M134.19 72.1628C134.594 72.1628 134.78 71.8372 134.909 71.4031L134.974 71.186C135.03 70.9922 135.127 70.7597 135.321 70.7597C135.531 70.7597 135.661 71.0233 135.661 71.2713C135.661 71.5194 135.588 71.6512 135.434 71.7597L135.58 72.062C135.814 71.8915 135.943 71.6124 135.943 71.2713C135.943 70.8062 135.709 70.3721 135.321 70.3721C134.99 70.3721 134.828 70.6899 134.715 71.0388L134.643 71.2481C134.554 71.5116 134.449 71.7752 134.19 71.7752C133.932 71.7752 133.721 71.5426 133.721 71.2093C133.721 70.876 133.915 70.6124 134.174 70.6124L134.109 70.2248C133.722 70.2868 133.439 70.6744 133.439 71.1705C133.439 71.7209 133.754 72.1473 134.19 72.1473V72.1628Z" fill="white"/>
<path d="M23.4652 63L12 74L23.4652 85L34.9303 74L23.4652 63ZM12.8726 74C13.2847 73.6047 23.0531 64.2248 23.4652 63.8295C23.8692 64.2248 33.6457 73.6047 34.0577 73.9922C33.6457 74.3876 23.8692 83.7597 23.4652 84.155C23.0531 83.7674 13.2847 74.3876 12.8726 73.9922V74Z" fill="white"/>
<path d="M23.4652 64.2326L13.2928 74L23.4652 83.7597L33.6376 74L23.4652 64.2326ZM23.4652 83.2713C23.3278 83.1395 20.201 80.1395 17.5427 77.5891C18.1325 78.1085 19.1183 78.4806 20.6534 78.4806H24.564V74.5814H26.2365C28.8221 74.5814 30.0502 73.4729 30.0502 72.062C30.0502 70.6512 28.9352 69.4651 26.4951 69.4729H21.2432C18.8355 69.4729 17.8013 70.6357 17.8013 71.7752C17.8013 72.7132 18.3426 73.3256 19.5061 73.7054V73.7287C17.8336 73.9845 16.8155 74.8682 16.8155 76.0853C16.8155 76.5426 16.9852 77.031 17.3811 77.4496C15.5066 75.6512 13.8987 74.1085 13.7937 74.0155C14.0361 73.7829 23.2147 64.969 23.4652 64.7364C23.7076 64.969 32.8862 73.7829 33.1286 74.0155C32.8862 74.2481 23.7076 83.0543 23.4652 83.2868V83.2713ZM20.9443 74.4884H22.8753V77.3178H20.8635C18.9809 77.3178 18.4719 76.5659 18.4719 75.8915C18.4719 75.0698 19.2556 74.4884 20.9443 74.4884ZM19.4495 71.8837C19.4495 71.2093 19.9262 70.6279 21.3968 70.6279H22.8673V73.3256H21.8007C20.209 73.3256 19.4415 72.8527 19.4415 71.8837H19.4495ZM24.5559 73.4109V70.6202H26.4385C27.8929 70.6202 28.3373 71.3333 28.3373 71.9922C28.3373 72.8992 27.5697 73.4109 26.3739 73.4109H24.5559Z" fill="white"/>
</svg>
