<svg width="148" height="148" viewBox="0 0 148 148" fill="none" xmlns="http://www.w3.org/2000/svg">
<path d="M52.6465 56.6418C52.7517 56.6414 52.8483 56.6486 52.9254 56.7019C52.9011 57.1747 52.7429 57.9624 52.6495 58.4525L122.2 58.446C124.431 58.4429 127.256 58.2079 128.954 59.8939C130.601 61.5292 130.163 63.0195 129.845 65.0028L129.185 69.1128C128.516 73.2781 127.909 77.5422 127.205 81.6863L18.9644 81.6874C18.5535 84.5232 18.0728 87.4065 17.6235 90.2407L123.746 90.241C124.753 90.2411 126.734 90.1871 127.658 90.2653C127.051 90.2785 126.442 90.2816 125.834 90.2744C125.759 90.852 125.667 91.4273 125.559 92H10V91.9192C10.1415 91.4275 10.4077 89.4219 10.5078 88.7924L11.6391 81.6211C12.8586 73.9463 14.1904 66.114 15.2982 58.4424C22.9036 58.5271 30.756 58.4661 38.3735 58.441L38.4985 58.4605L38.5319 58.4656C38.5066 58.9396 38.2711 60.2088 38.2044 60.7507L37.1777 60.7504C37.0926 61.5569 36.8991 62.8264 36.7374 63.6183L37.7162 63.6172C37.1933 66.4165 36.7568 69.6844 36.3097 72.5264L35.8249 75.6062C35.6668 76.6165 35.3117 78.048 35.8795 78.9542C36.7968 80.4182 38.9864 80.1518 40.4833 80.1414L40.9414 77.389C40.531 77.3959 39.5119 77.3587 39.4618 77.0428C39.2985 76.0067 39.9217 72.8719 40.0675 71.9423L41.3743 63.6168L43.0816 63.6175C43.2489 62.7023 43.3838 61.6781 43.5267 60.7511L41.8505 60.7518C42.0019 59.7284 42.2407 57.7772 42.4859 56.7939H42.6951V56.7551L42.8171 56.7638C43.0851 57.0907 42.7747 58.0207 42.7214 58.4515C43.7834 58.4496 44.8824 58.4335 45.9451 58.4442C45.944 58.4498 45.9428 58.4554 45.9418 58.4609L46.1139 58.4917C45.9229 59.2154 45.8293 59.9252 45.7322 60.6646L44.7634 60.6642C44.5772 61.593 44.4777 62.5756 44.2863 63.5328H45.2422C44.5351 68.4181 43.7001 73.2931 42.9547 78.1735C42.8599 78.7947 42.7632 79.4201 42.6424 80.0367L46.3105 80.0378C46.4921 79.1787 46.6328 78.0966 46.7711 77.2185L48.4006 66.8265C48.5658 65.7764 48.782 64.5745 48.895 63.5324L51.3535 63.5335C51.5172 62.5954 51.657 61.6176 51.8053 60.6743L49.3984 60.6747C49.651 58.6271 50.1108 58.9643 52.0508 58.9958C52.1948 58.2464 52.2995 57.4575 52.4403 56.6932L52.6168 56.7428L52.6465 56.6418ZM24.8542 65.4236C25.2069 63.2404 26.1806 60.276 22.6836 60.6204C21.8005 60.8334 21.3057 61.1732 20.6361 61.7506L20.8071 60.7507L17.1476 60.7518L12.9989 86.9491C12.8372 87.9668 12.6676 89.2551 12.4614 90.2414H16.1892L17.3093 83.0581C17.5003 81.84 17.7608 80.3836 17.898 79.1701C18.1362 79.4271 18.3754 79.7039 18.6766 79.8915C20.1639 80.8179 22.3297 80.1966 22.7467 78.4212C22.9784 77.4345 23.1127 76.453 23.2693 75.4537L24.0927 70.1652L24.8542 65.4236ZM19.181 81.9347C20.5646 81.9751 22.0946 81.9432 23.4948 81.9434L128.669 81.9405C128.403 84.411 127.8 87.4751 127.428 90.006C126.141 90.052 124.613 90.0113 123.305 90.0111L17.9217 90.0096L19.181 81.9347ZM82.5263 83.2291C80.3245 83.4384 79.3387 84.869 79.4418 87.019C79.5036 88.3215 80.5671 89.1564 81.8702 88.9887C82.2513 88.9452 82.5375 88.9053 82.855 88.6758C82.9062 88.5643 82.9163 88.5854 82.9032 88.4777L82.878 87.7777C82.3743 87.9741 81.8455 88.1489 81.3349 87.916C79.9369 87.2785 80.5543 84.7866 81.8542 84.3651C82.4442 84.1739 82.9089 84.2202 83.487 84.3481L83.9095 83.4482C83.4433 83.3182 83.0176 83.2296 82.5263 83.2291ZM45.7266 83.2291C44.401 83.3925 43.6826 83.7232 43.6892 85.2285C43.6905 85.5394 44.079 86.0562 44.4017 86.2324C45.1133 86.6209 46.6122 87.6501 44.8869 88.046C44.4358 88.1495 43.8086 87.9343 43.3286 87.761L42.7778 88.6747C43.3602 88.9236 43.9102 89.0132 44.5449 89.0068C45.1866 88.9682 45.9737 88.8848 46.3761 88.381C46.8956 87.7307 46.9991 86.7229 46.2945 86.1701C45.8552 85.8255 44.8697 85.4143 44.8112 84.8703C44.7941 84.7247 44.8391 84.5782 44.9355 84.4658C45.3817 83.9386 46.3608 84.2604 46.8909 84.4622L47.4429 83.5489C46.7547 83.3044 46.4618 83.2626 45.7266 83.2291ZM108.553 83.2309C106.257 83.4643 105.28 84.9343 105.476 87.0918C105.657 89.0914 107.633 89.4679 109.153 88.4882C109.228 87.9933 109.675 86.351 109.591 86.039C109.519 86.0113 109.467 85.9827 109.391 85.9919L107.964 85.9916L107.823 86.6767C108.096 86.7158 108.373 86.758 108.648 86.7868C108.515 87.4736 108.508 88.2044 107.482 88.0087C106.559 87.8328 106.431 86.6019 106.63 85.8847C107.023 84.339 108.153 84.0458 109.609 84.3507L110.046 83.4583C109.516 83.3164 109.116 83.2296 108.553 83.2309ZM41.4069 83.2305C40.774 83.2967 40.1626 83.3477 39.7381 83.8791C38.8126 85.038 39.5874 86.0655 40.7133 86.6854C41.4642 87.0989 41.707 87.8484 40.6246 88.0355C40.0773 88.1301 39.4917 87.9604 38.9841 87.7498L38.4573 88.6834C39.099 88.9342 39.5438 89.0099 40.2389 89.0061C41.3998 88.9335 42.3697 88.6553 42.4525 87.3094C42.5065 86.4303 41.6946 85.941 41.0438 85.5204C40.6957 85.2973 40.1917 84.9227 40.5823 84.4836C41.1035 83.9503 41.9933 84.2187 42.5523 84.4818C42.7242 84.1975 42.9414 83.8156 43.1213 83.5445C42.4389 83.32 42.1406 83.26 41.4069 83.2305ZM24.4611 84.058C24.0686 83.2909 23.1082 83.2272 22.3405 83.2935C22.0066 83.3125 21.4643 83.3283 21.1502 83.3721L19.9826 88.8544C20.864 89.0423 22.0667 89.0326 22.9358 88.7884C24.1236 88.2658 24.814 86.7756 23.4269 86.0578C23.9324 85.8115 24.3297 85.5781 24.5256 85.0105C24.636 84.6974 24.6129 84.3541 24.4611 84.058ZM30.2756 83.3203C29.8232 85.129 29.4702 87.0584 29.053 88.8888L30.0731 88.8895C30.3347 87.5809 30.6082 86.4613 30.7904 85.1343C31.1587 86.4582 31.8711 87.6866 32.4403 88.9471C32.6439 88.9524 32.9938 88.9833 33.1625 88.9032L33.2029 88.829L34.4039 83.3377L33.3854 83.3359C33.0834 84.6826 32.759 85.8415 32.6999 87.2261C32.2828 85.8335 31.6395 84.6304 31.0093 83.32L30.2756 83.3203ZM89.8131 83.3192C89.4743 84.8804 89.0082 87.4043 88.5801 88.8895L89.6076 88.8891C89.8832 87.6772 90.2088 86.3637 90.3238 85.1347C90.7619 86.4939 91.3737 87.6646 91.9918 88.9482L92.7244 88.9474C93.1257 87.1211 93.5087 85.1347 93.9499 83.337L92.9414 83.3348C92.6601 84.566 92.2575 86.0333 92.2281 87.2768C91.8787 85.8793 91.1736 84.6456 90.5668 83.3218L89.8131 83.3192ZM48.4763 83.3359C48.2156 84.958 47.7647 86.6065 47.4466 88.2231C47.405 88.4345 47.3491 88.6849 47.2882 88.8891L50.5434 88.8899C50.6117 88.5622 50.6833 88.2351 50.7582 87.9088C50.2527 87.9112 49.0825 87.9451 48.6302 87.8834C48.5758 87.7123 48.6213 87.6605 48.6677 87.4706L48.8635 86.5869L50.7956 86.5902L51.033 85.5957L49.0786 85.6004C49.1654 85.1757 49.2561 84.7514 49.3501 84.3282L51.4904 84.3318L51.7103 83.337L48.4763 83.3359ZM54.6728 86.5294C56.5347 86.1221 56.9786 83.0534 53.7574 83.3026C53.47 83.3226 53.0628 83.339 52.7871 83.3801C52.3661 84.9855 51.911 87.2377 51.576 88.8888L52.6428 88.8899C52.7761 88.2686 53.0333 87.2113 53.112 86.6177C53.8095 86.7608 53.726 86.8394 53.951 87.4876C54.0965 87.9105 54.3077 88.4706 54.4262 88.8895L55.6335 88.8888C55.4411 88.3681 55.0064 86.926 54.6484 86.6586L54.6406 86.5362L54.6728 86.5294ZM68.8869 83.3355C68.5131 85.0576 67.9877 87.1816 67.6888 88.8899L70.9314 88.8891L71.1384 87.9091C70.6412 87.9103 69.4655 87.9412 69.0226 87.8802C68.9662 87.7157 69.0594 87.4752 69.1083 87.2975C69.1574 87.0503 69.1986 86.8274 69.273 86.5858L71.201 86.5902C71.2683 86.2634 71.3329 85.9162 71.4206 85.5957L69.4503 85.5986L69.7274 84.3289L71.8976 84.3296C71.9595 83.9842 72.015 83.6784 72.1031 83.3363L68.8869 83.3355ZM112.751 83.3203L109.592 88.8888L110.744 88.8899L111.358 87.7527C111.619 87.603 112.684 87.6603 113.047 87.6658L113.202 88.8888H114.276C114.113 87.3977 113.803 84.7762 113.534 83.32L112.751 83.3203ZM86.3642 83.3207L83.2118 88.8891L84.3513 88.8895C84.5556 88.5076 84.7625 88.1271 84.9718 87.748C85.1512 87.6031 86.3625 87.6623 86.6569 87.6654C86.7119 88.0727 86.7619 88.4807 86.8075 88.8891H87.9043C87.6343 87.2592 87.3463 84.9681 87.1613 83.32L86.3642 83.3207ZM115.829 83.3352C115.749 83.6655 115.665 83.998 115.6 84.3315H117.172C116.86 85.7764 116.453 87.4538 116.192 88.8891L117.259 88.8895L117.514 87.6636C117.741 86.6398 118.065 85.3447 118.226 84.3304L119.836 84.3293C119.894 83.971 119.939 83.6901 120.037 83.3366L115.829 83.3352ZM25.9933 83.3348C25.5969 85.0598 25.2142 87.2354 24.7726 88.8891L28.0263 88.888L28.2385 87.9088L26.0634 87.9099L26.1706 87.4065L26.3424 86.5873L28.2737 86.5909L28.5167 85.595L26.5475 85.5993C26.6324 85.241 26.7447 84.6569 26.8431 84.3275L28.9622 84.3318C29.0421 84.0011 29.1184 83.6694 29.191 83.337L25.9933 83.3348ZM35.5861 83.3352C35.1506 85.1576 34.7681 87.0542 34.368 88.8888L37.6269 88.8891C37.684 88.5884 37.746 88.1994 37.8212 87.9095C37.3658 87.9102 36.0827 87.9385 35.6955 87.8751C35.6751 87.6575 35.7219 87.5224 35.7749 87.3123C35.8255 87.0737 35.8839 86.8288 35.9084 86.5869L37.8735 86.5913C37.9449 86.276 38.0188 85.9028 38.1027 85.5954L36.1313 85.5993L36.4199 84.3282L38.5671 84.3325C38.6305 84.031 38.7032 83.6256 38.7852 83.3366L35.5861 83.3352ZM65.8142 83.2791C65.659 83.2722 65.5035 83.2768 65.349 83.2932C65.023 83.3151 64.5327 83.3338 64.2222 83.3841C63.8476 85.0991 63.4495 87.2148 63.0141 88.8891H64.0857C64.1643 88.5396 64.288 88.0553 64.3379 87.7132L64.5041 87.0009C65.3967 87.0464 66.2926 87.0362 67.0052 86.4135C67.4175 86.0496 67.6634 85.5394 67.6877 84.9971C67.7512 83.836 66.8939 83.3239 65.8142 83.2791ZM76.3557 85.4549C76.8707 83.7928 75.6599 83.1632 74.2118 83.2982C73.9774 83.3091 73.227 83.3197 73.1836 83.4623C72.763 84.8413 72.2582 87.5876 71.9507 88.8891L73.033 88.8888C73.1736 88.1611 73.3363 87.3397 73.5237 86.6203C74.2231 86.7738 74.1689 86.9858 74.3739 87.614C74.5195 88.0288 74.6855 88.4737 74.8186 88.8891L75.9993 88.8884C75.7568 88.2099 75.4425 87.1093 75.0338 86.5714C75.5669 86.3408 76.1788 86.028 76.3557 85.4549ZM99.8364 83.3348C99.3646 85.0292 99.0793 87.2784 98.595 88.8891H101.852C101.928 88.564 101.998 88.2373 102.061 87.9095C101.639 87.9107 100.279 87.9388 99.9362 87.8762C99.9306 87.6985 99.9433 87.6478 99.9833 87.4731L100.17 86.5858L102.111 86.5906L102.339 85.5961L100.388 85.5986L100.656 84.3322L102.801 84.3329L103.024 83.3363L99.8364 83.3348ZM120.462 83.3348C120.385 83.666 120.311 83.9981 120.239 84.3304L121.792 84.3296C121.478 85.8109 121.106 87.4104 120.826 88.8888L121.862 88.8891C121.972 88.428 122.076 87.9843 122.167 87.5191C122.411 86.4575 122.647 85.3941 122.874 84.3289L124.435 84.3315L124.643 83.3374L120.462 83.3348ZM57.7148 83.3352C57.5335 84.0212 57.3659 84.7843 57.2348 85.4817C57.0235 86.6054 56.6969 87.7661 56.5171 88.8888L59.7745 88.888C59.833 88.5438 59.8812 88.2479 59.9755 87.9088C59.5053 87.9101 58.2155 87.9412 57.8119 87.8766C57.8102 87.6956 57.8269 87.6439 57.875 87.4677C57.9346 87.1797 58.0033 86.8762 58.056 86.5887L60.0237 86.5884C60.0939 86.2572 60.1654 85.9262 60.2389 85.5957L58.2637 85.5997L58.5653 84.3275L60.6832 84.3325L60.9062 83.337L57.7148 83.3352ZM124.364 88.8888L125.432 88.888C125.774 87.3138 126.23 84.8222 126.654 83.3366L125.569 83.3355L124.364 88.8888ZM94.0263 88.8884L95.082 88.8851L95.9017 85.1568C96.0117 84.6507 96.1639 83.8155 96.3027 83.337L95.2263 83.3348L94.0263 88.8884ZM21.513 86.5062C21.9986 86.501 22.5743 86.4682 22.9573 86.8375C23.0549 86.9322 23.1066 87.063 23.1001 87.1972C23.0867 87.467 22.8453 87.7106 22.6543 87.878C22.1464 88.1122 21.7398 88.0481 21.178 88.0305L21.513 86.5062ZM112.815 84.8301C112.874 84.9609 112.977 86.5243 113.006 86.7908H112.062L111.969 86.751C111.974 86.6439 112.712 85.106 112.815 84.8301ZM86.4136 84.8406C86.483 84.919 86.5993 86.5443 86.6306 86.7905H85.6818L85.5631 86.7561C85.5654 86.6238 86.2985 85.2144 86.4136 84.8406ZM65.0868 84.2569C65.6451 84.1976 66.5863 84.178 66.5634 85.0818C66.5551 85.4082 66.2518 85.7152 65.9944 85.9122C65.4958 86.0911 65.2225 86.0794 64.7047 86.0752C64.8452 85.4718 64.9727 84.8656 65.0868 84.2569ZM53.7125 84.2677C54.2463 84.2368 55.0546 84.2741 54.9555 85.1181C54.9212 85.4094 54.5985 85.652 54.3468 85.8018C53.959 85.8696 53.6785 85.8741 53.2886 85.8865C53.3543 85.5948 53.5818 84.4101 53.7125 84.2677ZM74.0961 84.2706C75.4742 84.1833 75.8443 85.1274 74.73 85.804C74.3312 85.8697 74.058 85.875 73.658 85.8865C73.763 85.5582 73.9236 84.4497 74.0961 84.2706ZM22.0256 84.1928C22.5162 84.1596 23.0712 84.118 23.4173 84.5238C23.7349 84.8963 23.2742 85.3396 22.9926 85.5458C22.5831 85.6981 22.1357 85.6899 21.7029 85.6964C21.8026 85.1868 21.8957 84.696 22.0256 84.1928ZM94.2964 60.6787C93.437 60.5785 92.0845 60.5094 91.237 60.6338C91.0945 60.655 90.9518 60.6818 90.8093 60.7004C87.6106 61.1177 88.0144 64.9484 87.4826 67.389H91.1376C91.2807 66.5264 91.495 63.8844 92.0612 63.4814C92.1706 63.4026 92.3088 63.3724 92.4425 63.3981C92.6238 63.4343 92.6817 63.4921 92.7749 63.6161C92.841 64.1205 92.2881 67.3182 92.1588 67.9909C90.7894 68.7353 89.118 69.4959 87.8186 70.3825C86.6325 71.1919 86.552 73.4428 86.3438 74.7511C86.2063 75.6146 85.9655 76.7542 85.8961 77.6346C85.8824 78.3247 85.9488 79.197 86.5093 79.6601C87.9249 80.8281 89.4718 80.4362 90.4299 79.0951C90.3768 79.4355 90.3139 79.8004 90.2689 80.1396L93.9143 80.1403L95.7819 68.3472L96.3119 65.0382C96.6238 63.0879 97.1887 61.0159 94.2964 60.6787ZM35.5568 62.7625C35.526 60.3151 31.9744 60.4959 30.2207 60.6334C28.1462 60.8978 27.3688 61.6523 27.0497 63.6534C26.7752 65.3749 26.511 67.1116 26.2355 68.8332L25.385 74.1405C25.187 75.379 24.861 77.0051 24.9117 78.2687C25.024 81.0672 31.6354 80.7241 32.7322 79.102C33.3757 78.1502 33.6374 75.2754 33.8464 73.9395L33.9926 73.015L30.3227 73.0143L29.872 75.9527C29.8248 76.2689 29.8309 76.6631 29.7337 76.9635C29.6846 77.1154 29.5683 77.2684 29.4373 77.3622C29.3202 77.4462 29.1448 77.5238 28.9955 77.5027C28.8793 77.4864 28.799 77.4392 28.7344 77.3463C28.4186 76.8911 29.4148 72.086 29.5237 71.2205L34.2886 71.2231L35.1584 65.7318C35.2978 64.8645 35.5672 63.6046 35.5568 62.7625ZM125.762 60.683C124.994 60.5685 123.491 60.5201 122.732 60.633C121.816 60.7692 120.689 60.9815 120.164 61.784C119.516 62.7733 119.363 64.5255 119.185 65.6568L117.8 74.4031C117.646 75.361 117.46 76.3276 117.362 77.2923C117.329 77.6299 117.32 77.9682 117.374 78.3045C117.463 78.8548 117.703 79.3329 118.172 79.6626C119.342 80.4846 121.578 80.4179 122.935 80.1928C123.809 80.0478 124.708 79.7664 125.243 79.027C125.853 78.1831 126.073 75.2824 126.27 74.1268L126.44 73.015L122.772 73.0146C122.652 73.8341 122.384 77.0039 121.836 77.4231C121.767 77.476 121.679 77.4942 121.594 77.5064C121.386 77.4642 121.313 77.4599 121.168 77.3043C120.96 76.8533 121.815 72.0069 121.987 71.2191L126.727 71.222C127.048 69.2956 127.353 67.3665 127.642 65.4352C127.955 63.3822 128.764 61.1307 125.762 60.683ZM115.112 60.6772C114.336 60.5792 113.056 60.5209 112.295 60.6312C110.467 60.9287 109.526 61.4493 109.166 63.3658C108.797 65.3272 108.518 67.3088 108.206 69.2801L107.483 73.8671C107.256 75.3133 106.318 78.8031 107.771 79.7231C108.997 80.4988 111.241 80.3499 112.638 80.1736C113.687 80.057 114.988 79.2951 115.214 78.2002C115.646 76.1047 115.898 73.9401 116.254 71.8173L112.584 71.8155L112.4 72.994C112.18 74.3053 112.026 75.6241 111.783 76.9284C111.769 77.0651 111.629 77.2501 111.573 77.3387C111.44 77.5516 110.811 77.4802 110.763 77.2887C110.619 76.717 111 74.9227 111.08 74.4158L111.807 69.7752L112.362 66.1399C112.471 65.4239 112.573 64.7171 112.723 64.0025C112.845 63.3816 113.633 63.0719 113.798 63.8652C113.892 64.3157 113.672 64.8353 113.617 65.282C113.477 66.4176 113.214 67.5952 113.1 68.7286H116.76L117.311 65.1585C117.663 62.9361 118.194 61.0672 115.112 60.6772ZM60.1973 61.198C59.1767 60.3707 57.3008 60.474 56.0504 60.503C56.0309 60.5035 55.9992 60.5112 55.9811 60.5153C52.2423 60.8898 52.4902 62.3073 51.9955 65.4558L51.2396 70.3028C51.0324 71.6739 50.8166 73.0439 50.5924 74.4125C50.0615 77.6677 49.0506 80.3261 53.7912 80.2134C54.2426 80.2027 54.6868 80.2051 55.1402 80.1519C57.0329 80.0099 58.1646 79.2264 58.5163 77.3937C58.7341 76.2586 58.9171 75.1535 59.0972 74.0116L59.9711 68.4515L60.5497 64.7246C60.664 63.9747 60.8267 63.1553 60.8123 62.3989C60.8039 61.9539 60.543 61.4769 60.1973 61.198ZM84.6142 60.6254C83.265 60.4302 82.4787 60.9512 81.6131 61.898C80.7938 60.6447 80.0344 60.5539 78.6076 60.6204C77.7888 60.859 77.4811 61.1223 76.8661 61.6847C76.9167 61.3892 76.9676 61.0433 77.0363 60.7555L73.3487 60.7504L70.2763 80.1396L73.9692 80.1417C74.6298 76.603 75.1987 72.4166 75.7474 68.8329L76.1907 65.9922C76.295 65.306 76.3867 64.6147 76.5467 63.9388C76.6261 63.6042 76.9431 63.3411 77.3012 63.3825C77.443 63.4763 77.567 63.5859 77.5746 63.7617C77.6177 64.7752 77.2694 66.2384 77.1131 67.2217C76.7669 69.4818 76.4094 71.7405 76.0401 73.9971L75.4362 77.8135C75.3406 78.4443 75.2044 79.5511 75.0556 80.1388L78.4533 80.1399L78.6714 80.1218C79.066 79.6503 80.8557 65.3868 81.3476 63.8975C81.4963 63.4458 81.862 63.1529 82.3357 63.5074C82.4538 64.1102 81.957 66.7111 81.8438 67.4382L80.8576 73.7498L80.2125 77.8395C80.1113 78.4791 79.9776 79.5187 79.822 80.1218C80.9601 80.1789 82.3558 80.1431 83.5126 80.1421L85.3876 68.1397L85.9436 64.6171C86.1811 63.122 86.8767 60.953 84.6142 60.6254ZM70.5356 61.0115C69.9885 60.5735 69.2771 60.5686 68.6027 60.6204C67.769 60.8764 67.4414 61.1607 66.8398 61.751L66.9588 60.7573L63.3197 60.75C62.3414 66.3647 61.5734 72.038 60.6246 77.6599C60.4896 78.4603 60.3279 79.3371 60.2337 80.1399L63.9106 80.141C64.149 78.9306 64.2902 77.7091 64.5033 76.5028L65.8075 68.1777C66.0118 66.8751 66.1896 65.5666 66.4102 64.268C66.4837 63.8352 66.72 63.3811 67.2203 63.3955C67.4864 63.5242 67.6461 63.8339 67.5853 64.1148C67.2548 65.6405 67.1063 67.2145 66.8068 68.742L70.4666 68.7434C70.667 67.5466 70.859 66.3484 71.0427 65.1491C71.2513 63.8327 71.7967 62.0213 70.5356 61.0115ZM107.036 64.6211C107.384 62.416 107.867 60.4488 104.633 60.6182C103.736 60.8628 103.423 61.0761 102.761 61.7325C102.797 61.428 102.831 61.0534 102.881 60.7565L99.2051 60.7515C98.9951 62.3976 98.678 64.1723 98.4162 65.8194L96.8657 75.5645C96.6532 76.9346 96.2956 78.8114 96.1543 80.1388L99.8424 80.141L102.231 65.0375C102.303 64.5497 102.461 63.226 103.232 63.3546C103.378 63.4812 103.484 63.7413 103.466 63.9051C103.317 65.3113 103.023 66.9694 102.804 68.3552L100.928 80.1392L104.606 80.1396C105.119 76.2062 105.891 71.8237 106.52 67.8714L107.036 64.6211ZM20.8001 63.3488C21.1069 63.364 21.1863 63.3744 21.3602 63.6038C21.553 64.462 20.4629 69.3977 20.3624 70.6954C20.2309 72.3939 19.6303 74.8238 19.4358 76.5941C19.3845 77.061 19.3105 77.3151 18.872 77.5266C18.6499 77.483 18.5584 77.4736 18.3657 77.3488C18.1504 77.0089 18.484 75.5301 18.5608 75.0463L19.1317 71.4563C19.524 68.9915 19.9146 66.5148 20.3116 64.0499C20.3738 63.6636 20.488 63.5558 20.8001 63.3488ZM91.595 71.3563C91.7161 71.7301 90.8039 76.2415 90.7407 76.9269C90.6914 77.463 90.3605 77.5429 89.8505 77.4079C89.8236 77.3717 89.798 77.3346 89.7749 77.296C89.5471 76.9092 90.1788 73.208 90.3476 72.58C90.5369 71.8765 90.9944 71.6977 91.595 71.3563ZM56.4058 63.3014C56.7424 63.334 57.0798 63.4128 57.013 63.8355C56.8759 64.7013 56.7364 65.567 56.5994 66.4329L55.7296 71.9321L55.2385 75.0691C55.1449 75.6984 55.0614 76.3699 54.9247 76.9918C54.8675 77.2517 54.7114 77.3197 54.48 77.4499C53.9354 77.3259 53.8428 77.2024 53.9191 76.6361C54.0658 75.5478 54.2412 74.4626 54.411 73.3775L55.3086 67.6584C55.4755 66.5981 55.6377 65.5359 55.8127 64.4769C55.895 63.9786 55.8727 63.5052 56.4058 63.3014ZM123.555 63.4126C123.784 63.3936 123.83 63.3944 124.056 63.4517C124.183 63.5576 124.272 63.6247 124.233 63.8015C124.056 64.5814 123.771 67.8087 123.45 68.324L123.266 68.3512L122.394 68.3454C122.74 66.9832 122.764 65.1311 123.213 63.778C123.253 63.6574 123.448 63.4976 123.555 63.4126ZM31.2667 63.4053C31.5338 63.4031 31.5742 63.4354 31.7318 63.5853C31.8212 63.913 31.1667 68.0497 31.0119 68.3233L30.8283 68.3479L29.9458 68.3414C30.2735 66.9535 30.3089 65.4235 30.6669 64.034C30.75 63.7112 30.8482 63.6019 31.1168 63.4097C31.1667 63.4073 31.2167 63.4059 31.2667 63.4053ZM132.132 63.544C131.409 59.8778 137.219 58.4047 138 62.7592V63.2101C137.919 63.7206 137.795 64.1236 137.504 64.5635C137.084 65.2024 136.418 65.6492 135.657 65.8027C134.878 65.9614 134.066 65.8071 133.403 65.375C132.746 64.9557 132.288 64.2961 132.132 63.544ZM134.854 60.4657C133.434 60.5646 132.365 61.7696 132.465 63.1572C132.566 64.5449 133.798 65.5904 135.218 65.4931C136.639 65.3957 137.711 64.1904 137.611 62.8016C137.51 61.4129 136.275 60.3668 134.854 60.4657ZM133.955 61.3965C134.398 61.3939 135.454 61.3256 135.795 61.5192C136.733 62.053 135.856 62.6429 135.733 62.9012C136.071 63.167 136.274 64.1238 136.155 64.4903C135.984 64.5146 135.945 64.5245 135.784 64.4686L135.706 64.264C135.562 63.1427 135.588 63.0842 134.416 63.1051C134.423 63.4139 134.476 64.2643 134.343 64.4976C134.159 64.5036 134.121 64.5343 133.978 64.4501C133.895 63.682 133.948 62.2201 133.955 61.3965ZM135.644 62.0266C135.399 61.6649 134.819 61.7598 134.416 61.7688L134.418 62.7002C134.774 62.7031 135.319 62.7381 135.632 62.5992C135.682 62.3648 135.717 62.2596 135.644 62.0266ZM51.8079 56.0011C52.056 56.0031 52.2372 56.0076 52.3639 56.0131C52.483 56.0182 52.5694 56.0246 52.615 56.0345L52.8116 56.0772L52.6465 56.6418C52.5833 56.642 52.5168 56.6442 52.4496 56.6429C52.4464 56.6596 52.4434 56.6765 52.4403 56.6932L52.4343 56.6918L52.2515 56.6407L52.3268 56.3828C52.2071 56.378 52.0368 56.3738 51.8049 56.372C51.3138 56.368 50.5494 56.3738 49.408 56.401C47.2269 56.453 46.4407 57.8628 46.3149 58.5282L46.1139 58.4917C46.1179 58.4764 46.1216 58.4609 46.1257 58.4457C46.0657 58.4449 46.0054 58.4448 45.9451 58.4442C46.1073 57.631 47.0254 56.0867 49.3987 56.0301C50.5425 56.0029 51.3113 55.9972 51.8079 56.0011ZM42.6951 56.7551L42.4985 56.7417C42.4941 56.7587 42.4903 56.7763 42.4859 56.7939H42.3153V56.5031H39.0089L38.6862 58.4898L38.5319 58.4656C38.5324 58.457 38.5334 58.4487 38.5338 58.4406C38.4804 58.4408 38.4269 58.4408 38.3735 58.441L38.3108 58.4315L38.6595 56.2887L38.6847 56.1322H42.6951V56.7551Z" fill="white"/>
</svg>
