<svg width="146" height="34" viewBox="0 0 146 34" fill="none" xmlns="http://www.w3.org/2000/svg">
<path d="M16.9611 34C7.6075 34 0 26.3718 0 16.9987C0 12.6283 1.65593 8.47481 4.66134 5.30224L4.71542 5.24546L12.8869 19.371C13.7265 20.8217 15.2897 21.7252 16.9662 21.7252C17.7903 21.7252 18.6067 21.5058 19.3252 21.0876C21.5709 19.7814 22.3383 16.8851 21.0378 14.6315C20.1982 13.1807 18.635 12.2772 16.9585 12.2772C16.1344 12.2772 15.318 12.4967 14.5995 12.9149C14.1231 13.1936 13.6955 13.555 13.335 13.9939L13.2809 14.0584L7.01773 3.23193L7.06153 3.20097C9.95875 1.10743 13.3839 0 16.9611 0C26.312 0 33.9196 7.62552 33.9196 16.9987C33.9196 26.3718 26.312 34 16.9611 34ZM4.53256 12.205C3.94023 13.7383 3.64151 15.3491 3.64151 16.9987C3.64151 24.3609 9.61626 30.3498 16.9611 30.3498C24.3059 30.3498 30.278 24.3609 30.278 16.9987C30.278 9.63644 24.3033 3.65014 16.9611 3.65014C15.2588 3.65014 13.5977 3.97281 12.019 4.60527L14.5531 8.98335C15.3309 8.74846 16.1395 8.6271 16.9559 8.6271C19.9252 8.6271 22.6963 10.225 24.1848 12.7961C26.4949 16.787 25.1351 21.9214 21.1485 24.2396C19.8763 24.9778 18.429 25.3702 16.9662 25.3702C13.9943 25.3702 11.2233 23.7723 9.7347 21.1987L4.53256 12.205Z" fill="white"/>
<path d="M137.95 27.1979C133.51 27.1979 129.899 23.6768 129.899 19.3478C129.899 15.0187 133.512 11.4976 137.95 11.4976C142.387 11.4976 146 15.0187 146 19.3478C146 23.6768 142.387 27.1979 137.95 27.1979ZM137.95 15.0678C135.622 15.0678 133.729 16.9884 133.729 19.3478C133.729 21.7072 135.622 23.6277 137.95 23.6277C140.278 23.6277 142.171 21.7072 142.171 19.3478C142.171 16.9884 140.278 15.0678 137.95 15.0678Z" fill="white"/>
<path d="M76.711 27.1979C71.9519 27.1979 68.3619 23.824 68.3619 19.3478C68.3619 14.8716 71.9749 11.4951 76.4149 11.4951C80.8548 11.4951 84.4654 15.0187 84.4654 19.3478C84.4654 19.784 84.4292 20.21 84.3624 20.6178L84.3545 20.6669H72.4001C72.9847 22.5229 74.5916 23.6278 76.7136 23.6278C77.919 23.6278 79.0674 23.1037 79.8684 22.1873L79.8941 22.1589L83.5742 23.4574L83.5357 23.5194C82.0523 25.822 79.5028 27.1979 76.7162 27.1979H76.711ZM80.4039 17.9512C79.8194 16.2242 78.2253 15.0678 76.4122 15.0678C74.5992 15.0678 73.0051 16.2242 72.4205 17.9512H80.4039Z" fill="white"/>
<path d="M48.9389 27.1979C44.3959 27.1979 40.7003 23.6743 40.7003 19.3452V6.7995H44.4861V13.2479C45.7739 12.1017 47.3729 11.4977 49.1138 11.4977C53.3298 11.4977 56.7574 15.0187 56.7574 19.3504C56.7574 23.682 53.2498 27.2005 48.9389 27.2005V27.1979ZM48.7071 15.0678C46.3842 15.0678 44.4888 16.9858 44.4861 19.3452C44.4861 21.7098 46.3789 23.6278 48.7071 23.6278C51.0352 23.6278 52.928 21.7072 52.928 19.3478C52.928 16.9884 51.0352 15.0678 48.7071 15.0678Z" fill="white"/>
<path d="M120.376 27.1979C115.833 27.1979 112.137 23.6743 112.137 19.3452V6.7995H115.923V13.2479C117.213 12.1017 118.81 11.4977 120.551 11.4977C124.767 11.4977 128.194 15.0187 128.194 19.3504C128.194 23.682 124.687 27.2005 120.376 27.2005V27.1979ZM120.144 15.0678C117.821 15.0678 115.926 16.9858 115.923 19.3452C115.923 21.7098 117.816 23.6278 120.144 23.6278C122.472 23.6278 124.365 21.7072 124.365 19.3478C124.365 16.9884 122.472 15.0678 120.144 15.0678Z" fill="white"/>
<path d="M58.8718 26.9062V16.836C58.8718 13.7254 60.8212 11.7919 63.9556 11.7919H67.615V15.4369H64.9907C63.7804 15.4369 62.6626 15.6925 62.6626 17.5433V26.9062H58.8691H58.8718Z" fill="white"/>
<path d="M106.196 26.9062V19.0019C106.196 16.3172 104.545 15.3647 103.134 15.3647C102.616 15.3647 100.03 15.535 100.03 18.8883V26.9062H96.2604V18.8883C96.2604 15.535 93.6747 15.3647 93.157 15.3647C91.7434 15.3647 90.095 16.3172 90.095 19.0019V26.9062H86.4096V17.9538C86.4096 13.9294 89.7423 11.5261 92.964 11.5261C94.9934 11.5261 96.9247 12.4296 98.1479 13.9475C99.3688 12.4296 101.303 11.5261 103.332 11.5261C106.554 11.5261 109.889 13.932 109.889 17.9538V26.9062H106.196Z" fill="white"/>
</svg>
