<svg width="141" height="28" viewBox="0 0 141 28" fill="none" xmlns="http://www.w3.org/2000/svg">
<path d="M100.027 7.46304L101.985 10.9494H95.708L98.8555 5.35668L100.045 7.46304H100.027ZM95.1224 0.544747V0.599222L96.6047 2.05188L88.4796 16.5058L86.9973 17.9585V18.013H93.5669V17.9585L92.5604 16.5058L93.695 14.4903H103.998L105.114 16.5058L104.108 17.9585V18.013H110.677V17.9585L109.195 16.5058L101.07 2.05188L102.552 0.599222V0.544747H95.1041H95.1224ZM56.583 4.0856C57.7176 4.0856 58.6509 4.99351 58.6509 6.13748C58.6509 6.57328 58.5228 6.97276 58.2849 7.29961C57.9555 7.77172 57.4065 8.09857 56.8026 8.17121H47.9272V4.0856H56.583ZM56.4183 0.544747H42.8215V0.61738L44.3038 2.07004V16.524L42.8215 17.9767V18.0311H49.4095V17.9767L47.9272 16.524V11.6939H53.6367L57.7359 17.1595L57.4797 18.0311H63.665V17.9767L61.7069 16.524L57.9738 11.5305C58.23 11.476 58.4679 11.3852 58.7058 11.2944C59.328 11.0402 59.877 10.6952 60.3711 10.2594C61.5056 9.24254 62.201 7.77172 62.201 6.13748C62.201 3.39559 60.2247 1.10765 57.5895 0.635538C57.2601 0.581064 56.9124 0.544747 56.5647 0.544747C56.5098 0.544747 56.4732 0.544747 56.4183 0.544747ZM120.431 4.0856H125.5C126.635 4.0856 127.568 4.99351 127.568 6.13748C127.568 6.79118 127.275 7.37224 126.799 7.73541C126.507 7.97147 126.141 8.11673 125.738 8.17121H116.863V4.0856H120.468H120.431ZM125.427 0.544747C125.427 0.544747 125.372 0.544747 125.354 0.544747H111.757V0.61738L113.239 2.07004V16.524L111.757 17.9767V18.0311H118.327V17.9767L116.844 16.524V11.6939H122.554L126.653 17.1595L126.397 18.0311H132.582V17.9767L130.624 16.524L126.891 11.5305C128.94 11.0039 130.551 9.36965 131.008 7.31777C131.1 6.93645 131.136 6.51881 131.136 6.11933C131.136 5.28405 130.953 4.50324 130.624 3.81323C129.746 1.88846 127.769 0.544747 125.5 0.544747C125.482 0.544747 125.445 0.544747 125.427 0.544747ZM72.2476 4.0856H79.5859C80.7204 4.0856 81.6537 4.99351 81.6537 6.13748C81.6537 6.77302 81.3426 7.35409 80.8851 7.73541C80.5923 7.97147 80.208 8.13489 79.8055 8.17121H70.93V4.0856H72.2659H72.2476ZM79.4395 0.544747H65.8427V0.61738L67.325 2.07004V16.524L65.8427 17.9767V18.0311H72.4123V17.9767L70.93 16.524V11.6939H76.6396L80.7387 17.1595L80.4825 18.0311H86.6679V17.9767L84.7098 16.524L80.9766 11.5305C83.4105 10.9131 85.2222 8.73411 85.2222 6.11933C85.2222 3.03243 82.6968 0.526589 79.5859 0.526589C79.531 0.526589 79.4944 0.526589 79.4395 0.526589M139.353 0.544747H134.43V0.599222L135.913 2.05188V16.5058L134.43 17.9585V18.013H141V17.9585L139.518 16.5058V2.07004L141 0.61738V0.562905H139.353V0.544747ZM16.8541 0.544747H0V0.599222L1.48228 2.05188V16.5058L0 17.9585V18.013H6.56963V17.9585L5.08735 16.5058V10.6044H13.1576L15.2803 11.4578L15.3352 11.4215L13.8713 6.48249H13.8164L13.3406 7.08171H5.10565V4.04929H16.6528L18.8122 4.90272L18.8671 4.86641L17.4031 0H17.3482L16.8724 0.526589L16.8541 0.544747ZM38.4479 0H38.393L37.9172 0.526589H21.0631V0.581064L22.5454 2.03372V16.4877L21.0631 17.9403V17.9948H38.4479L40.2047 13.4008L40.1498 13.3645L37.6976 14.4721H26.1504V10.5863H34.184L36.3434 11.4397L36.3983 11.4034L34.9343 6.46433H34.8794L34.4036 7.06355H26.1504V4.03113H37.6976L39.857 4.88457L39.9119 4.84825L38.4479 0ZM54.5883 27.891H53.655V24.1141H51.8433V23.2244H56.4V24.1141H54.5883V27.891ZM60.7737 26.0571H59.4195V27.8729H58.4862V23.2062H61.1762C61.1762 23.2062 61.3409 23.2062 61.4324 23.2062C61.5239 23.2062 61.6337 23.2244 61.7252 23.2607C61.835 23.2789 61.9265 23.3333 62.018 23.3878C62.1095 23.4423 62.2193 23.5149 62.3108 23.6057C62.4755 23.7691 62.567 23.9326 62.6219 24.1323C62.6768 24.332 62.6951 24.4955 62.6951 24.6589C62.6951 24.786 62.6951 24.9313 62.6402 25.0765C62.6036 25.2218 62.5304 25.3671 62.4206 25.5123C62.2559 25.7121 62.0363 25.8755 61.7618 25.9663L62.8781 27.8729H61.835L60.7554 26.0571H60.7737ZM61.3775 25.1492C61.3775 25.1492 61.5422 25.0947 61.5971 25.022C61.652 24.9676 61.6886 24.9131 61.7069 24.8405C61.7252 24.7678 61.7435 24.6952 61.7435 24.6226C61.7435 24.5136 61.7252 24.4228 61.6886 24.3502C61.652 24.2776 61.5971 24.2412 61.5605 24.2049C61.4873 24.1505 61.4141 24.1323 61.3226 24.1323C61.2311 24.1323 61.1396 24.1323 61.0482 24.1323H59.4195V25.2036H61.1214C61.1214 25.2036 61.286 25.2036 61.3775 25.1855M65.4035 23.2244H69.1916V24.1141H66.3368V24.9676H68.0753V25.8392H66.3368V27.0013H69.3563V27.8729H65.4035V23.2062V23.2244ZM72.8332 24.9857V27.8729H71.8999V23.2062H72.4672L75.0475 26.0934V23.2062H75.9808V27.8729H75.4135L72.8149 24.9857H72.8332ZM80.757 27.891H79.8237V24.1141H78.0121V23.2244H82.5687V24.1141H80.757V27.891ZM86.7228 28C86.3751 28 86.0457 27.9455 85.7529 27.8184C85.4601 27.6913 85.2039 27.5279 84.9843 27.31C84.7647 27.0921 84.6 26.8379 84.4719 26.5473C84.3438 26.2568 84.2889 25.93 84.2889 25.5668C84.2889 25.2036 84.3438 24.8949 84.4719 24.5863C84.6 24.2957 84.7647 24.0233 84.9843 23.8236C85.2039 23.6057 85.4601 23.4423 85.7529 23.3152C86.0457 23.1881 86.3751 23.1336 86.7228 23.1336C87.0705 23.1336 87.3999 23.1881 87.6927 23.3152C87.9855 23.4423 88.2417 23.6057 88.4613 23.8236C88.6809 24.0415 88.8456 24.2957 88.9736 24.5863C89.1017 24.8768 89.1567 25.2036 89.1567 25.5668C89.1567 25.93 89.1017 26.2387 88.9736 26.5473C88.8456 26.856 88.6809 27.1102 88.4613 27.31C88.2417 27.5279 87.9855 27.6913 87.6927 27.8184C87.3999 27.9455 87.0705 28 86.7228 28ZM86.7228 24.0233C86.5215 24.0233 86.3202 24.0597 86.1372 24.1323C85.9542 24.2049 85.8078 24.3139 85.6614 24.441C85.5333 24.5681 85.4235 24.7315 85.3503 24.9313C85.2771 25.1128 85.2405 25.3307 85.2405 25.5486C85.2405 25.7665 85.2771 25.9844 85.3503 26.166C85.4235 26.3476 85.5333 26.511 85.6614 26.6563C85.7895 26.8016 85.9542 26.8923 86.1372 26.965C86.3202 27.0376 86.5032 27.0739 86.7228 27.0739C86.9424 27.0739 87.1254 27.0376 87.3084 26.965C87.4914 26.8923 87.6378 26.7834 87.7842 26.6563C87.9123 26.5292 88.0221 26.3658 88.0953 26.166C88.1685 25.9844 88.2051 25.7665 88.2051 25.5486C88.2051 25.3307 88.1685 25.1128 88.0953 24.9313C88.0221 24.7497 87.9123 24.5863 87.7842 24.441C87.6561 24.3139 87.4914 24.2049 87.3084 24.1323C87.1254 24.0597 86.9241 24.0233 86.7228 24.0233Z" fill="white"/>
</svg>
