<svg width="85" height="131" viewBox="0 0 85 131" fill="none" xmlns="http://www.w3.org/2000/svg">
<path d="M42.2547 0H44.1656C52.8937 0.77094 56.8532 5.11624 61.6906 12.887C66.2641 20.2401 70.7803 27.637 75.239 35.0778C75.3157 35.2011 75.4214 35.3027 75.5463 35.3731C75.6712 35.4436 75.8112 35.4806 75.9534 35.4808H81.7722C82.6282 35.4808 83.4492 35.8269 84.0546 36.443C84.6599 37.0591 85 37.8947 85 38.766V92.2062C85 93.0775 84.6599 93.9131 84.0546 94.5292C83.4492 95.1453 82.6282 95.4914 81.7722 95.4914H75.1443C74.8746 95.4914 74.668 95.6053 74.5246 95.8331C69.1247 104.547 63.6704 113.226 58.1615 121.87C50.0273 134.66 33.1392 133.679 25.2977 121.011C20.1274 112.659 14.9543 104.29 9.77823 95.9032C9.7091 95.7897 9.6133 95.6952 9.49924 95.628C9.38517 95.5607 9.25634 95.5229 9.12405 95.5177C5.68101 95.4126 1.40304 96.8143 0 92.5654V38.5207C1.49772 34.2192 6.48152 35.4983 9.89873 35.472C10.0313 35.4717 10.1614 35.4379 10.2772 35.3736C10.393 35.3093 10.4908 35.2166 10.5615 35.1041C15.8925 26.5595 21.2177 18.0178 26.5372 9.47906C30.1581 3.67365 35.3973 0.51396 42.2547 0ZM73.6035 37.96C68.1865 29.0358 62.7178 20.1437 57.1975 11.2838C51.9813 2.91731 41.2218 0.148932 33.4147 6.14124C31.653 7.49038 29.3117 10.4982 26.3909 15.1647C21.6338 22.7457 16.9053 30.3558 12.2056 37.9951C12.0678 38.217 11.8727 38.328 11.6203 38.328L3.46025 38.3367C3.28219 38.3367 3.11142 38.4087 2.98551 38.5369C2.8596 38.665 2.78886 38.8389 2.78886 39.0201L2.80608 42.1389C2.80833 42.2907 2.86827 42.4355 2.97296 42.542C3.07764 42.6486 3.21866 42.7083 3.36557 42.7083H81.6689C82.0304 42.7083 82.2111 42.5244 82.2111 42.1564L82.1939 38.8974C82.1917 38.7456 82.1317 38.6008 82.027 38.4943C81.9224 38.3877 81.7813 38.328 81.6344 38.328H74.2405C73.9593 38.328 73.747 38.2053 73.6035 37.96ZM12.0334 57.3737C12.1969 57.3686 12.3569 57.4221 12.4856 57.5249C12.6142 57.6277 12.7032 57.7733 12.7371 57.9361C12.7709 58.099 12.7474 58.2688 12.6707 58.4158C12.594 58.5628 12.469 58.6777 12.3175 58.7404C3.70127 62.0519 3.34835 50.3214 10.5615 51.3551C12.0248 51.5741 12.9889 51.2763 13.2729 49.7344C13.3303 49.4541 13.2299 49.2496 12.9716 49.1211C1.87646 43.6457 -1.73873 62.1483 8.96051 62.6126C12.877 62.7791 16.0704 60.0632 16.5524 56.0684C16.5793 55.8486 16.5602 55.6256 16.4963 55.4141C16.4324 55.2026 16.3253 55.0075 16.1819 54.8417C16.0386 54.676 15.8624 54.5434 15.6651 54.4528C15.4678 54.3622 15.2538 54.3156 15.0375 54.3162H10.5787C10.1974 54.3307 9.83568 54.4919 9.56663 54.7673C9.29758 55.0427 9.14125 55.4118 9.12923 55.8C9.11721 56.1882 9.25039 56.5665 9.50187 56.8587C9.75334 57.1508 10.1044 57.3348 10.4841 57.3737C10.9374 57.4029 11.4538 57.4029 12.0334 57.3737ZM25.0395 59.7306C25.9921 60.3205 26.6778 61.1469 27.0967 62.2099C27.2115 62.496 27.4209 62.6391 27.7251 62.6391H30.1352C30.5024 62.6391 30.5857 62.4814 30.3848 62.1661L28.7063 59.4502C28.5514 59.1991 28.5944 58.9889 28.8354 58.8195C32.7089 56.0861 32.158 50.7159 28.1641 48.7535C26.5286 47.9475 24.3423 48.1227 22.5261 48.2015C22.1394 48.2174 21.7737 48.385 21.5058 48.6691C21.2378 48.9533 21.0883 49.332 21.0886 49.7259V62.0872C21.0886 62.4552 21.2694 62.6391 21.6309 62.6391H23.4213C23.8344 62.6391 24.0525 62.4289 24.0754 62.0084L24.1615 60.2037C24.1661 60.1017 24.1968 60.0027 24.2505 59.9164C24.3042 59.8302 24.3791 59.7597 24.4678 59.712C24.5564 59.6642 24.6558 59.6408 24.7561 59.6441C24.8563 59.6473 24.954 59.6771 25.0395 59.7306ZM44.9144 50.006C44.0967 46.9222 39.9651 47.8246 39.0957 50.9259C38.0685 54.6112 37.0758 58.3169 36.1175 62.0432C36.0142 62.4403 36.1634 62.6389 36.5651 62.6389H38.4329C38.6028 62.6384 38.7677 62.5805 38.9017 62.4743C39.0357 62.368 39.1312 62.2194 39.1732 62.0519L39.681 60.1421C39.7384 59.9085 39.8876 59.7917 40.1286 59.7917H43.9762C44.3148 59.7917 44.5242 59.9581 44.6046 60.291L45.0608 62.1045C45.0975 62.2573 45.1837 62.3932 45.3055 62.4901C45.4272 62.587 45.5775 62.6395 45.7322 62.6389H47.7635C48.0964 62.6389 48.2197 62.4724 48.1337 62.1395C47.0549 58.0687 45.9818 54.0242 44.9144 50.006ZM60.6663 55.7355L55.9235 48.5342C55.7275 48.239 55.4434 48.0151 55.1132 47.8955C54.783 47.776 54.4242 47.7671 54.0896 47.8701C53.755 47.9732 53.4623 48.1827 53.2548 48.4679C53.0472 48.7531 52.9357 49.0988 52.9367 49.4541V62.0957C52.9367 62.4637 53.1175 62.6476 53.479 62.6476L55.3985 62.6214C55.7657 62.6155 55.9494 62.4257 55.9494 62.0519V55.1835C55.9484 55.1112 55.9706 55.0405 56.0127 54.9821C56.0548 54.9238 56.1143 54.881 56.1824 54.8602C56.2505 54.8394 56.3234 54.8418 56.3901 54.8669C56.4568 54.8921 56.5136 54.9386 56.5519 54.9996L61.1139 62.1833C61.3199 62.5055 61.6223 62.7516 61.9765 62.8849C62.3307 63.0183 62.7177 63.0319 63.0801 62.9237C63.4425 62.8155 63.761 62.5913 63.9882 62.2844C64.2155 61.9774 64.3395 61.604 64.3418 61.2196V48.7269C64.3418 48.359 64.161 48.175 63.7995 48.175L61.7767 48.2013C61.3348 48.2013 61.1139 48.4261 61.1139 48.8759V55.5953C61.1139 56.1443 60.9647 56.191 60.6663 55.7355ZM78.157 49.8308C77.5028 47.6581 74.8775 47.9034 73.397 48.8846C73.164 49.0428 72.9958 49.2793 72.9235 49.5504L69.558 62.0607C69.4547 62.4461 69.601 62.6389 69.997 62.6389H71.9165C72.2378 62.6389 72.4501 62.4841 72.5534 62.1746L73.199 60.2385C73.2965 59.9406 73.5003 59.7917 73.8101 59.7917H77.5114C77.8385 59.7917 78.0336 59.9552 78.0967 60.2823L78.4496 62.0957C78.4795 62.2446 78.5584 62.3783 78.6729 62.4742C78.7875 62.57 78.9306 62.622 79.078 62.6214L81.1266 62.6476C81.2007 62.649 81.2741 62.6327 81.341 62.5999C81.4079 62.5671 81.4666 62.5187 81.5124 62.4585C81.5582 62.3984 81.5899 62.328 81.6051 62.2529C81.6203 62.1778 81.6186 62.1001 81.6 62.0256C80.5212 57.8731 79.3735 53.8081 78.157 49.8308ZM6.26633 79.95C9.9762 80.2479 12.8942 77.9 12.8081 74.0365C12.6962 69.4459 7.15291 66.9229 3.32253 68.7626C3.16565 68.8387 3.0331 68.9589 2.94019 69.1092C2.84728 69.2596 2.79781 69.434 2.79747 69.6124V82.3592C2.79747 82.8031 3.01553 83.0221 3.45165 83.0162L5.25924 82.99C5.6265 82.9841 5.81013 82.7943 5.81013 82.4205V80.3793C5.81013 80.0697 5.96219 79.9266 6.26633 79.95ZM17.4049 80.1609H21.5366C21.6644 80.1609 21.787 80.2126 21.8774 80.3046C21.9678 80.3966 22.0186 80.5214 22.0186 80.6515C22.0301 82.6081 23.0027 83.3761 24.9366 82.9556C25.3268 82.868 25.4731 82.6256 25.3755 82.2285C24.3771 78.3679 23.3843 74.5366 22.3973 70.7344C21.9325 68.9414 20.848 68.1413 19.1436 68.334C17.052 68.5705 16.6905 70.1475 16.1826 71.9259C15.1842 75.4068 14.2488 78.9228 13.3766 82.4738C13.358 82.5465 13.3571 82.6227 13.3739 82.6959C13.3907 82.769 13.4246 82.837 13.4729 82.8938C13.5211 82.9507 13.5822 82.9948 13.6509 83.0223C13.7196 83.0499 13.7938 83.06 13.8672 83.052L15.7953 82.868C15.9521 82.8529 16.1007 82.7885 16.2209 82.6835C16.341 82.5784 16.4268 82.4379 16.4667 82.281L16.9057 80.5552C16.9688 80.2923 17.1352 80.1609 17.4049 80.1609ZM27.9833 69.5861V81.7635C27.9833 82.0887 28.1103 82.4007 28.3362 82.6307C28.5622 82.8607 28.8688 82.99 29.1884 82.99H31.0132C33.0038 82.99 34.913 82.2359 36.3206 80.8936C37.7282 79.5513 38.519 77.7308 38.519 75.8325V75.5171C38.519 73.6188 37.7282 71.7983 36.3206 70.456C34.913 69.1137 33.0038 68.3596 31.0132 68.3596H29.1884C28.8688 68.3596 28.5622 68.4888 28.3362 68.7188C28.1103 68.9489 27.9833 69.2608 27.9833 69.5861ZM43.8901 80.1602H48.0218C48.2972 80.1602 48.4636 80.2975 48.521 80.572L48.8653 82.2541C48.9514 82.6629 49.1981 82.8819 49.6056 82.9111L51.5423 83.0425C51.9612 83.0717 52.1161 82.8819 52.0071 82.4731C51.043 78.7994 50.0732 75.117 49.0977 71.4258C48.4263 68.9115 46.9114 67.7201 44.4152 68.7451C44.1211 68.865 43.8584 69.0524 43.6478 69.2926C43.4372 69.5327 43.2844 69.8192 43.2015 70.1293L39.8876 82.5607C39.79 82.9286 39.9306 83.0951 40.3094 83.06L42.4699 82.8585C42.8371 82.8235 43.0466 82.6191 43.0982 82.2453L43.3134 80.6684C43.3358 80.527 43.4061 80.3983 43.5117 80.3053C43.6173 80.2122 43.7514 80.1608 43.8901 80.1602ZM57.9291 75.3944C59.883 77.9788 61.4496 82.9111 65.0648 82.9637C65.4435 82.9695 65.6329 82.7797 65.6329 82.3942V68.7363C65.6329 68.4209 65.478 68.272 65.1681 68.2895L63.197 68.4297C62.8125 68.4589 62.6203 68.6662 62.6203 69.0517V75.9902C62.6199 76.0507 62.6003 76.1095 62.5644 76.1578C62.5285 76.2061 62.4782 76.2413 62.4211 76.258C62.3639 76.2748 62.3029 76.2723 62.2473 76.2508C62.1917 76.2294 62.1443 76.1902 62.1124 76.1391C60.6663 73.8964 58.0582 67.9566 54.9681 68.3596C54.6181 68.4063 54.443 68.6078 54.443 68.9641V82.5256C54.443 82.952 54.6496 83.133 55.0628 83.0688L56.9048 82.7709C57.2721 82.7125 57.4557 82.4935 57.4557 82.1139V75.5521C57.4557 75.0206 57.6135 74.9681 57.9291 75.3944ZM82.6754 75.6578C82.6754 73.7479 81.93 71.9162 80.6031 70.5657C79.2762 69.2152 77.4765 68.4565 75.6 68.4565C73.7234 68.4565 71.9238 69.2152 70.5969 70.5657C69.27 71.9162 68.5245 73.7479 68.5245 75.6578C68.5245 77.5677 69.27 79.3994 70.5969 80.7499C71.9238 82.1004 73.7234 82.8591 75.6 82.8591C77.4765 82.8591 79.2762 82.1004 80.6031 80.7499C81.93 79.3994 82.6754 77.5677 82.6754 75.6578ZM28.1296 120.293C33.1306 128.44 44.6906 130.657 52.0071 124.7C53.5966 123.409 55.6395 120.763 58.1357 116.762C63.0592 108.866 67.9742 100.958 72.8805 93.0385C72.954 92.9176 73.0566 92.818 73.1787 92.749C73.3007 92.6799 73.4381 92.6439 73.5777 92.6442H81.1266C81.4119 92.6442 81.6856 92.5288 81.8874 92.3235C82.0892 92.1181 82.2025 91.8396 82.2025 91.5491V88.9209C82.2025 88.6289 82.0591 88.4829 81.7722 88.4829H3.22785C2.93519 88.4829 2.78886 88.6318 2.78886 88.9297L2.80608 91.8645C2.80834 92.0721 2.89187 92.2704 3.03852 92.4164C3.18517 92.5624 3.38311 92.6443 3.58937 92.6442H10.7509C11.0321 92.6442 11.2473 92.764 11.3965 93.0034C16.9684 102.115 22.5462 111.211 28.1296 120.293Z" fill="white"/>
<path d="M46.1025 9.58686C49.9674 10.7258 51.2757 13.2926 53.8752 17.3926C58.1733 24.1909 62.4225 30.9629 66.623 37.7087C66.8813 38.1233 66.7694 38.3307 66.2874 38.3307H19.5653C19.112 38.3307 19.0087 38.1379 19.2555 37.7525C23.8519 30.4694 28.4943 23.1747 33.1825 15.8683C36.5137 10.6732 40.0772 7.8172 46.1025 9.58686Z" fill="white"/>
<path d="M24.1013 51.7308C24.1012 51.5975 24.1527 51.4696 24.2444 51.3745C24.3362 51.2795 24.461 51.2249 24.5919 51.2226H25.5215C25.8999 51.2215 26.2748 51.2879 26.6246 51.4181C26.9745 51.5484 27.2925 51.7399 27.5604 51.9816C27.8283 52.2233 28.0408 52.5105 28.1857 52.8268C28.3307 53.1431 28.4052 53.4821 28.4051 53.8246V54.1049C28.4048 54.7934 28.1029 55.4539 27.5656 55.9416C27.0284 56.4293 26.2995 56.7045 25.5387 56.7068H24.6091C24.5428 56.708 24.477 56.6957 24.4154 56.6707C24.3539 56.6457 24.2978 56.6084 24.2505 56.5611C24.2032 56.5138 24.1657 56.4574 24.1401 56.3952C24.1144 56.333 24.1013 56.2662 24.1013 56.1987V51.7308Z" fill="white"/>
<path d="M75.3498 51.6883C75.3628 51.6428 75.39 51.6028 75.4273 51.5744C75.4645 51.546 75.5098 51.5306 75.5564 51.5306C75.6029 51.5306 75.6482 51.546 75.6855 51.5744C75.7227 51.6028 75.7499 51.6428 75.763 51.6883L77.0111 56.2439C77.0971 56.5651 76.9766 56.7257 76.6495 56.7257H74.7042C74.2853 56.7257 74.1275 56.5184 74.2308 56.1037L75.3498 51.6883Z" fill="white"/>
<path d="M41.8249 52.1442C41.8429 52.0854 41.879 52.034 41.9277 51.9975C41.9765 51.961 42.0355 51.9413 42.096 51.9413C42.1566 51.9413 42.2155 51.961 42.2643 51.9975C42.3131 52.034 42.3491 52.0854 42.3672 52.1442L43.4862 56.0953C43.506 56.1694 43.5088 56.2471 43.4943 56.3225C43.4799 56.3978 43.4485 56.4688 43.4027 56.5298C43.3569 56.5908 43.2979 56.6403 43.2303 56.6743C43.1626 56.7084 43.0882 56.726 43.0127 56.726H41.1621C40.7662 56.726 40.6198 56.5333 40.7231 56.1478L41.8249 52.1442Z" fill="white"/>
<path d="M30.9978 71.9182C30.9978 71.8691 31.0074 71.8206 31.0262 71.7753C31.0449 71.7301 31.0723 71.6892 31.1067 71.6549C31.1412 71.6206 31.1821 71.5937 31.227 71.5757C31.2718 71.5577 31.3198 71.5491 31.368 71.5502H31.4799C32.5459 71.5549 33.5665 71.9849 34.3172 72.7456C35.0678 73.5063 35.4869 74.5353 35.4824 75.6064V75.7291C35.4802 76.2595 35.374 76.7842 35.1699 77.2733C34.9658 77.7625 34.6678 78.2064 34.2929 78.5798C33.918 78.9532 33.4736 79.2488 32.9851 79.4496C32.4965 79.6504 31.9733 79.7526 31.4454 79.7502H31.3335C31.2391 79.748 31.1494 79.7082 31.0834 79.6394C31.0175 79.5707 30.9806 79.4784 30.9806 79.3823L30.9978 71.9182Z" fill="white"/>
<path d="M5.80717 72.1519C5.80717 72.0032 5.86521 71.8606 5.96852 71.7554C6.07183 71.6503 6.21195 71.5912 6.35805 71.5912L6.94337 71.6C7.71468 71.6027 8.45352 71.8718 8.99747 72.3482C9.54142 72.8247 9.84596 73.4693 9.84413 74.1406V74.3508C9.84323 74.6834 9.76703 75.0126 9.61987 75.3194C9.47272 75.6262 9.25751 75.9048 8.98653 76.1391C8.71554 76.3734 8.39411 76.5589 8.04058 76.685C7.68705 76.811 7.30836 76.8752 6.92615 76.8739L6.34084 76.8651C6.19473 76.8651 6.05461 76.8061 5.9513 76.7009C5.84799 76.5958 5.78995 76.4532 5.78995 76.3045L5.80717 72.1519Z" fill="white"/>
<path d="M75.6002 79.7318C77.8108 79.7318 79.6028 77.9079 79.6028 75.6581C79.6028 73.4082 77.8108 71.5844 75.6002 71.5844C73.3897 71.5844 71.5977 73.4082 71.5977 75.6581C71.5977 77.9079 73.3897 79.7318 75.6002 79.7318Z" fill="white"/>
<path d="M18.0306 76.5359L19.098 72.1906C19.1124 72.1279 19.1471 72.0719 19.1964 72.0316C19.2456 71.9912 19.3068 71.9687 19.3701 71.9677C19.4333 71.9667 19.4951 71.9872 19.5456 72.026C19.5961 72.0648 19.6325 72.1197 19.6489 72.1819L20.8195 76.5009C20.8298 76.5428 20.8307 76.5865 20.8223 76.6288C20.8138 76.6712 20.7961 76.711 20.7705 76.7455C20.7449 76.7799 20.7121 76.8081 20.6744 76.8279C20.6367 76.8478 20.5951 76.8588 20.5526 76.8601L18.3061 76.8951C18.2629 76.8951 18.2203 76.8851 18.1816 76.8658C18.1428 76.8465 18.1088 76.8185 18.0823 76.7839C18.0557 76.7493 18.0373 76.7089 18.0283 76.666C18.0194 76.623 18.0202 76.5785 18.0306 76.5359Z" fill="white"/>
<path d="M44.5622 76.4893L45.75 72.1703C45.767 72.1104 45.8031 72.0579 45.8526 72.0213C45.9022 71.9846 45.9623 71.9658 46.0235 71.9678C46.0848 71.9698 46.1436 71.9925 46.1907 72.0324C46.2378 72.0722 46.2705 72.1269 46.2837 72.1878L47.2822 76.5594C47.2913 76.601 47.2911 76.6441 47.2814 76.6856C47.2717 76.727 47.2529 76.7657 47.2263 76.7986C47.1998 76.8316 47.1662 76.8579 47.1282 76.8756C47.0901 76.8934 47.0486 76.9021 47.0067 76.901L44.8204 76.8485C44.7781 76.8475 44.7366 76.8367 44.6991 76.8168C44.6616 76.7969 44.6291 76.7685 44.6042 76.7338C44.5792 76.699 44.5624 76.6589 44.5551 76.6165C44.5479 76.5741 44.5503 76.5306 44.5622 76.4893Z" fill="white"/>
<path d="M47.1493 120.573C43.9903 122.623 37.13 122.65 34.3584 118.374C28.9356 109.993 23.6104 101.618 18.3827 93.2488C18.3462 93.1894 18.3262 93.1213 18.3248 93.0514C18.3235 92.9814 18.3408 92.9121 18.3749 92.8506C18.4091 92.7891 18.4589 92.7376 18.5192 92.7013C18.5796 92.6651 18.6483 92.6454 18.7184 92.6443H65.6384C65.6988 92.6432 65.7582 92.6592 65.8103 92.6904C65.8623 92.7216 65.9051 92.7669 65.9342 92.8216C65.9633 92.8763 65.9775 92.9383 65.9754 93.0011C65.9734 93.064 65.9551 93.1253 65.9224 93.1787C61.808 99.5973 57.6993 106.057 53.5964 112.557C50.8706 116.879 48.7216 119.551 47.1493 120.573Z" fill="white"/>
</svg>
