<svg width="135" height="27" viewBox="0 0 135 27" fill="none" xmlns="http://www.w3.org/2000/svg">
<path fill-rule="evenodd" clip-rule="evenodd" d="M13.6389 27C6.13891 27 0 20.9448 0 13.4395C0 6.05524 6.13891 0 13.6389 0C21.2342 0 27.3731 6.05524 27.3731 13.4395C27.3731 20.9448 21.2342 27 13.6389 27ZM13.6389 21.3476C18.1036 21.3476 21.6426 17.8568 21.6426 13.4395C21.6426 9.12978 18.1036 5.63898 13.6389 5.63898C9.25595 5.63898 5.7169 9.12978 5.7169 13.4395C5.7169 17.8568 9.25595 21.3476 13.6389 21.3476Z" fill="white"/>
<path fill-rule="evenodd" clip-rule="evenodd" d="M97.7455 27C90.2456 27 84.1067 20.9448 84.1067 13.4395C84.1067 6.05524 90.2456 0 97.7455 0C105.341 0 111.48 6.05524 111.48 13.4395C111.48 20.9448 105.341 27 97.7455 27ZM97.7455 21.3476C102.21 21.3476 105.749 17.8568 105.749 13.4395C105.749 9.12978 102.21 5.63898 97.7455 5.63898C93.3626 5.63898 89.8236 9.12978 89.8236 13.4395C89.8236 17.8568 93.3626 21.3476 97.7455 21.3476Z" fill="white"/>
<path fill-rule="evenodd" clip-rule="evenodd" d="M28.9406 0.820945V26.3844H34.6574V5.54696H41.0141V26.3844H46.731V5.54696H48.9225C51.2093 5.54696 52.9788 7.29234 52.9788 9.4406V26.3844H58.7093V9.64199C58.7093 4.6206 54.6531 0.606124 49.5487 0.606124H34.7664C32.7927 0.606124 30.8053 0.606119 28.9406 0.820945Z" fill="white"/>
<path fill-rule="evenodd" clip-rule="evenodd" d="M113.044 0.820945V26.3844H118.761V5.54696H125.227C127.405 5.54696 129.283 7.29234 129.283 9.4406V26.3844H135V9.64199C135 4.6206 130.944 0.606124 125.839 0.606124H118.761C116.896 0.606124 114.909 0.606119 113.044 0.820945Z" fill="white"/>
<path fill-rule="evenodd" clip-rule="evenodd" d="M61.1014 0.820945V26.3844H66.8183V5.54696H73.5833C75.8837 5.54696 77.6532 7.29234 77.6532 9.4406C77.6532 11.6962 75.8837 13.4415 73.5833 13.4415H68.6967L77.5443 26.3844H84.6224L78.1704 17.0397C81.2875 15.9119 83.3701 12.9314 83.3701 9.4406C83.3701 4.6206 79.4227 0.606124 74.4136 0.606124H66.8183C64.8446 0.606124 62.9662 0.606119 61.1014 0.820945Z" fill="white"/>
</svg>
