<svg width="92" height="67" viewBox="0 0 92 67" fill="none" xmlns="http://www.w3.org/2000/svg">
<path d="M23.8803 32.088C28.6062 31.4735 32.9348 34.814 33.5516 39.5516C34.1683 44.2892 30.8399 48.6317 26.1151 49.254C21.3848 49.8769 17.0473 46.5352 16.4298 41.7921C15.8123 37.0491 19.149 32.7031 23.8803 32.088ZM25.5689 45.9805C28.4758 45.6605 30.5799 43.0477 30.2791 40.1311C29.9782 37.2147 27.3853 35.0888 24.4745 35.3721C21.5378 35.658 19.3944 38.2859 19.698 41.2284C20.0015 44.1708 22.6359 46.3033 25.5689 45.9805Z" fill="white"/>
<path d="M65.3407 49.7853L70.4454 49.7616C71.497 49.7589 74.032 49.6953 74.9882 49.9427C81.9221 51.736 82.9416 61.5635 77.2067 65.5401C74.6724 67.3494 68.5576 66.4242 65.2857 66.7018C65.3266 65.8991 65.3135 64.4843 65.2672 63.6812C65.9572 63.6538 66.6903 63.6687 67.3839 63.6715C67.358 63.2572 67.3668 62.7701 67.375 62.3497C67.4378 59.1622 67.2775 55.9069 67.4173 52.7267C66.7483 52.7092 65.9599 52.6967 65.3024 52.7605C65.3198 52.2643 65.2518 50.1429 65.3407 49.7853ZM70.2872 63.7068C72.2759 63.7099 74.5926 63.9937 76.0651 62.5079C76.1455 62.4259 76.224 62.3415 76.2997 62.2548C78.1206 59.8728 78.229 55.6696 75.7575 53.5693C74.343 52.3669 72.0085 52.8406 70.2913 52.7136L70.2994 59.7789C70.2994 61.0332 70.3328 62.4635 70.2872 63.7068Z" fill="white"/>
<path d="M23.8066 49.7802C24.8402 49.6974 25.8466 49.76 26.8811 49.7615C28.3089 49.7635 29.7403 49.7999 31.1675 49.7568C31.1214 50.6672 31.1536 51.8468 31.1536 52.7772C30.3288 52.6835 29.4448 52.7287 28.6124 52.7423C28.1734 53.6386 27.5056 55.4773 27.2822 56.4336C27.51 57.2904 27.9881 58.4761 28.3115 59.34C28.6972 60.3703 29.1454 61.7421 29.6151 62.7075C30.0182 61.6126 33.2372 53.1511 33.1187 52.768L32.8446 52.7461C32.3577 52.7184 32.1866 52.7126 31.6955 52.7746C31.7511 52.0185 31.7157 50.5544 31.6896 49.7739C33.8149 49.8495 36.3384 49.7804 38.4988 49.7701C38.4539 50.6397 38.4975 51.8609 38.5035 52.7562C37.8041 52.7009 37.1158 52.7606 36.39 52.6988C35.1437 55.7541 34.0289 59.1265 32.8786 62.2368C32.3477 63.6723 31.6919 65.2943 31.2287 66.7268C30.1531 66.696 29.0301 66.7035 27.9506 66.696C27.3186 64.8259 26.3966 62.4501 25.6579 60.6178C25.5428 60.8404 25.4649 61.0522 25.3845 61.2897C24.7692 63.1073 24.0009 64.8881 23.4269 66.7179L20.1133 66.6878C19.8496 66.1244 19.2796 64.3974 19.0259 63.7221L16.1647 56.0036C15.8623 55.1859 15.3043 53.3956 14.8863 52.7177C14.4775 52.7083 13.9903 52.7445 13.5763 52.7646C13.5669 51.9061 13.5536 51.0143 13.5853 50.1553C13.5947 49.9009 13.6127 49.9047 13.7597 49.7863C15.7587 49.7452 17.773 49.8084 19.7773 49.754C19.7265 50.5329 19.744 51.9953 19.774 52.7862C19.1652 52.7302 18.6981 52.7369 18.0839 52.7458C18.1741 53.0712 18.2833 53.3556 18.3954 53.6708C19.4847 56.7355 20.735 59.7822 21.7582 62.8682C22.7747 59.6356 24.3335 56.0169 25.4435 52.73C24.8701 52.7264 24.3949 52.7262 23.8242 52.7687C23.8456 51.8318 23.838 50.7151 23.8066 49.7802Z" fill="white"/>
<path d="M15.2595 14.3229C17.3121 14.3549 19.826 14.3742 21.8594 14.3084C21.8494 15.3336 21.8508 16.3589 21.8637 17.3841C21.2662 17.3452 20.5971 17.3728 19.9637 17.34L19.9584 21.5511C21.4654 21.4699 23.1371 21.566 24.6577 21.5278C25.3416 21.5107 26.0853 21.5705 26.7606 21.4762C26.9167 21.3202 26.8697 17.848 26.8878 17.3473C26.2753 17.3512 25.7261 17.3586 25.1156 17.3992C25.0744 16.3714 25.0989 15.3346 25.1115 14.3056C26.8317 14.4055 29.9614 14.3489 31.7099 14.3157C31.6634 15.2323 31.6979 16.454 31.6972 17.3938C31.2164 17.3355 30.3899 17.3731 29.8361 17.348L29.8302 28.5862C30.439 28.5642 31.0923 28.5669 31.7052 28.5581C31.6819 29.0879 31.7512 31.2871 31.6559 31.6306L31.5439 31.6922C30.2025 31.6035 28.7854 31.6573 27.4365 31.6573C26.71 31.6573 25.8665 31.7399 25.1548 31.6528C25.0209 30.8029 25.0944 29.4327 25.1215 28.5436C25.7077 28.5772 26.2868 28.5832 26.8734 28.5918C26.8096 27.4547 26.877 25.6804 26.8865 24.5095C25.456 24.496 24.0254 24.4944 22.5948 24.5046C21.9036 24.5091 20.6063 24.5541 19.9635 24.4693C19.9545 25.8484 19.9597 27.2275 19.9789 28.6065C20.5246 28.5596 21.2924 28.5641 21.8553 28.5509C21.8476 29.5795 21.8513 30.6082 21.8664 31.6367C19.98 31.6352 17.0447 31.5714 15.239 31.7017C15.2256 30.6563 15.2314 29.6108 15.2563 28.5656C15.8467 28.5617 16.4371 28.5732 17.0269 28.6L17.0396 17.347C16.4513 17.3437 15.8631 17.358 15.2757 17.3898C15.2179 16.4249 15.2503 15.2958 15.2595 14.3229Z" fill="white"/>
<path d="M50.032 49.7524C51.6978 49.8034 53.5872 49.7998 55.2773 49.7664C58.4727 49.7033 61.7158 49.8585 62.8123 53.5464C63.6216 56.2683 62.5472 58.9174 60.0914 60.3807C60.7606 61.513 61.6482 62.5697 62.3035 63.6768L64.7779 63.6469C64.7468 64.6324 64.7686 65.7309 64.7676 66.7251C63.5655 66.5816 62.2489 66.799 61.0462 66.6547C60.6834 66.611 60.5789 66.4277 60.3863 66.1419C59.5355 64.8318 58.5948 63.5594 57.7175 62.2648C57.4281 61.8377 57.083 61.3116 56.7394 60.9379C56.104 60.9058 55.5526 60.9763 54.8946 60.8962L54.8768 63.6887C55.543 63.6588 56.0542 63.6568 56.7209 63.6788C56.6419 64.3307 56.6902 66.0024 56.6965 66.7245C55.6335 66.6445 53.0472 66.6178 51.9839 66.6944C52.0066 65.2393 51.9521 63.8252 51.9455 62.3746L51.948 52.7483C51.3145 52.7321 50.6791 52.6955 50.052 52.7773C50.0987 51.9013 50.049 50.6461 50.032 49.7524ZM54.8878 58.0019C56.4241 57.9847 57.7208 58.2236 58.9507 57.2941C59.4755 56.6679 59.8611 55.9862 59.7839 55.1339C59.7151 54.4389 59.3723 53.8003 58.8316 53.3601C57.5884 52.3498 56.2269 52.8671 54.8939 52.6872L54.8878 58.0019Z" fill="white"/>
<path d="M4.52483 49.7677C5.3568 49.7688 9.99153 49.6994 10.5049 49.847C10.8266 50.1907 15.4103 62.7113 15.6138 63.6955C16.2163 63.6641 16.6404 63.6697 17.2446 63.6951C17.1819 64.4706 17.2205 65.942 17.2436 66.7414C15.7043 66.6244 12.5591 66.6627 10.9748 66.7243C10.9255 65.8251 10.9646 64.642 10.9435 63.6961C11.4993 63.68 12.0609 63.6744 12.6174 63.665C12.2877 62.8586 12.0665 61.9037 11.6589 61.1609C11.5822 61.0209 11.3748 60.9904 11.221 60.9647C9.55826 60.9385 7.89513 60.9394 6.23242 60.9676C5.99188 61.752 5.58732 62.8993 5.25962 63.6536C5.84055 63.6555 6.3247 63.6812 6.90487 63.7227C6.82897 64.5223 6.85543 65.9065 6.87827 66.7181C4.83392 66.6634 2.05328 66.6306 0.0377419 66.7297C0.0312629 65.728 0.0365619 64.6909 0 63.6931C0.706407 63.6758 1.41313 63.6768 2.11949 63.6962C2.33162 63.1819 2.53229 62.6626 2.72089 62.1393C3.85004 59.0059 5.06429 55.8947 6.17888 52.7568C5.6026 52.7386 5.11169 52.7272 4.53663 52.7511C4.54734 51.7566 4.54345 50.7621 4.52483 49.7677ZM7.29839 57.9652L8.8856 57.9999C9.42213 57.9984 9.95388 58.0013 10.4898 57.9735C10.3516 57.5344 9.10636 53.9528 8.94118 53.768C8.61785 54.5579 7.62731 57.4702 7.29839 57.9652Z" fill="white"/>
<path d="M39.0526 49.7353C40.7907 49.8661 43.1194 49.7256 44.9669 49.7824C45.2871 50.7216 45.7488 51.8573 46.1015 52.8118L48.6645 59.7405C49.1081 60.9353 49.733 62.4851 50.0897 63.6729C50.5367 63.6652 50.9712 63.6952 51.4172 63.7201C51.2984 64.443 51.3492 65.9321 51.3602 66.7054C49.6891 66.6999 46.8967 66.5953 45.3397 66.743C45.3252 65.729 45.383 64.7271 45.3314 63.7044C45.6965 63.7005 46.6455 63.7336 46.922 63.5596C46.7829 62.9014 46.2656 61.7826 46.0511 60.9504L45.1332 60.946C43.6586 60.938 42.1727 60.972 40.7007 60.9428C40.3 61.8444 40.0365 62.7841 39.6071 63.6654C40.1599 63.6575 40.7127 63.6618 41.2652 63.6785C41.1967 64.4383 41.2329 65.9799 41.2587 66.7649C40.2006 66.6534 38.7839 66.6849 37.7001 66.6862C36.6805 66.6876 35.3979 66.6596 34.3967 66.7327C34.3999 65.9874 34.4437 64.3975 34.3407 63.7281C34.9882 63.6626 35.911 63.6763 36.6004 63.6368C37.4576 60.8735 38.6772 58.1012 39.6085 55.3521C39.8977 54.4982 40.2689 53.5523 40.6228 52.7263C40.0612 52.7172 39.5993 52.709 39.0407 52.7526L39.0526 49.7353ZM41.7051 58.0181C42.2836 57.9787 42.7976 57.9936 43.3779 58.0062L44.9856 57.9757C44.3608 56.9129 43.8396 54.616 43.276 53.8249C42.6986 55.0588 42.3546 56.645 41.7051 58.0181Z" fill="white"/>
<path d="M32.2369 14.3184C33.4348 14.4006 35.4641 14.3307 36.7553 14.3302L45.7006 14.3288C45.8023 15.8438 45.6875 17.9987 45.6946 19.5507C44.7945 19.4694 43.6929 19.5125 42.779 19.5295C42.7615 18.746 42.7596 18.1415 42.8003 17.3526C41.1832 17.3855 39.552 17.3226 37.9328 17.3717C37.6002 17.3817 37.2743 17.3708 36.9428 17.3393C36.954 18.7366 36.9489 20.1341 36.9277 21.5313C38.6473 21.5265 40.5914 21.4822 42.289 21.5494C42.209 22.1848 42.2501 23.8805 42.274 24.5589C40.5848 24.3966 38.6545 24.573 36.9434 24.5114L36.9382 28.3699C36.9465 28.5182 36.9233 28.4497 37.0289 28.574C38.94 28.5615 40.8512 28.5662 42.7623 28.5883C42.7268 27.8946 42.7657 27.1167 42.7857 26.416C43.7278 26.4244 44.7263 26.4395 45.6629 26.3879C45.697 28.1735 45.673 29.9619 45.6936 31.7487C43.0377 31.6056 40.0251 31.68 37.3592 31.7005C36.1923 31.7094 33.2285 31.6099 32.2127 31.7409C32.2778 30.8948 32.2585 29.4263 32.234 28.5584C32.7833 28.599 33.4344 28.5734 34.0231 28.6051C33.9583 27.4641 34.0032 25.8514 34.0032 24.6725L34.0053 17.3465C33.3709 17.3653 32.8916 17.3281 32.241 17.3996C32.2774 16.4381 32.2431 15.2932 32.2369 14.3184Z" fill="white"/>
<path d="M57.1995 32.1306C58.5205 32.1113 60.0242 32.1699 61.3751 32.1675C62.8991 32.1649 65.37 32.0439 66.8369 32.1887C66.8778 32.6947 66.931 34.6586 66.7462 35.0691C66.4645 35.2372 62.634 35.2465 62.0911 35.1909C62.0976 36.2194 62.1861 38.1284 62.0551 39.0611C63.3031 39.0001 64.5534 39.0805 65.8003 38.9912C66.161 38.9654 66.5232 38.9679 66.8847 38.9815C66.8724 40.0061 66.8369 41.1425 66.8997 42.1549C66.1467 42.0486 63.0596 42.1219 62.0819 42.105C62.1345 42.8404 62.1744 45.4003 62.0498 46.0819C62.7369 46.0562 67.2263 46.1453 67.42 45.9938L67.4221 45.7367C67.4084 45.1407 67.403 44.5446 67.4064 43.9485C68.3885 44.0163 69.361 43.9668 70.3424 43.9219C70.4549 45.4088 70.2374 47.9061 70.4297 49.2154C66.1249 49.1328 61.4414 49.195 57.1152 49.2139C57.1325 48.1535 57.1373 47.0929 57.1297 46.0324C57.6863 46.074 58.4604 46.0619 59.0336 46.0698C58.9138 45.1832 58.9603 43.1558 58.9602 42.1828C58.9517 39.8575 58.9607 37.5322 58.987 35.2069C58.3855 35.2109 57.7426 35.1962 57.1536 35.3017C57.1148 34.7883 57.0798 32.5475 57.1995 32.1306Z" fill="white"/>
<path d="M42.8821 32.2505C43.7071 32.1428 45.3122 32.182 46.2004 32.1664C47.0928 32.1506 48.5427 32.0793 49.3649 32.1451C49.6079 32.3858 49.6051 34.6131 49.5065 34.8055C48.7878 36.2075 47.8909 33.8332 47.2913 36.5271C46.9917 37.421 46.5452 38.519 46.21 39.4209L44.1481 45.0004C43.8606 45.7744 42.8418 48.685 42.5679 49.1525C41.8362 49.2567 39.9991 49.2039 39.2145 49.1954C38.8419 48.4726 38.6377 47.5957 38.3543 46.8289C37.9069 45.618 34.1395 35.37 34.0126 35.2856C33.642 35.0391 32.685 35.2183 32.264 35.3076C32.1872 34.3498 32.2194 33.1299 32.2265 32.1615C34.0504 32.2161 36.4413 32.2365 38.257 32.1446C38.3747 32.1288 38.8196 32.1523 38.9636 32.1572C38.9695 32.2053 38.9744 32.2536 38.9785 32.302C39.0272 32.868 39.1172 34.7401 38.7849 35.1327C38.5104 35.2534 37.5518 35.2144 37.1973 35.2143C37.6936 36.2308 38.3027 38.1261 38.7113 39.2326C39.4462 41.2229 40.3246 43.338 40.9447 45.351C41.1502 44.2224 42.2464 41.3623 42.677 40.2179C43.2279 38.7538 43.9644 36.5742 44.6225 35.2027C44.0738 35.2585 43.5504 35.2372 42.9439 35.3044C42.8442 34.4711 42.8804 33.1295 42.8821 32.2505Z" fill="white"/>
<path d="M85.5618 49.3706C86.7976 49.3227 87.0833 49.4532 88.2189 49.9366C88.8613 49.6862 90.5963 49.7567 91.3704 49.7598C91.2933 50.9957 91.3438 53.1073 91.3683 54.3783C90.509 54.2918 89.3967 54.3204 88.5299 54.3555C88.0968 51.3116 84.4951 51.4492 84.1398 54.1632C83.8868 56.0964 86.8085 56.5353 88.1841 57.0047C89.6552 57.5069 91.0948 58.2731 91.6896 59.8825C92.5925 62.5527 91.502 65.7061 88.7269 66.6983C87.8015 67.0292 87.0376 67.0306 86.0876 66.9684C85.7794 66.9253 85.6123 66.8931 85.3197 66.7892C85.0271 66.6853 84.3628 66.2271 84.0846 66.249C84.0703 66.5301 83.9073 66.6566 83.6447 66.6825C82.7908 66.7673 81.8892 66.6675 81.0306 66.7338L81.0095 61.658C81.9411 61.623 83.02 61.6433 83.9632 61.6378C84.0396 62.4346 84.2121 63.0422 84.8484 63.5916C85.364 64.0376 86.0378 64.2535 86.7157 64.1893C87.3575 64.1359 87.9488 63.8206 88.3518 63.3172C88.7276 62.8541 88.9391 62.3188 88.862 61.707C88.6219 59.7851 86.1183 59.6003 84.6602 59.0137C83.9686 58.73 83.123 58.3736 82.559 57.8651C79.2178 54.8509 81.3 49.7787 85.5618 49.3706Z" fill="white"/>
<path d="M1.08929 14.327L14.7075 14.3292C14.6573 15.0325 14.6453 19.1033 14.7119 19.7131C13.7216 19.6661 12.7053 19.6797 11.7143 19.6951C11.7528 18.9416 11.7565 18.1324 11.7736 17.3742C11.0282 17.3439 10.0601 17.4308 9.36913 17.3341L9.37342 28.5845C9.90961 28.5568 10.5692 28.5689 11.1148 28.5642C11.2737 28.8419 11.2485 31.266 11.0852 31.617C10.6581 31.8514 5.42827 31.6334 4.47101 31.7243C4.58061 30.8411 4.55128 29.4977 4.53887 28.5878C5.1779 28.5767 5.81714 28.5757 6.45624 28.5847C6.37522 27.9247 6.43319 25.5594 6.43319 24.8018C6.42255 22.3153 6.42644 19.8289 6.44485 17.3426C5.71839 17.3727 4.69771 17.3805 3.98105 17.347C3.97875 18.1391 3.9676 18.94 4.00586 19.7306C3.14849 19.6374 1.93291 19.6922 1.0531 19.7137C1.05445 18.0547 0.997459 15.9405 1.08929 14.327Z" fill="white"/>
<path d="M10.1232 32.1421C10.2219 32.1363 10.3207 32.1353 10.4195 32.1392C10.5687 32.1442 11.0165 32.1531 11.1069 32.3168C11.395 32.8382 11.4675 34.6422 11.176 35.0936C11.0198 35.3354 9.79028 35.2473 9.44519 35.2013C9.38354 37.6963 9.51053 40.3535 9.4559 42.8605C9.43776 43.6946 9.52942 45.3586 9.37904 46.0911C10.6917 46.0265 12.2332 46.0646 13.563 46.0669C13.5245 45.5948 13.3298 44.5716 13.6632 44.1751C13.9434 43.8419 15.9575 43.9582 16.4905 43.9345C16.7025 45.3344 16.4155 48.0816 16.637 49.2147C15.5315 49.172 14.233 49.2059 13.1131 49.2079C10.2307 49.1922 7.34825 49.1952 4.46592 49.2169C4.46176 48.1678 4.4518 47.1189 4.43619 46.07C5.08927 46.0482 5.77802 46.0687 6.4341 46.0776C6.31386 44.9671 6.35697 42.3501 6.36951 41.1532C6.38834 39.3633 6.29545 36.9561 6.41691 35.2158C6.04509 35.2361 4.77684 35.3464 4.54571 35.1544C4.39583 34.6193 4.46435 32.8511 4.47295 32.2287C6.31189 32.1122 8.25456 32.2511 10.1232 32.1421Z" fill="white"/>
<path d="M50.054 32.1177C51.2759 32.1545 52.4984 32.1702 53.7209 32.1644C54.3739 32.1551 55.963 32.0773 56.5095 32.1591C56.8506 32.4964 56.7736 34.7138 56.5481 35.1425C56.2428 35.3272 55.2574 35.2241 54.8712 35.2034C54.9338 38.6972 54.9156 42.5764 54.8787 46.0768C55.606 46.0454 55.9599 46.0173 56.693 46.0796C56.7065 46.5326 56.7862 49.003 56.6918 49.2102C54.5225 49.185 52.1535 49.1653 49.9922 49.2254L49.9798 46.0245C50.5152 46.0839 51.3836 46.0691 51.9452 46.0756C51.8568 45.6735 51.858 35.7606 51.9451 35.2639C51.2129 35.199 50.752 35.1484 50.026 35.2856C50.0005 34.5193 49.9979 32.8378 50.054 32.1177Z" fill="white"/>
<path d="M63.7297 28.5023C64.5771 28.5983 65.9649 28.5421 66.8405 28.5273C66.8474 29.0519 66.9087 31.3117 66.8487 31.6578L66.7437 31.7046C65.7364 31.6891 64.7289 31.6915 63.7215 31.7117C63.7048 31.0152 63.6362 29.1416 63.7297 28.5023Z" fill="white"/>
<path d="M46.1594 7.08123C47.0778 7.19706 48.3313 7.04868 49.3732 7.13285C49.2952 7.74701 49.2771 9.66326 49.372 10.2725C48.6388 10.2285 46.8984 10.1605 46.2573 10.3143C46.0914 9.96582 46.1442 7.60663 46.1594 7.08123Z" fill="white"/>
<path d="M57.2134 7.12401C58.0842 7.09995 58.9554 7.08777 59.8266 7.08764C59.7206 7.94173 59.8933 9.44608 59.7576 10.242C59.5802 10.3088 59.3005 10.2574 59.0984 10.2386C58.3009 10.2401 57.4537 10.187 56.6674 10.2827C56.6589 9.46057 56.6127 8.02713 56.681 7.24921C56.881 7.09878 56.9173 7.14555 57.2134 7.12401Z" fill="white"/>
<path d="M63.6983 7.11437C64.7584 7.11184 65.8183 7.10289 66.8788 7.08764C66.8604 7.79581 66.7792 9.60888 66.9136 10.2352C66.8836 10.2479 66.8529 10.2605 66.8229 10.2732C66.308 10.1763 63.9958 10.3383 63.6933 10.1821C63.7682 9.51432 63.7574 7.78227 63.6983 7.11437Z" fill="white"/>
<path d="M56.6915 14.2827C57.7087 14.2796 58.7964 14.2594 59.8059 14.306C59.7724 14.8468 59.9423 17.1701 59.6918 17.4572C59.0508 17.3783 57.2945 17.3728 56.6539 17.4398C56.6596 16.8067 56.6103 14.7422 56.6915 14.2827Z" fill="white"/>
<path d="M46.1415 14.2415C46.6829 14.3226 48.61 14.2861 49.314 14.3035C49.3139 14.9437 49.2574 16.8123 49.3896 17.3133C49.0377 17.4973 46.8822 17.3638 46.2043 17.4348C46.1838 16.3719 46.1881 15.3027 46.1415 14.2415Z" fill="white"/>
<path d="M56.6965 17.8398C57.7317 17.8826 58.7662 17.8459 59.8086 17.8847C59.7488 18.7206 59.8001 20.1741 59.809 21.0359C58.9279 20.9519 57.5314 20.9356 56.6497 21.002C56.6565 20.3737 56.6127 18.2871 56.6965 17.8398Z" fill="white"/>
<path d="M46.1977 10.656C46.6429 10.7524 48.7506 10.7169 49.307 10.7145C49.3146 11.1165 49.3894 13.6136 49.2586 13.8145C48.8445 13.7784 46.394 13.8889 46.2685 13.7937C46.139 13.2491 46.0794 11.169 46.1977 10.656Z" fill="white"/>
<path d="M63.7371 14.2736C64.7732 14.2838 65.8092 14.2883 66.8459 14.2871C66.8813 15.3088 66.8486 16.4274 66.8732 17.4769C66.1789 17.3759 64.4306 17.3458 63.7323 17.4565C63.7401 16.4222 63.6974 15.2986 63.7371 14.2736Z" fill="white"/>
<path d="M74.2536 7.0855C74.757 7.15566 76.7259 7.10219 77.4181 7.11894C77.3847 7.98998 77.3424 9.41344 77.4399 10.2613C76.5274 10.2334 75.1627 10.1627 74.3 10.3153C74.2946 9.23854 74.2789 8.16188 74.2536 7.0855Z" fill="white"/>
<path d="M74.2919 14.2607C75.2781 14.3138 76.3713 14.267 77.4005 14.3111C77.3623 15.1137 77.3909 16.4912 77.4271 17.3048L77.305 17.4334C76.5964 17.3601 74.8941 17.3621 74.2217 17.5025C74.386 16.7735 74.2169 15.0965 74.2919 14.2607Z" fill="white"/>
<path d="M74.2961 17.8078C75.3389 17.904 76.3517 17.8161 77.4026 17.8919C77.346 19.0058 77.4558 19.9407 77.4633 20.9617C76.4703 21.0616 75.3812 20.8878 74.2163 21.0526C74.378 20.3009 74.2266 18.6658 74.2961 17.8078Z" fill="white"/>
<path d="M63.7451 17.8291C64.5642 17.8994 65.9971 17.8645 66.8496 17.8617C66.8462 18.8281 66.8135 20.0665 66.8926 21.0062C65.8853 21.0456 64.8691 20.916 63.7329 20.9991C63.7305 20.0289 63.6935 18.7766 63.7451 17.8291Z" fill="white"/>
<path d="M70.8332 28.4873C71.4988 28.5981 73.0592 28.5305 73.7917 28.5176C73.909 29.5843 73.7876 30.698 73.926 31.7106C72.9521 31.6665 71.7634 31.6931 70.7779 31.6923C70.7827 31.12 70.75 28.8766 70.8332 28.4873Z" fill="white"/>
<path d="M67.3086 28.53C68.3003 28.5603 69.3396 28.5462 70.3381 28.5592C70.3851 29.5102 70.3197 30.8413 70.4383 31.7082C69.4017 31.6855 68.3234 31.6958 67.2834 31.6911C67.3114 30.6377 67.3195 29.5838 67.3086 28.53Z" fill="white"/>
<path d="M81.4588 21.4603C83.0349 21.4921 84.7487 20.8482 84.4814 22.9034C84.4214 23.3649 84.553 23.9907 84.5094 24.4785L84.3852 24.5707C83.457 24.5607 82.2226 24.5003 81.3299 24.6038C81.3415 24.009 81.2378 21.8882 81.4588 21.4603Z" fill="white"/>
<path d="M63.7917 21.4673C64.7485 21.4615 65.8908 21.4289 66.8258 21.5034C66.8592 21.9384 66.8872 24.1215 66.8524 24.5226L66.7399 24.594C65.8144 24.534 64.6476 24.5518 63.7221 24.5771C63.7496 23.9509 63.6735 21.9438 63.7917 21.4673Z" fill="white"/>
<path d="M74.3574 21.457C74.7966 21.4684 76.8821 21.3289 77.1529 21.5453C77.5184 21.8378 77.41 23.8812 77.4605 24.4546L77.3432 24.5847C76.432 24.5238 75.1465 24.5691 74.2217 24.5987C74.3553 23.8125 74.2005 22.0489 74.3574 21.457Z" fill="white"/>
<path d="M56.7224 21.4652C57.7077 21.4608 58.8118 21.4356 59.7846 21.4875C59.7902 21.9762 59.9143 24.3016 59.6972 24.5737C58.7773 24.5378 57.5469 24.4985 56.6432 24.5652C56.65 24.0398 56.6251 21.8053 56.7224 21.4652Z" fill="white"/>
<path d="M56.6632 10.7094L59.8113 10.7153C59.7556 11.495 59.878 13.1575 59.7627 13.8365C59.0081 13.7464 57.4289 13.764 56.6692 13.817C56.616 12.9938 56.6525 11.5693 56.6632 10.7094Z" fill="white"/>
<path d="M63.6859 10.9013C63.7245 10.8242 63.747 10.8107 63.8066 10.7436C64.2058 10.6773 66.5776 10.64 66.8565 10.8126C66.8518 11.6948 66.8115 13.0073 66.8825 13.8499C66.075 13.7737 64.5417 13.7272 63.7384 13.8295C63.7421 13.1906 63.7772 11.4486 63.6859 10.9013Z" fill="white"/>
<path d="M67.636 7.11041C68.5281 7.10172 69.5518 7.06692 70.4308 7.13673C70.3081 8.09974 70.4486 9.2471 70.3599 10.1919L70.1915 10.2785C69.5579 10.1811 67.9491 10.2148 67.3155 10.2728C67.2834 9.62228 67.2541 7.9193 67.3571 7.24319C67.37 7.15587 67.5255 7.14131 67.636 7.11041Z" fill="white"/>
<path d="M74.3067 24.983C75.1292 25.0476 76.5007 25.0061 77.3777 25.013C77.4344 25.5209 77.4835 27.6181 77.4091 28.064C76.3575 28.0693 75.312 28.0582 74.259 28.0787C74.334 27.3925 74.2883 25.7797 74.3067 24.983Z" fill="white"/>
<path d="M74.2504 10.671C75.0948 10.752 76.5106 10.7154 77.4006 10.7164C77.3842 11.7024 77.4408 12.8545 77.3985 13.8093C76.5815 13.7756 75.0429 13.7195 74.3043 13.8648C74.2552 12.8171 74.3091 11.7592 74.2504 10.671Z" fill="white"/>
<path d="M74.3532 0C74.7303 0.0851833 76.8411 0.0460243 77.4188 0.0670432C77.3806 0.58122 77.472 2.87764 77.2858 3.12074C76.6652 3.05231 74.9963 3.0575 74.3791 3.15244C74.1847 2.94498 74.1827 0.265082 74.3532 0Z" fill="white"/>
<path d="M67.3428 14.2873C68.3481 14.2765 69.354 14.2825 70.36 14.3052C70.3688 15.1459 70.3122 16.6941 70.435 17.4422C69.6821 17.3859 68.0282 17.3538 67.3005 17.4326C67.3074 16.8727 67.2596 14.625 67.3428 14.2873Z" fill="white"/>
<path d="M63.7501 24.9958C64.7602 25.0422 65.7937 24.9796 66.8427 25.0358C66.8454 25.4732 66.9149 27.9385 66.7799 28.1272C66.1204 28.0166 64.3817 28.0159 63.7104 28.1124C63.7595 27.1017 63.7163 26.0267 63.7501 24.9958Z" fill="white"/>
<path d="M56.7072 0.0666429C57.7385 0.0250427 58.7826 0.0791286 59.8321 0.0235044C59.7777 0.566242 59.868 2.90465 59.7004 3.1203C58.6213 3.07405 57.7389 3.05042 56.6641 3.13027C56.639 2.68012 56.6381 0.422159 56.7072 0.0666429Z" fill="white"/>
<path d="M49.7249 17.7864C50.3786 17.916 52.0629 17.8463 52.7838 17.8304C52.7784 18.8461 52.7814 19.8618 52.7928 20.8774C52.5183 21.0443 50.3739 20.9557 49.7756 21.0058C49.7216 20.1179 49.712 18.6845 49.7249 17.7864Z" fill="white"/>
<path d="M58.5834 3.56791C58.9662 3.54158 59.4207 3.56421 59.8094 3.57324C59.7754 4.41823 59.7705 5.79684 59.8431 6.62105C59.1706 6.56511 58.3986 6.57072 57.7167 6.56074L56.6124 6.5617C56.6161 5.5582 56.655 4.5874 56.6123 3.58213L58.5834 3.56791Z" fill="white"/>
<path d="M67.384 17.8526C68.3838 17.8751 69.3577 17.8342 70.3657 17.8891C70.3548 18.2959 70.4353 20.8188 70.3412 20.9991C69.4955 20.9434 68.1349 20.9421 67.2947 20.9876C67.3008 20.5511 67.2524 18.0693 67.384 17.8526Z" fill="white"/>
<path d="M49.768 14.268C50.776 14.2818 51.784 14.2801 52.7918 14.2629C52.7801 15.2584 52.7716 16.428 52.8329 17.4178C52.0131 17.4176 50.5002 17.3291 49.7623 17.4842C49.7593 16.4431 49.7346 15.301 49.768 14.268Z" fill="white"/>
<path d="M88.3955 7.08977C89.4096 7.11193 90.4251 7.11241 91.4393 7.09121C91.3854 8.1081 91.4802 9.34763 91.3949 10.3214C90.9066 10.2549 90.449 10.2388 89.9573 10.2298C89.5385 10.222 88.922 10.332 88.549 10.2412C88.4644 10.1474 88.3976 10.0942 88.3982 9.94839C88.403 9.02749 88.4057 8.00034 88.3955 7.08977Z" fill="white"/>
<path d="M81.3262 0.0503468C82.0975 0.0154543 83.7609 0.0327193 84.4981 0.0830717C84.4238 1.08249 84.5745 2.0766 84.3447 3.08763C83.7554 3.17253 82.3307 3.04345 81.378 3.14985C81.2893 2.22256 81.35 1.02245 81.3262 0.0503468Z" fill="white"/>
<path d="M70.7595 7.09191C71.125 7.14832 73.2999 7.10812 73.823 7.11126C73.8162 8.00159 73.8264 8.89165 73.821 9.78136C73.8196 10.0716 73.838 10.1207 73.6757 10.2741C73.0933 10.1856 71.378 10.1981 70.8017 10.3114C70.7929 9.26737 70.8038 8.12768 70.7595 7.09191Z" fill="white"/>
<path d="M77.8398 7.09832C78.693 7.14933 80.0086 7.10454 80.8958 7.10208C80.8638 8.15781 80.8672 9.21437 80.9068 10.2698C80.0863 10.2335 78.633 10.1582 77.8794 10.3219C77.8671 9.93027 77.8118 7.3187 77.8398 7.09832Z" fill="white"/>
<path d="M70.7906 14.2714C71.7979 14.2842 72.8052 14.2868 73.8126 14.2793C73.8173 14.7355 73.8664 17.0767 73.7832 17.3535L73.6386 17.4124C72.9764 17.3725 71.3635 17.3643 70.7627 17.4817C70.8581 16.5819 70.7517 15.2421 70.7906 14.2714Z" fill="white"/>
<path d="M77.8742 17.8227C78.8038 17.8775 79.927 17.8536 80.8641 17.8375C80.8682 18.8916 80.8873 19.9455 80.9207 20.9991C80.0723 20.9532 78.6776 20.9499 77.8497 21.0248C77.8974 19.993 77.8087 18.8575 77.8742 17.8227Z" fill="white"/>
<path d="M60.2967 7.08764C61.0689 7.14651 62.5079 7.10555 63.3291 7.1089C63.3199 7.71328 63.3606 9.88772 63.2976 10.2959C62.4358 10.1944 61.6512 10.222 60.7903 10.2775C60.5468 10.2932 60.486 10.2485 60.344 10.1125C60.2659 9.87356 60.2995 7.51082 60.2967 7.08764Z" fill="white"/>
<path d="M77.8612 14.2667C78.8439 14.2947 79.884 14.2725 80.8715 14.265C80.8749 15.3191 80.8851 16.3732 80.9029 17.4272C80.137 17.3913 78.5554 17.344 77.8571 17.4855C77.8953 16.4636 77.838 15.3142 77.8612 14.2667Z" fill="white"/>
<path d="M70.8199 17.8249C71.725 17.8979 72.8693 17.8404 73.8085 17.8562C73.8228 18.4476 73.8671 20.3923 73.8126 20.8984L73.698 20.989C72.9144 20.9442 71.5258 20.9432 70.7627 21.0218C70.8165 20.2744 70.719 18.3797 70.8199 17.8249Z" fill="white"/>
<path d="M88.4057 14.2372C89.1218 14.3192 90.6726 14.2781 91.4201 14.2581C91.4065 15.3138 91.4092 16.3696 91.4269 17.4252C90.6542 17.3898 89.1695 17.3812 88.4234 17.4562C88.405 16.3833 88.3989 15.3103 88.4057 14.2372Z" fill="white"/>
<path d="M74.3484 3.56267C75.0161 3.62318 76.6576 3.56649 77.3969 3.56198C77.3853 4.35248 77.4037 5.14524 77.4188 5.93553C77.4242 6.2102 77.5299 6.32917 77.4249 6.58435C76.4333 6.54285 75.2336 6.5784 74.227 6.58374C74.3416 5.92493 74.1499 3.87699 74.3484 3.56267Z" fill="white"/>
<path d="M67.3668 21.4685C67.9199 21.4674 69.9986 21.3376 70.315 21.6674C70.3635 21.9265 70.4276 24.3124 70.3676 24.5271L70.2223 24.5831C69.2443 24.5452 68.2656 24.5408 67.2877 24.5698C67.3047 23.9431 67.259 21.8843 67.3668 21.4685Z" fill="white"/>
<path d="M63.8478 3.56367C64.6014 3.6062 66.1494 3.59677 66.8894 3.5342C66.8526 4.23807 66.9317 6.15452 66.8505 6.60478C65.8998 6.53531 64.6457 6.56834 63.6688 6.57025C63.8034 5.79097 63.6631 4.52628 63.7243 3.70432C63.773 3.64887 63.8141 3.60196 63.8478 3.56367Z" fill="white"/>
<path d="M49.7606 3.53567C50.4524 3.6692 51.5403 3.5598 52.2488 3.50408C52.444 3.48869 52.5788 3.56671 52.7168 3.69779C52.9826 4.17095 52.8414 4.78572 52.8517 5.32036C52.8598 5.73472 52.9262 6.15325 52.925 6.55462C51.9892 6.61301 50.7418 6.57964 49.7424 6.61397C49.7347 6.12775 49.6665 3.83317 49.7606 3.53567Z" fill="white"/>
<path d="M67.4321 35.7566C68.3985 35.8083 69.3615 35.7845 70.3279 35.7649C70.4002 36.8014 70.3422 37.8225 70.4356 38.8561C69.652 38.7818 68.1448 38.8227 67.2657 38.7984C67.2227 38.2981 67.2118 36.0934 67.4321 35.7566Z" fill="white"/>
<path d="M60.3073 14.2372C60.9883 14.3175 62.5689 14.295 63.3088 14.3024C63.3357 15.3527 63.2677 16.4016 63.3483 17.4619C62.6048 17.3806 61.0154 17.3326 60.3218 17.5149C60.3077 16.4224 60.3029 15.3298 60.3073 14.2372Z" fill="white"/>
<path d="M49.7457 7.08977C50.1967 7.14967 52.2181 7.10495 52.8 7.10755L52.7954 10.2926C52.0867 10.2001 50.4565 10.1744 49.7857 10.3243C49.765 9.81314 49.7042 7.55015 49.7457 7.08977Z" fill="white"/>
<path d="M53.2699 7.10473C54.2555 7.11854 55.2697 7.10302 56.262 7.11089C56.2159 7.67643 56.2958 10.0574 56.1494 10.3132C55.3643 10.1772 54.0474 10.1954 53.262 10.3087C53.2505 9.83527 53.1722 7.39861 53.2699 7.10473Z" fill="white"/>
<path d="M81.3895 17.8206C82.3627 17.8882 83.3495 17.8105 84.318 17.8863C84.3289 18.7608 84.3105 20.1055 84.44 20.9423C83.4443 21.0325 82.3988 20.924 81.2974 21.0519C81.3908 20.2475 81.2497 18.4767 81.3895 17.8206Z" fill="white"/>
<path d="M60.3084 17.7907C61.2326 17.8898 62.3437 17.85 63.3068 17.8947C63.3338 18.9217 63.2857 19.9196 63.3384 20.9676C62.9933 21.0614 61.1901 20.883 60.3172 21.0665C60.3075 19.9745 60.3045 18.8826 60.3084 17.7907Z" fill="white"/>
<path d="M70.8415 21.4606C71.4675 21.4805 73.2244 21.3869 73.6874 21.5308C73.8716 21.8209 73.9207 24.2382 73.7284 24.5422L73.5026 24.5839C72.8131 24.5197 71.4396 24.5591 70.7467 24.5922C70.8435 23.8154 70.7085 22.0275 70.8415 21.4606Z" fill="white"/>
<path d="M53.2478 14.2543C54.173 14.3047 55.2939 14.2866 56.2296 14.2916C56.2294 14.8429 56.2747 17.1244 56.2103 17.4788C55.444 17.3502 53.9855 17.356 53.2257 17.4982C53.2874 16.6194 53.2454 15.1753 53.2478 14.2543Z" fill="white"/>
<path d="M53.2853 17.8185C54.1472 17.8846 55.3311 17.859 56.2283 17.8806C56.2265 18.3501 56.2834 20.7314 56.214 21.0254C55.4101 20.9568 53.9954 20.9097 53.2255 21.067C53.2615 20.338 53.1673 18.4312 53.2853 17.8185Z" fill="white"/>
<path d="M81.3778 14.2676C82.0816 14.283 83.5868 14.2089 84.1904 14.3622C84.3963 14.5478 84.4038 17.1815 84.2388 17.3916C83.3454 17.4152 82.1532 17.3383 81.3123 17.5032C81.3928 16.6692 81.2468 14.9858 81.3778 14.2676Z" fill="white"/>
<path d="M81.337 7.0855C81.9562 7.17193 83.5337 7.09145 84.3268 7.13063C84.3323 8.07928 84.3698 9.30206 84.3132 10.2266C83.3243 10.2619 82.3525 10.1564 81.3547 10.3118C81.3172 9.29522 81.3254 8.10711 81.337 7.0855Z" fill="white"/>
<path d="M88.4496 10.6518C89.0225 10.7614 90.808 10.7113 91.4231 10.6685C91.4115 11.1776 91.4934 13.5779 91.3331 13.8566C90.5045 13.7373 89.3942 13.8123 88.5464 13.8514C88.3371 13.5587 88.3746 11.1167 88.4496 10.6518Z" fill="white"/>
<path d="M60.3198 21.4568C61.1124 21.4611 62.5661 21.4178 63.2905 21.5457C63.3556 22.5475 63.256 23.5614 63.3564 24.5849C62.4994 24.5674 61.1332 24.5288 60.3057 24.6236C60.3544 23.6989 60.3013 22.4432 60.3198 21.4568Z" fill="white"/>
<path d="M49.7465 10.6848C50.5725 10.7416 51.9708 10.7242 52.7957 10.671L52.7936 13.7715C52.3951 13.8613 50.6251 13.7243 49.7845 13.8572C49.7491 12.8257 49.7561 11.7198 49.7465 10.6848Z" fill="white"/>
<path d="M70.7765 10.6928C71.6433 10.7488 72.9371 10.7128 73.8175 10.6881C73.8169 11.2356 73.9553 13.5057 73.6927 13.8058C72.9405 13.7658 71.5363 13.7479 70.8086 13.8439C70.7629 12.8587 70.7833 11.6944 70.7765 10.6928Z" fill="white"/>
<path d="M77.8395 10.6839C78.5992 10.7374 80.1221 10.7291 80.8825 10.6667C80.8709 11.6941 80.8737 12.7217 80.8907 13.749C80.6432 13.8571 78.6026 13.7382 77.8783 13.86C77.8395 12.8463 77.8524 11.7088 77.8395 10.6839Z" fill="white"/>
<path d="M67.3357 25.0061C68.2646 25.0036 69.4383 24.9741 70.3427 25.0458C70.3645 25.6206 70.4327 27.5224 70.3693 28.0296L70.2301 28.097C69.6245 28.0232 67.8991 28.0106 67.303 28.0966C67.3105 27.3262 67.2539 25.6739 67.3357 25.0061Z" fill="white"/>
<path d="M67.3076 10.7202L70.3657 10.7073C70.3738 11.5238 70.3111 13.0855 70.4202 13.8056C69.4095 13.7832 68.3197 13.7515 67.3158 13.8103C67.2762 13.2324 67.2919 11.2983 67.3076 10.7202Z" fill="white"/>
<path d="M60.3535 10.6539C60.969 10.7487 62.5971 10.7163 63.3026 10.7163C63.3479 11.667 63.3211 12.8695 63.3174 13.8345C62.4318 13.7444 61.3503 13.7963 60.4484 13.8196C60.2422 13.5074 60.2673 11.1003 60.3535 10.6539Z" fill="white"/>
<path d="M77.9174 21.4605C78.8811 21.4845 79.8543 21.4171 80.8227 21.4911C80.8752 21.877 80.9346 24.2133 80.8446 24.5497C79.9696 24.5125 78.7065 24.5319 77.8363 24.5763C77.8983 23.8621 77.7817 22.0405 77.9174 21.4605Z" fill="white"/>
<path d="M70.7943 24.9958C71.7682 25.0229 72.8137 25.0058 73.7958 25.0131C73.8135 25.5206 73.9287 27.7548 73.7214 28.0637L73.5045 28.0662C72.8191 28.0263 71.4081 28.0082 70.7691 28.1336C70.8386 27.4959 70.7936 25.7342 70.7943 24.9958Z" fill="white"/>
<path d="M53.2514 21.4274C54.215 21.5322 55.197 21.3957 56.2164 21.5257C56.225 21.9982 56.2955 24.2845 56.1831 24.5731C55.2451 24.5205 54.1674 24.5163 53.2357 24.6126C53.2317 23.5649 53.2135 22.4701 53.2514 21.4274Z" fill="white"/>
<path d="M70.8002 3.5513C71.3635 3.63335 73.1421 3.55793 73.833 3.56573C73.8078 4.41585 73.7859 5.76143 73.8732 6.57982C72.8366 6.56444 71.8 6.57141 70.764 6.60082C70.7579 6.1003 70.691 3.86296 70.8002 3.5513Z" fill="white"/>
<path d="M53.2332 10.6989C54.1324 10.6653 55.2901 10.7087 56.2257 10.7006C56.2249 11.7537 56.2299 12.8069 56.2408 13.8599C55.407 13.738 54.0851 13.7449 53.2557 13.8511C53.2251 12.83 53.2399 11.7273 53.2332 10.6989Z" fill="white"/>
<path d="M53.3441 0C53.8084 0.107481 55.7059 0.0409233 56.2476 0.0267215C56.2024 0.993427 56.2856 2.19691 56.2101 3.1158C55.2184 3.10149 54.2265 3.11298 53.2354 3.15026C53.2234 2.63112 53.1407 0.304111 53.3441 0Z" fill="white"/>
<path d="M60.314 0.0235216C61.0446 0.0824347 62.6044 0.0672208 63.3417 0.0170941C63.2869 0.95489 63.3893 2.27178 63.2941 3.14265C62.4745 3.08164 61.1099 3.00701 60.3377 3.20071C60.2945 2.14466 60.3096 1.08083 60.314 0.0235216Z" fill="white"/>
<path d="M81.3294 10.6984C81.9179 10.6964 83.7914 10.6313 84.2354 10.8198C84.3977 11.1204 84.352 13.3447 84.3015 13.7715C83.3072 13.8363 82.4117 13.7017 81.3437 13.8597L81.3294 10.6984Z" fill="white"/>
<path d="M67.4105 32.1438C67.8866 32.1426 70.0962 32.0177 70.3261 32.3025C70.4066 32.6784 70.4113 34.8409 70.2756 35.1838C69.5193 35.1205 68.1137 35.1492 67.3219 35.1531C67.3178 34.562 67.2223 32.5571 67.4105 32.1438Z" fill="white"/>
<path d="M77.8171 0.0341882C78.6662 0.0893406 79.9831 0.048185 80.8779 0.0530124C80.8643 0.805857 80.9386 2.47262 80.8172 3.13703C80.0083 3.02863 78.6955 3.06548 77.8928 3.1468C77.8082 2.13055 77.9153 1.06909 77.8171 0.0341882Z" fill="white"/>
<path d="M85.6736 7.12056L87.942 7.08336C87.8028 7.96727 87.9911 9.34197 87.8594 10.2419C87.723 10.3249 87.4557 10.2713 87.2804 10.2551C86.5255 10.2207 85.7582 10.2313 85.0019 10.2333C84.9848 9.59763 84.9098 7.76467 85.01 7.22819C85.156 7.10449 85.4602 7.12795 85.6736 7.12056Z" fill="white"/>
<path d="M77.8961 3.54702C78.7861 3.59708 79.9557 3.56152 80.8689 3.55632C80.9037 4.52029 80.8989 5.61685 80.8982 6.58615C79.8909 6.55162 78.8161 6.56953 77.8054 6.57131C77.9029 5.87052 77.761 3.86791 77.8961 3.54702Z" fill="white"/>
<path d="M85.6015 14.2966C86.2562 14.2537 87.2608 14.2711 87.9059 14.3081C87.8446 15.2498 87.9762 16.4938 87.8746 17.4057C87.7354 17.4825 87.5227 17.4338 87.3351 17.4219C86.5638 17.4071 85.7556 17.3784 84.9883 17.4067C84.9788 16.9326 84.8813 14.732 85.0361 14.4001C85.2011 14.2669 85.3778 14.2978 85.6015 14.2966Z" fill="white"/>
<path d="M60.3164 24.9381C61.2373 25.0657 62.3103 24.9645 63.2951 25.05C63.3502 26.0529 63.2651 27.0601 63.3489 28.0789C62.6089 28.0453 61.0373 28.0286 60.323 28.1394L60.3164 24.9381Z" fill="white"/>
<path d="M60.3001 3.53848C61.0555 3.60808 62.5335 3.56795 63.3355 3.5659C63.3018 4.4379 63.2878 5.74416 63.3478 6.5975C62.4474 6.57466 61.159 6.54622 60.2727 6.61924C60.351 5.89548 60.3018 4.33828 60.3001 3.53848Z" fill="white"/>
<path d="M86.8493 17.8573C87.1105 17.8402 87.622 17.8605 87.9023 17.8623C87.8709 18.8577 87.8866 19.9906 87.9023 20.9899C87.444 20.9529 86.7272 20.9713 86.2498 20.9693L84.9301 20.957C84.971 20.0508 85.0044 18.7608 84.9519 17.869C85.5514 17.8856 86.2436 17.8629 86.8493 17.8573Z" fill="white"/>
<path d="M81.3844 3.55343C82.3481 3.55856 83.442 3.54215 84.3893 3.61169C84.3041 4.36691 84.2938 5.81881 84.4296 6.54777C83.3888 6.55516 82.3481 6.57382 81.3081 6.60384C81.3769 6.02531 81.2467 3.91022 81.3844 3.55343Z" fill="white"/>
<path d="M85.0037 10.7212C85.923 10.7443 86.9638 10.7059 87.9104 10.7152C87.849 11.5677 87.9786 13.0746 87.8654 13.8466C87.1015 13.7506 85.803 13.7806 85.0064 13.7776C84.9853 13.2451 84.898 11.1404 85.0037 10.7212Z" fill="white"/>
<path d="M87.6521 3.57326C87.8056 3.54208 87.736 3.52929 87.8676 3.60984C87.9611 4.06481 87.8854 5.8679 87.9536 6.61881C87.0424 6.56499 86.1142 6.56486 85.2003 6.55405L85.1158 6.54927C85.0803 6.52356 85.0455 6.49785 85.0108 6.47214C84.9194 5.60937 85.0258 4.43001 84.8832 3.6045C85.7862 3.57469 86.7444 3.58091 87.6521 3.57326Z" fill="white"/>
<path d="M63.6853 10.9C63.6218 10.6935 63.556 10.6737 63.4663 10.4952C63.5743 10.3776 63.5907 10.3555 63.6728 10.2163L63.693 10.1817C63.9954 10.3379 66.3076 10.1759 66.8225 10.2727C66.8525 10.2601 66.8832 10.2474 66.9132 10.2348C67.0919 10.5476 67.1151 10.503 66.8559 10.8112C66.577 10.6386 64.2052 10.6759 63.806 10.7422C63.7464 10.8093 63.7239 10.8228 63.6853 10.9Z" fill="white" fill-opacity="0.0117647"/>
</svg>
