<svg width="142" height="26" viewBox="0 0 142 26" fill="none" xmlns="http://www.w3.org/2000/svg">
<path d="M48.1715 0.521349H40.5425V10.4411H32.6009V0.521349H24.9719V25.4787H32.6009V15.6617H40.5425V25.4787H48.1715V0.521349ZM74.7097 20.4638V0.521349H67.0807V25.4787H80.8755L82.0227 20.4638H74.7097ZM61.4406 0.521349H53.8116V25.4787H61.4406V0.521349ZM92.3687 0.521349H84.7433V25.4787H92.3687V0.521349ZM129.981 6.89101C129.981 5.53267 131.341 4.90493 133.533 4.90493C135.937 4.90493 138.551 5.42982 140.327 6.16396L139.702 0.730596C137.713 0.312099 135.937 4.79031e-07 132.702 4.79031e-07C126.536 4.79031e-07 122.356 2.42941 122.356 7.51876C122.356 16.2895 134.272 14.5162 134.272 18.5876C134.272 20.1517 133.117 20.9851 130.297 20.9851C127.793 20.9851 123.922 20.1517 121.624 19.0026L122.462 24.7481C124.76 25.5851 127.893 26 130.404 26C136.775 26 142 23.9111 142 17.6443C142 9.29559 129.981 10.8596 129.981 6.89101ZM108.461 19.5275C115.561 19.5275 120.058 15.871 120.058 9.5013C120.058 2.50744 115.252 4.79031e-07 107.414 4.79031e-07C104.384 4.79031e-07 100.726 0.209249 98.1154 0.521349V25.4787H105.744V19.5275H108.461ZM112.535 9.60769C112.535 12.8422 110.969 15.0375 106.995 15.0375H105.744V4.72405C106.188 4.69923 106.604 4.69922 106.995 4.69922C110.756 4.69922 112.535 6.47251 112.535 9.60769ZM10.3461 19.5275C17.4494 19.5275 21.9423 15.871 21.9423 9.5013C21.9423 2.50744 17.1369 4.79031e-07 9.30187 4.79031e-07C6.26873 4.79031e-07 2.61404 0.209249 0 0.521349V25.4787H7.62903V19.5275H10.3461ZM14.4234 9.60769C14.4234 12.8422 12.8536 15.0375 8.88277 15.0375H7.62903V4.72405C8.07299 4.69923 8.49209 4.69922 8.88277 4.69922C12.644 4.69922 14.4234 6.47251 14.4234 9.60769Z" fill="white"/>
</svg>
