<svg width="142" height="71" viewBox="0 0 142 71" fill="none" xmlns="http://www.w3.org/2000/svg">
<path d="M0.0023655 0C4.92261 0.00188536 9.84286 -1.67842e-09 14.7631 0.00188536C17.2895 0.0226243 19.8385 0.925711 21.6874 2.66401C23.2221 4.0818 24.1986 6.13496 24.1324 8.23902C24.1929 10.147 23.5912 12.0965 22.3535 13.5689C21.3676 14.7774 19.9861 15.6051 18.5252 16.1179C20.0524 16.5516 21.5228 17.3924 22.4254 18.7273C23.137 19.7303 23.4057 20.9727 23.4171 22.185C23.4189 24.4211 23.4208 26.6571 23.4152 28.8931C21.3354 28.8894 19.2557 28.8931 17.1759 28.8912C17.1721 27.0964 17.1797 25.3015 17.174 23.5067C17.1305 22.2246 16.8372 20.8577 15.9061 19.9151C14.9202 18.9328 13.4687 18.6368 12.1251 18.5764C10.7171 18.5595 9.31109 18.5746 7.90314 18.5708C7.90882 16.9022 7.888 15.2356 7.9145 13.567C9.94315 13.5859 11.9718 13.5689 14.0005 13.5765C15.4179 13.5746 16.7861 12.7017 17.3879 11.4215C18.2111 9.736 17.9631 7.42266 16.47 6.17832C15.6241 5.48828 14.5057 5.22433 13.4308 5.22999C10.9234 5.23564 8.41788 5.2281 5.91234 5.23376C5.91423 11.3913 5.91234 17.5489 5.91234 23.7084C3.94235 23.7084 1.97046 23.7084 0.000473101 23.7084C0.000473101 15.805 -0.0014193 7.90343 0.0023655 0Z" fill="white"/>
<path d="M74.7523 0C76.7848 0.00188536 78.8172 0.00188536 80.8515 0C80.8515 6.22169 80.8534 12.4434 80.8515 18.6651C82.4128 18.6669 83.974 18.6651 85.5371 18.6669C87.5336 18.6952 89.3314 16.9946 89.5225 15.0357C89.8518 12.9713 88.4268 10.7183 86.3149 10.3487C85.1965 10.1904 84.061 10.311 82.937 10.2752C82.9351 8.59347 82.937 6.91361 82.9351 5.23376C84.2446 5.2281 85.5541 5.23564 86.8637 5.22999C89.6096 5.17343 92.293 6.60441 93.9015 8.80086C95.5176 10.9803 96.057 13.863 95.529 16.5025C94.7834 19.8 91.9467 22.3076 88.7731 23.2653C87.1778 23.7838 85.4803 23.7631 83.8226 23.7536C80.7985 23.7536 77.7745 23.7536 74.7504 23.7536C74.7504 15.8351 74.7485 7.91851 74.7523 0Z" fill="white"/>
<path d="M122.675 0.00141402C124.725 -0.00047134 126.774 -0.00047134 128.825 0.00141402C128.825 3.77025 128.824 7.54097 128.825 11.3117C130.108 11.2664 131.41 11.4248 132.682 11.191C133.874 10.9459 134.839 10.0315 135.252 8.90597C135.744 7.72762 135.708 6.42672 135.75 5.17673C137.763 5.19746 139.777 5.17861 141.792 5.18615C141.741 7.13938 141.758 9.22459 140.734 10.9648C139.858 12.4844 138.204 13.3252 136.588 13.8437C138.501 14.3792 140.363 15.5292 141.219 17.3825C142.214 19.3471 141.872 21.5925 141.93 23.7079C139.896 23.7079 137.862 23.7079 135.829 23.7079C135.712 21.9564 136.191 20.0409 135.244 18.4459C134.514 17.128 132.987 16.4644 131.532 16.3701C130.631 16.3324 129.726 16.3663 128.825 16.355C128.824 18.806 128.824 21.257 128.825 23.706C126.774 23.7079 124.725 23.7079 122.675 23.706C122.677 15.8045 122.675 7.90295 122.675 0.00141402Z" fill="white"/>
<path d="M106.273 5.16906C109.288 4.64115 112.537 4.9051 115.27 6.35495C117.355 7.45977 118.986 9.39037 119.656 11.6528C120.481 14.4488 120.147 17.6558 118.44 20.0672C117.001 22.1392 114.681 23.4816 112.242 24.0264C109.398 24.6542 106.324 24.4563 103.669 23.2138C101.122 22.0355 99.0444 19.7655 98.3499 17.0261C97.6364 14.2037 98.172 11.0174 100.009 8.7173C101.548 6.79235 103.868 5.60457 106.273 5.16906ZM107.776 9.86926C105.581 10.416 103.949 12.6162 104.107 14.8711C104.195 16.4774 105.123 18.0197 106.519 18.8341C107.905 19.6957 109.719 19.7749 111.184 19.0585C113.438 18.0215 114.617 15.1728 113.671 12.8689C112.842 10.5668 110.136 9.17733 107.776 9.86926Z" fill="white"/>
<path d="M27.6182 9.53874C29.2192 6.97089 32.1467 5.28726 35.1859 5.23824C39.1335 5.22504 43.0791 5.23635 47.0248 5.23258C46.9964 7.03687 47.0835 8.85436 46.9832 10.6473C45.6982 12.6835 44.383 14.7027 43.0886 16.7333C41.1281 16.7276 39.1694 16.7427 37.2108 16.7257C38.5071 14.5783 39.8091 12.4328 41.0883 10.2759C39.5063 10.2721 37.9242 10.2797 36.3403 10.2721C34.9096 10.225 33.5225 11.0508 32.7845 12.2555C31.8988 13.6545 31.9518 15.5832 32.9359 16.9218C33.7288 18.0719 35.1235 18.7393 36.5144 18.7148C40.0172 18.7148 43.522 18.7129 47.0248 18.7148C47.0248 20.3946 47.0267 22.0745 47.0248 23.7544C43.6507 23.7562 40.2765 23.7544 36.9023 23.7562C35.5171 23.7581 34.0997 23.7713 32.7637 23.3528C30.12 22.5835 27.8983 20.5436 26.8802 17.9984C25.7599 15.2759 26.0286 12.0255 27.6182 9.53874Z" fill="white"/>
<path d="M53.6512 7.02168C55.1954 5.86407 57.1181 5.25321 59.0445 5.23247C62.924 5.23059 66.8034 5.23247 70.6809 5.23247C70.6847 7.03487 70.6752 8.83728 70.6866 10.6397C69.3827 12.6702 68.0826 14.7045 66.775 16.7332C64.8183 16.7313 62.8634 16.7332 60.9067 16.7332C62.184 14.5725 63.4955 12.4327 64.7823 10.2758C63.0545 10.2796 61.3268 10.2626 59.599 10.2815C57.3035 10.4662 55.4963 12.806 55.8785 15.0646C56.1302 17.0197 57.8977 18.6506 59.8848 18.7034C63.4992 18.7279 67.1137 18.709 70.7263 18.7128C70.732 20.3926 70.7263 22.0725 70.7301 23.7542C66.8431 23.7448 62.9561 23.7769 59.0691 23.7392C56.6771 23.7373 54.2927 22.7701 52.6198 21.0601C50.629 19.1351 49.6317 16.2694 49.9345 13.5299C50.1786 10.9677 51.5639 8.53751 53.6512 7.02168Z" fill="white"/>
<path d="M101.993 36.3433C115.296 34.8784 128.645 33.8339 142 32.9799C134.779 34.8124 127.533 36.5771 120.379 38.6755C110.334 41.5318 100.539 45.1744 90.8654 49.077C85.8032 46.1001 80.7221 43.157 75.6637 40.1744C84.3707 38.4738 93.1798 37.3445 101.993 36.3433Z" fill="white"/>
<path d="M5.7924 33.7924C22.4399 33.8132 39.0892 33.7679 55.7329 33.8151C59.3701 35.6382 62.8767 37.7178 66.425 39.7068C80.1714 47.5744 93.844 55.5721 107.448 63.6792C110.719 65.6324 113.99 67.58 117.226 69.5897C117.936 70.0535 118.686 70.4627 119.344 71C104.644 64.8462 90.0743 58.3662 75.1697 52.7139C62.4623 47.8685 49.488 43.717 36.2998 40.3836C29.0197 38.5228 21.6791 36.9052 14.3082 35.4421C11.4772 34.8595 8.61397 34.4108 5.7924 33.7924Z" fill="white"/>
<path d="M24.0541 58.0453C30.9689 53.528 38.6047 50.2192 46.3749 47.4684C51.0056 48.7128 55.5569 50.2493 60.1195 51.7218C54.0524 54.1181 48.2219 57.1648 42.9705 61.0411C39.6134 63.5562 36.3793 66.3182 33.8245 69.661C26.289 69.6648 18.7534 69.6685 11.2198 69.6591C14.7983 65.0984 19.2057 61.2202 24.0541 58.0453Z" fill="white"/>
<path d="M47.0614 64.5808C52.2674 59.8655 58.3306 56.1457 64.744 53.2969C68.366 54.5583 71.9616 55.8987 75.542 57.2751C72.4442 59.4715 69.3595 61.7396 66.784 64.5469C65.3003 66.1306 63.9889 67.8651 62.7759 69.66C55.9594 69.6675 49.143 69.6581 42.3266 69.6656C43.7005 67.7935 45.3601 66.1532 47.0614 64.5808Z" fill="white"/>
</svg>
