<?xml version="1.0" encoding="UTF-8"?>
<svg id="Livello_2" data-name="Livello 2" xmlns="http://www.w3.org/2000/svg" viewBox="0 0 1979.01 520.01">
  <defs>
    <style>
      .cls-1 {
        fill: #fff;
      }
    </style>
  </defs>
  <g id="Livello_1-2" data-name="Livello 1">
    <path class="cls-1" d="M135.05,113.12c0-12.45-9.86-22.96-22.31-23.09-6.29-.06-12,2.46-16.09,6.62-4.09,4.09-6.62,9.73-6.62,15.89v26.14c0,7.85,1.17,15.57,3.31,22.96,3.57,12.19,10.05,23.48,19,32.89l28.54,30.1,39.5,41.58c28.67,30.16,44.63,70.12,44.63,111.69v43.65c0,6.88-.71,13.62-2.01,20.11-9.28,44.76-48.91,78.35-96.39,78.35h-28.15c-54.36,0-98.46-44.11-98.46-98.46v-79.65h90.03v64.99c0,12.45,9.86,22.96,22.31,23.09,6.29.06,12-2.46,16.09-6.62,4.09-4.09,6.62-9.73,6.62-15.89v-26.08c0-20.76-7.98-40.8-22.31-55.85l-14.53-15.24-53.58-56.43c-4.09-4.28-7.91-8.76-11.48-13.43C11.74,212.36,0,177.86,0,142.18v-43.72c0-4.67.32-9.21.97-13.75.32-2.14.65-4.22,1.1-6.29.91-4.28,2.01-8.37,3.44-12.45C18.94,27.57,55.46,0,98.46,0h28.15c54.36,0,98.46,44.11,98.46,98.46v79.59h-90.03v-64.93Z"/>
    <path class="cls-1" d="M251.34,9.62h90.03v500.78h-90.03V9.62Z"/>
    <path class="cls-1" d="M367.63,9.6h140.69c46.57,0,84.39,37.75,84.39,84.39v332.04c0,46.57-37.75,84.39-84.39,84.39h-140.69V9.6ZM502.67,122.14c0-12.45-10.05-22.51-22.51-22.51h-22.51v320.75h22.51c12.45,0,22.51-10.05,22.51-22.51V122.14Z"/>
    <path class="cls-1" d="M1183.18,510.41h-140.19l-7.85-205.36h-13.52l-7.85,205.36h-140.12l-28.09-500.81h84.34l21.99,410.78h10.94l21.99-410.78h87.18l21.99,410.78h10.94l19.15-410.78h87.18l-28.09,500.81Z"/>
    <path class="cls-1" d="M1440.51,510.35h-91.28l-2.92-80.17h-35.4l-5.82,80.17h-91.09l28.15-500.75h170.2l28.15,500.75ZM1342.94,340.21l-8.82-240.51h-13.78l-8.95,240.51h31.55Z"/>
    <path class="cls-1" d="M1578.67,10.35h91.09l-28.15,500.75h-170.2l-28.15-500.75h91.28l15.05,410.78h13.78l15.31-410.78Z"/>
    <path class="cls-1" d="M1788.6,215.02h97.75v89.97h-97.75v115.39h112.47v90.03h-202.5V9.6h202.5v90.03h-112.47v115.39Z"/>
    <path class="cls-1" d="M1961.83,14.15c5.39,3.03,9.6,7.24,12.63,12.63,3.03,5.39,4.55,11.51,4.55,18.36s-1.52,12.97-4.55,18.36c-3.03,5.39-7.24,9.6-12.63,12.63-5.39,3.03-11.51,4.55-18.36,4.55s-12.97-1.52-18.36-4.55c-5.39-3.03-9.6-7.24-12.63-12.63-3.03-5.39-4.55-11.51-4.55-18.36s1.52-12.97,4.55-18.36c3.03-5.39,7.24-9.6,12.63-12.63,5.39-3.03,11.51-4.55,18.36-4.55s12.97,1.52,18.36,4.55ZM1963.77,65.34c5.22-5.28,7.83-12.01,7.83-20.21s-2.61-15.07-7.83-20.29c-5.22-5.22-11.99-7.83-20.29-7.83s-14.93,2.61-20.21,7.83c-5.28,5.22-7.92,11.99-7.92,20.29s2.64,14.93,7.92,20.21c5.28,5.28,12.01,7.92,20.21,7.92s15.07-2.64,20.29-7.92ZM1949.54,50.69l7.41,12.8h-8.08l-7.07-12.63h-3.03v12.63h-7.24V26.78h12.8c8.31,0,12.46,3.99,12.46,11.96v.17c0,6.06-2.42,9.83-7.24,11.28v.51ZM1938.76,44.12h5.56c2.02,0,3.39-.39,4.13-1.18.73-.78,1.09-2.13,1.09-4.04v-.17c0-2.13-.37-3.54-1.09-4.21-.73-.67-2.11-1.01-4.13-1.01h-5.56v10.61Z"/>
    <path class="cls-1" d="M709.01,214.98h97.75v89.99h-97.75v115.34h112.49v90.04h-202.53V9.6h202.53v89.99h-112.49v115.39Z"/>
  </g>
</svg>