<svg width="126" height="46" viewBox="0 0 126 46" fill="none" xmlns="http://www.w3.org/2000/svg">
<path d="M83.0762 22.9286C86.6149 19.3865 86.599 13.6597 83.0405 10.1375L75.4575 2.63153C73.6784 0.870192 71.3502 -0.0062944 69.0248 3.40237e-05C66.6991 0.00658846 64.3761 0.895958 62.6066 2.66701L55.0655 10.2146C51.5268 13.7567 51.5427 19.4834 55.1012 23.0057C58.6598 26.5281 64.4134 26.5123 67.9521 22.9702L69.0856 21.8358L70.2253 22.9641C73.7837 26.4863 79.5373 26.4705 83.0762 22.9286Z" fill="white"/>
<path fill-rule="evenodd" clip-rule="evenodd" d="M34.3181 0.0393196C29.8643 0.0515244 26.2639 3.65511 26.2761 8.08817L26.3025 17.5347C26.3147 21.9675 29.9352 25.5512 34.3889 25.539H34.4117L43.8801 25.5128C48.3339 25.5006 51.9343 21.8968 51.9219 17.4639C51.9096 13.0309 48.2892 9.4472 43.8354 9.4594L42.4084 9.46324L42.4046 8.04387C42.3923 3.61036 38.7717 0.0271148 34.3181 0.0393196ZM17.6022 25.6138C22.056 25.6014 25.6564 21.9978 25.6439 17.5648L25.6181 8.26016C25.6187 8.21293 25.619 8.16569 25.619 8.11823C25.6065 3.68517 21.986 0.101474 17.5323 0.113905L8.04179 0.140122C3.588 0.152327 -0.0124566 3.75591 3.23925e-05 8.18874C0.0122943 12.622 3.63273 16.2055 8.08652 16.1933L9.51162 16.1895L9.51548 17.6093C9.52797 22.0423 13.1484 25.626 17.6022 25.6138Z" fill="white"/>
<path d="M91.9492 3.69998H93.8107V8.34323H94.6443V3.69998H96.5135V2.94554H91.9492V3.69998ZM97.3989 8.34323H98.2323V5.91651H101.106V8.34323H101.932V2.94531H101.106V5.16998H98.2323V2.94554H97.3989V8.34323ZM103.294 8.34323H107.235V7.60439H104.127V5.94001H106.908V5.22445H104.127V3.67647H107.188V2.94554H103.294V8.34323ZM92.4165 15.5768H96.0853V14.8222H93.2501V10.1789H92.4165V15.5768ZM101.798 12.8778C101.798 11.2057 100.754 10.0933 99.1573 10.0933C97.5606 10.0933 96.5167 11.2057 96.5167 12.8778C96.5167 14.5503 97.5606 15.6623 99.1573 15.6623C100.754 15.6623 101.798 14.5503 101.798 12.8778ZM100.925 12.8778C100.925 14.1613 100.162 14.9467 99.1573 14.9467C98.1526 14.9467 97.3969 14.1613 97.3969 12.8778C97.3969 11.5945 98.1526 10.8088 99.1573 10.8088C100.162 10.8088 100.925 11.5945 100.925 12.8778ZM103.052 10.1789H102.164L104.111 15.5768H105.17L107.141 10.1789H106.276L104.648 14.7211L103.052 10.1789ZM107.98 15.5768H108.813V10.1789H107.98V15.5768ZM110.163 15.5768H114.104V14.8378H110.996V13.1734H113.777V12.4581H110.996V10.9103H114.057V10.1792H110.163V15.5768ZM96.3267 22.8102H97.2068L95.0805 17.4123H94.0446L91.9258 22.8102H92.7828L93.328 21.4259H95.7892L96.3267 22.8102ZM94.5585 18.1514L95.5401 20.718H93.577L94.5585 18.1514ZM103.2 22.8102L104.625 17.4123H103.792L102.616 21.9469L101.37 17.4123H100.373L99.1265 21.9392L97.9582 17.4123H97.1012L98.5345 22.8102H99.6094L100.863 18.2601L102.125 22.8102H103.2ZM108.927 22.8102H109.807L107.681 17.4123H106.645L104.526 22.8102H105.383L105.928 21.4259H108.39L108.927 22.8102ZM107.159 18.1514L108.141 20.718H106.178L107.159 18.1514ZM110.669 22.8102H111.502V20.6091H112.927L114.252 22.8102H115.194L113.792 20.4768C114.501 20.2825 114.953 19.7769 114.953 18.9913C114.953 17.9647 114.267 17.4123 113.029 17.4123H110.669V22.8102ZM111.502 19.9091V18.1123H112.951C113.66 18.1123 114.088 18.3534 114.088 19.0148C114.088 19.6679 113.66 19.9091 112.951 19.9091H111.502ZM120.873 20.1114C120.873 18.5401 119.923 17.4123 118.162 17.4123H116.16V22.8102H118.162C119.923 22.8102 120.873 21.6903 120.873 20.1114ZM119.993 20.1114C119.993 21.3246 119.299 22.0868 118.139 22.0868H116.994V18.136H118.139C119.299 18.136 119.993 18.8981 119.993 20.1114ZM123.858 22.8959C125.182 22.8959 126 22.2581 126 21.3169C126 20.5313 125.517 20.049 124.731 19.8779L123.313 19.5513C122.783 19.4347 122.589 19.1703 122.589 18.8281C122.589 18.3458 123.071 18.0113 123.773 18.0113C124.45 18.0113 124.956 18.3069 125.011 18.9757H125.876C125.868 17.9102 124.941 17.3269 123.765 17.3269C122.612 17.3269 121.763 17.9414 121.763 18.8593C121.763 19.6526 122.246 20.1191 123.025 20.2981L124.442 20.6247C124.98 20.749 125.175 21.0057 125.175 21.3479C125.175 21.8614 124.66 22.2113 123.882 22.2113C123.087 22.2113 122.519 21.8146 122.472 21.1614H121.607C121.646 22.2814 122.503 22.8959 123.858 22.8959Z" fill="white"/>
<path d="M41.4764 44.0114V45.4534H35.4844V44.0114H37.7104V38.7754H37.5564C37.3884 39.2794 36.987 39.5314 36.3524 39.5314H35.5544V38.0894H37.1084C37.351 38.0894 37.5097 38.0521 37.5844 37.9774C37.6684 37.8934 37.7104 37.7348 37.7104 37.5014V35.9054H39.2644V44.0114H41.4764Z" fill="#899494"/>
<path d="M44.8584 41.5374C44.248 41.5374 43.7636 41.3834 43.4052 41.0754C43.0524 40.7674 42.876 40.3054 42.876 39.6894H43.8C43.8 40.0702 43.8812 40.3334 44.0436 40.479C44.206 40.6246 44.4776 40.6974 44.8584 40.6974H44.9088C45.2616 40.6974 45.5192 40.6386 45.6816 40.521C45.844 40.3978 45.9252 40.1962 45.9252 39.9162C45.9252 39.737 45.8692 39.5886 45.7572 39.471C45.6508 39.3534 45.522 39.261 45.3708 39.1938C45.2196 39.121 45.018 39.0454 44.766 38.967C44.71 38.9446 44.626 38.9166 44.514 38.883C43.9932 38.7038 43.6068 38.4882 43.3548 38.2362C43.1028 37.9786 42.9768 37.6342 42.9768 37.203C42.9768 36.7046 43.142 36.321 43.4724 36.0522C43.8028 35.7778 44.2284 35.6406 44.7492 35.6406H44.7996C45.3932 35.6406 45.8608 35.7946 46.2024 36.1026C46.544 36.4106 46.7148 36.8754 46.7148 37.497H45.7908C45.7908 37.1106 45.7152 36.8446 45.564 36.699C45.4128 36.5534 45.158 36.4806 44.7996 36.4806H44.7492C44.1948 36.4806 43.9176 36.7158 43.9176 37.1862C43.9176 37.3654 43.9624 37.5138 44.052 37.6314C44.1472 37.749 44.2676 37.8414 44.4132 37.9086C44.5588 37.9758 44.752 38.0458 44.9928 38.1186C45.3904 38.2418 45.7208 38.3762 45.984 38.5218C46.2472 38.6618 46.4572 38.8466 46.614 39.0762C46.7708 39.3002 46.8492 39.5802 46.8492 39.9162C46.8492 40.4482 46.6728 40.8514 46.32 41.1258C45.9728 41.4002 45.5024 41.5374 44.9088 41.5374H44.8584Z" fill="#899494"/>
<path d="M51.5855 36.5898H50.0315V41.4534H49.1075V36.5898H47.5535V35.7246H51.5855V36.5898Z" fill="#899494"/>
<path d="M60.1318 35.9054C62.2131 35.9054 63.2538 36.9041 63.2538 38.9014V38.9574C63.2538 40.9548 62.2131 41.9534 60.1318 41.9534H58.2978V45.4534H56.7438V35.9054H60.1318ZM61.7278 38.9014C61.7278 38.5094 61.6811 38.2014 61.5878 37.9774C61.4945 37.7534 61.3311 37.5948 61.0978 37.5014C60.8738 37.3988 60.5518 37.3474 60.1318 37.3474H58.2978V40.5254H60.1318C60.5518 40.5254 60.8738 40.4741 61.0978 40.3714C61.3311 40.2688 61.4945 40.1054 61.5878 39.8814C61.6811 39.6574 61.7278 39.3494 61.7278 38.9574V38.9014Z" fill="#899494"/>
<path d="M67.4129 41.9534H66.4189V45.4534H64.8649V35.9054H68.0849C70.1662 35.9054 71.2069 36.9041 71.2069 38.9014V38.9574C71.2069 40.5814 70.5116 41.5474 69.1209 41.8554V41.9814L71.2349 45.4534H69.5129L67.4129 41.9534ZM69.6809 38.9014C69.6809 38.5094 69.6342 38.2014 69.5409 37.9774C69.4476 37.7534 69.2842 37.5948 69.0509 37.5014C68.8269 37.3988 68.5049 37.3474 68.0849 37.3474H66.4189V40.5254H68.0849C68.5049 40.5254 68.8269 40.4741 69.0509 40.3714C69.2842 40.2688 69.4476 40.1054 69.5409 39.8814C69.6342 39.6574 69.6809 39.3494 69.6809 38.9574V38.9014Z" fill="#899494"/>
<path d="M73.0544 35.9054H74.6084V45.4534H73.0544V35.9054Z" fill="#899494"/>
<path d="M76.5422 44.1794L80.8402 37.4874V37.3474H76.7802V35.9054H82.6602V37.2214L78.3762 43.8714V44.0114H82.7302V45.4534H76.5422V44.1794Z" fill="#899494"/>
<path d="M86.2021 37.3474V39.9374H89.3941V41.3654H86.2021V44.0114H90.5141V45.4534H84.6481V35.9054H90.5141V37.3474H86.2021Z" fill="#899494"/>
</svg>
