<svg width="101" height="83" viewBox="0 0 101 83" fill="none" xmlns="http://www.w3.org/2000/svg">
    <path d="M0 26.53V22.22C3.72 22.7 17.19 22.9 17.19 24.15C17.19 25.4 3.1 26.35 0 26.53Z" fill="white"/>
    <path d="M0 33.8V29.02C3.45 29.31 17.05 29.9 17.05 31.18C17.05 32.46 2.75 33.61 0 33.8Z" fill="white"/>
    <path d="M0 19.63V14.89C3.32 15.2 17.05 15.84 17.05 17.13C17.05 18.42 3.59 19.4 0 19.63Z" fill="white"/>
    <path d="M0 40.67V36.25C3.16 36.44 17.05 36.59 17.05 37.89C17.05 39.19 2.65 40.47 0 40.67Z" fill="white"/>
    <path d="M29.42 0V56.08H23.06C23.16 55.95 23.24 55.81 23.29 55.67L23.33 55.59V45.16C23.33 43.88 21.16 42.78 17.84 42.14C17.8 42.12 17.75 42.11 17.71 42.11C16.36 41.81 15.29 41.66 15.29 41.66C15.29 41.66 22.88 40.65 22.88 37.82C22.88 35.28 14.59 34.64 14.59 34.64C14.59 34.64 22.77 33.3 22.77 30.95C22.77 29.1 14.06 27.72 14.06 27.72C14.06 27.72 22.57 26.55 22.57 24.01C22.57 21.85 14.68 20.7 14.68 20.7C14.68 20.7 22.34 19.9 22.34 17.15C22.34 15.02 14.27 13.67 14.27 13.67C14.27 13.67 22.27 12.69 22.27 10.27C22.27 7.12 11.7 6.38 11.7 6.38L10.05 8.41C10.05 8.41 17.28 9.07 17.28 10.19C17.28 11.21 2.88 12.23 0 12.44V0H29.42Z" fill="white"/>
    <path d="M40.45 46.02L45.19 56.2H44.37L43.08 53.37H37.06L35.77 56.2H34.98L39.72 46.02H40.46H40.45ZM42.75 52.69L40.07 46.84L37.37 52.69H42.75ZM44.89 46.09H45.73L48.93 55.09L51.91 46.06H52.5L55.48 55.09L58.68 46.09H59.47L55.77 56.28H55.16L52.18 47.49L49.2 56.28H48.58L44.89 46.09ZM63.91 46.02H64.64L69.38 56.2H68.56L67.27 53.37H61.25L59.96 56.2H59.17L63.91 46.02ZM66.94 52.69L64.26 46.84L61.56 52.69H66.94ZM70.89 46.09H75.17C76.42 46.09 77.42 46.48 78.04 47.08C78.54 47.58 78.81 48.26 78.81 48.96V48.99C78.81 50.68 77.54 51.65 75.83 51.88L79.19 56.2H78.23L74.99 52.01H71.65V56.2H70.9V46.09H70.89ZM75.08 51.34C76.79 51.34 78.05 50.49 78.05 49.03V49C78.05 47.64 76.97 46.79 75.12 46.79H71.65V51.34H75.08ZM81.05 46.09H84.45C87.65 46.09 89.86 48.27 89.86 51.11V51.14C89.86 53.99 87.65 56.2 84.45 56.2H81.05V46.09ZM84.45 55.51C87.29 55.51 89.08 53.58 89.08 51.18V51.15C89.08 48.75 87.29 46.79 84.45 46.79H81.81V55.51H84.45ZM91.28 54.73L91.77 54.16C92.89 55.19 93.92 55.67 95.42 55.67C96.92 55.67 98 54.82 98 53.66V53.63C98 52.56 97.43 51.94 95.12 51.47C92.67 50.98 91.68 50.16 91.68 48.63V48.6C91.68 47.1 93.06 45.94 94.96 45.94C96.44 45.94 97.42 46.35 98.45 47.17L97.97 47.77C97.14 47.02 96.05 46.61 94.93 46.63C93.43 46.63 92.44 47.48 92.44 48.54V48.57C92.44 49.64 92.99 50.29 95.41 50.78C97.76 51.26 98.75 52.09 98.75 53.57V53.6C98.75 55.24 97.34 56.36 95.38 56.36C93.74 56.36 92.5 55.83 91.27 54.74L91.28 54.73Z" fill="white"/>
    <path d="M37.58 15.5H34.03V14.8H41.89V15.5H38.33V24.92H37.58V15.5ZM43.53 14.81H44.29V19.5H50.81V14.81H51.57V24.93H50.81V20.19H44.29V24.93H43.53V14.81ZM54.23 14.81H61.48V15.51H54.99V19.48H60.83V20.18H54.99V24.24H61.56V24.94H54.24V14.82L54.23 14.81Z" fill="white"/>
    <path d="M44.89 29.98C45.24 31.24 45.6 32.49 45.97 33.75C46.62 36 46.74 36.36 47.1 38.62C47.45 36.31 47.54 35.91 48.07 33.54L48.84 29.98H51.75L48.77 41.65H45.74C45.37 40.36 45.02 39.07 44.64 37.79C44.01 35.65 43.97 35.57 43.62 33.93C43.36 35.21 43.03 36.47 42.62 37.71L41.49 41.64H38.46L35.48 29.97H38.41C39.68 35.51 39.81 36.12 40.16 38.64C40.6 36.33 40.71 35.88 41.33 33.57L42.3 29.97H44.9L44.89 29.98ZM63.85 38.49C63.46 39.07 63.07 39.63 62.48 40.17C61.31 41.22 59.79 41.78 58.21 41.76C54.86 41.76 52.49 39.63 52.49 35.96C52.49 33.25 53.83 29.77 58.29 29.77C58.96 29.77 60.91 29.83 62.36 31.38C63.83 32.95 63.92 35.14 63.97 36.41H55.89C55.87 37.81 56.67 39.2 58.47 39.2C60.27 39.2 60.92 38.02 61.33 37.23L63.84 38.5L63.85 38.49ZM60.54 34.34C60.51 33.76 60.29 33.2 59.91 32.75C59.46 32.33 58.85 32.1 58.23 32.12C57.61 32.14 57.02 32.4 56.6 32.85C56.15 33.35 56.03 33.86 55.93 34.33H60.54V34.34ZM66.07 29.98H70.61C71.85 29.98 72.96 30.03 73.67 30.26C74.26 30.42 74.79 30.78 75.15 31.27C75.52 31.76 75.71 32.36 75.7 32.97C75.7 33.6 75.54 33.98 75.48 34.09C74.95 35.28 73.82 35.52 73.18 35.64C73.9 35.76 74.85 35.9 75.49 36.63C75.91 37.07 76.14 37.72 76.14 38.38C76.14 38.99 75.94 39.58 75.6 40.08C75.25 40.58 74.77 40.97 74.2 41.2C73.32 41.58 72.37 41.63 71.02 41.63H66.06V29.96L66.07 29.98ZM68.87 32.16V34.59H71.08C71.75 34.57 72.83 34.54 72.83 33.33C72.83 32.21 71.85 32.16 71.28 32.16H68.87ZM68.87 36.7V39.53H70.92C71.9 39.51 73.18 39.48 73.18 38.14C73.18 36.8 72.01 36.72 71.41 36.7H68.87ZM78.56 29.98H83.1C84.33 29.98 85.44 30.03 86.16 30.26C86.75 30.42 87.28 30.78 87.64 31.27C88.01 31.76 88.2 32.36 88.19 32.97C88.19 33.6 88.03 33.98 87.97 34.09C87.44 35.28 86.31 35.52 85.67 35.64C86.39 35.76 87.34 35.9 87.98 36.63C88.39 37.07 88.63 37.72 88.63 38.38C88.63 39.29 88.15 40.56 86.69 41.2C85.81 41.58 84.86 41.63 83.51 41.63H78.55V29.96L78.56 29.98ZM81.35 32.16V34.59H83.56C84.23 34.57 85.31 34.54 85.31 33.33C85.31 32.21 84.33 32.16 83.76 32.16H81.35ZM81.35 36.7V39.53H83.4C84.38 39.51 85.66 39.48 85.66 38.14C85.66 36.8 84.49 36.72 83.89 36.7H81.35ZM91.95 29.98L94.48 33.98C94.63 33.65 94.66 33.58 94.96 33.1L96.97 29.97H100.31L95.87 36.12V41.64H92.97V36.21L88.56 29.98H91.95Z" fill="white"/>
    <path d="M49.0695 71.3824C50.5032 71.312 52.0549 71.4052 53.4994 71.3678C53.9708 71.3557 54.9279 71.3219 55.3271 71.5158C55.6851 71.6866 55.9545 71.9869 56.0734 72.3478C56.1205 72.4937 56.1457 72.6482 56.1474 72.8003C56.1662 74.2869 56.1593 75.788 56.1593 77.2746L56.159 79.5649C56.1583 80.7682 56.4116 81.9025 54.9242 82.3199C54.6736 82.3406 54.4036 82.3379 54.1513 82.3363C52.4742 82.3258 50.7912 82.3669 49.1155 82.3181C48.9498 82.3133 48.6902 82.2122 48.5441 82.1299C48.2044 81.9416 47.9611 81.6308 47.8709 81.2696C47.7999 80.9944 47.8237 80.2062 47.8241 79.8986L47.823 74.4833C47.823 73.895 47.8153 73.3099 47.8365 72.7218C47.8625 71.9999 48.3436 71.5427 49.0695 71.3824ZM51.9547 73.2421C51.0121 73.3564 50.8213 73.8861 50.8321 74.6766C50.8542 76.3107 50.7847 77.9565 50.8644 79.5885C50.8755 79.8279 51.0811 80.0843 51.2751 80.2229C51.4962 80.3783 51.7648 80.4622 52.0406 80.4622C52.6904 80.3401 53.1028 80.043 53.1309 79.3782C53.1638 78.5949 53.1497 77.8085 53.1504 77.0242V75.3048C53.1497 74.3873 53.2949 73.3162 51.9547 73.2421Z" fill="white"/>
    <path d="M29.7653 71.3813C30.7156 71.3367 31.6977 71.3857 32.6512 71.367C33.3686 71.37 34.0821 71.3624 34.7999 71.3675C35.2775 71.3708 35.6901 71.3295 36.1138 71.5729C36.9632 72.0608 36.8325 72.8542 36.8326 73.6742L36.8339 79.0988C36.8339 79.7283 36.8394 80.3482 36.8152 80.9776C36.7868 81.7179 36.3061 82.1709 35.5554 82.3249C34.5929 82.3824 33.2835 82.3176 32.2813 82.3389C31.7543 82.3501 30.2095 82.3645 29.7884 82.3164C29.5778 82.2912 29.3753 82.223 29.1957 82.1164C28.335 81.6053 28.5024 80.636 28.5021 79.8034L28.5002 74.3531C28.5003 73.8134 28.4887 73.2773 28.5177 72.7381C28.5578 71.995 29.0097 71.5392 29.7653 71.3813ZM32.6727 73.2434C31.9442 73.3169 31.5245 73.6941 31.5124 74.3934C31.4993 75.1563 31.5064 75.9189 31.5055 76.6819L31.5048 78.4499C31.5056 79.3733 31.3541 80.3283 32.6704 80.465C33.2959 80.3767 33.7971 80.0625 33.8148 79.4117C33.86 77.76 33.8314 76.1012 33.8294 74.4484C33.8288 73.7489 33.4229 73.3008 32.6727 73.2434Z" fill="white"/>
    <path d="M57.1612 71.3668C59.5519 71.4433 62.0102 71.313 64.4071 71.3754C65.2139 71.3965 65.8235 72.0204 65.8387 72.7653C65.8588 73.7488 65.8377 74.716 65.8471 75.6986C65.8519 76.264 65.7268 76.9342 65.1186 77.2065C64.1725 77.6302 64.1301 77.7557 64.528 78.6672C65.0593 79.8849 65.6429 81.111 66.1569 82.3392L63.2323 82.3402C63.1408 82.3386 63.0749 82.3393 62.983 82.3451C62.721 82.1476 61.7734 79.6203 61.5191 79.2029C61.3427 78.9137 61.1902 78.0994 60.7126 78.1075C59.9515 78.1204 60.1439 79.2746 60.1449 79.7359L60.1435 82.3391L57.16 82.3384C57.1194 78.7264 57.1356 74.9817 57.1612 71.3668ZM62.0236 73.4087C61.6756 73.3885 61.3051 73.4035 60.9547 73.4087C60.5309 73.4516 60.237 73.5476 59.9542 73.8789C59.7318 74.1354 59.6278 74.4649 59.6649 74.7941C59.7034 75.1245 59.8811 75.4265 60.1587 75.6319C60.6751 76.0138 61.4563 75.9216 62.1002 75.9093C63.769 75.6967 63.7259 73.5078 62.0236 73.4087Z" fill="white"/>
    <path d="M43.824 71.35C44.775 71.3828 45.85 71.3669 46.808 71.3744C46.8158 74.9879 46.8613 78.7351 46.8022 82.3391L44.5698 82.338C43.877 81.1225 43.1026 79.9319 42.4004 78.7194C42.2038 78.38 41.8264 77.5777 41.3801 77.5512C41.2468 77.5433 41.1162 77.5888 41.0206 77.6766C40.7317 77.9372 40.8261 79.0354 40.8266 79.4313L40.8268 82.2929L40.814 82.3094C40.7206 82.3615 38.1823 82.3375 37.8541 82.337L37.8547 71.369L40.117 71.3722C40.1796 71.5003 40.2564 71.6238 40.3303 71.7465C41.1117 73.044 41.871 74.3546 42.663 75.646C42.7229 75.7437 42.9171 76.0081 43.0114 76.0668C43.3749 76.2928 43.6196 76.0496 43.7958 75.8167C43.8414 75.4912 43.8201 74.6624 43.8198 74.3124C43.8146 73.3249 43.816 72.3375 43.824 71.35Z" fill="white"/>
    <path d="M24.5052 71.3707L27.5105 71.3739C27.5183 75.0065 27.548 78.7119 27.5059 82.3399L27.0894 82.3381L24.5055 82.3364C24.4885 81.1733 24.5111 80.0063 24.5012 78.8421C24.4956 78.1805 24.1342 77.5932 23.3562 77.5832C23.0466 77.5799 22.7486 77.6936 22.5287 77.8988C22.0283 78.3599 22.1604 79.2371 22.1617 79.8637C22.1664 80.6885 22.1667 81.5133 22.1626 82.3381L19.1869 82.3374C19.1315 78.7213 19.1786 74.9942 19.1802 71.3696L22.163 71.3743L22.1599 73.5521C22.1592 73.9458 22.1286 74.4899 22.2107 74.8661C22.393 75.702 23.5126 75.9877 24.166 75.3742C24.3132 75.2387 24.4146 75.0655 24.4577 74.876C24.5258 74.5883 24.5048 73.8483 24.5041 73.5104C24.4998 72.7972 24.5001 72.0839 24.5052 71.3707Z" fill="white"/>
    <path d="M74.2875 71.3695L81.16 71.3724V73.4035C80.1924 73.4158 79.0126 73.3411 78.055 73.4414C76.8805 73.5643 76.7696 75.3461 78.0398 75.5537C78.4484 75.6204 78.8574 75.5971 79.2788 75.5958L81.1572 75.5876V77.6343L79.2511 77.6271C78.3507 77.6239 77.4558 77.5033 77.1342 78.5336C77.0493 79.2405 77.1824 80.1709 78.0412 80.2584C78.9704 80.3531 80.2163 80.3035 81.1593 80.3021C81.1461 80.9682 81.1576 81.6702 81.1572 82.3392L74.2888 82.3355L74.2875 71.3695Z" fill="white"/>
    <path d="M66.5824 71.3665C67.2479 71.3958 68.1576 71.3696 68.8386 71.3696L73.4456 71.3744L73.4477 73.4017C72.4548 73.4225 71.3735 73.3532 70.3909 73.4332C69.4569 73.5588 69.0941 74.6392 69.7366 75.2546C70.1878 75.687 70.943 75.5983 71.5433 75.5969L73.4442 75.5909L73.4494 77.6318C72.7923 77.6415 72.1245 77.6219 71.467 77.6263C71.2026 77.6281 70.7313 77.6105 70.4842 77.6428C70.3057 77.6646 70.1341 77.7203 69.9792 77.8063C69.6662 77.9828 69.5138 78.2228 69.4306 78.5447C69.3464 80.3144 69.9906 80.306 71.5991 80.3044L73.4446 80.3029L73.4487 82.3362L66.581 82.3369L66.5824 71.3665Z" fill="white"/>
</svg>